<?xml version="1.0" encoding="UTF-8" standalone="no"?>
<svg xmlns:xlink="http://www.w3.org/1999/xlink" height="32.3px" width="32.1px" xmlns="http://www.w3.org/2000/svg">
  <g transform="matrix(1.0, 0.0, 0.0, 1.0, -0.6, -0.3)">
    <path d="M29.4 0.4 Q29.85 0.1 29.85 0.7 L29.7 1.1 29.6 1.25 29.05 2.1 28.6 1.8 28.6 1.45 28.85 0.8 Q28.9 0.35 29.3 0.35 L29.4 0.4 M1.25 2.6 Q0.8 2.6 0.7 2.2 L0.7 1.7 Q0.7 1.15 1.45 0.65 2.2 0.2 2.2 0.95 L1.25 2.6 M1.85 29.35 L1.55 29.85 1.0 30.25 Q0.6 30.25 0.6 29.8 0.6 29.5 0.9 29.25 1.3 28.9 1.8 29.1 L1.85 29.35 M29.95 29.35 L29.8 29.95 29.4 30.25 Q28.95 30.25 28.95 29.8 28.95 29.4 29.45 29.0 29.95 28.55 29.95 29.35" fill="#ff6666" fill-rule="evenodd" stroke="none"/>
    <path d="M32.7 3.95 L32.7 4.35 31.45 4.6 Q30.2 4.6 30.2 4.2 30.2 3.9 30.7 3.65 L31.35 2.95 Q31.15 2.6 31.45 2.15 31.8 1.75 32.3 1.95 L32.7 3.95 M3.9 2.1 Q4.2 1.65 4.2 2.5 4.2 4.6 2.45 4.6 L2.05 4.55 Q1.95 4.05 2.1 3.9 L1.7 3.5 Q1.7 3.05 3.35 3.05 L3.9 2.1 M3.6 30.35 Q3.7 30.0 4.3 30.1 L4.35 32.05 Q4.25 32.6 3.75 32.6 L1.6 32.45 Q1.45 32.4 1.45 32.15 2.65 30.7 3.6 30.85 L3.6 30.35 M32.25 32.5 L31.25 32.5 30.25 32.5 29.85 32.05 30.05 31.8 31.3 31.25 31.2 30.65 Q31.2 30.25 31.55 29.8 31.95 29.25 32.25 29.95 L32.45 31.75 32.25 32.5" fill="#660000" fill-rule="evenodd" stroke="none"/>
    <path d="M11.45 26.5 L11.45 26.55 11.35 26.5 11.45 26.5 M12.35 26.95 L12.45 27.0 12.35 27.0 12.35 26.95 M10.35 27.75 L10.3 27.8 10.65 28.15 11.2 28.85 10.2 29.1 9.65 28.95 9.6 28.9 Q9.75 28.65 9.55 28.55 L9.5 28.4 9.95 27.25 10.05 27.3 9.95 27.3 10.1 27.35 10.35 27.75 M10.4 27.3 L10.6 27.1 10.9 27.85 10.6 27.5 10.45 27.3 10.4 27.3 M12.45 28.15 L12.55 28.1 12.7 28.25 12.85 28.25 14.35 28.9 13.6 28.6 13.0 28.45 11.75 28.65 11.7 28.7 11.5 28.45 11.25 28.25 12.0 28.05 12.45 28.15 M8.25 26.5 L8.35 26.5 9.0 26.75 9.05 26.85 8.55 28.15 8.25 26.5" fill="#666666" fill-rule="evenodd" stroke="none"/>
    <path d="M7.9 29.75 L7.55 29.75 7.55 29.65 7.7 29.4 7.75 29.45 8.05 29.1 7.9 28.65 8.0 28.4 8.05 28.4 8.0 28.35 8.15 28.35 7.95 26.55 7.55 26.3 7.35 26.05 7.0 25.7 7.1 25.35 5.75 24.7 4.95 24.65 4.95 24.85 4.75 24.7 4.3 23.6 4.3 23.35 5.35 22.95 5.5 23.0 5.6 22.9 Q5.8 23.0 6.0 23.25 L6.05 23.35 6.1 23.45 6.2 23.5 6.55 23.6 6.6 23.6 6.75 23.75 7.0 22.2 6.85 20.85 6.9 20.05 6.2 20.25 6.0 20.15 6.05 19.85 6.6 19.3 6.1 19.2 6.1 18.95 6.85 18.65 6.45 18.1 6.45 17.75 6.55 17.75 6.45 17.7 6.65 17.65 7.55 18.2 7.65 18.15 7.2 17.9 7.9 15.6 7.7 15.2 7.5 15.2 7.5 15.05 7.2 14.6 Q6.9 14.2 6.9 13.85 L7.15 12.8 7.4 12.2 7.45 11.85 7.4 11.7 7.5 11.5 7.7 10.6 Q8.0 9.6 8.35 9.6 L8.55 9.6 9.0 8.35 Q9.05 7.2 8.55 6.05 L8.45 5.95 Q8.45 5.4 9.55 4.75 10.65 4.05 11.8 4.05 11.8 3.95 12.0 3.95 12.45 3.95 13.65 4.8 L14.7 5.7 14.85 5.7 14.85 6.1 14.85 6.5 14.85 6.7 14.75 6.75 14.45 6.85 14.35 7.25 14.35 7.3 14.5 7.5 14.6 7.5 14.75 7.7 14.75 7.75 Q14.15 9.45 14.15 10.25 L14.3 11.3 14.7 12.5 14.6 12.6 13.35 11.6 13.15 11.95 13.1 12.0 Q13.6 12.2 14.15 13.6 14.75 15.0 14.75 15.5 L14.45 16.1 14.6 17.65 14.3 18.2 14.1 18.45 14.1 18.5 Q14.3 18.75 14.15 19.3 L14.05 19.7 13.85 19.95 13.9 20.0 13.95 20.0 13.95 20.1 13.95 20.35 13.8 20.7 13.6 20.85 13.6 20.9 13.7 20.9 14.05 22.15 13.85 23.0 13.65 23.5 13.65 23.75 13.35 23.85 13.35 23.8 13.3 23.8 13.85 25.35 14.2 26.65 21.15 29.75 20.75 29.75 13.8 26.65 13.55 26.65 13.25 26.4 12.8 26.05 12.45 25.45 12.35 25.5 12.25 25.6 12.05 25.6 11.7 25.6 11.45 25.6 11.35 25.6 11.35 25.65 11.15 25.65 11.0 25.4 11.0 25.3 10.9 25.35 10.85 25.4 10.75 25.95 10.75 26.2 11.45 26.5 11.35 26.5 11.45 26.55 12.1 26.3 12.2 26.7 12.3 26.95 12.35 27.0 12.45 27.0 18.6 29.75 18.45 29.75 12.45 27.05 12.45 27.1 11.7 27.35 11.5 27.05 11.4 26.65 10.65 26.25 10.45 26.5 10.2 26.75 10.15 26.8 10.3 27.0 Q10.45 26.8 10.65 26.85 L10.7 27.0 10.7 27.05 10.85 27.05 11.2 27.55 11.35 27.9 12.05 27.8 12.6 27.85 13.1 28.1 13.05 28.1 16.7 29.75 16.2 29.75 15.95 29.65 15.9 29.75 15.75 29.75 15.75 29.6 14.75 29.1 14.3 29.5 14.3 29.6 14.2 29.75 13.85 29.75 13.85 29.65 13.55 29.7 12.5 29.65 11.9 29.5 11.75 29.45 11.75 29.75 11.5 29.75 11.5 29.7 11.25 29.35 11.25 29.1 11.35 29.1 11.25 29.05 10.75 29.35 10.85 29.45 10.7 29.6 10.65 29.75 10.3 29.75 10.35 29.5 10.4 29.35 10.2 29.4 10.1 29.4 9.6 29.35 9.55 29.25 9.1 29.1 8.75 29.2 8.7 29.15 8.55 29.1 8.6 29.05 8.55 29.05 8.35 28.9 8.3 29.15 8.3 29.25 Q8.2 29.65 7.9 29.75 M12.0 4.35 L11.75 4.35 11.75 4.3 11.55 4.45 11.5 4.45 11.25 4.5 11.1 4.5 10.85 4.55 Q9.9 4.75 9.65 5.0 L8.85 5.85 9.35 6.05 9.35 6.2 9.25 6.25 8.85 6.15 8.75 6.1 8.95 6.6 Q9.3 7.65 9.25 8.35 L9.1 9.1 8.95 9.6 9.0 9.65 9.15 9.65 9.15 9.6 9.3 9.6 9.4 9.6 9.55 9.6 10.3 9.55 11.4 9.9 10.85 8.65 Q11.1 8.6 11.15 8.8 L11.25 9.15 11.7 9.95 11.7 10.1 12.0 10.25 12.25 10.45 13.5 11.0 13.55 11.0 13.6 11.15 13.65 11.25 13.55 11.25 13.5 11.4 13.65 11.5 14.15 12.0 13.95 10.2 14.2 8.75 Q14.35 8.05 14.65 7.75 L14.5 7.75 14.45 7.7 13.9 7.25 Q13.55 7.0 13.25 6.9 L11.4 6.9 11.25 6.75 14.6 6.5 14.5 6.35 14.65 5.9 13.5 5.0 13.35 5.0 13.3 4.9 Q13.05 4.55 12.6 4.5 L12.45 4.35 12.45 4.45 12.05 4.25 12.0 4.35 M10.9 11.6 L9.8 11.5 9.15 11.6 8.75 11.8 8.2 12.3 8.15 12.4 7.95 12.8 7.5 13.65 7.55 13.9 Q7.75 13.55 8.3 13.15 L8.35 13.1 Q8.7 12.9 9.0 12.8 L10.7 12.65 Q11.2 12.8 11.7 13.45 L11.95 13.9 12.0 14.0 12.05 14.15 12.3 14.95 12.3 15.15 12.5 14.95 12.7 14.9 12.25 13.35 12.2 13.1 12.2 13.0 11.9 12.35 11.4 11.8 11.1 11.7 10.9 11.6 M8.35 11.75 Q9.0 11.3 9.8 11.25 L10.45 11.3 10.95 11.4 11.0 11.4 11.25 11.45 12.0 12.1 12.2 12.6 12.45 13.3 12.5 13.3 12.55 13.45 12.6 13.55 12.9 14.8 13.0 14.7 12.85 12.6 12.75 12.2 12.7 11.75 12.45 10.95 12.45 10.9 Q12.0 10.15 10.3 9.8 L9.0 9.95 Q8.3 10.25 7.95 11.25 7.65 11.8 7.45 12.65 L7.5 12.75 7.65 12.6 7.75 12.35 8.0 12.0 8.15 11.85 8.2 11.85 8.2 11.8 8.25 11.8 8.35 11.75 M12.9 11.4 L12.9 11.55 13.05 11.4 13.25 11.2 12.8 11.05 12.9 11.4 M12.75 16.6 L13.15 16.75 13.6 16.65 13.9 16.5 14.2 16.15 14.5 15.35 14.5 15.25 13.9 13.55 13.9 13.45 13.7 13.15 13.6 12.85 13.35 12.5 13.4 12.4 13.3 12.35 13.05 12.3 13.0 12.25 13.0 12.3 13.05 12.65 13.05 12.7 13.3 14.6 13.15 15.15 13.05 15.05 12.85 15.0 12.85 15.15 12.75 15.0 12.6 15.3 12.55 15.3 12.35 15.5 12.45 15.75 12.6 16.3 12.7 16.55 12.7 16.6 12.75 16.6 M8.35 9.9 L8.05 10.45 8.8 9.95 8.75 9.95 8.35 9.9 M8.35 13.4 L8.0 13.95 8.05 14.15 8.15 14.2 8.2 14.45 9.55 15.0 10.05 15.45 11.15 15.05 11.65 15.25 11.75 15.25 12.0 15.05 11.75 14.2 11.65 13.95 Q11.1 13.05 10.6 12.9 L8.85 13.1 Q8.55 13.2 8.35 13.4 M7.65 14.35 L7.55 14.45 7.45 14.4 7.2 13.8 7.15 13.8 7.5 14.5 7.65 14.65 7.7 14.4 7.7 14.35 7.65 14.35 M7.9 14.4 L7.9 14.9 8.2 15.5 8.25 15.6 8.55 16.0 8.55 15.95 8.95 15.7 9.1 15.5 9.25 15.45 Q9.3 15.3 9.5 15.25 9.25 15.0 8.85 14.9 L8.5 14.75 8.3 14.7 8.05 14.75 8.0 14.6 7.9 14.4 M7.0 18.2 L7.15 18.8 6.95 18.9 6.7 19.05 6.95 19.15 6.95 19.35 6.45 19.85 7.35 19.55 7.8 19.5 8.2 19.5 8.5 19.55 8.6 19.6 9.0 19.7 9.4 19.7 9.4 19.2 8.6 19.15 8.5 19.2 7.7 18.75 7.5 18.55 7.45 18.55 7.0 18.2 M9.05 15.85 L8.75 16.15 9.35 16.9 10.3 16.55 10.3 15.6 10.05 15.75 9.55 15.35 9.35 15.55 9.05 15.85 M8.0 15.75 L7.65 17.15 7.55 17.65 8.25 18.1 8.5 18.2 8.8 18.35 9.25 18.2 9.55 18.1 9.85 17.9 10.1 17.65 10.55 17.1 10.6 16.9 10.7 16.85 10.75 16.6 10.55 16.75 9.35 17.3 8.7 16.55 8.35 16.15 8.0 15.75 M7.75 18.35 L8.35 18.7 8.35 18.5 8.2 18.45 7.75 18.2 7.75 18.35 M9.75 18.35 L9.55 18.4 8.85 18.65 8.5 18.75 8.6 18.75 8.6 18.8 9.35 18.9 9.6 18.95 Q9.6 18.7 9.75 18.55 L9.8 18.4 9.8 18.35 9.75 18.35 M4.85 24.05 L5.25 24.25 5.55 24.35 5.85 23.7 5.8 23.6 5.35 23.3 4.7 23.6 4.85 24.05 M9.5 21.7 L9.65 20.95 9.65 20.7 9.4 20.05 9.4 19.95 9.05 20.0 8.3 19.95 8.15 19.85 7.65 20.0 7.15 20.05 7.25 21.3 7.35 22.25 7.5 22.1 7.5 22.0 7.75 21.7 8.45 20.9 8.5 20.9 8.55 20.8 8.55 20.7 8.6 20.8 8.7 20.7 8.75 20.85 9.25 21.4 8.95 21.3 8.85 21.3 8.85 21.1 8.8 21.15 8.7 21.05 8.6 21.3 8.55 21.4 7.25 22.9 7.2 22.95 7.2 23.0 7.15 23.05 7.4 23.6 7.5 23.6 7.65 23.8 7.75 24.1 8.5 24.05 8.85 24.05 9.4 24.1 9.35 24.05 9.4 23.7 9.5 23.35 9.65 23.3 9.8 22.7 9.5 21.75 9.5 21.7 M9.6 19.75 L9.95 20.6 9.95 20.65 10.1 20.7 11.4 20.95 12.05 20.95 12.55 20.9 11.9 20.7 Q11.4 20.6 11.4 20.25 L11.65 19.85 11.75 19.35 Q11.75 18.8 12.5 17.75 L13.1 16.95 Q12.35 16.85 12.25 16.35 L12.05 16.15 12.1 16.05 12.1 15.55 12.1 15.3 12.05 15.35 12.05 15.45 11.75 15.85 11.55 16.15 11.65 16.35 11.75 16.8 11.1 17.35 11.1 17.4 11.1 17.55 Q11.0 18.4 10.2 18.4 L10.05 18.4 9.75 18.9 9.75 19.2 9.6 19.75 M6.2 24.15 L6.85 24.1 7.0 24.05 6.15 23.8 5.9 24.15 6.2 24.15 M7.2 23.9 L7.4 24.0 7.25 23.75 7.2 23.9 M6.35 24.5 L6.05 24.6 6.4 24.7 7.15 24.5 7.2 24.5 7.4 24.35 7.45 24.3 7.2 24.1 7.15 24.15 6.9 24.35 6.35 24.5 M9.65 21.95 L9.95 22.3 10.75 22.65 10.85 22.65 11.15 22.55 12.05 22.25 12.35 22.15 12.7 22.0 12.9 22.0 13.05 21.5 12.9 21.2 12.9 21.1 12.85 21.1 12.0 21.15 11.5 21.2 9.9 21.05 9.8 21.9 9.65 21.95 M8.05 24.3 L7.75 24.3 7.35 25.65 Q7.35 25.9 7.9 26.15 L7.95 26.15 8.2 26.25 9.05 26.4 9.1 26.3 9.25 26.0 9.35 25.7 9.35 25.6 9.8 25.3 9.4 24.35 9.4 24.25 8.85 24.25 8.05 24.3 M9.6 24.05 L9.95 25.05 9.95 24.95 10.3 24.35 9.75 23.9 9.6 24.05 M10.65 23.45 L10.7 23.2 10.7 23.1 10.65 22.95 10.05 22.75 9.85 23.55 9.85 23.7 10.4 24.1 10.4 24.0 10.65 23.45 M11.75 15.35 L10.95 15.35 10.6 15.5 10.6 16.0 10.6 16.35 10.6 16.4 10.75 16.35 11.25 16.15 11.2 16.1 11.55 15.7 11.9 15.35 11.75 15.35 M11.4 16.35 L11.2 16.4 10.85 17.05 10.95 17.15 11.2 16.95 11.5 16.75 11.4 16.35 M10.35 17.85 L10.05 18.15 10.2 18.15 Q10.7 18.15 10.7 17.75 L10.75 17.55 10.65 17.4 10.35 17.85 M13.5 16.95 L13.05 17.55 12.45 18.25 13.85 18.35 Q13.9 18.15 14.1 18.0 L14.35 17.65 14.15 16.6 13.65 16.95 13.5 16.95 M13.8 18.65 L13.8 18.55 13.15 18.7 12.45 18.65 12.0 19.35 Q12.25 19.35 12.25 19.55 L12.35 19.55 13.5 19.85 13.9 19.35 13.8 18.65 M13.3 20.7 Q13.3 20.6 13.5 20.6 L13.65 20.35 13.6 20.1 12.05 19.85 11.95 19.85 11.75 20.25 12.1 20.55 12.9 20.85 13.0 20.8 13.25 20.8 13.25 20.85 13.3 20.85 13.3 20.7 M13.6 21.85 L13.7 21.9 13.8 21.9 13.6 21.15 13.5 21.15 13.55 21.5 13.4 21.3 13.4 21.2 13.3 21.2 13.3 21.4 13.5 21.9 13.6 21.85 M11.7 22.7 L12.0 23.45 12.05 23.5 11.75 23.75 11.55 23.75 11.45 24.0 11.55 24.0 11.8 23.9 12.45 23.55 12.55 23.55 12.7 23.05 12.75 22.65 12.75 22.55 12.85 22.2 11.65 22.65 11.7 22.7 M11.7 23.3 L11.5 22.9 10.9 23.05 11.0 23.1 11.0 23.2 11.0 23.35 10.35 24.9 10.35 24.95 10.3 25.15 10.1 25.4 10.05 25.5 9.95 25.6 9.9 25.6 9.75 25.7 9.75 25.9 9.75 26.4 9.6 26.7 9.5 26.75 8.8 28.3 8.7 28.35 8.7 28.4 8.55 28.35 8.7 28.55 8.8 28.9 9.25 28.85 9.3 28.8 9.3 28.7 9.25 28.8 9.05 28.65 9.1 28.45 9.9 26.8 9.85 26.75 9.85 26.7 9.9 26.7 9.95 26.55 10.05 26.45 10.3 26.2 10.4 26.15 10.45 26.05 10.45 25.45 10.45 25.35 10.6 25.2 10.6 25.15 10.65 25.1 11.35 23.45 11.5 23.25 11.7 23.35 11.65 23.45 11.75 23.35 11.7 23.3 M11.65 24.1 L11.5 24.1 11.4 24.15 11.1 24.85 11.2 24.9 11.35 25.1 11.55 25.05 Q11.8 24.9 12.0 24.9 L12.2 24.8 12.3 24.65 12.3 24.35 12.45 23.85 11.9 24.05 11.65 24.1 M12.45 24.65 L12.45 24.8 12.35 24.9 12.45 25.05 12.25 25.1 12.3 25.2 12.35 25.15 12.5 25.15 12.5 25.1 12.55 25.15 13.0 25.85 13.4 26.05 13.4 26.25 13.55 26.25 13.7 26.4 14.05 26.5 13.65 25.6 13.05 24.0 13.0 24.15 12.75 24.15 12.7 24.1 12.5 24.65 12.45 24.65 M13.5 22.15 L13.6 22.75 13.8 22.15 13.8 22.1 13.6 22.15 13.5 22.15 M13.0 23.0 L12.85 23.5 12.8 23.55 12.85 23.55 13.15 23.45 13.35 23.35 13.35 23.3 13.4 23.25 13.15 22.15 13.0 23.0 M11.65 25.3 L11.5 25.3 11.35 25.35 11.35 25.4 11.5 25.4 11.65 25.3 M10.4 27.3 L10.45 27.3 10.6 27.5 10.9 27.85 10.6 27.1 10.4 27.3 M10.35 27.75 L10.1 27.35 9.95 27.3 10.05 27.3 9.95 27.25 9.5 28.4 9.55 28.55 Q9.75 28.65 9.6 28.9 L9.65 28.95 10.2 29.1 11.2 28.85 10.65 28.15 10.3 27.8 10.35 27.75 M11.65 26.7 L11.75 27.1 12.1 26.95 12.0 26.65 11.65 26.7 M12.1 29.15 L13.6 29.4 14.15 29.15 13.65 28.8 12.85 28.8 12.6 28.85 12.0 28.95 12.1 29.15 M12.45 28.15 L12.0 28.05 11.25 28.25 11.5 28.45 11.7 28.7 11.75 28.65 13.0 28.45 13.6 28.6 14.35 28.9 12.85 28.25 12.7 28.25 12.55 28.1 12.45 28.15 M8.25 26.5 L8.55 28.15 9.05 26.85 9.0 26.75 8.35 26.5 8.25 26.5 M7.2 25.05 L7.2 24.8 6.75 24.9 7.1 25.05 7.2 25.05" fill="#000000" fill-rule="evenodd" stroke="none"/>
    <path d="M12.45 24.65 L12.5 24.65 12.7 24.1 12.75 24.15 13.0 24.15 13.05 24.0 13.65 25.6 14.05 26.5 13.7 26.4 13.55 26.25 13.4 26.25 13.4 26.05 13.0 25.85 12.55 25.15 12.5 25.1 12.5 25.15 12.35 25.15 12.3 25.2 12.25 25.1 12.45 25.05 12.35 24.9 12.45 24.8 12.45 24.65" fill="#a6a6a6" fill-rule="evenodd" stroke="none"/>
    <path d="M9.25 28.85 L9.25 28.8 9.3 28.7 9.3 28.8 9.25 28.85 M11.7 23.35 L11.7 23.3 11.75 23.35 11.65 23.45 11.7 23.35 M12.3 26.95 L12.35 26.95 12.35 27.0 12.3 26.95" fill="#ffffff" fill-rule="evenodd" stroke="none"/>
    <path d="M10.35 17.85 L10.65 17.4 10.75 17.55 10.7 17.75 Q10.7 18.15 10.2 18.15 L10.05 18.15 10.35 17.85 M11.4 16.35 L11.5 16.75 11.2 16.95 10.95 17.15 10.85 17.05 11.2 16.4 11.4 16.35 M12.1 29.15 L12.0 28.95 12.6 28.85 12.85 28.8 13.65 28.8 14.15 29.15 13.6 29.4 12.1 29.15" fill="#333333" fill-rule="evenodd" stroke="none"/>
    <path d="M13.85 29.75 L11.75 29.75 11.75 29.45 11.9 29.5 12.5 29.65 13.55 29.7 13.85 29.65 13.85 29.75 M10.3 29.75 L10.15 29.75 10.2 29.6 10.15 29.6 Q9.95 29.5 9.85 29.7 L9.8 29.75 8.8 29.75 8.5 29.7 8.5 29.75 7.9 29.75 Q8.2 29.65 8.3 29.25 L8.3 29.15 8.35 28.9 8.55 29.05 8.6 29.05 8.55 29.1 8.7 29.15 8.75 29.2 9.1 29.1 9.55 29.25 9.6 29.35 10.1 29.4 10.2 29.4 10.4 29.35 10.35 29.5 10.3 29.75 M10.9 11.6 L11.1 11.7 11.4 11.8 11.9 12.35 12.2 13.0 12.2 13.1 12.25 13.35 12.7 14.9 12.5 14.95 12.3 15.15 12.3 14.95 12.05 14.15 12.0 14.0 11.95 13.9 11.7 13.45 Q11.2 12.8 10.7 12.65 L9.0 12.8 Q8.7 12.9 8.35 13.1 L8.3 13.15 Q7.75 13.55 7.55 13.9 L7.5 13.65 7.95 12.8 8.15 12.4 8.2 12.3 8.75 11.8 9.15 11.6 9.8 11.5 10.9 11.6" fill="#8c8c8c" fill-rule="evenodd" stroke="none"/>
    <path d="M15.3 29.75 L14.2 29.75 14.3 29.6 15.0 29.25 15.4 29.5 15.3 29.75 M11.5 29.75 L10.65 29.75 10.7 29.6 10.85 29.45 11.25 29.35 11.5 29.7 11.5 29.75 M11.2 10.5 L11.2 10.2 Q10.95 10.15 10.9 10.45 L10.3 10.45 9.85 10.75 9.65 10.7 9.65 10.6 9.75 10.4 9.6 10.35 9.5 10.5 Q9.5 10.9 9.65 10.9 L10.75 10.65 10.75 10.7 Q10.65 11.15 10.85 11.2 L10.9 11.25 11.15 10.7 11.25 11.0 11.8 11.25 12.0 11.2 12.2 11.15 11.95 10.7 11.9 10.9 12.0 11.05 11.9 11.15 11.75 11.05 Q11.45 11.0 11.4 10.75 L11.2 10.5 M12.0 12.1 L11.25 11.45 11.0 11.4 10.95 11.4 10.45 11.3 9.8 11.25 Q9.0 11.3 8.35 11.75 L8.35 11.6 Q8.5 11.55 8.7 11.45 L9.1 11.15 9.05 10.95 8.8 11.0 8.85 10.95 9.25 10.35 9.15 10.25 8.75 10.6 8.75 10.5 8.35 10.95 8.35 11.0 8.3 11.15 8.2 11.3 7.9 11.75 7.95 11.95 8.15 11.85 8.0 12.0 7.75 12.35 7.65 12.6 7.5 12.75 7.45 12.65 Q7.65 11.8 7.95 11.25 8.3 10.25 9.0 9.95 L10.3 9.8 Q12.0 10.15 12.45 10.9 L12.45 10.95 12.3 10.95 12.2 11.25 12.45 12.5 12.3 12.4 11.9 11.75 12.0 12.1 M8.25 11.8 L8.2 11.8 8.25 11.75 8.25 11.8 M12.6 13.55 L12.7 13.55 12.7 13.35 12.6 12.05 12.45 10.95 12.7 11.75 12.75 12.2 12.85 12.6 13.0 14.7 12.9 14.8 12.6 13.55" fill="#bfbfbf" fill-rule="evenodd" stroke="none"/>
    <path d="M15.75 29.75 L15.3 29.75 15.4 29.5 15.0 29.25 14.3 29.6 14.3 29.5 14.75 29.1 15.75 29.6 15.75 29.75 M10.15 29.75 L9.8 29.75 9.85 29.7 Q9.95 29.5 10.15 29.6 L10.2 29.6 10.15 29.75 M13.05 12.7 L13.05 12.65 13.0 12.3 13.0 12.25 13.05 12.3 13.3 12.35 13.4 12.4 13.35 12.5 13.6 12.85 13.7 13.15 13.9 13.45 13.9 13.55 14.5 15.25 14.5 15.35 14.2 16.15 13.9 16.5 13.6 16.65 13.15 16.75 12.75 16.6 12.7 16.55 12.6 16.3 12.7 16.15 12.45 15.75 12.35 15.5 12.55 15.3 12.6 15.3 12.75 15.85 13.4 15.8 13.55 16.0 13.3 16.1 13.35 16.35 13.35 16.5 13.95 16.1 14.1 15.8 14.2 15.45 14.2 15.2 13.65 15.05 13.3 14.95 13.3 14.8 14.15 14.8 13.65 13.8 13.1 12.75 13.05 12.7 M7.0 18.2 L7.45 18.55 7.5 18.55 7.7 18.75 8.5 19.2 8.6 19.15 9.4 19.2 9.4 19.7 9.0 19.7 8.6 19.6 8.5 19.55 8.2 19.5 7.8 19.5 7.35 19.55 6.45 19.85 6.95 19.35 6.95 19.15 6.7 19.05 6.95 18.9 7.15 18.8 7.0 18.2 M4.85 24.05 L4.7 23.6 5.35 23.3 5.8 23.6 5.85 23.7 5.55 24.35 5.25 24.25 4.85 24.05 M9.25 21.4 L9.4 21.6 9.5 21.7 9.5 21.75 9.8 22.7 9.65 23.3 9.5 23.35 9.4 23.1 9.55 22.65 9.1 21.95 8.8 21.7 8.8 22.65 8.6 22.55 8.6 21.95 8.55 21.9 7.45 23.05 7.55 23.6 7.5 23.6 7.4 23.6 7.15 23.05 7.2 23.0 7.25 22.9 8.55 21.4 8.8 21.15 8.85 21.1 8.85 21.3 8.95 21.3 9.25 21.4 M8.05 24.3 L8.85 24.25 9.4 24.25 9.4 24.35 8.7 24.8 7.7 24.95 7.65 24.9 8.05 24.3 M10.4 24.0 L10.1 23.75 Q10.1 23.45 10.45 23.45 L10.65 23.45 10.4 24.0 M13.55 21.5 L13.5 21.15 13.6 21.15 13.8 21.9 13.7 21.9 13.6 21.85 13.55 21.75 13.55 21.5 M10.3 22.0 Q10.2 21.65 10.55 21.65 L11.0 22.0 10.65 22.25 10.3 22.0 M9.25 28.85 L8.8 28.9 8.7 28.55 8.55 28.35 8.7 28.4 8.7 28.35 8.8 28.3 9.5 26.75 9.6 26.7 9.75 26.4 9.75 25.9 9.75 25.7 9.9 25.6 9.95 25.6 10.05 25.5 10.1 25.4 10.3 25.15 10.35 24.95 10.35 24.9 11.0 23.35 11.0 23.2 11.0 23.1 10.9 23.05 11.5 22.9 11.7 23.3 11.7 23.35 11.5 23.25 11.35 23.45 10.65 25.1 10.6 25.15 10.6 25.2 10.45 25.35 10.45 25.45 10.45 26.05 10.4 26.15 10.3 26.2 10.05 26.45 9.95 26.55 9.9 26.7 9.85 26.7 9.85 26.75 9.9 26.8 9.1 28.45 9.05 28.65 9.25 28.8 9.25 28.85 M10.85 29.45 L10.75 29.35 11.25 29.05 11.35 29.1 11.25 29.1 11.25 29.35 10.85 29.45" fill="#ffff00" fill-rule="evenodd" stroke="none"/>
    <path d="M11.75 4.35 L12.0 4.35 12.45 4.5 12.45 4.45 12.45 4.35 12.6 4.5 Q13.05 4.55 13.3 4.9 L13.35 5.0 14.1 5.65 14.1 5.85 13.9 5.85 Q13.65 5.85 13.4 5.55 L13.35 5.55 13.0 5.85 11.15 5.7 9.6 5.95 9.15 5.65 Q9.15 5.15 10.85 4.55 L11.1 4.5 11.25 4.5 11.5 4.45 11.55 4.45 11.75 4.35 M13.65 11.5 L13.5 11.4 13.55 11.25 13.65 11.25 13.6 11.15 13.55 11.0 13.5 11.0 12.25 10.45 12.0 10.25 11.35 9.0 11.35 8.9 10.95 8.2 11.15 7.85 11.25 8.0 11.4 7.85 Q12.45 8.8 13.85 11.05 L13.7 11.2 13.95 11.45 13.8 11.5 13.65 11.5" fill="#aaaaaa" fill-rule="evenodd" stroke="none"/>
    <path d="M12.0 4.35 L12.05 4.25 12.45 4.45 12.45 4.5 12.0 4.35 M11.55 4.45 L11.75 4.3 11.75 4.35 11.55 4.45 M13.5 16.95 L13.65 16.95 14.15 16.6 14.35 17.65 14.1 18.0 Q13.9 18.15 13.85 18.35 L12.45 18.25 13.05 17.55 13.5 16.95 M13.3 20.7 L13.3 20.85 13.25 20.85 13.25 20.8 13.0 20.8 12.9 20.85 12.1 20.55 11.75 20.25 11.95 19.85 12.05 19.85 13.6 20.1 13.65 20.35 13.5 20.6 Q13.3 20.6 13.3 20.7 M13.8 18.65 L13.9 19.35 13.5 19.85 12.35 19.55 12.25 19.55 Q12.25 19.35 12.0 19.35 L12.45 18.65 13.15 18.7 13.8 18.55 13.8 18.65" fill="#999999" fill-rule="evenodd" stroke="none"/>
    <path d="M13.35 5.0 L13.5 5.0 14.65 5.9 14.5 6.35 14.6 6.5 11.25 6.75 11.4 6.9 13.25 6.9 Q13.55 7.0 13.9 7.25 L14.45 7.7 14.5 7.75 14.65 7.75 Q14.35 8.05 14.2 8.75 L13.95 10.2 14.15 12.0 13.65 11.5 13.8 11.5 13.95 11.45 13.7 11.2 13.85 11.05 Q12.45 8.8 11.4 7.85 L11.25 8.0 11.15 7.85 10.95 8.2 11.35 8.9 11.35 9.0 12.0 10.25 11.7 10.1 11.7 9.95 11.25 9.15 11.15 8.8 Q11.1 8.6 10.85 8.65 L11.4 9.9 10.3 9.55 9.55 9.6 9.4 9.6 9.3 9.6 9.15 9.6 9.15 9.65 9.0 9.65 8.95 9.6 9.1 9.1 9.25 8.35 Q9.3 7.65 8.95 6.6 L8.75 6.1 8.85 6.15 9.25 6.25 9.35 6.2 9.35 6.05 8.85 5.85 9.65 5.0 Q9.9 4.75 10.85 4.55 9.15 5.15 9.15 5.65 L9.6 5.95 11.15 5.7 13.0 5.85 13.35 5.55 13.4 5.55 Q13.65 5.85 13.9 5.85 L14.1 5.85 14.1 5.65 13.35 5.0 M12.9 11.4 L12.8 11.05 13.25 11.2 13.05 11.4 12.9 11.55 12.9 11.4 M8.35 9.9 L8.75 9.95 8.8 9.95 8.05 10.45 8.35 9.9" fill="#515151" fill-rule="evenodd" stroke="none"/>
    <path d="M7.65 14.35 L7.7 14.35 7.7 14.4 7.65 14.65 7.5 14.5 7.15 13.8 7.2 13.8 7.45 14.4 7.55 14.45 7.65 14.35" fill="#cccccc" fill-rule="evenodd" stroke="none"/>
    <path d="M7.9 14.4 L8.0 14.6 8.05 14.75 8.3 14.7 8.5 14.75 8.85 14.9 Q9.25 15.0 9.5 15.25 9.3 15.3 9.25 15.45 L9.1 15.5 8.95 15.7 8.55 15.95 8.55 16.0 8.25 15.6 8.2 15.5 7.9 14.9 7.9 14.4 M9.25 21.4 L8.75 20.85 8.7 20.7 8.6 20.8 8.55 20.7 8.55 20.8 8.5 20.9 8.45 20.9 7.75 21.7 7.5 22.0 7.5 22.1 7.35 22.25 7.25 21.3 7.15 20.05 7.65 20.0 8.15 19.85 8.3 19.95 9.05 20.0 9.4 19.95 9.4 20.05 9.65 20.7 9.65 20.95 9.5 21.7 9.4 21.6 9.25 21.4 M9.6 19.75 L9.75 19.2 9.75 18.9 10.05 18.4 10.2 18.4 Q11.0 18.4 11.1 17.55 L11.1 17.4 11.1 17.35 11.75 16.8 11.65 16.35 11.55 16.15 11.75 15.85 12.05 15.45 12.05 15.35 12.1 15.3 12.1 15.55 12.1 16.05 12.05 16.15 12.25 16.35 Q12.35 16.85 13.1 16.95 L12.5 17.75 Q11.75 18.8 11.75 19.35 L11.65 19.85 11.4 20.25 Q11.4 20.6 11.9 20.7 L12.55 20.9 12.05 20.95 11.4 20.95 10.1 20.7 9.95 20.65 9.95 20.6 9.6 19.75 M11.75 15.35 L11.9 15.35 11.55 15.7 11.2 16.1 11.25 16.15 10.75 16.35 10.6 16.4 10.6 16.35 10.6 16.0 10.6 15.5 10.95 15.35 11.75 15.35" fill="#404040" fill-rule="evenodd" stroke="none"/>
    <path d="M12.75 16.6 L12.7 16.6 12.7 16.55 12.75 16.6 M12.6 16.3 L12.45 15.75 12.7 16.15 12.6 16.3 M12.6 15.3 L12.75 15.0 12.85 15.15 12.85 15.0 13.05 15.05 13.15 15.15 13.3 14.6 13.05 12.7 13.1 12.75 13.65 13.8 14.15 14.8 13.3 14.8 13.3 14.95 13.65 15.05 14.2 15.2 14.2 15.45 14.1 15.8 13.95 16.1 13.35 16.5 13.35 16.35 13.3 16.1 13.55 16.0 13.4 15.8 12.75 15.85 12.6 15.3" fill="#c8c8c8" fill-rule="evenodd" stroke="none"/>
    <path d="M9.5 23.35 L9.4 23.7 9.35 24.05 9.4 24.1 8.85 24.05 8.5 24.05 7.75 24.1 7.65 23.8 7.5 23.6 7.55 23.6 7.45 23.05 8.55 21.9 8.6 21.95 8.6 22.55 8.8 22.65 8.8 21.7 9.1 21.95 9.55 22.65 9.4 23.1 9.5 23.35 M7.2 23.0 L7.2 22.95 7.25 22.9 7.2 23.0 M8.55 21.4 L8.6 21.3 8.7 21.05 8.8 21.15 8.55 21.4 M9.65 21.95 L9.8 21.9 9.9 21.05 11.5 21.2 12.0 21.15 12.85 21.1 12.9 21.1 12.9 21.2 13.05 21.5 12.9 22.0 12.7 22.0 12.35 22.15 12.05 22.25 11.15 22.55 10.85 22.65 10.75 22.65 9.95 22.3 9.65 21.95 M9.4 24.35 L9.8 25.3 9.35 25.6 9.35 25.7 9.25 26.0 9.1 26.3 9.05 26.4 8.2 26.25 7.95 26.15 7.9 26.15 Q7.35 25.9 7.35 25.65 L7.75 24.3 8.05 24.3 7.65 24.9 7.7 24.95 8.7 24.8 9.4 24.35 M10.4 24.0 L10.4 24.1 9.85 23.7 9.85 23.55 10.05 22.75 10.65 22.95 10.7 23.1 10.7 23.2 10.65 23.45 10.45 23.45 Q10.1 23.45 10.1 23.75 L10.4 24.0 M9.6 24.05 L9.75 23.9 10.3 24.35 9.95 24.95 9.95 25.05 9.6 24.05 M13.6 21.85 L13.5 21.9 13.3 21.4 13.3 21.2 13.4 21.2 13.4 21.3 13.55 21.5 13.55 21.75 13.6 21.85 M11.7 22.7 L11.65 22.65 12.85 22.2 12.75 22.55 12.75 22.65 12.7 23.05 12.55 23.55 12.45 23.55 11.8 23.9 11.55 24.0 11.45 24.0 11.55 23.75 11.75 23.75 12.05 23.5 12.0 23.45 11.7 22.7 M10.3 22.0 L10.65 22.25 11.0 22.0 10.55 21.65 Q10.2 21.65 10.3 22.0 M11.65 24.1 L11.9 24.05 12.45 23.85 12.3 24.35 12.3 24.65 12.2 24.8 12.0 24.9 Q11.8 24.9 11.55 25.05 L11.35 25.1 11.2 24.9 11.1 24.85 11.4 24.15 11.5 24.1 11.65 24.1 M13.5 22.15 L13.6 22.15 13.8 22.1 13.8 22.15 13.6 22.75 13.5 22.15 M11.65 25.3 L11.5 25.4 11.35 25.4 11.35 25.35 11.5 25.3 11.65 25.3" fill="#7b7b7b" fill-rule="evenodd" stroke="none"/>
    <path d="M13.0 23.0 L13.15 22.15 13.4 23.25 13.35 23.3 13.35 23.35 13.15 23.45 12.85 23.55 12.8 23.55 12.85 23.5 13.0 23.0" fill="#2b2b2b" fill-rule="evenodd" stroke="none"/>
    <path d="M20.75 29.75 L18.6 29.75 12.45 27.0 12.35 26.95 12.3 26.95 12.2 26.7 12.1 26.3 11.45 26.55 11.45 26.5 10.75 26.2 10.75 25.95 10.85 25.4 10.9 25.35 11.0 25.3 11.0 25.4 11.15 25.65 11.35 25.65 11.35 25.6 11.45 25.6 11.7 25.6 12.05 25.6 12.25 25.6 12.35 25.5 12.45 25.45 12.8 26.05 13.25 26.4 13.55 26.65 13.8 26.65 20.75 29.75 M18.45 29.75 L16.7 29.75 13.05 28.1 13.1 28.1 12.6 27.85 12.05 27.8 11.35 27.9 11.2 27.55 10.85 27.05 10.7 27.05 10.7 27.0 10.65 26.85 Q10.45 26.8 10.3 27.0 L10.15 26.8 10.2 26.75 10.45 26.5 10.65 26.25 11.4 26.65 11.5 27.05 11.7 27.35 12.45 27.1 12.45 27.05 18.45 29.75" fill="#444444" fill-rule="evenodd" stroke="none"/>
    <path d="M6.2 24.15 L5.9 24.15 6.15 23.8 7.0 24.05 6.85 24.1 6.2 24.15 M6.35 24.5 L6.9 24.35 7.15 24.15 7.2 24.1 7.45 24.3 7.4 24.35 7.2 24.5 7.15 24.5 6.4 24.7 6.05 24.6 6.35 24.5 M7.2 25.05 L7.1 25.05 6.75 24.9 7.2 24.8 7.2 25.05" fill="#80503c" fill-rule="evenodd" stroke="none"/>
    <path d="M11.65 26.7 L12.0 26.65 12.1 26.95 11.75 27.1 11.65 26.7" fill="#e6e6e6" fill-rule="evenodd" stroke="none"/>
    <path d="M8.35 13.4 Q8.55 13.2 8.85 13.1 L10.6 12.9 Q11.1 13.05 11.65 13.95 L11.75 14.2 12.0 15.05 11.75 15.25 11.65 15.25 11.15 15.05 10.05 15.45 9.55 15.0 8.2 14.45 8.15 14.2 8.05 14.15 8.0 13.95 8.35 13.4" fill="#626262" fill-rule="evenodd" stroke="none"/>
    <path d="M11.2 10.5 L11.4 10.75 Q11.45 11.0 11.75 11.05 L11.9 11.15 12.0 11.05 11.9 10.9 11.95 10.7 12.2 11.15 12.0 11.2 11.8 11.25 11.25 11.0 11.15 10.7 10.9 11.25 10.85 11.2 Q10.65 11.15 10.75 10.7 L10.75 10.65 9.65 10.9 Q9.5 10.9 9.5 10.5 L9.6 10.35 9.75 10.4 9.65 10.6 9.65 10.7 9.85 10.75 10.3 10.45 10.9 10.45 Q10.95 10.15 11.2 10.2 L11.2 10.5 M12.0 12.1 L11.9 11.75 12.3 12.4 12.45 12.5 12.2 11.25 12.3 10.95 12.45 10.95 12.6 12.05 12.7 13.35 12.7 13.55 12.6 13.55 12.55 13.45 12.5 13.3 12.45 13.3 12.2 12.6 12.0 12.1 M8.15 11.85 L7.95 11.95 7.9 11.75 8.2 11.3 8.3 11.15 8.35 11.0 8.35 10.95 8.75 10.5 8.75 10.6 9.15 10.25 9.25 10.35 8.85 10.95 8.8 11.0 9.05 10.95 9.1 11.15 8.7 11.45 Q8.5 11.55 8.35 11.6 L8.35 11.75 8.25 11.8 8.25 11.75 8.2 11.8 8.2 11.85 8.15 11.85 M9.05 15.85 L9.35 15.55 9.55 15.35 10.05 15.75 10.3 15.6 10.3 16.55 9.35 16.9 8.75 16.15 9.05 15.85" fill="#ffff09" fill-rule="evenodd" stroke="none"/>
    <path d="M8.0 15.75 L8.35 16.15 8.7 16.55 9.35 17.3 10.55 16.75 10.75 16.6 10.7 16.85 10.6 16.9 10.55 17.1 10.1 17.65 9.85 17.9 9.55 18.1 9.25 18.2 8.8 18.35 8.5 18.2 8.25 18.1 7.55 17.65 7.65 17.15 8.0 15.75" fill="#777777" fill-rule="evenodd" stroke="none"/>
    <path d="M9.75 18.35 L9.8 18.35 9.8 18.4 9.75 18.55 Q9.6 18.7 9.6 18.95 L9.35 18.9 8.6 18.8 8.6 18.75 8.5 18.75 8.85 18.65 9.55 18.4 9.75 18.35 M7.75 18.35 L7.75 18.2 8.2 18.45 8.35 18.5 8.35 18.7 7.75 18.35" fill="#373737" fill-rule="evenodd" stroke="none"/>
  </g>
</svg>
