<?xml version="1.0" encoding="UTF-8" standalone="no"?>
<svg xmlns:xlink="http://www.w3.org/1999/xlink" height="32.3px" width="32.1px" xmlns="http://www.w3.org/2000/svg">
  <g transform="matrix(1.0, 0.0, 0.0, 1.0, -0.6, -0.3)">
    <path d="M29.85 0.7 L29.7 1.1 29.6 1.25 29.05 2.1 28.6 1.8 28.6 1.45 28.85 0.8 Q28.9 0.35 29.3 0.35 L29.4 0.4 Q29.85 0.1 29.85 0.7 M1.25 2.6 Q0.8 2.6 0.7 2.2 L0.7 1.7 Q0.7 1.15 1.45 0.65 2.2 0.2 2.2 0.95 L1.25 2.6 M1.85 29.35 L1.55 29.85 1.0 30.25 Q0.6 30.25 0.6 29.8 0.6 29.5 0.9 29.25 1.3 28.9 1.8 29.1 L1.85 29.35 M29.95 29.35 L29.8 29.95 29.4 30.25 Q28.95 30.25 28.95 29.8 28.95 29.4 29.45 29.0 29.95 28.55 29.95 29.35" fill="#ff6666" fill-rule="evenodd" stroke="none"/>
    <path d="M32.7 3.95 L32.7 4.35 31.45 4.6 Q30.2 4.6 30.2 4.2 30.2 3.9 30.7 3.65 L31.35 2.95 Q31.15 2.6 31.45 2.15 31.8 1.75 32.3 1.95 L32.7 3.95 M4.2 2.5 Q4.2 4.6 2.45 4.6 L2.05 4.55 Q1.95 4.05 2.1 3.9 L1.7 3.5 Q1.7 3.05 3.35 3.05 L3.9 2.1 Q4.2 1.65 4.2 2.5 M3.6 30.35 Q3.7 30.0 4.3 30.1 L4.35 32.05 Q4.25 32.6 3.75 32.6 L1.6 32.45 Q1.45 32.4 1.45 32.15 2.65 30.7 3.6 30.85 L3.6 30.35 M32.25 32.5 L31.25 32.5 30.25 32.5 29.85 32.05 30.05 31.8 31.3 31.25 31.2 30.65 Q31.2 30.25 31.55 29.8 31.95 29.25 32.25 29.95 L32.45 31.75 32.25 32.5" fill="#660000" fill-rule="evenodd" stroke="none"/>
    <path d="M3.8 26.95 L3.75 26.3 3.9 26.55 3.8 26.95 M4.85 27.65 L4.8 27.65 4.8 27.6 4.85 27.65 M4.3 27.45 L4.6 27.85 4.35 27.85 4.3 27.45 M5.0 27.85 L5.0 27.75 6.05 29.1 6.05 29.2 5.5 29.3 5.1 29.3 5.35 29.2 5.6 29.05 Q5.75 28.65 5.2 28.5 L5.0 28.45 5.0 27.85 M5.0 29.7 L5.2 29.7 6.0 29.7 6.15 29.55 6.4 29.45 6.45 29.55 6.4 29.85 5.0 29.85 5.0 29.7 M6.15 28.55 L6.05 28.5 5.65 27.9 5.9 28.1 6.0 28.15 6.15 28.55 M6.8 28.65 L6.95 28.7 7.1 28.8 7.7 28.9 Q7.6 28.1 7.75 27.2 L7.85 26.65 7.85 26.55 8.4 27.85 8.9 28.65 9.15 29.2 9.2 29.3 9.15 29.35 8.7 29.6 Q8.65 29.6 8.55 29.7 L8.65 29.45 Q8.65 28.95 8.0 29.05 L7.05 28.95 6.8 28.65 M9.05 29.85 L9.35 29.7 9.35 29.55 9.6 28.95 9.6 28.9 9.9 29.85 9.05 29.85 M9.6 28.4 L9.3 27.35 9.3 27.3 10.75 29.85 10.4 29.85 9.6 28.25 9.6 28.4 M8.8 26.3 Q8.3 25.65 7.75 25.5 L7.6 25.5 7.2 25.4 7.1 25.5 6.85 25.5 5.6 26.2 5.35 26.55 5.25 26.65 5.1 27.05 4.8 26.55 4.7 26.4 4.55 26.0 4.2 25.0 4.2 24.95 Q4.05 24.2 4.3 23.4 L4.35 23.4 4.6 23.25 4.6 23.15 4.8 23.1 4.95 23.0 5.5 22.75 5.9 22.7 6.0 22.7 6.65 22.75 6.85 22.75 7.45 22.85 7.5 22.85 7.75 23.0 8.0 23.15 8.25 23.3 8.7 23.55 8.95 23.8 Q10.6 25.4 11.4 27.6 L12.25 29.85 11.55 29.85 10.65 27.9 Q9.15 25.25 8.15 25.25 L8.8 26.3 M7.35 11.55 L7.5 11.4 7.6 11.55 7.6 11.75 7.7 11.75 7.9 11.9 8.0 11.95 8.1 12.05 7.7 12.05 6.55 12.95 6.65 12.6 6.85 12.15 6.95 11.95 7.1 11.9 7.35 11.55 M10.25 13.5 L10.25 13.75 10.35 14.7 10.8 16.1 11.05 16.4 10.75 16.65 9.75 17.2 9.2 17.5 8.95 17.6 7.45 18.25 7.1 17.6 6.8 17.1 6.3 16.15 6.15 15.75 5.9 15.1 5.8 14.7 5.65 14.0 7.6 12.3 8.4 12.35 9.3 12.6 9.6 12.85 10.0 13.1 10.1 13.2 Q9.85 13.4 9.45 14.65 8.9 15.9 9.05 16.1 L9.3 16.1 9.6 15.25 Q9.6 16.15 9.85 16.5 L10.1 16.5 10.15 16.25 Q10.35 16.5 10.5 16.25 10.1 15.45 10.1 14.3 L10.25 13.5 M6.65 15.35 L6.05 15.2 Q6.25 16.0 7.45 17.3 L7.7 17.45 8.15 17.35 8.15 17.1 Q7.9 17.1 7.6 16.8 L7.05 16.1 6.65 15.35 M6.65 17.45 L7.05 17.85 7.05 18.15 6.85 18.35 6.7 18.25 6.3 18.15 6.0 18.15 6.0 17.95 6.0 17.75 6.0 17.45 6.0 16.8 6.0 16.65 6.15 16.95 6.15 17.7 6.4 17.7 6.65 17.45 M7.6 18.75 L7.5 18.65 7.5 18.4 8.9 18.0 9.15 17.95 9.7 17.6 11.05 16.65 11.15 16.55 11.55 16.8 11.4 17.05 11.4 17.2 11.8 17.35 11.6 17.35 11.4 17.5 11.3 17.45 10.8 17.95 10.75 17.85 10.5 18.15 10.4 18.25 10.35 18.25 9.85 18.65 9.45 18.75 9.35 18.65 9.2 18.8 8.8 19.05 8.65 19.05 7.75 19.15 7.75 18.95 7.75 18.8 7.7 18.8 7.6 18.75 M5.65 18.1 L5.6 18.1 5.65 17.6 5.8 18.15 5.75 18.15 5.65 18.1 M11.8 17.35 L11.95 17.35 11.8 17.6 11.45 17.85 11.45 17.75 11.7 17.5 11.8 17.35 M8.4 19.85 L8.3 19.95 8.15 20.0 8.1 20.0 7.6 20.2 7.5 19.8 7.6 19.85 8.25 19.85 8.4 19.85 M4.05 22.85 L4.05 23.1 3.95 23.9 3.95 25.0 3.55 25.25 Q3.5 23.9 4.05 22.85 M4.35 22.9 L4.3 23.1 4.2 22.85 4.35 22.9 M4.8 23.9 L4.55 23.65 Q4.35 23.75 4.45 24.15 4.7 25.75 5.0 25.65 L5.1 25.65 5.35 26.05 5.5 26.05 5.5 25.9 5.5 25.75 5.65 25.8 5.75 25.75 5.8 25.6 5.9 25.6 6.15 25.5 6.0 25.35 6.4 24.85 5.8 24.15 5.1 23.55 4.8 23.9 M8.55 20.0 L8.55 20.1 8.65 20.25 8.5 20.25 8.4 20.35 8.5 20.1 8.5 20.0 8.55 20.0 M8.25 22.75 L8.0 22.6 8.15 21.7 8.25 21.7 Q8.3 21.95 8.65 21.8 L8.9 22.7 9.05 22.7 8.8 23.25 8.7 23.15 8.65 23.25 8.55 23.15 8.8 22.5 8.55 22.2 8.25 22.75 M11.1 29.85 L11.4 29.7 11.45 29.75 11.5 29.85 11.1 29.85 M6.15 26.2 Q6.55 25.9 7.1 25.8 L7.35 25.8 7.6 25.8 7.7 25.8 7.7 25.9 Q7.45 26.45 7.45 27.1 L7.35 28.15 6.7 27.6 5.9 27.1 6.15 26.2 M7.75 26.05 L7.75 25.8 8.0 25.9 8.4 26.65 8.95 27.45 9.3 28.0 9.3 28.1 9.55 28.9 9.3 29.1 9.2 28.8 8.9 28.1 8.65 27.5 8.0 26.2 7.75 26.05" fill="#968367" fill-rule="evenodd" stroke="none"/>
    <path d="M25.7 16.9 L25.7 16.55 25.65 16.8 24.45 18.65 25.4 17.85 25.3 18.1 24.35 18.75 25.9 16.1 18.65 23.4 19.45 24.05 21.75 21.3 22.75 20.4 21.45 22.6 21.6 21.7 19.6 23.95 20.15 23.75 20.75 23.9 20.8 24.05 20.8 24.2 24.45 20.1 24.5 20.0 Q25.8 18.8 25.7 16.9 M13.0 16.4 L12.85 16.5 12.75 16.65 12.75 16.5 12.45 17.3 12.5 17.35 12.25 17.7 12.05 18.0 11.95 18.15 12.05 18.55 Q12.05 18.95 12.35 19.2 L12.25 19.85 12.65 19.95 13.9 21.0 14.5 21.95 14.85 23.15 15.25 23.8 15.8 24.05 17.0 23.9 17.75 24.3 16.85 22.9 17.6 22.45 18.55 23.3 Q18.85 22.45 19.5 21.8 L26.1 15.25 Q26.6 17.7 25.05 19.85 L22.5 23.4 Q21.7 24.55 20.5 24.75 L20.4 24.15 19.75 24.55 20.95 26.8 20.0 26.45 16.7 29.85 16.25 29.85 17.25 28.9 16.2 29.85 15.55 29.85 Q16.05 28.85 16.85 28.25 L16.6 28.3 15.25 29.75 15.3 29.85 14.85 29.85 14.3 28.9 15.0 29.1 15.9 28.25 15.25 27.75 13.95 29.1 14.65 29.85 13.95 29.85 13.8 29.7 13.65 29.45 Q13.5 29.2 13.65 28.9 L15.0 27.45 15.35 27.75 15.95 28.0 16.3 27.85 16.4 27.85 17.0 27.75 18.85 26.95 17.2 25.25 17.85 25.0 17.6 24.75 Q16.85 24.15 15.8 24.55 L15.15 25.8 14.3 25.9 14.7 26.95 14.9 27.3 13.7 26.05 10.75 23.0 10.35 22.5 9.75 22.6 9.85 22.1 10.1 22.1 10.0 21.8 9.7 21.55 9.35 21.3 9.2 21.05 9.15 20.9 8.95 20.65 8.9 20.75 8.9 21.55 8.95 22.1 9.05 22.3 9.3 22.3 Q9.35 22.6 9.55 22.7 L9.15 22.7 8.95 23.55 Q10.65 24.95 11.55 27.05 L12.6 29.85 12.25 29.85 11.4 27.6 Q10.6 25.4 8.95 23.8 L8.7 23.55 8.25 23.3 8.0 23.15 7.75 23.0 7.5 22.85 7.45 22.85 6.55 22.7 6.0 22.7 5.9 22.7 5.5 22.75 4.95 23.0 4.8 23.1 4.6 23.15 4.6 23.25 4.35 23.4 4.3 23.4 Q4.05 24.2 4.2 24.95 L4.2 25.0 4.55 26.0 4.7 26.4 4.8 26.55 5.1 27.05 5.25 26.65 5.35 26.55 5.6 26.2 6.85 25.5 7.1 25.5 7.2 25.4 7.6 25.5 7.75 25.5 Q8.3 25.65 8.8 26.3 L8.9 26.55 9.2 27.1 9.3 27.3 9.3 27.35 9.6 28.4 9.55 28.55 9.6 28.9 9.6 28.95 9.35 29.55 9.35 29.7 9.05 29.85 8.4 29.85 8.5 29.75 8.55 29.7 Q8.65 29.6 8.7 29.6 L9.15 29.35 9.2 29.3 9.15 29.2 8.9 28.65 8.4 27.85 7.85 26.55 7.85 26.65 7.75 27.2 Q7.6 28.1 7.7 28.9 L7.1 28.8 6.95 28.7 6.8 28.65 6.0 28.0 5.9 28.0 6.0 28.15 5.9 28.1 5.65 27.9 6.05 28.5 6.15 28.55 6.55 29.35 7.0 29.85 6.85 29.85 6.45 29.55 6.4 29.45 6.15 29.55 6.0 29.7 5.2 29.7 5.0 29.7 5.0 29.35 5.1 29.3 5.5 29.3 6.05 29.2 6.05 29.1 5.0 27.75 5.0 27.85 4.6 27.85 4.3 27.45 4.05 26.55 4.15 26.7 4.8 27.6 4.8 27.65 4.85 27.65 4.95 27.75 5.0 27.65 4.55 26.85 3.95 25.2 3.5 25.25 3.95 26.4 3.9 26.45 3.9 26.55 3.75 26.3 3.8 26.95 3.75 27.85 3.55 27.85 Q3.15 26.45 3.25 24.75 3.35 23.5 3.8 22.6 L3.0 22.6 3.0 22.05 3.25 22.1 3.8 22.3 3.9 22.1 3.9 21.95 4.15 22.2 4.15 22.35 4.15 22.45 4.2 22.5 4.45 22.6 4.6 22.85 4.7 22.7 Q5.1 22.5 5.35 22.45 L5.5 22.5 6.15 22.45 7.25 22.45 7.7 22.5 7.7 22.35 8.15 20.9 8.3 20.2 7.9 20.35 7.45 20.75 6.3 21.55 6.15 21.55 6.15 21.65 5.9 21.4 Q5.5 20.9 5.35 20.1 L5.35 20.0 5.25 19.95 5.2 19.2 4.95 19.85 4.55 20.65 4.2 21.7 4.2 21.8 4.2 21.95 3.95 21.7 4.15 20.6 4.6 19.3 3.25 19.85 3.1 19.95 3.0 19.85 3.0 19.55 3.25 19.55 4.2 19.3 4.6 19.15 4.7 19.15 4.85 18.8 4.85 18.75 5.0 18.55 5.0 18.5 4.95 18.5 4.85 18.4 4.85 18.35 4.8 17.95 4.7 17.75 4.6 17.7 4.05 17.6 3.8 17.6 3.55 17.6 3.65 17.75 3.65 17.85 3.55 17.75 3.4 17.85 3.35 17.75 3.25 18.0 3.0 18.35 3.0 17.85 3.1 17.7 3.1 17.6 3.0 17.6 3.0 17.35 3.1 17.35 3.15 17.35 3.25 17.3 3.35 17.35 3.4 17.3 3.8 17.5 3.95 17.3 4.2 17.05 3.95 16.9 3.95 16.8 4.2 15.9 4.2 15.85 4.3 15.5 4.55 15.2 3.95 15.05 3.8 14.95 3.65 14.95 3.5 14.85 4.45 14.85 4.55 14.8 5.35 14.95 5.5 15.05 5.5 14.95 5.5 14.4 5.6 13.75 5.65 13.75 6.25 13.25 6.45 12.95 6.7 12.3 6.65 12.1 6.65 12.05 6.7 11.9 7.05 11.5 5.8 11.25 5.25 11.1 3.95 10.9 3.65 11.65 3.55 11.75 3.4 12.3 3.15 13.2 3.1 14.0 3.0 14.3 3.0 12.65 3.15 12.05 Q3.4 11.15 3.95 10.6 L4.2 10.6 4.2 10.5 4.35 9.95 4.45 9.8 4.55 9.7 4.7 9.7 4.8 9.65 6.95 9.8 7.6 9.85 7.6 10.05 7.75 10.2 7.85 10.3 7.85 10.7 7.9 10.6 8.15 10.6 8.3 10.7 8.3 10.75 8.4 10.85 8.4 11.0 8.5 11.0 8.5 10.9 8.4 10.7 8.25 10.1 8.1 10.1 7.9 10.1 Q7.5 10.1 7.5 8.6 L7.35 8.4 7.5 8.2 7.9 8.1 7.9 7.6 8.15 6.5 8.3 6.25 Q8.3 6.1 8.4 6.1 8.8 5.7 9.6 5.2 L11.3 4.3 11.2 4.3 Q11.3 3.85 12.5 4.3 L14.45 5.1 14.5 4.95 14.7 5.3 14.6 5.3 14.5 5.35 14.45 5.35 Q14.75 5.5 14.75 6.25 L14.85 6.8 15.25 7.4 15.35 7.55 15.15 7.85 15.0 8.75 15.1 9.7 15.25 9.65 15.25 9.8 13.4 11.65 13.3 11.55 13.0 11.75 12.9 11.8 12.5 11.75 12.45 11.8 12.35 11.95 13.05 14.05 Q13.3 15.2 13.0 16.1 L12.75 15.9 12.65 14.4 12.2 12.3 12.05 12.05 11.85 12.15 11.7 12.2 11.55 12.3 11.45 12.3 Q10.9 12.55 10.15 12.3 L9.55 11.9 9.45 11.9 9.35 11.95 9.35 12.2 9.45 12.2 9.45 12.3 Q10.65 12.7 10.9 14.2 L11.05 15.1 11.15 15.45 11.15 15.5 11.3 16.1 12.35 16.25 13.0 16.4 M4.2 17.05 L4.2 17.3 4.3 17.3 4.8 17.45 4.85 17.5 4.95 17.7 5.2 18.1 5.2 18.25 5.25 18.25 5.35 17.95 Q5.25 17.7 5.5 17.35 L5.5 17.3 5.6 17.05 5.65 16.95 5.65 16.5 5.75 16.25 5.25 15.5 Q4.95 15.25 4.7 15.5 4.55 15.6 4.55 15.75 L4.55 15.85 4.45 16.25 4.2 16.7 4.2 17.05 M13.9 7.55 L14.85 7.55 14.95 7.55 14.85 7.45 14.75 7.45 14.35 5.5 14.35 5.35 Q12.1 4.55 11.4 4.5 L10.1 5.1 8.95 5.95 8.9 5.95 8.9 6.0 8.65 6.25 8.55 6.35 8.4 6.35 8.1 7.45 8.15 7.55 8.1 7.6 8.25 7.85 8.1 8.1 8.15 8.2 8.7 8.1 8.8 8.1 9.75 8.0 10.1 7.95 10.15 7.95 10.4 8.0 10.35 7.95 10.6 7.85 10.75 7.7 11.95 7.7 12.05 7.6 13.0 7.6 13.65 7.7 13.9 7.55 M14.75 8.85 L14.7 8.65 Q14.75 8.1 14.95 7.85 L12.05 7.95 11.8 7.95 11.7 8.0 11.45 8.0 11.2 8.9 11.4 9.15 11.55 9.3 12.35 9.25 14.1 9.55 14.3 9.05 14.75 8.85 M11.8 9.85 L11.7 10.05 11.6 10.05 11.45 9.7 11.4 9.7 11.2 9.65 11.3 9.55 11.3 9.45 11.0 9.55 11.2 10.45 12.35 11.3 12.6 11.25 13.55 11.15 13.95 10.6 14.75 9.8 14.7 9.05 Q14.5 9.25 14.45 9.65 14.3 10.05 13.3 9.85 L11.8 9.7 11.8 9.85 M10.65 9.65 L10.65 9.55 10.5 9.65 9.6 9.55 Q8.8 9.65 8.55 9.85 L8.5 9.85 8.5 9.95 8.4 10.05 8.4 10.1 8.55 10.35 8.55 10.45 8.65 10.45 9.7 10.9 Q10.1 11.1 10.35 11.25 L10.25 11.25 9.95 11.15 9.35 11.15 9.3 11.15 8.8 11.0 8.7 11.0 8.7 11.25 8.95 11.3 9.3 11.55 10.25 11.9 11.45 12.05 11.45 11.95 11.45 11.9 11.2 11.75 11.15 11.65 11.7 11.8 11.8 11.75 11.95 11.65 12.1 11.55 12.2 11.5 11.2 10.6 10.8 10.1 10.9 9.95 10.65 9.65 M5.2 9.95 L4.7 10.05 4.6 10.45 4.6 10.6 5.8 10.85 7.25 11.25 7.35 11.1 7.45 11.15 7.45 11.1 7.5 11.1 7.6 11.0 7.6 10.7 7.6 10.45 7.6 10.35 Q6.7 9.7 5.5 9.85 L5.2 9.95 M5.25 11.1 L5.35 11.65 5.35 11.75 5.0 12.15 4.05 13.1 4.15 13.25 4.2 13.25 4.15 13.35 3.5 14.05 3.15 14.3 3.35 14.4 3.4 14.55 3.35 14.55 3.25 14.7 3.25 14.8 3.15 14.7 Q3.35 14.45 3.0 14.65 L3.0 14.4 3.25 13.9 Q3.55 13.25 4.2 12.7 5.0 12.05 5.25 11.1 M7.35 11.55 L7.1 11.9 6.95 11.95 6.85 12.15 6.65 12.6 6.55 12.95 7.7 12.05 8.1 12.05 8.0 11.95 7.9 11.9 7.7 11.75 7.6 11.75 7.6 11.55 7.5 11.4 7.35 11.55 M8.3 11.25 L8.15 11.1 8.15 10.9 Q7.9 10.9 7.85 11.1 L7.85 11.4 8.15 11.65 8.3 11.8 8.4 11.9 8.5 12.05 8.7 12.05 8.9 11.9 8.95 11.8 8.8 11.75 8.55 11.55 8.3 11.25 M10.1 13.2 L10.0 13.1 9.6 12.85 9.3 12.6 8.4 12.35 7.6 12.3 5.65 14.0 5.8 14.7 5.9 15.1 6.15 15.75 6.3 16.15 6.8 17.1 7.1 17.6 7.45 18.25 8.95 17.6 9.2 17.5 9.75 17.2 10.75 16.65 11.05 16.4 10.8 16.1 10.35 14.7 10.25 13.75 10.25 13.5 10.25 13.25 10.1 13.1 10.1 13.2 M6.15 16.95 L6.0 16.65 6.0 16.8 6.0 17.45 6.0 17.75 6.0 17.95 6.0 18.15 6.3 18.15 6.7 18.25 6.85 18.35 7.05 18.15 7.05 17.85 6.65 17.45 6.15 16.95 M6.8 18.75 L6.8 18.65 6.15 18.4 5.8 18.35 5.75 18.4 5.6 18.5 5.5 18.5 5.4 18.75 5.35 18.8 5.4 19.05 5.8 20.35 6.0 20.75 6.0 20.8 6.05 21.3 6.15 21.25 6.25 21.25 6.3 21.45 7.35 20.75 7.85 20.35 7.45 20.5 7.35 19.95 7.25 19.8 6.8 18.75 M5.65 18.1 L5.75 18.15 5.8 18.15 5.65 17.6 5.6 18.1 5.65 18.1 M11.8 17.35 L11.4 17.2 11.4 17.05 11.55 16.8 11.15 16.55 11.05 16.65 9.7 17.6 9.15 17.95 8.9 18.0 7.5 18.4 7.5 18.65 7.6 18.75 Q7.2 18.5 7.25 18.95 L7.25 19.15 7.2 19.05 7.2 19.3 7.35 19.45 7.5 19.8 7.6 20.2 8.1 20.0 8.15 20.0 8.3 19.95 8.4 19.85 9.05 19.55 10.15 18.9 10.5 18.65 10.75 18.4 10.8 18.4 11.2 18.1 11.45 17.85 11.8 17.6 11.95 17.35 11.8 17.35 M4.35 22.9 L4.2 22.85 4.3 23.1 4.35 22.9 M4.05 22.85 Q3.5 23.9 3.55 25.25 L3.95 25.0 3.95 23.9 4.05 23.1 4.05 22.85 M8.95 19.85 L8.55 20.0 8.8 20.1 9.05 20.35 9.2 20.5 9.35 20.65 9.45 20.75 9.85 21.25 9.85 21.15 Q9.95 20.85 10.15 20.9 L10.35 21.55 10.65 22.3 11.7 23.65 13.55 25.25 14.75 24.15 13.7 21.05 11.7 19.85 11.85 19.85 11.85 19.55 11.95 19.3 11.6 18.65 11.55 18.15 11.4 18.35 10.75 18.75 10.1 19.2 8.95 19.85 M8.55 20.0 L8.5 20.0 8.5 20.1 8.4 20.35 8.5 20.25 8.65 20.25 8.55 20.1 8.55 20.0 M8.4 20.4 L8.25 21.6 8.3 21.55 8.65 21.55 8.55 21.4 8.65 20.6 8.4 20.4 M8.8 23.25 L9.05 22.7 8.9 22.7 8.65 21.8 Q8.3 21.95 8.25 21.7 L8.15 21.7 8.0 22.6 8.25 22.75 8.55 23.15 8.65 23.25 8.7 23.4 8.8 23.4 8.8 23.25 M12.2 16.95 L12.45 16.55 11.85 16.7 11.95 16.8 12.2 17.05 12.2 16.95 M18.15 24.35 L18.7 24.45 19.05 25.2 20.25 26.0 18.05 23.15 17.25 23.1 18.15 24.35 M15.5 24.45 L15.1 24.45 14.5 24.85 Q13.7 25.35 13.95 25.6 L14.6 25.65 15.5 24.45 M18.65 25.25 L18.45 24.75 18.25 24.75 18.15 24.85 18.25 25.0 17.85 25.4 18.3 25.75 18.65 25.25 M19.6 26.15 L19.2 25.8 19.2 26.55 19.6 26.15 M18.7 26.05 L18.7 25.8 18.65 26.0 18.7 26.05 M7.35 28.15 L7.45 27.1 Q7.45 26.45 7.7 25.9 L7.7 25.8 7.6 25.8 7.35 25.8 7.1 25.8 Q6.55 25.9 6.15 26.2 L6.0 26.15 5.6 26.4 Q5.25 26.65 5.25 26.8 L4.95 27.25 6.25 28.0 7.25 28.55 7.35 28.55 7.45 28.5 7.45 28.4 7.35 28.15 M7.75 26.05 L8.0 26.2 8.65 27.5 8.9 28.1 9.2 28.8 9.3 29.1 9.55 28.9 9.3 28.1 9.3 28.0 8.95 27.45 8.4 26.65 8.0 25.9 7.75 25.8 7.75 26.05" fill="#000000" fill-rule="evenodd" stroke="none"/>
    <path d="M3.0 17.6 L3.1 17.6 3.1 17.7 3.0 17.85 3.0 17.6 M8.95 19.85 L10.1 19.2 10.75 18.75 11.4 18.35 11.55 18.15 11.6 18.65 11.95 19.3 11.85 19.55 11.85 19.85 11.7 19.85 13.7 21.05 14.75 24.15 13.55 25.25 11.7 23.65 10.65 22.3 10.35 21.55 10.15 20.9 Q9.95 20.85 9.85 21.15 L9.85 21.25 9.45 20.75 9.35 20.65 9.2 20.5 9.05 20.35 8.8 20.1 8.55 20.0 8.95 19.85" fill="#f0e1bd" fill-rule="evenodd" stroke="none"/>
    <path d="M3.75 27.85 L3.8 26.95 3.9 26.55 3.9 26.45 3.95 26.4 3.5 25.25 3.95 25.2 4.55 26.85 5.0 27.65 4.95 27.75 4.85 27.65 4.8 27.6 4.15 26.7 4.05 26.55 4.3 27.45 4.35 27.85 3.75 27.85 M5.1 29.3 L5.0 29.35 5.0 28.45 5.2 28.5 Q5.75 28.65 5.6 29.05 L5.35 29.2 5.1 29.3 M6.45 29.55 L6.85 29.85 6.4 29.85 6.45 29.55 M7.0 29.85 L6.55 29.35 6.15 28.55 6.0 28.15 5.9 28.0 6.0 28.0 6.8 28.65 7.05 28.95 8.0 29.05 Q8.65 28.95 8.65 29.45 L8.55 29.7 8.5 29.75 8.4 29.85 7.0 29.85 M9.6 28.9 L9.55 28.55 9.6 28.4 9.6 28.25 10.4 29.85 9.9 29.85 9.6 28.9 M9.3 27.3 L9.2 27.1 8.9 26.55 8.8 26.3 8.15 25.25 Q9.15 25.25 10.65 27.9 L11.55 29.85 11.5 29.85 11.45 29.75 11.4 29.7 11.1 29.85 10.75 29.85 9.3 27.3 M10.25 13.5 L10.1 14.3 Q10.1 15.45 10.5 16.25 10.35 16.5 10.15 16.25 L10.1 16.5 9.85 16.5 Q9.6 16.15 9.6 15.25 L9.3 16.1 9.05 16.1 Q8.9 15.9 9.45 14.65 9.85 13.4 10.1 13.2 L10.1 13.1 10.25 13.25 10.25 13.5 M6.65 15.35 L7.05 16.1 7.6 16.8 Q7.9 17.1 8.15 17.1 L8.15 17.35 7.7 17.45 7.45 17.3 Q6.25 16.0 6.05 15.2 L6.65 15.35 M6.65 17.45 L6.4 17.7 6.15 17.7 6.15 16.95 6.65 17.45 M7.6 18.75 L7.7 18.8 7.75 18.8 7.75 18.95 7.75 19.15 8.65 19.05 8.8 19.05 9.2 18.8 9.35 18.65 9.45 18.75 9.85 18.65 10.35 18.25 10.4 18.25 10.5 18.15 10.75 17.85 10.8 17.95 11.3 17.45 11.4 17.5 11.6 17.35 11.8 17.35 11.7 17.5 11.45 17.75 11.45 17.85 11.2 18.1 10.8 18.4 10.75 18.4 10.5 18.65 10.15 18.9 9.05 19.55 8.4 19.85 8.25 19.85 7.6 19.85 7.5 19.8 7.35 19.45 7.2 19.3 7.2 19.05 7.25 19.15 7.25 18.95 Q7.2 18.5 7.6 18.75 M4.8 23.9 L5.1 23.55 5.8 24.15 6.4 24.85 6.0 25.35 6.15 25.5 5.9 25.6 5.8 25.6 5.75 25.75 5.65 25.8 5.5 25.75 5.5 25.9 5.5 26.05 5.35 26.05 5.1 25.65 5.0 25.65 Q4.7 25.75 4.45 24.15 4.35 23.75 4.55 23.65 L4.8 23.9 M8.25 22.75 L8.55 22.2 8.8 22.5 8.55 23.15 8.25 22.75 M8.65 23.25 L8.7 23.15 8.8 23.25 8.8 23.4 8.7 23.4 8.65 23.25 M6.15 26.2 L5.9 27.1 6.7 27.6 7.35 28.15 7.45 28.4 7.45 28.5 7.35 28.55 7.25 28.55 6.25 28.0 4.95 27.25 5.25 26.8 Q5.25 26.65 5.6 26.4 L6.0 26.15 6.15 26.2" fill="#605342" fill-rule="evenodd" stroke="none"/>
    <path d="M12.35 16.25 L11.3 16.1 11.4 16.1 12.35 16.25 M11.15 15.5 L11.15 15.45 11.4 15.6 11.3 15.6 11.15 15.5 M11.05 15.1 L10.9 14.2 Q10.65 12.7 9.45 12.3 L9.45 12.2 9.35 12.2 9.35 11.95 9.45 11.9 9.55 11.9 10.15 12.3 Q10.9 12.55 11.45 12.3 L11.55 12.3 11.7 12.2 11.85 12.15 12.05 12.05 12.2 12.3 12.65 14.4 12.75 15.9 Q12.35 15.6 11.55 15.25 L11.05 15.1 M3.0 14.3 L3.1 14.0 3.15 13.2 3.4 12.3 3.55 12.45 3.65 12.45 4.05 11.9 4.2 11.4 4.05 11.15 Q3.8 11.25 3.65 11.65 L3.95 10.9 5.25 11.1 5.8 11.25 7.05 11.5 6.7 11.9 6.65 12.05 6.65 12.1 6.65 12.15 Q6.15 12.3 5.8 13.1 L5.65 13.75 5.6 13.75 5.5 14.4 Q4.55 13.9 4.15 13.9 L3.9 13.9 3.8 14.15 3.9 14.2 3.95 14.3 4.15 14.55 3.5 14.55 3.4 14.55 3.35 14.4 3.15 14.3 3.5 14.05 4.15 13.35 4.2 13.25 4.45 13.35 6.15 11.55 6.05 11.4 5.6 11.25 5.35 11.65 5.25 11.1 Q5.0 12.05 4.2 12.7 3.55 13.25 3.25 13.9 L3.0 14.4 3.0 14.3 M5.5 14.95 L5.5 15.05 5.35 14.95 5.5 14.95 M3.5 14.85 L3.65 14.95 3.8 14.95 3.95 15.05 4.55 15.2 4.3 15.5 4.2 15.85 4.2 15.9 3.95 16.8 3.95 16.9 Q3.8 16.7 3.55 16.65 L3.15 16.25 3.35 15.1 3.25 14.85 3.0 14.7 3.0 14.65 Q3.35 14.45 3.15 14.7 L3.25 14.8 3.35 14.85 3.5 14.85 M4.2 17.05 L4.2 16.7 4.45 16.25 4.55 15.85 4.55 15.75 Q4.55 15.6 4.7 15.5 4.95 15.25 5.25 15.5 L5.75 16.25 5.65 16.5 5.65 16.95 5.6 17.05 5.5 17.3 5.5 17.35 Q5.25 17.7 5.35 17.95 L5.25 18.25 5.2 18.25 5.2 18.1 4.95 17.7 4.85 17.5 4.8 17.45 4.3 17.3 4.2 17.3 4.2 17.05 M3.4 17.3 L3.35 17.35 3.25 17.3 3.25 17.2 3.4 17.3 M3.25 18.0 L3.35 17.75 3.4 17.85 3.25 18.0 M3.65 17.85 L3.65 17.75 3.55 17.6 3.8 17.6 4.05 17.6 4.6 17.7 4.7 17.75 4.8 17.95 4.85 18.35 4.85 18.4 4.95 18.5 5.0 18.5 5.0 18.55 4.85 18.75 4.85 18.8 4.7 19.15 4.6 19.15 4.6 19.05 4.55 18.8 4.35 18.8 3.35 19.05 3.35 18.75 3.55 18.25 3.75 17.95 3.65 17.85 M3.1 19.95 L3.25 19.85 4.6 19.3 4.15 20.6 3.95 21.7 3.5 21.45 Q3.65 20.85 3.4 20.35 L3.1 19.95 M4.95 19.85 L5.2 19.2 5.25 19.95 5.1 19.55 4.95 19.85 M5.35 20.1 Q5.5 20.9 5.9 21.4 L6.15 21.65 6.15 21.55 6.3 21.55 7.45 20.75 7.9 20.35 8.3 20.2 8.15 20.9 7.7 22.35 7.7 22.5 7.25 22.45 6.15 22.45 5.6 21.85 5.0 21.15 5.35 20.1 M4.45 22.6 L4.2 22.5 4.15 22.45 4.15 22.35 4.15 22.2 4.2 22.2 4.45 22.6 M3.9 21.95 L3.9 22.1 3.8 22.3 3.25 22.1 3.0 22.05 3.0 21.95 3.1 21.85 Q3.25 21.85 3.25 21.95 L3.35 22.05 3.75 21.85 3.9 21.95 M6.55 22.7 L7.45 22.85 6.85 22.75 6.65 22.75 6.55 22.7 M9.3 22.3 L9.05 22.3 8.95 22.1 8.9 21.55 8.9 20.75 8.95 20.65 9.15 20.9 Q8.95 21.15 8.9 21.55 L9.3 22.3 M14.9 27.3 L14.7 26.95 14.3 25.9 15.15 25.8 15.8 24.55 Q16.85 24.15 17.6 24.75 L17.85 25.0 17.2 25.25 18.85 26.95 17.0 27.75 16.4 27.85 16.3 27.85 15.95 28.0 15.35 27.75 15.0 27.45 14.95 27.35 14.9 27.3 M11.85 4.9 L11.6 4.95 11.55 5.1 11.6 5.2 13.5 6.65 13.7 6.35 13.9 6.0 13.5 5.35 Q12.9 4.9 11.85 4.9 M8.95 5.95 L10.1 5.1 11.4 4.5 Q12.1 4.55 14.35 5.35 L14.35 5.5 14.75 7.45 14.85 7.45 14.95 7.55 14.85 7.55 13.9 7.55 13.8 7.2 12.2 7.2 11.8 7.2 10.75 6.5 9.6 6.1 9.6 6.0 9.55 6.0 9.6 5.95 9.55 5.75 9.35 5.75 9.3 5.75 9.2 5.85 Q9.15 5.85 9.05 5.95 L8.95 5.95 M10.1 7.95 L9.75 8.0 8.8 8.1 9.05 7.95 9.55 7.95 10.1 7.95 M8.65 6.25 L8.9 6.0 8.9 6.25 8.8 6.35 Q8.8 6.25 8.65 6.25 M10.65 9.65 L10.5 9.65 10.65 9.55 10.65 9.65 M8.55 9.85 L8.5 9.95 8.5 9.85 8.55 9.85 M8.4 10.1 L8.5 10.2 8.55 10.35 8.4 10.1 M8.65 10.45 L8.95 10.45 8.95 10.5 Q9.15 10.7 9.35 10.7 L9.7 10.9 8.65 10.45 M10.25 11.25 L9.85 11.3 9.35 11.15 9.95 11.15 10.25 11.25 M11.45 11.95 L11.2 11.75 11.45 11.9 11.45 11.95 M11.95 11.65 L11.95 11.55 11.05 10.85 10.0 10.1 10.4 10.1 10.4 10.2 10.75 10.45 10.8 10.35 10.9 10.3 10.75 10.1 10.8 10.1 11.2 10.6 12.2 11.5 12.1 11.55 11.95 11.65 M5.5 9.85 Q6.7 9.7 7.6 10.35 L7.6 10.45 7.6 10.7 7.6 11.0 7.5 11.1 7.45 11.1 7.45 11.15 7.35 11.1 7.25 11.25 5.8 10.85 4.6 10.6 4.6 10.45 4.7 10.05 5.2 9.95 5.1 10.1 5.1 10.3 5.25 10.3 5.6 10.05 5.5 9.85 M9.15 7.2 L9.2 7.3 9.05 7.05 9.15 7.2 M8.3 11.25 L8.55 11.55 8.8 11.75 8.95 11.8 8.9 11.9 8.7 12.05 8.5 12.05 8.4 11.9 8.3 11.8 8.15 11.65 7.85 11.4 7.85 11.1 Q7.9 10.9 8.15 10.9 L8.15 11.1 8.3 11.25 M5.4 19.05 L5.35 18.8 5.4 18.75 5.5 18.5 5.6 18.5 5.75 18.4 5.8 18.35 6.15 18.4 6.8 18.65 6.8 18.75 6.25 18.55 6.3 18.65 6.4 18.8 6.8 19.3 6.85 19.4 6.85 19.6 6.85 19.7 Q6.85 19.85 7.1 19.85 L7.25 19.8 7.35 19.95 6.4 20.5 5.9 19.05 6.05 19.05 6.3 18.9 Q6.15 18.55 6.0 18.65 L5.9 18.55 Q5.75 18.5 5.6 18.75 L5.4 19.05 M8.4 20.4 L8.65 20.6 8.55 21.4 8.65 21.55 8.3 21.55 8.25 21.6 8.4 20.4 M6.0 20.8 L6.25 21.25 6.15 21.25 6.05 21.3 6.0 20.8 M12.5 13.4 Q12.5 12.85 11.4 12.6 L10.0 12.35 10.0 12.55 11.0 13.35 Q11.85 14.05 12.2 14.05 L12.45 14.0 12.5 13.4 M12.2 16.95 L12.1 16.8 11.95 16.8 11.85 16.7 12.45 16.55 12.2 16.95 M15.5 24.45 L14.6 25.65 13.95 25.6 Q13.7 25.35 14.5 24.85 L15.1 24.45 15.5 24.45" fill="#485331" fill-rule="evenodd" stroke="none"/>
    <path d="M11.8 9.85 L11.8 9.7 13.3 9.85 Q14.3 10.05 14.45 9.65 14.5 9.25 14.7 9.05 L14.75 9.8 13.95 10.6 13.55 11.15 12.6 11.25 12.35 11.3 11.2 10.45 11.0 9.55 11.3 9.45 11.3 9.55 11.2 9.65 11.4 9.7 11.45 9.7 11.6 10.05 11.7 10.05 11.8 9.85" fill="#7e7b67" fill-rule="evenodd" stroke="none"/>
    <path d="M8.95 5.95 L9.05 5.95 Q9.15 5.85 9.2 5.85 L9.3 5.75 9.35 5.75 9.55 5.75 9.6 5.95 9.55 6.0 9.6 6.0 9.6 6.1 10.75 6.5 11.8 7.2 12.2 7.2 13.8 7.2 13.9 7.55 13.65 7.7 13.0 7.6 12.05 7.6 11.95 7.7 10.75 7.7 10.6 7.85 10.35 7.95 10.4 8.0 10.15 7.95 10.1 7.95 9.55 7.95 9.05 7.95 8.8 8.1 8.7 8.1 8.15 8.2 8.1 8.1 8.25 7.85 8.1 7.6 8.15 7.55 8.1 7.45 8.4 6.35 8.55 6.35 8.65 6.25 Q8.8 6.25 8.8 6.35 L8.9 6.25 8.9 6.0 8.9 5.95 8.95 5.95 M10.5 9.65 L10.65 9.65 10.9 9.95 10.8 10.1 10.75 10.1 10.4 10.1 10.0 10.1 11.05 10.85 11.95 11.55 11.95 11.65 11.8 11.75 11.7 11.8 11.15 11.65 11.2 11.75 11.45 11.95 11.45 12.05 10.25 11.9 9.3 11.55 8.95 11.3 8.7 11.25 8.7 11.0 8.8 11.0 9.3 11.15 9.35 11.15 9.85 11.3 10.25 11.25 10.35 11.25 Q10.1 11.1 9.7 10.9 L9.35 10.7 Q9.15 10.7 8.95 10.5 L8.95 10.45 8.65 10.45 8.55 10.45 8.55 10.35 8.5 10.2 8.4 10.1 8.4 10.05 8.5 9.95 8.55 9.85 Q8.8 9.65 9.6 9.55 L10.5 9.65 M9.15 7.2 L9.05 7.05 9.2 7.3 9.15 7.2 M8.5 7.8 L8.4 7.6 8.3 7.85 8.5 7.8" fill="#2f3520" fill-rule="evenodd" stroke="none"/>
    <path d="M3.4 12.3 L3.55 11.75 3.65 11.65 Q3.8 11.25 4.05 11.15 L4.2 11.4 4.05 11.9 3.65 12.45 3.55 12.45 3.4 12.3 M11.85 4.9 Q12.9 4.9 13.5 5.35 L13.9 6.0 13.7 6.35 13.5 6.65 11.6 5.2 11.55 5.1 11.6 4.95 11.85 4.9 M10.4 10.1 L10.75 10.1 10.9 10.3 10.8 10.35 10.75 10.45 10.4 10.2 10.4 10.1 M5.5 9.85 L5.6 10.05 5.25 10.3 5.1 10.3 5.1 10.1 5.2 9.95 5.5 9.85 M5.35 11.65 L5.6 11.25 6.05 11.4 6.15 11.55 4.45 13.35 4.2 13.25 4.15 13.25 4.05 13.1 5.0 12.15 5.35 11.75 5.35 11.65 M6.0 18.65 Q6.15 18.55 6.3 18.9 L6.05 19.05 5.9 19.05 5.8 18.9 6.0 18.65 M7.25 19.8 L7.1 19.85 Q6.85 19.85 6.85 19.7 L6.85 19.6 6.85 19.4 6.8 19.3 6.4 18.8 6.3 18.65 6.25 18.55 6.8 18.75 7.25 19.8 M12.5 13.4 L12.45 14.0 12.2 14.05 Q11.85 14.05 11.0 13.35 L10.0 12.55 10.0 12.35 11.4 12.6 Q12.5 12.85 12.5 13.4 M11.95 16.8 L12.1 16.8 12.2 16.95 12.2 17.05 11.95 16.8" fill="#a8b685" fill-rule="evenodd" stroke="none"/>
    <path d="M8.5 7.8 L8.3 7.85 8.4 7.6 8.5 7.8" fill="#3e4529" fill-rule="evenodd" stroke="none"/>
    <path d="M13.0 16.4 L12.35 16.25 11.4 16.1 11.3 16.1 11.15 15.5 11.3 15.6 11.4 15.6 11.15 15.45 11.05 15.1 11.55 15.25 Q12.35 15.6 12.75 15.9 L13.0 16.1 13.05 16.25 13.05 16.3 13.0 16.4 M6.65 12.1 L6.7 12.3 6.45 12.95 6.25 13.25 5.65 13.75 5.8 13.1 Q6.15 12.3 6.65 12.15 L6.65 12.1 M5.5 14.4 L5.5 14.95 5.35 14.95 4.55 14.8 4.45 14.85 3.5 14.85 3.35 14.85 3.25 14.8 3.25 14.7 3.35 14.55 3.4 14.55 3.5 14.55 4.15 14.55 3.95 14.3 3.9 14.2 3.8 14.15 3.9 13.9 4.15 13.9 Q4.55 13.9 5.5 14.4 M3.95 16.9 L4.2 17.05 3.95 17.3 3.8 17.5 3.4 17.3 3.25 17.2 3.25 17.3 3.15 17.35 3.1 17.35 3.0 17.35 3.0 14.7 3.25 14.85 3.35 15.1 3.15 16.25 3.55 16.65 Q3.8 16.7 3.95 16.9 M3.0 18.35 L3.25 18.0 3.4 17.85 3.55 17.75 3.65 17.85 3.75 17.95 3.55 18.25 3.35 18.75 3.35 19.05 4.35 18.8 4.55 18.8 4.6 19.05 4.6 19.15 4.2 19.3 3.25 19.55 3.0 19.55 3.0 18.35 M3.0 19.85 L3.1 19.95 3.4 20.35 Q3.65 20.85 3.5 21.45 L3.95 21.7 4.2 21.95 4.2 21.8 4.2 21.7 4.55 20.65 4.95 19.85 5.1 19.55 5.25 19.95 5.35 20.0 5.35 20.1 5.0 21.15 5.6 21.85 6.15 22.45 5.5 22.5 5.35 22.45 Q5.1 22.5 4.7 22.7 L4.6 22.85 4.45 22.6 4.2 22.2 4.15 22.2 3.9 21.95 3.75 21.85 3.35 22.05 3.25 21.95 Q3.25 21.85 3.1 21.85 L3.0 21.95 3.0 19.85 M6.0 22.7 L6.55 22.7 6.65 22.75 6.0 22.7 M9.55 22.7 Q9.35 22.6 9.3 22.3 L8.9 21.55 Q8.95 21.15 9.15 20.9 L9.2 21.05 9.35 21.3 9.7 21.55 10.0 21.8 10.1 22.1 9.85 22.1 9.75 22.6 9.6 22.7 9.55 22.7 M5.4 19.05 L5.6 18.75 Q5.75 18.5 5.9 18.55 L6.0 18.65 5.8 18.9 5.9 19.05 6.4 20.5 7.35 19.95 7.45 20.5 7.85 20.35 7.35 20.75 6.3 21.45 6.25 21.25 6.0 20.8 6.0 20.75 5.8 20.35 5.4 19.05" fill="#262b1a" fill-rule="evenodd" stroke="none"/>
    <path d="M25.7 16.9 Q25.8 18.8 24.5 20.0 L24.45 20.1 20.8 24.2 20.8 24.05 20.75 23.9 20.15 23.75 19.6 23.95 21.6 21.7 21.45 22.6 22.75 20.4 21.75 21.3 19.45 24.05 18.65 23.4 25.9 16.1 24.35 18.75 25.3 18.1 25.4 17.85 24.45 18.65 25.65 16.8 25.7 16.55 25.7 16.9" fill="#dddddd" fill-rule="evenodd" stroke="none"/>
    <path d="M14.65 29.85 L13.95 29.1 15.25 27.75 15.9 28.25 15.0 29.1 14.3 28.9 14.85 29.85 14.65 29.85 M16.2 29.85 L17.25 28.9 16.25 29.85 16.2 29.85 M18.15 24.35 L17.25 23.1 18.05 23.15 20.25 26.0 19.05 25.2 18.7 24.45 18.15 24.35 M19.6 26.15 L19.2 26.55 19.2 25.8 19.6 26.15 M18.65 25.25 L18.3 25.75 17.85 25.4 18.25 25.0 18.15 24.85 18.25 24.75 18.45 24.75 18.65 25.25" fill="#333333" fill-rule="evenodd" stroke="none"/>
    <path d="M14.75 8.85 L14.3 9.05 14.1 9.55 12.35 9.25 11.55 9.3 11.4 9.15 11.2 8.9 11.45 8.0 11.7 8.0 11.8 7.95 12.05 7.95 14.95 7.85 Q14.75 8.1 14.7 8.65 L14.75 8.85" fill="url(#gradient0)" fill-rule="evenodd" stroke="none"/>
  </g>
  <defs>
    <linearGradient gradientTransform="matrix(0.0022, 2.0E-4, -1.0E-4, 0.0011, 13.0, 8.6)" gradientUnits="userSpaceOnUse" id="gradient0" spreadMethod="pad" x1="-819.2" x2="819.2">
      <stop offset="0.00784313725490196" stop-color="#373737"/>
      <stop offset="0.20784313725490197" stop-color="#ffffff"/>
      <stop offset="0.4588235294117647" stop-color="#5c5c5c"/>
      <stop offset="0.6941176470588235" stop-color="#dddddd"/>
      <stop offset="0.8705882352941177" stop-color="#929292"/>
      <stop offset="1.0" stop-color="#aaaaaa"/>
    </linearGradient>
  </defs>
</svg>
