<?xml version="1.0" encoding="UTF-8" standalone="no"?>
<svg xmlns:xlink="http://www.w3.org/1999/xlink" height="32.3px" width="32.1px" xmlns="http://www.w3.org/2000/svg">
  <g transform="matrix(1.0, 0.0, 0.0, 1.0, -0.6, -0.3)">
    <path d="M29.85 0.7 L29.7 1.1 29.6 1.25 29.05 2.1 28.6 1.8 28.6 1.45 28.85 0.8 Q28.9 0.35 29.3 0.35 L29.4 0.4 Q29.85 0.1 29.85 0.7 M1.25 2.6 Q0.8 2.6 0.7 2.2 L0.7 1.7 Q0.7 1.15 1.45 0.65 2.2 0.2 2.2 0.95 L1.25 2.6 M1.85 29.35 L1.55 29.85 1.0 30.25 Q0.6 30.25 0.6 29.8 0.6 29.5 0.9 29.25 1.3 28.9 1.8 29.1 L1.85 29.35 M29.95 29.35 L29.8 29.95 29.4 30.25 Q28.95 30.25 28.95 29.8 28.95 29.4 29.45 29.0 29.95 28.55 29.95 29.35" fill="#ff6666" fill-rule="evenodd" stroke="none"/>
    <path d="M32.7 3.95 L32.7 4.35 31.45 4.6 Q30.2 4.6 30.2 4.2 30.2 3.9 30.7 3.65 L31.35 2.95 Q31.15 2.6 31.45 2.15 31.8 1.75 32.3 1.95 L32.7 3.95 M4.2 2.5 Q4.2 4.6 2.45 4.6 L2.05 4.55 Q1.95 4.05 2.1 3.9 L1.7 3.5 Q1.7 3.05 3.35 3.05 L3.9 2.1 Q4.2 1.65 4.2 2.5 M3.6 30.35 Q3.7 30.0 4.3 30.1 L4.35 32.05 Q4.25 32.6 3.75 32.6 L1.6 32.45 Q1.45 32.4 1.45 32.15 2.65 30.7 3.6 30.85 L3.6 30.35 M32.25 32.5 L31.25 32.5 30.25 32.5 29.85 32.05 30.05 31.8 31.3 31.25 31.2 30.65 Q31.2 30.25 31.55 29.8 31.95 29.25 32.25 29.95 L32.45 31.75 32.25 32.5" fill="#660000" fill-rule="evenodd" stroke="none"/>
    <path d="M20.8 11.55 L20.9 11.65 22.0 11.9 22.15 11.9 22.25 11.9 22.75 12.0 23.0 12.0 22.95 12.6 22.75 13.5 22.85 13.75 23.2 13.85 Q23.6 13.85 23.6 13.35 L23.55 12.05 24.3 12.9 24.55 13.1 24.55 13.15 24.45 13.15 24.2 13.15 24.2 13.25 24.3 13.75 24.1 14.3 23.6 14.55 23.35 14.45 22.35 14.35 21.85 14.35 21.55 14.35 21.5 14.35 21.5 14.3 21.3 14.3 21.05 14.1 20.9 13.85 20.8 13.6 20.9 13.25 21.0 13.0 20.65 11.65 20.65 11.55 20.8 11.45 20.8 11.55 M14.6 15.4 L14.45 15.4 13.75 15.3 13.15 15.2 13.1 15.2 12.75 15.15 11.7 15.05 12.3 13.25 14.6 12.6 14.7 12.65 14.7 12.6 14.8 12.9 14.85 13.1 14.85 13.15 14.7 13.15 14.25 13.5 Q13.6 13.85 13.6 14.1 13.6 14.45 14.25 14.55 14.95 14.6 14.95 14.95 L14.85 15.2 14.6 15.4" fill="#928465" fill-rule="evenodd" stroke="none"/>
    <path d="M22.0 11.9 L20.9 11.65 20.8 11.55 22.0 11.9 M20.65 11.55 L20.65 11.65 20.15 11.45 19.35 11.4 19.2 11.3 19.2 11.4 18.6 11.4 17.5 11.45 17.25 11.55 16.3 12.0 16.15 12.0 17.15 11.55 17.05 11.55 Q17.05 11.3 18.7 11.2 L20.45 11.45 20.65 11.55 M24.55 13.15 L24.55 13.1 24.3 12.9 23.55 12.05 23.6 13.35 Q23.6 13.85 23.2 13.85 L22.85 13.75 22.75 13.5 22.95 12.6 23.0 12.0 22.75 12.0 22.25 11.9 22.15 11.9 22.15 11.8 22.25 11.8 22.5 11.8 23.1 11.8 23.35 11.05 23.55 11.75 23.55 12.0 23.7 12.15 24.8 12.3 26.05 12.65 26.05 12.6 26.4 12.6 26.75 12.65 27.1 12.65 27.35 12.6 27.6 12.6 28.05 12.5 28.7 12.5 29.8 12.6 29.8 12.65 28.7 12.6 27.6 12.65 26.9 12.75 26.35 12.75 26.75 13.0 27.35 13.35 27.95 13.5 28.9 13.6 29.8 13.5 29.8 13.7 29.05 13.7 28.2 13.6 27.45 13.5 27.35 13.5 26.15 12.75 26.05 12.75 23.8 12.25 24.8 13.25 25.4 13.85 25.65 14.3 25.65 14.35 25.75 14.6 Q25.75 15.05 24.95 15.55 L24.8 15.65 24.9 15.55 24.2 15.55 23.2 15.55 22.95 15.65 22.85 15.65 22.5 15.55 22.4 15.55 22.4 15.65 20.7 15.65 20.8 15.95 20.8 16.05 20.7 15.95 20.65 15.65 20.55 15.65 20.55 15.45 Q20.2 15.15 19.7 15.15 L18.45 15.3 18.45 15.4 18.6 15.8 18.6 15.95 18.7 15.95 18.75 16.15 19.8 16.15 19.85 16.15 20.55 16.3 20.65 16.25 20.7 16.25 20.65 16.3 20.7 16.3 20.9 16.75 20.9 16.8 20.8 16.75 20.55 16.4 18.75 16.25 Q18.7 16.4 18.45 16.4 L18.35 16.75 18.25 16.75 18.25 17.0 18.35 17.0 18.35 17.1 18.35 17.25 18.35 17.4 18.5 17.65 20.2 17.95 Q20.55 17.95 20.7 17.4 L20.8 17.15 20.9 17.1 Q20.8 18.0 20.2 18.0 18.75 18.0 18.45 17.65 L18.35 17.6 18.25 17.75 18.2 17.75 18.2 17.65 17.5 17.75 17.4 17.65 17.4 17.75 16.9 17.75 Q15.95 17.75 15.8 17.4 L15.7 17.0 15.7 16.9 15.8 16.9 15.8 17.0 15.9 17.4 17.0 17.65 18.2 17.5 18.2 16.8 18.25 16.75 18.2 16.55 18.2 16.4 18.0 16.3 18.0 16.15 16.9 16.05 16.15 16.15 16.15 16.25 16.05 16.3 15.9 16.55 15.9 16.65 15.8 16.55 15.9 16.4 15.8 16.3 15.9 15.55 15.55 15.55 15.2 15.55 14.8 15.55 14.6 15.45 13.75 15.4 13.15 15.3 13.1 15.2 13.15 15.2 13.75 15.3 14.45 15.4 14.6 15.4 15.2 15.45 15.95 15.4 Q16.2 14.85 17.0 14.85 L17.65 15.05 18.2 15.15 18.25 14.45 18.35 14.45 18.45 15.15 19.7 15.05 Q20.4 15.05 20.65 15.45 L20.7 15.55 24.3 15.45 24.95 15.45 25.2 15.2 25.65 14.6 24.55 13.15 M29.8 17.75 L29.8 18.0 29.55 18.0 29.45 17.85 29.8 17.75 M29.8 18.2 L29.8 18.35 29.45 18.45 Q28.2 18.85 27.7 19.1 L27.6 19.1 27.6 19.2 27.5 19.2 27.45 19.3 6.7 19.35 6.55 19.1 6.35 19.05 6.35 19.2 6.05 19.35 5.45 19.35 5.35 19.55 5.5 19.55 7.5 19.65 9.45 19.8 9.45 19.7 9.5 19.8 9.75 20.05 10.0 20.4 11.9 20.4 11.9 20.5 12.3 20.4 13.95 20.4 13.85 19.65 14.1 19.55 14.45 19.45 14.85 19.55 15.35 19.55 17.35 19.55 17.75 19.65 17.75 19.8 17.75 20.5 19.35 20.55 19.35 20.5 22.1 20.55 22.75 20.65 25.15 20.65 27.6 20.75 28.95 20.8 29.8 20.8 29.8 21.6 28.05 21.6 28.1 21.65 28.1 21.75 28.1 21.9 28.05 21.85 27.6 21.75 27.45 21.75 27.35 21.85 26.75 21.75 26.65 21.75 26.65 21.85 26.6 21.75 25.9 21.85 25.8 21.85 25.8 21.9 25.75 21.85 Q25.3 22.0 25.15 22.1 L25.15 22.35 25.4 23.0 25.15 22.6 25.05 22.35 24.8 22.35 24.7 22.6 24.65 22.75 24.55 23.2 24.45 23.1 24.45 22.95 24.65 22.35 24.65 22.25 24.65 22.1 24.65 21.9 24.1 21.65 24.1 21.85 24.05 21.75 23.6 21.65 23.45 21.65 23.35 21.75 22.75 21.65 22.7 21.65 22.7 21.75 22.6 21.65 21.9 21.75 21.85 21.75 21.85 21.85 21.75 21.75 21.15 22.0 21.15 22.15 21.25 22.35 21.3 22.6 21.3 22.7 21.4 22.95 21.5 22.95 21.55 23.0 21.5 23.0 21.5 23.2 21.4 23.1 21.25 23.35 21.25 23.55 21.15 23.95 Q21.25 24.55 21.65 24.9 L22.5 25.15 Q23.2 25.05 23.55 24.65 L23.8 24.05 23.8 23.7 23.55 23.55 23.45 23.3 23.35 23.1 23.25 23.0 22.75 22.95 22.6 22.95 22.7 23.2 22.7 23.45 22.85 23.55 23.0 24.05 22.95 24.3 22.6 24.45 22.0 24.3 21.85 24.05 Q21.85 23.7 22.1 23.55 L22.15 23.55 22.0 23.3 22.0 23.0 21.6 23.0 21.9 22.95 22.0 23.0 22.0 22.95 22.1 22.95 22.5 22.85 22.7 22.85 22.95 22.85 Q23.0 22.75 23.1 22.75 L23.55 22.85 23.95 22.95 23.95 22.85 24.05 22.75 24.05 22.85 23.95 22.95 24.35 23.05 24.05 23.0 24.05 23.1 24.2 23.55 24.2 24.05 23.95 24.9 Q23.45 25.5 22.6 25.55 21.55 25.65 21.0 24.9 L20.65 23.95 20.7 23.55 20.9 23.0 21.25 22.7 21.15 22.5 21.05 22.35 20.7 22.25 20.65 22.45 20.55 22.6 20.45 23.0 20.4 22.95 20.4 22.75 20.55 22.25 20.55 22.15 20.55 21.9 20.55 21.75 20.05 21.5 20.05 21.65 19.95 21.6 19.55 21.5 19.35 21.5 19.3 21.6 18.7 21.5 18.6 21.5 18.6 21.6 18.5 21.5 17.85 21.6 17.75 21.6 17.75 21.65 17.65 21.6 17.05 21.85 17.05 22.0 17.15 22.15 17.15 22.45 17.35 22.75 17.6 22.85 17.85 22.75 17.9 22.85 17.9 22.75 18.0 22.75 18.45 22.7 18.6 22.7 19.85 22.75 19.85 22.7 19.95 22.6 19.95 22.7 19.85 22.75 20.35 22.95 19.95 22.85 19.85 23.55 19.8 23.55 19.6 23.55 19.45 23.35 19.35 23.0 19.45 22.85 18.7 22.75 18.5 22.75 18.6 23.0 18.5 23.35 18.2 23.45 18.1 23.45 17.9 23.1 17.9 22.85 17.65 22.85 17.85 23.45 17.85 23.85 17.6 24.7 Q17.05 25.4 16.2 25.4 15.2 25.5 14.7 24.7 L14.25 23.8 14.35 23.45 14.25 23.45 14.2 23.35 14.1 23.1 14.1 22.85 14.1 22.75 14.2 22.75 14.6 22.7 14.8 22.7 15.45 22.7 15.7 22.7 15.8 22.7 16.05 22.75 16.5 22.95 16.15 22.85 16.05 23.3 16.5 23.45 16.65 23.85 16.55 24.15 16.2 24.4 15.65 24.15 15.45 23.85 15.65 23.35 15.55 23.0 15.65 22.85 15.2 22.75 15.1 22.85 14.85 23.2 14.85 23.35 14.8 23.8 Q14.85 24.4 15.3 24.7 15.65 25.05 16.15 25.0 16.8 24.9 17.15 24.45 L17.4 23.85 17.35 23.45 17.0 23.0 16.8 22.75 16.65 23.0 16.55 22.95 16.55 22.75 16.65 22.7 16.65 22.6 16.65 22.45 16.75 22.0 16.75 21.75 16.2 21.5 16.2 21.65 16.15 21.6 15.7 21.5 15.55 21.5 15.45 21.6 14.85 21.5 14.8 21.5 15.1 21.4 15.45 21.4 15.55 21.15 14.35 21.15 12.25 21.15 12.25 21.3 12.25 21.5 12.15 21.4 11.7 21.3 11.55 21.3 11.45 21.4 10.85 21.3 10.8 21.3 10.8 21.4 10.7 21.3 10.0 21.4 9.95 21.4 9.85 21.25 10.0 21.15 10.1 21.05 9.45 21.05 8.9 21.0 8.05 21.05 8.15 21.15 8.15 21.25 8.15 21.4 8.05 21.3 7.65 21.25 7.5 21.25 7.4 21.3 6.8 21.25 6.7 21.25 6.7 21.3 6.65 21.25 5.95 21.3 5.85 21.3 5.85 21.4 5.8 21.3 5.2 21.6 5.2 21.65 5.45 22.5 5.95 22.5 6.05 22.6 6.05 22.5 6.1 22.5 6.55 22.45 6.7 22.45 8.0 22.5 8.15 22.6 8.25 22.6 8.15 22.75 8.0 23.2 8.0 23.55 Q8.0 24.3 8.5 24.7 8.9 25.15 9.6 25.15 10.45 25.15 10.95 24.65 L11.3 23.8 11.2 23.3 10.85 22.7 10.8 22.6 10.7 22.6 10.8 22.85 10.8 22.95 10.95 23.3 10.95 23.8 10.7 24.45 9.6 24.9 Q8.85 24.9 8.4 24.3 L8.25 23.55 8.25 23.3 8.4 22.85 8.6 22.75 8.4 22.95 8.35 23.3 8.35 23.55 Q8.35 24.15 8.65 24.45 9.0 24.8 9.6 24.8 10.3 24.8 10.6 24.4 L10.85 23.8 10.8 23.3 10.8 23.2 10.7 23.2 10.4 23.3 10.35 23.3 10.3 23.3 10.1 22.95 10.1 22.7 10.1 22.6 10.45 22.6 10.6 22.5 10.8 22.5 11.05 22.5 12.05 22.6 12.55 22.75 12.15 22.7 12.05 23.35 12.0 23.35 11.8 23.35 11.65 23.2 11.55 22.85 11.65 22.7 11.15 22.6 11.3 23.3 11.4 23.8 11.05 24.7 Q10.55 25.25 9.6 25.25 8.6 25.25 8.15 24.45 7.8 23.95 7.8 23.55 L7.8 23.3 7.65 23.2 7.55 23.1 7.5 22.75 7.55 22.6 6.8 22.5 6.65 22.5 6.7 22.75 6.65 23.1 6.55 23.2 6.35 23.2 6.55 23.0 6.55 22.75 6.45 22.5 6.1 22.6 6.3 23.2 6.2 23.2 6.05 22.85 6.05 22.6 5.5 22.6 5.5 22.75 5.45 22.7 5.35 22.7 5.35 22.6 5.45 22.5 5.2 22.1 5.1 21.65 4.85 21.65 4.75 22.0 4.65 22.15 4.6 22.6 4.5 22.5 4.1 22.45 3.9 23.1 3.8 23.1 3.55 22.95 3.5 22.6 3.55 22.45 2.9 22.35 2.9 22.2 4.0 22.35 4.0 22.25 4.1 22.15 4.1 22.25 4.0 22.35 4.5 22.5 4.5 22.35 4.65 21.65 4.65 21.3 4.15 21.05 4.15 21.25 4.1 21.15 3.65 21.05 3.5 21.05 3.4 21.15 2.9 21.1 2.9 21.0 3.05 21.0 3.4 21.0 3.4 20.9 3.0 20.9 2.9 20.85 2.9 20.15 4.85 20.15 5.2 20.2 5.7 20.2 6.2 20.3 9.85 20.4 9.75 20.2 9.5 19.9 9.15 19.9 5.5 19.65 5.1 19.7 4.75 19.65 2.9 19.55 2.9 19.45 4.0 19.55 4.75 19.55 5.1 19.65 5.25 19.55 5.25 19.35 5.35 19.3 5.45 19.3 6.2 19.2 6.3 19.1 6.3 18.95 6.1 18.8 5.95 18.6 Q5.8 18.6 5.7 18.7 L5.45 18.7 Q5.25 18.7 5.25 18.35 L5.35 17.4 5.1 17.4 5.0 17.5 2.9 17.5 2.9 17.4 3.8 17.4 4.1 17.4 4.95 17.4 5.0 17.35 5.0 15.45 4.95 15.3 4.95 15.2 4.0 15.2 3.0 15.2 2.9 15.2 2.9 15.15 5.1 15.15 5.1 15.2 5.2 15.4 5.2 15.45 6.3 15.45 6.35 15.4 7.2 14.45 Q6.7 15.05 6.55 15.45 L6.45 15.55 6.45 15.7 6.2 16.65 5.7 17.35 5.6 17.4 5.45 17.6 5.35 18.25 5.35 18.6 5.7 18.5 5.8 18.5 6.45 17.85 6.9 17.4 6.95 17.35 7.65 16.65 7.65 16.55 7.8 16.4 Q9.5 14.6 9.5 14.1 L9.5 14.0 9.25 13.75 8.65 13.6 Q8.25 13.6 7.75 14.0 8.35 13.5 8.65 13.5 9.15 13.5 9.5 14.0 L9.5 13.95 9.6 13.95 9.6 14.0 9.7 14.0 9.85 13.95 10.0 13.85 10.2 13.75 10.45 13.7 10.7 13.6 10.8 13.7 11.2 13.0 11.3 12.9 11.45 12.75 11.45 12.85 11.7 12.4 12.05 12.0 12.3 12.05 12.5 12.3 12.65 12.6 12.75 12.75 13.4 12.75 14.5 12.5 16.15 12.0 16.05 12.05 14.6 12.6 12.3 13.25 11.7 15.05 12.75 15.15 13.1 15.2 13.0 15.3 11.7 15.15 11.7 15.2 11.65 15.2 11.65 14.95 11.8 14.2 11.9 14.1 11.9 14.0 12.25 13.25 12.15 13.15 11.65 13.1 11.55 13.0 11.3 13.1 10.85 13.7 10.85 13.75 10.0 15.15 10.0 15.2 10.0 15.3 9.0 16.4 6.8 18.6 6.7 18.8 6.55 18.95 6.65 19.05 6.7 19.1 6.8 19.2 10.55 19.2 10.7 19.3 10.8 19.2 18.95 19.2 19.0 19.3 19.1 19.3 19.2 19.2 24.35 19.2 24.35 19.3 24.55 19.3 24.55 19.2 27.2 19.2 27.35 19.1 27.45 19.1 27.5 19.05 Q28.45 18.6 29.55 18.25 L29.7 18.2 29.8 18.2 M29.8 21.85 L29.8 22.0 29.8 22.1 29.7 22.0 29.15 22.25 29.15 22.5 29.2 22.7 29.3 22.95 29.3 23.0 29.4 23.2 29.65 23.3 29.8 23.3 29.8 23.7 29.65 23.3 29.45 23.3 29.45 23.45 29.4 23.35 29.3 23.35 29.3 23.3 29.4 23.2 29.2 23.0 28.6 22.95 28.55 23.3 28.45 23.2 28.45 23.0 28.55 22.85 28.55 22.7 28.6 22.45 28.6 22.15 28.6 22.0 28.1 21.75 Q28.6 21.85 28.7 22.0 L28.8 22.15 28.8 22.25 28.8 22.45 29.05 22.45 29.05 22.15 29.7 22.0 29.8 22.0 29.7 21.85 29.8 21.85 M29.8 24.3 L29.8 24.45 29.7 24.55 Q29.45 25.0 28.8 25.05 28.2 25.05 27.75 24.55 L27.5 23.95 27.5 23.7 27.6 23.6 27.5 23.6 27.45 23.3 27.35 23.7 27.35 23.95 Q27.35 24.55 27.85 24.9 28.2 25.25 28.8 25.25 29.45 25.15 29.8 24.8 L29.8 25.0 28.8 25.3 Q28.05 25.4 27.5 24.7 L27.2 23.95 27.2 23.7 27.35 23.2 27.45 23.1 26.75 23.0 26.6 23.0 26.65 23.3 26.6 23.6 26.5 23.7 26.35 23.7 26.5 23.55 26.5 23.3 26.4 23.0 26.05 23.1 26.25 23.7 26.15 23.7 26.0 23.35 26.0 23.1 25.5 23.1 25.5 23.3 25.4 23.2 25.3 23.2 25.3 23.1 25.4 23.0 25.9 23.0 26.0 23.1 26.0 23.0 26.05 23.0 26.5 22.95 26.65 22.95 27.5 22.95 27.7 22.95 27.95 23.0 27.95 22.95 28.05 22.85 28.05 22.95 27.95 23.0 28.05 23.1 27.95 23.7 27.85 23.8 27.75 23.8 27.85 23.7 27.95 23.35 27.95 23.2 27.85 23.1 27.6 23.0 27.5 23.2 27.6 23.6 27.7 23.7 27.6 23.7 27.6 23.95 28.05 24.7 Q28.3 25.0 28.8 24.9 29.4 24.9 29.65 24.55 L29.8 24.3 M29.8 27.2 L29.8 27.35 Q29.35 27.4 28.95 27.75 L28.85 27.75 Q29.3 27.3 29.8 27.2 M29.8 27.7 L29.8 27.75 29.7 27.75 29.8 27.7 M28.4 28.25 L28.4 28.5 28.35 28.65 28.05 29.6 27.95 29.6 28.2 28.65 28.4 28.25 M28.4 29.0 L28.4 29.6 28.35 29.15 28.4 29.0 M27.25 29.6 L27.2 29.6 27.0 28.8 26.6 28.2 Q25.8 27.35 24.65 27.25 23.55 27.1 22.75 28.05 L22.7 28.1 Q22.15 28.85 22.1 29.6 L22.0 29.6 Q22.05 28.75 22.7 28.05 L22.7 27.95 Q23.45 27.1 24.3 27.1 25.8 27.1 26.65 28.2 L27.1 28.8 27.25 29.6 M26.7 29.6 L26.65 29.6 26.35 28.9 26.05 28.7 26.15 28.65 25.8 28.35 25.15 27.85 Q24.3 27.35 23.35 28.05 L23.2 28.3 Q22.6 28.8 22.6 29.3 L22.6 29.55 22.6 29.6 22.45 29.6 22.4 29.15 23.0 28.3 23.1 28.2 Q23.8 27.5 24.35 27.5 L25.4 27.95 26.35 28.65 26.5 28.9 26.6 29.2 26.7 29.6 M25.3 29.6 L25.25 29.6 24.7 29.15 24.55 29.05 Q23.9 28.95 23.8 29.6 L23.75 29.6 23.85 29.3 Q24.05 28.95 24.35 28.9 L24.45 28.9 24.95 29.05 25.3 29.6 M20.4 29.6 L20.3 29.6 20.3 29.55 Q20.3 28.8 19.7 28.1 18.95 27.25 17.75 27.2 16.55 27.0 15.8 28.05 15.2 28.8 15.2 29.6 L15.1 29.6 Q15.1 28.7 15.8 27.85 16.55 27.0 17.4 27.0 18.95 27.0 19.8 28.1 20.4 28.9 20.4 29.55 L20.4 29.6 M19.85 29.6 L19.8 29.6 19.45 28.8 19.2 28.65 19.3 28.55 18.95 28.3 18.25 27.8 Q17.4 27.25 16.5 27.95 15.7 28.65 15.7 29.2 L15.7 29.5 15.7 29.6 15.6 29.6 15.55 29.05 16.15 28.2 Q16.9 27.45 17.5 27.45 L18.5 27.85 19.45 28.55 19.7 29.15 19.85 29.6 M18.45 29.6 L18.4 29.6 Q18.3 29.1 17.65 28.95 16.95 28.9 16.9 29.6 L16.85 29.6 17.0 29.2 Q17.15 28.8 17.6 28.8 18.15 28.8 18.45 29.6 M14.25 29.6 L14.15 29.6 14.2 29.2 Q14.2 28.45 13.6 27.8 13.0 27.1 12.15 26.95 L11.65 26.85 Q10.95 26.75 10.45 27.1 L9.7 27.7 Q9.1 28.45 9.1 29.3 L9.15 29.6 9.05 29.6 9.0 29.3 Q9.0 28.35 9.7 27.5 L10.2 27.1 Q10.7 26.65 11.3 26.65 L12.55 26.95 Q13.25 27.2 13.7 27.8 14.25 28.55 14.25 29.2 L14.25 29.6 M13.75 29.6 L13.7 29.6 13.7 29.55 Q13.7 28.95 13.35 28.45 L13.1 28.3 13.15 28.2 12.85 27.95 12.15 27.45 Q11.3 26.95 10.35 27.6 9.6 28.3 9.6 28.9 L9.6 29.15 9.6 29.45 9.6 29.5 9.65 29.6 9.55 29.6 9.45 28.7 10.0 27.85 Q10.8 27.1 11.4 27.1 L12.4 27.5 13.35 28.2 13.6 28.8 13.75 29.55 13.75 29.6 M12.4 29.6 L12.3 29.6 12.3 29.55 Q12.3 28.8 11.55 28.65 10.8 28.55 10.8 29.4 L10.85 29.6 10.7 29.6 10.7 29.4 10.85 28.9 Q11.05 28.45 11.45 28.45 12.15 28.45 12.4 29.55 L12.4 29.6 M7.75 29.6 L7.65 29.6 7.65 29.55 7.65 29.2 Q7.65 28.45 7.05 27.8 L6.65 27.35 Q5.95 26.95 5.1 26.85 3.9 26.65 3.15 27.7 L3.1 27.85 2.95 27.85 3.15 27.5 Q3.9 26.65 4.75 26.65 L5.6 26.75 Q6.55 27.0 7.15 27.8 7.75 28.55 7.75 29.2 L7.75 29.6 M7.2 29.6 L7.15 29.6 7.15 29.55 6.95 28.7 6.8 28.45 6.55 28.3 6.65 28.2 6.3 27.95 5.8 27.6 5.6 27.45 Q4.75 26.95 3.8 27.6 L3.6 27.85 3.5 27.85 Q4.25 27.1 4.85 27.1 L5.85 27.5 5.95 27.6 6.8 28.2 7.05 28.7 7.05 28.8 7.2 29.55 7.2 29.6 M5.85 29.6 L5.8 29.6 5.8 29.55 5.7 29.2 Q5.5 28.7 5.0 28.65 L4.75 28.65 4.75 28.5 4.95 28.45 Q5.45 28.45 5.8 29.15 L5.85 29.55 5.85 29.6 M23.2 11.9 L22.95 13.25 23.0 13.25 22.85 13.6 22.85 13.7 23.2 13.75 Q23.55 13.75 23.55 13.35 L23.45 12.0 23.45 11.9 23.45 11.75 23.35 11.2 23.2 11.9 M29.4 18.0 L29.3 18.0 28.1 18.25 27.85 18.25 27.6 18.35 25.5 19.05 25.3 19.05 25.3 18.95 27.25 18.35 27.75 18.25 27.95 18.2 29.2 17.95 29.4 18.0 M29.05 17.5 L28.9 17.6 28.35 17.85 Q26.6 17.85 26.6 17.35 26.6 16.9 27.2 16.9 L28.05 16.8 28.95 17.0 29.05 17.0 29.05 17.1 29.15 17.1 29.15 17.25 29.05 17.5 M26.65 17.35 L28.35 17.65 28.9 17.5 29.05 17.25 Q29.05 17.1 28.7 17.1 L27.2 17.0 Q26.65 17.0 26.65 17.35 M23.35 21.6 L23.45 21.4 23.25 21.4 23.2 21.4 22.95 21.4 22.5 21.4 22.6 21.5 22.7 21.65 23.0 21.6 23.35 21.6 M23.8 21.3 L23.6 21.4 23.55 21.65 23.6 21.65 24.05 21.65 24.05 21.6 23.85 21.4 23.8 21.3 M24.35 21.4 L23.95 21.4 24.1 21.6 24.1 21.65 24.7 21.9 24.8 22.1 24.8 22.25 25.05 22.25 25.05 22.0 25.75 21.85 25.8 21.85 25.75 21.65 25.9 21.6 26.15 21.4 24.9 21.3 24.35 21.4 M21.55 21.25 L19.85 21.15 19.85 21.25 20.05 21.4 20.05 21.5 20.65 21.75 20.7 21.9 20.7 22.0 20.7 22.15 21.05 22.15 21.05 21.9 21.75 21.75 21.85 21.75 21.75 21.6 21.9 21.5 22.1 21.4 21.55 21.25 M21.85 21.65 L22.6 21.65 22.5 21.5 22.15 21.4 22.0 21.6 21.85 21.65 M26.6 21.75 L26.5 21.6 26.15 21.5 26.0 21.65 25.8 21.75 26.6 21.75 M26.65 21.75 L27.0 21.65 27.35 21.65 27.45 21.5 27.25 21.5 26.35 21.4 26.6 21.6 26.65 21.75 M27.6 21.75 L28.05 21.75 28.05 21.65 27.95 21.6 27.75 21.4 Q27.6 21.4 27.6 21.5 L27.5 21.75 27.6 21.75 M22.4 22.95 L22.1 23.0 22.25 23.55 22.25 23.6 22.5 23.45 22.5 23.2 22.4 22.95 M23.8 23.7 L23.85 23.6 23.85 23.55 23.95 23.3 23.85 23.0 23.6 22.95 23.6 23.1 23.55 23.1 23.55 23.35 23.6 23.55 23.8 23.7 M21.05 23.55 L21.25 23.3 21.3 23.1 21.3 23.0 21.4 22.95 21.25 22.75 20.9 23.2 20.8 23.55 20.8 23.95 Q20.9 24.7 21.4 25.15 21.85 25.5 22.6 25.5 23.45 25.4 23.85 24.8 L24.1 24.05 24.05 23.55 24.05 23.35 23.95 23.55 23.85 23.7 23.85 23.95 23.6 24.7 Q23.25 25.25 22.5 25.25 21.75 25.3 21.3 24.65 L21.05 23.95 21.05 23.55 M22.15 23.6 L22.15 23.55 22.0 23.7 21.9 24.05 22.1 24.2 Q22.25 24.4 22.5 24.4 L22.95 24.05 22.85 23.7 22.6 23.6 22.25 23.6 22.15 23.6 M29.15 22.7 L28.7 22.6 28.7 22.7 28.6 22.85 29.2 22.95 29.15 22.75 29.15 22.7 M28.55 23.55 L28.35 23.7 28.35 23.8 28.3 23.95 28.45 24.2 28.8 24.3 29.15 23.95 29.05 23.7 Q28.9 23.55 28.55 23.55 M29.15 23.7 L29.2 23.95 29.15 24.2 Q29.05 24.4 28.8 24.4 28.55 24.4 28.35 24.2 L28.2 23.95 28.3 23.7 28.7 23.45 Q29.05 23.45 29.15 23.7 M9.6 14.2 L8.85 15.45 7.9 16.5 7.3 17.15 7.15 17.35 6.9 17.6 5.95 18.5 6.2 18.6 7.05 17.65 8.5 16.15 9.6 14.85 10.35 13.85 9.95 14.0 9.7 14.2 9.6 14.2 M6.3 15.55 L5.1 15.55 5.1 17.25 5.2 17.25 5.5 17.35 5.85 16.9 Q6.35 16.25 6.35 15.8 L6.3 15.65 6.3 15.55 M6.8 18.1 L6.2 18.7 6.35 18.85 6.45 18.85 6.65 18.8 6.55 18.8 6.55 18.7 8.25 17.0 10.8 13.75 10.45 13.75 Q10.1 14.6 8.6 16.25 L7.55 17.5 6.8 18.1 M3.55 21.05 L3.65 21.05 4.1 21.05 4.1 21.0 4.0 20.9 3.8 20.75 3.65 20.8 3.65 20.9 3.55 21.05 M4.15 21.05 L4.75 21.3 4.85 21.5 4.85 21.6 5.1 21.6 5.1 21.5 5.8 21.3 5.85 21.3 5.8 21.15 5.95 21.05 5.45 21.0 4.35 20.8 4.1 20.9 4.15 21.0 4.15 21.05 M7.8 23.3 L8.0 22.85 8.0 22.75 7.9 22.6 7.65 22.5 7.55 22.7 7.65 23.1 7.8 23.3 M10.35 23.3 L10.6 23.1 10.6 22.85 10.55 22.6 10.35 22.7 10.2 22.7 10.35 23.3 M6.65 21.25 L6.55 21.05 6.2 21.0 6.1 21.05 6.05 21.15 5.85 21.25 6.65 21.25 M6.7 21.25 L7.05 21.15 7.4 21.15 7.4 21.05 6.65 21.05 6.7 21.25 M7.65 21.25 L8.05 21.25 8.05 21.15 8.0 21.05 7.8 20.9 Q7.65 20.9 7.65 21.0 L7.65 21.05 7.55 21.25 7.65 21.25 M10.7 21.3 L10.6 21.15 10.3 21.05 10.1 21.25 9.95 21.3 10.7 21.3 M10.8 21.3 L11.15 21.25 11.45 21.25 11.55 21.05 10.6 21.05 10.7 21.15 10.8 21.3 M11.7 21.3 L12.15 21.3 12.15 21.25 12.05 21.15 11.9 21.0 11.7 21.05 11.7 21.15 11.65 21.3 11.7 21.3 M15.7 21.5 L16.15 21.5 16.15 21.4 16.05 21.3 15.9 21.15 Q15.7 21.15 15.7 21.25 L15.65 21.5 15.7 21.5 M16.2 21.5 L16.8 21.75 16.9 21.9 16.9 22.0 17.0 22.0 17.0 21.75 17.65 21.6 17.75 21.6 17.65 21.4 17.85 21.3 18.0 21.25 16.05 21.15 16.05 21.25 16.2 21.4 16.2 21.5 M15.2 22.75 L14.85 22.75 14.7 22.75 14.8 23.0 14.8 23.3 14.85 23.1 15.2 22.75 M14.45 23.45 L14.5 23.35 14.6 23.3 14.6 23.0 14.5 22.95 14.5 22.75 14.2 22.85 14.35 23.35 14.35 23.45 14.45 23.45 14.45 23.8 Q14.5 24.55 15.05 25.0 L16.2 25.3 Q17.05 25.25 17.5 24.7 L17.75 23.85 17.65 23.45 17.4 22.85 17.4 23.0 17.35 22.95 17.25 22.95 17.25 22.85 17.35 22.75 16.8 22.45 16.75 22.6 16.75 22.7 Q17.25 22.85 17.4 23.45 L17.5 23.85 17.25 24.55 Q16.9 25.05 16.15 25.05 15.35 25.15 14.95 24.55 L14.7 23.8 14.7 23.35 14.45 23.45 M18.2 23.45 L18.45 23.3 18.45 23.0 18.35 22.75 18.0 22.85 18.2 23.45 M3.9 22.45 L3.65 22.35 3.55 22.5 3.65 22.95 3.8 23.1 4.0 22.7 3.9 22.45 M8.15 21.25 Q8.65 21.3 8.75 21.5 L8.85 21.65 8.85 21.85 9.15 21.85 9.15 21.6 9.85 21.4 9.95 21.4 9.95 21.5 9.85 21.4 9.25 21.65 9.25 21.9 9.35 22.15 9.45 22.35 9.5 22.5 9.5 22.6 10.0 22.6 10.1 22.7 9.6 22.7 9.6 22.85 9.5 22.75 9.45 22.75 9.45 22.7 9.5 22.6 9.45 22.5 9.25 22.5 9.1 22.45 Q8.9 22.45 8.75 22.7 L8.65 22.75 8.6 22.75 8.5 22.7 8.5 22.5 8.6 22.35 8.6 22.15 8.65 21.9 8.65 21.75 8.65 21.5 Q8.5 21.3 8.15 21.25 M9.15 21.9 L8.85 21.9 8.85 22.1 9.15 22.0 9.15 21.9 M9.0 22.1 L8.75 22.15 8.65 22.35 8.75 22.6 Q8.9 22.35 9.35 22.35 L9.25 22.15 9.15 22.15 9.0 22.1 M8.0 22.5 L8.0 22.45 8.05 22.35 8.05 22.45 8.0 22.5 M10.0 23.35 L9.85 23.3 9.35 23.2 9.25 23.3 9.15 23.35 9.1 23.6 9.15 23.85 Q9.35 24.05 9.7 24.05 10.1 24.05 10.1 23.7 L10.0 23.35 M10.0 23.3 L10.2 23.7 10.0 24.05 9.7 24.2 9.1 23.95 9.0 23.6 9.1 23.3 Q9.25 23.1 9.6 23.1 9.95 23.1 10.0 23.3 M19.6 12.85 Q19.3 12.5 18.85 12.5 18.45 12.5 18.25 12.75 18.1 12.9 18.1 13.15 L18.35 13.75 19.2 14.2 Q19.8 14.2 19.8 13.35 L19.6 12.85 M19.8 13.85 L19.2 14.3 Q18.6 14.3 18.25 13.75 L18.0 13.15 Q18.0 12.4 18.95 12.4 19.85 12.5 19.85 13.35 L19.8 13.85 M18.1 15.8 L18.2 15.3 18.2 15.2 18.1 15.2 17.0 15.05 Q16.3 15.05 16.05 15.4 L15.95 15.45 15.95 15.9 15.95 15.95 15.95 16.3 16.05 16.15 16.3 16.05 16.4 15.95 17.0 15.95 17.6 15.95 18.0 16.05 18.0 15.95 18.1 15.95 18.2 15.9 18.1 15.8 M18.25 14.8 L18.25 15.95 18.2 16.05 18.1 16.15 18.1 16.25 18.2 16.3 18.35 16.3 18.6 16.15 18.5 15.9 18.35 15.45 18.25 14.8 M12.85 13.0 L13.15 12.85 12.85 12.85 12.85 13.0 M12.55 13.0 L12.75 12.85 12.15 12.05 11.8 12.4 11.55 12.85 11.55 12.9 11.8 13.0 12.15 13.1 12.55 13.0 M14.2 19.8 L14.2 19.7 14.25 19.7 14.25 19.8 14.2 19.8 M14.1 19.55 L14.0 19.8 14.0 20.4 17.6 20.5 17.65 19.65 15.8 19.7 14.35 19.55 14.1 19.55 M14.8 19.9 L14.8 19.8 14.85 19.8 14.85 19.9 14.8 19.9 M14.1 20.15 L14.2 20.05 14.2 20.15 14.1 20.15 M12.25 21.3 Q12.75 21.4 12.85 21.6 L12.9 21.75 12.9 21.9 13.15 21.9 13.15 21.75 13.85 21.6 13.95 21.6 13.85 21.4 14.0 21.3 Q14.2 21.15 14.35 21.15 L14.7 21.3 14.8 21.5 14.8 21.6 14.7 21.5 14.0 21.6 13.95 21.6 13.95 21.65 13.85 21.6 13.25 21.85 13.25 22.0 13.5 22.75 14.0 22.75 14.1 22.85 13.6 22.85 13.6 23.0 13.5 22.95 13.4 22.95 13.4 22.85 13.5 22.75 13.25 22.35 13.15 22.0 12.9 22.0 12.85 22.25 12.75 22.45 12.65 22.85 12.55 22.75 12.55 22.6 12.75 22.0 12.75 21.9 12.75 21.75 12.75 21.6 12.25 21.3 M13.95 21.5 L14.7 21.5 14.6 21.3 14.25 21.25 14.1 21.4 13.95 21.5 M11.65 22.75 L11.7 23.2 11.9 23.35 12.05 22.95 12.0 22.7 11.7 22.6 11.65 22.75 M12.05 22.6 L12.05 22.5 12.15 22.45 12.15 22.5 12.05 22.6 M17.75 21.5 L18.5 21.5 18.45 21.3 18.1 21.25 17.9 21.4 17.75 21.5 M18.95 21.4 L19.3 21.4 19.35 21.25 19.0 21.25 18.45 21.25 18.5 21.3 18.6 21.5 18.95 21.4 M19.55 21.5 L19.95 21.5 19.95 21.4 19.85 21.3 19.7 21.15 Q19.55 21.15 19.55 21.25 L19.45 21.5 19.55 21.5 M17.05 19.7 L17.05 19.9 17.0 19.8 17.05 19.7 M16.55 19.9 L16.5 19.8 16.55 19.8 16.55 19.9 M17.4 19.9 L17.5 19.8 17.5 19.9 17.4 19.9 M15.9 19.8 L15.95 19.8 15.95 19.9 15.9 19.9 15.9 19.8 M15.45 19.9 L15.3 19.8 15.45 19.8 15.45 19.9 M17.4 20.15 L17.5 20.05 17.5 20.15 17.4 20.15 M16.9 22.15 L16.9 22.25 17.05 22.35 17.0 22.15 16.9 22.15 M15.65 22.95 L15.7 23.35 15.9 23.55 15.95 23.35 15.95 23.3 16.05 23.1 15.95 22.85 15.7 22.75 15.65 22.95 M16.05 22.75 L16.05 22.7 16.15 22.6 16.15 22.7 16.05 22.75 M15.95 23.55 Q15.9 23.6 15.7 23.45 L15.65 23.55 15.55 23.85 15.7 24.15 16.15 24.2 16.55 23.85 16.5 23.55 16.2 23.45 16.05 23.35 15.95 23.55 M19.45 22.95 L19.55 23.35 19.7 23.55 19.85 23.1 19.8 22.85 19.55 22.75 19.45 22.95" fill="#000000" fill-rule="evenodd" stroke="none"/>
    <path d="M23.2 11.9 L23.35 11.2 23.45 11.75 23.45 11.9 23.45 12.0 23.55 13.35 Q23.55 13.75 23.2 13.75 L22.85 13.7 22.85 13.6 23.0 13.25 22.95 13.25 23.2 11.9 M19.6 12.85 L19.8 13.35 Q19.8 14.2 19.2 14.2 L18.35 13.75 18.1 13.15 Q18.1 12.9 18.25 12.75 18.45 12.5 18.85 12.5 19.3 12.5 19.6 12.85 M19.35 13.1 L19.3 12.85 19.3 12.75 18.95 12.65 Q18.45 12.65 18.45 13.0 L18.5 13.15 Q18.5 13.35 18.85 13.35 L19.1 13.25 19.35 13.1" fill="#bcb4a0" fill-rule="evenodd" stroke="none"/>
    <path d="M20.65 11.65 L21.0 13.0 20.9 13.25 20.8 13.6 20.9 13.85 21.05 14.1 21.3 14.3 21.5 14.3 21.5 14.35 21.55 14.35 21.85 14.35 22.35 14.35 23.35 14.45 23.6 14.55 24.1 14.3 24.3 13.75 24.2 13.25 24.2 13.15 24.45 13.15 24.55 13.15 25.65 14.6 25.2 15.2 24.95 15.45 24.3 15.45 20.7 15.55 20.65 15.45 Q20.4 15.05 19.7 15.05 L18.45 15.15 18.35 14.45 18.25 14.45 18.2 15.15 17.65 15.05 17.0 14.85 Q16.2 14.85 15.95 15.4 L15.2 15.45 14.6 15.4 14.85 15.2 14.95 14.95 Q14.95 14.6 14.25 14.55 13.6 14.45 13.6 14.1 13.6 13.85 14.25 13.5 L14.7 13.15 14.85 13.15 14.85 13.1 14.8 12.9 14.7 12.6 14.7 12.65 14.6 12.6 16.05 12.05 15.9 12.4 15.8 12.9 15.9 13.0 15.9 13.1 15.9 13.35 Q15.95 13.6 16.3 13.6 L17.15 13.0 17.65 12.4 19.1 12.0 Q19.45 12.0 19.45 11.55 L19.35 11.4 20.15 11.45 20.65 11.65 M29.8 12.65 L29.8 13.5 28.9 13.6 27.95 13.5 27.35 13.35 26.75 13.0 26.35 12.75 26.9 12.75 27.6 12.65 28.7 12.6 29.8 12.65 M6.8 18.1 L7.55 17.5 8.6 16.25 Q10.1 14.6 10.45 13.75 L10.8 13.75 8.25 17.0 6.55 18.7 6.55 18.8 6.65 18.8 6.45 18.85 6.35 18.85 6.2 18.7 6.8 18.1 M19.8 13.85 L19.85 13.35 Q19.85 12.5 18.95 12.4 18.0 12.4 18.0 13.15 L18.25 13.75 Q18.6 14.3 19.2 14.3 L19.8 13.85" fill="#aba085" fill-rule="evenodd" stroke="none"/>
    <path d="M29.8 18.0 L29.8 18.2 29.7 18.2 29.55 18.25 Q28.45 18.6 27.5 19.05 L27.45 19.1 27.35 19.1 27.2 19.2 24.55 19.2 24.55 19.05 Q24.55 18.8 24.35 18.7 24.2 18.6 23.7 18.45 L23.45 18.35 23.0 18.1 22.75 17.75 Q22.1 17.35 21.85 18.0 L21.65 18.35 21.65 18.45 20.9 18.8 20.05 18.7 19.3 18.85 19.2 18.95 18.95 19.2 10.8 19.2 10.85 18.95 10.45 18.5 10.0 18.25 10.0 18.0 10.3 17.95 11.15 18.1 11.45 18.2 11.55 18.2 12.05 18.25 12.55 18.25 12.65 18.2 12.9 17.65 Q12.9 17.1 11.9 17.1 10.8 17.15 10.6 16.55 L10.45 15.9 10.2 15.15 10.1 15.2 10.0 15.2 10.0 15.15 10.85 13.75 10.85 13.7 11.3 13.1 11.55 13.0 11.65 13.1 12.15 13.15 12.25 13.25 11.9 14.0 Q11.4 14.2 11.05 14.55 L10.85 15.15 11.15 15.7 Q11.45 16.25 12.15 16.25 L13.0 15.95 13.25 15.45 13.15 15.3 13.75 15.4 14.6 15.45 14.6 15.65 14.7 16.05 14.8 16.15 Q14.35 17.1 14.35 17.75 14.35 18.1 14.5 18.25 L14.6 18.35 15.7 18.5 16.15 18.45 16.55 18.35 17.0 18.35 17.35 18.35 17.4 18.25 17.6 17.95 17.5 17.75 18.2 17.65 18.2 17.75 18.25 17.75 18.35 17.6 18.45 17.65 Q18.75 18.0 20.2 18.0 20.8 18.0 20.9 17.1 L21.0 16.9 20.9 16.8 20.9 16.75 20.7 16.3 20.65 16.3 20.7 16.25 20.8 16.25 20.8 16.05 20.8 15.95 20.7 15.65 22.4 15.65 23.1 16.25 23.0 16.75 23.2 17.1 24.2 17.4 25.15 16.9 25.8 16.15 26.9 15.65 27.2 14.85 26.9 14.1 Q26.5 13.75 25.65 14.3 L25.4 13.85 24.8 13.25 23.8 12.25 26.05 12.75 26.15 12.75 27.35 13.5 27.45 13.5 28.2 13.6 28.2 13.85 28.45 14.0 28.55 14.1 28.7 14.35 28.95 14.8 28.6 15.2 28.2 15.8 Q28.2 16.25 28.6 16.4 L29.05 16.75 28.95 17.0 28.05 16.8 27.2 16.9 Q26.6 16.9 26.6 17.35 26.6 17.85 28.35 17.85 L28.9 17.6 29.05 17.5 29.2 17.95 27.95 18.2 27.75 18.25 27.25 18.35 25.3 18.95 25.3 19.05 25.5 19.05 27.6 18.35 27.85 18.25 28.1 18.25 29.3 18.0 29.4 18.0 29.4 18.1 29.45 18.0 29.55 18.0 29.8 18.0 M2.9 17.4 L2.9 15.45 4.0 15.45 4.1 15.4 4.0 15.2 4.95 15.2 4.95 15.3 5.0 15.45 5.0 17.35 4.95 17.4 4.1 17.4 3.8 17.4 2.9 17.4 M2.9 15.25 L2.9 15.2 3.0 15.2 2.9 15.25" fill="#797953" fill-rule="evenodd" stroke="none"/>
    <path d="M29.8 13.7 L29.8 17.75 29.45 17.85 29.55 18.0 29.45 18.0 29.4 18.1 29.4 18.0 29.2 17.95 29.05 17.5 29.15 17.25 29.15 17.1 29.05 17.1 29.05 17.0 28.95 17.0 29.05 16.75 28.6 16.4 Q28.2 16.25 28.2 15.8 L28.6 15.2 28.95 14.8 28.7 14.35 28.55 14.1 28.45 14.0 28.2 13.85 28.2 13.6 29.05 13.7 29.8 13.7 M29.8 18.35 L29.8 20.8 28.95 20.8 27.6 20.75 25.15 20.65 22.75 20.65 22.1 20.55 19.35 20.5 19.35 20.55 17.75 20.5 17.75 19.8 17.75 19.65 17.35 19.55 15.35 19.55 14.85 19.55 14.45 19.45 14.1 19.55 13.85 19.65 13.95 20.4 12.3 20.4 11.9 20.5 11.9 20.4 10.0 20.4 9.75 20.05 9.5 19.8 9.45 19.7 9.45 19.8 7.5 19.65 5.5 19.55 5.35 19.55 5.45 19.35 6.05 19.35 6.35 19.2 6.35 19.05 6.55 19.1 6.7 19.35 27.45 19.3 27.5 19.2 27.6 19.2 27.6 19.1 27.7 19.1 Q28.2 18.85 29.45 18.45 L29.8 18.35 M13.15 15.3 L13.25 15.45 13.0 15.95 12.15 16.25 Q11.45 16.25 11.15 15.7 L10.85 15.15 11.05 14.55 Q11.4 14.2 11.9 14.0 L11.9 14.1 11.8 14.2 11.65 14.95 11.65 15.2 11.7 15.2 11.7 15.15 13.0 15.3 13.1 15.2 13.15 15.3 M18.95 19.2 L19.2 18.95 19.3 18.85 20.05 18.7 20.9 18.8 21.65 18.45 21.65 18.35 21.85 18.0 Q22.1 17.35 22.75 17.75 L23.0 18.1 23.45 18.35 23.7 18.45 Q24.2 18.6 24.35 18.7 24.55 18.8 24.55 19.05 L24.55 19.2 24.55 19.3 24.35 19.3 24.35 19.2 19.2 19.2 19.1 19.3 19.0 19.3 18.95 19.2" fill="#aaab83" fill-rule="evenodd" stroke="none"/>
    <path d="M25.65 14.3 Q26.5 13.75 26.9 14.1 L27.2 14.85 26.9 15.65 25.8 16.15 25.15 16.9 24.2 17.4 23.2 17.1 23.0 16.75 23.1 16.25 22.4 15.65 22.4 15.55 22.5 15.55 22.85 15.65 22.95 15.65 23.2 15.55 24.2 15.55 24.9 15.55 24.8 15.65 24.95 15.55 Q25.75 15.05 25.75 14.6 L25.65 14.35 25.65 14.3 M17.5 17.75 L17.6 17.95 17.4 18.25 17.35 18.35 17.0 18.35 16.55 18.35 16.15 18.45 15.7 18.5 14.6 18.35 14.5 18.25 Q14.35 18.1 14.35 17.75 14.35 17.1 14.8 16.15 L14.7 16.05 14.6 15.65 14.6 15.45 14.8 15.55 15.2 15.55 15.55 15.55 15.9 15.55 15.8 16.3 15.9 16.4 15.8 16.55 15.7 16.55 15.7 16.8 15.7 16.9 15.7 17.0 15.8 17.4 Q15.95 17.75 16.9 17.75 L17.4 17.75 17.4 17.65 17.5 17.75 M10.0 15.2 L10.1 15.2 10.2 15.15 10.45 15.9 10.6 16.55 Q10.8 17.15 11.9 17.1 12.9 17.1 12.9 17.65 L12.65 18.2 12.55 18.25 12.05 18.25 11.55 18.2 11.45 18.2 11.15 18.1 10.3 17.95 10.0 18.0 10.0 18.25 10.45 18.5 10.85 18.95 10.8 19.2 10.7 19.3 10.55 19.2 6.8 19.2 6.7 19.1 6.65 19.05 6.55 18.95 6.7 18.8 6.8 18.6 9.0 16.4 10.0 15.3 10.0 15.2 M26.65 17.35 Q26.65 17.0 27.2 17.0 L28.7 17.1 Q29.05 17.1 29.05 17.25 L28.9 17.5 28.35 17.65 26.65 17.35 M6.3 15.55 L6.3 15.65 6.35 15.8 Q6.35 16.25 5.85 16.9 L5.5 17.35 5.2 17.25 5.1 17.25 5.1 15.55 6.3 15.55 M12.55 13.0 L12.15 13.1 11.8 13.0 11.55 12.9 11.55 12.85 11.8 12.4 12.15 12.05 12.75 12.85 12.55 13.0" fill="#453a2e" fill-rule="evenodd" stroke="none"/>
    <path d="M20.8 16.05 L20.8 16.25 20.7 16.25 20.65 16.25 19.85 16.15 19.8 16.15 18.75 16.15 18.7 15.95 18.6 15.95 18.6 15.8 19.1 15.8 20.3 15.9 20.7 15.95 20.8 16.05 M20.9 16.8 L21.0 16.9 20.9 17.1 20.8 17.15 20.7 17.4 Q20.55 17.95 20.2 17.95 L18.5 17.65 18.35 17.4 18.35 17.25 18.35 17.1 18.35 17.0 18.25 17.0 18.25 16.75 18.35 16.75 18.75 17.1 19.6 17.25 20.55 17.1 20.8 16.8 20.8 16.75 20.9 16.8 M15.95 15.9 Q15.95 15.65 16.9 15.45 17.85 15.3 18.1 15.8 L18.2 15.9 18.1 15.95 18.0 15.95 18.0 16.05 17.6 15.95 17.0 15.95 16.4 15.95 16.3 16.05 16.05 16.15 15.95 16.3 15.95 15.95 15.95 15.9 M15.8 16.55 L15.9 16.65 15.95 16.65 17.0 16.8 18.0 16.75 18.2 16.55 18.25 16.75 18.2 16.8 18.2 17.5 17.0 17.65 15.9 17.4 15.8 17.0 15.8 16.9 15.7 16.9 15.7 16.8 15.7 16.55 15.8 16.55" fill="#2b3233" fill-rule="evenodd" stroke="none"/>
    <path d="M7.2 14.45 L7.3 14.35 7.55 14.2 7.75 14.0 Q8.25 13.6 8.65 13.6 L9.25 13.75 9.5 14.0 9.5 14.1 Q9.5 14.6 7.8 16.4 L7.65 16.55 7.65 16.65 6.95 17.35 6.9 17.4 6.45 17.85 5.8 18.5 5.7 18.5 5.35 18.6 5.35 18.25 5.45 17.6 5.6 17.4 5.7 17.35 6.2 16.65 6.45 15.7 6.45 15.55 6.55 15.45 Q6.7 15.05 7.2 14.45 M20.7 15.95 L20.3 15.9 19.1 15.8 18.6 15.8 18.45 15.4 18.45 15.3 19.7 15.15 Q20.2 15.15 20.55 15.45 L20.55 15.65 20.65 15.65 20.7 15.95 M19.85 16.15 L20.65 16.25 20.55 16.3 19.85 16.15 M20.8 16.75 L20.8 16.8 20.55 17.1 19.6 17.25 18.75 17.1 18.35 16.75 18.45 16.4 Q18.7 16.4 18.75 16.25 L20.55 16.4 20.8 16.75 M9.6 14.2 L9.7 14.2 9.95 14.0 10.35 13.85 9.6 14.85 8.5 16.15 7.05 17.65 6.2 18.6 5.95 18.5 6.9 17.6 7.15 17.35 7.3 17.15 7.9 16.5 8.85 15.45 9.6 14.2 M15.95 15.9 L15.95 15.45 16.05 15.4 Q16.3 15.05 17.0 15.05 L18.1 15.2 18.2 15.2 18.2 15.3 18.1 15.8 Q17.85 15.3 16.9 15.45 15.95 15.65 15.95 15.9 M15.9 16.65 L15.9 16.55 16.05 16.3 16.15 16.25 16.15 16.15 16.9 16.05 18.0 16.15 18.0 16.3 18.2 16.4 18.2 16.55 18.0 16.75 17.0 16.8 15.95 16.65 15.9 16.65" fill="#4e5a5c" fill-rule="evenodd" stroke="none"/>
    <path d="M29.8 21.6 L29.8 21.85 29.7 21.85 29.8 22.0 29.7 22.0 29.05 22.15 29.05 22.45 28.8 22.45 28.8 22.25 28.8 22.15 28.7 22.0 Q28.6 21.85 28.1 21.75 L28.1 21.65 28.05 21.6 29.8 21.6 M2.9 21.0 L2.9 20.85 3.0 20.9 3.4 20.9 3.4 21.0 3.05 21.0 2.9 21.0 M23.35 21.6 L23.0 21.6 22.7 21.65 22.6 21.5 22.5 21.4 22.95 21.4 23.2 21.4 23.25 21.4 23.45 21.4 23.35 21.6 M21.55 21.25 L22.1 21.4 21.9 21.5 21.75 21.6 21.85 21.75 21.75 21.75 21.05 21.9 21.05 22.15 20.7 22.15 20.7 22.0 20.7 21.9 20.65 21.75 20.05 21.5 20.05 21.4 19.85 21.25 19.85 21.15 21.55 21.25 M24.35 21.4 L24.9 21.3 26.15 21.4 25.9 21.6 25.75 21.65 25.8 21.85 25.75 21.85 25.05 22.0 25.05 22.25 24.8 22.25 24.8 22.1 24.7 21.9 24.1 21.65 24.1 21.6 23.95 21.4 24.35 21.4 M26.65 21.75 L26.6 21.6 26.35 21.4 27.25 21.5 27.45 21.5 27.35 21.65 27.0 21.65 26.65 21.75 M4.15 21.05 L4.15 21.0 4.1 20.9 4.35 20.8 5.45 21.0 5.95 21.05 5.8 21.15 5.85 21.3 5.8 21.3 5.1 21.5 5.1 21.6 4.85 21.6 4.85 21.5 4.75 21.3 4.15 21.05 M6.7 21.25 L6.65 21.05 7.4 21.05 7.4 21.15 7.05 21.15 6.7 21.25 M8.15 21.25 L8.15 21.15 8.05 21.05 8.9 21.0 9.45 21.05 10.1 21.05 10.0 21.15 9.85 21.25 9.95 21.4 9.85 21.4 9.15 21.6 9.15 21.85 8.85 21.85 8.85 21.65 8.75 21.5 Q8.65 21.3 8.15 21.25 M10.8 21.3 L10.7 21.15 10.6 21.05 11.55 21.05 11.45 21.25 11.15 21.25 10.8 21.3 M12.25 21.3 L12.25 21.15 14.35 21.15 15.55 21.15 15.45 21.4 15.1 21.4 14.8 21.5 14.7 21.3 14.35 21.15 Q14.2 21.15 14.0 21.3 L13.85 21.4 13.95 21.6 13.85 21.6 13.15 21.75 13.15 21.9 12.9 21.9 12.9 21.75 12.85 21.6 Q12.75 21.4 12.25 21.3 M16.2 21.5 L16.2 21.4 16.05 21.25 16.05 21.15 18.0 21.25 17.85 21.3 17.65 21.4 17.75 21.6 17.65 21.6 17.0 21.75 17.0 22.0 16.9 22.0 16.9 21.9 16.8 21.75 16.2 21.5 M18.95 21.4 L18.6 21.5 18.5 21.3 18.45 21.25 19.0 21.25 19.35 21.25 19.3 21.4 18.95 21.4" fill="#2e2d1f" fill-rule="evenodd" stroke="none"/>
    <path d="M23.8 21.3 L23.85 21.4 24.05 21.6 24.05 21.65 23.6 21.65 23.55 21.65 23.6 21.4 23.8 21.3 M21.85 21.65 L22.0 21.6 22.15 21.4 22.5 21.5 22.6 21.65 21.85 21.65 M26.6 21.75 L25.8 21.75 26.0 21.65 26.15 21.5 26.5 21.6 26.6 21.75 M27.6 21.75 L27.5 21.75 27.6 21.5 Q27.6 21.4 27.75 21.4 L27.95 21.6 28.05 21.65 28.05 21.75 27.6 21.75 M22.4 22.95 L22.5 23.2 22.5 23.45 22.25 23.6 22.25 23.55 22.1 23.0 22.4 22.95 M23.8 23.7 L23.6 23.55 23.55 23.35 23.55 23.1 23.6 23.1 23.6 22.95 23.85 23.0 23.95 23.3 23.85 23.55 23.85 23.6 23.8 23.7 M27.7 23.7 L27.6 23.6 27.5 23.2 27.6 23.0 27.85 23.1 27.95 23.2 27.95 23.35 27.85 23.7 27.75 23.8 27.7 23.75 27.7 23.7 M26.25 23.7 L26.05 23.1 26.4 23.0 26.5 23.3 26.5 23.55 26.35 23.7 26.25 23.7 M3.55 21.05 L3.65 20.9 3.65 20.8 3.8 20.75 4.0 20.9 4.1 21.0 4.1 21.05 3.65 21.05 3.55 21.05 M6.3 23.2 L6.1 22.6 6.45 22.5 6.55 22.75 6.55 23.0 6.35 23.2 6.3 23.2 M7.8 23.3 L7.65 23.1 7.55 22.7 7.65 22.5 7.9 22.6 8.0 22.75 8.0 22.85 7.8 23.3 M10.35 23.3 L10.2 22.7 10.35 22.7 10.55 22.6 10.6 22.85 10.6 23.1 10.35 23.3 M6.65 21.25 L5.85 21.25 6.05 21.15 6.1 21.05 6.2 21.0 6.55 21.05 6.65 21.25 M7.65 21.25 L7.55 21.25 7.65 21.05 7.65 21.0 Q7.65 20.9 7.8 20.9 L8.0 21.05 8.05 21.15 8.05 21.25 7.65 21.25 M10.7 21.3 L9.95 21.3 10.1 21.25 10.3 21.05 10.6 21.15 10.7 21.3 M11.7 21.3 L11.65 21.3 11.7 21.15 11.7 21.05 11.9 21.0 12.05 21.15 12.15 21.25 12.15 21.3 11.7 21.3 M15.7 21.5 L15.65 21.5 15.7 21.25 Q15.7 21.15 15.9 21.15 L16.05 21.3 16.15 21.4 16.15 21.5 15.7 21.5 M14.35 23.45 L14.35 23.35 14.2 22.85 14.5 22.75 14.5 22.95 14.6 23.0 14.6 23.3 14.5 23.35 14.45 23.45 14.35 23.45 M18.2 23.45 L18.0 22.85 18.35 22.75 18.45 23.0 18.45 23.3 18.2 23.45 M3.9 22.45 L4.0 22.7 3.8 23.1 3.65 22.95 3.55 22.5 3.65 22.35 3.9 22.45 M13.95 21.5 L14.1 21.4 14.25 21.25 14.6 21.3 14.7 21.5 13.95 21.5 M11.65 22.75 L11.7 22.6 12.0 22.7 12.05 22.95 11.9 23.35 11.7 23.2 11.65 22.75 M17.75 21.5 L17.9 21.4 18.1 21.25 18.45 21.3 18.5 21.5 17.75 21.5 M19.55 21.5 L19.45 21.5 19.55 21.25 Q19.55 21.15 19.7 21.15 L19.85 21.3 19.95 21.4 19.95 21.5 19.55 21.5 M15.65 22.95 L15.7 22.75 15.95 22.85 16.05 23.1 15.95 23.3 15.95 23.35 15.9 23.55 15.7 23.35 15.65 22.95 M19.45 22.95 L19.55 22.75 19.8 22.85 19.85 23.1 19.7 23.55 19.55 23.35 19.45 22.95" fill="#42322d" fill-rule="evenodd" stroke="none"/>
    <path d="M29.8 22.1 L29.8 22.25 29.45 22.45 29.4 22.45 29.4 22.7 29.45 22.75 29.55 22.7 29.65 22.6 29.55 22.5 29.8 22.45 29.8 23.3 29.65 23.3 29.4 23.2 29.3 23.0 29.3 22.95 29.2 22.7 29.15 22.5 29.15 22.25 29.7 22.0 29.8 22.1 M2.9 22.2 L2.9 22.0 3.5 22.0 3.75 22.0 4.15 22.15 4.25 22.25 4.4 22.15 4.4 22.1 4.25 22.0 4.25 21.9 Q4.15 21.65 3.8 21.75 L3.4 21.75 3.15 21.85 2.9 21.9 2.9 21.4 3.15 21.4 3.5 21.4 4.0 21.5 4.35 21.6 4.4 21.65 4.5 21.9 4.6 21.65 4.6 21.6 4.5 21.5 4.0 21.4 4.1 21.3 2.9 21.25 2.9 21.1 3.4 21.15 3.5 21.05 3.65 21.05 4.1 21.15 4.15 21.25 4.15 21.05 4.65 21.3 4.65 21.65 4.5 22.35 4.5 22.5 4.0 22.35 4.1 22.25 4.1 22.15 4.0 22.25 4.0 22.35 2.9 22.2 M21.55 23.0 L21.5 22.95 21.4 22.95 21.3 22.7 21.3 22.6 21.25 22.35 21.15 22.15 21.15 22.0 21.75 21.75 21.85 21.85 21.85 21.75 21.9 21.75 22.6 21.65 22.7 21.75 22.7 21.65 22.75 21.65 23.35 21.75 23.45 21.65 23.6 21.65 24.05 21.75 24.1 21.85 24.1 21.65 24.65 21.9 24.65 22.1 24.65 22.25 24.65 22.35 24.45 22.95 24.45 23.1 24.35 23.05 23.95 22.95 24.05 22.85 24.05 22.75 23.95 22.85 23.95 22.95 23.55 22.85 23.1 22.75 Q23.0 22.75 22.95 22.85 L22.7 22.85 22.5 22.85 22.1 22.95 22.0 22.95 22.0 23.0 21.9 22.95 21.6 23.0 21.55 23.0 M25.4 23.0 L25.15 22.35 25.15 22.1 Q25.3 22.0 25.75 21.85 L25.8 21.9 25.8 21.85 25.9 21.85 26.6 21.75 26.65 21.85 26.65 21.75 26.75 21.75 27.35 21.85 27.45 21.75 27.6 21.75 28.05 21.85 28.1 21.9 28.1 21.75 28.6 22.0 28.6 22.15 28.6 22.45 28.55 22.7 28.55 22.85 28.45 23.0 28.45 23.2 28.05 23.1 27.95 23.0 28.05 22.95 28.05 22.85 27.95 22.95 27.95 23.0 27.7 22.95 27.5 22.95 26.65 22.95 26.5 22.95 26.05 23.0 26.0 23.0 26.0 23.1 25.9 23.0 25.4 23.0 M21.75 22.15 L22.0 22.1 22.4 21.9 22.95 22.0 23.1 22.0 23.45 22.0 23.95 22.1 24.3 22.15 24.35 22.25 24.45 22.35 24.45 22.5 24.55 22.35 24.55 22.25 24.45 22.1 23.95 22.0 24.05 21.9 22.75 21.85 22.0 21.85 22.0 21.9 22.15 21.9 21.9 22.0 21.4 22.15 21.4 22.45 21.5 22.5 21.65 22.35 21.55 22.25 21.75 22.15 M22.75 22.5 L22.35 22.6 22.35 22.7 22.4 22.7 23.1 22.6 23.45 22.6 23.6 22.6 23.7 22.6 24.1 22.75 24.2 22.85 24.35 22.75 24.35 22.7 24.2 22.6 24.2 22.5 Q24.1 22.25 23.8 22.35 L23.35 22.35 23.25 22.45 23.1 22.45 22.95 22.5 22.75 22.5 M20.35 22.95 L19.85 22.75 19.95 22.7 19.95 22.6 19.85 22.7 19.85 22.75 18.6 22.7 18.45 22.7 18.0 22.75 17.9 22.75 17.9 22.85 17.85 22.75 17.6 22.85 17.35 22.75 17.15 22.45 17.15 22.15 17.05 22.0 17.05 21.85 17.65 21.6 17.75 21.65 17.75 21.6 17.85 21.6 18.5 21.5 18.6 21.6 18.6 21.5 18.7 21.5 19.3 21.6 19.35 21.5 19.55 21.5 19.95 21.6 20.05 21.65 20.05 21.5 20.55 21.75 20.55 21.9 20.55 22.15 20.55 22.25 20.4 22.75 20.4 22.95 20.35 22.95 M20.3 22.6 L20.3 22.5 20.15 22.45 20.15 22.25 19.7 22.15 19.3 22.15 19.0 22.25 18.7 22.35 18.25 22.45 18.25 22.5 18.35 22.5 19.35 22.45 19.6 22.45 20.05 22.6 20.15 22.7 20.3 22.6 M20.4 22.15 L20.4 22.25 20.45 22.15 20.45 22.1 20.4 21.9 19.85 21.85 19.95 21.75 18.7 21.65 17.9 21.65 17.9 21.75 18.1 21.75 17.85 21.85 17.35 22.0 17.35 22.25 17.4 22.35 17.6 22.15 17.5 22.15 17.5 22.1 17.6 22.0 17.9 21.9 18.35 21.75 19.0 21.85 19.35 21.85 19.85 21.9 20.3 22.1 20.4 22.15 M28.05 22.85 L28.1 22.85 28.2 22.95 28.35 22.95 28.35 22.75 28.2 22.7 28.2 22.5 28.1 22.45 27.75 22.45 27.5 22.45 27.35 22.45 27.1 22.5 26.75 22.6 26.35 22.7 26.35 22.75 26.4 22.75 27.45 22.7 27.7 22.7 27.75 22.75 27.85 22.75 28.05 22.85 M27.1 22.1 L27.45 22.1 27.95 22.15 28.35 22.35 28.45 22.45 28.45 22.6 28.55 22.45 28.55 22.35 28.45 22.15 27.95 22.1 28.05 22.0 26.75 21.9 26.0 21.9 26.0 22.0 26.15 22.0 25.9 22.1 25.4 22.25 25.4 22.5 25.5 22.6 25.65 22.45 25.55 22.35 25.65 22.25 26.0 22.15 26.4 22.0 27.1 22.1 M12.55 22.75 L12.05 22.6 11.05 22.5 10.8 22.5 10.6 22.5 10.45 22.6 10.1 22.6 10.1 22.7 10.0 22.6 9.5 22.6 9.5 22.5 9.45 22.35 9.35 22.15 9.25 21.9 9.25 21.65 9.85 21.4 9.95 21.5 9.95 21.4 10.0 21.4 10.7 21.3 10.8 21.4 10.8 21.3 10.85 21.3 11.45 21.4 11.55 21.3 11.7 21.3 12.15 21.4 12.25 21.5 12.25 21.3 12.75 21.6 12.75 21.75 12.75 21.9 12.75 22.0 12.55 22.6 12.55 22.75 M8.25 22.6 L8.15 22.6 8.0 22.5 6.7 22.45 6.55 22.45 6.1 22.5 6.05 22.5 6.05 22.6 5.95 22.5 5.45 22.5 5.2 21.65 5.2 21.6 5.8 21.3 5.85 21.4 5.85 21.3 5.95 21.3 6.65 21.25 6.7 21.3 6.7 21.25 6.8 21.25 7.4 21.3 7.5 21.25 7.65 21.25 8.05 21.3 8.15 21.4 8.15 21.25 Q8.5 21.3 8.65 21.5 L8.65 21.75 8.65 21.9 8.6 22.15 8.6 22.35 8.5 22.5 8.5 22.7 8.25 22.6 M14.8 21.5 L14.85 21.5 15.45 21.6 15.55 21.5 15.7 21.5 16.15 21.6 16.2 21.65 16.2 21.5 16.75 21.75 16.75 22.0 16.65 22.45 16.65 22.6 16.65 22.7 16.55 22.75 16.55 22.95 16.5 22.95 16.05 22.75 15.8 22.7 15.7 22.7 15.45 22.7 14.8 22.7 14.6 22.7 14.2 22.75 14.1 22.75 14.1 22.85 14.0 22.75 13.5 22.75 13.25 22.0 13.25 21.85 13.85 21.6 13.95 21.65 13.95 21.6 14.0 21.6 14.7 21.5 14.8 21.6 14.8 21.5 M8.0 21.6 L8.05 21.5 6.8 21.4 6.05 21.4 6.05 21.5 6.2 21.5 5.95 21.6 5.85 21.6 5.5 21.75 5.45 21.75 5.45 22.0 5.5 22.1 5.7 21.9 5.6 21.85 5.8 21.75 6.05 21.65 6.3 21.6 6.45 21.5 7.15 21.6 7.5 21.6 7.8 21.65 8.0 21.65 8.35 21.75 8.4 21.85 8.5 21.9 8.5 22.1 8.6 21.9 8.6 21.75 8.5 21.65 8.0 21.6 M7.4 21.9 L7.15 22.0 6.8 22.1 6.35 22.15 6.35 22.25 6.45 22.25 7.5 22.15 7.75 22.15 Q7.75 22.25 8.15 22.35 L8.25 22.45 8.4 22.35 8.4 22.25 8.25 22.15 8.25 22.1 Q8.15 21.85 7.8 21.9 L7.4 21.9 M10.1 21.5 L10.1 21.6 10.3 21.6 10.0 21.65 9.5 21.85 9.5 22.1 9.6 22.15 9.7 22.15 9.75 22.0 9.7 21.9 9.75 21.85 10.1 21.75 10.55 21.6 11.2 21.65 11.55 21.65 12.05 21.75 Q12.4 21.75 12.5 21.9 L12.55 22.0 12.55 22.15 12.65 22.0 12.65 21.9 12.55 21.75 12.05 21.65 12.15 21.6 10.85 21.5 10.1 21.5 M8.0 22.5 L8.05 22.45 8.05 22.35 8.0 22.45 8.0 22.5 M12.3 22.25 L12.3 22.15 12.25 22.1 11.9 22.0 11.45 22.0 11.3 22.1 11.2 22.1 10.85 22.15 Q10.8 22.15 10.7 22.25 L10.45 22.25 10.45 22.35 10.55 22.35 10.8 22.25 11.55 22.25 11.8 22.25 Q11.8 22.35 12.25 22.45 L12.3 22.5 12.5 22.45 12.5 22.35 12.3 22.25 M14.85 21.65 L14.1 21.65 14.1 21.75 14.25 21.75 14.0 21.85 13.7 21.9 13.5 22.0 13.5 22.25 13.6 22.35 13.75 22.15 13.7 22.1 13.75 22.0 14.0 21.9 14.1 21.9 14.5 21.75 15.2 21.85 15.55 21.85 16.05 21.9 16.4 22.0 16.5 22.1 16.55 22.35 16.65 22.1 16.65 22.0 16.55 21.9 16.05 21.85 16.15 21.75 14.85 21.65 M12.05 22.6 L12.15 22.5 12.15 22.45 12.05 22.5 12.05 22.6 M14.45 22.45 L14.45 22.5 14.5 22.5 15.05 22.45 15.2 22.45 15.55 22.45 15.8 22.45 15.9 22.5 16.2 22.6 16.3 22.7 16.5 22.7 16.5 22.5 16.3 22.45 16.3 22.35 Q16.2 22.1 15.9 22.15 L15.45 22.15 15.45 22.25 15.3 22.25 15.2 22.25 14.85 22.35 14.45 22.45 M16.05 22.75 L16.15 22.7 16.15 22.6 16.05 22.7 16.05 22.75" fill="#655546" fill-rule="evenodd" stroke="none"/>
    <path d="M29.8 22.25 L29.8 22.45 29.55 22.5 29.65 22.6 29.55 22.7 29.45 22.75 29.4 22.7 29.4 22.45 29.45 22.45 29.8 22.25 M2.9 22.0 L2.9 21.9 3.15 21.85 3.4 21.75 3.8 21.75 Q4.15 21.65 4.25 21.9 L4.25 22.0 4.4 22.1 4.4 22.15 4.25 22.25 4.15 22.15 3.75 22.0 3.5 22.0 2.9 22.0 M2.9 21.4 L2.9 21.25 4.1 21.3 4.0 21.4 4.5 21.5 4.6 21.6 4.6 21.65 4.5 21.9 4.4 21.65 4.35 21.6 4.0 21.5 3.5 21.4 3.15 21.4 2.9 21.4 M21.75 22.15 L21.55 22.25 21.65 22.35 21.5 22.5 21.4 22.45 21.4 22.15 21.9 22.0 22.15 21.9 22.0 21.9 22.0 21.85 22.75 21.85 24.05 21.9 23.95 22.0 24.45 22.1 24.55 22.25 24.55 22.35 24.45 22.5 24.45 22.35 24.35 22.25 24.3 22.15 23.95 22.1 23.45 22.0 23.1 22.0 22.95 22.0 22.4 21.9 22.0 22.1 21.75 22.15 M22.75 22.5 L22.95 22.5 23.1 22.45 23.25 22.45 23.35 22.35 23.8 22.35 Q24.1 22.25 24.2 22.5 L24.2 22.6 24.35 22.7 24.35 22.75 24.2 22.85 24.1 22.75 23.7 22.6 23.6 22.6 23.45 22.6 23.1 22.6 22.4 22.7 22.35 22.7 22.35 22.6 22.75 22.5 M20.4 22.15 L20.3 22.1 19.85 21.9 19.35 21.85 19.0 21.85 18.35 21.75 17.9 21.9 17.6 22.0 17.5 22.1 17.5 22.15 17.6 22.15 17.4 22.35 17.35 22.25 17.35 22.0 17.85 21.85 18.1 21.75 17.9 21.75 17.9 21.65 18.7 21.65 19.95 21.75 19.85 21.85 20.4 21.9 20.45 22.1 20.45 22.15 20.4 22.25 20.4 22.15 M20.3 22.6 L20.15 22.7 20.05 22.6 19.6 22.45 19.35 22.45 18.35 22.5 18.25 22.5 18.25 22.45 18.7 22.35 19.0 22.25 19.3 22.15 19.7 22.15 20.15 22.25 20.15 22.45 20.3 22.5 20.3 22.6 M28.05 22.85 L27.85 22.75 27.75 22.75 27.7 22.7 27.45 22.7 26.4 22.75 26.35 22.75 26.35 22.7 26.75 22.6 27.1 22.5 27.35 22.45 27.5 22.45 27.75 22.45 28.1 22.45 28.2 22.5 28.2 22.7 28.35 22.75 28.35 22.95 28.2 22.95 28.1 22.85 28.05 22.85 M27.1 22.1 L26.4 22.0 26.0 22.15 25.65 22.25 25.55 22.35 25.65 22.45 25.5 22.6 25.4 22.5 25.4 22.25 25.9 22.1 26.15 22.0 26.0 22.0 26.0 21.9 26.75 21.9 28.05 22.0 27.95 22.1 28.45 22.15 28.55 22.35 28.55 22.45 28.45 22.6 28.45 22.45 28.35 22.35 27.95 22.15 27.45 22.1 27.1 22.1 M8.0 21.6 L8.5 21.65 8.6 21.75 8.6 21.9 8.5 22.1 8.5 21.9 8.4 21.85 8.35 21.75 8.0 21.65 7.8 21.65 7.5 21.6 7.15 21.6 6.45 21.5 6.3 21.6 6.05 21.65 5.8 21.75 5.6 21.85 5.7 21.9 5.5 22.1 5.45 22.0 5.45 21.75 5.5 21.75 5.85 21.6 5.95 21.6 6.2 21.5 6.05 21.5 6.05 21.4 6.8 21.4 8.05 21.5 8.0 21.6 M10.1 21.5 L10.85 21.5 12.15 21.6 12.05 21.65 12.55 21.75 12.65 21.9 12.65 22.0 12.55 22.15 12.55 22.0 12.5 21.9 Q12.4 21.75 12.05 21.75 L11.55 21.65 11.2 21.65 10.55 21.6 10.1 21.75 9.75 21.85 9.7 21.9 9.75 22.0 9.7 22.15 9.6 22.15 9.5 22.1 9.5 21.85 10.0 21.65 10.3 21.6 10.1 21.6 10.1 21.5 M7.4 21.9 L7.8 21.9 Q8.15 21.85 8.25 22.1 L8.25 22.15 8.4 22.25 8.4 22.35 8.25 22.45 8.15 22.35 Q7.75 22.25 7.75 22.15 L7.5 22.15 6.45 22.25 6.35 22.25 6.35 22.15 6.8 22.1 7.15 22.0 7.4 21.9 M14.85 21.65 L16.15 21.75 16.05 21.85 16.55 21.9 16.65 22.0 16.65 22.1 16.55 22.35 16.5 22.1 16.4 22.0 16.05 21.9 15.55 21.85 15.2 21.85 14.5 21.75 14.1 21.9 14.0 21.9 13.75 22.0 13.7 22.1 13.75 22.15 13.6 22.35 13.5 22.25 13.5 22.0 13.7 21.9 14.0 21.85 14.25 21.75 14.1 21.75 14.1 21.65 14.85 21.65 M12.3 22.25 L12.5 22.35 12.5 22.45 12.3 22.5 12.25 22.45 Q11.8 22.35 11.8 22.25 L11.55 22.25 10.8 22.25 10.55 22.35 10.45 22.35 10.45 22.25 10.7 22.25 Q10.8 22.15 10.85 22.15 L11.2 22.1 11.3 22.1 11.45 22.0 11.9 22.0 12.25 22.1 12.3 22.15 12.3 22.25 M14.45 22.45 L14.85 22.35 15.2 22.25 15.3 22.25 15.45 22.25 15.45 22.15 15.9 22.15 Q16.2 22.1 16.3 22.35 L16.3 22.45 16.5 22.5 16.5 22.7 16.3 22.7 16.2 22.6 15.9 22.5 15.8 22.45 15.55 22.45 15.2 22.45 15.05 22.45 14.5 22.5 14.45 22.5 14.45 22.45" fill="#332117" fill-rule="evenodd" stroke="none"/>
    <path d="M21.55 23.0 L21.6 23.0 22.0 23.0 22.0 23.3 22.15 23.55 22.1 23.55 21.25 23.55 21.25 23.35 21.4 23.1 21.5 23.2 21.5 23.0 21.55 23.0 M22.85 23.55 L22.7 23.45 22.7 23.2 22.6 22.95 22.75 22.95 23.25 23.0 23.35 23.1 23.45 23.3 23.55 23.55 22.85 23.55 M28.05 23.1 L28.45 23.2 28.55 23.3 28.6 22.95 29.2 23.0 29.4 23.2 29.3 23.3 29.3 23.35 29.4 23.35 29.45 23.45 29.45 23.3 29.65 23.3 29.8 23.7 29.15 23.7 Q29.05 23.45 28.7 23.45 L28.3 23.7 27.95 23.7 28.05 23.1 M10.1 22.7 L10.1 22.95 10.3 23.3 10.0 23.3 Q9.95 23.1 9.6 23.1 9.25 23.1 9.1 23.3 L8.35 23.3 8.4 22.95 8.6 22.75 8.65 22.75 8.75 22.7 Q8.9 22.45 9.1 22.45 L9.25 22.5 9.45 22.5 9.5 22.6 9.45 22.7 9.45 22.75 9.5 22.75 9.6 22.85 9.6 22.7 10.1 22.7 M10.4 23.3 L10.7 23.2 10.8 23.2 10.8 23.3 10.4 23.3 M16.55 22.95 L16.65 23.0 16.8 22.75 17.0 23.0 17.35 23.45 16.5 23.45 16.05 23.3 16.15 22.85 16.5 22.95 16.55 22.95 M14.85 23.35 L14.85 23.2 15.1 22.85 15.2 22.75 15.65 22.85 15.55 23.0 15.65 23.35 14.85 23.35" fill="#4b4234" fill-rule="evenodd" stroke="none"/>
    <path d="M2.9 23.1 L2.9 22.35 3.55 22.45 3.5 22.6 3.55 22.95 3.8 23.1 2.9 23.1 M24.35 23.05 L24.45 23.1 24.55 23.2 24.65 22.75 24.7 22.6 24.8 22.35 25.05 22.35 25.15 22.6 25.4 23.0 25.3 23.1 25.3 23.2 25.4 23.2 25.5 23.3 25.5 23.1 26.0 23.1 26.0 23.35 26.15 23.7 24.2 23.55 24.05 23.1 24.05 23.0 24.35 23.05 M20.35 22.95 L20.4 22.95 20.45 23.0 20.55 22.6 20.65 22.45 20.7 22.25 21.05 22.35 21.15 22.5 21.25 22.7 20.9 23.0 20.7 23.55 19.85 23.55 19.95 22.85 20.35 22.95 M26.5 23.7 L26.6 23.6 26.65 23.3 26.6 23.0 26.75 23.0 27.45 23.1 27.35 23.2 27.2 23.7 26.5 23.7 M3.9 23.1 L4.1 22.45 4.5 22.5 4.6 22.6 4.65 22.15 4.75 22.0 4.85 21.65 5.1 21.65 5.2 22.1 5.45 22.5 5.35 22.6 5.35 22.7 5.45 22.7 5.5 22.75 5.5 22.6 6.05 22.6 6.05 22.85 6.2 23.2 3.9 23.1 M6.55 23.2 L6.65 23.1 6.7 22.75 6.65 22.5 6.8 22.5 7.55 22.6 7.5 22.75 7.55 23.1 7.65 23.2 6.55 23.2 M11.3 23.3 L11.15 22.6 11.65 22.7 11.55 22.85 11.65 23.2 11.8 23.35 11.3 23.3 M12.05 23.35 L12.15 22.7 12.55 22.75 12.65 22.85 12.75 22.45 12.85 22.25 12.9 22.0 13.15 22.0 13.25 22.35 13.5 22.75 13.4 22.85 13.4 22.95 13.5 22.95 13.6 23.0 13.6 22.85 14.1 22.85 14.1 23.1 14.2 23.35 12.05 23.35 M17.85 23.45 L17.65 22.85 17.9 22.85 17.9 23.1 18.1 23.45 17.85 23.45 M18.2 23.45 L18.5 23.35 18.6 23.0 18.5 22.75 18.7 22.75 19.45 22.85 19.35 23.0 19.45 23.35 19.6 23.55 18.2 23.45 M9.15 21.9 L9.15 22.0 8.85 22.1 8.85 21.9 9.15 21.9 M16.9 22.15 L17.0 22.15 17.05 22.35 16.9 22.25 16.9 22.15" fill="#10130f" fill-rule="evenodd" stroke="none"/>
    <path d="M20.8 23.55 L20.9 23.2 21.25 22.75 21.4 22.95 21.3 23.0 21.3 23.1 21.25 23.3 21.05 23.55 20.8 23.55 M23.95 23.55 L24.05 23.35 24.05 23.55 23.95 23.55 M27.5 23.7 L27.35 23.7 27.45 23.3 27.5 23.6 27.6 23.6 27.5 23.7 M29.15 22.7 L29.15 22.75 29.2 22.95 28.6 22.85 28.7 22.7 28.7 22.6 29.15 22.7 M8.6 22.75 L8.4 22.85 8.25 23.3 8.0 23.2 8.15 22.75 8.25 22.6 8.5 22.7 8.6 22.75 M10.95 23.3 L10.8 22.95 10.8 22.85 10.7 22.6 10.8 22.6 10.85 22.7 11.2 23.3 10.95 23.3 M15.2 22.75 L14.85 23.1 14.8 23.3 14.8 23.0 14.7 22.75 14.85 22.75 15.2 22.75 M17.4 23.45 Q17.25 22.85 16.75 22.7 L16.75 22.6 16.8 22.45 17.35 22.75 17.25 22.85 17.25 22.95 17.35 22.95 17.4 23.0 17.4 22.85 17.65 23.45 17.4 23.45 M9.0 22.1 L9.15 22.15 9.25 22.15 9.35 22.35 Q8.9 22.35 8.75 22.6 L8.65 22.35 8.75 22.15 9.0 22.1" fill="#796953" fill-rule="evenodd" stroke="none"/>
    <path d="M29.8 23.7 L29.8 24.3 29.65 24.55 Q29.4 24.9 28.8 24.9 28.3 25.0 28.05 24.7 L27.6 23.95 27.6 23.7 27.7 23.7 27.7 23.75 27.75 23.8 27.85 23.8 27.95 23.7 28.3 23.7 28.2 23.95 28.35 24.2 Q28.55 24.4 28.8 24.4 29.05 24.4 29.15 24.2 L29.2 23.95 29.15 23.7 29.8 23.7 M22.85 23.55 L23.55 23.55 23.8 23.7 23.8 24.05 23.55 24.65 Q23.2 25.05 22.5 25.15 L21.65 24.9 Q21.25 24.55 21.15 23.95 L21.25 23.55 22.1 23.55 Q21.85 23.7 21.85 24.05 L22.0 24.3 22.6 24.45 22.95 24.3 23.0 24.05 22.85 23.55 M10.3 23.3 L10.35 23.3 10.4 23.3 10.8 23.3 10.85 23.8 10.6 24.4 Q10.3 24.8 9.6 24.8 9.0 24.8 8.65 24.45 8.35 24.15 8.35 23.55 L8.35 23.3 9.1 23.3 9.0 23.6 9.1 23.95 9.7 24.2 10.0 24.05 10.2 23.7 10.0 23.3 10.3 23.3 M17.35 23.45 L17.4 23.85 17.15 24.45 Q16.8 24.9 16.15 25.0 15.65 25.05 15.3 24.7 14.85 24.4 14.8 23.8 L14.85 23.35 15.65 23.35 15.45 23.85 15.65 24.15 16.2 24.4 16.55 24.15 16.65 23.85 16.5 23.45 17.35 23.45" fill="#5a4f3f" fill-rule="evenodd" stroke="none"/>
    <path d="M29.8 24.45 L29.8 24.8 Q29.45 25.15 28.8 25.25 28.2 25.25 27.85 24.9 27.35 24.55 27.35 23.95 L27.35 23.7 27.5 23.7 27.5 23.95 27.75 24.55 Q28.2 25.05 28.8 25.05 29.45 25.0 29.7 24.55 L29.8 24.45 M20.8 23.55 L21.05 23.55 21.05 23.95 21.3 24.65 Q21.75 25.3 22.5 25.25 23.25 25.25 23.6 24.7 L23.85 23.95 23.85 23.7 23.95 23.55 24.05 23.55 24.1 24.05 23.85 24.8 Q23.45 25.4 22.6 25.5 21.85 25.5 21.4 25.15 20.9 24.7 20.8 23.95 L20.8 23.55 M8.25 23.3 L8.25 23.55 8.4 24.3 Q8.85 24.9 9.6 24.9 L10.7 24.45 10.95 23.8 10.95 23.3 11.2 23.3 11.3 23.8 10.95 24.65 Q10.45 25.15 9.6 25.15 8.9 25.15 8.5 24.7 8.0 24.3 8.0 23.55 L8.0 23.2 8.25 23.3 M14.45 23.45 L14.7 23.35 14.7 23.8 14.95 24.55 Q15.35 25.15 16.15 25.05 16.9 25.05 17.25 24.55 L17.5 23.85 17.4 23.45 17.65 23.45 17.75 23.85 17.5 24.7 Q17.05 25.25 16.2 25.3 L15.05 25.0 Q14.5 24.55 14.45 23.8 L14.45 23.45" fill="#978668" fill-rule="evenodd" stroke="none"/>
    <path d="M29.8 25.0 L29.8 27.2 Q29.3 27.3 28.85 27.75 L28.4 27.75 28.4 28.25 28.2 28.65 27.1 28.8 26.65 28.2 Q25.8 27.1 24.3 27.1 23.45 27.1 22.7 27.95 L22.7 28.05 22.25 27.8 21.65 27.5 21.4 27.45 19.45 26.6 19.45 26.5 19.3 26.5 13.25 26.85 12.55 26.95 11.3 26.65 Q10.7 26.65 10.2 27.1 L8.15 27.2 7.65 26.95 Q5.7 25.9 3.8 24.4 L2.9 23.6 2.9 23.1 3.8 23.1 3.9 23.1 6.2 23.2 6.3 23.2 6.35 23.2 6.55 23.2 7.65 23.2 7.8 23.3 7.8 23.55 Q7.8 23.95 8.15 24.45 8.6 25.25 9.6 25.25 10.55 25.25 11.05 24.7 L11.4 23.8 11.3 23.3 11.8 23.35 12.0 23.35 12.05 23.35 14.2 23.35 14.25 23.45 14.35 23.45 14.25 23.8 14.7 24.7 Q15.2 25.5 16.2 25.4 17.05 25.4 17.6 24.7 L17.85 23.85 17.85 23.45 18.1 23.45 18.2 23.45 19.6 23.55 19.8 23.55 19.85 23.55 20.7 23.55 20.65 23.95 21.0 24.9 Q21.55 25.65 22.6 25.55 23.45 25.5 23.95 24.9 L24.2 24.05 24.2 23.55 26.15 23.7 26.25 23.7 26.35 23.7 26.5 23.7 27.2 23.7 27.2 23.95 27.5 24.7 Q28.05 25.4 28.8 25.3 L29.8 25.0 M2.95 27.85 L2.9 27.85 2.9 25.2 5.1 26.5 5.6 26.75 4.75 26.65 Q3.9 26.65 3.15 27.5 L2.95 27.85" fill="#464631" fill-rule="evenodd" stroke="none"/>
    <path d="M22.15 23.6 L22.25 23.6 22.6 23.6 22.85 23.7 22.95 24.05 22.5 24.4 Q22.25 24.4 22.1 24.2 L21.9 24.05 22.0 23.7 22.15 23.55 22.15 23.6 M28.55 23.55 Q28.9 23.55 29.05 23.7 L29.15 23.95 28.8 24.3 28.45 24.2 28.3 23.95 28.35 23.8 28.35 23.7 28.55 23.55 M10.0 23.35 L10.1 23.7 Q10.1 24.05 9.7 24.05 9.35 24.05 9.15 23.85 L9.1 23.6 9.15 23.35 9.25 23.3 9.35 23.2 9.85 23.3 10.0 23.35 M15.95 23.55 L16.05 23.35 16.2 23.45 16.5 23.55 16.55 23.85 16.15 24.2 15.7 24.15 15.55 23.85 15.65 23.55 15.7 23.45 Q15.9 23.6 15.95 23.55" fill="#373026" fill-rule="evenodd" stroke="none"/>
    <path d="M16.15 12.0 L16.3 12.0 17.25 11.55 17.5 11.45 18.6 11.4 19.2 11.4 19.2 11.3 19.35 11.4 19.45 11.55 Q19.45 12.0 19.1 12.0 L17.65 12.4 17.15 13.0 16.3 13.6 Q15.95 13.6 15.9 13.35 L15.9 13.1 15.9 13.0 15.8 12.9 15.9 12.4 16.05 12.05 16.15 12.0" fill="#696049" fill-rule="evenodd" stroke="none"/>
    <path d="M2.9 15.45 L2.9 15.25 3.0 15.2 4.0 15.2 4.1 15.4 4.0 15.45 2.9 15.45" fill="#d9d9c8" fill-rule="evenodd" stroke="none"/>
    <path d="M2.9 20.15 L2.9 19.55 4.75 19.65 5.1 19.7 5.5 19.65 9.15 19.9 9.5 19.9 9.75 20.2 9.85 20.4 6.2 20.3 5.7 20.2 5.2 20.2 4.85 20.15 2.9 20.15 M14.1 20.15 L14.2 20.15 14.2 20.05 14.1 20.15 M14.8 19.9 L14.85 19.9 14.85 19.8 14.8 19.8 14.8 19.9 M14.1 19.55 L14.35 19.55 15.8 19.7 17.65 19.65 17.6 20.5 14.0 20.4 14.0 19.8 14.1 19.55 M14.2 19.8 L14.25 19.8 14.25 19.7 14.2 19.7 14.2 19.8 M17.4 20.15 L17.5 20.15 17.5 20.05 17.4 20.15 M15.45 19.9 L15.45 19.8 15.3 19.8 15.45 19.9 M15.9 19.8 L15.9 19.9 15.95 19.9 15.95 19.8 15.9 19.8 M17.4 19.9 L17.5 19.9 17.5 19.8 17.4 19.9 M16.55 19.9 L16.55 19.8 16.5 19.8 16.55 19.9 M17.05 19.7 L17.0 19.8 17.05 19.9 17.05 19.7" fill="#83825a" fill-rule="evenodd" stroke="none"/>
    <path d="M27.95 29.6 L27.25 29.6 27.1 28.8 28.2 28.65 27.95 29.6 M22.0 29.6 L20.4 29.6 20.4 29.55 Q20.4 28.9 19.8 28.1 18.95 27.0 17.4 27.0 16.55 27.0 15.8 27.85 15.1 28.7 15.1 29.6 L14.25 29.6 14.25 29.2 Q14.25 28.55 13.7 27.8 13.25 27.2 12.55 26.95 L13.25 26.85 19.3 26.5 19.45 26.5 19.45 26.6 21.4 27.45 21.65 27.5 22.25 27.8 22.7 28.05 Q22.05 28.75 22.0 29.6 M9.05 29.6 L7.75 29.6 7.75 29.2 Q7.75 28.55 7.15 27.8 6.55 27.0 5.6 26.75 L5.1 26.5 2.9 25.2 2.9 23.6 3.8 24.4 Q5.7 25.9 7.65 26.95 L8.15 27.2 10.2 27.1 9.7 27.5 Q9.0 28.35 9.0 29.3 L9.05 29.6" fill="#28281c" fill-rule="evenodd" stroke="none"/>
    <path d="M29.8 27.35 L29.8 27.7 29.7 27.75 28.95 27.75 Q29.35 27.4 29.8 27.35 M28.4 28.5 L28.4 29.0 28.35 29.15 28.4 29.6 28.05 29.6 28.35 28.65 28.4 28.5 M27.2 29.6 L26.7 29.6 26.6 29.2 26.5 28.9 26.35 28.65 25.4 27.95 24.35 27.5 Q23.8 27.5 23.1 28.2 L23.0 28.3 22.4 29.15 22.45 29.6 22.1 29.6 Q22.15 28.85 22.7 28.1 L22.75 28.05 Q23.55 27.1 24.65 27.25 25.8 27.35 26.6 28.2 L27.0 28.8 27.2 29.6 M20.3 29.6 L19.85 29.6 19.7 29.15 19.45 28.55 18.5 27.85 17.5 27.45 Q16.9 27.45 16.15 28.2 L15.55 29.05 15.6 29.6 15.2 29.6 Q15.2 28.8 15.8 28.05 16.55 27.0 17.75 27.2 18.95 27.25 19.7 28.1 20.3 28.8 20.3 29.55 L20.3 29.6 M14.15 29.6 L13.75 29.6 13.75 29.55 13.6 28.8 13.35 28.2 12.4 27.5 11.4 27.1 Q10.8 27.1 10.0 27.85 L9.45 28.7 9.55 29.6 9.15 29.6 9.1 29.3 Q9.1 28.45 9.7 27.7 L10.45 27.1 Q10.95 26.75 11.65 26.85 L12.15 26.95 Q13.0 27.1 13.6 27.8 14.2 28.45 14.2 29.2 L14.15 29.6 M7.65 29.6 L7.2 29.6 7.2 29.55 7.05 28.8 7.05 28.7 6.8 28.2 5.95 27.6 5.85 27.5 4.85 27.1 Q4.25 27.1 3.5 27.85 L3.1 27.85 3.15 27.7 Q3.9 26.65 5.1 26.85 5.95 26.95 6.65 27.35 L7.05 27.8 Q7.65 28.45 7.65 29.2 L7.65 29.55 7.65 29.6" fill="#969d84" fill-rule="evenodd" stroke="none"/>
    <path d="M19.35 13.1 L19.1 13.25 18.85 13.35 Q18.5 13.35 18.5 13.15 L18.45 13.0 Q18.45 12.65 18.95 12.65 L19.3 12.75 19.3 12.85 19.35 13.1" fill="#edeae7" fill-rule="evenodd" stroke="none"/>
    <path d="M18.25 14.8 L18.35 15.45 18.5 15.9 18.6 16.15 18.35 16.3 18.2 16.3 18.1 16.25 18.1 16.15 18.2 16.05 18.25 15.95 18.25 14.8" fill="#5f707a" fill-rule="evenodd" stroke="none"/>
    <path d="M26.3 29.6 L25.3 29.6 24.95 29.05 24.45 28.9 24.35 28.9 Q24.05 28.95 23.85 29.3 L23.75 29.6 22.65 29.6 22.85 29.05 23.55 28.45 24.7 28.2 25.65 28.55 26.0 28.95 26.15 29.2 26.3 29.6 M19.45 29.6 L18.45 29.6 Q18.15 28.8 17.6 28.8 17.15 28.8 17.0 29.2 L16.85 29.6 15.75 29.6 15.95 28.95 Q16.4 28.1 17.85 28.1 18.0 28.1 18.75 28.45 L19.3 29.15 19.45 29.6 M13.4 29.6 L12.4 29.6 12.4 29.55 Q12.15 28.45 11.45 28.45 11.05 28.45 10.85 28.9 L10.7 29.4 10.6 29.5 10.6 29.6 9.65 29.6 9.6 29.5 9.6 29.45 9.85 28.65 Q10.3 27.8 11.7 27.8 L12.65 28.1 13.15 28.8 13.4 29.6 M6.9 29.6 L5.85 29.6 5.85 29.55 5.8 29.15 Q5.45 28.45 4.95 28.45 L4.75 28.5 4.75 27.85 5.1 27.8 5.2 27.8 6.1 28.1 6.65 28.8 6.9 29.6" fill="#5c644f" fill-rule="evenodd" stroke="none"/>
    <path d="M26.65 29.6 L26.3 29.6 26.15 29.2 26.0 28.95 25.65 28.55 24.7 28.2 23.55 28.45 22.85 29.05 22.65 29.6 22.6 29.6 22.6 29.55 22.6 29.3 Q22.6 28.8 23.2 28.3 L23.35 28.05 Q24.3 27.35 25.15 27.85 L25.8 28.35 26.15 28.65 26.05 28.7 26.35 28.9 26.65 29.6 M19.8 29.6 L19.45 29.6 19.3 29.15 18.75 28.45 Q18.0 28.1 17.85 28.1 16.4 28.1 15.95 28.95 L15.75 29.6 15.7 29.6 15.7 29.5 15.7 29.2 Q15.7 28.65 16.5 27.95 17.4 27.25 18.25 27.8 L18.95 28.3 19.3 28.55 19.2 28.65 19.45 28.8 19.8 29.6 M13.7 29.6 L13.4 29.6 13.15 28.8 12.65 28.1 11.7 27.8 Q10.3 27.8 9.85 28.65 L9.6 29.45 9.6 29.15 9.6 28.9 Q9.6 28.3 10.35 27.6 11.3 26.95 12.15 27.45 L12.85 27.95 13.15 28.2 13.1 28.3 13.35 28.45 Q13.7 28.95 13.7 29.55 L13.7 29.6 M10.7 29.6 L10.6 29.6 10.6 29.5 10.7 29.4 10.7 29.6 M7.15 29.6 L6.9 29.6 6.65 28.8 6.1 28.1 5.2 27.8 5.1 27.8 4.75 27.85 3.6 27.85 3.8 27.6 Q4.75 26.95 5.6 27.45 L5.8 27.6 6.3 27.95 6.65 28.2 6.55 28.3 6.8 28.45 6.95 28.7 7.15 29.55 7.15 29.6" fill="#434738" fill-rule="evenodd" stroke="none"/>
    <path d="M18.4 29.6 L16.9 29.6 Q16.95 28.9 17.65 28.95 18.3 29.1 18.4 29.6" fill="url(#gradient0)" fill-rule="evenodd" stroke="none"/>
    <path d="M12.3 29.6 L10.85 29.6 10.8 29.4 Q10.8 28.55 11.55 28.65 12.3 28.8 12.3 29.55 L12.3 29.6" fill="url(#gradient1)" fill-rule="evenodd" stroke="none"/>
    <path d="M5.8 29.6 L4.75 29.6 4.75 28.65 5.0 28.65 Q5.5 28.7 5.7 29.2 L5.8 29.55 5.8 29.6" fill="url(#gradient2)" fill-rule="evenodd" stroke="none"/>
    <path d="M25.25 29.6 L23.8 29.6 Q23.9 28.95 24.55 29.05 L24.7 29.15 25.25 29.6" fill="url(#gradient3)" fill-rule="evenodd" stroke="none"/>
  </g>
  <defs>
    <radialGradient cx="0" cy="0" gradientTransform="matrix(0.0016, 0.0, 0.0, 0.0016, 17.4, 29.5)" gradientUnits="userSpaceOnUse" id="gradient0" r="819.2" spreadMethod="pad">
      <stop offset="0.0" stop-color="#d6d9d0"/>
      <stop offset="0.6" stop-color="#575f4b"/>
      <stop offset="0.9725490196078431" stop-color="#1c1d16"/>
    </radialGradient>
    <radialGradient cx="0" cy="0" gradientTransform="matrix(0.0016, 0.0, 0.0, 0.0016, 11.3, 29.15)" gradientUnits="userSpaceOnUse" id="gradient1" r="819.2" spreadMethod="pad">
      <stop offset="0.0" stop-color="#d6d9d0"/>
      <stop offset="0.6" stop-color="#575f4b"/>
      <stop offset="0.9725490196078431" stop-color="#1c1d16"/>
    </radialGradient>
    <radialGradient cx="0" cy="0" gradientTransform="matrix(0.0016, 0.0, 0.0, 0.0016, 4.75, 29.15)" gradientUnits="userSpaceOnUse" id="gradient2" r="819.2" spreadMethod="pad">
      <stop offset="0.0" stop-color="#d6d9d0"/>
      <stop offset="0.6" stop-color="#575f4b"/>
      <stop offset="0.9725490196078431" stop-color="#1c1d16"/>
    </radialGradient>
    <radialGradient cx="0" cy="0" gradientTransform="matrix(0.0016, 0.0, 0.0, 0.0016, 24.3, 29.55)" gradientUnits="userSpaceOnUse" id="gradient3" r="819.2" spreadMethod="pad">
      <stop offset="0.0" stop-color="#d6d9d0"/>
      <stop offset="0.6" stop-color="#575f4b"/>
      <stop offset="0.9725490196078431" stop-color="#1c1d16"/>
    </radialGradient>
  </defs>
</svg>
