<?xml version="1.0" encoding="UTF-8" standalone="no"?>
<svg xmlns:xlink="http://www.w3.org/1999/xlink" height="53.6px" width="67.65px" xmlns="http://www.w3.org/2000/svg">
  <g transform="matrix(1.0, 0.0, 0.0, 1.0, 20.25, -1.9)">
    <path d="M42.65 2.25 L11.05 2.2 11.0 2.15 8.05 3.95 39.55 3.85 39.65 3.85 41.25 2.9 42.65 2.25 M43.2 2.4 L41.95 3.15 40.0 4.0 40.0 5.15 39.95 5.35 39.95 5.45 39.95 6.2 39.95 7.35 39.9 7.4 39.9 39.8 40.15 39.75 40.6 39.65 43.2 38.15 43.2 4.35 43.35 3.95 43.2 3.6 43.2 2.4 M-12.05 53.8 L-13.25 55.1 -13.45 55.05 -13.5 55.15 -19.85 55.15 -19.9 55.25 -20.1 55.15 -20.2 55.15 -20.25 55.0 -20.2 54.85 -20.1 54.85 Q-19.8 53.9 -16.35 49.15 L-11.25 42.5 -11.25 42.35 -11.05 42.3 -10.9 42.1 -10.85 42.2 -5.25 40.0 Q1.85 37.2 6.85 33.95 L6.85 4.65 6.8 4.65 6.75 4.5 6.85 4.3 6.85 4.25 7.0 3.95 7.2 3.95 Q8.1 3.2 11.0 1.9 L11.05 2.0 11.05 1.9 43.5 1.9 43.55 2.05 43.55 38.05 Q44.35 38.5 44.55 39.1 L44.4 39.15 44.35 39.15 47.25 49.75 47.35 49.75 47.4 49.9 47.3 50.05 47.25 50.15 46.95 50.15 46.95 50.1 45.95 50.15 45.65 50.05 44.2 50.7 43.9 51.0 43.15 52.2 42.2 53.45 41.75 54.35 41.75 54.5 41.05 55.15 41.0 55.3 40.8 55.3 40.65 55.4 40.45 55.3 22.6 55.3 22.55 55.4 22.4 55.5 21.65 53.7 17.8 53.8 17.7 53.8 17.45 54.4 16.9 55.2 16.3 55.2 16.3 55.3 3.45 55.25 3.25 55.3 3.15 55.25 3.0 55.25 2.95 55.15 -7.45 55.15 -7.4 54.85 -8.15 53.65 -11.55 53.8 -12.0 53.8 -12.05 53.8 M41.75 12.05 L41.6 11.85 41.25 12.3 40.6 12.65 40.6 12.6 40.55 12.6 40.55 12.65 40.65 15.1 40.5 15.5 40.5 17.35 40.55 17.45 40.55 18.7 Q40.8 18.55 41.3 18.3 L41.35 18.35 41.55 18.25 41.6 18.15 42.7 17.6 42.7 11.55 41.75 12.05 M42.95 11.05 L42.95 11.25 43.05 11.3 43.05 17.75 42.9 17.8 42.8 17.8 40.55 18.95 40.25 19.0 40.25 18.1 Q40.0 17.7 40.05 16.9 L40.2 15.2 40.2 15.05 40.25 15.05 40.25 12.6 40.2 12.4 Q40.2 12.05 40.75 12.1 41.0 11.9 41.45 11.65 42.4 11.15 42.95 11.05 M42.3 19.8 L42.25 19.75 42.2 19.85 40.6 20.65 40.6 20.6 40.55 20.6 40.55 20.65 40.65 23.1 40.5 23.5 40.5 25.35 40.55 25.45 40.55 26.7 41.55 26.15 42.7 25.6 42.7 19.55 42.3 19.8 M42.95 19.05 L42.95 19.25 43.05 19.3 43.05 25.75 42.9 25.8 42.8 25.8 40.55 26.95 40.25 27.0 40.25 26.1 Q40.0 25.7 40.05 24.9 L40.2 23.2 40.2 23.05 40.25 23.05 40.25 20.6 40.2 20.4 Q40.2 20.05 40.75 20.1 41.0 19.9 41.45 19.65 42.4 19.15 42.95 19.05 M40.2 40.15 L40.2 40.2 40.35 40.2 40.4 40.35 40.35 40.5 40.2 40.5 40.15 40.6 40.1 40.65 39.55 40.5 6.8 40.5 6.6 41.0 40.1 41.0 40.35 40.8 Q40.55 40.65 40.8 40.65 L41.85 40.05 Q43.2 39.4 44.0 39.1 L43.95 39.0 44.0 39.0 43.65 38.75 43.3 38.4 40.25 40.15 40.2 40.15 M40.75 54.9 L40.85 55.05 41.0 54.65 41.35 54.4 Q41.35 53.7 42.05 52.55 L42.25 52.3 42.2 52.1 43.3 50.95 43.35 50.9 43.35 50.8 Q43.35 50.5 44.35 50.1 44.85 49.8 45.25 49.8 L45.2 49.85 45.45 49.85 45.45 49.75 46.85 49.75 44.05 39.3 42.6 39.95 41.2 40.65 41.3 40.7 40.65 41.1 40.6 41.15 40.55 41.15 40.45 41.2 40.2 41.25 40.2 41.3 6.75 41.3 6.75 41.4 6.4 41.3 4.75 47.65 3.55 51.25 2.75 54.05 2.7 54.15 3.15 54.75 3.15 54.8 3.3 55.0 15.8 54.95 15.95 54.8 16.0 54.8 Q16.25 54.8 16.5 54.6 L16.55 54.55 17.0 54.3 16.95 54.15 17.1 53.8 17.25 53.65 17.35 53.6 17.3 53.55 17.35 53.3 21.55 53.3 21.5 53.2 22.1 53.3 22.3 53.3 22.4 53.5 22.35 53.6 22.35 53.7 22.6 54.95 40.7 54.95 40.75 54.9 M40.2 43.3 L40.45 43.4 40.6 44.65 40.5 46.1 Q40.5 48.8 40.8 53.35 L40.6 53.35 40.4 52.3 40.2 50.9 40.2 43.3 M7.2 39.85 L7.25 40.0 7.2 40.1 39.45 40.2 39.5 40.0 39.45 39.75 39.6 22.9 39.45 22.85 39.45 22.35 39.6 14.65 39.6 6.85 39.7 6.85 39.7 4.25 7.5 4.25 7.15 4.45 7.15 39.85 7.15 39.9 7.2 39.85 M6.85 39.55 L6.85 34.35 Q5.15 36.05 -10.9 42.4 L-14.5 47.5 -19.65 54.85 -13.65 54.85 -12.5 53.6 -12.5 53.55 -12.45 53.3 -8.25 53.3 -8.2 53.2 -7.95 53.3 -7.9 53.3 -7.9 53.35 -7.4 53.85 -7.1 54.8 -7.1 54.85 2.65 54.8 2.45 54.5 Q2.15 54.25 1.9 54.3 L1.85 54.15 Q1.85 53.6 2.25 53.8 2.35 52.9 6.2 41.05 L6.2 41.0 6.25 41.0 6.25 40.9 Q6.25 40.35 6.75 40.05 L6.7 39.8 6.75 39.6 6.85 39.55 M21.25 55.15 L21.25 55.3 21.2 55.3 21.25 55.15 M20.4 55.3 L20.5 55.2 20.45 55.3 20.4 55.3 M17.9 55.25 L18.1 55.3 17.9 55.3 17.9 55.25" fill="#000000" fill-rule="evenodd" stroke="none"/>
    <path d="M-11.55 53.8 L-12.05 53.95 -12.05 53.8 -12.0 53.8 -11.55 53.8 M40.2 41.3 L40.2 43.3 40.2 50.9 40.4 52.3 40.6 53.35 40.45 53.4 40.45 53.6 Q40.45 54.35 40.75 54.9 L40.7 54.95 22.6 54.95 22.35 53.7 22.35 53.6 22.4 53.5 22.3 53.3 22.1 53.3 21.5 53.2 21.55 53.3 17.35 53.3 17.3 53.55 17.35 53.6 17.25 53.65 17.05 53.55 16.7 53.7 16.7 53.85 16.55 54.05 16.65 54.15 16.9 54.1 16.95 54.15 17.0 54.3 16.55 54.55 16.5 54.6 Q16.25 54.8 16.0 54.8 L15.95 54.8 15.8 54.95 3.3 55.0 3.15 54.8 3.15 54.75 2.7 54.15 2.75 54.05 3.55 51.25 4.75 47.65 6.4 41.3 6.75 41.4 6.75 41.3 40.2 41.3 M6.85 39.55 L6.75 39.6 6.7 39.8 6.75 40.05 Q6.25 40.35 6.25 40.9 L6.25 41.0 6.2 41.0 6.2 41.05 Q2.35 52.9 2.25 53.8 1.85 53.6 1.85 54.15 L1.9 54.3 Q2.15 54.25 2.45 54.5 L2.65 54.8 -7.1 54.85 -7.1 54.8 -7.4 53.85 -7.9 53.35 -7.9 53.3 -7.95 53.3 -8.2 53.2 -8.25 53.3 -12.45 53.3 -12.5 53.55 -12.5 53.6 -13.65 54.85 -19.65 54.85 -14.5 47.5 -10.9 42.4 Q5.15 36.05 6.85 34.35 L6.85 39.55 M20.55 54.2 L20.5 54.2 19.65 54.7 19.45 54.1 20.55 54.2 M-8.15 54.3 L-8.3 54.15 -8.2 54.15 -8.15 54.3" fill="#bfbfbf" fill-rule="evenodd" stroke="none"/>
    <path d="M42.65 2.25 L41.25 2.9 39.65 3.85 39.55 3.85 8.05 3.95 11.0 2.15 11.05 2.2 42.65 2.25" fill="#a6a6a6" fill-rule="evenodd" stroke="none"/>
    <path d="M43.2 2.4 L43.2 3.6 43.35 3.95 43.2 4.35 43.2 38.15 40.6 39.65 40.15 39.75 39.9 39.8 39.9 7.4 39.95 7.35 39.95 6.2 39.95 5.45 39.95 5.35 40.0 5.15 40.0 4.0 41.95 3.15 43.2 2.4 M42.95 11.05 Q42.4 11.15 41.45 11.65 41.0 11.9 40.75 12.1 40.2 12.05 40.2 12.4 L40.25 12.6 40.25 15.05 40.2 15.05 40.2 15.2 40.05 16.9 Q40.0 17.7 40.25 18.1 L40.25 19.0 40.55 18.95 42.8 17.8 42.9 17.8 43.05 17.75 43.05 11.3 42.95 11.25 42.95 11.05 M42.95 19.05 Q42.4 19.15 41.45 19.65 41.0 19.9 40.75 20.1 40.2 20.05 40.2 20.4 L40.25 20.6 40.25 23.05 40.2 23.05 40.2 23.2 40.05 24.9 Q40.0 25.7 40.25 26.1 L40.25 27.0 40.55 26.95 42.8 25.8 42.9 25.8 43.05 25.75 43.05 19.3 42.95 19.25 42.95 19.05" fill="#5e5e5e" fill-rule="evenodd" stroke="none"/>
    <path d="M41.25 12.3 L41.6 11.85 41.75 12.05 41.85 12.4 Q41.85 13.05 41.35 13.5 L41.1 13.25 41.2 12.5 41.25 12.3 M41.6 18.15 L41.55 18.25 41.35 18.35 41.3 18.3 41.1 17.95 41.55 16.2 Q42.0 14.7 42.35 14.35 L42.6 14.7 Q42.6 15.4 41.6 18.15 M42.2 19.85 L42.25 19.75 42.3 19.8 42.5 20.05 42.35 21.2 41.85 22.15 41.1 23.1 40.85 22.85 Q40.85 22.45 41.4 21.2 L42.2 19.85 M41.25 24.35 L41.45 23.7 42.0 23.1 42.25 23.35 42.0 23.95 41.5 24.6 41.25 24.35 M42.0 24.5 L42.25 24.95 42.0 25.1 41.75 24.8 41.9 24.6 42.0 24.5" fill="#92a6b1" fill-rule="evenodd" stroke="none"/>
    <path d="M41.75 12.05 L42.7 11.55 42.7 17.6 41.6 18.15 Q42.6 15.4 42.6 14.7 L42.35 14.35 Q42.0 14.7 41.55 16.2 L41.1 17.95 41.3 18.3 Q40.8 18.55 40.55 18.7 L40.55 17.45 40.5 17.35 40.5 15.5 40.65 15.1 40.55 12.65 40.6 12.65 41.25 12.3 41.2 12.5 41.1 13.25 41.35 13.5 Q41.85 13.05 41.85 12.4 L41.75 12.05 M42.3 19.8 L42.7 19.55 42.7 25.6 41.55 26.15 40.55 26.7 40.55 25.45 40.5 25.35 40.5 23.5 40.65 23.1 40.55 20.65 40.6 20.65 42.2 19.85 41.4 21.2 Q40.85 22.45 40.85 22.85 L41.1 23.1 41.85 22.15 42.35 21.2 42.5 20.05 42.3 19.8 M42.0 24.5 L41.9 24.6 41.75 24.8 42.0 25.1 42.25 24.95 42.0 24.5 M41.25 24.35 L41.5 24.6 42.0 23.95 42.25 23.35 42.0 23.1 41.45 23.7 41.25 24.35" fill="#405059" fill-rule="evenodd" stroke="none"/>
    <path d="M40.25 40.15 L43.3 38.4 43.65 38.75 44.0 39.0 43.95 39.0 44.0 39.1 Q43.2 39.4 41.85 40.05 L40.8 40.65 Q40.55 40.65 40.35 40.8 L40.1 41.0 6.6 41.0 6.8 40.5 39.55 40.5 40.1 40.65 40.15 40.6 40.2 40.5 40.35 40.5 40.4 40.35 40.35 40.2 40.2 40.2 40.2 40.15 40.25 40.15" fill="#9d9d9d" fill-rule="evenodd" stroke="none"/>
    <path d="M40.2 41.3 L40.2 41.25 40.45 41.2 40.55 41.15 40.6 41.15 40.65 41.1 41.3 40.7 41.2 40.65 42.6 39.95 44.05 39.3 46.85 49.75 45.45 49.75 45.45 49.85 45.2 49.85 45.25 49.8 Q44.85 49.8 44.35 50.1 43.35 50.5 43.35 50.8 L43.35 50.9 43.3 50.95 42.2 52.1 42.25 52.3 42.05 52.55 Q41.35 53.7 41.35 54.4 L41.0 54.65 40.85 55.05 40.75 54.9 Q40.45 54.35 40.45 53.6 L40.45 53.4 40.6 53.35 40.8 53.35 Q40.5 48.8 40.5 46.1 L40.6 44.65 40.45 43.4 40.2 43.3 40.2 41.3" fill="#808080" fill-rule="evenodd" stroke="none"/>
    <path d="M7.15 39.85 L7.15 4.45 7.5 4.25 39.7 4.25 39.7 6.85 39.6 6.85 39.6 14.65 39.45 22.35 39.45 22.85 39.6 22.9 39.45 39.75 39.5 40.0 39.45 40.2 7.2 40.1 7.25 40.0 7.2 39.85 7.15 39.85" fill="#7b7b7b" fill-rule="evenodd" stroke="none"/>
  </g>
</svg>
