<?xml version="1.0" encoding="UTF-8" standalone="no"?>
<svg xmlns:xlink="http://www.w3.org/1999/xlink" height="32.3px" width="32.1px" xmlns="http://www.w3.org/2000/svg">
  <g transform="matrix(1.0, 0.0, 0.0, 1.0, -0.6, -0.3)">
    <path d="M29.85 0.7 L29.7 1.1 29.6 1.25 29.05 2.1 28.6 1.8 28.6 1.45 28.85 0.8 Q28.9 0.35 29.3 0.35 L29.4 0.4 Q29.85 0.1 29.85 0.7 M1.25 2.6 Q0.8 2.6 0.7 2.2 L0.7 1.7 Q0.7 1.15 1.45 0.65 2.2 0.2 2.2 0.95 L1.25 2.6 M0.65 30.0 L0.6 29.8 Q0.6 29.5 0.9 29.25 1.3 28.9 1.8 29.1 L1.85 29.35 1.55 29.85 1.45 30.0 1.0 30.25 0.65 30.0 1.45 30.0 0.65 30.0 M29.8 30.0 L29.4 30.25 Q29.05 30.25 29.0 30.0 L28.95 29.8 Q28.95 29.4 29.45 29.0 29.95 28.55 29.95 29.35 L29.8 29.95 29.8 30.0 29.0 30.0 29.8 30.0" fill="#ff6666" fill-rule="evenodd" stroke="none"/>
    <path d="M32.7 3.95 L32.7 4.35 31.45 4.6 Q30.2 4.6 30.2 4.2 30.2 3.9 30.7 3.65 L31.35 2.95 Q31.15 2.6 31.45 2.15 31.8 1.75 32.3 1.95 L32.7 3.95 M4.2 2.5 Q4.2 4.6 2.45 4.6 L2.05 4.55 Q1.95 4.05 2.1 3.9 L1.7 3.5 Q1.7 3.05 3.35 3.05 L3.9 2.1 Q4.2 1.65 4.2 2.5 M4.3 30.1 L4.35 32.05 Q4.25 32.6 3.75 32.6 L1.6 32.45 Q1.45 32.4 1.45 32.15 2.65 30.7 3.6 30.85 L3.6 30.35 Q3.7 30.0 4.3 30.1 M31.4 30.0 L31.55 29.8 Q31.95 29.25 32.25 29.95 L32.25 30.0 32.45 31.75 32.25 32.5 31.25 32.5 30.25 32.5 29.85 32.05 30.05 31.8 31.3 31.25 31.2 30.65 31.4 30.0 32.25 30.0 31.4 30.0" fill="#660000" fill-rule="evenodd" stroke="none"/>
    <path d="M14.25 10.35 L14.65 11.0 15.25 12.25 15.25 10.75 Q15.5 9.45 16.3 8.65 L16.45 8.55 Q17.25 9.6 17.5 11.15 L17.8 12.3 18.0 12.3 17.95 12.15 18.1 10.05 20.5 8.4 22.45 7.6 Q23.5 7.95 24.25 8.75 L24.35 8.65 24.5 8.8 24.7 9.2 25.55 10.6 25.45 11.6 25.15 11.8 25.05 12.45 25.1 12.5 25.7 11.55 26.25 11.0 Q26.55 10.8 26.9 10.75 L27.05 11.3 Q26.95 11.85 27.0 12.45 L26.8 13.0 27.6 13.15 27.7 13.2 28.4 14.2 28.55 14.15 28.65 14.3 28.45 14.2 28.7 14.45 28.9 15.15 28.95 15.35 29.25 16.05 29.2 16.2 28.95 16.3 28.8 16.3 28.65 16.3 28.3 16.3 27.65 16.45 27.6 16.5 27.55 16.65 27.55 16.85 27.5 17.0 27.4 17.05 26.8 17.15 26.65 17.7 Q27.0 18.45 27.0 19.4 27.05 20.3 26.75 21.0 L27.8 22.7 28.2 23.35 Q29.0 23.25 29.5 23.85 L29.75 24.4 29.7 24.4 29.6 24.45 29.65 24.6 28.9 25.1 29.15 25.5 29.4 25.8 29.65 25.7 Q31.05 25.45 30.0 24.7 L30.05 24.65 30.5 24.7 30.9 24.9 30.9 25.75 31.15 26.0 31.25 25.7 31.4 25.7 31.9 26.95 Q32.25 27.6 32.05 28.4 L31.95 28.55 31.45 28.8 31.45 28.85 Q30.85 29.5 30.05 28.85 L29.95 29.2 29.95 29.3 Q29.85 29.85 29.25 29.6 28.25 29.8 28.0 28.7 27.4 28.7 26.85 28.3 L26.45 27.4 26.3 27.1 Q26.25 27.1 26.15 27.2 L25.6 27.35 25.65 27.65 26.1 29.2 26.3 30.0 25.7 30.0 25.55 27.85 25.55 28.15 23.65 29.55 24.1 30.0 23.45 30.0 23.1 29.6 22.8 29.55 23.15 29.2 22.0 29.55 21.9 30.0 21.65 30.0 21.85 29.6 21.2 29.55 20.7 29.95 20.4 29.95 20.25 30.0 19.25 30.0 18.95 29.95 18.95 30.0 17.85 30.0 18.45 29.7 18.45 29.6 18.4 29.6 18.4 29.55 18.0 28.65 17.8 28.95 17.8 29.05 16.9 29.35 16.85 29.35 16.9 29.3 17.65 28.9 17.6 28.75 17.65 28.7 17.65 28.6 17.85 28.5 17.4 27.75 17.0 28.25 16.95 28.25 16.5 28.5 16.1 28.6 16.85 29.35 17.5 30.0 16.5 30.0 16.25 29.85 16.1 30.0 15.0 30.0 15.45 29.65 14.7 29.1 13.35 28.55 13.25 28.85 13.0 30.0 12.05 30.0 11.95 29.55 11.85 28.65 11.55 30.0 10.75 30.0 Q11.05 28.9 11.7 27.8 L11.7 27.2 Q10.85 27.8 9.7 27.85 L10.1 26.65 10.35 25.5 10.45 25.35 10.4 25.1 10.15 25.0 9.8 24.25 8.0 25.55 8.0 26.0 7.3 26.5 6.65 26.6 5.5 25.65 Q7.1 24.45 8.65 23.2 L7.7 22.75 8.3 23.25 7.4 22.6 5.0 20.6 3.0 18.75 3.0 18.05 3.1 18.15 7.75 22.15 8.85 22.95 8.9 23.0 9.95 22.15 Q7.3 18.95 3.6 16.55 L3.0 16.15 3.0 15.95 3.7 16.35 5.1 17.25 5.35 17.4 5.4 17.4 5.65 17.55 5.45 17.4 5.3 17.1 5.3 17.0 5.15 16.7 4.95 16.5 4.6 16.1 3.0 14.4 3.0 14.1 3.5 14.65 4.5 15.7 4.35 14.7 5.0 16.05 5.15 16.2 4.95 15.8 Q4.7 15.3 4.7 14.65 L4.65 14.55 4.15 11.6 4.1 11.15 3.3 10.3 4.3 14.7 3.7 13.95 3.0 13.0 3.0 12.6 3.2 12.8 3.0 12.5 3.0 12.3 3.45 13.1 3.9 13.75 3.6 12.15 3.0 10.8 3.0 9.0 3.8 9.85 4.6 10.75 5.0 11.2 6.55 13.0 11.3 18.4 11.65 17.9 11.6 17.55 11.9 17.8 11.95 17.8 12.5 17.3 12.6 17.3 13.0 18.9 13.4 17.05 13.35 17.0 13.0 16.2 12.15 15.9 12.1 15.85 12.05 15.7 12.1 15.45 12.05 15.3 12.0 15.25 11.4 14.95 11.05 14.85 10.85 14.8 10.5 14.4 Q10.55 14.05 10.85 13.85 L10.9 13.6 11.2 13.0 11.55 12.85 12.4 12.05 12.5 12.0 13.3 12.1 13.2 11.5 13.3 10.4 Q13.3 9.95 13.55 9.85 L14.25 10.3 14.0 10.3 13.85 10.6 13.7 10.5 13.7 10.6 13.7 10.9 13.7 11.0 13.65 11.45 13.6 12.0 13.55 12.15 14.25 12.2 14.7 12.3 14.65 11.9 14.2 10.95 14.25 10.5 14.25 10.35 M26.6 11.4 L26.45 11.0 26.25 11.0 26.15 11.2 26.15 11.65 Q25.75 11.95 25.65 12.45 L25.6 12.6 25.8 12.65 25.8 12.85 25.95 12.85 26.1 12.7 26.15 12.85 26.6 13.0 26.55 12.85 26.6 12.3 26.65 11.75 26.65 11.45 26.65 11.35 26.6 11.4 M24.15 11.4 L23.95 11.45 23.8 11.5 23.3 11.6 Q22.9 11.55 22.7 11.25 L22.55 11.35 22.4 11.65 22.8 11.85 23.35 12.0 23.7 12.0 23.7 12.1 23.8 13.0 24.35 12.65 24.25 12.25 24.25 12.2 24.6 11.85 24.55 11.65 24.45 11.6 24.4 11.45 24.55 11.45 24.6 11.5 24.7 11.5 24.85 11.5 24.95 11.45 24.7 10.3 24.45 10.3 23.4 10.0 23.55 11.1 23.7 11.15 24.05 11.35 24.15 11.4 M20.55 12.2 L23.15 14.25 23.15 14.0 23.2 13.9 23.25 13.45 23.3 13.15 23.35 13.0 23.2 12.35 22.8 11.95 22.8 12.3 21.4 11.85 20.55 12.2 M24.55 10.0 L24.6 10.0 24.5 9.8 24.25 9.4 23.95 9.05 Q22.75 7.7 20.7 8.55 19.45 9.6 18.55 10.9 L18.3 11.65 18.55 11.8 18.6 12.2 19.7 12.3 21.3 14.45 21.55 14.6 23.4 15.55 23.45 15.5 22.3 13.95 22.2 13.85 21.4 13.15 19.7 12.15 20.55 10.0 Q22.0 9.2 23.55 9.6 L23.95 9.75 24.45 9.95 24.55 10.0 M23.0 10.0 L20.95 10.3 20.1 11.9 22.95 10.75 23.0 10.0 M27.15 13.3 L26.9 13.4 27.15 13.7 26.3 13.45 26.05 13.55 26.2 13.85 26.3 13.85 26.4 13.85 Q26.55 14.2 26.3 14.55 27.0 14.3 27.8 15.1 L27.8 15.05 27.8 14.5 27.85 14.15 27.65 13.8 27.15 13.3 M28.15 14.7 L28.05 15.45 Q27.25 14.9 26.3 14.65 L26.25 14.7 26.3 15.15 26.45 15.3 Q26.9 15.7 26.95 16.15 L27.25 16.45 27.25 16.35 27.35 16.2 27.4 16.1 27.55 16.0 28.1 15.85 28.55 15.75 28.55 15.7 28.4 15.15 28.15 14.7 M25.4 13.1 L25.4 13.05 25.4 12.9 24.35 13.1 24.6 13.35 24.75 15.0 25.5 14.6 25.6 14.5 25.65 14.45 25.7 14.3 25.7 14.15 25.7 14.05 25.75 14.05 25.2 13.55 25.4 13.3 25.4 13.1 M26.05 14.85 L26.0 14.85 25.8 15.05 Q25.05 15.0 24.8 15.5 L24.8 15.6 24.8 16.0 24.7 18.55 24.7 18.6 24.5 20.2 24.1 22.1 23.95 22.7 24.25 22.0 25.0 19.85 25.5 18.5 25.8 17.45 26.05 14.9 26.05 14.85 M26.1 17.9 L26.1 17.85 25.75 19.35 24.95 21.45 Q25.55 21.05 26.35 21.0 L26.25 19.3 26.2 18.0 26.1 17.9 M23.8 13.35 L23.6 13.75 23.7 14.15 23.8 13.35 M21.65 14.95 L21.95 15.3 22.6 15.65 21.65 14.95 M24.45 15.35 L24.25 13.65 23.65 15.65 22.85 16.85 22.95 17.4 22.95 17.55 23.1 18.85 23.65 18.25 23.8 18.0 24.0 17.7 Q24.55 16.65 24.45 15.35 M19.45 17.4 L19.05 18.0 17.25 19.65 17.15 20.0 17.15 20.05 18.3 19.55 Q19.3 19.2 20.25 19.55 18.9 19.4 17.65 20.05 L17.2 20.3 17.1 20.35 17.05 21.5 18.05 20.75 19.75 21.1 19.45 21.15 18.95 21.2 Q17.9 21.15 17.05 21.7 L16.85 21.95 17.75 23.0 19.35 24.3 19.9 24.65 21.05 25.2 22.55 25.7 22.55 24.95 22.0 22.3 21.6 22.25 21.2 22.15 20.85 21.85 20.35 21.4 20.25 21.25 20.85 21.6 21.4 21.95 22.1 22.25 21.95 21.5 21.95 21.4 Q21.25 18.7 19.9 16.3 L19.8 16.7 19.45 17.4 M21.3 18.25 L21.85 18.45 21.9 18.45 22.1 19.05 22.9 19.0 22.4 16.75 19.4 12.8 19.25 14.05 19.5 14.15 19.55 14.3 19.55 14.5 Q20.1 14.7 20.05 15.45 L20.0 15.85 20.1 15.95 20.2 16.0 21.3 18.25 M22.75 19.35 L22.45 19.3 22.1 19.3 21.4 18.7 22.25 21.5 22.5 22.4 22.6 22.7 22.95 24.55 24.1 18.3 23.1 19.35 22.75 19.35 M24.85 22.0 L24.7 22.75 24.4 23.25 24.2 24.0 24.1 25.0 24.1 25.35 24.0 25.75 23.95 25.8 24.7 25.85 25.25 26.7 25.2 26.4 25.1 26.1 24.9 25.1 24.35 24.45 Q24.1 24.3 24.3 24.0 L25.2 24.7 25.55 26.9 Q26.15 25.85 27.4 25.1 28.0 24.65 28.95 24.6 L29.15 24.55 Q29.25 24.2 28.55 23.9 L28.95 24.55 28.95 24.6 28.25 23.75 27.75 23.4 27.85 23.35 26.95 22.25 26.35 21.7 26.3 21.75 26.3 21.7 Q25.65 21.5 24.85 22.0 M16.7 10.15 L16.7 9.6 16.55 9.3 16.55 9.4 16.45 9.1 Q15.95 9.8 15.85 10.95 L15.8 11.55 15.45 12.75 16.55 13.0 17.05 13.15 17.25 13.15 17.65 13.3 17.45 13.0 17.2 12.55 16.9 11.55 16.7 10.15 M5.35 16.05 L5.45 16.65 5.6 17.0 6.15 17.95 Q8.35 19.65 10.0 22.1 L12.55 19.85 12.3 17.5 11.0 19.0 10.05 17.95 9.3 18.9 8.7 19.0 6.55 16.7 5.25 14.95 5.35 15.7 5.35 16.05 M9.95 17.75 L4.5 11.6 5.15 14.45 Q5.85 15.6 6.85 16.55 L8.7 18.75 Q9.5 18.75 9.85 17.85 L9.95 17.75 M9.55 23.7 L9.1 23.4 6.35 25.8 7.0 26.1 7.65 25.7 7.65 25.25 9.85 23.9 9.55 23.7 M9.6 22.9 L9.8 22.95 10.15 23.15 10.15 23.25 10.2 23.3 10.45 23.35 10.5 23.4 10.7 23.25 10.85 23.15 11.5 22.6 11.65 22.5 12.6 21.65 12.35 21.1 12.3 21.05 12.3 20.5 9.6 22.9 M9.95 23.7 L10.0 23.75 10.3 23.5 10.15 23.55 10.05 23.4 Q9.95 23.25 9.7 23.25 L9.4 23.1 9.3 23.25 9.45 23.4 9.95 23.7 M19.0 12.8 L19.0 12.7 18.95 12.7 18.55 12.75 17.95 12.9 18.1 13.5 18.9 13.85 19.0 12.8 M17.95 14.25 L16.55 13.35 16.3 13.25 15.1 12.85 16.0 13.75 16.1 13.85 16.4 13.9 17.6 14.25 17.9 14.3 17.95 14.25 M18.55 15.2 L18.4 15.15 18.3 15.1 18.2 15.0 18.0 14.85 17.75 14.7 17.65 14.65 Q16.75 14.15 15.85 14.2 14.65 14.25 13.4 15.3 L13.0 15.55 12.85 15.5 12.45 15.55 12.45 15.65 13.0 15.7 13.25 15.75 13.4 16.0 13.8 16.7 13.85 16.75 14.15 17.15 14.55 17.8 14.7 17.65 14.75 17.8 Q14.9 17.4 15.3 17.3 L16.0 16.85 16.25 16.95 16.8 17.15 17.0 17.2 17.15 17.25 17.85 17.25 18.0 17.05 18.35 17.0 18.6 16.6 18.95 16.0 19.05 15.8 19.1 15.65 19.35 15.3 19.2 15.25 18.95 15.3 18.85 15.3 18.8 15.3 Q18.75 15.2 18.55 15.2 M16.3 17.15 Q15.7 17.3 15.2 17.8 L14.9 18.05 15.6 19.3 15.3 19.5 15.4 19.85 15.5 20.0 16.25 19.7 17.0 19.35 17.25 19.15 17.85 18.75 Q18.85 18.05 19.2 16.95 L19.4 16.15 19.4 16.05 19.4 16.0 19.4 15.55 19.25 15.95 19.15 16.15 18.95 16.45 18.55 17.1 18.55 17.15 18.45 17.2 18.05 17.25 18.05 17.3 18.0 17.4 17.95 17.5 17.0 17.5 16.4 17.25 16.3 17.15 M14.55 12.5 L14.7 12.6 15.3 12.7 15.0 12.6 14.55 12.5 M15.1 13.6 L13.8 12.7 12.9 12.7 13.25 12.45 13.0 12.3 12.4 12.65 12.15 12.95 12.15 13.3 12.1 13.85 12.1 13.9 Q13.2 13.2 14.15 14.1 L14.55 13.8 14.85 13.65 15.1 13.7 15.15 13.7 15.1 13.6 M13.4 14.45 L13.95 14.15 13.85 14.1 13.65 13.85 11.75 14.15 Q11.7 13.8 11.8 13.4 L11.4 13.8 11.2 14.25 11.2 14.3 11.7 14.55 12.2 14.85 12.3 14.95 12.4 15.1 12.4 15.3 12.4 15.4 12.8 15.15 Q12.85 14.7 13.4 14.45 M11.55 12.85 L11.35 12.85 11.4 12.75 11.55 12.85 M13.75 17.55 L13.65 18.8 14.15 18.2 13.75 17.55 M12.7 21.6 L13.0 21.25 13.15 21.1 12.95 20.55 12.85 20.0 12.4 20.4 12.55 20.95 12.55 21.0 12.7 21.6 M14.65 19.55 L14.85 19.3 14.6 18.4 13.0 19.85 13.2 20.45 13.3 21.0 13.85 20.45 14.65 19.55 M13.55 21.0 L13.35 21.15 13.35 21.35 13.3 21.3 13.25 21.55 13.4 21.8 Q13.85 21.85 14.0 22.1 L14.0 22.05 14.4 22.65 14.5 22.5 14.55 22.45 14.6 22.4 14.6 22.3 14.55 22.2 14.2 21.7 13.85 21.05 13.75 20.9 13.7 20.9 13.55 21.0 M15.2 23.15 L15.2 23.1 15.25 22.9 15.35 23.0 16.15 22.0 16.45 21.45 16.7 20.8 16.85 20.45 16.85 20.2 16.95 19.85 16.4 20.15 15.65 20.7 Q15.0 20.8 14.85 20.3 L14.75 19.95 14.0 20.55 14.3 20.85 14.75 21.65 14.95 22.25 14.85 23.0 15.05 23.2 15.25 23.55 15.25 23.15 15.2 23.15 M11.3 24.45 L11.75 24.5 12.15 23.95 11.85 24.0 11.3 24.25 11.2 24.2 11.6 23.15 12.35 22.6 12.4 22.55 13.1 21.9 12.9 21.7 12.85 21.7 11.65 22.75 10.6 23.65 10.55 23.75 11.1 24.35 11.2 24.4 11.3 24.55 11.35 24.7 11.25 24.95 Q10.85 24.95 10.85 24.7 L10.5 24.05 10.45 24.0 10.35 24.1 10.7 24.75 11.0 25.05 11.7 25.55 12.3 25.95 12.4 26.0 12.6 26.1 12.6 26.15 12.85 26.0 12.9 25.9 12.95 25.85 12.85 25.8 12.45 25.6 12.15 25.4 12.05 25.4 Q12.15 25.25 12.3 25.25 L11.9 25.1 11.75 25.0 11.3 24.45 M12.55 23.45 L12.45 23.65 12.7 23.5 Q13.55 23.0 13.55 22.2 12.9 22.55 12.65 23.3 L12.55 23.45 M14.1 23.15 Q13.85 23.15 14.1 23.0 L14.0 22.85 13.95 22.75 13.65 23.3 12.05 24.9 12.15 24.95 12.35 25.05 12.7 25.05 Q13.65 24.9 14.25 23.85 L14.35 23.7 14.35 23.6 14.2 23.25 14.15 23.15 14.1 23.15 M13.1 25.45 L14.3 25.0 14.7 24.85 14.7 24.7 Q14.65 24.4 14.75 24.2 L14.85 23.85 14.75 23.85 14.35 24.55 Q13.8 25.3 13.1 25.4 L13.0 25.4 13.1 25.45 M17.0 23.0 L16.5 22.4 Q16.1 22.9 15.5 23.1 L15.7 23.4 17.0 23.0 M15.7 24.7 L15.55 25.1 15.7 25.25 16.95 24.4 18.4 24.6 18.85 25.25 19.1 24.85 18.9 24.65 17.55 23.55 16.55 23.95 15.8 24.15 15.7 24.7 M20.2 25.3 L20.15 26.0 20.4 25.4 20.2 25.3 M19.95 25.2 L19.9 25.2 Q19.1 25.75 18.75 26.7 L18.6 27.1 18.45 27.6 Q18.35 28.3 18.9 28.4 L19.9 25.55 19.95 25.2 M19.7 27.25 L19.6 27.8 19.55 27.95 19.55 28.4 19.55 28.55 20.2 28.35 20.35 27.85 20.4 27.55 20.3 27.05 20.0 26.25 19.7 27.25 M18.5 25.55 L18.05 24.9 15.85 25.35 16.35 25.75 16.9 26.3 18.15 26.7 18.5 25.55 M15.2 25.4 L14.0 26.55 14.4 27.0 14.55 26.9 14.8 26.75 15.55 26.1 15.75 25.95 15.8 25.9 15.4 25.6 15.2 25.4 M16.0 27.0 Q16.2 26.7 16.5 26.7 L15.9 26.1 15.5 26.65 15.15 26.85 14.5 27.0 14.45 27.0 15.15 27.7 15.65 27.3 16.0 27.0 M15.6 27.65 L15.25 27.75 16.05 28.55 16.55 28.25 17.0 27.85 17.25 27.55 17.05 27.25 16.55 26.75 16.3 27.1 16.0 27.4 15.6 27.65 M16.15 29.25 L15.5 28.55 15.4 29.0 15.15 28.55 15.05 28.25 15.0 28.05 14.4 27.4 14.25 27.75 14.7 28.4 14.9 28.7 14.95 28.7 Q15.5 29.4 16.15 29.25 M18.1 27.0 L17.55 27.1 18.25 28.25 18.1 27.0 M18.65 29.1 L18.7 29.25 19.7 29.55 20.15 29.55 20.85 29.3 20.85 28.8 20.4 28.4 20.7 29.3 Q20.1 29.4 20.25 28.65 L19.4 28.7 18.7 29.25 19.1 28.55 18.6 28.85 18.65 29.1 M14.1 25.75 Q13.4 26.4 12.7 26.4 L12.65 26.4 13.6 26.65 13.65 26.6 13.5 26.45 14.9 25.4 15.0 25.25 14.35 25.5 14.1 25.75 M13.75 27.0 L13.45 28.1 14.25 28.55 14.0 27.0 13.75 27.0 M10.7 25.8 Q10.25 26.3 10.5 26.85 L10.55 27.0 11.7 26.8 11.95 26.7 11.7 26.55 10.95 26.0 10.7 25.8 M12.25 27.5 L12.3 27.85 12.3 28.15 12.3 28.4 12.4 28.9 12.85 28.35 12.95 27.95 13.0 27.85 13.35 27.0 12.5 26.9 12.35 27.15 12.25 27.35 12.25 27.5 M30.7 26.35 L30.65 26.55 30.4 26.9 30.55 27.05 30.75 26.95 Q31.35 27.2 31.4 27.85 L31.45 28.25 31.65 28.05 31.35 26.9 31.15 26.55 Q30.95 26.55 30.7 26.35 M30.75 28.35 L30.4 27.85 30.35 27.35 30.25 27.05 29.9 27.3 29.9 27.35 29.95 27.6 30.05 28.05 30.1 28.25 30.35 28.55 31.1 28.7 30.95 28.55 30.7 28.4 30.75 28.35 M29.75 26.0 Q29.25 26.1 28.95 26.55 28.8 26.75 28.8 27.0 L28.95 27.05 29.0 27.1 29.2 27.1 29.65 27.0 30.5 26.1 30.35 25.75 29.75 26.0 M28.55 25.55 L28.55 25.25 27.4 25.75 Q27.0 25.85 26.6 26.1 L26.4 26.65 26.4 26.7 26.55 26.65 26.9 27.2 27.2 27.95 27.25 28.1 27.9 28.3 Q27.8 27.4 28.45 27.05 L28.5 27.0 Q28.4 26.4 28.85 26.05 L28.55 25.55 M29.25 27.5 L29.35 28.0 29.35 28.55 29.4 28.95 29.4 29.2 Q29.65 29.05 29.55 28.6 L29.45 27.85 29.5 27.45 29.25 27.5 M28.55 27.9 L28.65 27.55 Q28.25 27.85 28.35 28.4 L28.4 28.55 28.5 28.6 28.4 28.65 Q28.5 29.05 28.95 29.25 L29.1 28.9 Q29.05 28.75 28.8 28.7 L28.5 28.45 28.55 27.9 M28.95 28.1 L29.0 28.3 28.95 28.0 28.95 28.1 M23.9 25.8 L23.8 25.4 23.8 24.85 23.8 24.8 23.75 24.25 23.25 24.8 22.7 25.95 21.4 25.7 21.7 26.55 23.85 25.8 23.9 25.8 M21.8 26.85 L21.85 27.5 21.8 27.95 21.3 29.4 22.45 28.95 22.45 26.65 21.8 26.85 M20.9 25.55 L20.75 25.55 20.7 25.7 20.45 26.15 20.6 28.25 21.1 28.7 21.15 27.7 21.1 27.2 20.9 25.55 M25.0 27.55 L25.25 27.2 25.25 27.1 24.65 26.4 23.95 26.15 23.8 28.7 25.0 27.55 M23.55 26.45 L22.8 26.6 22.7 28.85 23.4 28.45 23.45 28.4 23.55 26.45" fill="#000000" fill-rule="evenodd" stroke="none"/>
    <path d="M16.1 30.0 L16.25 29.85 16.5 30.0 16.1 30.0 M21.9 30.0 L22.0 29.55 23.15 29.2 22.8 29.55 23.1 29.6 23.45 30.0 21.9 30.0 M30.05 24.65 L30.0 24.7 Q31.05 25.45 29.65 25.7 L29.4 25.8 29.15 25.5 28.9 25.1 29.65 24.6 29.6 24.45 29.7 24.4 29.75 24.4 Q30.4 24.35 30.1 24.6 L30.05 24.65 M13.55 21.0 L13.7 20.9 13.75 20.9 13.85 21.05 14.2 21.7 14.55 22.2 14.6 22.3 14.6 22.4 14.55 22.45 14.5 22.5 14.4 22.65 14.0 22.05 14.0 22.1 Q13.85 21.85 13.4 21.8 L13.25 21.55 13.3 21.3 13.35 21.35 13.35 21.15 13.55 21.0 M15.05 23.2 L15.15 23.15 15.2 23.15 15.25 23.15 15.25 23.55 15.05 23.2 M11.3 24.55 L11.2 24.4 11.1 24.35 10.55 23.75 10.6 23.65 11.65 22.75 12.85 21.7 12.9 21.7 13.1 21.9 12.4 22.55 12.35 22.6 11.6 23.15 11.2 24.2 11.3 24.25 11.85 24.0 12.15 23.95 11.75 24.5 11.3 24.45 11.3 24.55 M12.7 23.5 L12.55 23.45 12.65 23.3 Q12.9 22.55 13.55 22.2 13.55 23.0 12.7 23.5 M13.1 25.4 Q13.8 25.3 14.35 24.55 L14.75 23.85 14.85 23.85 14.75 24.2 Q14.65 24.4 14.7 24.7 L14.7 24.85 14.3 25.0 13.1 25.45 13.1 25.4 M14.1 23.15 L14.15 23.15 14.2 23.25 14.35 23.6 14.35 23.7 14.25 23.85 Q13.65 24.9 12.7 25.05 L12.35 25.05 12.15 24.95 12.05 24.9 13.65 23.3 13.95 22.75 14.0 22.85 14.1 23.0 Q13.85 23.15 14.1 23.15 M17.0 23.0 L15.7 23.4 15.5 23.1 Q16.1 22.9 16.5 22.4 L17.0 23.0 M15.7 24.7 L15.8 24.15 16.55 23.95 17.55 23.55 18.9 24.65 19.1 24.85 18.85 25.25 18.4 24.6 16.95 24.4 15.7 25.25 15.55 25.1 15.7 24.7 M18.5 25.55 L18.15 26.7 16.9 26.3 16.35 25.75 15.85 25.35 18.05 24.9 18.5 25.55 M19.7 27.25 L20.0 26.25 20.3 27.05 20.4 27.55 20.35 27.85 20.2 28.35 19.55 28.55 19.55 28.4 19.55 27.95 19.6 27.8 19.7 27.25 M28.55 27.9 L28.5 28.45 28.8 28.7 Q29.05 28.75 29.1 28.9 L28.95 29.25 Q28.5 29.05 28.4 28.65 L28.5 28.6 28.4 28.55 28.35 28.4 Q28.25 27.85 28.65 27.55 L28.55 27.9 M29.25 27.5 L29.5 27.45 29.45 27.85 29.55 28.6 Q29.65 29.05 29.4 29.2 L29.4 28.95 29.35 28.55 29.35 28.0 29.25 27.5 M28.55 25.55 L28.85 26.05 Q28.4 26.4 28.5 27.0 L28.45 27.05 Q27.8 27.4 27.9 28.3 L27.25 28.1 27.2 27.95 26.9 27.2 26.55 26.65 26.4 26.7 26.4 26.65 26.6 26.1 Q27.0 25.85 27.4 25.75 L28.55 25.25 28.55 25.55 M29.75 26.0 L30.35 25.75 30.5 26.1 29.65 27.0 29.2 27.1 29.0 27.1 28.95 27.05 28.8 27.0 Q28.8 26.75 28.95 26.55 29.25 26.1 29.75 26.0 M30.75 28.35 L30.7 28.4 30.95 28.55 31.1 28.7 30.35 28.55 30.1 28.25 30.05 28.05 29.95 27.6 29.9 27.35 29.9 27.3 30.25 27.05 30.35 27.35 30.4 27.85 30.75 28.35 M30.7 26.35 Q30.95 26.55 31.15 26.55 L31.35 26.9 31.65 28.05 31.45 28.25 31.4 27.85 Q31.35 27.2 30.75 26.95 L30.55 27.05 30.4 26.9 30.65 26.55 30.7 26.35 M23.9 25.8 L23.85 25.8 21.7 26.55 21.4 25.7 22.7 25.95 23.25 24.8 23.75 24.25 23.8 24.8 23.8 24.85 23.8 25.4 23.9 25.8" fill="#32363d" fill-rule="evenodd" stroke="none"/>
    <path d="M14.2 10.95 L14.65 11.9 14.7 12.3 14.25 12.2 13.55 12.15 13.6 12.0 13.65 11.45 13.7 11.0 13.8 11.7 14.0 11.65 14.2 10.95 M13.7 10.9 L13.7 10.6 13.85 10.6 13.7 10.9 M11.55 30.0 L11.85 28.65 11.95 29.55 12.05 30.0 11.55 30.0 M13.0 30.0 L13.25 28.85 13.35 28.55 14.7 29.1 15.45 29.65 15.0 30.0 13.0 30.0 M20.25 30.0 L20.4 29.95 20.7 29.95 21.2 29.55 21.85 29.6 21.65 30.0 20.25 30.0 M24.1 30.0 L23.65 29.55 25.55 28.15 25.55 27.85 25.7 30.0 24.1 30.0 M26.65 11.45 L26.65 11.75 26.6 12.3 26.55 12.85 26.6 13.0 26.15 12.85 26.1 12.7 25.95 12.85 25.8 12.85 25.8 12.65 25.6 12.6 25.65 12.45 Q25.75 11.95 26.15 11.65 L26.25 12.35 26.45 12.5 26.6 11.85 26.6 11.45 26.65 11.45 M24.15 11.4 L24.05 11.35 23.7 11.15 23.55 11.1 23.4 10.0 24.45 10.3 24.7 10.3 24.95 11.45 24.85 11.5 24.7 11.5 24.6 11.5 24.55 11.45 24.4 11.45 24.25 11.3 24.15 11.4 M23.0 10.0 L22.95 10.75 20.1 11.9 20.95 10.3 23.0 10.0 M24.55 10.0 L24.45 9.95 23.95 9.75 23.55 9.6 Q22.0 9.2 20.55 10.0 L19.7 12.15 21.4 13.15 22.2 13.85 22.3 13.95 23.45 15.5 23.4 15.55 21.55 14.6 21.3 14.45 19.7 12.3 18.6 12.2 18.55 11.8 18.3 11.65 18.55 10.9 Q19.45 9.6 20.7 8.55 22.75 7.7 23.95 9.05 L24.25 9.4 24.5 9.8 24.6 10.0 24.55 10.0 M20.55 12.2 L21.4 11.85 22.8 12.3 22.8 11.95 23.2 12.35 23.35 13.0 23.3 13.15 23.25 13.45 23.2 13.9 23.15 14.0 23.15 14.25 20.55 12.2 M28.15 14.7 L28.4 15.15 28.55 15.7 28.55 15.75 28.1 15.85 27.55 16.0 27.4 16.1 27.35 16.2 27.25 16.35 27.25 16.45 26.95 16.15 Q26.9 15.7 26.45 15.3 L26.3 15.15 26.25 14.7 26.3 14.65 Q27.25 14.9 28.05 15.45 L28.15 14.7 M27.15 13.3 L27.65 13.8 27.85 14.15 27.8 14.5 27.8 15.05 27.8 15.1 Q27.0 14.3 26.3 14.55 26.55 14.2 26.4 13.85 L26.3 13.85 26.2 13.85 26.05 13.55 26.3 13.45 27.15 13.7 26.9 13.4 27.15 13.3 M26.05 14.85 L26.05 14.9 25.8 17.45 25.5 18.5 25.0 19.85 24.25 22.0 23.95 22.7 24.1 22.1 24.5 20.2 24.7 18.6 24.7 18.55 24.8 16.0 24.8 15.6 24.8 15.5 Q25.05 15.0 25.8 15.05 L26.0 14.85 26.05 14.85 M25.45 16.55 L25.6 15.9 25.4 15.4 25.15 15.8 25.0 16.15 25.2 16.7 25.45 16.55 M25.75 19.35 L26.1 20.0 26.3 19.8 26.15 18.5 26.1 17.9 26.2 18.0 26.25 19.3 26.35 21.0 Q25.55 21.05 24.95 21.45 L25.75 19.35 M19.45 17.4 L20.1 18.55 20.35 18.45 20.35 18.3 20.15 17.7 19.8 16.7 19.9 16.3 Q21.25 18.7 21.95 21.4 L21.95 21.5 22.1 22.25 21.4 21.95 20.85 21.6 20.25 21.25 20.35 21.4 20.85 21.85 21.2 22.15 21.6 22.25 22.0 22.3 22.55 24.95 22.55 25.7 21.05 25.2 19.9 24.65 19.35 24.3 17.75 23.0 16.85 21.95 17.05 21.7 Q17.9 21.15 18.95 21.2 L19.45 21.15 19.75 21.1 18.05 20.75 17.05 21.5 17.1 20.35 17.2 20.3 17.65 20.05 Q18.9 19.4 20.25 19.55 19.3 19.2 18.3 19.55 L17.15 20.05 17.15 20.0 17.25 19.65 19.05 18.0 19.45 17.4 M23.4 20.05 L23.4 19.95 23.4 19.85 23.55 19.75 23.45 19.55 22.6 19.55 22.55 19.7 22.25 19.8 22.25 19.95 22.55 20.15 22.7 21.15 Q22.7 21.85 22.95 22.1 L23.05 22.1 23.25 21.85 23.2 21.65 23.25 21.3 23.25 21.1 23.4 20.25 23.4 20.05 M22.75 19.35 L23.1 19.35 24.1 18.3 22.95 24.55 22.6 22.7 22.5 22.4 22.25 21.5 21.4 18.7 22.1 19.3 22.45 19.3 22.75 19.35 M24.85 22.2 L25.05 22.6 25.6 22.45 26.25 22.4 26.45 22.55 26.55 22.65 27.25 23.7 28.05 24.7 28.3 24.55 28.3 24.4 27.4 22.9 Q27.05 22.3 26.65 22.25 L25.9 22.0 24.85 22.2 M24.85 22.0 Q25.65 21.5 26.3 21.7 L26.3 21.75 26.35 21.7 26.95 22.25 27.85 23.35 27.75 23.4 28.25 23.75 28.95 24.6 28.95 24.55 28.55 23.9 Q29.25 24.2 29.15 24.55 L28.95 24.6 Q28.0 24.65 27.4 25.1 26.15 25.85 25.55 26.9 L25.2 24.7 24.3 24.0 Q24.1 24.3 24.35 24.45 L24.9 25.1 25.1 26.1 25.2 26.4 25.25 26.7 24.7 25.85 23.95 25.8 24.0 25.75 24.1 25.35 24.1 25.0 24.2 24.0 24.4 23.25 24.7 22.75 24.85 22.0 M16.7 10.15 L16.9 11.55 17.2 12.55 17.45 13.0 17.65 13.3 17.25 13.15 17.05 13.15 16.55 13.0 15.45 12.75 15.8 11.55 15.85 10.95 Q15.95 9.8 16.45 9.1 L16.55 9.4 16.4 9.6 16.3 9.6 16.1 10.0 15.8 11.55 15.9 11.85 16.25 11.8 16.25 11.75 16.35 11.7 16.45 11.0 16.6 10.45 16.7 10.15 M18.85 15.3 L18.95 15.3 19.2 15.25 19.35 15.3 19.1 15.65 19.05 15.8 18.95 16.0 18.6 16.6 18.35 17.0 18.0 17.05 17.85 17.25 17.15 17.25 17.0 17.2 16.8 17.15 16.25 16.95 16.0 16.85 15.3 17.3 Q14.9 17.4 14.75 17.8 L14.7 17.65 14.55 17.8 14.15 17.15 13.85 16.75 13.8 16.7 13.4 16.0 13.25 15.75 13.0 15.7 12.45 15.65 12.45 15.55 12.85 15.5 13.0 15.55 13.4 15.3 Q14.65 14.25 15.85 14.2 16.75 14.15 17.65 14.65 L17.75 14.7 18.0 14.85 18.2 15.0 18.3 15.1 18.4 15.15 18.55 15.2 18.45 15.2 16.3 14.55 Q14.1 14.15 14.0 15.5 L14.0 15.7 14.2 15.75 14.65 15.35 16.25 15.2 16.95 15.5 18.05 15.8 Q18.55 15.85 18.85 15.3 M17.95 14.25 L17.9 14.3 17.6 14.25 16.4 13.9 16.1 13.85 16.0 13.75 15.1 12.85 16.3 13.25 16.55 13.35 17.95 14.25 M15.75 18.15 L16.25 17.95 16.75 17.55 16.55 17.35 15.5 17.95 15.55 18.15 15.75 18.15 M16.3 17.15 L16.4 17.25 17.0 17.5 17.95 17.5 18.0 17.4 18.05 17.3 18.05 17.25 18.45 17.2 18.55 17.15 18.55 17.1 18.95 16.45 19.15 16.15 19.25 15.95 19.4 15.55 19.4 16.0 19.4 16.05 19.4 16.15 19.2 16.95 Q18.85 18.05 17.85 18.75 L17.25 19.15 17.0 19.35 16.25 19.7 15.5 20.0 15.4 19.85 15.3 19.5 15.6 19.3 14.9 18.05 15.2 17.8 Q15.7 17.3 16.3 17.15 M15.1 13.7 L14.85 13.65 14.55 13.8 14.15 14.1 Q13.2 13.2 12.1 13.9 L12.1 13.85 12.15 13.3 12.15 12.95 12.4 12.65 13.0 12.3 13.25 12.45 12.9 12.7 13.8 12.7 15.1 13.6 15.1 13.7 M13.4 14.45 Q12.85 14.7 12.8 15.15 L12.4 15.4 12.4 15.3 12.4 15.1 12.3 14.95 12.2 14.85 11.7 14.55 11.2 14.3 11.2 14.25 11.4 13.8 11.8 13.4 Q11.7 13.8 11.75 14.15 L13.65 13.85 13.85 14.1 13.95 14.15 13.4 14.45 M13.75 17.55 L14.15 18.2 13.65 18.8 13.75 17.55 M15.05 23.2 L14.85 23.0 14.95 22.25 14.75 21.65 14.3 20.85 14.0 20.55 14.75 19.95 14.85 20.3 Q15.0 20.8 15.65 20.7 L16.4 20.15 16.95 19.85 16.85 20.2 16.85 20.45 16.7 20.8 16.45 21.45 16.15 22.0 15.35 23.0 15.25 22.9 15.2 23.1 15.2 23.15 15.15 23.15 15.05 23.2 M11.3 24.55 L11.3 24.45 11.75 25.0 11.9 25.1 12.3 25.25 Q12.15 25.25 12.05 25.4 L12.15 25.4 12.45 25.6 12.85 25.8 12.95 25.85 12.9 25.9 12.85 26.0 12.6 26.15 12.6 26.1 12.4 26.0 12.3 25.95 11.7 25.55 11.0 25.05 10.7 24.75 10.35 24.1 10.5 24.05 10.85 24.7 Q10.85 24.95 11.25 24.95 L11.35 24.7 11.3 24.55 M13.1 25.4 L13.1 25.45 13.0 25.4 13.1 25.4 M19.95 25.2 L19.9 25.55 18.9 28.4 Q18.35 28.3 18.45 27.6 L18.6 27.1 18.75 26.7 Q19.1 25.75 19.9 25.2 L19.95 25.2 M20.2 25.3 L20.4 25.4 20.15 26.0 20.2 25.3 M16.15 29.25 Q15.5 29.4 14.95 28.7 L14.9 28.7 14.7 28.4 14.25 27.75 14.4 27.4 15.0 28.05 15.05 28.25 15.15 28.55 15.4 29.0 15.5 28.55 16.15 29.25 M18.65 29.1 L18.6 28.85 19.1 28.55 18.7 29.25 19.4 28.7 20.25 28.65 Q20.1 29.4 20.7 29.3 L20.4 28.4 20.85 28.8 20.85 29.3 20.15 29.55 19.7 29.55 18.7 29.25 18.65 29.1 M18.1 27.0 L18.25 28.25 17.55 27.1 18.1 27.0 M12.25 27.5 L12.25 27.35 12.35 27.15 12.5 26.9 13.35 27.0 13.0 27.85 12.95 27.95 12.85 28.35 12.4 28.9 12.3 28.4 12.3 28.15 12.3 27.85 12.25 27.5 M10.7 25.8 L10.95 26.0 11.7 26.55 11.95 26.7 11.7 26.8 10.55 27.0 10.5 26.85 Q10.25 26.3 10.7 25.8 M13.75 27.0 L14.0 27.0 14.25 28.55 13.45 28.1 13.75 27.0 M14.1 25.75 L14.35 25.5 15.0 25.25 14.9 25.4 13.5 26.45 13.65 26.6 13.6 26.65 12.65 26.4 12.7 26.4 Q13.4 26.4 14.1 25.75 M23.55 26.45 L23.45 28.4 23.4 28.45 22.7 28.85 22.8 26.6 23.55 26.45 M25.0 27.55 L23.8 28.7 23.95 26.15 24.65 26.4 25.25 27.1 25.25 27.2 25.0 27.55 M20.9 25.55 L21.1 27.2 21.15 27.7 21.1 28.7 20.6 28.25 20.45 26.15 20.7 25.7 20.75 25.55 20.9 25.55 M21.8 26.85 L22.45 26.65 22.45 28.95 21.3 29.4 21.8 27.95 21.85 27.5 21.8 26.85" fill="#535964" fill-rule="evenodd" stroke="none"/>
    <path d="M14.25 10.35 L14.25 10.5 14.2 10.95 14.0 11.65 13.8 11.7 13.7 11.0 13.7 10.9 13.85 10.6 14.0 10.3 14.25 10.3 14.25 10.35 M26.25 11.0 L26.45 11.0 26.6 11.4 26.6 11.45 26.6 11.85 26.45 12.5 26.25 12.35 26.15 11.65 26.15 11.2 26.25 11.0 M25.45 16.55 L25.2 16.7 25.0 16.15 25.15 15.8 25.4 15.4 25.6 15.9 25.45 16.55 M25.75 19.35 L26.1 17.85 26.1 17.9 26.15 18.5 26.3 19.8 26.1 20.0 25.75 19.35 M19.8 16.7 L20.15 17.7 20.35 18.3 20.35 18.45 20.1 18.55 19.45 17.4 19.8 16.7 M24.85 22.2 L25.9 22.0 26.65 22.25 Q27.05 22.3 27.4 22.9 L28.3 24.4 28.3 24.55 28.05 24.7 27.25 23.7 26.55 22.65 26.45 22.55 26.25 22.4 25.6 22.45 25.05 22.6 24.85 22.2 M16.55 9.4 L16.55 9.3 16.7 9.6 16.7 10.15 16.6 10.45 16.45 11.0 16.35 11.7 16.25 11.75 16.25 11.8 15.9 11.85 15.8 11.55 16.1 10.0 16.3 9.6 16.4 9.6 16.55 9.4 M18.85 15.3 Q18.55 15.85 18.05 15.8 L16.95 15.5 16.25 15.2 14.65 15.35 14.2 15.75 14.0 15.7 14.0 15.5 Q14.1 14.15 16.3 14.55 L18.45 15.2 18.55 15.2 Q18.75 15.2 18.8 15.3 L18.85 15.3 M15.75 18.15 L15.55 18.15 15.5 17.95 16.55 17.35 16.75 17.55 16.25 17.95 15.75 18.15" fill="#c4c8cc" fill-rule="evenodd" stroke="none"/>
    <path d="M25.4 13.1 L25.4 13.3 25.2 13.55 25.75 14.05 25.7 14.05 25.7 14.15 25.7 14.3 25.65 14.45 25.6 14.5 25.5 14.6 24.75 15.0 24.6 13.35 24.35 13.1 25.4 12.9 25.4 13.05 25.4 13.1 M24.45 15.35 Q24.55 16.65 24.0 17.7 L23.8 18.0 23.65 18.25 23.1 18.85 22.95 17.55 22.95 17.4 22.85 16.85 23.65 15.65 24.25 13.65 24.45 15.35 M21.65 14.95 L22.6 15.65 21.95 15.3 21.65 14.95 M21.3 18.25 L20.2 16.0 20.1 15.95 20.0 15.85 20.05 15.45 Q20.1 14.7 19.55 14.5 L19.55 14.3 19.5 14.15 19.25 14.05 19.4 12.8 22.4 16.75 22.9 19.0 22.1 19.05 21.9 18.45 21.85 18.45 21.3 18.25 M19.0 12.8 L18.9 13.85 18.1 13.5 17.95 12.9 18.55 12.75 18.95 12.7 19.0 12.7 19.0 12.8" fill="#8f7e7e" fill-rule="evenodd" stroke="none"/>
    <path d="M24.4 11.45 L24.45 11.6 24.55 11.65 24.6 11.85 24.25 12.2 24.25 12.25 24.35 12.65 23.8 13.0 23.7 12.1 23.7 12.0 23.35 12.0 22.8 11.85 22.4 11.65 22.55 11.35 22.7 11.25 Q22.9 11.55 23.3 11.6 L23.8 11.5 23.95 11.45 24.15 11.4 24.25 11.3 24.4 11.45 M23.8 13.35 L23.7 14.15 23.6 13.75 23.8 13.35 M23.4 20.05 L23.4 20.25 23.25 21.1 23.25 21.3 23.2 21.65 23.25 21.85 23.05 22.1 22.95 22.1 Q22.7 21.85 22.7 21.15 L22.55 20.15 22.25 19.95 22.25 19.8 22.55 19.7 22.6 19.55 23.45 19.55 23.55 19.75 23.4 19.85 23.4 19.95 23.4 20.05" fill="#ff0000" fill-rule="evenodd" stroke="none"/>
    <path d="M3.0 10.8 L3.6 12.15 3.9 13.75 3.45 13.1 3.0 12.3 3.0 10.8 M3.0 12.5 L3.2 12.8 3.0 12.6 3.0 12.5 M3.0 14.4 L4.6 16.1 4.95 16.5 5.15 16.7 5.3 17.0 5.1 17.25 3.7 16.35 3.0 15.95 3.0 14.4 M5.45 17.4 L5.65 17.55 5.4 17.4 5.45 17.4 M3.0 16.15 L3.6 16.55 Q7.3 18.95 9.95 22.15 L8.9 23.0 8.85 22.95 7.75 22.15 3.1 18.15 3.0 18.05 3.0 16.15 M5.35 16.05 L5.35 15.7 5.25 14.95 6.55 16.7 8.7 19.0 9.3 18.9 10.05 17.95 11.0 19.0 12.3 17.5 12.55 19.85 10.0 22.1 Q8.35 19.65 6.15 17.95 L5.6 17.0 5.45 16.65 5.35 16.05 M9.95 17.75 L9.85 17.85 Q9.5 18.75 8.7 18.75 L6.85 16.55 Q5.85 15.6 5.15 14.45 L4.5 11.6 9.95 17.75 M9.6 22.9 L12.3 20.5 12.3 21.05 12.35 21.1 12.6 21.65 11.65 22.5 11.5 22.6 10.85 23.15 10.7 23.25 10.5 23.4 10.45 23.35 10.2 23.3 10.15 23.25 10.15 23.15 9.8 22.95 9.6 22.9 M9.55 23.7 L9.85 23.9 7.65 25.25 7.65 25.7 7.0 26.1 6.35 25.8 9.1 23.4 9.55 23.7 M9.95 23.7 L9.45 23.4 9.3 23.25 9.4 23.1 9.7 23.25 Q9.95 23.25 10.05 23.4 L10.15 23.55 10.3 23.5 10.0 23.75 9.95 23.7 M14.65 19.55 L13.85 20.45 13.3 21.0 13.2 20.45 13.0 19.85 14.6 18.4 14.85 19.3 14.65 19.55 M12.7 21.6 L12.55 21.0 12.55 20.95 12.4 20.4 12.85 20.0 12.95 20.55 13.15 21.1 13.0 21.25 12.7 21.6" fill="#a2a7b0" fill-rule="evenodd" stroke="none"/>
    <path d="M3.0 13.0 L3.7 13.95 4.3 14.7 3.3 10.3 4.1 11.15 4.15 11.6 4.65 14.55 4.7 14.65 Q4.7 15.3 4.95 15.8 L5.15 16.2 5.0 16.05 4.35 14.7 4.5 15.7 3.5 14.65 3.0 14.1 3.0 13.0" fill="#727987" fill-rule="evenodd" stroke="none"/>
    <path d="M17.5 30.0 L16.85 29.35 16.1 28.6 16.5 28.5 16.95 28.25 17.0 28.25 17.4 27.75 17.85 28.5 17.65 28.6 17.65 28.7 17.6 28.75 17.65 28.9 16.9 29.3 16.85 29.35 16.9 29.35 17.8 29.05 17.8 28.95 18.0 28.65 18.4 29.55 18.4 29.6 18.45 29.6 18.45 29.7 17.85 30.0 17.5 30.0 M16.0 27.0 L15.65 27.3 15.15 27.7 14.45 27.0 14.5 27.0 15.15 26.85 15.5 26.65 15.9 26.1 16.5 26.7 Q16.2 26.7 16.0 27.0 M15.2 25.4 L15.4 25.6 15.8 25.9 15.75 25.95 15.55 26.1 14.8 26.75 14.55 26.9 14.4 27.0 14.0 26.55 15.2 25.4 M15.6 27.65 L16.0 27.4 16.3 27.1 16.55 26.75 17.05 27.25 17.25 27.55 17.0 27.85 16.55 28.25 16.05 28.55 15.25 27.75 15.6 27.65" fill="#5a616b" fill-rule="evenodd" stroke="none"/>
    <path d="M10.5 14.4 L10.85 14.8 12.35 16.3 Q12.75 16.6 12.8 17.05 L12.75 17.1 12.6 17.3 12.5 17.3 11.95 17.8 11.9 17.8 11.6 17.55 10.1 15.9 Q9.1 14.5 7.55 13.6 L7.3 13.0 6.1 12.0 4.6 10.1 4.3 9.45 3.0 8.45 3.0 7.95 4.45 9.5 6.6 11.9 7.55 12.7 9.6 14.95 11.6 17.1 11.85 17.15 12.3 16.95 12.2 16.85 6.95 11.25 4.5 8.5 3.0 6.9 3.0 6.4 4.15 7.75 Q5.35 9.3 6.9 10.5 L7.45 10.8 9.5 13.2 10.5 14.4" fill="#ff2828" fill-rule="evenodd" stroke="none"/>
    <path d="M3.0 6.9 L4.5 8.5 6.95 11.25 12.2 16.85 12.3 16.95 11.85 17.15 11.6 17.1 9.6 14.95 7.55 12.7 6.6 11.9 4.45 9.5 3.0 7.95 3.0 6.9" fill="#fff2f2" fill-rule="evenodd" stroke="none"/>
  </g>
</svg>
