<?xml version="1.0" encoding="UTF-8" standalone="no"?>
<svg xmlns:xlink="http://www.w3.org/1999/xlink" height="24.3px" width="17.95px" xmlns="http://www.w3.org/2000/svg">
  <g transform="matrix(1.0, 0.0, 0.0, 1.0, -5.9, -1.1)">
    <path d="M20.9 2.75 L20.95 3.05 21.0 3.55 19.95 4.3 Q19.2 5.15 19.0 6.05 L18.2 5.75 17.65 5.55 Q18.2 5.45 18.9 4.65 L19.55 3.85 20.85 2.75 20.9 2.75 M22.0 2.95 L22.65 2.7 22.75 2.75 22.85 2.8 23.15 3.4 23.1 3.45 22.85 3.65 22.35 3.2 22.0 2.95 M21.15 5.25 L20.9 5.3 20.3 5.9 20.3 5.75 20.9 4.95 21.15 5.25 M20.7 4.25 L20.75 4.25 20.55 4.65 19.9 5.5 19.9 5.8 19.9 6.3 19.9 6.4 19.05 6.05 19.15 6.0 19.7 5.55 20.7 4.25 M22.4 3.95 L22.5 4.05 22.55 4.45 22.05 4.05 21.35 3.55 21.35 3.1 21.3 2.9 22.4 3.95 M15.6 15.25 L15.5 15.45 15.45 15.9 13.25 17.25 12.6 17.8 12.85 17.35 Q13.25 16.55 13.25 15.65 L13.15 13.45 13.8 14.15 Q14.5 14.3 14.9 14.7 L15.6 15.25 M15.9 15.45 L15.95 15.4 16.2 15.55 16.3 15.85 17.05 19.35 Q17.25 20.9 18.15 21.4 L16.95 23.5 Q16.5 23.8 16.05 24.2 L15.55 24.75 14.55 24.6 13.95 24.65 13.55 24.2 12.6 23.8 12.4 23.75 11.95 23.05 Q11.7 22.35 11.25 21.95 10.75 21.4 10.65 20.65 L10.65 20.55 11.55 19.4 12.75 18.5 Q13.8 17.3 15.2 16.8 15.25 16.45 15.55 16.35 L15.8 16.05 15.85 15.95 Q15.75 15.65 15.9 15.45 M6.4 20.95 L7.65 18.45 Q9.1 15.9 11.45 14.4 L12.7 13.1 12.8 13.6 Q13.15 14.75 12.85 15.8 12.15 18.15 10.75 19.95 L10.55 20.05 10.35 20.1 10.35 20.15 Q8.4 20.35 6.65 21.35 L6.6 21.25 6.5 21.15 6.4 20.95 M14.6 8.95 L14.55 9.0 14.15 8.95 14.2 8.85 14.3 8.6 14.55 8.85 14.6 8.95 M13.45 4.5 L13.5 5.65 13.6 6.35 Q13.1 7.2 12.85 8.1 L12.9 6.65 Q12.95 5.55 13.45 4.5 M17.05 2.45 L17.0 2.6 16.7 2.95 16.65 2.95 16.55 3.45 16.2 4.85 16.2 5.25 15.15 5.2 16.0 3.65 Q16.55 2.85 17.05 2.45 M21.85 6.9 Q21.95 10.4 20.9 14.25 20.05 17.5 18.55 20.6 L18.35 20.95 18.0 20.35 17.2 17.7 16.55 15.2 15.85 14.8 16.4 13.0 16.7 11.6 17.2 10.45 Q18.05 9.85 18.95 9.75 20.55 9.4 20.05 8.65 L19.9 8.7 Q18.25 8.9 17.2 9.95 16.25 10.85 15.9 12.45 15.6 13.75 15.7 14.8 L14.55 14.05 13.05 12.75 12.9 11.75 12.9 10.0 Q13.0 8.5 13.7 7.1 L14.05 8.25 14.05 8.3 13.8 8.85 Q13.6 9.2 13.9 9.45 L14.4 9.55 14.75 9.15 14.75 9.1 15.3 9.45 15.2 9.7 Q15.2 10.2 15.6 10.0 L15.7 9.6 16.85 9.6 15.2 8.45 13.8 6.9 14.05 6.55 14.15 6.5 14.1 6.35 14.45 5.85 16.35 5.8 16.4 5.9 16.45 5.85 17.85 6.3 19.7 6.6 19.75 6.7 20.2 7.1 Q21.1 7.5 21.85 6.9 M21.4 6.3 L21.3 6.65 20.25 6.45 20.8 6.2 Q21.2 5.95 21.65 5.85 L21.4 6.3 M22.65 5.05 L22.05 4.95 Q21.6 4.6 21.15 4.7 L21.35 4.25 21.6 4.5 Q22.1 4.95 22.65 5.05" fill="#32363d" fill-rule="evenodd" stroke="none"/>
    <path d="M22.0 2.95 L22.35 3.2 22.85 3.65 23.1 3.45 23.15 3.4 22.85 2.8 22.75 2.75 22.65 2.7 22.0 2.95 M20.9 2.75 L20.85 2.75 19.55 3.85 18.9 4.65 Q18.2 5.45 17.65 5.55 L18.2 5.75 19.0 6.05 Q19.2 5.15 19.95 4.3 L21.0 3.55 20.95 3.05 20.9 2.75 M21.25 2.45 L21.35 2.3 22.8 2.45 Q23.55 2.65 23.85 3.3 L23.75 3.35 23.45 3.6 23.4 3.65 23.4 4.45 23.5 4.6 23.35 4.6 23.25 4.75 Q23.55 4.85 23.3 5.1 23.05 5.35 23.05 5.7 L23.0 5.8 22.1 5.75 22.05 5.8 21.65 6.4 21.65 6.65 21.7 6.75 21.85 6.75 21.85 6.55 21.9 6.75 21.95 6.8 Q22.55 9.05 22.0 11.85 21.05 16.8 18.85 21.15 L18.9 21.15 18.65 21.6 18.6 21.6 18.2 22.3 15.95 25.05 16.0 25.1 15.7 25.4 15.55 25.35 15.0 25.25 13.45 24.65 12.15 24.2 11.9 23.8 Q11.55 22.9 10.95 22.35 L10.3 21.1 10.25 20.45 Q8.3 21.25 6.35 21.5 L5.95 21.25 5.9 21.0 Q6.9 18.95 8.25 17.2 9.8 15.2 11.65 13.6 L12.6 12.8 Q12.2 10.75 12.65 8.8 L12.7 8.75 Q12.25 7.95 12.45 6.5 L13.05 4.25 13.5 3.65 13.8 3.2 Q14.15 3.85 14.0 4.85 L13.95 5.75 14.3 5.3 14.9 5.2 Q14.9 4.25 15.75 3.25 16.7 2.05 17.9 1.1 18.55 1.3 17.9 2.15 L17.05 3.2 16.8 4.15 16.6 5.3 17.2 5.45 18.7 3.9 Q19.65 3.05 20.7 2.3 L21.25 2.45 M22.4 3.95 L21.3 2.9 21.35 3.1 21.35 3.55 22.05 4.05 22.55 4.45 22.5 4.05 22.4 3.95 M20.7 4.25 L19.7 5.55 19.15 6.0 19.05 6.05 19.9 6.4 19.9 6.3 19.9 5.8 19.9 5.5 20.55 4.65 20.75 4.25 20.7 4.25 M21.15 5.25 L20.9 4.95 20.3 5.75 20.3 5.9 20.9 5.3 21.15 5.25 M22.65 5.5 L22.75 5.3 22.6 5.35 22.55 5.4 22.65 5.5 M22.65 5.05 Q22.1 4.95 21.6 4.5 L21.35 4.25 21.15 4.7 Q21.6 4.6 22.05 4.95 L22.65 5.05 M21.4 6.3 L21.65 5.85 Q21.2 5.95 20.8 6.2 L20.25 6.45 21.3 6.65 21.4 6.3 M21.85 6.9 Q21.1 7.5 20.2 7.1 L19.75 6.7 19.7 6.6 17.85 6.3 16.45 5.85 16.4 5.9 16.35 5.8 14.45 5.85 14.1 6.35 14.15 6.5 14.05 6.55 13.8 6.9 15.2 8.45 16.85 9.6 15.7 9.6 15.6 10.0 Q15.2 10.2 15.2 9.7 L15.3 9.45 14.75 9.1 14.75 9.15 14.4 9.55 13.9 9.45 Q13.6 9.2 13.8 8.85 L14.05 8.3 14.05 8.25 13.7 7.1 Q13.0 8.5 12.9 10.0 L12.9 11.75 13.05 12.75 14.55 14.05 15.7 14.8 Q15.6 13.75 15.9 12.45 16.25 10.85 17.2 9.95 18.25 8.9 19.9 8.7 L20.05 8.65 Q20.55 9.4 18.95 9.75 18.05 9.85 17.2 10.45 L16.7 11.6 16.4 13.0 15.85 14.8 16.55 15.2 17.2 17.7 18.0 20.35 18.35 20.95 18.55 20.6 Q20.05 17.5 20.9 14.25 21.95 10.4 21.85 6.9 M17.05 2.45 Q16.55 2.85 16.0 3.65 L15.15 5.2 16.2 5.25 16.2 4.85 16.55 3.45 16.65 2.95 16.7 2.95 17.0 2.6 17.05 2.45 M13.45 4.5 Q12.95 5.55 12.9 6.65 L12.85 8.1 Q13.1 7.2 13.6 6.35 L13.5 5.65 13.45 4.5 M14.6 8.95 L14.55 8.85 14.3 8.6 14.2 8.85 14.15 8.95 14.55 9.0 14.6 8.95 M6.4 20.95 L6.5 21.15 6.6 21.25 6.65 21.35 Q8.4 20.35 10.35 20.15 L10.35 20.1 10.55 20.05 10.75 19.95 Q12.15 18.15 12.85 15.8 13.15 14.75 12.8 13.6 L12.7 13.1 11.45 14.4 Q9.1 15.9 7.65 18.45 L6.4 20.95 M15.9 15.45 Q15.75 15.65 15.85 15.95 L15.8 16.05 15.55 16.35 Q15.25 16.45 15.2 16.8 13.8 17.3 12.75 18.5 L11.55 19.4 10.65 20.55 10.65 20.65 Q10.75 21.4 11.25 21.95 11.7 22.35 11.95 23.05 L12.4 23.75 12.6 23.8 13.55 24.2 13.95 24.65 14.55 24.6 15.55 24.75 16.05 24.2 Q16.5 23.8 16.95 23.5 L18.15 21.4 Q17.25 20.9 17.05 19.35 L16.3 15.85 16.2 15.55 15.95 15.4 15.9 15.45 M15.6 15.25 L14.9 14.7 Q14.5 14.3 13.8 14.15 L13.15 13.45 13.25 15.65 Q13.25 16.55 12.85 17.35 L12.6 17.8 13.25 17.25 15.45 15.9 15.5 15.45 15.6 15.25" fill="#000000" fill-rule="evenodd" stroke="none"/>
    <path d="M14.9 6.5 Q14.9 5.55 16.5 6.0 L18.45 6.75 18.45 7.05 18.05 7.2 17.0 6.9 16.75 7.15 Q16.45 7.55 16.65 8.0 L16.35 8.4 15.9 8.0 15.65 8.1 Q14.9 6.9 14.9 6.55 L14.9 6.5 M16.2 6.95 L16.25 6.9 16.45 6.75 16.1 6.65 16.2 6.95 M17.5 11.75 L17.45 11.5 17.65 11.05 17.9 10.65 17.85 10.4 Q17.85 9.9 19.7 9.8 L19.7 9.75 20.0 10.05 18.3 10.7 18.3 10.9 Q18.3 11.45 17.7 11.85 L17.5 11.75 M7.6 19.05 L7.5 18.75 Q7.5 18.35 9.5 16.6 L11.9 14.8 12.0 14.6 12.1 14.65 12.35 15.1 12.3 15.5 12.35 15.65 12.2 15.8 12.0 16.2 11.7 16.25 11.45 16.25 11.4 16.15 10.9 16.2 10.6 16.45 7.8 19.05 7.6 19.05" fill="#aeaeae" fill-rule="evenodd" stroke="none"/>
  </g>
</svg>
