<?xml version="1.0" encoding="UTF-8" standalone="no"?>
<svg xmlns:xlink="http://www.w3.org/1999/xlink" height="16.2px" width="20.0px" xmlns="http://www.w3.org/2000/svg">
  <g transform="matrix(1.0, 0.0, 0.0, 1.0, 0.5, 0.55)">
    <path d="M12.45 9.1 Q12.85 8.85 13.2 8.7 L16.55 7.9 15.95 7.75 Q15.1 7.65 15.0 7.05 L17.0 7.75 17.65 7.6 18.4 6.15 Q18.75 4.9 18.65 3.5 L18.3 3.6 17.55 3.65 17.05 3.35 17.75 2.35 17.05 1.7 16.75 1.9 16.2 2.1 15.9 2.05 16.1 1.05 16.15 0.9 16.25 0.9 Q16.6 0.9 16.25 0.6 L16.25 0.55 Q13.1 0.2 10.4 1.2 10.2 2.15 10.75 3.1 11.55 4.45 12.95 5.35 10.8 4.25 10.25 2.4 L9.5 2.9 Q8.4 3.4 8.2 4.35 L7.55 4.95 8.9 6.4 Q10.3 8.05 12.35 9.05 L12.45 9.1 M16.9 1.5 L16.75 1.4 Q16.45 1.4 16.5 1.6 L16.9 1.5 M19.1 2.85 Q19.55 4.1 19.5 5.55 19.35 6.7 18.55 7.65 L18.5 7.95 17.15 8.5 15.55 8.8 Q14.0 9.0 12.75 9.8 L12.1 9.7 Q11.6 12.05 9.15 12.95 L8.6 15.0 4.6 14.75 4.15 15.5 3.75 15.65 Q1.8 15.6 0.1 14.0 L-0.4 13.2 Q-0.9 11.1 1.2 10.05 L2.05 9.95 3.15 7.85 3.55 7.7 5.45 5.65 5.95 5.5 6.3 5.3 6.95 4.9 6.95 4.2 7.95 2.55 Q8.8 1.05 10.7 0.4 L11.9 0.0 16.2 -0.2 Q18.3 0.85 19.1 2.85 M12.2 7.8 Q12.9 7.75 12.35 7.9 L12.2 7.8 M17.9 2.7 L17.55 3.15 18.6 3.4 17.9 2.7 M10.45 11.55 L10.65 10.9 11.2 10.65 11.5 9.75 11.65 9.4 11.65 9.35 11.45 9.3 10.05 8.4 Q8.15 7.05 7.05 5.25 L6.05 6.4 Q4.1 8.3 2.5 10.35 L3.8 12.45 4.6 11.35 6.25 9.75 Q6.4 10.55 5.95 11.1 L4.5 12.7 8.7 12.5 9.05 12.2 9.65 11.9 10.1 11.75 10.45 11.55 M15.85 6.5 L15.95 6.6 Q15.2 6.8 15.85 6.5 M2.35 10.8 L2.3 10.75 2.25 10.8 2.15 10.7 0.8 11.55 Q-0.15 12.2 0.15 13.2 L0.55 13.4 1.5 14.15 Q2.35 14.85 3.05 15.0 L3.95 14.95 3.75 13.85 2.35 10.8 M8.1 14.1 L8.45 13.3 4.1 13.05 4.25 13.3 4.6 14.7 6.2 14.45 8.1 14.1" fill="#000000" fill-rule="evenodd" stroke="none"/>
    <path d="M16.9 1.5 L16.5 1.6 Q16.45 1.4 16.75 1.4 L16.9 1.5 M12.35 9.05 Q10.3 8.05 8.9 6.4 L7.55 4.95 8.2 4.35 Q8.4 3.4 9.5 2.9 L10.25 2.4 Q10.8 4.25 12.95 5.35 11.55 4.45 10.75 3.1 10.2 2.15 10.4 1.2 13.1 0.2 16.25 0.55 L16.25 0.6 Q16.6 0.9 16.25 0.9 L16.15 0.9 16.1 1.05 15.9 2.05 16.2 2.1 16.75 1.9 17.05 1.7 17.75 2.35 17.05 3.35 17.55 3.65 18.3 3.6 18.65 3.5 Q18.75 4.9 18.4 6.15 L17.65 7.6 17.0 7.75 15.0 7.05 Q15.1 7.65 15.95 7.75 L16.55 7.9 13.2 8.7 Q12.85 8.85 12.45 9.1 L12.4 9.05 12.35 9.05 M17.9 2.7 L18.6 3.4 17.55 3.15 17.9 2.7 M12.2 7.8 L12.35 7.9 Q12.9 7.75 12.2 7.8 M15.85 6.5 Q15.2 6.8 15.95 6.6 L15.85 6.5 M2.35 10.8 L3.75 13.85 3.95 14.95 3.05 15.0 Q2.35 14.85 1.5 14.15 L0.55 13.4 0.15 13.2 Q-0.15 12.2 0.8 11.55 L2.15 10.7 2.25 10.8 2.35 10.8 M8.1 14.1 L6.2 14.45 4.6 14.7 4.25 13.3 4.1 13.05 8.45 13.3 8.1 14.1" fill="#32363d" fill-rule="evenodd" stroke="none"/>
    <path d="M10.45 11.55 L10.1 11.75 9.65 11.9 9.05 12.2 8.7 12.5 4.5 12.7 5.95 11.1 Q6.4 10.55 6.25 9.75 L4.6 11.35 3.8 12.45 2.5 10.35 Q4.1 8.3 6.05 6.4 L7.05 5.25 Q8.15 7.05 10.05 8.4 L11.45 9.3 11.65 9.35 11.65 9.4 11.5 9.75 11.2 10.65 10.65 10.9 10.45 11.55" fill="#535964" fill-rule="evenodd" stroke="none"/>
    <path d="M15.45 4.55 L14.8 5.0 Q14.05 5.0 13.7 4.45 L13.5 3.85 Q13.5 2.8 14.65 2.85 15.8 2.9 15.8 3.8 L15.45 4.55" fill="#ff0000" fill-rule="evenodd" stroke="none"/>
    <path d="M13.8 1.65 L12.95 1.75 Q12.8 2.25 13.15 3.1 L13.1 3.3 12.7 3.45 Q12.0 3.45 11.6 2.45 L11.3 1.4 Q11.3 0.75 13.4 0.8 15.45 0.85 15.45 1.3 15.45 1.9 14.85 1.85 L13.8 1.65 M9.0 3.95 L9.25 3.65 10.1 3.1 10.4 3.55 9.35 4.3 Q9.0 4.45 9.0 3.95 M1.35 11.15 Q2.3 10.7 2.75 11.8 L3.2 13.3 3.15 13.45 2.8 13.55 Q1.8 13.55 1.25 11.65 L1.35 11.15 M6.8 13.25 L5.85 13.8 Q5.5 14.0 5.5 13.5 L5.6 12.95 6.5 12.95 6.5 12.9 6.8 13.25" fill="#c8ccd0" fill-rule="evenodd" stroke="none"/>
  </g>
</svg>
