<?xml version="1.0" encoding="UTF-8" standalone="no"?>
<svg xmlns:xlink="http://www.w3.org/1999/xlink" height="15.15px" width="28.55px" xmlns="http://www.w3.org/2000/svg">
  <g transform="matrix(1.0, 0.0, 0.0, 1.0, 0.0, 0.0)">
    <path d="M28.4 3.9 L27.05 4.8 26.35 5.2 26.0 6.2 22.65 6.95 23.0 11.4 23.0 12.7 22.3 12.6 20.1 9.35 19.45 8.25 Q18.25 8.95 16.65 8.9 L14.05 8.75 12.65 8.75 11.65 9.45 11.85 9.9 7.4 10.55 7.1 10.9 Q5.6 11.25 4.3 10.9 L3.2 10.45 Q3.05 12.5 2.35 14.5 L2.05 15.1 1.25 15.15 0.75 15.05 0.1 14.75 0.0 11.0 0.15 9.0 Q0.5 6.75 1.95 5.05 L3.6 3.25 21.9 2.6 22.85 0.0 23.5 1.6 23.75 2.75 25.1 3.15 25.35 3.35 28.45 3.45 28.4 3.9 M26.0 3.7 L25.55 3.75 24.8 4.45 27.95 3.7 26.0 3.7 M12.2 4.3 L13.45 3.45 3.85 3.8 2.85 4.65 2.4 6.4 Q1.25 7.0 0.85 8.25 L0.55 9.1 1.2 8.15 Q1.35 9.75 0.95 11.1 0.65 12.25 0.7 13.45 0.7 14.05 0.85 14.65 L1.7 14.7 2.45 13.95 2.85 10.0 4.2 10.2 4.45 10.15 4.7 10.25 4.7 10.4 5.7 9.8 6.7 8.95 5.9 7.8 6.1 7.25 6.9 8.45 7.05 9.05 6.3 10.15 5.95 10.5 Q8.45 9.65 11.0 9.55 L10.85 7.4 11.45 7.95 Q12.15 7.5 12.95 7.2 16.3 5.8 20.05 5.8 L22.45 5.85 24.0 4.3 24.8 3.4 Q22.7 3.05 20.55 3.45 L13.7 3.45 13.6 4.4 Q11.55 5.15 9.45 5.35 L8.15 5.4 7.4 6.75 Q7.35 6.25 7.45 5.8 L7.85 4.9 Q9.35 5.25 10.9 4.9 L12.2 4.3 M13.0 7.6 L11.95 7.95 11.7 8.7 14.5 8.05 19.0 8.1 20.5 6.25 13.1 7.55 Q13.0 7.45 13.0 7.6 M22.6 2.4 L23.0 2.6 22.65 1.85 22.5 2.25 22.6 2.4 M24.05 5.15 L23.3 5.9 23.0 6.2 22.6 6.35 23.9 5.9 25.6 5.15 24.05 5.15 M20.75 7.0 L19.7 8.05 22.5 11.8 21.95 7.05 20.75 7.0 M22.1 6.35 L21.7 6.1 22.15 5.95 21.0 6.2 22.1 6.35 M4.7 10.4 L4.85 10.55 5.4 10.6 4.7 10.4" fill="#000000" fill-rule="evenodd" stroke="none"/>
    <path d="M4.7 10.4 L5.4 10.6 4.85 10.55 4.7 10.4 4.7 10.25 4.45 10.15 4.2 10.2 2.85 10.0 2.45 13.95 1.7 14.7 0.85 14.65 Q0.7 14.05 0.7 13.45 0.65 12.25 0.95 11.1 1.35 9.75 1.2 8.15 L0.55 9.1 0.85 8.25 Q1.25 7.0 2.4 6.4 L2.85 4.65 3.85 3.8 13.45 3.45 12.2 4.3 10.9 4.9 Q9.35 5.25 7.85 4.9 L7.45 5.8 Q7.35 6.25 7.4 6.75 L8.15 5.4 9.45 5.35 Q11.55 5.15 13.6 4.4 L13.7 3.45 20.55 3.45 Q22.7 3.05 24.8 3.4 L24.0 4.3 22.45 5.85 20.05 5.8 Q16.3 5.8 12.95 7.2 12.15 7.5 11.45 7.95 L10.85 7.4 11.0 9.55 Q8.45 9.65 5.95 10.5 L6.3 10.15 7.05 9.05 6.9 8.45 6.1 7.25 5.9 7.8 6.7 8.95 5.7 9.8 4.7 10.4 M22.1 6.35 L21.0 6.2 22.15 5.95 21.7 6.1 22.1 6.35 M20.75 7.0 L21.95 7.05 22.5 11.8 19.7 8.05 20.75 7.0 M24.05 5.15 L25.6 5.15 23.9 5.9 22.6 6.35 23.0 6.2 23.3 5.9 24.05 5.15 M22.6 2.4 L22.5 2.25 22.65 1.85 23.0 2.6 22.6 2.4 M13.0 7.6 Q13.0 7.45 13.1 7.55 L20.5 6.25 19.0 8.1 14.5 8.05 11.7 8.7 11.95 7.95 13.0 7.6 M26.0 3.7 L27.95 3.7 24.8 4.45 25.55 3.75 26.0 3.7" fill="#333333" fill-rule="evenodd" stroke="none"/>
  </g>
</svg>
