<?xml version="1.0" encoding="UTF-8" standalone="no"?>
<svg xmlns:xlink="http://www.w3.org/1999/xlink" height="5.0px" width="6.7px" xmlns="http://www.w3.org/2000/svg">
  <g transform="matrix(1.0, 0.0, 0.0, 1.0, 0.0, 0.0)">
    <path d="M3.8 2.2 Q3.7 2.8 3.3 2.55 L2.95 1.05 Q2.65 2.35 2.65 3.75 L2.55 4.3 4.0 3.85 4.4 3.85 Q4.65 2.2 4.25 0.55 L3.65 0.85 Q3.9 1.5 3.8 2.2 M3.4 0.25 L3.8 0.0 4.6 0.05 4.95 1.3 5.3 0.85 5.75 0.35 6.3 0.25 Q7.6 3.55 4.75 5.0 L4.3 4.85 4.7 4.55 2.9 4.85 2.45 4.55 2.0 4.85 1.3 4.85 1.2 4.25 Q-0.45 2.85 0.2 0.95 L0.5 0.8 0.85 0.8 1.2 0.95 Q1.35 1.75 1.8 2.25 L2.1 2.6 2.25 0.4 3.4 0.25 M1.9 4.2 Q1.8 2.55 0.55 1.45 0.45 2.95 1.5 3.8 L1.9 4.2 M6.2 0.8 L5.3 2.5 4.85 4.45 5.75 2.65 6.2 0.8" fill="#000000" fill-rule="evenodd" stroke="none"/>
    <path d="M3.8 2.2 Q3.9 1.5 3.65 0.85 L4.25 0.55 Q4.65 2.2 4.4 3.85 L4.0 3.85 2.55 4.3 2.65 3.75 Q2.65 2.35 2.95 1.05 L3.3 2.55 Q3.7 2.8 3.8 2.2 M6.2 0.8 L5.75 2.65 4.85 4.45 5.3 2.5 6.2 0.8 M1.9 4.2 L1.5 3.8 Q0.45 2.95 0.55 1.45 1.8 2.55 1.9 4.2" fill="#32363d" fill-rule="evenodd" stroke="none"/>
  </g>
</svg>
