<?xml version="1.0" encoding="UTF-8" standalone="no"?>
<svg xmlns:xlink="http://www.w3.org/1999/xlink" height="14.3px" width="13.4px" xmlns="http://www.w3.org/2000/svg">
  <g transform="matrix(1.0, 0.0, 0.0, 1.0, 2.85, 1.65)">
    <path d="M2.55 3.15 Q1.25 2.0 0.75 0.25 L0.4 -1.0 2.8 -0.3 5.05 4.7 3.85 4.1 2.55 3.15 M0.9 6.55 L0.55 6.2 0.6 1.5 0.9 6.55 M9.05 11.9 L7.8 11.85 7.8 10.0 9.15 9.55 9.05 11.9 M9.1 2.85 L6.75 5.3 6.15 4.65 7.85 3.85 8.65 1.75 9.1 2.85 M5.5 7.6 L3.95 7.7 5.3 6.85 5.5 7.6 M-0.2 3.75 L0.65 6.7 -2.1 6.45 -0.2 3.75" fill="#32363d" fill-rule="evenodd" stroke="none"/>
    <path d="M3.85 4.1 L5.05 4.7 2.8 -0.3 0.4 -1.0 0.75 0.25 Q1.25 2.0 2.55 3.15 L1.3 2.55 1.4 3.65 Q1.55 5.25 0.9 6.55 L2.5 7.7 3.25 7.45 5.35 6.45 3.85 4.1 M0.9 6.55 L0.6 1.5 0.55 6.2 0.9 6.55 M9.05 11.9 L8.8 12.65 7.65 12.25 Q3.3 11.0 1.05 7.3 L-2.85 6.95 -2.0 6.0 Q0.8 2.65 0.15 -1.65 L1.15 -1.55 Q2.85 -1.25 4.15 -0.1 L5.35 -0.2 5.5 -1.6 6.75 0.2 7.65 0.55 8.95 0.65 10.55 6.25 9.65 7.7 9.25 8.0 9.4 9.0 Q9.6 10.45 9.05 11.9 L9.15 9.55 7.8 10.0 7.8 11.85 9.05 11.9 M9.1 2.85 L8.65 1.75 7.85 3.85 6.15 4.65 6.75 5.3 9.1 2.85 M9.3 3.75 L7.15 5.65 9.45 6.4 9.3 3.75 M8.05 2.4 L8.25 1.4 5.6 0.55 3.05 -0.25 4.2 1.9 4.05 1.5 4.55 1.9 4.8 1.75 5.6 0.55 5.4 1.35 5.45 2.7 5.95 4.4 8.05 2.4 M5.5 7.6 L5.3 6.85 3.95 7.7 5.5 7.6 M5.5 10.8 L5.5 7.9 2.5 8.05 5.5 10.8 M7.3 11.55 L7.3 10.0 6.65 9.65 6.35 8.9 6.0 11.05 7.3 11.55 M-0.2 3.75 L-2.1 6.45 0.65 6.7 -0.2 3.75" fill="#000000" fill-rule="evenodd" stroke="none"/>
    <path d="M3.85 4.1 L5.35 6.45 3.25 7.45 2.5 7.7 0.9 6.55 Q1.55 5.25 1.4 3.65 L1.3 2.55 2.55 3.15 3.85 4.1 M8.05 2.4 L5.95 4.4 5.45 2.7 5.4 1.35 5.6 0.55 4.8 1.75 4.55 1.9 4.05 1.5 4.2 1.9 3.05 -0.25 5.6 0.55 8.25 1.4 8.05 2.4 M9.3 3.75 L9.45 6.4 7.15 5.65 9.3 3.75 M7.3 11.55 L6.0 11.05 6.35 8.9 6.65 9.65 7.3 10.0 7.3 11.55 M5.5 10.8 L2.5 8.05 5.5 7.9 5.5 10.8" fill="#535964" fill-rule="evenodd" stroke="none"/>
    <path d="M8.0 1.65 Q7.8 1.85 7.5 1.85 L5.7 1.05 5.7 0.75 7.95 1.35 8.0 1.65 M9.45 5.25 L9.2 5.4 8.65 4.75 8.4 4.25 Q8.4 4.0 8.55 3.95 L8.7 3.9 9.45 5.25 M8.9 10.4 L8.45 10.55 8.25 10.55 8.15 10.25 8.25 9.9 Q8.5 9.7 9.0 10.2 L8.9 10.4" fill="#c8ccd0" fill-rule="evenodd" stroke="none"/>
    <path d="M6.7 5.75 L7.95 6.45 8.0 6.7 9.2 7.35 9.35 7.4 9.45 7.8 Q9.0 7.9 8.7 8.1 L8.45 8.35 8.45 8.4 Q8.45 8.75 7.7 9.05 7.35 9.05 7.05 8.35 L6.55 7.5 6.3 6.35 6.35 6.35 Q5.75 5.95 5.6 5.4 6.1 5.35 6.7 5.75" fill="#ff0000" fill-rule="evenodd" stroke="none"/>
  </g>
</svg>
