<?xml version="1.0" encoding="UTF-8" standalone="no"?>
<svg xmlns:xlink="http://www.w3.org/1999/xlink" height="26.85px" width="16.6px" xmlns="http://www.w3.org/2000/svg">
  <g transform="matrix(1.0, 0.0, 0.0, 1.0, 2.4, 0.0)">
    <path d="M13.25 7.7 L13.8 6.7 13.1 5.1 12.3 3.7 11.9 4.05 11.6 4.4 11.35 4.6 11.05 4.7 11.2 3.85 11.9 3.45 12.1 2.75 11.65 2.35 Q9.45 0.85 6.65 1.15 L7.85 3.55 11.0 4.85 Q12.85 5.6 13.2 7.7 L13.2 7.75 13.25 7.7 M10.75 5.35 L10.8 6.15 10.55 7.7 9.3 10.85 12.0 12.2 13.05 10.3 Q13.65 9.2 13.25 9.0 L13.0 8.9 Q12.5 8.6 12.35 7.9 L11.8 6.55 10.75 5.35 M12.75 1.95 L13.7 4.7 14.2 7.5 13.95 8.9 13.65 10.35 12.75 12.1 12.1 12.9 11.2 15.2 10.35 17.2 10.75 18.75 10.65 19.75 10.65 19.8 Q12.2 20.75 12.55 22.7 13.0 25.15 10.7 25.1 L9.5 23.1 Q8.8 22.1 8.65 20.9 L7.45 23.75 5.7 26.8 5.65 26.85 Q1.2 26.95 -2.3 24.35 -2.7 22.65 -1.75 21.15 L0.1 18.15 0.2 18.05 0.0 17.4 0.9 15.25 1.6 15.2 Q1.7 14.55 1.45 14.0 1.1 13.15 1.05 12.3 0.95 10.75 1.2 9.25 1.4 7.75 1.95 6.35 L2.85 4.6 2.65 3.7 2.85 3.5 2.95 3.65 3.6 2.6 5.0 1.15 6.45 0.0 9.6 0.9 12.75 1.95 M7.55 3.9 L7.45 3.9 Q7.25 4.8 6.25 5.15 4.75 6.25 3.85 8.1 L3.85 9.3 Q5.0 9.6 5.3 10.6 L8.2 11.2 8.65 10.4 10.05 6.7 10.35 5.2 Q9.35 4.6 8.3 4.25 L7.55 3.9 M7.2 3.5 L6.15 1.25 4.3 2.95 3.35 4.1 3.5 4.4 3.75 4.8 Q5.45 3.7 7.2 3.5 M9.85 11.75 L9.0 11.8 11.6 12.8 11.85 12.45 11.35 12.55 10.75 12.3 9.95 12.1 9.9 12.0 9.85 11.9 9.85 11.75 M3.05 9.8 L2.85 9.75 1.55 10.8 Q1.55 12.4 1.95 13.85 L2.1 15.1 2.95 15.55 3.15 14.7 Q3.3 14.55 3.6 14.55 L3.5 15.75 6.4 16.45 7.95 16.9 7.85 15.9 7.75 13.5 Q7.65 12.3 8.15 11.3 5.8 11.8 3.8 10.45 L3.65 9.9 3.6 10.0 3.05 9.8 M3.9 5.05 L4.0 5.6 3.65 5.45 3.25 5.35 Q2.1 7.4 1.6 9.7 L3.05 9.05 Q3.65 6.2 5.95 4.45 4.95 5.05 3.9 5.05 M8.75 17.5 L8.9 18.25 8.85 19.8 8.75 20.3 10.05 19.8 9.9 17.45 8.75 17.5 M8.2 18.2 L8.05 17.35 5.85 17.1 6.0 18.6 5.7 19.4 5.35 20.05 8.0 20.25 Q8.35 19.3 8.2 18.2 M5.25 18.4 L5.55 17.05 3.65 16.5 3.45 17.75 2.9 19.4 5.15 20.0 5.25 18.4 M8.35 16.4 L9.1 17.0 10.0 16.55 8.35 16.4 M1.55 15.65 L1.4 16.3 1.05 17.75 1.0 18.4 2.4 19.2 2.45 18.75 3.1 16.25 1.55 15.65 M8.4 12.8 L8.45 15.9 10.2 16.05 11.0 13.8 11.05 13.45 11.45 13.0 Q9.85 13.4 8.6 12.25 L8.4 12.8 M0.7 19.0 Q-0.4 19.85 -1.05 21.2 L-1.6 22.5 -1.5 22.85 Q1.2 25.05 5.05 24.8 L5.15 24.75 5.85 22.5 Q6.1 21.5 6.65 20.65 L6.0 20.65 Q3.25 20.6 0.95 19.05 L0.75 18.9 0.7 19.0 M8.7 20.65 L8.65 20.85 Q9.45 21.2 10.0 22.25 L11.05 24.6 11.65 24.45 11.95 24.25 Q11.5 24.2 11.3 23.9 10.9 23.45 11.15 23.15 11.1 22.75 10.75 22.5 L10.75 22.4 10.75 22.1 10.75 22.0 10.2 21.5 10.05 21.1 10.05 21.0 9.6 20.65 Q9.4 20.6 9.6 20.5 L9.6 20.45 8.7 20.6 8.25 20.65 7.85 20.6 7.05 20.65 Q7.05 21.5 6.55 22.65 L6.05 24.0 5.45 25.25 Q1.45 25.85 -1.6 23.5 L-1.9 23.35 -2.0 23.65 Q0.5 26.0 4.0 26.25 L5.3 26.35 Q6.35 24.95 6.85 23.3 7.4 21.5 8.7 20.6 L8.7 20.65 M10.7 21.3 L10.75 21.4 10.9 21.45 11.2 21.65 Q11.2 22.25 11.6 22.7 L11.9 23.2 12.05 23.4 12.1 23.5 Q12.1 22.65 11.6 21.95 10.75 20.65 10.65 19.85 L10.2 20.5 10.2 20.4 10.05 20.45 10.3 20.65 10.7 21.3" fill="#000000" fill-rule="evenodd" stroke="none"/>
    <path d="M13.2 7.7 Q12.85 5.6 11.0 4.85 L7.85 3.55 6.65 1.15 Q9.45 0.85 11.65 2.35 L12.1 2.75 11.9 3.45 11.2 3.85 11.05 4.7 11.35 4.6 11.6 4.4 11.9 4.05 12.3 3.7 13.1 5.1 13.8 6.7 13.25 7.7 13.2 7.7 M10.75 5.35 L11.8 6.55 12.35 7.9 Q12.5 8.6 13.0 8.9 L13.25 9.0 Q13.65 9.2 13.05 10.3 L12.0 12.2 9.3 10.85 10.55 7.7 10.8 6.15 10.75 5.35 M7.2 3.5 Q5.45 3.7 3.75 4.8 L3.5 4.4 3.35 4.1 4.3 2.95 6.15 1.25 7.2 3.5 M5.25 18.4 L5.15 20.0 2.9 19.4 3.45 17.75 3.65 16.5 5.55 17.05 5.25 18.4 M8.2 18.2 Q8.35 19.3 8.0 20.25 L5.35 20.05 5.7 19.4 6.0 18.6 5.85 17.1 8.05 17.35 8.2 18.2 M8.75 17.5 L9.9 17.45 10.05 19.8 8.75 20.3 8.85 19.8 8.9 18.25 8.75 17.5 M8.4 12.8 L8.6 12.25 Q9.85 13.4 11.45 13.0 L11.05 13.45 11.0 13.8 10.2 16.05 8.45 15.9 8.4 12.8 M1.55 15.65 L3.1 16.25 2.45 18.75 2.4 19.2 1.0 18.4 1.05 17.75 1.4 16.3 1.55 15.65" fill="#32363d" fill-rule="evenodd" stroke="none"/>
    <path d="M7.55 3.9 L8.3 4.25 Q9.35 4.6 10.35 5.2 L10.05 6.7 8.65 10.4 8.2 11.2 5.3 10.6 Q5.0 9.6 3.85 9.3 L3.85 8.1 Q4.75 6.25 6.25 5.15 7.25 4.8 7.45 3.9 L7.55 3.9 M3.9 5.05 Q4.95 5.05 5.95 4.45 3.65 6.2 3.05 9.05 L1.6 9.7 Q2.1 7.4 3.25 5.35 L3.65 5.45 4.0 5.6 3.9 5.05 M3.05 9.8 L3.6 10.0 3.65 9.9 3.8 10.45 Q5.8 11.8 8.15 11.3 7.65 12.3 7.75 13.5 L7.85 15.9 7.95 16.9 6.4 16.45 3.5 15.75 3.6 14.55 Q3.3 14.55 3.15 14.7 L2.95 15.55 2.1 15.1 1.95 13.85 Q1.55 12.4 1.55 10.8 L2.85 9.75 3.05 9.8 M9.85 11.75 L9.85 11.9 9.9 12.0 9.95 12.1 10.75 12.3 11.35 12.55 11.85 12.45 11.6 12.8 9.0 11.8 9.85 11.75 M8.35 16.4 L10.0 16.55 9.1 17.0 8.35 16.4 M10.7 21.3 L10.3 20.65 10.05 20.45 10.2 20.4 10.2 20.5 10.65 19.85 Q10.75 20.65 11.6 21.95 12.1 22.65 12.1 23.5 L12.05 23.4 11.9 23.2 11.6 22.7 Q11.2 22.25 11.2 21.65 L10.9 21.45 10.75 21.4 10.7 21.3 M8.7 20.65 L8.7 20.6 Q7.4 21.5 6.85 23.3 6.35 24.95 5.3 26.35 L4.0 26.25 Q0.5 26.0 -2.0 23.65 L-1.9 23.35 -1.6 23.5 Q1.45 25.85 5.45 25.25 L6.05 24.0 6.55 22.65 Q7.05 21.5 7.05 20.65 L7.85 20.6 8.25 20.65 8.7 20.6 9.6 20.45 9.6 20.5 Q9.4 20.6 9.6 20.65 L10.05 21.0 10.05 21.1 10.2 21.5 10.75 22.0 10.75 22.1 10.75 22.4 10.75 22.5 Q11.1 22.75 11.15 23.15 10.9 23.45 11.3 23.9 11.5 24.2 11.95 24.25 L11.65 24.45 11.05 24.6 10.0 22.25 Q9.45 21.2 8.65 20.85 L8.7 20.65 M0.7 19.0 L0.75 18.9 0.95 19.05 Q3.25 20.6 6.0 20.65 L6.65 20.65 Q6.1 21.5 5.85 22.5 L5.15 24.75 5.05 24.8 Q1.2 25.05 -1.5 22.85 L-1.6 22.5 -1.05 21.2 Q-0.4 19.85 0.7 19.0" fill="#535964" fill-rule="evenodd" stroke="none"/>
    <path d="M12.0 3.0 L11.6 3.05 10.1 2.45 Q8.6 1.8 7.5 1.8 L7.1 1.7 7.05 1.4 Q7.05 0.15 9.25 1.0 11.25 1.75 12.05 2.7 L12.0 3.0 M12.3 3.15 Q12.9 3.2 13.3 4.35 L13.8 6.05 13.55 6.45 13.1 6.1 13.1 6.0 12.7 4.5 12.3 3.25 12.3 3.15 M11.4 5.7 L12.2 7.25 12.6 8.55 13.4 9.2 12.6 9.75 Q12.3 9.75 11.95 9.0 11.6 8.9 11.3 8.6 10.85 8.15 10.85 7.75 L11.1 7.4 11.25 7.3 11.2 7.2 10.7 5.95 10.8 5.7 11.1 5.7 11.2 5.75 11.4 5.7 M6.5 1.5 Q6.5 1.85 5.55 2.1 L5.25 2.0 Q5.15 2.15 5.15 1.75 5.15 1.45 5.65 1.35 6.15 1.2 6.45 1.35 6.5 1.15 6.5 1.5 M8.75 12.45 L10.35 12.8 11.25 13.25 11.1 13.85 10.8 14.55 10.35 14.55 Q10.2 14.6 10.2 14.25 L10.3 13.95 10.55 13.85 Q9.5 13.55 8.75 12.8 L8.75 12.45 M5.9 17.45 Q5.9 16.75 7.85 17.1 L7.95 17.5 7.95 17.7 6.6 17.6 Q6.4 17.6 6.35 17.75 L6.2 17.9 Q5.9 17.85 5.9 17.45 M8.45 17.7 L8.45 17.3 9.0 17.3 9.6 17.4 9.75 17.6 8.9 17.9 8.6 17.8 8.45 17.7 M1.75 16.25 L1.35 15.85 Q1.35 15.3 2.15 15.6 2.9 15.95 2.9 16.25 2.9 17.25 2.4 18.35 L2.25 18.45 Q1.9 17.9 2.0 17.3 L2.15 16.7 Q2.15 16.4 1.75 16.25 M4.65 17.3 L4.35 17.2 Q4.35 17.05 3.75 16.95 L3.65 16.5 4.4 16.4 Q4.85 16.6 5.0 17.15 L4.65 17.3 M11.35 21.0 L11.55 22.2 11.55 22.35 Q11.6 22.5 11.25 22.5 10.9 22.5 10.6 21.5 L10.35 20.5 Q10.35 20.05 10.65 19.95 11.25 20.35 11.35 21.0" fill="#c8ccd0" fill-rule="evenodd" stroke="none"/>
  </g>
</svg>
