<?xml version="1.0" encoding="UTF-8" standalone="no"?>
<svg xmlns:xlink="http://www.w3.org/1999/xlink" height="6.8px" width="16.65px" xmlns="http://www.w3.org/2000/svg">
  <g transform="matrix(1.0, 0.0, 0.0, 1.0, 0.0, 0.0)">
    <path d="M15.95 2.15 L16.1 1.7 15.95 1.45 14.9 1.35 15.05 1.8 15.2 2.4 15.2 2.45 15.25 2.45 15.25 2.55 15.25 2.6 15.6 2.5 15.95 2.15 M16.65 2.45 L16.35 2.9 15.15 3.45 14.8 4.4 14.15 5.1 12.8 6.0 10.05 6.55 9.35 6.3 6.85 6.8 5.1 6.7 4.65 6.65 2.9 6.1 Q0.75 5.2 0.0 3.1 L0.2 2.25 0.5 1.75 Q1.35 0.95 2.45 0.65 L5.05 0.45 Q5.65 0.4 6.2 0.75 L6.95 0.95 7.55 1.7 7.85 1.75 Q8.7 2.3 9.45 2.2 L10.1 1.75 Q10.7 0.45 11.95 0.0 L12.25 0.4 12.3 0.85 14.55 1.0 14.55 0.95 14.65 0.85 14.75 1.05 16.55 1.15 16.65 2.45 M13.75 2.85 L14.1 2.8 14.25 2.8 14.35 2.9 14.75 2.8 14.75 2.7 14.85 2.45 14.75 2.3 14.7 2.25 14.5 2.15 14.4 2.1 14.25 2.05 14.0 2.15 Q13.6 2.3 13.55 2.6 L13.65 2.85 13.75 2.85 M13.45 3.05 L13.5 3.0 13.45 2.95 13.45 3.05 M13.45 2.2 Q13.8 1.9 14.25 1.9 L14.6 1.95 14.6 1.9 14.5 1.3 13.05 1.2 13.4 2.1 13.45 2.2 M12.8 1.2 L11.9 1.95 11.5 2.15 Q11.45 1.85 11.65 1.65 L11.8 1.45 11.5 1.2 10.85 1.55 10.85 1.85 10.75 2.05 10.45 2.35 Q10.9 4.2 10.55 5.85 L10.85 5.85 12.75 5.3 12.6 4.95 12.65 4.7 Q13.1 4.55 13.05 4.95 L13.05 5.1 13.3 4.9 Q12.85 4.65 12.85 4.1 L12.95 3.8 13.15 3.7 13.1 3.5 13.2 3.25 13.25 3.2 12.95 2.05 12.8 1.2 M12.5 1.15 L12.3 1.1 12.25 1.15 12.4 1.15 12.5 1.15 M14.3 3.35 L13.5 3.45 13.35 3.65 13.4 3.6 Q13.65 3.6 13.75 3.8 L13.8 3.9 13.95 3.8 14.25 3.7 14.5 3.35 14.3 3.35 M13.2 4.4 L13.55 4.6 13.9 4.15 13.55 4.1 13.25 4.1 13.05 4.2 13.2 4.4 M9.85 2.55 L8.75 2.9 7.95 2.75 7.9 2.85 7.9 2.8 7.7 2.6 7.6 2.55 7.4 2.55 7.4 2.35 7.35 2.3 6.9 1.65 5.1 0.9 3.95 0.7 3.75 1.45 3.7 1.6 3.55 1.85 3.4 2.3 3.6 2.35 3.8 2.75 4.35 3.4 5.2 3.6 5.4 3.65 5.6 3.8 Q6.4 4.35 6.45 4.9 L6.4 4.95 6.4 5.15 5.75 5.95 5.75 6.0 8.15 5.85 8.25 5.85 Q9.4 6.1 9.35 5.05 L9.3 5.0 9.1 5.0 9.35 4.8 9.35 5.5 10.05 5.3 9.95 2.55 9.9 2.5 9.85 2.55 M6.8 3.0 L6.6 2.9 5.95 2.65 6.85 2.95 6.8 3.0 M5.85 4.2 L4.65 3.85 3.55 3.3 3.05 3.15 2.95 3.0 2.75 3.05 2.6 2.45 2.7 2.45 2.75 2.45 2.9 1.65 Q3.1 1.05 3.5 0.7 2.05 0.75 0.8 1.95 L0.85 2.15 1.0 2.15 0.9 2.6 0.75 2.8 0.45 3.05 0.45 3.1 Q1.55 4.7 3.35 5.4 L5.25 5.95 5.45 5.9 5.65 5.3 5.9 4.4 5.85 4.2" fill="#000000" fill-rule="evenodd" stroke="none"/>
    <path d="M15.95 2.15 L15.6 2.5 15.25 2.6 15.25 2.55 15.25 2.45 15.2 2.45 15.2 2.4 15.05 1.8 14.9 1.35 15.95 1.45 16.1 1.7 15.95 2.15 M13.45 3.05 L13.45 2.95 13.5 3.0 13.45 3.05 M12.5 1.15 L12.4 1.15 12.25 1.15 12.3 1.1 12.5 1.15 M12.8 1.2 L12.95 2.05 13.25 3.2 13.2 3.25 13.1 3.5 13.15 3.7 12.95 3.8 12.85 4.1 Q12.85 4.65 13.3 4.9 L13.05 5.1 13.05 4.95 Q13.1 4.55 12.65 4.7 L12.6 4.95 12.75 5.3 10.85 5.85 10.55 5.85 Q10.9 4.2 10.45 2.35 L10.75 2.05 10.85 1.85 10.85 1.55 11.5 1.2 11.8 1.45 11.65 1.65 Q11.45 1.85 11.5 2.15 L11.9 1.95 12.8 1.2" fill="#32363d" fill-rule="evenodd" stroke="none"/>
    <path d="M13.75 2.85 L13.65 2.85 13.55 2.6 Q13.6 2.3 14.0 2.15 L14.25 2.05 14.4 2.1 14.5 2.15 14.7 2.25 14.75 2.3 14.85 2.45 14.75 2.7 14.75 2.8 14.35 2.9 14.25 2.8 14.1 2.8 13.75 2.85 M13.45 2.2 L13.4 2.1 13.05 1.2 14.5 1.3 14.6 1.9 14.6 1.95 14.25 1.9 Q13.8 1.9 13.45 2.2 M13.2 4.4 L13.05 4.2 13.25 4.1 13.55 4.1 13.9 4.15 13.55 4.6 13.2 4.4 M14.3 3.35 L14.5 3.35 14.25 3.7 13.95 3.8 13.8 3.9 13.75 3.8 Q13.65 3.6 13.4 3.6 L13.35 3.65 13.5 3.45 14.3 3.35 M9.95 2.55 L10.05 5.3 9.35 5.5 9.35 4.8 9.1 5.0 9.3 5.0 9.35 5.05 Q9.4 6.1 8.25 5.85 L8.15 5.85 5.75 6.0 5.75 5.95 6.4 5.15 6.4 4.95 6.45 4.9 Q6.4 4.35 5.6 3.8 L5.4 3.65 5.2 3.6 4.35 3.4 3.8 2.75 3.6 2.35 3.4 2.3 3.55 1.85 3.7 1.6 3.75 1.45 3.95 0.7 5.1 0.9 6.9 1.65 7.35 2.3 7.4 2.35 7.4 2.55 7.6 2.55 7.7 2.6 7.9 2.8 7.9 2.85 7.95 2.75 8.75 2.9 9.85 2.55 9.95 2.55 M6.8 3.0 L6.85 2.95 5.95 2.65 6.6 2.9 6.8 3.0 M5.85 4.2 L5.9 4.4 5.65 5.3 5.45 5.9 5.25 5.95 3.35 5.4 Q1.55 4.7 0.45 3.1 L0.45 3.05 0.75 2.8 0.9 2.6 1.0 2.15 0.85 2.15 0.8 1.95 Q2.05 0.75 3.5 0.7 3.1 1.05 2.9 1.65 L2.75 2.45 2.7 2.45 2.6 2.45 2.75 3.05 2.95 3.0 3.05 3.15 3.55 3.3 4.65 3.85 5.85 4.2" fill="#535964" fill-rule="evenodd" stroke="none"/>
    <path d="M10.8 2.5 L10.35 2.6 10.15 2.55 10.1 2.25 11.0 1.4 11.7 1.65 11.25 2.25 12.15 2.0 12.45 2.1 12.5 2.35 11.4 3.05 10.95 2.8 10.8 2.5 M8.55 2.7 L8.6 3.0 Q8.6 3.3 7.75 3.3 L6.75 3.0 6.3 2.55 6.4 2.3 6.15 2.3 5.0 1.95 4.2 1.4 4.3 1.3 4.1 1.2 4.2 0.8 Q6.35 1.05 6.8 2.25 L7.2 2.55 8.4 2.6 8.55 2.7" fill="#c8ccd0" fill-rule="evenodd" stroke="none"/>
  </g>
</svg>
