<?xml version="1.0" encoding="UTF-8" standalone="no"?>
<svg xmlns:xlink="http://www.w3.org/1999/xlink" height="32.3px" width="33.0px" xmlns="http://www.w3.org/2000/svg">
  <g transform="matrix(1.0, 0.0, 0.0, 1.0, 0.3, -0.3)">
    <path d="M29.85 0.7 L29.7 1.1 29.6 1.25 29.05 2.1 28.6 1.8 28.6 1.45 28.85 0.8 Q28.9 0.35 29.3 0.35 L29.4 0.4 Q29.85 0.1 29.85 0.7 M1.25 2.6 Q0.8 2.6 0.7 2.2 L0.7 1.7 Q0.7 1.15 1.45 0.65 2.2 0.2 2.2 0.95 L1.25 2.6 M1.85 29.35 L1.55 29.85 1.0 30.25 Q0.6 30.25 0.6 29.8 0.6 29.5 0.9 29.25 1.3 28.9 1.8 29.1 L1.85 29.35 M29.95 29.35 L29.8 29.95 29.4 30.25 Q28.95 30.25 28.95 29.8 28.95 29.4 29.45 29.0 29.95 28.55 29.95 29.35" fill="#ff6666" fill-rule="evenodd" stroke="none"/>
    <path d="M32.7 3.95 L32.7 4.35 31.45 4.6 Q30.2 4.6 30.2 4.2 30.2 3.9 30.7 3.65 L31.35 2.95 Q31.15 2.6 31.45 2.15 31.8 1.75 32.3 1.95 L32.7 3.95 M4.2 2.5 Q4.2 4.6 2.45 4.6 L2.05 4.55 Q1.95 4.05 2.1 3.9 L1.7 3.5 Q1.7 3.05 3.35 3.05 L3.9 2.1 Q4.2 1.65 4.2 2.5 M3.6 30.35 Q3.7 30.0 4.3 30.1 L4.35 32.05 Q4.25 32.6 3.75 32.6 L1.6 32.45 Q1.45 32.4 1.45 32.15 2.65 30.7 3.6 30.85 L3.6 30.35 M32.25 32.5 L31.25 32.5 30.25 32.5 29.85 32.05 30.05 31.8 31.3 31.25 31.2 30.65 Q31.2 30.25 31.55 29.8 31.95 29.25 32.25 29.95 L32.45 31.75 32.25 32.5" fill="#660000" fill-rule="evenodd" stroke="none"/>
    <path d="M16.05 24.65 Q16.05 24.9 16.35 24.9 L16.65 24.55 16.5 24.3 Q16.05 24.3 16.05 24.65 M17.6 24.3 L17.55 24.0 Q17.05 23.9 17.05 24.55 L17.3 24.85 Q17.6 24.85 17.6 24.3 M10.35 17.55 L10.3 17.0 Q10.05 17.15 10.05 18.55 L10.05 23.7 10.3 23.7 10.35 17.55 M13.5 12.75 L13.15 13.0 Q13.15 13.25 13.55 13.25 L13.8 13.0 Q13.8 12.65 13.5 12.75 M15.8 14.6 L15.75 14.55 15.55 14.55 15.55 25.35 15.6 25.4 15.8 25.35 15.8 14.6 M18.4 12.65 L18.45 12.75 18.45 21.8 18.6 21.9 18.75 21.85 18.75 13.05 19.1 13.55 20.4 14.8 20.8 15.4 21.25 16.2 21.2 16.6 21.2 16.65 Q20.9 16.7 20.9 17.85 L20.9 19.5 20.8 21.0 Q20.7 21.75 20.95 22.15 19.95 22.8 18.6 24.15 L17.35 25.45 15.55 25.45 12.0 25.35 11.55 25.4 10.05 23.7 9.95 23.6 8.15 21.75 8.2 17.75 8.15 16.9 8.2 16.85 8.25 16.3 9.0 15.4 10.2 14.25 11.9 12.35 11.9 12.25 12.75 12.25 12.7 12.45 12.75 13.25 12.75 14.85 12.75 17.8 13.0 17.8 13.05 12.25 18.1 12.25 18.4 12.65" fill="#734d26" fill-rule="evenodd" stroke="none"/>
    <path d="M18.45 12.35 Q20.55 14.2 21.4 15.95 L21.5 15.9 21.55 16.05 21.5 17.15 21.4 17.2 21.3 17.15 21.2 22.0 21.25 21.95 21.3 22.05 19.6 23.85 17.85 25.45 19.05 25.4 19.05 25.55 17.6 25.65 17.15 25.95 17.1 25.75 17.2 25.65 11.85 25.7 11.65 25.7 11.65 25.8 11.55 25.85 8.9 23.0 8.15 22.1 8.15 22.15 8.05 22.2 7.9 22.1 7.9 21.8 7.9 21.75 7.9 21.55 7.9 21.6 7.9 16.75 7.95 16.75 7.9 16.6 7.9 16.4 7.9 16.1 8.1 16.0 8.15 16.0 8.2 15.95 8.15 15.85 Q8.15 15.5 9.8 13.95 11.2 12.65 11.85 12.25 L11.8 12.25 11.75 12.2 11.75 12.0 12.9 11.95 13.05 11.9 13.05 11.95 18.4 12.0 18.45 12.15 18.4 12.25 18.45 12.35 M18.4 12.65 L18.1 12.25 13.05 12.25 13.0 17.8 12.75 17.8 12.75 14.85 12.75 13.25 12.7 12.45 12.75 12.25 11.9 12.25 11.9 12.35 10.2 14.25 9.0 15.4 8.25 16.3 8.2 16.85 8.15 16.9 8.2 17.75 8.15 21.75 9.95 23.6 10.05 23.7 11.55 25.4 12.0 25.35 15.55 25.45 17.35 25.45 18.6 24.15 Q19.95 22.8 20.95 22.15 20.7 21.75 20.8 21.0 L20.9 19.5 20.9 17.85 Q20.9 16.7 21.2 16.65 L21.2 16.6 21.25 16.2 20.8 15.4 20.4 14.8 19.1 13.55 18.75 13.05 18.75 21.85 18.6 21.9 18.45 21.8 18.45 12.75 18.4 12.65 M15.8 14.6 L15.8 25.35 15.6 25.4 15.55 25.35 15.55 14.55 15.75 14.55 15.8 14.6 M13.5 12.75 Q13.8 12.65 13.8 13.0 L13.55 13.25 Q13.15 13.25 13.15 13.0 L13.5 12.75 M10.35 17.55 L10.3 23.7 10.05 23.7 10.05 18.55 Q10.05 17.15 10.3 17.0 L10.35 17.55 M17.6 24.3 Q17.6 24.85 17.3 24.85 L17.05 24.55 Q17.05 23.9 17.55 24.0 L17.6 24.3 M16.05 24.65 Q16.05 24.3 16.5 24.3 L16.65 24.55 16.35 24.9 Q16.05 24.9 16.05 24.65" fill="#000000" fill-rule="evenodd" stroke="none"/>
    <path d="M14.8 16.15 L14.85 16.3 14.9 16.4 15.1 16.6 Q15.45 17.05 15.95 16.95 L16.35 16.9 16.35 16.75 16.35 16.7 16.4 16.7 16.4 16.65 16.65 16.65 16.65 16.7 16.8 16.65 Q17.5 16.6 18.4 17.75 L19.25 18.6 19.55 18.7 20.75 19.45 26.8 20.15 26.85 20.2 26.85 20.3 27.25 20.55 28.25 21.25 28.35 21.3 28.4 21.15 28.3 20.8 27.85 20.65 Q27.35 20.45 27.4 20.2 L28.4 20.4 29.3 20.55 29.3 20.5 29.0 19.9 Q27.9 20.2 27.75 19.6 L27.85 19.45 29.0 19.6 29.7 19.25 29.45 18.55 Q28.9 19.0 28.4 19.05 L28.1 18.8 28.4 18.75 29.5 18.1 30.2 17.2 29.4 17.05 Q28.7 16.9 28.7 16.6 L28.8 16.4 29.6 16.75 30.05 16.3 31.1 14.05 30.8 14.05 30.2 14.2 30.0 14.4 29.9 14.3 29.3 14.75 29.0 14.8 29.0 14.65 Q28.95 14.3 30.15 13.95 L30.65 12.95 30.85 12.4 30.95 12.05 Q29.95 12.25 29.4 12.7 L28.4 13.65 27.3 14.6 26.3 15.3 26.3 15.4 25.0 14.45 Q23.85 13.65 22.45 13.8 L21.85 13.95 21.75 14.0 21.2 14.15 20.05 14.4 19.95 14.4 19.95 14.45 18.6 14.8 Q17.85 15.15 17.75 15.25 L17.5 15.35 17.4 15.2 17.4 15.15 17.45 15.05 17.1 14.8 16.65 14.3 15.8 14.25 Q15.35 14.3 15.0 14.95 L14.65 15.45 14.7 15.5 14.7 15.7 14.55 15.7 14.55 15.8 13.8 16.3 14.35 16.15 14.6 16.1 14.6 16.15 14.8 16.15 M17.55 14.9 L17.7 14.85 17.75 15.0 Q19.05 14.3 19.95 14.15 L19.95 14.1 21.8 13.65 22.55 13.5 Q23.9 13.35 25.15 14.1 L26.25 15.1 30.4 11.85 31.15 11.8 31.15 11.85 31.15 11.9 31.25 11.85 31.25 12.1 30.85 13.25 30.5 13.85 31.45 13.6 31.5 13.7 30.9 15.4 29.8 16.8 Q30.5 16.9 30.5 17.15 L29.8 18.3 29.65 18.4 29.9 18.9 29.9 19.0 30.1 19.2 29.95 19.3 29.9 19.35 29.3 19.85 29.55 20.25 29.6 20.55 29.6 20.85 29.0 20.9 28.65 20.9 28.75 21.4 28.75 21.7 28.5 21.7 27.4 21.05 26.45 20.4 25.25 20.35 24.15 20.4 20.8 19.8 19.5 19.1 19.55 19.3 19.35 19.25 19.35 19.1 18.05 18.0 17.65 17.35 Q17.5 17.0 16.65 17.0 L16.4 17.2 15.25 17.2 15.8 17.2 15.35 17.2 15.25 17.2 14.85 16.9 14.55 17.0 14.3 16.85 14.1 16.6 13.85 16.7 13.4 16.9 13.35 16.7 Q13.35 16.35 13.65 16.0 L14.45 15.5 14.45 15.45 14.9 14.5 Q15.5 13.9 16.05 13.9 L16.2 13.9 16.2 14.0 17.15 14.0 17.15 14.25 16.95 14.4 Q17.15 14.45 17.3 14.65 L17.55 14.9 M15.5 15.25 L15.45 15.45 Q15.45 15.7 15.9 15.7 L16.2 15.7 16.35 15.45 16.0 15.1 15.95 15.1 15.8 15.35 15.5 15.4 15.5 15.25 M15.8 14.8 Q16.6 14.9 16.65 15.45 16.65 15.95 15.95 16.0 15.2 16.05 15.15 15.5 15.1 14.65 15.8 14.8 M22.4 15.4 L22.7 15.7 Q22.35 13.45 23.2 14.65 L23.55 15.55 23.85 16.4 Q24.95 16.55 25.2 16.8 L25.4 17.75 25.95 19.55 25.95 19.8 25.65 19.85 25.5 19.85 25.15 19.6 25.0 19.4 Q24.7 19.4 24.55 18.15 L23.85 17.45 23.55 17.3 23.6 17.6 23.0 18.2 22.9 18.05 22.95 17.6 22.4 17.1 21.85 16.75 21.9 16.6 22.35 16.4 21.85 15.45 21.85 15.2 21.95 15.15 22.4 15.4 M22.45 16.0 L22.7 16.6 22.5 16.75 Q23.3 17.2 23.2 17.6 L23.3 17.05 23.5 17.05 Q24.7 17.05 24.8 17.8 L25.1 19.15 25.1 19.2 25.35 19.3 25.4 19.5 25.6 19.5 25.4 18.45 25.0 17.0 24.2 16.8 23.65 16.6 23.25 15.9 22.85 14.75 22.8 14.75 23.0 16.35 22.9 16.4 22.5 15.95 22.45 15.95 22.45 16.0 M14.65 16.4 L14.25 16.55 14.65 16.55 14.65 16.4" fill="#000000" fill-rule="evenodd" stroke="none"/>
    <path d="M14.7 15.7 L14.7 15.5 14.65 15.45 15.0 14.95 Q15.35 14.3 15.8 14.25 L16.65 14.3 17.1 14.8 17.45 15.05 17.4 15.15 17.4 15.2 17.5 15.35 17.75 15.25 Q17.85 15.15 18.6 14.8 L19.95 14.45 19.95 14.4 20.05 14.4 21.2 14.15 21.75 14.0 21.85 13.95 22.45 13.8 Q23.85 13.65 25.0 14.45 L26.3 15.4 26.3 15.3 27.3 14.6 28.4 13.65 29.4 12.7 Q29.95 12.25 30.95 12.05 L30.85 12.4 30.65 12.95 30.15 13.95 Q28.95 14.3 29.0 14.65 L29.0 14.8 29.3 14.75 29.9 14.3 30.0 14.4 30.2 14.2 30.8 14.05 31.1 14.05 30.05 16.3 29.6 16.75 28.8 16.4 28.7 16.6 Q28.7 16.9 29.4 17.05 L30.2 17.2 29.5 18.1 28.4 18.75 28.1 18.8 28.4 19.05 Q28.9 19.0 29.45 18.55 L29.7 19.25 29.0 19.6 27.85 19.45 27.75 19.6 Q27.9 20.2 29.0 19.9 L29.3 20.5 29.3 20.55 28.4 20.4 27.4 20.2 Q27.35 20.45 27.85 20.65 L28.3 20.8 28.4 21.15 28.35 21.3 28.25 21.25 27.25 20.55 26.85 20.3 26.85 20.2 26.8 20.15 20.75 19.45 19.55 18.7 19.25 18.6 18.4 17.75 Q17.5 16.6 16.8 16.65 L16.65 16.7 16.65 16.65 16.4 16.65 16.4 16.7 16.35 16.7 16.35 16.75 16.35 16.9 15.95 16.95 Q15.45 17.05 15.1 16.6 L14.9 16.4 14.85 16.3 14.8 16.15 14.85 16.15 14.85 15.95 14.8 15.7 14.7 15.7 M22.4 15.4 L21.95 15.15 21.85 15.2 21.85 15.45 22.35 16.4 21.9 16.6 21.85 16.75 22.4 17.1 22.95 17.6 22.9 18.05 23.0 18.2 23.6 17.6 23.55 17.3 23.85 17.45 24.55 18.15 Q24.7 19.4 25.0 19.4 L25.15 19.6 25.5 19.85 25.65 19.85 25.95 19.8 25.95 19.55 25.4 17.75 25.2 16.8 Q24.95 16.55 23.85 16.4 L23.55 15.55 23.2 14.65 Q22.35 13.45 22.7 15.7 L22.4 15.4 M15.8 14.8 Q15.1 14.65 15.15 15.5 15.2 16.05 15.95 16.0 16.65 15.95 16.65 15.45 16.6 14.9 15.8 14.8 M15.5 15.25 L15.5 15.4 15.8 15.35 15.95 15.1 16.0 15.1 16.35 15.45 16.2 15.7 15.9 15.7 Q15.45 15.7 15.45 15.45 L15.5 15.25" fill="#ffffff" fill-rule="evenodd" stroke="none"/>
    <path d="M14.7 15.7 L14.8 15.7 14.85 15.95 14.85 16.15 14.8 16.15 14.6 16.15 14.6 16.1 14.35 16.15 13.8 16.3 14.55 15.8 14.55 15.7 14.7 15.7 M22.5 15.95 L22.9 16.4 23.0 16.35 22.8 14.75 22.85 14.75 23.25 15.9 23.65 16.6 24.2 16.8 25.0 17.0 25.4 18.45 25.6 19.5 25.4 19.5 25.35 19.3 25.1 19.2 25.1 19.15 24.8 17.8 Q24.7 17.05 23.5 17.05 L23.3 17.05 23.2 17.6 Q23.3 17.2 22.5 16.75 L22.7 16.6 22.45 16.0 22.5 15.95 M14.65 16.4 L14.65 16.55 14.25 16.55 14.65 16.4" fill="#ffff09" fill-rule="evenodd" stroke="none"/>
    <path d="M16.8 17.0 L16.9 17.0 16.8 17.0 M16.2 17.2 L16.3 17.2 16.35 17.2 16.05 17.25 16.55 17.35 16.7 18.0 16.8 18.7 16.65 19.4 16.95 19.4 16.95 19.35 17.2 19.3 17.25 19.4 18.4 19.35 19.35 19.45 19.55 19.4 19.7 19.4 19.6 19.35 19.75 18.75 19.75 18.7 19.85 18.35 19.95 17.1 19.95 16.7 20.05 16.15 20.15 15.45 20.25 14.8 20.2 14.35 20.2 14.15 20.2 14.05 Q20.4 13.4 21.2 13.55 L21.55 13.55 21.65 13.6 21.65 13.65 21.65 13.75 Q21.5 14.2 21.5 15.25 L21.5 15.6 21.45 16.05 21.2 18.85 21.1 19.0 Q21.1 19.55 21.75 19.55 L21.65 19.6 23.0 19.75 Q26.05 20.15 28.6 20.85 L29.6 21.1 30.7 21.4 31.2 21.5 31.25 21.65 31.15 21.7 25.4 21.25 Q21.65 21.0 18.1 21.2 L18.1 21.3 17.95 21.35 17.85 21.15 15.45 21.35 15.35 21.7 15.15 21.7 14.25 21.65 14.05 21.65 14.0 21.45 12.7 21.65 10.3 22.1 10.35 22.7 10.4 22.9 10.35 23.15 Q10.4 23.35 9.45 23.5 L9.5 23.75 9.3 23.85 9.2 23.55 9.05 23.55 9.0 23.45 9.1 23.3 8.9 22.6 8.65 22.75 8.2 23.55 8.0 23.8 7.55 24.05 Q7.05 24.1 6.75 23.6 L6.5 23.1 6.6 22.5 5.95 22.15 5.85 21.85 Q5.8 21.45 6.05 21.15 L6.25 20.95 4.3 15.4 4.3 15.35 4.2 15.25 4.55 14.6 4.9 14.2 4.85 14.2 4.85 14.0 5.0 13.9 7.35 14.35 9.3 14.8 9.45 14.75 10.95 19.3 11.0 19.3 11.25 19.4 11.25 19.65 11.3 19.9 12.7 19.8 12.95 19.75 12.85 19.5 12.95 18.45 12.8 17.9 12.8 17.6 14.0 17.4 15.05 17.3 15.1 17.3 15.95 17.2 16.05 17.2 16.2 17.2 M16.4 17.65 L13.05 17.8 13.05 18.0 13.2 18.4 13.15 19.75 14.05 19.65 14.3 19.6 14.45 19.2 14.45 19.25 14.5 19.15 14.95 19.1 15.7 19.2 15.85 19.3 15.85 19.45 16.3 19.4 16.5 18.45 16.4 17.65 M20.55 14.3 L20.45 14.3 20.4 14.4 20.45 15.1 Q20.3 15.45 20.3 16.5 L19.95 19.25 20.05 19.35 20.05 19.45 20.85 19.55 20.85 19.3 21.15 16.55 21.25 13.8 Q20.7 13.95 20.55 14.2 L20.55 14.3 M29.7 21.4 L25.4 20.5 22.05 20.0 Q21.85 20.15 21.95 20.45 L22.0 20.8 25.25 21.05 29.7 21.4 M21.5 19.55 L21.45 19.55 21.55 19.6 21.5 19.55 M21.7 20.5 Q21.65 20.15 21.75 19.95 L20.7 19.9 20.05 20.8 21.8 20.85 21.7 20.5 M19.85 20.8 L20.15 20.2 20.5 19.9 19.4 19.8 19.4 19.9 19.2 20.2 19.15 20.2 19.15 20.3 19.45 20.8 19.85 20.8 M18.7 19.8 L18.9 19.95 18.95 19.9 19.05 19.8 18.7 19.8 M17.5 20.5 L17.3 20.7 17.25 20.85 17.7 20.85 17.55 20.7 17.5 20.5 M19.1 20.8 L18.4 19.75 17.4 19.8 17.95 20.85 19.1 20.8 M15.3 19.45 L15.15 19.4 15.05 19.45 14.85 19.4 14.8 19.45 Q14.3 20.55 14.25 21.15 L14.9 21.4 15.2 21.1 15.25 21.1 15.3 20.85 15.35 20.75 15.45 20.0 15.45 19.9 15.45 19.75 15.4 19.5 15.45 19.5 15.5 19.4 15.3 19.45 M15.55 21.0 L15.75 21.0 16.95 20.9 17.15 20.5 17.35 20.2 17.05 19.8 15.75 19.85 15.65 20.4 15.55 21.0 M4.5 15.3 L5.5 18.05 6.4 20.85 6.4 20.9 6.75 20.9 Q7.05 20.7 7.25 20.75 L7.3 20.7 8.2 20.6 8.0 20.2 8.0 20.15 7.85 20.15 7.75 19.95 Q7.75 19.6 8.55 19.65 L9.55 19.6 9.7 19.6 9.85 20.2 10.0 20.2 11.1 19.9 11.05 19.9 10.75 19.9 10.05 17.3 Q9.4 15.85 9.25 15.05 L5.2 14.3 4.9 14.75 4.5 15.3 M13.75 20.4 L13.6 20.0 12.7 20.1 9.95 20.55 10.25 21.75 10.9 21.6 14.0 21.2 13.95 21.1 14.0 20.85 13.9 20.85 13.75 20.4 M14.25 19.9 L13.95 19.95 13.95 20.15 14.1 20.5 14.2 20.15 14.25 19.9 M9.65 20.6 L9.7 20.25 9.5 19.9 9.45 19.85 8.2 20.1 8.5 20.5 8.45 20.75 8.9 21.6 9.05 21.95 Q9.1 22.4 9.3 22.6 L9.4 22.9 9.4 23.2 10.15 23.05 10.05 22.75 10.05 22.55 9.8 21.4 9.75 21.2 9.75 21.0 9.65 20.6 M6.65 21.1 Q6.1 21.2 6.1 21.75 L6.2 22.0 7.0 22.2 7.05 22.3 6.75 23.0 6.95 23.45 Q7.2 23.75 7.55 23.75 L7.9 23.55 7.95 23.5 8.05 23.25 8.25 22.95 8.35 22.85 8.3 22.8 Q8.25 22.5 8.75 22.3 L8.8 22.3 8.35 20.95 7.6 21.1 7.55 21.15 7.55 21.2 7.4 21.25 7.15 21.1 6.95 21.05 6.95 21.15 6.8 21.25 6.7 21.1 6.65 21.1" fill="#000000" fill-rule="evenodd" stroke="none"/>
    <path d="M16.4 17.65 L16.5 18.45 16.3 19.4 15.85 19.45 15.85 19.3 15.7 19.2 14.95 19.1 14.5 19.15 14.45 19.25 14.45 19.2 14.3 19.6 14.05 19.65 13.15 19.75 13.2 18.4 13.05 18.0 13.05 17.8 16.4 17.65 M4.5 15.3 L4.9 14.75 5.2 14.3 9.25 15.05 Q9.4 15.85 10.05 17.3 L10.75 19.9 11.05 19.9 11.1 19.9 10.0 20.2 9.85 20.2 9.7 19.6 9.55 19.6 8.55 19.65 Q7.75 19.6 7.75 19.95 L7.85 20.15 8.0 20.15 8.0 20.2 8.2 20.6 7.3 20.7 7.25 20.75 Q7.05 20.7 6.75 20.9 L6.4 20.9 6.4 20.85 5.5 18.05 4.5 15.3" fill="#ac7339" fill-rule="evenodd" stroke="none"/>
    <path d="M20.55 14.3 L20.55 14.2 Q20.7 13.95 21.25 13.8 L21.15 16.55 20.85 19.3 20.85 19.55 20.05 19.45 20.05 19.35 19.95 19.25 20.3 16.5 Q20.3 15.45 20.45 15.1 L20.4 14.4 20.45 14.3 20.55 14.3 M15.3 19.45 L15.5 19.4 15.45 19.5 15.4 19.5 15.45 19.75 15.45 19.9 15.45 20.0 15.35 20.75 15.3 20.85 15.25 21.1 15.2 21.1 14.9 21.4 14.25 21.15 Q14.3 20.55 14.8 19.45 L14.85 19.4 15.05 19.45 15.15 19.4 15.3 19.45 M19.1 20.8 L17.95 20.85 17.4 19.8 18.4 19.75 19.1 20.8 M17.5 20.5 L17.55 20.7 17.7 20.85 17.25 20.85 17.3 20.7 17.5 20.5 M18.7 19.8 L19.05 19.8 18.95 19.9 18.9 19.95 18.7 19.8 M19.85 20.8 L19.45 20.8 19.15 20.3 19.15 20.2 19.2 20.2 19.4 19.9 19.4 19.8 20.5 19.9 20.15 20.2 19.85 20.8 M21.7 20.5 L21.8 20.85 20.05 20.8 20.7 19.9 21.75 19.95 Q21.65 20.15 21.7 20.5 M14.25 19.9 L14.2 20.15 14.1 20.5 13.95 20.15 13.95 19.95 14.25 19.9 M9.65 20.6 L9.75 21.0 9.75 21.2 9.8 21.4 10.05 22.55 10.05 22.75 10.15 23.05 9.4 23.2 9.4 22.9 9.3 22.6 Q9.1 22.4 9.05 21.95 L8.9 21.6 8.45 20.75 8.5 20.5 8.2 20.1 9.45 19.85 9.5 19.9 9.7 20.25 9.65 20.6" fill="#c8b159" fill-rule="evenodd" stroke="none"/>
    <path d="M26.45 16.8 L26.35 16.65 26.65 16.45 26.75 16.6 Q26.55 16.6 26.45 16.75 L26.45 16.8 M27.25 16.65 L27.8 16.5 27.8 16.55 27.9 16.85 28.15 16.95 28.15 17.0 27.25 16.65" fill="#ffffff" fill-rule="evenodd" stroke="none"/>
    <path d="M29.7 21.4 L25.25 21.05 22.0 20.8 21.95 20.45 Q21.85 20.15 22.05 20.0 L25.4 20.5 29.7 21.4 M15.55 21.0 L15.65 20.4 15.75 19.85 17.05 19.8 17.35 20.2 17.15 20.5 16.95 20.9 15.75 21.0 15.55 21.0 M13.75 20.4 L13.9 20.85 14.0 20.85 13.95 21.1 14.0 21.2 10.9 21.6 10.25 21.75 9.95 20.55 12.7 20.1 13.6 20.0 13.75 20.4 M6.65 21.1 L6.7 21.1 6.8 21.25 6.95 21.15 6.95 21.05 7.15 21.1 7.4 21.25 7.55 21.2 7.55 21.15 7.6 21.1 8.35 20.95 8.8 22.3 8.75 22.3 Q8.25 22.5 8.3 22.8 L8.35 22.85 8.25 22.95 8.05 23.25 7.95 23.5 7.9 23.55 7.55 23.75 Q7.2 23.75 6.95 23.45 L6.75 23.0 7.05 22.3 7.0 22.2 6.2 22.0 6.1 21.75 Q6.1 21.2 6.65 21.1" fill="#e2e0d8" fill-rule="evenodd" stroke="none"/>
    <path d="M7.25 6.55 Q7.4 7.2 6.8 7.85 L5.45 9.05 4.8 9.55 4.85 9.6 4.45 9.8 7.5 14.85 7.6 15.1 Q7.9 15.1 8.15 15.4 L8.55 16.05 8.6 16.8 7.85 17.5 6.65 17.4 6.1 16.9 Q6.0 16.5 6.2 15.95 L6.4 15.7 3.5 10.35 3.1 10.7 3.1 10.55 3.15 10.4 3.1 10.4 3.05 10.5 2.95 10.6 2.9 10.55 2.0 10.95 0.95 11.15 0.3 10.45 -0.2 9.4 Q-0.45 8.65 -0.15 8.3 L1.4 7.15 1.25 6.7 1.15 6.25 Q1.2 6.05 1.8 5.9 1.9 5.85 2.45 6.35 L3.35 5.65 Q4.35 4.6 5.5 4.85 L6.4 5.55 7.25 6.55 M1.9 6.15 L1.4 6.4 1.55 6.85 1.6 6.95 1.7 7.1 2.0 6.6 2.15 6.5 1.9 6.2 1.9 6.15 M1.45 7.6 L1.5 7.55 1.4 7.5 0.1 8.45 Q-0.2 8.75 0.05 9.35 L0.5 10.25 0.85 10.65 0.9 10.9 1.9 10.65 2.8 10.3 2.6 8.95 2.25 8.6 2.1 8.4 1.9 7.95 1.5 7.9 1.4 7.7 1.5 7.7 1.45 7.6 M2.5 7.6 L2.4 6.95 2.3 6.75 1.9 7.55 2.2 7.6 2.5 7.6 M2.9 6.95 L2.85 6.95 3.25 7.4 3.35 7.6 3.35 7.55 3.75 8.0 3.8 8.1 3.7 8.1 3.7 8.15 5.35 8.85 5.75 8.5 Q7.15 7.3 6.95 6.65 L6.2 5.6 Q5.5 4.9 4.85 5.1 4.0 5.35 2.7 6.6 L2.9 6.95 M2.7 7.35 L2.7 7.45 2.75 7.35 2.7 7.35 M4.3 9.2 L4.3 9.35 4.35 9.45 4.65 9.4 5.15 9.0 3.9 8.5 4.0 8.75 4.3 9.05 4.3 9.2 M3.45 9.75 L3.85 9.05 3.8 8.95 3.45 8.3 3.4 8.25 3.1 8.2 3.1 9.2 3.4 9.7 3.4 9.75 3.45 9.75 M2.2 8.0 L2.3 8.1 2.4 8.1 2.2 8.0 M3.2 9.95 L3.1 9.9 3.1 10.0 3.2 9.95 M3.7 10.1 L4.15 10.85 5.0 12.5 Q5.2 13.25 6.6 15.4 6.85 15.2 7.2 15.1 L7.35 15.1 4.25 9.95 4.05 10.0 3.7 10.1 M6.85 15.5 L6.95 15.6 6.95 15.7 Q6.25 16.3 6.4 16.8 L6.8 17.1 7.75 17.2 Q8.5 16.9 8.25 16.15 7.9 15.1 7.05 15.4 L6.85 15.5" fill="#000000" fill-rule="evenodd" stroke="none"/>
    <path d="M1.9 6.15 L1.9 6.2 2.15 6.5 2.0 6.6 1.7 7.1 1.6 6.95 1.55 6.85 1.4 6.4 1.9 6.15 M2.5 7.6 L2.2 7.6 1.9 7.55 2.3 6.75 2.4 6.95 2.5 7.6 M3.4 9.7 L3.1 9.2 3.1 8.2 3.4 8.25 3.45 8.3 3.8 8.95 3.85 9.05 3.45 9.75 3.4 9.7 M6.85 15.5 L7.05 15.4 Q7.9 15.1 8.25 16.15 8.5 16.9 7.75 17.2 L6.8 17.1 6.4 16.8 Q6.25 16.3 6.95 15.7 L6.95 15.6 6.85 15.5 M3.7 10.1 L4.05 10.0 4.25 9.95 7.35 15.1 7.2 15.1 Q6.85 15.2 6.6 15.4 5.2 13.25 5.0 12.5 L4.15 10.85 3.7 10.1" fill="#734d26" fill-rule="evenodd" stroke="none"/>
    <path d="M1.45 7.6 L1.5 7.7 1.4 7.7 1.5 7.9 1.9 7.95 2.1 8.4 2.25 8.6 2.6 8.95 2.8 10.3 1.9 10.65 0.9 10.9 0.85 10.65 0.5 10.25 0.05 9.35 Q-0.2 8.75 0.1 8.45 L1.4 7.5 1.5 7.55 1.45 7.6 M2.9 6.95 L2.7 6.6 Q4.0 5.35 4.85 5.1 5.5 4.9 6.2 5.6 L6.95 6.65 Q7.15 7.3 5.75 8.5 L5.35 8.85 3.7 8.15 3.7 8.1 3.8 8.1 3.75 8.0 3.35 7.55 3.35 7.6 3.25 7.4 2.85 6.95 2.9 6.95 M4.3 9.2 L4.3 9.05 4.0 8.75 3.9 8.5 5.15 9.0 4.65 9.4 4.35 9.45 4.3 9.35 4.3 9.2" fill="#9d9d9d" fill-rule="evenodd" stroke="none"/>
  </g>
</svg>
