<?xml version="1.0" encoding="UTF-8" standalone="no"?>
<svg xmlns:xlink="http://www.w3.org/1999/xlink" height="52.05px" width="50.4px" xmlns="http://www.w3.org/2000/svg">
  <g transform="matrix(1.0, 0.0, 0.0, 1.0, 1.5, 0.55)">
    <path d="M3.0 51.3 L2.85 51.35 2.4 50.95 2.3 50.8 2.15 50.85 2.1 50.65 2.15 50.6 2.1 50.55 2.05 50.5 1.75 50.1 1.4 49.5 -0.9 49.55 -1.35 49.5 -1.35 49.4 -1.4 48.7 -1.5 46.75 -1.5 46.5 -1.25 45.8 Q-0.95 45.25 -0.5 45.35 L0.0 45.35 0.0 45.3 0.15 45.3 0.4 45.35 0.4 45.3 Q0.15 43.65 0.25 33.95 L0.25 28.1 0.2 25.15 0.25 23.85 0.15 23.45 0.2 22.9 0.2 6.5 0.1 5.85 0.2 -0.15 7.65 -0.1 7.65 -0.15 7.8 -0.1 7.8 -0.05 8.0 0.0 8.0 22.15 8.05 22.35 8.05 23.4 8.05 45.0 10.05 45.2 Q10.25 45.3 10.25 45.75 L10.25 45.8 10.15 46.35 10.05 46.85 10.15 46.85 10.15 47.15 10.1 47.35 10.25 47.45 10.1 47.55 10.0 48.2 9.85 49.05 9.85 49.1 9.8 49.25 7.5 49.25 5.6 51.35 5.4 51.35 4.5 51.5 3.05 51.45 3.05 51.3 3.05 51.1 4.45 51.15 5.35 50.95 5.4 51.0 5.85 50.4 4.7 49.55 4.05 48.95 3.9 48.85 4.0 49.0 3.0 50.0 2.55 50.6 2.6 50.65 3.0 51.0 3.0 51.3 M3.9 48.85 L3.2 48.25 3.0 48.05 1.7 49.2 2.0 49.65 2.4 50.3 2.9 49.75 3.9 48.85 M7.65 5.95 L7.65 0.2 0.5 0.2 0.5 0.55 0.5 3.2 0.4 6.05 0.45 6.05 0.5 6.1 0.5 22.35 0.55 22.4 0.55 44.75 0.65 44.9 0.55 45.2 0.65 45.25 0.65 45.35 1.55 45.4 Q2.1 44.3 2.55 43.8 L2.55 43.55 6.45 43.55 6.5 43.7 6.5 43.75 6.75 44.25 6.9 44.7 7.0 45.0 7.05 45.05 7.7 45.05 7.75 45.05 7.7 44.85 7.75 44.65 7.7 14.35 7.7 9.6 7.65 7.2 7.75 5.95 7.65 5.95 M6.25 44.25 L6.1 43.85 2.9 43.95 2.75 43.9 2.15 45.4 4.05 46.65 5.3 45.7 6.5 44.95 6.4 44.6 6.5 44.6 6.5 44.3 6.25 44.25 M0.8 47.65 L0.85 47.35 0.85 47.3 0.85 47.2 0.8 47.0 1.4 45.75 0.9 45.75 0.15 45.65 -0.95 45.7 -1.0 47.0 -1.05 47.05 Q-0.9 47.45 -1.0 48.25 L-1.05 48.6 -1.0 48.75 -1.0 49.25 1.2 49.2 0.9 48.8 0.9 48.45 0.85 48.15 0.85 48.05 1.15 47.8 1.0 47.65 0.8 47.65 M1.85 46.05 L3.2 47.65 3.4 47.9 6.15 50.1 7.15 49.05 Q3.45 47.2 2.05 45.65 L1.85 46.05 M1.2 47.45 L1.25 47.95 1.15 48.65 1.5 49.0 2.85 47.85 1.65 46.4 1.25 47.0 1.25 47.35 1.2 47.45 M4.35 46.75 L4.25 46.8 4.45 46.95 5.05 47.35 Q5.2 47.0 5.85 46.3 L6.7 45.45 6.65 45.25 6.6 45.3 4.35 46.75 M9.45 45.6 L8.35 45.4 7.15 45.4 7.7 46.85 7.75 46.9 7.7 47.4 7.65 47.4 7.6 47.55 7.65 47.7 7.75 47.7 7.75 47.75 7.7 47.75 7.7 48.1 7.75 48.15 7.75 48.85 9.65 48.95 9.7 48.95 9.65 48.7 9.7 47.55 9.65 47.55 9.7 47.3 9.7 46.95 9.7 46.85 9.7 46.8 9.75 46.55 9.85 46.3 9.9 45.95 10.2 45.9 10.25 45.75 10.2 45.6 9.9 45.6 9.45 45.6 M7.35 48.75 L7.35 48.8 7.35 48.7 7.35 48.6 7.25 47.9 Q7.25 47.5 7.4 47.15 L7.45 47.05 6.85 45.8 5.4 47.6 7.35 48.75" fill="#000000" fill-rule="evenodd" stroke="none"/>
    <path d="M3.05 51.3 L3.0 51.3 3.0 51.0 2.6 50.65 2.55 50.6 3.0 50.0 4.0 49.0 4.05 48.95 4.7 49.55 5.85 50.4 5.4 51.0 5.35 50.95 4.45 51.15 3.05 51.1 3.05 51.3 M7.65 5.95 L7.75 5.95 7.65 7.2 7.7 9.6 7.7 14.35 7.75 44.65 7.7 44.85 7.75 45.05 7.7 45.05 7.05 45.05 7.0 45.0 6.9 44.7 6.75 44.25 6.5 43.75 6.5 43.7 6.45 43.55 2.55 43.55 2.55 43.8 Q2.1 44.3 1.55 45.4 L0.65 45.35 0.65 45.25 0.55 45.2 0.65 44.9 0.55 44.75 0.55 22.4 0.5 22.35 0.5 6.1 0.45 6.05 0.4 6.05 0.5 3.2 0.5 0.55 0.5 0.2 7.65 0.2 7.65 5.95 M6.25 44.25 L4.9 44.35 4.95 44.5 6.0 44.5 6.1 44.6 6.4 44.6 6.5 44.95 5.3 45.7 4.05 46.65 2.15 45.4 2.75 43.9 2.9 43.95 6.1 43.85 6.25 44.25 M2.5 41.4 Q2.2 41.55 2.2 41.95 L2.4 42.55 2.65 42.5 2.65 41.95 2.55 41.85 2.65 41.6 2.5 41.4 M3.15 40.1 L3.15 37.9 3.1 37.85 Q2.85 37.9 2.85 39.0 L2.9 40.15 3.15 40.1 M7.2 41.9 L6.95 41.9 6.95 43.55 7.0 43.6 7.25 43.55 7.25 41.95 7.2 41.9 M7.05 40.1 L7.0 40.05 Q6.65 39.9 6.65 40.4 L6.7 40.65 6.9 40.9 7.05 40.85 7.05 40.1 M7.25 35.35 L7.2 35.3 Q6.9 35.35 6.9 36.0 L6.95 37.1 7.0 38.85 7.25 38.8 7.25 35.35 M5.55 34.15 Q5.25 34.25 5.25 34.75 5.25 39.5 5.4 41.9 L5.65 41.85 5.75 34.35 5.55 34.15 M1.4 34.8 L1.35 34.75 Q1.05 34.8 1.05 35.5 L1.05 36.7 1.15 44.3 1.4 44.25 1.4 34.8 M2.8 29.7 L2.75 29.4 2.5 29.4 2.45 30.35 2.5 31.1 2.75 31.05 2.8 29.7 M6.75 23.95 L6.7 23.9 Q6.4 24.15 6.4 24.9 L6.45 26.05 6.45 28.35 6.5 32.75 6.75 32.7 6.75 23.95 M5.4 20.35 L5.4 18.9 5.35 18.85 Q5.05 18.7 5.05 19.15 L5.25 20.4 5.4 20.35 M2.3 21.65 L2.25 21.4 Q1.9 21.5 1.9 22.85 1.9 23.65 2.05 23.9 2.4 23.6 2.4 22.85 L2.3 21.65 M1.35 13.1 Q1.0 13.4 1.0 14.15 L1.05 15.3 1.1 31.55 1.35 31.5 1.35 13.4 1.4 13.25 1.35 13.1 M6.05 13.1 L6.0 12.9 5.75 12.9 5.55 14.6 5.6 15.6 5.85 15.55 6.05 13.1 M7.15 18.5 L7.1 16.9 Q6.8 17.25 6.8 18.0 L6.85 19.3 6.7 21.85 6.75 22.15 Q7.15 21.25 7.15 18.5 M1.5 9.7 L1.45 9.65 1.2 9.65 1.15 10.25 1.25 10.8 1.5 10.75 1.5 9.7 M1.55 0.65 L1.5 0.6 1.25 0.6 1.3 6.95 1.55 6.9 1.55 0.65 M2.4 0.6 L2.35 0.55 Q2.05 0.85 2.05 1.6 L2.1 2.75 2.1 5.05 2.15 9.55 2.4 9.5 2.4 0.6 M3.55 1.75 L3.55 2.1 3.8 2.1 3.9 1.7 3.85 1.45 3.6 1.45 3.55 1.75 M3.15 0.95 L3.1 0.9 2.85 0.9 2.85 2.0 2.9 2.05 3.15 2.0 3.15 0.95 M4.8 0.5 L4.75 0.45 Q4.45 0.45 4.45 1.0 L4.55 1.95 4.8 1.9 4.8 0.5 M5.9 0.65 L5.85 0.6 Q5.55 0.6 5.55 0.9 L5.65 8.1 5.9 8.05 5.9 0.65 M7.05 0.7 L7.0 0.55 6.65 0.55 6.65 11.7 6.7 11.75 7.0 11.6 7.0 0.85 7.05 0.7 M0.4 46.2 L0.4 45.95 0.35 45.9 -0.45 45.85 -0.45 46.1 -0.25 46.2 0.4 46.2 M4.4 45.25 L4.35 45.0 4.05 45.05 4.1 45.3 4.35 45.3 4.4 45.25 M4.4 44.45 L4.35 44.4 3.8 44.4 3.65 44.55 3.7 44.7 4.4 44.7 4.4 44.45 M0.85 48.05 L0.85 48.15 0.9 48.45 0.9 48.8 1.2 49.2 -1.0 49.25 -1.0 48.75 -1.05 48.6 -1.0 48.25 Q-0.9 47.45 -1.05 47.05 L-1.0 47.0 -0.95 45.7 0.15 45.65 0.9 45.75 1.4 45.75 0.8 47.0 0.85 47.2 0.85 47.3 0.85 47.35 0.8 47.65 0.25 47.65 Q0.25 48.05 0.8 48.05 L0.85 48.05 M0.15 47.1 L0.1 47.05 -0.75 47.0 -0.8 47.25 -0.55 47.35 0.15 47.35 0.15 47.1 M1.9 47.75 Q1.9 47.4 1.7 47.4 L1.55 47.6 1.6 47.8 1.85 47.8 1.9 47.75 M1.2 47.45 L1.25 47.35 1.25 47.0 1.65 46.4 2.85 47.85 1.5 49.0 1.15 48.65 1.25 47.95 1.2 47.45 M9.45 45.6 L8.0 45.6 7.85 45.65 7.85 46.0 9.9 45.95 9.85 46.3 9.75 46.55 9.7 46.8 9.7 46.85 9.7 46.95 9.7 47.3 9.65 47.55 9.7 47.55 9.65 48.7 9.65 48.95 7.75 48.85 7.75 48.15 7.7 48.1 7.7 47.75 7.75 47.75 7.75 47.7 8.6 47.8 8.75 47.75 Q8.75 47.4 8.1 47.4 L7.7 47.4 7.75 46.9 7.7 46.85 7.15 45.4 8.35 45.4 9.45 45.6 M8.55 46.4 L8.5 46.25 8.05 46.25 8.05 46.5 8.1 46.7 8.55 46.4 M7.35 48.7 L7.35 48.75 5.4 47.6 6.85 45.8 7.45 47.05 7.4 47.15 Q7.25 47.5 7.25 47.9 L7.35 48.6 7.35 48.7 M8.45 48.35 L8.8 48.35 9.0 48.15 8.95 48.0 8.5 48.0 8.4 48.2 8.45 48.35" fill="#cbb356" fill-rule="evenodd" stroke="none"/>
    <path d="M7.05 0.7 L7.0 0.85 7.0 11.6 6.7 11.75 6.65 11.7 6.65 0.55 7.0 0.55 7.05 0.7 M5.9 0.65 L5.9 8.05 5.65 8.1 5.55 0.9 Q5.55 0.6 5.85 0.6 L5.9 0.65 M4.8 0.5 L4.8 1.9 4.55 1.95 4.45 1.0 Q4.45 0.45 4.75 0.45 L4.8 0.5 M3.15 0.95 L3.15 2.0 2.9 2.05 2.85 2.0 2.85 0.9 3.1 0.9 3.15 0.95 M3.55 1.75 L3.6 1.45 3.85 1.45 3.9 1.7 3.8 2.1 3.55 2.1 3.55 1.75 M2.4 0.6 L2.4 9.5 2.15 9.55 2.1 5.05 2.1 2.75 2.05 1.6 Q2.05 0.85 2.35 0.55 L2.4 0.6 M1.55 0.65 L1.55 6.9 1.3 6.95 1.25 0.6 1.5 0.6 1.55 0.65 M1.5 9.7 L1.5 10.75 1.25 10.8 1.15 10.25 1.2 9.65 1.45 9.65 1.5 9.7 M7.15 18.5 Q7.15 21.25 6.75 22.15 L6.7 21.85 6.85 19.3 6.8 18.0 Q6.8 17.25 7.1 16.9 L7.15 18.5 M6.05 13.1 L5.85 15.55 5.6 15.6 5.55 14.6 5.75 12.9 6.0 12.9 6.05 13.1 M1.35 13.1 L1.4 13.25 1.35 13.4 1.35 31.5 1.1 31.55 1.05 15.3 1.0 14.15 Q1.0 13.4 1.35 13.1 M2.3 21.65 L2.4 22.85 Q2.4 23.6 2.05 23.9 1.9 23.65 1.9 22.85 1.9 21.5 2.25 21.4 L2.3 21.65 M5.4 20.35 L5.25 20.4 5.05 19.15 Q5.05 18.7 5.35 18.85 L5.4 18.9 5.4 20.35 M6.75 23.95 L6.75 32.7 6.5 32.75 6.45 28.35 6.45 26.05 6.4 24.9 Q6.4 24.15 6.7 23.9 L6.75 23.95 M2.8 29.7 L2.75 31.05 2.5 31.1 2.45 30.35 2.5 29.4 2.75 29.4 2.8 29.7 M1.4 34.8 L1.4 44.25 1.15 44.3 1.05 36.7 1.05 35.5 Q1.05 34.8 1.35 34.75 L1.4 34.8 M5.55 34.15 L5.75 34.35 5.65 41.85 5.4 41.9 Q5.25 39.5 5.25 34.75 5.25 34.25 5.55 34.15 M7.25 35.35 L7.25 38.8 7.0 38.85 6.95 37.1 6.9 36.0 Q6.9 35.35 7.2 35.3 L7.25 35.35 M7.05 40.1 L7.05 40.85 6.9 40.9 6.7 40.65 6.65 40.4 Q6.65 39.9 7.0 40.05 L7.05 40.1 M7.2 41.9 L7.25 41.95 7.25 43.55 7.0 43.6 6.95 43.55 6.95 41.9 7.2 41.9 M3.15 40.1 L2.9 40.15 2.85 39.0 Q2.85 37.9 3.1 37.85 L3.15 37.9 3.15 40.1 M2.5 41.4 L2.65 41.6 2.55 41.85 2.65 41.95 2.65 42.5 2.4 42.55 2.2 41.95 Q2.2 41.55 2.5 41.4 M6.4 44.6 L6.1 44.6 6.0 44.5 4.95 44.5 4.9 44.35 6.25 44.25 6.5 44.3 6.5 44.6 6.4 44.6 M4.4 44.45 L4.4 44.7 3.7 44.7 3.65 44.55 3.8 44.4 4.35 44.4 4.4 44.45 M4.4 45.25 L4.35 45.3 4.1 45.3 4.05 45.05 4.35 45.0 4.4 45.25 M0.4 46.2 L-0.25 46.2 -0.45 46.1 -0.45 45.85 0.35 45.9 0.4 45.95 0.4 46.2 M0.85 48.05 L0.8 48.05 Q0.25 48.05 0.25 47.65 L0.8 47.65 1.0 47.65 1.15 47.8 0.85 48.05 M1.9 47.75 L1.85 47.8 1.6 47.8 1.55 47.6 1.7 47.4 Q1.9 47.4 1.9 47.75 M0.15 47.1 L0.15 47.35 -0.55 47.35 -0.8 47.25 -0.75 47.0 0.1 47.05 0.15 47.1 M8.55 46.4 L8.1 46.7 8.05 46.5 8.05 46.25 8.5 46.25 8.55 46.4 M9.9 45.95 L7.85 46.0 7.85 45.65 8.0 45.6 9.45 45.6 9.9 45.6 10.2 45.6 10.25 45.75 10.2 45.9 9.9 45.95 M7.7 47.4 L8.1 47.4 Q8.75 47.4 8.75 47.75 L8.6 47.8 7.75 47.7 7.65 47.7 7.6 47.55 7.65 47.4 7.7 47.4 M8.45 48.35 L8.4 48.2 8.5 48.0 8.95 48.0 9.0 48.15 8.8 48.35 8.45 48.35" fill="#a28b33" fill-rule="evenodd" stroke="none"/>
    <path d="M3.9 48.85 L2.9 49.75 2.4 50.3 2.0 49.65 1.7 49.2 3.0 48.05 3.2 48.25 3.9 48.85 M1.85 46.05 L2.05 45.65 Q3.45 47.2 7.15 49.05 L6.15 50.1 3.4 47.9 3.2 47.65 1.85 46.05 M4.45 46.95 L4.35 46.75 6.6 45.3 6.7 45.45 5.85 46.3 Q5.2 47.0 5.05 47.35 L4.45 46.95" fill="#f0ead2" fill-rule="evenodd" stroke="none"/>
    <path d="M41.65 51.15 L41.5 51.2 41.05 50.8 40.95 50.65 40.8 50.7 40.75 50.5 40.8 50.45 40.75 50.4 40.7 50.35 40.4 49.95 40.05 49.35 37.75 49.4 37.3 49.35 37.3 49.25 Q37.2 49.05 37.25 48.55 L37.15 46.6 37.15 46.35 37.4 45.65 Q37.7 45.1 38.15 45.2 L38.65 45.2 38.65 45.15 38.8 45.15 39.05 45.2 39.05 45.15 Q38.8 43.5 38.9 33.8 L38.9 27.95 38.85 25.0 38.9 23.7 38.8 23.3 38.85 22.75 38.85 6.35 38.75 5.7 38.85 -0.3 46.3 -0.25 46.3 -0.3 46.45 -0.25 46.45 -0.2 46.65 -0.15 46.65 22.0 46.7 22.2 46.7 23.25 46.7 44.85 48.7 45.05 Q48.9 45.15 48.9 45.6 L48.9 45.65 48.8 46.2 48.7 46.7 48.8 46.7 48.8 47.0 48.75 47.2 48.9 47.3 48.75 47.4 48.65 48.05 48.5 48.9 48.5 48.95 48.45 49.1 46.15 49.1 44.25 51.2 44.05 51.2 43.15 51.35 41.7 51.3 41.7 51.15 41.7 50.95 43.1 51.0 44.0 50.8 44.05 50.85 44.5 50.25 43.35 49.4 42.7 48.8 42.55 48.7 42.65 48.85 41.65 49.85 41.2 50.45 41.25 50.5 41.65 50.85 41.65 51.15 M42.55 48.7 L41.85 48.1 41.65 47.9 40.35 49.05 40.65 49.5 41.05 50.15 41.55 49.6 42.55 48.7 M46.3 5.8 L46.3 0.05 39.15 0.05 39.15 0.4 39.15 3.05 39.05 5.9 39.1 5.9 39.15 5.95 39.15 22.2 39.2 22.25 39.2 44.6 39.3 44.75 39.2 45.05 39.3 45.1 39.3 45.2 40.2 45.25 41.2 43.65 41.2 43.4 45.1 43.4 45.15 43.55 45.15 43.6 45.4 44.1 45.55 44.55 45.65 44.85 45.7 44.9 46.35 44.9 46.4 44.9 46.35 44.7 46.4 44.5 46.35 14.2 46.35 9.45 46.3 7.05 46.4 5.8 46.3 5.8 M44.9 44.1 L44.75 43.7 41.55 43.8 41.4 43.75 40.8 45.25 42.7 46.5 Q42.9 46.2 43.95 45.55 L45.15 44.8 45.05 44.45 45.15 44.45 45.15 44.15 44.9 44.1 M39.45 47.5 L39.5 47.2 39.5 47.15 39.5 47.05 39.45 46.85 40.05 45.6 39.55 45.6 38.8 45.5 37.7 45.55 37.65 46.85 37.6 46.9 37.65 48.1 37.6 48.45 37.65 48.6 37.65 49.1 39.85 49.05 39.55 48.65 39.55 48.3 39.5 48.0 39.5 47.9 39.8 47.65 39.65 47.5 39.45 47.5 M40.5 45.9 L41.85 47.5 42.05 47.75 44.8 49.95 45.8 48.9 Q42.1 47.05 40.7 45.5 L40.5 45.9 M39.85 47.3 L39.9 47.8 39.8 48.5 40.15 48.85 41.5 47.7 40.3 46.25 39.9 46.85 39.9 47.2 39.85 47.3 M43.0 46.6 L42.9 46.65 43.1 46.8 43.7 47.2 44.5 46.15 45.35 45.3 45.3 45.1 45.25 45.15 43.0 46.6 M48.1 45.45 L47.0 45.25 45.8 45.25 46.35 46.7 46.4 46.75 46.35 47.25 46.3 47.25 46.25 47.4 46.3 47.55 46.4 47.55 46.4 47.6 46.35 47.6 46.35 47.95 46.4 48.0 46.4 48.7 48.3 48.8 48.35 48.8 48.3 48.55 48.35 47.4 48.3 47.4 48.35 47.15 48.35 46.8 48.35 46.7 48.35 46.65 48.4 46.4 48.5 46.15 48.55 45.8 48.85 45.75 48.9 45.6 48.85 45.45 48.55 45.45 48.1 45.45 M46.0 48.55 L46.0 48.45 45.9 47.75 Q45.9 47.35 46.05 47.0 L46.1 46.9 45.5 45.65 44.05 47.45 46.0 48.6 46.0 48.65 46.0 48.55" fill="#000000" fill-rule="evenodd" stroke="none"/>
    <path d="M41.7 51.15 L41.65 51.15 41.65 50.85 41.25 50.5 41.2 50.45 41.65 49.85 42.65 48.85 42.7 48.8 43.35 49.4 44.5 50.25 44.05 50.85 44.0 50.8 43.1 51.0 41.7 50.95 41.7 51.15 M45.7 0.55 L45.65 0.4 45.3 0.4 45.3 11.55 45.35 11.6 45.65 11.45 45.65 0.7 45.7 0.55 M44.55 0.5 L44.5 0.45 Q44.2 0.45 44.2 0.75 L44.3 7.95 44.55 7.9 44.55 0.5 M46.3 5.8 L46.4 5.8 46.3 7.05 46.35 9.45 46.35 14.2 46.4 44.5 46.35 44.7 46.4 44.9 46.35 44.9 45.7 44.9 45.65 44.85 45.55 44.55 45.4 44.1 45.15 43.6 45.15 43.55 45.1 43.4 41.2 43.4 41.2 43.65 40.2 45.25 39.3 45.2 39.3 45.1 39.2 45.05 39.3 44.75 39.2 44.6 39.2 22.25 39.15 22.2 39.15 5.95 39.1 5.9 39.05 5.9 39.15 3.05 39.15 0.4 39.15 0.05 46.3 0.05 46.3 5.8 M44.9 44.1 L43.55 44.2 43.6 44.35 44.65 44.35 44.75 44.45 45.05 44.45 45.15 44.8 43.95 45.55 Q42.9 46.2 42.7 46.5 L40.8 45.25 41.4 43.75 41.55 43.8 44.75 43.7 44.9 44.1 M41.15 41.25 Q40.85 41.4 40.85 41.8 L41.05 42.4 41.3 42.35 41.3 41.8 41.2 41.7 41.3 41.45 41.15 41.25 M41.55 40.0 L41.8 39.95 41.8 37.75 41.75 37.7 Q41.5 37.75 41.5 38.85 L41.55 40.0 M45.85 41.75 L45.6 41.75 45.6 43.4 45.65 43.45 45.9 43.4 45.9 41.8 45.85 41.75 M45.7 39.95 L45.65 39.9 Q45.3 39.75 45.3 40.25 L45.35 40.5 45.55 40.75 45.7 40.7 45.7 39.95 M44.2 34.0 Q43.9 34.1 43.9 34.6 43.9 39.35 44.05 41.75 L44.3 41.7 44.4 34.2 44.2 34.0 M45.9 35.2 L45.85 35.15 Q45.55 35.2 45.55 35.85 L45.6 36.95 45.65 38.7 45.9 38.65 45.9 35.2 M40.05 34.65 L40.0 34.6 Q39.7 34.65 39.7 35.35 L39.7 36.55 39.8 44.15 40.05 44.1 40.05 34.65 M41.45 29.55 L41.4 29.25 41.15 29.25 41.1 30.2 41.15 30.95 41.4 30.9 41.45 29.55 M45.4 23.8 L45.35 23.75 Q45.05 24.0 45.05 24.75 L45.1 25.9 45.1 28.2 45.15 32.6 45.4 32.55 45.4 23.8 M43.9 20.25 L44.05 20.2 44.05 18.75 44.0 18.7 Q43.7 18.55 43.7 19.0 43.7 20.05 43.9 20.25 M40.95 21.5 L40.9 21.25 Q40.55 21.35 40.55 22.7 40.55 23.5 40.7 23.75 41.05 23.45 41.05 22.7 L40.95 21.5 M40.0 12.95 Q39.65 13.25 39.65 14.0 L39.7 15.15 39.75 31.4 40.0 31.35 40.0 13.25 40.05 13.1 40.0 12.95 M45.8 18.35 L45.75 16.75 Q45.45 17.1 45.45 17.85 L45.5 19.15 45.35 21.7 45.4 22.0 Q45.8 21.1 45.8 18.35 M44.7 12.95 L44.65 12.75 44.4 12.75 44.2 14.45 44.25 15.45 44.5 15.4 44.7 12.95 M40.15 9.55 L40.1 9.5 39.85 9.5 39.8 10.1 39.9 10.65 40.15 10.6 40.15 9.55 M41.05 0.45 L41.0 0.4 Q40.7 0.7 40.7 1.45 L40.75 2.6 40.75 4.9 40.8 9.4 41.05 9.35 41.05 0.45 M40.2 0.5 L40.15 0.45 39.9 0.45 39.95 6.8 40.2 6.75 40.2 0.5 M42.2 1.6 L42.2 1.95 42.45 1.95 42.55 1.55 42.5 1.3 42.25 1.3 42.2 1.6 M41.8 0.8 L41.75 0.75 41.5 0.75 41.5 1.85 41.55 1.9 41.8 1.85 41.8 0.8 M43.4 0.3 Q43.1 0.3 43.1 0.85 L43.2 1.8 43.45 1.75 43.45 0.35 43.4 0.3 M39.05 45.8 L39.0 45.75 38.2 45.7 38.2 45.95 38.4 46.05 39.05 46.05 39.05 45.8 M43.05 45.1 L43.0 44.85 42.7 44.9 42.75 45.15 43.0 45.15 43.05 45.1 M43.05 44.55 L43.05 44.3 43.0 44.25 42.45 44.25 42.3 44.4 42.35 44.55 43.05 44.55 M39.5 47.9 L39.5 48.0 39.55 48.3 39.55 48.65 39.85 49.05 37.65 49.1 37.65 48.6 37.6 48.45 37.65 48.1 37.6 46.9 37.65 46.85 37.7 45.55 38.8 45.5 39.55 45.6 40.05 45.6 39.45 46.85 39.5 47.05 39.5 47.15 39.5 47.2 39.45 47.5 38.9 47.5 Q38.9 47.9 39.45 47.9 L39.5 47.9 M38.8 46.95 L38.75 46.9 37.9 46.85 Q37.8 46.9 37.85 47.1 L38.1 47.2 38.8 47.2 38.8 46.95 M40.55 47.6 Q40.55 47.25 40.35 47.25 L40.2 47.45 40.25 47.65 40.5 47.65 40.55 47.6 M39.85 47.3 L39.9 47.2 39.9 46.85 40.3 46.25 41.5 47.7 40.15 48.85 39.8 48.5 39.9 47.8 39.85 47.3 M48.1 45.45 L46.65 45.45 46.5 45.5 46.5 45.85 48.55 45.8 48.5 46.15 48.4 46.4 48.35 46.65 48.35 46.7 48.35 46.8 48.35 47.15 48.3 47.4 48.35 47.4 48.3 48.55 48.3 48.8 46.4 48.7 46.4 48.0 46.35 47.95 46.35 47.6 46.4 47.6 46.4 47.55 47.25 47.65 47.4 47.6 Q47.4 47.25 46.75 47.25 L46.35 47.25 46.4 46.75 46.35 46.7 45.8 45.25 47.0 45.25 48.1 45.45 M47.15 46.1 L46.7 46.1 46.7 46.35 46.75 46.55 47.2 46.25 47.15 46.1 M46.0 48.6 L44.05 47.45 45.5 45.65 46.1 46.9 46.05 47.0 Q45.9 47.35 45.9 47.75 L46.0 48.45 46.0 48.55 46.0 48.6 M47.1 48.2 L47.45 48.2 47.65 48.0 47.6 47.85 47.15 47.85 47.05 48.05 47.1 48.2" fill="#cbb356" fill-rule="evenodd" stroke="none"/>
    <path d="M44.55 0.5 L44.55 7.9 44.3 7.95 44.2 0.75 Q44.2 0.45 44.5 0.45 L44.55 0.5 M45.7 0.55 L45.65 0.7 45.65 11.45 45.35 11.6 45.3 11.55 45.3 0.4 45.65 0.4 45.7 0.55 M43.4 0.3 L43.45 0.35 43.45 1.75 43.2 1.8 43.1 0.85 Q43.1 0.3 43.4 0.3 M41.8 0.8 L41.8 1.85 41.55 1.9 41.5 1.85 41.5 0.75 41.75 0.75 41.8 0.8 M42.2 1.6 L42.25 1.3 42.5 1.3 42.55 1.55 42.45 1.95 42.2 1.95 42.2 1.6 M40.2 0.5 L40.2 6.75 39.95 6.8 39.9 0.45 40.15 0.45 40.2 0.5 M41.05 0.45 L41.05 9.35 40.8 9.4 40.75 4.9 40.75 2.6 40.7 1.45 Q40.7 0.7 41.0 0.4 L41.05 0.45 M40.15 9.55 L40.15 10.6 39.9 10.65 39.8 10.1 39.85 9.5 40.1 9.5 40.15 9.55 M44.7 12.95 L44.5 15.4 44.25 15.45 44.2 14.45 44.4 12.75 44.65 12.75 44.7 12.95 M45.8 18.35 Q45.8 21.1 45.4 22.0 L45.35 21.7 45.5 19.15 45.45 17.85 Q45.45 17.1 45.75 16.75 L45.8 18.35 M40.0 12.95 L40.05 13.1 40.0 13.25 40.0 31.35 39.75 31.4 39.7 15.15 39.65 14.0 Q39.65 13.25 40.0 12.95 M40.95 21.5 L41.05 22.7 Q41.05 23.45 40.7 23.75 40.55 23.5 40.55 22.7 40.55 21.35 40.9 21.25 L40.95 21.5 M43.9 20.25 Q43.7 20.05 43.7 19.0 43.7 18.55 44.0 18.7 L44.05 18.75 44.05 20.2 43.9 20.25 M45.4 23.8 L45.4 32.55 45.15 32.6 45.1 28.2 45.1 25.9 45.05 24.75 Q45.05 24.0 45.35 23.75 L45.4 23.8 M41.45 29.55 L41.4 30.9 41.15 30.95 41.1 30.2 41.15 29.25 41.4 29.25 41.45 29.55 M40.05 34.65 L40.05 44.1 39.8 44.15 39.7 36.55 39.7 35.35 Q39.7 34.65 40.0 34.6 L40.05 34.65 M45.9 35.2 L45.9 38.65 45.65 38.7 45.6 36.95 45.55 35.85 Q45.55 35.2 45.85 35.15 L45.9 35.2 M44.2 34.0 L44.4 34.2 44.3 41.7 44.05 41.75 Q43.9 39.35 43.9 34.6 43.9 34.1 44.2 34.0 M45.7 39.95 L45.7 40.7 45.55 40.75 45.35 40.5 45.3 40.25 Q45.3 39.75 45.65 39.9 L45.7 39.95 M45.85 41.75 L45.9 41.8 45.9 43.4 45.65 43.45 45.6 43.4 45.6 41.75 45.85 41.75 M41.55 40.0 L41.5 38.85 Q41.5 37.75 41.75 37.7 L41.8 37.75 41.8 39.95 41.55 40.0 M41.15 41.25 L41.3 41.45 41.2 41.7 41.3 41.8 41.3 42.35 41.05 42.4 40.85 41.8 Q40.85 41.4 41.15 41.25 M45.05 44.45 L44.75 44.45 44.65 44.35 43.6 44.35 43.55 44.2 44.9 44.1 45.15 44.15 45.15 44.45 45.05 44.45 M43.05 44.55 L42.35 44.55 42.3 44.4 42.45 44.25 43.0 44.25 43.05 44.3 43.05 44.55 M43.05 45.1 L43.0 45.15 42.75 45.15 42.7 44.9 43.0 44.85 43.05 45.1 M39.05 45.8 L39.05 46.05 38.4 46.05 38.2 45.95 38.2 45.7 39.0 45.75 39.05 45.8 M39.5 47.9 L39.45 47.9 Q38.9 47.9 38.9 47.5 L39.45 47.5 39.65 47.5 39.8 47.65 39.5 47.9 M40.55 47.6 L40.5 47.65 40.25 47.65 40.2 47.45 40.35 47.25 Q40.55 47.25 40.55 47.6 M38.8 46.95 L38.8 47.2 38.1 47.2 37.85 47.1 Q37.8 46.9 37.9 46.85 L38.75 46.9 38.8 46.95 M47.15 46.1 L47.2 46.25 46.75 46.55 46.7 46.35 46.7 46.1 47.15 46.1 M48.55 45.8 L46.5 45.85 46.5 45.5 46.65 45.45 48.1 45.45 48.55 45.45 48.85 45.45 48.9 45.6 48.85 45.75 48.55 45.8 M46.35 47.25 L46.75 47.25 Q47.4 47.25 47.4 47.6 L47.25 47.65 46.4 47.55 46.3 47.55 46.25 47.4 46.3 47.25 46.35 47.25 M47.1 48.2 L47.05 48.05 47.15 47.85 47.6 47.85 47.65 48.0 47.45 48.2 47.1 48.2" fill="#a28b33" fill-rule="evenodd" stroke="none"/>
    <path d="M42.55 48.7 L41.55 49.6 41.05 50.15 40.65 49.5 40.35 49.05 41.65 47.9 41.85 48.1 42.55 48.7 M40.5 45.9 L40.7 45.5 Q42.1 47.05 45.8 48.9 L44.8 49.95 42.05 47.75 41.85 47.5 40.5 45.9 M43.1 46.8 L43.0 46.6 45.25 45.15 45.35 45.3 44.5 46.15 43.7 47.2 43.1 46.8" fill="#f0ead2" fill-rule="evenodd" stroke="none"/>
    <path d="M3.8 0.0 L3.9 0.0 4.05 0.15 4.0 0.2 23.45 19.65 23.5 19.6 46.75 42.85 46.65 43.05 43.5 46.2 42.9 45.6 42.4 45.1 42.3 44.9 22.05 24.75 22.05 24.65 1.4 4.0 1.1 3.8 0.85 3.55 0.75 3.45 0.6 3.2 0.5 3.1 1.35 2.25 3.7 0.1 3.65 0.05 3.8 0.0 M1.0 3.2 L22.1 24.3 22.35 24.45 22.5 24.7 42.4 44.6 42.6 44.7 42.65 44.85 42.9 45.1 43.35 45.55 46.25 42.75 26.0 22.6 24.55 21.15 23.7 20.3 15.55 12.15 5.55 2.25 4.4 1.2 3.8 0.4 1.1 3.1 1.0 3.2" fill="#000000" fill-rule="evenodd" stroke="none"/>
    <path d="M1.1 3.1 L3.8 0.4 4.4 1.2 5.55 2.25 15.55 12.15 23.7 20.3 24.55 21.15 26.0 22.6 46.25 42.75 43.35 45.55 42.9 45.1 42.65 44.85 42.6 44.7 42.4 44.6 22.5 24.7 22.35 24.45 22.1 24.3 1.0 3.2 1.1 3.1 M43.55 42.25 L43.1 42.0 43.35 42.65 43.85 42.95 Q44.05 42.75 43.55 42.25 M44.35 41.75 Q44.3 42.0 45.1 42.8 45.35 43.05 45.5 42.9 L45.55 42.75 44.55 41.75 44.35 41.75 M41.85 39.85 L41.7 40.0 44.95 43.25 45.1 43.1 41.85 39.85 M43.1 44.1 L43.55 44.55 43.7 44.3 42.85 43.45 42.8 43.5 Q42.65 43.65 42.85 43.85 L43.1 44.1 M38.15 39.55 L38.05 39.55 37.9 39.7 43.4 45.2 43.5 45.2 43.6 45.0 38.15 39.55 M35.2 35.7 L34.05 34.75 Q34.05 35.05 34.95 35.95 L36.05 36.95 Q36.05 36.55 35.2 35.7 M38.7 38.1 L38.45 37.95 Q38.2 38.1 38.35 38.25 L38.55 38.35 38.7 38.2 38.7 38.1 M39.15 36.75 L39.6 37.1 39.75 36.85 39.2 36.3 39.0 36.1 Q38.8 36.4 39.15 36.75 M38.2 36.0 L37.8 35.6 37.65 35.55 Q37.45 35.75 37.7 36.0 L38.0 36.3 38.2 36.0 M32.55 30.65 Q32.25 30.35 32.1 30.5 L32.05 30.65 36.45 35.05 36.6 34.9 32.55 30.65 M36.65 33.55 L36.5 33.4 36.3 33.6 37.2 34.6 37.9 35.3 Q38.1 35.0 37.8 34.7 L37.45 34.35 36.65 33.55 M26.05 23.85 L27.0 24.8 31.95 29.55 32.05 29.35 25.95 23.05 25.55 22.85 Q25.55 23.35 26.05 23.85 M26.45 25.05 L26.65 24.85 25.95 24.15 25.7 24.1 25.85 24.55 26.45 25.05 M13.3 14.1 L13.15 14.05 13.0 14.4 13.25 14.65 13.55 14.75 31.0 32.2 31.2 32.0 13.55 14.35 13.4 14.4 13.3 14.1 M20.0 17.6 L19.8 17.8 22.05 20.05 22.15 20.05 22.25 19.85 20.75 18.25 20.0 17.6 M18.4 16.5 L17.65 15.95 Q17.6 16.2 18.1 16.7 L18.6 17.2 19.55 18.15 19.7 17.9 18.4 16.5 M15.9 13.8 L18.05 15.85 18.2 15.6 17.2 14.5 Q16.05 13.35 15.45 13.15 L15.9 13.8 M7.65 4.95 L7.5 4.9 Q6.95 4.75 9.45 7.25 L10.4 8.5 Q11.05 9.25 11.6 9.2 L11.7 9.1 7.65 4.95 M6.25 5.15 L6.5 4.9 6.4 4.7 6.05 4.55 5.8 4.1 5.6 4.1 Q5.35 4.25 5.6 4.5 L6.25 5.15 M10.05 10.35 L9.85 10.55 13.45 14.15 13.5 14.1 13.7 13.9 10.1 10.3 10.05 10.35 M9.3 10.4 L9.2 10.4 9.05 10.55 9.85 11.35 9.9 11.4 10.05 11.15 9.3 10.4 M9.0 9.7 L8.85 9.55 8.65 9.75 8.85 10.05 9.05 10.15 Q9.3 9.9 9.0 9.7 M2.2 3.4 L2.0 3.6 Q1.9 3.8 2.1 4.0 L7.15 8.75 Q7.2 8.3 6.85 7.95 L6.2 7.4 4.9 6.1 3.7 4.6 Q2.95 3.75 2.3 3.8 L2.3 3.5 2.2 3.4 M4.95 3.05 Q5.1 2.7 4.65 2.25 4.05 1.85 3.9 2.0 L4.2 2.4 4.95 3.05" fill="#cbb356" fill-rule="evenodd" stroke="none"/>
    <path d="M4.95 3.05 L4.2 2.4 3.9 2.0 Q4.05 1.85 4.65 2.25 5.1 2.7 4.95 3.05 M2.2 3.4 L2.3 3.5 2.3 3.8 Q2.95 3.75 3.7 4.6 L4.9 6.1 6.2 7.4 6.85 7.95 Q7.2 8.3 7.15 8.75 L2.1 4.0 Q1.9 3.8 2.0 3.6 L2.2 3.4 M9.0 9.7 Q9.3 9.9 9.05 10.15 L8.85 10.05 8.65 9.75 8.85 9.55 9.0 9.7 M9.3 10.4 L10.05 11.15 9.9 11.4 9.85 11.35 9.05 10.55 9.2 10.4 9.3 10.4 M10.05 10.35 L10.1 10.3 13.7 13.9 13.5 14.1 13.45 14.15 9.85 10.55 10.05 10.35 M6.25 5.15 L5.6 4.5 Q5.35 4.25 5.6 4.1 L5.8 4.1 6.05 4.55 6.4 4.7 6.5 4.9 6.25 5.15 M7.65 4.95 L11.7 9.1 11.6 9.2 Q11.05 9.25 10.4 8.5 L9.45 7.25 Q6.95 4.75 7.5 4.9 L7.65 4.95 M15.9 13.8 L15.45 13.15 Q16.05 13.35 17.2 14.5 L18.2 15.6 18.05 15.85 15.9 13.8 M18.4 16.5 L19.7 17.9 19.55 18.15 18.6 17.2 18.1 16.7 Q17.6 16.2 17.65 15.95 L18.4 16.5 M20.0 17.6 L20.75 18.25 22.25 19.85 22.15 20.05 22.05 20.05 19.8 17.8 20.0 17.6 M13.3 14.1 L13.4 14.4 13.55 14.35 31.2 32.0 31.0 32.2 13.55 14.75 13.25 14.65 13.0 14.4 13.15 14.05 13.3 14.1 M26.45 25.05 L25.85 24.55 25.7 24.1 25.95 24.15 26.65 24.85 26.45 25.05 M26.05 23.85 Q25.55 23.35 25.55 22.85 L25.95 23.05 32.05 29.35 31.95 29.55 27.0 24.8 26.05 23.85 M36.65 33.55 L37.45 34.35 37.8 34.7 Q38.1 35.0 37.9 35.3 L37.2 34.6 36.3 33.6 36.5 33.4 36.65 33.55 M32.55 30.65 L36.6 34.9 36.45 35.05 32.05 30.65 32.1 30.5 Q32.25 30.35 32.55 30.65 M38.2 36.0 L38.0 36.3 37.7 36.0 Q37.45 35.75 37.65 35.55 L37.8 35.6 38.2 36.0 M39.15 36.75 Q38.8 36.4 39.0 36.1 L39.2 36.3 39.75 36.85 39.6 37.1 39.15 36.75 M38.7 38.1 L38.7 38.2 38.55 38.35 38.35 38.25 Q38.2 38.1 38.45 37.95 L38.7 38.1 M35.2 35.7 Q36.05 36.55 36.05 36.95 L34.95 35.95 Q34.05 35.05 34.05 34.75 L35.2 35.7 M38.15 39.55 L43.6 45.0 43.5 45.2 43.4 45.2 37.9 39.7 38.05 39.55 38.15 39.55 M43.1 44.1 L42.85 43.85 Q42.65 43.65 42.8 43.5 L42.85 43.45 43.7 44.3 43.55 44.55 43.1 44.1 M41.85 39.85 L45.1 43.1 44.95 43.25 41.7 40.0 41.85 39.85 M44.35 41.75 L44.55 41.75 45.55 42.75 45.5 42.9 Q45.35 43.05 45.1 42.8 44.3 42.0 44.35 41.75 M43.55 42.25 Q44.05 42.75 43.85 42.95 L43.35 42.65 43.1 42.0 43.55 42.25" fill="#a28b33" fill-rule="evenodd" stroke="none"/>
    <path d="M46.6 3.3 L46.6 3.4 46.45 3.55 46.4 3.5 26.95 22.95 27.0 23.0 3.75 46.25 3.55 46.15 0.4 43.0 1.0 42.4 1.5 41.9 1.7 41.8 21.85 21.55 21.95 21.55 42.6 0.9 42.8 0.6 43.05 0.35 43.15 0.25 43.4 0.1 43.5 0.0 44.35 0.85 46.5 3.2 46.55 3.15 46.6 3.3 M43.4 0.5 L22.3 21.6 22.15 21.85 21.9 22.0 2.0 41.9 1.9 42.1 1.75 42.15 1.5 42.4 1.05 42.85 3.85 45.75 24.0 25.5 25.45 24.05 26.3 23.2 34.45 15.05 44.35 5.05 45.4 3.9 46.2 3.3 43.5 0.6 43.4 0.5" fill="#000000" fill-rule="evenodd" stroke="none"/>
    <path d="M43.55 4.45 Q43.9 4.6 44.35 4.15 44.75 3.55 44.6 3.4 L44.2 3.7 43.55 4.45 M43.5 0.6 L46.2 3.3 45.4 3.9 44.35 5.05 34.45 15.05 26.3 23.2 25.45 24.05 24.0 25.5 3.85 45.75 1.05 42.85 1.5 42.4 1.75 42.15 1.9 42.1 2.0 41.9 21.9 22.0 22.15 21.85 22.3 21.6 43.4 0.5 43.5 0.6 M4.85 44.05 L4.85 43.85 3.8 44.6 Q3.55 44.85 3.7 45.0 L3.85 45.05 4.85 44.05 M4.35 43.05 L4.6 42.6 3.95 42.85 3.65 43.35 Q3.85 43.55 4.35 43.05 M6.75 41.35 L6.6 41.2 3.35 44.45 3.5 44.6 6.75 41.35 M2.5 42.6 L2.05 43.05 2.3 43.2 3.15 42.35 3.1 42.3 2.75 42.35 2.5 42.6 M10.9 34.7 L11.85 33.55 10.65 34.45 9.65 35.55 Q10.05 35.55 10.9 34.7 M7.05 37.65 L7.05 37.55 6.9 37.4 1.4 42.9 1.4 43.0 1.6 43.1 7.05 37.65 M9.85 38.65 L9.5 39.1 9.75 39.25 10.3 38.7 10.5 38.5 Q10.2 38.3 9.85 38.65 M8.5 38.2 L8.65 37.95 8.35 37.85 8.25 38.05 8.4 38.2 8.5 38.2 M10.6 37.7 L11.0 37.3 11.05 37.15 10.6 37.2 10.3 37.5 10.6 37.7 M13.2 36.0 L13.0 35.8 12.0 36.7 11.3 37.4 11.9 37.3 12.25 36.95 13.05 36.15 13.2 36.0 M15.95 32.05 L16.1 31.6 15.95 31.55 11.55 35.95 11.7 36.1 15.95 32.05 M22.75 25.55 L21.8 26.5 17.05 31.45 17.25 31.55 23.55 25.45 23.75 25.05 Q23.25 25.05 22.75 25.55 M21.55 25.95 L21.75 26.15 22.45 25.45 22.5 25.2 Q22.2 25.2 22.05 25.35 L21.55 25.95 M32.5 12.8 L32.55 12.65 32.2 12.5 31.95 12.75 31.85 13.05 14.4 30.5 14.6 30.7 32.25 13.05 32.2 12.9 32.5 12.8 M29.0 19.5 L28.8 19.3 26.55 21.55 26.55 21.65 26.75 21.75 28.35 20.25 29.0 19.5 M33.45 14.95 L32.8 15.4 30.75 17.55 31.0 17.7 32.1 16.7 33.45 14.95 M30.1 17.9 L30.65 17.15 Q30.4 17.1 29.9 17.6 L29.4 18.1 28.45 19.05 28.7 19.2 30.1 17.9 M41.65 7.15 L41.7 7.0 Q41.85 6.45 39.35 8.95 L38.1 9.9 Q37.35 10.55 37.4 11.1 L37.5 11.2 41.65 7.15 M41.45 5.75 L41.7 6.0 41.9 5.9 42.05 5.55 42.5 5.3 42.5 5.1 Q42.35 4.85 42.1 5.1 L41.45 5.75 M36.3 9.6 L36.25 9.55 36.05 9.35 32.45 12.95 32.5 13.0 32.7 13.2 36.3 9.6 M36.2 8.7 L36.05 8.55 35.25 9.35 35.2 9.4 35.45 9.55 36.2 8.8 36.2 8.7 M36.9 8.5 L37.05 8.35 36.85 8.15 36.55 8.35 36.45 8.55 36.9 8.5 M43.2 1.7 L43.0 1.5 42.6 1.6 37.85 6.65 Q38.3 6.7 38.65 6.35 L39.2 5.7 40.5 4.4 42.0 3.2 Q42.85 2.45 42.8 1.8 L43.1 1.8 43.2 1.7" fill="#cbb356" fill-rule="evenodd" stroke="none"/>
    <path d="M43.55 4.45 L44.2 3.7 44.6 3.4 Q44.75 3.55 44.35 4.15 43.9 4.6 43.55 4.45 M43.2 1.7 L43.1 1.8 42.8 1.8 Q42.85 2.45 42.0 3.2 L40.5 4.4 39.2 5.7 38.65 6.35 Q38.3 6.7 37.85 6.65 L42.6 1.6 43.0 1.5 43.2 1.7 M36.9 8.5 L36.45 8.55 36.55 8.35 36.85 8.15 37.05 8.35 36.9 8.5 M36.2 8.7 L36.2 8.8 35.45 9.55 35.2 9.4 35.25 9.35 36.05 8.55 36.2 8.7 M36.3 9.6 L32.7 13.2 32.5 13.0 32.45 12.95 36.05 9.35 36.25 9.55 36.3 9.6 M41.45 5.75 L42.1 5.1 Q42.35 4.85 42.5 5.1 L42.5 5.3 42.05 5.55 41.9 5.9 41.7 6.0 41.45 5.75 M41.65 7.15 L37.5 11.2 37.4 11.1 Q37.35 10.55 38.1 9.9 L39.35 8.95 Q41.85 6.45 41.7 7.0 L41.65 7.15 M30.1 17.9 L28.7 19.2 28.45 19.05 29.4 18.1 29.9 17.6 Q30.4 17.1 30.65 17.15 L30.1 17.9 M33.45 14.95 L32.1 16.7 31.0 17.7 30.75 17.55 32.8 15.4 33.45 14.95 M29.0 19.5 L28.35 20.25 26.75 21.75 26.55 21.65 26.55 21.55 28.8 19.3 29.0 19.5 M32.5 12.8 L32.2 12.9 32.25 13.05 14.6 30.7 14.4 30.5 31.85 13.05 31.95 12.75 32.2 12.5 32.55 12.65 32.5 12.8 M21.55 25.95 L22.05 25.35 Q22.2 25.2 22.5 25.2 L22.45 25.45 21.75 26.15 21.55 25.95 M22.75 25.55 Q23.25 25.05 23.75 25.05 L23.55 25.45 17.25 31.55 17.05 31.45 21.8 26.5 22.75 25.55 M15.95 32.05 L11.7 36.1 11.55 35.95 15.95 31.55 16.1 31.6 15.95 32.05 M13.2 36.0 L13.05 36.15 12.25 36.95 11.9 37.3 11.3 37.4 12.0 36.7 13.0 35.8 13.2 36.0 M10.6 37.7 L10.3 37.5 10.6 37.2 11.05 37.15 11.0 37.3 10.6 37.7 M8.5 38.2 L8.4 38.2 8.25 38.05 8.35 37.85 8.65 37.95 8.5 38.2 M9.85 38.65 Q10.2 38.3 10.5 38.5 L10.3 38.7 9.75 39.25 9.5 39.1 9.85 38.65 M7.05 37.65 L1.6 43.1 1.4 43.0 1.4 42.9 6.9 37.4 7.05 37.55 7.05 37.65 M10.9 34.7 Q10.05 35.55 9.65 35.55 L10.65 34.45 11.85 33.55 10.9 34.7 M2.5 42.6 L2.75 42.35 3.1 42.3 3.15 42.35 2.3 43.2 2.05 43.05 2.5 42.6 M6.75 41.35 L3.5 44.6 3.35 44.45 6.6 41.2 6.75 41.35 M4.35 43.05 Q3.85 43.55 3.65 43.35 L3.95 42.85 4.6 42.6 4.35 43.05 M4.85 44.05 L3.85 45.05 3.7 45.0 Q3.55 44.85 3.8 44.6 L4.85 43.85 4.85 44.05" fill="#a28b33" fill-rule="evenodd" stroke="none"/>
    <path d="M41.1 -0.55 L41.15 -0.35 41.2 -0.35 41.7 -0.3 41.75 -0.15 41.7 0.0 41.8 3.7 42.4 4.25 42.15 3.35 42.0 2.1 42.0 1.75 41.95 1.6 42.65 1.05 42.85 0.9 42.95 0.8 43.0 0.95 43.0 1.05 43.25 2.9 43.7 4.85 43.7 5.6 45.05 7.1 45.85 6.6 Q46.7 6.2 46.85 6.3 L46.9 6.45 46.65 6.6 46.8 7.05 46.8 7.35 46.8 7.4 46.8 7.45 46.75 7.65 46.6 7.75 46.5 7.65 45.75 8.05 46.8 9.55 46.55 9.7 46.75 10.65 46.75 11.1 46.6 11.15 46.3 10.75 46.2 10.75 46.2 10.7 44.65 8.8 41.85 10.55 39.4 12.6 39.4 12.65 39.05 12.65 39.05 12.7 38.9 12.75 38.85 12.65 38.7 12.65 38.7 12.35 38.75 12.35 38.75 12.1 38.75 11.75 38.9 11.45 Q39.3 11.1 41.0 9.85 L43.9 7.95 42.95 7.0 42.25 6.3 Q42.15 7.5 41.55 8.55 L41.55 8.6 41.1 8.6 40.9 8.5 40.85 8.55 40.85 8.45 40.7 8.25 40.8 8.25 40.9 6.3 40.8 5.3 40.9 4.8 39.85 3.95 38.75 2.9 38.75 2.1 38.9 1.5 38.9 1.45 38.95 1.25 39.1 1.25 39.2 1.2 39.25 1.3 40.95 2.8 40.7 1.5 40.55 0.0 40.6 -0.15 40.55 -0.2 40.55 -0.35 40.7 -0.55 41.1 -0.55 M40.8 0.0 L41.05 1.1 41.2 2.65 41.2 3.05 41.4 3.3 41.4 2.75 41.5 1.8 41.4 0.35 41.45 0.0 40.8 0.0 M42.65 4.5 L43.4 5.3 42.7 1.4 42.3 1.75 42.7 4.15 42.7 4.45 42.6 4.5 42.65 4.5 M41.15 4.65 L42.95 6.45 44.75 8.45 46.2 10.1 46.25 9.6 46.3 9.4 46.35 9.3 45.15 7.9 43.15 5.55 41.1 3.55 40.4 2.95 39.25 2.05 39.1 2.9 41.1 4.55 41.15 4.5 41.15 4.65 M41.25 5.75 L41.05 8.2 41.35 8.25 41.75 7.05 41.85 6.3 42.0 6.0 41.2 5.1 41.25 5.75 M44.05 8.15 L42.15 9.55 39.05 11.7 39.05 12.35 39.15 12.35 Q39.5 11.85 41.65 10.4 L44.45 8.6 44.05 8.15 M45.3 7.45 L45.6 7.85 46.05 7.55 46.4 7.4 46.35 7.25 46.4 6.75 46.15 6.85 Q45.35 7.25 45.25 7.4 L45.3 7.45 M46.8 37.05 L46.7 37.25 46.75 37.4 46.55 38.25 46.65 38.4 46.4 38.65 46.15 38.85 46.15 38.8 45.45 39.25 43.95 40.35 44.2 40.5 44.35 40.6 Q44.75 40.55 45.25 41.2 L45.25 41.15 46.75 41.15 46.8 41.3 46.7 41.45 46.8 42.1 46.6 42.4 45.95 42.35 45.95 42.45 45.8 42.5 45.5 42.35 45.4 42.2 44.55 41.9 43.3 41.65 43.05 41.55 42.85 41.6 42.75 41.6 41.3 43.05 40.95 43.05 40.95 43.15 40.8 43.2 40.45 43.05 40.35 43.05 38.7 44.35 Q38.45 43.85 38.45 43.35 L39.15 42.7 Q39.65 42.4 40.0 42.25 L40.2 42.0 40.2 41.7 40.4 41.25 40.45 41.15 40.4 41.15 38.9 41.35 38.7 41.4 Q38.15 41.4 37.8 40.85 L37.5 40.25 37.55 40.15 37.5 40.1 Q37.4 39.8 37.85 39.85 L40.0 39.85 40.65 39.75 41.05 39.8 41.05 39.95 41.1 39.8 41.3 38.9 41.2 37.95 41.2 37.65 41.65 37.45 41.7 37.65 42.15 38.15 42.45 38.65 42.2 39.8 42.9 39.85 43.05 39.75 Q43.2 39.6 43.4 39.55 L43.45 39.5 43.4 39.45 43.45 39.3 43.6 39.3 44.55 38.4 46.75 36.9 46.8 37.05 M46.25 37.65 L45.35 38.35 43.85 39.5 44.0 39.65 44.05 39.7 44.95 39.1 Q45.65 38.65 46.1 38.45 46.1 37.95 46.25 37.65 M46.4 41.5 L45.45 41.45 45.75 42.0 46.45 42.0 46.45 41.65 46.4 41.5 M43.6 39.9 L43.7 39.95 43.65 39.85 43.6 39.85 43.05 40.1 43.05 40.15 42.95 40.2 41.6 41.15 41.55 41.2 Q40.55 42.05 40.45 42.35 L40.75 42.65 40.95 42.6 41.9 42.25 42.55 41.55 42.65 41.45 42.6 41.35 Q42.6 41.2 42.85 41.15 L43.6 39.9 M40.95 40.15 L41.0 40.1 40.95 40.1 38.7 40.2 37.85 40.2 38.75 40.95 40.7 40.7 40.95 40.15 M42.05 40.15 L41.85 40.6 41.9 40.55 42.4 40.2 42.05 40.15 M40.75 41.5 L41.25 41.05 41.25 41.0 42.1 38.6 41.5 38.2 41.65 38.9 Q41.65 39.65 40.7 41.4 L40.65 41.5 40.6 41.6 40.75 41.5 M44.55 41.15 Q44.3 41.1 43.95 40.85 L43.65 40.6 43.15 41.15 43.2 41.35 44.95 41.6 44.55 41.15 M23.4 19.75 L24.15 19.6 24.2 19.75 23.9 22.2 24.0 22.75 26.05 22.7 27.4 22.45 27.4 22.85 Q27.2 22.95 27.25 23.3 L26.85 23.75 24.2 24.15 24.15 24.15 24.25 25.3 24.2 25.95 23.4 26.5 22.55 27.15 22.5 26.75 22.75 24.1 22.65 24.1 21.6 23.85 20.1 23.8 20.05 23.8 19.95 23.8 19.95 23.5 20.05 23.5 20.2 22.95 20.1 22.6 20.1 22.35 20.15 22.35 20.15 22.3 20.5 22.25 20.5 22.5 22.85 22.85 22.9 22.0 22.85 21.55 22.75 21.05 22.95 19.5 23.4 19.75 M22.9 26.5 Q23.2 26.35 23.2 24.4 L23.7 20.1 23.15 20.1 23.05 21.1 23.2 22.0 22.85 26.45 22.85 26.5 22.9 26.5 M20.5 22.8 L20.5 22.95 20.45 23.45 21.65 23.55 22.75 23.75 22.8 23.15 22.5 23.15 21.05 22.95 20.5 22.8 M23.75 23.85 L23.8 23.85 23.8 23.8 23.75 23.55 23.75 23.85 M23.7 24.0 L23.55 25.1 23.5 26.2 23.9 25.7 23.95 24.95 23.85 24.1 23.75 24.05 23.7 24.0 M26.8 22.9 L26.15 23.0 24.2 23.1 24.0 23.05 24.1 23.8 25.45 23.7 Q26.65 23.55 26.95 23.05 L27.0 22.9 26.8 22.9 M7.75 0.6 Q7.0 0.95 3.9 3.15 0.25 5.75 0.25 6.3 L0.3 6.75 0.35 6.8 4.0 3.85 7.95 0.9 7.75 0.6 M8.3 0.9 L6.2 2.85 6.25 2.95 6.1 3.2 Q7.0 3.35 7.9 4.0 8.75 4.6 9.0 5.3 L9.0 5.55 8.8 5.6 8.65 5.5 7.15 4.95 6.5 6.75 6.0 8.6 Q5.05 8.6 5.05 8.25 5.05 7.7 5.7 6.1 L6.35 4.6 5.45 4.25 Q4.8 5.4 4.55 6.7 L4.4 6.75 Q4.05 6.5 3.5 6.5 L3.5 6.05 3.85 4.85 4.05 4.25 1.85 5.9 0.1 7.5 -0.15 6.3 3.4 3.2 3.45 3.2 0.25 1.25 0.2 1.25 0.0 1.1 0.05 0.9 0.1 0.9 0.1 0.6 Q0.1 -0.15 0.3 -0.15 L1.8 0.85 3.15 1.65 4.2 2.55 Q7.15 0.25 7.8 0.25 8.2 0.25 8.3 0.9 M5.7 3.2 L5.7 3.15 5.7 3.2 4.75 3.8 4.5 4.25 4.05 5.0 3.85 6.15 4.35 6.25 4.85 4.45 Q5.15 3.75 5.7 3.2 M5.75 3.15 L5.85 3.05 5.7 3.15 5.75 3.15 M5.55 4.0 L8.3 5.1 7.7 4.3 Q7.4 4.0 6.4 3.7 L5.9 3.45 5.55 4.0 M6.5 4.7 L5.45 8.15 5.9 8.25 6.3 6.35 Q6.55 5.5 6.95 4.85 L6.9 4.85 6.5 4.7 M4.0 2.75 L2.15 1.6 0.4 0.25 0.4 0.9 0.5 1.05 0.5 1.1 Q1.45 1.55 2.05 1.9 3.3 2.55 3.65 3.0 L4.0 2.75 M5.15 39.15 L5.15 39.05 5.4 38.7 5.35 38.55 Q5.75 37.6 6.15 37.55 L6.25 37.7 5.65 39.0 Q5.05 40.3 5.05 41.1 L5.15 41.65 4.85 41.7 4.75 41.05 5.15 39.15 M4.7 38.95 L4.55 39.15 4.6 39.3 4.85 39.25 4.65 39.75 4.35 40.75 4.35 42.2 5.0 42.6 4.9 42.3 4.95 42.3 5.15 42.3 5.25 42.25 5.25 42.35 5.25 42.65 5.2 42.7 5.15 42.7 5.2 42.7 6.05 43.15 6.35 43.25 6.75 43.4 7.75 43.2 Q8.2 43.1 8.25 43.9 L8.05 43.95 7.95 43.95 7.75 44.55 7.85 44.85 7.65 44.9 6.35 44.6 5.5 44.15 5.45 44.15 5.25 44.15 5.05 44.6 5.25 45.15 5.25 45.4 4.7 45.5 4.25 45.65 4.2 45.5 4.25 45.4 Q4.1 45.3 4.05 44.85 L4.0 44.3 4.1 43.8 3.0 42.8 Q2.25 41.9 2.15 41.4 L2.0 41.4 1.95 41.25 2.0 41.15 0.35 39.9 0.15 40.0 0.0 39.95 0.0 39.7 0.1 38.7 Q0.2 38.05 0.55 38.05 L1.6 38.9 2.85 40.65 3.1 40.55 3.15 40.7 3.05 40.9 3.35 41.35 4.0 42.05 4.0 41.55 Q4.0 38.95 4.7 38.95 M1.05 40.0 L2.25 40.9 2.45 40.8 2.6 40.75 Q0.95 39.25 0.6 38.5 L0.45 39.7 1.05 40.0 M2.5 41.4 L3.05 42.35 Q4.05 43.55 5.6 43.8 L5.8 43.5 Q5.05 43.3 4.2 42.6 L4.1 42.6 4.05 42.45 3.95 42.35 Q3.0 41.5 2.8 41.05 L2.75 41.1 2.5 41.25 2.5 41.4 M0.05 41.3 L0.15 41.3 0.15 41.25 0.45 41.25 0.5 41.35 1.55 41.85 1.85 41.8 1.9 41.95 1.15 42.7 Q0.3 42.7 0.1 42.4 L0.1 41.95 0.15 41.5 0.05 41.3 M1.2 42.05 L0.7 41.85 0.4 41.7 0.4 42.25 1.0 42.25 1.2 42.05 M4.85 44.1 L4.4 43.95 4.3 44.2 4.5 45.0 4.5 45.25 4.85 45.05 4.75 44.6 4.85 44.1 M7.5 43.95 L6.3 43.65 6.2 43.6 6.0 43.8 6.0 43.85 6.0 44.1 7.45 44.45 7.5 43.95 M40.15 42.75 L40.05 42.6 38.8 43.4 38.9 43.75 Q39.75 43.05 40.2 42.8 L40.15 42.75" fill="#000000" fill-rule="evenodd" stroke="none"/>
    <path d="M42.7 4.45 L42.7 4.15 42.3 1.75 42.7 1.4 43.4 5.3 42.65 4.5 42.7 4.45 M40.8 0.0 L41.45 0.0 41.4 0.35 41.5 1.8 41.4 2.75 41.4 3.3 41.2 3.05 41.2 2.65 41.05 1.1 40.8 0.0 M44.05 8.15 L44.45 8.6 41.65 10.4 Q39.5 11.85 39.15 12.35 L39.05 12.35 39.05 11.7 42.15 9.55 44.05 8.15 M41.25 5.75 L41.2 5.1 42.0 6.0 41.85 6.3 41.75 7.05 41.35 8.25 41.05 8.2 41.25 5.75 M41.15 4.65 L41.15 4.5 41.1 4.55 39.1 2.9 39.25 2.05 40.4 2.95 41.1 3.55 43.15 5.55 45.15 7.9 46.35 9.3 46.3 9.4 46.25 9.6 46.2 10.1 44.75 8.45 42.95 6.45 41.15 4.65 M46.4 41.5 L46.45 41.65 46.45 42.0 45.75 42.0 45.45 41.45 46.4 41.5 M46.25 37.65 Q46.1 37.95 46.1 38.45 45.65 38.65 44.95 39.1 L44.05 39.7 44.0 39.65 43.85 39.5 45.35 38.35 46.25 37.65 M43.6 39.85 L43.6 39.9 42.85 41.15 Q42.6 41.2 42.6 41.35 L42.65 41.45 42.55 41.55 41.9 42.25 40.95 42.6 40.75 42.65 40.45 42.35 Q40.55 42.05 41.55 41.2 L41.6 41.15 42.95 40.2 43.05 40.15 43.05 40.1 43.6 39.85 M40.95 40.1 L40.95 40.15 40.7 40.7 38.75 40.95 37.85 40.2 38.7 40.2 40.95 40.1 M40.7 41.4 Q41.65 39.65 41.65 38.9 L41.5 38.2 42.1 38.6 41.25 41.0 41.25 41.05 40.75 41.5 40.7 41.4 M42.05 40.15 L42.4 40.2 41.9 40.55 41.85 40.6 42.05 40.15 M44.55 41.15 L44.95 41.6 43.2 41.35 43.15 41.15 43.65 40.6 43.95 40.85 Q44.3 41.1 44.55 41.15 M22.85 26.45 L23.2 22.0 23.05 21.1 23.15 20.1 23.7 20.1 23.2 24.4 Q23.2 26.35 22.9 26.5 L22.85 26.45 M20.5 22.8 L21.05 22.95 22.5 23.15 22.8 23.15 22.75 23.75 21.65 23.55 20.45 23.45 20.5 22.95 20.5 22.8 M26.95 23.05 Q26.65 23.55 25.45 23.7 L24.1 23.8 24.0 23.05 24.2 23.1 26.15 23.0 26.8 22.9 26.95 23.05 M23.7 24.0 L23.75 24.05 23.85 24.1 23.95 24.95 23.9 25.7 23.5 26.2 23.55 25.1 23.7 24.0 M7.75 0.6 L7.95 0.9 4.0 3.85 0.35 6.8 0.3 6.75 0.25 6.3 Q0.25 5.75 3.9 3.15 7.0 0.95 7.75 0.6 M5.7 3.2 Q5.15 3.75 4.85 4.45 L4.35 6.25 3.85 6.15 4.05 5.0 4.5 4.25 4.75 3.8 5.7 3.2 M4.0 2.75 L3.65 3.0 Q3.3 2.55 2.05 1.9 1.45 1.55 0.5 1.1 L0.5 1.05 0.4 0.9 0.4 0.25 2.15 1.6 4.0 2.75 M6.5 4.7 L6.9 4.85 6.95 4.85 Q6.55 5.5 6.3 6.35 L5.9 8.25 5.45 8.15 6.5 4.7 M5.55 4.0 L5.9 3.45 6.4 3.7 Q7.4 4.0 7.7 4.3 L8.3 5.1 5.55 4.0 M5.15 39.05 L5.1 39.1 5.15 39.15 4.75 41.05 4.85 41.7 5.15 41.65 5.25 41.6 5.3 41.95 5.25 42.2 5.25 42.25 5.15 42.3 4.95 42.3 4.9 42.3 5.0 42.6 4.35 42.2 4.35 40.75 4.65 39.75 4.85 39.25 4.6 39.3 4.55 39.15 4.7 38.95 4.8 38.85 Q5.05 38.55 5.35 38.55 L5.4 38.7 5.15 39.05 M2.5 41.4 L2.5 41.25 2.75 41.1 2.8 41.05 Q3.0 41.5 3.95 42.35 L4.05 42.45 4.1 42.6 4.2 42.6 Q5.05 43.3 5.8 43.5 L5.6 43.8 Q4.05 43.55 3.05 42.35 L2.5 41.4 M1.05 40.0 L0.45 39.7 0.6 38.5 Q0.95 39.25 2.6 40.75 L2.45 40.8 2.25 40.9 1.05 40.0 M40.15 42.75 L40.2 42.8 Q39.75 43.05 38.9 43.75 L38.8 43.4 40.05 42.6 40.15 42.75 M7.5 43.95 L7.45 44.45 6.0 44.1 6.0 43.85 6.0 43.8 6.2 43.6 6.3 43.65 7.5 43.95 M4.85 44.1 L4.75 44.6 4.85 45.05 4.5 45.25 4.5 45.0 4.3 44.2 4.4 43.95 4.85 44.1 M1.2 42.05 L1.0 42.25 0.4 42.25 0.4 41.7 0.7 41.85 1.2 42.05" fill="#f0ead2" fill-rule="evenodd" stroke="none"/>
  </g>
</svg>
