<?xml version="1.0" encoding="UTF-8" standalone="no"?>
<svg xmlns:xlink="http://www.w3.org/1999/xlink" height="32.3px" width="32.1px" xmlns="http://www.w3.org/2000/svg">
  <g transform="matrix(1.0, 0.0, 0.0, 1.0, -0.6, -0.3)">
    <path d="M29.85 0.7 L29.7 1.1 29.6 1.25 29.05 2.1 28.6 1.8 28.6 1.45 28.85 0.8 Q28.9 0.35 29.3 0.35 L29.4 0.4 Q29.85 0.1 29.85 0.7 M1.25 2.6 Q0.8 2.6 0.7 2.2 L0.7 1.7 Q0.7 1.15 1.45 0.65 2.2 0.2 2.2 0.95 L1.25 2.6 M1.85 29.35 L1.55 29.85 1.0 30.25 Q0.6 30.25 0.6 29.8 0.6 29.5 0.9 29.25 1.3 28.9 1.8 29.1 L1.85 29.35 M29.95 29.35 L29.8 29.95 29.4 30.25 Q28.95 30.25 28.95 29.8 28.95 29.4 29.45 29.0 29.95 28.55 29.95 29.35" fill="#ff6666" fill-rule="evenodd" stroke="none"/>
    <path d="M32.7 3.95 L32.7 4.35 31.45 4.6 Q30.2 4.6 30.2 4.2 30.2 3.9 30.7 3.65 L31.35 2.95 Q31.15 2.6 31.45 2.15 31.8 1.75 32.3 1.95 L32.7 3.95 M4.2 2.5 Q4.2 4.6 2.45 4.6 L2.05 4.55 Q1.95 4.05 2.1 3.9 L1.7 3.5 Q1.7 3.05 3.35 3.05 L3.9 2.1 Q4.2 1.65 4.2 2.5 M3.6 30.35 Q3.7 30.0 4.3 30.1 L4.35 32.05 Q4.25 32.6 3.75 32.6 L1.6 32.45 Q1.45 32.4 1.45 32.15 2.65 30.7 3.6 30.85 L3.6 30.35 M32.25 32.5 L31.25 32.5 30.25 32.5 29.85 32.05 30.05 31.8 31.3 31.25 31.2 30.65 Q31.2 30.25 31.55 29.8 31.95 29.25 32.25 29.95 L32.45 31.75 32.25 32.5" fill="#660000" fill-rule="evenodd" stroke="none"/>
    <path d="M27.6 18.5 L27.6 18.65 27.6 18.7 27.85 19.5 28.85 19.4 28.9 19.4 29.3 17.9 28.25 17.9 27.6 18.5 M26.35 17.9 L26.45 18.0 26.45 18.05 Q26.35 18.2 26.25 18.15 L25.4 19.0 26.25 19.85 26.3 19.8 26.65 20.1 26.7 20.1 26.75 20.15 27.6 20.15 27.35 18.9 27.3 18.85 26.8 19.25 26.8 19.35 26.6 19.55 26.55 19.7 26.55 19.75 26.2 19.7 26.3 19.4 26.5 19.2 27.85 17.9 26.35 17.9 M29.75 17.9 L29.55 17.9 29.45 18.75 29.75 19.15 29.75 19.65 29.4 18.85 29.1 19.45 29.15 19.45 29.2 19.5 29.25 19.55 29.2 19.65 29.05 19.7 28.95 20.1 28.95 20.15 29.75 20.15 29.75 20.5 26.7 20.45 26.6 20.45 25.7 20.45 25.55 20.5 25.5 20.45 22.85 20.45 22.8 20.5 22.75 20.55 22.55 20.45 21.35 20.45 21.1 20.5 21.0 20.45 16.15 20.4 16.1 20.5 15.9 20.55 15.8 20.75 15.75 20.8 15.25 20.8 14.8 20.9 14.6 21.05 14.65 21.05 14.7 21.1 12.4 21.25 Q9.65 21.1 8.35 18.6 L8.2 18.45 8.15 17.0 8.15 16.9 8.1 16.9 8.0 16.9 7.6 16.8 7.45 16.7 7.4 16.7 7.45 16.2 7.45 16.15 7.5 16.05 7.55 15.95 7.7 16.0 8.05 16.0 Q8.05 15.1 8.4 14.25 L8.4 14.2 8.5 14.15 8.55 14.1 8.55 14.05 8.6 14.0 8.7 13.85 8.65 13.8 8.65 13.75 8.6 13.75 Q8.85 12.95 9.65 12.55 10.5 12.15 11.4 11.9 13.3 11.9 14.9 12.95 L15.95 14.0 16.25 14.35 16.3 15.85 16.3 16.0 16.6 16.1 16.65 16.15 16.65 16.25 16.65 16.65 16.6 16.8 16.6 16.85 16.55 16.95 16.9 17.05 16.95 17.1 17.0 17.4 17.0 17.45 17.05 17.6 17.45 17.65 22.6 17.65 22.6 17.6 22.65 17.55 22.7 17.55 22.8 17.65 22.85 17.65 24.2 17.65 24.2 17.6 24.25 17.55 24.3 17.55 24.35 17.5 24.45 17.6 24.5 17.6 24.5 17.65 29.75 17.65 29.75 17.9 M21.4 17.95 L21.75 18.75 21.75 18.85 21.85 18.95 22.45 17.9 21.4 17.9 21.4 17.95 M21.1 17.95 L21.1 17.9 17.65 17.9 17.55 17.9 17.0 17.9 16.8 18.3 16.2 20.15 16.2 20.2 21.15 20.2 21.15 20.1 21.35 19.9 21.65 19.2 21.65 19.1 Q21.4 18.95 21.5 18.85 L21.2 18.2 21.1 18.1 21.1 17.95 M23.95 17.9 L22.75 17.9 22.0 19.3 22.0 19.35 21.95 19.35 21.95 19.45 21.65 19.9 21.65 20.0 21.45 20.2 22.6 20.2 22.8 20.0 22.85 19.95 23.25 19.2 23.35 19.1 23.35 19.05 23.4 18.95 23.95 18.15 23.9 18.05 24.0 17.95 23.95 17.95 23.95 17.9 M24.45 17.95 L25.2 18.8 26.2 17.9 24.5 17.9 24.45 17.95 M24.25 18.1 L24.15 18.3 24.9 19.2 24.95 19.25 25.0 19.3 25.0 19.25 25.15 19.4 25.15 19.5 25.35 19.95 25.4 20.05 25.6 20.1 25.65 20.15 26.35 20.15 26.3 20.05 26.25 20.05 26.1 20.05 24.35 18.2 24.25 18.1 M24.75 19.5 L24.0 18.5 23.65 19.15 23.65 19.2 23.0 20.2 24.25 20.2 24.2 20.1 24.75 19.5 M25.2 20.15 L24.9 19.7 24.55 20.15 24.55 20.2 25.2 20.15 M27.85 19.7 L27.8 19.9 27.8 19.95 27.9 20.15 28.55 20.15 28.55 20.1 28.65 20.0 28.75 19.75 27.85 19.7 M9.2 15.3 L9.25 15.35 9.25 16.0 16.0 16.0 16.05 15.45 Q16.1 14.6 15.65 13.9 L15.5 13.85 15.4 13.8 Q15.3 13.55 15.0 13.5 L14.9 13.45 Q13.4 12.15 11.4 12.2 L10.75 12.45 10.7 12.45 10.9 12.6 Q9.45 13.0 8.75 14.4 8.35 15.15 8.35 16.0 L8.95 16.0 9.1 15.3 9.15 15.25 9.2 15.3 M9.0 16.9 L8.4 16.9 8.35 16.9 8.45 17.75 8.45 18.2 8.45 18.25 8.7 18.6 Q9.35 19.8 10.5 20.4 L11.15 20.7 11.35 20.75 11.4 20.8 Q13.0 20.95 14.3 20.2 L14.3 20.15 Q15.1 19.45 15.55 18.55 L15.75 18.2 15.8 18.1 15.85 17.9 16.0 17.4 16.25 16.9 16.1 16.9 15.8 16.9 14.75 16.95 14.4 16.95 9.25 16.9 9.0 16.9 M9.25 16.65 L9.65 16.65 9.95 16.65 14.4 16.7 14.65 16.7 15.85 16.7 16.15 16.7 16.3 16.7 16.35 16.6 16.35 16.4 16.25 16.4 16.1 16.4 15.9 16.4 9.25 16.25 8.9 16.25 8.35 16.25 8.05 16.2 7.8 16.2 7.75 16.45 7.75 16.55 7.75 16.6 8.1 16.6 8.15 16.6 8.2 16.6 8.25 16.65 8.35 16.65 8.95 16.65 9.25 16.65 M15.25 15.5 L15.05 14.7 14.9 14.5 14.65 14.4 14.7 14.25 14.8 14.2 Q15.65 14.6 15.45 15.55 L15.25 15.55 15.25 15.5 M16.7 17.3 L16.45 17.2 15.8 18.7 15.8 18.8 15.65 18.9 15.45 19.25 15.0 19.85 14.85 20.0 14.9 20.05 13.75 20.8 14.0 20.85 14.95 20.45 15.05 20.5 15.35 20.4 15.5 20.55 15.6 20.45 15.7 20.3 15.75 20.3 15.85 20.4 16.0 19.8 15.95 19.8 15.9 19.7 16.4 18.35 16.6 17.75 16.65 17.75 16.7 17.45 16.7 17.4 16.75 17.4 16.7 17.3 M12.9 15.45 L12.95 15.5 13.05 15.7 13.05 15.75 Q12.9 16.0 12.7 15.75 L12.75 15.45 12.8 15.4 12.9 15.45 M12.45 12.7 Q11.65 13.2 10.8 13.1 L10.8 13.0 10.8 12.95 12.3 12.55 12.45 12.7 M10.85 14.25 L10.25 14.6 10.2 14.5 10.2 14.45 Q10.4 14.2 10.7 14.1 L10.85 14.2 10.85 14.25 M13.55 20.9 L13.6 20.9 13.65 20.85 13.55 20.9" fill="#000000" fill-rule="evenodd" stroke="none"/>
    <path d="M9.2 15.3 L9.15 15.25 9.1 15.3 8.95 16.0 8.35 16.0 Q8.35 15.15 8.75 14.4 9.45 13.0 10.9 12.6 L10.7 12.45 10.75 12.45 11.4 12.2 Q13.4 12.15 14.9 13.45 L15.0 13.5 Q15.3 13.55 15.4 13.8 L15.5 13.85 15.65 13.9 Q16.1 14.6 16.05 15.45 L16.0 16.0 9.25 16.0 9.25 15.35 9.2 15.3 M15.25 15.5 L15.25 15.55 15.45 15.55 Q15.65 14.6 14.8 14.2 L14.7 14.25 14.65 14.4 14.9 14.5 15.05 14.7 15.25 15.5 M10.85 14.25 L10.85 14.2 10.7 14.1 Q10.4 14.2 10.2 14.45 L10.2 14.5 10.25 14.6 10.85 14.25 M12.45 12.7 L12.3 12.55 10.8 12.95 10.8 13.0 10.8 13.1 Q11.65 13.2 12.45 12.7 M12.9 15.45 L12.8 15.4 12.75 15.45 12.7 15.75 Q12.9 16.0 13.05 15.75 L13.05 15.7 12.95 15.5 12.9 15.45" fill="#95917b" fill-rule="evenodd" stroke="none"/>
    <path d="M26.35 17.9 L27.85 17.9 26.5 19.2 26.3 19.4 26.2 19.7 26.55 19.75 26.55 19.7 26.6 19.55 26.8 19.35 26.8 19.25 27.3 18.85 27.35 18.9 27.6 20.15 26.75 20.15 26.7 20.1 26.65 20.1 26.3 19.8 26.25 19.85 25.4 19.0 26.25 18.15 Q26.35 18.2 26.45 18.05 L26.45 18.0 26.35 17.9 M27.6 18.5 L28.25 17.9 29.3 17.9 28.9 19.4 28.85 19.4 27.85 19.5 27.6 18.7 27.6 18.65 27.6 18.5 M29.75 19.15 L29.45 18.75 29.55 17.9 29.75 17.9 29.75 19.15 M29.75 20.15 L28.95 20.15 28.95 20.1 29.05 19.7 29.2 19.65 29.25 19.55 29.2 19.5 29.15 19.45 29.1 19.45 29.4 18.85 29.75 19.65 29.75 20.15 M21.4 17.95 L21.4 17.9 22.45 17.9 21.85 18.95 21.75 18.85 21.75 18.75 21.4 17.95 M27.85 19.7 L28.75 19.75 28.65 20.0 28.55 20.1 28.55 20.15 27.9 20.15 27.8 19.95 27.8 19.9 27.85 19.7 M25.2 20.15 L24.55 20.2 24.55 20.15 24.9 19.7 25.2 20.15 M24.75 19.5 L24.2 20.1 24.25 20.2 23.0 20.2 23.65 19.2 23.65 19.15 24.0 18.5 24.75 19.5 M24.25 18.1 L24.35 18.2 26.1 20.05 26.25 20.05 26.3 20.05 26.35 20.15 25.65 20.15 25.6 20.1 25.4 20.05 25.35 19.95 25.15 19.5 25.15 19.4 25.0 19.25 25.0 19.3 24.95 19.25 24.9 19.2 24.15 18.3 24.25 18.1 M24.45 17.95 L24.5 17.9 26.2 17.9 25.2 18.8 24.45 17.95 M23.95 17.9 L23.95 17.95 24.0 17.95 23.9 18.05 23.95 18.15 23.4 18.95 23.35 19.05 23.35 19.1 23.25 19.2 22.85 19.95 22.8 20.0 22.6 20.2 21.45 20.2 21.65 20.0 21.65 19.9 21.95 19.45 21.95 19.35 22.0 19.35 22.0 19.3 22.75 17.9 23.95 17.9" fill="#e3cdb3" fill-rule="evenodd" stroke="none"/>
    <path d="M21.1 17.95 L21.1 18.1 21.2 18.2 21.5 18.85 Q21.4 18.95 21.65 19.1 L21.65 19.2 21.35 19.9 21.15 20.1 21.15 20.2 16.2 20.2 16.2 20.15 16.8 18.3 17.0 17.9 17.55 17.9 17.65 17.9 21.1 17.9 21.1 17.95 M9.0 16.9 L9.25 16.9 14.4 16.95 14.75 16.95 15.8 16.9 16.1 16.9 16.25 16.9 16.0 17.4 15.85 17.9 15.8 18.1 15.75 18.2 15.55 18.55 Q15.1 19.45 14.3 20.15 L14.3 20.2 Q13.0 20.95 11.4 20.8 L11.35 20.75 11.15 20.7 10.5 20.4 Q9.35 19.8 8.7 18.6 L8.45 18.25 8.45 18.2 8.45 17.75 8.35 16.9 8.4 16.9 9.0 16.9" fill="#715426" fill-rule="evenodd" stroke="none"/>
    <path d="M9.25 16.65 L8.95 16.65 8.35 16.65 8.25 16.65 8.2 16.6 8.15 16.6 8.1 16.6 7.75 16.6 7.75 16.55 7.75 16.45 7.8 16.2 8.05 16.2 8.35 16.25 8.9 16.25 9.25 16.25 15.9 16.4 16.1 16.4 16.25 16.4 16.35 16.4 16.35 16.6 16.3 16.7 16.15 16.7 15.85 16.7 14.65 16.7 14.4 16.7 9.95 16.65 9.65 16.65 9.25 16.65 M16.7 17.3 L16.75 17.4 16.7 17.4 16.7 17.45 16.65 17.75 16.6 17.75 16.4 18.35 15.9 19.7 15.95 19.8 16.0 19.8 15.85 20.4 15.75 20.3 15.7 20.3 15.6 20.45 15.5 20.55 15.35 20.4 15.05 20.5 14.95 20.45 14.0 20.85 13.75 20.8 14.9 20.05 14.85 20.0 15.0 19.85 15.45 19.25 15.65 18.9 15.8 18.8 15.8 18.7 16.45 17.2 16.7 17.3" fill="#9d6f37" fill-rule="evenodd" stroke="none"/>
  </g>
</svg>
