<?xml version="1.0" encoding="UTF-8" standalone="no"?>
<svg xmlns:xlink="http://www.w3.org/1999/xlink" height="32.3px" width="32.1px" xmlns="http://www.w3.org/2000/svg">
  <g transform="matrix(1.0, 0.0, 0.0, 1.0, -0.6, -0.3)">
    <path d="M29.85 0.7 L29.7 1.1 29.6 1.25 29.05 2.1 28.6 1.8 28.6 1.45 28.85 0.8 Q28.9 0.35 29.3 0.35 L29.4 0.4 Q29.85 0.1 29.85 0.7 M1.25 2.6 Q0.8 2.6 0.7 2.2 L0.7 1.7 Q0.7 1.15 1.45 0.65 2.2 0.2 2.2 0.95 L1.25 2.6 M1.85 29.35 L1.55 29.85 1.0 30.25 Q0.6 30.25 0.6 29.8 0.6 29.5 0.9 29.25 1.3 28.9 1.8 29.1 L1.85 29.35 M29.95 29.35 L29.8 29.95 29.4 30.25 Q28.95 30.25 28.95 29.8 28.95 29.4 29.45 29.0 29.95 28.55 29.95 29.35" fill="#ff6666" fill-rule="evenodd" stroke="none"/>
    <path d="M32.7 3.95 L32.7 4.35 31.45 4.6 Q30.2 4.6 30.2 4.2 30.2 3.9 30.7 3.65 L31.35 2.95 Q31.15 2.6 31.45 2.15 31.8 1.75 32.3 1.95 L32.7 3.95 M4.2 2.5 Q4.2 4.6 2.45 4.6 L2.05 4.55 Q1.95 4.05 2.1 3.9 L1.7 3.5 Q1.7 3.05 3.35 3.05 L3.9 2.1 Q4.2 1.65 4.2 2.5 M3.6 30.35 Q3.7 30.0 4.3 30.1 L4.35 32.05 Q4.25 32.6 3.75 32.6 L1.6 32.45 Q1.45 32.4 1.45 32.15 2.65 30.7 3.6 30.85 L3.6 30.35 M32.25 32.5 L31.25 32.5 30.25 32.5 29.85 32.05 30.05 31.8 31.3 31.25 31.2 30.65 Q31.2 30.25 31.55 29.8 31.95 29.25 32.25 29.95 L32.45 31.75 32.25 32.5" fill="#660000" fill-rule="evenodd" stroke="none"/>
    <path d="M25.25 9.3 L24.85 9.3 24.75 9.35 24.75 9.4 24.6 9.4 24.5 9.45 24.45 9.45 24.25 9.55 24.2 9.55 24.1 9.5 22.05 10.15 21.7 10.0 21.35 10.3 19.75 10.55 19.05 10.45 Q18.7 10.35 18.5 10.6 L18.25 10.55 18.25 10.6 18.2 10.7 18.35 10.85 19.85 10.85 21.15 10.85 21.65 10.75 21.8 10.75 22.75 10.5 22.75 10.45 22.75 10.4 23.85 10.1 24.1 10.1 24.7 9.95 24.8 9.9 26.45 9.7 26.2 9.7 26.95 9.6 27.0 9.55 27.45 9.6 27.45 9.55 27.5 9.5 27.55 9.5 27.5 9.7 27.45 9.7 27.1 9.85 Q25.8 10.35 24.65 11.15 L24.35 11.65 23.45 12.55 23.45 12.65 23.45 12.75 23.0 13.3 21.55 14.7 21.55 14.8 21.5 14.85 21.45 14.9 21.45 14.95 21.5 15.0 21.5 15.05 21.7 15.05 21.75 15.05 Q21.5 15.75 21.6 16.55 L21.65 16.6 21.75 16.75 21.75 16.8 22.2 18.35 22.45 19.9 22.35 20.8 Q21.85 22.65 19.9 23.15 17.05 23.85 14.15 23.2 L13.2 23.15 Q12.4 23.1 11.75 22.65 10.55 21.8 9.85 20.4 L9.8 20.0 Q9.45 18.05 10.35 16.2 L10.45 16.15 10.65 15.75 Q11.25 14.6 10.9 13.4 L10.9 13.25 Q11.1 11.85 10.2 11.05 L10.2 11.0 10.3 10.95 10.4 10.75 10.45 10.75 10.65 10.65 10.95 10.65 12.45 10.7 Q12.7 10.7 12.8 10.5 L11.0 10.25 10.95 10.2 13.0 10.25 16.55 10.3 16.5 10.4 16.45 10.45 16.45 10.6 Q16.35 10.9 16.4 11.3 L16.4 11.35 16.35 11.5 Q15.95 11.65 15.65 11.9 L15.6 11.95 Q15.35 12.7 15.45 13.55 L15.25 13.65 15.2 13.6 15.15 13.55 15.05 13.4 15.05 13.35 15.1 12.95 15.05 12.9 14.9 12.85 14.55 13.15 14.55 13.2 14.4 13.5 14.4 13.55 Q14.3 14.3 14.5 15.0 L15.1 15.55 18.05 15.5 18.05 15.45 18.1 15.45 Q19.2 14.85 18.7 13.35 L18.5 13.3 18.4 13.4 18.3 14.0 18.1 14.0 18.1 13.9 18.1 13.85 18.2 13.65 Q18.4 12.9 18.1 12.1 L17.75 11.85 17.75 11.75 17.65 11.6 17.5 11.55 17.4 11.65 17.6 12.2 17.6 12.35 17.45 12.65 17.45 12.7 Q17.45 13.05 17.05 13.2 L16.85 13.15 16.8 13.05 Q16.45 12.35 17.0 11.7 L17.0 11.5 17.0 11.0 16.95 11.0 16.7 10.6 16.65 10.35 16.65 10.3 21.05 10.05 23.35 9.5 25.35 9.25 25.25 9.3 M24.7 9.45 L24.75 9.4 24.8 9.45 24.7 9.45 M17.3 16.15 L17.25 16.1 13.65 15.65 12.4 15.7 12.35 15.7 12.3 15.65 12.5 15.6 12.25 15.6 12.2 15.6 11.95 15.75 12.05 15.7 11.4 16.15 11.35 16.2 11.3 16.15 Q11.55 15.95 11.8 15.85 L11.7 15.85 11.15 16.0 11.1 16.0 11.0 16.1 10.6 16.8 Q10.35 17.35 10.4 17.9 10.25 18.4 10.35 19.0 L10.4 19.45 10.95 20.05 11.1 20.0 11.25 19.85 11.4 19.75 Q12.5 18.75 13.85 18.1 L14.4 17.95 16.35 17.5 16.6 17.35 Q17.45 17.0 17.3 16.15 M10.0 10.9 L9.9 10.8 9.9 10.75 10.15 10.05 10.35 10.1 10.3 10.1 10.25 10.35 10.2 10.45 10.1 10.55 10.0 10.9 M10.9 19.75 L10.9 19.7 10.95 19.75 10.9 19.75" fill="#333333" fill-rule="evenodd" stroke="none"/>
    <path d="M27.0 9.55 L26.95 9.6 26.2 9.7 26.45 9.7 24.8 9.9 24.7 9.95 24.1 10.1 23.85 10.1 22.75 10.4 22.75 10.45 22.75 10.5 21.8 10.75 21.65 10.75 21.15 10.85 19.85 10.85 18.35 10.85 18.2 10.7 18.25 10.6 18.25 10.55 18.5 10.6 Q18.7 10.35 19.05 10.45 L19.75 10.55 21.35 10.3 21.7 10.0 22.05 10.15 24.1 9.5 24.2 9.55 24.25 9.55 24.45 9.45 24.5 9.45 24.6 9.4 24.75 9.4 24.75 9.35 24.85 9.3 25.25 9.3 24.85 9.4 24.8 9.45 24.75 9.4 24.7 9.45 24.5 9.5 24.5 9.55 24.45 9.65 24.5 9.65 24.6 9.7 24.7 9.7 24.75 9.8 25.5 9.55 27.0 9.55 M11.0 10.25 L12.8 10.5 Q12.7 10.7 12.45 10.7 L10.95 10.65 11.2 10.45 11.0 10.3 11.0 10.25 M10.65 10.65 L10.45 10.75 10.4 10.75 10.3 10.95 10.2 11.0 10.2 11.05 10.05 10.95 10.0 10.9 10.1 10.55 10.05 10.6 10.2 10.8 10.5 10.6 10.65 10.65 M17.3 16.15 Q17.45 17.0 16.6 17.35 L16.35 17.5 14.4 17.95 13.85 18.1 Q12.5 18.75 11.4 19.75 L11.25 19.85 11.1 20.0 10.95 20.05 10.4 19.45 10.35 19.0 Q10.25 18.4 10.4 17.9 10.35 17.35 10.6 16.8 L11.0 16.1 11.1 16.0 11.15 16.0 11.7 15.85 11.8 15.85 Q11.55 15.95 11.3 16.15 L11.35 16.2 11.4 16.15 12.05 15.7 11.95 15.75 12.2 15.6 12.25 15.6 12.5 15.6 12.3 15.65 12.35 15.7 12.4 15.7 13.65 15.65 17.25 16.1 17.3 16.15 M11.35 16.2 Q10.95 16.45 10.85 16.95 L10.7 17.15 10.5 18.0 10.5 18.05 11.55 18.2 13.15 17.4 13.95 17.05 14.65 16.7 14.7 16.65 14.8 16.45 14.8 16.4 14.7 16.15 14.65 16.1 14.6 16.05 Q13.7 15.6 12.65 15.8 12.0 15.85 11.45 16.15 L11.35 16.2 M10.95 17.35 L10.95 17.4 10.9 17.4 11.1 17.1 10.95 17.35 M10.9 19.75 L10.95 19.75 10.9 19.7 10.9 19.75" fill="#5a5a5a" fill-rule="evenodd" stroke="none"/>
    <path d="M25.25 9.3 L25.35 9.25 25.5 9.2 25.65 9.2 27.4 9.4 27.45 9.4 27.5 9.45 27.5 9.5 27.45 9.55 27.45 9.6 27.0 9.55 25.5 9.55 25.8 9.35 25.65 9.2 Q25.15 9.35 24.7 9.65 L24.7 9.7 24.6 9.7 24.5 9.65 24.45 9.65 24.5 9.55 24.5 9.5 24.7 9.45 24.8 9.45 24.85 9.4 25.25 9.3 M10.95 10.65 L10.65 10.65 10.5 10.6 10.2 10.8 10.05 10.6 10.1 10.55 10.2 10.45 10.25 10.35 10.3 10.1 10.35 10.1 10.35 10.05 10.4 10.05 10.45 10.0 10.6 10.1 10.55 10.1 10.45 10.25 11.0 10.3 11.2 10.45 10.95 10.65 M11.35 16.2 L11.45 16.15 Q12.0 15.85 12.65 15.8 13.7 15.6 14.6 16.05 L14.65 16.1 14.7 16.15 14.8 16.4 14.8 16.45 14.7 16.65 14.65 16.7 13.95 17.05 13.15 17.4 11.55 18.2 10.5 18.05 10.5 18.0 10.7 17.15 10.85 16.95 Q10.95 16.45 11.35 16.2 M12.4 16.35 L12.5 16.3 12.6 16.2 12.15 16.0 12.05 16.05 11.9 16.15 11.8 16.3 11.7 16.55 11.75 16.6 12.1 16.75 12.25 16.65 12.4 16.35 M10.95 17.35 L11.1 17.1 10.9 17.4 10.95 17.4 10.95 17.35" fill="#767676" fill-rule="evenodd" stroke="none"/>
    <path d="M10.95 10.2 L11.0 10.25 11.0 10.3 10.45 10.25 10.55 10.1 10.6 10.1 10.6 10.05 Q10.85 10.05 10.95 10.2 M25.5 9.55 L24.75 9.8 24.7 9.7 24.7 9.65 Q25.15 9.35 25.65 9.2 L25.8 9.35 25.5 9.55 M12.4 16.35 L12.25 16.65 12.1 16.75 11.75 16.6 11.7 16.55 11.8 16.3 11.9 16.15 12.05 16.05 12.15 16.0 12.6 16.2 12.5 16.3 12.4 16.35" fill="#cbcbcb" fill-rule="evenodd" stroke="none"/>
    <path d="M25.35 9.25 L23.35 9.5 21.05 10.05 16.65 10.3 16.65 10.35 16.7 10.6 16.95 11.0 17.0 11.0 17.0 11.5 17.0 11.7 Q16.45 12.35 16.8 13.05 L16.85 13.15 17.05 13.2 Q17.45 13.05 17.45 12.7 L17.45 12.65 17.6 12.35 17.6 12.2 17.4 11.65 17.5 11.55 17.65 11.6 17.75 11.75 17.75 11.85 18.1 12.1 Q18.4 12.9 18.2 13.65 L18.1 13.85 18.1 13.9 18.1 14.0 18.3 14.0 18.4 13.4 18.5 13.3 18.7 13.35 Q19.2 14.85 18.1 15.45 L18.05 15.45 18.05 15.5 15.1 15.55 14.5 15.0 Q14.3 14.3 14.4 13.55 L14.4 13.5 14.55 13.2 14.55 13.15 14.9 12.85 15.05 12.9 15.1 12.95 15.05 13.35 15.05 13.4 15.15 13.55 15.2 13.6 15.25 13.65 15.15 13.7 14.95 13.65 14.95 13.6 14.8 13.55 14.7 13.55 14.7 13.6 14.65 13.7 Q14.5 14.15 14.65 14.45 L14.65 14.7 14.75 14.8 14.75 14.85 14.85 14.95 14.85 15.05 15.0 15.2 15.15 15.25 15.65 15.4 15.7 15.4 15.75 15.45 17.15 15.5 17.2 15.45 17.45 15.4 17.6 15.4 17.6 15.35 17.8 15.3 17.85 15.3 18.25 15.05 18.4 14.85 18.45 14.85 18.5 14.8 18.75 14.4 18.75 14.35 18.6 14.25 18.6 14.3 18.55 14.25 18.55 14.15 18.45 14.3 18.4 14.35 18.3 14.3 18.05 14.4 17.8 14.25 17.8 13.85 18.1 13.4 18.1 13.35 18.2 13.2 18.15 12.9 18.05 12.8 18.05 12.7 18.0 12.65 17.95 12.6 17.9 12.55 17.9 12.5 17.85 12.45 17.85 12.6 17.7 12.7 17.7 12.8 17.6 13.0 17.5 13.25 17.3 13.35 17.3 13.4 17.3 13.45 17.15 13.5 16.75 13.45 16.35 13.0 16.35 12.6 16.4 12.55 16.45 12.4 16.45 12.25 16.65 12.05 16.65 11.95 16.7 11.85 16.8 11.65 16.85 11.4 16.8 11.4 16.7 11.3 16.7 11.25 16.7 11.35 16.65 11.35 16.55 11.4 16.55 11.5 15.75 12.2 15.75 12.3 15.7 12.35 15.7 12.45 15.7 12.65 15.75 12.65 15.75 13.05 15.7 13.25 15.5 13.55 15.45 13.55 Q15.35 12.7 15.6 11.95 L15.65 11.9 Q15.95 11.65 16.35 11.5 L16.4 11.35 16.4 11.3 Q16.35 10.9 16.45 10.6 L16.45 10.45 16.5 10.4 16.55 10.3 13.0 10.25 10.95 10.2 Q10.85 10.05 10.6 10.05 L10.6 10.1 10.45 10.0 10.4 10.05 10.35 10.05 10.35 10.1 10.15 10.05 9.9 10.75 9.9 10.8 10.0 10.9 10.05 10.95 10.2 11.05 Q11.1 11.85 10.9 13.25 L10.9 13.4 Q11.25 14.6 10.65 15.75 L10.45 16.15 10.35 16.2 Q9.45 18.05 9.8 20.0 L9.85 20.4 Q10.55 21.8 11.75 22.65 12.4 23.1 13.2 23.15 L14.15 23.2 Q17.05 23.85 19.9 23.15 21.85 22.65 22.35 20.8 L22.45 19.9 22.2 18.35 21.75 16.8 21.75 16.75 21.65 16.6 21.6 16.55 Q21.5 15.75 21.75 15.05 L21.75 15.0 21.7 15.05 21.5 15.05 21.5 15.0 21.45 14.95 21.45 14.9 21.5 14.85 21.55 14.8 21.55 14.7 23.0 13.3 23.45 12.75 23.45 12.65 23.45 12.55 24.35 11.65 24.65 11.15 Q25.8 10.35 27.1 9.85 L27.45 9.7 27.5 9.7 27.55 9.5 27.5 9.5 27.5 9.45 27.45 9.4 27.4 9.4 25.65 9.2 25.5 9.2 25.35 9.25 M25.55 8.95 L27.4 9.1 27.5 9.15 27.55 9.15 27.7 9.25 27.75 9.15 27.8 9.1 27.85 9.1 27.95 9.2 28.0 9.2 27.95 9.4 28.0 9.45 28.0 9.5 27.9 9.55 27.9 9.6 27.8 9.75 27.9 9.9 27.55 10.0 27.35 10.1 Q26.1 10.5 25.05 11.3 L24.85 11.35 24.35 12.05 24.1 12.45 24.05 12.5 23.8 12.65 22.6 14.15 22.2 14.55 22.2 14.6 Q21.8 15.4 21.9 16.35 L21.9 16.4 22.45 18.15 Q23.1 20.0 22.35 21.75 L22.0 22.3 21.95 22.3 21.85 22.35 21.25 22.8 21.15 22.9 21.1 22.95 Q20.5 23.15 19.95 23.5 16.65 24.2 13.35 23.4 L12.65 23.3 Q10.9 22.95 10.05 21.3 L9.55 20.5 Q9.1 18.45 9.9 16.55 L10.05 16.1 10.6 14.85 10.6 14.8 10.75 13.7 10.7 13.65 10.65 13.55 10.6 13.5 Q10.75 12.35 10.15 11.45 L9.85 11.15 9.6 11.0 9.8 10.0 9.75 10.0 9.8 10.0 9.8 9.75 9.8 9.7 9.9 9.65 9.95 9.6 10.0 9.65 10.05 9.65 10.15 9.85 11.1 9.85 12.0 9.9 19.1 10.0 19.25 10.0 25.0 9.05 25.5 9.0 25.55 8.95 M16.7 11.25 L16.7 11.15 16.7 11.25" fill="#000000" fill-rule="evenodd" stroke="none"/>
    <path d="M17.9 12.55 L17.85 12.6 17.85 12.45 17.9 12.5 17.9 12.55 M17.5 13.25 L17.35 13.4 17.3 13.45 17.3 13.4 17.3 13.35 17.5 13.25 M17.15 13.5 L16.95 13.55 17.25 13.65 17.35 13.65 17.65 13.6 17.45 13.95 17.6 14.1 17.65 14.05 17.8 13.85 17.8 14.25 18.05 14.4 17.95 14.4 17.95 14.45 17.95 14.55 18.1 14.65 Q17.95 14.8 17.75 14.9 L17.7 14.95 17.7 15.0 17.0 15.2 15.9 15.2 15.3 15.0 15.3 14.95 15.3 14.9 15.15 14.75 15.15 14.7 15.1 14.6 14.95 14.45 14.95 14.4 14.95 14.1 15.8 14.0 15.85 13.95 15.9 13.75 16.15 13.15 16.15 13.05 16.15 12.9 16.1 12.85 16.05 12.75 16.05 12.7 16.05 12.5 16.1 12.45 16.2 12.35 16.2 12.5 16.35 12.6 16.35 13.0 16.75 13.45 17.15 13.5 M16.7 11.25 L16.7 11.3 16.7 11.35 16.7 11.25 M18.4 14.35 L18.45 14.3 18.55 14.15 18.55 14.25 18.6 14.3 18.4 14.35 M18.5 14.8 L18.45 14.85 18.4 14.85 18.25 15.05 17.85 15.3 17.8 15.3 18.4 14.85 18.5 14.8 M17.6 15.35 L17.6 15.4 17.45 15.4 17.6 15.35 M14.85 14.95 L14.75 14.85 14.75 14.8 14.8 14.8 14.9 14.95 14.85 14.95 M14.7 13.6 L14.7 13.55 14.8 13.55 14.75 13.55 14.7 13.6 M15.75 12.7 L15.75 12.8 15.75 13.05 15.75 12.65 15.75 12.7" fill="#e99916" fill-rule="evenodd" stroke="none"/>
    <path d="M15.25 13.65 L15.45 13.55 15.5 13.55 15.7 13.25 15.75 13.05 15.75 12.8 15.75 12.7 15.75 12.4 15.9 12.2 15.9 12.15 16.65 11.55 16.75 11.65 16.8 11.65 16.7 11.85 16.65 11.9 16.65 11.85 16.5 11.75 Q16.3 11.8 16.2 11.95 L16.15 12.1 16.2 12.35 16.1 12.45 16.05 12.5 16.05 12.7 16.05 12.75 16.0 13.1 15.95 13.45 15.8 13.55 15.8 13.6 15.75 13.7 15.65 13.8 15.4 13.85 15.4 13.9 15.35 13.95 14.95 14.05 14.95 14.1 14.95 14.4 14.95 14.45 14.95 14.5 15.0 14.6 14.9 14.55 14.8 14.8 14.75 14.8 14.65 14.7 14.65 14.45 14.65 13.9 14.75 13.6 14.95 13.65 15.15 13.7 15.25 13.65 M17.85 12.6 L17.9 12.55 17.95 12.6 18.0 12.65 18.05 12.7 18.05 12.8 18.15 12.9 18.2 13.2 18.1 13.35 18.1 13.4 18.2 13.1 18.15 13.1 18.05 13.0 18.0 13.05 17.65 13.6 17.35 13.65 17.25 13.65 16.95 13.55 17.15 13.5 17.3 13.45 17.35 13.4 17.5 13.25 17.6 13.0 17.7 12.8 17.7 12.7 17.85 12.6" fill="#f4cd8e" fill-rule="evenodd" stroke="none"/>
    <path d="M16.7 11.3 L16.8 11.4 16.85 11.4 16.8 11.65 16.75 11.65 16.65 11.55 15.9 12.15 15.9 12.2 15.75 12.4 15.75 12.7 15.75 12.65 15.7 12.65 15.7 12.45 15.7 12.35 15.75 12.3 15.75 12.2 16.55 11.5 16.55 11.4 16.65 11.35 16.7 11.35 16.7 11.3 M16.7 11.85 L16.65 11.95 16.65 12.05 16.45 12.25 16.45 12.1 16.6 12.0 16.65 11.95 16.65 11.9 16.7 11.85 M14.65 14.45 Q14.5 14.15 14.65 13.7 L14.7 13.6 14.75 13.55 14.8 13.55 14.95 13.6 14.95 13.65 14.75 13.6 14.65 13.9 14.65 14.45 M16.05 12.75 L16.1 12.85 16.15 12.9 16.15 13.05 16.15 13.15 15.9 13.75 15.85 13.95 15.8 14.0 14.95 14.1 14.95 14.05 15.35 13.95 15.4 13.9 15.4 13.85 15.65 13.8 15.75 13.7 15.8 13.6 15.8 13.55 15.95 13.45 16.0 13.1 16.05 12.75 M14.95 14.45 L15.1 14.6 15.15 14.7 15.15 14.75 15.1 14.75 15.1 14.7 15.0 14.6 14.95 14.5 14.95 14.45" fill="#efb85f" fill-rule="evenodd" stroke="none"/>
    <path d="M17.65 13.6 L18.0 13.05 18.05 13.0 18.15 13.1 18.2 13.1 18.1 13.4 17.8 13.85 17.65 14.05 17.6 14.1 17.45 13.95 17.65 13.6 M16.45 12.25 L16.45 12.4 16.4 12.55 16.35 12.6 16.2 12.5 16.2 12.35 16.15 12.1 16.2 11.95 Q16.3 11.8 16.5 11.75 L16.65 11.85 16.65 11.9 16.65 11.95 16.6 12.0 16.45 12.1 16.45 12.25 M18.05 14.4 L18.3 14.3 18.4 14.35 18.6 14.3 18.6 14.25 18.75 14.35 18.75 14.4 18.5 14.8 18.4 14.85 17.8 15.3 17.6 15.35 17.45 15.4 17.2 15.45 17.15 15.5 15.75 15.45 15.7 15.4 15.65 15.4 15.15 15.25 15.0 15.2 14.85 15.05 14.85 14.95 14.9 14.95 14.8 14.8 14.9 14.55 15.0 14.6 15.1 14.7 15.1 14.75 15.15 14.75 15.3 14.9 15.3 14.95 15.3 15.0 15.9 15.2 17.0 15.2 17.7 15.0 17.7 14.95 17.75 14.9 Q17.95 14.8 18.1 14.65 L17.95 14.55 17.95 14.45 17.95 14.4 18.05 14.4" fill="#95620f" fill-rule="evenodd" stroke="none"/>
    <path d="M18.1 17.0 L18.15 17.05 18.15 17.1 18.05 17.2 17.95 20.75 18.05 23.25 17.9 24.15 17.9 24.25 17.9 24.45 17.8 24.75 17.4 24.8 15.7 24.65 15.65 24.75 15.45 24.7 15.45 24.6 15.35 24.5 15.4 24.4 Q15.05 21.65 15.2 18.8 L15.3 17.25 15.25 17.15 15.2 17.1 15.2 17.05 15.25 17.0 15.3 17.0 15.3 16.85 15.4 16.8 15.45 16.75 15.55 16.85 15.6 16.85 15.6 16.9 18.05 16.95 18.1 17.0 M16.25 18.5 Q16.35 18.7 16.6 18.6 L16.65 18.55 16.65 18.5 16.9 18.25 Q16.8 17.95 16.4 18.0 16.15 18.2 16.2 18.5 L16.25 18.5 M16.4 17.7 Q16.9 17.65 17.15 18.05 L17.2 18.1 Q17.05 19.2 16.05 18.65 L15.9 18.4 15.9 18.15 16.0 18.05 16.05 17.95 16.05 17.9 16.35 17.75 16.4 17.7 M17.7 22.1 L17.55 19.6 17.75 17.25 15.6 17.3 15.55 22.8 15.7 24.25 15.75 24.4 15.8 24.4 17.45 24.55 17.6 24.45 17.6 24.35 17.6 24.3 17.6 24.2 17.7 23.9 17.7 23.8 17.7 23.75 17.75 22.5 17.7 22.1" fill="#000000" fill-rule="evenodd" stroke="none"/>
    <path d="M16.2 18.5 Q16.15 18.2 16.4 18.0 16.8 17.95 16.9 18.25 L16.65 18.5 16.65 18.55 16.6 18.6 Q16.35 18.7 16.25 18.5 L16.2 18.5" fill="#b9b9b9" fill-rule="evenodd" stroke="none"/>
    <path d="M17.7 22.1 L17.75 22.5 17.7 23.75 17.7 23.8 17.7 23.9 17.6 24.2 17.6 24.3 17.6 24.35 17.6 24.45 17.45 24.55 15.8 24.4 15.75 24.4 15.7 24.25 15.55 22.8 15.6 17.3 17.75 17.25 17.55 19.6 17.7 22.1 M16.4 17.7 L16.35 17.75 16.05 17.9 16.05 17.95 16.0 18.05 15.9 18.15 15.9 18.4 16.05 18.65 Q17.05 19.2 17.2 18.1 L17.15 18.05 Q16.9 17.65 16.4 17.7" fill="#ab813a" fill-rule="evenodd" stroke="none"/>
  </g>
</svg>
