<?xml version="1.0" encoding="UTF-8" standalone="no"?>
<svg xmlns:xlink="http://www.w3.org/1999/xlink" height="32.3px" width="32.1px" xmlns="http://www.w3.org/2000/svg">
  <g transform="matrix(1.0, 0.0, 0.0, 1.0, -0.6, -0.3)">
    <path d="M29.85 0.7 L29.7 1.1 29.6 1.25 29.05 2.1 28.6 1.8 28.6 1.45 28.85 0.8 Q28.9 0.35 29.3 0.35 L29.4 0.4 Q29.85 0.1 29.85 0.7 M1.25 2.6 Q0.8 2.6 0.7 2.2 L0.7 1.7 Q0.7 1.15 1.45 0.65 2.2 0.2 2.2 0.95 L1.25 2.6 M1.85 29.35 L1.55 29.85 1.0 30.25 Q0.6 30.25 0.6 29.8 0.6 29.5 0.9 29.25 1.3 28.9 1.8 29.1 L1.85 29.35 M29.95 29.35 L29.8 29.95 29.4 30.25 Q28.95 30.25 28.95 29.8 28.95 29.4 29.45 29.0 29.95 28.55 29.95 29.35" fill="#ff6666" fill-rule="evenodd" stroke="none"/>
    <path d="M32.7 3.95 L32.7 4.35 31.45 4.6 Q30.2 4.6 30.2 4.2 30.2 3.9 30.7 3.65 L31.35 2.95 Q31.15 2.6 31.45 2.15 31.8 1.75 32.3 1.95 L32.7 3.95 M4.2 2.5 Q4.2 4.6 2.45 4.6 L2.05 4.55 Q1.95 4.05 2.1 3.9 L1.7 3.5 Q1.7 3.05 3.35 3.05 L3.9 2.1 Q4.2 1.65 4.2 2.5 M3.6 30.35 Q3.7 30.0 4.3 30.1 L4.35 32.05 Q4.25 32.6 3.75 32.6 L1.6 32.45 Q1.45 32.4 1.45 32.15 2.65 30.7 3.6 30.85 L3.6 30.35 M32.25 32.5 L31.25 32.5 30.25 32.5 29.85 32.05 30.05 31.8 31.3 31.25 31.2 30.65 Q31.2 30.25 31.55 29.8 31.95 29.25 32.25 29.95 L32.45 31.75 32.25 32.5" fill="#660000" fill-rule="evenodd" stroke="none"/>
    <path d="M28.85 14.3 L28.9 14.35 28.95 14.45 28.95 14.5 28.95 17.4 29.0 17.45 28.95 17.45 28.95 17.5 28.85 17.55 28.4 17.4 28.45 17.3 28.45 17.25 26.05 17.2 Q25.95 17.3 26.0 17.35 L26.0 17.45 25.5 17.55 25.5 17.5 25.4 17.45 25.35 17.4 25.3 17.35 25.3 17.3 25.05 17.15 25.0 17.15 24.9 17.15 24.8 17.0 24.7 16.9 24.25 16.8 24.15 16.8 24.05 16.85 23.95 16.75 23.5 16.8 23.5 16.75 23.3 16.75 17.6 16.8 16.2 16.85 16.2 18.4 24.8 18.45 24.8 18.35 24.75 18.35 24.8 18.3 24.85 18.15 25.3 17.8 25.35 17.8 25.4 17.75 25.75 17.75 25.8 17.75 25.8 17.8 25.85 17.85 25.9 17.85 25.95 18.0 25.9 18.0 25.9 18.05 26.0 18.05 26.15 18.2 26.1 18.2 26.05 18.25 26.1 18.25 26.25 18.25 26.8 18.3 27.15 18.3 27.8 18.3 27.9 18.3 27.9 18.25 28.25 18.1 28.35 18.05 28.35 18.0 28.55 17.75 28.8 17.8 28.85 17.8 28.9 17.85 28.95 17.95 28.95 18.0 28.95 20.9 29.0 20.95 28.95 20.95 28.95 21.0 28.85 21.05 28.4 20.9 28.45 20.8 28.45 20.75 26.05 20.7 Q25.95 20.8 26.0 20.85 L26.0 20.95 25.5 21.05 25.5 21.0 25.4 20.95 25.35 20.9 25.3 20.85 25.3 20.8 25.05 20.65 25.0 20.65 24.9 20.65 24.8 20.5 24.7 20.4 24.25 20.3 24.15 20.3 24.05 20.35 23.95 20.25 23.5 20.3 23.5 20.25 23.3 20.25 17.6 20.3 16.2 20.35 16.2 21.0 14.9 21.0 14.9 21.1 14.25 22.2 8.6 22.2 8.3 22.15 7.75 22.2 7.45 21.9 5.6 21.9 5.45 21.9 Q5.15 21.9 5.05 21.7 L4.9 21.25 4.85 21.05 4.8 20.95 4.65 20.6 4.65 20.5 3.8 20.5 3.7 15.1 3.8 14.95 3.95 14.95 4.55 14.95 4.55 14.8 4.9 13.75 5.05 13.2 5.35 12.85 5.35 12.8 7.55 12.85 7.7 12.7 7.75 12.65 13.1 12.65 13.35 12.55 13.8 12.6 13.8 12.5 14.05 12.75 14.2 13.1 14.35 13.45 14.45 13.45 14.7 13.8 14.7 14.1 14.75 14.1 15.55 14.1 15.55 14.05 15.6 14.1 16.05 14.1 16.15 14.1 16.2 14.2 16.25 14.35 16.2 14.75 16.2 14.9 24.8 14.95 24.8 14.85 24.75 14.85 24.8 14.8 24.85 14.65 25.3 14.3 25.35 14.3 25.4 14.25 25.75 14.25 25.8 14.25 25.8 14.3 25.85 14.35 25.9 14.35 25.95 14.5 25.9 14.5 25.9 14.55 26.0 14.55 26.15 14.7 26.1 14.7 26.05 14.75 26.1 14.75 26.25 14.75 26.8 14.8 27.15 14.8 27.8 14.8 27.9 14.8 27.9 14.75 28.25 14.6 28.35 14.55 28.35 14.5 28.55 14.25 28.8 14.3 28.85 14.3 M28.55 14.55 L28.55 14.6 28.4 14.75 28.4 14.8 28.35 14.9 28.2 14.95 26.05 14.9 25.9 14.9 25.65 14.7 25.7 14.65 25.65 14.45 25.5 14.45 25.15 14.8 25.1 14.85 25.1 14.9 25.05 15.05 25.05 15.1 24.85 15.1 16.2 15.1 16.0 15.1 15.7 15.1 15.6 15.05 14.95 15.1 14.9 15.75 14.9 16.7 15.05 16.75 15.15 16.7 15.45 16.6 15.45 16.45 15.45 16.3 15.45 16.2 15.5 16.15 15.55 16.1 15.6 16.15 15.7 16.15 15.8 16.6 16.0 16.6 16.2 16.6 17.65 16.65 17.65 16.6 24.3 16.65 24.6 16.65 24.8 16.65 24.85 16.65 24.9 16.6 24.95 16.65 25.0 16.65 25.05 16.6 25.15 17.0 25.5 17.25 25.6 17.3 25.8 17.3 25.8 17.25 25.8 17.15 25.85 17.1 25.9 17.0 26.0 16.95 26.15 17.0 28.5 17.0 28.6 17.1 28.65 17.15 28.65 17.25 28.65 17.3 28.8 17.3 Q28.75 15.9 28.85 14.55 L28.8 14.5 28.8 14.45 28.75 14.5 28.65 14.5 28.6 14.5 28.55 14.55 M27.9 16.25 L25.7 16.05 25.65 16.0 25.6 16.0 25.7 15.7 25.9 15.55 25.9 15.5 25.95 15.45 26.0 15.45 26.5 15.35 28.5 15.65 28.55 15.7 28.55 15.8 28.5 15.9 28.2 16.1 28.0 16.15 28.0 16.2 27.9 16.25 M26.05 15.65 L25.85 15.8 25.8 15.8 25.8 15.9 25.85 15.95 25.85 16.0 28.2 15.9 28.25 15.85 Q28.1 15.65 27.7 15.65 L26.45 15.55 26.4 15.6 26.15 15.6 26.05 15.65 M25.65 17.95 L25.5 17.95 25.15 18.3 25.1 18.35 25.1 18.4 25.05 18.55 25.05 18.6 24.85 18.6 16.2 18.6 16.0 18.6 15.7 18.6 15.6 18.55 15.1 18.6 14.95 18.6 14.9 19.25 14.9 20.2 15.05 20.25 Q15.2 20.05 15.45 20.1 L15.45 19.8 15.45 19.7 15.5 19.65 15.55 19.6 15.6 19.65 15.7 19.65 15.8 20.1 16.0 20.1 16.2 20.1 17.65 20.15 17.65 20.1 24.3 20.15 24.6 20.15 24.8 20.15 24.85 20.15 24.9 20.1 24.95 20.15 25.0 20.15 25.05 20.1 25.15 20.5 25.5 20.75 25.6 20.8 25.8 20.8 25.8 20.75 25.8 20.65 25.85 20.6 25.9 20.5 26.0 20.45 26.15 20.5 28.5 20.5 28.6 20.6 28.65 20.65 28.65 20.75 28.65 20.8 28.8 20.8 Q28.75 19.4 28.85 18.05 L28.8 18.0 28.8 17.95 28.75 18.0 28.65 18.0 28.6 18.0 28.55 18.05 28.55 18.1 28.4 18.25 28.4 18.3 28.35 18.4 28.2 18.45 26.05 18.4 25.9 18.4 25.65 18.2 25.7 18.15 25.65 17.95 M25.1 17.0 L25.1 17.05 25.15 17.0 25.1 17.0 M25.15 20.5 L25.1 20.5 25.1 20.55 25.15 20.5 M27.9 19.75 L25.7 19.55 25.65 19.5 25.6 19.5 25.7 19.2 25.9 19.05 25.9 19.0 25.95 18.95 26.0 18.95 26.5 18.85 28.5 19.15 28.55 19.2 28.55 19.3 28.5 19.4 28.2 19.6 28.0 19.65 28.0 19.7 27.9 19.75 M28.25 19.35 Q28.1 19.15 27.7 19.15 L26.45 19.05 26.4 19.1 26.15 19.1 26.05 19.15 25.85 19.3 25.8 19.3 25.8 19.4 25.85 19.45 25.85 19.5 28.2 19.4 28.25 19.35 M7.95 12.9 L7.8 12.9 6.9 13.9 5.95 15.1 5.9 15.1 5.9 15.15 4.0 15.2 4.0 20.25 6.25 20.25 6.3 20.3 6.75 20.75 7.45 21.5 7.65 21.7 7.85 21.95 14.0 21.95 14.0 22.05 14.45 21.35 14.55 21.1 14.55 21.05 14.5 21.05 14.5 14.2 14.35 13.95 14.25 13.9 14.25 13.8 14.15 13.65 14.0 13.35 13.8 12.8 13.3 12.8 13.3 12.9 7.95 12.9 M7.4 13.05 L5.55 13.0 5.35 13.2 5.2 13.45 5.1 14.0 4.9 14.55 4.8 14.95 5.75 14.95 5.75 14.85 6.0 14.65 6.25 14.35 6.7 13.8 7.3 13.25 7.4 13.05 M6.4 16.9 L6.45 17.25 6.45 18.05 6.55 18.05 8.2 18.05 10.85 18.25 11.55 18.5 Q11.85 18.5 11.75 18.6 L11.8 18.7 12.35 18.85 12.7 19.05 12.8 17.4 12.65 16.0 11.1 16.4 10.55 16.55 8.4 16.75 7.3 16.8 6.4 16.75 6.4 16.9 M6.9 16.55 L7.3 16.55 8.4 16.55 9.85 16.35 11.15 16.15 11.55 16.0 12.15 15.9 12.3 15.85 5.4 15.85 6.2 16.6 6.2 16.5 6.45 16.5 6.9 16.55 M5.45 15.6 L12.7 15.65 12.8 15.65 13.0 16.65 12.9 19.15 12.9 19.3 12.9 19.4 5.5 19.45 5.3 19.4 5.25 19.4 5.05 19.5 5.05 15.65 5.15 15.75 Q5.2 15.6 5.45 15.6 M5.3 16.1 L5.25 16.55 5.25 18.6 5.3 19.1 5.4 18.95 6.1 18.35 6.2 18.2 6.2 16.85 5.6 16.3 5.3 16.1 M6.45 18.3 L5.85 18.85 5.55 19.15 12.55 19.15 12.15 19.0 11.7 18.85 11.3 18.7 10.15 18.4 9.6 18.3 6.45 18.3 M5.25 21.5 L5.9 21.6 5.95 21.7 7.25 21.7 7.15 21.6 6.9 21.25 6.65 21.0 6.1 20.5 4.9 20.5 5.1 21.05 5.25 21.5 M15.9 14.35 L15.65 14.35 15.65 14.75 15.7 14.8 15.75 14.8 15.9 14.85 15.9 14.9 16.0 14.9 15.9 14.4 15.9 14.35 M15.45 14.35 L14.7 14.35 14.7 15.8 14.75 15.1 14.8 14.9 15.35 14.8 14.9 14.8 14.9 14.6 15.15 14.55 15.45 14.6 15.45 14.35 M15.7 16.9 L15.65 17.3 15.65 17.35 15.5 17.35 15.5 17.15 15.45 17.1 15.45 16.95 14.8 16.9 14.7 16.65 14.7 19.3 14.75 18.6 14.8 18.4 15.35 18.3 15.35 18.25 15.4 18.2 15.45 18.2 15.55 17.6 15.55 17.55 15.6 17.6 15.6 17.65 15.65 18.25 15.7 18.3 15.75 18.3 15.9 18.35 15.9 18.4 16.0 18.4 16.0 16.85 15.8 16.8 15.75 16.9 15.7 16.9 M11.7 16.95 L11.8 17.3 11.8 17.7 11.7 17.75 Q11.55 17.75 11.55 17.4 L11.45 17.1 11.55 16.95 11.7 16.95 M14.7 20.15 L14.7 20.7 14.85 20.75 14.9 20.7 14.9 20.75 15.5 20.8 15.5 20.65 15.45 20.6 15.45 20.5 15.3 20.5 15.1 20.45 14.8 20.4 14.7 20.15 M16.0 20.35 L15.8 20.3 15.75 20.4 15.7 20.4 15.65 20.8 16.0 20.8 16.0 20.35" fill="#000000" fill-rule="evenodd" stroke="none"/>
    <path d="M7.95 12.9 L13.3 12.9 13.3 12.8 13.8 12.8 14.0 13.35 14.15 13.65 14.25 13.8 14.25 13.9 14.35 13.95 14.5 14.2 14.5 21.05 14.55 21.05 14.55 21.1 14.45 21.35 14.0 22.05 14.0 21.95 7.85 21.95 7.65 21.7 7.45 21.5 6.75 20.75 6.3 20.3 6.25 20.25 4.0 20.25 4.0 15.2 5.9 15.15 5.9 15.1 5.95 15.1 6.9 13.9 7.8 12.9 7.95 12.9 M5.45 15.6 Q5.2 15.6 5.15 15.75 L5.05 15.65 5.05 19.5 5.25 19.4 5.3 19.4 5.5 19.45 12.9 19.4 12.9 19.3 12.9 19.15 13.0 16.65 12.8 15.65 12.7 15.65 5.45 15.6" fill="#3e4d33" fill-rule="evenodd" stroke="none"/>
    <path d="M7.4 13.05 L7.3 13.25 6.7 13.8 6.25 14.35 6.0 14.65 5.75 14.85 5.75 14.95 4.8 14.95 4.9 14.55 5.1 14.0 5.2 13.45 5.35 13.2 5.55 13.0 7.4 13.05 M5.25 21.5 L5.1 21.05 4.9 20.5 6.1 20.5 6.65 21.0 6.9 21.25 7.15 21.6 7.25 21.7 5.95 21.7 5.9 21.6 5.25 21.5" fill="#6b623f" fill-rule="evenodd" stroke="none"/>
    <path d="M6.9 16.55 L6.45 16.5 6.2 16.5 6.2 16.6 5.4 15.85 12.3 15.85 12.15 15.9 11.55 16.0 11.15 16.15 9.85 16.35 8.4 16.55 7.3 16.55 6.9 16.55 M6.4 16.9 L6.4 16.75 7.3 16.8 8.4 16.75 10.55 16.55 11.1 16.4 12.65 16.0 12.8 17.4 12.7 19.05 12.35 18.85 11.8 18.7 11.75 18.6 Q11.85 18.5 11.55 18.5 L10.85 18.25 8.2 18.05 6.55 18.05 6.45 18.05 6.45 17.25 6.4 16.9 M11.7 16.95 L11.55 16.95 11.45 17.1 11.55 17.4 Q11.55 17.75 11.7 17.75 L11.8 17.7 11.8 17.3 11.7 16.95" fill="#8ca77a" fill-rule="evenodd" stroke="none"/>
    <path d="M6.45 18.3 L9.6 18.3 10.15 18.4 11.3 18.7 11.7 18.85 12.15 19.0 12.55 19.15 5.55 19.15 5.85 18.85 6.45 18.3 M5.3 16.1 L5.6 16.3 6.2 16.85 6.2 18.2 6.1 18.35 5.4 18.95 5.3 19.1 5.25 18.6 5.25 16.55 5.3 16.1" fill="#668055" fill-rule="evenodd" stroke="none"/>
    <path d="M15.7 16.9 L15.75 16.9 15.8 16.8 16.0 16.85 16.0 18.4 15.9 18.4 15.9 18.35 15.75 18.3 15.7 18.3 15.65 18.25 15.6 17.65 15.6 17.6 15.55 17.55 15.55 17.6 15.45 18.2 15.4 18.2 15.35 18.25 15.35 18.3 14.8 18.4 14.75 18.6 14.7 19.3 14.7 16.65 14.8 16.9 15.45 16.95 15.45 17.1 15.5 17.15 15.5 17.35 15.65 17.35 15.65 17.3 15.7 16.9 M15.45 14.35 L15.45 14.6 15.15 14.55 14.9 14.6 14.9 14.8 15.35 14.8 14.8 14.9 14.75 15.1 14.7 15.8 14.7 14.35 15.45 14.35 M15.9 14.35 L15.9 14.4 16.0 14.9 15.9 14.9 15.9 14.85 15.75 14.8 15.7 14.8 15.65 14.75 15.65 14.35 15.9 14.35 M16.0 20.35 L16.0 20.8 15.65 20.8 15.7 20.4 15.75 20.4 15.8 20.3 16.0 20.35 M14.7 20.15 L14.8 20.4 15.1 20.45 15.3 20.5 15.45 20.5 15.45 20.6 15.5 20.65 15.5 20.8 14.9 20.75 14.9 20.7 14.85 20.75 14.7 20.7 14.7 20.15" fill="#999999" fill-rule="evenodd" stroke="none"/>
    <path d="M28.55 14.55 L28.6 14.5 28.65 14.5 28.75 14.5 28.8 14.45 28.8 14.5 28.85 14.55 Q28.75 15.9 28.8 17.3 L28.65 17.3 28.65 17.25 28.65 17.15 28.6 17.1 28.5 17.0 26.15 17.0 26.0 16.95 25.9 17.0 25.85 17.1 25.8 17.15 25.8 17.25 25.8 17.3 25.6 17.3 25.5 17.25 25.15 17.0 25.05 16.6 25.0 16.65 24.95 16.65 24.9 16.6 24.85 16.65 24.8 16.65 24.6 16.65 24.3 16.65 17.65 16.6 17.65 16.65 16.2 16.6 16.0 16.6 15.8 16.6 15.7 16.15 15.6 16.15 15.55 16.1 15.5 16.15 15.45 16.2 15.45 16.3 15.45 16.45 15.45 16.6 15.15 16.7 15.05 16.75 14.9 16.7 14.9 15.75 14.95 15.1 15.6 15.05 15.7 15.1 16.0 15.1 16.2 15.1 24.85 15.1 25.05 15.1 25.05 15.05 25.1 14.9 25.1 14.85 25.15 14.8 25.5 14.45 25.65 14.45 25.7 14.65 25.65 14.7 25.9 14.9 26.05 14.9 28.2 14.95 28.35 14.9 28.4 14.8 28.4 14.75 28.55 14.6 28.55 14.55 M27.4 15.25 L27.4 15.3 27.5 15.35 28.5 15.3 28.55 15.3 28.6 15.25 28.65 14.9 28.65 14.85 28.6 14.8 28.55 14.85 28.4 15.1 28.4 15.15 27.9 15.15 27.95 15.1 27.85 15.0 Q27.5 15.05 27.25 15.2 L27.4 15.25 M25.35 15.2 L25.5 15.2 25.6 15.1 25.65 15.0 25.65 14.85 25.6 14.85 25.4 14.75 25.35 14.8 25.15 14.9 25.15 15.0 25.15 15.1 25.05 15.25 25.05 15.3 25.0 15.35 24.8 15.35 24.7 15.3 24.7 15.35 24.65 15.35 24.6 15.3 24.55 15.35 24.55 15.3 23.25 15.2 23.15 15.3 23.15 15.35 22.75 15.35 22.5 15.3 22.5 15.35 22.45 15.35 16.2 15.3 16.0 15.3 15.85 15.3 15.85 15.35 15.75 15.4 15.75 15.45 15.85 15.5 16.0 15.5 16.2 15.5 22.4 15.45 22.65 15.55 22.85 15.5 22.85 15.45 23.35 15.45 23.35 15.5 23.5 15.55 23.55 15.5 23.55 15.45 23.7 15.45 23.7 15.55 23.9 15.55 24.0 15.65 24.05 15.6 24.15 15.55 24.35 15.55 24.45 15.55 24.55 15.55 24.65 15.6 24.8 15.55 25.15 15.55 25.15 15.5 25.25 15.45 25.25 15.35 25.3 15.35 25.35 15.2 M28.0 16.2 L28.0 16.15 28.2 16.1 28.5 15.9 28.55 15.8 28.55 15.7 28.5 15.65 26.5 15.35 26.0 15.45 25.95 15.45 25.9 15.5 25.9 15.55 25.7 15.7 25.6 16.0 25.65 16.0 25.7 16.05 27.9 16.25 27.25 16.45 Q27.9 16.6 28.5 16.15 L28.4 16.05 28.0 16.2 M25.65 17.95 L25.7 18.15 25.65 18.2 25.9 18.4 26.05 18.4 28.2 18.45 28.35 18.4 28.4 18.3 28.4 18.25 28.55 18.1 28.55 18.05 28.6 18.0 28.65 18.0 28.75 18.0 28.8 17.95 28.8 18.0 28.85 18.05 Q28.75 19.4 28.8 20.8 L28.65 20.8 28.65 20.75 28.65 20.65 28.6 20.6 28.5 20.5 26.15 20.5 26.0 20.45 25.9 20.5 25.85 20.6 25.8 20.65 25.8 20.75 25.8 20.8 25.6 20.8 25.5 20.75 25.15 20.5 25.05 20.1 25.0 20.15 24.95 20.15 24.9 20.1 24.85 20.15 24.8 20.15 24.6 20.15 24.3 20.15 17.65 20.1 17.65 20.15 16.2 20.1 16.0 20.1 15.8 20.1 15.7 19.65 15.6 19.65 15.55 19.6 15.5 19.65 15.45 19.7 15.45 19.8 15.45 20.1 Q15.2 20.05 15.05 20.25 L14.9 20.2 14.9 19.25 14.95 18.6 15.1 18.6 15.6 18.55 15.7 18.6 16.0 18.6 16.2 18.6 24.85 18.6 25.05 18.6 25.05 18.55 25.1 18.4 25.1 18.35 25.15 18.3 25.5 17.95 25.65 17.95 M25.35 18.7 L25.5 18.7 25.6 18.6 25.65 18.5 25.65 18.35 25.6 18.35 25.4 18.25 25.35 18.3 25.15 18.4 25.15 18.5 25.15 18.6 25.05 18.75 25.05 18.8 25.0 18.85 24.8 18.85 24.7 18.8 24.7 18.85 24.65 18.85 24.6 18.8 24.55 18.85 24.55 18.8 23.25 18.7 23.15 18.8 23.15 18.85 22.75 18.85 22.5 18.8 22.5 18.85 22.45 18.85 16.2 18.8 16.0 18.8 15.85 18.8 15.85 18.85 15.75 18.9 15.75 18.95 15.85 19.0 16.0 19.0 16.2 19.0 22.4 18.95 22.65 19.05 22.85 19.0 22.85 18.95 23.35 18.95 23.35 19.0 23.5 19.05 23.55 19.0 23.55 18.95 23.7 18.95 23.7 19.05 23.9 19.05 24.0 19.15 24.05 19.1 24.15 19.05 24.35 19.05 24.45 19.05 24.55 19.05 24.65 19.1 24.8 19.05 25.15 19.05 25.15 19.0 25.25 18.95 25.25 18.85 25.3 18.85 25.35 18.7 M27.4 18.75 L27.4 18.8 27.5 18.85 28.5 18.8 28.55 18.8 28.6 18.75 28.65 18.4 28.65 18.35 28.6 18.3 28.55 18.35 28.4 18.6 28.4 18.65 27.9 18.65 27.95 18.6 27.85 18.5 Q27.5 18.55 27.25 18.7 L27.4 18.75 M23.9 15.45 L23.95 15.45 23.9 15.5 23.9 15.45 M25.1 17.0 L25.15 17.0 25.1 17.05 25.1 17.0 M23.9 18.95 L23.95 18.95 23.9 19.0 23.9 18.95 M28.0 19.7 L28.0 19.65 28.2 19.6 28.5 19.4 28.55 19.3 28.55 19.2 28.5 19.15 26.5 18.85 26.0 18.95 25.95 18.95 25.9 19.0 25.9 19.05 25.7 19.2 25.6 19.5 25.65 19.5 25.7 19.55 27.9 19.75 27.25 19.95 Q27.9 20.1 28.5 19.65 L28.4 19.55 28.0 19.7 M25.15 20.5 L25.1 20.55 25.1 20.5 25.15 20.5" fill="#333333" fill-rule="evenodd" stroke="none"/>
    <path d="M27.4 15.25 L27.25 15.2 Q27.5 15.05 27.85 15.0 L27.95 15.1 27.9 15.15 27.4 15.25 M25.15 15.1 L25.15 15.0 25.15 14.9 25.35 14.8 25.4 14.75 25.6 14.85 25.65 14.85 25.65 15.0 25.6 15.1 25.5 15.2 25.35 15.2 25.15 15.1 M23.15 15.35 L23.15 15.3 23.25 15.2 24.55 15.3 24.55 15.35 24.6 15.35 24.55 15.45 23.15 15.35 M28.0 16.2 L28.4 16.05 28.5 16.15 Q27.9 16.6 27.25 16.45 L27.9 16.25 28.0 16.2 M25.15 18.6 L25.15 18.5 25.15 18.4 25.35 18.3 25.4 18.25 25.6 18.35 25.65 18.35 25.65 18.5 25.6 18.6 25.5 18.7 25.35 18.7 25.15 18.6 M23.15 18.85 L23.15 18.8 23.25 18.7 24.55 18.8 24.55 18.85 24.6 18.85 24.55 18.95 23.15 18.85 M27.4 18.75 L27.25 18.7 Q27.5 18.55 27.85 18.5 L27.95 18.6 27.9 18.65 27.4 18.75 M28.0 19.7 L28.4 19.55 28.5 19.65 Q27.9 20.1 27.25 19.95 L27.9 19.75 28.0 19.7" fill="#fcfcfc" fill-rule="evenodd" stroke="none"/>
    <path d="M27.9 15.15 L28.4 15.15 28.4 15.1 28.55 14.85 28.6 14.8 28.65 14.85 28.65 14.9 28.6 15.25 28.55 15.3 28.5 15.3 27.5 15.35 27.4 15.3 27.4 15.25 27.9 15.15 M25.35 15.2 L25.3 15.35 25.25 15.35 25.25 15.45 25.15 15.5 25.15 15.55 24.8 15.55 24.65 15.6 24.55 15.55 24.45 15.55 24.35 15.55 24.15 15.55 24.05 15.6 24.0 15.65 23.9 15.55 23.7 15.55 23.7 15.45 23.55 15.45 23.55 15.5 23.5 15.55 23.35 15.5 23.35 15.45 22.85 15.45 22.85 15.5 22.65 15.55 22.4 15.45 16.2 15.5 16.0 15.5 15.85 15.5 15.75 15.45 15.75 15.4 15.85 15.35 15.85 15.3 16.0 15.3 16.2 15.3 22.45 15.35 22.5 15.35 22.5 15.3 22.75 15.35 23.15 15.35 24.55 15.45 24.6 15.35 24.55 15.35 24.6 15.3 24.65 15.35 24.7 15.35 24.7 15.3 24.8 15.35 25.0 15.35 25.05 15.3 25.05 15.25 25.15 15.1 25.35 15.2 M25.35 18.7 L25.3 18.85 25.25 18.85 25.25 18.95 25.15 19.0 25.15 19.05 24.8 19.05 24.65 19.1 24.55 19.05 24.45 19.05 24.35 19.05 24.15 19.05 24.05 19.1 24.0 19.15 23.9 19.05 23.7 19.05 23.7 18.95 23.55 18.95 23.55 19.0 23.5 19.05 23.35 19.0 23.35 18.95 22.85 18.95 22.85 19.0 22.65 19.05 22.4 18.95 16.2 19.0 16.0 19.0 15.85 19.0 15.75 18.95 15.75 18.9 15.85 18.85 15.85 18.8 16.0 18.8 16.2 18.8 22.45 18.85 22.5 18.85 22.5 18.8 22.75 18.85 23.15 18.85 24.55 18.95 24.6 18.85 24.55 18.85 24.6 18.8 24.65 18.85 24.7 18.85 24.7 18.8 24.8 18.85 25.0 18.85 25.05 18.8 25.05 18.75 25.15 18.6 25.35 18.7 M27.9 18.65 L28.4 18.65 28.4 18.6 28.55 18.35 28.6 18.3 28.65 18.35 28.65 18.4 28.6 18.75 28.55 18.8 28.5 18.8 27.5 18.85 27.4 18.8 27.4 18.75 27.9 18.65 M23.9 15.45 L23.9 15.5 23.95 15.45 23.9 15.45 M23.9 18.95 L23.9 19.0 23.95 18.95 23.9 18.95" fill="#c1c1c1" fill-rule="evenodd" stroke="none"/>
  </g>
</svg>
