<?xml version="1.0" encoding="UTF-8" standalone="no"?>
<svg xmlns:xlink="http://www.w3.org/1999/xlink" height="32.3px" width="32.1px" xmlns="http://www.w3.org/2000/svg">
  <g transform="matrix(1.0, 0.0, 0.0, 1.0, -0.6, -0.3)">
    <path d="M29.85 0.7 L29.7 1.1 29.6 1.25 29.05 2.1 28.6 1.8 28.6 1.45 28.85 0.8 Q28.9 0.35 29.3 0.35 L29.4 0.4 Q29.85 0.1 29.85 0.7 M1.25 2.6 Q0.8 2.6 0.7 2.2 L0.7 1.7 Q0.7 1.15 1.45 0.65 2.2 0.2 2.2 0.95 L1.25 2.6 M1.85 29.35 L1.55 29.85 1.0 30.25 Q0.6 30.25 0.6 29.8 0.6 29.5 0.9 29.25 1.3 28.9 1.8 29.1 L1.85 29.35 M29.95 29.35 L29.8 29.95 29.4 30.25 Q28.95 30.25 28.95 29.8 28.95 29.4 29.45 29.0 29.95 28.55 29.95 29.35" fill="#ff6666" fill-rule="evenodd" stroke="none"/>
    <path d="M32.7 3.95 L32.7 4.35 31.45 4.6 Q30.2 4.6 30.2 4.2 30.2 3.9 30.7 3.65 L31.35 2.95 Q31.15 2.6 31.45 2.15 31.8 1.75 32.3 1.95 L32.7 3.95 M4.2 2.5 Q4.2 4.6 2.45 4.6 L2.05 4.55 Q1.95 4.05 2.1 3.9 L1.7 3.5 Q1.7 3.05 3.35 3.05 L3.9 2.1 Q4.2 1.65 4.2 2.5 M3.6 30.35 Q3.7 30.0 4.3 30.1 L4.35 32.05 Q4.25 32.6 3.75 32.6 L1.6 32.45 Q1.45 32.4 1.45 32.15 2.65 30.7 3.6 30.85 L3.6 30.35 M32.25 32.5 L31.25 32.5 30.25 32.5 29.85 32.05 30.05 31.8 31.3 31.25 31.2 30.65 Q31.2 30.25 31.55 29.8 31.95 29.25 32.25 29.95 L32.45 31.75 32.25 32.5" fill="#660000" fill-rule="evenodd" stroke="none"/>
    <path d="M16.95 14.65 L18.0 14.65 18.0 14.55 18.2 14.55 18.2 14.6 18.2 15.0 18.55 15.0 18.9 15.0 18.9 15.05 18.95 15.05 18.95 15.1 18.95 15.4 19.1 15.55 19.9 16.2 20.4 16.5 21.55 16.95 21.85 17.05 21.85 15.55 21.9 15.55 21.9 15.35 22.0 15.2 22.2 15.15 22.55 15.4 22.6 15.7 22.6 17.2 25.3 17.2 25.5 17.05 Q25.8 16.75 26.15 16.75 26.85 16.75 27.3 17.2 L27.6 17.9 27.4 18.45 27.3 18.6 27.1 18.75 27.05 18.9 26.6 18.95 25.75 18.8 25.5 18.65 25.45 18.55 25.25 18.55 25.2 18.55 22.6 18.65 22.55 19.6 22.6 19.95 Q22.6 20.65 22.2 20.65 L21.95 20.5 21.85 20.2 21.85 20.1 21.85 20.0 21.85 19.65 21.85 18.8 21.7 18.85 21.0 19.05 Q20.85 19.05 20.75 19.2 L20.55 19.25 19.6 19.8 19.5 19.85 19.45 19.95 19.3 20.05 19.1 20.15 18.95 20.3 18.95 20.45 19.0 20.55 18.95 20.65 18.85 20.65 18.35 20.65 18.2 20.65 18.2 21.1 18.15 21.15 7.45 21.15 7.45 21.2 7.3 21.25 7.3 21.15 5.65 21.15 5.65 21.1 5.55 21.1 5.55 20.5 5.25 20.25 4.95 20.05 4.75 19.9 4.3 19.55 4.1 19.4 4.05 19.25 4.1 19.25 4.05 16.4 3.95 16.3 3.95 16.25 Q3.95 15.95 4.1 15.9 L4.4 15.65 4.75 15.4 5.3 15.15 5.6 15.0 5.6 14.9 5.5 14.75 Q5.5 14.5 5.75 14.55 L7.05 14.6 7.05 14.55 7.1 14.45 7.05 14.45 7.05 14.35 Q7.05 14.2 7.2 14.25 L17.0 14.25 17.05 14.35 17.0 14.45 16.95 14.45 16.95 14.65 M16.35 15.7 L16.45 15.7 16.45 15.6 16.4 15.55 16.65 15.05 16.8 14.75 16.8 14.65 16.75 14.55 16.8 14.45 16.65 14.45 16.55 14.4 16.35 14.45 7.75 14.45 7.6 14.35 7.35 14.45 7.25 14.45 7.25 14.5 7.25 14.55 7.25 14.7 7.35 14.95 7.45 15.25 7.5 15.5 7.5 15.65 7.55 15.7 7.65 15.95 7.85 16.6 8.0 17.25 15.65 17.25 15.65 17.2 16.35 15.7 M18.05 17.05 L18.05 14.85 18.0 14.85 18.0 14.8 16.95 14.8 16.95 14.85 16.3 16.1 15.75 17.45 15.65 17.45 15.65 17.4 8.0 17.45 7.95 17.45 7.8 17.45 7.8 17.4 7.75 17.35 7.8 17.3 7.75 17.1 7.7 16.75 7.25 15.35 7.05 14.8 5.75 14.8 5.75 15.0 5.75 15.1 5.75 15.15 5.75 16.95 6.15 16.95 6.1 17.0 6.75 17.0 7.25 17.05 7.3 17.15 7.3 17.2 7.3 17.75 7.3 17.85 7.3 17.95 7.3 18.55 7.5 18.55 7.75 18.65 7.75 18.3 7.65 18.25 7.65 18.1 7.75 18.1 7.85 18.1 15.9 18.1 15.9 18.15 15.9 18.25 15.9 18.45 16.15 18.45 16.35 18.45 16.35 17.95 16.4 17.95 16.4 17.75 16.35 17.75 16.4 17.15 16.45 17.05 18.0 17.05 18.05 17.1 18.05 17.05 M16.55 17.7 L16.5 17.7 16.5 17.85 16.55 17.9 16.5 18.6 16.45 18.6 16.25 18.65 15.9 18.65 15.9 19.05 15.9 19.2 15.9 19.25 8.2 19.3 8.1 19.35 7.95 19.3 7.8 19.25 7.8 19.15 7.75 19.15 7.75 19.1 7.75 18.8 7.7 18.8 7.5 18.75 7.25 18.75 7.2 18.75 7.2 18.7 7.15 18.7 7.15 18.55 7.1 18.05 7.1 17.95 7.2 17.95 7.2 17.85 7.15 17.8 7.15 17.3 7.15 17.25 6.8 17.25 6.3 17.2 5.75 17.15 5.75 17.75 5.7 17.75 5.7 17.9 5.75 17.95 5.75 19.65 5.7 19.7 5.7 19.8 5.75 19.8 5.75 20.25 5.7 20.25 5.7 20.4 5.85 20.45 5.85 20.6 5.7 20.6 5.7 21.0 6.2 21.0 6.2 20.05 7.35 20.1 7.35 20.05 7.45 20.1 7.45 21.0 15.9 20.95 15.9 20.0 15.85 19.95 15.95 19.85 17.45 19.85 17.45 19.9 17.5 19.95 17.5 20.95 18.0 20.95 18.05 21.0 18.05 19.75 18.15 19.75 18.15 19.65 18.05 19.55 18.05 17.9 18.15 17.9 18.15 17.75 18.1 17.7 18.05 17.7 18.05 17.25 16.55 17.25 16.55 17.7 M15.9 19.05 L15.85 19.05 15.9 19.05 M16.7 17.6 L16.7 17.4 16.85 17.4 16.9 17.5 16.85 17.6 16.7 17.6 M17.2 17.5 Q17.2 17.35 17.35 17.4 L17.35 17.55 17.25 17.6 17.2 17.5 M21.85 18.05 L21.9 18.05 21.9 17.9 21.85 17.9 21.85 17.25 21.25 17.05 20.75 16.85 20.2 16.6 19.4 16.05 19.1 15.8 18.95 15.7 18.95 17.4 18.9 17.4 18.95 17.6 18.95 20.0 Q19.1 19.9 19.4 19.7 L20.4 19.1 21.6 18.7 21.85 18.6 21.85 18.05 M18.75 15.2 L18.2 15.2 18.2 20.45 18.8 20.45 18.8 15.35 18.75 15.2 M17.7 17.55 L17.6 17.45 Q17.6 17.25 17.8 17.35 L17.8 17.5 17.7 17.55 M22.3 15.4 L22.25 15.25 22.1 15.4 22.05 15.6 22.0 15.6 22.0 16.85 22.0 17.25 22.0 18.1 22.0 18.35 22.0 18.7 21.95 19.05 22.0 19.25 22.0 19.65 22.05 19.7 22.05 20.3 Q22.1 20.45 22.25 20.45 L22.45 19.85 22.45 19.35 22.45 19.2 22.45 18.8 22.45 17.4 22.45 17.05 22.45 16.9 22.4 15.9 22.3 15.4 M25.15 18.0 L25.2 17.9 25.15 17.85 25.1 17.85 25.1 17.75 25.2 17.4 22.9 17.4 22.6 17.4 22.6 17.85 22.55 17.9 22.55 18.0 22.6 18.0 22.6 18.45 23.1 18.4 25.2 18.4 25.2 18.35 25.25 18.35 25.15 18.1 25.15 18.0 M25.4 17.5 L25.3 17.75 25.5 18.35 25.8 18.6 26.6 18.75 26.85 18.75 27.05 18.55 27.25 18.35 27.45 17.85 27.2 17.4 Q26.85 17.05 26.45 17.0 L26.15 16.95 25.9 17.05 25.55 17.25 25.4 17.5 M17.3 20.05 L17.2 20.05 16.05 20.05 16.05 20.95 17.3 20.95 17.3 20.05 M15.7 18.25 L7.9 18.3 7.9 19.05 15.65 19.05 15.65 18.8 15.7 18.8 15.65 18.35 15.7 18.25 M4.55 15.85 L4.25 15.95 4.25 16.0 4.15 16.15 4.25 16.25 4.25 19.25 5.55 20.25 5.55 20.1 5.6 20.1 5.6 15.25 4.85 15.6 4.55 15.85 M5.9 17.3 L6.05 17.3 6.1 17.45 6.05 17.5 5.9 17.5 5.9 17.3 M6.3 17.35 L6.45 17.3 6.45 17.35 6.45 17.5 6.4 17.5 6.3 17.35 M6.75 17.5 L6.75 17.4 6.9 17.4 6.9 17.45 6.9 17.55 6.8 17.55 6.75 17.5 M6.4 21.0 L7.3 21.0 7.3 20.65 7.3 20.25 6.4 20.25 6.4 21.0" fill="#000000" fill-rule="evenodd" stroke="none"/>
    <path d="M18.0 17.05 L18.05 17.05 18.05 17.1 18.0 17.05" fill="#5b6938" fill-rule="evenodd" stroke="none"/>
    <path d="M18.05 19.55 L18.15 19.65 18.15 19.75 18.05 19.75 18.05 21.0 18.0 20.95 17.5 20.95 17.5 19.95 17.45 19.9 17.45 19.85 15.95 19.85 15.85 19.95 15.9 20.0 15.9 20.95 7.45 21.0 7.45 20.1 7.35 20.05 7.35 20.1 6.2 20.05 6.2 21.0 5.7 21.0 5.7 20.6 5.85 20.6 5.85 20.45 5.7 20.4 5.7 20.25 5.75 20.25 5.75 19.8 5.7 19.8 5.7 19.7 5.75 19.65 5.8 19.6 11.95 19.55 18.05 19.55 M18.95 17.6 L19.1 17.7 19.65 17.8 20.45 17.95 21.4 18.05 21.85 18.05 21.85 18.6 21.6 18.7 20.4 19.1 19.4 19.7 Q19.1 19.9 18.95 20.0 L18.95 17.6 M18.75 15.2 L18.8 15.35 18.8 20.45 18.2 20.45 18.2 15.2 18.75 15.2 M18.4 15.45 L18.35 15.85 18.4 17.2 18.6 17.05 18.65 15.95 18.65 15.85 18.65 15.3 18.6 15.25 18.55 15.3 18.5 15.35 18.4 15.35 18.4 15.45 M22.6 18.0 L23.2 18.0 23.5 18.05 25.15 18.0 25.15 18.1 25.25 18.35 25.2 18.35 25.2 18.4 23.1 18.4 22.6 18.45 22.6 18.0 M25.55 17.3 L25.35 17.65 25.55 18.0 26.0 18.15 Q27.0 18.15 27.0 17.65 L26.75 17.35 26.5 17.2 Q26.3 17.05 26.15 17.05 25.8 17.05 25.55 17.3 M25.4 17.5 L25.55 17.25 25.9 17.05 26.15 16.95 26.45 17.0 Q26.85 17.05 27.2 17.4 L27.45 17.85 27.25 18.35 27.05 18.55 26.85 18.75 26.6 18.75 25.8 18.6 25.5 18.35 25.3 17.75 25.4 17.5 M4.55 15.85 L4.85 15.6 5.6 15.25 5.6 20.1 5.55 20.1 5.55 20.25 4.25 19.25 4.25 16.25 4.15 16.15 4.25 16.0 4.25 15.95 4.55 15.85 M5.1 15.7 L5.0 15.8 4.55 16.0 Q4.4 16.05 4.4 16.1 L4.4 16.2 4.4 16.3 4.4 16.55 Q4.4 17.1 4.55 17.1 L4.65 17.05 5.35 17.05 5.5 15.9 5.5 15.8 5.5 15.65 5.45 15.55 5.15 15.7 5.1 15.7" fill="#333333" fill-rule="evenodd" stroke="none"/>
    <path d="M18.65 15.85 L18.55 15.85 18.45 15.7 18.4 15.5 18.4 15.45 18.4 15.35 18.5 15.35 18.55 15.3 18.6 15.25 18.65 15.3 18.65 15.85 M4.4 16.3 L4.4 16.2 4.4 16.1 Q4.4 16.05 4.55 16.0 L5.0 15.8 5.1 15.7 5.4 15.65 5.5 15.65 5.5 15.8 5.5 15.9 5.3 16.05 5.0 16.1 4.75 16.25 4.55 16.25 4.4 16.3" fill="#cccccc" fill-rule="evenodd" stroke="none"/>
    <path d="M18.4 15.45 L18.4 15.5 18.45 15.7 18.55 15.85 18.65 15.85 18.65 15.95 18.6 17.05 18.4 17.2 18.35 15.85 18.4 15.45 M5.1 15.7 L5.15 15.7 5.45 15.55 5.5 15.65 5.4 15.65 5.1 15.7 M5.5 15.9 L5.35 17.05 4.65 17.05 4.55 17.1 Q4.4 17.1 4.4 16.55 L4.4 16.3 4.55 16.25 4.75 16.25 5.0 16.1 5.3 16.05 5.5 15.9" fill="#7b7b7b" fill-rule="evenodd" stroke="none"/>
    <path d="M15.9 19.05 L15.85 19.05 15.9 19.05" fill="#434e29" fill-rule="evenodd" stroke="none"/>
    <path d="M15.7 18.25 L15.65 18.35 15.7 18.8 15.65 18.8 15.65 19.05 7.9 19.05 7.9 18.3 15.7 18.25" fill="#a9a801" fill-rule="evenodd" stroke="none"/>
    <path d="M17.3 20.05 L17.3 20.95 16.05 20.95 16.05 20.05 17.2 20.05 17.3 20.05 M6.4 21.0 L6.4 20.25 7.3 20.25 7.3 20.65 7.3 21.0 6.4 21.0" fill="#1a1a1a" fill-rule="evenodd" stroke="none"/>
    <path d="M7.3 17.75 L16.35 17.75 16.4 17.75 16.4 17.95 16.35 17.95 16.35 18.45 16.15 18.45 15.9 18.45 15.9 18.25 15.9 18.15 15.9 18.1 7.85 18.1 7.75 18.1 7.65 18.1 7.65 18.25 7.75 18.3 7.75 18.65 7.5 18.55 7.3 18.55 7.3 17.95 7.3 17.85 7.3 17.75 M15.9 19.05 L15.9 18.65 16.25 18.65 16.45 18.6 16.5 18.6 16.55 17.9 16.5 17.85 16.5 17.7 16.55 17.7 18.05 17.7 18.1 17.7 18.15 17.75 18.15 17.9 18.05 17.9 18.05 19.55 11.95 19.55 5.8 19.6 5.75 19.65 5.75 17.95 5.7 17.9 5.7 17.75 5.75 17.75 5.85 17.8 7.15 17.8 7.2 17.85 7.2 17.95 7.1 17.95 7.1 18.05 7.15 18.55 7.15 18.7 7.2 18.7 7.2 18.75 7.25 18.75 7.5 18.75 7.7 18.8 7.75 18.8 7.75 19.1 7.75 19.15 7.8 19.15 7.8 19.25 7.95 19.3 8.1 19.35 8.2 19.3 15.9 19.25 15.9 19.2 15.9 19.05 M18.95 17.6 L18.9 17.4 18.95 17.4 18.95 15.7 19.1 15.8 19.4 16.05 20.2 16.6 20.75 16.85 21.25 17.05 21.85 17.25 21.85 17.9 21.9 17.9 21.9 18.05 21.85 18.05 21.4 18.05 20.45 17.95 19.65 17.8 19.1 17.7 18.95 17.6 M19.55 16.7 L19.85 16.85 20.1 17.0 20.75 17.25 21.45 17.6 21.65 17.6 21.65 17.5 21.65 17.4 21.25 17.3 21.1 17.15 20.45 16.8 19.4 16.15 19.25 16.15 19.25 16.35 19.35 16.5 19.55 16.7 M22.6 18.0 L22.55 18.0 22.55 17.9 22.6 17.85 22.6 17.4 22.9 17.4 25.2 17.4 25.1 17.75 25.1 17.85 25.15 17.85 25.2 17.9 25.15 18.0 23.5 18.05 23.2 18.0 22.6 18.0 M25.55 17.3 Q25.8 17.05 26.15 17.05 26.3 17.05 26.5 17.2 L26.75 17.35 27.0 17.65 Q27.0 18.15 26.0 18.15 L25.55 18.0 25.35 17.65 25.55 17.3 M26.05 17.7 L26.4 17.45 26.3 17.35 26.2 17.25 25.8 17.55 26.05 17.7 M23.75 17.65 L23.05 17.5 22.95 17.65 23.5 17.8 24.15 17.85 24.85 17.7 24.8 17.65 23.75 17.65" fill="#6a6a6a" fill-rule="evenodd" stroke="none"/>
    <path d="M7.3 17.75 L7.3 17.2 7.3 17.15 7.25 17.05 6.75 17.0 6.1 17.0 6.15 16.95 5.75 16.95 5.75 15.15 5.75 15.1 5.75 15.0 5.75 14.8 7.05 14.8 7.25 15.35 7.7 16.75 7.75 17.1 7.8 17.3 7.75 17.35 7.8 17.4 7.8 17.45 7.95 17.45 8.0 17.45 15.65 17.4 15.65 17.45 15.75 17.45 16.3 16.1 16.95 14.85 16.95 14.8 18.0 14.8 18.0 14.85 18.05 14.85 18.05 17.05 18.0 17.05 16.45 17.05 16.4 17.15 16.35 17.75 7.3 17.75 M16.55 17.7 L16.55 17.25 18.05 17.25 18.05 17.7 16.55 17.7 M5.75 17.75 L5.75 17.15 6.3 17.2 6.8 17.25 7.15 17.25 7.15 17.3 7.15 17.8 5.85 17.8 5.75 17.75 M17.2 17.5 L17.25 17.6 17.35 17.55 17.35 17.4 Q17.2 17.35 17.2 17.5 M16.7 17.6 L16.85 17.6 16.9 17.5 16.85 17.4 16.7 17.4 16.7 17.6 M17.7 17.55 L17.8 17.5 17.8 17.35 Q17.6 17.25 17.6 17.45 L17.7 17.55 M19.55 16.7 L19.35 16.5 19.25 16.35 19.25 16.15 19.4 16.15 20.45 16.8 21.1 17.15 21.25 17.3 21.65 17.4 21.65 17.5 21.65 17.6 21.45 17.6 20.75 17.25 20.1 17.0 19.85 16.85 19.55 16.7 M23.75 17.65 L24.8 17.65 24.85 17.7 24.15 17.85 23.5 17.8 22.95 17.65 23.05 17.5 23.75 17.65 M26.05 17.7 L25.8 17.55 26.2 17.25 26.3 17.35 26.4 17.45 26.05 17.7 M6.75 17.5 L6.8 17.55 6.9 17.55 6.9 17.45 6.9 17.4 6.75 17.4 6.75 17.5 M6.3 17.35 L6.4 17.5 6.45 17.5 6.45 17.35 6.45 17.3 6.3 17.35 M5.9 17.3 L5.9 17.5 6.05 17.5 6.1 17.45 6.05 17.3 5.9 17.3" fill="#b7b7b7" fill-rule="evenodd" stroke="none"/>
    <path d="M16.35 15.7 L15.65 17.2 15.65 17.25 8.0 17.25 7.85 16.6 7.65 15.95 7.55 15.7 7.7 15.65 7.75 15.7 16.35 15.7 M22.3 15.4 L22.4 15.9 22.45 16.9 22.45 17.05 22.45 17.4 22.45 18.8 22.45 19.2 22.45 19.35 22.45 19.85 22.25 20.45 Q22.1 20.45 22.05 20.3 L22.05 19.7 22.0 19.65 22.0 19.25 21.95 19.05 22.0 18.7 22.0 18.35 22.2 18.35 22.3 18.35 22.35 15.85 22.35 15.75 22.35 15.7 22.35 15.6 22.3 15.55 22.3 15.45 22.3 15.4 M22.0 18.1 L22.0 17.25 22.0 16.85 22.0 15.6 22.05 15.6 22.1 15.4 22.1 15.5 22.05 15.75 22.1 15.95 22.05 17.0 22.0 18.1" fill="#910000" fill-rule="evenodd" stroke="none"/>
    <path d="M7.55 15.7 L7.5 15.65 7.5 15.5 7.45 15.25 7.35 14.95 7.25 14.7 7.25 14.55 7.25 14.5 7.25 14.45 7.35 14.45 7.6 14.35 7.75 14.45 16.35 14.45 16.55 14.4 16.65 14.45 16.8 14.45 16.75 14.55 16.8 14.65 16.8 14.75 16.65 15.05 16.4 15.55 16.45 15.6 16.45 15.7 16.35 15.7 7.75 15.7 7.7 15.65 7.55 15.7 M16.4 14.75 L16.4 14.55 7.75 14.55 7.75 14.6 7.55 14.75 7.6 14.85 7.65 14.9 7.75 14.9 16.3 14.9 16.35 14.8 16.4 14.75" fill="#dd0000" fill-rule="evenodd" stroke="none"/>
    <path d="M16.4 14.75 L16.35 14.8 16.3 14.9 7.75 14.9 7.65 14.9 7.6 14.85 7.55 14.75 7.75 14.6 7.75 14.55 16.4 14.55 16.4 14.75" fill="#ff9191" fill-rule="evenodd" stroke="none"/>
    <path d="M22.0 18.35 L22.0 18.1 22.05 17.0 22.1 15.95 22.05 15.75 22.1 15.5 22.05 15.65 22.15 15.95 22.35 15.75 22.35 15.85 22.3 18.35 22.2 18.35 22.0 18.35 M22.3 15.55 L22.3 15.5 22.3 15.45 22.3 15.55" fill="#ec0202" fill-rule="evenodd" stroke="none"/>
    <path d="M22.1 15.4 L22.25 15.25 22.3 15.4 22.3 15.45 22.3 15.5 22.3 15.55 22.35 15.6 22.35 15.7 22.35 15.75 22.15 15.95 22.05 15.65 22.1 15.5 22.1 15.4" fill="#fe7878" fill-rule="evenodd" stroke="none"/>
  </g>
</svg>
