<?xml version="1.0" encoding="UTF-8" standalone="no"?>
<svg xmlns:xlink="http://www.w3.org/1999/xlink" height="50.9px" width="38.95px" xmlns="http://www.w3.org/2000/svg">
  <g transform="matrix(1.0, 0.0, 0.0, 1.0, -5.75, -1.9)">
    <path d="M42.65 2.25 L11.05 2.2 11.0 2.15 8.05 3.95 39.55 3.85 39.65 3.85 41.25 2.9 42.65 2.25 M43.55 2.05 L43.55 38.05 Q44.35 38.5 44.55 39.1 L44.45 39.15 44.5 39.2 44.5 48.4 44.5 48.5 44.7 48.7 44.5 48.9 44.5 49.1 44.3 49.2 44.3 49.15 43.7 49.8 43.5 50.0 43.0 50.5 42.95 50.5 41.2 51.7 39.8 52.55 39.75 52.75 39.6 52.8 6.65 52.8 6.6 52.6 6.45 52.45 6.4 52.05 6.45 52.05 6.35 51.9 6.15 51.5 6.1 51.5 6.05 51.45 6.05 51.3 6.0 51.15 6.05 51.15 6.0 50.95 6.05 50.95 Q5.75 49.15 5.75 46.65 L5.8 41.7 6.0 41.5 6.3 41.2 6.45 41.1 6.7 40.9 6.7 4.8 6.6 4.55 Q6.6 4.4 6.9 4.0 L6.95 4.05 7.0 3.95 7.2 3.95 Q8.1 3.2 11.0 1.9 L11.05 2.0 11.05 1.9 43.5 1.9 43.55 2.05 M42.95 11.05 L42.95 11.25 43.05 11.3 43.05 17.75 42.9 17.8 42.8 17.8 40.55 18.95 40.25 19.0 40.25 18.1 Q40.0 17.7 40.05 16.9 L40.2 15.2 40.2 15.05 40.25 15.05 40.25 12.6 40.2 12.4 Q40.2 12.05 40.75 12.1 41.0 11.9 41.45 11.65 42.4 11.15 42.95 11.05 M43.2 2.4 L41.95 3.15 40.0 4.0 40.0 5.15 39.95 5.35 39.95 5.45 39.95 6.2 39.95 7.35 39.9 7.4 39.9 39.8 40.15 39.75 40.6 39.65 43.2 38.15 43.2 4.35 43.35 3.95 43.2 3.6 43.2 2.4 M41.6 18.15 L42.7 17.6 42.7 11.55 41.75 12.05 41.6 11.85 41.25 12.3 40.6 12.65 40.6 12.6 40.55 12.6 40.55 12.65 40.65 15.1 40.5 15.5 40.5 17.35 40.55 17.45 40.55 18.7 Q40.8 18.55 41.3 18.3 L41.35 18.35 41.55 18.25 41.6 18.15 M42.95 19.05 L42.95 19.25 43.05 19.3 43.05 25.75 42.9 25.8 42.8 25.8 40.55 26.95 40.25 27.0 40.25 26.1 Q40.0 25.7 40.05 24.9 L40.2 23.2 40.2 23.05 40.25 23.05 40.25 20.6 40.2 20.4 Q40.2 20.05 40.75 20.1 41.0 19.9 41.45 19.65 42.4 19.15 42.95 19.05 M40.55 20.65 L40.65 23.1 40.5 23.5 40.5 25.35 40.55 25.45 40.55 26.7 41.55 26.15 42.7 25.6 42.7 19.55 42.3 19.8 42.25 19.75 42.2 19.85 40.6 20.65 40.6 20.6 40.55 20.6 40.55 20.65 M43.2 49.6 L43.45 49.3 Q43.9 48.8 44.25 48.65 44.1 47.15 44.1 44.05 L44.2 39.95 44.05 39.3 42.6 39.95 41.2 40.65 41.3 40.7 40.65 41.1 40.6 41.15 40.55 41.15 40.45 41.2 40.2 41.25 40.2 41.3 7.0 41.3 7.0 41.25 6.9 41.3 6.85 41.3 6.5 41.6 6.45 41.6 6.25 41.85 6.4 43.05 6.3 50.8 6.75 50.8 6.75 51.3 13.0 51.3 13.1 51.5 13.1 51.55 13.05 51.7 12.9 51.7 6.85 51.7 7.1 52.2 7.1 52.25 7.25 52.4 39.35 52.35 39.6 52.15 40.0 51.55 40.25 51.3 40.2 50.9 40.2 43.3 40.45 43.4 40.6 44.65 40.5 46.1 40.65 51.15 40.7 51.3 40.6 51.45 40.75 51.35 40.95 51.2 41.1 51.1 41.95 50.6 42.95 49.95 43.2 49.6 M40.2 40.15 L40.2 40.2 40.35 40.2 40.4 40.35 40.35 40.5 40.2 40.5 40.15 40.6 40.1 40.65 39.55 40.5 7.1 40.5 7.1 40.7 7.2 40.9 7.2 41.0 40.1 41.0 40.35 40.8 Q40.55 40.65 40.8 40.65 L41.85 40.05 Q43.2 39.4 44.0 39.1 L43.95 39.0 44.0 39.0 43.65 38.75 43.3 38.4 40.25 40.15 40.2 40.15 M7.2 39.85 L7.25 40.0 7.2 40.1 39.45 40.2 39.5 40.0 39.45 39.75 39.6 22.9 39.45 22.85 39.45 22.35 39.6 14.65 39.6 6.85 39.7 6.85 39.7 4.25 7.5 4.25 7.15 4.45 7.15 39.85 7.15 39.9 7.2 39.85 M17.4 51.0 L17.25 50.8 17.3 50.8 17.4 51.0" fill="#000000" fill-rule="evenodd" stroke="none"/>
    <path d="M43.2 2.4 L43.2 3.6 43.35 3.95 43.2 4.35 43.2 38.15 40.6 39.65 40.15 39.75 39.9 39.8 39.9 7.4 39.95 7.35 39.95 6.2 39.95 5.45 39.95 5.35 40.0 5.15 40.0 4.0 41.95 3.15 43.2 2.4 M42.95 11.05 Q42.4 11.15 41.45 11.65 41.0 11.9 40.75 12.1 40.2 12.05 40.2 12.4 L40.25 12.6 40.25 15.05 40.2 15.05 40.2 15.2 40.05 16.9 Q40.0 17.7 40.25 18.1 L40.25 19.0 40.55 18.95 42.8 17.8 42.9 17.8 43.05 17.75 43.05 11.3 42.95 11.25 42.95 11.05 M42.95 19.05 Q42.4 19.15 41.45 19.65 41.0 19.9 40.75 20.1 40.2 20.05 40.2 20.4 L40.25 20.6 40.25 23.05 40.2 23.05 40.2 23.2 40.05 24.9 Q40.0 25.7 40.25 26.1 L40.25 27.0 40.55 26.95 42.8 25.8 42.9 25.8 43.05 25.75 43.05 19.3 42.95 19.25 42.95 19.05" fill="#5e5e5e" fill-rule="evenodd" stroke="none"/>
    <path d="M42.65 2.25 L41.25 2.9 39.65 3.85 39.55 3.85 8.05 3.95 11.0 2.15 11.05 2.2 42.65 2.25" fill="#a6a6a6" fill-rule="evenodd" stroke="none"/>
    <path d="M41.75 12.05 L42.7 11.55 42.7 17.6 41.6 18.15 Q42.6 15.4 42.6 14.7 L42.35 14.35 Q42.0 14.7 41.55 16.2 L41.1 17.95 41.3 18.3 Q40.8 18.55 40.55 18.7 L40.55 17.45 40.5 17.35 40.5 15.5 40.65 15.1 40.55 12.65 40.6 12.65 41.25 12.3 41.2 12.5 41.1 13.25 41.35 13.5 Q41.85 13.05 41.85 12.4 L41.75 12.05 M42.3 19.8 L42.7 19.55 42.7 25.6 41.55 26.15 40.55 26.7 40.55 25.45 40.5 25.35 40.5 23.5 40.65 23.1 40.55 20.65 40.6 20.65 42.2 19.85 41.4 21.2 Q40.85 22.45 40.85 22.85 L41.1 23.1 41.85 22.15 42.35 21.2 42.5 20.05 42.3 19.8 M42.0 24.5 L41.9 24.6 41.75 24.8 42.0 25.1 42.25 24.95 42.0 24.5 M41.45 23.7 L41.25 24.35 41.5 24.6 42.0 23.95 42.25 23.35 42.0 23.1 41.45 23.7" fill="#405059" fill-rule="evenodd" stroke="none"/>
    <path d="M41.6 18.15 L41.55 18.25 41.35 18.35 41.3 18.3 41.1 17.95 41.55 16.2 Q42.0 14.7 42.35 14.35 L42.6 14.7 Q42.6 15.4 41.6 18.15 M41.25 12.3 L41.6 11.85 41.75 12.05 41.85 12.4 Q41.85 13.05 41.35 13.5 L41.1 13.25 41.2 12.5 41.25 12.3 M42.2 19.85 L42.25 19.75 42.3 19.8 42.5 20.05 42.35 21.2 41.85 22.15 41.1 23.1 40.85 22.85 Q40.85 22.45 41.4 21.2 L42.2 19.85 M41.45 23.7 L42.0 23.1 42.25 23.35 42.0 23.95 41.5 24.6 41.25 24.35 41.45 23.7 M42.0 24.5 L42.25 24.95 42.0 25.1 41.75 24.8 41.9 24.6 42.0 24.5" fill="#92a6b1" fill-rule="evenodd" stroke="none"/>
    <path d="M40.2 41.3 L40.2 41.25 40.45 41.2 40.55 41.15 40.6 41.15 40.65 41.1 41.3 40.7 41.2 40.65 42.6 39.95 44.05 39.3 44.2 39.95 44.1 44.05 Q44.1 47.15 44.25 48.65 43.9 48.8 43.45 49.3 L43.2 49.6 41.9 50.5 41.05 51.05 40.7 51.3 40.65 51.15 40.5 46.1 40.6 44.65 40.45 43.4 40.2 43.3 40.2 41.3" fill="#808080" fill-rule="evenodd" stroke="none"/>
    <path d="M40.25 40.15 L43.3 38.4 43.65 38.75 44.0 39.0 43.95 39.0 44.0 39.1 Q43.2 39.4 41.85 40.05 L40.8 40.65 Q40.55 40.65 40.35 40.8 L40.1 41.0 7.2 41.0 7.2 40.9 7.1 40.7 7.1 40.5 39.55 40.5 40.1 40.65 40.15 40.6 40.2 40.5 40.35 40.5 40.4 40.35 40.35 40.2 40.2 40.2 40.2 40.15 40.25 40.15" fill="#9d9d9d" fill-rule="evenodd" stroke="none"/>
    <path d="M7.15 39.85 L7.15 4.45 7.5 4.25 39.7 4.25 39.7 6.85 39.6 6.85 39.6 14.65 39.45 22.35 39.45 22.85 39.6 22.9 39.45 39.75 39.5 40.0 39.45 40.2 7.2 40.1 7.25 40.0 7.2 39.85 7.15 39.85" fill="#7b7b7b" fill-rule="evenodd" stroke="none"/>
    <path d="M40.2 41.3 L40.2 43.3 40.2 50.9 40.25 51.3 40.0 51.55 39.6 52.15 39.35 52.35 7.25 52.4 7.1 52.25 7.1 52.2 6.85 51.7 12.9 51.7 13.05 51.7 13.1 51.55 13.1 51.5 13.0 51.3 6.75 51.3 6.75 50.8 6.3 50.8 6.4 43.05 6.25 41.85 6.45 41.6 6.5 41.6 6.85 41.3 6.9 41.3 7.0 41.25 7.0 41.3 40.2 41.3 M41.9 50.5 L43.2 49.6 42.95 49.95 41.95 50.6 41.9 50.5 M17.4 51.0 L17.3 50.8 17.25 50.8 17.4 51.0" fill="#bfbfbf" fill-rule="evenodd" stroke="none"/>
  </g>
</svg>
