<?xml version="1.0" encoding="UTF-8" standalone="no"?>
<svg xmlns:xlink="http://www.w3.org/1999/xlink" height="161.55px" width="159.5px" xmlns="http://www.w3.org/2000/svg">
  <g transform="matrix(1.0, 0.0, 0.0, 1.0, 40.15, 96.1)">
    <path d="M59.5 -69.05 L55.3 -69.05 Q54.55 -69.05 53.65 -68.6 L53.05 -68.6 53.1 -68.25 53.1 -67.95 52.9 -66.65 53.0 -66.45 52.85 -66.2 52.75 -65.8 52.55 -65.7 Q52.3 -65.8 52.3 -66.05 L51.5 -65.95 49.85 -65.9 48.5 -65.7 47.4 -65.65 46.55 -65.75 46.4 -65.75 45.45 -65.6 Q45.25 -65.6 45.1 -65.75 L45.45 -66.0 45.25 -67.6 45.35 -68.75 Q44.95 -68.45 43.2 -68.15 L38.55 -67.8 37.8 -67.9 37.8 -67.5 37.35 -65.45 37.25 -65.4 37.25 -65.3 37.15 -65.05 Q36.1 -65.0 35.5 -64.55 L34.6 -64.0 34.4 -64.1 34.3 -63.35 34.3 -62.8 34.3 -62.65 34.25 -62.6 35.55 -62.65 37.45 -62.45 38.8 -62.35 38.8 -62.4 Q39.0 -63.45 39.3 -63.6 L39.05 -63.6 39.1 -64.0 39.15 -64.0 40.4 -64.85 Q41.35 -65.35 41.8 -65.25 L41.85 -65.15 41.9 -64.95 Q41.9 -64.6 41.3 -64.4 L40.2 -64.0 Q43.1 -63.85 46.7 -63.85 L47.2 -63.85 48.25 -64.5 43.1 -64.75 41.9 -65.2 41.9 -65.55 43.1 -65.3 49.25 -65.1 49.35 -64.85 49.3 -64.6 49.55 -64.75 49.65 -64.35 49.4 -62.1 49.5 -61.9 50.6 -62.0 54.3 -62.15 54.3 -62.2 54.35 -62.25 54.3 -63.45 54.35 -64.55 54.3 -64.65 54.3 -65.1 54.5 -65.15 54.6 -65.3 54.7 -65.15 55.15 -64.95 56.55 -65.15 59.3 -65.15 61.75 -65.1 62.9 -64.75 63.7 -64.8 63.65 -64.35 63.9 -62.45 65.35 -62.85 67.0 -63.25 66.95 -63.85 Q66.95 -65.15 67.2 -65.4 L67.5 -65.65 68.4 -65.6 72.4 -66.5 Q76.1 -67.2 77.4 -65.9 L77.5 -65.7 77.05 -65.4 77.05 -65.35 77.4 -65.35 77.5 -65.15 77.5 -64.55 78.3 -64.6 79.3 -64.35 79.4 -64.9 79.65 -65.7 79.65 -65.95 78.85 -65.95 77.05 -66.35 Q76.7 -66.4 76.7 -66.55 L76.7 -66.6 Q71.55 -68.1 67.9 -68.0 L67.9 -67.8 67.8 -67.55 67.65 -67.55 67.5 -66.55 67.75 -65.9 67.45 -65.7 64.8 -65.4 61.45 -65.6 61.45 -65.7 Q61.15 -65.8 61.1 -66.6 L61.1 -67.55 61.15 -68.3 60.55 -68.6 59.5 -69.05 M90.55 -61.2 L90.45 -61.55 93.45 -61.45 93.65 -61.45 93.45 -61.6 92.55 -62.35 93.55 -65.75 Q94.45 -68.9 94.45 -71.25 L94.4 -71.9 93.8 -70.5 92.85 -68.35 Q92.2 -69.2 92.15 -70.6 L92.1 -73.05 91.55 -72.9 91.05 -73.05 91.35 -73.6 91.75 -73.95 91.75 -74.05 91.05 -74.1 90.95 -74.4 91.55 -75.5 90.55 -76.25 Q90.25 -76.35 90.25 -76.4 L90.85 -77.1 88.8 -78.55 Q87.4 -79.55 87.6 -80.3 L87.95 -80.35 88.55 -80.15 89.85 -79.9 Q88.15 -83.45 87.15 -85.95 84.65 -91.65 84.65 -93.3 84.65 -93.7 84.95 -93.95 88.05 -88.0 92.55 -85.95 L94.25 -85.1 95.4 -87.7 Q96.25 -89.6 96.3 -90.65 L96.2 -93.55 Q96.15 -95.4 96.85 -96.1 L97.75 -91.35 98.0 -87.6 97.95 -85.3 97.85 -84.55 98.5 -84.75 Q101.75 -85.55 101.75 -83.55 L101.15 -82.9 101.5 -81.75 Q101.5 -80.9 100.5 -79.45 L100.15 -78.85 100.05 -78.65 100.0 -78.65 99.9 -78.55 99.9 -78.5 99.6 -77.7 Q99.6 -77.4 100.15 -76.85 L100.7 -75.9 Q100.7 -75.55 100.1 -74.55 L99.9 -74.1 99.35 -69.85 Q99.35 -69.2 100.0 -67.0 L100.55 -64.95 Q100.55 -64.35 99.7 -63.05 L98.95 -62.05 98.65 -60.05 98.95 -59.65 98.6 -58.45 98.45 -58.4 Q98.3 -58.4 98.2 -58.5 L97.8 -58.35 96.35 -57.75 96.25 -57.7 96.25 -57.65 96.2 -57.65 96.1 -57.55 98.1 -56.0 100.3 -53.65 Q100.75 -52.6 102.45 -51.45 L105.05 -49.6 113.2 -41.05 113.1 -40.85 113.2 -41.0 113.35 -41.3 113.65 -40.9 Q113.65 -40.4 113.2 -40.0 112.7 -39.45 111.7 -39.45 L109.75 -39.65 109.4 -39.75 109.3 -39.65 Q109.0 -39.3 108.7 -39.3 L108.4 -39.35 108.4 -39.3 108.45 -36.6 108.4 -30.6 108.4 -18.6 108.35 3.55 108.4 3.65 108.4 44.0 108.75 43.9 108.85 44.2 108.4 44.5 108.4 44.7 108.15 44.85 108.15 44.7 100.5 48.2 105.55 48.2 105.65 48.45 105.55 48.75 105.3 48.75 105.35 48.95 103.9 49.8 102.2 50.7 102.3 50.85 101.85 51.15 100.25 51.0 99.35 51.15 99.1 51.15 98.65 51.9 98.45 52.15 98.85 52.65 99.1 53.45 98.35 54.25 96.95 55.0 95.6 55.0 95.5 54.7 95.8 54.6 88.4 54.6 81.75 57.5 75.05 60.75 74.8 60.95 74.65 60.95 73.5 61.5 73.3 61.45 Q73.2 61.5 73.2 61.2 L73.5 60.95 -39.9 60.95 -40.15 60.7 -39.9 60.4 -31.15 60.4 -31.35 56.65 -31.25 53.45 -31.35 53.45 -31.35 -23.35 -33.95 -23.7 -34.7 -24.25 -34.8 -24.3 -34.8 -24.4 -34.95 -24.5 -34.95 -24.85 -35.2 -25.7 -35.6 -27.1 -33.75 -29.05 Q-31.9 -30.8 -31.9 -32.05 L-30.65 -34.25 -29.4 -36.25 -28.8 -38.15 -27.8 -40.25 Q-26.7 -41.4 -22.35 -48.1 L-22.55 -48.7 Q-22.55 -49.15 -15.65 -59.6 L-15.7 -59.8 -15.45 -59.95 -15.25 -60.25 Q-16.0 -60.25 -16.0 -60.85 L-15.45 -61.4 -15.3 -61.35 -12.0 -61.55 Q2.65 -61.4 24.5 -61.4 L24.95 -61.4 25.0 -64.1 Q24.95 -66.45 25.25 -67.55 L25.35 -67.0 Q26.1 -67.9 29.25 -68.6 29.55 -68.2 30.05 -68.1 L29.8 -68.0 30.15 -67.8 30.6 -67.55 30.85 -67.3 30.55 -67.0 30.3 -66.7 Q30.3 -66.35 31.5 -65.9 L31.9 -65.75 Q32.45 -66.45 34.25 -66.45 L34.35 -66.45 34.15 -67.45 Q34.15 -68.4 34.3 -68.95 L34.25 -68.95 34.3 -69.5 34.3 -69.6 35.05 -69.7 35.3 -69.75 44.6 -70.55 Q44.75 -70.15 45.2 -69.9 L44.9 -69.9 Q45.5 -69.65 45.5 -69.25 L45.5 -69.2 45.6 -69.3 Q45.9 -69.05 45.9 -67.8 L47.95 -68.15 52.45 -68.2 52.45 -68.6 Q52.45 -68.85 52.6 -68.95 L52.55 -69.05 52.45 -69.05 52.2 -69.2 52.45 -69.6 52.45 -69.95 52.5 -70.35 52.1 -70.35 Q52.5 -70.55 52.7 -70.8 57.85 -70.85 62.35 -70.55 L62.3 -70.3 62.35 -69.85 62.25 -69.85 62.2 -69.7 62.55 -68.55 62.65 -68.05 Q63.5 -68.35 67.1 -68.1 L67.25 -68.1 67.3 -68.3 67.1 -68.25 66.85 -68.5 67.25 -69.4 67.6 -70.0 69.2 -69.8 69.25 -69.85 69.5 -69.85 69.6 -69.75 Q76.05 -68.8 80.95 -66.95 L81.25 -67.45 81.35 -66.8 81.65 -66.7 81.4 -66.5 81.55 -63.0 81.55 -60.85 89.85 -60.8 90.15 -61.95 90.5 -61.15 90.6 -60.0 90.6 -59.85 90.7 -60.0 90.95 -59.7 91.4 -59.7 91.5 -59.45 94.6 -59.25 94.7 -58.95 94.6 -58.7 94.4 -58.65 93.0 -55.7 93.95 -56.6 95.75 -57.9 95.65 -59.05 95.85 -60.5 95.8 -60.5 93.25 -60.8 90.55 -61.2 M53.1 -69.1 L57.55 -69.3 60.95 -68.95 61.25 -69.6 61.45 -69.9 53.1 -70.3 53.1 -69.1 M52.4 -67.6 L51.05 -67.5 48.95 -67.65 46.35 -67.45 45.9 -67.3 45.8 -66.15 45.9 -66.15 45.9 -66.45 46.15 -66.5 48.55 -66.3 52.35 -66.7 52.4 -67.6 M55.75 -61.7 Q55.75 -62.95 56.05 -63.5 L55.9 -63.5 55.85 -63.7 55.1 -63.75 55.1 -63.7 55.1 -62.25 55.7 -61.65 55.75 -61.55 55.75 -61.7 M59.25 -64.45 L55.6 -64.5 55.95 -64.25 59.25 -64.45 M56.45 -63.35 L56.3 -60.85 56.55 -60.4 56.55 -59.8 Q56.55 -59.0 48.4 -59.0 L47.35 -59.05 47.2 -59.2 Q46.7 -59.75 46.75 -61.0 L46.85 -63.0 46.95 -63.3 46.7 -63.3 39.45 -63.6 39.5 -63.3 Q39.5 -61.6 39.0 -59.85 L38.85 -59.8 38.7 -60.05 Q38.7 -59.8 38.15 -59.6 L37.2 -59.45 35.45 -59.55 Q34.3 -59.55 32.45 -60.1 L30.6 -60.65 30.6 -61.1 30.85 -61.05 30.7 -63.5 30.7 -63.75 30.6 -64.0 30.75 -64.3 30.8 -64.45 Q26.55 -65.1 25.45 -65.9 L25.5 -63.65 25.5 -61.4 25.6 -61.15 25.5 -60.9 25.45 -60.9 25.45 -60.45 25.65 -60.45 25.75 -60.35 25.8 -60.35 25.9 -60.1 25.8 -59.8 25.75 -59.8 25.5 -58.2 Q25.5 -55.05 26.75 -52.0 L26.95 -51.5 Q28.45 -48.1 31.15 -45.7 34.65 -42.5 38.85 -39.75 40.7 -38.55 44.6 -37.65 L46.65 -37.15 Q46.8 -37.5 47.9 -37.6 L48.2 -37.3 47.85 -36.9 48.1 -36.9 48.4 -36.8 49.55 -36.55 49.7 -36.55 Q59.7 -36.55 68.0 -41.7 71.3 -43.7 75.05 -47.5 76.8 -49.2 78.1 -51.5 L79.35 -54.0 81.2 -58.8 81.0 -62.95 80.8 -65.4 80.85 -66.3 79.85 -65.6 80.05 -65.2 80.0 -63.95 80.05 -63.85 79.9 -63.7 79.6 -63.35 79.05 -62.85 Q78.25 -62.25 77.5 -62.2 L77.5 -61.85 77.25 -61.7 Q76.95 -62.15 77.0 -63.15 L76.85 -64.65 76.85 -65.05 73.65 -64.75 70.3 -64.4 70.2 -63.95 70.3 -62.6 70.3 -61.9 70.6 -61.6 70.6 -61.55 70.7 -61.3 70.25 -61.0 70.25 -60.9 70.05 -60.8 69.95 -60.9 68.85 -60.6 65.05 -60.25 63.85 -60.3 63.85 -60.2 63.65 -60.1 63.55 -60.35 63.25 -60.5 63.25 -60.85 63.5 -60.85 63.4 -62.15 63.4 -62.2 63.5 -63.95 61.95 -63.8 56.45 -63.55 56.45 -63.35 M45.3 -68.9 L45.35 -68.8 45.35 -68.9 45.3 -68.9 M44.35 -69.35 L43.6 -69.8 36.6 -69.15 37.5 -68.35 37.55 -68.3 37.85 -68.5 38.65 -68.4 45.1 -68.95 44.35 -69.35 M47.8 -63.6 L47.75 -63.3 47.65 -63.3 47.5 -59.65 47.8 -59.65 48.3 -60.85 48.55 -61.3 48.4 -61.3 48.3 -61.6 48.95 -61.8 48.95 -61.85 Q48.8 -62.15 48.8 -62.75 L48.9 -64.0 49.05 -64.35 48.45 -64.0 47.8 -63.6 M48.45 -59.6 L48.95 -59.6 55.75 -59.85 55.9 -59.95 55.85 -60.15 55.0 -61.2 54.7 -61.6 54.6 -61.6 54.5 -61.7 53.8 -61.65 52.05 -61.3 49.4 -61.3 49.1 -60.65 48.45 -59.6 M74.55 -66.15 L69.5 -65.2 75.9 -65.8 74.55 -66.15 M77.5 -66.85 L80.1 -66.5 80.2 -66.4 80.5 -66.45 Q76.5 -68.5 68.05 -69.4 L67.7 -68.9 67.55 -68.6 67.6 -68.55 Q68.2 -68.85 70.5 -68.55 L77.4 -67.15 77.5 -66.9 77.45 -66.85 77.5 -66.85 M77.5 -62.9 L77.95 -63.4 78.8 -63.95 77.5 -64.1 77.5 -62.9 M61.95 -66.7 L62.0 -66.8 62.15 -67.3 62.0 -68.35 61.85 -69.15 61.7 -68.9 61.75 -68.85 61.8 -68.7 61.85 -68.3 61.8 -67.4 61.85 -66.75 61.85 -66.6 61.95 -66.7 M62.7 -67.3 Q62.7 -66.5 62.05 -66.1 L62.7 -66.1 64.7 -66.0 66.95 -66.15 66.95 -66.45 67.05 -67.55 62.7 -67.55 62.7 -67.3 M61.8 -66.05 L62.05 -66.1 61.85 -66.35 61.8 -66.05 M63.9 -61.95 L63.9 -60.85 68.2 -61.05 69.35 -61.3 69.7 -61.35 69.65 -61.7 67.75 -62.8 67.4 -62.7 67.25 -62.65 66.9 -62.6 64.45 -61.95 63.9 -61.95 M69.5 -65.2 L69.35 -65.2 69.6 -65.1 69.5 -65.2 M67.6 -65.1 L67.5 -63.5 69.15 -62.8 69.6 -62.5 69.65 -63.75 69.65 -63.85 69.65 -64.35 69.6 -64.35 69.65 -64.6 68.4 -64.95 68.05 -65.05 67.75 -65.1 67.6 -65.1 M-18.9 -24.3 L-17.55 -24.15 -14.3 -23.9 -14.4 -24.25 -14.35 -24.4 -14.3 -24.5 -14.0 -24.45 -14.0 -24.5 -13.7 -24.45 -12.9 -24.35 -12.8 -24.1 -12.8 -23.95 -12.7 -23.9 Q-11.6 -23.35 -10.85 -23.35 L-9.2 -23.5 -8.5 -23.7 -8.4 -23.95 -8.25 -23.95 -8.0 -24.25 -7.5 -23.8 -6.45 -23.6 -3.95 -23.9 -4.0 -24.1 -3.95 -24.45 -3.9 -24.5 -3.05 -23.95 0.05 -23.5 Q1.05 -23.5 1.6 -23.85 L2.1 -24.25 3.0 -23.9 4.3 -23.6 5.7 -23.95 6.95 -24.35 7.65 -23.95 Q8.5 -23.6 9.0 -23.6 10.0 -23.6 10.5 -23.95 L11.0 -24.35 11.85 -24.05 13.15 -23.75 Q14.0 -23.75 14.4 -24.1 L14.8 -24.5 15.1 -23.85 16.7 -23.6 18.65 -23.7 19.2 -24.1 19.25 -24.1 19.2 -24.15 19.4 -24.25 20.3 -23.85 22.55 -23.5 Q24.0 -23.5 24.7 -23.9 L25.35 -24.35 26.25 -23.95 Q27.1 -23.6 27.8 -23.6 L30.3 -24.1 31.05 -23.65 32.4 -23.25 33.45 -23.75 Q34.2 -24.35 34.95 -24.35 L35.8 -23.9 38.1 -23.5 40.45 -23.85 41.45 -24.25 Q41.9 -24.25 42.15 -23.7 42.4 -23.25 43.4 -23.25 L44.7 -23.45 45.75 -23.8 45.95 -23.65 46.05 -23.7 47.05 -23.15 48.6 -22.8 50.7 -23.05 50.15 -23.35 50.15 -23.65 51.6 -23.1 53.4 -22.8 55.3 -23.1 55.45 -23.15 55.4 -23.3 55.45 -23.45 55.8 -23.35 56.2 -23.55 56.45 -23.25 56.25 -22.9 Q56.75 -22.55 57.95 -22.55 L60.2 -22.8 60.2 -22.95 60.55 -22.9 60.9 -22.85 61.0 -22.75 61.35 -22.6 63.4 -22.25 65.05 -22.5 66.15 -22.8 66.05 -23.05 66.15 -23.15 69.15 -22.55 70.6 -22.95 70.45 -23.05 70.45 -23.4 71.25 -23.3 71.7 -23.1 73.7 -22.7 75.1 -22.95 Q76.2 -25.7 82.55 -37.6 L93.8 -58.65 93.45 -58.65 90.6 -58.9 90.55 -58.6 90.2 -58.5 Q89.75 -58.5 89.65 -58.75 L89.65 -59.05 89.65 -59.2 82.0 -59.2 Q81.55 -57.15 79.05 -52.75 L78.35 -51.5 Q76.15 -47.55 75.2 -46.7 70.45 -42.3 67.65 -40.65 60.15 -36.25 50.9 -36.0 50.8 -35.8 50.5 -35.8 L49.85 -36.0 49.7 -36.0 48.35 -36.1 47.35 -36.35 47.3 -36.55 Q39.85 -38.45 38.5 -39.35 34.7 -41.7 31.05 -44.95 27.8 -47.75 26.3 -51.5 25.3 -53.85 25.0 -56.55 L25.0 -59.8 -10.65 -59.8 -11.2 -59.7 -12.2 -60.0 -14.2 -59.8 -15.1 -59.45 -15.15 -59.45 -18.85 -54.25 -19.45 -52.95 -20.2 -51.5 -21.9 -48.7 -21.6 -47.8 -24.95 -44.05 -25.8 -42.1 Q-26.4 -40.8 -27.25 -40.05 -27.95 -39.4 -28.25 -37.95 -28.6 -36.4 -28.95 -36.0 -31.35 -32.35 -31.35 -31.9 L-31.2 -31.6 -31.1 -31.35 Q-31.1 -31.0 -32.95 -29.1 L-35.1 -27.05 -34.15 -24.6 -34.15 -24.55 -33.75 -24.3 Q-32.4 -23.6 -31.3 -23.7 L-31.1 -23.85 -30.95 -23.75 -29.6 -23.85 -29.4 -24.25 -26.5 -23.85 -23.9 -23.8 -24.5 -24.15 -24.15 -24.75 Q-22.5 -23.85 -21.2 -23.85 L-19.8 -24.05 -18.9 -24.25 -18.85 -24.25 -18.9 -24.3 M34.3 -65.4 L34.6 -65.15 34.55 -64.6 35.1 -65.05 36.3 -65.45 35.65 -65.6 35.6 -65.55 Q35.55 -65.4 35.4 -65.4 L34.25 -65.7 34.2 -65.95 32.75 -65.55 34.2 -65.4 34.3 -65.4 M34.95 -67.0 L34.95 -66.85 35.5 -66.4 35.35 -66.15 35.45 -66.15 36.8 -65.65 36.8 -65.75 Q36.8 -67.4 37.2 -68.05 L34.85 -68.6 34.85 -67.75 34.95 -67.0 M32.45 -64.95 Q29.8 -65.4 29.8 -66.75 L29.8 -67.1 29.6 -67.2 29.1 -67.7 29.1 -67.75 25.8 -66.4 Q27.1 -65.35 30.9 -64.75 L30.95 -64.8 31.0 -64.75 31.1 -64.65 31.05 -64.5 31.05 -64.45 31.95 -64.85 32.45 -64.95 M31.15 -63.75 L31.25 -62.95 31.45 -61.4 32.4 -62.1 Q33.25 -62.7 33.8 -62.8 L33.6 -64.55 32.75 -64.25 31.15 -63.75 M34.05 -62.2 L33.95 -62.35 32.95 -61.7 31.65 -60.95 33.7 -60.55 37.2 -60.05 38.0 -60.15 38.4 -60.35 38.65 -60.2 38.6 -60.45 38.7 -61.8 38.2 -61.7 34.1 -62.2 34.05 -62.2 M24.8 -60.35 L24.8 -60.5 24.85 -60.9 -14.65 -60.9 -14.55 -60.6 -14.65 -60.3 -15.1 -60.25 -15.0 -60.15 -11.15 -60.3 -10.4 -60.5 24.5 -60.35 24.8 -60.35 M18.85 -23.35 Q18.25 -23.0 16.7 -23.0 15.6 -23.0 15.1 -23.35 L14.75 -23.7 14.25 -23.3 13.35 -23.15 11.85 -23.45 11.05 -23.7 10.2 -23.35 9.0 -23.0 Q8.3 -23.0 7.6 -23.35 L7.0 -23.7 5.7 -23.35 4.4 -23.0 2.25 -23.55 Q1.55 -22.9 0.05 -22.9 -2.05 -22.9 -3.2 -23.45 L-3.5 -23.6 Q-3.7 -23.4 -4.75 -23.25 L-6.6 -23.0 Q-7.45 -23.0 -7.9 -23.3 L-8.25 -23.3 -9.0 -23.05 -10.9 -22.75 Q-11.9 -22.75 -12.95 -23.4 L-13.45 -23.7 -13.5 -23.7 -13.75 -23.7 Q-14.0 -23.3 -15.45 -23.3 L-17.55 -23.6 -18.45 -23.9 -19.5 -23.6 -21.1 -23.3 -23.15 -23.6 -23.9 -23.8 -23.6 -23.55 -23.7 -23.3 -24.95 -23.15 -26.85 -23.1 -28.95 -23.4 -29.25 -23.3 -30.45 -23.3 -30.4 -23.15 -30.65 -22.9 -30.8 -23.0 -30.8 53.5 -30.95 53.5 Q-30.8 54.6 -30.8 56.6 L-30.85 60.4 74.1 60.35 Q73.85 59.05 73.85 57.15 L73.9 53.6 73.9 46.4 74.1 33.0 73.9 32.95 73.9 -21.2 73.65 -21.5 73.85 -22.1 73.7 -22.1 Q72.4 -22.1 71.3 -22.6 70.8 -21.95 69.3 -21.95 L67.8 -22.0 66.75 -22.25 63.35 -21.7 61.65 -22.1 60.75 -22.45 59.65 -22.15 57.9 -21.95 Q56.7 -21.95 55.95 -22.55 L55.75 -22.7 55.25 -22.55 53.35 -22.2 51.6 -22.55 51.35 -22.7 50.25 -22.45 48.6 -22.2 Q46.3 -22.2 45.9 -23.35 L44.75 -22.95 43.35 -22.65 Q42.55 -22.65 42.05 -23.1 L41.5 -23.6 40.3 -23.25 38.05 -22.9 Q36.4 -22.9 35.85 -23.35 L34.85 -23.75 Q34.3 -23.75 33.55 -23.15 32.8 -22.65 32.4 -22.65 L30.25 -23.45 27.9 -23.0 26.35 -23.4 25.4 -23.75 24.7 -23.35 Q23.9 -22.9 22.3 -22.9 20.05 -22.9 19.45 -23.75 L18.85 -23.35 M79.7 -30.65 L79.65 -30.85 79.55 -30.7 77.85 -27.25 Q79.9 -28.65 84.5 -30.9 L94.0 -35.5 101.3 -39.35 107.9 -42.7 101.2 -49.05 96.35 -53.1 Q94.15 -55.0 93.75 -55.6 L92.5 -54.8 92.2 -54.25 93.75 -53.3 97.6 -49.6 97.65 -49.65 97.75 -49.4 101.05 -46.7 Q102.75 -45.25 103.2 -43.9 L103.65 -44.0 Q104.35 -44.0 104.4 -42.85 104.4 -42.15 103.5 -41.4 102.5 -40.5 101.15 -40.5 101.0 -40.5 100.8 -40.65 L100.3 -40.9 99.35 -40.45 98.0 -39.7 96.7 -39.1 95.45 -38.75 94.95 -39.1 Q94.5 -38.65 92.85 -37.65 91.25 -36.6 91.0 -36.6 90.45 -36.6 89.95 -37.1 89.3 -36.15 87.8 -35.1 L86.2 -34.2 85.75 -34.6 84.1 -32.5 Q82.95 -31.4 81.1 -30.65 L79.7 -30.65 M74.95 -21.95 L74.9 -22.15 74.4 -22.1 74.45 -22.0 74.2 -21.65 74.5 -15.3 74.45 -8.35 74.45 5.4 74.3 32.1 74.55 32.5 74.45 32.7 74.45 60.35 74.55 60.35 74.7 60.3 Q76.95 59.15 82.5 56.65 83.55 56.15 84.55 55.7 84.3 54.05 84.3 50.05 L83.95 46.5 Q83.7 44.8 84.4 44.15 L84.25 42.1 84.3 38.9 84.3 2.0 84.25 -1.0 Q84.25 -2.7 84.5 -3.85 L84.4 -3.9 84.4 -5.75 Q84.9 -13.6 86.5 -18.35 88.85 -25.45 94.8 -30.9 L95.05 -30.65 95.05 -30.1 Q98.5 -26.9 100.2 -22.1 101.15 -19.5 101.7 -16.0 L101.95 -13.75 102.0 -13.2 101.95 -13.1 101.9 -11.15 101.85 3.55 101.75 3.6 101.75 34.15 101.8 34.15 101.9 34.4 101.75 34.5 101.75 47.0 Q106.05 44.85 108.05 44.15 107.75 42.25 107.75 39.65 L107.9 34.45 107.9 24.15 107.9 8.55 107.8 5.9 Q107.8 4.95 107.95 4.25 107.8 3.4 107.8 2.4 L107.9 -0.6 107.9 -18.6 Q107.9 -32.7 108.05 -39.65 L107.9 -40.15 108.1 -40.3 108.1 -40.55 Q107.9 -40.8 107.9 -41.5 L107.95 -42.15 Q105.6 -40.6 94.9 -35.3 L77.5 -26.55 75.4 -22.0 74.95 -21.95 M96.0 -87.95 L94.95 -84.55 95.6 -83.1 Q96.1 -83.85 97.05 -84.25 L97.15 -84.75 97.5 -87.6 97.4 -89.95 96.95 -92.5 Q96.95 -91.2 96.0 -87.95 M85.75 -91.6 Q86.15 -89.2 88.4 -84.3 L90.55 -79.6 90.45 -79.35 89.85 -79.3 88.55 -79.5 90.1 -78.4 Q91.5 -77.55 91.5 -77.15 L90.9 -76.4 92.15 -75.45 91.75 -74.7 Q92.4 -74.7 92.4 -74.2 L92.15 -73.65 Q92.75 -73.05 92.65 -71.7 92.65 -70.15 92.85 -69.75 L94.1 -72.8 94.2 -72.8 94.0 -74.05 Q94.0 -74.45 94.35 -75.5 L94.8 -76.85 94.7 -77.75 94.9 -80.05 95.2 -81.05 95.05 -81.1 Q95.3 -82.75 94.7 -83.7 93.8 -85.1 90.95 -86.3 88.65 -87.2 87.5 -88.85 L85.75 -91.6 M99.7 -84.3 Q98.55 -84.3 97.7 -83.9 L97.3 -83.05 97.1 -82.9 96.85 -83.25 96.9 -83.35 96.45 -82.95 95.8 -81.7 95.85 -81.5 Q95.25 -79.65 95.25 -77.75 L95.35 -74.4 97.1 -74.45 97.2 -74.15 Q97.2 -73.8 95.7 -73.8 L95.25 -73.6 Q94.75 -73.6 94.8 -74.5 L94.95 -75.45 94.95 -75.55 94.55 -74.05 94.95 -71.25 Q94.95 -68.7 94.6 -67.3 L93.2 -62.4 95.35 -61.15 95.7 -61.05 96.8 -61.6 97.95 -62.05 97.65 -62.25 97.65 -62.6 98.45 -62.6 99.2 -63.8 100.05 -64.95 99.45 -67.0 Q98.8 -68.9 98.8 -69.85 98.8 -70.65 99.15 -72.55 L99.35 -73.5 99.1 -73.75 99.6 -74.75 100.1 -75.8 99.6 -76.7 Q99.1 -77.25 99.1 -77.6 L99.1 -77.85 98.7 -77.7 98.45 -77.85 99.2 -78.35 99.35 -78.6 99.1 -78.5 Q98.3 -78.5 98.0 -79.4 L97.75 -77.75 97.6 -74.2 97.35 -74.1 Q97.1 -74.35 97.1 -75.4 L97.3 -78.75 97.7 -80.55 97.15 -80.25 96.8 -80.3 96.7 -80.5 98.05 -81.4 98.15 -81.6 98.2 -81.55 101.2 -83.6 Q101.2 -83.95 100.7 -84.15 L99.7 -84.3 M98.35 -80.8 L98.4 -80.1 Q98.45 -79.5 99.0 -79.15 L99.1 -79.2 99.65 -79.25 99.6 -79.35 100.3 -80.45 100.95 -81.75 100.75 -82.6 98.45 -81.05 98.35 -80.8 M89.8 -60.25 L81.95 -60.25 82.05 -59.95 82.05 -59.8 89.7 -59.7 89.8 -60.25 M81.6 -59.75 L81.75 -60.25 81.55 -60.25 81.45 -59.7 81.6 -59.75 M96.3 -60.5 L96.2 -60.5 96.25 -58.15 97.2 -58.7 98.05 -59.0 98.05 -59.25 98.3 -61.0 98.45 -61.75 96.3 -60.5 M112.95 -40.8 L109.4 -44.3 104.55 -49.2 99.2 -53.75 Q96.35 -56.2 95.85 -57.35 L94.45 -56.2 94.2 -56.0 101.3 -49.5 108.2 -42.95 108.3 -43.05 108.4 -42.9 108.45 -42.95 108.55 -42.75 108.5 -42.6 108.7 -40.5 108.6 -40.05 108.7 -40.05 108.7 -40.3 108.75 -40.3 109.05 -40.3 109.35 -40.6 109.65 -40.3 110.3 -40.2 111.65 -40.05 Q112.65 -40.05 112.95 -40.55 L113.05 -40.7 113.1 -40.8 112.95 -40.8 M95.0 -41.95 L88.4 -39.7 Q88.15 -39.8 88.15 -40.0 88.15 -40.3 102.05 -45.0 L101.7 -45.35 Q100.75 -46.25 100.25 -46.25 L99.6 -45.95 99.35 -46.4 99.6 -47.05 Q99.6 -47.5 98.5 -48.25 L97.3 -49.05 Q96.45 -48.55 93.75 -47.6 L93.75 -47.55 93.85 -46.45 95.95 -46.85 96.05 -46.65 Q96.05 -46.4 94.95 -46.1 L93.7 -45.75 93.2 -45.3 92.95 -45.6 92.65 -45.85 92.95 -46.1 93.15 -47.4 89.75 -46.2 89.45 -46.4 Q89.7 -46.95 93.0 -48.1 L97.1 -49.4 96.7 -50.2 Q96.2 -50.95 95.4 -50.95 L94.45 -50.65 94.15 -50.8 94.65 -51.45 Q92.65 -53.85 92.3 -53.85 L92.15 -53.75 92.05 -53.6 91.95 -53.75 89.95 -50.3 84.4 -40.55 84.3 -40.4 79.65 -30.9 81.3 -31.1 Q83.2 -31.65 84.1 -33.1 L84.95 -34.25 Q85.45 -35.1 85.4 -35.7 L85.75 -35.8 Q86.15 -35.8 86.15 -34.95 L86.35 -34.9 Q86.75 -34.9 87.95 -35.85 89.3 -37.0 89.45 -37.95 L89.75 -38.1 90.1 -37.65 Q90.45 -37.2 90.95 -37.2 91.55 -37.2 92.85 -37.95 94.4 -38.85 94.55 -40.0 L94.8 -40.1 Q95.15 -40.1 95.5 -39.35 L97.8 -40.3 Q99.5 -41.05 100.05 -41.85 L101.15 -41.1 Q101.95 -41.1 102.95 -41.85 L103.9 -42.8 103.6 -43.45 103.25 -43.3 102.4 -43.3 102.3 -43.55 102.65 -44.15 102.4 -44.6 95.75 -42.2 95.5 -41.2 95.35 -41.15 Q95.05 -41.4 95.05 -41.85 L95.05 -41.95 95.05 -42.0 95.0 -41.95 M92.15 -43.45 Q92.15 -43.2 89.3 -42.0 L88.05 -41.45 88.05 -39.5 88.0 -39.4 87.75 -39.3 Q87.4 -39.3 87.35 -39.9 L87.35 -40.6 87.35 -41.1 87.35 -41.2 87.3 -41.2 84.85 -40.35 Q84.55 -40.45 84.55 -40.6 84.55 -41.0 87.8 -42.15 L92.05 -43.65 92.15 -43.45 M95.05 -29.85 L94.95 -25.7 94.8 -23.8 Q96.7 -22.7 98.05 -19.25 L98.75 -17.1 98.85 -17.15 98.95 -16.95 98.8 -16.9 99.15 -15.45 Q99.25 -15.95 99.5 -16.25 L99.75 -15.95 99.75 -11.3 99.9 -11.05 99.75 -10.85 99.75 -7.85 99.6 -7.75 99.6 34.85 100.3 34.5 101.2 34.35 101.2 7.95 101.15 5.05 101.25 3.55 101.2 3.55 101.2 2.9 101.35 -1.75 101.35 -11.4 101.3 -13.75 101.3 -14.2 100.75 -17.25 99.8 -21.8 97.55 -26.1 95.05 -29.85 M94.5 -29.9 L92.05 -26.85 Q88.6 -22.45 86.9 -17.25 84.95 -11.4 85.05 -4.0 L84.85 -3.85 84.95 -3.7 84.85 -3.4 84.85 40.05 85.35 39.9 85.4 39.9 Q85.85 39.55 86.75 39.4 L86.75 39.25 87.25 39.25 87.25 1.85 87.2 -1.95 87.3 -4.35 87.25 -4.5 87.35 -4.55 87.4 -4.95 87.25 -5.2 Q87.25 -9.3 89.2 -15.4 91.45 -22.25 94.25 -23.85 93.95 -24.4 94.0 -24.85 L94.25 -26.25 Q94.25 -28.7 94.5 -29.9 M93.8 -22.5 L93.85 -20.95 95.7 -21.65 95.75 -21.9 94.65 -23.5 94.55 -23.45 93.8 -22.5 M92.0 -20.1 L93.4 -20.7 93.35 -21.95 92.5 -20.9 92.0 -20.1 M91.55 -19.45 L91.25 -18.9 91.5 -17.7 93.1 -18.3 93.4 -18.4 93.4 -20.15 91.65 -19.45 91.55 -19.45 M95.6 -19.1 L95.55 -19.85 95.65 -21.15 93.9 -20.35 93.95 -18.6 95.6 -19.1 M96.15 -19.3 L97.05 -19.5 96.15 -21.3 96.15 -19.3 M95.6 -18.3 L94.95 -18.1 93.95 -17.8 94.0 -15.55 95.6 -16.2 95.6 -17.5 95.6 -18.3 M96.15 -16.4 L97.65 -16.9 97.65 -17.8 97.65 -17.95 97.5 -18.5 97.25 -19.05 96.15 -18.5 96.15 -16.4 M91.55 -17.05 L91.55 -16.65 91.5 -14.5 92.75 -15.0 93.45 -15.35 93.4 -17.6 91.55 -17.05 M91.5 -13.75 L91.5 -11.0 93.05 -11.75 93.45 -11.9 93.45 -12.0 93.45 -14.6 91.5 -13.75 M94.0 -14.85 L94.0 -12.2 95.6 -12.9 95.6 -15.55 Q94.75 -15.15 94.0 -14.85 M96.15 -13.15 L97.6 -13.75 97.65 -16.35 96.15 -15.75 96.15 -13.15 M98.2 -15.45 L98.3 -14.05 98.65 -14.2 98.35 -15.4 98.2 -15.85 98.2 -15.45 M98.8 -13.75 L98.3 -13.45 98.3 -11.5 98.3 -10.55 99.25 -11.0 99.25 -11.9 99.15 -13.3 98.95 -13.3 98.8 -13.75 M96.15 -12.5 L96.15 -9.4 97.55 -10.15 97.55 -11.2 97.6 -13.15 96.15 -12.5 M90.85 -16.75 L90.0 -16.5 89.2 -14.2 89.05 -13.6 89.3 -13.35 90.95 -14.2 90.95 -14.3 90.9 -16.7 90.9 -16.8 90.85 -16.75 M90.95 -17.45 L91.25 -18.9 90.25 -17.15 90.95 -17.45 M89.65 -12.75 L89.35 -12.75 89.3 -9.95 90.95 -10.8 90.95 -13.45 89.65 -12.75 M90.95 -9.9 L89.3 -9.05 89.25 -5.6 90.95 -6.55 90.95 -9.45 90.95 -9.9 M88.4 -9.4 L88.65 -9.55 88.65 -9.8 88.6 -11.45 88.35 -9.5 88.35 -9.35 88.4 -9.4 M88.25 -8.65 L87.75 -5.4 87.75 -4.75 88.65 -5.3 88.65 -5.8 88.65 -8.75 88.25 -8.65 M90.95 -6.0 L89.25 -5.15 89.2 1.85 88.95 2.0 Q88.6 1.25 88.6 0.05 L88.65 -2.0 88.65 -4.8 87.75 -4.35 87.75 48.15 88.55 48.05 Q90.4 47.95 99.1 48.0 L99.1 -8.3 99.35 -8.5 99.4 -8.5 99.3 -10.4 98.3 -9.8 98.15 -4.8 98.0 -4.75 Q97.65 -6.75 97.6 -9.35 L96.15 -8.6 96.15 -3.6 95.85 -3.45 Q95.55 -4.3 95.55 -5.7 L95.6 -8.15 95.6 -8.35 95.55 -8.35 94.0 -7.55 93.9 -1.8 93.75 -1.75 Q93.35 -3.85 93.35 -6.8 L93.35 -7.2 91.5 -6.25 91.45 -0.25 91.25 -0.15 Q90.9 -1.0 90.9 -2.35 L90.95 -4.8 90.95 -6.0 M94.0 -11.55 L94.0 -8.25 95.6 -9.1 95.6 -12.25 94.0 -11.55 M91.5 -10.15 L91.5 -6.85 93.4 -7.9 93.45 -11.3 91.5 -10.15 M99.6 35.5 L99.6 47.5 100.6 47.5 100.6 47.55 101.35 47.15 101.15 44.7 101.2 41.85 101.2 34.85 99.8 35.6 99.6 35.5 M87.0 39.9 L86.95 39.9 Q86.65 40.2 85.1 40.7 L85.0 40.65 84.85 40.7 84.85 44.95 84.75 45.05 84.85 49.95 84.75 55.65 87.45 54.45 Q87.2 53.05 87.2 50.9 L87.25 47.15 87.25 39.9 87.0 39.9 M99.7 48.75 L99.7 48.65 98.55 49.25 98.8 49.55 98.55 50.25 98.6 50.55 99.35 50.5 101.1 50.4 101.7 50.5 103.25 49.5 Q104.2 48.95 104.9 48.8 L100.4 48.85 99.7 48.75 M87.75 48.6 L87.75 54.25 88.05 54.2 88.1 54.2 92.0 52.5 Q93.8 51.8 96.1 50.2 L98.6 48.6 87.75 48.6 M105.2 47.8 L105.1 48.05 102.95 47.5 105.1 47.5 105.2 47.8 M111.85 49.1 Q112.8 49.1 112.7 50.0 112.7 51.0 111.65 51.0 110.3 51.0 110.3 50.05 110.3 49.6 110.55 49.4 110.85 49.1 111.85 49.1 M119.25 51.15 L119.35 51.4 119.25 52.05 Q119.25 53.0 117.25 53.0 116.25 53.0 115.95 52.6 L115.75 52.15 Q115.75 51.8 116.25 51.45 116.9 51.05 118.1 51.0 L119.25 51.15 M118.65 52.1 L116.3 52.15 116.4 52.4 117.25 52.4 118.35 52.35 118.65 52.1 M112.15 49.75 L110.85 49.85 110.8 50.05 110.9 50.35 111.1 50.4 112.15 50.4 112.15 49.75 M106.35 53.2 Q105.6 53.8 104.7 53.8 L103.35 53.4 Q102.55 52.95 102.55 52.6 102.55 51.5 104.8 51.25 106.95 51.05 106.95 52.3 106.95 52.7 106.35 53.2 M106.0 52.8 L106.35 52.25 103.25 52.3 103.2 52.6 Q103.2 53.15 104.6 53.15 L106.0 52.8 M98.0 50.2 Q98.0 49.7 98.3 49.45 L96.4 50.65 94.6 51.85 95.3 52.2 95.95 52.9 Q96.3 52.7 96.8 52.45 L96.9 52.4 95.25 52.15 95.25 51.55 95.3 51.55 Q95.5 51.1 96.2 51.3 L96.3 51.5 96.25 51.65 97.7 52.0 Q97.9 52.0 98.1 51.4 L98.4 50.9 98.1 50.65 98.0 50.2 M97.65 52.8 L94.65 53.95 94.7 54.05 96.55 54.05 96.7 54.35 96.95 54.25 Q98.4 53.75 98.4 53.4 L98.2 52.95 97.65 52.8 M92.8 53.25 L94.05 53.6 95.4 53.1 94.9 52.8 94.05 52.15 92.3 53.0 89.6 54.1 93.45 54.05 92.5 53.8 92.4 53.45 Q92.55 53.25 92.8 53.25 M-15.3 -60.85 L-14.65 -60.9 -15.25 -60.9 -15.3 -60.85" fill="#000000" fill-rule="evenodd" stroke="none"/>
    <path d="M59.5 -69.05 L60.55 -68.6 61.15 -68.3 61.1 -67.55 61.1 -66.6 Q61.15 -65.8 61.45 -65.7 L61.45 -65.6 64.8 -65.4 67.45 -65.7 67.75 -65.9 67.5 -66.55 67.65 -67.55 67.8 -67.55 67.9 -67.8 67.9 -68.0 Q71.55 -68.1 76.7 -66.6 L76.7 -66.55 Q76.7 -66.4 77.05 -66.35 L78.85 -65.95 79.65 -65.95 79.65 -65.7 79.4 -64.9 79.3 -64.35 78.3 -64.6 77.5 -64.55 77.5 -65.15 77.4 -65.35 77.05 -65.35 77.05 -65.4 77.5 -65.7 77.4 -65.9 Q76.1 -67.2 72.4 -66.5 L68.4 -65.6 67.5 -65.65 67.2 -65.4 Q66.95 -65.15 66.95 -63.85 L67.0 -63.25 65.35 -62.85 63.9 -62.45 63.65 -64.35 63.7 -64.8 62.9 -64.75 61.75 -65.1 59.3 -65.15 56.55 -65.15 55.15 -64.95 54.7 -65.15 54.6 -65.3 54.5 -65.15 54.3 -65.1 54.3 -64.65 54.35 -64.55 54.3 -63.45 54.35 -62.25 54.3 -62.2 54.3 -62.15 50.6 -62.0 49.5 -61.9 49.4 -62.1 49.65 -64.35 49.55 -64.75 49.3 -64.6 49.35 -64.85 49.25 -65.1 43.1 -65.3 41.9 -65.55 41.9 -65.2 43.1 -64.75 48.25 -64.5 47.2 -63.85 46.7 -63.85 Q43.1 -63.85 40.2 -64.0 L41.3 -64.4 Q41.9 -64.6 41.9 -64.95 L41.85 -65.15 41.8 -65.25 Q41.35 -65.35 40.4 -64.85 L39.15 -64.0 39.1 -64.0 39.05 -63.6 39.3 -63.6 Q39.0 -63.45 38.8 -62.4 L38.8 -62.35 37.45 -62.45 35.55 -62.65 34.25 -62.6 34.3 -62.65 34.3 -62.8 34.3 -63.35 34.4 -64.1 34.6 -64.0 35.5 -64.55 Q36.1 -65.0 37.15 -65.05 L37.25 -65.3 37.25 -65.4 37.35 -65.45 37.8 -67.5 37.8 -67.9 38.55 -67.8 43.2 -68.15 Q44.95 -68.45 45.35 -68.75 L45.25 -67.6 45.45 -66.0 45.1 -65.75 Q45.25 -65.6 45.45 -65.6 L46.4 -65.75 46.55 -65.75 47.4 -65.65 48.5 -65.7 49.85 -65.9 51.5 -65.95 52.3 -66.05 Q52.3 -65.8 52.55 -65.7 L52.75 -65.8 52.85 -66.2 53.0 -66.45 52.9 -66.65 53.1 -67.95 53.1 -68.25 53.05 -68.6 53.65 -68.6 Q54.55 -69.05 55.3 -69.05 L59.5 -69.05 M90.5 -61.15 L90.55 -61.2 93.25 -60.8 95.8 -60.5 95.85 -60.5 95.65 -59.05 95.75 -57.9 93.95 -56.6 93.0 -55.7 94.4 -58.65 94.6 -58.7 94.7 -58.95 94.6 -59.25 91.5 -59.45 91.4 -59.7 90.95 -59.7 90.7 -60.0 90.6 -60.0 90.5 -61.15 M55.7 -61.65 L55.1 -62.25 55.1 -63.7 55.1 -63.75 55.85 -63.7 55.9 -63.5 56.05 -63.5 Q55.75 -62.95 55.75 -61.7 L55.7 -61.65 M52.4 -67.6 L52.35 -66.7 48.55 -66.3 46.15 -66.5 45.9 -66.45 45.9 -66.15 45.8 -66.15 45.9 -67.3 46.35 -67.45 48.95 -67.65 51.05 -67.5 52.4 -67.6 M53.1 -69.1 L53.1 -70.3 61.45 -69.9 61.25 -69.6 60.95 -68.95 57.55 -69.3 53.1 -69.1 M56.45 -63.35 L56.45 -63.55 61.95 -63.8 63.5 -63.95 63.4 -62.2 63.4 -62.15 63.5 -60.85 63.25 -60.85 63.25 -60.5 63.55 -60.35 63.65 -60.1 63.85 -60.2 63.85 -60.3 65.05 -60.25 68.85 -60.6 69.95 -60.9 70.05 -60.8 70.25 -60.9 70.25 -61.0 70.7 -61.3 70.6 -61.55 70.6 -61.6 70.3 -61.9 70.3 -62.6 70.2 -63.95 70.3 -64.4 73.65 -64.75 76.85 -65.05 76.85 -64.65 77.0 -63.15 Q76.95 -62.15 77.25 -61.7 L77.5 -61.85 77.5 -62.2 Q78.25 -62.25 79.05 -62.85 L79.6 -63.35 79.9 -63.7 80.05 -63.85 80.0 -63.95 80.05 -65.2 79.85 -65.6 80.85 -66.3 80.8 -65.4 81.0 -62.95 81.2 -58.8 79.35 -54.0 78.1 -51.5 Q76.8 -49.2 75.05 -47.5 71.3 -43.7 68.0 -41.7 59.7 -36.55 49.7 -36.55 L49.55 -36.55 48.4 -36.8 48.1 -36.9 47.85 -36.9 48.2 -37.3 47.9 -37.6 Q46.8 -37.5 46.65 -37.15 L44.6 -37.65 Q40.7 -38.55 38.85 -39.75 34.65 -42.5 31.15 -45.7 28.45 -48.1 26.95 -51.5 L26.75 -52.0 Q25.5 -55.05 25.5 -58.2 L25.75 -59.8 25.8 -59.8 25.9 -60.1 25.8 -60.35 25.75 -60.35 25.65 -60.45 25.45 -60.45 25.45 -60.9 25.5 -60.9 25.6 -61.15 25.5 -61.4 25.5 -63.65 25.45 -65.9 Q26.55 -65.1 30.8 -64.45 L30.75 -64.3 30.6 -64.0 30.7 -63.75 30.7 -63.5 30.85 -61.05 30.6 -61.1 30.6 -60.65 32.45 -60.1 Q34.3 -59.55 35.45 -59.55 L37.2 -59.45 38.15 -59.6 Q38.7 -59.8 38.7 -60.05 L38.85 -59.8 39.0 -59.85 Q39.5 -61.6 39.5 -63.3 L39.45 -63.6 46.7 -63.3 46.95 -63.3 46.85 -63.0 46.75 -61.0 Q46.7 -59.75 47.2 -59.2 L47.35 -59.05 48.4 -59.0 Q56.55 -59.0 56.55 -59.8 L56.55 -60.4 56.3 -60.85 56.45 -63.35 M59.25 -64.45 L55.95 -64.25 55.6 -64.5 59.25 -64.45 M44.35 -69.35 L45.1 -68.95 38.65 -68.4 37.85 -68.5 37.55 -68.3 37.5 -68.35 36.6 -69.15 43.6 -69.8 44.35 -69.35 M47.8 -63.6 L48.45 -64.0 49.05 -64.35 48.9 -64.0 48.8 -62.75 Q48.8 -62.15 48.95 -61.85 L48.95 -61.8 48.3 -61.6 48.4 -61.3 48.55 -61.3 48.3 -60.85 47.8 -59.65 47.5 -59.65 47.65 -63.3 47.75 -63.3 47.8 -63.6 M77.5 -66.9 L77.4 -67.15 70.5 -68.55 Q68.2 -68.85 67.6 -68.55 L67.55 -68.6 67.7 -68.9 68.05 -69.4 Q76.5 -68.5 80.5 -66.45 L80.2 -66.4 80.1 -66.5 77.5 -66.85 77.5 -66.9 M74.55 -66.15 L75.9 -65.8 69.5 -65.2 74.55 -66.15 M48.45 -59.6 L49.1 -60.65 49.4 -61.3 52.05 -61.3 53.8 -61.65 54.5 -61.7 54.6 -61.6 54.7 -61.6 55.0 -61.2 55.85 -60.15 55.9 -59.95 55.75 -59.85 48.95 -59.6 48.45 -59.6 M61.85 -66.75 L61.8 -67.4 61.85 -68.3 61.8 -68.7 61.75 -68.85 61.7 -68.9 61.85 -69.15 62.0 -68.35 62.15 -67.3 62.0 -66.8 61.95 -66.7 61.85 -66.75 M77.5 -62.9 L77.5 -64.1 78.8 -63.95 77.95 -63.4 77.5 -62.9 M62.7 -67.3 L62.7 -67.55 67.05 -67.55 66.95 -66.45 66.95 -66.15 64.7 -66.0 62.7 -66.1 62.05 -66.1 Q62.7 -66.5 62.7 -67.3 M63.9 -61.95 L64.45 -61.95 66.9 -62.6 67.25 -62.65 67.4 -62.7 67.75 -62.8 69.65 -61.7 69.7 -61.35 69.35 -61.3 68.2 -61.05 63.9 -60.85 63.9 -61.95 M67.6 -65.1 L67.75 -65.1 68.05 -65.05 68.4 -64.95 69.65 -64.6 69.6 -64.35 69.65 -64.35 69.65 -63.85 69.65 -63.75 69.6 -62.5 69.15 -62.8 67.5 -63.5 67.6 -65.1 M-18.9 -24.25 L-18.9 -24.3 -18.85 -24.25 -18.9 -24.25 M34.05 -62.2 L34.1 -62.2 38.2 -61.7 38.7 -61.8 38.6 -60.45 38.65 -60.2 38.4 -60.35 38.0 -60.15 37.2 -60.05 33.7 -60.55 31.65 -60.95 32.95 -61.7 33.95 -62.35 34.05 -62.2 M31.15 -63.75 L32.75 -64.25 33.6 -64.55 33.8 -62.8 Q33.25 -62.7 32.4 -62.1 L31.45 -61.4 31.25 -62.95 31.15 -63.75 M32.45 -64.95 L31.95 -64.85 31.05 -64.45 31.05 -64.5 31.1 -64.65 31.0 -64.75 30.95 -64.8 30.9 -64.75 Q27.1 -65.35 25.8 -66.4 L29.1 -67.75 29.1 -67.7 29.6 -67.2 29.8 -67.1 29.8 -66.75 Q29.8 -65.4 32.45 -64.95 M34.95 -67.0 L34.85 -67.75 34.85 -68.6 37.2 -68.05 Q36.8 -67.4 36.8 -65.75 L36.8 -65.65 35.45 -66.15 35.35 -66.15 35.5 -66.4 34.95 -66.85 34.95 -67.0 M34.3 -65.4 L34.2 -65.4 32.75 -65.55 34.2 -65.95 34.25 -65.7 35.4 -65.4 Q35.55 -65.4 35.6 -65.55 L35.65 -65.6 36.3 -65.45 35.1 -65.05 34.55 -64.6 34.6 -65.15 34.3 -65.4 M18.85 -23.35 L19.45 -23.75 Q20.05 -22.9 22.3 -22.9 23.9 -22.9 24.7 -23.35 L25.4 -23.75 26.35 -23.4 27.9 -23.0 30.25 -23.45 32.4 -22.65 Q32.8 -22.65 33.55 -23.15 34.3 -23.75 34.85 -23.75 L35.85 -23.35 Q36.4 -22.9 38.05 -22.9 L40.3 -23.25 41.5 -23.6 42.05 -23.1 Q42.55 -22.65 43.35 -22.65 L44.75 -22.95 45.9 -23.35 Q46.3 -22.2 48.6 -22.2 L50.25 -22.45 51.35 -22.7 51.6 -22.55 53.35 -22.2 55.25 -22.55 55.75 -22.7 55.95 -22.55 Q56.7 -21.95 57.9 -21.95 L59.65 -22.15 60.75 -22.45 61.65 -22.1 63.35 -21.7 66.75 -22.25 67.8 -22.0 69.3 -21.95 Q70.8 -21.95 71.3 -22.6 72.4 -22.1 73.7 -22.1 L73.85 -22.1 73.65 -21.5 73.9 -21.2 73.9 32.95 74.1 33.0 73.9 46.4 73.9 53.6 73.85 57.15 Q73.85 59.05 74.1 60.35 L-30.85 60.4 -30.8 56.6 Q-30.8 54.6 -30.95 53.5 L-30.8 53.5 -30.8 -23.0 -30.65 -22.9 -30.4 -23.15 -30.45 -23.3 -29.25 -23.3 -28.95 -23.4 -26.85 -23.1 -24.95 -23.15 -23.7 -23.3 -23.6 -23.55 -23.9 -23.8 -23.15 -23.6 -21.1 -23.3 -19.5 -23.6 -18.45 -23.9 -17.55 -23.6 -15.45 -23.3 Q-14.0 -23.3 -13.75 -23.7 L-13.5 -23.7 -13.45 -23.7 -12.95 -23.4 Q-11.9 -22.75 -10.9 -22.75 L-9.0 -23.05 -8.25 -23.3 -7.9 -23.3 Q-7.45 -23.0 -6.6 -23.0 L-4.75 -23.25 Q-3.7 -23.4 -3.5 -23.6 L-3.2 -23.45 Q-2.05 -22.9 0.05 -22.9 1.55 -22.9 2.25 -23.55 L4.4 -23.0 5.7 -23.35 7.0 -23.7 7.6 -23.35 Q8.3 -23.0 9.0 -23.0 L10.2 -23.35 11.05 -23.7 11.85 -23.45 13.35 -23.15 14.25 -23.3 14.75 -23.7 15.1 -23.35 Q15.6 -23.0 16.7 -23.0 18.25 -23.0 18.85 -23.35 M79.55 -30.7 L79.7 -30.65 81.1 -30.65 Q82.95 -31.4 84.1 -32.5 L85.75 -34.6 86.2 -34.2 87.8 -35.1 Q89.3 -36.15 89.95 -37.1 90.45 -36.6 91.0 -36.6 91.25 -36.6 92.85 -37.65 94.5 -38.65 94.95 -39.1 L95.45 -38.75 96.7 -39.1 98.0 -39.7 99.35 -40.45 100.3 -40.9 100.8 -40.65 Q101.0 -40.5 101.15 -40.5 102.5 -40.5 103.5 -41.4 104.4 -42.15 104.4 -42.85 104.35 -44.0 103.65 -44.0 L103.2 -43.9 Q102.75 -45.25 101.05 -46.7 L97.75 -49.4 97.65 -49.65 97.6 -49.6 93.75 -53.3 92.2 -54.25 92.5 -54.8 93.75 -55.6 Q94.15 -55.0 96.35 -53.1 L101.2 -49.05 107.9 -42.7 101.3 -39.35 94.0 -35.5 84.5 -30.9 Q79.9 -28.65 77.85 -27.25 L79.55 -30.7 M98.35 -80.8 L98.45 -81.05 100.75 -82.6 100.95 -81.75 100.3 -80.45 99.6 -79.35 99.65 -79.25 99.1 -79.2 99.0 -79.15 Q98.45 -79.5 98.4 -80.1 L98.35 -80.8 M99.7 -84.3 L100.7 -84.15 Q101.2 -83.95 101.2 -83.6 L98.2 -81.55 98.15 -81.6 98.05 -81.4 96.7 -80.5 96.8 -80.3 97.15 -80.25 97.7 -80.55 97.3 -78.75 97.1 -75.4 Q97.1 -74.35 97.35 -74.1 L97.6 -74.2 97.75 -77.75 98.0 -79.4 Q98.3 -78.5 99.1 -78.5 L99.35 -78.6 99.2 -78.35 98.45 -77.85 98.7 -77.7 99.1 -77.85 99.1 -77.6 Q99.1 -77.25 99.6 -76.7 L100.1 -75.8 99.6 -74.75 99.1 -73.75 99.35 -73.5 99.15 -72.55 Q98.8 -70.65 98.8 -69.85 98.8 -68.9 99.45 -67.0 L100.05 -64.95 99.2 -63.8 98.45 -62.6 97.65 -62.6 97.65 -62.25 97.95 -62.05 96.8 -61.6 95.7 -61.05 95.35 -61.15 93.2 -62.4 94.6 -67.3 Q94.95 -68.7 94.95 -71.25 L94.55 -74.05 94.95 -75.55 94.95 -75.45 94.8 -74.5 Q94.75 -73.6 95.25 -73.6 L95.7 -73.8 Q97.2 -73.8 97.2 -74.15 L97.1 -74.45 95.35 -74.4 95.25 -77.75 Q95.25 -79.65 95.85 -81.5 L95.8 -81.7 96.45 -82.95 96.9 -83.35 96.85 -83.25 97.1 -82.9 97.3 -83.05 97.7 -83.9 Q98.55 -84.3 99.7 -84.3 M85.75 -91.6 L87.5 -88.85 Q88.65 -87.2 90.95 -86.3 93.8 -85.1 94.7 -83.7 95.3 -82.75 95.05 -81.1 L95.2 -81.05 94.9 -80.05 94.7 -77.75 94.8 -76.85 94.35 -75.5 Q94.0 -74.45 94.0 -74.05 L94.2 -72.8 94.1 -72.8 92.85 -69.75 Q92.65 -70.15 92.65 -71.7 92.75 -73.05 92.15 -73.65 L92.4 -74.2 Q92.4 -74.7 91.75 -74.7 L92.15 -75.45 90.9 -76.4 91.5 -77.15 Q91.5 -77.55 90.1 -78.4 L88.55 -79.5 89.85 -79.3 90.45 -79.35 90.55 -79.6 88.4 -84.3 Q86.15 -89.2 85.75 -91.6 M96.0 -87.95 Q96.95 -91.2 96.95 -92.5 L97.4 -89.95 97.5 -87.6 97.15 -84.75 97.05 -84.25 Q96.1 -83.85 95.6 -83.1 L94.95 -84.55 96.0 -87.95 M74.95 -21.95 L75.4 -22.0 77.5 -26.55 94.9 -35.3 Q105.6 -40.6 107.95 -42.15 L107.9 -41.5 Q107.9 -40.8 108.1 -40.55 L108.1 -40.3 107.9 -40.15 108.05 -39.65 Q107.9 -32.7 107.9 -18.6 L107.9 -0.6 107.8 2.4 Q107.8 3.4 107.95 4.25 107.8 4.95 107.8 5.9 L107.9 8.55 107.9 24.15 107.9 34.45 107.75 39.65 Q107.75 42.25 108.05 44.15 106.05 44.85 101.75 47.0 L101.75 34.5 101.9 34.4 101.8 34.15 101.75 34.15 101.75 3.6 101.85 3.55 101.9 -11.15 101.95 -13.1 102.0 -13.2 101.95 -13.75 101.7 -16.0 Q101.15 -19.5 100.2 -22.1 98.5 -26.9 95.05 -30.1 L95.05 -30.65 94.8 -30.9 Q88.85 -25.45 86.5 -18.35 84.9 -13.6 84.4 -5.75 L84.4 -3.9 84.5 -3.85 Q84.25 -2.7 84.25 -1.0 L84.3 2.0 84.3 38.9 84.25 42.1 84.4 44.15 Q83.7 44.8 83.95 46.5 L84.3 50.05 Q84.3 54.05 84.55 55.7 83.55 56.15 82.5 56.65 76.95 59.15 74.7 60.3 L74.55 60.35 74.45 60.35 74.45 32.7 74.55 32.5 74.3 32.1 74.45 5.4 74.45 -8.35 74.5 -15.3 74.2 -21.65 74.45 -22.0 74.4 -22.1 74.9 -22.15 74.95 -21.95 M96.3 -60.5 L98.45 -61.75 98.3 -61.0 98.05 -59.25 98.05 -59.0 97.2 -58.7 96.25 -58.15 96.2 -60.5 96.3 -60.5 M95.05 -41.95 L95.0 -41.95 95.05 -42.0 95.05 -41.95" fill="#aeaeae" fill-rule="evenodd" stroke="none"/>
    <path d="M-18.9 -24.25 L-19.8 -24.05 -21.2 -23.85 Q-22.5 -23.85 -24.15 -24.75 L-24.5 -24.15 -23.9 -23.8 -26.5 -23.85 -29.4 -24.25 -29.6 -23.85 -30.95 -23.75 -31.1 -23.85 -31.3 -23.7 Q-32.4 -23.6 -33.75 -24.3 L-34.15 -24.55 -34.15 -24.6 -35.1 -27.05 -32.95 -29.1 Q-31.1 -31.0 -31.1 -31.35 L-31.2 -31.6 -31.35 -31.9 Q-31.35 -32.35 -28.95 -36.0 -28.6 -36.4 -28.25 -37.95 -27.95 -39.4 -27.25 -40.05 -26.4 -40.8 -25.8 -42.1 L-24.95 -44.05 -21.6 -47.8 -21.9 -48.7 -20.2 -51.5 -19.45 -52.95 -18.85 -54.25 -15.15 -59.45 -15.1 -59.45 -14.2 -59.8 -12.2 -60.0 -11.2 -59.7 -10.65 -59.8 25.0 -59.8 25.0 -56.55 Q25.3 -53.85 26.3 -51.5 27.8 -47.75 31.05 -44.95 34.7 -41.7 38.5 -39.35 39.85 -38.45 47.3 -36.55 L47.35 -36.35 48.35 -36.1 49.7 -36.0 49.85 -36.0 50.5 -35.8 Q50.8 -35.8 50.9 -36.0 60.15 -36.25 67.65 -40.65 70.45 -42.3 75.2 -46.7 76.15 -47.55 78.35 -51.5 L79.05 -52.75 Q81.55 -57.15 82.0 -59.2 L89.65 -59.2 89.65 -59.05 89.65 -58.75 Q89.75 -58.5 90.2 -58.5 L90.55 -58.6 90.6 -58.9 93.45 -58.65 93.8 -58.65 82.55 -37.6 Q76.2 -25.7 75.1 -22.95 L73.7 -22.7 71.7 -23.1 71.25 -23.3 70.45 -23.4 70.45 -23.05 70.6 -22.95 69.15 -22.55 66.15 -23.15 66.05 -23.05 66.15 -22.8 65.05 -22.5 63.4 -22.25 61.35 -22.6 61.0 -22.75 60.9 -22.85 60.55 -22.9 60.2 -22.95 60.2 -22.8 57.95 -22.55 Q56.75 -22.55 56.25 -22.9 L56.45 -23.25 56.2 -23.55 55.8 -23.35 55.45 -23.45 55.4 -23.3 55.45 -23.15 55.3 -23.1 53.4 -22.8 51.6 -23.1 50.15 -23.65 50.15 -23.35 50.7 -23.05 48.6 -22.8 47.05 -23.15 46.05 -23.7 45.95 -23.65 45.75 -23.8 44.7 -23.45 43.4 -23.25 Q42.4 -23.25 42.15 -23.7 41.9 -24.25 41.45 -24.25 L40.45 -23.85 38.1 -23.5 35.8 -23.9 34.95 -24.35 Q34.2 -24.35 33.45 -23.75 L32.4 -23.25 31.05 -23.65 30.3 -24.1 27.8 -23.6 Q27.1 -23.6 26.25 -23.95 L25.35 -24.35 24.7 -23.9 Q24.0 -23.5 22.55 -23.5 L20.3 -23.85 19.4 -24.25 19.2 -24.15 19.25 -24.1 19.2 -24.1 18.65 -23.7 16.7 -23.6 15.1 -23.85 14.8 -24.5 14.4 -24.1 Q14.0 -23.75 13.15 -23.75 L11.85 -24.05 11.0 -24.35 10.5 -23.95 Q10.0 -23.6 9.0 -23.6 8.5 -23.6 7.65 -23.95 L6.95 -24.35 5.7 -23.95 4.3 -23.6 3.0 -23.9 2.1 -24.25 1.6 -23.85 Q1.05 -23.5 0.05 -23.5 L-3.05 -23.95 -3.9 -24.5 -3.95 -24.45 -4.0 -24.1 -3.95 -23.9 -6.45 -23.6 -7.5 -23.8 -8.0 -24.25 -8.25 -23.95 -8.4 -23.95 -8.5 -23.7 -9.2 -23.5 -10.85 -23.35 Q-11.6 -23.35 -12.7 -23.9 L-12.8 -23.95 -12.8 -24.1 -12.9 -24.35 -13.7 -24.45 -14.0 -24.5 -14.0 -24.45 -14.3 -24.5 -14.35 -24.4 -14.4 -24.25 -14.3 -23.9 -17.55 -24.15 -18.9 -24.3 -18.9 -24.25 M108.7 -40.5 L108.5 -42.6 108.55 -42.75 108.45 -42.95 108.4 -42.9 108.3 -43.05 108.2 -42.95 101.3 -49.5 94.2 -56.0 94.45 -56.2 95.85 -57.35 Q96.35 -56.2 99.2 -53.75 L104.55 -49.2 109.4 -44.3 112.95 -40.8 113.05 -40.7 112.95 -40.55 Q112.65 -40.05 111.65 -40.05 L110.3 -40.2 109.65 -40.3 109.35 -40.6 109.05 -40.3 108.75 -40.3 108.7 -40.5" fill="#39528a" fill-rule="evenodd" stroke="none"/>
    <path d="M24.8 -60.35 L24.5 -60.35 -10.4 -60.5 -11.15 -60.3 -15.0 -60.15 -15.1 -60.25 -14.65 -60.3 -14.55 -60.6 -14.65 -60.9 24.85 -60.9 24.8 -60.5 24.8 -60.35 M89.8 -60.25 L89.7 -59.7 82.05 -59.8 82.05 -59.95 81.95 -60.25 89.8 -60.25" fill="#7a93c9" fill-rule="evenodd" stroke="none"/>
    <path d="M95.05 -41.95 L95.05 -41.85 Q95.05 -41.4 95.35 -41.15 L95.5 -41.2 95.75 -42.2 102.4 -44.6 102.65 -44.15 102.3 -43.55 102.4 -43.3 103.25 -43.3 103.6 -43.45 103.9 -42.8 102.95 -41.85 Q101.95 -41.1 101.15 -41.1 L100.05 -41.85 Q99.5 -41.05 97.8 -40.3 L95.5 -39.35 Q95.15 -40.1 94.8 -40.1 L94.55 -40.0 Q94.4 -38.85 92.85 -37.95 91.55 -37.2 90.95 -37.2 90.45 -37.2 90.1 -37.65 L89.75 -38.1 89.45 -37.95 Q89.3 -37.0 87.95 -35.85 86.75 -34.9 86.35 -34.9 L86.15 -34.95 Q86.15 -35.8 85.75 -35.8 L85.4 -35.7 Q85.45 -35.1 84.95 -34.25 L84.1 -33.1 Q83.2 -31.65 81.3 -31.1 L79.65 -30.9 84.3 -40.4 84.4 -40.55 89.95 -50.3 91.95 -53.75 92.05 -53.6 92.15 -53.75 92.3 -53.85 Q92.65 -53.85 94.65 -51.45 L94.15 -50.8 94.45 -50.65 95.4 -50.95 Q96.2 -50.95 96.7 -50.2 L97.1 -49.4 93.0 -48.1 Q89.7 -46.95 89.45 -46.4 L89.75 -46.2 93.15 -47.4 92.95 -46.1 92.65 -45.85 92.95 -45.6 93.2 -45.3 93.7 -45.75 94.95 -46.1 Q96.05 -46.4 96.05 -46.65 L95.95 -46.85 93.85 -46.45 93.75 -47.55 93.75 -47.6 Q96.45 -48.55 97.3 -49.05 L98.5 -48.25 Q99.6 -47.5 99.6 -47.05 L99.35 -46.4 99.6 -45.95 100.25 -46.25 Q100.75 -46.25 101.7 -45.35 L102.05 -45.0 Q88.15 -40.3 88.15 -40.0 88.15 -39.8 88.4 -39.7 L95.0 -41.95 95.05 -41.95 M92.15 -43.45 L92.05 -43.65 87.8 -42.15 Q84.55 -41.0 84.55 -40.6 84.55 -40.45 84.85 -40.35 L87.3 -41.2 87.35 -41.2 87.35 -41.1 87.35 -40.6 87.35 -39.9 Q87.4 -39.3 87.75 -39.3 L88.0 -39.4 88.05 -39.5 88.05 -41.45 89.3 -42.0 Q92.15 -43.2 92.15 -43.45" fill="#8c7a51" fill-rule="evenodd" stroke="none"/>
    <path d="M87.0 39.9 L87.25 39.9 87.25 47.15 87.2 50.9 Q87.2 53.05 87.45 54.45 L84.75 55.65 84.85 49.95 84.75 45.05 84.85 44.95 84.85 40.7 85.0 40.65 85.1 40.7 Q86.65 40.2 86.95 39.9 L87.0 39.9 M99.6 35.5 L99.8 35.6 101.2 34.85 101.2 41.85 101.15 44.7 101.35 47.15 100.6 47.55 100.6 47.5 99.6 47.5 99.6 35.5" fill="#6f6f6f" fill-rule="evenodd" stroke="none"/>
    <path d="M94.5 -29.9 Q94.25 -28.7 94.25 -26.25 L94.0 -24.85 Q93.95 -24.4 94.25 -23.85 91.45 -22.25 89.2 -15.4 87.25 -9.3 87.25 -5.2 L87.4 -4.95 87.35 -4.55 87.25 -4.5 87.3 -4.35 87.2 -1.95 87.25 1.85 87.25 39.25 86.75 39.25 86.75 39.4 Q85.85 39.55 85.4 39.9 L85.35 39.9 84.85 40.05 84.85 -3.4 84.95 -3.7 84.85 -3.85 85.05 -4.0 Q84.95 -11.4 86.9 -17.25 88.6 -22.45 92.05 -26.85 L94.5 -29.9 M95.05 -29.85 L97.55 -26.1 99.8 -21.8 100.75 -17.25 101.3 -14.2 101.3 -13.75 101.35 -11.4 101.35 -1.75 101.2 2.9 101.2 3.55 101.25 3.55 101.15 5.05 101.2 7.95 101.2 34.35 100.3 34.5 99.6 34.85 99.6 -7.75 99.75 -7.85 99.75 -10.85 99.9 -11.05 99.75 -11.3 99.75 -15.95 99.5 -16.25 Q99.25 -15.95 99.15 -15.45 L98.8 -16.9 98.95 -16.95 98.85 -17.15 98.75 -17.1 98.05 -19.25 Q96.7 -22.7 94.8 -23.8 L94.95 -25.7 95.05 -29.85" fill="#848484" fill-rule="evenodd" stroke="none"/>
    <path d="M98.35 -15.4 L98.2 -15.45 98.2 -15.85 98.35 -15.4 M88.35 -9.5 L88.6 -11.45 88.65 -9.8 88.65 -9.55 88.4 -9.4 88.35 -9.5" fill="#515151" fill-rule="evenodd" stroke="none"/>
    <path d="M99.7 48.75 L100.4 48.85 104.9 48.8 Q104.2 48.95 103.25 49.5 L101.7 50.5 101.1 50.4 99.35 50.5 98.6 50.55 98.55 50.25 98.8 49.55 98.55 49.25 99.7 48.65 99.7 48.75 M112.15 49.75 L112.15 50.4 111.1 50.4 110.9 50.35 110.8 50.05 110.85 49.85 112.15 49.75 M118.65 52.1 L118.35 52.35 117.25 52.4 116.4 52.4 116.3 52.15 118.65 52.1 M92.8 53.25 Q92.55 53.25 92.4 53.45 L92.5 53.8 93.45 54.05 89.6 54.1 92.3 53.0 94.05 52.15 94.9 52.8 95.4 53.1 94.05 53.6 92.8 53.25 M97.65 52.8 L98.2 52.95 98.4 53.4 Q98.4 53.75 96.95 54.25 L96.7 54.35 96.55 54.05 94.7 54.05 94.65 53.95 97.65 52.8 M98.0 50.2 L98.1 50.65 98.4 50.9 98.1 51.4 Q97.9 52.0 97.7 52.0 L96.25 51.65 96.3 51.5 96.2 51.3 Q95.5 51.1 95.3 51.55 L95.25 51.55 95.25 52.15 96.9 52.4 96.8 52.45 Q96.3 52.7 95.95 52.9 L95.3 52.2 94.6 51.85 96.4 50.65 98.3 49.45 Q98.0 49.7 98.0 50.2 M106.0 52.8 L104.6 53.15 Q103.2 53.15 103.2 52.6 L103.25 52.3 106.35 52.25 106.0 52.8" fill="#b1b3a2" fill-rule="evenodd" stroke="none"/>
    <path d="M98.35 -15.4 L98.65 -14.2 98.3 -14.05 98.2 -15.45 98.35 -15.4 M96.15 -13.15 L96.15 -15.75 97.65 -16.35 97.6 -13.75 96.15 -13.15 M94.0 -14.85 Q94.75 -15.15 95.6 -15.55 L95.6 -12.9 94.0 -12.2 94.0 -14.85 M91.5 -13.75 L93.45 -14.6 93.45 -12.0 93.45 -11.9 93.05 -11.75 91.5 -11.0 91.5 -13.75 M91.55 -17.05 L93.4 -17.6 93.45 -15.35 92.75 -15.0 91.5 -14.5 91.55 -16.65 91.55 -17.05 M96.15 -16.4 L96.15 -18.5 97.25 -19.05 97.5 -18.5 97.65 -17.95 97.65 -17.8 97.65 -16.9 96.15 -16.4 M95.6 -18.3 L95.6 -17.5 95.6 -16.2 94.0 -15.55 93.95 -17.8 94.95 -18.1 95.6 -18.3 M96.15 -19.3 L96.15 -21.3 97.05 -19.5 96.15 -19.3 M95.6 -19.1 L93.95 -18.6 93.9 -20.35 95.65 -21.15 95.55 -19.85 95.6 -19.1 M91.55 -19.45 L91.65 -19.45 93.4 -20.15 93.4 -18.4 93.1 -18.3 91.5 -17.7 91.25 -18.9 91.55 -19.45 M92.0 -20.1 L92.5 -20.9 93.35 -21.95 93.4 -20.7 92.0 -20.1 M93.8 -22.5 L94.55 -23.45 94.65 -23.5 95.75 -21.9 95.7 -21.65 93.85 -20.95 93.8 -22.5 M90.9 -16.7 L90.95 -14.3 90.95 -14.2 89.3 -13.35 89.05 -13.6 89.2 -14.2 90.0 -16.5 90.85 -16.75 90.9 -16.7 M96.15 -12.5 L97.6 -13.15 97.55 -11.2 97.55 -10.15 96.15 -9.4 96.15 -12.5 M98.8 -13.75 L98.95 -13.3 99.15 -13.3 99.25 -11.9 99.25 -11.0 98.3 -10.55 98.3 -11.5 98.3 -13.45 98.8 -13.75 M90.95 -9.9 L90.95 -9.45 90.95 -6.55 89.25 -5.6 89.3 -9.05 90.95 -9.9 M89.65 -12.75 L90.95 -13.45 90.95 -10.8 89.3 -9.95 89.35 -12.75 89.65 -12.75 M90.95 -17.45 L90.25 -17.15 91.25 -18.9 90.95 -17.45 M91.5 -10.15 L93.45 -11.3 93.4 -7.9 91.5 -6.85 91.5 -10.15 M94.0 -11.55 L95.6 -12.25 95.6 -9.1 94.0 -8.25 94.0 -11.55 M90.95 -6.0 L90.95 -4.8 90.9 -2.35 Q90.9 -1.0 91.25 -0.15 L91.45 -0.25 91.5 -6.25 93.35 -7.2 93.35 -6.8 Q93.35 -3.85 93.75 -1.75 L93.9 -1.8 94.0 -7.55 95.55 -8.35 95.6 -8.35 95.6 -8.15 95.55 -5.7 Q95.55 -4.3 95.85 -3.45 L96.15 -3.6 96.15 -8.6 97.6 -9.35 Q97.65 -6.75 98.0 -4.75 L98.15 -4.8 98.3 -9.8 99.3 -10.4 99.4 -8.5 99.35 -8.5 99.1 -8.3 99.1 48.0 Q90.4 47.95 88.55 48.05 L87.75 48.15 87.75 -4.35 88.65 -4.8 88.65 -2.0 88.6 0.05 Q88.6 1.25 88.95 2.0 L89.2 1.85 89.25 -5.15 90.95 -6.0 M88.25 -8.65 L88.65 -8.75 88.65 -5.8 88.65 -5.3 87.75 -4.75 87.75 -5.4 88.25 -8.65" fill="url(#gradient0)" fill-rule="evenodd" stroke="none"/>
    <path d="M87.75 48.6 L98.6 48.6 96.1 50.2 Q93.8 51.8 92.0 52.5 L88.1 54.2 88.05 54.2 87.75 54.25 87.75 48.6" fill="url(#gradient1)" fill-rule="evenodd" stroke="none"/>
    <path d="M41.75 -59.85 L41.45 -59.6 40.95 -59.7 38.8 -59.85 38.7 -60.45 41.6 -60.1 41.75 -59.85 M42.6 -55.85 L42.5 -54.65 44.6 -54.5 Q46.9 -53.65 49.0 -53.65 L50.0 -53.85 51.8 -53.85 51.75 -54.6 51.75 -55.25 Q51.8 -55.7 52.3 -55.8 52.65 -55.05 52.65 -53.8 52.65 -53.4 52.3 -53.05 L52.05 -53.3 48.95 -53.05 47.5 -53.1 47.5 -53.05 47.4 -52.75 47.2 -52.65 46.95 -53.0 47.0 -53.15 45.05 -53.55 Q42.85 -54.0 42.4 -54.6 L42.25 -54.55 Q42.0 -54.85 42.0 -55.5 L42.0 -56.55 Q42.0 -58.5 42.4 -58.8 L42.65 -58.5 42.8 -58.8 43.05 -58.4 42.85 -55.75 42.7 -55.7 42.6 -55.85 M59.5 -60.15 L61.45 -60.65 64.2 -61.15 64.3 -60.95 Q64.3 -60.75 63.4 -60.5 L60.85 -59.85 59.6 -59.85 59.5 -60.15 M52.5 -59.6 L52.15 -59.2 Q51.85 -59.35 51.85 -60.05 L51.85 -60.4 52.3 -60.95 52.55 -60.15 52.5 -59.6 M80.3 -64.25 L81.1 -64.8 81.35 -64.5 79.85 -63.45 79.6 -63.6 80.3 -64.25 M70.15 -61.75 L70.9 -61.55 73.15 -61.65 74.85 -61.95 74.95 -61.75 Q74.95 -61.2 72.6 -61.2 L70.65 -60.95 70.0 -61.1 70.0 -61.7 70.15 -61.75 M70.5 -50.7 L71.8 -51.3 72.4 -51.5 74.55 -52.25 74.8 -52.0 74.25 -51.5 73.2 -51.05 72.45 -50.8 72.85 -50.9 73.1 -50.65 70.8 -49.85 68.3 -49.3 68.1 -49.5 67.7 -49.45 67.75 -49.0 67.75 -48.7 67.75 -48.05 67.75 -47.9 67.85 -47.25 67.8 -47.0 67.7 -46.9 67.5 -44.85 67.35 -44.8 Q67.05 -44.9 67.05 -45.6 L67.05 -46.2 66.95 -46.45 66.95 -47.8 66.95 -47.9 66.95 -48.3 67.05 -49.05 67.05 -49.15 67.1 -49.35 64.15 -48.8 64.05 -49.05 Q64.05 -49.35 67.55 -50.1 L70.5 -50.7 M77.35 -53.25 L77.3 -53.15 77.1 -53.05 Q76.7 -53.05 76.65 -53.7 L76.65 -54.35 Q76.65 -55.3 76.95 -55.35 L77.2 -54.35 Q77.15 -53.65 77.35 -53.25 M78.0 -54.0 L79.2 -55.15 Q80.5 -56.25 81.25 -56.35 L81.35 -56.15 80.05 -55.0 78.25 -53.75 78.0 -54.0 M27.0 -62.05 Q28.75 -61.05 29.8 -60.75 L29.9 -60.5 29.45 -60.25 Q29.05 -60.25 27.8 -60.95 L27.85 -60.8 27.85 -60.6 28.0 -60.05 27.75 -57.8 27.6 -57.75 27.35 -58.2 27.4 -59.15 27.2 -59.55 Q27.2 -60.4 27.5 -61.15 L27.2 -61.3 24.95 -62.8 24.95 -63.15 27.0 -62.05 M26.25 -57.75 Q26.0 -57.75 25.55 -58.4 25.2 -59.05 25.2 -59.5 26.2 -59.95 26.55 -58.05 L26.45 -57.85 Q26.55 -57.75 26.25 -57.75 M29.6 -53.55 L30.55 -52.85 31.2 -52.45 33.55 -51.5 34.05 -51.3 Q36.7 -50.25 38.4 -50.2 L38.55 -50.0 Q38.4 -49.75 38.25 -49.75 L35.3 -50.25 35.05 -50.1 Q34.65 -50.1 33.2 -50.8 L32.95 -47.4 33.5 -47.45 33.6 -47.2 33.6 -47.1 33.8 -47.05 37.9 -46.05 38.0 -45.85 37.75 -45.6 Q37.05 -45.6 34.4 -46.45 L33.05 -46.9 32.95 -46.9 32.95 -46.7 32.65 -46.55 32.45 -46.9 31.6 -47.25 32.0 -46.85 31.95 -46.75 Q31.9 -46.65 31.75 -46.65 31.2 -46.65 30.3 -47.35 29.3 -48.15 29.2 -48.85 L29.45 -48.8 29.45 -48.85 30.9 -48.05 31.4 -47.75 31.35 -47.85 31.35 -48.35 32.05 -48.35 32.0 -47.9 Q32.0 -47.75 32.35 -47.55 L32.3 -48.1 32.5 -49.75 32.75 -51.0 31.85 -51.5 31.6 -51.6 31.4 -51.7 31.35 -51.7 Q31.15 -51.7 30.45 -52.2 28.65 -53.2 28.15 -53.75 L28.15 -54.5 29.6 -53.55 M34.0 -60.0 L34.25 -59.7 34.25 -59.35 34.4 -58.9 34.15 -56.45 34.75 -56.15 Q35.6 -55.5 37.0 -55.6 L37.1 -55.35 Q36.8 -55.05 36.45 -55.05 35.7 -55.05 34.65 -55.4 33.75 -55.65 33.45 -55.85 L33.35 -55.85 Q33.1 -56.15 33.1 -56.6 33.1 -58.8 34.0 -60.0 M32.35 -44.6 Q34.05 -44.45 40.65 -42.0 L40.95 -41.65 40.7 -39.75 40.55 -39.7 Q40.3 -40.0 40.3 -40.45 40.3 -41.35 40.45 -41.75 L40.4 -41.75 Q39.9 -41.75 36.15 -42.9 32.3 -44.1 32.3 -44.3 L32.35 -44.6 M17.45 -13.75 L20.25 -13.8 Q20.05 -14.3 20.15 -15.0 L20.3 -17.15 20.4 -17.3 14.45 -17.25 Q14.5 -17.15 14.25 -17.15 13.95 -17.15 13.45 -17.6 L13.45 -17.9 13.7 -17.95 26.7 -17.95 26.8 -17.7 26.7 -17.4 20.95 -17.3 20.95 -13.8 29.25 -13.85 29.35 -13.55 29.25 -13.3 27.75 -13.25 27.75 -10.8 27.5 -10.65 Q27.2 -11.0 27.2 -12.1 27.2 -12.8 27.35 -13.25 L20.95 -13.15 20.65 -13.05 20.55 -13.15 17.9 -13.15 Q17.45 -13.15 17.45 -13.75 M10.7 -13.3 L9.3 -13.25 9.3 -13.0 9.1 -12.9 9.0 -13.2 7.2 -13.15 6.8 -13.2 6.8 -13.75 7.05 -13.85 8.85 -13.85 8.8 -15.35 Q8.8 -17.25 9.1 -17.85 L9.35 -15.4 9.35 -13.85 10.7 -13.85 10.8 -13.55 10.7 -13.3 M6.95 -3.15 L18.25 -3.15 18.25 -3.6 18.4 -5.1 Q18.35 -6.2 18.7 -6.65 L18.95 -4.75 18.9 -3.15 19.5 -3.15 19.6 -2.9 19.5 -2.65 12.55 -2.55 12.55 1.9 16.7 1.9 16.8 2.15 16.7 2.45 12.55 2.55 12.55 3.75 12.3 3.95 11.9 2.6 10.4 2.6 9.7 2.25 Q9.7 2.0 10.0 1.9 L11.8 1.9 11.7 0.85 11.75 -2.2 11.85 -2.55 7.3 -2.45 Q7.0 -2.45 6.7 -2.8 L6.95 -3.15 M58.9 -48.4 Q59.5 -48.55 59.5 -46.65 L59.35 -43.75 59.3 -43.55 59.05 -43.45 Q58.15 -42.7 55.25 -42.55 L53.0 -42.55 53.2 -41.3 Q53.2 -39.5 52.65 -38.4 52.4 -39.3 52.4 -40.55 52.4 -41.95 52.55 -42.55 L52.45 -42.55 49.7 -43.05 49.15 -43.25 49.05 -43.2 Q48.75 -43.2 48.55 -43.4 L47.35 -43.6 47.35 -43.65 Q46.55 -43.85 46.55 -44.0 46.55 -44.3 47.15 -44.25 L47.1 -44.35 47.05 -44.85 47.05 -45.35 46.95 -45.0 46.8 -44.95 46.55 -45.2 46.75 -47.3 46.8 -47.35 47.35 -46.85 47.3 -46.3 Q47.85 -46.3 47.85 -45.35 L47.7 -44.2 47.8 -44.2 50.05 -43.65 50.15 -43.5 52.35 -43.1 55.35 -43.45 58.55 -43.65 58.25 -44.55 58.25 -45.9 Q58.25 -48.25 58.9 -48.4 M57.75 -8.35 L65.5 -8.6 Q65.25 -9.15 65.25 -9.95 L65.35 -11.8 65.4 -11.9 62.9 -11.95 62.8 -12.25 Q62.8 -12.5 63.7 -12.5 L74.5 -12.55 74.55 -12.2 74.5 -11.85 65.9 -11.9 66.0 -10.25 65.9 -8.3 65.8 -8.1 57.85 -8.1 57.75 -8.35 M74.7 -17.55 L74.6 -17.3 66.8 -17.3 66.7 -17.55 67.2 -17.75 74.6 -17.85 74.7 -17.55 M80.75 -22.75 L83.2 -24.15 84.4 -24.7 84.4 -24.75 84.55 -24.85 86.95 -25.8 87.05 -25.55 Q87.05 -25.4 85.1 -24.4 L85.1 -24.2 85.35 -24.2 85.45 -23.95 85.1 -23.6 85.1 -23.25 85.0 -21.65 84.85 -21.55 Q84.5 -22.0 84.55 -23.05 L84.5 -24.15 80.95 -22.45 80.95 -22.35 80.75 -21.45 80.55 -21.4 Q80.3 -21.7 80.3 -22.1 80.3 -22.75 80.55 -23.0 L80.75 -22.75 M66.15 -4.5 L74.05 -4.5 74.15 -4.25 Q74.15 -3.9 73.0 -3.85 L66.0 -3.95 65.9 -4.25 66.15 -4.5 M72.05 -8.4 L74.05 -8.5 74.15 -8.25 74.05 -7.95 72.0 -7.95 71.85 -8.25 72.05 -8.4 M75.55 -5.05 Q76.55 -5.7 77.15 -5.8 L77.35 -6.1 77.65 -4.0 77.6 -2.55 78.6 -2.95 81.25 -4.4 85.25 -6.05 85.35 -5.85 82.55 -4.3 81.65 -3.85 Q82.15 -3.4 82.0 -1.45 L82.0 -0.85 85.1 -2.2 85.2 -1.95 82.0 -0.3 81.9 0.8 81.75 0.85 81.35 0.05 78.8 1.25 78.55 1.1 Q79.1 0.5 81.3 -0.55 L81.25 -1.35 81.35 -3.7 81.4 -3.75 79.7 -3.0 Q79.35 -2.65 77.95 -2.0 L75.5 -0.85 75.25 -1.05 Q75.4 -1.4 77.05 -2.25 L76.95 -2.6 76.9 -4.5 77.0 -5.25 74.7 -3.95 74.45 -4.25 75.55 -5.05 M89.6 -85.35 L89.15 -85.65 89.2 -85.6 89.6 -85.35 M88.65 -85.1 Q88.65 -84.8 89.1 -84.15 L89.9 -83.35 89.85 -83.15 Q89.9 -83.05 89.65 -83.05 88.95 -83.05 88.45 -84.1 L88.15 -85.15 88.55 -85.7 88.75 -85.25 88.65 -85.1 M89.7 -84.2 L89.75 -84.25 89.8 -84.2 89.95 -84.4 90.45 -84.5 89.55 -85.05 Q87.85 -86.1 87.85 -86.75 88.55 -86.8 88.55 -86.3 L93.45 -83.15 Q94.6 -82.1 94.7 -80.25 L94.7 -80.2 94.7 -79.95 94.6 -79.5 94.45 -79.45 94.35 -79.55 94.15 -79.55 93.95 -79.2 94.0 -78.8 94.0 -78.9 94.25 -79.45 94.6 -78.4 94.85 -78.35 94.95 -78.1 94.7 -77.85 94.7 -77.05 95.25 -77.3 95.5 -77.05 Q95.5 -76.85 94.65 -76.45 L94.4 -74.5 94.15 -74.4 Q93.9 -74.5 93.9 -74.7 L94.1 -76.3 93.3 -76.15 93.35 -76.05 93.3 -75.95 93.1 -75.8 92.25 -76.05 92.15 -75.8 Q92.6 -75.35 93.35 -75.55 L93.45 -75.3 93.35 -75.0 92.55 -74.9 91.75 -75.35 Q91.6 -75.6 91.6 -75.8 91.6 -76.4 92.15 -76.55 L92.1 -76.6 91.85 -76.9 Q91.4 -76.95 91.0 -77.35 L90.7 -77.85 Q90.85 -78.65 91.15 -78.65 L90.55 -79.45 90.75 -79.65 90.55 -80.25 90.9 -80.75 90.8 -81.15 90.7 -81.4 90.65 -81.65 90.5 -81.85 90.25 -82.45 90.5 -82.8 Q89.65 -83.55 89.65 -83.85 L89.7 -84.2 M90.45 -83.95 L92.35 -82.55 92.55 -82.5 Q92.15 -82.85 92.15 -83.1 L92.2 -83.4 90.7 -84.35 90.7 -84.25 90.4 -84.0 90.45 -83.95 M96.35 -84.55 Q96.0 -83.45 95.75 -83.45 L95.35 -83.5 95.3 -84.25 95.2 -84.35 Q95.05 -84.35 95.05 -84.5 95.05 -85.0 95.5 -85.8 96.05 -86.75 96.55 -86.6 L96.7 -86.35 96.35 -84.55 M97.35 -80.6 L97.8 -80.45 97.9 -80.25 97.6 -79.15 97.35 -78.55 97.35 -78.45 97.3 -76.35 97.1 -76.25 Q96.6 -76.95 96.55 -78.05 L96.55 -78.5 96.55 -78.95 96.7 -80.75 97.35 -80.6 M100.95 -81.1 L99.75 -79.6 100.05 -79.3 99.75 -79.0 Q99.25 -79.0 98.7 -79.45 L98.3 -80.0 Q98.3 -80.75 98.85 -80.4 L99.0 -80.3 100.7 -81.4 100.95 -81.1 M92.8 -82.0 L92.85 -81.8 92.9 -81.8 92.9 -81.9 93.1 -81.85 92.85 -82.15 92.8 -82.0 M91.5 -81.6 L91.45 -81.4 91.8 -81.15 92.65 -80.95 92.85 -80.9 91.8 -81.75 90.95 -82.4 91.15 -81.9 91.5 -81.6 M93.75 -80.0 L93.6 -79.9 93.1 -79.45 Q93.1 -78.55 93.75 -78.4 L93.7 -78.45 Q93.35 -78.85 93.35 -79.2 93.35 -79.55 93.8 -79.95 L93.75 -80.0 M92.6 -80.0 L91.95 -80.25 92.15 -79.7 91.85 -79.45 Q91.55 -79.45 91.35 -79.7 L91.8 -79.15 92.3 -78.6 92.8 -78.45 92.65 -78.65 92.55 -79.5 92.6 -80.0 M91.4 -77.7 L91.8 -77.5 91.85 -77.75 91.95 -77.9 91.7 -78.1 91.3 -78.0 91.4 -77.7 M92.55 -77.7 L92.45 -77.7 92.4 -77.4 92.45 -77.4 92.55 -77.15 92.45 -77.0 92.65 -76.85 Q92.9 -76.7 93.05 -76.7 L94.15 -76.9 94.05 -77.85 93.6 -77.9 93.2 -77.7 92.75 -77.75 92.55 -77.7 M99.2 -78.2 L98.8 -78.1 Q97.75 -78.1 97.75 -78.7 97.75 -79.35 98.5 -79.1 L99.25 -78.5 99.2 -78.2 M99.6 -75.3 L99.75 -75.4 99.9 -74.9 99.55 -74.0 99.75 -73.3 99.45 -72.3 99.35 -72.05 98.85 -69.95 98.55 -68.2 Q98.6 -67.25 98.8 -66.6 L99.1 -65.2 98.95 -64.95 98.8 -64.9 98.45 -65.9 98.3 -65.85 Q98.05 -66.0 97.95 -66.8 L97.9 -67.65 97.9 -67.8 97.75 -68.15 Q97.75 -72.6 98.65 -74.0 L99.1 -74.75 99.2 -74.75 99.55 -74.8 99.6 -75.15 99.6 -75.3 M96.4 -72.5 L96.7 -70.1 96.55 -67.0 96.15 -65.2 96.05 -64.85 96.0 -64.8 95.45 -63.65 95.25 -63.55 94.95 -63.8 95.5 -65.75 95.85 -66.9 95.95 -67.25 95.75 -68.6 95.95 -69.7 95.65 -72.1 95.6 -72.15 94.8 -73.25 Q95.85 -73.65 96.15 -73.1 L96.25 -72.1 96.25 -72.05 96.4 -72.5 M93.2 -62.9 L93.4 -62.8 93.45 -62.9 93.55 -63.05 93.9 -63.3 94.0 -63.0 94.35 -62.7 94.7 -62.35 96.1 -62.05 96.85 -62.55 97.95 -63.15 98.4 -64.0 Q99.2 -65.45 99.75 -65.55 L99.9 -65.3 99.55 -64.95 99.9 -64.6 99.25 -63.45 99.25 -63.3 98.65 -62.75 97.9 -61.95 97.8 -62.05 97.6 -61.95 97.1 -61.65 97.1 -61.6 97.1 -61.45 97.1 -61.4 96.9 -61.05 96.4 -60.8 Q96.0 -60.8 95.3 -61.2 L94.25 -61.6 Q93.4 -61.95 93.35 -62.5 L93.2 -62.9 M100.05 -50.4 L100.3 -50.1 100.3 -47.6 100.05 -47.45 Q99.65 -47.75 99.6 -48.5 L99.6 -49.8 Q99.6 -50.2 100.05 -50.4 M105.75 -45.05 Q105.75 -44.6 105.3 -44.4 L103.75 -43.7 103.5 -44.0 Q103.5 -44.45 104.0 -44.7 L105.5 -45.3 105.75 -45.05 M106.45 -37.45 L106.0 -37.25 106.15 -37.05 Q106.15 -36.5 105.25 -36.5 L105.2 -36.5 105.2 -34.6 105.4 -34.6 107.15 -35.4 107.25 -35.2 Q107.25 -34.8 102.2 -32.15 L102.3 -32.1 102.3 -28.9 106.15 -30.7 106.3 -30.5 Q106.3 -30.15 102.8 -28.5 99.1 -26.7 98.45 -25.95 L97.75 -25.95 97.65 -26.2 Q97.65 -26.55 101.1 -28.3 L101.9 -28.7 Q101.75 -29.2 101.75 -30.35 101.75 -31.45 101.9 -31.95 L99.8 -30.9 99.6 -30.95 99.5 -31.15 102.75 -33.1 104.95 -34.3 104.95 -34.35 Q104.7 -34.75 104.7 -35.75 L104.75 -36.6 104.7 -36.6 104.4 -36.8 105.85 -38.0 Q106.9 -38.7 107.5 -38.9 L107.75 -38.65 Q107.75 -38.2 106.45 -37.45 M101.6 -35.35 Q100.2 -34.65 99.8 -34.65 L99.6 -34.7 97.7 -33.65 94.95 -32.35 94.95 -32.25 94.7 -32.1 Q94.5 -32.4 94.45 -33.5 L94.45 -33.55 94.45 -33.9 Q94.45 -35.4 94.7 -35.8 L94.95 -35.55 94.95 -33.0 97.15 -34.3 Q99.3 -35.4 99.8 -35.5 L99.75 -36.35 Q99.75 -37.65 100.05 -37.95 L100.3 -37.7 100.3 -35.4 101.1 -35.9 103.1 -36.9 103.35 -36.6 101.6 -35.35 M90.15 -35.2 Q90.15 -35.8 90.45 -36.1 L90.7 -35.25 90.6 -34.55 90.45 -34.5 Q90.15 -34.75 90.15 -35.2 M88.55 -22.9 Q88.55 -22.5 82.7 -19.55 L82.45 -19.8 Q82.45 -20.1 84.75 -21.4 87.15 -22.85 88.45 -23.1 L88.55 -22.9 M108.3 -10.75 Q108.3 -10.5 106.75 -9.6 L106.8 -8.75 106.75 -7.5 106.95 -7.5 106.95 -7.45 107.25 -7.55 107.5 -7.3 Q106.9 -6.85 104.95 -5.95 L104.8 -5.9 104.85 -5.0 104.85 -3.75 106.05 -4.0 106.15 -3.8 Q103.0 -2.45 102.3 -2.45 102.05 -2.45 101.9 -2.65 102.5 -3.15 104.0 -3.55 L104.15 -3.6 104.1 -5.2 104.15 -5.55 102.55 -5.05 102.3 -5.2 Q102.55 -5.7 104.4 -6.5 L104.55 -6.65 104.6 -6.55 106.15 -7.15 Q106.15 -7.4 106.45 -7.5 106.3 -7.85 106.3 -8.75 L106.35 -9.4 105.8 -9.15 105.6 -9.2 105.5 -9.4 Q105.5 -9.5 106.4 -10.0 L106.55 -10.35 106.65 -10.15 106.7 -10.2 108.2 -10.95 108.3 -10.75 M101.5 23.1 Q101.7 22.1 106.45 20.75 L106.7 21.0 105.15 21.85 105.15 22.1 105.25 22.4 105.35 23.1 105.35 23.9 105.3 23.95 106.05 23.8 106.15 24.05 Q106.15 24.45 105.15 24.8 L104.95 24.85 103.6 25.25 103.35 25.0 Q103.35 24.6 104.15 24.25 L104.75 24.05 104.7 23.1 104.7 22.55 104.7 22.15 104.75 22.0 104.4 22.1 Q102.35 22.9 101.75 23.25 L101.5 23.1 M81.2 31.25 L78.6 32.7 77.75 33.1 77.75 35.7 80.4 34.6 80.65 34.85 77.75 36.3 77.75 36.4 77.45 36.55 77.4 36.45 74.55 37.8 74.25 37.65 70.25 37.65 70.45 39.4 70.45 40.3 74.45 40.3 74.55 40.55 74.45 40.85 70.4 40.9 70.3 41.3 70.15 41.35 70.0 40.9 67.5 40.95 66.9 40.95 66.8 40.35 67.05 40.3 69.95 40.3 69.9 39.45 Q69.9 38.1 70.05 37.65 L62.55 37.65 62.45 37.35 74.75 37.0 74.8 37.2 Q75.5 36.75 77.3 35.95 L77.2 34.3 77.25 33.35 75.05 34.45 74.8 34.15 Q74.8 33.85 77.3 32.7 L77.45 31.95 77.75 32.2 77.75 32.45 Q80.4 31.2 81.1 31.05 L81.2 31.25 M81.15 34.5 L81.2 34.45 81.65 34.7 81.9 35.1 81.65 36.8 81.45 36.85 Q81.1 36.4 81.1 34.7 L81.15 34.5 M41.0 3.25 L36.3 3.25 36.15 5.25 36.15 6.45 40.2 6.45 40.3 6.7 40.2 6.95 36.1 7.05 36.1 7.15 35.85 7.25 35.75 7.05 33.9 7.15 33.2 6.8 Q33.2 6.55 33.45 6.45 L35.55 6.45 35.45 5.55 35.5 3.65 35.65 3.25 29.55 3.25 29.45 2.95 Q27.55 2.6 41.0 2.7 L41.1 2.95 41.0 3.25 M42.95 38.0 L42.85 38.3 32.55 38.3 32.3 37.9 32.35 37.55 32.4 37.5 42.85 37.75 42.95 38.0 M74.45 44.15 L74.55 44.4 74.45 44.7 71.2 44.7 Q71.05 44.7 71.05 44.4 L74.45 44.15 M79.75 48.45 L78.1 49.75 Q78.55 50.3 78.55 51.95 L78.45 52.8 78.25 52.85 Q77.75 52.3 77.75 50.05 L77.8 49.95 74.95 51.5 74.7 51.35 Q75.2 50.25 79.65 48.25 L79.75 48.45 M39.1 26.0 L31.15 26.0 31.4 27.2 31.35 29.05 31.35 29.2 36.2 29.2 36.3 29.5 36.2 29.75 27.65 29.75 27.75 30.95 27.7 32.25 29.8 32.3 29.9 32.55 29.8 32.85 25.2 32.85 25.1 32.55 Q25.1 32.2 25.55 32.2 L27.35 32.25 Q27.05 31.6 27.05 30.0 L27.1 29.75 24.95 29.75 Q24.8 29.75 24.8 29.5 24.8 29.3 25.8 29.25 L30.8 29.2 30.7 27.7 30.8 26.0 28.5 26.0 28.4 25.75 Q28.4 25.4 29.5 25.4 L39.1 25.5 39.2 25.75 39.1 26.0 M25.25 49.1 L25.1 48.8 25.35 48.65 31.8 48.7 31.75 47.55 31.85 46.1 28.4 46.2 27.9 45.9 27.75 45.6 28.0 45.45 31.95 45.5 32.0 45.4 32.05 45.5 38.3 45.5 38.4 45.75 38.3 46.0 32.25 46.1 32.3 47.5 32.3 48.7 36.8 48.7 36.95 48.95 36.8 49.2 32.25 49.3 32.25 49.65 32.0 49.75 31.85 49.3 25.75 49.4 Q25.4 49.4 25.25 49.1 M35.85 40.0 Q35.85 38.7 36.15 38.45 L36.4 38.7 36.4 41.3 36.15 41.5 Q35.85 41.05 35.85 40.0 M-30.95 -17.0 L-30.65 -17.4 -30.0 -17.0 -8.8 -17.05 -8.7 -16.75 -8.8 -16.5 -17.9 -16.5 -17.8 -16.2 -17.75 -16.0 -17.85 -15.15 -17.75 -14.5 Q-17.7 -14.1 -17.95 -13.75 L-18.1 -13.7 -18.2 -13.7 -18.3 -12.9 -18.0 -12.9 -7.55 -12.9 -7.45 -12.6 -7.55 -12.35 -24.15 -12.25 -24.25 -12.5 Q-24.25 -12.7 -23.65 -12.75 L-18.7 -12.9 -18.8 -13.6 -18.75 -14.85 -18.55 -15.3 -18.55 -15.45 -18.35 -16.5 -29.55 -16.5 -29.75 -16.35 Q-30.95 -16.35 -30.95 -17.0 M-11.1 -11.95 L-11.15 -8.5 -2.1 -8.5 -2.0 -8.25 -2.1 -7.95 -11.15 -7.8 -11.2 -7.05 -11.45 -6.9 -11.6 -7.8 -14.1 -7.8 Q-14.5 -7.8 -14.9 -8.15 L-14.9 -8.45 -14.65 -8.5 -11.65 -8.5 -11.7 -9.5 -11.45 -12.25 -11.2 -12.25 -11.1 -11.95 M-23.05 0.55 L-31.0 0.55 -31.1 0.3 -23.05 0.05 Q-22.9 0.05 -22.9 0.3 L-23.05 0.55 M-24.0 4.05 L-24.1 4.3 -26.35 4.35 -26.3 4.45 -26.3 7.85 -23.7 7.95 -23.6 8.2 -23.7 8.45 -26.3 8.45 -26.3 8.55 -26.55 8.75 -26.7 8.45 -30.4 8.45 -30.65 8.4 -30.6 7.8 -26.85 7.85 -27.0 6.95 -26.9 5.05 -26.65 4.35 -30.65 4.45 -31.35 4.15 -31.1 3.75 -24.1 3.75 Q-24.0 3.75 -24.0 4.05 M-30.4 46.0 L-22.5 45.9 -22.4 46.2 -22.5 46.45 -30.8 46.45 -30.95 46.2 Q-30.95 46.0 -30.4 46.0 M-29.0 46.55 L-28.8 46.55 Q-28.4 46.65 -28.4 47.05 L-28.5 49.95 -19.45 50.0 -19.35 50.3 -19.45 50.55 -28.6 50.55 -28.6 50.6 -28.8 50.7 -28.85 50.55 -31.25 50.55 -31.35 50.3 Q-31.35 49.9 -30.15 49.9 L-28.95 49.95 -29.05 48.65 -29.0 46.55 M-4.25 30.8 L-4.35 31.1 -11.7 31.1 -11.6 33.2 -11.65 35.25 -3.7 35.25 -3.6 35.5 -3.7 35.75 -16.85 35.75 -16.95 35.5 -15.85 35.3 -12.05 35.25 -12.15 33.25 -12.0 31.1 -16.4 31.1 -16.5 30.8 Q-16.5 30.45 -6.3 30.55 L-6.4 29.6 -6.25 28.3 -9.75 28.3 -9.85 28.05 -0.25 27.75 -0.15 28.05 -0.25 28.3 -5.85 28.3 -5.85 30.55 -4.35 30.55 -4.25 30.8" fill="#6f6f6f" fill-rule="evenodd" stroke="none"/>
    <path d="M96.9 -83.15 L97.0 -83.3 97.1 -83.25 96.9 -83.15" fill="#c4c4c4" fill-rule="evenodd" stroke="none"/>
    <path d="M97.75 -88.75 Q97.75 -86.95 97.3 -85.25 L97.1 -85.15 96.85 -85.45 97.05 -86.8 97.2 -88.8 96.95 -91.15 Q96.95 -91.6 97.2 -91.85 L97.75 -88.75 M88.2 -89.0 L90.55 -86.4 Q92.65 -85.7 94.1 -84.35 95.6 -82.95 95.6 -81.7 L95.55 -81.4 Q95.6 -81.3 95.35 -81.3 L94.35 -83.05 Q92.85 -84.95 90.5 -85.85 88.5 -86.55 85.65 -90.65 L85.65 -90.95 Q86.5 -90.95 88.2 -89.0 M97.0 -83.3 L96.95 -83.35 97.1 -83.45 97.5 -83.75 Q99.7 -85.65 100.55 -84.25 L101.0 -84.3 101.1 -84.1 100.7 -83.9 100.6 -83.75 100.15 -83.7 99.55 -83.5 99.6 -83.45 97.1 -82.25 96.85 -82.4 97.1 -82.7 96.95 -82.65 96.55 -82.8 96.9 -83.15 97.1 -83.25 97.0 -83.3 M99.35 -81.4 L99.1 -81.6 100.1 -82.3 101.1 -82.45 101.2 -82.25 Q101.2 -82.0 100.6 -81.85 L99.35 -81.4 M99.1 -74.75 Q98.7 -74.8 98.7 -75.25 L98.8 -76.1 98.85 -76.3 98.45 -76.8 98.45 -77.1 Q98.95 -77.35 99.55 -76.85 L100.15 -76.1 99.9 -75.8 Q99.65 -75.8 99.45 -75.95 L99.6 -75.3 99.6 -75.15 99.55 -74.8 99.2 -74.75 99.1 -74.75 M100.7 48.4 L101.35 48.3 101.5 48.5 101.5 48.6 101.55 48.6 101.65 48.8 101.35 49.05 100.8 48.95 100.35 49.05 99.25 49.6 99.5 49.85 99.25 50.1 98.8 49.8 98.8 49.45 98.9 49.3 98.8 49.2 Q98.8 48.8 99.9 48.6 L100.05 48.5 100.05 48.3 100.7 48.4" fill="#dddddd" fill-rule="evenodd" stroke="none"/>
    <path d="M4.1 -1.5 L4.3 -1.5 4.4 -1.3 4.4 58.9 4.55 59.2 4.5 59.4 4.55 59.65 1.65 62.0 -1.75 64.25 -1.8 64.35 -1.85 64.35 -2.05 64.45 -2.25 65.4 -2.4 65.45 -2.65 64.8 -2.8 64.9 -3.1 64.75 -2.65 64.4 -2.65 64.35 -2.6 64.2 -8.4 64.2 Q-8.5 64.5 -9.2 64.5 -10.05 64.45 -10.3 64.0 L-10.1 63.85 -10.1 63.8 -5.95 48.8 Q-1.85 32.85 -1.85 17.4 L-1.75 13.2 -1.5 9.15 -1.75 0.05 -1.85 -0.75 Q-1.8 -1.55 -1.15 -1.6 L-1.1 -1.4 3.95 -1.5 4.0 -1.65 4.1 -1.5 M20.2 -1.6 L20.25 -1.4 25.3 -1.5 25.35 -1.65 25.45 -1.5 25.6 -1.5 25.75 -1.3 25.75 58.9 25.9 59.2 25.85 59.4 25.9 59.65 Q25.9 59.95 23.0 62.0 L19.6 64.25 19.55 64.35 19.5 64.35 19.25 64.45 19.1 65.4 18.95 65.45 18.7 64.8 18.55 64.9 18.25 64.75 18.7 64.4 18.7 64.35 18.75 64.2 12.9 64.2 Q12.8 64.5 12.1 64.5 11.25 64.45 11.05 64.0 L11.2 63.85 11.2 63.8 15.4 48.8 Q19.5 32.85 19.5 17.4 L19.6 13.2 19.85 9.15 19.6 0.05 19.5 -0.75 Q19.55 -1.55 20.2 -1.6 M20.25 -0.95 L20.15 0.4 20.4 9.15 Q20.4 23.45 18.3 36.35 16.3 48.95 11.65 63.7 L11.75 63.7 12.2 63.8 12.65 63.7 19.1 63.6 20.4 58.45 Q21.85 52.05 22.0 47.65 22.1 44.65 22.8 39.4 L23.75 31.2 24.6 14.8 24.8 6.6 24.95 2.5 25.0 0.35 Q25.0 -0.4 25.15 -0.95 L20.25 -0.95 M47.05 -1.3 L47.05 58.9 47.2 59.2 47.15 59.4 47.2 59.65 Q47.2 59.95 44.35 62.0 L40.95 64.25 40.9 64.35 40.8 64.35 40.6 64.45 40.45 65.4 40.3 65.45 40.0 64.8 39.85 64.9 39.6 64.75 40.0 64.4 40.0 64.35 40.1 64.2 34.25 64.2 Q34.15 64.5 33.45 64.5 32.6 64.45 32.4 64.0 L32.55 63.85 32.55 63.8 36.7 48.8 Q40.8 32.85 40.8 17.4 40.8 14.6 40.95 13.2 L41.2 9.15 40.95 0.05 40.8 -0.75 Q40.9 -1.55 41.5 -1.6 L41.55 -1.4 46.65 -1.5 46.7 -1.65 46.8 -1.5 46.95 -1.5 47.05 -1.3 M41.55 -0.95 L41.45 0.4 41.75 9.15 Q41.75 23.45 39.65 36.35 37.6 48.95 33.0 63.7 L33.1 63.7 33.5 63.8 34.0 63.7 40.45 63.6 41.75 58.45 Q43.15 52.05 43.35 47.65 43.45 44.65 44.15 39.4 L45.1 31.2 45.95 14.8 46.15 6.6 46.25 2.5 46.3 0.35 46.5 -0.95 41.55 -0.95 M68.0 -1.5 L68.05 -1.65 68.15 -1.5 68.3 -1.5 68.4 -1.3 68.4 58.9 68.55 59.2 68.5 59.4 68.55 59.65 Q68.55 59.95 65.7 62.0 63.8 63.25 62.25 64.25 L62.2 64.35 62.15 64.35 61.95 64.45 61.8 65.4 61.65 65.45 61.35 64.8 61.2 64.9 60.95 64.75 61.35 64.4 61.35 64.35 61.4 64.2 55.6 64.2 Q55.5 64.5 54.8 64.5 53.95 64.45 53.75 64.0 L53.9 63.85 53.9 63.8 58.05 48.8 Q62.15 32.85 62.15 17.4 L62.25 13.2 62.55 9.15 62.25 0.05 62.15 -0.75 Q62.2 -1.55 62.85 -1.6 L62.9 -1.4 68.0 -1.5 M62.9 -0.95 L62.8 0.4 63.05 9.15 Q63.05 23.45 61.0 36.35 58.95 48.95 54.3 63.7 L54.45 63.7 54.85 63.8 55.35 63.7 61.8 63.6 63.05 58.45 Q64.5 52.05 64.65 47.65 64.8 44.65 65.45 39.4 L66.45 31.2 67.3 14.8 67.5 6.6 67.6 2.5 67.65 0.35 Q67.65 -0.4 67.8 -0.95 L62.9 -0.95 M45.15 34.35 Q43.3 56.15 41.2 63.3 L43.35 61.65 46.4 59.75 46.4 59.6 Q46.4 59.45 46.55 59.35 L46.55 14.65 45.15 34.35 M66.5 34.35 Q64.6 56.15 62.55 63.3 L64.65 61.65 67.75 59.75 67.75 59.6 67.85 59.35 67.85 14.65 Q67.45 23.4 66.5 34.35 M3.6 2.5 L3.65 0.35 Q3.65 -0.4 3.8 -0.95 L-1.1 -0.95 -1.2 0.4 -0.95 9.15 Q-0.95 23.45 -3.05 36.35 -5.05 48.95 -9.7 63.7 L-9.6 63.7 -9.15 63.8 -8.7 63.7 -2.25 63.6 -0.95 58.45 Q0.5 52.05 0.65 47.65 0.75 44.65 1.45 39.4 L2.4 31.2 3.25 14.8 3.5 6.6 3.6 2.5 M2.45 34.35 Q0.6 56.15 -1.5 63.3 L0.65 61.65 Q2.45 60.4 3.75 59.75 L3.75 59.6 3.85 59.35 3.85 14.65 Q3.45 23.4 2.45 34.35 M23.8 34.35 Q21.95 56.15 19.85 63.3 20.8 62.5 22.0 61.65 L25.1 59.75 25.1 59.6 25.2 59.35 25.2 14.65 23.8 34.35 M-22.5 -1.6 L-22.45 -1.4 -17.4 -1.5 -17.3 -1.65 -17.2 -1.5 -17.05 -1.5 -16.95 -1.3 -16.95 58.9 -16.8 59.2 -16.85 59.4 -16.8 59.65 Q-16.8 59.95 -19.65 62.0 L-23.1 64.25 -23.15 64.35 -23.2 64.35 -23.4 64.45 -23.55 65.4 -23.7 65.45 -24.0 64.8 -24.15 64.9 -24.4 64.75 -24.0 64.4 -24.0 64.35 -23.95 64.2 -29.75 64.2 Q-29.85 64.5 -30.55 64.5 -31.4 64.45 -31.6 64.0 L-31.45 63.85 -31.45 63.8 -27.3 48.8 Q-23.2 32.85 -23.2 17.4 L-23.1 13.2 -22.8 9.15 -23.1 0.05 -23.2 -0.75 Q-23.15 -1.55 -22.5 -1.6 M-22.45 -0.95 L-22.55 0.4 -22.3 9.15 Q-22.3 23.45 -24.35 36.35 -26.4 48.95 -31.05 63.7 L-30.95 63.7 -30.5 63.8 -30.0 63.7 -23.55 63.6 -22.3 58.45 Q-20.85 52.05 -20.7 47.65 -20.6 44.65 -19.9 39.4 L-18.9 31.2 -18.05 14.8 -17.85 6.6 -17.75 2.5 -17.7 0.35 -17.55 -0.95 -22.45 -0.95 M-18.85 34.35 Q-20.75 56.15 -22.8 63.3 L-20.7 61.65 -17.6 59.75 -17.6 59.6 -17.5 59.35 -17.5 14.65 Q-17.9 23.4 -18.85 34.35" fill="#000000" fill-rule="evenodd" stroke="none"/>
    <path d="M-25.25 -25.45 L-24.65 -25.4 -23.25 -25.45 -23.2 -25.15 Q-23.2 -24.75 -23.95 -24.7 L-24.0 -24.7 -24.25 -24.45 -24.8 -24.3 -25.3 -24.5 -26.0 -25.2 -25.25 -25.1 -25.25 -25.45" fill="#39528a" fill-rule="evenodd" stroke="none"/>
    <path d="M66.5 34.35 Q67.45 23.4 67.85 14.65 L67.85 59.35 67.75 59.6 67.75 59.75 64.65 61.65 62.55 63.3 Q64.6 56.15 66.5 34.35 M45.15 34.35 L46.55 14.65 46.55 59.35 Q46.4 59.45 46.4 59.6 L46.4 59.75 43.35 61.65 41.2 63.3 Q43.3 56.15 45.15 34.35 M23.8 34.35 L25.2 14.65 25.2 59.35 25.1 59.6 25.1 59.75 22.0 61.65 Q20.8 62.5 19.85 63.3 21.95 56.15 23.8 34.35 M2.45 34.35 Q3.45 23.4 3.85 14.65 L3.85 59.35 3.75 59.6 3.75 59.75 Q2.45 60.4 0.65 61.65 L-1.5 63.3 Q0.6 56.15 2.45 34.35 M-18.85 34.35 Q-17.9 23.4 -17.5 14.65 L-17.5 59.35 -17.6 59.6 -17.6 59.75 -20.7 61.65 -22.8 63.3 Q-20.75 56.15 -18.85 34.35" fill="#6f6f6f" fill-rule="evenodd" stroke="none"/>
    <path d="M20.25 -0.95 L25.15 -0.95 Q25.0 -0.4 25.0 0.35 L24.95 2.5 24.8 6.6 24.6 14.8 23.75 31.2 22.8 39.4 Q22.1 44.65 22.0 47.65 21.85 52.05 20.4 58.45 L19.1 63.6 12.65 63.7 12.2 63.8 11.75 63.7 11.65 63.7 Q16.3 48.95 18.3 36.35 20.4 23.45 20.4 9.15 L20.15 0.4 20.25 -0.95 M41.55 -0.95 L46.5 -0.95 46.3 0.35 46.25 2.5 46.15 6.6 45.95 14.8 45.1 31.2 44.15 39.4 Q43.45 44.65 43.35 47.65 43.15 52.05 41.75 58.45 L40.45 63.6 34.0 63.7 33.5 63.8 33.1 63.7 33.0 63.7 Q37.6 48.95 39.65 36.35 41.75 23.45 41.75 9.15 L41.45 0.4 41.55 -0.95 M62.9 -0.95 L67.8 -0.95 Q67.65 -0.4 67.65 0.35 L67.6 2.5 67.5 6.6 67.3 14.8 66.45 31.2 65.45 39.4 Q64.8 44.65 64.65 47.65 64.5 52.05 63.05 58.45 L61.8 63.6 55.35 63.7 54.85 63.8 54.45 63.7 54.3 63.7 Q58.95 48.95 61.0 36.35 63.05 23.45 63.05 9.15 L62.8 0.4 62.9 -0.95 M3.6 2.5 L3.5 6.6 3.25 14.8 2.4 31.2 1.45 39.4 Q0.75 44.65 0.65 47.65 0.5 52.05 -0.95 58.45 L-2.25 63.6 -8.7 63.7 -9.15 63.8 -9.6 63.7 -9.7 63.7 Q-5.05 48.95 -3.05 36.35 -0.95 23.45 -0.95 9.15 L-1.2 0.4 -1.1 -0.95 3.8 -0.95 Q3.65 -0.4 3.65 0.35 L3.6 2.5 M-22.45 -0.95 L-17.55 -0.95 -17.7 0.35 -17.75 2.5 -17.85 6.6 -18.05 14.8 -18.9 31.2 -19.9 39.4 Q-20.6 44.65 -20.7 47.65 -20.85 52.05 -22.3 58.45 L-23.55 63.6 -30.0 63.7 -30.5 63.8 -30.95 63.7 -31.05 63.7 Q-26.4 48.95 -24.35 36.35 -22.3 23.45 -22.3 9.15 L-22.55 0.4 -22.45 -0.95" fill="#848484" fill-rule="evenodd" stroke="none"/>
  </g>
  <defs>
    <linearGradient gradientTransform="matrix(0.0071, 0.0, 0.0, 0.0358, 93.6, 18.85)" gradientUnits="userSpaceOnUse" id="gradient0" spreadMethod="pad" x1="-819.2" x2="819.2">
      <stop offset="0.00784313725490196" stop-color="#373737"/>
      <stop offset="1.0" stop-color="#aaaaaa"/>
    </linearGradient>
    <linearGradient gradientTransform="matrix(0.0017, 0.003, -0.0064, 0.0037, 92.05, 49.4)" gradientUnits="userSpaceOnUse" id="gradient1" spreadMethod="pad" x1="-819.2" x2="819.2">
      <stop offset="0.00784313725490196" stop-color="#7e7d67"/>
      <stop offset="1.0" stop-color="#b1b3a2"/>
    </linearGradient>
  </defs>
</svg>
