<?xml version="1.0" encoding="UTF-8" standalone="no"?>
<svg xmlns:xlink="http://www.w3.org/1999/xlink" height="11.1px" width="3.65px" xmlns="http://www.w3.org/2000/svg">
  <g transform="matrix(1.0, 0.0, 0.0, 1.0, 1.8, 1.5)">
    <path d="M-0.9 9.4 L-1.05 9.45 -1.3 9.25 -1.4 9.0 -1.25 8.45 -1.5 8.3 -1.5 8.1 -1.4 7.9 -1.5 7.55 -1.55 6.55 -1.55 6.5 -1.6 5.65 -1.6 5.2 -1.5 4.6 -1.35 4.15 -1.6 3.45 -1.8 2.85 -1.7 2.25 -1.6 1.85 -1.6 1.75 -1.7 1.55 -1.75 0.7 -1.6 -0.55 -1.5 -0.7 -1.4 -0.8 -1.15 -1.1 -0.8 -1.35 0.6 -1.5 0.65 -1.45 Q1.75 -1.4 1.75 0.45 L1.6 1.6 1.5 1.8 1.55 2.4 1.55 2.8 1.65 2.9 1.85 3.85 1.6 6.0 1.5 6.45 1.3 7.25 0.9 8.05 0.8 8.5 0.65 8.3 0.5 8.3 0.3 8.4 0.3 8.35 0.35 8.25 0.25 8.25 0.35 8.15 Q0.4 8.05 0.5 8.05 L0.65 7.9 1.1 6.55 1.55 3.85 1.3 3.0 1.05 2.3 1.25 1.5 1.45 0.45 1.35 -0.4 Q1.15 -1.15 0.55 -1.15 -0.7 -1.15 -1.2 -0.65 L-1.45 0.05 -1.4 1.05 -1.3 1.55 -1.25 1.65 -1.15 1.8 -1.2 2.1 -1.15 2.25 -1.2 2.2 -1.25 2.35 -1.35 2.75 -1.2 3.1 -1.0 3.45 -1.05 3.55 -0.9 4.05 -1.05 4.3 -1.15 4.6 -1.25 5.65 -1.15 6.95 -1.0 7.85 -1.05 7.95 -1.2 8.1 -1.0 8.3 -1.05 8.45 -1.1 8.45 -1.1 8.5 -1.15 8.65 -1.25 8.9 -1.2 9.1 -1.0 9.2 -0.9 9.25 -0.9 9.4 M0.2 3.1 L0.25 3.1 0.25 3.15 -0.05 5.1 -0.1 6.1 -0.15 7.1 -0.2 7.05 -0.25 6.25 -0.1 4.65 0.2 3.1" fill="#000000" fill-rule="evenodd" stroke="none"/>
    <path d="M-0.9 9.4 L-0.9 9.25 -1.0 9.2 -1.2 9.1 -1.25 8.9 -1.15 8.65 -1.1 8.5 -1.1 8.45 -1.05 8.45 -1.0 8.3 -1.2 8.1 -1.05 7.95 -1.0 7.85 -1.15 6.95 -1.25 5.65 -1.15 4.6 -1.05 4.3 -0.9 4.05 -1.05 3.55 -1.0 3.45 -1.2 3.1 -1.35 2.75 -1.25 2.35 -1.2 2.2 -1.15 2.25 -1.2 2.1 -1.15 1.8 -1.25 1.65 -1.3 1.55 -1.4 1.05 -1.45 0.05 -1.2 -0.65 Q-0.7 -1.15 0.55 -1.15 1.15 -1.15 1.35 -0.4 L1.45 0.45 1.25 1.5 1.05 2.3 1.3 3.0 1.55 3.85 1.1 6.55 0.65 7.9 0.5 8.05 Q0.4 8.05 0.35 8.15 L0.25 8.25 0.35 8.25 0.3 8.35 0.3 8.4 0.5 8.3 0.65 8.3 0.8 8.5 0.8 8.6 0.75 8.6 0.7 8.85 Q0.4 9.6 -0.3 9.6 L-0.9 9.4 M0.2 3.1 L-0.1 4.65 -0.25 6.25 -0.2 7.05 -0.15 7.1 -0.1 6.1 -0.05 5.1 0.25 3.15 0.25 3.1 0.2 3.1" fill="#ffead5" fill-rule="evenodd" stroke="none"/>
  </g>
</svg>
