<?xml version="1.0" encoding="UTF-8" standalone="no"?>
<svg xmlns:xlink="http://www.w3.org/1999/xlink" height="27.9px" width="27.9px" xmlns="http://www.w3.org/2000/svg">
  <g transform="matrix(1.0, 0.0, 0.0, 1.0, 14.0, 13.8)">
    <path d="M-0.05 -13.05 Q5.4 -13.05 9.25 -9.2 13.15 -5.3 13.15 0.15 13.15 5.6 9.25 9.45 5.4 13.35 -0.05 13.35 -5.5 13.35 -9.4 9.45 -13.25 5.6 -13.25 0.15 -13.25 -5.3 -9.4 -9.2 -5.5 -13.05 -0.05 -13.05" fill="#ffff00" fill-rule="evenodd" stroke="none"/>
    <path d="M-0.05 -13.05 Q5.4 -13.05 9.25 -9.2 13.15 -5.3 13.15 0.15 13.15 5.6 9.25 9.45 5.4 13.35 -0.05 13.35 -5.5 13.35 -9.4 9.45 -13.25 5.6 -13.25 0.15 -13.25 -5.3 -9.4 -9.2 -5.5 -13.05 -0.05 -13.05 Z" fill="none" stroke="#170e0b" stroke-linecap="round" stroke-linejoin="round" stroke-width="1.5"/>
    <path d="M5.95 -2.3 Q6.9 -2.3 7.55 -1.6 8.25 -0.9 8.25 0.05 8.25 1.0 7.55 1.7 6.9 2.35 5.95 2.35 4.95 2.35 4.3 1.7 3.6 1.0 3.6 0.05 3.6 -0.9 4.3 -1.6 4.95 -2.3 5.95 -2.3 M-5.45 -2.3 Q-4.45 -2.3 -3.75 -1.6 -3.0 -0.9 -3.0 0.15 -3.0 1.15 -3.75 1.85 -4.45 2.6 -5.45 2.6 -6.45 2.6 -7.2 1.85 -7.9 1.15 -7.9 0.15 -7.9 -0.9 -7.2 -1.6 -6.45 -2.3 -5.45 -2.3" fill="#000000" fill-rule="evenodd" stroke="none"/>
    <path d="M-11.45 -8.65 L0.25 -1.6 10.5 -9.7 M-9.4 9.45 Q0.4 2.9 9.35 9.3" fill="none" stroke="#170e0b" stroke-linecap="round" stroke-linejoin="round" stroke-width="1.5"/>
  </g>
</svg>
