<?xml version="1.0" encoding="UTF-8" standalone="no"?>
<svg xmlns:xlink="http://www.w3.org/1999/xlink" height="11.1px" width="5.7px" xmlns="http://www.w3.org/2000/svg">
  <g transform="matrix(1.0, 0.0, 0.0, 1.0, 2.85, 1.8)">
    <path d="M0.85 -1.55 L-0.05 -1.65 0.85 -1.5 0.95 -1.5 0.85 -1.55 M-1.6 8.3 L-1.65 8.35 -1.75 8.25 -1.75 8.15 -1.85 7.95 -1.8 7.9 -2.35 4.55 -2.6 1.95 -2.75 1.25 -2.75 0.5 -2.8 -0.75 -2.8 -0.9 -2.8 -0.95 -2.85 -1.05 -2.5 -1.25 -1.9 -1.4 -1.4 -1.5 -0.1 -1.65 0.9 -1.8 0.95 -1.75 1.1 -1.55 1.6 -1.35 2.0 -1.1 2.45 -0.7 2.4 -0.65 2.4 -0.6 2.4 -0.5 2.45 -0.35 2.5 -0.2 2.55 -0.15 2.7 0.05 2.7 -0.15 2.8 -0.15 2.85 0.05 2.4 2.65 2.3 2.95 2.05 4.2 1.5 5.8 1.25 6.2 1.45 6.45 1.85 7.5 1.7 8.2 1.4 8.65 1.35 8.75 1.25 8.85 1.2 8.8 1.15 8.75 1.0 8.75 0.85 8.65 0.8 8.55 1.1 8.25 1.15 8.2 1.25 8.15 1.4 7.8 1.55 7.45 1.3 6.8 1.05 6.4 0.9 6.3 0.9 6.2 1.3 5.05 1.55 4.5 1.8 3.85 2.0 2.7 2.15 2.1 2.35 1.75 2.45 1.75 2.65 0.35 2.4 -0.1 2.2 -0.55 2.0 -0.85 1.7 -1.1 1.4 -1.25 1.25 -1.35 1.15 -1.4 1.0 -1.45 -0.2 -1.5 -1.2 -1.3 -1.85 -1.1 -2.1 -1.0 -2.4 -0.85 -2.45 -0.9 -2.55 -0.9 -2.65 -0.8 -2.6 -0.7 -2.65 -0.6 -2.7 -0.5 -2.55 0.85 -2.5 0.85 Q-2.35 0.85 -2.35 1.35 L-2.2 2.25 -2.1 3.2 -2.05 4.15 -1.75 5.8 -1.55 7.8 -1.6 7.95 -1.65 7.95 -1.6 8.3" fill="#000000" fill-rule="evenodd" stroke="none"/>
    <path d="M1.2 8.8 L1.1 8.85 0.15 9.25 Q-0.75 9.4 -1.3 8.8 L-1.6 8.4 -1.6 8.3 -1.65 7.95 -1.6 7.95 -1.55 7.8 -1.75 5.8 -2.05 4.15 -2.1 3.2 -2.2 2.25 -2.35 1.35 Q-2.35 0.85 -2.5 0.85 L-2.55 0.85 -2.7 -0.5 -2.65 -0.6 -2.6 -0.7 -2.65 -0.8 -2.55 -0.9 -2.45 -0.9 -2.4 -0.85 -2.1 -1.0 -1.85 -1.1 -1.2 -1.3 -0.2 -1.5 1.0 -1.45 1.15 -1.4 1.25 -1.35 1.4 -1.25 1.7 -1.1 2.0 -0.85 2.2 -0.55 2.4 -0.1 2.65 0.35 2.45 1.75 2.35 1.75 2.15 2.1 2.0 2.7 1.8 3.85 1.55 4.5 1.3 5.05 0.9 6.2 0.9 6.3 1.05 6.4 1.3 6.8 1.55 7.45 1.4 7.8 1.25 8.15 1.15 8.2 1.1 8.25 0.8 8.55 0.85 8.65 1.0 8.75 1.15 8.75 1.2 8.8" fill="#ffead5" fill-rule="evenodd" stroke="none"/>
  </g>
</svg>
