<?xml version="1.0" encoding="UTF-8" standalone="no"?>
<svg xmlns:xlink="http://www.w3.org/1999/xlink" height="25.6px" width="11.65px" xmlns="http://www.w3.org/2000/svg">
  <g transform="matrix(1.0, 0.0, 0.0, 1.0, 6.4, 12.8)">
    <path d="M3.1 -11.15 L3.25 -11.0 4.1 -9.65 4.0 -9.65 3.9 -9.7 3.55 -9.35 3.45 -9.4 3.4 -9.35 3.35 -9.3 3.4 -9.15 3.4 -9.1 3.25 -8.75 3.1 -8.25 2.85 -8.4 2.6 -8.7 2.2 -9.0 1.9 -9.15 1.8 -9.05 1.8 -9.0 1.65 -9.0 1.4 -9.05 1.2 -9.1 0.6 -9.3 -0.35 -9.3 Q-1.45 -9.4 -1.5 -8.95 L-1.6 -8.85 -1.6 -8.8 -1.55 -8.8 -1.4 -8.75 -1.35 -8.75 -1.15 -8.65 -0.9 -8.55 -0.7 -8.05 -0.35 -7.1 -0.35 -6.9 -0.3 -6.7 -0.15 -6.5 Q0.05 -6.25 0.45 -6.15 L2.15 -5.8 3.7 -5.55 4.3 -5.6 4.35 -5.5 4.5 -4.7 4.55 -4.45 4.6 -4.15 4.55 -3.9 4.45 -3.95 4.3 -4.0 4.15 -3.9 4.1 -3.9 4.1 -3.8 4.1 -3.65 4.15 -2.95 Q4.05 -2.95 4.05 -3.0 L3.95 -3.0 3.9 -3.0 3.85 -3.1 3.75 -3.2 3.7 -3.15 3.65 -3.1 3.55 -3.15 3.4 -3.1 3.35 -3.0 3.95 -2.25 4.15 -1.95 4.6 -1.05 4.45 -1.1 4.3 -0.9 4.4 -0.65 4.5 -0.35 4.4 -0.4 4.3 -0.45 4.15 -0.3 4.2 -0.05 4.0 0.0 4.0 0.15 4.05 0.35 4.1 0.55 4.05 0.9 3.95 1.35 3.9 1.8 3.85 2.2 3.85 2.8 3.5 1.6 2.85 -0.3 2.65 0.3 Q2.2 -0.65 2.1 -1.4 L1.95 -1.45 1.95 -1.4 1.9 -1.35 2.0 -0.9 2.0 -0.65 1.85 -0.25 1.45 -1.4 1.0 -2.1 Q0.65 -3.1 0.1 -3.45 L-0.9 -4.0 -2.1 -4.15 -2.4 -4.15 -2.4 -4.2 -2.45 -4.15 -3.2 -4.15 -3.2 -4.2 -3.3 -4.2 -3.35 -4.05 -3.45 -4.0 -3.4 -3.95 -3.8 -3.25 -3.95 -3.05 -3.95 -2.9 -4.0 -2.85 -4.15 -2.65 -4.6 -2.05 -4.35 -3.05 -4.0 -3.9 -3.55 -5.05 -3.55 -5.2 -3.75 -5.35 -4.1 -5.3 -4.4 -5.15 -4.4 -5.2 -3.65 -6.5 -3.2 -7.3 -3.4 -7.4 -4.15 -7.65 -4.0 -7.95 -3.9 -8.3 -3.9 -8.5 Q-3.75 -8.6 -3.55 -9.05 L-3.35 -9.55 -3.45 -9.75 -3.55 -9.85 -3.75 -9.95 -3.8 -10.0 -3.75 -10.0 Q-3.5 -10.0 -3.45 -10.15 L-3.45 -10.2 -3.45 -10.3 -3.5 -10.7 -3.35 -10.5 -3.1 -10.3 -3.0 -10.3 Q-2.85 -10.3 -2.65 -10.8 L-2.6 -10.9 -2.2 -11.45 -1.8 -11.9 -1.4 -12.05 -1.25 -12.0 Q-1.2 -12.0 -1.05 -12.1 L0.95 -12.3 1.85 -12.05 2.7 -11.6 3.1 -11.15" fill="#605142" fill-rule="evenodd" stroke="none"/>
    <path d="M3.1 -11.15 L2.7 -11.6 1.85 -12.05 0.95 -12.3 -1.05 -12.1 Q-1.2 -12.0 -1.25 -12.0 L-1.4 -12.05 -1.8 -11.9 -2.2 -11.45 -2.6 -10.9 -2.65 -10.8 Q-2.85 -10.3 -3.0 -10.3 L-3.1 -10.3 -3.35 -10.5 -3.5 -10.7 -3.45 -10.3 -3.45 -10.2 -3.45 -10.15 Q-3.5 -10.0 -3.75 -10.0 L-3.8 -10.0 -3.75 -9.95 -3.55 -9.85 -3.45 -9.75 -3.35 -9.55 -3.55 -9.05 Q-3.75 -8.6 -3.9 -8.5 L-3.9 -8.3 -4.0 -7.95 -4.15 -7.65 -3.4 -7.4 -3.2 -7.3 -3.65 -6.5 -4.4 -5.2 -4.4 -5.15 -4.1 -5.3 -3.75 -5.35 -3.55 -5.2 -3.55 -5.05 -4.0 -3.9 -4.35 -3.05 -4.6 -2.05 -4.15 -2.65 -4.0 -2.85 -3.95 -2.9 -3.95 -3.05 -3.8 -3.25 -3.4 -3.95 -3.45 -4.0 -3.35 -4.05 -3.3 -4.2 -3.2 -4.2 -3.2 -4.15 -2.45 -4.15 -2.4 -4.2 -2.4 -4.15 -2.1 -4.15 -0.9 -4.0 0.1 -3.45 Q0.65 -3.1 1.0 -2.1 L1.45 -1.4 1.85 -0.25 2.0 -0.65 2.0 -0.9 1.9 -1.35 1.95 -1.4 1.95 -1.45 2.1 -1.4 Q2.2 -0.65 2.65 0.3 L2.85 -0.3 3.5 1.6 3.85 2.8 3.85 2.2 3.9 1.8 3.95 1.35 4.05 0.9 4.1 0.55 4.05 0.35 4.0 0.15 4.0 0.0 4.2 -0.05 4.15 -0.3 4.3 -0.45 4.4 -0.4 4.5 -0.35 4.4 -0.65 4.3 -0.9 4.45 -1.1 4.6 -1.05 4.15 -1.95 3.95 -2.25 3.35 -3.0 3.4 -3.1 3.55 -3.15 3.65 -3.1 3.7 -3.15 3.75 -3.2 3.85 -3.1 3.9 -3.0 3.95 -3.0 4.05 -3.0 Q4.05 -2.95 4.15 -2.95 L4.1 -3.65 4.1 -3.8 4.1 -3.9 4.15 -3.9 4.3 -4.0 4.45 -3.95 4.55 -3.9 4.6 -4.15 4.55 -4.45 4.5 -4.7 4.35 -5.5 4.3 -5.6 3.7 -5.55 2.15 -5.8 0.45 -6.15 Q0.05 -6.25 -0.15 -6.5 L-0.3 -6.7 -0.35 -6.9 -0.35 -7.1 -0.7 -8.05 -0.9 -8.55 -1.15 -8.65 -1.35 -8.75 -1.4 -8.75 -1.55 -8.8 -1.6 -8.8 -1.6 -8.85 -1.5 -8.95 Q-1.45 -9.4 -0.35 -9.3 L0.6 -9.3 1.2 -9.1 1.4 -9.05 1.65 -9.0 1.8 -9.0 1.8 -9.05 1.9 -9.15 2.2 -9.0 2.6 -8.7 2.85 -8.4 3.1 -8.25 3.25 -8.75 3.4 -9.1 3.4 -9.15 3.35 -9.3 3.4 -9.35 3.45 -9.4 3.55 -9.35 3.9 -9.7 4.0 -9.65 4.1 -9.65 3.25 -11.0 3.1 -11.15 M4.4 -9.85 L4.7 -9.25 4.65 -9.15 4.55 -9.05 4.4 -9.15 4.0 -9.3 4.0 -9.25 4.05 -9.15 4.1 -9.0 4.1 -8.95 4.15 -8.8 4.15 -8.7 4.0 -8.6 4.0 -8.4 3.95 -8.3 4.35 -8.1 4.8 -7.7 4.9 -7.45 5.1 -6.8 5.25 -6.15 5.15 -5.9 4.65 -5.8 4.85 -4.95 4.95 -3.6 4.95 -3.45 4.8 -3.35 4.6 -3.4 4.45 -3.55 4.45 -2.95 4.25 -2.4 4.8 -1.55 5.2 -0.5 5.05 -0.3 4.9 -0.35 4.8 -0.45 4.85 -0.1 4.6 0.2 4.4 1.2 4.35 1.45 4.15 2.2 4.2 2.85 4.25 3.65 4.25 4.1 4.2 4.4 4.2 4.45 4.3 6.65 4.4 8.65 4.35 9.45 4.25 10.25 4.25 10.5 4.25 11.2 4.35 11.25 4.3 11.3 4.25 11.35 4.25 11.8 4.25 11.9 4.2 12.45 4.2 12.55 4.3 12.65 4.25 12.75 4.1 12.8 2.75 12.25 1.2 11.65 1.2 11.85 1.05 12.0 -1.05 11.4 -2.25 10.9 -2.55 10.95 -2.75 10.9 -2.8 10.85 -2.85 10.9 -3.0 10.95 -3.2 10.9 -3.35 10.85 -3.6 10.75 -3.75 10.65 -3.85 10.75 -3.95 10.8 -4.35 10.35 -4.45 10.4 -4.6 10.2 -4.6 9.95 -4.45 7.1 -4.45 7.0 -4.35 5.0 -4.4 5.15 -4.45 5.1 -4.35 4.75 -4.35 4.7 -4.35 4.55 -4.35 4.5 -4.35 3.8 -4.4 3.0 -4.45 2.2 -4.35 0.7 -4.25 -0.55 -4.15 -1.25 -4.05 -1.95 -3.95 -2.3 -3.9 -2.45 -4.05 -2.25 -4.7 -1.25 -4.7 -1.3 -5.05 -0.8 -5.2 -0.9 -5.2 -1.0 -4.65 -3.1 -4.05 -4.9 -4.15 -4.85 -4.25 -4.85 -4.4 -4.75 -4.8 -4.6 -4.95 -4.65 -4.95 -4.75 -4.4 -5.85 -3.6 -7.25 -3.75 -7.25 -4.4 -7.3 -4.45 -7.4 -4.5 -7.55 -4.35 -7.95 -4.2 -8.3 -4.25 -8.5 -4.3 -8.7 -4.3 -8.85 -3.95 -8.9 -3.7 -9.5 -4.0 -9.75 -4.3 -10.1 -4.05 -10.25 -3.8 -10.55 -3.8 -11.1 Q-3.7 -11.55 -3.3 -11.1 L-3.1 -10.85 -2.8 -11.3 -1.7 -12.25 2.45 -12.15 3.25 -11.45 3.85 -10.7 4.4 -9.85 M1.7 -8.3 L1.5 -8.5 1.45 -8.7 -0.1 -8.95 -0.8 -8.95 -0.75 -8.9 -0.7 -8.85 -0.7 -8.75 -0.35 -8.1 -0.05 -7.2 0.15 -6.75 Q0.35 -6.5 0.95 -6.35 L2.45 -6.05 2.65 -6.05 3.5 -6.05 4.2 -5.95 4.25 -6.0 4.25 -6.05 4.3 -6.1 4.4 -6.1 4.55 -6.1 4.9 -6.25 Q4.9 -7.25 4.25 -7.8 L4.05 -7.95 4.0 -7.95 3.8 -8.05 3.65 -8.2 3.6 -8.25 3.5 -8.3 3.5 -8.4 3.6 -8.55 3.6 -8.6 3.6 -8.7 3.45 -8.35 3.4 -8.0 3.15 -7.75 2.65 -8.15 2.0 -8.75 1.85 -8.5 1.7 -8.3 M3.6 -8.75 L3.65 -8.65 3.65 -8.75 3.6 -8.75 M0.65 -2.05 L0.65 -2.25 0.45 -2.85 0.15 -3.15 -0.35 -3.45 -0.85 -3.75 -2.35 -4.0 -2.35 -3.9 -2.4 -3.3 -2.5 -2.6 -2.55 -1.9 -2.6 -1.3 -2.5 0.85 Q-2.2 2.75 -1.05 2.75 -0.35 2.75 0.25 2.4 L0.75 1.9 0.75 1.8 0.8 1.65 0.65 -2.05 M1.05 -1.75 L1.05 -1.45 1.05 -1.35 1.0 -1.35 0.8 -1.85 0.85 -0.15 0.9 1.65 0.6 2.35 Q0.1 2.9 -1.05 2.9 -2.3 2.9 -2.65 0.95 L-2.75 -1.3 -2.65 -2.65 -2.45 -4.0 -3.2 -4.0 -3.6 -3.25 -3.55 -3.1 -3.6 -3.0 -3.55 -3.0 -3.55 -2.85 -3.85 -1.0 -4.1 2.2 -4.1 3.0 -4.0 3.8 -4.05 4.95 -4.1 6.25 -4.15 8.35 -4.3 9.95 -4.15 10.05 -3.9 10.15 -3.85 10.15 Q-3.7 10.15 -3.6 10.3 L-3.55 10.35 -3.35 10.4 -3.25 10.35 -3.05 10.45 -2.95 10.55 -2.9 10.5 -2.8 10.45 -2.6 10.55 -2.4 10.6 Q-2.35 10.45 -2.05 10.6 L-1.35 11.0 -0.35 11.25 0.85 11.55 0.85 11.35 1.05 11.2 Q1.45 11.2 2.9 11.9 L3.9 12.35 3.95 11.15 3.05 10.35 Q2.25 9.6 2.25 9.05 L2.3 9.0 2.35 8.9 2.3 8.8 2.25 8.65 2.75 8.45 3.35 8.3 2.95 8.0 2.7 7.75 Q2.7 7.4 3.0 7.1 3.4 6.75 4.0 6.95 L3.95 6.25 3.95 5.2 3.9 4.7 3.85 4.45 3.75 4.4 3.75 4.3 3.8 3.3 3.5 2.25 3.0 0.75 3.1 0.65 3.0 0.4 2.9 0.15 2.85 0.2 2.8 0.4 2.65 0.55 2.55 0.5 2.35 -0.2 2.1 -0.85 2.05 -0.4 1.8 0.1 1.45 -1.1 1.1 -1.65 1.05 -1.75 M3.35 2.6 L3.5 3.0 3.55 3.25 3.45 3.85 Q3.35 4.4 2.95 4.4 2.3 4.4 2.1 4.0 L2.0 3.5 2.0 3.3 1.9 3.25 1.8 3.05 2.25 2.4 2.65 2.2 2.7 2.1 3.15 2.35 3.35 2.6 M2.35 2.55 L2.25 2.65 2.15 2.8 1.95 3.1 2.05 3.15 2.15 2.95 2.1 3.2 2.15 3.2 2.25 3.3 2.2 3.35 2.15 3.4 2.15 3.35 2.1 3.3 2.1 3.5 Q2.1 4.2 2.95 4.2 3.2 4.2 3.3 3.8 L3.4 3.3 3.25 2.65 Q3.0 2.25 2.6 2.4 L2.4 2.55 2.45 2.45 2.35 2.55 M4.0 7.6 L4.0 7.2 3.35 7.1 3.2 7.05 Q3.05 7.05 2.85 7.75 L3.15 8.05 3.5 8.4 3.3 8.5 3.05 8.55 2.75 8.55 Q2.55 8.55 2.4 8.7 L2.45 8.95 2.45 9.0 2.4 9.05 Q2.4 9.55 3.35 10.4 L3.95 10.9 3.95 10.35 4.05 8.65 4.0 7.6 M-3.25 5.75 L-3.4 5.75 -3.4 5.3 -3.05 4.8 -2.35 4.3 -2.2 4.3 -1.6 4.85 Q-1.05 5.7 -1.05 5.9 L-1.2 6.3 Q-1.45 6.6 -1.8 6.6 L-2.6 6.35 Q-3.1 6.1 -3.2 5.7 L-3.25 5.75 M-3.25 5.55 L-3.05 5.55 -2.75 6.0 -2.3 6.2 -1.75 6.4 Q-1.55 6.4 -1.35 6.2 L-1.15 5.9 -1.55 5.15 -2.0 4.55 Q-2.25 4.3 -2.75 4.8 L-3.25 5.5 -3.25 5.55" fill="#000000" fill-rule="evenodd" stroke="none"/>
    <path d="M1.7 -8.3 L1.85 -8.5 2.0 -8.75 2.65 -8.15 3.15 -7.75 3.4 -8.0 3.45 -8.35 3.6 -8.7 3.6 -8.6 3.6 -8.55 3.5 -8.4 3.5 -8.3 3.6 -8.25 3.65 -8.2 3.8 -8.05 4.0 -7.95 4.05 -7.95 4.25 -7.8 Q4.9 -7.25 4.9 -6.25 L4.55 -6.1 4.4 -6.1 4.3 -6.1 4.25 -6.05 4.25 -6.0 4.2 -5.95 3.5 -6.05 2.65 -6.05 2.45 -6.05 0.95 -6.35 Q0.35 -6.5 0.15 -6.75 L-0.05 -7.2 -0.35 -8.1 -0.7 -8.75 -0.7 -8.85 -0.75 -8.9 -0.8 -8.95 -0.1 -8.95 1.45 -8.7 1.5 -8.5 1.7 -8.3 M0.65 -2.05 L0.8 1.65 0.75 1.8 0.75 1.9 0.25 2.4 Q-0.35 2.75 -1.05 2.75 -2.2 2.75 -2.5 0.85 L-2.6 -1.3 -2.55 -1.9 -2.5 -2.6 -2.4 -3.3 -2.35 -3.9 -2.35 -4.0 -0.85 -3.75 -0.35 -3.45 0.15 -3.15 0.45 -2.85 0.65 -2.25 0.65 -2.05" fill="#ffead5" fill-rule="evenodd" stroke="none"/>
    <path d="M1.05 -1.75 L1.1 -1.65 1.45 -1.1 1.8 0.1 2.05 -0.4 2.1 -0.85 2.35 -0.2 2.55 0.5 2.65 0.55 2.8 0.4 2.85 0.2 2.9 0.15 3.0 0.4 3.1 0.65 3.0 0.75 3.5 2.25 3.8 3.3 3.75 4.3 3.75 4.4 3.85 4.45 3.9 4.7 3.95 5.2 3.95 6.25 4.0 6.95 Q3.4 6.75 3.0 7.1 2.7 7.4 2.7 7.75 L2.95 8.0 3.35 8.3 2.75 8.45 2.25 8.65 2.3 8.8 2.35 8.9 2.3 9.0 2.25 9.05 Q2.25 9.6 3.05 10.35 L3.95 11.15 3.9 12.35 2.9 11.9 Q1.45 11.2 1.05 11.2 L0.85 11.35 0.85 11.55 -0.35 11.25 -1.35 11.0 -2.05 10.6 Q-2.35 10.45 -2.4 10.6 L-2.6 10.55 -2.8 10.45 -2.9 10.5 -2.95 10.55 -3.05 10.45 -3.25 10.35 -3.35 10.4 -3.55 10.35 -3.6 10.3 Q-3.7 10.15 -3.85 10.15 L-3.9 10.15 -4.15 10.05 -4.3 9.95 -4.15 8.35 -4.1 6.25 -4.05 4.95 -4.0 3.8 -4.1 3.0 -4.1 2.2 -3.85 -1.0 -3.55 -2.85 -3.55 -3.0 -3.6 -3.0 -3.55 -3.1 -3.6 -3.25 -3.2 -4.0 -2.45 -4.0 -2.65 -2.65 -2.75 -1.3 -2.65 0.95 Q-2.3 2.9 -1.05 2.9 0.1 2.9 0.6 2.35 L0.9 1.65 0.85 -0.15 0.8 -1.85 1.0 -1.35 1.05 -1.35 1.05 -1.45 1.05 -1.75 M3.35 2.6 L3.15 2.35 2.7 2.1 2.65 2.2 2.25 2.4 1.8 3.05 1.9 3.25 2.0 3.3 2.0 3.5 2.1 4.0 Q2.3 4.4 2.95 4.4 3.35 4.4 3.45 3.85 L3.55 3.25 3.5 3.0 3.35 2.6 M-3.25 5.75 L-3.2 5.7 Q-3.1 6.1 -2.6 6.35 L-1.8 6.6 Q-1.45 6.6 -1.2 6.3 L-1.05 5.9 Q-1.05 5.7 -1.6 4.85 L-2.2 4.3 -2.35 4.3 -3.05 4.8 -3.4 5.3 -3.4 5.75 -3.25 5.75" fill="#d9b83e" fill-rule="evenodd" stroke="none"/>
    <path d="M2.4 2.55 L2.6 2.4 Q3.0 2.25 3.25 2.65 L3.4 3.3 3.3 3.8 Q3.2 4.2 2.95 4.2 2.1 4.2 2.1 3.5 L2.1 3.3 2.15 3.35 2.15 3.4 2.2 3.35 2.25 3.3 2.15 3.2 2.1 3.2 2.15 2.95 2.05 3.15 1.95 3.1 2.15 2.8 2.25 2.65 2.35 2.55 2.4 2.55 M4.0 7.6 L4.05 8.65 3.95 10.35 3.95 10.9 3.35 10.4 Q2.4 9.55 2.4 9.05 L2.45 9.0 2.45 8.95 2.4 8.7 Q2.55 8.55 2.75 8.55 L3.05 8.55 3.3 8.5 3.5 8.4 3.15 8.05 2.85 7.75 Q3.05 7.05 3.2 7.05 L3.35 7.1 4.0 7.2 4.0 7.6 M-3.25 5.55 L-3.25 5.5 -2.75 4.8 Q-2.25 4.3 -2.0 4.55 L-1.55 5.15 -1.15 5.9 -1.35 6.2 Q-1.55 6.4 -1.75 6.4 L-2.3 6.2 -2.75 6.0 -3.05 5.55 -3.25 5.55" fill="#735437" fill-rule="evenodd" stroke="none"/>
    <path d="M3.15 -11.45 Q3.3 -11.85 4.05 -11.15 L4.4 -10.25 4.3 -10.05 4.25 -9.95 4.05 -9.8 3.95 -9.9 3.9 -9.9 Q2.05 -9.9 -1.1 -8.7 L-3.65 -7.7 -4.05 -7.3 -4.45 -6.6 -5.2 -5.55 -5.3 -5.4 -6.15 -5.8 -6.4 -6.05 -5.6 -7.25 -4.55 -8.35 -5.45 -8.8 Q-6.1 -9.05 -6.1 -9.35 -6.1 -10.35 -4.1 -9.35 -3.8 -9.85 -0.75 -10.7 L3.05 -11.5 3.15 -11.45 M3.3 -11.05 L3.05 -11.1 0.65 -10.7 -1.0 -10.2 -3.5 -9.35 -3.5 -9.25 -3.65 -8.65 -3.85 -8.1 -3.8 -8.05 Q0.05 -9.75 4.0 -10.3 L4.0 -10.4 3.55 -10.95 3.3 -11.05 M4.3 3.4 L4.35 3.55 4.15 4.25 4.55 5.85 4.75 6.45 4.0 7.55 Q2.5 9.4 1.65 9.85 L1.75 11.0 Q1.75 11.55 1.15 12.0 0.3 12.6 -1.3 12.6 L-1.25 12.55 -1.9 12.5 -3.15 12.7 Q-4.05 12.7 -4.25 9.6 L-4.1 9.3 -5.1 7.45 Q-5.1 6.25 -4.2 5.25 L-4.15 5.8 -3.8 6.75 -3.15 7.4 Q-2.75 7.15 -2.15 7.4 L-0.5 7.9 0.5 7.85 0.7 7.55 0.9 7.65 2.4 6.35 Q3.6 5.05 3.6 4.4 L3.75 3.9 3.75 3.75 Q3.75 3.2 3.95 3.6 4.1 3.35 4.3 3.4 M4.05 4.95 L3.95 4.65 2.1 7.3 1.15 8.2 1.3 8.65 1.55 9.5 3.15 7.95 Q4.35 6.55 4.35 6.15 L4.05 4.95 M0.8 8.35 L0.6 8.3 0.6 8.25 0.0 8.2 -0.4 8.3 -1.0 8.15 -2.85 7.75 -3.05 7.75 -3.1 7.8 -3.25 7.8 Q-3.6 8.0 -3.6 8.9 L-3.65 9.1 -3.65 9.15 -3.75 9.4 -3.9 9.8 Q-3.45 12.3 -3.2 12.3 L-2.1 12.15 -1.65 12.25 -1.35 12.15 -0.95 12.25 Q0.1 12.25 1.35 11.55 L1.4 11.0 1.35 10.05 1.35 10.0 1.25 10.0 1.2 9.8 1.3 9.7 1.05 8.95 0.9 8.35 0.8 8.35 M-4.05 -8.85 L-5.15 -9.35 -5.2 -9.3 -4.55 -8.9 Q-4.3 -8.9 -4.1 -8.65 L-4.05 -8.85 M-4.25 -8.0 L-4.7 -7.6 -5.9 -6.1 -5.4 -6.0 -4.75 -7.05 -4.25 -7.65 -4.3 -7.75 -4.25 -8.0 M-5.4 -9.35 L-5.65 -9.5 -5.7 -9.4 -5.4 -9.35 M-4.6 6.95 Q-4.6 7.2 -4.75 7.25 L-4.7 7.65 -4.15 8.35 -3.9 8.65 -3.6 7.8 -3.5 7.7 Q-4.05 7.4 -4.4 6.35 L-4.6 6.95" fill="#000000" fill-rule="evenodd" stroke="none"/>
    <path d="M3.3 -11.05 L3.55 -10.95 4.0 -10.4 4.0 -10.3 Q0.05 -9.75 -3.8 -8.05 L-3.85 -8.1 -3.65 -8.65 -3.5 -9.25 -3.5 -9.35 -1.0 -10.2 0.65 -10.7 3.05 -11.1 3.3 -11.05 M-4.25 -8.0 L-4.3 -7.75 -4.25 -7.65 -4.75 -7.05 -5.4 -6.0 -5.9 -6.1 -4.7 -7.6 -4.25 -8.0 M-4.05 -8.85 L-4.1 -8.65 Q-4.3 -8.9 -4.55 -8.9 L-5.2 -9.3 -5.15 -9.35 -4.05 -8.85" fill="#d9b83e" fill-rule="evenodd" stroke="none"/>
    <path d="M0.8 8.35 L0.9 8.35 1.05 8.95 1.3 9.7 1.2 9.8 1.25 10.0 1.35 10.0 1.35 10.05 1.4 11.0 1.35 11.55 Q0.1 12.25 -0.95 12.25 L-1.35 12.15 -1.65 12.25 -2.1 12.15 -3.2 12.3 Q-3.45 12.3 -3.9 9.8 L-3.75 9.4 -3.65 9.15 -3.65 9.1 -3.6 8.9 Q-3.6 8.0 -3.25 7.8 L-3.1 7.8 -3.05 7.75 -2.85 7.75 -1.0 8.15 -0.4 8.3 0.0 8.2 0.6 8.25 0.6 8.3 0.8 8.35 M4.05 4.95 L4.35 6.15 Q4.35 6.55 3.15 7.95 L1.55 9.5 1.3 8.65 1.15 8.2 2.1 7.3 3.95 4.65 4.05 4.95 M-4.6 6.95 L-4.4 6.35 Q-4.05 7.4 -3.5 7.7 L-3.6 7.8 -3.9 8.65 -4.15 8.35 -4.7 7.65 -4.75 7.25 Q-4.6 7.2 -4.6 6.95" fill="#a06f4e" fill-rule="evenodd" stroke="none"/>
  </g>
</svg>
