<?xml version="1.0" encoding="UTF-8" standalone="no"?>
<svg xmlns:xlink="http://www.w3.org/1999/xlink" height="11.95px" width="6.05px" xmlns="http://www.w3.org/2000/svg">
  <g transform="matrix(1.0, 0.0, 0.0, 1.0, 1.95, 8.85)">
    <path d="M3.45 -7.4 Q3.3 -7.85 2.3 -7.9 L2.25 -7.8 3.4 -7.4 3.45 -7.4 M0.15 -8.55 L0.15 -8.5 0.45 -7.75 0.55 -7.6 0.45 -7.5 0.45 -7.3 0.5 -7.25 0.6 -7.25 0.65 -7.1 0.55 -6.95 0.8 -5.6 1.1 -6.2 1.8 -7.8 Q2.4 -9.45 3.85 -7.3 L3.85 -7.2 4.05 -7.4 4.1 -7.2 3.2 -5.7 3.0 -5.45 2.55 -4.75 1.2 -2.4 0.85 -0.35 1.0 1.65 1.05 1.65 1.1 1.8 1.05 1.95 1.05 2.1 1.05 2.65 1.15 2.65 1.2 2.8 0.85 3.05 0.75 3.1 0.7 3.1 0.05 3.1 Q-1.15 3.1 -0.95 2.8 L-0.75 1.65 -1.0 -1.55 -0.9 -2.0 -0.95 -2.1 -0.85 -2.3 -0.85 -2.35 -1.05 -3.35 -1.25 -5.15 -1.95 -8.05 -1.85 -8.25 -1.3 -8.7 -0.25 -8.65 Q-0.25 -9.05 0.1 -8.6 L0.15 -8.55 M0.05 -7.35 L-0.95 -7.25 -1.3 -7.3 -1.3 -7.2 -1.25 -6.95 -1.15 -7.05 -0.75 -6.95 0.1 -7.15 0.05 -7.35 M0.0 -6.75 L-0.75 -6.55 -1.2 -6.65 -1.0 -5.75 Q-0.55 -4.65 -0.55 -2.75 L-0.55 -2.45 -0.1 -2.45 0.7 -2.2 1.0 -2.8 1.05 -2.75 2.55 -5.55 2.0 -5.85 1.5 -6.2 1.0 -5.2 0.0 -2.85 -0.15 -2.8 -0.35 -3.0 Q-0.35 -3.5 0.25 -4.65 L0.55 -5.15 Q0.25 -5.2 0.2 -5.85 L0.15 -6.8 0.0 -6.75 M2.0 -7.2 L3.25 -6.55 3.6 -6.95 3.55 -6.95 2.9 -7.05 2.15 -7.55 2.0 -7.2 M1.65 -6.5 L2.1 -6.3 2.8 -5.9 2.95 -6.15 Q2.2 -6.25 1.85 -6.8 L1.65 -6.5 M0.3 -1.9 L-0.2 -1.9 -0.6 -1.9 -0.6 -0.9 -0.4 1.5 -0.3 1.6 0.45 1.65 0.3 1.6 0.6 1.65 0.5 0.15 0.6 -1.75 0.45 -1.85 0.3 -1.9 M0.0 2.0 L-0.35 2.1 -0.45 2.55 -0.45 2.65 0.05 2.7 0.6 2.65 0.65 2.1 0.5 2.1 0.0 2.0 M-0.3 -8.4 L-1.3 -8.2 -1.45 -8.1 -1.45 -7.95 -1.4 -7.65 -0.15 -7.85 -0.05 -7.85 -0.15 -8.3 -0.3 -8.35 -0.3 -8.4" fill="#000000" fill-rule="evenodd" stroke="none"/>
    <path d="M3.4 -7.4 L2.25 -7.8 2.3 -7.9 Q3.3 -7.85 3.45 -7.4 L3.4 -7.4 M2.0 -7.2 L2.15 -7.55 2.9 -7.05 3.55 -6.95 3.6 -6.95 3.25 -6.55 2.0 -7.2 M0.0 -6.75 L0.15 -6.8 0.2 -5.85 Q0.25 -5.2 0.55 -5.15 L0.25 -4.65 Q-0.35 -3.5 -0.35 -3.0 L-0.15 -2.8 0.0 -2.85 1.0 -5.2 1.5 -6.2 2.0 -5.85 2.55 -5.55 1.05 -2.75 1.0 -2.8 0.7 -2.2 -0.1 -2.45 -0.55 -2.45 -0.55 -2.75 Q-0.55 -4.65 -1.0 -5.75 L-1.2 -6.65 -0.75 -6.55 0.0 -6.75 M-0.3 -8.35 L-0.15 -8.3 -0.05 -7.85 -0.15 -7.85 -1.4 -7.65 -1.45 -7.95 -1.45 -8.1 -1.3 -8.2 -0.3 -8.4 -0.3 -8.35 M0.0 2.0 L0.5 2.1 0.65 2.1 0.6 2.65 0.05 2.7 -0.45 2.65 -0.45 2.55 -0.35 2.1 0.0 2.0" fill="#ccbc80" fill-rule="evenodd" stroke="none"/>
    <path d="M0.05 -7.35 L0.1 -7.15 -0.75 -6.95 -1.15 -7.05 -1.25 -6.95 -1.3 -7.2 -1.3 -7.3 -0.95 -7.25 0.05 -7.35 M0.3 -1.9 L0.45 -1.85 0.6 -1.75 0.5 0.15 0.6 1.65 0.3 1.6 0.45 1.65 -0.3 1.6 -0.4 1.5 -0.6 -0.9 -0.6 -1.9 -0.2 -1.9 0.3 -1.9 M1.65 -6.5 L1.85 -6.8 Q2.2 -6.25 2.95 -6.15 L2.8 -5.9 2.1 -6.3 1.65 -6.5" fill="#b0483e" fill-rule="evenodd" stroke="none"/>
  </g>
</svg>
