<?xml version="1.0" encoding="UTF-8" standalone="no"?>
<svg xmlns:xlink="http://www.w3.org/1999/xlink" height="12.35px" width="4.45px" xmlns="http://www.w3.org/2000/svg">
  <g transform="matrix(1.0, 0.0, 0.0, 1.0, 1.65, 1.0)">
    <path d="M0.85 -0.75 L0.85 -0.65 Q0.85 -0.15 1.2 0.85 L1.55 2.4 1.2 3.9 Q0.85 5.45 0.85 6.8 L0.85 7.2 0.9 7.45 1.1 7.45 1.1 7.5 1.6 7.95 2.2 8.55 2.15 9.15 2.3 9.75 2.1 9.8 1.75 9.55 1.55 9.35 1.5 9.2 1.55 8.9 Q1.55 8.65 0.9 8.5 L0.15 8.55 0.45 8.75 1.25 8.95 1.15 9.15 Q1.15 9.65 1.4 9.65 L1.8 10.05 1.55 10.5 Q1.35 11.1 1.0 11.1 L0.75 11.0 0.35 11.1 0.45 11.0 0.8 10.5 0.9 10.05 0.65 9.75 0.55 10.1 0.55 10.25 -0.4 10.5 -0.95 10.45 -1.05 10.25 Q-0.4 9.95 -0.4 9.5 L-0.45 9.35 -0.8 9.45 -0.85 9.55 -0.95 9.5 -1.05 9.35 -1.15 9.15 -0.55 8.15 -0.25 7.7 0.0 7.7 0.0 7.65 -0.05 7.55 0.0 7.5 0.1 7.45 0.45 7.25 0.45 7.15 0.0 7.2 -0.7 4.65 -1.35 2.05 -1.15 1.0 -1.0 0.65 -0.95 0.55 -0.9 0.45 -1.0 0.25 -1.05 -0.05 -1.0 -0.25 -0.9 -0.2 0.15 -0.5 0.7 -0.7 0.85 -0.75" fill="#ffead5" fill-rule="evenodd" stroke="none"/>
    <path d="M0.85 -0.75 L0.95 -1.0 1.1 -0.8 1.1 -0.85 1.25 -0.3 1.3 0.2 1.4 0.5 1.85 2.05 1.85 2.5 1.8 2.65 1.6 3.5 1.3 4.9 1.25 5.45 1.25 6.7 1.3 7.35 1.4 7.4 1.8 7.75 Q2.5 8.0 2.5 8.45 2.5 9.05 2.65 9.35 L2.8 9.85 2.5 10.05 2.2 10.15 Q1.9 11.3 0.7 11.35 -0.15 11.45 0.0 11.15 L0.25 10.75 -0.5 10.85 Q-1.35 10.85 -1.4 10.25 L-1.25 10.05 -1.0 9.95 -1.15 9.8 -1.55 9.05 Q-0.95 8.55 -0.8 8.05 -0.9 7.5 -0.35 7.3 L-0.6 6.25 -0.75 5.65 -1.0 4.8 -1.4 3.35 -1.6 2.3 -1.65 2.05 -1.65 1.9 -1.55 1.05 -1.4 0.65 -1.35 0.4 -1.4 0.25 -1.45 -0.15 -1.15 -0.6 Q-0.85 -0.8 -0.85 -0.5 L-0.95 -0.3 -1.0 -0.25 -1.05 -0.05 -1.0 0.25 -0.9 0.45 -0.95 0.55 -1.0 0.65 -1.15 1.0 -1.35 2.05 -0.7 4.65 0.0 7.2 0.45 7.15 0.45 7.25 0.1 7.45 0.0 7.5 -0.05 7.55 0.0 7.65 0.0 7.7 -0.25 7.7 -0.55 8.15 -1.15 9.15 -1.05 9.35 -0.95 9.5 -0.85 9.55 -0.8 9.45 -0.45 9.35 -0.4 9.5 Q-0.4 9.95 -1.05 10.25 L-0.95 10.45 -0.4 10.5 0.55 10.25 0.55 10.1 0.65 9.75 0.9 10.05 0.8 10.5 0.45 11.0 0.35 11.1 0.75 11.0 1.0 11.1 Q1.35 11.1 1.55 10.5 L1.8 10.05 1.4 9.65 Q1.15 9.65 1.15 9.15 L1.25 8.95 0.45 8.75 0.15 8.55 0.9 8.5 Q1.55 8.65 1.55 8.9 L1.5 9.2 1.55 9.35 1.75 9.55 2.1 9.8 2.3 9.75 2.15 9.15 2.2 8.55 1.6 7.95 1.1 7.5 1.1 7.45 0.9 7.45 0.85 7.2 0.85 6.8 Q0.85 5.45 1.2 3.9 L1.55 2.4 1.2 0.85 Q0.85 -0.15 0.85 -0.65 L0.85 -0.75" fill="#000000" fill-rule="evenodd" stroke="none"/>
  </g>
</svg>
