<?xml version="1.0" encoding="UTF-8" standalone="no"?>
<svg xmlns:xlink="http://www.w3.org/1999/xlink" height="3.55px" width="15.45px" xmlns="http://www.w3.org/2000/svg">
  <g transform="matrix(1.0, 0.0, 0.0, 1.0, -6.0, 38.0)">
    <path d="M16.85 -37.75 Q16.85 -37.2 14.8 -36.8 L12.4 -36.4 10.15 -35.7 15.05 -36.5 18.55 -36.95 Q21.45 -37.25 21.45 -36.95 21.45 -36.7 18.9 -36.35 L13.7 -35.7 7.1 -34.45 Q6.9 -34.45 6.85 -34.55 L6.75 -34.65 6.3 -34.5 6.0 -34.75 Q6.0 -34.95 6.65 -35.15 L7.6 -35.4 7.75 -35.4 Q7.9 -35.8 11.6 -36.9 L16.15 -38.0 Q16.85 -38.0 16.85 -37.75" fill="#990000" fill-rule="evenodd" stroke="none"/>
  </g>
</svg>
