<?xml version="1.0" encoding="UTF-8" standalone="no"?>
<svg xmlns:xlink="http://www.w3.org/1999/xlink" height="4.65px" width="7.95px" xmlns="http://www.w3.org/2000/svg">
  <g transform="matrix(1.0, 0.0, 0.0, 1.0, -14.0, 36.1)">
    <path d="M20.45 -33.6 L19.95 -33.7 Q19.35 -33.7 18.15 -32.55 16.95 -31.45 16.25 -31.45 15.4 -31.45 14.65 -31.95 14.0 -32.35 14.0 -32.5 14.0 -32.8 14.8 -33.1 L15.75 -33.4 16.3 -34.6 18.1 -35.65 Q19.7 -36.3 19.7 -36.0 19.7 -35.75 18.3 -35.1 16.8 -34.45 16.65 -34.15 L16.3 -33.05 15.7 -32.65 Q15.2 -32.6 15.2 -32.4 L15.6 -32.15 18.0 -33.55 Q20.55 -35.0 21.25 -35.0 21.65 -35.0 21.95 -33.95 21.95 -33.65 21.75 -33.65 L21.45 -33.75 Q21.5 -33.55 21.0 -33.55 L20.45 -33.6 M16.6 -32.05 L16.55 -32.0 16.9 -32.25 16.6 -32.05" fill="#990000" fill-rule="evenodd" stroke="none"/>
  </g>
</svg>
