<?xml version="1.0" encoding="UTF-8" standalone="no"?>
<svg xmlns:xlink="http://www.w3.org/1999/xlink" height="10.25px" width="8.0px" xmlns="http://www.w3.org/2000/svg">
  <g transform="matrix(1.0, 0.0, 0.0, 1.0, 4.0, 5.15)">
    <path d="M-3.7 -3.4 L-2.75 -4.4 Q-1.7 -5.15 -0.75 -5.15 1.5 -5.15 2.75 -3.9 3.55 -3.05 3.6 -2.25 L3.6 -2.15 Q3.6 -1.8 3.4 -1.8 L3.25 -1.35 2.8 0.1 1.6 2.75 Q1.85 2.55 1.85 3.05 L1.8 3.15 Q0.7 5.1 -0.6 5.1 -1.7 5.1 -2.2 3.9 L-2.3 3.6 -2.2 3.4 -2.65 2.1 -3.25 0.15 -3.45 -2.0 -3.6 -3.1 -3.7 -3.4" fill="#418822" fill-rule="evenodd" stroke="none"/>
    <path d="M3.6 -2.25 L3.7 -2.4 Q4.0 -2.75 4.0 -2.1 2.55 3.15 1.85 3.15 L1.8 3.15 1.85 3.05 Q1.85 2.55 1.6 2.75 L2.8 0.1 3.25 -1.35 3.4 -1.8 Q3.6 -1.8 3.6 -2.15 L3.6 -2.25 M-2.2 3.9 L-2.35 4.0 Q-3.0 4.0 -3.55 1.05 L-4.0 -2.05 Q-4.0 -3.4 -3.7 -3.4 L-3.6 -3.1 -3.45 -2.0 -3.25 0.15 -2.65 2.1 -2.2 3.4 -2.3 3.6 -2.2 3.9" fill="#000000" fill-rule="evenodd" stroke="none"/>
  </g>
</svg>
