<?xml version="1.0" encoding="UTF-8" standalone="no"?>
<svg xmlns:xlink="http://www.w3.org/1999/xlink" height="7.4px" width="7.3px" xmlns="http://www.w3.org/2000/svg">
  <g transform="matrix(1.0, 0.0, 0.0, 1.0, 3.65, 3.7)">
    <path d="M-3.15 -2.05 L-2.65 -2.95 Q-1.95 -3.7 -0.75 -3.7 0.05 -3.7 0.5 -3.15 L0.65 -2.9 0.8 -2.45 0.7 -2.2 Q0.85 -0.95 1.9 0.8 L2.25 1.35 Q1.15 1.45 1.15 2.6 L1.15 2.95 1.2 3.05 0.9 3.0 -0.65 2.9 -1.5 2.95 -2.1 3.05 -2.85 2.95 -3.15 1.2 -2.9 0.35 Q-2.65 -0.2 -2.65 -0.65 L-2.9 -1.75 -3.1 -1.85 -3.15 -2.0 -3.15 -2.05" fill="#418822" fill-rule="evenodd" stroke="none"/>
    <path d="M0.65 -2.9 Q0.7 -3.6 1.15 -2.65 L1.8 -0.3 2.95 1.4 Q3.65 2.35 3.65 2.95 3.65 3.7 3.35 3.7 L3.1 3.55 2.0 3.5 0.75 3.45 -0.65 3.4 -2.1 3.55 Q-3.65 3.55 -3.65 1.15 L-3.15 -0.65 -3.45 -1.65 -3.2 -2.05 -3.15 -2.05 -3.15 -2.0 -3.1 -1.85 -2.9 -1.75 -2.65 -0.65 Q-2.65 -0.2 -2.9 0.35 L-3.15 1.2 -2.85 2.95 -2.1 3.05 -1.5 2.95 -0.65 2.9 0.9 3.0 1.2 3.05 1.15 2.95 1.15 2.6 Q1.15 1.45 2.25 1.35 L1.9 0.8 Q0.85 -0.95 0.7 -2.2 L0.8 -2.45 0.65 -2.9 M3.15 2.8 L2.55 1.8 2.25 1.85 Q1.7 1.9 1.65 2.4 L1.7 3.05 2.2 3.05 3.35 3.1 3.15 2.9 3.15 2.8" fill="#000000" fill-rule="evenodd" stroke="none"/>
    <path d="M3.15 2.8 L3.15 2.9 3.35 3.1 2.2 3.05 1.7 3.05 1.65 2.4 Q1.7 1.9 2.25 1.85 L2.55 1.8 3.15 2.8" fill="#81805c" fill-rule="evenodd" stroke="none"/>
  </g>
</svg>
