<?xml version="1.0" encoding="UTF-8" standalone="no"?>
<svg xmlns:xlink="http://www.w3.org/1999/xlink" height="8.35px" width="8.5px" xmlns="http://www.w3.org/2000/svg">
  <g transform="matrix(1.0, 0.0, 0.0, 1.0, 4.25, 4.2)">
    <path d="M-1.25 -2.9 L0.0 -3.65 Q1.6 -4.4 2.5 -4.1 3.2 -3.8 3.7 -2.9 L4.1 -1.65 4.1 -1.6 3.85 -1.15 3.75 -1.35 3.35 -0.8 Q2.45 0.6 2.45 1.35 L2.85 1.65 2.9 1.7 2.7 1.9 Q2.0 2.75 1.95 3.4 L0.25 3.3 -1.65 3.45 -2.7 3.6 Q-3.75 3.6 -3.75 2.9 -3.75 1.55 -2.5 -0.35 L-1.35 -2.35 -1.5 -2.55 -1.25 -2.9" fill="#418822" fill-rule="evenodd" stroke="none"/>
    <path d="M4.1 -1.65 L4.25 -1.4 Q3.0 0.55 3.0 1.05 L3.25 1.45 Q3.45 1.35 3.45 1.7 L3.45 1.75 3.55 1.9 Q4.1 2.65 4.1 3.4 4.1 4.15 3.65 4.15 L3.45 4.1 3.15 4.1 2.3 3.95 1.95 4.0 1.55 3.9 0.25 3.8 -2.7 4.15 Q-3.8 4.15 -4.15 3.65 L-4.25 2.9 Q-4.25 2.45 -3.05 -0.45 L-1.85 -2.65 Q-1.3 -3.5 -1.25 -2.9 L-1.5 -2.55 -1.35 -2.35 -2.5 -0.35 Q-3.75 1.55 -3.75 2.9 -3.75 3.6 -2.7 3.6 L-1.65 3.45 0.25 3.3 1.95 3.4 Q2.0 2.75 2.7 1.9 L2.9 1.7 2.85 1.65 2.45 1.35 Q2.45 0.6 3.35 -0.8 L3.75 -1.35 3.85 -1.15 4.1 -1.6 4.1 -1.65 M2.5 3.55 L3.5 3.6 3.6 3.45 3.25 2.3 3.2 2.1 2.95 2.35 Q2.45 2.9 2.45 3.4 L2.5 3.55" fill="#000000" fill-rule="evenodd" stroke="none"/>
    <path d="M2.5 3.55 L2.45 3.4 Q2.45 2.9 2.95 2.35 L3.2 2.1 3.25 2.3 3.6 3.45 3.5 3.6 2.5 3.55" fill="#81805c" fill-rule="evenodd" stroke="none"/>
  </g>
</svg>
