<?xml version="1.0" encoding="UTF-8" standalone="no"?>
<svg xmlns:xlink="http://www.w3.org/1999/xlink" height="9.8px" width="9.75px" xmlns="http://www.w3.org/2000/svg">
  <g transform="matrix(1.0, 0.0, 0.0, 1.0, 4.9, 4.9)">
    <path d="M2.1 -4.25 L2.15 -4.15 2.15 -4.0 2.6 -2.7 3.05 -1.1 Q3.1 -0.2 3.75 0.55 4.35 1.25 4.35 1.9 L4.1 2.55 3.85 3.25 2.9 3.7 3.0 3.9 2.75 4.2 2.1 4.5 0.55 4.9 Q-0.75 4.9 -1.6 3.95 L-2.15 3.1 -2.2 2.8 -2.1 2.45 -3.65 -0.3 -4.15 -1.85 -4.5 -2.65 -4.65 -2.6 -4.9 -2.7 -4.9 -2.85 -4.05 -3.8 -2.35 -4.75 0.35 -4.8 Q1.85 -4.6 2.1 -4.25" fill="#418822" fill-rule="evenodd" stroke="none"/>
    <path d="M2.75 4.2 L3.0 3.9 2.9 3.7 3.85 3.25 4.1 2.55 4.35 1.9 Q4.35 1.25 3.75 0.55 3.1 -0.2 3.05 -1.1 L2.6 -2.7 2.15 -4.0 2.15 -4.15 2.1 -4.25 Q2.15 -4.9 2.65 -3.8 L3.55 -1.4 Q3.65 -0.5 4.3 0.45 4.85 1.25 4.85 1.95 L4.35 3.2 Q3.75 4.2 2.9 4.2 L2.75 4.2 M-4.9 -2.7 L-4.65 -2.6 -4.5 -2.65 -4.15 -1.85 -3.65 -0.3 -2.1 2.45 -2.2 2.8 -2.15 3.1 -2.2 3.1 Q-2.65 3.1 -4.0 0.2 L-4.9 -2.65 -4.9 -2.7" fill="#000000" fill-rule="evenodd" stroke="none"/>
  </g>
</svg>
