<?xml version="1.0" encoding="UTF-8" standalone="no"?>
<svg xmlns:xlink="http://www.w3.org/1999/xlink" height="14.85px" width="8.25px" xmlns="http://www.w3.org/2000/svg">
  <g transform="matrix(1.0, 0.0, 0.0, 1.0, 4.15, 4.8)">
    <path d="M-1.55 4.75 L-1.55 4.7 -1.55 4.75 M0.6 3.8 L0.6 3.75 0.6 3.8" fill="#ffffff" fill-rule="evenodd" stroke="none"/>
    <path d="M2.75 -0.35 L3.75 1.85 3.8 1.65 Q3.8 0.15 2.85 -1.85 L2.05 -3.55 Q1.25 -4.45 -1.1 -4.45 -3.85 -4.45 -3.85 0.45 L-3.8 0.5 -3.3 -0.6 Q-2.15 -2.45 0.3 -2.45 1.55 -2.45 2.75 -0.35 M0.25 -2.1 Q-2.35 -2.1 -3.1 -0.25 L-3.55 1.8 -3.4 2.15 -2.55 0.8 Q-1.3 -0.55 0.3 -0.55 1.25 -0.55 2.2 0.8 L2.95 2.15 3.05 2.45 Q3.25 2.05 3.5 2.0 L2.35 -0.4 Q1.45 -2.1 0.25 -2.1 M-1.05 -4.8 Q1.85 -4.8 2.85 -2.95 L4.1 1.4 4.1 2.15 3.95 2.2 3.75 2.1 3.75 2.15 3.7 2.3 3.6 2.15 3.4 2.6 3.0 2.95 2.9 2.8 2.8 2.85 2.8 2.95 2.6 3.65 2.3 4.2 2.3 4.35 1.95 4.65 1.25 6.85 0.95 7.4 0.95 7.45 0.7 8.65 Q0.7 10.05 -0.65 10.05 -1.5 10.05 -1.95 9.5 L-2.25 8.7 -2.15 8.05 -2.1 8.05 -2.7 7.85 -2.6 4.3 -2.9 3.7 -3.15 2.75 -3.25 2.75 -3.25 2.85 -3.4 2.9 -3.85 2.05 -4.0 2.05 -4.05 1.9 -4.0 1.35 -4.15 0.4 -4.05 -1.05 -3.9 -2.5 -2.85 -3.85 Q-1.9 -4.8 -1.05 -4.8 M-0.55 3.05 Q-0.15 3.3 0.2 3.5 L1.45 2.7 2.2 2.8 Q2.5 2.9 2.65 2.4 L2.05 1.4 Q1.0 -0.2 0.25 -0.2 -1.5 -0.2 -2.45 1.2 L-2.8 2.1 -2.65 2.35 -2.5 2.75 -0.55 3.05 M-1.55 4.7 L-1.0 3.95 -0.6 3.5 Q-1.25 3.1 -2.2 3.1 L-2.5 3.2 -2.9 2.7 Q-2.95 3.45 -2.1 4.3 L-1.55 4.75 -1.55 4.7 M0.6 3.75 L0.25 3.95 -0.45 3.6 -1.25 5.0 -0.25 5.85 0.85 5.05 0.6 3.8 0.6 3.75 M-2.3 4.65 L-2.4 6.7 -2.3 7.45 -0.6 8.05 -0.05 7.65 0.95 6.65 1.3 5.5 1.5 5.0 -0.15 6.3 -1.25 5.55 -2.3 4.65 M-1.05 8.7 L-1.1 8.5 -1.05 8.4 -1.95 8.1 Q-2.1 9.7 -0.65 9.7 0.5 9.7 0.55 8.75 L0.7 7.7 0.45 7.85 -0.8 8.7 -1.05 8.7 M1.9 4.2 L2.25 3.4 2.6 2.9 1.4 3.2 0.9 3.55 1.2 4.8 1.95 4.25 1.9 4.2" fill="#000000" fill-rule="evenodd" stroke="none"/>
    <path d="M-1.55 4.75 L-2.1 4.3 Q-2.95 3.45 -2.9 2.7 L-2.5 3.2 -2.2 3.1 Q-1.25 3.1 -0.6 3.5 L-1.0 3.95 -1.55 4.7 -1.55 4.75 M1.9 4.2 L1.95 4.25 1.2 4.8 0.9 3.55 1.4 3.2 2.6 2.9 2.25 3.4 1.9 4.2" fill="#404040" fill-rule="evenodd" stroke="none"/>
    <path d="M-0.55 3.05 L-2.5 2.75 -2.65 2.35 -2.8 2.1 -2.45 1.2 Q-1.5 -0.2 0.25 -0.2 1.0 -0.2 2.05 1.4 L2.65 2.4 Q2.5 2.9 2.2 2.8 L1.45 2.7 0.2 3.5 Q-0.15 3.3 -0.55 3.05" fill="#626262" fill-rule="evenodd" stroke="none"/>
    <path d="M0.25 -2.1 Q1.45 -2.1 2.35 -0.4 L3.5 2.0 Q3.25 2.05 3.05 2.45 L2.95 2.15 2.2 0.8 Q1.25 -0.55 0.3 -0.55 -1.3 -0.55 -2.55 0.8 L-3.4 2.15 -3.55 1.8 -3.1 -0.25 Q-2.35 -2.1 0.25 -2.1" fill="#8c8c8c" fill-rule="evenodd" stroke="none"/>
    <path d="M2.75 -0.35 Q1.55 -2.45 0.3 -2.45 -2.15 -2.45 -3.3 -0.6 L-3.8 0.5 -3.85 0.45 Q-3.85 -4.45 -1.1 -4.45 1.25 -4.45 2.05 -3.55 L2.85 -1.85 Q3.8 0.15 3.8 1.65 L3.75 1.85 2.75 -0.35" fill="#bfbfbf" fill-rule="evenodd" stroke="none"/>
    <path d="M-2.3 4.65 L-1.25 5.55 -0.15 6.3 1.5 5.0 1.3 5.5 0.95 6.65 -0.05 7.65 -0.6 8.05 -2.3 7.45 -2.4 6.7 -2.3 4.65" fill="#777777" fill-rule="evenodd" stroke="none"/>
    <path d="M-1.05 8.7 L-0.8 8.7 0.45 7.85 0.7 7.7 0.55 8.75 Q0.5 9.7 -0.65 9.7 -2.1 9.7 -1.95 8.1 L-1.05 8.4 -1.1 8.5 -1.05 8.7" fill="#373737" fill-rule="evenodd" stroke="none"/>
    <path d="M0.6 3.8 L0.85 5.05 -0.25 5.85 -1.25 5.0 -0.45 3.6 0.25 3.95 0.6 3.75 0.6 3.8" fill="#ffff09" fill-rule="evenodd" stroke="none"/>
    <path d="M0.65 -3.4 Q0.8 -3.05 1.25 -3.05 L1.4 -3.1 1.5 -3.2 1.35 -3.35 1.35 -3.6 1.75 -3.2 1.6 -2.95 Q1.45 -2.8 1.3 -2.8 0.75 -2.8 0.6 -3.1 L0.3 -3.45 0.2 -2.65 0.05 -2.6 Q-0.2 -2.6 -0.15 -3.35 L-0.15 -3.45 Q-0.85 -2.75 -1.45 -2.75 L-1.85 -3.15 -1.75 -3.4 -1.6 -3.4 -1.6 -3.15 -1.55 -3.0 -1.3 -3.0 -0.85 -3.5 -0.1 -3.75 0.25 -4.2 0.3 -3.9 0.3 -3.7 0.65 -3.4 M2.1 -3.4 L2.6 -1.95 3.1 -0.2 3.05 0.1 2.9 0.1 2.85 -0.15 2.75 -0.15 2.15 -1.1 Q1.7 -1.7 1.6 -2.15 L2.35 -1.4 2.45 -1.25 1.85 -2.95 1.9 -3.4 2.1 -3.4 M-2.25 -3.35 L-2.6 -2.35 -2.6 -2.25 -2.35 -2.4 -2.15 -2.15 -2.65 -1.6 -2.95 -1.3 -3.0 -1.05 -3.1 -1.0 -3.1 -1.05 -3.15 -0.9 -3.5 -0.75 -3.55 -1.0 -3.35 -1.65 -3.25 -2.0 -3.15 -2.15 -3.15 -2.25 -2.8 -2.95 -2.8 -2.9 -2.3 -3.45 -2.25 -3.35" fill="#ffff09" fill-rule="evenodd" stroke="none"/>
  </g>
</svg>
