<?xml version="1.0" encoding="UTF-8" standalone="no"?>
<svg xmlns:xlink="http://www.w3.org/1999/xlink" height="10.9px" width="5.1px" xmlns="http://www.w3.org/2000/svg">
  <g transform="matrix(1.0, 0.0, 0.0, 1.0, 2.55, 2.2)">
    <path d="M1.7 2.55 L1.7 2.5 1.7 2.55" fill="#ffffff" fill-rule="evenodd" stroke="none"/>
    <path d="M0.55 -0.5 L0.4 -0.45 Q0.05 -0.45 -0.9 -1.1 L-1.5 -1.55 -1.35 -0.8 -1.5 -0.75 -1.8 -0.55 -1.8 -0.5 -1.45 -0.45 -1.45 -0.15 -2.05 0.45 -1.0 0.1 0.0 -0.1 0.4 0.0 0.5 0.1 0.95 0.1 1.45 0.1 1.5 -0.1 1.5 -0.55 0.55 -0.55 0.55 -0.5 M0.45 -0.85 L1.3 -0.9 1.85 -0.75 1.85 -0.55 1.7 0.15 2.2 1.2 2.05 2.75 1.95 2.8 2.35 3.55 2.2 4.7 1.9 5.35 2.55 6.9 2.5 7.05 2.25 7.2 1.95 7.65 1.85 7.8 1.9 7.8 1.95 7.95 1.75 8.4 1.55 8.7 1.3 8.55 0.6 8.35 0.15 8.4 -0.35 8.15 -0.7 7.85 -1.0 7.45 -0.85 6.55 -0.95 6.05 -0.7 5.75 -0.55 5.65 -0.6 5.6 -0.55 5.55 -1.35 4.2 -1.1 3.7 -1.15 3.7 -1.55 1.65 -1.55 0.7 -2.3 0.85 -2.55 0.85 -2.55 0.55 -1.95 -0.2 -2.5 -0.3 -2.5 -0.6 -1.7 -1.0 -2.15 -1.7 -2.15 -2.1 -2.1 -2.1 -2.15 -2.15 -1.9 -2.2 0.3 -0.95 0.45 -0.95 0.45 -0.85 M1.7 2.5 L1.85 1.35 1.45 0.5 1.45 0.35 1.05 0.45 -0.05 0.35 -1.25 0.65 -0.85 3.35 -0.65 2.95 0.55 1.5 0.55 1.4 0.6 1.45 0.7 1.35 0.75 1.55 1.55 2.35 1.7 2.55 1.7 2.5 M-0.3 5.45 L1.05 5.3 1.7 5.4 1.65 5.3 Q1.65 4.9 2.0 3.6 2.0 3.2 0.7 1.8 L-0.1 3.0 -0.95 4.15 -0.3 5.45 M1.4 8.1 L1.8 7.35 1.75 7.2 2.2 6.8 1.7 5.6 1.05 5.75 0.2 5.7 -0.25 5.7 -0.65 7.3 Q-0.65 7.6 0.1 7.9 L1.4 8.15 1.45 8.15 1.4 8.1" fill="#000000" fill-rule="evenodd" stroke="none"/>
    <path d="M0.55 -0.5 L0.55 -0.55 1.5 -0.55 1.5 -0.1 1.45 0.1 0.95 0.1 0.5 0.1 0.4 0.0 0.0 -0.1 -1.0 0.1 -2.05 0.45 -1.45 -0.15 -1.45 -0.45 -1.8 -0.5 -1.8 -0.55 -1.5 -0.75 -1.35 -0.8 -1.5 -1.55 -0.9 -1.1 Q0.05 -0.45 0.4 -0.45 L0.55 -0.5" fill="#ffff00" fill-rule="evenodd" stroke="none"/>
    <path d="M1.7 2.55 L1.55 2.35 0.75 1.55 0.7 1.35 0.6 1.45 0.55 1.4 0.55 1.5 -0.65 2.95 -0.85 3.35 -1.25 0.65 -0.05 0.35 1.05 0.45 1.45 0.35 1.45 0.5 1.85 1.35 1.7 2.5 1.7 2.55" fill="#404040" fill-rule="evenodd" stroke="none"/>
    <path d="M1.4 8.15 L0.1 7.9 Q-0.65 7.6 -0.65 7.3 L-0.25 5.7 0.2 5.7 1.05 5.75 1.7 5.6 2.2 6.8 1.75 7.2 1.8 7.35 1.4 8.1 1.4 8.15 M-0.3 5.45 L-0.95 4.15 -0.1 3.0 0.7 1.8 Q2.0 3.2 2.0 3.6 1.65 4.9 1.65 5.3 L1.7 5.4 1.05 5.3 -0.3 5.45" fill="#7b7b7b" fill-rule="evenodd" stroke="none"/>
    <path d="M0.85 2.0 Q1.65 2.0 2.05 3.7 L2.0 4.45 1.75 4.5 1.7 4.2 1.8 3.6 1.25 2.8 0.9 2.5 0.9 2.8 0.85 3.6 0.7 3.6 0.65 2.85 0.6 2.8 -0.7 4.2 -0.55 4.85 -0.75 4.9 -1.0 4.25 Q0.2 2.3 0.85 1.8 L0.85 2.0 M1.75 5.55 L1.8 5.65 0.9 6.2 -0.3 6.5 -0.35 6.4 Q-0.35 5.45 1.1 5.55 L1.75 5.55" fill="#ffff00" fill-rule="evenodd" stroke="none"/>
  </g>
</svg>
