<?xml version="1.0" encoding="UTF-8" standalone="no"?>
<svg xmlns:xlink="http://www.w3.org/1999/xlink" height="4.65px" width="4.8px" xmlns="http://www.w3.org/2000/svg">
  <g transform="matrix(1.0, 0.0, 0.0, 1.0, 2.4, 2.3)">
    <path d="M-0.25 -1.8 L-0.55 -1.45 -0.5 -0.6 -1.05 -0.55 -1.6 -0.8 -1.2 -1.75 -1.0 -1.75 0.35 -1.95 0.9 -1.9 1.65 -0.95 2.05 0.2 1.8 0.5 1.6 0.25 1.55 -0.05 1.4 0.0 1.25 -0.15 1.25 -0.2 1.2 -0.35 -0.05 -0.45 -0.05 -0.55 -0.1 -0.7 -0.2 -0.65 -0.2 -0.9 -0.25 -1.8 M0.85 1.0 L1.3 1.0 1.4 1.8 1.1 1.9 0.85 1.0 M0.25 1.1 L0.4 1.1 0.5 1.85 -0.15 1.9 -0.1 1.0 0.25 1.1 M-1.15 0.65 L-0.8 0.85 -0.7 0.85 -0.85 1.65 -1.25 1.55 -1.15 0.65 M-1.8 0.0 L-1.7 0.1 -1.55 0.25 -1.6 0.35 -1.75 0.9 -1.9 0.75 -2.0 0.65 -1.85 0.2 -1.8 0.0" fill="#404040" fill-rule="evenodd" stroke="none"/>
    <path d="M-0.25 -1.8 L-0.2 -0.9 -0.2 -0.65 -0.1 -0.7 -0.05 -0.55 -0.05 -0.45 1.2 -0.35 1.25 -0.2 1.25 -0.15 1.4 0.0 1.55 -0.05 1.6 0.25 1.8 0.5 2.05 0.2 1.65 -0.95 0.9 -1.9 0.35 -1.95 -1.0 -1.75 -1.2 -1.75 -1.6 -0.8 -1.05 -0.55 -0.5 -0.6 -0.55 -1.45 -0.25 -1.8 M1.3 -2.15 Q1.8 -2.1 1.85 -1.65 L1.9 -0.9 2.2 -0.35 2.4 0.3 2.2 0.65 1.8 0.85 1.65 0.8 1.7 0.9 1.7 1.8 1.75 1.8 1.8 1.95 Q1.8 2.15 0.85 2.35 L0.75 1.85 0.7 2.15 0.6 2.2 0.6 2.15 0.5 2.2 -0.15 2.2 -0.4 2.25 -0.45 1.7 -0.45 1.6 -0.6 2.15 -0.75 2.2 -0.75 2.15 -0.9 2.2 -1.55 1.8 -1.6 1.8 -1.65 1.65 -1.65 1.6 -1.6 1.25 -1.75 1.25 -2.15 0.95 -2.2 0.95 -2.35 0.7 -2.35 0.65 -2.4 0.55 -2.35 0.55 -2.05 -0.75 -1.55 -1.85 -1.55 -2.1 -1.35 -2.1 -1.1 -2.3 -1.05 -2.1 -0.85 -2.1 0.15 -2.3 1.25 -2.3 1.3 -2.15 M0.8 0.0 Q0.05 0.0 -0.25 -0.3 L-1.0 -0.2 -1.05 -0.2 -1.05 -0.1 -1.1 0.4 -0.6 0.55 -0.2 0.0 -0.15 0.05 -0.1 0.7 0.4 0.7 0.35 0.5 0.35 0.1 0.6 0.1 0.65 0.15 0.8 0.7 0.95 0.65 1.3 0.65 1.3 0.5 0.95 0.1 0.95 0.0 0.8 0.0 M0.25 1.1 L-0.1 1.0 -0.15 1.9 0.5 1.85 0.4 1.1 0.25 1.1 M0.85 1.0 L1.1 1.9 1.4 1.8 1.3 1.0 0.85 1.0 M-1.7 -0.5 L-1.75 -0.25 -1.55 -0.2 -1.35 0.0 -1.2 -0.25 -1.55 -0.4 -1.7 -0.5 M-1.8 0.0 L-1.85 0.2 -2.0 0.65 -1.9 0.75 -1.75 0.9 -1.6 0.35 -1.55 0.25 -1.7 0.1 -1.8 0.0 M-1.15 0.65 L-1.25 1.55 -0.85 1.65 -0.7 0.85 -0.8 0.85 -1.15 0.65" fill="#000000" fill-rule="evenodd" stroke="none"/>
    <path d="M0.8 0.0 L0.95 0.0 0.95 0.1 1.3 0.5 1.3 0.65 0.95 0.65 0.8 0.7 0.65 0.15 0.6 0.1 0.35 0.1 0.35 0.5 0.4 0.7 -0.1 0.7 -0.15 0.05 -0.2 0.0 -0.6 0.55 -1.1 0.4 -1.05 -0.1 -1.05 -0.2 -1.0 -0.2 -0.25 -0.3 Q0.05 0.0 0.8 0.0 M-1.7 -0.5 L-1.55 -0.4 -1.2 -0.25 -1.35 0.0 -1.55 -0.2 -1.75 -0.25 -1.7 -0.5" fill="#7b7b7b" fill-rule="evenodd" stroke="none"/>
  </g>
</svg>
