<?xml version="1.0" encoding="UTF-8" standalone="no"?>
<svg xmlns:xlink="http://www.w3.org/1999/xlink" height="11.25px" width="5.85px" xmlns="http://www.w3.org/2000/svg">
  <g transform="matrix(1.0, 0.0, 0.0, 1.0, 2.95, 1.7)">
    <path d="M1.7 6.85 L1.65 6.8 1.7 6.8 1.7 6.85" fill="#ffffff" fill-rule="evenodd" stroke="none"/>
    <path d="M0.55 -1.7 Q2.9 -1.7 2.9 0.9 L2.55 4.15 1.85 7.1 1.25 8.3 1.2 8.7 1.2 8.8 1.05 9.0 Q0.75 9.55 -0.2 9.55 -1.5 9.55 -1.6 7.9 -2.4 7.35 -2.95 0.95 -2.95 0.1 -2.55 -0.6 -2.0 -1.55 -0.8 -1.7 L0.35 -1.7 0.35 -1.65 0.55 -1.7 M1.65 6.8 L0.3 5.5 Q0.9 3.05 0.9 0.9 L0.75 -1.3 0.8 -1.35 0.55 -1.35 0.0 -1.2 -0.05 -1.25 -0.05 -1.35 Q-1.45 -1.45 -2.1 -0.55 -2.65 0.1 -2.65 0.95 -2.65 2.6 -1.6 6.55 L-1.5 6.55 Q-0.35 6.55 0.5 7.5 L1.05 8.25 1.1 8.15 1.6 7.2 1.7 6.85 1.7 6.8 1.65 6.8 M0.95 3.5 L0.7 5.25 1.8 6.45 1.9 5.95 2.25 4.3 2.55 1.15 Q2.55 -0.85 1.25 -1.25 L1.2 0.9 0.95 3.5 M0.75 8.4 L0.4 7.75 -0.45 7.25 -1.45 7.0 -1.3 7.65 -1.3 7.9 -1.2 8.45 Q-0.9 9.15 -0.2 9.15 0.4 9.15 0.85 8.6 L0.75 8.4" fill="#000000" fill-rule="evenodd" stroke="none"/>
    <path d="M0.75 8.4 L0.85 8.6 Q0.4 9.15 -0.2 9.15 -0.9 9.15 -1.2 8.45 L-1.3 7.9 -1.3 7.65 -1.45 7.0 -0.45 7.25 0.4 7.75 0.75 8.4" fill="#333333" fill-rule="evenodd" stroke="none"/>
    <path d="M1.7 6.85 L1.6 7.2 1.1 8.15 1.05 8.25 0.5 7.5 Q-0.35 6.55 -1.5 6.55 L-1.6 6.55 Q-2.65 2.6 -2.65 0.95 -2.65 0.1 -2.1 -0.55 -1.45 -1.45 -0.05 -1.35 L-0.05 -1.25 0.0 -1.2 0.55 -1.35 0.8 -1.35 0.75 -1.3 0.9 0.9 Q0.9 3.05 0.3 5.5 L1.65 6.8 1.7 6.85" fill="#666666" fill-rule="evenodd" stroke="none"/>
    <path d="M0.95 3.5 L1.2 0.9 1.25 -1.25 Q2.55 -0.85 2.55 1.15 L2.25 4.3 1.9 5.95 1.8 6.45 0.7 5.25 0.95 3.5" fill="#a6a6a6" fill-rule="evenodd" stroke="none"/>
  </g>
</svg>
