<?xml version="1.0" encoding="UTF-8" standalone="no"?>
<svg xmlns:xlink="http://www.w3.org/1999/xlink" height="10.5px" width="8.05px" xmlns="http://www.w3.org/2000/svg">
  <g transform="matrix(1.0, 0.0, 0.0, 1.0, 2.65, 9.1)">
    <path d="M1.65 -6.35 L3.15 -6.65 3.15 -6.7 3.2 -6.7 3.4 -6.75 3.8 -6.85 3.1 -8.4 3.0 -8.45 2.95 -8.45 2.4 -7.3 1.65 -6.35 M1.5 -6.6 L2.25 -7.65 2.45 -8.3 2.25 -8.35 0.85 -8.4 Q-1.05 -8.3 -1.55 -7.65 L-1.55 -7.55 -1.8 -7.2 Q-1.9 -6.5 -2.25 -6.1 L-2.4 -5.3 -2.0 -2.9 Q-2.0 -2.5 -2.15 -2.4 L-1.45 -2.35 -0.7 -2.35 -0.7 -2.45 -0.5 -2.45 -0.45 -3.15 -0.5 -3.15 -0.5 -3.3 -0.3 -3.75 -0.05 -4.15 -0.45 -5.35 0.0 -5.65 0.55 -5.75 Q0.5 -5.95 0.6 -6.05 L0.6 -6.25 1.05 -6.3 1.5 -6.6 M2.6 -9.05 L3.15 -8.85 3.5 -8.45 4.15 -7.0 4.3 -7.1 4.25 -7.15 4.45 -7.3 4.45 -7.45 4.7 -7.45 4.8 -6.05 4.75 -5.2 4.8 -5.15 4.8 -4.9 4.65 -4.65 4.75 -4.65 4.85 -4.1 4.95 -4.1 5.0 -3.8 4.35 -1.85 3.7 -0.55 3.7 -0.5 3.65 -0.35 3.45 -0.35 Q3.0 -0.95 1.8 -0.95 L1.7 0.45 1.75 0.45 1.8 0.75 Q1.8 1.4 0.45 1.4 -0.7 1.4 -1.35 0.7 L-1.8 -0.1 -1.85 -0.35 Q-1.85 -1.65 -1.5 -2.1 L-1.6 -2.1 -2.3 -2.0 -2.5 -2.0 -2.55 -2.2 -2.4 -2.5 -2.3 -2.9 -2.45 -3.95 -2.65 -5.3 -2.55 -6.2 -2.6 -6.25 -1.9 -7.65 -1.9 -7.85 -1.8 -7.9 -1.8 -7.85 -1.75 -7.85 -1.4 -8.5 0.9 -8.75 2.6 -8.65 2.7 -8.75 2.6 -9.05 M3.5 -6.3 L1.15 -5.95 0.85 -5.95 0.85 -5.55 2.8 -5.3 4.4 -5.2 4.45 -5.65 4.55 -6.05 4.45 -6.75 4.45 -6.8 4.4 -6.85 4.25 -6.75 3.6 -6.4 3.45 -6.4 3.5 -6.3 M4.15 -4.7 L1.95 -5.05 1.9 -4.9 2.15 -4.75 2.55 -4.65 4.15 -4.65 4.15 -4.7 M3.05 -3.2 Q3.05 -1.55 2.75 -1.15 L3.1 -1.0 3.5 -0.7 4.1 -2.15 4.7 -3.7 4.5 -4.25 3.55 -4.25 3.8 -4.3 2.1 -4.4 1.95 -4.45 1.85 -4.2 Q2.8 -4.05 2.95 -3.8 L3.05 -3.2 M1.5 -5.1 L0.6 -5.2 0.6 -5.45 0.55 -5.45 0.0 -5.35 -0.05 -5.25 0.25 -4.1 0.15 -3.7 -0.1 -3.3 -0.1 -3.15 -0.1 -2.95 -0.1 -2.4 1.35 -1.85 2.5 -1.3 2.8 -3.2 Q2.8 -3.7 2.15 -3.75 1.5 -3.9 1.5 -4.3 L1.65 -4.5 1.45 -4.5 1.45 -4.95 1.5 -5.1 M0.95 -1.5 L-0.2 -2.05 -0.25 -2.0 -0.85 -2.0 -0.9 -1.85 -1.1 -1.85 -1.25 -1.95 -1.4 -0.9 -1.5 -0.6 -0.95 0.4 Q-0.4 1.05 0.45 1.05 L1.4 0.85 1.4 0.45 1.45 0.45 1.45 0.35 1.5 -0.95 1.45 -1.1 1.5 -1.25 0.95 -1.5" fill="#000000" fill-rule="evenodd" stroke="none"/>
    <path d="M1.65 -6.35 L2.4 -7.3 2.95 -8.45 3.0 -8.45 3.1 -8.4 3.8 -6.85 3.4 -6.75 3.2 -6.7 3.15 -6.7 3.15 -6.65 1.65 -6.35 M1.5 -5.1 L1.45 -4.95 1.45 -4.5 1.65 -4.5 1.5 -4.3 Q1.5 -3.9 2.15 -3.75 2.8 -3.7 2.8 -3.2 L2.5 -1.3 1.35 -1.85 -0.1 -2.4 -0.1 -2.95 -0.1 -3.15 -0.1 -3.3 0.15 -3.7 0.25 -4.1 -0.05 -5.25 0.0 -5.35 0.55 -5.45 0.6 -5.45 0.6 -5.2 1.5 -5.1" fill="#555555" fill-rule="evenodd" stroke="none"/>
    <path d="M1.5 -6.6 L1.05 -6.3 0.6 -6.25 0.6 -6.05 Q0.5 -5.95 0.55 -5.75 L0.0 -5.65 -0.45 -5.35 -0.05 -4.15 -0.3 -3.75 -0.5 -3.3 -0.5 -3.15 -0.45 -3.15 -0.5 -2.45 -0.7 -2.45 -0.7 -2.35 -1.45 -2.35 -2.15 -2.4 Q-2.0 -2.5 -2.0 -2.9 L-2.4 -5.3 -2.25 -6.1 Q-1.9 -6.5 -1.8 -7.2 L-1.55 -7.55 -1.55 -7.65 Q-1.05 -8.3 0.85 -8.4 L2.25 -8.35 2.45 -8.3 2.25 -7.65 1.5 -6.6" fill="#9d9d9d" fill-rule="evenodd" stroke="none"/>
    <path d="M0.95 -1.5 L1.5 -1.25 1.45 -1.1 1.5 -0.95 1.45 0.35 1.45 0.45 1.4 0.45 1.4 0.85 0.45 1.05 Q-0.4 1.05 -0.95 0.4 L-1.5 -0.6 -1.4 -0.9 -1.25 -1.95 -1.1 -1.85 -0.9 -1.85 -0.85 -2.0 -0.25 -2.0 -0.2 -2.05 0.95 -1.5" fill="#151515" fill-rule="evenodd" stroke="none"/>
    <path d="M4.15 -4.7 L4.15 -4.65 2.55 -4.65 2.15 -4.75 1.9 -4.9 1.95 -5.05 4.15 -4.7" fill="#ff1111" fill-rule="evenodd" stroke="none"/>
    <path d="M3.5 -6.3 L3.45 -6.4 3.6 -6.4 4.25 -6.75 4.4 -6.85 4.45 -6.8 4.45 -6.75 4.55 -6.05 4.45 -5.65 4.4 -5.2 2.8 -5.3 0.85 -5.55 0.85 -5.95 1.15 -5.95 3.5 -6.3 M3.05 -3.2 L2.95 -3.8 Q2.8 -4.05 1.85 -4.2 L1.95 -4.45 2.1 -4.4 3.8 -4.3 3.55 -4.25 4.5 -4.25 4.7 -3.7 4.1 -2.15 3.5 -0.7 3.1 -1.0 2.75 -1.15 Q3.05 -1.55 3.05 -3.2" fill="#b3b3b3" fill-rule="evenodd" stroke="none"/>
    <path d="M4.75 -4.0 L2.05 -4.45 1.8 -4.1 2.25 -3.1 1.8 -2.0 Q1.8 -1.4 3.55 -0.55 L5.0 0.2 4.55 -0.45 4.5 -1.55 Q4.5 -2.2 4.85 -3.6 L4.75 -4.0 M4.55 -4.45 L4.7 -4.5 5.1 -3.55 4.7 -1.55 Q4.7 -0.8 4.85 -0.5 L5.35 0.4 5.4 0.45 5.4 0.5 2.9 -0.6 Q1.55 -1.2 1.55 -2.0 L1.8 -2.5 2.05 -3.05 1.8 -3.6 1.6 -3.85 1.6 -4.2 1.7 -4.4 1.85 -4.55 1.8 -4.65 1.95 -4.7 2.05 -4.75 2.05 -4.7 2.15 -4.75 4.55 -4.4 4.55 -4.45 M1.0 -2.85 L1.0 -3.0 1.05 -3.05 1.0 -2.85" fill="#000000" fill-rule="evenodd" stroke="none"/>
    <path d="M4.75 -4.0 L4.85 -3.6 Q4.5 -2.2 4.5 -1.55 L4.55 -0.45 5.0 0.2 3.55 -0.55 Q1.8 -1.4 1.8 -2.0 L2.25 -3.1 1.8 -4.1 2.05 -4.45 4.75 -4.0" fill="#b3b3b3" fill-rule="evenodd" stroke="none"/>
    <path d="M2.65 -3.75 L2.75 -3.0 2.5 -2.4 2.9 -2.45 3.0 -2.4 3.1 -2.45 3.2 -2.4 2.6 -2.0 2.45 -2.0 3.05 -1.45 3.65 -1.05 3.95 -0.9 3.95 -0.85 4.45 -0.65 4.45 -0.5 4.2 -0.5 Q3.05 -0.9 2.55 -1.45 L2.15 -1.8 2.0 -1.8 2.05 -2.15 2.5 -3.25 2.45 -3.55 2.25 -3.55 2.1 -4.05 2.25 -4.3 2.45 -4.2 3.45 -4.1 3.5 -4.0 3.25 -3.8 2.7 -3.95 2.7 -3.9 2.65 -3.75 M-1.7 -7.15 L-2.0 -6.15 -2.2 -5.2 -2.0 -4.0 -1.75 -3.15 -1.25 -3.95 -1.15 -3.65 -1.15 -3.5 -1.1 -3.6 -1.05 -3.45 -1.3 -3.05 -1.45 -2.85 -0.4 -2.6 -0.5 -2.4 -2.15 -2.4 -1.9 -2.75 -2.2 -3.85 -2.4 -5.2 Q-2.4 -6.65 -1.8 -7.2 L-1.7 -7.15" fill="#ffff00" fill-rule="evenodd" stroke="none"/>
  </g>
</svg>
