<?xml version="1.0" encoding="UTF-8" standalone="no"?>
<svg xmlns:xlink="http://www.w3.org/1999/xlink" height="8.05px" width="20.35px" xmlns="http://www.w3.org/2000/svg">
  <g transform="matrix(1.0, 0.0, 0.0, 1.0, 7.95, 5.45)">
    <path d="M-7.2 -2.8 L-3.35 -3.05 -3.35 -3.0 12.05 -3.65 12.25 -3.55 12.35 -2.4 12.35 -2.0 12.4 -1.9 12.25 -1.75 11.8 -1.75 11.8 -1.8 9.8 -1.75 7.0 -1.35 5.45 -0.8 5.45 -0.75 5.3 -0.7 4.65 -1.1 4.15 -1.55 3.05 -1.5 3.15 -0.85 3.0 -0.3 Q2.65 0.0 1.55 0.05 L1.4 0.05 1.4 0.15 0.65 0.8 0.1 1.75 0.5 2.0 0.5 2.35 -0.3 2.55 -1.25 2.4 -1.45 2.6 -1.5 2.4 -1.45 1.95 -0.85 -0.5 -0.9 -0.7 -1.0 -1.2 -1.0 -1.35 -1.7 -1.3 -2.15 -1.2 -4.9 -0.35 -6.85 0.85 -6.9 0.95 -6.9 0.9 Q-7.45 0.85 -7.3 -0.1 L-7.6 -1.35 -7.95 -2.5 -7.45 -2.85 -7.2 -2.85 -7.2 -2.8 M-6.9 0.6 Q-6.65 0.2 -5.15 -0.55 L-3.75 -1.15 -3.6 -1.1 -3.25 -1.25 -2.2 -1.6 -2.1 -1.65 -1.95 -1.7 -1.85 -1.7 -1.0 -1.75 -0.95 -1.7 4.4 -1.9 4.6 -1.7 5.2 -1.25 5.3 -1.15 6.9 -1.55 7.5 -1.8 9.15 -2.0 9.75 -2.1 9.85 -2.15 12.05 -2.25 12.0 -2.9 12.0 -3.35 -3.5 -2.6 -3.6 -2.65 -3.75 -2.7 -3.8 -2.7 -4.0 -2.65 -7.6 -2.5 Q-7.05 -1.0 -7.0 0.5 L-6.9 0.6 M1.3 -1.35 L0.9 -0.65 1.1 -0.35 1.35 -0.2 1.95 -0.35 Q2.85 -0.6 2.85 -0.85 L2.7 -1.3 2.7 -1.5 1.3 -1.45 1.3 -1.35 M-0.5 -1.05 L-0.5 -0.75 -0.4 -0.35 -0.5 -0.3 -0.75 0.75 -1.05 1.9 -1.05 2.1 -0.3 2.2 -0.1 2.15 -0.2 1.9 -0.2 1.85 -0.1 1.5 0.25 0.75 0.9 -0.1 0.6 -0.65 Q0.6 -1.2 0.9 -1.4 L-0.65 -1.35 -0.5 -1.05 M7.4 -2.7 L8.75 -2.75 8.8 -2.7 8.8 -2.45 6.9 -2.25 6.2 -2.35 Q5.95 -2.35 5.75 -1.8 5.5 -1.75 5.45 -2.2 5.45 -2.65 6.2 -2.7 L6.35 -2.65 6.4 -2.75 6.7 -2.75 6.75 -2.7 7.35 -2.75 7.4 -2.7" fill="#000000" fill-rule="evenodd" stroke="none"/>
    <path d="M-6.9 0.6 L-7.0 0.5 Q-7.05 -1.0 -7.6 -2.5 L-4.0 -2.65 -3.8 -2.7 -3.75 -2.7 -3.6 -2.65 -3.5 -2.6 12.0 -3.35 12.0 -2.9 12.05 -2.25 9.85 -2.15 9.75 -2.1 9.15 -2.0 7.5 -1.8 6.9 -1.55 5.3 -1.15 5.2 -1.25 4.6 -1.7 4.4 -1.9 -0.95 -1.7 -1.0 -1.75 -1.85 -1.7 -1.95 -1.7 -2.1 -1.65 -2.2 -1.6 -3.25 -1.25 -3.6 -1.1 -3.75 -1.15 -5.15 -0.55 Q-6.65 0.2 -6.9 0.6 M7.4 -2.7 L7.35 -2.75 6.75 -2.7 6.7 -2.75 6.4 -2.75 6.35 -2.65 6.2 -2.7 Q5.45 -2.65 5.45 -2.2 5.5 -1.75 5.75 -1.8 5.95 -2.35 6.2 -2.35 L6.9 -2.25 8.8 -2.45 8.8 -2.7 8.75 -2.75 7.4 -2.7 M-0.5 -1.05 L-0.65 -1.35 0.9 -1.4 Q0.6 -1.2 0.6 -0.65 L0.9 -0.1 0.25 0.75 -0.1 1.5 -0.2 1.85 -0.2 1.9 -0.1 2.15 -0.3 2.2 -1.05 2.1 -1.05 1.9 -0.75 0.75 -0.5 -0.3 -0.4 -0.35 -0.5 -0.75 -0.5 -1.05" fill="#803c21" fill-rule="evenodd" stroke="none"/>
    <path d="M8.3 -5.15 L11.3 -5.25 11.5 -5.45 11.6 -5.4 12.2 -5.4 12.3 -2.95 12.15 -2.9 Q11.7 -2.9 11.65 -3.1 L7.5 -2.9 6.35 -3.0 5.35 -3.05 5.1 -3.15 2.85 -2.95 2.35 -2.85 1.8 -2.75 1.75 -2.45 1.55 -2.45 Q0.2 -3.25 0.2 -3.4 L1.05 -4.35 Q1.5 -4.7 1.65 -4.45 1.9 -4.05 2.3 -4.1 L2.45 -4.1 2.6 -4.15 2.6 -4.25 8.15 -4.95 8.3 -5.15 M2.9 -3.8 L2.85 -3.8 2.55 -3.75 2.5 -3.3 2.85 -3.3 2.9 -3.8 M2.25 -3.75 Q1.6 -3.75 1.35 -4.1 L0.7 -3.4 1.4 -2.9 2.15 -3.25 2.15 -3.5 2.25 -3.75 M3.2 -3.3 L5.15 -3.5 7.0 -3.35 7.4 -3.2 11.55 -3.4 11.5 -4.15 11.55 -5.0 8.75 -4.85 Q8.6 -4.2 3.2 -3.85 L3.2 -3.75 3.2 -3.3 M11.75 -5.0 L11.8 -3.4 11.9 -3.4 11.9 -3.35 11.95 -3.35 11.9 -5.05 11.8 -5.05 11.75 -5.0" fill="#000000" fill-rule="evenodd" stroke="none"/>
    <path d="M2.85 -3.8 L2.9 -3.8 2.85 -3.3 2.5 -3.3 2.55 -3.75 2.85 -3.8 M11.75 -5.0 L11.8 -5.05 11.9 -5.05 11.95 -3.35 11.9 -3.35 11.9 -3.4 11.8 -3.4 11.75 -5.0" fill="#e8d006" fill-rule="evenodd" stroke="none"/>
    <path d="M3.2 -3.3 L3.2 -3.75 3.2 -3.85 Q8.6 -4.2 8.75 -4.85 L11.55 -5.0 11.5 -4.15 11.55 -3.4 7.4 -3.2 7.0 -3.35 5.15 -3.5 3.2 -3.3 M2.25 -3.75 L2.15 -3.5 2.15 -3.25 1.4 -2.9 0.7 -3.4 1.35 -4.1 Q1.6 -3.75 2.25 -3.75" fill="#59616a" fill-rule="evenodd" stroke="none"/>
  </g>
</svg>
