<?xml version="1.0" encoding="UTF-8" standalone="no"?>
<svg xmlns:xlink="http://www.w3.org/1999/xlink" height="3.95px" width="4.6px" xmlns="http://www.w3.org/2000/svg">
  <g transform="matrix(1.0, 0.0, 0.0, 1.0, 2.4, 2.45)">
    <path d="M0.4 -1.6 Q0.4 -1.9 0.65 -1.85 0.65 -1.65 0.8 -1.55 L0.8 -1.15 0.65 -1.1 Q0.55 -1.1 0.45 -1.2 L0.15 -1.1 Q-0.45 -0.9 -0.45 -0.7 L-0.4 -0.6 -0.25 -0.6 -0.2 -0.45 -0.2 -0.3 0.1 -0.25 0.25 -0.35 0.3 -0.25 1.3 -0.2 Q1.35 -0.1 1.5 -0.1 L1.85 -0.4 1.6 -1.15 1.25 -2.05 0.4 -2.1 -0.75 -2.0 -1.15 -1.95 -1.5 -1.8 -1.55 -1.35 -1.1 -1.55 -1.0 -1.1 -0.75 -1.05 -0.45 -1.25 0.4 -1.55 0.4 -1.6 M2.2 -0.4 L2.0 0.0 1.9 0.15 1.7 0.9 Q1.35 1.5 0.7 1.5 L0.35 1.4 -0.25 1.5 Q-1.0 1.5 -1.05 1.15 L-1.55 1.15 -2.0 0.5 -1.95 0.25 -2.2 -0.05 -2.4 -0.45 -1.95 -1.05 -1.85 -1.15 -1.9 -1.2 -1.8 -2.15 -1.25 -2.15 -1.25 -2.3 0.45 -2.45 Q1.6 -2.45 1.75 -2.1 1.65 -1.65 1.8 -1.45 L2.2 -0.4 M1.5 0.3 L1.1 0.15 0.35 0.05 0.35 0.4 0.4 0.65 0.45 0.65 0.5 0.9 0.5 1.05 0.55 1.15 1.3 1.1 1.5 0.3 M-1.35 -1.15 L-2.1 -0.45 -1.85 -0.2 -1.75 -0.4 -1.3 -0.95 -1.35 -1.15 M-0.8 -0.35 L-0.85 -0.5 -0.8 -0.65 -1.05 -0.75 Q-1.35 -0.75 -1.7 0.55 L-1.0 0.85 -0.75 -0.35 -0.8 -0.35 M-0.6 0.05 L-0.7 0.85 -0.7 0.95 -0.65 1.15 0.1 1.1 -0.1 0.15 -0.1 0.05 -0.6 0.05" fill="#000000" fill-rule="evenodd" stroke="none"/>
    <path d="M0.4 -1.6 L0.4 -1.55 -0.45 -1.25 -0.75 -1.05 -1.0 -1.1 -1.1 -1.55 -1.55 -1.35 -1.5 -1.8 -1.15 -1.95 -0.75 -2.0 0.4 -2.1 1.25 -2.05 1.6 -1.15 1.85 -0.4 1.5 -0.1 Q1.35 -0.1 1.3 -0.2 L0.3 -0.25 0.25 -0.35 0.1 -0.25 -0.2 -0.3 -0.2 -0.45 -0.25 -0.6 -0.4 -0.6 -0.45 -0.7 Q-0.45 -0.9 0.15 -1.1 L0.45 -1.2 Q0.55 -1.1 0.65 -1.1 L0.8 -1.15 0.8 -1.55 Q0.65 -1.65 0.65 -1.85 0.4 -1.9 0.4 -1.6 M-0.6 0.05 L-0.1 0.05 -0.1 0.15 0.1 1.1 -0.65 1.15 -0.7 0.95 -0.7 0.85 -0.6 0.05 M-0.8 -0.35 L-0.75 -0.35 -1.0 0.85 -1.7 0.55 Q-1.35 -0.75 -1.05 -0.75 L-0.8 -0.65 -0.85 -0.5 -0.8 -0.35 M-1.35 -1.15 L-1.3 -0.95 -1.75 -0.4 -1.85 -0.2 -2.1 -0.45 -1.35 -1.15 M1.5 0.3 L1.3 1.1 0.55 1.15 0.5 1.05 0.5 0.9 0.45 0.65 0.4 0.65 0.35 0.4 0.35 0.05 1.1 0.15 1.5 0.3" fill="#666666" fill-rule="evenodd" stroke="none"/>
  </g>
</svg>
