<?xml version="1.0" encoding="UTF-8" standalone="no"?>
<svg xmlns:xlink="http://www.w3.org/1999/xlink" height="6.95px" width="24.0px" xmlns="http://www.w3.org/2000/svg">
  <g transform="matrix(1.0, 0.0, 0.0, 1.0, -1.75, 38.95)">
    <path d="M2.65 -38.9 L7.25 -38.8 7.25 -38.75 25.5 -38.35 25.75 -38.2 25.75 -36.85 25.7 -36.4 25.75 -36.25 25.55 -36.1 25.0 -36.1 25.0 -36.15 22.65 -36.3 19.35 -36.0 17.5 -35.5 17.5 -35.45 17.35 -35.4 16.55 -35.95 15.95 -36.5 14.65 -36.5 14.8 -35.75 Q14.8 -35.25 14.5 -35.1 L12.8 -34.8 12.6 -34.8 12.6 -34.65 Q12.1 -34.5 11.65 -33.95 L10.95 -32.95 11.4 -32.6 11.4 -32.2 10.45 -32.0 Q9.55 -31.95 9.3 -32.3 L9.05 -32.05 9.0 -32.3 9.15 -32.8 Q9.55 -34.7 10.05 -35.6 L10.0 -35.85 9.9 -36.45 9.9 -36.6 9.05 -36.65 8.5 -36.55 Q6.65 -36.35 5.25 -35.75 L2.85 -34.45 2.75 -34.4 2.75 -34.45 Q2.1 -34.55 2.35 -35.7 L2.05 -37.15 1.75 -38.55 Q1.75 -38.75 2.35 -38.95 L2.65 -38.95 2.65 -38.9 M2.8 -34.75 Q3.1 -35.25 4.95 -36.05 L6.65 -36.65 6.8 -36.6 7.2 -36.65 8.5 -37.0 8.65 -37.1 8.8 -37.15 8.95 -37.15 9.95 -37.1 10.0 -37.05 16.35 -36.9 16.5 -36.65 17.2 -36.05 17.35 -35.95 19.25 -36.3 Q19.7 -36.35 19.95 -36.55 L21.95 -36.65 22.65 -36.7 22.8 -36.75 25.4 -36.7 Q25.3 -36.95 25.35 -37.45 L25.45 -38.0 7.1 -38.3 6.95 -38.45 6.8 -38.5 6.75 -38.5 6.5 -38.45 2.2 -38.55 Q2.65 -36.75 2.6 -35.0 L2.8 -34.75 M12.6 -36.45 L12.15 -35.7 Q12.15 -35.45 12.3 -35.3 L12.55 -35.1 13.25 -35.25 Q14.45 -35.45 14.45 -35.75 L14.25 -36.3 14.25 -36.5 12.6 -36.55 12.6 -36.45 M10.45 -36.25 L10.45 -35.9 10.55 -35.45 10.4 -35.35 10.05 -34.15 9.6 -32.75 9.55 -32.6 10.45 -32.4 10.65 -32.45 10.6 -32.75 10.6 -32.85 10.8 -33.25 11.25 -34.05 12.0 -35.05 Q11.75 -35.3 11.75 -35.7 11.75 -36.35 12.15 -36.55 L10.3 -36.6 10.45 -36.25 M19.95 -37.6 L21.55 -37.55 21.6 -37.5 21.55 -37.2 19.3 -37.1 18.45 -37.25 Q18.15 -37.3 17.95 -36.7 17.55 -36.65 17.55 -37.15 17.6 -37.7 18.5 -37.65 L18.7 -37.6 18.75 -37.7 19.1 -37.7 19.15 -37.65 19.85 -37.65 Q19.85 -37.6 19.95 -37.6" fill="#000000" fill-rule="evenodd" stroke="none"/>
    <path d="M2.8 -34.75 L2.6 -35.0 Q2.65 -36.75 2.2 -38.55 L6.5 -38.45 6.75 -38.5 6.8 -38.5 6.95 -38.45 7.1 -38.3 25.45 -38.0 25.35 -37.45 Q25.3 -36.95 25.4 -36.7 L22.8 -36.75 22.65 -36.7 21.95 -36.65 19.95 -36.55 Q19.7 -36.35 19.25 -36.3 L17.35 -35.95 17.2 -36.05 16.5 -36.65 16.35 -36.9 10.0 -37.05 9.95 -37.1 8.95 -37.15 8.8 -37.15 8.65 -37.1 8.5 -37.0 7.2 -36.65 6.8 -36.6 6.65 -36.65 4.95 -36.05 Q3.1 -35.25 2.8 -34.75 M19.95 -37.6 Q19.85 -37.6 19.85 -37.65 L19.15 -37.65 19.1 -37.7 18.75 -37.7 18.7 -37.6 18.5 -37.65 Q17.6 -37.7 17.55 -37.15 17.55 -36.65 17.95 -36.7 18.15 -37.3 18.45 -37.25 L19.3 -37.1 21.55 -37.2 21.6 -37.5 21.55 -37.55 19.95 -37.6 M10.45 -36.25 L10.3 -36.6 12.15 -36.55 Q11.75 -36.35 11.75 -35.7 11.75 -35.3 12.0 -35.05 L11.25 -34.05 10.8 -33.25 10.6 -32.85 10.6 -32.75 10.65 -32.45 10.45 -32.4 9.55 -32.6 9.6 -32.75 10.05 -34.15 10.4 -35.35 10.55 -35.45 10.45 -35.9 10.45 -36.25" fill="#803c21" fill-rule="evenodd" stroke="none"/>
  </g>
</svg>
