<?xml version="1.0" encoding="UTF-8" standalone="no"?>
<svg xmlns:xlink="http://www.w3.org/1999/xlink" height="3.0px" width="14.2px" xmlns="http://www.w3.org/2000/svg">
  <g transform="matrix(1.0, 0.0, 0.0, 1.0, -9.85, 41.0)">
    <path d="M19.45 -40.9 L23.0 -40.85 23.25 -41.0 23.35 -40.95 24.05 -40.95 24.05 -38.05 23.9 -38.0 Q23.35 -38.0 23.3 -38.25 L18.4 -38.3 17.1 -38.5 15.9 -38.65 15.6 -38.75 12.95 -38.7 12.4 -38.55 11.65 -38.5 11.6 -38.15 11.35 -38.15 Q9.85 -39.2 9.85 -39.4 L10.9 -40.4 11.6 -40.5 Q11.9 -40.05 12.4 -40.05 L12.55 -40.05 12.75 -40.1 12.75 -40.2 19.3 -40.65 19.45 -40.9 M13.0 -39.7 L12.95 -39.7 12.6 -39.65 12.55 -39.1 12.95 -39.1 13.0 -39.7 M13.4 -39.1 L15.7 -39.15 17.85 -38.8 18.35 -38.65 23.25 -38.6 23.2 -39.55 23.3 -40.5 20.0 -40.55 Q19.75 -39.75 13.4 -39.75 L13.4 -39.65 13.4 -39.1 M12.15 -39.4 L12.25 -39.65 Q11.5 -39.7 11.25 -40.1 L10.45 -39.4 11.25 -38.7 12.15 -39.1 12.15 -39.4 M23.55 -40.5 L23.55 -38.6 23.65 -38.6 23.65 -38.55 23.7 -38.55 23.7 -40.55 23.6 -40.55 23.55 -40.5" fill="#000000" fill-rule="evenodd" stroke="none"/>
    <path d="M12.95 -39.7 L13.0 -39.7 12.95 -39.1 12.55 -39.1 12.6 -39.65 12.95 -39.7 M23.55 -40.5 L23.6 -40.55 23.7 -40.55 23.7 -38.55 23.65 -38.55 23.65 -38.6 23.55 -38.6 23.55 -40.5" fill="#e8d006" fill-rule="evenodd" stroke="none"/>
    <path d="M12.15 -39.4 L12.15 -39.1 11.25 -38.7 10.45 -39.4 11.25 -40.1 Q11.5 -39.7 12.25 -39.65 L12.15 -39.4 M13.4 -39.1 L13.4 -39.65 13.4 -39.75 Q19.75 -39.75 20.0 -40.55 L23.3 -40.5 23.2 -39.55 23.25 -38.6 18.35 -38.65 17.85 -38.8 15.7 -39.15 13.4 -39.1" fill="#59616a" fill-rule="evenodd" stroke="none"/>
  </g>
</svg>
