<?xml version="1.0" encoding="UTF-8" standalone="no"?>
<svg xmlns:xlink="http://www.w3.org/1999/xlink" height="3.0px" width="4.95px" xmlns="http://www.w3.org/2000/svg">
  <g transform="matrix(1.0, 0.0, 0.0, 1.0, -17.6, 40.95)">
    <path d="M20.95 -40.8 L22.2 -40.8 22.25 -40.95 22.3 -40.9 22.55 -40.9 22.55 -38.0 22.5 -37.95 Q22.3 -37.95 22.3 -38.2 L20.6 -38.25 20.15 -38.4 19.75 -38.55 19.6 -38.65 18.7 -38.55 18.5 -38.4 18.25 -38.35 18.2 -38.0 18.15 -38.0 17.6 -39.2 18.0 -40.25 Q18.15 -40.65 18.2 -40.35 L18.5 -39.9 18.55 -39.9 18.6 -39.95 18.6 -40.05 20.9 -40.6 20.95 -40.8 M18.7 -39.55 L18.55 -39.5 18.55 -38.95 18.7 -38.95 18.7 -39.55 M18.85 -38.95 L19.65 -39.05 20.4 -38.75 20.55 -38.6 22.25 -38.55 22.25 -39.5 22.3 -40.45 21.15 -40.45 Q21.05 -39.65 18.85 -39.6 L18.85 -39.5 18.85 -38.95 M18.4 -39.25 L18.45 -39.5 Q18.2 -39.55 18.1 -39.95 L17.8 -39.2 18.1 -38.55 18.4 -38.95 18.4 -39.25 M22.4 -40.45 L22.4 -38.55 22.4 -38.5 22.45 -38.5 22.45 -40.5 22.4 -40.5 22.4 -40.45" fill="#000000" fill-rule="evenodd" stroke="none"/>
    <path d="M18.7 -39.55 L18.7 -38.95 18.55 -38.95 18.55 -39.5 18.7 -39.55 M22.4 -40.45 L22.4 -40.5 22.45 -40.5 22.45 -38.5 22.4 -38.5 22.4 -38.55 22.4 -40.45" fill="#e8d006" fill-rule="evenodd" stroke="none"/>
    <path d="M18.4 -39.25 L18.4 -38.95 18.1 -38.55 17.8 -39.2 18.1 -39.95 Q18.2 -39.55 18.45 -39.5 L18.4 -39.25 M18.85 -38.95 L18.85 -39.5 18.85 -39.6 Q21.05 -39.65 21.15 -40.45 L22.3 -40.45 22.25 -39.5 22.25 -38.55 20.55 -38.6 20.4 -38.75 19.65 -39.05 18.85 -38.95" fill="#59616a" fill-rule="evenodd" stroke="none"/>
  </g>
</svg>
