<?xml version="1.0" encoding="UTF-8" standalone="no"?>
<svg xmlns:xlink="http://www.w3.org/1999/xlink" height="7.25px" width="24.05px" xmlns="http://www.w3.org/2000/svg">
  <g transform="matrix(1.0, 0.0, 0.0, 1.0, 1.2, 41.0)">
    <path d="M-0.3 -40.15 L4.3 -40.35 4.3 -40.3 22.45 -41.0 22.65 -40.9 22.8 -39.55 22.7 -39.05 22.85 -38.95 22.65 -38.75 22.1 -38.75 22.1 -38.85 19.75 -38.8 16.45 -38.35 14.65 -37.7 14.65 -37.65 14.45 -37.6 13.7 -38.1 13.1 -38.6 11.8 -38.55 11.95 -37.8 Q11.95 -37.3 11.75 -37.15 11.35 -36.8 10.05 -36.75 L9.85 -36.75 9.85 -36.6 8.9 -35.85 8.3 -34.75 8.8 -34.45 8.8 -34.05 7.85 -33.8 6.7 -34.0 6.5 -33.75 6.45 -34.0 6.5 -34.5 Q6.8 -36.45 7.2 -37.4 L7.15 -37.65 7.05 -38.15 7.05 -38.35 6.2 -38.35 5.7 -38.2 Q3.8 -37.9 2.45 -37.25 L0.15 -35.8 0.0 -35.75 0.0 -35.8 Q-0.6 -35.85 -0.45 -36.95 -0.45 -37.55 -0.8 -38.45 L-1.2 -39.75 -0.6 -40.2 -0.3 -40.2 -0.3 -40.15 M0.1 -36.1 L2.15 -37.5 3.8 -38.2 4.0 -38.15 4.4 -38.25 5.65 -38.65 5.75 -38.75 5.95 -38.8 6.05 -38.8 7.05 -38.85 7.1 -38.8 13.4 -39.0 13.6 -38.75 14.35 -38.25 14.45 -38.1 16.35 -38.65 17.0 -38.85 19.0 -39.15 19.7 -39.2 19.85 -39.25 22.4 -39.35 22.35 -40.1 22.35 -40.65 4.1 -39.85 4.0 -39.95 3.8 -40.0 3.75 -40.0 3.5 -39.95 -0.75 -39.8 Q-0.15 -38.05 -0.1 -36.25 L0.1 -36.1 M9.75 -38.4 L9.3 -37.55 Q9.3 -37.3 9.45 -37.2 L9.8 -37.0 10.5 -37.2 Q11.6 -37.5 11.6 -37.8 L11.4 -38.3 11.4 -38.55 9.75 -38.5 9.75 -38.4 M7.65 -38.05 L7.65 -37.7 7.7 -37.2 7.55 -37.15 7.35 -35.9 6.95 -34.5 6.95 -34.35 7.85 -34.2 8.05 -34.25 7.95 -34.55 7.95 -34.6 8.1 -35.05 8.5 -35.9 9.25 -36.9 Q8.95 -37.2 8.95 -37.55 8.95 -38.2 9.3 -38.45 L7.45 -38.4 7.65 -38.05 M16.95 -39.9 L18.55 -39.95 18.6 -39.9 18.6 -39.6 16.35 -39.45 15.55 -39.5 Q15.25 -39.5 15.0 -38.95 14.65 -38.8 14.65 -39.35 14.65 -39.9 15.55 -39.95 L15.7 -39.85 15.75 -40.0 16.1 -40.0 16.2 -39.95 16.9 -40.0 16.95 -39.9" fill="#000000" fill-rule="evenodd" stroke="none"/>
    <path d="M0.1 -36.1 L-0.1 -36.25 Q-0.15 -38.05 -0.75 -39.8 L3.5 -39.95 3.75 -40.0 3.8 -40.0 4.0 -39.95 4.1 -39.85 22.35 -40.65 22.35 -40.1 22.4 -39.35 19.85 -39.25 19.7 -39.2 19.0 -39.15 17.0 -38.85 16.35 -38.65 14.45 -38.1 14.35 -38.25 13.6 -38.75 13.4 -39.0 7.1 -38.8 7.05 -38.85 6.05 -38.8 5.95 -38.8 5.75 -38.75 5.65 -38.65 4.4 -38.25 4.0 -38.15 3.8 -38.2 2.15 -37.5 0.1 -36.1 M16.95 -39.9 L16.9 -40.0 16.2 -39.95 16.1 -40.0 15.75 -40.0 15.7 -39.85 15.55 -39.95 Q14.65 -39.9 14.65 -39.35 14.65 -38.8 15.0 -38.95 15.25 -39.5 15.55 -39.5 L16.35 -39.45 18.6 -39.6 18.6 -39.9 18.55 -39.95 16.95 -39.9 M7.65 -38.05 L7.45 -38.4 9.3 -38.45 Q8.95 -38.2 8.95 -37.55 8.95 -37.2 9.25 -36.9 L8.5 -35.9 8.1 -35.05 7.95 -34.6 7.95 -34.55 8.05 -34.25 7.85 -34.2 6.95 -34.35 6.95 -34.5 7.35 -35.9 7.55 -37.15 7.7 -37.2 7.65 -37.7 7.65 -38.05" fill="#803c21" fill-rule="evenodd" stroke="none"/>
  </g>
</svg>
