<?xml version="1.0" encoding="UTF-8" standalone="no"?>
<svg xmlns:xlink="http://www.w3.org/1999/xlink" height="3.0px" width="8.45px" xmlns="http://www.w3.org/2000/svg">
  <g transform="matrix(1.0, 0.0, 0.0, 1.0, -17.35, 40.7)">
    <path d="M23.05 -40.6 L25.15 -40.55 25.3 -40.7 25.35 -40.65 25.8 -40.65 25.8 -37.75 25.65 -37.7 Q25.35 -37.7 25.3 -37.95 L22.45 -38.0 21.65 -38.15 20.95 -38.3 20.8 -38.4 19.2 -38.35 18.85 -38.2 18.45 -38.15 18.4 -37.8 18.25 -37.8 17.35 -39.0 18.0 -40.05 Q18.3 -40.45 18.4 -40.15 18.6 -39.7 18.85 -39.7 L18.95 -39.7 19.05 -39.75 19.05 -39.85 22.95 -40.35 23.05 -40.6 M19.25 -39.35 L19.2 -39.35 19.0 -39.3 18.95 -38.75 19.2 -38.75 19.25 -39.35 M18.8 -39.3 Q18.35 -39.35 18.2 -39.75 L17.7 -39.0 18.2 -38.35 18.75 -38.75 18.75 -39.05 18.8 -39.3 M19.45 -38.75 L20.8 -38.8 22.1 -38.5 22.4 -38.35 25.3 -38.3 25.25 -39.25 25.3 -40.2 23.35 -40.25 Q23.25 -39.45 19.45 -39.4 L19.45 -39.3 19.45 -38.75 M25.45 -40.2 L25.45 -38.3 25.55 -38.3 25.55 -38.25 25.55 -40.25 25.5 -40.25 25.45 -40.2" fill="#000000" fill-rule="evenodd" stroke="none"/>
    <path d="M19.2 -39.35 L19.25 -39.35 19.2 -38.75 18.95 -38.75 19.0 -39.3 19.2 -39.35 M25.45 -40.2 L25.5 -40.25 25.55 -40.25 25.55 -38.25 25.55 -38.3 25.45 -38.3 25.45 -40.2" fill="#e8d006" fill-rule="evenodd" stroke="none"/>
    <path d="M19.45 -38.75 L19.45 -39.3 19.45 -39.4 Q23.25 -39.45 23.35 -40.25 L25.3 -40.2 25.25 -39.25 25.3 -38.3 22.4 -38.35 22.1 -38.5 20.8 -38.8 19.45 -38.75 M18.8 -39.3 L18.75 -39.05 18.75 -38.75 18.2 -38.35 17.7 -39.0 18.2 -39.75 Q18.35 -39.35 18.8 -39.3" fill="#59616a" fill-rule="evenodd" stroke="none"/>
  </g>
</svg>
