<?xml version="1.0" encoding="UTF-8" standalone="no"?>
<svg xmlns:xlink="http://www.w3.org/1999/xlink" height="10.7px" width="6.15px" xmlns="http://www.w3.org/2000/svg">
  <g transform="matrix(1.0, 0.0, 0.0, 1.0, 3.1, 2.35)">
    <path d="M-1.4 -1.1 L-2.65 -0.6 -2.7 0.55 -0.35 1.2 0.1 2.2 2.1 -1.2 1.15 -1.95 1.35 0.0 -0.25 -1.5 0.65 -2.35 1.95 -2.0 3.05 0.0 1.45 4.5 1.4 3.0 0.25 2.9 -2.15 1.0 -1.85 2.2 -3.1 0.85 -3.0 -0.95 -1.4 -1.1 M0.65 7.6 L0.45 8.35 -1.25 6.25 -1.15 5.15 -0.9 6.15 0.65 7.6 M0.8 0.1 L0.8 0.4 -0.4 0.4 -0.4 0.1 0.8 0.1" fill="#000000" fill-rule="evenodd" stroke="none"/>
    <path d="M-0.25 -1.5 L1.35 0.0 1.15 -1.95 2.1 -1.2 0.1 2.2 -0.35 1.2 -2.7 0.55 -2.65 -0.6 -1.4 -1.1 -0.25 -1.5 M0.8 0.1 L-0.4 0.1 -0.4 0.4 0.8 0.4 0.8 0.1" fill="#999999" fill-rule="evenodd" stroke="none"/>
    <path d="M-1.85 2.2 L-2.15 1.0 0.25 2.9 1.4 3.0 1.45 4.5 0.65 7.6 -0.9 6.15 -1.15 5.15 -1.85 2.2" fill="#39342d" fill-rule="evenodd" stroke="none"/>
    <path d="M2.1 -0.95 Q2.1 -0.15 1.65 -0.15 1.1 -0.15 0.75 -1.65 0.75 -2.8 2.1 -0.95" fill="#cccccc" fill-rule="evenodd" stroke="none"/>
  </g>
</svg>
