<?xml version="1.0" encoding="UTF-8" standalone="no"?>
<svg xmlns:xlink="http://www.w3.org/1999/xlink" height="32.75px" width="28.65px" xmlns="http://www.w3.org/2000/svg">
  <g transform="matrix(1.0, 0.0, 0.0, 1.0, 10.55, 22.1)">
    <path d="M7.1 -20.8 L12.25 -13.25 6.1 -20.1 7.1 -20.8 M10.3 -0.55 L8.25 -3.8 10.95 -10.95 11.05 -3.45 10.3 -0.55 M15.8 -12.75 L12.45 -8.0 11.85 -10.95 14.95 -14.8 16.1 -13.25 15.8 -12.75" fill="#999999" fill-rule="evenodd" stroke="none"/>
    <path d="M16.45 -20.4 L15.45 -20.9 Q9.95 -23.05 7.8 -20.35 L12.95 -14.1 14.8 -15.95 16.4 -13.8 16.1 -13.25 14.95 -14.8 11.85 -10.95 12.45 -8.0 15.8 -12.75 11.05 -3.45 10.95 -10.95 8.25 -3.8 10.3 -0.55 9.95 1.0 7.9 -3.8 10.85 -12.05 5.95 -20.0 2.2 -16.65 8.3 -9.0 10.65 -11.65 7.3 -4.0 8.1 -7.55 1.3 -15.8 Q-0.5 -13.7 -2.9 -12.4 -7.35 -9.95 -9.3 -5.35 -11.45 -0.35 -8.95 4.55 -10.25 2.2 -10.5 -0.7 -10.9 -5.55 -7.55 -8.95 L-0.2 -15.95 Q3.1 -18.95 7.1 -20.8 L8.1 -21.25 Q12.9 -23.3 16.45 -20.4 M7.1 -20.8 L6.1 -20.1 12.25 -13.25 7.1 -20.8 M17.25 -15.25 L17.75 -19.05 Q18.55 -17.6 17.5 -15.75 L17.25 -15.25 M9.95 1.05 Q8.75 6.55 3.9 9.35 -1.2 12.3 -5.7 8.45 L-7.45 6.75 Q-5.3 9.1 -1.95 9.55 5.25 10.95 8.2 4.35 9.45 1.6 8.95 -0.75 L9.95 1.05" fill="#000000" fill-rule="evenodd" stroke="none"/>
    <path d="M16.4 -13.8 L14.8 -15.95 12.95 -14.1 7.8 -20.35 Q9.95 -23.05 15.45 -20.9 L16.45 -20.4 17.75 -19.05 17.25 -15.25 16.4 -13.8 M-8.95 4.55 Q-11.45 -0.35 -9.3 -5.35 -7.35 -9.95 -2.9 -12.4 -0.5 -13.7 1.3 -15.8 L8.1 -7.55 7.3 -4.0 8.95 -0.75 Q9.45 1.6 8.2 4.35 5.25 10.95 -1.95 9.55 -5.3 9.1 -7.45 6.75 L-8.95 4.55 M10.65 -11.65 L8.3 -9.0 2.2 -16.65 5.95 -20.0 10.85 -12.05 10.65 -11.65" fill="#39342d" fill-rule="evenodd" stroke="none"/>
    <path d="M7.3 -4.0 L10.65 -11.65 10.85 -12.05 7.9 -3.8 9.95 1.0 9.95 1.05 8.95 -0.75 7.3 -4.0" fill="#ffe711" fill-rule="evenodd" stroke="none"/>
    <path d="M15.05 -11.0 L13.75 -10.2 15.15 -13.85 15.05 -11.0 M11.05 -9.45 L10.35 -4.8 9.85 -7.0 11.05 -9.45 M7.05 -10.4 L7.1 -10.15 7.05 -9.8 6.75 -9.75 6.3 -9.8 6.2 -10.05 Q6.2 -10.55 7.05 -10.4 M11.6 -15.1 L11.55 -14.8 11.2 -14.75 Q10.6 -14.75 10.6 -15.15 10.6 -15.65 11.1 -15.55 L11.6 -15.1" fill="#cccccc" fill-rule="evenodd" stroke="none"/>
  </g>
</svg>
