<?xml version="1.0" encoding="UTF-8" standalone="no"?>
<svg xmlns:xlink="http://www.w3.org/1999/xlink" height="18.25px" width="21.75px" xmlns="http://www.w3.org/2000/svg">
  <g transform="matrix(1.0, 0.0, 0.0, 1.0, 10.75, 10.05)">
    <path d="M0.55 -9.65 Q1.65 -9.3 2.75 -8.6 3.9 -7.85 4.85 -6.5 6.65 -4.1 7.55 -1.4 L9.7 -1.45 11.0 3.9 4.4 6.85 5.3 6.1 2.8 4.95 2.9 4.15 2.6 3.9 Q-0.3 0.5 2.45 -3.25 L-2.1 -9.5 -6.5 -8.95 Q-2.9 -10.7 0.4 -9.7 L-1.75 -9.55 2.65 -3.45 3.85 -3.6 Q0.35 -1.45 2.05 2.3 L2.45 3.1 Q0.95 -0.9 4.25 -3.65 L6.0 -3.9 0.55 -9.65 M1.45 7.8 Q-4.05 9.35 -8.05 4.85 -11.85 0.55 -10.35 -5.05 -11.2 0.25 -7.85 4.55 -4.3 9.15 1.45 7.8 M3.5 -0.2 L3.55 -0.1 3.6 -0.1 4.55 -2.15 5.4 -1.8 3.6 1.05 3.5 -0.2 M6.0 -1.75 L6.95 -1.95 6.75 -0.9 7.1 -0.9 7.1 -0.35 6.7 -0.35 6.7 -0.75 6.5 0.4 6.05 -0.5 6.65 -1.75 6.0 -1.75 M6.5 0.45 L6.7 2.55 6.7 2.7 6.75 2.55 7.1 1.4 Q8.1 -1.85 5.5 -3.55 0.55 -1.25 3.2 3.55 L5.6 3.75 5.75 3.65 6.0 3.25 Q6.25 2.2 5.7 3.55 L5.55 3.65 Q4.7 3.65 4.1 2.55 L4.05 2.45 Q5.25 2.0 5.55 2.6 L6.1 1.95 4.7 0.6 5.9 0.95 5.5 -0.05 4.8 0.4 5.55 -0.65 6.5 0.45 M5.9 -2.25 Q5.6 -2.95 6.0 -2.25 L5.9 -2.25 M3.05 -0.75 L3.4 -1.0 Q4.3 -1.05 3.05 -0.75 M9.3 -0.4 L7.8 -0.2 6.75 3.1 4.0 5.05 5.9 5.75 8.45 4.05 9.55 1.7 9.3 -0.4 M3.2 4.2 L3.25 4.55 Q4.3 4.75 3.2 4.2 M2.95 1.1 L2.95 1.65 2.5 1.65 2.5 1.1 2.95 1.1 M9.1 3.3 L9.15 3.6 Q11.25 3.4 9.1 3.3 M4.25 3.5 L4.2 3.6 Q3.3 3.2 4.25 3.5" fill="#000000" fill-rule="evenodd" stroke="none"/>
    <path d="M0.4 -9.7 L0.5 -9.7 0.55 -9.65 6.0 -3.9 4.25 -3.65 4.55 -3.8 3.85 -3.6 2.65 -3.45 -1.75 -9.55 0.4 -9.7 M3.5 -0.2 L3.6 -0.1 3.55 -0.1 3.5 -0.2 M5.4 -1.8 L6.0 -1.75 6.65 -1.75 6.05 -0.5 6.5 0.4 6.55 0.5 6.5 0.45 5.55 -0.65 4.8 0.4 4.7 0.6 6.1 1.95 5.55 2.6 Q5.25 2.0 4.05 2.45 L3.6 1.05 5.4 -1.8 M6.7 2.55 L6.75 2.55 6.7 2.7 6.7 2.55 M5.6 3.75 L5.55 3.65 5.7 3.55 5.75 3.65 5.6 3.75 M9.3 -0.4 L9.55 1.7 8.45 4.05 5.9 5.75 4.0 5.05 6.75 3.1 7.8 -0.2 9.3 -0.4" fill="#999999" fill-rule="evenodd" stroke="none"/>
    <path d="M3.85 -3.6 L4.55 -3.8 4.25 -3.65 Q0.95 -0.9 2.45 3.1 L2.05 2.3 Q0.35 -1.45 3.85 -3.6 M3.6 -0.1 L3.5 -0.2 3.6 1.05 4.05 2.45 4.1 2.55 Q4.7 3.65 5.55 3.65 L5.6 3.75 3.2 3.55 Q0.55 -1.25 5.5 -3.55 8.1 -1.85 7.1 1.4 L6.75 2.55 6.7 2.55 6.5 0.45 6.55 0.5 6.5 0.4 6.7 -0.75 6.7 -0.35 7.1 -0.35 7.1 -0.9 6.75 -0.9 6.95 -1.95 6.0 -1.75 5.4 -1.8 4.55 -2.15 3.6 -0.1 M3.05 -0.75 Q4.3 -1.05 3.4 -1.0 L3.05 -0.75 M5.9 -2.25 L6.0 -2.25 Q5.6 -2.95 5.9 -2.25 M4.7 0.6 L4.8 0.4 5.5 -0.05 5.9 0.95 4.7 0.6 M5.75 3.65 L5.7 3.55 Q6.25 2.2 6.0 3.25 L5.75 3.65 M9.1 3.3 Q11.25 3.4 9.15 3.6 L9.1 3.3 M2.95 1.1 L2.5 1.1 2.5 1.65 2.95 1.65 2.95 1.1 M3.2 4.2 Q4.3 4.75 3.25 4.55 L3.2 4.2 M4.25 3.5 Q3.3 3.2 4.2 3.6 L4.25 3.5" fill="#ffe711" fill-rule="evenodd" stroke="none"/>
    <path d="M4.4 6.85 Q3.25 7.5 1.45 7.8 -4.3 9.15 -7.85 4.55 -11.2 0.25 -10.35 -5.05 L-6.5 -8.95 -2.1 -9.5 2.45 -3.25 Q-0.3 0.5 2.6 3.9 L2.9 4.15 2.8 4.95 5.3 6.1 4.4 6.85" fill="#39342d" fill-rule="evenodd" stroke="none"/>
    <path d="M8.2 -0.2 L9.6 1.9 Q7.75 2.4 8.2 -0.2 M4.6 -1.2 L4.6 -1.4 Q4.6 -1.95 5.45 -1.8 L5.5 -1.55 5.3 -1.15 5.05 -1.0 Q4.65 -1.0 4.6 -1.2 M1.0 -8.0 L2.8 -8.0 4.65 -4.15 1.0 -8.0" fill="#cccccc" fill-rule="evenodd" stroke="none"/>
  </g>
</svg>
