<?xml version="1.0" encoding="UTF-8" standalone="no"?>
<svg xmlns:xlink="http://www.w3.org/1999/xlink" height="34.6px" width="47.4px" xmlns="http://www.w3.org/2000/svg">
  <g transform="matrix(1.0, 0.0, 0.0, 1.0, 23.7, 17.3)">
    <path d="M15.75 -2.25 L15.5 -2.25 Q14.95 2.8 12.6 9.1 L12.6 9.4 12.85 9.4 14.45 4.55 Q15.8 -0.05 15.8 -1.8 L15.75 -2.25 M5.75 -2.05 L5.65 -1.25 5.25 0.15 5.25 0.55 5.5 0.55 6.2 -2.0 6.2 -2.55 5.75 -2.05 M3.75 -2.3 L3.7 -2.55 3.45 -2.55 2.2 1.8 2.25 2.0 Q2.75 1.5 3.3 -0.4 L3.75 -2.3 M4.8 -2.6 L4.75 -2.9 4.45 -2.9 Q3.95 0.45 1.85 9.1 L1.95 9.25 3.55 3.4 4.8 -2.6 M11.9 -13.05 L13.55 -13.35 13.75 -13.3 Q14.35 -13.3 16.55 -15.1 L18.45 -16.7 18.45 -16.65 20.55 -12.3 22.85 -8.8 Q20.8 -6.9 20.1 -3.9 L19.2 2.1 Q19.0 4.45 17.8 8.0 L16.8 10.95 16.4 12.4 Q16.1 13.5 15.5 13.75 L11.5 13.7 9.65 13.8 9.2 13.95 7.2 14.45 4.45 15.0 Q3.6 15.15 3.4 15.5 L1.8 15.45 Q4.85 14.2 6.55 11.7 L8.8 7.5 9.55 5.4 10.1 3.2 11.1 0.95 11.8 -1.0 11.75 -1.2 Q10.85 0.4 9.9 3.1 L8.45 7.5 Q7.95 9.0 6.1 11.55 4.85 13.3 3.05 14.5 L1.45 15.3 1.5 15.45 0.2 15.25 -5.0 15.05 -4.65 15.05 -6.7 15.1 -6.8 15.05 Q-6.25 14.8 -5.4 12.9 -4.5 10.95 -4.5 9.95 L-4.55 9.75 -5.05 10.95 -5.45 12.3 -6.4 13.8 -6.95 14.85 -6.9 15.0 -7.55 14.6 Q-8.45 14.2 -9.9 14.2 L-12.05 14.4 -15.55 14.7 -17.15 15.1 -19.6 15.45 Q-20.55 15.45 -22.75 13.7 L-22.85 13.7 Q-22.15 12.3 -21.55 8.95 -20.95 5.45 -20.95 3.15 L-21.35 -1.2 Q-21.35 -2.65 -20.55 -4.6 -19.8 -6.55 -18.85 -7.6 L-17.5 -9.2 -15.75 -10.65 Q-14.7 -11.1 -13.55 -12.0 L-12.2 -12.6 -11.75 -12.7 -11.05 -12.9 -9.6 -13.1 -6.85 -12.6 -0.1 -12.1 0.5 -12.15 2.25 -12.05 8.65 -12.75 11.9 -13.05 M-0.8 -2.15 Q-1.2 -2.05 -1.3 -1.4 L-1.45 -0.45 -1.8 1.5 -1.75 1.75 Q-1.4 1.05 -1.2 0.0 L-0.8 -1.9 -0.8 -2.15 M-3.5 -5.4 L-4.35 -3.5 -4.8 -1.35 -4.75 -1.15 Q-4.25 -1.7 -3.8 -3.45 L-3.45 -5.15 -3.5 -5.4 M-9.0 -1.85 L-9.05 -2.0 -9.5 -1.6 -9.65 -1.4 -10.05 -0.65 -10.8 1.2 -12.2 4.45 -14.4 11.25 -14.35 11.4 -14.05 11.35 Q-13.65 8.45 -11.3 3.1 L-9.3 -1.15 -9.2 -1.45 -9.0 -1.85 M-6.65 -11.9 Q-8.15 -10.5 -9.45 -8.6 L-11.65 -5.25 Q-15.05 0.2 -15.05 1.55 L-15.0 1.7 -11.3 -5.2 Q-10.25 -7.2 -8.2 -9.65 L-6.35 -11.7 -6.4 -11.9 -6.65 -11.9 M-16.35 -6.55 L-16.4 -6.7 Q-17.8 -4.75 -18.65 -1.85 L-19.8 3.3 -19.8 4.05 -19.55 4.05 -18.45 -1.3 -16.35 -6.55 M-8.45 -12.65 L-8.5 -12.8 Q-12.55 -10.45 -14.65 -7.3 -15.9 -5.4 -17.3 -1.45 -18.55 2.2 -20.2 10.75 L-20.2 11.55 -19.95 11.55 Q-18.45 3.3 -17.1 -1.0 L-16.0 -4.1 -14.45 -7.15 Q-12.8 -9.4 -10.45 -11.2 L-8.45 -12.65" fill="#d81616" fill-rule="evenodd" stroke="none"/>
    <path d="M13.4 -13.65 Q14.75 -14.1 16.35 -15.45 L18.7 -17.3 18.75 -17.1 18.75 -17.0 20.8 -12.75 Q21.9 -10.75 23.2 -9.1 L23.5 -9.35 23.6 -9.2 23.4 -8.85 23.7 -8.5 23.7 -8.15 23.55 -8.1 23.5 -8.1 22.4 -6.3 Q21.2 -4.05 20.9 -2.45 L20.05 3.7 18.35 9.75 Q18.05 10.7 17.95 12.75 17.65 14.25 16.5 15.15 L16.55 15.25 16.25 15.45 16.0 15.45 14.6 15.2 13.65 14.95 Q8.5 14.95 5.75 16.15 2.95 17.3 2.2 17.3 L-2.2 16.5 -2.25 16.35 -3.45 16.15 -5.05 16.15 -5.95 16.3 -7.05 16.55 Q-7.75 16.55 -8.7 16.0 -9.6 15.4 -12.0 15.4 L-15.95 16.1 -19.65 16.8 Q-20.65 16.8 -22.2 15.95 -23.7 15.15 -23.7 14.75 L-23.5 13.95 -23.2 13.65 -23.2 13.6 Q-22.5 12.15 -21.85 8.75 -21.25 5.4 -21.25 3.1 L-21.4 1.65 -21.3 1.0 -21.65 -1.2 Q-21.65 -4.6 -19.15 -7.85 -16.4 -11.4 -11.8 -13.05 L-11.65 -13.05 -10.9 -13.3 -9.55 -13.45 -6.65 -13.0 -5.85 -12.6 -0.85 -12.5 2.2 -12.4 13.4 -13.6 13.4 -13.65 M11.9 -13.05 L8.65 -12.75 2.25 -12.05 0.5 -12.15 -0.1 -12.1 -6.85 -12.6 -9.6 -13.1 -11.05 -12.9 -11.75 -12.7 -12.2 -12.6 -13.55 -12.0 Q-14.7 -11.1 -15.75 -10.65 L-17.5 -9.2 -18.85 -7.6 Q-19.8 -6.55 -20.55 -4.6 -21.35 -2.65 -21.35 -1.2 L-20.95 3.15 Q-20.95 5.45 -21.55 8.95 -22.15 12.3 -22.85 13.7 L-22.75 13.7 Q-20.55 15.45 -19.6 15.45 L-17.15 15.1 -15.55 14.7 -12.05 14.4 -9.9 14.2 Q-8.45 14.2 -7.55 14.6 L-6.9 15.0 -6.95 14.85 -6.4 13.8 -5.45 12.3 -5.05 10.95 -4.55 9.75 -4.5 9.95 Q-4.5 10.95 -5.4 12.9 -6.25 14.8 -6.8 15.05 L-6.7 15.1 -4.65 15.05 -5.0 15.05 0.2 15.25 1.5 15.45 1.45 15.3 3.05 14.5 Q4.85 13.3 6.1 11.55 7.95 9.0 8.45 7.5 L9.9 3.1 Q10.85 0.4 11.75 -1.2 L11.8 -1.0 11.1 0.95 10.1 3.2 9.55 5.4 8.8 7.5 6.55 11.7 Q4.85 14.2 1.8 15.45 L3.4 15.5 Q3.6 15.15 4.45 15.0 L7.2 14.45 9.2 13.95 9.65 13.8 11.5 13.7 15.5 13.75 Q16.1 13.5 16.4 12.4 L16.8 10.95 17.8 8.0 Q19.0 4.45 19.2 2.1 L20.1 -3.9 Q20.8 -6.9 22.85 -8.8 L20.55 -12.3 18.45 -16.65 18.45 -16.7 16.55 -15.1 Q14.35 -13.3 13.75 -13.3 L13.55 -13.35 11.9 -13.05 M4.8 -2.6 L3.55 3.4 1.95 9.25 1.85 9.1 Q3.95 0.45 4.45 -2.9 L4.75 -2.9 4.8 -2.6 M3.75 -2.3 L3.3 -0.4 Q2.75 1.5 2.25 2.0 L2.2 1.8 3.45 -2.55 3.7 -2.55 3.75 -2.3 M5.75 -2.05 L6.2 -2.55 6.2 -2.0 5.5 0.55 5.25 0.55 5.25 0.15 5.65 -1.25 5.75 -2.05 M15.75 -2.25 L15.8 -1.8 Q15.8 -0.05 14.45 4.55 L12.85 9.4 12.6 9.4 12.6 9.1 Q14.95 2.8 15.5 -2.25 L15.75 -2.25 M23.1 -8.5 L22.35 -7.65 Q20.9 -6.0 20.3 -3.6 L19.85 -0.6 19.5 2.35 Q19.05 5.45 18.1 8.3 L17.1 11.25 16.7 13.05 Q16.4 13.85 15.8 13.95 L15.75 14.05 14.35 14.0 9.05 14.25 Q8.55 14.35 7.45 14.75 L4.9 15.25 3.95 15.5 3.8 15.65 3.75 15.85 3.3 15.85 0.3 15.7 -3.65 15.35 -4.55 15.4 -7.0 15.4 -7.05 15.35 -7.05 15.25 -7.55 14.95 -9.95 14.55 -12.7 14.75 -15.65 15.05 -17.35 15.45 -19.65 15.8 Q-20.3 15.8 -22.95 14.05 L-23.4 14.7 -22.35 15.6 Q-21.0 16.45 -19.65 16.45 L-15.9 15.75 -12.05 15.05 Q-9.5 15.05 -8.6 15.65 -7.65 16.2 -7.1 16.2 L-5.0 15.8 -3.05 16.0 -1.7 16.25 0.05 16.55 0.8 16.6 1.55 16.75 2.15 16.95 5.25 16.1 7.3 15.2 8.45 14.85 11.55 14.65 14.5 14.8 16.1 15.1 16.75 14.35 Q17.5 13.5 17.5 12.45 L18.05 9.4 18.95 6.4 19.75 3.4 20.7 -2.7 Q21.4 -6.15 23.3 -8.25 L23.1 -8.5 M-8.45 -12.65 L-10.45 -11.2 Q-12.8 -9.4 -14.45 -7.15 L-16.0 -4.1 -17.1 -1.0 Q-18.45 3.3 -19.95 11.55 L-20.2 11.55 -20.2 10.75 Q-18.55 2.2 -17.3 -1.45 -15.9 -5.4 -14.65 -7.3 -12.55 -10.45 -8.5 -12.8 L-8.45 -12.65 M-16.35 -6.55 L-18.45 -1.3 -19.55 4.05 -19.8 4.05 -19.8 3.3 -18.65 -1.85 Q-17.8 -4.75 -16.4 -6.7 L-16.35 -6.55 M-6.65 -11.9 L-6.4 -11.9 -6.35 -11.7 -8.2 -9.65 Q-10.25 -7.2 -11.3 -5.2 L-15.0 1.7 -15.05 1.55 Q-15.05 0.2 -11.65 -5.25 L-9.45 -8.6 Q-8.15 -10.5 -6.65 -11.9 M-9.0 -1.85 L-9.2 -1.45 -9.3 -1.15 -11.3 3.1 Q-13.65 8.45 -14.05 11.35 L-14.35 11.4 -14.4 11.25 -12.2 4.45 -10.8 1.2 -10.05 -0.65 -9.65 -1.4 -9.5 -1.6 -9.05 -2.0 -9.0 -1.85 M-3.5 -5.4 L-3.45 -5.15 -3.8 -3.45 Q-4.25 -1.7 -4.75 -1.15 L-4.8 -1.35 -4.35 -3.5 -3.5 -5.4 M-0.8 -2.15 L-0.8 -1.9 -1.2 0.0 Q-1.4 1.05 -1.75 1.75 L-1.8 1.5 -1.45 -0.45 -1.3 -1.4 Q-1.2 -2.05 -0.8 -2.15" fill="#000000" fill-rule="evenodd" stroke="none"/>
    <path d="M23.1 -8.5 L23.3 -8.25 Q21.4 -6.15 20.7 -2.7 L19.75 3.4 18.95 6.4 18.05 9.4 17.5 12.45 Q17.5 13.5 16.75 14.35 L16.1 15.1 14.5 14.8 11.55 14.65 8.45 14.85 7.3 15.2 5.25 16.1 2.15 16.95 1.55 16.75 0.8 16.6 0.05 16.55 -1.7 16.25 -3.05 16.0 -5.0 15.8 -7.1 16.2 Q-7.65 16.2 -8.6 15.65 -9.5 15.05 -12.05 15.05 L-15.9 15.75 -19.65 16.45 Q-21.0 16.45 -22.35 15.6 L-23.4 14.7 -22.95 14.05 Q-20.3 15.8 -19.65 15.8 L-17.35 15.45 -15.65 15.05 -12.7 14.75 -9.95 14.55 -7.55 14.95 -7.05 15.25 -7.05 15.35 -7.0 15.4 -4.55 15.4 -3.65 15.35 0.3 15.7 3.3 15.85 3.75 15.85 3.8 15.65 3.95 15.5 4.9 15.25 7.45 14.75 Q8.55 14.35 9.05 14.25 L14.35 14.0 15.75 14.05 15.8 13.95 Q16.4 13.85 16.7 13.05 L17.1 11.25 18.1 8.3 Q19.05 5.45 19.5 2.35 L19.85 -0.6 20.3 -3.6 Q20.9 -6.0 22.35 -7.65 L23.1 -8.5" fill="#ffe711" fill-rule="evenodd" stroke="none"/>
  </g>
</svg>
