<?xml version="1.0" encoding="UTF-8" standalone="no"?>
<svg xmlns:xlink="http://www.w3.org/1999/xlink" height="10.05px" width="12.85px" xmlns="http://www.w3.org/2000/svg">
  <g transform="matrix(1.0, 0.0, 0.0, 1.0, 9.45, 11.0)">
    <path d="M-5.5 -8.45 L-6.5 -10.45 -1.05 -2.7 Q0.45 -2.9 1.4 -3.85 L0.55 -1.55 -3.05 -3.6 -3.85 -5.25 -3.3 -4.35 Q-3.75 -7.35 -5.5 -8.45" fill="#ffe711" fill-rule="evenodd" stroke="none"/>
    <path d="M-3.85 -5.25 L-3.05 -3.6 0.55 -1.55 1.4 -3.85 Q0.45 -2.9 -1.05 -2.7 L-6.5 -10.45 -5.5 -8.45 -5.75 -8.45 Q-7.7 -7.05 -3.85 -5.25 M1.8 -9.3 L3.4 -7.6 0.6 -0.95 -3.4 -2.4 -5.3 -5.3 -9.45 -9.15 -6.45 -9.6 -7.0 -11.0 1.0 -9.85 -4.9 -10.0 -0.45 -2.9 -0.25 -3.05 Q3.6 -5.85 1.8 -9.3" fill="#000000" fill-rule="evenodd" stroke="none"/>
    <path d="M-3.85 -5.25 Q-7.7 -7.05 -5.75 -8.45 L-5.5 -8.45 Q-3.75 -7.35 -3.3 -4.35 L-3.85 -5.25 M1.0 -9.85 L1.8 -9.3 Q3.6 -5.85 -0.25 -3.05 L-0.45 -2.9 -4.9 -10.0 1.0 -9.85" fill="#999999" fill-rule="evenodd" stroke="none"/>
    <path d="M-6.85 -9.0 L-6.4 -9.0 Q-5.65 -8.9 -5.65 -8.55 L-5.3 -8.2 Q-5.3 -7.8 -5.85 -7.8 -6.4 -7.8 -6.9 -8.15 L-7.3 -8.55 -6.85 -9.0 M-2.55 -6.3 L-4.45 -10.0 Q-2.0 -9.45 0.05 -8.35 L-2.65 -7.9 -2.55 -6.3" fill="#cccccc" fill-rule="evenodd" stroke="none"/>
  </g>
</svg>
