<?xml version="1.0" encoding="UTF-8" standalone="no"?>
<svg xmlns:xlink="http://www.w3.org/1999/xlink" height="11.15px" width="29.4px" xmlns="http://www.w3.org/2000/svg">
  <g transform="matrix(1.0, 0.0, 0.0, 1.0, 14.7, 5.6)">
    <path d="M14.7 3.05 Q14.7 3.6 10.65 4.55 6.55 5.55 4.25 5.55 -0.65 5.55 -3.95 4.0 -5.8 3.1 -8.25 1.3 -11.9 -0.9 -13.15 -3.2 L-13.2 -3.2 -14.7 -5.2 Q-14.7 -6.3 -13.35 -4.25 L-13.0 -4.15 -12.95 -3.8 Q-12.95 -2.05 -7.45 1.25 -1.3 5.0 4.25 5.0 7.65 5.0 10.55 4.1 12.15 3.65 14.15 2.8 L14.65 2.8 14.7 3.05" fill="#000000" fill-rule="evenodd" stroke="none"/>
  </g>
</svg>
