<?xml version="1.0" encoding="UTF-8" standalone="no"?>
<svg xmlns:xlink="http://www.w3.org/1999/xlink" height="12.1px" width="8.75px" xmlns="http://www.w3.org/2000/svg">
  <g transform="matrix(1.0, 0.0, 0.0, 1.0, 3.25, 9.9)">
    <path d="M1.25 -1.45 L3.0 -0.3 4.65 1.0 4.35 -1.4 Q4.35 -2.1 4.7 -3.4 L5.2 -4.75 5.05 -4.75 5.0 -4.9 4.2 -5.35 3.3 -5.9 0.8 -5.85 0.6 -6.0 5.15 -6.4 5.1 -6.7 5.2 -7.25 3.6 -8.45 1.7 -9.5 1.5 -9.15 1.15 -8.8 1.1 -9.0 1.25 -9.4 0.3 -9.15 -1.6 -8.5 -2.7 -7.3 -2.0 -7.0 -2.0 -6.8 -2.15 -6.75 -2.7 -6.9 -2.85 -6.95 -2.6 -6.3 Q-2.1 -4.9 -2.1 -3.9 L-2.25 -2.85 -2.5 -2.15 -2.4 -2.0 -2.15 -2.05 -2.15 -2.1 -1.95 -2.1 -1.85 -2.1 -0.75 -2.15 Q-0.1 -2.15 0.95 -1.6 L0.1 -3.4 0.55 -3.25 0.7 -2.75 1.3 -1.65 1.25 -1.5 1.2 -1.5 1.25 -1.45 M5.45 -7.55 L5.5 -7.25 5.5 -7.15 5.45 -7.0 5.45 -6.5 5.45 -6.2 5.4 -6.15 5.0 -6.0 4.85 -5.4 4.8 -5.35 4.85 -5.35 5.1 -5.15 5.15 -5.15 5.4 -4.9 5.4 -4.75 Q4.65 -2.45 4.65 -1.35 L4.85 0.1 5.35 1.7 5.3 1.75 5.25 1.9 2.75 0.05 2.15 1.05 1.9 1.75 Q1.65 2.2 1.1 2.2 -0.45 2.2 -1.65 1.5 -2.65 0.95 -2.65 0.45 L-2.2 -1.65 -2.2 -1.7 -2.25 -1.7 -2.25 -1.65 -2.3 -1.5 -2.55 -1.5 -2.9 -2.0 -3.0 -2.15 -3.0 -2.2 -2.4 -3.9 Q-2.4 -5.45 -3.1 -7.0 L-3.25 -7.1 Q-3.25 -7.9 -1.75 -8.8 -0.25 -9.75 1.35 -9.75 L1.65 -9.9 Q2.2 -9.9 3.85 -8.75 L5.3 -7.55 5.45 -7.55 M2.0 -0.55 Q0.5 -1.8 -0.8 -1.8 L-1.8 -1.75 -2.3 0.4 Q-2.3 0.9 -1.3 1.35 L1.05 1.85 1.9 0.85 2.5 -0.15 2.0 -0.55" fill="#000000" fill-rule="evenodd" stroke="none"/>
    <path d="M1.25 -1.5 L1.3 -1.65 0.7 -2.75 0.55 -3.25 0.1 -3.4 0.95 -1.6 Q-0.1 -2.15 -0.75 -2.15 L-1.85 -2.1 -1.95 -2.1 -2.15 -2.1 -2.15 -2.05 -2.4 -2.0 -2.5 -2.15 -2.25 -2.85 -2.1 -3.9 Q-2.1 -4.9 -2.6 -6.3 L-2.85 -6.95 -2.7 -6.9 -2.15 -6.75 -2.0 -6.8 -2.0 -7.0 -2.7 -7.3 -1.6 -8.5 0.3 -9.15 1.25 -9.4 1.1 -9.0 1.15 -8.8 1.5 -9.15 1.7 -9.5 3.6 -8.45 5.2 -7.25 5.1 -6.7 5.15 -6.4 0.6 -6.0 0.8 -5.85 3.3 -5.9 4.2 -5.35 5.0 -4.9 5.05 -4.75 5.2 -4.75 4.7 -3.4 Q4.35 -2.1 4.35 -1.4 L4.65 1.0 3.0 -0.3 1.25 -1.45 1.25 -1.5 M2.0 -0.55 L2.5 -0.15 1.9 0.85 1.05 1.85 -1.3 1.35 Q-2.3 0.9 -2.3 0.4 L-1.8 -1.75 -0.8 -1.8 Q0.5 -1.8 2.0 -0.55" fill="#999999" fill-rule="evenodd" stroke="none"/>
    <path d="M2.2 -9.2 L2.2 -9.3 2.5 -9.15 3.4 -8.6 4.5 -7.65 4.45 -7.4 4.2 -7.35 Q3.85 -7.35 3.55 -7.7 3.45 -7.75 3.45 -7.75 L2.95 -7.35 0.5 -7.5 -1.65 -7.1 Q-2.25 -7.1 -2.25 -7.55 -2.25 -8.2 0.0 -9.0 L2.15 -9.2 2.2 -9.2 M0.25 -4.15 L0.5 -4.5 0.7 -4.35 0.7 -4.45 0.75 -4.5 Q2.3 -3.25 4.25 -0.25 L4.1 0.0 4.4 0.25 4.15 0.5 Q3.9 0.5 3.5 0.1 L3.5 -0.05 Q3.05 -0.2 2.65 -0.6 1.85 -0.6 0.75 -3.05 L0.8 -3.1 0.25 -4.15" fill="#d9d9d9" fill-rule="evenodd" stroke="none"/>
  </g>
</svg>
