<?xml version="1.0" encoding="UTF-8" standalone="no"?>
<svg xmlns:xlink="http://www.w3.org/1999/xlink" height="6.55px" width="5.25px" xmlns="http://www.w3.org/2000/svg">
  <g transform="matrix(1.0, 0.0, 0.0, 1.0, 2.6, 2.0)">
    <path d="M0.45 -0.95 L0.05 -1.25 -0.35 -1.05 -0.45 -0.75 Q-0.45 -0.15 0.1 -0.15 0.6 -0.15 0.6 -0.6 L0.45 -0.95 M0.25 -0.6 L0.15 -0.5 -0.1 -0.7 -0.05 -0.85 0.25 -0.6 M0.8 -0.9 Q0.65 -0.8 0.65 -0.5 L0.9 -0.1 1.15 0.25 1.4 0.1 1.4 -0.2 1.75 0.3 1.65 0.5 -0.6 0.2 Q-1.05 0.2 -1.65 0.9 L-1.95 1.3 -2.0 1.15 -2.25 0.15 -2.0 -0.05 -1.55 0.0 Q-0.75 0.0 -0.75 -0.4 L-0.6 -0.85 -0.7 -1.0 0.25 -1.65 0.8 -0.9 M-1.05 3.05 Q-1.5 2.7 -1.6 2.15 L0.0 2.95 Q0.95 3.4 1.4 3.85 L0.85 4.2 -1.05 3.05 M-1.65 1.85 L-1.7 1.6 Q-1.7 1.25 -1.15 0.95 0.05 1.05 1.2 1.8 L2.2 2.6 1.8 3.3 1.6 3.65 0.35 2.8 Q-1.2 1.85 -1.55 1.85 L-1.65 1.85 M-2.2 2.6 L-2.1 2.1 -1.15 3.4 -0.4 4.05 -0.65 4.05 -2.2 2.6 M-0.75 1.3 L-0.65 1.7 Q-0.05 1.75 0.7 2.2 L1.4 2.65 1.6 2.55 1.65 2.45 0.6 1.5 Q-0.4 0.9 -0.75 1.3 M2.25 2.0 L1.5 1.35 Q0.6 0.75 -0.35 0.6 L0.95 0.75 Q2.05 1.15 2.25 2.0" fill="#999999" fill-rule="evenodd" stroke="none"/>
    <path d="M0.25 -0.6 L-0.05 -0.85 -0.1 -0.7 0.15 -0.5 0.25 -0.6 M0.45 -0.95 L0.6 -0.6 Q0.6 -0.15 0.1 -0.15 -0.45 -0.15 -0.45 -0.75 L-0.35 -1.05 0.05 -1.25 0.45 -0.95 M0.8 -0.9 L0.25 -1.65 -0.7 -1.0 -0.85 -1.1 -1.5 -0.8 Q-0.2 -2.0 0.3 -2.0 L2.15 0.2 1.95 0.65 2.4 1.05 2.65 2.5 2.05 3.6 1.85 3.9 1.8 4.0 1.75 4.0 Q1.3 4.55 0.95 4.55 L0.0 4.3 -0.15 4.35 -0.6 4.55 -1.7 3.55 -2.5 2.55 -2.25 1.55 -2.45 1.0 -2.6 0.15 -2.1 -0.3 -2.0 -0.05 -2.25 0.15 -2.0 1.15 -1.95 1.3 -1.65 0.9 Q-1.05 0.2 -0.6 0.2 L1.65 0.5 1.75 0.3 1.4 -0.2 0.9 -1.0 0.8 -0.9 M-2.2 2.6 L-0.65 4.05 -0.4 4.05 -1.15 3.4 -2.1 2.1 -2.2 2.6 M-1.65 1.85 L-1.55 1.85 Q-1.2 1.85 0.35 2.8 L1.6 3.65 1.8 3.3 2.2 2.6 1.2 1.8 Q0.05 1.05 -1.15 0.95 -1.7 1.25 -1.7 1.6 L-1.65 1.85 M-1.05 3.05 L0.85 4.2 1.4 3.85 Q0.95 3.4 0.0 2.95 L-1.6 2.15 Q-1.5 2.7 -1.05 3.05 M2.25 2.0 Q2.05 1.15 0.95 0.75 L-0.35 0.6 Q0.6 0.75 1.5 1.35 L2.25 2.0" fill="#000000" fill-rule="evenodd" stroke="none"/>
    <path d="M1.4 -0.2 L1.4 0.1 1.15 0.25 0.9 -0.1 0.65 -0.5 Q0.65 -0.8 0.8 -0.9 L0.9 -1.0 1.4 -0.2 M-0.7 -1.0 L-0.6 -0.85 -0.75 -0.4 Q-0.75 0.0 -1.55 0.0 L-2.0 -0.05 -2.1 -0.3 -2.1 -0.35 Q-2.1 -0.75 -1.7 -0.8 L-1.5 -0.8 -0.85 -1.1 -0.7 -1.0 M-0.75 1.3 Q-0.4 0.9 0.6 1.5 L1.65 2.45 1.6 2.55 1.4 2.65 0.7 2.2 Q-0.05 1.75 -0.65 1.7 L-0.75 1.3" fill="#d9d9d9" fill-rule="evenodd" stroke="none"/>
  </g>
</svg>
