<?xml version="1.0" encoding="UTF-8" standalone="no"?>
<svg xmlns:xlink="http://www.w3.org/1999/xlink" height="14.15px" width="7.65px" xmlns="http://www.w3.org/2000/svg">
  <g transform="matrix(1.0, 0.0, 0.0, 1.0, 3.8, 2.1)">
    <path d="M0.2 -1.65 Q-2.2 -1.95 -2.85 -1.15 -3.25 -0.7 -3.35 1.4 L-3.45 3.65 Q-3.6 4.6 -3.2 6.65 L-2.75 8.6 -2.0 10.45 Q-1.6 11.65 -1.3 11.45 -0.55 12.05 0.3 11.7 L1.45 10.95 Q2.35 9.85 2.95 4.55 L3.4 -0.65 Q2.4 -1.45 0.2 -1.65 M3.8 -0.5 L3.75 -0.4 Q4.0 0.65 3.35 4.95 2.55 10.05 1.7 11.1 L0.45 11.95 Q-0.65 12.35 -1.75 11.4 -2.4 10.85 -2.9 9.1 -3.55 8.4 -3.75 6.3 L-3.75 3.4 Q-3.7 -0.8 -3.2 -1.4 -2.25 -2.55 1.0 -1.8 4.25 -1.05 3.8 -0.5" fill="#000000" fill-rule="evenodd" stroke="none"/>
    <path d="M0.2 -1.65 Q2.4 -1.45 3.4 -0.65 L2.95 4.55 Q2.35 9.85 1.45 10.95 L0.3 11.7 Q-0.55 12.05 -1.3 11.45 -1.6 11.65 -2.0 10.45 L-2.75 8.6 -3.2 6.65 Q-3.6 4.6 -3.45 3.65 L-3.35 1.4 Q-3.25 -0.7 -2.85 -1.15 -2.2 -1.95 0.2 -1.65" fill="#999999" fill-rule="evenodd" stroke="none"/>
    <path d="M2.6 5.05 Q1.95 8.2 1.25 9.3 L0.6 8.6 Q0.6 7.6 1.6 3.95 L2.4 1.2 Q2.3 0.7 2.7 1.0 L3.15 1.8 2.6 5.05" fill="#d9d9d9" fill-rule="evenodd" stroke="none"/>
  </g>
</svg>
