<?xml version="1.0" encoding="UTF-8" standalone="no"?>
<svg xmlns:xlink="http://www.w3.org/1999/xlink" height="20.4px" width="11.4px" xmlns="http://www.w3.org/2000/svg">
  <g transform="matrix(1.0, 0.0, 0.0, 1.0, 4.0, 3.8)">
    <path d="M1.75 -3.8 L1.8 -3.75 1.9 -3.8 3.0 -2.05 4.25 -1.4 3.5 -0.4 3.5 -0.35 3.5 0.9 3.35 1.85 3.35 2.2 2.95 4.05 Q2.5 6.35 2.75 7.35 L2.5 7.45 2.45 7.35 2.55 8.9 2.4 9.0 2.2 8.8 2.15 9.6 2.15 10.75 2.05 10.85 2.25 12.6 Q2.7 12.5 4.7 13.3 L4.7 13.5 6.35 14.3 6.3 14.5 7.35 15.95 7.4 16.2 7.3 16.35 5.9 16.35 5.25 16.15 3.15 16.1 2.35 15.95 2.3 16.0 2.0 16.1 Q-1.25 17.35 -1.7 15.5 L-1.65 13.95 -1.35 12.75 -1.45 12.65 -1.45 12.6 Q-1.2 10.8 -1.5 9.45 L-2.8 6.25 -2.65 4.25 -2.4 3.15 -2.65 3.2 -2.75 3.05 -2.55 1.7 Q-2.65 1.25 -3.3 1.0 L-4.0 0.75 -4.0 0.65 Q-4.1 0.25 -0.05 -1.55 L1.1 -2.7 1.7 -3.75 1.75 -3.8 M3.2 -0.15 Q3.0 -0.1 2.95 -0.25 L1.95 -0.9 1.05 -0.85 1.0 -0.95 1.0 -1.15 1.35 -1.2 2.0 -1.25 2.35 -1.3 2.5 -1.4 2.8 -1.6 1.85 -3.3 1.45 -2.45 0.4 -1.4 Q0.2 -1.2 -3.35 0.55 L-2.85 0.8 -2.35 1.25 -0.5 -0.25 -0.45 -0.1 -1.1 0.6 -2.2 1.55 -2.25 2.25 -2.3 2.5 Q-0.5 0.6 0.25 0.4 L0.6 0.4 Q1.55 0.25 2.5 0.8 L3.15 1.4 3.1 0.7 3.3 -0.15 3.3 -0.2 3.2 -0.15 M3.2 -1.6 L2.3 -0.95 3.05 -0.45 3.85 -1.3 Q3.45 -1.45 3.2 -1.6 M3.1 1.9 L3.15 1.8 2.45 1.15 Q1.6 0.6 0.65 0.75 0.4 3.3 0.5 3.7 L1.55 5.4 2.2 6.45 2.25 6.4 2.3 6.45 Q2.3 5.6 2.6 4.0 L3.1 1.95 3.1 1.9 M0.35 0.8 L0.35 0.75 0.3 0.8 -1.35 1.8 -2.0 2.6 -2.0 2.7 -2.5 6.15 -1.2 9.45 Q-1.05 10.05 -1.05 11.1 L-1.25 12.4 -1.2 12.4 -1.1 12.3 -1.05 12.45 -0.15 12.6 1.05 13.15 1.7 13.5 1.8 13.1 1.95 12.85 1.85 12.65 Q1.7 12.05 1.7 11.2 L1.75 10.45 0.85 9.35 Q0.6 8.45 1.0 7.6 L0.5 7.05 0.4 4.55 0.5 4.45 0.2 3.75 Q0.0 1.65 0.35 0.8 M0.85 5.05 L0.85 6.85 2.0 8.3 2.05 8.25 2.15 8.35 2.05 6.75 1.15 5.5 0.85 5.05 M1.2 8.3 L1.15 9.2 1.7 9.8 1.75 9.0 Q1.75 8.7 1.9 8.5 L1.25 7.9 1.2 8.3 M6.05 15.2 L5.75 15.9 5.75 16.0 6.6 16.1 7.05 16.0 6.7 15.35 6.25 14.85 6.05 15.2 M6.0 14.5 L4.6 13.85 4.45 14.3 4.0 15.35 4.0 15.6 5.45 15.8 5.7 15.15 6.0 14.5 M3.5 15.25 L3.7 15.25 Q3.65 14.95 4.0 14.35 L4.35 13.55 Q3.95 13.25 2.9 13.05 L2.35 12.95 2.15 13.3 1.9 13.65 1.95 13.65 2.15 14.35 2.3 15.15 2.45 15.1 3.4 15.2 3.45 15.2 3.5 15.25 M0.6 13.2 Q-0.15 12.75 -1.1 12.65 L-1.25 13.7 -1.35 15.4 -0.9 16.05 1.7 15.85 Q2.0 15.35 1.8 14.5 1.6 13.7 0.6 13.2 M2.4 15.65 L3.1 15.75 3.15 15.65 Q2.5 15.65 2.3 15.4 L2.3 15.75 2.4 15.65" fill="#000000" fill-rule="evenodd" stroke="none"/>
    <path d="M3.3 -0.15 L3.1 0.7 3.15 1.4 2.5 0.8 Q1.55 0.25 0.6 0.4 L0.25 0.4 Q-0.5 0.6 -2.3 2.5 L-2.25 2.25 -2.2 1.55 -1.1 0.6 -0.45 -0.1 -0.5 -0.25 -2.35 1.25 -2.85 0.8 -3.35 0.55 Q0.2 -1.2 0.4 -1.4 L1.45 -2.45 1.85 -3.3 2.8 -1.6 2.5 -1.4 2.35 -1.3 2.0 -1.25 1.35 -1.2 1.0 -1.15 1.0 -0.95 1.05 -0.85 1.95 -0.9 2.95 -0.25 Q3.0 -0.1 3.2 -0.15 L3.3 -0.15 M3.1 1.9 L3.1 1.95 2.6 4.0 Q2.3 5.6 2.3 6.45 L2.25 6.4 2.2 6.45 1.55 5.4 0.5 3.7 Q0.4 3.3 0.65 0.75 1.6 0.6 2.45 1.15 L3.15 1.8 3.1 1.9 M3.2 -1.6 Q3.45 -1.45 3.85 -1.3 L3.05 -0.45 2.3 -0.95 3.2 -1.6 M0.3 0.8 L0.35 0.8 Q0.0 1.65 0.2 3.75 L0.5 4.45 0.4 4.55 0.5 7.05 1.0 7.6 Q0.6 8.45 0.85 9.35 L1.75 10.45 1.7 11.2 Q1.7 12.05 1.85 12.65 L1.95 12.85 1.8 13.1 1.7 13.5 1.05 13.15 -0.15 12.6 -1.05 12.45 -1.1 12.3 -1.2 12.4 -1.25 12.4 -1.05 11.1 Q-1.05 10.05 -1.2 9.45 L-2.5 6.15 -2.0 2.7 -2.0 2.6 -1.35 1.8 0.3 0.8 M2.4 15.65 L2.3 15.75 2.3 15.4 Q2.5 15.65 3.15 15.65 L3.1 15.75 2.4 15.65 M0.6 13.2 Q1.6 13.7 1.8 14.5 2.0 15.35 1.7 15.85 L-0.9 16.05 -1.35 15.4 -1.25 13.7 -1.1 12.65 Q-0.15 12.75 0.6 13.2 M3.5 15.25 L3.45 15.2 3.4 15.2 2.45 15.1 2.3 15.15 2.15 14.35 1.95 13.65 1.9 13.65 2.15 13.3 2.35 12.95 2.9 13.05 Q3.95 13.25 4.35 13.55 L4.0 14.35 Q3.65 14.95 3.7 15.25 L3.5 15.25 M6.0 14.5 L5.7 15.15 5.45 15.8 4.0 15.6 4.0 15.35 4.45 14.3 4.6 13.85 6.0 14.5 M6.05 15.2 L6.25 14.85 6.7 15.35 7.05 16.0 6.6 16.1 5.75 16.0 5.75 15.9 6.05 15.2 M1.2 8.3 L1.25 7.9 1.9 8.5 Q1.75 8.7 1.75 9.0 L1.7 9.8 1.15 9.2 1.2 8.3 M0.85 5.05 L1.15 5.5 2.05 6.75 2.15 8.35 2.05 8.25 2.0 8.3 0.85 6.85 0.85 5.05" fill="#999999" fill-rule="evenodd" stroke="none"/>
    <path d="M2.35 -2.35 L2.75 -1.9 2.75 -1.7 2.55 -1.55 1.75 -1.8 -1.65 1.0 -2.0 0.7 0.0 -1.2 Q1.5 -2.65 1.95 -2.65 L2.35 -2.35 M2.3 1.15 L2.8 1.7 2.45 1.85 1.55 2.75 1.05 3.05 Q0.75 2.65 0.75 2.2 L0.75 1.3 Q0.75 0.85 1.0 0.8 L1.6 0.85 2.3 1.15 M1.7 5.75 L2.3 6.55 2.3 6.8 2.1 6.9 Q1.6 6.9 1.4 6.55 L1.1 6.7 0.85 6.35 1.05 5.8 1.35 5.45 1.65 5.5 1.75 5.6 1.7 5.75 M1.2 8.1 Q1.35 7.95 1.5 7.95 1.95 7.95 1.95 8.35 L1.9 8.9 1.6 9.0 Q1.25 9.0 1.05 8.3 L1.2 8.1 M5.55 14.6 L4.8 14.7 Q4.7 14.7 4.55 14.55 L4.3 14.25 4.55 13.95 4.8 13.95 Q5.2 13.95 5.6 14.25 L5.55 14.6 M6.05 15.3 L6.0 15.05 6.05 14.85 Q6.7 14.85 6.7 15.25 L6.7 15.35 6.35 15.5 6.05 15.3 M4.05 13.9 L3.75 14.0 2.8 13.75 2.7 14.15 2.5 14.2 2.25 14.15 2.15 13.3 Q2.15 12.65 2.8 12.65 3.45 12.65 3.8 13.05 L4.05 13.9 M0.05 13.75 L-0.5 13.85 -0.95 13.75 -1.1 13.3 -0.95 12.85 -0.6 12.55 -0.3 12.55 -0.4 13.05 0.05 13.4 0.05 13.75 M-0.15 1.6 L-0.05 1.8 Q-0.05 2.55 -0.55 3.8 -1.15 5.35 -1.85 5.35 L-2.3 5.3 -2.4 5.05 Q-1.15 1.35 -0.25 1.55 L-0.15 1.6" fill="#d9d9d9" fill-rule="evenodd" stroke="none"/>
  </g>
</svg>
