<?xml version="1.0" encoding="UTF-8" standalone="no"?>
<svg xmlns:xlink="http://www.w3.org/1999/xlink" height="12.15px" width="7.55px" xmlns="http://www.w3.org/2000/svg">
  <g transform="matrix(1.0, 0.0, 0.0, 1.0, 3.4, 3.15)">
    <path d="M3.75 -0.6 L4.15 0.85 4.0 0.9 3.55 1.95 3.45 2.0 3.45 2.05 3.1 2.5 2.9 2.25 2.9 2.4 2.8 2.5 2.4 4.8 2.3 6.15 Q2.0 7.6 1.05 8.4 L-1.3 8.45 Q-2.0 7.55 -2.4 5.55 -2.75 3.75 -2.45 2.8 L-2.7 2.5 -2.8 2.45 -3.1 2.05 -3.35 1.9 -3.15 0.0 Q-2.75 -1.8 -2.25 -2.2 -0.55 -3.55 1.2 -2.95 2.35 -2.55 3.1 -1.65 L3.75 -0.6 M-2.65 1.9 L-2.8 1.15 -2.5 0.2 -2.15 -0.3 -1.2 -1.2 Q0.0 -2.2 1.4 -1.45 L2.65 -0.35 Q3.4 0.6 3.5 1.4 L3.6 1.1 3.75 0.75 3.75 0.7 Q3.6 -0.45 2.85 -1.4 L1.25 -2.55 Q-0.4 -3.2 -2.05 -1.9 -2.55 -1.5 -2.8 -0.1 L-2.95 1.85 -2.65 1.9 -2.65 1.95 -2.65 1.9 M3.15 1.8 L3.2 1.8 3.3 1.6 3.15 1.4 3.1 1.3 3.05 1.25 2.5 -0.05 Q0.65 -2.25 -1.05 -0.85 -2.1 0.0 -2.4 1.05 L-2.5 1.8 -2.5 1.85 -2.45 2.2 Q-2.3 2.25 -2.3 2.3 L-2.25 2.25 -2.15 2.3 -1.9 2.1 -1.6 1.8 -1.5 1.6 -1.4 1.65 Q-0.15 0.65 1.4 1.15 L2.6 1.55 2.7 1.85 2.8 2.0 3.0 1.95 3.15 1.8 M-2.15 2.75 L-2.0 4.8 Q-1.7 7.4 -1.0 8.25 L0.8 8.15 Q1.9 7.3 2.25 4.75 L2.45 1.9 Q1.65 1.3 0.3 1.4 -0.1 3.0 -0.2 5.5 L-0.4 5.65 -0.55 5.55 Q-1.5 3.05 -1.55 2.05 L-2.15 2.75 M-0.5 2.95 Q-0.45 2.15 0.0 1.45 -0.75 1.5 -1.3 1.9 L-0.6 4.35 -0.5 2.95" fill="#000000" fill-rule="evenodd" stroke="none"/>
    <path d="M-2.65 1.9 L-2.95 1.85 -2.8 -0.1 Q-2.55 -1.5 -2.05 -1.9 -0.4 -3.2 1.25 -2.55 L2.85 -1.4 Q3.6 -0.45 3.75 0.7 L3.75 0.75 3.6 1.1 3.5 1.4 Q3.4 0.6 2.65 -0.35 L1.4 -1.45 Q0.0 -2.2 -1.2 -1.2 L-2.15 -0.3 -2.5 0.2 -2.8 1.15 -2.65 1.9 M-2.25 2.25 L-2.3 2.3 Q-2.3 2.25 -2.45 2.2 L-2.5 1.85 -2.5 1.8 -2.4 1.05 Q-2.1 0.0 -1.05 -0.85 0.65 -2.25 2.5 -0.05 L3.05 1.25 3.1 1.3 3.15 1.4 3.3 1.6 3.2 1.8 3.15 1.8 3.0 1.95 2.8 2.0 2.7 1.85 2.6 1.55 1.4 1.15 Q-0.15 0.65 -1.4 1.65 L-1.5 1.6 -1.6 1.8 -1.9 2.1 -1.95 2.1 -2.25 2.25 M-0.5 2.95 L-0.6 4.35 -1.3 1.9 Q-0.75 1.5 0.0 1.45 -0.45 2.15 -0.5 2.95 M-2.15 2.75 L-1.55 2.05 Q-1.5 3.05 -0.55 5.55 L-0.4 5.65 -0.2 5.5 Q-0.1 3.0 0.3 1.4 1.65 1.3 2.45 1.9 L2.25 4.75 Q1.9 7.3 0.8 8.15 L-1.0 8.25 Q-1.7 7.4 -2.0 4.8 L-2.15 2.75" fill="#999999" fill-rule="evenodd" stroke="none"/>
    <path d="M1.0 -0.25 Q1.0 0.15 0.5 -0.05 0.05 0.45 -0.5 0.45 L-1.3 0.05 -0.55 -0.8 0.2 -1.0 Q1.0 -1.0 1.0 -0.25 M1.85 -1.8 Q1.5 -1.45 1.15 -1.45 0.95 -1.45 0.7 -1.65 L0.25 -1.9 -1.0 -1.7 -1.5 -1.55 -1.95 -1.3 -2.25 -1.6 Q-2.25 -2.2 -1.2 -2.25 L0.3 -2.6 Q1.05 -2.6 1.85 -1.8 M-1.05 1.5 L-0.7 1.5 -0.65 1.55 -0.5 1.75 -0.65 2.3 -0.65 2.85 -0.55 3.3 -0.4 4.3 -0.85 4.45 -1.05 4.4 -1.2 2.95 -1.3 2.6 -1.25 2.35 -1.2 2.2 -1.15 1.5 -1.05 1.5 M-1.8 3.25 L-1.15 8.1 -1.2 8.2 -1.4 8.25 Q-1.85 8.25 -2.25 3.9 L-2.15 3.25 -1.8 3.25" fill="#d9d9d9" fill-rule="evenodd" stroke="none"/>
  </g>
</svg>
