<?xml version="1.0" encoding="UTF-8" standalone="no"?>
<svg xmlns:xlink="http://www.w3.org/1999/xlink" height="20.2px" width="8.7px" xmlns="http://www.w3.org/2000/svg">
  <g transform="matrix(1.0, 0.0, 0.0, 1.0, 0.0, 0.0)">
    <path d="M6.9 1.6 L6.6 0.95 5.9 0.45 Q5.55 0.1 4.95 0.45 0.8 4.25 0.5 9.9 0.2 14.6 1.95 18.55 L2.8 19.75 Q4.2 19.9 5.35 19.25 6.0 16.2 7.1 13.45 8.45 10.0 8.3 6.15 L8.2 5.75 Q7.65 5.05 7.6 3.85 7.6 2.6 6.9 1.6 M4.75 0.0 Q8.25 0.65 8.6 4.55 9.1 10.45 6.85 15.8 6.05 17.6 5.55 19.5 L5.5 19.85 4.6 20.0 2.65 20.15 Q-0.15 17.25 0.0 12.9 0.15 10.05 0.6 7.35 1.4 2.9 4.75 0.0" fill="#000000" fill-rule="evenodd" stroke="none"/>
    <path d="M6.9 1.6 Q7.6 2.6 7.6 3.85 7.65 5.05 8.2 5.75 L8.3 6.15 Q8.45 10.0 7.1 13.45 6.0 16.2 5.35 19.25 4.2 19.9 2.8 19.75 L1.95 18.55 Q0.2 14.6 0.5 9.9 0.8 4.25 4.95 0.45 5.55 0.1 5.9 0.45 L6.6 0.95 6.9 1.6" fill="#3c3e7d" fill-rule="evenodd" stroke="none"/>
  </g>
</svg>
