<?xml version="1.0" encoding="UTF-8" standalone="no"?>
<svg xmlns:xlink="http://www.w3.org/1999/xlink" height="6.45px" width="53.3px" xmlns="http://www.w3.org/2000/svg">
  <g transform="matrix(1.0, 0.0, 0.0, 1.0, -3.3, -1.65)">
    <path d="M6.55 1.8 L7.25 1.65 Q10.75 1.95 14.2 1.75 L17.7 1.85 17.75 1.85 22.15 1.95 33.55 3.45 33.5 3.3 33.95 3.65 56.6 6.6 56.5 7.45 54.05 7.6 53.55 8.1 40.8 6.9 35.35 7.05 30.85 6.45 27.5 5.85 24.35 6.15 25.3 6.3 Q22.4 7.4 19.3 7.8 L19.05 7.45 18.55 6.3 18.0 6.15 Q14.2 5.05 10.6 6.25 8.85 6.85 7.1 7.55 L4.85 8.0 3.7 7.85 3.35 7.5 3.3 5.4 3.55 6.2 Q3.85 3.55 5.35 1.85 L5.9 1.9 Q4.35 3.5 3.8 6.0 L3.65 7.05 Q5.25 7.7 6.9 7.05 L8.05 6.65 Q9.45 5.8 10.9 5.35 L13.8 4.6 15.35 4.95 16.45 5.15 17.95 5.75 18.35 5.9 19.35 6.5 19.35 7.3 19.35 7.35 19.4 7.4 Q20.95 6.3 22.75 6.1 L25.7 5.55 33.3 6.0 33.5 4.15 17.8 3.05 15.0 3.0 Q10.75 2.95 6.55 1.8 M52.2 7.5 L52.75 7.4 52.15 7.25 42.75 6.5 42.05 6.55 42.8 6.65 Q46.65 7.7 50.6 7.7 L52.2 7.5 M36.6 5.7 L46.15 5.8 35.6 4.5 35.3 6.25 38.1 6.6 38.75 6.1 36.6 5.7 M34.0 4.25 L33.75 6.1 34.9 6.25 35.15 4.45 34.0 4.25" fill="#000000" fill-rule="evenodd" stroke="none"/>
    <path d="M5.9 1.9 L6.55 1.8 Q10.75 2.95 15.0 3.0 L17.8 3.05 33.5 4.15 33.3 6.0 25.7 5.55 22.75 6.1 Q20.95 6.3 19.4 7.4 L19.35 7.3 19.35 6.5 18.35 5.9 17.95 5.75 16.45 5.15 15.35 4.95 13.8 4.6 10.9 5.35 Q9.45 5.8 8.05 6.65 L6.9 7.05 Q5.25 7.7 3.65 7.05 L3.8 6.0 Q4.35 3.5 5.9 1.9 M52.15 7.25 L52.2 7.5 50.6 7.7 Q46.65 7.7 42.8 6.65 L42.75 6.5 52.15 7.25 M36.6 5.7 L38.75 6.1 38.1 6.6 35.3 6.25 35.6 4.5 46.15 5.8 36.6 5.7" fill="#2b1f13" fill-rule="evenodd" stroke="none"/>
    <path d="M34.0 4.25 L35.15 4.45 34.9 6.25 33.75 6.1 34.0 4.25" fill="#cccccc" fill-rule="evenodd" stroke="none"/>
    <path d="M34.0 2.2 L34.45 2.4 34.75 2.55 34.55 5.4 Q34.45 6.3 33.8 7.0 L33.15 7.5 33.1 7.55 32.45 7.6 Q30.2 7.7 27.8 6.85 27.35 6.65 27.4 6.2 27.4 4.7 28.6 3.45 L29.75 2.25 30.3 2.25 30.6 2.3 30.9 1.9 30.95 1.85 Q31.65 1.75 32.2 2.2 32.65 2.6 33.2 2.65 L33.4 2.35 33.4 2.1 33.55 2.0 34.0 2.2 M33.75 2.7 Q33.8 3.4 33.25 4.2 32.55 5.2 31.4 5.35 L31.75 4.75 31.7 4.65 31.8 4.5 31.9 4.45 32.7 3.3 32.75 3.25 32.75 3.15 32.55 2.95 31.8 2.7 31.55 2.5 31.45 2.4 30.9 2.9 30.6 3.4 Q30.35 3.75 29.95 3.6 L29.85 3.6 29.95 3.05 30.35 2.75 29.85 2.8 29.7 3.05 29.2 3.85 28.9 4.35 28.9 4.55 28.15 5.05 Q27.6 5.4 27.75 6.0 27.8 6.45 28.15 6.7 L32.65 7.25 33.25 6.5 34.35 5.55 34.3 4.65 34.2 3.35 34.3 2.9 33.75 2.7" fill="#000000" fill-rule="evenodd" stroke="none"/>
    <path d="M33.75 2.7 L34.3 2.9 34.2 3.35 34.3 4.65 34.35 5.55 33.25 6.5 32.65 7.25 28.15 6.7 Q27.8 6.45 27.75 6.0 27.6 5.4 28.15 5.05 L28.9 4.55 28.9 4.35 29.2 3.85 29.7 3.05 29.85 2.8 30.35 2.75 29.95 3.05 29.85 3.6 29.95 3.6 Q30.35 3.75 30.6 3.4 L30.9 2.9 31.45 2.4 31.55 2.5 31.8 2.7 32.55 2.95 32.75 3.15 32.75 3.25 32.7 3.3 31.9 4.45 31.8 4.5 31.7 4.65 31.75 4.75 31.4 5.35 Q32.55 5.2 33.25 4.2 33.8 3.4 33.75 2.7" fill="#63492e" fill-rule="evenodd" stroke="none"/>
  </g>
</svg>
