<?xml version="1.0" encoding="UTF-8" standalone="no"?>
<svg xmlns:xlink="http://www.w3.org/1999/xlink" height="12.25px" width="25.0px" xmlns="http://www.w3.org/2000/svg">
  <g transform="matrix(1.0, 0.0, 0.0, 1.0, 0.0, 0.0)">
    <path d="M6.05 5.3 Q5.8 4.4 5.05 3.8 5.85 2.8 7.15 2.05 9.35 0.8 11.9 0.55 L12.1 1.0 13.9 2.55 Q14.5 3.1 15.1 3.15 L14.65 3.3 Q11.0 4.95 7.75 7.1 L6.2 5.45 6.05 5.3 M7.45 7.3 L6.45 7.95 5.85 8.4 6.1 7.6 6.2 6.95 7.3 7.25 7.45 7.3 M0.65 10.95 L2.35 10.45 Q7.15 8.35 11.65 5.45 13.05 4.55 14.6 4.15 19.05 2.95 23.4 3.2 L22.9 3.3 Q20.0 4.1 17.5 5.95 10.2 11.35 1.0 11.35 L0.95 11.4 0.9 11.25 0.85 11.15 0.65 11.0 0.65 10.95" fill="#63492e" fill-rule="evenodd" stroke="none"/>
    <path d="M4.65 3.65 Q5.25 2.35 6.65 1.55 8.6 0.45 10.85 0.05 L11.0 0.0 12.0 0.05 12.3 0.15 13.15 1.15 15.0 2.45 15.7 2.95 17.0 2.75 23.25 2.7 Q23.9 2.7 24.35 3.0 L24.75 3.0 25.0 3.25 Q19.0 5.4 13.3 8.95 10.4 10.8 6.9 11.4 L3.2 11.65 3.25 11.75 3.2 11.8 0.75 11.95 0.65 11.85 0.4 11.65 Q0.1 11.45 0.05 11.05 L0.0 10.5 Q2.35 10.4 4.4 9.25 L4.95 8.95 4.75 8.95 5.55 7.3 5.65 6.65 6.1 6.9 6.2 6.95 6.1 7.6 5.85 8.4 6.45 7.95 7.45 7.3 7.95 7.35 7.75 7.1 Q11.0 4.95 14.65 3.3 L15.1 3.15 Q14.5 3.1 13.9 2.55 L12.1 1.0 11.9 0.55 Q9.35 0.8 7.15 2.05 5.85 2.8 5.05 3.8 5.8 4.4 6.05 5.3 L5.1 4.35 5.2 4.35 5.2 4.3 4.65 3.65 M1.0 11.35 Q10.2 11.35 17.5 5.95 20.0 4.1 22.9 3.3 L23.4 3.2 Q19.05 2.95 14.6 4.15 13.05 4.55 11.65 5.45 7.15 8.35 2.35 10.45 L0.65 10.95 0.5 10.95 0.65 11.0 0.85 11.15 0.9 11.25 0.95 11.4 1.0 11.45 1.6 11.45 1.0 11.35" fill="#000000" fill-rule="evenodd" stroke="none"/>
    <path d="M5.65 6.65 L4.4 5.85 Q2.55 5.65 0.7 4.75 -0.05 4.35 0.5 4.0 L3.25 4.3 Q4.4 4.65 4.95 5.5 L5.1 5.5 4.35 4.25 3.5 3.8 1.1 2.15 1.25 2.1 Q2.4 2.2 3.45 2.75 L4.65 3.65 5.2 4.3 5.2 4.35 5.1 4.35 6.05 5.3 6.2 5.45 7.75 7.1 7.95 7.35 7.45 7.3 7.3 7.25 6.2 6.95 6.1 6.9 5.65 6.65" fill="#990000" fill-rule="evenodd" stroke="none"/>
  </g>
</svg>
