<?xml version="1.0" encoding="UTF-8" standalone="no"?>
<svg xmlns:xlink="http://www.w3.org/1999/xlink" height="18.25px" width="29.2px" xmlns="http://www.w3.org/2000/svg">
  <g transform="matrix(1.0, 0.0, 0.0, 1.0, 15.5, 9.1)">
    <path d="M2.85 -5.35 L2.85 -4.95 6.9 -4.25 7.1 -4.3 Q8.75 -6.65 11.6 -4.25 12.45 -3.55 11.85 -2.5 L11.8 -2.35 11.75 -2.3 12.85 -2.05 13.15 -1.95 Q13.9 -0.4 13.6 1.35 13.2 3.6 10.85 3.95 9.5 4.15 9.35 4.9 9.65 6.5 8.25 7.25 6.2 8.3 4.15 7.85 3.55 8.7 2.4 9.0 0.9 9.45 -0.15 8.6 -0.7 7.7 -1.8 7.35 -2.9 7.05 -3.05 5.85 L-3.2 5.1 -3.9 4.75 -4.55 3.95 -4.85 3.4 -7.6 2.3 -7.7 2.25 -8.4 2.75 Q-9.85 3.7 -10.5 2.2 L-10.8 0.9 -12.7 1.05 -13.35 -0.35 Q-14.0 -0.2 -14.6 -0.85 -16.75 -3.4 -13.75 -5.0 L-13.65 -4.95 -13.65 -5.55 Q-12.3 -6.65 -10.4 -6.4 L-10.4 -6.6 Q-10.65 -7.5 -10.0 -8.0 L-6.9 -8.1 -6.35 -8.45 -4.15 -9.1 Q-3.3 -9.2 -2.6 -8.7 -1.8 -8.15 -1.85 -7.2 L-1.8 -7.15 Q0.05 -8.2 1.75 -7.15 2.75 -6.5 2.85 -5.35" fill="#cccccc" fill-rule="evenodd" stroke="none"/>
  </g>
</svg>
