<?xml version="1.0" encoding="UTF-8" standalone="no"?>
<svg xmlns:xlink="http://www.w3.org/1999/xlink" height="12.25px" width="16.9px" xmlns="http://www.w3.org/2000/svg">
  <g transform="matrix(1.0, 0.0, 0.0, 1.0, 0.0, 0.0)">
    <path d="M5.95 0.4 L6.05 0.15 6.25 0.05 6.5 0.0 6.6 0.15 6.6 0.25 6.6 0.5 Q8.8 0.75 10.05 2.65 L9.25 3.9 12.15 5.95 14.1 5.35 Q15.25 6.3 15.95 7.65 L16.3 8.4 16.9 8.75 16.5 9.9 16.05 9.9 15.4 11.1 14.6 11.3 13.9 12.15 Q10.85 12.75 9.45 9.95 L6.9 8.8 5.95 9.95 0.0 7.65 1.55 5.95 1.75 5.35 Q4.3 3.35 5.95 0.6 L5.95 0.4 M6.1 1.3 Q4.3 4.0 1.95 6.25 L1.7 6.65 0.4 7.65 5.05 8.55 Q4.95 4.55 7.85 1.75 L6.2 1.35 Q6.15 1.2 6.1 1.3 M8.2 2.1 L7.1 3.4 Q5.55 4.7 5.35 6.9 L5.3 8.6 6.3 8.85 9.3 2.6 8.2 2.1 M8.95 4.3 L7.85 6.4 10.15 5.3 8.95 4.3 M12.45 6.55 L10.35 7.55 10.9 8.15 12.95 6.9 12.45 6.55 M11.35 6.15 L10.5 6.55 9.75 7.05 9.7 7.1 10.05 7.35 12.05 6.55 11.35 6.15 M8.15 7.15 L7.65 6.95 8.3 8.6 8.15 7.15 M10.2 7.85 L10.1 10.0 10.6 10.3 10.5 9.85 10.35 8.7 Q10.25 8.15 10.55 8.15 L10.4 8.05 10.2 7.85 M8.35 7.25 L8.95 8.85 9.75 9.3 9.75 7.55 8.35 7.25 M12.3 11.35 L12.65 11.05 13.25 11.0 13.5 10.35 14.1 10.25 14.35 9.6 14.75 9.3 15.0 7.6 14.8 7.2 13.1 7.15 Q12.35 8.4 10.75 8.55 L10.65 10.35 Q11.2 11.35 12.3 11.35 M12.85 11.4 L12.8 11.4 12.85 11.45 13.1 11.35 12.85 11.4 M11.0 5.8 L10.35 5.4 10.2 5.6 7.75 6.7 8.8 7.0 11.0 5.8 M7.8 8.5 L7.45 7.4 7.1 8.3 7.8 8.5 M14.05 5.9 L12.8 6.35 14.65 6.95 14.05 5.9 M14.7 9.6 Q14.55 9.6 14.45 9.75 L14.35 10.15 14.45 10.55 14.7 10.7 14.95 10.55 15.05 10.15 14.95 9.75 14.7 9.6 M13.65 11.5 Q14.15 11.65 14.3 10.65 L13.7 10.6 13.65 11.5 M16.25 8.9 L15.1 8.4 15.0 9.3 16.2 9.35 16.25 8.9" fill="#000000" fill-rule="evenodd" stroke="none"/>
    <path d="M12.85 11.45 L12.8 11.4 12.85 11.4 12.85 11.45 M12.3 11.35 Q11.2 11.35 10.65 10.35 L10.75 8.55 Q12.35 8.4 13.1 7.15 L14.8 7.2 15.0 7.6 14.75 9.3 14.35 9.6 14.1 10.25 13.5 10.35 13.25 11.0 12.65 11.05 12.3 11.35 M8.35 7.25 L9.75 7.55 9.75 9.3 8.95 8.85 8.35 7.25 M10.2 7.85 L10.4 8.05 10.55 8.15 Q10.25 8.15 10.35 8.7 L10.5 9.85 10.6 10.3 10.1 10.0 10.2 7.85 M8.15 7.15 L8.3 8.6 7.65 6.95 8.15 7.15 M11.35 6.15 L12.05 6.55 10.05 7.35 9.7 7.1 9.75 7.05 10.5 6.55 11.35 6.15 M12.45 6.55 L12.95 6.9 10.9 8.15 10.35 7.55 12.45 6.55 M8.95 4.3 L10.15 5.3 7.85 6.4 8.95 4.3 M8.2 2.1 L9.3 2.6 6.3 8.85 5.3 8.6 5.35 6.9 Q5.55 4.7 7.1 3.4 L8.2 2.1 M6.1 1.3 Q6.15 1.2 6.2 1.35 L7.85 1.75 Q4.95 4.55 5.05 8.55 L0.4 7.65 1.7 6.65 1.95 6.25 Q4.3 4.0 6.1 1.3 M7.8 8.5 L7.1 8.3 7.45 7.4 7.8 8.5 M11.0 5.8 L8.8 7.0 7.75 6.7 10.2 5.6 10.35 5.4 11.0 5.8" fill="#666666" fill-rule="evenodd" stroke="none"/>
    <path d="M12.85 11.45 L12.85 11.4 13.1 11.35 12.85 11.45 M16.25 8.9 L16.2 9.35 15.0 9.3 15.1 8.4 16.25 8.9 M13.65 11.5 L13.7 10.6 14.3 10.65 Q14.15 11.65 13.65 11.5 M14.7 9.6 L14.95 9.75 15.05 10.15 14.95 10.55 14.7 10.7 14.45 10.55 14.35 10.15 14.45 9.75 Q14.55 9.6 14.7 9.6 M14.05 5.9 L14.65 6.95 12.8 6.35 14.05 5.9" fill="#eedc9d" fill-rule="evenodd" stroke="none"/>
  </g>
</svg>
