<?xml version="1.0" encoding="UTF-8" standalone="no"?>
<svg xmlns:xlink="http://www.w3.org/1999/xlink" height="10.55px" width="15.7px" xmlns="http://www.w3.org/2000/svg">
  <g transform="matrix(1.0, 0.0, 0.0, 1.0, -2.6, 5.05)">
    <path d="M6.85 -3.75 L6.65 -3.95 Q4.35 -2.7 4.0 0.3 3.95 0.65 4.25 2.45 L5.6 1.65 7.9 0.45 Q8.95 -0.25 10.75 -0.7 L10.05 -2.15 Q9.3 -3.15 7.0 -3.95 L6.85 -3.75 M8.9 -5.0 Q11.3 -5.35 13.2 -4.0 L14.5 -2.6 15.65 -1.15 15.7 -1.15 18.3 0.25 18.25 0.35 18.05 0.4 17.9 0.35 13.9 1.4 9.5 2.4 5.9 4.15 Q3.45 5.5 3.25 5.45 L3.05 5.4 3.05 5.45 2.8 5.5 2.65 5.4 2.65 5.2 3.15 3.75 3.6 3.05 3.6 2.95 3.8 2.7 Q3.35 2.3 3.6 0.2 4.05 -3.3 6.85 -4.35 L8.9 -5.0 M11.05 -0.75 L15.25 -1.15 14.05 -2.55 Q12.6 -4.3 10.45 -4.6 8.45 -4.85 7.35 -4.15 9.3 -3.6 10.2 -2.55 L11.05 -0.75 M16.15 -0.55 L15.65 -0.8 15.6 -0.8 15.6 -0.75 Q11.7 -1.05 8.35 0.6 L4.05 3.1 3.5 4.45 Q4.1 3.95 5.55 3.35 L5.65 3.3 5.55 3.3 Q5.2 3.25 5.15 3.05 L5.15 2.75 Q5.15 2.4 5.65 2.45 6.15 2.5 6.1 2.95 L6.0 3.25 9.0 2.2 Q13.3 0.9 17.6 0.2 L16.15 -0.55 M15.6 -0.7 L16.1 -0.5 16.1 0.0 Q16.05 0.5 15.45 0.4 15.0 0.35 14.9 0.05 L14.9 -0.3 Q14.95 -0.8 15.6 -0.7 M15.8 -0.2 L15.55 -0.3 15.3 -0.25 15.35 -0.05 15.8 -0.1 15.8 -0.2 M10.9 0.65 L10.95 0.45 Q11.0 0.0 11.55 -0.1 12.15 -0.25 12.05 0.45 12.0 1.0 11.4 0.9 11.0 0.85 10.9 0.65 M8.55 0.95 Q9.0 0.9 8.95 1.4 L8.75 1.8 8.35 1.95 Q7.95 1.9 8.0 1.45 8.1 1.0 8.55 0.95" fill="#000000" fill-rule="evenodd" stroke="none"/>
    <path d="M6.85 -3.75 L7.0 -3.95 Q9.3 -3.15 10.05 -2.15 L10.75 -0.7 Q8.95 -0.25 7.9 0.45 L5.6 1.65 4.25 2.45 Q3.95 0.65 4.0 0.3 4.35 -2.7 6.65 -3.95 L6.85 -3.75 M11.05 -0.75 L10.2 -2.55 Q9.3 -3.6 7.35 -4.15 8.45 -4.85 10.45 -4.6 12.6 -4.3 14.05 -2.55 L15.25 -1.15 11.05 -0.75 M15.6 -0.75 L15.6 -0.7 Q14.95 -0.8 14.9 -0.3 L14.9 0.05 Q15.0 0.35 15.45 0.4 16.05 0.5 16.1 0.0 L16.1 -0.5 16.15 -0.55 17.6 0.2 Q13.3 0.9 9.0 2.2 L6.0 3.25 6.1 2.95 Q6.15 2.5 5.65 2.45 5.15 2.4 5.15 2.75 L5.15 3.05 Q5.2 3.25 5.55 3.3 L5.55 3.35 Q4.1 3.95 3.5 4.45 L4.05 3.1 8.35 0.6 Q11.7 -1.05 15.6 -0.75 M8.55 0.95 Q8.1 1.0 8.0 1.45 7.95 1.9 8.35 1.95 L8.75 1.8 8.95 1.4 Q9.0 0.9 8.55 0.95 M10.9 0.65 Q11.0 0.85 11.4 0.9 12.0 1.0 12.05 0.45 12.15 -0.25 11.55 -0.1 11.0 0.0 10.95 0.45 L10.9 0.65" fill="#999999" fill-rule="evenodd" stroke="none"/>
  </g>
</svg>
