<?xml version="1.0" encoding="UTF-8" standalone="no"?>
<svg xmlns:xlink="http://www.w3.org/1999/xlink" height="17.3px" width="11.3px" xmlns="http://www.w3.org/2000/svg">
  <g transform="matrix(1.0, 0.0, 0.0, 1.0, 0.0, 0.0)">
    <path d="M4.95 0.3 Q3.2 3.45 2.8 7.0 L2.45 8.25 Q5.25 9.65 8.4 10.4 8.65 7.9 10.35 5.8 10.75 5.25 10.7 4.55 10.5 2.3 8.8 0.5 L4.95 0.3 M6.35 0.2 L6.9 0.0 9.25 0.3 Q12.55 3.5 10.55 7.25 L8.7 10.55 Q9.05 10.85 9.05 11.45 L8.95 13.4 7.65 13.3 7.2 14.4 Q6.85 14.95 6.85 15.65 L5.7 16.55 4.9 17.3 Q3.05 17.45 1.6 16.4 1.35 15.3 1.45 14.1 L1.7 12.0 1.8 11.9 0.0 11.15 Q1.1 9.6 1.25 7.65 L2.0 7.6 2.45 7.25 Q1.8 2.8 5.05 0.0 L6.35 0.2 M8.35 10.65 Q5.0 10.5 2.3 8.5 L2.1 8.9 1.75 9.2 1.5 9.1 0.65 10.9 Q4.45 12.7 8.6 12.7 L8.35 10.65 M2.0 15.95 Q4.25 17.65 5.95 15.5 L6.3 15.3 6.6 13.95 7.05 13.2 Q4.4 12.85 1.9 11.95 2.25 12.75 2.1 13.9 L2.0 15.95" fill="#000000" fill-rule="evenodd" stroke="none"/>
    <path d="M4.95 0.3 L8.8 0.5 Q10.5 2.3 10.7 4.55 10.75 5.25 10.35 5.8 8.65 7.9 8.4 10.4 5.25 9.65 2.45 8.25 L2.8 7.0 Q3.2 3.45 4.95 0.3 M8.35 10.65 L8.6 12.7 Q4.45 12.7 0.65 10.9 L1.5 9.1 1.75 9.2 2.1 8.9 2.3 8.5 Q5.0 10.5 8.35 10.65" fill="#968367" fill-rule="evenodd" stroke="none"/>
    <path d="M2.0 15.95 L2.1 13.9 Q2.25 12.75 1.9 11.95 4.4 12.85 7.05 13.2 L6.6 13.95 6.3 15.3 5.95 15.5 Q4.25 17.65 2.0 15.95" fill="#f0e1bd" fill-rule="evenodd" stroke="none"/>
    <path d="M10.85 5.15 L10.75 5.25 9.55 6.5 Q8.25 7.8 8.0 9.45 L7.85 9.5 Q7.45 9.5 7.6 9.05 L7.25 9.25 7.0 9.0 Q7.0 8.3 7.95 7.1 L6.85 7.75 6.5 7.4 Q6.5 7.05 8.45 5.95 10.35 4.9 10.75 4.9 L10.85 5.15 M4.3 4.95 L4.1 6.6 Q4.1 7.45 4.35 7.7 L4.3 7.9 4.05 8.0 3.6 7.55 3.35 7.05 Q3.35 3.75 4.0 2.5 L4.5 3.45 4.3 4.95 M1.3 9.25 L1.45 9.0 Q2.0 8.15 2.0 9.3 L2.0 9.35 2.1 9.5 2.0 9.7 1.85 9.85 2.9 10.9 3.1 11.0 3.7 11.3 4.15 11.3 4.15 11.55 4.75 11.8 5.55 11.95 5.7 12.0 5.75 12.0 5.95 12.0 6.4 11.95 6.45 12.05 7.5 12.05 7.6 12.25 8.0 12.3 8.1 12.5 7.85 12.75 7.35 12.75 7.25 12.75 6.0 12.7 5.85 12.75 5.4 12.65 4.7 12.5 Q3.7 12.4 2.95 12.0 L1.55 11.5 0.85 10.75 1.05 9.8 1.0 9.45 1.25 9.15 1.3 9.25" fill="#605342" fill-rule="evenodd" stroke="none"/>
  </g>
</svg>
