<?xml version="1.0" encoding="UTF-8" standalone="no"?>
<svg xmlns:xlink="http://www.w3.org/1999/xlink" height="15.35px" width="12.7px" xmlns="http://www.w3.org/2000/svg">
  <g transform="matrix(1.0, 0.0, 0.0, 1.0, -0.4, 1.4)">
    <path d="M6.6 -1.05 Q6.7 -1.75 8.6 -1.05 L11.7 0.2 11.9 0.05 12.05 0.5 12.05 0.55 12.0 0.5 11.95 0.55 11.85 0.6 11.7 0.7 Q12.2 0.95 12.25 2.0 L12.35 2.95 12.95 3.85 13.1 4.1 12.9 4.6 12.9 4.65 12.6 6.0 12.65 6.0 12.7 7.55 Q12.85 7.45 12.95 7.45 L13.0 7.75 10.05 10.65 9.95 10.55 9.4 10.75 9.3 10.9 8.65 10.8 8.55 10.95 8.05 11.3 8.15 11.5 8.1 11.6 7.95 11.65 7.45 11.35 7.05 12.05 6.85 12.35 6.9 12.55 Q6.85 13.0 5.95 13.55 4.95 14.05 4.15 13.95 2.9 13.8 2.05 12.75 1.2 11.85 1.25 11.45 L1.25 11.4 1.35 11.3 Q1.75 10.1 2.25 9.5 L2.0 9.2 1.85 8.2 1.75 8.25 1.6 8.25 1.25 8.25 Q0.6 8.2 0.6 5.85 L0.4 5.55 0.7 5.2 1.35 5.05 1.3 4.2 Q1.45 2.95 1.7 2.4 L1.9 2.0 2.05 1.75 Q2.65 1.2 4.05 0.35 L6.65 -1.0 6.6 -1.05 M11.6 0.7 L6.8 -0.8 Q5.85 -0.35 4.8 0.3 2.9 1.35 2.25 2.45 L1.65 5.1 2.55 5.0 4.2 4.95 5.7 4.35 6.75 4.25 6.8 4.25 6.9 4.15 7.0 4.25 12.4 4.15 12.5 4.15 12.4 4.05 12.2 4.05 11.55 0.9 11.6 0.7 M12.45 4.65 L7.85 4.75 7.4 4.7 7.3 4.85 6.95 4.85 6.5 6.25 6.85 6.7 7.05 7.0 8.35 6.8 11.25 7.3 11.45 6.6 Q11.65 6.2 12.2 6.2 L12.1 5.95 Q12.2 5.0 12.45 4.65 M12.15 6.55 Q11.8 6.8 11.7 7.45 11.5 8.05 9.9 7.9 L7.45 7.65 7.5 7.8 7.35 8.05 7.2 8.05 6.9 7.55 6.8 7.55 6.6 7.45 6.7 7.3 6.7 7.25 6.15 7.35 6.5 8.7 Q7.0 9.55 8.35 10.2 L8.8 10.0 10.25 9.85 10.9 9.0 Q11.55 8.1 12.2 7.75 L12.15 6.55 M6.1 5.9 L6.35 5.0 6.4 4.9 5.05 5.15 2.4 5.65 1.3 5.55 0.95 5.75 1.25 7.65 1.3 7.7 Q1.6 7.3 3.35 7.1 L6.4 6.95 5.95 6.2 6.05 5.95 6.1 5.9 M2.25 7.95 L2.0 8.1 Q2.0 9.0 4.55 9.5 L6.65 10.4 7.6 10.95 7.95 10.6 7.95 10.55 8.05 10.4 6.5 9.0 Q5.65 8.05 5.7 7.4 L4.3 7.55 2.25 7.9 2.25 7.95 M1.75 11.35 L2.45 12.5 Q3.15 13.35 4.25 13.5 5.15 13.6 5.9 13.0 L6.1 12.8 6.1 12.7 7.0 11.05 Q5.45 10.05 4.45 9.9 L2.65 9.65 2.15 10.7 1.75 11.35" fill="#000000" fill-rule="evenodd" stroke="none"/>
    <path d="M11.6 0.7 L11.55 0.9 12.2 4.05 12.4 4.05 12.5 4.15 12.4 4.15 7.0 4.25 6.9 4.15 6.8 4.25 6.75 4.25 5.7 4.35 4.2 4.95 2.55 5.0 1.65 5.1 2.25 2.45 Q2.9 1.35 4.8 0.3 5.85 -0.35 6.8 -0.8 L11.6 0.7 M1.75 11.35 L2.15 10.7 2.65 9.65 4.45 9.9 Q5.45 10.05 7.0 11.05 L6.1 12.7 6.1 12.8 5.9 13.0 Q5.15 13.6 4.25 13.5 3.15 13.35 2.45 12.5 L1.75 11.35 M2.25 7.95 L2.25 7.9 4.3 7.55 5.7 7.4 Q5.65 8.05 6.5 9.0 L8.05 10.4 7.95 10.55 7.95 10.6 7.6 10.95 6.65 10.4 4.55 9.5 Q2.0 9.0 2.0 8.1 L2.25 7.95" fill="#485331" fill-rule="evenodd" stroke="none"/>
    <path d="M6.1 5.9 L6.05 5.95 5.95 6.2 6.4 6.95 3.35 7.1 Q1.6 7.3 1.3 7.7 L1.25 7.65 0.95 5.75 1.3 5.55 2.4 5.65 5.05 5.15 6.4 4.9 6.35 5.0 6.1 5.9 M12.15 6.55 L12.2 7.75 Q11.55 8.1 10.9 9.0 L10.25 9.85 8.8 10.0 8.35 10.2 Q7.0 9.55 6.5 8.7 L6.15 7.35 6.7 7.25 6.7 7.3 6.6 7.45 6.8 7.55 6.9 7.55 7.2 8.05 7.35 8.05 7.5 7.8 7.45 7.65 9.9 7.9 Q11.5 8.05 11.7 7.45 11.8 6.8 12.15 6.55" fill="#7e7b67" fill-rule="evenodd" stroke="none"/>
    <path d="M12.45 4.65 Q12.2 5.0 12.1 5.95 L12.2 6.2 Q11.65 6.2 11.45 6.6 L11.25 7.3 8.35 6.8 7.05 7.0 6.85 6.7 6.5 6.25 6.95 4.85 7.3 4.85 7.4 4.7 7.85 4.75 12.45 4.65" fill="url(#gradient0)" fill-rule="evenodd" stroke="none"/>
    <path d="M7.65 -0.1 Q9.2 -0.1 10.1 0.65 10.75 1.2 10.75 1.7 L10.5 2.25 10.1 2.75 Q8.8 1.45 7.25 0.35 L7.1 0.25 Q7.05 0.0 7.25 -0.05 L7.65 -0.1 M5.75 8.2 L6.0 8.45 5.95 8.65 5.75 8.75 5.25 8.35 5.25 8.3 5.75 8.2" fill="#a8b685" fill-rule="evenodd" stroke="none"/>
    <path d="M3.2 2.7 L3.25 2.75 3.25 2.8 3.2 2.7 M1.95 4.6 L1.9 4.6 2.05 4.25 2.1 4.2 2.15 4.55 1.95 4.6" fill="#3e4529" fill-rule="evenodd" stroke="none"/>
    <path d="M10.85 4.15 L10.45 4.4 9.35 4.2 7.85 4.2 7.75 4.4 5.75 4.4 5.5 4.65 5.15 4.7 5.25 4.95 4.95 4.75 3.8 4.75 3.05 4.75 2.75 5.0 2.7 5.5 2.35 5.65 Q2.15 5.65 1.5 5.0 L1.85 4.65 1.6 4.3 1.65 4.1 1.6 4.0 2.0 2.25 2.25 2.15 2.35 2.2 2.5 2.0 2.7 2.15 2.85 2.0 2.85 1.55 3.15 1.6 3.35 1.4 3.5 1.25 3.55 1.35 3.9 1.3 4.0 1.5 3.9 1.7 4.0 1.7 4.05 1.75 Q4.95 2.0 5.75 2.5 L7.4 3.6 8.15 3.65 10.7 3.65 10.85 4.15 M3.2 2.7 L3.25 2.8 3.25 2.75 3.2 2.7 M1.95 4.6 L2.15 4.55 2.1 4.2 2.05 4.25 1.9 4.6 1.85 4.65 1.95 4.6 M3.25 3.6 L3.1 3.4 3.3 3.7 3.25 3.6 M5.25 8.3 L4.65 8.3 6.3 9.45 7.75 10.55 7.7 10.85 7.4 10.9 6.45 10.65 7.35 11.7 6.85 11.9 7.0 12.1 Q7.0 12.55 4.6 13.25 3.3 13.25 3.25 12.15 L3.25 11.6 3.65 10.95 Q2.95 10.85 2.95 10.6 L3.1 10.3 2.6 10.0 2.6 9.7 3.55 9.95 4.35 10.2 5.05 10.0 5.1 10.0 3.65 9.2 Q3.25 9.1 3.0 8.85 L3.0 8.8 2.35 8.75 2.25 8.35 2.1 8.25 Q2.1 7.6 4.05 7.4 6.0 7.2 6.0 7.95 L5.75 8.2 5.25 8.3" fill="#2f3520" fill-rule="evenodd" stroke="none"/>
  </g>
  <defs>
    <linearGradient gradientTransform="matrix(0.0035, 4.0E-4, -2.0E-4, 0.0018, 9.45, 5.75)" gradientUnits="userSpaceOnUse" id="gradient0" spreadMethod="pad" x1="-819.2" x2="819.2">
      <stop offset="0.00784313725490196" stop-color="#373737"/>
      <stop offset="0.20784313725490197" stop-color="#ffffff"/>
      <stop offset="0.4588235294117647" stop-color="#5c5c5c"/>
      <stop offset="0.6941176470588235" stop-color="#dddddd"/>
      <stop offset="0.8705882352941177" stop-color="#929292"/>
      <stop offset="1.0" stop-color="#aaaaaa"/>
    </linearGradient>
  </defs>
</svg>
