<?xml version="1.0" encoding="UTF-8" standalone="no"?>
<svg xmlns:xlink="http://www.w3.org/1999/xlink" height="17.8px" width="13.35px" xmlns="http://www.w3.org/2000/svg">
  <g transform="matrix(1.0, 0.0, 0.0, 1.0, -0.55, 0.1)">
    <path d="M3.45 -0.05 L6.4 0.3 Q8.0 0.5 8.55 2.0 11.2 4.4 12.4 8.15 13.6 11.35 13.85 14.75 L13.85 15.0 13.9 15.7 13.75 15.35 13.75 15.4 13.45 16.25 13.2 16.45 12.35 17.05 12.15 17.3 Q8.45 18.8 6.0 14.4 L5.25 12.75 5.05 12.55 5.25 12.6 5.15 12.45 Q2.75 10.35 1.25 6.8 0.0 3.8 1.0 1.45 L1.0 1.35 1.0 1.2 1.05 1.0 1.65 0.5 Q1.7 0.35 1.85 0.35 L1.95 0.4 2.15 0.3 3.25 -0.1 3.45 -0.05 M6.55 5.7 L6.55 6.15 6.8 6.3 7.75 8.5 Q8.3 9.8 8.5 11.15 L8.45 11.25 8.95 10.8 8.65 9.5 7.5 7.05 7.0 5.85 6.55 5.7 M4.2 0.45 L3.55 0.55 1.9 0.9 1.9 1.0 1.4 1.3 Q0.45 4.15 2.2 7.3 L2.45 6.6 Q3.7 5.0 5.7 4.95 7.7 5.15 8.65 7.85 9.25 9.5 9.1 11.05 9.05 11.55 8.65 11.8 L8.6 12.05 Q7.9 12.25 7.4 12.65 6.75 13.15 6.0 12.95 L8.6 16.45 Q8.95 16.95 9.55 17.1 11.45 17.4 12.9 16.05 L13.2 15.15 13.5 14.45 13.55 14.45 12.15 9.05 Q10.95 5.15 8.45 2.25 L7.7 1.75 6.65 0.9 Q5.5 0.35 4.2 0.45 M3.0 8.7 L4.9 11.75 5.0 11.7 5.65 12.55 Q6.65 12.35 7.6 11.8 L8.4 11.35 7.35 8.95 6.55 6.8 6.35 7.9 Q6.0 9.2 5.9 10.5 5.15 10.45 4.45 9.8 L3.6 9.3 3.55 9.15 3.5 9.1 3.4 8.95 3.0 8.7 M2.55 7.45 L2.7 7.65 2.75 7.8 2.8 8.1 5.05 9.5 5.45 9.95 5.9 7.6 Q5.95 6.45 6.45 5.65 4.8 5.25 3.35 6.2 2.7 6.7 2.55 7.45" fill="#000000" fill-rule="evenodd" stroke="none"/>
    <path d="M6.55 5.7 L7.0 5.85 7.5 7.05 8.65 9.5 8.95 10.8 8.45 11.25 8.5 11.15 Q8.3 9.8 7.75 8.5 L6.8 6.3 6.55 6.15 6.55 5.7 M4.2 0.45 L5.6 0.7 6.65 0.9 7.7 1.75 8.45 2.25 Q10.95 5.15 12.15 9.05 L13.55 14.45 13.5 14.45 13.2 15.15 12.9 16.05 Q11.45 17.4 9.55 17.1 8.95 16.95 8.6 16.45 L6.0 12.95 Q6.75 13.15 7.4 12.65 7.9 12.25 8.6 12.05 L8.65 11.8 Q9.05 11.55 9.1 11.05 9.25 9.5 8.65 7.85 7.7 5.15 5.7 4.95 3.7 5.0 2.45 6.6 L2.2 7.3 Q0.45 4.15 1.4 1.3 L1.9 1.0 1.9 0.9 3.55 0.55 4.2 0.45 M2.55 7.45 Q2.7 6.7 3.35 6.2 4.8 5.25 6.45 5.65 5.95 6.45 5.9 7.6 L5.45 9.95 5.05 9.5 2.8 8.1 2.75 7.8 2.7 7.65 2.55 7.45 M3.0 8.7 L3.4 8.95 3.5 9.1 3.55 9.15 3.6 9.3 4.45 9.8 Q5.15 10.45 5.9 10.5 6.0 9.2 6.35 7.9 L6.55 6.8 7.35 8.95 8.4 11.35 7.6 11.8 Q6.65 12.35 5.65 12.55 L5.0 11.7 4.9 11.75 3.0 8.7" fill="#968367" fill-rule="evenodd" stroke="none"/>
    <path d="M3.75 2.7 L4.5 3.85 3.85 4.6 4.0 4.95 3.6 5.1 3.5 5.0 3.4 5.15 3.25 5.25 3.0 5.2 3.0 5.45 2.95 5.65 2.75 5.75 Q2.45 5.75 2.3 5.0 L2.25 5.0 Q1.65 5.0 1.6 2.5 1.6 1.8 1.85 1.65 L2.1 2.2 2.75 1.65 3.75 2.7 M4.0 6.15 L3.55 7.55 4.65 8.35 Q5.75 9.1 5.75 9.65 L5.7 9.9 5.5 10.0 3.85 8.95 2.0 7.45 2.5 6.9 Q2.5 6.65 3.05 6.25 L3.75 5.9 4.0 6.15 M3.35 8.85 L3.45 8.75 Q3.9 8.95 4.95 10.6 5.3 11.1 6.5 10.9 7.5 10.75 7.5 11.5 L7.25 11.85 7.0 12.2 6.9 12.45 6.15 12.5 Q4.95 12.5 4.15 11.1 3.6 10.15 3.35 8.85 M9.25 9.9 L10.35 12.9 11.0 15.25 10.9 15.6 10.6 15.6 Q10.45 15.6 10.45 15.8 L10.35 16.15 9.6 13.2 9.0 10.2 9.25 9.9 M9.65 16.6 L9.5 16.65 Q9.15 16.65 8.45 15.25 7.75 13.9 7.6 13.0 9.15 12.95 9.85 15.85 L9.65 16.6 M12.05 14.4 L12.35 15.45 12.25 15.6 12.1 15.65 7.35 4.8 Q8.85 4.95 10.85 9.5 L12.5 14.05 12.05 14.4" fill="#605342" fill-rule="evenodd" stroke="none"/>
  </g>
</svg>
