<?xml version="1.0" encoding="UTF-8" standalone="no"?>
<svg xmlns:xlink="http://www.w3.org/1999/xlink" height="22.2px" width="14.85px" xmlns="http://www.w3.org/2000/svg">
  <g transform="matrix(1.0, 0.0, 0.0, 1.0, 3.1, -0.35)">
    <path d="M5.7 0.7 L5.4 1.05 5.35 1.15 4.8 1.35 Q4.1 2.25 3.55 3.35 3.0 4.5 2.85 5.85 L2.85 5.95 3.5 6.55 4.75 7.95 Q6.5 8.8 8.5 9.25 9.1 7.85 10.25 6.2 11.8 4.05 10.85 2.0 L10.85 1.85 11.1 1.75 11.2 1.65 11.0 1.25 11.05 1.2 Q12.35 3.1 11.15 5.75 10.2 7.95 8.7 9.35 L8.9 9.35 8.65 9.4 Q8.8 9.95 8.15 10.75 L7.05 12.1 Q5.8 12.35 4.9 13.3 L4.65 13.65 Q4.7 13.95 4.2 14.3 L3.6 14.75 3.3 14.8 3.3 14.85 3.5 15.1 3.35 15.3 3.1 15.95 3.0 16.1 3.4 16.1 3.9 16.3 4.6 17.45 5.6 19.25 5.95 20.2 6.2 20.35 6.55 20.5 7.1 20.9 Q7.15 22.3 5.7 22.45 1.8 23.05 -0.55 20.35 L-0.25 20.3 -0.4 20.15 -1.15 19.55 Q-1.2 19.25 -1.4 19.15 -1.65 18.8 -2.0 18.75 L-2.05 18.65 -2.05 18.55 -2.1 18.45 -2.65 18.1 Q-2.75 17.75 -3.05 17.7 -3.25 15.75 -2.5 13.9 L-2.2 13.3 -1.85 12.3 -0.3 12.15 -0.8 11.75 -0.2 10.2 0.15 9.8 -0.05 9.55 0.05 9.2 0.3 8.6 0.95 6.85 1.4 6.1 2.35 6.2 Q2.25 5.8 2.5 5.35 2.4 4.35 2.9 3.1 3.85 1.15 5.6 0.5 L5.7 0.7 M-0.3 12.15 L-0.9 12.25 -0.95 12.5 -1.65 14.05 -1.75 14.0 -2.55 16.25 -2.7 17.15 -0.8 18.7 0.65 20.4 0.5 20.55 Q1.35 20.8 2.2 21.7 L2.35 21.85 Q4.05 22.05 5.75 21.85 6.15 21.85 6.6 21.4 5.9 21.05 5.45 19.95 4.9 18.65 3.95 17.5 L3.6 16.7 3.5 16.65 Q2.05 16.95 2.3 16.15 L2.35 15.95 2.8 16.0 Q2.6 15.5 3.15 14.8 L2.95 14.6 3.1 14.5 2.95 14.5 3.05 14.15 3.45 14.05 Q3.6 13.75 4.05 13.65 L4.25 13.25 Q5.0 11.95 6.45 11.35 7.3 11.1 7.75 10.2 L8.35 9.4 Q5.4 9.6 3.0 7.25 L2.5 6.75 1.55 6.8 1.5 6.9 1.25 7.45 Q1.2 7.45 1.1 7.55 L0.7 8.8 0.5 9.25 0.95 9.9 Q2.15 10.7 3.75 11.15 L4.4 11.85 3.6 11.95 0.65 10.25 0.25 9.9 -0.3 12.15" fill="#000000" fill-rule="evenodd" stroke="none"/>
    <path d="M11.0 1.25 L11.2 1.65 11.1 1.75 10.85 1.85 10.85 2.0 Q11.8 4.05 10.25 6.2 9.1 7.85 8.5 9.25 6.5 8.8 4.75 7.95 L3.5 6.55 2.85 5.95 2.85 5.85 Q3.0 4.5 3.55 3.35 4.1 2.25 4.8 1.35 L5.35 1.15 5.4 1.05 5.7 0.7 Q6.2 0.3 7.0 0.4 L7.55 0.35 10.8 0.65 10.95 0.75 10.9 0.8 Q10.75 1.2 11.0 1.25" fill="#968367" fill-rule="evenodd" stroke="none"/>
    <path d="M-0.3 12.15 L0.25 9.9 0.65 10.25 3.6 11.95 4.4 11.85 3.75 11.15 Q2.15 10.7 0.95 9.9 L0.5 9.25 0.7 8.8 1.1 7.55 Q1.2 7.45 1.25 7.45 L1.5 6.9 1.55 6.8 2.5 6.75 3.0 7.25 Q5.4 9.6 8.35 9.4 L7.75 10.2 Q7.3 11.1 6.45 11.35 5.0 11.95 4.25 13.25 L4.05 13.65 Q3.6 13.75 3.45 14.05 L3.05 14.15 2.95 14.5 3.1 14.5 2.95 14.6 3.15 14.8 Q2.6 15.5 2.8 16.0 L2.35 15.95 2.3 16.15 Q2.05 16.95 3.5 16.65 L3.6 16.7 3.95 17.5 Q4.9 18.65 5.45 19.95 5.9 21.05 6.6 21.4 6.15 21.85 5.75 21.85 4.05 22.05 2.35 21.85 L2.2 21.7 Q1.35 20.8 0.5 20.55 L0.65 20.4 -0.8 18.7 -2.7 17.15 -2.55 16.25 -1.75 14.0 -1.65 14.05 -0.95 12.5 -0.9 12.25 -0.3 12.15" fill="#485331" fill-rule="evenodd" stroke="none"/>
    <path d="M5.3 1.05 Q6.1 2.35 6.1 5.55 6.1 7.75 5.6 7.75 5.3 7.75 4.95 3.25 L3.95 6.4 3.6 6.35 3.6 5.85 4.15 3.45 2.75 5.65 2.5 5.4 Q3.65 1.3 5.25 0.55 L5.35 0.75 5.3 1.05 M6.0 1.25 L7.1 4.2 7.1 5.35 6.85 5.5 6.1 3.65 Q5.75 2.4 5.75 1.55 5.75 1.35 6.0 1.25" fill="#605342" fill-rule="evenodd" stroke="none"/>
  </g>
</svg>
