<?xml version="1.0" encoding="UTF-8" standalone="no"?>
<svg xmlns:xlink="http://www.w3.org/1999/xlink" height="118.25px" width="803.65px" xmlns="http://www.w3.org/2000/svg">
  <g transform="matrix(1.0, 0.0, 0.0, 1.0, 29.5, 11.5)">
    <path d="M759.4 34.05 L759.4 103.05 518.45 103.05 518.45 34.05 759.4 34.05" fill="#c79e63" fill-rule="evenodd" stroke="none"/>
    <path d="M709.05 42.55 L709.3 42.3 770.95 42.25 771.35 42.15 Q771.75 42.15 771.8 42.35 L771.4 42.8 760.55 42.8 709.15 42.8 709.05 42.55 M760.4 58.75 L760.4 58.55 760.5 58.3 771.4 58.3 771.65 58.5 771.5 58.7 771.2 58.65 760.4 58.75 M739.45 61.7 L739.55 61.9 739.45 62.15 706.4 62.15 706.3 61.9 706.4 61.65 739.45 61.7 M735.55 86.3 L735.45 86.55 724.75 86.55 724.65 86.3 724.75 86.05 Q735.55 86.05 735.55 86.3 M730.3 98.5 L733.4 98.05 734.15 97.9 Q734.35 97.55 734.65 97.55 L735.0 97.6 Q737.05 97.15 738.9 97.55 L740.3 98.05 740.45 98.05 740.5 98.05 773.7 98.1 773.8 98.3 773.7 98.55 740.95 98.55 740.35 98.65 740.25 98.65 738.75 98.8 738.2 98.8 737.3 98.85 737.3 98.95 737.3 99.3 737.25 99.4 738.25 99.15 739.4 98.85 739.4 99.25 738.25 99.65 736.4 100.05 733.9 99.75 732.9 99.15 732.95 98.9 731.45 98.85 730.3 99.05 729.8 98.8 729.85 98.65 716.75 98.65 716.65 98.4 716.75 98.15 Q726.65 98.1 729.15 98.2 L730.3 98.4 730.3 98.5 M737.35 98.3 L737.8 98.4 Q738.1 98.15 738.6 98.15 L739.3 98.1 736.9 97.9 737.15 98.3 737.35 98.3 M735.65 97.9 L735.6 97.9 736.1 98.4 736.3 98.35 736.15 97.9 735.65 97.9 M735.4 93.3 L735.3 93.05 735.4 92.8 773.55 92.85 773.65 93.05 773.55 93.3 735.4 93.3 M733.55 98.8 L733.6 98.8 734.1 98.95 734.3 99.1 735.85 99.2 736.35 99.45 735.75 98.9 734.8 98.2 734.6 98.3 734.6 98.4 734.3 98.65 734.1 98.6 733.55 98.8 M656.5 48.4 L654.5 48.4 654.4 48.15 654.5 47.9 677.65 47.9 694.55 47.95 700.4 48.15 700.3 48.4 692.3 48.4 656.5 48.4 M703.15 38.8 L703.05 39.05 682.4 39.05 682.3 38.8 682.4 38.55 703.05 38.6 703.15 38.8 M679.4 61.7 Q680.6 61.35 681.15 61.7 L681.95 62.5 682.95 63.1 697.65 63.05 Q698.8 63.05 698.8 63.3 L698.7 63.55 688.35 63.65 688.55 63.9 688.15 64.55 687.9 64.4 687.85 64.3 682.75 64.3 681.8 64.9 Q680.4 65.65 679.3 65.65 L677.65 65.5 Q676.9 65.3 676.9 64.9 L677.0 64.65 677.3 64.65 677.55 64.9 677.65 64.95 679.25 65.1 Q680.8 65.1 681.8 64.5 L682.0 64.3 681.9 64.15 679.8 64.4 Q678.05 64.4 678.05 63.85 678.05 62.2 680.15 62.55 682.3 62.9 682.3 63.6 L682.25 63.8 682.65 63.8 682.8 63.65 682.95 63.75 685.2 63.65 684.45 63.65 Q682.95 63.65 681.75 62.9 680.55 62.15 679.6 62.15 679.15 62.15 677.65 63.05 L677.45 63.15 675.75 64.05 676.05 64.05 676.15 64.1 676.3 64.3 676.2 64.6 675.85 64.65 672.4 64.55 672.3 64.3 672.4 64.05 675.15 64.05 674.9 63.9 652.4 63.8 652.3 63.55 652.4 63.3 673.6 63.35 675.0 63.45 675.05 63.4 675.05 63.45 675.7 63.55 677.4 62.75 677.65 62.6 Q679.1 61.8 679.4 61.7 M665.65 70.9 L665.55 70.65 665.65 70.4 677.65 70.4 679.6 70.4 696.7 70.4 700.6 70.4 701.2 70.4 701.25 70.4 702.2 70.4 704.05 70.65 703.95 70.9 665.65 70.9 M636.05 41.95 L584.65 41.95 584.55 41.7 584.8 41.45 646.45 41.4 646.85 41.3 647.3 41.5 646.9 41.95 636.05 41.95 M649.15 92.2 L649.05 92.45 610.9 92.45 610.8 92.2 610.9 91.95 649.05 92.0 649.15 92.2 M654.25 77.3 L654.15 77.05 654.4 76.8 704.65 76.8 704.9 77.15 704.65 77.3 654.25 77.3 M649.3 97.45 L649.2 97.7 616.45 97.7 615.85 97.8 615.75 97.8 614.25 97.95 613.7 97.95 612.8 98.0 612.8 98.1 612.8 98.45 612.75 98.55 613.75 98.3 614.9 98.0 614.9 98.4 613.75 98.8 611.9 99.2 609.4 98.9 608.4 98.3 608.45 98.05 606.95 98.0 605.8 98.2 605.3 97.95 605.35 97.8 592.25 97.8 592.15 97.55 592.25 97.3 Q602.15 97.25 604.65 97.35 L605.8 97.55 605.8 97.65 608.9 97.2 609.65 97.05 Q609.85 96.7 610.15 96.7 L610.5 96.75 Q612.55 96.3 614.4 96.7 L615.8 97.2 615.95 97.2 616.0 97.2 649.2 97.25 649.3 97.45 M532.0 47.55 L530.0 47.55 529.9 47.3 530.0 47.05 553.15 47.05 570.05 47.1 575.9 47.3 575.8 47.55 567.8 47.55 532.0 47.55 M713.15 89.55 L713.05 89.3 713.15 89.05 719.8 89.05 720.05 89.1 720.05 89.35 719.3 89.8 719.1 89.7 713.15 89.55 M578.55 37.75 L578.65 37.95 578.55 38.2 557.9 38.2 557.8 37.95 557.9 37.7 578.55 37.75 M579.45 70.05 L541.15 70.05 541.05 69.8 541.15 69.55 572.2 69.55 576.75 69.55 577.7 69.55 579.55 69.8 579.45 70.05 M574.3 62.45 L574.2 62.7 563.85 62.8 564.05 63.05 563.65 63.7 563.4 63.55 563.35 63.45 558.25 63.45 557.3 64.05 Q555.9 64.8 554.8 64.8 L553.15 64.65 Q552.4 64.45 552.4 64.05 L552.5 63.8 552.8 63.8 553.05 64.05 553.15 64.1 554.75 64.25 Q556.3 64.25 557.3 63.65 L557.5 63.45 557.4 63.3 555.3 63.55 Q553.55 63.55 553.55 63.0 553.55 61.35 555.65 61.7 557.8 62.05 557.8 62.75 L557.75 62.95 558.15 62.95 558.3 62.8 558.45 62.9 560.7 62.8 559.95 62.8 Q558.45 62.8 557.25 62.05 556.05 61.3 555.1 61.3 554.65 61.3 553.15 62.2 L552.95 62.3 551.25 63.2 551.55 63.2 551.65 63.25 551.8 63.45 551.7 63.75 551.35 63.8 547.9 63.7 547.8 63.45 547.9 63.2 550.65 63.2 550.4 63.05 527.9 62.95 527.8 62.7 527.9 62.45 549.1 62.5 550.5 62.6 550.55 62.55 550.55 62.6 551.2 62.7 552.9 61.9 553.15 61.75 Q554.6 60.95 554.9 60.85 556.1 60.5 556.65 60.85 L557.45 61.65 558.45 62.25 573.15 62.2 Q574.3 62.2 574.3 62.45 M581.9 61.3 L581.8 61.05 581.9 60.8 614.95 60.85 615.05 61.05 614.95 61.3 581.9 61.3 M580.15 75.95 L580.4 76.3 580.15 76.45 529.75 76.45 529.65 76.2 529.9 75.95 580.15 75.95 M600.25 85.7 L600.15 85.45 600.25 85.2 Q611.05 85.2 611.05 85.45 L610.95 85.7 600.25 85.7 M595.3 88.2 L595.55 88.25 595.55 88.5 594.8 88.95 594.6 88.85 588.65 88.7 588.55 88.45 588.65 88.2 595.3 88.2 M647.0 57.85 L646.7 57.8 635.9 57.9 635.9 57.7 636.0 57.45 646.9 57.45 647.15 57.65 647.0 57.85 M614.1 97.3 L614.8 97.25 612.4 97.05 612.65 97.45 612.85 97.45 613.3 97.55 Q613.6 97.3 614.1 97.3 M611.15 97.05 L611.1 97.05 611.6 97.55 611.8 97.5 611.65 97.05 611.15 97.05 M609.1 97.95 L609.6 98.1 609.8 98.25 611.35 98.35 611.85 98.6 611.25 98.05 610.3 97.35 610.1 97.45 610.1 97.55 609.8 97.8 609.6 97.75 609.05 97.95 609.1 97.95" fill="#8f6a34" fill-rule="evenodd" stroke="none"/>
    <path d="M709.05 42.55 L709.15 42.8 760.55 42.8 760.45 43.05 709.05 43.05 709.25 44.7 709.05 47.15 708.85 51.3 773.6 51.25 774.05 51.35 773.8 51.8 698.15 51.8 698.05 51.55 698.3 51.3 708.55 51.3 708.55 43.05 671.0 43.05 670.9 42.8 671.15 42.55 709.05 42.55 M744.9 63.0 L744.7 62.9 706.15 62.75 706.05 62.5 706.15 62.25 745.55 62.25 745.6 62.35 745.65 62.5 Q745.65 63.0 744.9 63.0 M743.9 93.8 L743.65 93.95 700.35 93.95 700.4 94.25 700.15 94.8 699.95 94.7 699.9 94.2 699.95 93.95 673.75 93.95 673.65 93.7 673.9 93.45 743.65 93.45 743.9 93.8 M774.15 81.85 L773.9 82.0 681.65 82.0 681.55 81.75 681.8 81.5 773.5 81.45 773.85 81.5 774.15 81.85 M679.6 70.4 L677.65 70.4 665.65 70.4 665.55 70.65 665.65 70.9 652.3 70.9 652.05 70.7 Q652.35 70.25 652.75 70.35 L679.6 70.4 M703.95 70.9 L704.05 70.65 702.2 70.4 713.65 70.4 713.9 70.65 713.65 70.9 703.95 70.9 M636.05 41.95 L635.95 42.2 584.55 42.2 584.75 43.85 584.55 46.3 584.35 50.45 649.1 50.4 649.55 50.5 649.3 50.95 573.65 50.95 573.55 50.7 573.8 50.45 584.05 50.45 584.05 42.2 546.5 42.2 546.4 41.95 546.65 41.7 584.55 41.7 584.65 41.95 636.05 41.95 M649.65 81.0 L649.4 81.15 557.15 81.15 557.05 80.9 557.3 80.65 649.0 80.6 649.35 80.65 649.65 81.0 M658.15 58.9 L658.05 58.65 658.3 58.4 717.9 58.4 718.15 58.75 717.9 58.9 658.15 58.9 M696.65 91.95 L696.9 91.7 697.15 92.35 696.9 92.95 696.65 92.8 696.65 91.95 M593.4 57.55 L593.65 57.9 593.4 58.05 533.65 58.05 533.55 57.8 533.8 57.55 593.4 57.55 M577.7 69.55 L589.15 69.55 589.4 69.8 589.15 70.05 579.45 70.05 579.55 69.8 577.7 69.55 M541.15 70.05 L527.8 70.05 527.55 69.85 Q527.85 69.4 528.25 69.5 L541.15 69.55 541.05 69.8 541.15 70.05 M581.55 61.65 L581.65 61.4 621.05 61.4 621.1 61.5 621.15 61.65 Q621.15 62.15 620.4 62.15 L620.2 62.05 581.65 61.9 581.55 61.65 M575.85 93.1 L575.9 93.4 575.65 93.95 575.45 93.85 575.4 93.35 575.45 93.1 549.25 93.1 549.15 92.85 549.4 92.6 619.15 92.6 619.4 92.95 619.15 93.1 575.85 93.1 M572.65 91.5 L572.4 92.1 572.15 91.95 572.15 91.1 572.4 90.85 572.65 91.5" fill="#d1b183" fill-rule="evenodd" stroke="none"/>
    <path d="M771.5 58.7 Q772.55 58.75 772.55 59.05 L772.45 59.3 757.4 59.3 757.3 59.05 757.4 58.8 760.4 58.75 771.2 58.65 771.5 58.7 M740.8 60.95 L740.9 61.15 740.8 61.4 708.15 61.4 708.05 61.15 708.15 60.9 740.8 60.95 M751.65 79.05 L751.55 79.3 719.15 79.3 719.05 79.05 719.15 78.8 748.95 78.85 751.65 79.05 M656.5 48.4 L692.3 48.4 692.55 48.75 Q692.3 48.85 691.9 49.05 L656.5 48.9 656.4 48.65 656.5 48.4 M701.25 70.4 L701.2 70.4 700.6 70.4 696.7 70.4 696.65 70.15 696.75 69.9 701.3 70.15 701.25 70.4 M687.15 87.8 L687.05 87.55 687.15 87.3 691.65 87.3 691.9 87.45 691.8 87.8 691.15 87.9 687.15 87.8 M532.0 47.55 L567.8 47.55 568.05 47.9 567.4 48.2 532.0 48.05 531.9 47.8 532.0 47.55 M572.2 69.55 L572.15 69.3 572.25 69.05 576.8 69.3 576.75 69.55 572.2 69.55 M583.65 60.55 L583.55 60.3 583.65 60.05 616.3 60.1 616.4 60.3 616.3 60.55 583.65 60.55 M567.15 86.45 L567.4 86.6 567.3 86.95 566.65 87.05 562.65 86.95 562.55 86.7 562.65 86.45 567.15 86.45 M594.55 78.2 L594.65 77.95 624.45 78.0 627.15 78.2 627.05 78.45 594.65 78.45 594.55 78.2 M635.9 57.9 L646.7 57.8 647.0 57.85 Q648.05 57.9 648.05 58.2 L647.95 58.45 632.9 58.45 632.8 58.2 632.9 57.95 635.9 57.9" fill="#a3783a" fill-rule="evenodd" stroke="none"/>
    <path d="M717.65 104.85 L717.9 104.75 736.55 104.8 756.95 104.85 756.95 100.85 748.5 100.9 748.4 101.15 747.2 100.9 736.55 100.9 693.95 101.0 569.45 101.0 569.45 101.05 542.2 101.1 541.95 101.05 541.95 101.0 532.7 101.05 532.55 101.2 532.25 101.0 526.25 101.0 526.2 101.3 526.1 101.35 526.0 101.65 531.15 101.75 531.3 101.75 531.4 101.75 Q533.05 101.7 533.05 102.95 L532.45 103.6 Q531.8 104.0 531.2 104.0 L531.05 103.9 525.4 103.9 525.3 104.3 525.15 104.85 717.65 104.85 M693.5 100.35 L713.6 100.35 713.6 100.4 758.95 100.4 758.95 105.35 758.55 105.35 758.15 105.65 756.95 105.4 756.95 105.35 525.2 105.45 525.0 105.5 524.95 105.5 524.7 106.1 524.65 106.1 524.45 106.25 524.1 106.25 523.4 106.35 523.0 106.35 522.95 106.45 521.65 106.75 Q515.55 105.65 516.05 102.6 L516.0 102.6 515.85 102.55 515.8 102.5 515.5 102.25 515.3 101.85 515.55 101.45 515.55 101.2 515.45 100.8 515.3 100.85 515.4 100.75 515.3 100.3 515.35 100.2 515.3 100.1 515.4 99.95 515.55 99.9 515.55 66.35 515.45 49.8 515.5 33.9 515.05 33.9 514.85 33.8 514.8 33.4 Q514.8 33.05 514.95 33.0 L515.3 32.9 515.5 32.9 515.5 31.85 515.8 31.85 515.85 31.8 516.05 31.75 516.3 32.35 516.25 32.55 516.05 32.55 516.05 32.9 520.35 32.9 520.4 32.85 520.45 32.4 520.45 32.1 520.5 32.05 520.55 31.8 520.55 32.0 520.75 32.2 520.8 32.15 520.8 33.9 520.7 33.9 520.75 60.9 520.8 64.55 520.8 77.6 521.45 77.65 521.8 77.6 Q521.95 77.8 522.2 77.8 L522.15 78.1 522.2 78.4 521.95 81.4 521.95 82.5 Q522.2 83.45 523.4 83.45 L523.65 83.45 523.85 83.0 523.7 82.45 523.7 82.35 523.55 82.1 523.8 81.95 524.3 82.1 Q525.8 82.15 527.45 83.9 528.85 85.4 528.95 86.3 L528.95 86.4 528.95 86.5 528.7 86.5 Q527.7 86.6 527.5 87.35 L527.25 87.75 527.3 87.8 527.35 87.65 527.45 87.65 527.45 87.75 527.7 88.5 528.05 88.85 527.8 88.8 527.95 89.0 526.7 89.15 Q525.8 89.35 525.35 89.85 L525.25 89.95 Q524.8 90.55 524.8 91.05 525.1 92.3 525.9 92.3 L526.5 92.05 526.7 91.65 526.45 90.85 526.55 90.65 526.85 90.6 527.75 90.9 529.05 90.7 529.3 90.5 529.5 90.35 529.75 90.0 529.85 90.05 530.2 89.85 530.25 89.95 530.3 90.2 530.2 90.35 529.8 90.8 Q529.3 91.35 529.3 91.75 L529.85 92.25 530.55 92.85 528.7 94.0 Q528.05 94.3 528.05 94.65 528.05 95.2 528.9 95.2 530.0 95.2 530.6 94.2 L530.7 94.0 531.05 92.9 530.7 92.25 530.85 92.2 530.8 91.95 530.85 91.65 530.95 91.65 531.0 91.4 531.55 91.6 531.45 91.65 531.7 91.7 531.8 91.6 532.05 91.6 531.85 91.75 532.25 91.8 532.8 91.35 533.05 90.7 533.05 90.6 532.95 90.95 532.8 91.1 532.85 91.0 532.9 90.8 533.0 90.4 533.05 90.35 533.05 90.2 533.45 90.0 Q534.8 90.05 536.3 92.4 537.8 94.75 537.8 95.9 L537.55 96.25 537.05 95.85 536.55 95.6 Q535.9 95.7 535.4 96.15 L535.1 96.7 Q534.8 97.4 534.8 98.05 L534.95 98.4 534.9 98.6 535.2 98.95 Q535.9 99.55 537.9 99.55 L539.0 99.35 539.85 99.1 540.2 99.2 540.25 100.45 693.35 100.5 693.5 100.35 M517.2 98.35 L517.2 96.4 517.2 95.3 517.2 95.15 517.2 91.9 Q517.2 89.95 518.05 90.4 L518.25 90.5 518.25 90.55 Q518.6 90.5 518.8 90.75 L519.05 91.3 519.2 91.65 519.25 91.65 519.25 91.75 519.3 92.1 519.25 92.4 519.55 94.9 519.6 96.8 519.55 97.3 520.4 96.5 520.3 64.45 520.3 40.0 520.25 35.9 520.3 33.9 516.05 33.9 515.95 66.65 516.1 68.15 516.05 70.35 516.05 83.2 516.05 91.75 516.1 96.0 515.9 99.35 515.9 99.75 516.95 99.2 516.8 98.5 517.1 98.35 517.2 98.5 517.2 98.35 M521.7 78.8 L521.7 78.3 520.8 78.15 520.8 90.7 520.85 93.1 520.8 94.2 520.85 94.75 520.7 96.45 521.0 95.95 521.0 95.9 521.05 95.9 521.7 95.95 521.95 96.15 522.05 96.25 Q522.45 96.3 522.6 96.7 L522.6 97.05 522.9 97.95 523.8 98.75 525.1 98.95 Q526.45 99.2 526.45 100.2 L526.35 100.45 539.55 100.45 539.55 99.8 538.95 99.95 537.9 100.1 537.5 100.1 537.1 100.1 535.9 99.9 Q534.3 99.45 534.3 98.1 534.3 97.3 534.55 96.65 L534.6 96.6 Q534.75 96.15 535.05 95.85 535.75 95.0 537.0 95.2 L537.05 95.15 536.05 92.8 536.0 92.75 Q535.7 92.35 534.2 91.3 L533.5 90.8 533.25 91.55 533.1 91.8 Q532.5 91.85 532.2 92.35 L531.5 92.15 531.5 92.2 Q531.7 92.85 531.2 94.05 L531.1 94.5 530.5 95.15 Q529.9 95.75 528.9 95.75 L528.65 95.75 528.4 95.75 528.15 95.65 Q527.55 95.4 527.55 94.7 L527.75 93.85 527.8 93.6 528.25 93.2 Q528.75 92.8 529.4 92.7 L529.45 92.7 Q529.05 92.3 529.0 92.1 L528.95 92.0 528.8 91.7 528.9 91.3 528.85 91.3 528.15 91.4 527.75 91.5 527.3 91.4 527.2 92.15 Q526.95 92.75 526.15 92.85 L525.85 92.85 525.4 92.75 524.75 92.2 Q524.3 91.6 524.3 91.05 524.3 90.2 524.95 89.3 525.8 88.15 526.95 88.3 L526.7 87.7 Q526.7 86.65 528.3 86.4 528.2 85.4 527.2 84.5 L524.35 82.65 524.65 83.5 524.1 83.95 523.75 84.0 Q523.4 84.35 522.75 84.35 522.25 84.35 521.95 83.65 L521.55 83.1 521.45 81.45 521.45 81.0 521.45 80.9 Q521.5 79.3 521.7 78.8 M523.2 84.0 L522.5 83.9 Q522.75 84.1 523.0 84.1 L523.2 84.0 M522.7 89.0 L523.05 89.3 523.3 89.2 523.5 90.65 523.5 90.85 523.5 90.9 523.7 93.05 523.7 93.35 522.7 93.6 522.4 93.55 522.25 93.6 522.05 93.55 522.05 93.35 Q521.8 93.1 521.7 92.6 L521.7 91.35 521.7 90.0 Q521.9 89.0 522.7 89.0 M522.45 89.75 L522.45 91.4 522.35 93.05 523.2 93.05 523.05 91.0 Q523.0 90.05 522.45 89.75 M519.05 91.75 L519.05 91.5 519.0 91.6 519.05 91.75 M517.8 98.7 L518.7 98.0 518.7 97.95 518.8 97.95 518.95 97.8 518.95 97.65 518.95 96.4 518.95 94.55 Q518.9 92.4 517.95 91.05 517.7 91.65 517.7 93.0 L517.8 98.7 M517.0 100.1 Q518.0 100.15 519.55 100.9 523.4 102.65 523.55 105.5 L523.6 105.5 524.3 105.6 525.7 100.95 525.7 100.5 525.75 100.3 525.85 100.3 525.9 100.2 Q525.9 100.05 525.05 99.7 L525.0 99.65 Q522.85 99.05 522.55 98.65 L522.4 98.3 Q521.95 97.85 521.95 97.3 L522.05 97.1 521.4 96.35 521.1 96.75 Q520.95 97.0 520.95 97.2 L520.65 97.2 520.2 97.65 518.95 98.8 517.05 100.05 516.9 100.1 517.0 100.1 M521.2 98.6 L521.3 98.75 521.5 99.4 521.5 99.45 Q521.6 99.95 522.2 99.95 L523.15 99.75 523.75 99.95 523.9 99.85 524.05 100.15 523.95 100.35 522.3 100.45 522.2 100.5 521.95 100.5 521.65 100.5 521.25 100.05 521.2 99.9 520.95 99.0 521.1 98.7 521.1 98.65 521.2 98.6 M526.05 95.75 L525.9 95.15 525.15 94.65 525.05 94.6 524.3 95.05 524.0 95.25 523.95 95.95 523.85 96.3 Q524.1 96.8 525.0 96.8 526.05 96.8 526.05 95.75 M524.9 94.1 Q526.15 94.1 526.45 95.1 526.8 95.5 526.8 96.1 L526.6 96.8 Q526.1 97.5 524.65 97.5 524.15 97.5 523.9 97.05 L523.6 96.75 Q523.3 96.35 523.3 95.8 523.3 95.35 523.6 94.85 524.05 94.1 524.9 94.1 M527.2 88.75 L527.45 88.85 527.45 88.8 527.4 88.75 527.2 88.75 M528.6 98.3 L527.55 98.6 527.55 98.95 530.8 99.1 530.8 98.45 530.8 98.35 528.6 98.3 M526.95 98.25 L526.9 98.25 526.8 98.0 526.9 97.75 530.75 97.6 531.1 97.75 Q531.2 97.65 531.4 97.65 L531.45 98.0 531.4 98.2 531.8 98.5 Q531.45 98.65 531.45 99.1 L531.3 99.7 529.8 99.75 527.55 99.55 527.45 99.5 527.2 99.5 527.1 99.4 526.95 99.2 527.05 99.1 526.95 98.25 M526.55 96.1 L526.5 95.9 526.45 96.6 526.55 96.1 M532.45 102.85 L532.1 102.4 531.15 102.25 531.05 102.15 525.9 102.15 525.7 102.9 525.55 103.4 531.1 103.5 531.85 103.3 Q532.45 103.1 532.45 102.85 M516.9 101.1 L516.15 101.7 516.2 101.75 516.3 101.75 516.55 101.85 516.65 101.85 517.6 102.0 518.1 102.05 Q519.1 102.05 519.9 102.6 520.8 102.95 521.35 103.65 L521.6 104.4 522.0 105.4 522.25 106.05 522.4 106.2 522.6 105.9 522.55 105.85 522.65 105.7 522.8 105.6 521.8 103.55 521.7 103.3 520.85 102.3 Q519.65 101.35 517.45 101.05 L517.0 101.2 516.95 101.1 517.25 101.0 517.1 101.0 516.9 101.1 M516.55 101.05 L516.55 100.95 516.75 100.8 516.15 101.1 516.3 101.25 516.55 101.05 M517.45 100.85 L517.3 100.9 517.7 100.95 518.15 100.9 517.8 100.85 517.75 100.85 517.45 100.85 M519.05 103.2 L518.95 103.15 518.9 103.1 518.35 102.75 517.5 102.65 516.95 102.45 516.8 102.5 516.95 103.0 Q517.15 104.0 517.6 104.35 L519.15 105.6 520.25 105.85 521.15 106.1 521.25 106.1 521.45 106.15 521.6 106.05 521.45 105.6 521.4 105.55 521.25 105.0 521.2 104.9 521.15 104.8 Q521.05 104.1 520.6 103.75 L519.45 103.3 519.05 103.2" fill="#000000" fill-rule="evenodd" stroke="none"/>
    <path d="M717.65 104.85 L525.15 104.85 525.3 104.3 525.4 103.9 531.05 103.9 531.2 104.0 Q531.8 104.0 532.45 103.6 L533.05 102.95 Q533.05 101.7 531.4 101.75 L531.3 101.75 531.15 101.75 526.0 101.65 526.1 101.35 526.2 101.3 526.25 101.0 532.25 101.0 532.55 101.2 532.7 101.05 541.95 101.0 541.95 101.05 542.2 101.1 569.45 101.05 569.45 101.0 693.95 101.0 736.55 100.9 747.2 100.9 748.4 101.15 748.5 100.9 756.95 100.85 756.95 104.85 736.55 104.8 717.9 104.75 717.65 104.85 M517.1 98.35 L516.8 98.5 516.95 99.2 515.9 99.75 515.9 99.35 516.1 96.0 516.05 91.75 516.05 83.2 516.05 70.35 516.1 68.15 515.95 66.65 516.05 33.9 520.3 33.9 520.25 35.9 520.3 40.0 520.3 64.45 520.4 96.5 519.55 97.3 519.6 96.8 519.55 94.9 519.25 92.4 519.3 92.1 519.25 91.75 519.25 91.65 519.2 91.65 519.05 91.3 518.8 90.75 Q518.6 90.5 518.25 90.55 L518.25 90.5 518.05 90.4 Q517.2 89.95 517.2 91.9 L517.2 95.15 517.2 95.3 517.2 96.4 517.2 98.35 517.1 98.35" fill="#836549" fill-rule="evenodd" stroke="none"/>
    <path d="M522.45 89.75 Q523.0 90.05 523.05 91.0 L523.2 93.05 522.35 93.05 522.45 91.4 522.45 89.75 M526.05 95.75 Q526.05 96.8 525.0 96.8 524.1 96.8 523.85 96.3 L523.95 95.95 524.0 95.25 524.3 95.05 525.05 94.6 525.15 94.65 525.9 95.15 526.05 95.75 M528.6 98.3 L530.8 98.35 530.8 98.45 530.8 99.1 527.55 98.95 527.55 98.6 528.6 98.3" fill="#c79e63" fill-rule="evenodd" stroke="none"/>
    <path d="M517.5 102.65 Q517.3 102.8 517.3 103.25 L517.8 103.8 518.7 104.1 518.9 104.1 519.35 104.3 519.45 104.35 519.75 104.65 519.75 105.05 519.65 105.2 519.55 105.35 519.6 105.55 520.25 105.85 519.15 105.6 517.6 104.35 Q517.15 104.0 516.95 103.0 L516.8 102.5 516.95 102.45 517.5 102.65 M519.1 103.25 L519.05 103.2 519.45 103.3 519.1 103.25 M521.2 104.9 L521.25 105.0 521.2 104.95 521.2 104.9 M521.45 105.6 L521.6 106.05 521.45 106.15 521.25 106.1 521.35 106.05 521.45 105.8 521.45 105.6" fill="#cc0000" fill-rule="evenodd" stroke="none"/>
    <path d="M518.9 104.1 L519.35 103.85 519.45 103.6 519.1 103.25 519.45 103.3 520.6 103.75 Q521.05 104.1 521.15 104.8 L521.2 104.9 521.2 104.95 521.25 105.0 521.4 105.55 521.45 105.6 521.45 105.8 521.35 106.05 521.25 106.1 521.15 106.1 520.25 105.85 519.6 105.55 519.55 105.35 519.65 105.2 519.75 105.05 519.75 104.65 519.45 104.35 519.35 104.3 518.9 104.1 M519.8 104.5 L520.35 104.5 520.45 104.25 520.15 103.95 519.55 104.1 519.6 104.45 519.8 104.5" fill="#760101" fill-rule="evenodd" stroke="none"/>
    <path d="M517.5 102.65 L518.35 102.75 518.9 103.1 518.95 103.15 519.05 103.2 519.1 103.25 519.45 103.6 519.35 103.85 518.9 104.1 518.7 104.1 517.8 103.8 517.3 103.25 Q517.3 102.8 517.5 102.65 M519.8 104.5 L519.6 104.45 519.55 104.1 520.15 103.95 520.45 104.25 520.35 104.5 519.8 104.5" fill="#fe9a9a" fill-rule="evenodd" stroke="none"/>
    <path d="M521.7 78.8 Q521.5 79.3 521.45 80.9 L521.45 81.0 521.45 81.45 521.55 83.1 521.95 83.65 Q522.25 84.35 522.75 84.35 523.4 84.35 523.75 84.0 L524.1 83.95 524.65 83.5 524.35 82.65 527.2 84.5 Q528.2 85.4 528.3 86.4 526.7 86.65 526.7 87.7 L526.95 88.3 Q525.8 88.15 524.95 89.3 524.3 90.2 524.3 91.05 524.3 91.6 524.75 92.2 L525.4 92.75 525.85 92.85 526.15 92.85 Q526.95 92.75 527.2 92.15 L527.3 91.4 527.75 91.5 528.15 91.4 528.85 91.3 528.9 91.3 528.8 91.7 528.95 92.0 529.0 92.1 Q529.05 92.3 529.45 92.7 L529.4 92.7 Q528.75 92.8 528.25 93.2 L527.8 93.6 527.75 93.85 527.55 94.7 Q527.55 95.4 528.15 95.65 L528.4 95.75 528.65 95.75 528.9 95.75 Q529.9 95.75 530.5 95.15 L531.1 94.5 531.2 94.05 Q531.7 92.85 531.5 92.2 L531.5 92.15 532.2 92.35 Q532.5 91.85 533.1 91.8 L533.25 91.55 533.5 90.8 534.2 91.3 Q535.7 92.35 536.0 92.75 L536.05 92.8 537.05 95.15 537.0 95.2 Q535.75 95.0 535.05 95.85 534.75 96.15 534.6 96.6 L534.55 96.65 Q534.3 97.3 534.3 98.1 534.3 99.45 535.9 99.9 L537.1 100.1 537.5 100.1 537.9 100.1 538.95 99.95 539.55 99.8 539.55 100.45 526.35 100.45 526.45 100.2 Q526.45 99.2 525.1 98.95 L523.8 98.75 522.9 97.95 522.6 97.05 522.6 96.7 Q522.45 96.3 522.05 96.25 L521.95 96.15 521.7 95.95 521.05 95.9 521.0 95.9 521.0 95.95 520.7 96.45 520.85 94.75 520.8 94.2 520.85 93.1 520.8 90.7 520.8 78.15 521.7 78.3 521.7 78.8 M522.7 89.0 Q521.9 89.0 521.7 90.0 L521.7 91.35 521.7 92.6 Q521.8 93.1 522.05 93.35 L522.05 93.55 522.25 93.6 522.4 93.55 522.7 93.6 523.7 93.35 523.7 93.05 523.5 90.9 523.5 90.85 523.5 90.65 523.3 89.2 523.05 89.3 522.7 89.0 M524.9 94.1 Q524.05 94.1 523.6 94.85 523.3 95.35 523.3 95.8 523.3 96.35 523.6 96.75 L523.9 97.05 Q524.15 97.5 524.65 97.5 526.1 97.5 526.6 96.8 L526.8 96.1 Q526.8 95.5 526.45 95.1 526.15 94.1 524.9 94.1 M526.95 98.25 L527.05 99.1 526.95 99.2 527.1 99.4 527.2 99.5 527.45 99.5 527.55 99.55 529.8 99.75 531.3 99.7 531.45 99.1 Q531.45 98.65 531.8 98.5 L531.4 98.2 531.45 98.0 531.4 97.65 Q531.2 97.65 531.1 97.75 L530.75 97.6 526.9 97.75 526.8 98.0 526.9 98.25 526.95 98.25" fill="url(#gradient0)" fill-rule="evenodd" stroke="none"/>
    <path d="M517.8 98.7 L517.7 93.0 Q517.7 91.65 517.95 91.05 518.9 92.4 518.95 94.55 L518.95 96.4 518.95 97.65 518.95 97.8 518.8 97.95 518.7 97.95 518.7 98.0 517.8 98.7" fill="url(#gradient1)" fill-rule="evenodd" stroke="none"/>
    <path d="M517.05 100.05 L518.95 98.8 520.2 97.65 520.65 97.2 520.95 97.2 Q520.95 97.0 521.1 96.75 L521.4 96.35 522.05 97.1 521.95 97.3 Q521.95 97.85 522.4 98.3 L522.55 98.65 Q522.85 99.05 525.0 99.65 L525.05 99.7 Q525.9 100.05 525.9 100.2 L525.85 100.3 525.75 100.3 525.7 100.5 525.7 100.95 524.3 105.6 523.6 105.5 523.55 105.5 Q523.4 102.65 519.55 100.9 518.0 100.15 517.0 100.1 L517.05 100.05 M521.2 98.6 L521.1 98.65 521.1 98.7 520.95 99.0 521.2 99.9 521.25 100.05 521.65 100.5 521.95 100.5 522.2 100.5 522.3 100.45 523.95 100.35 524.05 100.15 523.9 99.85 523.75 99.95 523.15 99.75 522.2 99.95 Q521.6 99.95 521.5 99.45 L521.5 99.4 521.3 98.75 521.2 98.6" fill="url(#gradient2)" fill-rule="evenodd" stroke="none"/>
    <path d="M532.45 102.85 Q532.45 103.1 531.85 103.3 L531.1 103.5 525.55 103.4 525.7 102.9 525.9 102.15 531.05 102.15 531.15 102.25 532.1 102.4 532.45 102.85" fill="url(#gradient3)" fill-rule="evenodd" stroke="none"/>
    <path d="M517.0 101.2 L517.45 101.05 Q519.65 101.35 520.85 102.3 L521.7 103.3 521.8 103.55 522.8 105.6 522.65 105.7 522.55 105.85 522.6 105.9 522.4 106.2 522.25 106.05 522.0 105.4 521.6 104.4 521.35 103.65 Q520.8 102.95 519.9 102.6 519.1 102.05 518.1 102.05 L517.6 102.0 516.65 101.85 516.55 101.85 516.3 101.75 516.2 101.75 516.15 101.7 516.9 101.1 517.0 101.2" fill="url(#gradient4)" fill-rule="evenodd" stroke="none"/>
    <path d="M662.75 73.25 L515.55 73.25 515.55 27.75 662.75 27.75 662.75 73.25" fill="#000000" fill-opacity="0.36078432" fill-rule="evenodd" stroke="none"/>
    <path d="M-29.0 71.1 L-29.0 -11.0 652.45 -11.0 652.45 71.1 -29.0 71.1" fill="url(#gradient5)" fill-rule="evenodd" stroke="none"/>
    <path d="M-29.0 71.1 L-29.0 -11.0 652.45 -11.0 652.45 71.1" fill="none" stroke="#000000" stroke-linecap="round" stroke-linejoin="round" stroke-width="1.0"/>
    <path d="M120.6 -2.5 L120.65 -2.05 120.7 -2.0 125.0 -2.0 125.0 -2.35 124.8 -2.35 124.75 -2.55 Q124.75 -3.0 125.0 -3.15 L125.2 -3.1 125.25 -3.05 125.55 -3.05 125.55 -2.0 125.75 -2.0 126.1 -1.9 126.25 -1.5 126.2 -1.1 126.0 -1.0 125.55 -1.0 125.6 14.9 125.5 31.45 125.5 65.0 125.65 65.05 125.75 65.2 125.7 65.3 125.75 65.4 125.65 65.85 125.75 65.95 125.6 65.9 125.5 66.3 125.5 66.55 125.75 66.95 125.55 67.35 125.25 67.6 125.2 67.65 125.05 67.7 125.0 67.7 Q125.5 70.75 119.4 71.85 L118.1 71.55 118.05 71.45 117.65 71.45 116.95 71.35 116.6 71.35 116.4 71.2 116.35 71.2 116.1 70.6 116.05 70.6 115.85 70.55 -5.25 70.45 -5.25 70.5 -5.75 70.75 -5.9 70.45 -9.55 70.45 -9.65 70.2 -7.7 69.95 -6.1 69.95 Q-6.5 68.65 -6.5 65.95 L-8.05 65.95 -8.15 65.7 -8.0 65.5 -7.9 65.45 -6.45 65.45 -6.4 64.85 Q-5.8 64.85 -5.25 65.4 L-5.25 65.45 -1.85 65.45 -2.25 59.5 -2.3 57.5 -2.25 48.5 -2.25 30.65 Q-2.25 9.45 -1.9 -1.0 L-3.75 -1.0 -4.25 -1.25 -3.75 -2.0 -1.85 -2.0 -1.75 -5.0 -1.25 -4.5 -1.25 -2.0 119.4 -2.0 119.65 -2.15 119.8 -2.2 119.85 -2.45 120.0 -2.55 120.0 -2.75 120.1 -2.65 120.25 -2.75 120.3 -2.7 120.5 -2.9 120.5 -3.1 120.55 -2.85 120.6 -2.8 120.6 -2.5 M113.0 53.95 L113.35 53.6 113.6 52.85 113.6 52.75 113.7 52.75 113.75 52.9 113.8 52.85 113.55 52.45 Q113.35 51.7 112.35 51.6 L112.1 51.6 112.1 51.5 112.1 51.4 Q112.2 50.5 113.6 49.0 115.25 47.25 116.75 47.2 L117.25 47.05 117.5 47.2 117.35 47.45 117.35 47.55 117.2 48.1 117.4 48.55 117.65 48.55 Q118.85 48.55 119.1 47.6 L119.1 46.5 118.85 43.5 118.9 43.2 118.85 42.9 Q119.1 42.9 119.25 42.7 L119.6 42.75 120.25 42.7 120.25 29.65 120.3 26.0 120.35 -1.0 120.2 -1.0 120.0 -1.0 -1.25 -1.0 -1.25 65.45 20.75 65.45 20.8 65.6 100.8 65.55 100.85 64.3 101.2 64.2 102.05 64.45 103.15 64.65 Q105.15 64.65 105.85 64.05 L106.15 63.7 106.1 63.5 106.25 63.15 105.95 61.8 105.65 61.25 Q105.15 60.8 104.5 60.7 104.2 60.75 104.0 60.95 L103.5 61.35 103.25 61.0 Q103.25 59.85 104.75 57.5 106.25 55.15 107.6 55.1 L108.0 55.3 108.0 55.35 108.0 55.4 108.0 55.45 108.05 55.5 108.15 55.9 108.2 56.1 108.25 56.2 108.1 56.05 108.0 55.7 108.0 55.8 108.25 56.45 108.8 56.9 109.2 56.85 109.0 56.7 109.25 56.7 109.35 56.8 109.6 56.75 109.5 56.7 110.05 56.5 110.1 56.75 110.2 56.75 110.25 57.05 110.2 57.3 110.35 57.35 110.0 58.0 110.35 59.1 110.45 59.3 Q111.05 60.3 112.15 60.3 113.0 60.3 113.0 59.75 L112.35 59.1 110.5 57.95 111.2 57.35 111.75 56.85 111.25 55.9 110.85 55.45 110.75 55.3 110.8 55.05 110.85 54.95 111.2 55.15 111.3 55.1 111.55 55.45 111.75 55.6 112.0 55.8 113.3 56.0 114.2 55.7 114.5 55.75 114.6 55.95 114.35 56.75 114.55 57.15 115.15 57.4 Q115.95 57.4 116.25 56.15 L115.8 55.05 115.7 54.95 Q115.25 54.45 114.35 54.25 L113.1 54.1 113.25 53.9 113.0 53.95 M123.95 63.45 L124.25 63.6 Q124.05 63.8 124.1 64.3 L125.15 64.85 125.15 64.45 124.95 61.1 125.0 56.85 125.0 48.3 125.0 35.45 124.95 33.25 Q124.95 32.35 125.1 31.75 L125.0 -1.0 120.75 -1.0 120.8 1.0 120.75 5.1 120.75 29.55 120.65 61.6 121.5 62.4 121.45 61.9 121.5 60.0 Q121.5 58.55 121.8 57.5 L121.75 57.2 121.8 56.85 121.8 56.75 121.85 56.75 122.0 56.4 Q122.0 56.1 122.25 55.85 122.45 55.6 122.8 55.65 L122.8 55.6 123.0 55.5 Q123.85 55.05 123.85 57.0 L123.85 60.25 123.85 60.4 123.85 61.5 123.85 63.45 123.85 63.6 123.95 63.45 M114.7 65.55 L114.6 65.3 Q114.6 64.3 115.95 64.05 L117.25 63.85 118.15 63.05 Q118.15 62.6 118.45 62.15 L118.45 61.8 Q118.6 61.4 119.0 61.35 L119.1 61.25 119.35 61.05 120.0 61.0 120.05 61.0 120.05 61.05 120.35 61.55 120.2 59.85 120.25 59.3 120.2 58.2 120.25 55.8 120.25 43.25 119.35 43.4 119.35 43.9 119.6 46.0 119.6 46.1 119.6 46.55 119.5 48.2 119.1 48.75 Q118.8 49.45 118.3 49.45 117.65 49.45 117.3 49.1 L116.95 49.05 116.4 48.6 116.7 47.75 113.85 49.6 Q112.85 50.5 112.75 51.5 114.35 51.75 114.35 52.8 L114.1 53.4 Q115.25 53.25 116.1 54.4 116.75 55.3 116.75 56.15 L116.3 57.3 115.65 57.85 115.2 57.95 114.9 57.95 Q114.1 57.85 113.85 57.25 113.65 56.85 113.75 56.5 L113.3 56.6 112.9 56.5 112.2 56.4 112.15 56.4 112.25 56.8 112.1 57.1 112.05 57.2 111.6 57.8 111.65 57.8 Q112.3 57.9 112.8 58.3 L113.25 58.7 113.3 58.95 113.5 59.8 Q113.5 60.5 112.9 60.75 L112.65 60.85 112.4 60.85 112.15 60.85 Q111.15 60.85 110.55 60.25 L109.95 59.6 109.85 59.15 Q109.35 57.95 109.55 57.3 L109.55 57.2 109.55 57.25 108.85 57.45 Q108.55 56.95 107.95 56.9 L107.8 56.65 107.55 55.9 106.85 56.4 105.05 57.85 105.0 57.9 104.0 60.25 104.05 60.3 Q105.3 60.1 106.0 60.95 L106.45 61.7 106.5 61.75 106.75 63.2 Q106.75 64.55 105.15 65.0 L103.95 65.2 103.55 65.2 103.15 65.2 102.1 65.05 101.5 64.9 101.5 65.25 101.5 65.55 114.6 65.55 114.7 65.55 M116.7 47.75 L116.7 47.7 116.7 47.75 M118.05 49.2 L118.55 49.0 117.85 49.1 118.05 49.2 M118.85 55.4 L118.85 54.75 118.85 55.4 M119.35 55.1 L119.35 56.45 119.35 57.7 119.0 58.45 119.0 58.65 118.8 58.7 118.65 58.65 118.35 58.7 117.35 58.45 117.35 58.15 117.55 56.0 117.55 55.95 117.55 55.75 117.75 54.3 118.0 54.4 118.35 54.1 Q119.15 54.1 119.35 55.1 M113.65 53.85 L113.6 53.9 113.6 53.95 113.85 53.85 113.65 53.85 M114.55 61.0 L114.5 61.2 114.6 61.7 114.55 61.0 M115.15 60.25 Q115.0 60.45 115.0 60.85 115.0 61.9 116.05 61.9 116.95 61.9 117.2 61.4 L117.1 61.05 117.05 60.35 116.75 60.15 116.0 59.7 115.9 59.75 Q115.3 60.0 115.15 60.25 M116.15 59.2 Q117.0 59.2 117.45 59.95 L117.75 60.9 117.45 61.85 117.15 62.15 116.4 62.6 Q114.95 62.6 114.45 61.9 L114.25 61.2 Q114.25 60.6 114.6 60.2 114.9 59.2 116.15 59.2 M118.7 58.15 L118.6 56.5 118.6 54.85 Q118.05 55.15 118.0 56.1 L117.85 58.15 118.7 58.15 M124.0 65.15 L122.1 63.9 120.85 62.75 120.4 62.3 120.1 62.3 119.95 61.85 119.65 61.45 Q119.15 61.7 119.0 62.2 L119.1 62.4 118.65 63.4 118.5 63.75 Q118.2 64.15 116.05 64.75 L116.0 64.8 Q115.15 65.15 115.15 65.3 L115.2 65.4 115.3 65.4 115.35 65.6 115.35 66.05 116.75 70.7 117.45 70.6 117.5 70.6 Q117.65 67.75 121.5 66.0 123.05 65.25 124.05 65.2 L124.15 65.2 124.0 65.15 M109.95 62.85 L110.3 62.7 114.15 62.85 114.25 63.1 114.15 63.35 114.1 63.35 114.0 64.2 114.1 64.3 113.95 64.5 113.85 64.6 113.6 64.6 113.5 64.65 111.25 64.85 109.75 64.8 Q109.6 64.7 109.6 64.2 109.6 63.75 109.25 63.6 L109.65 63.3 109.6 63.1 109.65 62.75 109.95 62.85 M110.25 64.2 L113.5 64.05 113.5 63.7 112.45 63.4 110.25 63.45 110.25 63.55 110.25 64.2 M108.35 66.15 L99.1 66.1 99.1 66.15 98.85 66.2 71.6 66.15 71.6 66.1 20.55 66.1 -1.25 66.0 -1.75 66.25 -1.8 66.0 -5.25 65.95 -5.25 69.95 10.75 69.85 10.85 69.95 115.9 69.95 115.75 69.4 115.65 69.0 110.0 69.0 109.85 69.1 Q109.25 69.1 108.6 68.7 L108.0 68.05 Q108.0 66.8 109.65 66.85 L109.75 66.85 109.9 66.85 115.05 66.75 114.95 66.45 114.85 66.4 114.8 66.1 108.8 66.1 108.5 66.3 108.35 66.15 M109.9 67.35 L108.95 67.5 Q108.6 67.75 108.6 67.95 L109.2 68.4 109.95 68.6 115.5 68.5 115.35 68.0 115.15 67.25 110.0 67.25 109.9 67.35 M119.95 63.8 L120.1 64.1 119.85 65.0 119.8 65.15 119.4 65.6 119.1 65.6 118.85 65.6 118.75 65.55 117.1 65.45 117.0 65.25 Q117.0 65.05 117.15 64.95 L117.3 65.05 Q117.45 64.85 117.9 64.85 L118.85 65.05 Q119.45 65.05 119.55 64.55 L119.55 64.5 119.75 63.85 119.85 63.7 119.95 63.75 119.95 63.8 M124.05 66.3 L123.6 66.15 Q121.4 66.45 120.2 67.4 L119.35 68.4 119.25 68.65 118.25 70.7 118.4 70.8 118.5 70.95 118.45 71.0 118.65 71.3 118.8 71.15 119.05 70.5 119.45 69.5 119.7 68.75 Q120.25 68.05 121.15 67.7 121.95 67.15 122.95 67.15 L123.45 67.1 124.4 66.95 124.5 66.95 124.75 66.85 124.85 66.85 124.9 66.8 124.15 66.2 123.95 66.1 123.8 66.1 124.1 66.2 124.05 66.3 M119.9 69.9 L119.8 70.1 119.65 70.65 119.45 71.15 119.6 71.25 119.8 71.2 119.9 71.2 120.8 70.95 121.9 70.7 123.45 69.45 124.1 68.1 124.25 67.6 124.1 67.55 Q123.85 67.6 123.55 67.75 L122.7 67.85 122.15 68.2 121.6 68.4 120.45 68.85 Q120.0 69.2 119.9 69.9 M122.0 56.85 L122.05 56.7 122.0 56.6 122.0 56.85 M123.1 56.15 Q122.15 57.5 122.1 59.65 L122.1 61.5 122.1 62.75 122.1 62.9 122.25 63.05 122.35 63.05 122.35 63.1 123.25 63.8 123.35 58.1 123.1 56.15 M123.75 66.0 L123.6 65.95 123.3 65.95 123.25 65.95 122.9 66.0 123.35 66.05 123.75 66.0 M124.75 66.35 L124.9 66.2 Q124.7 65.95 124.3 65.9 L124.5 66.05 124.5 66.15 124.75 66.35" fill="#000000" fill-rule="evenodd" stroke="none"/>
    <path d="M123.85 63.45 L123.85 61.5 123.85 60.4 123.85 60.25 123.85 57.0 Q123.85 55.05 123.0 55.5 L122.8 55.6 122.8 55.65 Q122.45 55.6 122.25 55.85 122.0 56.1 122.0 56.4 L121.85 56.75 121.8 56.75 121.8 56.85 121.75 57.2 121.8 57.5 Q121.5 58.55 121.5 60.0 L121.45 61.9 121.5 62.4 120.65 61.6 120.75 29.55 120.75 5.1 120.8 1.0 120.75 -1.0 125.0 -1.0 125.1 31.75 Q124.95 32.35 124.95 33.25 L125.0 35.45 125.0 48.3 125.0 56.85 124.95 61.1 125.15 64.45 125.15 64.85 124.1 64.3 Q124.05 63.8 124.25 63.6 L123.95 63.45 123.85 63.45 M108.35 66.15 L108.5 66.3 108.8 66.1 114.8 66.1 114.85 66.4 114.95 66.45 115.05 66.75 109.9 66.85 109.75 66.85 109.65 66.85 Q108.0 66.8 108.0 68.05 L108.6 68.7 Q109.25 69.1 109.85 69.1 L110.0 69.0 115.65 69.0 115.75 69.4 115.9 69.95 10.85 69.95 10.75 69.85 -5.25 69.95 -5.25 65.95 -1.8 66.0 -1.75 66.25 -1.25 66.0 20.55 66.1 71.6 66.1 71.6 66.15 98.85 66.2 99.1 66.15 99.1 66.1 108.35 66.15" fill="#836549" fill-rule="evenodd" stroke="none"/>
    <path d="M113.1 54.1 L114.35 54.25 Q115.25 54.45 115.7 54.95 L115.8 55.05 116.25 56.15 Q115.95 57.4 115.15 57.4 L114.55 57.15 114.35 56.75 114.6 55.95 114.5 55.75 114.2 55.7 113.3 56.0 112.0 55.8 111.75 55.6 111.55 55.45 111.3 55.1 111.2 55.15 110.85 54.95 110.8 55.05 110.75 55.3 110.85 55.45 111.25 55.9 111.75 56.85 111.2 57.35 110.5 57.95 112.35 59.1 113.0 59.75 Q113.0 60.3 112.15 60.3 111.05 60.3 110.45 59.3 L110.35 59.1 110.0 58.0 110.35 57.35 110.2 57.3 110.25 57.05 110.2 56.75 110.1 56.75 110.05 56.5 109.5 56.7 109.6 56.75 109.35 56.8 109.25 56.7 109.0 56.7 109.2 56.85 108.8 56.9 108.25 56.45 108.0 55.8 108.0 55.7 108.1 56.05 108.25 56.2 108.2 56.1 108.15 55.9 108.05 55.5 108.0 55.45 108.0 55.4 108.0 55.35 108.0 55.3 107.6 55.1 Q106.25 55.15 104.75 57.5 103.25 59.85 103.25 61.0 L103.5 61.35 104.0 60.95 Q104.2 60.75 104.5 60.7 105.15 60.8 105.65 61.25 L105.95 61.8 106.25 63.15 106.1 63.5 106.15 63.7 105.85 64.05 Q105.15 64.65 103.15 64.65 L102.05 64.45 101.2 64.2 100.85 64.3 100.8 65.55 20.8 65.6 20.75 65.45 -1.25 65.45 -1.25 -1.0 120.0 -1.0 120.2 -1.0 120.35 -1.0 120.3 26.0 120.25 29.65 120.25 42.7 119.6 42.75 119.25 42.7 Q119.1 42.9 118.85 42.9 L118.9 43.2 118.85 43.5 119.1 46.5 119.1 47.6 Q118.85 48.55 117.65 48.55 L117.4 48.55 117.2 48.1 117.35 47.55 117.35 47.45 117.5 47.2 117.25 47.05 116.75 47.2 Q115.25 47.25 113.6 49.0 112.2 50.5 112.1 51.4 L112.1 51.5 112.1 51.6 112.35 51.6 Q113.35 51.7 113.55 52.45 L113.8 52.85 113.75 52.9 113.7 52.75 113.6 52.75 113.6 52.85 113.35 53.6 113.0 53.95 113.1 54.1 M115.15 60.25 Q115.3 60.0 115.9 59.75 L116.0 59.7 116.75 60.15 117.05 60.35 117.1 61.05 117.2 61.4 Q116.95 61.9 116.05 61.9 115.0 61.9 115.0 60.85 115.0 60.45 115.15 60.25 M118.7 58.15 L117.85 58.15 118.0 56.1 Q118.05 55.15 118.6 54.85 L118.6 56.5 118.7 58.15 M110.25 64.2 L110.25 63.55 110.25 63.45 112.45 63.4 113.5 63.7 113.5 64.05 110.25 64.2 M410.5 67.55 L410.5 -1.45 651.45 -1.45 651.45 67.55 410.5 67.55" fill="#c79e63" fill-rule="evenodd" stroke="none"/>
    <path d="M109.55 57.3 Q109.35 57.95 109.85 59.15 L109.95 59.6 110.55 60.25 Q111.15 60.85 112.15 60.85 L112.4 60.85 112.65 60.85 112.9 60.75 Q113.5 60.5 113.5 59.8 L113.3 58.95 113.25 58.7 112.8 58.3 Q112.3 57.9 111.65 57.8 L111.6 57.8 112.05 57.2 112.1 57.1 112.25 56.8 112.15 56.4 112.2 56.4 112.9 56.5 113.3 56.6 113.75 56.5 Q113.65 56.85 113.85 57.25 114.1 57.85 114.9 57.95 L115.2 57.95 115.65 57.85 116.3 57.3 116.75 56.15 Q116.75 55.3 116.1 54.4 115.25 53.25 114.1 53.4 L114.35 52.8 Q114.35 51.75 112.75 51.5 112.85 50.5 113.85 49.6 L116.7 47.75 116.4 48.6 116.95 49.05 117.3 49.1 Q117.65 49.45 118.3 49.45 118.8 49.45 119.1 48.75 L119.5 48.2 119.6 46.55 119.6 46.1 119.6 46.0 119.35 43.9 119.35 43.4 120.25 43.25 120.25 55.8 120.2 58.2 120.25 59.3 120.2 59.85 120.35 61.55 120.05 61.05 120.05 61.0 120.0 61.0 119.35 61.05 119.1 61.25 119.0 61.35 Q118.6 61.4 118.45 61.8 L118.45 62.15 Q118.15 62.6 118.15 63.05 L117.25 63.85 115.95 64.05 Q114.6 64.3 114.6 65.3 L114.7 65.55 114.6 65.55 101.5 65.55 101.5 65.25 101.5 64.9 102.1 65.05 103.15 65.2 103.55 65.2 103.95 65.2 105.15 65.0 Q106.75 64.55 106.75 63.2 L106.5 61.75 106.45 61.7 106.0 60.95 Q105.3 60.1 104.05 60.3 L104.0 60.25 105.0 57.9 105.05 57.85 106.85 56.4 107.55 55.9 107.8 56.65 107.95 56.9 Q108.55 56.95 108.85 57.45 L109.55 57.25 109.55 57.3 M119.35 55.1 Q119.15 54.1 118.35 54.1 L118.0 54.4 117.75 54.3 117.55 55.75 117.55 55.95 117.55 56.0 117.35 58.15 117.35 58.45 118.35 58.7 118.65 58.65 118.8 58.7 119.0 58.65 119.0 58.45 119.35 57.7 119.35 56.45 119.35 55.1 M116.15 59.2 Q114.9 59.2 114.6 60.2 114.25 60.6 114.25 61.2 L114.45 61.9 Q114.95 62.6 116.4 62.6 L117.15 62.15 117.45 61.85 117.75 60.9 117.45 59.95 Q117.0 59.2 116.15 59.2 M109.95 62.85 L109.65 62.75 109.6 63.1 109.65 63.3 109.25 63.6 Q109.6 63.75 109.6 64.2 109.6 64.7 109.75 64.8 L111.25 64.85 113.5 64.65 113.6 64.6 113.85 64.6 113.95 64.5 114.1 64.3 114.0 64.2 114.1 63.35 114.15 63.35 114.25 63.1 114.15 62.85 110.3 62.7 109.95 62.85" fill="url(#gradient6)" fill-rule="evenodd" stroke="none"/>
    <path d="M124.05 65.2 Q123.05 65.25 121.5 66.0 117.65 67.75 117.5 70.6 L117.45 70.6 116.75 70.7 115.35 66.05 115.35 65.6 115.3 65.4 115.2 65.4 115.15 65.3 Q115.15 65.15 116.0 64.8 L116.05 64.75 Q118.2 64.15 118.5 63.75 L118.65 63.4 119.1 62.4 119.0 62.2 Q119.15 61.7 119.65 61.45 L119.95 61.85 120.1 62.3 120.4 62.3 120.85 62.75 122.1 63.9 124.0 65.15 124.05 65.2 M119.95 63.8 L119.95 63.75 119.85 63.7 119.75 63.85 119.55 64.5 119.55 64.55 Q119.45 65.05 118.85 65.05 L117.9 64.85 Q117.45 64.85 117.3 65.05 L117.15 64.95 Q117.0 65.05 117.0 65.25 L117.1 65.45 118.75 65.55 118.85 65.6 119.1 65.6 119.4 65.6 119.8 65.15 119.85 65.0 120.1 64.1 119.95 63.8" fill="url(#gradient7)" fill-rule="evenodd" stroke="none"/>
    <path d="M124.15 66.2 L124.9 66.8 124.85 66.85 124.75 66.85 124.5 66.95 124.4 66.95 123.45 67.1 122.95 67.15 Q121.95 67.15 121.15 67.7 120.25 68.05 119.7 68.75 L119.45 69.5 119.05 70.5 118.8 71.15 118.65 71.3 118.45 71.0 118.5 70.95 118.4 70.8 118.25 70.7 119.25 68.65 119.35 68.4 120.2 67.4 Q121.4 66.45 123.6 66.15 L124.05 66.3 124.15 66.2" fill="url(#gradient8)" fill-rule="evenodd" stroke="none"/>
    <path d="M123.1 56.15 L123.35 58.1 123.25 63.8 122.35 63.1 122.35 63.05 122.25 63.05 122.1 62.9 122.1 62.75 122.1 61.5 122.1 59.65 Q122.15 57.5 123.1 56.15" fill="url(#gradient9)" fill-rule="evenodd" stroke="none"/>
    <path d="M109.9 67.35 L110.0 67.25 115.15 67.25 115.35 68.0 115.5 68.5 109.95 68.6 109.2 68.4 108.6 67.95 Q108.6 67.75 108.95 67.5 L109.9 67.35" fill="url(#gradient10)" fill-rule="evenodd" stroke="none"/>
    <path d="M119.8 70.1 L119.9 69.9 119.85 70.05 119.8 70.1 M121.6 68.4 L122.15 68.2 121.95 68.35 121.6 68.4 M123.55 67.75 Q123.85 67.6 124.1 67.55 L124.25 67.6 124.1 68.1 123.45 69.45 121.9 70.7 120.8 70.95 121.45 70.65 121.5 70.45 121.4 70.3 121.3 70.15 121.3 69.75 121.6 69.45 121.7 69.4 122.15 69.2 122.35 69.2 123.25 68.9 123.75 68.35 123.55 67.75 M119.8 71.2 L119.6 71.25 119.45 71.15 119.65 70.65 119.6 70.9 119.7 71.15 119.8 71.2" fill="#cc0000" fill-rule="evenodd" stroke="none"/>
    <path d="M120.6 69.35 L120.7 69.6 121.25 69.6 121.45 69.55 121.5 69.2 120.9 69.05 Q120.6 69.1 120.6 69.35 M119.8 70.1 L119.85 70.05 119.9 69.9 Q120.0 69.2 120.45 68.85 L121.6 68.4 121.95 68.35 Q121.6 68.55 121.6 68.7 L121.7 68.95 122.15 69.2 121.7 69.4 121.6 69.45 121.3 69.75 121.3 70.15 121.4 70.3 121.5 70.45 121.45 70.65 120.8 70.95 119.9 71.2 119.8 71.2 119.7 71.15 119.6 70.9 119.65 70.65 119.8 70.1" fill="#760101" fill-rule="evenodd" stroke="none"/>
    <path d="M120.6 69.35 Q120.6 69.1 120.9 69.05 L121.5 69.2 121.45 69.55 121.25 69.6 120.7 69.6 120.6 69.35 M122.15 68.2 L122.7 67.85 123.55 67.75 123.75 68.35 123.25 68.9 122.35 69.2 122.15 69.2 121.7 68.95 121.6 68.7 Q121.6 68.55 121.95 68.35 L122.15 68.2" fill="#fe9a9a" fill-rule="evenodd" stroke="none"/>
    <path d="M120.05 -3.35 L120.1 -3.3 120.1 -3.0 120.15 -2.55 120.2 -2.5 124.5 -2.5 124.5 -2.85 124.3 -2.85 124.25 -3.05 Q124.25 -3.5 124.5 -3.65 L124.7 -3.6 124.75 -3.55 125.05 -3.55 125.05 -2.5 125.25 -2.5 125.6 -2.4 125.75 -2.0 125.7 -1.6 125.5 -1.5 125.05 -1.5 125.1 14.4 125.0 30.95 125.0 64.5 125.15 64.55 125.25 64.7 125.2 64.8 125.25 64.9 125.15 65.35 125.25 65.45 125.1 65.4 125.0 65.8 125.0 66.05 125.25 66.45 125.05 66.85 124.75 67.1 124.7 67.15 124.55 67.2 124.5 67.2 Q125.0 70.25 118.9 71.35 L117.6 71.05 117.55 70.95 117.15 70.95 116.45 70.85 116.1 70.85 115.9 70.7 115.85 70.7 115.6 70.1 115.55 70.1 115.35 70.05 -5.75 69.95 -5.75 70.0 -6.25 70.25 -6.4 69.95 -10.05 69.95 -10.15 69.7 -8.2 69.45 -6.6 69.45 Q-7.0 68.15 -7.0 65.45 L-8.55 65.45 -8.65 65.2 -8.5 65.0 12.0 65.0 12.0 64.95 20.25 64.95 20.3 65.1 100.3 65.05 100.35 63.8 100.7 63.7 101.55 63.95 102.65 64.15 Q104.65 64.15 105.35 63.55 L105.65 63.2 105.6 63.0 105.75 62.65 105.45 61.3 105.15 60.75 Q104.65 60.3 104.0 60.2 103.7 60.25 103.5 60.45 L103.0 60.85 102.75 60.5 Q102.75 59.35 104.25 57.0 105.75 54.65 107.1 54.6 L107.5 54.8 107.5 54.95 107.55 55.0 107.65 55.4 107.7 55.6 107.75 55.7 107.6 55.55 107.5 55.2 107.5 55.3 107.75 55.95 108.3 56.4 108.7 56.35 108.5 56.2 108.75 56.2 108.85 56.3 109.1 56.25 109.0 56.2 109.55 56.0 109.6 56.25 109.7 56.25 109.75 56.55 109.7 56.8 109.85 56.85 109.5 57.5 109.85 58.6 109.95 58.8 Q110.55 59.8 111.65 59.8 112.5 59.8 112.5 59.25 L111.85 58.6 110.0 57.45 Q110.1 57.25 110.7 56.85 L111.25 56.35 Q111.25 55.95 110.75 55.4 L110.35 54.95 110.25 54.8 110.3 54.55 110.35 54.45 110.7 54.65 110.8 54.6 111.05 54.95 111.25 55.1 111.5 55.3 112.8 55.5 113.7 55.2 114.0 55.25 114.1 55.45 113.85 56.25 114.05 56.65 114.65 56.9 Q115.45 56.9 115.75 55.65 L115.3 54.55 115.2 54.45 Q114.75 53.95 113.85 53.75 L112.6 53.6 112.75 53.4 112.5 53.45 112.85 53.1 113.1 52.35 113.1 52.25 113.2 52.25 113.25 52.4 113.3 52.35 113.05 51.95 Q112.85 51.2 111.85 51.1 L111.6 51.1 111.6 51.0 111.6 50.9 Q111.7 50.0 113.1 48.5 114.75 46.75 116.25 46.7 L116.75 46.55 117.0 46.7 116.85 46.95 116.85 47.05 116.7 47.6 116.9 48.05 117.15 48.05 Q118.35 48.05 118.6 47.1 L118.6 46.0 118.35 43.0 118.4 42.7 118.35 42.4 Q118.6 42.4 118.75 42.2 L119.1 42.25 119.75 42.2 119.75 29.15 119.8 25.5 119.85 -1.5 119.75 -1.5 119.75 -3.25 119.8 -3.2 120.0 -3.4 120.0 -3.6 120.05 -3.35 M117.55 48.7 L118.05 48.5 117.35 48.6 117.55 48.7 M113.1 53.45 L113.35 53.35 113.15 53.35 113.1 53.4 113.1 53.45 M114.0 60.7 L114.1 61.2 114.05 60.5 114.0 60.7 M121.55 56.2 L121.5 56.1 121.5 56.35 121.55 56.2 M123.45 62.95 L123.35 62.95 123.35 63.1 123.45 62.95 M123.65 64.7 L123.5 64.65 123.55 64.7 123.65 64.7 M124.0 65.55 L124.0 65.65 124.25 65.85 124.4 65.7 Q124.2 65.45 123.8 65.4 L124.0 65.55 M123.45 65.6 L123.3 65.6 123.6 65.7 123.55 65.8 123.65 65.7 123.45 65.6 M122.8 65.45 L122.75 65.45 122.4 65.5 122.85 65.55 123.25 65.5 123.1 65.45 122.8 65.45" fill="#7c5c2e" fill-rule="evenodd" stroke="none"/>
    <path d="M120.6 -2.5 L120.65 -2.05 120.7 -2.0 125.0 -2.0 125.0 -2.35 124.8 -2.35 124.75 -2.55 Q124.75 -3.0 125.0 -3.15 L125.2 -3.1 125.25 -3.05 125.55 -3.05 125.55 -2.0 125.75 -2.0 126.1 -1.9 126.25 -1.5 126.2 -1.1 126.0 -1.0 125.55 -1.0 125.6 14.9 125.5 31.45 125.5 65.0 125.65 65.05 125.75 65.2 125.7 65.3 125.75 65.4 125.65 65.85 125.75 65.95 125.6 65.9 125.5 66.3 125.5 66.55 125.75 66.95 125.55 67.35 125.25 67.6 125.2 67.65 125.05 67.7 125.0 67.7 Q125.5 70.75 119.4 71.85 L118.1 71.55 118.05 71.45 117.65 71.45 116.95 71.35 116.6 71.35 116.4 71.2 116.35 71.2 116.1 70.6 116.05 70.6 115.85 70.55 -5.25 70.45 -5.25 70.5 -5.75 70.75 -5.9 70.45 -9.55 70.45 -9.65 70.2 -7.7 69.95 -6.1 69.95 Q-6.5 68.65 -6.5 65.95 L-8.05 65.95 -8.15 65.7 -8.0 65.5 12.5 65.5 12.5 65.45 20.75 65.45 20.8 65.6 100.8 65.55 100.85 64.3 101.2 64.2 102.05 64.45 103.15 64.65 Q105.15 64.65 105.85 64.05 L106.15 63.7 106.1 63.5 106.25 63.15 105.95 61.8 105.65 61.25 Q105.15 60.8 104.5 60.7 104.2 60.75 104.0 60.95 L103.5 61.35 103.25 61.0 Q103.25 59.85 104.75 57.5 106.25 55.15 107.6 55.1 L108.0 55.3 108.0 55.35 108.0 55.4 108.0 55.45 108.05 55.5 108.15 55.9 108.2 56.1 108.25 56.2 108.1 56.05 108.0 55.7 108.0 55.8 108.25 56.45 108.8 56.9 109.2 56.85 109.0 56.7 109.25 56.7 109.35 56.8 109.6 56.75 109.5 56.7 110.05 56.5 110.1 56.75 110.2 56.75 110.25 57.05 110.2 57.3 110.35 57.35 110.0 58.0 110.35 59.1 110.45 59.3 Q111.05 60.3 112.15 60.3 113.0 60.3 113.0 59.75 L112.35 59.1 110.5 57.95 111.2 57.35 111.75 56.85 111.25 55.9 110.85 55.45 110.75 55.3 110.8 55.05 110.85 54.95 111.2 55.15 111.3 55.1 111.55 55.45 111.75 55.6 112.0 55.8 113.3 56.0 114.2 55.7 114.5 55.75 114.6 55.95 114.35 56.75 114.55 57.15 115.15 57.4 Q115.95 57.4 116.25 56.15 L115.8 55.05 115.7 54.95 Q115.25 54.45 114.35 54.25 L113.1 54.1 113.25 53.9 113.0 53.95 113.35 53.6 113.6 52.85 113.6 52.75 113.7 52.75 113.75 52.9 113.8 52.85 113.55 52.45 Q113.35 51.7 112.35 51.6 L112.1 51.6 112.1 51.5 112.1 51.4 Q112.2 50.5 113.6 49.0 115.25 47.25 116.75 47.2 L117.25 47.05 117.5 47.2 117.35 47.45 117.35 47.55 117.2 48.1 117.4 48.55 117.65 48.55 Q118.85 48.55 119.1 47.6 L119.1 46.5 118.85 43.5 118.9 43.2 118.85 42.9 Q119.1 42.9 119.25 42.7 L119.6 42.75 120.25 42.7 120.25 29.65 120.3 26.0 120.35 -1.0 120.25 -1.0 120.25 -2.75 120.3 -2.7 120.5 -2.9 120.5 -3.1 120.55 -2.85 120.6 -2.8 120.6 -2.5 M123.95 63.45 L124.25 63.6 Q124.05 63.8 124.1 64.3 L125.15 64.85 125.15 64.45 124.95 61.1 125.0 56.85 125.0 48.3 125.0 35.45 124.95 33.25 Q124.95 32.35 125.1 31.75 L125.0 -1.0 120.75 -1.0 120.8 1.0 120.75 5.1 120.75 29.55 120.65 61.6 121.5 62.4 121.45 61.9 121.5 60.0 Q121.5 58.55 121.8 57.5 L121.75 57.2 121.8 56.85 121.8 56.75 121.85 56.75 122.0 56.4 Q122.0 56.1 122.25 55.85 122.45 55.6 122.8 55.65 L122.8 55.6 123.0 55.5 Q123.85 55.05 123.85 57.0 L123.85 60.25 123.85 60.4 123.85 61.5 123.85 63.45 123.85 63.6 123.95 63.45 M114.7 65.55 L114.6 65.3 Q114.6 64.3 115.95 64.05 L117.25 63.85 118.15 63.05 Q118.15 62.6 118.45 62.15 L118.45 61.8 Q118.6 61.4 119.0 61.35 L119.1 61.25 119.35 61.05 120.0 61.0 120.05 61.0 120.05 61.05 120.35 61.55 120.2 59.85 120.25 59.3 120.2 58.2 120.25 55.8 120.25 43.25 119.35 43.4 119.35 43.9 119.6 46.0 119.6 46.1 119.6 46.55 119.5 48.2 119.1 48.75 Q118.8 49.45 118.3 49.45 117.65 49.45 117.3 49.1 L116.95 49.05 116.4 48.6 116.7 47.75 113.85 49.6 Q112.85 50.5 112.75 51.5 114.35 51.75 114.35 52.8 L114.1 53.4 Q115.25 53.25 116.1 54.4 116.75 55.3 116.75 56.15 L116.3 57.3 115.65 57.85 115.2 57.95 114.9 57.95 Q114.1 57.85 113.85 57.25 113.65 56.85 113.75 56.5 L113.3 56.6 112.9 56.5 112.2 56.4 112.15 56.4 112.25 56.8 112.1 57.1 112.05 57.2 111.6 57.8 111.65 57.8 Q112.3 57.9 112.8 58.3 L113.25 58.7 113.3 58.95 113.5 59.8 Q113.5 60.5 112.9 60.75 L112.65 60.85 112.4 60.85 112.15 60.85 Q111.15 60.85 110.55 60.25 L109.95 59.6 109.85 59.15 Q109.35 57.95 109.55 57.3 L109.55 57.2 109.55 57.25 108.85 57.45 Q108.55 56.95 107.95 56.9 L107.8 56.65 107.55 55.9 106.85 56.4 105.05 57.85 105.0 57.9 104.0 60.25 104.05 60.3 Q105.3 60.1 106.0 60.95 L106.45 61.7 106.5 61.75 106.75 63.2 Q106.75 64.55 105.15 65.0 L103.95 65.2 103.55 65.2 103.15 65.2 102.1 65.05 101.5 64.9 101.5 65.25 101.5 65.55 114.6 65.55 114.7 65.55 M116.7 47.75 L116.7 47.7 116.7 47.75 M118.55 49.0 L117.85 49.1 118.05 49.2 118.55 49.0 M118.85 54.75 L118.85 55.4 118.85 54.75 M118.0 54.4 L118.35 54.1 Q119.15 54.1 119.35 55.1 L119.35 56.45 119.35 57.7 119.0 58.45 119.0 58.65 118.8 58.7 118.65 58.65 118.35 58.7 117.35 58.45 117.35 58.15 117.55 56.0 117.55 55.95 117.55 55.75 117.75 54.3 118.0 54.4 M113.85 53.85 L113.65 53.85 113.6 53.9 113.6 53.95 113.85 53.85 M114.5 61.2 L114.6 61.7 114.55 61.0 114.5 61.2 M115.0 60.85 Q115.0 61.9 116.05 61.9 116.95 61.9 117.2 61.4 L117.1 61.05 117.05 60.35 116.75 60.15 116.0 59.7 115.9 59.75 Q115.3 60.0 115.15 60.25 115.0 60.45 115.0 60.85 M114.6 60.2 Q114.9 59.2 116.15 59.2 117.0 59.2 117.45 59.95 L117.75 60.9 117.45 61.85 117.15 62.15 116.4 62.6 Q114.95 62.6 114.45 61.9 L114.25 61.2 Q114.25 60.6 114.6 60.2 M118.7 58.15 L118.6 56.5 118.6 54.85 Q118.05 55.15 118.0 56.1 L117.85 58.15 118.7 58.15 M124.0 65.15 L122.1 63.9 120.85 62.75 120.4 62.3 120.1 62.3 119.95 61.85 119.65 61.45 Q119.15 61.7 119.0 62.2 L119.1 62.4 118.65 63.4 118.5 63.75 Q118.2 64.15 116.05 64.75 L116.0 64.8 Q115.15 65.15 115.15 65.3 L115.2 65.4 115.3 65.4 115.35 65.6 115.35 66.05 116.75 70.7 117.45 70.6 117.5 70.6 Q117.65 67.75 121.5 66.0 123.05 65.25 124.05 65.2 L124.15 65.2 124.0 65.15 M109.6 63.1 L109.65 62.75 109.95 62.85 110.3 62.7 114.15 62.85 114.25 63.1 114.15 63.35 114.1 63.35 114.0 64.2 114.1 64.3 113.95 64.5 113.85 64.6 113.6 64.6 113.5 64.65 111.25 64.85 109.75 64.8 Q109.6 64.7 109.6 64.2 109.6 63.75 109.25 63.6 L109.65 63.3 109.6 63.1 M110.25 64.2 L113.5 64.05 113.5 63.7 112.45 63.4 110.25 63.45 110.25 63.55 110.25 64.2 M108.5 66.3 L108.35 66.15 99.1 66.1 99.1 66.15 98.85 66.2 71.6 66.15 71.6 66.1 20.55 66.1 -1.25 66.0 -1.75 66.25 -1.8 66.0 -5.25 65.95 -5.25 69.95 10.75 69.85 10.85 69.95 115.9 69.95 115.75 69.4 115.65 69.0 110.0 69.0 109.85 69.1 Q109.25 69.1 108.6 68.7 L108.0 68.05 Q108.0 66.8 109.65 66.85 L109.75 66.85 109.9 66.85 115.05 66.75 114.95 66.45 114.85 66.4 114.8 66.1 108.8 66.1 108.5 66.3 M108.95 67.5 Q108.6 67.75 108.6 67.95 L109.2 68.4 109.95 68.6 115.5 68.5 115.35 68.0 115.15 67.25 110.0 67.25 109.9 67.35 108.95 67.5 M119.85 63.7 L119.95 63.75 119.95 63.8 120.1 64.1 119.85 65.0 119.8 65.15 119.4 65.6 119.1 65.6 118.85 65.6 118.75 65.55 117.1 65.45 117.0 65.25 Q117.0 65.05 117.15 64.95 L117.3 65.05 Q117.45 64.85 117.9 64.85 L118.85 65.05 Q119.45 65.05 119.55 64.55 L119.55 64.5 119.75 63.85 119.85 63.7 M124.05 66.3 L123.6 66.15 Q121.4 66.45 120.2 67.4 L119.35 68.4 119.25 68.65 118.25 70.7 118.4 70.8 118.5 70.95 118.45 71.0 118.65 71.3 118.8 71.15 119.05 70.5 119.45 69.5 119.7 68.75 Q120.25 68.05 121.15 67.7 121.95 67.15 122.95 67.15 L123.45 67.1 124.4 66.95 124.5 66.95 124.75 66.85 124.85 66.85 124.9 66.8 124.15 66.2 123.95 66.1 123.8 66.1 124.1 66.2 124.05 66.3 M119.9 69.9 L119.8 70.1 119.65 70.65 119.45 71.15 119.6 71.25 119.8 71.2 119.9 71.2 120.8 70.95 121.9 70.7 123.45 69.45 124.1 68.1 124.25 67.6 124.1 67.55 Q123.85 67.6 123.55 67.75 L122.7 67.85 122.15 68.2 121.6 68.4 120.45 68.85 Q120.0 69.2 119.9 69.9 M122.0 56.85 L122.05 56.7 122.0 56.6 122.0 56.85 M123.1 56.15 Q122.15 57.5 122.1 59.65 L122.1 61.5 122.1 62.75 122.1 62.9 122.25 63.05 122.35 63.05 122.35 63.1 123.25 63.8 123.35 58.1 123.1 56.15 M123.75 66.0 L123.6 65.95 123.3 65.95 123.25 65.95 122.9 66.0 123.35 66.05 123.75 66.0 M124.9 66.2 Q124.7 65.95 124.3 65.9 L124.5 66.05 124.5 66.15 124.75 66.35 124.9 66.2" fill="#000000" fill-rule="evenodd" stroke="none"/>
    <path d="M115.0 60.85 Q115.0 60.45 115.15 60.25 115.3 60.0 115.9 59.75 L116.0 59.7 116.75 60.15 117.05 60.35 117.1 61.05 117.2 61.4 Q116.95 61.9 116.05 61.9 115.0 61.9 115.0 60.85 M118.7 58.15 L117.85 58.15 118.0 56.1 Q118.05 55.15 118.6 54.85 L118.6 56.5 118.7 58.15 M110.25 64.2 L110.25 63.55 110.25 63.45 112.45 63.4 113.5 63.7 113.5 64.05 110.25 64.2" fill="#c79e63" fill-rule="evenodd" stroke="none"/>
    <path d="M123.85 63.45 L123.85 61.5 123.85 60.4 123.85 60.25 123.85 57.0 Q123.85 55.05 123.0 55.5 L122.8 55.6 122.8 55.65 Q122.45 55.6 122.25 55.85 122.0 56.1 122.0 56.4 L121.85 56.75 121.8 56.75 121.8 56.85 121.75 57.2 121.8 57.5 Q121.5 58.55 121.5 60.0 L121.45 61.9 121.5 62.4 120.65 61.6 120.75 29.55 120.75 5.1 120.8 1.0 120.75 -1.0 125.0 -1.0 125.1 31.75 Q124.95 32.35 124.95 33.25 L125.0 35.45 125.0 48.3 125.0 56.85 124.95 61.1 125.15 64.45 125.15 64.85 124.1 64.3 Q124.05 63.8 124.25 63.6 L123.95 63.45 123.85 63.45 M108.5 66.3 L108.8 66.1 114.8 66.1 114.85 66.4 114.95 66.45 115.05 66.75 109.9 66.85 109.75 66.85 109.65 66.85 Q108.0 66.8 108.0 68.05 L108.6 68.7 Q109.25 69.1 109.85 69.1 L110.0 69.0 115.65 69.0 115.75 69.4 115.9 69.95 10.85 69.95 10.75 69.85 -5.25 69.95 -5.25 65.95 -1.8 66.0 -1.75 66.25 -1.25 66.0 20.55 66.1 71.6 66.1 71.6 66.15 98.85 66.2 99.1 66.15 99.1 66.1 108.35 66.15 108.5 66.3" fill="#836549" fill-rule="evenodd" stroke="none"/>
    <path d="M109.55 57.3 Q109.35 57.95 109.85 59.15 L109.95 59.6 110.55 60.25 Q111.15 60.85 112.15 60.85 L112.4 60.85 112.65 60.85 112.9 60.75 Q113.5 60.5 113.5 59.8 L113.3 58.95 113.25 58.7 112.8 58.3 Q112.3 57.9 111.65 57.8 L111.6 57.8 112.05 57.2 112.1 57.1 112.25 56.8 112.15 56.4 112.2 56.4 112.9 56.5 113.3 56.6 113.75 56.5 Q113.65 56.85 113.85 57.25 114.1 57.85 114.9 57.95 L115.2 57.95 115.65 57.85 116.3 57.3 116.75 56.15 Q116.75 55.3 116.1 54.4 115.25 53.25 114.1 53.4 L114.35 52.8 Q114.35 51.75 112.75 51.5 112.85 50.5 113.85 49.6 L116.7 47.75 116.4 48.6 116.95 49.05 117.3 49.1 Q117.65 49.45 118.3 49.45 118.8 49.45 119.1 48.75 L119.5 48.2 119.6 46.55 119.6 46.1 119.6 46.0 119.35 43.9 119.35 43.4 120.25 43.25 120.25 55.8 120.2 58.2 120.25 59.3 120.2 59.85 120.35 61.55 120.05 61.05 120.05 61.0 120.0 61.0 119.35 61.05 119.1 61.25 119.0 61.35 Q118.6 61.4 118.45 61.8 L118.45 62.15 Q118.15 62.6 118.15 63.05 L117.25 63.85 115.95 64.05 Q114.6 64.3 114.6 65.3 L114.7 65.55 114.6 65.55 101.5 65.55 101.5 65.25 101.5 64.9 102.1 65.05 103.15 65.2 103.55 65.2 103.95 65.2 105.15 65.0 Q106.75 64.55 106.75 63.2 L106.5 61.75 106.45 61.7 106.0 60.95 Q105.3 60.1 104.05 60.3 L104.0 60.25 105.0 57.9 105.05 57.85 106.85 56.4 107.55 55.9 107.8 56.65 107.95 56.9 Q108.55 56.95 108.85 57.45 L109.55 57.25 109.55 57.3 M118.0 54.4 L117.75 54.3 117.55 55.75 117.55 55.95 117.55 56.0 117.35 58.15 117.35 58.45 118.35 58.7 118.65 58.65 118.8 58.7 119.0 58.65 119.0 58.45 119.35 57.7 119.35 56.45 119.35 55.1 Q119.15 54.1 118.35 54.1 L118.0 54.4 M114.6 60.2 Q114.25 60.6 114.25 61.2 L114.45 61.9 Q114.95 62.6 116.4 62.6 L117.15 62.15 117.45 61.85 117.75 60.9 117.45 59.95 Q117.0 59.2 116.15 59.2 114.9 59.2 114.6 60.2 M109.6 63.1 L109.65 63.3 109.25 63.6 Q109.6 63.75 109.6 64.2 109.6 64.7 109.75 64.8 L111.25 64.85 113.5 64.65 113.6 64.6 113.85 64.6 113.95 64.5 114.1 64.3 114.0 64.2 114.1 63.35 114.15 63.35 114.25 63.1 114.15 62.85 110.3 62.7 109.95 62.85 109.65 62.75 109.6 63.1" fill="url(#gradient11)" fill-rule="evenodd" stroke="none"/>
    <path d="M124.05 65.2 Q123.05 65.25 121.5 66.0 117.65 67.75 117.5 70.6 L117.45 70.6 116.75 70.7 115.35 66.05 115.35 65.6 115.3 65.4 115.2 65.4 115.15 65.3 Q115.15 65.15 116.0 64.8 L116.05 64.75 Q118.2 64.15 118.5 63.75 L118.65 63.4 119.1 62.4 119.0 62.2 Q119.15 61.7 119.65 61.45 L119.95 61.85 120.1 62.3 120.4 62.3 120.85 62.75 122.1 63.9 124.0 65.15 124.05 65.2 M119.85 63.7 L119.75 63.85 119.55 64.5 119.55 64.55 Q119.45 65.05 118.85 65.05 L117.9 64.85 Q117.45 64.85 117.3 65.05 L117.15 64.95 Q117.0 65.05 117.0 65.25 L117.1 65.45 118.75 65.55 118.85 65.6 119.1 65.6 119.4 65.6 119.8 65.15 119.85 65.0 120.1 64.1 119.95 63.8 119.95 63.75 119.85 63.7" fill="url(#gradient12)" fill-rule="evenodd" stroke="none"/>
    <path d="M108.95 67.5 L109.9 67.35 110.0 67.25 115.15 67.25 115.35 68.0 115.5 68.5 109.95 68.6 109.2 68.4 108.6 67.95 Q108.6 67.75 108.95 67.5" fill="url(#gradient13)" fill-rule="evenodd" stroke="none"/>
    <path d="M120.7 69.6 L121.25 69.6 121.45 69.55 121.5 69.2 120.9 69.05 Q120.6 69.1 120.6 69.35 L120.7 69.6 M119.8 70.1 L119.85 70.05 119.9 69.9 Q120.0 69.2 120.45 68.85 L121.6 68.4 121.95 68.35 Q121.6 68.55 121.6 68.7 L121.7 68.95 122.15 69.2 121.7 69.4 121.6 69.45 121.3 69.75 121.3 70.15 121.4 70.3 121.5 70.45 121.45 70.65 120.8 70.95 119.9 71.2 119.8 71.2 119.7 71.15 119.6 70.9 119.65 70.65 119.8 70.1" fill="#760101" fill-rule="evenodd" stroke="none"/>
    <path d="M120.7 69.6 L120.6 69.35 Q120.6 69.1 120.9 69.05 L121.5 69.2 121.45 69.55 121.25 69.6 120.7 69.6 M122.15 68.2 L122.7 67.85 123.55 67.75 123.75 68.35 123.25 68.9 122.35 69.2 122.15 69.2 121.7 68.95 121.6 68.7 Q121.6 68.55 121.95 68.35 L122.15 68.2" fill="#fe9a9a" fill-rule="evenodd" stroke="none"/>
    <path d="M124.15 66.2 L124.9 66.8 124.85 66.85 124.75 66.85 124.5 66.95 124.4 66.95 123.45 67.1 122.95 67.15 Q121.95 67.15 121.15 67.7 120.25 68.05 119.7 68.75 L119.45 69.5 119.05 70.5 118.8 71.15 118.65 71.3 118.45 71.0 118.5 70.95 118.4 70.8 118.25 70.7 119.25 68.65 119.35 68.4 120.2 67.4 Q121.4 66.45 123.6 66.15 L124.05 66.3 124.15 66.2" fill="url(#gradient14)" fill-rule="evenodd" stroke="none"/>
    <path d="M119.8 70.1 L119.9 69.9 119.85 70.05 119.8 70.1 M121.6 68.4 L122.15 68.2 121.95 68.35 121.6 68.4 M123.55 67.75 Q123.85 67.6 124.1 67.55 L124.25 67.6 124.1 68.1 123.45 69.45 121.9 70.7 120.8 70.95 121.45 70.65 121.5 70.45 121.4 70.3 121.3 70.15 121.3 69.75 121.6 69.45 121.7 69.4 122.15 69.2 122.35 69.2 123.25 68.9 123.75 68.35 123.55 67.75 M119.8 71.2 L119.6 71.25 119.45 71.15 119.65 70.65 119.6 70.9 119.7 71.15 119.8 71.2" fill="#cc0000" fill-rule="evenodd" stroke="none"/>
    <path d="M123.1 56.15 L123.35 58.1 123.25 63.8 122.35 63.1 122.35 63.05 122.25 63.05 122.1 62.9 122.1 62.75 122.1 61.5 122.1 59.65 Q122.15 57.5 123.1 56.15" fill="url(#gradient15)" fill-rule="evenodd" stroke="none"/>
    <path d="M409.55 -2.5 L409.8 -1.9 409.75 -1.7 409.55 -1.7 409.55 -1.35 413.85 -1.35 413.9 -1.4 413.95 -1.85 413.95 -2.15 414.0 -2.2 414.05 -2.45 414.05 -2.25 414.25 -2.05 414.3 -2.1 414.3 -0.35 414.2 -0.35 414.25 26.65 414.3 30.3 414.3 43.35 414.95 43.4 415.3 43.35 Q415.45 43.55 415.7 43.55 L415.65 43.85 415.7 44.15 415.45 47.15 415.45 48.25 Q415.7 49.2 416.9 49.2 L417.15 49.2 417.35 48.75 417.2 48.2 417.2 48.1 417.05 47.85 417.3 47.7 417.8 47.85 Q419.3 47.9 420.95 49.65 422.35 51.15 422.45 52.05 L422.45 52.15 422.45 52.25 422.2 52.25 Q421.2 52.35 421.0 53.1 420.75 53.2 420.75 53.5 L420.8 53.55 420.85 53.4 420.95 53.4 420.95 53.5 421.2 54.25 421.55 54.6 421.3 54.55 421.45 54.75 420.2 54.9 Q419.3 55.1 418.85 55.6 L418.75 55.7 Q418.3 56.3 418.3 56.8 418.6 58.05 419.4 58.05 L420.0 57.8 420.2 57.4 419.95 56.6 420.05 56.4 420.35 56.35 421.25 56.65 422.55 56.45 422.8 56.25 423.0 56.1 423.25 55.75 423.35 55.8 423.7 55.6 423.75 55.7 423.8 55.95 423.7 56.1 423.3 56.55 Q422.8 57.1 422.8 57.5 L423.35 58.0 424.05 58.6 422.2 59.75 Q421.55 60.05 421.55 60.4 421.55 60.95 422.4 60.95 423.5 60.95 424.1 59.95 L424.2 59.75 424.55 58.65 424.2 58.0 424.35 57.95 424.3 57.7 424.35 57.4 424.45 57.4 424.5 57.15 425.05 57.35 424.95 57.4 425.2 57.45 425.3 57.35 425.55 57.35 425.35 57.5 425.75 57.55 426.3 57.1 426.55 56.45 426.55 56.35 426.45 56.7 426.3 56.85 426.35 56.75 426.4 56.55 426.5 56.15 426.55 56.1 426.55 55.95 426.95 55.75 Q428.3 55.8 429.8 58.15 431.3 60.5 431.3 61.65 L431.05 62.0 430.55 61.6 430.05 61.35 Q429.4 61.45 428.9 61.9 L428.6 62.45 Q428.3 63.15 428.3 63.8 L428.45 64.15 428.4 64.35 428.7 64.7 Q429.4 65.3 431.4 65.3 L432.5 65.1 433.35 64.85 433.7 64.95 433.75 66.2 463.0 66.25 586.85 66.25 587.0 66.1 607.1 66.1 607.1 66.15 652.45 66.15 652.45 71.1 652.05 71.1 651.65 71.4 650.45 71.15 650.45 71.1 418.7 71.2 418.5 71.25 418.45 71.25 418.2 71.85 418.15 71.85 417.95 72.0 417.6 72.0 416.9 72.1 416.5 72.1 416.45 72.2 415.15 72.5 Q409.05 71.4 409.55 68.35 L409.5 68.35 409.35 68.3 409.3 68.25 409.0 68.0 408.8 67.6 409.05 67.2 409.05 66.95 408.95 66.55 408.8 66.6 408.9 66.5 408.8 66.05 408.85 65.95 408.8 65.85 408.9 65.7 409.05 65.65 409.05 32.1 408.95 15.55 409.0 -0.35 408.55 -0.35 408.35 -0.45 408.3 -0.85 Q408.3 -1.2 408.45 -1.25 L408.8 -1.35 409.0 -1.35 409.0 -2.4 409.3 -2.4 409.35 -2.45 409.55 -2.5 M410.7 64.1 L410.7 62.15 410.7 61.05 410.7 60.9 410.7 57.65 Q410.7 55.7 411.55 56.15 L411.75 56.25 411.75 56.3 412.3 56.5 412.55 57.05 412.7 57.4 412.75 57.4 412.75 57.5 412.8 57.85 412.75 58.15 413.05 60.65 413.1 62.55 413.05 63.05 413.9 62.25 413.8 30.2 413.8 5.75 413.75 1.65 413.8 -0.35 409.55 -0.35 409.45 32.4 409.6 33.9 409.55 36.1 409.55 48.95 409.55 57.5 409.6 61.75 409.4 65.1 409.4 65.5 410.45 64.95 410.3 64.25 410.6 64.1 410.7 64.25 410.7 64.1 M611.4 70.5 L630.05 70.55 650.45 70.6 650.45 66.6 642.0 66.65 641.9 66.9 640.7 66.65 630.05 66.65 587.45 66.75 462.95 66.75 462.95 66.8 435.7 66.85 435.45 66.8 435.45 66.75 426.2 66.8 426.05 66.95 425.75 66.75 419.75 66.75 419.7 67.05 419.6 67.1 419.5 67.4 424.65 67.5 424.8 67.5 424.9 67.5 Q426.55 67.45 426.55 68.7 L425.95 69.35 Q425.3 69.75 424.7 69.75 L424.55 69.65 418.9 69.65 418.8 70.05 418.65 70.6 611.15 70.6 611.4 70.5 M415.05 48.85 L414.95 47.2 414.95 46.75 414.95 46.65 Q415.0 45.05 415.2 44.55 L415.2 44.05 414.3 43.9 414.3 56.45 414.35 58.85 414.3 59.95 414.35 60.5 414.2 62.2 414.5 61.7 414.5 61.65 414.55 61.65 415.2 61.7 415.45 61.9 415.55 62.0 416.1 62.45 416.1 62.8 416.4 63.7 417.3 64.5 418.6 64.7 Q419.95 64.95 419.95 65.95 L419.85 66.2 433.05 66.2 433.05 65.55 432.45 65.7 431.4 65.85 431.0 65.85 430.6 65.85 429.4 65.65 Q427.8 65.2 427.8 63.85 427.8 63.05 428.05 62.4 L428.1 62.35 Q428.25 61.9 428.55 61.6 429.25 60.75 430.5 60.95 L430.55 60.9 429.55 58.55 429.5 58.5 Q429.2 58.1 427.7 57.05 L427.0 56.55 426.75 57.3 426.6 57.55 Q426.0 57.6 425.7 58.1 L425.0 57.9 425.0 57.95 Q425.2 58.6 424.7 59.8 L424.6 60.25 424.0 60.9 Q423.4 61.5 422.4 61.5 L422.15 61.5 421.9 61.5 421.65 61.4 Q421.05 61.15 421.05 60.45 L421.25 59.6 421.3 59.35 Q421.35 59.15 421.75 58.95 422.25 58.55 422.9 58.45 L422.95 58.45 422.5 57.85 422.45 57.75 422.3 57.45 422.4 57.05 422.35 57.05 421.65 57.15 421.25 57.25 420.8 57.15 420.7 57.9 Q420.45 58.5 419.65 58.6 L419.35 58.6 418.9 58.5 418.25 57.95 Q417.8 57.35 417.8 56.8 417.8 55.95 418.45 55.05 419.3 53.9 420.45 54.05 L420.2 53.45 Q420.2 52.4 421.8 52.15 421.7 51.15 420.7 50.25 419.9 49.5 417.85 48.4 L418.15 49.25 417.6 49.7 417.25 49.75 Q416.9 50.1 416.25 50.1 415.75 50.1 415.45 49.4 L415.05 48.85 M425.35 69.05 Q425.95 68.85 425.95 68.6 L425.6 68.15 424.65 68.0 424.55 67.9 419.4 67.9 419.2 68.65 419.05 69.15 424.6 69.25 425.35 69.05 M416.0 49.65 Q416.25 49.85 416.5 49.85 L416.7 49.75 416.0 49.65 M420.9 54.5 L420.7 54.5 420.95 54.6 420.95 54.55 420.9 54.5 M416.8 61.55 Q416.8 61.1 417.1 60.6 417.55 59.85 418.4 59.85 419.65 59.85 419.95 60.85 420.3 61.25 420.3 61.85 L420.1 62.55 Q419.6 63.25 418.15 63.25 417.65 63.25 417.4 62.8 L417.1 62.5 Q416.8 62.1 416.8 61.55 M416.2 54.75 L416.55 55.05 416.8 54.95 417.0 56.4 417.0 56.6 417.0 56.65 417.2 58.8 417.2 59.1 416.2 59.35 415.9 59.3 415.75 59.35 415.55 59.3 415.55 59.1 415.2 58.35 415.2 57.1 415.2 55.75 Q415.4 54.75 416.2 54.75 M415.85 58.8 L416.7 58.8 416.55 56.75 Q416.5 55.8 415.95 55.5 L415.95 57.15 415.85 58.8 M417.5 61.0 L417.45 61.7 417.35 62.05 Q417.6 62.55 418.5 62.55 419.55 62.55 419.55 61.5 L419.4 60.9 418.65 60.4 418.55 60.35 417.8 60.8 417.5 61.0 M412.5 57.35 L412.55 57.5 412.55 57.25 412.5 57.35 M420.05 61.85 L420.0 61.65 419.95 62.35 420.05 61.85 M411.45 56.8 Q411.2 57.4 411.2 58.75 L411.3 64.45 412.2 63.75 412.2 63.7 412.3 63.7 412.45 63.55 412.45 63.4 412.45 62.15 412.45 60.3 Q412.4 58.15 411.45 56.8 M410.5 65.85 Q411.5 65.9 413.05 66.65 416.9 68.4 417.05 71.25 L417.1 71.25 417.8 71.35 419.2 66.7 419.2 66.25 419.25 66.05 419.35 66.05 419.4 65.95 Q419.4 65.8 418.55 65.45 L418.5 65.4 Q416.35 64.8 416.05 64.4 L415.9 64.05 Q415.45 63.6 415.45 63.05 L415.55 62.85 414.9 62.1 414.6 62.5 Q414.45 62.75 414.45 62.95 L414.15 62.95 413.7 63.4 412.45 64.55 410.55 65.8 410.4 65.85 410.5 65.85 M414.45 64.75 L414.6 64.45 414.6 64.4 414.7 64.35 414.8 64.5 415.0 65.15 415.0 65.2 Q415.1 65.7 415.7 65.7 L416.65 65.5 417.25 65.7 417.4 65.6 417.55 65.9 417.45 66.1 415.8 66.2 415.7 66.25 415.45 66.25 415.15 66.25 414.75 65.8 414.7 65.65 414.45 64.75 M410.8 66.65 L411.2 66.7 411.65 66.65 411.3 66.6 411.25 66.6 410.95 66.6 410.8 66.65 M410.5 66.95 L410.45 66.85 410.75 66.75 410.6 66.75 410.4 66.85 409.65 67.45 409.7 67.5 409.8 67.5 410.05 67.6 410.15 67.6 411.1 67.75 411.6 67.8 Q412.6 67.8 413.4 68.35 414.3 68.7 414.85 69.4 L415.1 70.15 415.5 71.15 415.75 71.8 415.9 71.95 416.1 71.65 416.05 71.6 416.15 71.45 416.3 71.35 415.3 69.3 415.2 69.05 414.35 68.05 Q413.15 67.1 410.95 66.8 L410.5 66.95 M409.65 66.85 L409.8 67.0 410.05 66.8 410.05 66.7 410.25 66.55 409.65 66.85 M412.45 68.9 L412.4 68.85 411.85 68.5 411.0 68.4 410.45 68.2 410.3 68.25 410.45 68.75 Q410.65 69.75 411.1 70.1 412.05 71.15 412.65 71.35 L413.75 71.6 414.65 71.85 414.75 71.85 414.95 71.9 415.1 71.8 414.95 71.35 414.9 71.3 414.75 70.75 414.7 70.65 414.65 70.55 Q414.55 69.85 414.1 69.5 L412.95 69.05 412.45 68.9 M424.3 64.85 L424.3 64.2 424.3 64.1 422.1 64.05 421.05 64.35 421.05 64.7 424.3 64.85 M424.25 63.35 L424.6 63.5 Q424.7 63.4 424.9 63.4 L424.95 63.75 424.9 63.95 425.3 64.25 Q424.95 64.4 424.95 64.85 L424.8 65.45 423.3 65.5 421.05 65.3 420.95 65.25 420.7 65.25 420.6 65.15 420.45 64.95 420.55 64.85 420.45 64.0 420.4 64.0 420.3 63.75 420.4 63.5 424.25 63.35" fill="#000000" fill-rule="evenodd" stroke="none"/>
    <path d="M410.6 64.1 L410.3 64.25 410.45 64.95 409.4 65.5 409.4 65.1 409.6 61.75 409.55 57.5 409.55 48.95 409.55 36.1 409.6 33.9 409.45 32.4 409.55 -0.35 413.8 -0.35 413.75 1.65 413.8 5.75 413.8 30.2 413.9 62.25 413.05 63.05 413.1 62.55 413.05 60.65 412.75 58.15 412.8 57.85 412.75 57.5 412.75 57.4 412.7 57.4 412.55 57.05 412.3 56.5 411.75 56.3 411.75 56.25 411.55 56.15 Q410.7 55.7 410.7 57.65 L410.7 60.9 410.7 61.05 410.7 62.15 410.7 64.1 410.6 64.1 M611.4 70.5 L611.15 70.6 418.65 70.6 418.8 70.05 418.9 69.65 424.55 69.65 424.7 69.75 Q425.3 69.75 425.95 69.35 L426.55 68.7 Q426.55 67.45 424.9 67.5 L424.8 67.5 424.65 67.5 419.5 67.4 419.6 67.1 419.7 67.05 419.75 66.75 425.75 66.75 426.05 66.95 426.2 66.8 435.45 66.75 435.45 66.8 435.7 66.85 462.95 66.8 462.95 66.75 587.45 66.75 630.05 66.65 640.7 66.65 641.9 66.9 642.0 66.65 650.45 66.6 650.45 70.6 630.05 70.55 611.4 70.5" fill="#836549" fill-rule="evenodd" stroke="none"/>
    <path d="M415.05 48.85 L415.45 49.4 Q415.75 50.1 416.25 50.1 416.9 50.1 417.25 49.75 L417.6 49.7 418.15 49.25 417.85 48.4 Q419.9 49.5 420.7 50.25 421.7 51.15 421.8 52.15 420.2 52.4 420.2 53.45 L420.45 54.05 Q419.3 53.9 418.45 55.05 417.8 55.95 417.8 56.8 417.8 57.35 418.25 57.95 L418.9 58.5 419.35 58.6 419.65 58.6 Q420.45 58.5 420.7 57.9 L420.8 57.15 421.25 57.25 421.65 57.15 422.35 57.05 422.4 57.05 422.3 57.45 422.45 57.75 422.5 57.85 422.95 58.45 422.9 58.45 Q422.25 58.55 421.75 58.95 421.35 59.15 421.3 59.35 L421.25 59.6 421.05 60.45 Q421.05 61.15 421.65 61.4 L421.9 61.5 422.15 61.5 422.4 61.5 Q423.4 61.5 424.0 60.9 L424.6 60.25 424.7 59.8 Q425.2 58.6 425.0 57.95 L425.0 57.9 425.7 58.1 Q426.0 57.6 426.6 57.55 L426.75 57.3 427.0 56.55 427.7 57.05 Q429.2 58.1 429.5 58.5 L429.55 58.55 430.55 60.9 430.5 60.95 Q429.25 60.75 428.55 61.6 428.25 61.9 428.1 62.35 L428.05 62.4 Q427.8 63.05 427.8 63.85 427.8 65.2 429.4 65.65 L430.6 65.85 431.0 65.85 431.4 65.85 432.45 65.7 433.05 65.55 433.05 66.2 419.85 66.2 419.95 65.95 Q419.95 64.95 418.6 64.7 L417.3 64.5 416.4 63.7 416.1 62.8 416.1 62.45 415.55 62.0 415.45 61.9 415.2 61.7 414.55 61.65 414.5 61.65 414.5 61.7 414.2 62.2 414.35 60.5 414.3 59.95 414.35 58.85 414.3 56.45 414.3 43.9 415.2 44.05 415.2 44.55 Q415.0 45.05 414.95 46.65 L414.95 46.75 414.95 47.2 415.05 48.85 M416.2 54.75 Q415.4 54.75 415.2 55.75 L415.2 57.1 415.2 58.35 415.55 59.1 415.55 59.3 415.75 59.35 415.9 59.3 416.2 59.35 417.2 59.1 417.2 58.8 417.0 56.65 417.0 56.6 417.0 56.4 416.8 54.95 416.55 55.05 416.2 54.75 M416.8 61.55 Q416.8 62.1 417.1 62.5 L417.4 62.8 Q417.65 63.25 418.15 63.25 419.6 63.25 420.1 62.55 L420.3 61.85 Q420.3 61.25 419.95 60.85 419.65 59.85 418.4 59.85 417.55 59.85 417.1 60.6 416.8 61.1 416.8 61.55 M424.25 63.35 L420.4 63.5 420.3 63.75 420.4 64.0 420.45 64.0 420.55 64.85 420.45 64.95 420.6 65.15 420.7 65.25 420.95 65.25 421.05 65.3 423.3 65.5 424.8 65.45 424.95 64.85 Q424.95 64.4 425.3 64.25 L424.9 63.95 424.95 63.75 424.9 63.4 Q424.7 63.4 424.6 63.5 L424.25 63.35" fill="url(#gradient16)" fill-rule="evenodd" stroke="none"/>
    <path d="M425.35 69.05 L424.6 69.25 419.05 69.15 419.2 68.65 419.4 67.9 424.55 67.9 424.65 68.0 425.6 68.15 425.95 68.6 Q425.95 68.85 425.35 69.05" fill="url(#gradient17)" fill-rule="evenodd" stroke="none"/>
    <path d="M417.5 61.0 L417.8 60.8 418.55 60.35 418.65 60.4 419.4 60.9 419.55 61.5 Q419.55 62.55 418.5 62.55 417.6 62.55 417.35 62.05 L417.45 61.7 417.5 61.0 M415.85 58.8 L415.95 57.15 415.95 55.5 Q416.5 55.8 416.55 56.75 L416.7 58.8 415.85 58.8 M424.3 64.85 L421.05 64.7 421.05 64.35 422.1 64.05 424.3 64.1 424.3 64.2 424.3 64.85" fill="#c79e63" fill-rule="evenodd" stroke="none"/>
    <path d="M411.45 56.8 Q412.4 58.15 412.45 60.3 L412.45 62.15 412.45 63.4 412.45 63.55 412.3 63.7 412.2 63.7 412.2 63.75 411.3 64.45 411.2 58.75 Q411.2 57.4 411.45 56.8" fill="url(#gradient18)" fill-rule="evenodd" stroke="none"/>
    <path d="M410.55 65.8 L412.45 64.55 413.7 63.4 414.15 62.95 414.45 62.95 Q414.45 62.75 414.6 62.5 L414.9 62.1 415.55 62.85 415.45 63.05 Q415.45 63.6 415.9 64.05 L416.05 64.4 Q416.35 64.8 418.5 65.4 L418.55 65.45 Q419.4 65.8 419.4 65.95 L419.35 66.05 419.25 66.05 419.2 66.25 419.2 66.7 417.8 71.35 417.1 71.25 417.05 71.25 Q416.9 68.4 413.05 66.65 411.5 65.9 410.5 65.85 L410.55 65.8 M414.45 64.75 L414.7 65.65 414.75 65.8 415.15 66.25 415.45 66.25 415.7 66.25 415.8 66.2 417.45 66.1 417.55 65.9 417.4 65.6 417.25 65.7 416.65 65.5 415.7 65.7 Q415.1 65.7 415.0 65.2 L415.0 65.15 414.8 64.5 414.7 64.35 414.6 64.4 414.6 64.45 414.45 64.75" fill="url(#gradient19)" fill-rule="evenodd" stroke="none"/>
    <path d="M410.4 66.85 L410.5 66.95 410.95 66.8 Q413.15 67.1 414.35 68.05 L415.2 69.05 415.3 69.3 416.3 71.35 416.15 71.45 416.05 71.6 416.1 71.65 415.9 71.95 415.75 71.8 415.5 71.15 415.1 70.15 414.85 69.4 Q414.3 68.7 413.4 68.35 412.6 67.8 411.6 67.8 L411.1 67.75 410.15 67.6 410.05 67.6 409.8 67.5 409.7 67.5 409.65 67.45 410.4 66.85" fill="url(#gradient20)" fill-rule="evenodd" stroke="none"/>
    <path d="M412.6 69.0 L412.95 69.35 412.85 69.6 412.4 69.85 412.2 69.85 411.3 69.55 Q410.8 69.25 410.8 69.0 410.8 68.55 411.0 68.4 L411.85 68.5 412.4 68.85 412.45 68.9 412.6 69.0 M413.85 70.25 L413.3 70.25 413.1 70.2 413.05 69.85 413.65 69.7 413.95 70.0 413.85 70.25" fill="#fe9a9a" fill-rule="evenodd" stroke="none"/>
    <path d="M412.4 69.85 L412.85 69.6 412.95 69.35 412.6 69.0 412.95 69.05 414.1 69.5 Q414.55 69.85 414.65 70.55 L414.7 70.65 414.7 70.7 414.75 70.75 414.9 71.3 414.95 71.35 414.95 71.55 414.85 71.8 414.75 71.85 414.65 71.85 413.75 71.6 413.1 71.3 413.05 71.1 413.15 70.95 413.25 70.8 413.25 70.4 412.95 70.1 412.85 70.05 412.4 69.85 M413.85 70.25 L413.95 70.0 413.65 69.7 413.05 69.85 413.1 70.2 413.3 70.25 413.85 70.25" fill="#760101" fill-rule="evenodd" stroke="none"/>
    <path d="M412.6 69.0 L412.45 68.9 412.95 69.05 412.6 69.0 M411.0 68.4 Q410.8 68.55 410.8 69.0 410.8 69.25 411.3 69.55 L412.2 69.85 412.4 69.85 412.85 70.05 412.95 70.1 413.25 70.4 413.25 70.8 413.15 70.95 413.05 71.1 413.1 71.3 413.75 71.6 412.65 71.35 Q412.05 71.15 411.1 70.1 410.65 69.75 410.45 68.75 L410.3 68.25 410.45 68.2 411.0 68.4 M414.75 71.85 L414.85 71.8 414.95 71.55 414.95 71.35 415.1 71.8 414.95 71.9 414.75 71.85 M414.75 70.75 L414.7 70.7 414.7 70.65 414.75 70.75" fill="#cc0000" fill-rule="evenodd" stroke="none"/>
    <path d="M120.6 33.4 L120.35 33.6 59.0 33.6 58.75 33.35 Q58.75 33.1 59.0 33.1 L119.9 33.05 Q120.3 32.95 120.6 33.4 M91.0 44.7 L-1.25 44.7 -1.5 44.55 -1.2 44.2 -0.85 44.15 90.85 44.2 91.1 44.45 91.0 44.7 M101.65 5.75 L64.1 5.75 64.1 14.0 74.35 14.0 74.6 14.25 74.5 14.5 -1.15 14.5 -1.4 14.05 -0.95 13.95 63.8 14.0 63.6 9.85 63.4 7.4 Q63.35 6.3 63.6 5.75 L12.2 5.75 12.1 5.5 Q12.1 5.2 12.75 5.2 L101.5 5.25 101.75 5.5 101.65 5.75 M114.5 21.6 L54.75 21.6 54.5 21.45 Q54.5 21.2 54.75 21.1 L114.35 21.1 114.6 21.35 114.5 21.6 M99.0 56.4 L98.9 56.65 72.7 56.65 72.75 56.9 72.7 57.4 72.5 57.5 72.25 56.95 72.3 56.65 29.0 56.65 28.75 56.5 Q28.75 56.25 29.0 56.15 L98.75 56.15 99.0 56.4 M66.5 25.45 L27.95 25.6 27.75 25.7 Q27.0 25.7 27.0 25.2 L27.05 25.05 27.1 24.95 66.5 24.95 66.6 25.2 66.5 25.45 M76.0 55.5 L75.75 55.65 75.5 55.05 Q75.5 54.6 75.75 54.4 L76.0 54.65 76.0 55.5" fill="#d1b183" fill-rule="evenodd" stroke="none"/>
    <path d="M596.7 6.9 L596.8 7.15 648.2 7.15 648.1 7.4 596.7 7.4 596.9 9.05 596.7 11.5 596.5 15.65 661.25 15.6 661.7 15.7 661.45 16.15 585.8 16.15 585.7 15.9 585.95 15.65 596.2 15.65 596.2 7.4 558.65 7.4 558.55 7.15 558.8 6.9 596.7 6.9 M661.15 45.8 L661.5 45.85 661.8 46.2 661.55 46.35 569.3 46.35 569.2 46.1 569.45 45.85 661.15 45.8 M633.2 26.6 L633.25 26.7 633.3 26.85 Q633.3 27.35 632.55 27.35 632.3 27.35 632.35 27.25 L593.8 27.1 593.7 26.85 593.8 26.6 633.2 26.6 M605.55 22.75 L605.8 23.1 605.55 23.25 545.8 23.25 545.7 23.0 545.95 22.75 605.55 22.75 M588.85 34.75 L588.9 34.75 601.3 34.75 601.55 35.0 601.3 35.25 591.6 35.25 591.7 35.0 588.85 34.75 M553.3 35.25 L539.95 35.25 539.7 35.05 Q540.0 34.6 540.4 34.7 L584.35 34.75 565.3 34.75 553.3 34.75 553.2 35.0 553.3 35.25 M587.55 58.55 L587.6 58.3 561.4 58.3 561.3 58.05 561.55 57.8 631.3 57.8 631.55 58.15 631.3 58.3 588.0 58.3 588.05 58.6 587.8 59.15 587.6 59.05 587.55 58.55 M584.55 57.3 L584.3 57.15 584.3 56.3 584.55 56.05 584.8 56.7 584.55 57.3 M472.2 6.05 L472.3 6.3 523.7 6.3 523.6 6.55 472.2 6.55 472.4 8.2 472.2 10.65 472.0 14.8 536.75 14.75 537.2 14.85 536.95 15.3 461.3 15.3 461.2 15.05 461.45 14.8 471.7 14.8 471.7 6.55 434.15 6.55 434.05 6.3 434.3 6.05 472.2 6.05 M537.3 45.35 L537.05 45.5 444.8 45.5 444.7 45.25 444.95 45.0 536.65 44.95 537.0 45.0 537.3 45.35 M506.8 56.95 L507.05 57.3 506.8 57.45 463.5 57.45 463.55 57.75 463.3 58.3 463.1 58.2 463.05 57.7 463.1 57.45 436.9 57.45 436.8 57.2 437.05 56.95 506.8 56.95 M508.7 25.75 L508.75 25.85 508.8 26.0 Q508.8 26.5 508.05 26.5 507.8 26.5 507.85 26.4 L469.3 26.25 469.2 26.0 469.3 25.75 508.7 25.75 M481.3 22.25 L481.05 22.4 421.3 22.4 421.2 22.15 421.45 21.9 481.05 21.9 481.3 22.25 M465.35 33.9 L476.8 33.9 477.05 34.15 476.8 34.4 467.1 34.4 467.2 34.15 465.35 33.9 M428.8 34.4 L415.45 34.4 415.2 34.2 Q415.5 33.75 415.9 33.85 L442.75 33.9 440.8 33.9 428.8 33.9 428.7 34.15 428.8 34.4 M459.8 55.45 L460.05 55.2 460.3 55.85 460.05 56.45 459.8 56.3 459.8 55.45" fill="#d1b183" fill-rule="evenodd" stroke="none"/>
    <path d="M596.7 6.9 L596.95 6.65 658.6 6.6 659.0 6.5 659.45 6.7 659.05 7.15 648.2 7.15 596.8 7.15 596.7 6.9 M648.05 23.1 L648.05 22.9 648.15 22.65 659.05 22.65 659.3 22.85 659.15 23.05 658.85 23.0 648.05 23.1 M661.45 62.65 L661.35 62.9 628.6 62.9 628.0 63.0 627.9 63.0 626.4 63.15 625.85 63.15 624.95 63.2 624.95 63.3 624.95 63.65 624.9 63.75 625.9 63.5 627.05 63.2 627.05 63.6 625.9 64.0 624.05 64.4 621.55 64.1 620.55 63.5 620.6 63.25 619.1 63.2 617.95 63.4 617.45 63.15 617.5 63.0 604.4 63.0 604.3 62.75 604.4 62.5 Q614.3 62.45 616.8 62.55 L617.95 62.75 617.95 62.85 621.05 62.4 621.8 62.25 Q622.0 61.9 622.3 61.9 L622.65 61.95 Q624.7 61.5 626.55 61.9 627.6 62.15 627.95 62.4 L628.1 62.4 628.15 62.4 661.35 62.45 661.45 62.65 M627.2 26.25 L627.1 26.5 594.05 26.5 593.95 26.25 594.05 26.0 627.1 26.05 627.2 26.25 M661.3 57.4 L661.2 57.65 623.05 57.65 622.95 57.4 623.05 57.15 661.2 57.2 661.3 57.4 M544.15 12.75 L542.15 12.75 542.05 12.5 542.15 12.25 565.3 12.25 582.2 12.3 588.05 12.5 587.95 12.75 579.95 12.75 544.15 12.75 M590.7 2.95 L590.8 3.15 590.7 3.4 570.05 3.4 569.95 3.15 570.05 2.9 590.7 2.95 M584.35 34.75 L588.25 34.75 588.85 34.75 591.7 35.0 591.6 35.25 553.3 35.25 553.2 35.0 553.3 34.75 565.3 34.75 584.35 34.75 M586.45 27.65 L586.35 27.9 576.0 28.0 576.2 28.25 575.8 28.9 575.55 28.75 575.5 28.65 570.4 28.65 569.45 29.25 Q568.05 30.0 566.95 30.0 L565.3 29.85 Q564.55 29.65 564.55 29.25 L564.65 29.0 564.95 29.0 565.2 29.25 565.3 29.3 566.9 29.45 Q568.45 29.45 569.45 28.85 L569.65 28.65 569.55 28.5 567.45 28.75 Q565.7 28.75 565.7 28.2 565.7 26.55 567.8 26.9 569.95 27.25 569.95 27.95 L569.9 28.15 570.3 28.15 570.45 28.0 570.6 28.1 572.85 28.0 572.1 28.0 Q570.6 28.0 569.4 27.25 568.2 26.5 567.25 26.5 566.8 26.5 565.3 27.4 L565.1 27.5 563.4 28.4 563.7 28.4 563.8 28.45 563.95 28.65 563.85 28.95 563.5 29.0 560.05 28.9 559.95 28.65 560.05 28.4 562.8 28.4 562.55 28.25 540.05 28.15 539.95 27.9 540.05 27.65 561.25 27.7 562.65 27.8 562.7 27.75 562.7 27.8 563.35 27.9 565.05 27.1 565.3 26.95 567.05 26.05 Q568.25 25.7 568.8 26.05 L569.6 26.85 570.6 27.45 585.3 27.4 586.45 27.65 M600.8 53.9 L600.7 53.65 600.8 53.4 607.45 53.4 607.7 53.45 607.7 53.7 606.95 54.15 Q606.7 54.15 606.75 54.05 L600.8 53.9 M592.3 41.15 L592.55 41.5 592.3 41.65 541.9 41.65 541.8 41.4 542.05 41.15 592.3 41.15 M472.2 6.05 L472.45 5.8 534.1 5.75 534.5 5.65 Q534.9 5.65 534.95 5.85 L534.55 6.3 523.7 6.3 472.3 6.3 472.2 6.05 M624.0 63.8 L623.4 63.25 622.45 62.55 622.25 62.65 622.25 62.75 621.95 63.0 621.75 62.95 621.2 63.15 621.25 63.15 621.75 63.3 621.95 63.45 623.5 63.55 624.0 63.8 M623.95 62.7 L623.8 62.25 623.3 62.25 623.25 62.25 623.75 62.75 623.95 62.7 M626.25 62.5 L626.95 62.45 624.55 62.25 624.8 62.65 625.0 62.65 625.45 62.75 626.25 62.5 M623.2 50.65 L623.1 50.9 612.4 50.9 612.3 50.65 612.4 50.4 Q623.2 50.4 623.2 50.65 M523.55 22.25 L523.55 22.05 523.65 21.8 534.55 21.8 534.8 22.0 534.65 22.2 534.35 22.15 523.55 22.25 M502.7 25.4 L502.6 25.65 469.55 25.65 469.45 25.4 469.55 25.15 502.6 25.2 502.7 25.4 M498.45 56.55 L498.55 56.3 536.7 56.35 536.8 56.55 536.7 56.8 498.55 56.8 498.45 56.55 M498.7 49.8 L498.6 50.05 487.9 50.05 487.8 49.8 487.9 49.55 Q498.7 49.55 498.7 49.8 M497.3 61.4 Q497.5 61.05 497.8 61.05 L498.15 61.1 Q500.2 60.65 502.05 61.05 503.1 61.3 503.45 61.55 L503.6 61.55 503.65 61.55 536.85 61.6 536.95 61.8 536.85 62.05 504.1 62.05 503.5 62.15 503.4 62.15 501.9 62.3 501.35 62.3 500.45 62.35 500.45 62.45 500.45 62.8 500.4 62.9 501.4 62.65 502.55 62.35 502.55 62.75 501.4 63.15 499.55 63.55 497.05 63.25 496.05 62.65 496.1 62.4 494.6 62.35 493.45 62.55 492.95 62.3 493.0 62.15 479.9 62.15 479.8 61.9 479.9 61.65 Q489.8 61.6 492.3 61.7 L493.45 61.9 493.45 62.0 496.55 61.55 497.3 61.4 M466.2 2.1 L466.3 2.3 466.2 2.55 445.55 2.55 445.45 2.3 445.55 2.05 466.2 2.1 M498.8 61.4 L498.75 61.4 499.25 61.9 499.45 61.85 499.3 61.4 498.8 61.4 M500.3 61.8 L500.5 61.8 500.95 61.9 501.75 61.65 502.45 61.6 500.05 61.4 500.3 61.8 M497.95 61.7 L497.75 61.8 497.75 61.9 497.45 62.15 497.25 62.1 496.7 62.3 496.75 62.3 497.25 62.45 497.45 62.6 499.0 62.7 499.5 62.95 498.9 62.4 497.95 61.7 M455.45 11.9 L419.65 11.9 417.65 11.9 417.55 11.65 417.65 11.4 440.8 11.4 457.7 11.45 463.55 11.65 463.45 11.9 455.45 11.9 M460.8 26.55 Q461.95 26.55 461.95 26.8 L461.85 27.05 451.5 27.15 451.7 27.4 451.3 28.05 451.05 27.9 451.0 27.8 445.9 27.8 444.95 28.4 Q443.55 29.15 442.45 29.15 L440.8 29.0 Q440.05 28.8 440.05 28.4 L440.15 28.15 440.45 28.15 440.7 28.4 440.8 28.45 442.4 28.6 Q443.95 28.6 444.95 28.0 L445.15 27.8 445.05 27.65 442.95 27.9 Q441.2 27.9 441.2 27.35 441.2 25.7 443.3 26.05 445.45 26.4 445.45 27.1 L445.4 27.3 445.8 27.3 445.95 27.15 446.1 27.25 448.35 27.15 447.6 27.15 Q446.1 27.15 444.9 26.4 443.7 25.65 442.75 25.65 442.3 25.65 440.8 26.55 L440.6 26.65 438.9 27.55 439.2 27.55 439.3 27.6 439.45 27.8 439.35 28.1 439.0 28.15 435.55 28.05 435.45 27.8 435.55 27.55 438.3 27.55 438.05 27.4 415.55 27.3 415.45 27.05 415.55 26.8 436.75 26.85 438.15 26.95 438.2 26.9 438.2 26.95 438.85 27.05 440.55 26.25 440.8 26.1 Q442.25 25.3 442.55 25.2 443.75 24.85 444.3 25.2 L445.1 26.0 446.1 26.6 460.8 26.55 M464.4 33.9 L465.35 33.9 467.2 34.15 467.1 34.4 428.8 34.4 428.7 34.15 428.8 33.9 440.8 33.9 442.75 33.9 459.85 33.9 464.4 33.9 M467.8 40.3 L468.05 40.65 467.8 40.8 417.4 40.8 417.3 40.55 417.55 40.3 467.8 40.3 M476.3 53.05 L476.2 52.8 476.3 52.55 482.95 52.55 483.2 52.6 483.2 52.85 482.45 53.3 Q482.2 53.3 482.25 53.2 L476.3 53.05" fill="#8f6a34" fill-rule="evenodd" stroke="none"/>
    <path d="M659.15 23.05 Q660.2 23.1 660.2 23.4 L660.1 23.65 645.05 23.65 644.95 23.4 645.05 23.15 648.05 23.1 658.85 23.0 659.15 23.05 M628.55 25.5 L628.45 25.75 595.8 25.75 595.7 25.5 595.8 25.25 628.45 25.3 628.55 25.5 M636.6 43.2 L639.3 43.4 639.2 43.65 606.8 43.65 606.7 43.4 606.8 43.15 636.6 43.2 M544.15 12.75 L579.95 12.75 580.2 13.1 579.55 13.4 544.15 13.25 544.05 13.0 544.15 12.75 M588.85 34.75 L588.25 34.75 584.35 34.75 584.3 34.5 584.4 34.25 588.95 34.5 588.9 34.75 588.85 34.75 M579.3 51.65 L579.55 51.8 579.45 52.15 578.8 52.25 574.8 52.15 574.7 51.9 574.8 51.65 579.3 51.65 M523.55 22.25 L534.35 22.15 534.65 22.2 Q535.7 22.25 535.7 22.55 L535.6 22.8 520.55 22.8 520.45 22.55 520.55 22.3 523.55 22.25 M503.95 24.45 L504.05 24.65 503.95 24.9 471.3 24.9 471.2 24.65 471.3 24.4 503.95 24.45 M514.8 42.55 L514.7 42.8 482.3 42.8 482.2 42.55 482.3 42.3 512.1 42.35 514.8 42.55 M455.45 11.9 L455.7 12.25 455.05 12.55 419.65 12.4 419.55 12.15 419.65 11.9 455.45 11.9 M459.85 33.9 L459.8 33.65 459.9 33.4 464.45 33.65 464.4 33.9 459.85 33.9 M454.8 50.8 L455.05 50.95 454.95 51.3 454.3 51.4 450.3 51.3 450.2 51.05 450.3 50.8 454.8 50.8" fill="#a3783a" fill-rule="evenodd" stroke="none"/>
    <path d="M80.35 11.1 L72.35 11.1 72.25 10.85 78.1 10.65 95.0 10.6 118.15 10.6 118.25 10.85 118.15 11.1 116.15 11.1 80.35 11.1 M90.35 1.5 L90.25 1.75 69.6 1.75 69.5 1.5 69.6 1.3 90.25 1.25 90.35 1.5 M93.25 24.4 L95.0 25.3 95.25 25.45 96.95 26.25 97.6 26.15 97.6 26.1 97.65 26.15 99.05 26.05 120.25 26.0 120.35 26.25 120.25 26.5 97.75 26.6 97.5 26.75 100.25 26.75 100.35 27.0 100.25 27.25 96.8 27.35 96.45 27.3 96.35 27.0 96.5 26.8 96.6 26.75 96.9 26.75 95.2 25.85 95.0 25.75 Q93.5 24.85 93.05 24.85 92.1 24.85 90.9 25.6 89.7 26.35 88.2 26.35 L87.45 26.35 89.7 26.45 89.85 26.35 90.0 26.5 90.4 26.5 90.35 26.3 Q90.35 25.6 92.5 25.25 94.6 24.9 94.6 26.55 94.6 27.1 92.85 27.1 L90.75 26.85 90.65 27.0 90.85 27.2 Q91.85 27.8 93.4 27.8 L95.0 27.65 95.1 27.6 95.35 27.35 95.65 27.35 95.75 27.6 Q95.75 28.0 95.0 28.2 L93.35 28.35 Q92.25 28.35 90.85 27.6 L89.9 27.0 84.8 27.0 84.75 27.1 84.5 27.25 84.1 26.6 84.3 26.35 73.95 26.25 73.85 26.0 Q73.85 25.75 75.0 25.75 L89.7 25.8 90.7 25.2 91.5 24.4 Q92.05 24.05 93.25 24.4 M118.4 40.0 L68.0 40.0 67.75 39.85 Q67.75 39.6 68.0 39.5 L118.25 39.5 118.5 39.75 118.4 40.0 M75.95 33.1 L95.0 33.1 107.0 33.1 107.1 33.35 107.0 33.6 68.7 33.6 68.6 33.35 71.45 33.1 72.05 33.1 75.95 33.1 M63.5 5.5 L1.25 5.5 0.85 5.05 Q0.9 4.85 1.3 4.85 L1.7 4.95 63.35 5.0 63.6 5.25 63.5 5.5 M66.35 24.6 L66.25 24.85 33.2 24.85 33.1 24.6 33.2 24.4 66.25 24.35 66.35 24.6 M48.0 49.0 L47.9 49.25 37.2 49.25 37.1 49.0 Q37.1 48.75 47.9 48.75 L48.0 49.0 M12.25 21.45 L1.45 21.35 1.15 21.4 1.0 21.2 1.25 21.0 12.15 21.0 12.25 21.25 12.25 21.45 M32.15 60.75 L32.2 60.75 32.35 60.75 Q32.7 60.5 33.75 60.25 35.6 59.85 37.65 60.3 L38.0 60.25 Q38.3 60.25 38.5 60.6 L39.25 60.75 42.35 61.2 42.35 61.1 43.5 60.9 Q46.0 60.8 55.9 60.85 L56.0 61.1 55.9 61.35 42.8 61.35 42.85 61.5 42.35 61.75 41.2 61.55 39.7 61.6 39.75 61.85 38.75 62.45 36.25 62.75 34.4 62.35 33.25 61.95 33.25 61.55 34.4 61.85 35.4 62.1 35.35 62.0 35.35 61.65 35.35 61.55 34.45 61.5 33.9 61.5 32.4 61.35 32.3 61.35 31.7 61.25 -1.05 61.25 -1.15 61.0 -1.05 60.8 32.15 60.75 M34.85 61.1 L35.3 61.0 35.5 61.0 35.75 60.6 33.35 60.8 34.05 60.85 34.85 61.1 M37.25 56.0 L-0.9 56.0 -1.0 55.75 -0.9 55.55 37.25 55.5 37.35 55.75 37.25 56.0 M36.9 61.6 L36.3 62.15 36.8 61.9 38.35 61.8 38.55 61.65 39.05 61.5 39.1 61.5 38.55 61.3 38.35 61.35 38.05 61.1 38.05 61.0 37.85 60.9 Q37.45 61.05 36.9 61.6 M36.35 61.05 L36.55 61.1 37.05 60.6 37.0 60.6 36.5 60.6 36.35 61.05 M59.5 52.25 L53.55 52.4 53.35 52.5 52.6 52.05 52.6 51.8 52.85 51.75 59.5 51.75 59.6 52.0 59.5 52.25" fill="#8f6a34" fill-rule="evenodd" stroke="none"/>
    <path d="M116.15 11.1 L116.25 11.35 116.15 11.6 80.75 11.75 80.1 11.45 Q80.1 11.2 80.35 11.1 L116.15 11.1 M71.45 33.1 L71.35 32.85 75.9 32.6 76.0 32.85 75.95 33.1 72.05 33.1 71.45 33.1 M85.6 50.25 L85.5 50.5 81.5 50.6 80.85 50.5 80.75 50.15 81.0 50.0 85.5 50.0 85.6 50.25 M64.5 24.1 L31.85 24.1 31.75 23.85 31.85 23.65 64.5 23.6 64.6 23.85 64.5 24.1 M53.6 41.75 L53.5 42.0 21.1 42.0 21.0 41.75 23.7 41.55 53.5 41.5 53.6 41.75 M1.15 21.4 L1.45 21.35 12.25 21.45 15.25 21.5 15.35 21.75 15.25 22.0 0.2 22.0 0.1 21.75 Q0.1 21.45 1.15 21.4" fill="#a3783a" fill-rule="evenodd" stroke="none"/>
    <path d="M122.85 -1.0 L122.7 3.9 122.45 4.4 Q122.1 4.25 122.1 1.8 L122.15 0.25 Q122.2 -0.55 122.6 -1.25 L122.85 -1.0 M123.7 5.0 L123.7 16.25 123.75 18.95 123.45 21.75 Q123.15 20.65 123.15 18.95 L123.2 16.15 123.2 10.6 123.2 5.0 123.15 2.1 Q123.15 0.35 123.45 -0.6 L123.75 2.15 123.7 5.0 M123.1 17.4 L123.1 23.6 122.85 23.75 Q122.55 22.6 122.6 20.55 L122.45 17.3 123.05 17.2 123.1 17.4 M122.6 29.65 L122.85 29.9 122.65 30.4 122.85 32.0 122.75 33.45 122.6 33.5 Q122.15 33.05 122.05 32.15 L122.1 30.75 122.2 30.2 122.6 29.65 M124.1 36.15 L124.1 49.85 123.85 50.0 Q123.1 49.15 123.3 46.75 L123.6 43.0 123.6 39.45 123.55 37.55 Q123.55 36.55 123.85 35.9 L124.1 36.15 M121.6 35.1 L121.55 44.55 121.35 44.65 Q121.05 42.75 121.05 40.05 L121.1 35.4 120.95 26.15 121.0 25.75 121.5 25.7 121.6 35.1 M106.65 68.7 L91.7 68.9 91.55 68.95 Q91.25 68.95 90.65 68.55 90.7 68.25 90.9 68.2 L106.65 68.2 106.75 68.45 106.65 68.7 M86.95 69.8 L86.5 70.2 86.25 70.2 86.15 69.95 Q86.15 69.45 87.0 69.2 87.8 68.95 87.5 69.7 L88.4 69.7 88.5 69.95 88.4 70.2 87.25 70.2 86.95 69.8 M95.65 67.6 L95.55 67.85 80.85 67.85 80.75 67.6 Q80.75 67.35 81.85 67.3 84.65 67.15 95.55 67.35 L95.65 67.6 M122.25 50.85 L122.1 50.9 Q121.85 50.8 121.85 49.9 121.85 48.9 122.1 48.75 L122.35 49.85 122.25 50.85 M121.9 57.2 L121.7 57.25 Q121.45 56.85 121.45 55.4 L121.5 53.5 122.05 53.55 122.1 54.1 121.9 57.2 M20.75 67.2 L20.85 66.75 42.05 66.85 42.15 67.1 42.05 67.35 21.0 67.35 20.75 67.2 M34.9 69.2 L33.25 69.2 33.15 68.95 Q33.15 68.6 33.75 68.6 L34.9 68.7 35.0 68.95 34.9 69.2 M5.15 68.95 L7.3 69.1 7.4 69.35 7.3 69.6 4.95 69.6 4.8 69.7 4.6 69.65 4.5 69.45 Q4.5 69.1 5.15 68.95 M15.75 68.2 L15.65 68.45 12.85 68.45 12.75 68.2 15.65 67.95 15.75 68.2 M14.65 66.6 L-3.75 66.6 -3.85 66.35 -2.3 66.15 14.65 66.1 14.75 66.35 14.65 66.6 M61.9 69.35 L61.8 69.6 42.3 69.7 42.0 69.55 Q42.0 69.25 42.25 69.1 L61.8 69.1 61.9 69.35 M73.15 67.85 L46.5 67.85 46.4 67.6 Q46.4 67.35 73.15 67.35 L73.25 67.6 73.15 67.85 M71.75 69.1 L71.65 68.85 Q71.65 68.25 73.15 68.6 L73.25 68.85 73.15 69.1 71.75 69.1" fill="#5c4434" fill-rule="evenodd" stroke="none"/>
  </g>
  <defs>
    <linearGradient gradientTransform="matrix(0.0032, -0.0119, -0.0141, -0.0038, 529.75, 90.95)" gradientUnits="userSpaceOnUse" id="gradient0" spreadMethod="pad" x1="-819.2" x2="819.2">
      <stop offset="0.0" stop-color="#ffe600"/>
      <stop offset="0.1607843137254902" stop-color="#cab502"/>
      <stop offset="0.2901960784313726" stop-color="#ffe600"/>
      <stop offset="0.5019607843137255" stop-color="#fffbd5"/>
      <stop offset="0.7137254901960784" stop-color="#a08f01"/>
      <stop offset="1.0" stop-color="#ffe600"/>
    </linearGradient>
    <linearGradient gradientTransform="matrix(0.0011, 0.0043, 0.0014, -4.0E-4, 518.0, 94.8)" gradientUnits="userSpaceOnUse" id="gradient1" spreadMethod="pad" x1="-819.2" x2="819.2">
      <stop offset="0.0" stop-color="#ffe600"/>
      <stop offset="0.1607843137254902" stop-color="#cab502"/>
      <stop offset="0.2901960784313726" stop-color="#ffe600"/>
      <stop offset="0.5019607843137255" stop-color="#fffbd5"/>
      <stop offset="0.7137254901960784" stop-color="#a08f01"/>
      <stop offset="1.0" stop-color="#ffe600"/>
    </linearGradient>
    <linearGradient gradientTransform="matrix(0.0029, 0.005, 0.0041, -0.0023, 522.15, 101.35)" gradientUnits="userSpaceOnUse" id="gradient2" spreadMethod="pad" x1="-819.2" x2="819.2">
      <stop offset="0.0" stop-color="#ffe600"/>
      <stop offset="0.1607843137254902" stop-color="#cab502"/>
      <stop offset="0.2901960784313726" stop-color="#ffe600"/>
      <stop offset="0.5019607843137255" stop-color="#fffbd5"/>
      <stop offset="0.7137254901960784" stop-color="#a08f01"/>
      <stop offset="1.0" stop-color="#ffe600"/>
    </linearGradient>
    <linearGradient gradientTransform="matrix(-0.0045, 0.0012, 4.0E-4, 0.0015, 524.25, 103.95)" gradientUnits="userSpaceOnUse" id="gradient3" spreadMethod="pad" x1="-819.2" x2="819.2">
      <stop offset="0.0" stop-color="#ffe600"/>
      <stop offset="0.1607843137254902" stop-color="#cab502"/>
      <stop offset="0.2901960784313726" stop-color="#ffe600"/>
      <stop offset="0.5019607843137255" stop-color="#fffbd5"/>
      <stop offset="0.7137254901960784" stop-color="#a08f01"/>
      <stop offset="1.0" stop-color="#ffe600"/>
    </linearGradient>
    <linearGradient gradientTransform="matrix(0.0041, 0.0, 0.0, -0.0031, 519.45, 103.65)" gradientUnits="userSpaceOnUse" id="gradient4" spreadMethod="pad" x1="-819.2" x2="819.2">
      <stop offset="0.0" stop-color="#ffe600"/>
      <stop offset="0.1607843137254902" stop-color="#cab502"/>
      <stop offset="0.2901960784313726" stop-color="#ffe600"/>
      <stop offset="0.5019607843137255" stop-color="#fffbd5"/>
      <stop offset="0.7137254901960784" stop-color="#a08f01"/>
      <stop offset="1.0" stop-color="#ffe600"/>
    </linearGradient>
    <linearGradient gradientTransform="matrix(0.0, -0.0501, 0.4159, 0.0, 311.7, 30.05)" gradientUnits="userSpaceOnUse" id="gradient5" spreadMethod="pad" x1="-819.2" x2="819.2">
      <stop offset="0.0" stop-color="#ffffff" stop-opacity="0.0"/>
      <stop offset="0.4392156862745098" stop-color="#ffffff" stop-opacity="0.24313726"/>
      <stop offset="1.0" stop-color="#ffffff" stop-opacity="0.4117647"/>
    </linearGradient>
    <linearGradient gradientTransform="matrix(-0.0032, -0.0119, 0.0141, -0.0038, 111.3, 56.05)" gradientUnits="userSpaceOnUse" id="gradient6" spreadMethod="pad" x1="-819.2" x2="819.2">
      <stop offset="0.0" stop-color="#ffe600"/>
      <stop offset="0.1607843137254902" stop-color="#cab502"/>
      <stop offset="0.2901960784313726" stop-color="#ffe600"/>
      <stop offset="0.5019607843137255" stop-color="#fffbd5"/>
      <stop offset="0.7137254901960784" stop-color="#a08f01"/>
      <stop offset="1.0" stop-color="#ffe600"/>
    </linearGradient>
    <linearGradient gradientTransform="matrix(-0.0029, 0.005, -0.0041, -0.0023, 118.9, 66.45)" gradientUnits="userSpaceOnUse" id="gradient7" spreadMethod="pad" x1="-819.2" x2="819.2">
      <stop offset="0.0" stop-color="#ffe600"/>
      <stop offset="0.1607843137254902" stop-color="#cab502"/>
      <stop offset="0.2901960784313726" stop-color="#ffe600"/>
      <stop offset="0.5019607843137255" stop-color="#fffbd5"/>
      <stop offset="0.7137254901960784" stop-color="#a08f01"/>
      <stop offset="1.0" stop-color="#ffe600"/>
    </linearGradient>
    <linearGradient gradientTransform="matrix(-0.0041, 0.0, 0.0, -0.0031, 121.6, 68.75)" gradientUnits="userSpaceOnUse" id="gradient8" spreadMethod="pad" x1="-819.2" x2="819.2">
      <stop offset="0.0" stop-color="#ffe600"/>
      <stop offset="0.1607843137254902" stop-color="#cab502"/>
      <stop offset="0.2901960784313726" stop-color="#ffe600"/>
      <stop offset="0.5019607843137255" stop-color="#fffbd5"/>
      <stop offset="0.7137254901960784" stop-color="#a08f01"/>
      <stop offset="1.0" stop-color="#ffe600"/>
    </linearGradient>
    <linearGradient gradientTransform="matrix(-0.0011, 0.0043, -0.0014, -4.0E-4, 123.05, 59.9)" gradientUnits="userSpaceOnUse" id="gradient9" spreadMethod="pad" x1="-819.2" x2="819.2">
      <stop offset="0.0" stop-color="#ffe600"/>
      <stop offset="0.1607843137254902" stop-color="#cab502"/>
      <stop offset="0.2901960784313726" stop-color="#ffe600"/>
      <stop offset="0.5019607843137255" stop-color="#fffbd5"/>
      <stop offset="0.7137254901960784" stop-color="#a08f01"/>
      <stop offset="1.0" stop-color="#ffe600"/>
    </linearGradient>
    <linearGradient gradientTransform="matrix(0.0045, 0.0012, -4.0E-4, 0.0015, 116.8, 69.05)" gradientUnits="userSpaceOnUse" id="gradient10" spreadMethod="pad" x1="-819.2" x2="819.2">
      <stop offset="0.0" stop-color="#ffe600"/>
      <stop offset="0.1607843137254902" stop-color="#cab502"/>
      <stop offset="0.2901960784313726" stop-color="#ffe600"/>
      <stop offset="0.5019607843137255" stop-color="#fffbd5"/>
      <stop offset="0.7137254901960784" stop-color="#a08f01"/>
      <stop offset="1.0" stop-color="#ffe600"/>
    </linearGradient>
    <linearGradient gradientTransform="matrix(-0.0032, -0.0119, 0.0141, -0.0038, 111.3, 56.05)" gradientUnits="userSpaceOnUse" id="gradient11" spreadMethod="pad" x1="-819.2" x2="819.2">
      <stop offset="0.0" stop-color="#ffe600"/>
      <stop offset="0.1607843137254902" stop-color="#cab502"/>
      <stop offset="0.2901960784313726" stop-color="#ffe600"/>
      <stop offset="0.5019607843137255" stop-color="#fffbd5"/>
      <stop offset="0.7137254901960784" stop-color="#a08f01"/>
      <stop offset="1.0" stop-color="#ffe600"/>
    </linearGradient>
    <linearGradient gradientTransform="matrix(-0.0029, 0.005, -0.0041, -0.0023, 118.9, 66.45)" gradientUnits="userSpaceOnUse" id="gradient12" spreadMethod="pad" x1="-819.2" x2="819.2">
      <stop offset="0.0" stop-color="#ffe600"/>
      <stop offset="0.1607843137254902" stop-color="#cab502"/>
      <stop offset="0.2901960784313726" stop-color="#ffe600"/>
      <stop offset="0.5019607843137255" stop-color="#fffbd5"/>
      <stop offset="0.7137254901960784" stop-color="#a08f01"/>
      <stop offset="1.0" stop-color="#ffe600"/>
    </linearGradient>
    <linearGradient gradientTransform="matrix(0.0045, 0.0012, -4.0E-4, 0.0015, 116.8, 69.05)" gradientUnits="userSpaceOnUse" id="gradient13" spreadMethod="pad" x1="-819.2" x2="819.2">
      <stop offset="0.0" stop-color="#ffe600"/>
      <stop offset="0.1607843137254902" stop-color="#cab502"/>
      <stop offset="0.2901960784313726" stop-color="#ffe600"/>
      <stop offset="0.5019607843137255" stop-color="#fffbd5"/>
      <stop offset="0.7137254901960784" stop-color="#a08f01"/>
      <stop offset="1.0" stop-color="#ffe600"/>
    </linearGradient>
    <linearGradient gradientTransform="matrix(-0.0041, 0.0, 0.0, -0.0031, 121.6, 68.75)" gradientUnits="userSpaceOnUse" id="gradient14" spreadMethod="pad" x1="-819.2" x2="819.2">
      <stop offset="0.0" stop-color="#ffe600"/>
      <stop offset="0.1607843137254902" stop-color="#cab502"/>
      <stop offset="0.2901960784313726" stop-color="#ffe600"/>
      <stop offset="0.5019607843137255" stop-color="#fffbd5"/>
      <stop offset="0.7137254901960784" stop-color="#a08f01"/>
      <stop offset="1.0" stop-color="#ffe600"/>
    </linearGradient>
    <linearGradient gradientTransform="matrix(-0.0011, 0.0043, -0.0014, -4.0E-4, 123.05, 59.9)" gradientUnits="userSpaceOnUse" id="gradient15" spreadMethod="pad" x1="-819.2" x2="819.2">
      <stop offset="0.0" stop-color="#ffe600"/>
      <stop offset="0.1607843137254902" stop-color="#cab502"/>
      <stop offset="0.2901960784313726" stop-color="#ffe600"/>
      <stop offset="0.5019607843137255" stop-color="#fffbd5"/>
      <stop offset="0.7137254901960784" stop-color="#a08f01"/>
      <stop offset="1.0" stop-color="#ffe600"/>
    </linearGradient>
    <linearGradient gradientTransform="matrix(0.0032, -0.0119, -0.0141, -0.0038, 423.25, 56.7)" gradientUnits="userSpaceOnUse" id="gradient16" spreadMethod="pad" x1="-819.2" x2="819.2">
      <stop offset="0.0" stop-color="#ffe600"/>
      <stop offset="0.1607843137254902" stop-color="#cab502"/>
      <stop offset="0.2901960784313726" stop-color="#ffe600"/>
      <stop offset="0.5019607843137255" stop-color="#fffbd5"/>
      <stop offset="0.7137254901960784" stop-color="#a08f01"/>
      <stop offset="1.0" stop-color="#ffe600"/>
    </linearGradient>
    <linearGradient gradientTransform="matrix(-0.0045, 0.0012, 4.0E-4, 0.0015, 417.75, 69.7)" gradientUnits="userSpaceOnUse" id="gradient17" spreadMethod="pad" x1="-819.2" x2="819.2">
      <stop offset="0.0" stop-color="#ffe600"/>
      <stop offset="0.1607843137254902" stop-color="#cab502"/>
      <stop offset="0.2901960784313726" stop-color="#ffe600"/>
      <stop offset="0.5019607843137255" stop-color="#fffbd5"/>
      <stop offset="0.7137254901960784" stop-color="#a08f01"/>
      <stop offset="1.0" stop-color="#ffe600"/>
    </linearGradient>
    <linearGradient gradientTransform="matrix(0.0011, 0.0043, 0.0014, -4.0E-4, 411.5, 60.55)" gradientUnits="userSpaceOnUse" id="gradient18" spreadMethod="pad" x1="-819.2" x2="819.2">
      <stop offset="0.0" stop-color="#ffe600"/>
      <stop offset="0.1607843137254902" stop-color="#cab502"/>
      <stop offset="0.2901960784313726" stop-color="#ffe600"/>
      <stop offset="0.5019607843137255" stop-color="#fffbd5"/>
      <stop offset="0.7137254901960784" stop-color="#a08f01"/>
      <stop offset="1.0" stop-color="#ffe600"/>
    </linearGradient>
    <linearGradient gradientTransform="matrix(0.0029, 0.005, 0.0041, -0.0023, 415.65, 67.1)" gradientUnits="userSpaceOnUse" id="gradient19" spreadMethod="pad" x1="-819.2" x2="819.2">
      <stop offset="0.0" stop-color="#ffe600"/>
      <stop offset="0.1607843137254902" stop-color="#cab502"/>
      <stop offset="0.2901960784313726" stop-color="#ffe600"/>
      <stop offset="0.5019607843137255" stop-color="#fffbd5"/>
      <stop offset="0.7137254901960784" stop-color="#a08f01"/>
      <stop offset="1.0" stop-color="#ffe600"/>
    </linearGradient>
    <linearGradient gradientTransform="matrix(0.0041, 0.0, 0.0, -0.0031, 412.95, 69.4)" gradientUnits="userSpaceOnUse" id="gradient20" spreadMethod="pad" x1="-819.2" x2="819.2">
      <stop offset="0.0" stop-color="#ffe600"/>
      <stop offset="0.1607843137254902" stop-color="#cab502"/>
      <stop offset="0.2901960784313726" stop-color="#ffe600"/>
      <stop offset="0.5019607843137255" stop-color="#fffbd5"/>
      <stop offset="0.7137254901960784" stop-color="#a08f01"/>
      <stop offset="1.0" stop-color="#ffe600"/>
    </linearGradient>
  </defs>
</svg>
