<?xml version="1.0" encoding="UTF-8" standalone="no"?>
<svg xmlns:xlink="http://www.w3.org/1999/xlink" height="27.2px" width="64.5px" xmlns="http://www.w3.org/2000/svg">
  <g transform="matrix(1.0, 0.0, 0.0, 1.0, -6.9, -7.6)">
    <path d="M71.4 18.8 L56.4 19.7 56.8 19.8 Q57.35 19.9 57.75 20.25 L57.8 20.4 Q55.8 22.25 52.8 21.45 L52.85 21.6 53.0 22.05 52.95 22.5 52.9 22.8 Q52.05 23.4 51.1 22.8 L49.55 21.85 49.4 21.85 49.4 22.0 49.35 22.45 49.2 22.9 49.0 23.15 Q48.15 23.4 47.65 22.8 L46.75 22.15 46.4 22.2 45.9 21.85 45.6 23.55 Q44.6 22.5 44.65 20.35 44.7 18.65 45.2 17.5 L45.2 17.0 45.2 16.85 45.2 15.95 45.2 15.8 Q45.1 15.3 45.25 14.85 45.15 14.0 45.5 12.95 46.15 10.95 47.4 9.6 48.15 11.2 47.2 13.1 L46.75 14.2 48.8 12.45 50.9 10.15 51.05 10.0 51.8 8.75 Q52.3 7.8 53.25 7.9 53.6 8.45 53.15 8.85 L52.35 9.6 Q51.85 10.05 51.75 10.75 L55.6 9.1 58.2 7.6 Q59.9 8.25 57.2 9.9 55.55 10.85 54.5 12.4 L54.4 12.55 64.45 13.05 64.6 13.2 Q61.4 13.05 58.8 14.45 64.65 15.9 70.3 18.05 71.0 18.3 71.4 18.8 M50.35 11.85 L50.05 12.1 50.1 12.15 50.35 11.85" fill="#ffffff" fill-rule="evenodd" stroke="none"/>
    <path d="M18.8 11.6 L19.3 11.8 Q19.75 11.65 19.95 12.05 19.65 13.05 18.65 13.7 L17.5 14.65 17.4 14.75 16.6 14.7 Q16.2 14.75 16.2 14.4 16.4 13.55 17.0 12.9 L18.45 11.75 18.8 11.6 M11.1 28.0 Q10.2 28.45 9.2 27.8 L7.25 26.75 7.2 26.65 Q7.95 26.4 7.4 26.1 L6.9 25.4 Q6.85 25.05 7.2 25.0 8.3 25.4 9.35 26.05 10.5 26.8 11.15 27.9 L11.1 28.0 M12.2 33.25 L12.6 33.6 Q12.2 34.5 11.05 34.5 L9.4 34.8 9.2 34.75 8.85 34.5 8.4 34.5 8.35 34.5 7.8 34.55 7.4 34.35 Q7.45 33.85 8.0 33.55 L9.1 33.1 9.75 32.85 10.0 32.8 10.15 32.85 10.4 32.8 11.0 32.85 11.15 32.9 11.2 32.85 Q11.95 32.6 12.2 33.2 L12.2 33.25" fill="#000000" fill-rule="evenodd" stroke="none"/>
  </g>
</svg>
