<?xml version="1.0" encoding="UTF-8" standalone="no"?>
<svg xmlns:xlink="http://www.w3.org/1999/xlink" height="18.3px" width="60.95px" xmlns="http://www.w3.org/2000/svg">
  <g transform="matrix(1.0, 0.0, 0.0, 1.0, -8.4, -8.8)">
    <path d="M69.35 22.35 L54.35 23.25 54.75 23.35 55.7 23.8 55.75 23.95 Q53.75 25.8 50.75 25.0 L50.8 25.15 50.95 25.6 50.9 26.05 50.85 26.35 Q50.0 26.95 49.05 26.35 L47.5 25.4 47.35 25.4 47.35 25.55 47.3 26.0 47.15 26.45 46.95 26.7 Q46.1 26.95 45.6 26.35 L44.7 25.7 44.35 25.75 43.85 25.4 43.55 27.1 Q42.55 26.05 42.6 23.9 42.65 22.2 43.15 21.05 L43.15 20.55 43.15 20.4 43.15 19.5 43.15 19.35 Q43.05 18.85 43.2 18.4 43.1 17.55 43.45 16.5 44.1 14.5 45.35 13.15 46.1 14.75 45.15 16.65 L44.7 17.75 46.75 16.0 48.85 13.7 49.0 13.55 49.75 12.3 Q50.25 11.35 51.2 11.45 51.55 12.0 51.1 12.4 L50.3 13.15 Q49.8 13.6 49.7 14.3 L53.55 12.65 Q55.0 12.0 56.15 11.15 57.85 11.8 55.15 13.45 53.5 14.4 52.45 15.95 L52.35 16.1 62.4 16.6 62.55 16.75 Q59.35 16.6 56.75 18.0 62.6 19.45 68.25 21.6 68.95 21.85 69.35 22.35 M48.05 15.7 L48.3 15.4 48.0 15.65 48.05 15.7" fill="#ffffff" fill-rule="evenodd" stroke="none"/>
    <path d="M19.55 10.7 Q19.9 11.7 19.7 12.8 L19.45 12.9 Q19.05 12.65 18.75 12.9 L18.6 13.0 Q17.6 12.3 17.25 11.15 L16.6 9.25 18.15 9.45 18.4 9.0 18.6 8.8 19.55 10.7 M8.4 13.4 Q8.9 12.7 9.85 12.55 L10.4 12.45 10.4 12.4 12.05 13.45 Q12.85 13.95 13.75 14.3 L13.8 14.4 10.1 14.6 Q9.05 14.2 8.4 13.4" fill="#000000" fill-rule="evenodd" stroke="none"/>
  </g>
</svg>
