<?xml version="1.0" encoding="UTF-8" standalone="no"?>
<svg xmlns:xlink="http://www.w3.org/1999/xlink" height="23.65px" width="62.45px" xmlns="http://www.w3.org/2000/svg">
  <g transform="matrix(1.0, 0.0, 0.0, 1.0, -6.9, -11.15)">
    <path d="M69.35 22.35 L54.35 23.25 54.75 23.35 55.7 23.8 55.75 23.95 Q53.75 25.8 50.75 25.0 L50.8 25.15 50.95 25.6 50.9 26.05 50.85 26.35 Q50.0 26.95 49.05 26.35 L47.5 25.4 47.35 25.4 47.35 25.55 47.3 26.0 47.15 26.45 46.95 26.7 Q46.1 26.95 45.6 26.35 L44.7 25.7 44.35 25.75 43.85 25.4 43.55 27.1 Q42.55 26.05 42.6 23.9 42.65 22.2 43.15 21.05 L43.15 20.55 43.15 20.4 43.15 19.5 43.15 19.35 Q43.05 18.85 43.2 18.4 43.1 17.55 43.45 16.5 44.1 14.5 45.35 13.15 46.1 14.75 45.15 16.65 L44.7 17.75 46.75 16.0 48.85 13.7 49.0 13.55 49.75 12.3 Q50.25 11.35 51.2 11.45 51.55 12.0 51.1 12.4 L50.3 13.15 Q49.8 13.6 49.7 14.3 L53.55 12.65 Q55.0 12.0 56.15 11.15 57.85 11.8 55.15 13.45 53.5 14.4 52.45 15.95 L52.35 16.1 62.4 16.6 62.55 16.75 Q59.35 16.6 56.75 18.0 62.6 19.45 68.25 21.6 68.95 21.85 69.35 22.35 M48.05 15.7 L48.3 15.4 48.0 15.65 48.05 15.7" fill="#ffffff" fill-rule="evenodd" stroke="none"/>
    <path d="M18.8 11.6 L19.3 11.8 Q19.75 11.65 19.95 12.05 19.65 13.05 18.65 13.7 L17.5 14.65 17.4 14.75 16.6 14.7 Q16.2 14.75 16.2 14.4 16.4 13.55 17.0 12.9 L18.45 11.75 18.8 11.6 M11.1 28.0 Q10.2 28.45 9.2 27.8 L7.25 26.75 7.2 26.65 Q7.95 26.4 7.4 26.1 L6.9 25.4 Q6.85 25.05 7.2 25.0 8.3 25.4 9.35 26.05 10.5 26.8 11.15 27.9 L11.1 28.0 M12.2 33.25 L12.6 33.6 Q12.2 34.5 11.05 34.5 L9.4 34.8 9.2 34.75 8.85 34.5 8.4 34.5 8.35 34.5 7.8 34.55 7.4 34.35 Q7.45 33.85 8.0 33.55 L9.1 33.1 9.75 32.85 10.0 32.8 10.15 32.85 10.4 32.8 11.0 32.85 11.15 32.9 11.2 32.85 Q11.95 32.6 12.2 33.2 L12.2 33.25" fill="#000000" fill-rule="evenodd" stroke="none"/>
  </g>
</svg>
