<?xml version="1.0" encoding="UTF-8" standalone="no"?>
<svg xmlns:xlink="http://www.w3.org/1999/xlink" height="38.35px" width="48.85px" xmlns="http://www.w3.org/2000/svg">
  <g transform="matrix(1.0, 0.0, 0.0, 1.0, -7.3, -13.55)">
    <path d="M48.75 15.45 Q47.9 16.25 47.35 17.5 L47.3 17.65 52.55 18.05 52.6 18.2 Q50.95 18.05 49.6 19.2 52.65 20.4 55.6 22.2 L56.15 22.8 48.35 23.55 48.55 23.6 49.05 24.0 49.05 24.1 Q48.0 25.65 46.45 25.0 L46.5 25.1 46.55 25.5 46.55 25.85 46.5 26.1 Q46.05 26.6 45.55 26.1 L44.75 25.3 44.7 25.3 44.7 25.45 44.65 25.8 44.6 26.2 44.45 26.4 Q44.05 26.6 43.75 26.1 L43.3 25.55 43.1 25.6 42.85 25.3 42.7 26.7 Q42.2 25.85 42.2 24.1 L42.5 21.75 42.5 21.3 42.5 21.2 42.5 20.45 42.5 20.35 42.5 19.55 42.65 18.0 Q43.0 16.35 43.65 15.2 44.05 16.55 43.55 18.1 L43.3 19.0 44.35 17.55 45.45 15.65 45.55 15.55 45.95 14.5 Q46.2 13.75 46.7 13.8 46.85 14.25 46.65 14.6 L46.2 15.2 45.9 16.15 47.9 14.8 49.25 13.55 Q50.15 14.1 48.75 15.45 M45.05 17.3 L45.2 17.05 45.0 17.3 45.05 17.3" fill="#ffffff" fill-rule="evenodd" stroke="none"/>
    <path d="M10.7 29.4 Q9.5 30.65 7.95 31.05 L7.5 31.0 Q6.85 29.7 8.5 28.5 L10.4 27.2 Q12.4 27.7 10.7 29.4 M7.6 42.9 Q7.6 42.5 8.0 42.4 L10.15 42.85 Q11.4 43.35 12.25 44.15 L12.4 44.4 Q11.15 46.0 8.95 44.85 7.5 44.1 7.6 42.9 M11.2 51.9 L10.7 51.8 Q10.25 50.6 11.6 49.5 L14.0 47.6 Q16.1 48.35 14.25 50.5 13.0 51.95 11.2 51.9" fill="#000000" fill-rule="evenodd" stroke="none"/>
  </g>
</svg>
