<?xml version="1.0" encoding="UTF-8" standalone="no"?>
<svg xmlns:xlink="http://www.w3.org/1999/xlink" height="7.7px" width="7.55px" xmlns="http://www.w3.org/2000/svg">
  <g transform="matrix(1.0, 0.0, 0.0, 1.0, 3.75, 3.85)">
    <path d="M2.4 -3.6 L2.4 -3.5 3.15 -2.65 3.4 -2.15 3.8 -1.4 3.8 -1.35 3.65 -1.3 2.7 -0.75 3.7 0.5 Q3.7 0.9 2.85 0.9 L2.2 0.45 1.85 -0.05 0.55 1.15 0.35 1.5 0.95 1.8 1.45 2.45 0.8 3.25 0.0 2.9 -0.5 2.6 -1.2 3.6 -1.05 3.65 -1.05 3.85 -1.3 3.75 -1.4 3.85 -1.65 3.65 -1.65 3.6 -2.75 3.2 Q-3.75 2.8 -3.75 2.4 -3.75 1.85 -3.05 0.9 L-3.15 0.65 -3.25 0.2 Q-3.25 -0.85 -2.2 -0.85 L-1.7 -0.8 -1.25 -1.3 -0.7 -1.85 -0.95 -2.75 -0.75 -3.1 Q-0.5 -3.4 -0.05 -3.4 L0.5 -3.3 0.65 -3.1 1.95 -3.85 2.4 -3.6 M2.25 -3.4 L1.85 -3.6 Q1.45 -3.6 0.7 -3.0 L0.75 -2.95 0.6 -2.9 0.55 -2.9 -0.15 -2.25 -0.5 -1.85 -0.55 -1.8 -1.55 -0.75 -1.6 -0.7 -1.6 -0.5 -1.75 -0.5 -2.7 0.65 -2.85 0.9 -2.8 1.05 -2.95 1.0 Q-3.55 1.9 -3.55 2.4 -3.55 2.65 -1.5 3.45 L-0.65 2.55 -0.6 2.5 -0.6 2.4 -0.5 2.35 0.05 1.5 0.05 1.45 0.1 1.45 0.3 1.1 Q1.0 0.0 2.4 -0.8 L2.35 -0.85 2.35 -1.0 2.5 -1.0 2.6 -0.9 3.55 -1.4 3.4 -1.65 2.3 -3.4 2.25 -3.4 M-0.45 -2.1 L0.45 -2.95 0.4 -3.0 -0.05 -3.15 -0.5 -3.0 -0.75 -2.7 -0.5 -2.1 -0.5 -2.05 -0.45 -2.1 M2.3 0.15 L2.95 0.65 3.45 0.5 2.95 -0.2 2.6 -0.65 2.0 -0.2 2.3 0.15 M0.65 2.1 L0.15 1.75 -0.35 2.4 0.75 3.05 1.15 2.45 0.65 2.1 M-2.25 -0.6 Q-2.75 -0.6 -2.95 -0.2 L-3.05 0.2 -2.95 0.7 -1.9 -0.55 -2.25 -0.6" fill="#000000" fill-rule="evenodd" stroke="none"/>
    <path d="M2.25 -3.4 L2.3 -3.4 3.4 -1.65 3.55 -1.4 2.6 -0.9 2.5 -1.0 2.35 -1.0 2.35 -0.85 2.4 -0.8 Q1.0 0.0 0.3 1.1 L0.1 1.45 0.05 1.45 0.05 1.5 -0.5 2.35 -0.6 2.4 -0.6 2.5 -0.65 2.55 -1.5 3.45 Q-3.55 2.65 -3.55 2.4 -3.55 1.9 -2.95 1.0 L-2.8 1.05 -2.85 0.9 -2.7 0.65 -1.75 -0.5 -1.6 -0.5 -1.6 -0.7 -1.55 -0.75 -0.55 -1.8 -0.5 -1.85 -0.15 -2.25 0.55 -2.9 0.6 -2.9 0.75 -2.95 0.7 -3.0 Q1.45 -3.6 1.85 -3.6 L2.25 -3.4 M2.55 -2.4 L2.35 -2.8 2.0 -3.05 0.9 -2.4 0.95 -2.5 -1.25 -0.65 -2.4 0.7 -2.35 0.8 -2.05 0.55 -2.4 1.1 -2.9 2.2 -2.7 2.45 -2.3 2.7 -2.05 2.65 -2.2 2.15 -2.5 2.1 -2.45 2.05 -2.1 1.05 -1.6 0.15 -0.5 -0.75 0.1 -1.3 1.0 -2.1 1.85 -2.65 2.55 -2.4 M2.5 -1.5 L2.65 -1.4 2.75 -1.45 2.75 -1.8 2.7 -1.95 2.3 -1.8 2.3 -2.05 Q1.65 -2.15 1.05 -1.55 L0.6 -0.85 0.25 -0.25 -0.15 0.5 -0.6 1.2 -0.55 1.35 -0.45 1.35 Q-0.05 0.35 1.15 -0.65 L1.5 -0.95 Q1.75 -0.95 2.5 -1.5" fill="#655546" fill-rule="evenodd" stroke="none"/>
    <path d="M2.5 -1.5 Q1.75 -0.95 1.5 -0.95 L1.15 -0.65 Q-0.05 0.35 -0.45 1.35 L-0.55 1.35 -0.6 1.2 -0.15 0.5 0.25 -0.25 0.6 -0.85 1.05 -1.55 Q1.65 -2.15 2.3 -2.05 L2.3 -1.8 2.7 -1.95 2.75 -1.8 2.75 -1.45 2.65 -1.4 2.5 -1.5 M2.55 -2.4 L1.85 -2.65 1.0 -2.1 0.1 -1.3 -0.5 -0.75 -1.6 0.15 -2.1 1.05 -2.45 2.05 -2.5 2.1 -2.2 2.15 -2.05 2.65 -2.3 2.7 -2.7 2.45 -2.9 2.2 -2.4 1.1 -2.05 0.55 -2.35 0.8 -2.4 0.7 -1.25 -0.65 0.95 -2.5 0.9 -2.4 2.0 -3.05 2.35 -2.8 2.55 -2.4" fill="#332117" fill-rule="evenodd" stroke="none"/>
    <path d="M-0.5 -2.1 L-0.75 -2.7 -0.5 -3.0 -0.05 -3.15 0.4 -3.0 0.45 -2.95 -0.45 -2.1 -0.5 -2.1 M-2.25 -0.6 L-1.9 -0.55 -2.95 0.7 -3.05 0.2 -2.95 -0.2 Q-2.75 -0.6 -2.25 -0.6 M0.65 2.1 L1.15 2.45 0.75 3.05 -0.35 2.4 0.15 1.75 0.65 2.1 M2.3 0.15 L2.0 -0.2 2.6 -0.65 2.95 -0.2 3.45 0.5 2.95 0.65 2.3 0.15" fill="#42322d" fill-rule="evenodd" stroke="none"/>
  </g>
</svg>
