<?xml version="1.0" encoding="UTF-8" standalone="no"?>
<svg xmlns:xlink="http://www.w3.org/1999/xlink" height="25.05px" width="56.55px" xmlns="http://www.w3.org/2000/svg">
  <g transform="matrix(1.0, 0.0, 0.0, 1.0, 28.25, 12.5)">
    <path d="M-6.1 -12.0 L-6.1 -9.3 -5.75 -5.55 Q-5.55 -5.65 -5.4 -6.25 L-5.15 -6.25 -4.7 -3.9 -3.9 -1.7 -3.75 -1.4 -3.55 -0.5 -3.25 0.55 Q-3.1 0.95 -3.05 2.1 L-2.85 2.1 -2.7 2.6 -2.55 3.05 -2.3 3.85 -2.5 4.35 -2.9 4.75 -3.4 5.2 -4.1 5.6 Q-5.1 6.25 -6.7 6.55 L-9.65 7.05 -11.15 7.3 -11.8 7.4 -15.85 7.55 -19.05 7.4 Q-20.0 7.2 -21.2 5.85 L-21.7 4.8 -21.85 5.25 -22.1 6.25 -22.3 6.75 Q-22.3 7.1 -22.6 7.1 L-22.65 6.9 -21.9 4.2 -22.0 3.65 -21.85 3.3 -21.75 3.3 -21.75 2.85 -21.3 1.85 -21.05 0.85 -20.45 -1.05 Q-20.45 -1.45 -20.6 -1.55 L-20.6 -1.85 -20.35 -1.85 -19.95 -1.35 -19.8 -0.8 Q-19.35 -1.7 -18.85 -3.25 L-18.5 -5.8 -18.7 -7.25 -18.7 -7.6 -18.5 -7.65 Q-18.25 -7.65 -17.8 -6.65 L-17.45 -5.35 -16.65 -8.05 -16.45 -10.5 -16.55 -12.0 -13.75 -12.0 -13.9 -10.35 -14.0 -6.6 Q-14.0 -5.35 -14.25 -4.75 L-14.25 -4.3 -14.45 -3.9 -14.6 -3.0 -15.05 0.7 -14.8 2.05 -14.05 3.5 -12.25 4.7 -11.15 5.35 -10.85 5.45 -10.55 5.65 -9.6 5.95 -8.1 5.7 Q-7.6 5.35 -7.4 4.3 -7.25 3.65 -7.25 2.3 L-7.35 -0.5 -7.5 -1.45 Q-7.45 -2.45 -7.95 -5.1 L-8.9 -10.6 -9.1 -12.0 -6.1 -12.0 M-2.6 3.85 L-3.05 2.75 -3.1 4.0 -3.1 4.45 -2.6 3.85" fill="#ca8e35" fill-rule="evenodd" stroke="none"/>
    <path d="M-9.1 -12.0 L-8.9 -10.6 -7.95 -5.1 Q-7.45 -2.45 -7.5 -1.45 L-7.35 -0.5 -7.25 2.3 Q-7.25 3.65 -7.4 4.3 -7.6 5.35 -8.1 5.7 L-9.6 5.95 -10.55 5.65 -10.85 5.45 -11.15 5.35 -12.25 4.7 -14.05 3.5 -14.8 2.05 -15.05 0.7 -14.6 -3.0 -14.45 -3.9 -14.25 -4.3 -14.25 -4.75 Q-14.0 -5.35 -14.0 -6.6 L-13.9 -10.35 -13.75 -12.0 -9.1 -12.0" fill="#e4c69a" fill-rule="evenodd" stroke="none"/>
    <path d="M6.75 -2.25 L5.35 -2.0 5.15 -1.9 5.15 -1.85 Q5.15 -1.6 5.75 -1.4 L6.8 -1.05 8.65 -0.05 Q10.0 1.35 10.0 2.25 L9.9 3.15 9.95 3.45 10.45 3.15 Q10.8 2.85 11.7 2.85 L13.2 3.1 13.7 3.35 14.2 3.65 15.0 4.45 15.05 4.5 15.0 4.55 15.15 4.8 15.35 5.25 15.2 5.5 15.25 5.65 15.65 5.25 15.5 4.55 15.5 4.3 Q15.5 3.0 14.7 2.1 13.65 0.8 11.2 0.85 L10.1 -0.95 8.9 -1.85 8.35 -2.1 6.75 -2.25 M17.25 -12.0 L17.25 -11.95 17.45 -10.45 Q17.45 -9.5 17.1 -9.0 L16.75 -8.25 16.25 -7.55 Q16.65 -7.6 17.0 -7.15 L17.4 -6.5 Q17.8 -5.9 17.8 -5.3 17.8 -4.2 17.15 -3.15 16.5 -1.95 15.35 -1.3 L15.35 -1.25 16.95 -1.05 17.6 -0.75 18.2 -0.35 18.7 0.0 19.35 0.8 19.5 1.75 19.6 1.8 20.3 1.4 21.25 1.15 Q22.1 1.15 23.6 2.2 24.2 2.65 24.2 3.4 L24.25 3.45 24.85 3.1 25.6 3.0 Q26.25 3.0 26.95 3.5 L27.3 3.85 27.3 12.0 -27.7 12.0 -27.7 -2.35 -27.5 -2.45 -25.75 -2.2 -25.35 -2.15 -25.0 -1.9 -25.05 -2.25 -24.95 -3.1 -24.8 -3.9 -24.25 -5.3 Q-23.85 -5.85 -22.55 -6.45 -21.2 -7.1 -20.05 -7.15 L-20.35 -10.05 -20.1 -11.75 -19.95 -12.0 -16.55 -12.0 -16.45 -10.5 -16.65 -8.05 -17.45 -5.35 -17.8 -6.65 Q-18.25 -7.65 -18.5 -7.65 L-18.7 -7.6 -18.7 -7.25 -18.5 -5.8 -18.85 -3.25 Q-19.35 -1.7 -19.8 -0.8 L-19.95 -1.35 -20.35 -1.85 -20.6 -1.85 -20.6 -1.55 Q-20.45 -1.45 -20.45 -1.05 L-21.05 0.85 -21.3 1.85 -21.75 2.85 -21.75 3.3 -21.85 3.3 -22.0 3.65 -21.9 4.2 -22.65 6.9 -22.6 7.1 Q-22.3 7.1 -22.3 6.75 L-22.1 6.25 -21.85 5.25 -21.7 4.8 -21.2 5.85 Q-20.0 7.2 -19.05 7.4 L-15.85 7.55 -11.8 7.4 -11.15 7.3 -9.65 7.05 -6.7 6.55 Q-5.1 6.25 -4.1 5.6 L-3.4 5.2 -2.9 4.75 -2.5 4.35 -2.3 3.85 -2.55 3.05 -2.7 2.6 -2.85 2.1 -3.05 2.1 Q-3.1 0.95 -3.25 0.55 L-3.55 -0.5 -3.75 -1.4 -3.9 -1.7 -4.7 -3.9 -5.15 -6.25 -5.4 -6.25 Q-5.55 -5.65 -5.75 -5.55 L-6.1 -9.3 -6.1 -12.0 17.25 -12.0 M11.65 8.05 L11.0 7.9 10.15 7.75 10.0 7.75 Q9.5 7.55 9.5 7.9 L9.55 8.05 Q10.4 8.15 11.25 8.7 L12.25 9.5 12.45 10.5 Q12.4 11.3 12.5 11.55 L12.8 11.5 12.85 11.5 13.3 11.0 13.35 10.8 13.35 10.75 13.35 10.45 13.2 9.65 12.7 8.8 Q12.35 8.25 11.65 8.05" fill="#2f2926" fill-rule="evenodd" stroke="none"/>
    <path d="M6.75 -2.25 L8.35 -2.1 8.9 -1.85 10.1 -0.95 11.2 0.85 Q13.65 0.8 14.7 2.1 15.5 3.0 15.5 4.3 L15.5 4.55 15.65 5.25 15.25 5.65 15.2 5.5 15.35 5.25 15.15 4.8 15.0 4.55 15.05 4.5 15.0 4.45 14.2 3.65 13.7 3.35 13.2 3.1 11.7 2.85 Q10.8 2.85 10.45 3.15 L9.95 3.45 9.9 3.15 10.0 2.25 Q10.0 1.35 8.65 -0.05 L6.8 -1.05 5.75 -1.4 Q5.15 -1.6 5.15 -1.85 L5.15 -1.9 5.35 -2.0 6.75 -2.25 M19.75 -12.0 L19.8 -11.4 19.65 -10.35 19.4 -9.45 Q19.3 -8.9 18.25 -7.65 L19.1 -6.9 19.45 -6.25 19.75 -4.65 19.7 -4.1 19.35 -3.35 18.4 -2.2 19.6 -2.05 20.0 -1.8 20.35 -1.2 20.4 0.3 Q21.35 -0.6 22.6 -0.6 24.5 -0.6 24.75 0.85 L25.35 0.45 26.6 0.25 27.3 0.4 27.3 3.85 26.95 3.5 Q26.25 3.0 25.6 3.0 L24.85 3.1 24.25 3.45 24.2 3.4 Q24.2 2.65 23.6 2.2 22.1 1.15 21.25 1.15 L20.3 1.4 19.6 1.8 19.5 1.75 19.35 0.8 18.7 0.0 18.2 -0.35 17.6 -0.75 16.95 -1.05 15.35 -1.25 15.35 -1.3 Q16.5 -1.95 17.15 -3.15 17.8 -4.2 17.8 -5.3 17.8 -5.9 17.4 -6.5 L17.0 -7.15 Q16.65 -7.6 16.25 -7.55 L16.75 -8.25 17.1 -9.0 Q17.45 -9.5 17.45 -10.45 L17.25 -11.95 17.25 -12.0 19.75 -12.0 M11.65 8.05 Q12.35 8.25 12.7 8.8 L13.2 9.65 13.35 10.45 13.35 10.75 13.35 10.8 13.3 11.0 12.85 11.5 12.8 11.5 12.5 11.55 Q12.4 11.3 12.45 10.5 L12.25 9.5 11.25 8.7 Q10.4 8.15 9.55 8.05 L9.5 7.9 Q9.5 7.55 10.0 7.75 L10.15 7.75 11.0 7.9 11.65 8.05 M-27.7 -4.75 L-27.5 -4.75 -26.65 -4.65 -26.1 -4.4 -25.85 -5.6 Q-25.75 -6.4 -25.3 -6.85 -24.35 -7.75 -23.55 -7.9 L-21.3 -8.2 -21.7 -8.9 -21.95 -9.55 -22.1 -10.25 -22.1 -10.9 -21.95 -12.0 -19.95 -12.0 -20.1 -11.75 -20.35 -10.05 -20.05 -7.15 Q-21.2 -7.1 -22.55 -6.45 -23.85 -5.85 -24.25 -5.3 L-24.8 -3.9 -24.95 -3.1 -25.05 -2.25 -25.0 -1.9 -25.35 -2.15 -25.75 -2.2 -27.5 -2.45 -27.7 -2.35 -27.7 -4.75" fill="#7e7067" fill-rule="evenodd" stroke="none"/>
    <path d="M27.3 0.4 L26.6 0.25 25.35 0.45 24.75 0.85 Q24.5 -0.6 22.6 -0.6 21.35 -0.6 20.4 0.3 L20.35 -1.2 20.0 -1.8 19.6 -2.05 18.4 -2.2 19.35 -3.35 19.7 -4.1 19.75 -4.65 19.45 -6.25 19.1 -6.9 18.25 -7.65 Q19.3 -8.9 19.4 -9.45 L19.65 -10.35 19.8 -11.4 19.75 -12.0 27.3 -12.0 27.3 0.4 M-21.95 -12.0 L-22.1 -10.9 -22.1 -10.25 -21.95 -9.55 -21.7 -8.9 -21.3 -8.2 -23.55 -7.9 Q-24.35 -7.75 -25.3 -6.85 -25.75 -6.4 -25.85 -5.6 L-26.1 -4.4 -26.65 -4.65 -27.5 -4.75 -27.7 -4.75 -27.7 -12.0 -21.95 -12.0" fill="#5a969c" fill-rule="evenodd" stroke="none"/>
    <path d="M27.3 12.0 L-27.7 12.0" fill="none" stroke="#000000" stroke-linecap="round" stroke-linejoin="round" stroke-width="1.0"/>
    <path d="M-20.3 3.95 L-20.3 3.9 -20.3 3.95 M-1.15 -6.7 L-1.15 -6.55 -1.4 -6.5 -1.6 -6.55 -1.5 -6.7 -1.15 -6.7 M-15.95 1.85 L-15.95 1.9 -16.0 1.9 -15.95 1.85 M-11.25 4.95 L-11.25 4.9 -11.2 4.95 -11.25 4.95" fill="#ffffff" fill-rule="evenodd" stroke="none"/>
    <path d="M5.85 -7.15 L3.7 -5.75 2.75 -5.1 2.05 -4.55 2.0 -4.7 Q2.0 -5.1 3.55 -6.05 L4.6 -6.7 5.75 -7.3 5.85 -7.15 M7.25 -7.6 Q7.0 -7.0 7.1 -6.65 L7.05 -5.75 Q7.05 -5.35 7.2 -5.05 L7.6 -4.5 Q7.9 -4.1 8.5 -4.05 L10.2 -3.8 10.9 -3.9 11.6 -4.25 12.35 -4.9 12.75 -5.65 12.85 -6.4 12.5 -7.3 11.95 -7.9 10.9 -8.55 Q9.65 -9.15 8.85 -9.0 L7.7 -8.35 7.45 -8.0 7.25 -7.6 M7.1 -8.1 L7.9 -8.95 Q8.55 -9.5 9.2 -9.5 10.15 -9.5 12.1 -8.25 L13.0 -7.25 13.15 -6.4 Q13.15 -5.25 12.55 -4.6 L11.55 -3.8 10.95 -3.55 10.2 -3.45 9.0 -3.65 8.1 -3.85 Q7.1 -4.2 7.0 -4.55 6.75 -5.15 6.75 -6.2 6.75 -7.55 7.1 -8.1 M-27.75 10.6 L-27.35 10.4 -27.25 10.4 -26.9 10.2 -25.95 9.25 -23.65 7.2 -22.45 6.2 -21.7 5.3 -21.45 4.85 -21.1 4.35 -20.75 3.9 -20.5 3.5 -20.65 2.95 -20.6 2.45 -20.25 2.1 -19.55 1.35 Q-18.9 0.85 -18.25 0.65 L-17.2 0.45 -16.3 0.3 -16.25 0.45 -16.25 0.5 -15.85 0.6 -15.1 0.75 -14.1 1.0 -10.6 1.45 -8.5 1.25 -5.65 1.0 -4.3 1.1 -3.0 1.45 -2.35 1.75 -2.1 1.9 -2.0 1.75 -1.75 1.1 -0.65 -0.05 0.75 -1.1 2.4 -1.9 3.4 -2.0 4.05 -1.95 4.4 -1.55 4.5 -1.1 4.5 -0.75 4.15 -0.55 3.0 -0.35 1.4 -0.3 Q0.9 -0.2 0.95 0.2 L0.6 0.8 -0.6 1.1 Q-1.15 1.25 -1.45 1.55 L-1.7 1.9 -1.7 1.95 -1.55 2.2 -1.55 2.25 -0.7 4.35 -0.5 4.9 -0.25 4.85 Q-0.35 5.3 0.3 5.85 L1.7 6.8 Q3.45 7.95 4.1 8.65 L5.4 9.6 6.05 10.15 6.65 10.5 7.35 10.8 7.9 11.25 7.95 11.35 7.95 11.3 Q8.3 11.35 8.45 11.7 L8.75 11.9 8.8 11.9 8.95 12.05 9.0 12.2 8.8 12.25 8.55 12.2 8.5 12.2 8.45 12.15 8.3 12.05 8.15 11.9 7.45 11.3 6.0 10.55 4.9 9.65 3.75 8.75 1.1 6.85 Q0.0 6.2 -0.35 5.6 L-0.3 6.45 -0.4 7.75 -0.55 8.5 -1.0 8.8 Q-1.55 8.8 -1.6 8.15 L-1.55 7.35 -1.7 7.05 -1.75 6.9 -2.0 6.6 -2.3 6.4 -2.55 6.3 -3.55 6.3 -3.15 6.3 -4.2 6.5 -5.0 6.95 -6.2 7.6 -6.85 7.7 -8.55 7.8 -9.7 8.55 -10.35 9.35 -10.75 10.2 -11.25 10.95 Q-11.85 11.5 -12.25 11.5 L-12.7 11.35 -13.15 11.2 -13.45 10.6 -13.55 9.45 Q-13.55 8.85 -13.95 8.2 -14.0 8.05 -14.6 7.6 L-14.9 7.5 -15.3 7.35 -16.4 7.45 Q-17.1 7.45 -17.25 7.1 -17.4 6.7 -17.95 6.7 L-18.65 6.8 -19.4 7.2 -19.8 7.5 -20.45 7.6 Q-21.1 7.6 -21.05 6.75 L-20.75 5.35 -20.3 3.95 -21.55 5.6 Q-22.05 6.55 -23.45 7.5 L-25.6 9.4 -26.0 9.85 -26.55 10.35 -27.2 10.75 -27.2 10.8 -27.25 10.8 -27.5 11.1 -27.7 11.2 -27.7 11.3 -27.65 11.7 -27.55 11.95 -27.4 12.05 -27.4 12.1 -27.7 12.3 Q-28.0 12.3 -27.95 11.7 L-28.05 11.05 -28.05 10.95 -27.75 10.6 M-20.3 3.95 L-20.3 3.9 -20.3 3.95 M0.9 -0.8 L-1.1 0.85 0.45 0.5 0.65 0.15 0.7 -0.25 Q0.8 -0.6 1.7 -0.7 4.2 -0.8 4.2 -1.15 L3.85 -1.6 2.35 -1.45 0.9 -0.8 M1.8 -3.15 Q4.25 -4.9 5.75 -5.5 L5.8 -5.35 Q5.8 -5.15 5.4 -5.0 L4.7 -4.7 0.4 -1.7 -0.2 -1.05 Q-0.55 -0.65 -1.0 -0.55 L-1.05 -0.7 -0.4 -1.35 0.2 -1.95 1.8 -3.15 M6.05 -2.45 L5.8 -2.45 5.75 -2.6 6.1 -2.95 Q6.5 -3.25 6.7 -3.15 L6.75 -3.0 6.05 -2.45 M17.25 -3.75 Q18.05 -3.75 18.2 -3.15 L18.4 -2.4 18.2 -1.9 17.4 -1.75 Q16.65 -1.75 16.2 -2.2 15.9 -2.5 15.9 -2.75 15.9 -3.15 16.2 -3.4 L16.7 -3.65 17.25 -3.75 M17.4 -2.1 Q18.1 -2.1 18.1 -2.45 L17.85 -3.1 17.1 -3.4 Q16.25 -3.4 16.25 -2.8 L16.5 -2.4 Q16.8 -2.1 17.4 -2.1 M20.9 5.15 Q22.85 5.0 22.85 7.05 22.85 7.9 22.25 8.4 21.7 8.85 20.95 8.85 20.0 8.85 19.35 7.95 18.8 7.25 18.8 6.7 18.8 6.2 19.3 5.8 L19.7 5.35 20.8 5.15 20.9 5.15 M21.9 5.65 L21.35 5.6 20.4 5.5 Q19.85 5.7 19.5 6.05 19.15 6.4 19.15 6.7 19.15 7.3 19.85 7.95 20.5 8.5 20.95 8.5 21.8 8.5 22.25 7.95 L22.55 7.1 22.35 6.05 21.9 5.65 M16.7 3.1 L17.6 3.8 18.55 4.5 19.1 5.2 18.95 5.25 17.2 3.9 Q15.85 2.95 15.0 2.55 13.9 2.05 12.0 1.65 L9.2 1.3 6.75 1.5 6.3 1.5 6.25 1.45 6.25 1.2 7.0 1.05 9.55 0.95 12.6 1.45 Q14.25 1.75 15.6 2.4 L16.7 3.1 M6.1 5.55 L6.65 6.4 7.0 7.1 7.0 7.05 7.2 7.05 7.25 7.35 6.8 8.0 6.1 8.3 5.6 7.8 5.4 7.3 5.35 6.15 Q5.1 5.2 3.9 4.25 L3.85 4.25 3.75 4.15 3.75 4.0 3.75 3.85 Q3.9 3.85 4.1 4.0 L4.75 4.3 5.45 4.75 6.1 5.55 M4.8 4.7 L5.55 5.75 5.7 7.0 Q5.8 7.95 6.15 7.95 L6.85 7.45 6.7 7.45 Q6.45 6.35 5.7 5.6 L4.9 4.75 4.8 4.7 M0.5 7.65 L0.65 8.1 1.05 8.5 1.7 9.3 2.3 10.1 2.7 11.05 2.55 11.1 2.35 10.9 2.25 10.7 1.95 10.35 1.5 9.6 0.85 8.8 0.45 8.4 0.25 8.05 0.25 7.65 0.5 7.65 M-21.7 -3.65 L-21.7 -3.55 -21.85 -3.5 -22.05 -3.55 -22.15 -3.7 -22.7 -3.95 -23.05 -4.2 -23.55 -4.35 -24.3 -4.4 Q-24.8 -4.35 -25.1 -4.6 -25.45 -4.85 -25.45 -5.05 L-25.25 -5.45 -24.9 -5.7 -24.3 -5.7 Q-23.6 -5.6 -22.7 -4.9 L-21.55 -3.8 Q-21.55 -3.65 -21.7 -3.65 M-24.95 -5.3 L-25.1 -5.1 -24.55 -4.65 -23.85 -4.8 -23.15 -4.6 -22.45 -4.3 -22.95 -4.65 Q-23.25 -5.2 -24.7 -5.35 L-24.95 -5.3 M-21.9 -1.05 Q-21.9 -0.75 -21.55 -0.75 L-21.2 -0.95 Q-21.2 -1.25 -21.35 -1.35 L-21.7 -1.3 -21.9 -1.05 M-21.5 -0.4 Q-22.2 -0.4 -22.2 -1.05 -22.2 -1.7 -21.4 -1.7 -20.9 -1.7 -20.9 -0.9 -20.9 -0.4 -21.5 -0.4 M-14.7 -9.65 L-14.45 -9.7 -13.85 -9.7 Q-12.85 -9.7 -12.45 -9.3 L-11.8 -9.0 -11.35 -8.55 -10.55 -6.8 Q-10.55 -6.1 -10.95 -5.55 -11.5 -4.65 -12.75 -4.65 -14.75 -4.65 -15.7 -5.5 L-16.2 -6.35 -16.25 -7.3 Q-16.25 -8.25 -15.85 -8.85 L-15.15 -9.5 -14.7 -9.65 M-14.3 -9.4 L-14.3 -9.15 Q-15.95 -9.2 -15.95 -7.35 -15.95 -6.15 -15.4 -5.7 L-14.45 -5.3 -12.8 -5.0 -11.8 -5.1 -11.2 -5.8 Q-10.85 -6.25 -10.85 -6.8 L-11.6 -8.3 -12.45 -8.95 -13.05 -9.25 Q-13.2 -9.25 -13.15 -9.3 L-14.3 -9.4 M-11.15 -4.15 Q-10.8 -4.2 -10.75 -3.9 L-10.75 -3.45 -10.5 -2.7 -10.5 -2.45 -10.65 -2.4 -10.95 -3.05 -11.15 -3.85 -11.15 -4.15 M-12.25 -4.25 L-11.55 -2.25 -11.0 -0.35 -11.0 0.4 -11.25 0.45 -11.8 -1.9 -12.15 -2.85 -12.5 -4.05 -12.25 -4.25 M-13.7 -3.2 L-14.1 -3.7 -14.35 -4.3 -14.3 -4.5 -14.0 -4.25 -13.85 -3.9 -13.55 -3.25 -13.7 -3.2 M-2.95 -9.4 L-3.45 -8.45 -3.95 -8.05 -4.75 -7.95 Q-5.45 -7.95 -5.45 -8.3 L-4.85 -9.15 -4.25 -9.55 -3.2 -9.8 -2.95 -9.6 -2.95 -9.4 M-3.45 -9.45 L-4.25 -9.2 -5.15 -8.35 -4.5 -8.3 Q-3.95 -8.4 -3.65 -8.7 L-3.25 -9.35 -3.25 -9.45 -3.45 -9.45 M-1.15 -6.7 L-1.5 -6.7 -1.6 -6.55 -1.4 -6.5 -1.15 -6.55 -1.15 -6.7 M-1.3 -7.05 Q-0.8 -7.05 -0.8 -6.6 -0.8 -6.15 -1.4 -6.15 L-2.0 -6.55 -1.75 -6.9 -1.3 -7.05 M-2.1 2.7 L-2.35 2.7 -2.35 2.4 -2.25 2.25 -3.3 1.75 -4.15 1.5 -5.6 1.35 -8.7 1.6 -10.6 1.8 -13.9 1.4 -16.65 0.75 -17.95 0.85 -19.25 1.5 -19.9 2.2 -20.35 2.9 -20.15 3.35 -20.1 3.4 -20.05 3.4 -20.0 3.55 -20.0 3.6 -20.0 3.95 -20.05 4.4 -20.25 4.7 -20.45 5.45 -20.75 6.8 Q-20.75 7.25 -20.35 7.25 -19.9 7.25 -19.4 6.75 L-18.8 6.5 -18.0 6.35 -17.15 6.55 -16.95 6.95 -16.9 7.05 -15.95 7.1 -15.2 7.05 -14.7 7.2 Q-13.75 7.55 -13.5 8.4 L-13.2 9.85 -13.05 10.6 -12.85 11.0 -12.25 11.15 Q-11.95 11.15 -11.6 10.8 L-11.25 10.4 -10.85 9.65 -10.5 8.8 -10.1 8.45 -9.65 8.05 Q-8.8 7.4 -8.4 7.4 L-6.7 7.35 -6.05 7.2 -4.8 6.45 Q-4.05 5.95 -3.15 5.95 L-2.05 6.1 -1.7 6.4 Q-1.5 6.45 -1.45 6.65 L-1.4 6.8 Q-1.2 7.0 -1.25 7.6 L-1.0 8.45 Q-0.75 8.45 -0.75 7.45 L-0.6 6.45 Q-0.6 5.5 -1.1 4.3 L-2.0 2.45 -2.1 2.7 M-15.95 1.9 L-12.95 2.05 -11.85 2.2 -10.45 2.1 -9.1 2.0 -6.35 2.3 -3.95 2.45 Q-3.8 2.5 -3.35 2.7 -3.0 2.8 -2.75 3.1 -2.4 3.3 -2.4 3.45 L-2.3 3.85 -2.25 4.2 Q-2.25 4.6 -2.75 4.75 L-3.95 5.05 -4.85 5.25 -5.3 5.4 -7.1 5.5 -9.45 5.45 -9.65 5.35 -10.45 5.3 Q-12.55 5.1 -15.3 5.3 L-17.15 5.0 -18.55 4.35 Q-19.15 4.05 -19.15 3.4 L-18.9 2.8 -18.25 2.25 Q-17.9 1.95 -17.0 1.85 L-15.95 1.85 -16.0 1.9 -15.95 1.9 M-11.25 4.9 L-11.25 2.85 -11.0 2.85 -10.9 3.05 -10.9 5.0 -10.6 5.0 -7.15 5.15 -7.05 5.15 -7.05 4.85 Q-7.05 4.45 -6.8 4.5 L-6.75 4.6 -6.75 5.15 -5.65 5.15 -4.7 4.9 -4.7 3.25 -4.45 3.25 -4.45 4.85 -4.2 4.8 Q-2.55 4.4 -2.55 4.15 L-2.85 3.45 -3.8 2.85 -6.65 2.6 -9.05 2.35 -10.5 2.45 -11.85 2.55 -14.5 2.25 -16.95 2.2 Q-17.4 2.15 -18.15 2.6 L-18.85 3.4 Q-18.85 3.9 -18.2 4.2 L-17.3 4.55 -17.3 3.65 -17.05 3.65 -16.95 3.95 -16.95 4.2 -17.0 4.65 -16.7 4.75 -13.8 4.9 -12.8 4.9 -12.8 4.45 -12.55 4.45 -12.5 4.55 -12.5 4.9 -11.25 4.95 -11.2 4.95 -11.25 4.9 M-1.75 9.95 Q-2.15 9.9 -2.3 9.0 -1.9 8.9 -1.9 9.3 L-1.7 9.75 -1.75 9.95 M-18.65 8.5 L-19.5 9.3 -20.55 10.0 -20.65 9.85 -19.7 9.05 -18.7 8.35 -18.65 8.5" fill="#000000" fill-rule="evenodd" stroke="none"/>
    <path d="M0.9 -0.8 L2.35 -1.45 3.85 -1.6 4.2 -1.15 Q4.2 -0.8 1.7 -0.7 0.8 -0.6 0.7 -0.25 L0.65 0.15 0.45 0.5 -1.1 0.85 0.9 -0.8 M4.8 4.7 L4.9 4.75 5.7 5.6 Q6.45 6.35 6.7 7.45 L6.85 7.45 6.15 7.95 Q5.8 7.95 5.7 7.0 L5.55 5.75 4.8 4.7 M-21.9 -1.05 L-21.7 -1.3 -21.35 -1.35 Q-21.2 -1.25 -21.2 -0.95 L-21.55 -0.75 Q-21.9 -0.75 -21.9 -1.05 M-24.95 -5.3 L-24.7 -5.35 Q-23.25 -5.2 -22.95 -4.65 L-22.45 -4.3 -23.15 -4.6 -23.85 -4.8 -24.55 -4.65 -25.1 -5.1 -24.95 -5.3 M-3.45 -9.45 L-3.25 -9.45 -3.25 -9.35 -3.65 -8.7 Q-3.95 -8.4 -4.5 -8.3 L-5.15 -8.35 -4.25 -9.2 -3.45 -9.45 M-15.95 1.85 L-17.0 1.85 Q-17.9 1.95 -18.25 2.25 L-18.9 2.8 -19.15 3.4 Q-19.15 4.05 -18.55 4.35 L-17.15 5.0 -15.3 5.3 Q-12.55 5.1 -10.45 5.3 L-9.65 5.35 -9.45 5.45 -7.1 5.5 -5.3 5.4 -4.85 5.25 -3.95 5.05 -2.75 4.75 Q-2.25 4.6 -2.25 4.2 L-2.3 3.85 -2.4 3.45 Q-2.4 3.3 -2.75 3.1 -3.0 2.8 -3.35 2.7 -3.8 2.5 -3.95 2.45 L-6.35 2.3 -9.1 2.0 -10.45 2.1 -11.85 2.2 -12.95 2.05 -15.95 1.9 -15.95 1.85 M-2.1 2.7 L-2.0 2.45 -1.1 4.3 Q-0.6 5.5 -0.6 6.45 L-0.75 7.45 Q-0.75 8.45 -1.0 8.45 L-1.25 7.6 Q-1.2 7.0 -1.4 6.8 L-1.45 6.65 Q-1.5 6.45 -1.7 6.4 L-2.05 6.1 -3.15 5.95 Q-4.05 5.95 -4.8 6.45 L-6.05 7.2 -6.7 7.35 -8.4 7.4 Q-8.8 7.4 -9.65 8.05 L-10.1 8.45 -10.5 8.8 -10.85 9.65 -11.25 10.4 -11.6 10.8 Q-11.95 11.15 -12.25 11.15 L-12.85 11.0 -13.05 10.6 -13.2 9.85 -13.5 8.4 Q-13.75 7.55 -14.7 7.2 L-15.2 7.05 -15.95 7.1 -16.9 7.05 -16.95 6.95 -17.15 6.55 -18.0 6.35 -18.8 6.5 -19.4 6.75 Q-19.9 7.25 -20.35 7.25 -20.75 7.25 -20.75 6.8 L-20.45 5.45 -20.25 4.7 -20.05 4.4 -20.0 3.95 -20.0 3.6 -20.0 3.55 -20.05 3.4 -20.1 3.4 -20.15 3.35 -20.35 2.9 -19.9 2.2 -19.25 1.5 -17.95 0.85 -16.65 0.75 -13.9 1.4 -10.6 1.8 -8.7 1.6 -5.6 1.35 -4.15 1.5 -3.3 1.75 -2.25 2.25 -2.35 2.4 -2.35 2.7 -2.1 2.7" fill="#ff9900" fill-rule="evenodd" stroke="none"/>
    <path d="M-11.25 4.95 L-12.5 4.9 -12.5 4.55 -12.55 4.45 -12.8 4.45 -12.8 4.9 -13.8 4.9 -16.7 4.75 -17.0 4.65 -16.95 4.2 -16.95 3.95 -17.05 3.65 -17.3 3.65 -17.3 4.55 -18.2 4.2 Q-18.85 3.9 -18.85 3.4 L-18.15 2.6 Q-17.4 2.15 -16.95 2.2 L-14.5 2.25 -11.85 2.55 -10.5 2.45 -9.05 2.35 -6.65 2.6 -3.8 2.85 -2.85 3.45 -2.55 4.15 Q-2.55 4.4 -4.2 4.8 L-4.45 4.85 -4.45 3.25 -4.7 3.25 -4.7 4.9 -5.65 5.15 -6.75 5.15 -6.75 4.6 -6.8 4.5 Q-7.05 4.45 -7.05 4.85 L-7.05 5.15 -7.15 5.15 -10.6 5.0 -10.9 5.0 -10.9 3.05 -11.0 2.85 -11.25 2.85 -11.25 4.9 -11.25 4.95" fill="#e11e1e" fill-rule="evenodd" stroke="none"/>
    <path d="M-27.4 12.05 L-27.55 11.95 -27.65 11.7 -27.7 11.3 -27.7 11.2 -27.5 11.1 -27.25 10.8 -27.2 10.8 -27.2 10.75 -26.55 10.35 -26.0 9.85 -25.6 9.4 -23.45 7.5 Q-22.05 6.55 -21.55 5.6 L-20.3 3.95 -20.75 5.35 -21.05 6.75 Q-21.1 7.6 -20.45 7.6 L-19.8 7.5 -19.4 7.2 -18.65 6.8 -17.95 6.7 Q-17.4 6.7 -17.25 7.1 -17.1 7.45 -16.4 7.45 L-15.3 7.35 -14.9 7.5 -14.6 7.6 Q-14.0 8.05 -13.95 8.2 -13.55 8.85 -13.55 9.45 L-13.45 10.6 -13.15 11.2 -12.7 11.35 -12.25 11.5 Q-11.85 11.5 -11.25 10.95 L-10.75 10.2 -10.35 9.35 -9.7 8.55 -8.55 7.8 -6.85 7.7 -6.2 7.6 -5.0 6.95 -4.2 6.5 -3.15 6.3 -3.55 6.3 -2.55 6.3 -2.3 6.4 -2.0 6.6 -1.75 6.9 -1.7 7.05 -1.55 7.35 -1.6 8.15 Q-1.55 8.8 -1.0 8.8 L-0.55 8.5 -0.4 7.75 -0.3 6.45 -0.35 5.6 Q0.0 6.2 1.1 6.85 L3.75 8.75 4.9 9.65 6.0 10.55 7.45 11.3 8.15 11.9 8.3 12.05 -27.4 12.05 M0.5 7.65 L0.25 7.65 0.25 8.05 0.45 8.4 0.85 8.8 1.5 9.6 1.95 10.35 2.25 10.7 2.35 10.9 2.55 11.1 2.7 11.05 2.3 10.1 1.7 9.3 1.05 8.5 0.65 8.1 0.5 7.65 M-18.65 8.5 L-18.7 8.35 -19.7 9.05 -20.65 9.85 -20.55 10.0 -19.5 9.3 -18.65 8.5 M-1.75 9.95 L-1.7 9.75 -1.9 9.3 Q-1.9 8.9 -2.3 9.0 -2.15 9.9 -1.75 9.95" fill="#6a5037" fill-rule="evenodd" stroke="none"/>
    <path d="M7.25 -7.6 L7.45 -8.0 7.7 -8.35 8.85 -9.0 Q9.65 -9.15 10.9 -8.55 L11.95 -7.9 12.5 -7.3 12.85 -6.4 12.75 -5.65 12.35 -4.9 11.6 -4.25 10.9 -3.9 10.2 -3.8 8.5 -4.05 Q7.9 -4.1 7.6 -4.5 L7.2 -5.05 Q7.05 -5.35 7.05 -5.75 L7.1 -6.65 Q7.0 -7.0 7.25 -7.6 M17.4 -2.1 Q16.8 -2.1 16.5 -2.4 L16.25 -2.8 Q16.25 -3.4 17.1 -3.4 L17.85 -3.1 18.1 -2.45 Q18.1 -2.1 17.4 -2.1 M21.9 5.65 L22.35 6.05 22.55 7.1 22.25 7.95 Q21.8 8.5 20.95 8.5 20.5 8.5 19.85 7.95 19.15 7.3 19.15 6.7 19.15 6.4 19.5 6.05 19.85 5.7 20.4 5.5 L21.35 5.6 21.9 5.65 M-14.3 -9.4 L-13.15 -9.3 Q-13.2 -9.25 -13.05 -9.25 L-12.45 -8.95 -11.6 -8.3 -10.85 -6.8 Q-10.85 -6.25 -11.2 -5.8 L-11.8 -5.1 -12.8 -5.0 -14.45 -5.3 -15.4 -5.7 Q-15.95 -6.15 -15.95 -7.35 -15.95 -9.2 -14.3 -9.15 L-14.3 -9.4" fill="#8a8275" fill-rule="evenodd" stroke="none"/>
    <path d="M8.95 12.05 L27.8 12.05 27.8 -12.0 -27.75 -12.0 -27.75 10.6 M-27.4 12.05 L8.3 12.05" fill="none" stroke="#000000" stroke-linecap="round" stroke-linejoin="round" stroke-width="1.0"/>
    <path d="M27.8 -12.0 L27.8 12.05 -27.75 12.05 -27.75 -12.0 27.8 -12.0 Z" fill="none" stroke="#000000" stroke-linecap="round" stroke-linejoin="round" stroke-width="1.0"/>
  </g>
</svg>
