<?xml version="1.0" encoding="UTF-8" standalone="no"?>
<svg xmlns:xlink="http://www.w3.org/1999/xlink" height="44.0px" width="65.25px" xmlns="http://www.w3.org/2000/svg">
  <g transform="matrix(1.0, 0.0, 0.0, 1.0, 1.2, 38.4)">
    <path d="M21.05 -38.2 Q20.2 -37.65 20.2 -35.75 L20.25 -35.55 20.4 -34.95 20.35 -34.95 20.75 -34.15 Q21.25 -33.6 21.25 -32.7 L20.95 -31.75 20.9 -31.6 20.95 -31.25 20.8 -30.85 20.8 -30.65 20.45 -30.65 20.45 -31.2 20.5 -31.2 18.75 -32.85 Q17.85 -33.5 17.85 -34.35 17.85 -35.65 18.45 -36.5 19.15 -37.45 20.9 -38.4 L21.05 -38.2 M38.6 -28.05 Q38.6 -28.85 39.35 -30.25 40.1 -31.7 40.85 -32.15 L41.05 -31.8 40.55 -30.7 Q40.05 -29.75 40.05 -28.8 40.05 -28.2 40.55 -27.0 L41.05 -25.7 41.05 -25.55 42.55 -23.5 Q43.85 -21.7 43.85 -20.65 L43.6 -19.25 43.3 -18.2 Q43.3 -17.1 45.85 -15.55 48.4 -14.05 48.4 -11.4 L47.15 -9.2 Q47.15 -8.55 48.15 -8.25 L48.45 -8.5 49.3 -8.15 Q50.85 -8.15 51.6 -10.05 L52.0 -12.0 51.75 -13.75 Q51.75 -15.5 52.8 -17.4 53.85 -19.3 53.85 -20.8 L53.55 -23.3 53.75 -23.65 Q54.35 -22.75 54.7 -21.25 L55.05 -18.75 Q55.05 -17.45 54.5 -15.75 53.95 -14.1 53.95 -13.05 53.95 -11.95 56.45 -9.95 58.9 -7.95 58.9 -5.4 L58.7 -4.2 58.45 -3.1 Q58.45 -2.95 58.7 -2.75 L59.05 -2.6 Q60.35 -2.6 60.95 -4.0 L61.3 -5.45 60.9 -6.8 Q60.45 -8.25 60.45 -9.35 60.45 -11.2 61.55 -11.2 L61.75 -11.15 61.85 -10.85 61.6 -9.95 Q61.6 -8.7 62.85 -6.2 64.05 -3.7 64.05 -2.4 64.05 -1.45 63.35 -0.2 L62.6 1.1 62.9 1.2 63.05 1.35 62.2 2.3 61.15 3.1 60.7 2.85 60.65 2.55 60.95 2.05 61.2 1.65 Q61.2 0.9 59.2 -0.15 56.95 -1.3 56.6 -1.8 L55.25 -3.4 Q54.05 -4.45 52.05 -5.0 L44.1 -7.6 Q38.0 -9.55 35.2 -9.55 L31.75 -9.4 29.85 -9.3 22.95 -8.9 Q21.15 -8.55 16.0 -6.45 L11.55 -5.35 7.35 -4.4 Q1.65 -2.15 1.45 -0.85 0.35 2.15 0.35 2.95 L0.7 5.2 0.65 5.5 0.4 5.6 Q0.0 5.6 -1.2 2.85 L-1.05 2.65 -0.95 2.4 -1.0 2.0 -1.2 1.75 -1.15 1.25 -1.1 0.75 -1.05 0.7 -0.05 -5.55 Q0.35 -7.85 1.8 -9.5 3.0 -10.95 3.0 -12.6 3.0 -13.4 2.15 -14.85 1.25 -16.35 1.25 -17.4 1.25 -18.7 2.55 -20.5 3.85 -22.25 3.85 -23.75 L3.65 -25.15 3.85 -25.8 4.05 -25.75 4.05 -25.7 4.55 -24.45 4.9 -23.2 4.9 -22.95 5.05 -22.35 4.8 -20.45 4.55 -18.55 Q4.55 -17.8 5.6 -16.8 L7.6 -15.05 9.55 -14.05 Q11.0 -13.2 11.05 -12.25 L11.1 -10.05 Q11.35 -8.5 12.5 -8.5 L13.35 -8.7 13.6 -8.45 Q15.1 -9.05 15.4 -10.25 L15.85 -12.65 16.35 -12.35 Q16.85 -12.1 17.25 -12.1 20.95 -12.1 22.7 -13.15 23.65 -13.7 24.35 -14.7 L25.35 -13.35 Q26.25 -12.25 26.95 -12.25 L28.1 -12.4 34.1 -14.55 Q34.7 -14.55 35.35 -13.8 36.0 -13.05 37.25 -13.05 38.2 -13.05 38.85 -13.9 L39.3 -14.95 Q39.3 -16.15 38.55 -17.15 37.8 -18.15 37.8 -18.85 37.8 -19.8 39.05 -21.3 40.25 -22.8 40.25 -23.45 40.25 -23.95 39.45 -25.65 38.6 -27.4 38.6 -28.05 M4.3 -24.3 L4.3 -24.1 4.35 -24.15 4.3 -24.3" fill="#ffff00" fill-rule="evenodd" stroke="none"/>
  </g>
</svg>
