<?xml version="1.0" encoding="UTF-8" standalone="no"?>
<svg xmlns:xlink="http://www.w3.org/1999/xlink" height="47.5px" width="66.05px" xmlns="http://www.w3.org/2000/svg">
  <g transform="matrix(1.0, 0.0, 0.0, 1.0, 1.45, 41.65)">
    <path d="M20.85 -38.0 L20.2 -36.5 20.15 -36.4 20.2 -36.4 20.65 -36.55 20.8 -36.4 Q20.45 -35.95 20.15 -35.95 19.65 -35.95 18.85 -36.95 18.1 -37.85 18.1 -38.05 L18.75 -38.65 Q19.35 -39.1 19.35 -39.5 L19.2 -40.45 18.35 -41.6 Q19.4 -41.9 20.3 -40.95 21.05 -40.05 21.05 -39.1 L20.85 -38.0 M38.55 -36.8 Q40.0 -36.4 40.8 -35.3 41.45 -34.35 41.45 -33.3 L41.15 -31.5 Q41.15 -31.35 41.25 -31.35 L41.35 -31.25 40.85 -30.4 Q40.3 -29.85 40.05 -28.1 40.1 -28.0 39.85 -28.0 39.25 -28.0 38.7 -29.2 L38.25 -30.4 39.05 -31.6 Q39.85 -32.95 39.85 -33.5 L39.3 -35.2 38.55 -36.8 M40.35 -25.35 L40.4 -25.45 40.35 -25.65 40.4 -26.1 Q40.8 -26.25 41.0 -25.7 L41.3 -25.6 42.4 -24.75 Q42.8 -24.3 42.8 -22.85 42.8 -21.7 42.45 -21.0 42.1 -20.3 42.1 -19.8 42.1 -19.45 45.65 -16.85 49.15 -14.3 49.15 -12.25 49.15 -11.5 48.25 -10.8 47.3 -10.05 47.3 -9.55 47.3 -9.1 47.7 -8.8 L49.75 -8.15 49.85 -7.9 Q50.75 -8.3 51.15 -10.0 L51.45 -12.25 51.2 -14.95 52.4 -17.2 Q53.55 -19.05 53.55 -20.25 53.55 -21.65 52.8 -23.85 L51.55 -27.3 Q55.4 -24.2 55.4 -18.85 L54.4 -13.65 Q54.4 -11.85 56.8 -9.9 59.2 -7.95 59.2 -5.3 58.85 -3.8 58.85 -3.2 L58.85 -3.05 Q60.4 -3.2 60.9 -4.3 L61.15 -5.8 60.65 -8.4 Q60.15 -9.95 60.15 -10.85 60.15 -11.8 60.9 -13.2 61.85 -14.8 63.1 -15.25 L63.45 -14.9 62.65 -13.45 Q61.8 -11.95 61.8 -10.8 61.8 -9.95 63.2 -7.05 64.6 -4.15 64.6 -2.25 64.6 1.35 63.3 2.2 L62.05 3.25 58.85 -0.8 56.6 -2.75 Q54.9 -4.0 53.35 -4.5 L41.75 -8.15 Q37.25 -9.45 33.85 -9.45 L25.3 -8.65 Q20.2 -7.9 18.45 -7.15 17.35 -6.65 13.5 -5.85 L7.1 -4.25 Q4.45 -3.35 2.4 0.1 0.6 3.15 0.6 5.35 L0.55 5.7 Q0.5 5.85 0.25 5.85 -0.85 5.85 -1.3 1.65 L-1.25 1.35 -1.4 1.3 -1.45 0.65 -0.7 -1.8 0.1 -3.85 -0.05 -3.9 0.05 -4.2 0.05 -4.0 0.2 -4.15 0.3 -4.35 Q0.8 -5.3 0.8 -6.8 L0.85 -9.3 Q2.25 -15.45 3.55 -19.05 L3.65 -18.9 3.8 -19.05 Q4.55 -17.6 5.3 -16.7 6.35 -15.55 8.2 -15.0 L8.25 -15.0 9.2 -14.95 Q11.25 -14.95 11.7 -15.85 L12.25 -17.15 Q13.35 -17.85 13.8 -14.65 13.8 -13.95 12.95 -12.6 12.05 -11.25 12.05 -10.65 12.05 -10.2 13.1 -9.45 14.1 -8.7 14.85 -8.8 L14.85 -8.95 14.25 -9.1 14.15 -9.4 Q14.85 -9.4 15.05 -10.0 L14.1 -11.3 14.15 -11.65 16.5 -11.45 Q18.35 -11.45 20.5 -12.8 L21.2 -12.55 Q23.2 -12.55 24.6 -13.25 L26.1 -14.05 Q26.5 -14.1 27.15 -13.4 27.85 -12.65 28.7 -12.65 L29.2 -12.65 32.8 -14.2 35.35 -16.0 35.85 -14.8 Q36.3 -13.8 37.0 -13.8 39.35 -13.8 40.05 -14.5 L40.3 -15.45 Q40.3 -16.95 39.0 -18.35 37.7 -19.8 37.7 -20.35 37.7 -21.5 39.15 -22.75 40.6 -24.05 40.6 -24.65 L40.45 -25.3 40.35 -25.35 M4.3 -24.95 Q4.3 -23.25 3.4 -21.25 L3.15 -21.25 Q3.2 -21.85 2.5 -23.25 1.85 -24.65 1.85 -25.25 L2.15 -28.6 2.6 -31.55 Q3.35 -30.6 3.9 -27.85 L4.3 -24.95 M62.1 2.2 L62.1 2.15 62.05 2.2 62.1 2.2 M61.25 -12.2 L61.3 -12.2 61.3 -12.3 61.25 -12.2" fill="#ffff00" fill-rule="evenodd" stroke="none"/>
  </g>
</svg>
