<?xml version="1.0" encoding="UTF-8" standalone="no"?>
<svg xmlns:xlink="http://www.w3.org/1999/xlink" height="49.2px" width="65.85px" xmlns="http://www.w3.org/2000/svg">
  <g transform="matrix(1.0, 0.0, 0.0, 1.0, 1.3, 44.35)">
    <path d="M39.05 -38.8 Q39.4 -39.65 40.5 -40.35 L40.6 -40.15 39.75 -38.3 Q39.75 -37.5 40.45 -36.0 L41.45 -33.7 41.45 -33.25 39.6 -32.15 39.35 -32.55 39.6 -33.7 39.2 -35.3 Q38.75 -36.2 38.75 -37.2 38.75 -38.2 39.05 -38.8 M40.1 -33.25 L40.1 -33.2 40.15 -33.2 40.1 -33.25 M20.0 -44.2 L20.05 -44.15 19.7 -43.45 19.45 -42.75 Q19.45 -42.15 20.15 -40.95 L20.05 -40.85 19.9 -40.95 19.75 -41.05 19.65 -40.9 19.55 -40.8 Q19.1 -40.8 18.55 -41.45 L18.05 -42.15 Q18.05 -42.85 18.4 -43.2 L19.6 -44.35 20.0 -44.2 M19.05 -43.1 L19.05 -43.15 19.0 -43.1 19.05 -43.1 M4.0 -34.15 L4.05 -33.95 3.5 -32.45 Q2.95 -31.1 2.95 -30.7 2.95 -29.9 3.7 -28.45 4.5 -26.95 4.5 -25.9 4.5 -25.75 4.25 -25.75 2.45 -28.25 1.35 -28.25 L1.3 -29.4 Q1.3 -30.75 1.9 -32.1 2.65 -33.9 4.0 -34.15 M11.8 -22.75 L11.85 -22.8 12.0 -22.75 12.05 -22.55 12.05 -22.4 12.45 -21.65 12.95 -20.2 12.55 -18.65 12.6 -18.25 12.55 -17.75 12.35 -17.65 Q11.85 -18.15 11.0 -20.3 L11.3 -21.7 11.65 -22.5 11.55 -22.65 11.6 -22.9 11.8 -22.75 M12.3 -14.6 L12.8 -13.25 12.5 -11.95 12.15 -10.85 12.5 -10.2 13.3 -9.75 14.1 -9.8 13.7 -10.55 14.05 -10.95 14.6 -11.2 16.7 -10.65 16.75 -10.5 Q18.65 -10.5 19.55 -12.4 20.1 -13.6 20.1 -14.95 20.55 -15.0 22.2 -13.9 23.9 -12.8 24.6 -12.8 24.9 -12.8 26.15 -13.75 L27.65 -14.7 28.1 -14.65 28.15 -14.4 27.55 -13.15 Q27.55 -12.95 28.45 -12.8 L29.0 -12.7 30.4 -13.4 Q32.15 -14.25 32.55 -15.15 L33.3 -16.6 33.55 -17.85 33.1 -20.45 33.55 -21.65 34.1 -22.7 34.4 -22.7 34.3 -21.7 Q34.3 -20.75 34.95 -19.85 L36.85 -17.6 37.05 -15.35 Q37.1 -13.95 38.85 -13.95 39.75 -13.95 40.05 -15.75 L39.4 -17.35 Q38.7 -18.35 38.7 -19.4 38.7 -20.05 39.5 -20.75 40.25 -21.5 40.25 -22.75 L40.85 -22.75 Q40.5 -20.85 42.65 -19.4 43.2 -19.0 45.3 -18.15 47.35 -17.1 48.15 -15.8 48.7 -14.8 48.7 -13.45 48.7 -12.15 47.9 -11.25 47.1 -10.35 47.1 -9.85 L48.25 -9.25 48.35 -9.2 48.5 -9.3 48.85 -9.15 49.25 -9.0 Q50.45 -9.0 51.2 -10.2 L51.7 -11.45 51.25 -13.1 Q50.8 -14.0 50.8 -14.55 50.8 -15.9 52.2 -16.85 53.6 -17.8 53.6 -19.95 L53.5 -21.25 53.1 -22.8 53.8 -22.7 53.6 -22.55 53.65 -22.4 Q54.55 -21.65 54.9 -19.95 L55.1 -16.9 54.75 -15.1 54.35 -13.35 Q54.35 -11.85 56.95 -9.3 59.55 -6.75 59.55 -5.55 L59.3 -3.8 59.3 -3.45 Q59.4 -3.25 59.8 -3.25 60.7 -3.25 61.2 -4.65 L61.55 -6.3 61.05 -8.45 Q60.55 -9.95 60.55 -10.8 60.55 -12.45 61.65 -13.7 62.7 -14.95 62.7 -15.6 L61.55 -19.3 61.9 -19.55 Q62.75 -19.55 63.65 -13.75 63.65 -12.5 63.1 -11.9 62.55 -11.35 62.55 -10.1 62.55 -9.45 63.55 -7.45 64.55 -5.45 64.55 -2.9 64.55 -1.8 63.85 -0.1 L63.35 1.5 63.15 1.95 63.35 1.95 63.45 2.4 63.0 3.75 62.3 4.85 Q61.9 4.85 61.45 3.15 L60.8 0.85 Q60.15 -0.45 57.95 -1.25 L55.05 -2.4 52.8 -4.2 Q50.9 -5.5 48.85 -5.65 L46.0 -6.1 43.45 -6.65 41.3 -6.7 39.4 -6.85 Q38.3 -7.4 37.45 -7.4 34.95 -7.4 32.85 -6.25 30.7 -5.1 30.55 -5.1 30.2 -5.1 29.85 -5.7 29.5 -6.25 26.6 -6.15 26.0 -6.1 25.2 -6.5 L23.1 -6.95 16.85 -6.05 10.85 -5.15 Q9.85 -5.15 8.05 -4.35 6.45 -3.65 6.1 -3.25 5.75 -2.8 4.15 -2.2 2.65 -1.65 2.2 -1.05 -0.15 2.0 -0.15 4.0 L-0.4 4.2 Q-0.9 3.45 -0.95 2.2 L-0.95 1.75 -1.3 1.5 -1.15 1.35 -1.0 1.4 -1.05 0.85 -1.25 0.8 -1.3 -0.1 Q-1.3 -1.95 0.15 -3.9 L1.6 -5.95 Q1.6 -6.45 0.8 -7.35 -0.05 -8.2 -0.05 -8.75 -0.05 -9.4 1.5 -12.55 3.1 -15.8 3.8 -16.45 L3.85 -16.25 3.8 -16.1 3.85 -16.2 3.95 -15.75 Q3.95 -15.15 4.95 -14.1 6.1 -12.85 7.2 -12.85 9.4 -12.85 10.1 -13.35 10.75 -13.85 11.35 -15.8 L12.3 -14.6 M33.8 -21.4 L33.85 -21.4 33.8 -21.45 33.8 -21.4 M3.5 -15.5 L3.5 -15.55 3.5 -15.5 M53.45 -34.8 L52.45 -33.15 Q52.3 -32.75 52.3 -31.95 L52.35 -31.05 Q52.35 -29.75 52.8 -28.35 L53.25 -27.05 53.6 -26.3 53.55 -26.1 Q53.6 -26.0 53.35 -26.0 L52.4 -27.0 51.2 -28.4 Q49.85 -30.15 49.85 -30.85 49.85 -31.85 51.05 -33.4 52.35 -35.1 53.9 -35.45 L54.0 -35.25 53.45 -34.8 M62.35 3.2 L62.45 3.05 62.35 3.1 62.35 3.2 M-0.4 2.2 L-0.5 2.15 -0.45 2.25 -0.4 2.2" fill="#ffff00" fill-rule="evenodd" stroke="none"/>
  </g>
</svg>
