<?xml version="1.0" encoding="UTF-8" standalone="no"?>
<svg xmlns:xlink="http://www.w3.org/1999/xlink" height="51.15px" width="65.7px" xmlns="http://www.w3.org/2000/svg">
  <g transform="matrix(1.0, 0.0, 0.0, 1.0, 1.4, 45.65)">
    <path d="M39.4 -43.55 Q40.75 -43.25 41.1 -42.65 L41.3 -41.3 Q41.3 -40.35 40.9 -39.55 40.45 -38.75 40.45 -37.4 L40.45 -36.65 40.8 -35.9 40.3 -36.2 40.35 -35.8 40.25 -35.45 40.1 -35.4 39.1 -36.75 Q38.35 -37.9 38.35 -38.15 L39.2 -39.5 Q40.05 -40.7 40.05 -41.3 L39.4 -43.55 M35.35 -25.5 L35.6 -25.5 35.9 -25.8 36.05 -25.55 36.0 -25.45 36.05 -25.25 36.0 -25.05 36.1 -25.2 36.25 -25.0 35.45 -21.95 Q35.45 -20.55 36.65 -19.6 37.85 -18.65 37.85 -17.5 L37.35 -16.45 Q36.85 -15.8 36.85 -15.3 36.85 -14.95 37.3 -14.7 L38.25 -14.45 Q39.2 -14.45 39.7 -15.3 40.05 -15.9 40.05 -16.45 L39.4 -17.5 Q38.7 -18.55 38.7 -19.15 L40.1 -21.2 Q41.45 -22.9 41.45 -24.35 41.45 -24.8 41.05 -25.25 41.55 -25.5 41.85 -25.05 L42.05 -24.35 42.05 -24.25 42.4 -22.45 Q42.5 -20.45 43.3 -19.7 43.55 -19.4 45.7 -18.6 47.8 -17.8 48.25 -17.2 49.35 -15.65 49.35 -14.45 49.35 -13.85 48.25 -12.85 L47.1 -11.8 Q47.1 -11.2 47.9 -10.45 48.75 -9.6 49.7 -9.6 L50.35 -9.7 50.8 -10.2 Q51.55 -11.1 51.95 -12.55 L52.2 -14.05 Q52.4 -15.0 52.75 -15.4 L53.25 -12.35 Q53.85 -10.55 55.65 -9.6 57.7 -8.5 58.45 -6.15 59.15 -4.15 59.55 -4.15 60.6 -4.15 61.1 -5.4 L61.35 -6.7 60.95 -8.9 Q60.5 -10.45 60.5 -11.4 60.5 -12.55 61.5 -14.15 62.45 -15.75 62.45 -17.9 L62.0 -23.9 62.05 -24.15 62.25 -24.15 62.8 -19.0 63.15 -12.8 62.9 -9.5 Q62.9 -8.75 63.6 -7.1 64.3 -5.45 64.3 -3.55 64.3 -2.1 63.3 1.4 L63.0 2.4 63.1 2.85 Q63.1 3.45 62.65 3.6 62.1 4.95 61.8 4.95 L61.6 4.9 61.55 4.7 62.15 3.65 62.2 3.6 62.0 3.5 61.85 3.55 61.5 3.1 61.65 2.8 61.55 2.25 61.65 1.8 Q61.2 1.05 59.55 0.1 57.15 -1.25 54.8 -1.25 L53.45 -1.0 53.05 -1.05 53.0 -1.5 53.45 -2.5 Q53.45 -2.85 52.6 -3.0 51.6 -3.15 51.25 -3.65 L51.15 -4.45 Q51.2 -4.8 50.1 -5.0 L46.2 -5.95 40.95 -6.15 Q36.15 -6.15 33.45 -4.85 L31.0 -3.15 Q30.1 -4.35 27.95 -5.7 L25.9 -6.85 23.65 -6.35 21.5 -5.9 18.1 -6.05 16.25 -6.25 Q14.4 -6.25 13.7 -5.75 L12.95 -5.0 11.55 -4.75 Q10.7 -4.6 10.3 -4.05 8.75 -1.65 7.4 -1.65 L6.3 -1.8 4.85 -1.95 3.0 -0.95 Q1.3 0.2 0.95 1.3 0.35 3.05 0.6 4.7 L0.6 5.35 0.4 5.5 Q-0.05 5.5 -1.15 1.9 L-1.4 -0.4 Q-1.4 -2.05 -0.15 -3.65 1.1 -5.3 1.1 -6.15 L0.1 -8.65 Q0.1 -9.85 1.25 -11.45 L3.6 -14.45 3.65 -14.4 3.7 -14.55 3.7 -14.4 3.8 -14.2 3.75 -14.05 Q3.85 -12.95 4.2 -12.15 4.95 -10.4 7.55 -10.4 9.1 -10.4 11.45 -13.95 12.15 -13.95 12.05 -12.65 L11.85 -11.55 11.65 -10.55 Q11.65 -10.15 12.1 -9.7 12.6 -9.15 13.1 -9.15 L13.6 -9.35 13.7 -9.55 Q13.3 -9.65 13.3 -10.1 L13.35 -10.45 14.8 -10.5 16.75 -10.3 Q19.0 -10.3 19.7 -13.2 20.05 -14.65 19.95 -16.3 19.95 -17.05 21.0 -18.9 L21.25 -20.2 21.45 -20.95 21.4 -21.05 21.5 -21.05 21.6 -21.25 21.65 -21.15 21.75 -21.2 Q22.45 -20.4 22.35 -18.95 L22.15 -16.7 Q22.15 -13.75 25.65 -13.9 L27.5 -15.15 27.7 -15.0 28.05 -15.0 27.75 -14.85 27.8 -14.5 Q27.45 -13.85 27.45 -13.45 L27.55 -12.8 Q27.8 -12.35 28.75 -12.35 32.15 -12.35 33.1 -16.4 33.55 -18.45 33.35 -20.65 33.35 -21.9 34.0 -23.3 L35.35 -25.25 35.35 -25.5 M18.85 -45.3 L19.1 -45.65 19.6 -45.05 19.8 -44.35 19.7 -43.65 Q19.75 -43.55 19.5 -43.55 18.85 -43.55 18.85 -44.05 L19.1 -44.7 18.85 -45.3 M3.55 -34.4 L3.6 -34.4 3.6 -34.65 3.55 -34.55 3.55 -34.4 M2.8 -35.8 L1.9 -37.5 Q3.0 -38.05 4.2 -35.0 L3.6 -33.1 Q2.95 -31.75 2.95 -30.5 L3.05 -30.25 3.4 -29.9 3.15 -29.55 3.1 -29.4 2.95 -29.4 1.5 -31.2 2.3 -32.45 Q3.1 -33.4 3.1 -34.4 L2.8 -35.8 M11.55 -24.0 Q11.55 -25.4 11.85 -25.65 L12.5 -24.2 12.85 -22.85 12.4 -21.55 12.35 -21.5 12.35 -21.05 12.1 -20.9 10.8 -22.5 Q10.8 -22.9 11.35 -23.65 L11.55 -23.9 11.55 -24.0 M35.35 -24.35 L35.35 -24.4 35.35 -24.35 M51.55 -39.8 Q53.55 -40.4 53.55 -36.4 53.55 -35.6 53.05 -34.55 L52.5 -33.5 52.75 -32.95 52.1 -32.65 51.45 -33.9 50.8 -34.85 51.6 -35.75 Q52.35 -36.55 52.35 -37.3 L51.95 -38.55 51.55 -39.8" fill="#ffff00" fill-rule="evenodd" stroke="none"/>
  </g>
</svg>
