<?xml version="1.0" encoding="UTF-8" standalone="no"?>
<svg xmlns:xlink="http://www.w3.org/1999/xlink" height="53.0px" width="66.15px" xmlns="http://www.w3.org/2000/svg">
  <g transform="matrix(1.0, 0.0, 0.0, 1.0, 2.55, 46.95)">
    <path d="M40.05 -45.25 Q40.05 -44.5 40.85 -43.5 L41.6 -42.25 41.3 -40.95 Q40.8 -39.95 39.7 -39.95 L39.35 -40.05 39.3 -40.35 39.65 -40.95 39.95 -41.7 39.5 -42.9 Q39.05 -43.65 39.05 -44.05 39.05 -44.9 39.4 -45.65 39.85 -46.65 40.8 -46.95 L40.85 -46.75 40.45 -46.0 40.05 -45.25 M40.2 -40.85 L40.15 -40.75 40.25 -40.75 40.2 -40.85 M20.7 -25.2 L20.1 -26.5 Q21.1 -26.85 21.65 -25.15 L22.35 -23.7 22.8 -21.0 22.55 -19.35 22.3 -17.6 Q22.3 -17.15 23.2 -16.1 24.15 -14.95 24.85 -14.95 26.55 -14.95 26.55 -16.6 L26.3 -17.55 26.3 -18.05 26.6 -18.2 Q27.85 -18.2 27.95 -15.4 28.05 -12.6 29.55 -12.6 31.65 -12.6 32.25 -13.9 32.5 -14.4 32.8 -17.05 L33.8 -19.2 34.35 -20.8 34.3 -21.0 34.15 -21.45 34.35 -21.65 34.45 -21.55 34.55 -21.65 Q34.8 -20.35 36.2 -18.25 L37.55 -16.25 36.9 -15.1 36.95 -14.85 37.5 -14.9 37.75 -14.75 39.05 -14.5 Q39.95 -14.5 39.85 -16.1 L39.55 -17.9 Q39.25 -19.1 39.25 -19.75 39.25 -21.0 40.25 -22.25 41.25 -23.5 41.25 -25.1 41.25 -26.2 40.5 -28.7 41.6 -28.05 42.25 -26.55 42.8 -25.25 42.8 -24.05 L42.55 -21.75 Q42.55 -21.35 43.35 -20.35 44.25 -19.15 45.05 -19.15 46.75 -19.15 47.0 -19.8 L46.9 -20.5 46.95 -20.8 47.3 -20.85 Q48.7 -20.85 49.85 -16.6 49.85 -15.0 48.75 -13.65 47.6 -12.3 47.6 -11.5 47.6 -11.15 48.1 -10.55 48.7 -9.8 49.45 -9.8 L49.9 -9.85 49.9 -9.9 50.0 -9.9 50.6 -10.05 51.0 -9.95 51.25 -10.25 51.55 -11.05 Q52.05 -11.45 52.65 -10.9 L53.55 -9.95 55.05 -8.35 Q55.8 -7.5 58.0 -7.65 L58.25 -5.0 Q58.65 -3.35 60.05 -3.35 61.75 -3.35 62.15 -4.25 62.35 -4.7 62.2 -5.25 L62.5 -5.3 63.3 -3.25 63.6 -1.4 Q63.6 -0.3 63.2 0.5 L61.75 2.5 61.3 2.25 61.1 2.45 60.8 2.05 61.0 1.35 Q61.0 0.5 59.85 -0.25 58.45 -1.15 56.2 -1.15 L55.15 -0.95 Q54.3 -0.95 53.55 -1.4 L52.95 -1.9 Q52.95 -2.15 53.25 -2.25 L54.15 -2.95 Q52.95 -4.2 52.7 -4.8 52.15 -5.85 50.45 -6.05 L48.15 -6.0 45.35 -5.75 Q44.65 -5.75 43.35 -6.35 L42.05 -7.0 Q39.8 -7.0 37.2 -5.5 34.55 -4.05 33.6 -4.05 L32.85 -4.3 31.3 -3.1 Q29.95 -1.95 28.65 -1.95 27.95 -1.95 27.8 -2.2 L27.8 -2.45 28.1 -3.15 28.35 -4.05 28.0 -4.5 27.35 -5.1 Q26.95 -5.55 26.1 -5.5 L25.05 -5.5 Q24.6 -5.75 24.6 -6.1 L24.55 -6.65 20.45 -7.15 Q20.0 -7.15 18.6 -6.55 17.1 -5.95 16.6 -5.85 L13.0 -5.15 Q11.85 -4.95 11.45 -4.55 L10.05 -2.55 Q9.1 -1.55 6.0 -1.55 L5.15 -1.1 4.55 -0.6 3.25 -0.45 Q2.7 -0.45 2.4 0.25 L1.6 2.2 1.1 4.2 0.35 6.05 -0.15 3.95 -0.5 2.6 Q-1.3 1.7 -2.55 -2.4 L-2.3 -4.4 Q-1.9 -5.8 -1.0 -6.2 L-0.7 -5.85 -1.1 -5.0 -0.7 -4.3 -0.05 -3.8 Q0.8 -3.8 0.8 -4.9 L0.45 -6.45 Q0.1 -7.4 0.1 -7.95 0.1 -9.05 1.05 -10.1 L3.3 -12.2 3.6 -12.45 3.65 -12.25 3.6 -12.0 4.75 -11.1 Q6.15 -10.0 7.8 -10.0 8.55 -10.0 10.35 -10.75 10.6 -10.75 12.25 -11.7 L13.45 -11.0 Q14.4 -10.45 15.45 -10.2 L15.5 -10.25 16.55 -10.0 Q18.0 -10.0 18.9 -11.15 19.55 -12.0 19.55 -12.6 L19.1 -15.25 Q19.1 -16.35 20.3 -18.0 21.5 -19.65 21.5 -21.45 21.5 -23.25 20.75 -25.15 L20.7 -25.15 20.7 -25.2 M34.05 -29.75 L35.0 -27.6 34.35 -26.65 34.35 -26.15 34.1 -25.95 33.8 -26.15 33.65 -26.25 Q32.7 -27.05 32.7 -27.8 L33.0 -28.75 33.3 -30.35 Q33.3 -30.7 33.6 -31.0 L34.05 -29.8 34.05 -29.75 M3.25 -40.4 L3.3 -40.25 Q2.55 -38.8 2.55 -38.55 2.55 -37.45 3.45 -36.45 4.35 -35.45 4.35 -33.65 4.35 -33.15 3.75 -32.9 L3.6 -32.95 3.7 -33.45 2.65 -35.1 Q1.6 -36.9 1.6 -37.75 1.6 -38.85 1.75 -39.15 2.05 -39.85 3.25 -40.4 M12.3 -25.0 L12.25 -24.75 11.8 -24.7 11.35 -24.75 11.35 -25.5 Q11.7 -25.85 11.55 -26.9 L11.9 -26.9 12.3 -25.0 M28.6 -2.6 L28.6 -2.65 28.55 -2.6 28.6 -2.6 M62.55 -25.2 L63.25 -22.7 63.0 -21.7 62.85 -21.65 Q62.7 -21.8 62.7 -22.15 L62.75 -22.65 Q62.75 -23.15 61.4 -24.35 60.05 -25.55 60.05 -26.55 60.05 -27.35 60.95 -29.5 61.95 -31.85 62.65 -31.9 L62.7 -31.7 Q61.85 -29.2 61.85 -28.65 61.85 -27.5 62.55 -25.2 M52.8 -43.65 L52.35 -43.0 Q51.85 -42.45 51.85 -41.95 51.85 -41.35 52.2 -40.5 52.6 -39.35 53.3 -39.3 L52.75 -38.8 Q51.5 -38.8 50.95 -40.05 L50.65 -41.3 Q50.65 -42.8 52.6 -43.9 L52.8 -43.65 M51.45 -42.3 L51.45 -42.35 51.4 -42.3 51.45 -42.3" fill="#ffff00" fill-rule="evenodd" stroke="none"/>
  </g>
</svg>
