<?xml version="1.0" encoding="UTF-8" standalone="no"?>
<svg xmlns:xlink="http://www.w3.org/1999/xlink" height="55.55px" width="68.85px" xmlns="http://www.w3.org/2000/svg">
  <g transform="matrix(1.0, 0.0, 0.0, 1.0, 5.3, 49.1)">
    <path d="M39.3 -49.05 Q39.7 -49.25 40.5 -48.4 L41.2 -47.25 40.75 -46.15 40.3 -45.1 Q40.3 -44.75 41.1 -43.55 L41.0 -43.4 39.85 -44.65 39.0 -45.9 39.05 -46.4 40.05 -46.8 40.1 -47.3 39.95 -48.0 39.3 -48.8 39.3 -49.05 M40.25 -46.4 L40.3 -46.35 40.3 -46.45 40.25 -46.4 M20.8 -26.1 L20.85 -26.1 20.8 -26.1 M21.3 -25.65 L21.25 -24.65 21.0 -24.5 19.8 -26.95 Q18.8 -29.0 18.8 -29.4 18.8 -30.4 19.2 -31.05 L20.75 -32.9 21.0 -32.55 20.7 -31.65 20.35 -30.5 Q20.35 -28.65 20.85 -27.75 21.3 -26.85 21.3 -25.65 M33.5 -33.2 L34.15 -31.95 34.35 -30.45 34.15 -29.6 33.95 -29.05 34.1 -28.75 33.8 -28.5 33.65 -28.8 33.35 -28.95 33.45 -29.2 32.75 -30.5 32.75 -31.45 33.15 -32.3 33.15 -32.5 33.25 -32.85 33.5 -33.2 M33.6 -32.05 L33.55 -32.15 33.55 -32.05 33.6 -32.05 M2.85 -43.75 Q4.2 -43.3 4.2 -42.0 4.2 -41.15 3.5 -40.45 2.8 -39.75 2.8 -38.85 L3.0 -38.25 4.2 -37.25 4.2 -37.05 Q4.0 -36.85 3.4 -37.05 L4.1 -36.5 3.85 -36.35 Q2.25 -36.35 1.25 -39.5 1.25 -39.9 2.15 -40.95 3.05 -42.0 3.05 -42.55 L2.8 -43.55 2.85 -43.75 M18.85 -14.15 Q18.45 -14.65 18.45 -15.25 18.45 -15.9 19.2 -16.95 L20.35 -18.65 21.1 -20.45 Q21.5 -21.55 21.85 -21.8 L21.85 -21.65 22.15 -21.6 22.4 -21.25 Q22.8 -20.95 22.8 -20.5 L22.75 -20.25 22.75 -20.05 22.75 -19.95 22.8 -19.65 22.65 -18.15 22.6 -18.1 Q22.65 -17.2 23.05 -16.35 23.8 -14.75 25.45 -14.75 26.85 -14.75 26.95 -16.8 L26.95 -20.2 Q27.5 -19.75 27.65 -18.95 L27.8 -17.55 27.8 -14.8 Q27.8 -14.35 28.25 -13.7 28.8 -12.8 29.5 -13.2 L29.7 -13.0 29.65 -12.7 Q31.3 -12.8 32.55 -15.95 L33.85 -19.5 33.85 -19.65 33.9 -19.65 34.0 -20.05 34.3 -19.65 34.3 -19.35 35.9 -17.8 Q37.3 -16.6 37.3 -15.95 L37.05 -14.8 Q37.05 -14.4 37.55 -14.25 L38.0 -14.4 38.2 -14.25 38.4 -14.15 Q39.5 -14.15 39.85 -16.75 L39.55 -18.5 39.25 -20.2 40.25 -22.7 Q41.25 -25.05 41.25 -27.6 41.25 -29.6 40.85 -31.85 L40.95 -31.95 Q41.85 -31.4 42.5 -25.0 43.05 -19.1 45.35 -19.1 46.6 -19.1 47.1 -19.9 L47.35 -20.75 47.05 -21.35 Q46.75 -21.7 46.7 -22.15 L46.75 -22.25 46.9 -22.3 Q48.3 -22.3 49.1 -19.85 L49.65 -17.35 Q49.65 -15.05 48.6 -13.25 47.55 -11.85 47.55 -11.5 47.55 -10.5 49.4 -10.05 L49.55 -10.15 50.1 -9.95 Q51.1 -9.95 51.9 -11.6 52.4 -12.75 52.5 -13.65 L52.75 -13.7 Q53.7 -11.3 56.25 -9.5 58.4 -8.05 58.4 -6.7 58.05 -5.2 58.05 -4.6 58.05 -3.95 58.55 -3.4 59.2 -2.65 60.25 -2.65 L61.15 -3.15 Q61.65 -3.65 61.7 -4.1 L61.9 -4.2 Q62.95 -4.2 63.4 -1.45 62.75 2.0 61.6 2.65 L61.3 2.35 61.45 2.05 61.0 2.1 60.9 0.5 Q60.6 -0.7 59.05 -0.7 L57.7 -0.5 Q57.25 -0.5 56.35 -1.05 55.25 -1.65 54.35 -1.9 53.55 -2.1 53.45 -2.65 L53.2 -3.65 52.3 -4.5 51.15 -5.5 50.5 -6.05 50.1 -5.95 48.5 -5.7 Q45.65 -5.7 44.85 -6.15 L44.0 -6.25 41.7 -6.65 Q40.6 -6.65 38.2 -5.2 35.85 -3.75 31.4 -3.75 L30.05 -4.0 28.95 -3.75 27.95 -3.5 Q27.1 -3.5 26.7 -4.0 L26.45 -4.5 26.75 -4.8 27.05 -5.1 Q27.05 -6.15 26.55 -6.4 L20.6 -6.95 Q17.75 -6.95 14.15 -5.25 L10.5 -3.55 9.5 -3.8 Q8.35 -3.8 7.15 -2.6 L6.1 -1.4 Q5.4 -0.5 3.95 0.1 L2.3 1.0 Q1.45 2.05 1.1 3.5 L0.6 6.35 0.35 6.45 Q-0.25 6.45 -0.3 4.5 L0.0 2.7 -0.4 1.45 -0.45 1.35 Q-1.4 0.9 -4.0 -1.85 -5.3 -3.25 -5.3 -5.0 L-4.65 -7.7 Q-4.0 -9.35 -3.3 -9.6 L-3.15 -9.75 -3.05 -9.7 -2.95 -9.7 -2.9 -9.5 Q-2.9 -9.1 -3.25 -8.35 L-3.65 -7.3 Q-3.2 -3.35 -0.95 -3.35 0.7 -3.35 0.7 -4.2 L-0.4 -6.15 Q-1.5 -7.6 -1.5 -9.0 L-1.25 -10.45 -0.3 -11.6 0.05 -11.95 0.1 -11.95 0.25 -12.05 0.55 -11.8 Q0.2 -11.45 0.2 -11.2 0.2 -10.4 1.25 -9.55 2.5 -8.5 4.35 -8.5 6.35 -8.5 8.55 -9.7 10.7 -10.95 11.6 -10.95 12.3 -10.95 13.45 -10.35 14.65 -9.75 15.75 -9.75 16.9 -9.75 18.2 -10.9 L18.8 -11.4 18.55 -11.45 18.45 -11.65 18.85 -12.45 19.2 -13.25 18.85 -14.15 M26.65 -22.25 Q26.65 -21.6 26.9 -21.4 L26.85 -21.3 26.3 -21.45 26.15 -21.75 26.3 -23.15 26.55 -23.15 26.65 -22.25 M27.65 -4.3 L27.65 -4.4 27.45 -4.35 27.65 -4.3 M60.85 -37.05 Q61.6 -37.0 62.6 -35.45 63.55 -34.05 63.55 -33.25 63.55 -32.5 62.7 -30.95 L61.85 -29.1 62.0 -28.8 62.3 -28.45 62.0 -28.2 Q61.2 -28.2 60.4 -29.6 L59.75 -31.0 60.8 -32.3 Q61.8 -33.5 61.8 -34.2 61.8 -35.05 61.3 -35.8 L60.8 -36.75 60.85 -37.05 M52.7 -44.65 L52.6 -45.2 52.2 -45.7 52.6 -44.65 52.7 -44.65 M53.0 -44.55 L52.6 -43.05 53.25 -42.95 52.85 -42.6 Q52.6 -42.6 52.1 -42.9 L51.65 -43.2 52.1 -43.75 52.3 -44.25 51.55 -46.15 Q53.0 -46.3 53.0 -44.55 M40.55 -46.8 L40.6 -47.6 40.55 -47.6 40.5 -46.8 40.55 -46.8" fill="#ffff00" fill-rule="evenodd" stroke="none"/>
  </g>
</svg>
