<?xml version="1.0" encoding="UTF-8" standalone="no"?>
<svg xmlns:xlink="http://www.w3.org/1999/xlink" height="57.9px" width="68.5px" xmlns="http://www.w3.org/2000/svg">
  <g transform="matrix(1.0, 0.0, 0.0, 1.0, 4.8, 52.15)">
    <path d="M41.0 -51.8 L40.6 -50.8 41.35 -48.15 41.3 -47.95 41.2 -47.8 Q40.65 -48.0 39.75 -49.1 L39.0 -50.15 Q39.0 -50.6 39.6 -51.25 L40.75 -52.15 41.0 -51.8 M20.65 -31.05 L20.1 -30.55 Q19.15 -31.9 19.15 -32.25 L19.65 -33.1 20.15 -34.2 19.65 -35.6 19.7 -35.75 20.7 -35.0 21.2 -33.8 Q21.2 -33.0 20.75 -32.25 L20.25 -31.35 20.35 -31.15 20.65 -31.05 M33.7 -34.05 L33.5 -33.0 33.25 -32.9 Q33.0 -33.05 32.7 -33.55 L32.45 -34.4 Q32.45 -35.15 33.1 -34.9 33.7 -34.6 33.7 -34.05 M2.75 -47.2 L2.95 -46.95 2.7 -46.35 2.45 -45.65 Q2.45 -44.95 2.7 -44.6 L3.65 -43.3 4.0 -42.15 4.05 -41.05 4.05 -41.0 3.9 -40.95 3.4 -41.05 3.45 -41.35 2.55 -42.8 Q1.6 -43.95 1.6 -44.8 L2.0 -46.0 2.75 -47.2 M19.7 -17.45 Q20.05 -16.9 20.4 -16.9 21.3 -16.9 21.3 -18.3 L20.8 -20.05 20.85 -20.4 Q21.85 -20.1 22.75 -17.7 23.55 -15.5 25.25 -15.5 26.7 -15.5 27.25 -16.65 L27.2 -16.7 27.25 -16.95 27.55 -17.05 27.6 -17.05 Q28.3 -17.05 28.4 -15.25 28.55 -13.5 29.8 -13.5 32.05 -13.5 32.35 -15.05 L32.95 -18.4 33.45 -20.95 33.85 -23.5 Q34.7 -23.0 34.65 -21.5 34.6 -19.75 35.1 -19.1 L36.2 -18.05 37.15 -16.8 37.3 -15.6 Q37.5 -14.75 38.1 -14.75 L38.5 -14.75 39.15 -15.5 Q39.8 -16.2 39.8 -16.75 L39.5 -17.85 Q39.2 -18.4 39.2 -18.8 L40.2 -20.8 41.6 -22.75 41.8 -23.0 41.95 -22.65 41.95 -22.4 44.15 -19.9 Q44.8 -19.15 46.15 -19.15 47.4 -19.15 47.4 -20.45 L47.05 -21.5 46.65 -22.65 Q46.65 -23.35 47.0 -24.05 47.5 -25.05 48.35 -25.0 L48.4 -24.75 48.15 -23.95 Q48.15 -22.85 49.55 -21.15 50.95 -19.5 50.95 -17.9 50.95 -15.65 49.85 -14.55 48.7 -13.45 48.7 -12.3 48.7 -11.65 49.15 -11.3 L49.25 -11.35 50.05 -10.95 Q52.8 -10.95 53.05 -12.95 L52.75 -15.75 53.35 -18.05 53.85 -20.7 53.6 -22.15 53.3 -23.45 Q53.3 -23.9 53.55 -24.05 54.9 -19.9 55.5 -14.9 L55.45 -12.45 Q55.4 -10.95 55.85 -10.3 L57.75 -7.9 Q58.85 -6.55 58.85 -5.8 L58.5 -4.5 58.1 -3.3 Q58.1 -2.2 59.45 -2.2 60.85 -2.2 61.35 -2.75 L61.85 -3.45 Q62.9 -3.0 62.9 -0.15 L62.3 1.55 61.8 2.55 61.8 2.7 61.65 2.8 61.5 2.95 61.15 2.6 61.25 2.35 61.15 1.4 Q61.15 0.35 60.55 -0.15 59.5 -1.0 58.05 -0.55 56.7 -0.15 55.45 -1.4 55.2 -1.65 55.1 -2.05 L54.85 -2.8 53.9 -4.3 Q53.2 -5.1 52.0 -5.4 L48.9 -5.45 Q46.6 -5.45 45.2 -6.15 L42.85 -6.55 40.85 -6.75 39.1 -6.3 37.15 -5.9 Q36.2 -5.9 35.85 -6.25 35.5 -6.65 35.1 -6.65 L32.0 -6.2 30.1 -5.75 Q28.0 -5.75 25.55 -6.6 23.1 -7.5 21.4 -7.5 19.5 -7.5 15.6 -6.3 L13.55 -5.35 11.8 -4.5 Q11.8 -4.3 10.0 -3.6 L9.0 -3.05 8.85 -3.15 7.1 -2.55 6.85 -2.35 2.5 1.55 Q0.3 3.8 0.55 5.6 L0.25 5.75 -0.2 3.25 Q-0.45 1.95 -1.45 1.3 L-2.15 1.05 Q-3.35 0.4 -4.1 -1.4 -4.8 -3.1 -4.8 -4.45 -4.8 -6.95 -3.75 -9.1 -2.7 -11.25 -2.7 -13.05 L-3.25 -16.85 -3.45 -17.15 -3.35 -17.3 -3.5 -17.4 -3.5 -17.7 -3.1 -17.7 -3.0 -17.5 -2.95 -17.4 -2.65 -16.7 -1.35 -14.65 Q-0.25 -13.0 -0.1 -12.05 L0.65 -8.45 Q1.15 -7.3 2.8 -7.3 4.3 -7.3 6.45 -8.7 L8.7 -10.45 Q9.35 -10.95 10.75 -13.8 11.4 -12.9 12.4 -12.05 14.35 -10.3 16.05 -10.3 L17.1 -10.45 17.55 -10.8 17.9 -11.2 18.1 -11.15 18.7 -11.7 19.2 -13.4 18.85 -14.65 18.45 -16.3 18.65 -16.9 18.8 -17.95 19.0 -18.05 19.7 -17.45 M26.45 -23.95 L26.2 -23.1 26.1 -23.05 25.9 -23.5 26.05 -24.3 26.4 -24.3 26.45 -23.95 M62.75 -33.2 L60.3 -35.5 Q59.35 -36.45 59.35 -37.5 59.35 -38.35 60.1 -39.75 60.95 -41.4 62.0 -41.5 L62.1 -41.2 61.6 -40.5 Q61.1 -39.9 61.1 -39.6 61.1 -37.0 63.7 -34.15 L62.75 -33.2 M54.25 -19.7 L54.3 -19.7 54.25 -19.75 54.25 -19.7 M61.9 0.9 L62.05 0.55 61.95 0.55 61.9 0.9 M0.6 3.35 L0.55 3.3 0.55 3.35 0.6 3.35" fill="#ffff00" fill-rule="evenodd" stroke="none"/>
  </g>
</svg>
