<?xml version="1.0" encoding="UTF-8" standalone="no"?>
<svg xmlns:xlink="http://www.w3.org/1999/xlink" height="58.6px" width="68.15px" xmlns="http://www.w3.org/2000/svg">
  <g transform="matrix(1.0, 0.0, 0.0, 1.0, 4.95, 53.95)">
    <path d="M40.8 -52.4 Q40.55 -51.8 40.1 -51.8 L39.6 -51.85 39.55 -52.5 Q39.55 -53.6 40.25 -53.9 40.95 -54.2 40.95 -53.15 L40.8 -52.4 M20.9 -34.3 Q19.3 -35.75 19.3 -36.45 19.3 -37.95 20.0 -38.05 L20.05 -37.7 19.8 -36.8 Q19.8 -36.2 20.45 -35.55 L21.05 -34.7 20.9 -34.3 M32.7 -34.9 Q32.7 -35.5 33.3 -35.6 L33.4 -35.15 33.1 -34.55 32.75 -34.55 32.7 -34.9 M3.25 -47.25 L2.95 -46.65 Q2.65 -46.3 2.7 -45.65 L2.7 -45.6 2.6 -45.45 1.8 -45.95 1.4 -46.5 2.05 -47.65 1.8 -49.2 Q2.35 -49.25 2.85 -48.35 L3.25 -47.25 M0.0 -26.0 L-0.6 -21.6 Q-0.6 -19.45 1.3 -17.45 3.2 -15.5 3.2 -13.15 3.2 -12.25 2.45 -11.15 1.7 -10.1 1.7 -9.2 1.7 -8.3 3.75 -8.3 7.55 -8.3 9.05 -12.3 10.0 -14.9 9.75 -17.4 L9.35 -18.8 9.65 -18.9 9.85 -18.55 Q10.2 -18.45 10.35 -17.45 L11.45 -15.4 Q13.25 -11.9 16.85 -11.9 17.8 -11.9 18.1 -12.75 L18.2 -13.65 18.05 -14.9 17.85 -16.15 Q17.85 -19.0 19.55 -18.95 L19.6 -18.8 19.65 -18.8 19.65 -16.95 Q19.8 -15.7 21.25 -15.7 22.25 -15.7 22.0 -16.8 L21.8 -18.15 22.1 -18.3 23.0 -17.05 Q23.8 -15.85 25.35 -15.85 27.75 -15.85 27.75 -19.5 L27.25 -21.6 27.3 -21.95 Q28.3 -21.5 28.8 -20.15 29.2 -19.1 29.2 -17.95 L29.05 -16.3 28.85 -14.9 Q28.85 -13.45 29.9 -13.45 30.35 -13.45 31.0 -13.8 L31.65 -13.8 32.35 -14.75 Q33.1 -15.8 33.3 -16.95 33.6 -19.4 34.25 -20.0 L35.55 -17.5 Q36.65 -15.6 37.85 -15.6 39.25 -15.6 39.7 -16.35 L39.85 -17.15 39.65 -17.8 39.45 -18.55 39.5 -19.0 39.6 -19.2 39.8 -19.7 40.4 -20.4 40.75 -20.4 Q40.85 -19.45 41.85 -18.65 43.1 -17.65 45.0 -17.65 47.3 -17.65 47.95 -20.55 L47.05 -22.55 Q46.1 -24.25 46.1 -25.65 46.1 -27.6 47.65 -29.7 49.2 -31.8 49.2 -30.65 L48.35 -26.95 Q48.35 -25.25 50.05 -22.6 51.75 -20.0 51.75 -18.5 51.75 -16.1 50.3 -14.45 48.85 -12.8 48.85 -11.9 48.85 -11.05 49.45 -10.7 L49.5 -10.7 49.8 -10.55 50.35 -10.45 50.25 -10.35 50.95 -10.3 Q51.7 -10.3 52.35 -11.2 53.0 -12.05 53.55 -12.05 53.55 -10.75 55.5 -9.8 56.55 -9.3 57.85 -8.9 58.75 -8.35 58.75 -5.55 L58.4 -4.1 58.0 -3.15 Q58.0 -2.85 58.45 -2.55 58.95 -2.2 59.7 -2.2 60.7 -2.2 61.1 -2.75 L61.6 -3.3 Q62.75 -3.3 63.1 -2.15 L63.2 -1.0 62.7 0.35 62.35 0.95 62.55 1.15 Q62.55 1.5 62.1 1.5 L62.05 1.5 61.95 1.7 61.75 1.75 Q61.65 1.85 61.65 1.6 L61.7 1.35 59.5 -0.35 57.9 -1.8 57.4 -2.35 Q56.8 -3.0 56.5 -3.55 56.0 -4.55 55.45 -4.75 L52.2 -5.25 49.75 -5.65 47.9 -6.65 Q46.15 -7.5 44.4 -7.5 L40.75 -7.25 36.2 -7.7 33.7 -8.15 31.8 -7.9 30.35 -7.55 24.85 -7.3 19.0 -7.0 16.95 -6.6 13.3 -5.7 8.85 -4.4 Q8.05 -4.2 4.1 -1.05 L1.05 1.6 1.05 1.7 0.6 2.95 0.6 3.0 0.3 3.7 0.15 3.75 0.35 4.35 0.25 4.6 0.1 4.65 -0.8 2.85 -2.0 1.7 Q-3.45 1.35 -4.3 -0.25 -4.95 -1.5 -4.95 -2.55 -4.95 -5.1 -3.8 -8.35 -2.7 -11.6 -2.7 -13.65 L-3.3 -15.9 Q-3.95 -17.7 -3.95 -18.65 -3.95 -20.85 -0.25 -26.25 L-0.05 -26.15 0.05 -26.3 0.0 -26.0 M40.35 -19.8 L40.35 -19.85 40.35 -19.8 M19.25 -17.75 L19.3 -17.7 19.3 -17.8 19.25 -17.75 M62.55 -43.8 Q62.55 -42.7 61.75 -41.55 60.95 -40.4 60.95 -39.85 L61.0 -39.3 61.3 -39.55 61.35 -39.25 60.9 -39.05 Q60.55 -39.05 60.0 -40.25 L59.55 -41.45 60.25 -42.45 Q60.9 -43.15 60.9 -44.05 L60.4 -46.0 60.45 -46.15 Q61.7 -46.4 62.25 -45.25 L62.55 -43.8 M47.7 -28.6 L47.75 -28.6 47.7 -28.65 47.7 -28.6 M53.05 -32.85 Q53.55 -34.3 54.85 -28.05 L54.5 -26.25 Q54.5 -25.95 54.95 -25.4 55.35 -24.85 55.35 -24.35 55.35 -24.1 54.95 -23.9 L54.15 -23.4 53.6 -22.85 53.3 -23.15 53.35 -23.3 53.3 -23.45 53.45 -23.55 53.7 -24.1 Q53.45 -26.45 52.5 -26.4 L52.25 -27.05 52.1 -27.9 Q52.1 -28.55 52.65 -29.55 L53.15 -30.25 53.4 -31.3 53.05 -32.85 M54.35 -23.95 L54.3 -23.95 54.3 -23.9 54.35 -23.95 M53.8 -30.55 L53.85 -30.5 53.75 -30.8 53.7 -30.55 53.8 -30.55 M59.8 -1.4 L59.65 -1.4 59.75 -1.3 59.8 -1.4" fill="#ffff00" fill-rule="evenodd" stroke="none"/>
  </g>
</svg>
