<?xml version="1.0" encoding="UTF-8" standalone="no"?>
<svg xmlns:xlink="http://www.w3.org/1999/xlink" height="58.0px" width="68.55px" xmlns="http://www.w3.org/2000/svg">
  <g transform="matrix(1.0, 0.0, 0.0, 1.0, 4.7, 54.65)">
    <path d="M39.7 -53.25 L39.6 -53.55 Q39.6 -54.35 40.3 -54.6 40.95 -54.85 40.95 -54.05 40.95 -53.2 40.15 -53.2 L39.7 -53.25 M28.75 -26.2 L28.25 -24.45 Q28.25 -22.5 29.7 -20.75 31.15 -19.0 31.15 -17.55 31.15 -17.0 30.4 -15.95 29.65 -14.9 29.65 -14.45 29.65 -14.0 29.9 -13.9 L30.9 -13.75 30.95 -14.2 31.55 -14.15 Q32.4 -14.15 33.15 -15.15 L33.8 -16.65 35.05 -16.15 Q36.2 -15.6 37.8 -15.6 39.2 -15.6 39.55 -15.95 L39.65 -15.95 40.2 -16.6 40.85 -17.7 40.4 -18.65 Q39.95 -19.1 39.95 -19.65 L40.25 -20.3 40.85 -21.15 41.75 -19.3 Q42.8 -17.75 44.9 -17.75 46.9 -17.75 47.8 -20.6 L46.9 -22.25 Q46.0 -23.5 46.0 -24.95 46.0 -26.0 47.05 -27.75 48.05 -29.45 48.05 -30.75 48.05 -31.9 47.5 -33.1 L46.35 -35.6 Q47.7 -34.8 48.45 -32.05 49.05 -29.9 49.05 -27.8 L48.8 -24.85 Q48.8 -23.5 50.25 -21.6 51.7 -19.75 51.7 -17.4 51.7 -15.6 50.55 -14.05 49.35 -12.45 49.35 -11.6 49.35 -10.85 49.6 -10.65 L49.75 -10.55 51.05 -10.5 52.8 -10.95 Q53.5 -11.05 54.45 -9.4 55.65 -7.75 56.85 -7.3 57.55 -7.0 58.05 -4.75 58.45 -2.8 60.6 -2.8 61.65 -2.8 61.95 -4.2 L62.05 -5.65 Q62.05 -6.65 61.7 -7.25 L60.75 -9.5 61.0 -9.75 61.95 -8.55 63.1 -6.6 63.8 -4.8 63.85 -3.55 Q63.85 -0.9 62.0 1.05 L62.35 1.45 62.1 1.95 61.45 1.45 61.35 1.45 61.35 1.35 59.55 -0.15 56.25 -2.6 54.1 -3.65 Q53.05 -4.15 52.45 -4.7 L50.5 -6.05 49.3 -6.65 48.15 -6.35 47.5 -6.1 Q46.8 -6.1 45.75 -6.6 L41.75 -7.1 33.3 -8.6 28.75 -7.65 Q25.4 -6.7 24.2 -6.7 L21.7 -6.95 19.1 -7.2 Q16.55 -7.2 11.9 -5.35 L6.4 -3.0 Q5.4 -2.65 2.65 -0.25 -0.3 2.3 -0.3 3.15 L-0.35 3.35 Q-1.1 3.45 -1.5 2.9 L-2.2 1.85 -2.2 1.8 Q-3.3 1.25 -4.05 -0.7 -4.55 -2.0 -4.7 -3.4 L-3.25 -8.1 Q-1.8 -12.35 -1.8 -16.1 L-2.7 -19.65 -2.65 -19.9 Q-1.9 -19.65 -1.25 -18.35 L-0.05 -16.2 1.35 -14.05 Q1.7 -13.25 1.7 -12.1 L1.55 -11.05 1.35 -9.9 Q1.35 -9.45 2.05 -9.25 3.1 -8.95 3.6 -8.45 L3.55 -8.4 4.35 -8.3 Q7.2 -8.3 9.1 -11.45 10.45 -13.7 10.45 -14.9 L9.85 -17.35 Q9.2 -20.05 9.2 -21.1 9.2 -21.9 10.05 -23.5 10.85 -25.15 11.6 -25.65 L11.7 -25.6 11.8 -25.65 11.95 -25.4 11.45 -24.05 Q10.95 -22.75 10.95 -21.95 10.95 -20.6 11.4 -19.1 11.9 -17.35 12.8 -16.55 L15.35 -13.9 15.75 -12.45 Q16.05 -11.45 17.0 -11.45 18.15 -11.45 18.45 -12.9 L18.55 -14.4 18.3 -16.4 18.35 -17.1 18.5 -17.45 18.85 -18.0 19.6 -18.7 19.95 -18.4 19.8 -17.95 19.6 -17.55 19.8 -16.7 Q20.15 -15.95 21.05 -15.95 22.2 -15.95 22.4 -16.6 22.6 -17.25 22.9 -17.25 L23.75 -16.7 Q24.65 -16.2 25.6 -16.2 27.3 -16.2 27.7 -18.95 27.7 -19.9 26.9 -21.0 26.05 -22.1 26.05 -23.55 26.05 -24.35 26.7 -25.3 27.5 -26.4 28.65 -26.6 L28.75 -26.2 M1.6 -49.05 L1.6 -49.5 1.9 -49.15 Q1.95 -49.0 2.45 -49.3 L2.5 -49.05 2.2 -48.2 1.75 -47.5 1.6 -47.5 1.55 -47.7 1.7 -48.15 1.85 -48.6 1.6 -49.05 M19.1 -17.75 L19.1 -17.7 19.1 -17.8 19.1 -17.75 M52.7 -38.25 Q53.55 -38.35 53.55 -37.45 L53.3 -36.5 53.05 -35.15 Q53.05 -33.45 53.9 -32.55 L54.7 -31.65 Q54.7 -31.0 53.5 -31.0 52.75 -31.0 52.05 -31.8 51.5 -32.4 51.5 -32.65 L51.8 -33.8 52.1 -35.5 51.85 -37.25 Q51.85 -38.1 52.7 -38.25 M52.45 -34.25 L52.4 -34.3 52.4 -34.25 52.45 -34.25 M-1.25 -31.95 L-1.3 -32.0 -1.3 -31.95 -1.25 -31.95 M-0.2 -31.15 Q0.05 -30.55 0.05 -28.7 0.05 -27.35 -0.4 -24.75 L-0.85 -21.8 -0.65 -21.45 -0.05 -20.9 Q-0.15 -20.6 -0.55 -20.45 L-0.4 -20.05 -0.4 -19.95 -2.4 -21.9 Q-3.4 -23.05 -3.4 -24.05 L-2.25 -26.05 Q-1.15 -27.75 -1.15 -29.5 -1.15 -30.1 -1.75 -31.4 L-2.65 -33.2 Q-0.7 -32.4 -0.2 -31.15" fill="#ffff00" fill-rule="evenodd" stroke="none"/>
  </g>
</svg>
