<?xml version="1.0" encoding="UTF-8" standalone="no"?>
<svg xmlns:xlink="http://www.w3.org/1999/xlink" height="52.4px" width="65.6px" xmlns="http://www.w3.org/2000/svg">
  <g transform="matrix(1.0, 0.0, 0.0, 1.0, 2.7, 50.3)">
    <path d="M20.05 -13.8 L21.05 -13.25 Q22.15 -12.7 22.5 -12.7 22.85 -12.7 23.25 -13.45 23.6 -14.25 24.0 -14.25 24.3 -14.25 24.45 -13.6 24.95 -12.95 26.75 -12.95 27.95 -12.95 28.4 -14.7 28.75 -16.0 29.15 -15.4 29.0 -14.0 30.45 -13.55 L31.6 -13.25 31.55 -13.4 32.95 -13.35 Q33.3 -13.35 33.65 -14.1 34.0 -14.9 34.25 -14.9 L34.75 -14.55 35.35 -14.2 36.8 -14.45 37.35 -14.7 39.35 -14.2 Q42.05 -14.2 42.3 -16.25 L42.65 -16.3 43.5 -15.4 Q44.1 -14.55 46.15 -14.55 47.2 -14.55 47.9 -15.5 L48.4 -16.1 48.85 -16.9 49.05 -16.45 49.1 -16.15 49.1 -16.05 49.1 -15.9 48.1 -13.9 Q47.1 -12.2 47.1 -11.4 47.1 -10.25 48.85 -9.6 L49.0 -9.65 49.25 -9.5 49.3 -9.45 49.55 -9.4 Q50.65 -9.45 51.25 -10.25 L52.1 -11.65 52.7 -11.15 53.35 -10.7 54.75 -10.75 Q55.35 -10.85 55.6 -10.0 L56.35 -7.95 Q57.3 -4.0 59.55 -4.0 61.35 -4.0 61.2 -5.05 61.2 -5.85 60.8 -6.55 L60.8 -8.35 61.0 -8.45 Q62.3 -8.45 62.9 -3.5 L62.7 -1.6 Q62.35 -0.5 61.35 0.0 L61.45 0.3 61.4 0.65 61.15 0.75 Q60.65 0.75 60.45 0.0 L60.25 -0.9 Q59.95 -1.25 59.05 -1.7 L57.6 -2.4 54.4 -3.65 Q52.1 -4.5 51.45 -5.05 L48.9 -6.55 45.85 -7.0 43.35 -7.3 41.25 -8.45 Q39.05 -9.45 36.25 -9.45 L34.0 -8.9 28.9 -8.4 25.5 -8.55 23.55 -8.7 20.85 -8.35 18.6 -8.0 15.35 -6.95 Q12.85 -5.95 11.15 -5.95 10.7 -5.95 8.9 -4.75 7.15 -3.55 6.6 -3.55 L5.6 -4.05 Q4.75 -4.05 2.5 -1.9 0.5 0.05 -0.2 1.55 L-0.1 1.7 -0.4 2.0 -0.45 2.05 -0.65 2.1 -1.0 1.85 Q-1.6 1.5 -1.95 0.45 L-2.2 -1.1 Q-2.2 -2.1 -1.85 -2.75 -1.55 -3.35 -1.55 -3.95 -1.55 -4.6 -2.1 -5.8 -2.7 -7.0 -2.7 -7.55 -2.7 -9.25 -2.0 -10.65 L-0.7 -13.35 -0.75 -13.8 -0.5 -14.0 -0.45 -13.95 -0.4 -14.2 Q-0.15 -14.0 -0.15 -13.1 L0.65 -11.45 Q2.1 -8.95 4.65 -8.95 5.1 -8.95 5.35 -9.95 5.65 -10.95 5.9 -10.95 L6.95 -10.55 8.9 -10.15 Q9.95 -10.15 10.65 -13.2 L11.1 -16.25 10.85 -18.35 Q10.85 -19.95 12.7 -16.45 L14.75 -12.3 Q15.65 -11.55 16.55 -11.55 17.9 -11.55 18.8 -12.65 19.65 -13.8 20.05 -13.8 M51.95 -47.85 Q51.95 -45.6 53.2 -44.2 L53.2 -44.1 Q52.55 -43.95 52.35 -43.7 L52.1 -43.5 Q51.45 -43.5 50.95 -45.15 L50.55 -46.85 Q50.55 -47.75 51.7 -49.35 52.8 -51.0 52.8 -49.8 L52.4 -48.9 51.95 -47.85 M61.1 -19.5 L61.05 -19.55 61.05 -19.5 61.1 -19.5 M61.0 -18.1 L60.6 -19.4 Q60.6 -21.15 61.55 -19.5 62.45 -17.8 62.45 -16.6 62.05 -14.2 62.15 -13.9 62.2 -13.8 61.95 -13.8 61.6 -13.8 61.05 -14.35 L60.55 -14.95 60.95 -15.7 61.35 -16.65 61.0 -18.1 M61.6 -6.2 L61.7 -6.25 61.6 -6.25 61.6 -6.2 M-2.15 -41.0 Q-0.45 -41.1 -0.45 -38.0 -0.45 -37.1 -0.85 -36.4 L-1.3 -35.15 -0.95 -34.45 -1.5 -34.35 -1.4 -33.9 Q-1.65 -33.95 -1.95 -34.85 L-2.2 -36.05 -1.8 -37.2 Q-1.45 -38.15 -1.45 -38.65 -1.45 -39.15 -1.8 -39.9 L-2.2 -40.8 -2.15 -41.0 M-0.95 -39.4 Q-1.1 -40.1 -1.45 -40.3 L-1.05 -39.35 -0.95 -39.4" fill="#ffff00" fill-rule="evenodd" stroke="none"/>
  </g>
</svg>
