<?xml version="1.0" encoding="UTF-8" standalone="no"?>
<svg xmlns:xlink="http://www.w3.org/1999/xlink" height="87.7px" width="78.55px" xmlns="http://www.w3.org/2000/svg">
  <g transform="matrix(1.0, 0.0, 0.0, 1.0, 41.15, 83.5)">
    <path d="M21.35 -59.2 Q21.2 -42.25 7.8 -32.15 1.9 -48.8 -15.25 -44.75 -25.85 -61.45 -7.25 -68.15 L-9.05 -69.95 Q-11.8 -72.2 -10.8 -74.4 L-10.7 -74.5 Q2.55 -71.1 -1.95 -52.85 6.0 -63.1 1.25 -75.5 21.55 -83.4 21.35 -59.2 M25.9 -30.8 L30.75 -31.4 Q34.1 -11.1 11.45 -6.85 11.25 -13.0 5.35 -15.5 L3.8 -16.05 Q3.2 -28.65 13.8 -35.45 L20.9 -37.55 26.75 -38.45 Q27.9 -36.45 26.75 -34.55 25.65 -32.7 25.9 -30.8 M6.3 -30.35 Q2.75 -25.4 2.15 -19.35 L1.95 -16.5 Q-3.15 -17.85 -7.15 -14.65 -11.4 -11.3 -10.0 -5.65 -27.9 -7.7 -28.2 -25.95 -44.45 -42.3 -21.85 -48.5 L-17.55 -43.55 Q-19.5 -40.15 -19.75 -36.4 -19.95 -33.75 -17.95 -31.8 L-13.75 -43.15 Q0.15 -46.7 5.2 -33.95 L6.3 -30.35 M-12.8 -0.5 Q0.95 1.9 14.25 -0.1 L14.5 -0.15 Q18.8 1.95 24.8 1.05 -6.0 7.35 -37.45 1.0 L-37.75 0.65 Q-42.6 -12.3 -26.7 -9.2 -29.5 -8.7 -31.95 -7.5 -34.2 -6.35 -35.0 -4.45 L-34.8 -2.75 -29.6 0.05 -28.75 -0.6 -11.75 -0.2 -12.8 -0.5 M7.6 -3.9 L-0.3 -2.4 -0.8 -1.7 -3.9 -0.85 Q-10.45 -3.45 -9.5 -10.75 L-7.35 -13.3 -5.5 -13.5 Q6.6 -15.4 7.6 -3.9 M31.45 -0.9 Q31.45 -4.2 30.4 -6.55 29.6 -8.35 28.55 -8.75 L37.3 -7.0 Q37.85 -3.85 35.2 -2.55 L31.45 -0.9" fill="#ffcc00" fill-rule="evenodd" stroke="none"/>
    <path d="M6.3 -30.35 L5.2 -33.95 Q0.15 -46.7 -13.75 -43.15 L-17.95 -31.8 Q-19.95 -33.75 -19.75 -36.4 -19.5 -40.15 -17.55 -43.55 L-21.85 -48.5 Q-44.45 -42.3 -28.2 -25.95 -27.9 -7.7 -10.0 -5.65 -11.4 -11.3 -7.15 -14.65 -3.15 -17.85 1.95 -16.5 L2.15 -19.35 Q2.75 -25.4 6.3 -30.35 M25.9 -30.8 Q25.65 -32.7 26.75 -34.55 27.9 -36.45 26.75 -38.45 L20.9 -37.55 13.8 -35.45 Q3.2 -28.65 3.8 -16.05 L5.35 -15.5 Q11.25 -13.0 11.45 -6.85 34.1 -11.1 30.75 -31.4 L25.9 -30.8 M21.35 -59.2 Q21.55 -83.4 1.25 -75.5 6.0 -63.1 -1.95 -52.85 2.55 -71.1 -10.7 -74.5 L-10.8 -74.4 Q-11.8 -72.2 -9.05 -69.95 L-7.25 -68.15 Q-25.85 -61.45 -15.25 -44.75 1.9 -48.8 7.8 -32.15 21.2 -42.25 21.35 -59.2 M14.5 -0.15 Q21.15 -0.1 26.85 -3.65 L28.25 -4.55 22.35 -7.8 Q15.55 -3.85 7.6 -3.9 6.6 -15.4 -5.5 -13.5 L-7.35 -13.3 -9.5 -10.75 Q-10.45 -3.45 -3.9 -0.85 -12.8 -1.0 -20.15 -6.3 L-22.4 -7.85 -30.45 -4.65 -12.8 -0.5 -11.75 -0.2 -28.75 -0.6 -29.6 0.05 -34.8 -2.75 -35.0 -4.45 Q-34.2 -6.35 -31.95 -7.5 -29.5 -8.7 -26.7 -9.2 L-25.5 -10.05 Q-35.0 -17.3 -39.05 -28.55 -46.9 -50.1 -25.25 -52.0 L-25.1 -54.3 Q-24.25 -62.4 -17.6 -67.05 -18.85 -72.1 -16.2 -76.1 -11.65 -82.85 -3.0 -80.5 L-0.95 -81.8 Q2.7 -84.5 6.55 -82.85 31.85 -72.05 23.55 -44.95 44.7 -28.45 25.4 -9.9 L28.55 -8.75 Q29.6 -8.35 30.4 -6.55 31.45 -4.2 31.45 -0.9 L27.9 0.35 24.8 1.05 Q18.8 1.95 14.5 -0.15" fill="#cc8e00" fill-rule="evenodd" stroke="none"/>
  </g>
</svg>
