<?xml version="1.0" encoding="UTF-8" standalone="no"?>
<svg xmlns:xlink="http://www.w3.org/1999/xlink" height="95.65px" width="91.45px" xmlns="http://www.w3.org/2000/svg">
  <g transform="matrix(1.0, 0.0, 0.0, 1.0, 46.85, 91.4)">
    <path d="M4.5 -90.15 Q11.9 -93.3 18.15 -88.5 37.55 -73.6 26.2 -50.7 33.6 -47.45 36.3 -39.95 42.85 -21.75 27.75 -10.0 L33.85 -9.3 Q40.55 -8.4 44.6 -3.3 40.25 2.65 33.1 3.8 24.3 5.35 16.25 1.55 L17.3 0.05 23.0 -0.55 Q29.15 -1.3 33.45 -5.45 L32.75 -6.9 26.6 -9.05 Q19.65 -6.85 13.85 -2.95 10.0 -0.45 5.5 -1.7 L7.2 -4.3 6.55 -5.05 Q4.2 -7.55 0.8 -7.9 -4.35 -8.6 -8.75 -5.8 L-8.2 -2.3 -10.45 -3.1 -13.65 -5.1 Q-14.7 -5.95 -15.35 -7.3 -38.5 -13.05 -43.7 -35.7 -48.6 -56.95 -29.65 -59.0 -30.0 -61.9 -28.9 -64.6 -27.0 -69.05 -22.65 -71.65 -23.4 -76.5 -20.65 -80.35 -14.3 -89.35 -3.6 -85.9 0.3 -88.45 4.5 -90.15 M0.1 -61.0 L0.15 -61.05 0.05 -61.1 Q4.1 -83.25 -16.25 -79.25 L-16.4 -77.85 Q-16.0 -70.05 -7.9 -68.9 L-7.95 -68.0 Q-5.6 -66.75 -6.25 -64.9 L-11.5 -65.3 Q-14.05 -65.7 -15.85 -64.55 -25.2 -58.6 -13.9 -49.65 -1.9 -53.5 7.6 -44.55 L23.45 -50.05 Q29.8 -63.05 22.6 -76.05 14.5 -90.7 1.45 -81.6 8.25 -68.2 -0.75 -59.7 L0.1 -61.0 M2.65 -71.1 L2.75 -71.9 2.5 -71.95 2.65 -71.1 M-15.75 -8.6 Q-17.85 -29.3 4.4 -24.15 18.85 -21.0 13.7 -6.15 39.9 -12.3 34.9 -36.55 31.75 -31.0 25.4 -30.5 22.45 -30.5 19.75 -31.6 34.85 -34.0 29.05 -43.3 28.4 -44.25 26.95 -44.6 L23.1 -45.65 20.0 -44.3 8.5 -42.55 Q9.0 -40.9 8.55 -39.3 L7.3 -36.3 6.9 -35.7 Q-5.25 -53.45 -23.9 -41.15 -23.25 -44.6 -19.9 -46.2 -18.0 -47.2 -17.15 -48.95 -23.35 -52.95 -30.5 -53.7 L-39.45 -48.3 Q-38.05 -39.15 -27.3 -36.35 -26.3 -36.05 -25.35 -35.3 L-35.4 -34.15 -37.55 -31.85 Q-30.65 -16.6 -15.9 -8.6 L-15.75 -8.5 -15.75 -8.6 M8.65 -6.75 Q10.0 -8.55 8.5 -9.8 -7.5 -18.65 -10.0 -5.85 -1.25 -14.35 7.95 -5.7 L8.65 -6.75 M11.2 -5.2 L11.2 -5.25 11.15 -5.25 11.2 -5.2 M-46.1 -3.3 L-45.0 -2.4 Q-35.45 1.45 -25.25 1.3 L-35.95 -1.1 -40.25 -5.2 -32.05 -9.15 Q-41.85 -10.65 -46.1 -3.3 M38.0 -6.3 L36.95 -3.55 Q31.35 0.25 24.25 0.9 34.3 4.0 42.7 -1.4 L43.25 -2.85 42.95 -4.2 38.0 -6.3 M-7.75 -48.25 Q-4.95 -48.75 -2.3 -48.25 -8.75 -50.05 -15.85 -47.2 L-18.45 -45.8 Q-13.45 -47.95 -7.75 -48.25 M-14.3 -49.3 L-16.2 -50.55 -15.45 -48.85 -14.3 -49.3 M-24.45 -9.25 L-28.0 -8.7 -32.65 -4.8 Q-22.75 0.4 -11.5 0.65 -29.6 6.25 -46.8 -1.0 -47.55 -13.4 -31.15 -11.55 -27.5 -11.15 -24.45 -9.25" fill="#5c5123" fill-rule="evenodd" stroke="none"/>
    <path d="M0.05 -61.1 L0.1 -61.0 -0.75 -59.7 Q8.25 -68.2 1.45 -81.6 14.5 -90.7 22.6 -76.05 29.8 -63.05 23.45 -50.05 L7.6 -44.55 Q-1.9 -53.5 -13.9 -49.65 -25.2 -58.6 -15.85 -64.55 -14.05 -65.7 -11.5 -65.3 L-6.25 -64.9 Q-5.6 -66.75 -7.95 -68.0 L-7.9 -68.9 Q-16.0 -70.05 -16.4 -77.85 L-16.25 -79.25 Q4.1 -83.25 0.05 -61.1 M-15.9 -8.6 Q-30.65 -16.6 -37.55 -31.85 L-35.4 -34.15 -25.35 -35.3 Q-26.3 -36.05 -27.3 -36.35 -38.05 -39.15 -39.45 -48.3 L-30.5 -53.7 Q-23.35 -52.95 -17.15 -48.95 -18.0 -47.2 -19.9 -46.2 -23.25 -44.6 -23.9 -41.15 -5.25 -53.45 6.9 -35.7 L7.3 -36.3 8.55 -39.3 Q9.0 -40.9 8.5 -42.55 L20.0 -44.3 23.1 -45.65 26.95 -44.6 Q28.4 -44.25 29.05 -43.3 34.85 -34.0 19.75 -31.6 22.45 -30.5 25.4 -30.5 31.75 -31.0 34.9 -36.55 39.9 -12.3 13.7 -6.15 18.85 -21.0 4.4 -24.15 -17.85 -29.3 -15.75 -8.6 L-15.9 -8.6 M8.65 -6.75 L7.95 -5.7 Q-1.25 -14.35 -10.0 -5.85 -7.5 -18.65 8.5 -9.8 10.0 -8.55 8.65 -6.75 M38.0 -6.3 L42.95 -4.2 43.25 -2.85 42.7 -1.4 Q34.3 4.0 24.25 0.9 31.35 0.25 36.95 -3.55 L38.0 -6.3 M-46.1 -3.3 Q-41.85 -10.65 -32.05 -9.15 L-40.25 -5.2 -35.95 -1.1 -25.25 1.3 Q-35.45 1.45 -45.0 -2.4 L-46.1 -3.3" fill="#c0ab58" fill-rule="evenodd" stroke="none"/>
  </g>
</svg>
