<?xml version="1.0" encoding="UTF-8" standalone="no"?>
<svg xmlns:xlink="http://www.w3.org/1999/xlink" height="96.0px" width="92.65px" xmlns="http://www.w3.org/2000/svg">
  <g transform="matrix(1.0, 0.0, 0.0, 1.0, 46.1, 95.75)">
    <path d="M1.5 -94.25 L16.35 -93.6 Q20.8 -93.2 23.9 -89.8 34.95 -77.5 29.65 -62.4 31.4 -60.55 32.35 -57.45 33.6 -53.5 33.15 -49.15 L32.95 -47.9 Q35.05 -47.15 35.15 -43.5 35.25 -40.1 34.4 -37.0 33.35 -33.3 30.05 -32.75 L29.9 -32.8 Q29.65 -33.35 29.85 -33.9 L30.05 -35.45 30.0 -36.75 30.0 -37.85 Q24.25 -39.65 17.65 -38.35 16.55 -38.1 15.55 -38.8 11.1 -41.9 6.1 -39.75 -3.4 -35.6 -13.8 -38.85 -19.05 -40.5 -23.4 -37.4 -26.95 -34.85 -29.85 -37.8 -32.3 -38.3 -33.05 -35.95 -33.4 -34.8 -33.2 -33.5 -33.05 -32.4 -33.6 -31.6 -37.5 -34.35 -41.35 -38.15 -44.3 -41.0 -44.1 -45.35 -44.0 -48.15 -41.7 -49.9 L-43.15 -51.75 Q-47.7 -59.5 -42.5 -66.9 -39.5 -71.15 -33.45 -70.55 L-29.25 -70.65 -29.4 -72.45 Q-29.6 -78.1 -23.8 -80.55 -22.05 -81.3 -20.2 -82.15 L-20.1 -82.2 Q-19.8 -87.65 -13.75 -91.0 -8.35 -92.25 -4.45 -90.5 L-3.1 -91.9 Q-1.55 -93.4 0.55 -94.0 L1.5 -94.25 M6.05 -56.6 L6.0 -56.5 Q5.6 -54.0 5.95 -51.7 L6.55 -51.55 Q6.65 -54.2 6.05 -56.6 M32.65 -46.8 L32.7 -46.75 32.65 -46.8 M24.5 -37.45 L24.85 -37.35 25.15 -37.0 25.25 -36.8 25.1 -36.35 25.2 -36.2 Q26.3 -36.3 26.25 -35.2 L26.25 -33.5 Q26.3 -32.55 25.6 -31.8 L25.25 -31.45 24.75 -31.35 22.05 -31.35 Q21.25 -32.1 21.4 -33.25 L22.0 -35.3 22.7 -36.65 Q23.1 -37.45 24.0 -37.45 L24.0 -37.5 24.5 -37.45 M1.0 -24.95 L1.05 -25.1 1.25 -25.5 1.6 -25.8 2.0 -26.0 Q2.6 -25.9 2.65 -25.3 L2.45 -24.2 1.95 -23.25 1.8 -23.05 Q0.95 -22.35 -0.25 -22.8 L-0.85 -23.05 -0.95 -23.25 -1.0 -23.6 -1.0 -24.2 -0.8 -24.75 -0.55 -24.9 0.65 -24.95 1.0 -24.95 M9.95 -30.5 L10.05 -30.6 10.2 -30.65 10.9 -31.05 11.25 -31.2 11.25 -31.25 Q15.7 -31.45 15.15 -27.4 14.6 -23.25 10.7 -25.1 8.55 -26.1 9.5 -28.75 L9.8 -30.3 9.95 -30.5 M14.25 -22.5 Q14.85 -22.4 14.9 -21.8 15.0 -21.3 14.55 -21.1 14.0 -20.85 13.65 -21.35 L13.5 -21.7 13.5 -21.85 13.6 -22.05 13.85 -22.3 14.25 -22.45 14.25 -22.5 M6.15 -20.05 Q6.25 -19.55 5.8 -19.35 5.25 -19.1 4.9 -19.6 L4.75 -19.95 4.75 -20.1 4.85 -20.3 5.1 -20.55 5.5 -20.7 5.5 -20.75 Q6.1 -20.65 6.15 -20.05 M46.55 -1.4 Q46.6 -0.75 46.25 -0.3 L45.25 0.25 44.85 0.1 44.65 -0.05 44.55 -0.25 44.5 -0.45 44.65 -0.75 45.0 -1.55 Q45.05 -2.2 45.75 -2.2 L45.75 -2.25 Q46.5 -2.1 46.55 -1.4 M-8.7 -89.35 L-8.8 -89.35 -8.8 -89.25 -8.7 -89.35 M-18.3 -81.1 L-18.3 -80.9 -18.3 -81.1 M-1.3 -78.3 L-1.35 -78.2 -1.3 -78.1 -1.3 -78.3 M-42.45 -9.8 L-43.4 -9.95 Q-43.9 -10.25 -43.7 -10.8 -43.5 -11.25 -43.0 -11.2 L-43.0 -11.25 -42.4 -11.05 -42.05 -10.55 Q-42.05 -10.15 -42.3 -9.9 L-42.45 -9.8 M-8.4 -39.35 L-8.4 -39.3 -8.0 -39.25 -8.4 -39.35 M-22.45 -34.7 L-22.1 -33.0 Q-22.05 -31.5 -23.25 -30.6 -24.65 -29.55 -26.15 -30.45 L-26.55 -30.75 -26.65 -30.95 -26.75 -31.3 -26.75 -32.05 -26.75 -32.8 -26.75 -33.0 -26.6 -33.2 -25.85 -33.95 -24.4 -34.8 -24.0 -35.0 -23.0 -34.95 -22.65 -34.85 -22.45 -34.7 M-27.5 -27.95 L-27.15 -27.85 -26.95 -27.75 -26.65 -27.6 -26.45 -27.45 -26.2 -26.7 Q-26.3 -26.0 -26.55 -25.4 L-27.2 -24.1 -27.5 -23.7 -28.0 -23.6 -29.4 -23.7 -29.6 -23.8 -29.85 -24.95 Q-29.95 -25.9 -29.5 -26.65 -29.05 -27.55 -28.05 -27.9 L-27.75 -28.0 -27.5 -27.95 M-10.75 -22.75 Q-9.55 -22.3 -10.35 -21.3 -10.9 -20.65 -11.75 -20.45 -12.85 -20.2 -13.55 -20.9 L-13.75 -21.2 -13.75 -21.35 -13.7 -21.7 -13.4 -22.1 -13.05 -22.45 -12.75 -22.5 -12.5 -22.45 -12.15 -22.35 -11.95 -22.25 -11.75 -22.25 -11.45 -22.4 -11.05 -22.65 -10.75 -22.75" fill="#666666" fill-rule="evenodd" stroke="none"/>
    <path d="M9.5 -95.5 Q19.4 -96.95 26.2 -90.5 33.05 -84.05 32.2 -74.2 L31.2 -66.7 Q30.8 -64.65 30.0 -62.85 31.3 -61.95 32.05 -60.15 33.6 -56.3 33.6 -52.0 33.55 -49.6 32.7 -47.55 L33.25 -47.5 33.65 -47.35 34.7 -45.5 35.5 -44.0 36.8 -41.65 37.25 -40.6 37.15 -40.45 37.05 -40.25 36.8 -40.1 36.5 -39.95 36.5 -39.55 36.4 -38.8 36.2 -38.45 35.9 -38.05 35.75 -37.85 35.75 -37.5 35.65 -36.75 35.4 -36.4 35.05 -36.0 34.8 -35.8 34.5 -35.75 34.25 -35.8 33.65 -36.05 Q33.4 -36.75 33.45 -37.55 L33.2 -38.85 Q32.9 -39.5 32.9 -40.2 L32.6 -42.05 32.5 -42.35 Q28.45 -41.9 25.25 -43.25 25.15 -44.1 25.8 -44.65 L27.4 -45.5 Q30.0 -45.95 29.05 -46.35 28.75 -46.6 28.75 -46.95 L28.75 -47.7 28.85 -48.05 29.2 -48.4 29.5 -48.5 29.85 -48.35 30.1 -48.2 30.3 -48.0 30.55 -47.95 30.7 -49.85 30.35 -54.75 Q29.8 -54.9 29.75 -55.4 29.25 -55.7 28.85 -56.35 27.95 -57.8 26.25 -58.5 25.1 -59.0 24.55 -59.65 21.3 -59.35 17.8 -59.7 L13.25 -59.25 Q10.7 -58.45 8.65 -56.7 8.25 -56.35 7.75 -56.2 L7.75 -56.0 7.75 -55.45 7.75 -54.5 7.75 -53.2 7.75 -53.0 7.75 -52.8 7.75 -52.6 7.75 -52.45 7.75 -52.25 7.7 -52.05 7.6 -51.9 7.5 -51.7 7.3 -51.55 7.05 -51.4 7.0 -51.25 7.05 -51.1 7.3 -50.55 7.35 -50.55 7.95 -50.0 7.9 -49.45 7.9 -49.4 8.0 -49.2 8.4 -48.05 8.45 -47.85 8.5 -47.7 8.5 -47.5 8.45 -47.3 8.4 -47.1 8.25 -46.95 Q7.8 -46.6 7.35 -46.95 6.95 -47.25 6.7 -47.7 L6.0 -48.7 6.0 -48.6 6.0 -48.45 5.95 -48.25 5.8 -48.05 5.6 -47.9 5.25 -47.75 5.0 -47.75 4.65 -47.95 Q3.3 -49.55 2.8 -51.6 2.3 -53.5 2.65 -55.55 L2.75 -55.9 2.5 -56.15 -0.6 -59.6 Q-5.15 -64.1 -12.0 -62.9 L-12.2 -62.8 -12.25 -62.7 -12.1 -62.35 Q-11.9 -62.05 -12.05 -61.75 L-12.2 -61.55 Q-12.5 -61.2 -13.0 -61.2 L-13.45 -61.25 -13.25 -59.6 Q-12.85 -54.5 -16.05 -51.55 -16.6 -51.1 -17.0 -51.75 L-17.0 -52.1 -16.55 -54.6 Q-16.05 -56.7 -17.45 -58.45 L-20.4 -62.55 Q-20.95 -63.45 -22.0 -64.2 L-25.9 -64.8 -25.0 -63.3 Q-24.55 -62.65 -25.1 -62.1 L-25.4 -62.15 Q-26.85 -63.3 -27.65 -64.9 -31.75 -65.05 -35.8 -64.05 -41.25 -62.7 -43.2 -57.5 L-42.65 -55.4 Q-42.25 -53.85 -41.15 -52.75 -40.05 -51.7 -39.55 -50.35 L-39.5 -50.0 -39.05 -49.6 -38.65 -49.3 -37.65 -48.35 Q-37.45 -48.1 -37.55 -47.8 -40.4 -47.25 -42.6 -50.4 L-44.25 -53.1 -44.5 -53.1 Q-44.8 -53.15 -45.1 -53.35 L-45.3 -53.5 -45.85 -56.05 Q-46.6 -60.1 -45.05 -63.8 -43.7 -66.9 -40.7 -68.4 -35.8 -70.85 -30.5 -72.0 L-28.65 -72.0 -28.35 -73.45 Q-27.4 -77.3 -24.1 -79.5 L-23.5 -79.85 -23.5 -80.05 -23.5 -80.25 -23.5 -80.45 -23.45 -80.6 -23.25 -80.8 -22.25 -81.25 -20.25 -81.7 -20.25 -81.75 -20.15 -81.75 -20.25 -83.2 Q-20.0 -86.1 -17.6 -87.75 -13.55 -90.6 -8.75 -91.95 L-8.75 -92.0 Q-6.15 -92.1 -3.95 -91.15 -3.0 -92.55 -1.5 -93.25 3.35 -95.7 9.05 -95.45 L9.5 -95.5 M1.4 -82.15 Q0.9 -78.7 -0.45 -75.5 L-0.65 -75.35 -0.85 -75.2 Q0.75 -72.25 1.5 -69.0 1.7 -68.15 1.25 -67.4 L2.1 -67.05 Q4.75 -65.9 6.5 -63.7 L7.4 -62.2 Q11.5 -64.95 16.75 -65.0 L27.25 -64.75 27.3 -64.75 Q26.6 -67.2 27.25 -70.3 28.5 -76.4 25.3 -81.9 18.75 -93.25 5.55 -87.8 L1.1 -85.9 Q1.7 -84.15 1.4 -82.15 M21.75 -62.6 L21.8 -62.7 21.75 -62.7 21.75 -62.6 M22.75 -43.0 L23.65 -42.95 25.4 -42.7 Q26.35 -42.4 26.8 -41.6 27.1 -41.1 26.9 -40.6 26.6 -40.15 26.1 -40.45 24.75 -41.2 23.1 -41.45 21.5 -41.7 22.45 -42.75 L22.75 -43.0 M23.7 -37.5 L23.8 -37.6 23.95 -37.65 24.25 -37.7 24.25 -37.75 Q24.75 -37.8 25.1 -37.45 L25.7 -36.8 25.95 -35.95 25.95 -35.55 Q25.6 -34.8 24.65 -34.7 23.45 -34.55 22.35 -34.7 22.2 -34.7 22.15 -34.8 L22.05 -35.0 22.0 -35.2 22.0 -35.55 22.0 -35.95 22.0 -36.3 22.0 -36.5 22.15 -36.7 22.35 -36.8 23.5 -37.1 23.6 -37.3 23.7 -37.5 M15.7 -43.1 L17.0 -42.8 Q17.9 -42.55 17.95 -41.7 L17.95 -41.5 Q17.75 -41.05 17.3 -41.2 L14.3 -41.9 Q13.0 -42.15 13.9 -43.0 L14.25 -43.25 15.7 -43.1 M4.65 -40.25 L5.2 -40.5 5.25 -40.65 4.7 -40.6 4.3 -40.35 4.0 -40.25 3.4 -40.1 3.0 -40.0 Q2.2 -39.45 4.65 -40.25 M4.6 -42.05 Q7.05 -43.3 8.45 -41.75 7.45 -39.15 4.2 -38.7 -3.95 -37.6 -11.95 -38.35 -12.85 -38.45 -13.0 -39.2 L-12.95 -39.35 -12.8 -39.7 -12.6 -39.95 -12.55 -40.25 -14.4 -41.5 Q-15.25 -41.95 -15.8 -42.7 L-16.75 -44.0 -16.75 -44.35 -16.7 -44.95 -16.3 -45.4 -16.0 -45.5 Q-14.05 -42.6 -10.7 -42.1 L-7.6 -41.5 Q-3.95 -40.6 -0.7 -42.05 L0.35 -42.55 Q1.35 -43.1 1.95 -42.25 2.55 -41.0 4.6 -42.05 M2.0 -25.1 Q1.6 -24.4 0.75 -24.2 -0.45 -23.95 -0.75 -24.95 L-0.5 -25.45 0.65 -26.25 1.5 -26.45 1.5 -26.5 Q2.65 -26.1 2.0 -25.1 M8.25 -28.85 L8.3 -29.25 8.4 -29.4 9.5 -30.1 10.9 -31.05 11.25 -31.25 12.15 -31.15 14.0 -30.95 14.4 -30.85 14.65 -30.5 14.75 -30.3 Q14.8 -29.85 15.2 -29.5 L15.55 -28.8 15.3 -28.05 15.1 -27.9 14.75 -27.8 14.25 -27.8 13.8 -27.85 13.65 -28.05 13.55 -28.25 13.5 -28.45 13.4 -28.55 13.3 -28.55 13.0 -28.5 12.55 -28.55 12.45 -28.5 12.35 -28.3 12.25 -27.95 11.9 -27.35 11.05 -27.35 10.8 -27.3 Q9.4 -26.85 8.65 -27.6 8.2 -28.1 8.25 -28.85 M-1.0 -78.7 L-0.9 -78.7 -0.85 -78.75 -1.0 -78.85 -1.0 -78.7 M-2.55 -79.0 Q-3.05 -84.65 -9.15 -85.1 -13.95 -85.45 -14.6 -81.6 L-8.05 -81.25 Q-4.95 -81.0 -3.0 -78.45 L-2.45 -77.75 -2.55 -79.0 M-25.2 -71.6 Q-22.05 -70.95 -19.2 -69.25 -16.15 -67.45 -14.65 -64.7 L-14.45 -65.0 -14.25 -65.15 -12.5 -66.1 Q-8.05 -67.3 -3.5 -67.75 -1.8 -68.05 -0.2 -67.75 -2.6 -71.6 -6.6 -73.5 -15.0 -77.55 -23.75 -73.95 L-23.85 -73.75 -25.2 -71.6 M-20.0 -48.3 Q-20.5 -47.2 -21.9 -46.75 L-24.75 -45.7 Q-26.45 -44.95 -27.25 -46.2 -26.8 -47.35 -25.2 -47.55 -23.6 -47.75 -22.25 -48.55 L-21.25 -49.0 -20.75 -48.95 -20.4 -48.85 -20.1 -48.5 -20.0 -48.3 M-27.85 -42.05 Q-29.85 -42.95 -32.0 -43.45 -35.4 -44.15 -33.75 -45.75 L-30.65 -44.8 -27.5 -44.0 Q-25.35 -43.7 -25.1 -42.2 L-27.85 -42.05 M-22.15 -35.15 L-21.75 -34.6 -21.75 -34.45 -21.75 -34.25 -21.8 -34.05 -21.9 -33.9 -22.2 -33.5 -22.3 -33.4 -22.45 -33.35 -23.85 -33.1 -24.05 -32.9 Q-24.15 -32.65 -24.45 -32.6 L-25.75 -32.2 -26.45 -32.1 Q-26.85 -32.4 -26.9 -32.9 -27.15 -34.05 -26.0 -34.55 L-24.95 -35.0 -23.75 -35.5 -22.75 -35.4 -22.15 -35.15" fill="#333333" fill-rule="evenodd" stroke="none"/>
    <path d="M20.85 -45.8 L21.05 -45.65 21.25 -45.65 Q22.0 -45.6 22.0 -44.85 20.1 -43.25 17.4 -43.85 L17.15 -43.6 11.0 -43.65 10.4 -43.8 10.2 -44.4 10.25 -45.1 10.2 -46.05 9.85 -46.45 Q9.7 -46.45 9.65 -46.55 L9.55 -46.95 9.55 -47.3 9.7 -47.6 10.25 -47.95 10.25 -48.0 Q11.0 -47.8 11.55 -47.25 L12.85 -46.4 13.4 -46.1 Q13.6 -46.5 14.0 -46.5 L15.65 -46.15 15.75 -46.2 16.8 -47.15 Q17.35 -47.75 18.15 -47.35 18.5 -47.1 18.4 -46.65 L18.2 -45.85 19.7 -45.75 20.25 -45.95 20.25 -46.0 20.85 -45.8 M-2.5 -43.95 Q-1.1 -43.9 -1.0 -42.7 L-1.1 -42.55 Q-5.3 -40.95 -8.55 -43.6 L-8.45 -43.85 -8.3 -43.9 -8.0 -44.0 -2.5 -43.95 M-19.45 -39.85 L-22.0 -38.95 Q-23.95 -38.4 -24.25 -39.85 -23.2 -41.0 -21.2 -41.1 -20.2 -41.15 -19.3 -41.65 L-19.0 -41.75 Q-17.45 -40.75 -19.45 -39.85 M-36.25 -38.95 L-36.25 -39.0 Q-35.65 -38.9 -35.6 -38.3 -35.5 -37.8 -35.95 -37.6 -36.5 -37.35 -36.85 -37.85 L-37.0 -38.2 -37.0 -38.35 -36.9 -38.55 -36.65 -38.8 -36.25 -38.95" fill="#c0ab58" fill-rule="evenodd" stroke="none"/>
  </g>
</svg>
