<?xml version="1.0" encoding="UTF-8" standalone="no"?>
<svg xmlns:xlink="http://www.w3.org/1999/xlink" height="119.2px" width="147.15px" xmlns="http://www.w3.org/2000/svg">
  <g transform="matrix(1.0, 0.0, 0.0, 1.0, 50.75, 50.35)">
    <path d="M51.4 -50.1 L51.7 -49.8 Q51.45 -49.55 50.85 -49.35 48.45 -47.2 47.4 -43.9 L46.3 -39.7 44.95 -30.7 Q43.4 -21.15 43.3 -18.55 L42.35 -7.5 Q41.7 -0.45 41.55 3.55 L41.5 3.65 41.4 3.6 40.55 13.0 Q40.35 15.0 40.4 18.05 L40.5 23.1 40.1 34.35 40.15 34.5 40.0 43.5 39.8 51.45 39.55 59.5 Q39.55 63.6 39.8 65.25 L39.8 67.3 40.2 67.3 40.25 67.45 40.2 67.6 39.95 67.6 39.8 67.6 39.85 67.75 39.65 67.95 39.6 68.1 39.5 67.6 15.15 67.65 15.15 67.8 15.1 67.85 14.8 67.7 14.8 68.5 14.75 68.55 14.45 68.55 14.5 67.65 14.35 67.65 13.7 68.1 14.0 68.15 14.0 68.35 13.55 68.35 13.5 68.4 13.5 68.35 11.85 68.4 11.0 68.4 10.85 68.4 9.65 68.4 9.6 68.25 9.65 68.2 9.6 68.15 9.6 68.0 9.55 68.25 9.55 68.3 9.5 68.35 8.95 67.9 -15.1 67.9 -15.2 68.0 -15.2 68.5 -15.25 68.55 -15.55 68.55 -15.55 68.3 -15.75 68.45 -15.65 68.75 -15.7 68.85 -16.3 68.5 -20.15 68.5 -20.15 68.55 -20.3 68.65 -20.45 68.55 -20.45 67.9 -45.2 67.9 -45.2 68.5 -45.25 68.55 -45.55 68.55 -45.5 67.9 -45.55 67.9 -45.75 68.1 -45.95 68.3 -45.9 68.45 -45.95 68.6 -46.2 68.6 -46.25 68.65 -46.25 68.6 -50.05 68.65 -50.0 68.6 -50.0 68.55 -49.9 68.55 -49.7 68.5 -49.7 68.35 -49.75 68.25 -48.1 68.2 -46.75 68.3 -46.75 66.85 -46.5 66.85 -46.75 59.45 -46.4 40.5 -46.3 36.25 -46.35 33.75 -46.0 26.3 Q-45.6 24.85 -45.75 22.6 L-46.0 18.85 -45.4 10.15 -44.75 3.35 -44.9 2.65 -44.9 1.8 Q-43.2 -14.1 -43.0 -19.5 -42.85 -23.6 -41.75 -30.1 L-40.4 -38.3 -40.5 -38.5 Q-40.5 -40.75 -38.85 -44.7 -37.0 -49.2 -35.1 -49.65 L-37.15 -49.55 -39.0 -49.55 -38.95 -49.8 -38.95 -49.9 -34.2 -49.85 -34.15 -49.75 -34.0 -49.75 -33.95 -49.75 -33.6 -49.7 -33.4 -49.4 -33.6 -49.4 -33.4 -49.2 -33.1 -48.9 -33.1 -48.85 -32.9 -48.5 -10.7 -48.5 -9.4 -49.55 -9.2 -49.75 -8.95 -50.0 -8.4 -50.1 Q-7.9 -50.3 -7.65 -50.1 L-3.85 -50.1 -3.85 -50.25 -3.3 -50.1 -2.15 -50.1 -2.1 -49.9 -2.25 -49.8 -2.3 -49.8 -2.15 -49.65 -1.35 -48.9 -1.35 -48.85 -1.35 -48.8 19.65 -48.9 20.75 -49.6 20.7 -49.8 21.25 -49.95 21.25 -50.0 21.9 -50.1 22.1 -50.25 27.6 -50.25 27.65 -50.1 27.6 -49.95 27.2 -49.95 27.6 -49.85 28.45 -49.05 49.95 -49.15 50.25 -49.35 Q50.3 -49.65 51.4 -50.1 M51.85 -50.3 L52.0 -50.35 52.65 -50.35 52.65 -50.3 56.15 -50.25 56.75 -50.35 56.9 -50.35 57.9 -49.95 58.1 -49.7 58.5 -49.35 80.1 -49.35 80.7 -49.7 80.85 -49.95 81.25 -50.15 85.6 -50.1 85.85 -50.1 85.95 -50.1 86.0 -50.1 86.2 -50.0 86.35 -49.8 86.5 -49.8 86.5 -49.6 86.6 -49.5 86.65 -49.35 86.9 -49.35 86.85 -49.1 86.9 -49.0 87.15 -48.5 87.15 -48.4 87.15 -48.3 88.05 -46.3 88.75 -44.65 89.55 -42.15 90.8 -35.2 92.6 -23.65 Q93.8 -17.35 94.25 -8.7 L95.0 7.15 95.05 8.3 95.0 8.4 94.85 8.4 94.8 8.7 95.35 16.45 95.9 26.05 95.7 42.6 96.0 46.05 96.25 49.9 96.05 54.3 96.1 54.35 96.05 54.5 96.05 54.55 96.35 54.35 96.4 54.5 95.9 55.1 95.25 55.65 95.15 55.65 95.1 55.5 95.2 55.2 95.25 55.1 95.1 55.2 94.65 55.7 94.1 56.25 94.0 56.25 93.95 56.1 Q93.95 55.75 94.3 55.5 L94.4 55.45 94.0 55.45 92.85 55.7 92.1 55.45 92.15 55.4 90.55 55.35 90.15 55.4 89.7 55.35 87.8 56.35 87.6 56.3 87.55 56.3 87.05 56.6 87.0 56.6 86.75 56.75 86.75 57.3 86.6 57.35 86.5 56.85 86.35 56.85 86.1 56.7 86.15 56.6 85.0 56.6 84.9 56.4 84.8 56.45 84.6 56.25 84.6 56.0 84.75 55.65 84.75 10.9 84.95 2.55 85.1 -5.25 Q84.75 -5.25 84.75 -5.7 84.75 -6.05 85.1 -6.1 L85.1 -6.15 85.15 -6.1 85.2 -6.1 Q84.65 -7.45 84.3 -9.4 L83.85 -13.2 83.55 -16.95 82.65 -20.25 82.05 -20.1 79.75 -19.25 79.25 -19.25 78.85 -19.0 78.4 -14.45 77.9 -7.75 77.55 -3.9 77.05 3.1 76.85 6.6 76.8 6.7 76.8 6.65 76.75 6.65 76.75 6.7 76.0 15.6 Q75.8 17.5 75.85 20.4 L75.95 24.25 76.1 24.45 76.1 54.5 76.1 56.75 76.05 61.5 76.1 61.7 76.1 61.8 75.85 61.95 76.05 62.1 75.95 62.4 75.65 62.45 75.5 62.45 75.5 66.45 75.75 66.4 75.85 66.6 75.4 67.05 75.4 67.65 75.55 67.5 Q76.0 67.25 76.35 67.15 L76.4 67.3 75.35 68.3 75.2 68.4 75.1 68.35 75.05 68.35 75.05 68.15 74.7 68.35 74.75 68.4 74.75 68.55 74.4 68.55 74.4 67.95 73.8 68.3 73.65 68.4 73.55 68.35 73.5 68.35 73.45 68.2 73.45 68.15 73.1 68.35 73.15 68.4 73.15 68.6 72.5 68.6 71.9 68.4 69.55 68.65 69.5 68.5 Q69.5 68.3 69.65 68.2 L69.45 67.65 44.8 67.65 44.8 68.0 45.15 68.35 45.1 68.5 44.8 68.5 44.75 68.55 44.45 68.55 44.45 68.5 43.5 68.5 43.45 68.5 42.0 68.65 40.95 68.5 40.2 68.5 40.25 68.2 40.2 68.15 43.45 68.05 43.4 67.9 43.35 67.3 43.35 66.6 43.5 66.6 43.25 59.45 43.6 40.5 43.7 36.25 43.65 33.75 Q43.65 31.65 44.0 26.3 44.4 24.85 44.25 22.6 L44.0 18.85 44.6 10.15 45.25 3.35 45.1 2.65 45.1 1.8 Q46.8 -14.1 47.0 -19.5 47.15 -23.6 48.25 -30.1 L49.6 -38.3 49.5 -38.5 Q49.5 -40.75 51.15 -44.7 53.0 -49.2 54.9 -49.65 L54.95 -49.6 55.4 -49.95 54.5 -49.95 52.65 -50.05 52.65 -49.95 Q52.7 -49.85 52.45 -49.85 L52.1 -49.85 52.15 -50.1 52.1 -50.3 51.85 -50.3 M44.5 67.35 L44.25 60.7 44.6 41.75 44.7 37.5 44.65 35.0 Q44.65 32.9 45.0 27.55 45.4 26.1 45.25 23.85 L45.0 20.1 45.6 11.4 46.25 4.6 46.1 3.9 46.1 3.05 Q47.8 -12.85 48.0 -18.25 48.15 -22.35 49.25 -28.85 L50.6 -37.05 50.5 -37.25 Q50.5 -39.5 52.15 -43.45 53.5 -46.75 54.9 -47.85 L54.85 -48.0 55.25 -48.4 55.2 -48.5 55.8 -49.0 Q56.35 -49.4 56.5 -49.4 L56.6 -49.35 57.25 -49.35 56.35 -49.85 56.35 -49.95 55.65 -49.7 Q55.05 -49.35 54.85 -49.3 L54.8 -49.3 Q52.45 -47.15 51.4 -43.9 L50.3 -39.7 48.95 -30.7 Q47.4 -21.15 47.3 -18.55 L46.35 -7.5 Q45.7 -0.45 45.55 3.55 L45.5 3.65 45.4 3.6 44.55 13.0 Q44.35 15.0 44.4 18.05 L44.5 23.1 44.1 34.35 44.15 34.5 44.0 43.5 43.8 51.45 43.55 59.5 Q43.55 63.6 43.8 65.25 L43.8 67.25 43.75 67.3 43.75 67.7 Q44.05 67.35 44.45 67.35 L44.5 67.5 44.3 67.75 44.5 67.8 44.5 67.5 44.5 67.35 M21.3 -49.55 L21.1 -49.35 20.95 -49.4 Q18.5 -47.25 17.4 -43.9 L16.3 -39.7 14.95 -30.7 Q13.4 -21.15 13.3 -18.55 L12.35 -7.5 Q11.7 -0.45 11.55 3.55 L11.5 3.65 11.4 3.6 10.55 13.0 Q10.35 15.0 10.4 18.05 L10.5 23.1 10.1 34.35 10.15 34.5 10.0 43.5 9.8 51.45 9.55 59.5 Q9.55 63.6 9.8 65.25 L9.8 66.7 9.95 66.7 10.0 67.35 9.9 68.1 10.45 68.0 13.35 67.9 13.3 67.5 13.35 66.75 13.5 66.35 13.25 59.45 13.6 40.5 13.7 36.25 13.65 33.75 Q13.65 31.65 14.0 26.3 14.4 24.85 14.25 22.6 L14.0 18.85 14.6 10.15 15.25 3.35 15.1 2.65 15.1 1.8 Q16.8 -14.1 17.0 -19.5 17.15 -23.6 18.25 -30.1 L19.6 -38.3 19.5 -38.5 Q19.5 -40.75 21.15 -44.7 22.75 -48.55 24.35 -49.4 L24.35 -49.45 24.85 -49.75 25.45 -49.9 22.35 -49.85 21.3 -49.55 M27.85 -49.35 L26.4 -49.65 25.2 -49.45 24.85 -49.35 Q22.45 -47.2 21.4 -43.9 L20.3 -39.7 18.95 -30.7 Q17.4 -21.15 17.3 -18.55 L16.35 -7.5 Q15.7 -0.45 15.55 3.55 L15.5 3.65 15.4 3.6 14.55 13.0 Q14.35 15.0 14.4 18.05 L14.5 23.1 14.1 34.35 14.15 34.5 14.0 43.5 13.8 51.45 13.55 59.5 Q13.55 63.6 13.8 65.25 L13.8 66.1 13.85 66.25 13.8 67.05 13.8 67.3 13.75 67.75 13.85 67.65 14.1 67.55 14.1 67.5 14.2 67.25 14.5 67.25 14.25 60.7 14.6 41.75 14.7 37.5 14.65 35.0 Q14.65 32.9 15.0 27.55 15.4 26.1 15.25 23.85 L15.0 20.1 15.6 11.4 16.25 4.6 16.1 3.9 16.1 3.05 Q17.8 -12.85 18.0 -18.25 18.15 -22.35 19.25 -28.85 L20.6 -37.05 20.5 -37.25 Q20.5 -39.5 22.15 -43.45 23.85 -47.55 25.6 -48.25 L25.75 -48.4 25.7 -48.5 Q25.7 -48.75 26.55 -48.9 L26.55 -49.0 27.2 -49.05 27.2 -49.1 27.35 -49.1 27.4 -49.1 27.7 -49.1 27.7 -49.05 28.1 -49.05 27.85 -49.35 M26.8 -48.65 L25.9 -48.1 Q23.45 -45.95 22.4 -42.65 L21.3 -38.45 19.95 -29.45 Q18.4 -19.9 18.3 -17.3 L17.35 -6.25 17.0 -2.4 32.7 -2.3 32.8 -2.3 36.25 -2.3 39.2 -2.3 39.3 -2.3 41.55 -2.3 Q42.85 -14.85 43.0 -19.5 43.15 -23.6 44.25 -30.1 L45.6 -38.3 45.5 -38.5 Q45.5 -40.75 47.15 -44.7 48.35 -47.65 49.6 -48.85 L27.7 -48.85 27.7 -48.7 27.35 -48.7 26.95 -48.6 26.8 -48.65 M-13.6 4.9 Q-13.7 7.95 -14.45 14.25 L-14.6 19.3 -14.5 24.35 -14.9 35.6 -14.85 35.75 -15.0 44.75 -15.2 52.7 -15.45 60.75 -15.2 66.5 -15.2 67.55 9.6 67.55 9.6 67.3 9.45 67.3 9.5 66.15 9.25 59.45 9.6 40.5 9.7 36.25 9.65 33.75 Q9.65 31.65 10.0 26.3 10.4 24.85 10.25 22.6 L10.0 18.85 10.6 10.15 11.25 3.35 11.1 2.65 11.1 1.8 Q12.8 -14.1 13.0 -19.5 13.15 -23.6 14.25 -30.1 L15.6 -38.3 15.5 -38.5 Q15.5 -40.75 17.15 -44.7 18.25 -47.35 19.35 -48.6 L-2.85 -48.6 -3.0 -48.55 -3.15 -48.5 -3.15 -48.35 -3.6 -48.35 -3.6 -48.45 -3.75 -48.45 -4.0 -48.3 -4.05 -48.3 -4.0 -48.25 Q-6.5 -46.05 -7.6 -42.65 L-8.7 -38.45 -10.05 -29.45 Q-11.6 -19.9 -11.7 -17.3 -11.85 -14.05 -12.65 -6.25 L-13.45 4.8 -13.5 4.9 -13.6 4.85 -13.6 4.9 M18.0 -3.5 L18.5 -3.5 18.55 -3.3 18.4 -3.0 18.05 -3.1 18.0 -3.5 M21.4 -3.5 L21.45 -3.05 21.2 -2.95 21.05 -3.0 21.0 -3.15 21.4 -3.5 M24.25 -3.05 Q24.35 -3.6 24.8 -3.2 L24.8 -3.0 24.55 -2.95 24.25 -3.05 M30.0 -3.25 L30.15 -2.9 29.95 -2.85 29.65 -2.9 29.7 -3.4 30.0 -3.25 M27.25 -3.4 L27.3 -3.05 27.25 -3.0 26.8 -3.0 26.75 -3.15 27.25 -3.4 M32.8 -2.75 L32.75 -3.25 33.35 -3.25 33.4 -3.1 Q33.4 -2.75 32.8 -2.75 M36.25 -2.75 L36.05 -2.8 36.0 -2.9 Q36.1 -3.35 36.65 -3.25 L36.65 -2.95 Q36.6 -2.75 36.25 -2.75 M39.25 -2.9 Q39.25 -3.15 39.6 -3.15 L39.65 -3.0 39.5 -2.75 39.3 -2.75 39.25 -2.9 M80.3 -39.7 L79.0 -31.0 78.95 -30.7 78.0 -24.55 77.3 -18.55 76.75 -11.5 76.35 -7.5 75.75 -0.15 75.55 3.55 75.5 3.65 75.4 3.6 74.55 13.0 Q74.35 15.0 74.4 18.05 L74.5 23.1 74.4 27.75 74.1 34.35 74.15 34.5 74.0 43.5 73.8 51.45 73.55 59.5 Q73.55 63.6 73.8 65.25 L73.8 66.15 73.9 66.3 73.9 67.0 74.35 66.75 75.05 66.55 75.05 66.05 Q74.85 64.55 74.8 62.45 L74.85 57.8 74.9 55.75 75.1 54.65 75.15 41.8 75.25 37.75 75.2 35.35 75.4 29.65 75.5 28.3 75.5 28.25 75.5 27.95 Q75.5 26.05 75.75 24.7 L75.5 21.2 Q75.5 19.35 76.05 12.9 L76.6 6.4 76.45 5.75 76.45 4.95 77.05 -1.0 77.65 -7.75 78.15 -15.35 Q78.25 -18.8 79.0 -23.95 L79.25 -25.45 79.35 -26.3 80.4 -33.25 80.3 -33.45 Q80.3 -35.1 81.2 -37.75 L81.75 -39.35 81.8 -39.4 82.5 -41.1 83.1 -42.25 Q83.85 -43.45 84.6 -43.85 L84.7 -43.9 85.55 -43.9 85.55 -44.4 86.2 -44.4 86.3 -44.2 86.45 -44.2 86.45 -44.0 86.55 -43.9 86.6 -43.8 86.8 -43.8 86.75 -43.55 86.8 -43.45 87.0 -42.95 87.0 -42.85 87.0 -42.8 87.45 -41.75 87.8 -40.85 87.85 -40.7 88.4 -39.3 89.0 -37.45 89.1 -36.9 90.2 -30.3 90.25 -30.0 90.85 -26.05 91.0 -25.0 91.65 -20.35 91.8 -19.3 91.85 -19.0 92.0 -18.05 92.05 -17.75 93.0 -9.15 93.25 -5.05 93.9 10.05 93.95 11.15 93.9 11.25 93.75 11.25 93.7 11.5 94.2 18.9 94.65 28.05 94.5 43.8 94.75 47.1 95.0 50.75 94.85 54.6 94.95 54.5 95.7 54.2 95.7 52.8 95.95 49.95 95.65 46.7 95.45 44.4 95.25 43.95 95.2 43.55 95.4 34.8 95.6 26.1 95.05 16.6 94.45 8.7 Q94.45 8.0 94.6 7.6 94.4 6.1 94.35 4.15 L94.3 -0.05 93.7 -8.5 93.45 -12.7 93.2 -16.95 92.6 -21.3 91.95 -25.35 92.05 -25.55 90.65 -35.2 Q89.9 -39.8 88.75 -43.55 L87.0 -48.3 86.35 -49.0 86.05 -49.45 85.5 -49.25 84.8 -49.2 84.7 -49.2 83.4 -47.75 Q82.55 -46.7 82.0 -45.45 L81.7 -44.75 81.4 -43.9 80.5 -40.35 80.3 -39.7 M76.3 -39.7 L74.95 -30.7 Q73.4 -21.15 73.3 -18.55 L72.35 -7.5 Q71.7 -0.45 71.55 3.55 L71.5 3.65 71.4 3.6 70.55 13.0 Q70.35 15.0 70.4 18.05 L70.5 23.1 70.1 34.35 70.15 34.5 70.0 43.5 69.8 51.45 69.55 59.5 Q69.55 63.6 69.8 65.25 L69.8 67.25 69.75 67.3 69.75 68.1 71.05 67.85 72.35 68.05 72.5 68.1 72.5 67.95 73.45 67.8 73.35 67.55 73.45 67.3 73.5 66.1 73.25 59.45 73.6 40.5 73.7 36.25 73.65 33.75 73.9 27.75 74.0 26.3 Q74.4 24.85 74.25 22.6 L74.0 18.85 74.6 10.15 75.25 3.35 75.1 2.65 75.1 1.8 75.75 -4.45 76.45 -11.5 77.0 -19.5 Q77.15 -23.1 78.0 -28.55 L78.25 -30.1 78.4 -31.0 79.6 -38.3 79.5 -38.5 Q79.5 -40.25 80.5 -43.0 L81.15 -44.7 81.2 -44.75 82.0 -46.55 82.7 -47.75 Q83.6 -49.1 84.5 -49.5 L84.6 -49.55 84.9 -49.65 84.95 -49.6 85.1 -49.6 85.25 -49.8 81.25 -49.8 81.0 -49.5 Q78.5 -47.3 77.4 -43.9 L76.3 -39.7 M45.05 67.3 L69.4 67.35 69.25 66.65 69.5 66.65 69.25 59.45 69.6 40.5 69.7 36.25 69.65 33.75 Q69.65 31.65 70.0 26.3 70.4 24.85 70.25 22.6 L70.0 18.85 70.6 10.15 71.25 3.35 71.1 2.65 71.1 1.8 Q72.8 -14.1 73.0 -19.5 73.15 -23.6 74.25 -30.1 L75.6 -38.3 75.5 -38.5 Q75.5 -40.75 77.15 -44.7 78.45 -47.9 79.8 -49.05 L58.75 -49.05 58.75 -49.0 58.7 -48.95 58.25 -49.05 56.55 -49.05 56.55 -48.95 56.05 -48.55 55.9 -48.45 55.85 -48.4 55.9 -48.4 56.0 -48.25 Q53.5 -46.05 52.4 -42.65 L51.3 -38.45 49.95 -29.45 Q48.4 -19.9 48.3 -17.3 L47.35 -6.25 Q46.7 0.8 46.55 4.8 L46.5 4.9 46.4 4.85 46.4 4.9 45.55 14.25 Q45.35 16.25 45.4 19.3 L45.5 24.35 45.1 35.6 45.15 35.75 45.0 44.75 44.8 52.7 44.55 60.75 Q44.55 64.85 44.8 66.5 L44.8 67.3 44.8 67.35 45.05 67.3 M82.25 -39.4 L82.0 -38.6 81.2 -35.2 81.0 -34.6 79.9 -26.3 79.85 -26.0 79.0 -20.15 78.95 -19.8 79.1 -19.85 79.55 -20.0 Q80.35 -20.5 82.65 -20.9 L82.75 -21.0 82.8 -20.95 83.9 -21.15 83.95 -21.15 84.0 -21.25 84.7 -21.2 84.65 -20.55 87.0 -6.35 87.15 -4.2 87.1 -1.55 87.05 14.4 86.9 14.5 86.9 16.65 86.85 22.55 86.85 34.1 86.75 55.85 86.75 56.0 87.0 55.85 87.65 55.5 87.85 55.25 88.5 55.1 88.5 55.15 Q89.1 54.8 89.65 54.9 89.35 51.1 89.35 45.05 L89.7 32.85 89.45 29.2 89.45 24.8 Q89.25 22.6 89.0 17.05 L88.6 7.2 88.2 3.15 88.1 1.05 87.85 -0.3 88.0 -0.3 88.05 -0.1 88.0 -2.1 87.8 -4.9 Q87.2 -7.8 86.5 -14.65 L85.7 -20.95 Q85.45 -21.4 85.4 -22.75 L85.4 -23.15 85.35 -23.15 Q85.0 -23.15 85.0 -24.05 L85.1 -24.95 85.1 -25.15 85.1 -25.45 85.25 -25.75 85.2 -25.95 84.8 -28.45 84.45 -31.15 84.5 -31.4 84.25 -32.75 Q83.35 -37.6 82.35 -39.45 L82.3 -39.55 82.25 -39.4 M16.4 4.9 L15.55 14.25 Q15.35 16.25 15.4 19.3 L15.5 24.35 15.1 35.6 15.15 35.75 15.0 44.75 14.8 52.7 14.55 60.75 Q14.55 64.85 14.8 66.5 L14.8 67.3 39.45 67.3 39.5 66.65 39.4 66.65 39.2 66.55 39.2 66.35 39.5 66.35 39.25 59.45 39.6 40.5 39.7 36.25 39.65 33.75 Q39.65 31.65 40.0 26.3 40.4 24.85 40.25 22.6 L40.0 18.85 40.6 10.15 41.25 3.35 41.1 2.65 41.1 1.8 41.5 -2.0 17.0 -2.0 16.55 4.8 16.5 4.9 16.4 4.85 16.4 4.9 M90.5 54.85 L93.85 54.85 94.5 54.8 94.5 53.5 94.7 50.8 94.45 47.7 94.3 45.5 94.1 45.1 94.05 44.7 94.25 36.35 94.4 28.1 93.95 19.05 93.4 11.5 Q93.4 10.85 93.55 10.45 93.35 9.05 93.3 7.2 L93.25 3.2 93.0 -0.05 92.75 -4.85 92.55 -8.85 92.3 -12.9 92.0 -15.6 91.85 -16.7 91.8 -17.05 91.7 -17.75 91.25 -20.35 91.2 -20.9 91.3 -21.1 90.85 -24.3 90.75 -25.0 90.25 -29.05 90.1 -30.3 90.0 -31.1 89.0 -35.9 88.8 -36.75 88.4 -38.25 87.85 -40.05 87.3 -41.75 86.9 -42.8 Q86.65 -42.85 86.3 -43.45 L86.05 -43.85 85.55 -43.7 84.95 -43.65 84.85 -43.65 84.6 -43.4 83.75 -42.25 Q83.0 -41.25 82.55 -40.1 84.75 -35.05 84.9 -29.75 L85.6 -24.25 Q86.35 -20.4 86.9 -15.0 L87.8 -6.15 87.95 -6.15 88.4 0.25 88.8 6.7 88.8 7.5 89.05 11.45 Q89.7 20.55 89.75 24.35 L90.05 33.4 89.8 39.3 89.65 45.05 89.8 50.2 89.7 52.7 Q89.75 54.0 90.35 54.9 L90.35 54.95 90.4 54.9 90.5 54.85 M83.05 -20.4 Q83.65 -19.1 83.95 -17.3 L84.35 -13.65 85.05 -9.3 85.6 -6.2 86.55 -6.3 85.5 -13.1 Q84.85 -17.95 83.95 -20.8 L83.05 -20.4 M85.35 -5.25 L85.4 -3.9 85.35 -1.6 85.3 11.9 85.15 12.0 85.3 16.4 85.25 22.2 85.2 56.2 86.4 56.1 86.3 54.55 86.35 51.55 86.35 34.1 Q86.35 20.95 86.5 14.3 86.55 14.5 86.85 14.5 L86.9 14.5 86.6 10.85 86.6 -5.9 86.2 -5.75 85.5 -5.55 85.35 -5.25 M75.6 39.45 L75.5 44.65 75.4 51.5 75.6 51.9 75.55 50.8 75.6 47.05 75.6 39.45 M75.3 53.85 L75.25 54.25 75.3 54.15 75.3 53.85 M75.55 55.95 L75.45 56.75 Q75.2 58.5 75.5 59.9 L75.5 61.35 75.6 56.4 75.55 55.95 M75.5 61.35 L75.5 61.8 75.6 61.7 75.6 61.65 75.5 61.35 M75.05 67.35 L75.05 67.2 75.0 67.2 75.0 67.25 74.45 67.9 75.05 67.75 75.05 67.35 M-8.5 -49.7 L-8.9 -49.55 -9.15 -49.3 -9.2 -49.3 Q-11.55 -47.15 -12.6 -43.9 L-13.7 -39.7 -15.05 -30.7 Q-16.6 -21.15 -16.7 -18.55 -16.85 -15.3 -17.65 -7.5 L-18.45 3.55 -18.5 3.65 -18.6 3.6 Q-18.7 6.65 -19.45 13.0 L-19.6 18.05 -19.5 23.1 -19.9 34.35 -19.85 34.5 -20.0 43.5 -20.2 51.45 -20.45 59.5 -20.2 65.25 -20.2 66.6 -20.15 66.6 -20.15 68.2 -17.15 68.1 -16.5 68.15 -16.45 67.55 -16.5 67.3 -16.55 67.3 -16.55 67.15 -16.65 66.6 -16.6 66.55 -16.5 66.6 -16.75 59.45 -16.4 40.5 -16.3 36.25 -16.35 33.75 -16.0 26.3 Q-15.6 24.85 -15.75 22.6 L-16.0 18.85 -15.4 10.15 -14.75 3.35 -14.9 2.65 -14.9 1.8 Q-13.2 -14.1 -13.0 -19.5 -12.85 -23.6 -11.75 -30.1 L-10.4 -38.3 -10.5 -38.5 Q-10.5 -40.75 -8.85 -44.7 -7.25 -48.55 -5.65 -49.4 L-5.4 -49.75 -8.5 -49.7 M-4.4 -49.8 L-4.85 -49.75 -5.05 -49.6 -5.0 -49.5 Q-7.5 -47.3 -8.6 -43.9 L-9.7 -39.7 -11.05 -30.7 Q-12.6 -21.15 -12.7 -18.55 L-13.65 -7.5 -14.45 3.55 -14.5 3.65 -14.6 3.6 Q-14.7 6.65 -15.45 13.0 L-15.6 18.05 -15.5 23.1 -15.9 34.35 -15.85 34.5 -16.0 43.5 -16.2 51.45 -16.45 59.5 -16.2 65.25 -16.2 66.95 -16.15 67.1 -16.15 68.2 -16.05 68.2 -16.0 68.35 -15.5 68.0 -15.75 60.7 -15.4 41.75 -15.3 37.5 -15.35 35.0 -15.0 27.55 Q-14.6 26.1 -14.75 23.85 L-15.0 20.1 -14.4 11.4 -13.75 4.6 -13.9 3.9 -13.9 3.05 Q-12.2 -12.85 -12.0 -18.25 -11.85 -22.35 -10.75 -28.85 L-9.4 -37.05 -9.5 -37.25 Q-9.5 -39.5 -7.85 -43.45 -6.15 -47.6 -4.35 -48.3 L-4.4 -48.45 Q-4.4 -48.55 -3.55 -48.85 L-2.9 -48.85 -2.85 -48.8 -1.85 -48.8 -2.3 -49.2 -3.5 -49.8 -4.4 -49.8 M-39.65 -49.4 L-39.4 -49.35 -39.1 -49.4 Q-41.5 -47.25 -42.6 -43.9 L-43.7 -39.7 -45.05 -30.7 Q-46.6 -21.15 -46.7 -18.55 -46.85 -15.3 -47.65 -7.5 L-48.45 3.55 -48.5 3.65 -48.6 3.6 Q-48.7 6.65 -49.45 13.0 L-49.6 18.05 -49.5 23.1 -49.9 34.35 -49.85 34.5 -50.0 43.5 -50.2 51.45 -50.45 59.5 -50.2 65.25 -50.2 66.6 -50.15 66.6 -50.1 66.75 -50.2 67.85 -50.25 67.85 -50.5 67.9 -50.4 68.1 -50.5 68.1 -50.4 68.4 -50.65 67.15 -50.5 66.85 -50.75 59.45 -50.4 40.5 -50.3 36.25 -50.35 33.75 -50.0 26.3 Q-49.6 24.85 -49.75 22.6 L-50.0 18.85 -49.4 10.15 -48.75 3.35 -48.9 2.65 -48.9 1.8 Q-47.2 -14.1 -47.0 -19.5 -46.85 -23.6 -45.75 -30.1 L-44.4 -38.3 -44.5 -38.5 Q-44.5 -40.75 -42.85 -44.7 -41.25 -48.55 -39.65 -49.4 M-43.65 -7.5 L-44.45 3.55 -44.5 3.65 -44.6 3.6 Q-44.7 6.65 -45.45 13.0 L-45.6 18.05 -45.5 23.1 -45.9 34.35 -45.85 34.5 -46.0 43.5 -46.2 51.45 -46.45 59.5 -46.2 65.25 -46.2 67.25 -46.25 67.3 -46.15 67.85 -45.5 67.35 -45.75 60.7 -45.4 41.75 -45.3 37.5 -45.35 35.0 -45.0 27.55 Q-44.6 26.1 -44.75 23.85 L-45.0 20.1 -44.4 11.4 -43.75 4.6 -43.9 3.9 -43.9 3.05 Q-42.2 -12.85 -42.0 -18.25 -41.85 -22.35 -40.75 -28.85 L-39.4 -37.05 -39.5 -37.25 Q-39.5 -39.5 -37.85 -43.45 -36.2 -47.5 -34.45 -48.25 L-34.5 -48.5 -33.95 -48.6 -33.9 -48.5 -33.45 -48.5 -33.7 -48.75 -33.85 -49.0 -34.2 -49.2 -34.3 -49.2 -34.65 -49.3 -35.2 -49.3 Q-37.55 -47.15 -38.6 -43.9 L-39.7 -39.7 -41.05 -30.7 Q-42.6 -21.15 -42.7 -18.55 -42.85 -15.3 -43.65 -7.5 M-43.6 4.9 Q-43.7 7.95 -44.45 14.25 L-44.6 19.3 -44.5 24.35 -44.9 35.6 -44.85 35.75 -45.0 44.75 -45.1 50.1 -20.55 50.2 -20.4 40.5 -20.3 36.25 -20.35 33.75 -20.0 26.3 Q-19.6 24.85 -19.75 22.6 L-20.0 18.85 -19.4 10.15 -18.75 3.35 -18.9 2.65 -18.9 1.8 Q-17.2 -14.1 -17.0 -19.5 -16.85 -23.6 -15.75 -30.1 L-14.4 -38.3 -14.5 -38.5 Q-14.5 -40.75 -12.85 -44.7 -11.9 -46.95 -10.95 -48.2 L-33.9 -48.2 -33.9 -48.15 -34.15 -48.1 Q-36.55 -45.95 -37.6 -42.65 L-38.7 -38.45 -40.05 -29.45 Q-41.6 -19.9 -41.7 -17.3 -41.85 -14.05 -42.65 -6.25 L-43.45 4.8 -43.5 4.9 -43.6 4.85 -43.6 4.9 M-4.3 -48.3 L-4.35 -48.35 -4.35 -48.3 -4.3 -48.3 M-41.35 52.0 L-40.75 52.05 -40.75 52.25 -41.35 52.3 -41.4 52.15 -41.35 52.0 M-43.7 51.9 Q-43.7 52.4 -44.2 52.25 L-44.25 52.0 Q-44.25 51.6 -43.75 51.75 L-43.7 51.9 M-20.55 67.3 L-20.55 50.5 -45.1 50.5 -45.2 52.7 -45.45 60.75 -45.2 66.5 -45.2 67.2 -45.15 67.35 -45.2 67.5 -45.2 67.55 -45.15 67.55 -20.55 67.6 -20.45 67.6 -20.45 67.3 -20.55 67.3 M-22.45 52.2 L-22.5 51.85 -22.35 51.85 Q-22.1 52.0 -22.1 52.3 L-22.1 52.35 -22.25 52.4 -22.45 52.2 M-25.1 52.15 L-25.15 52.25 -25.5 52.0 -25.15 51.75 -25.1 52.15 M-28.65 51.95 Q-28.5 52.05 -28.5 52.35 L-28.85 52.4 -28.9 52.25 -28.65 51.95 M-32.15 52.25 L-31.75 52.25 -31.7 52.6 -31.75 52.65 -32.15 52.5 -32.15 52.25 M-34.75 52.4 L-35.05 52.3 Q-34.75 51.95 -34.6 51.95 L-34.45 52.05 -34.75 52.4 M-37.65 51.95 L-37.6 52.15 -38.2 52.3 -38.25 52.1 Q-38.15 51.95 -37.65 51.95" fill="#000000" fill-rule="evenodd" stroke="none"/>
    <path d="M39.95 67.6 L40.2 67.6 40.25 67.45 40.2 67.3 39.8 67.3 39.8 65.25 Q39.55 63.6 39.55 59.5 L39.8 51.45 40.0 43.5 40.15 34.5 40.1 34.35 40.5 23.1 40.4 18.05 Q40.35 15.0 40.55 13.0 L41.4 3.6 41.5 3.65 41.55 3.55 Q41.7 -0.45 42.35 -7.5 L43.3 -18.55 Q43.4 -21.15 44.95 -30.7 L46.3 -39.7 47.4 -43.9 Q48.45 -47.2 50.85 -49.35 51.45 -49.55 51.7 -49.8 L51.4 -50.1 51.35 -50.15 51.35 -50.3 51.85 -50.3 52.1 -50.3 52.15 -50.1 52.1 -49.85 52.45 -49.85 Q52.7 -49.85 52.65 -49.95 L52.65 -50.05 54.5 -49.95 55.4 -49.95 54.95 -49.6 54.9 -49.65 Q53.0 -49.2 51.15 -44.7 49.5 -40.75 49.5 -38.5 L49.6 -38.3 48.25 -30.1 Q47.15 -23.6 47.0 -19.5 46.8 -14.1 45.1 1.8 L45.1 2.65 45.25 3.35 44.6 10.15 44.0 18.85 44.25 22.6 Q44.4 24.85 44.0 26.3 43.65 31.65 43.65 33.75 L43.7 36.25 43.6 40.5 43.25 59.45 43.5 66.6 43.35 66.6 43.35 67.3 43.4 67.9 43.45 68.05 40.2 68.15 40.25 68.2 40.2 68.5 39.65 68.5 39.6 68.5 39.5 68.5 39.45 68.35 39.6 68.1 39.65 67.95 39.85 67.75 39.95 67.6 M-38.95 -49.9 L-38.95 -49.8 -39.0 -49.55 -37.15 -49.55 -35.1 -49.65 Q-37.0 -49.2 -38.85 -44.7 -40.5 -40.75 -40.5 -38.5 L-40.4 -38.3 -41.75 -30.1 Q-42.85 -23.6 -43.0 -19.5 -43.2 -14.1 -44.9 1.8 L-44.9 2.65 -44.75 3.35 -45.4 10.15 -46.0 18.85 -45.75 22.6 Q-45.6 24.85 -46.0 26.3 L-46.35 33.75 -46.3 36.25 -46.4 40.5 -46.75 59.45 -46.5 66.85 -46.75 66.85 -46.75 68.3 -48.1 68.2 -49.75 68.25 -49.7 68.35 -49.7 68.5 -49.9 68.55 -50.0 68.55 -50.25 68.35 -50.35 68.45 -50.4 68.4 -50.5 68.1 -50.4 68.1 -50.5 67.9 -50.25 67.85 -50.2 67.85 -50.1 66.75 -50.15 66.6 -50.2 66.6 -50.2 65.25 -50.45 59.5 -50.2 51.45 -50.0 43.5 -49.85 34.5 -49.9 34.35 -49.5 23.1 -49.6 18.05 -49.45 13.0 Q-48.7 6.65 -48.6 3.6 L-48.5 3.65 -48.45 3.55 -47.65 -7.5 Q-46.85 -15.3 -46.7 -18.55 -46.6 -21.15 -45.05 -30.7 L-43.7 -39.7 -42.6 -43.9 Q-41.5 -47.25 -39.1 -49.4 L-39.4 -49.35 -39.65 -49.4 -39.65 -49.45 Q-39.65 -50.15 -39.0 -49.95 L-38.95 -49.9 M21.3 -49.55 L22.35 -49.85 25.45 -49.9 24.85 -49.75 24.35 -49.45 24.35 -49.4 Q22.75 -48.55 21.15 -44.7 19.5 -40.75 19.5 -38.5 L19.6 -38.3 18.25 -30.1 Q17.15 -23.6 17.0 -19.5 16.8 -14.1 15.1 1.8 L15.1 2.65 15.25 3.35 14.6 10.15 14.0 18.85 14.25 22.6 Q14.4 24.85 14.0 26.3 13.65 31.65 13.65 33.75 L13.7 36.25 13.6 40.5 13.25 59.45 13.5 66.35 13.35 66.75 13.3 67.5 13.35 67.9 10.45 68.0 9.9 68.1 10.0 67.35 9.95 66.7 9.8 66.7 9.8 65.25 Q9.55 63.6 9.55 59.5 L9.8 51.45 10.0 43.5 10.15 34.5 10.1 34.35 10.5 23.1 10.4 18.05 Q10.35 15.0 10.55 13.0 L11.4 3.6 11.5 3.65 11.55 3.55 Q11.7 -0.45 12.35 -7.5 L13.3 -18.55 Q13.4 -21.15 14.95 -30.7 L16.3 -39.7 17.4 -43.9 Q18.5 -47.25 20.95 -49.4 L21.1 -49.35 21.3 -49.55 M76.3 -39.7 L77.4 -43.9 Q78.5 -47.3 81.0 -49.5 L81.25 -49.8 85.25 -49.8 85.1 -49.6 84.95 -49.6 84.9 -49.65 84.6 -49.55 84.5 -49.5 Q83.6 -49.1 82.7 -47.75 L82.0 -46.55 81.2 -44.75 81.15 -44.7 80.5 -43.0 Q79.5 -40.25 79.5 -38.5 L79.6 -38.3 78.4 -31.0 78.25 -30.1 78.0 -28.55 Q77.15 -23.1 77.0 -19.5 L76.45 -11.5 75.75 -4.45 75.1 1.8 75.1 2.65 75.25 3.35 74.6 10.15 74.0 18.85 74.25 22.6 Q74.4 24.85 74.0 26.3 L73.9 27.75 73.65 33.75 73.7 36.25 73.6 40.5 73.25 59.45 73.5 66.1 73.45 67.3 73.35 67.55 73.45 67.8 72.5 67.95 72.5 68.1 72.35 68.05 71.05 67.85 69.75 68.1 69.75 67.3 69.8 67.25 69.8 65.25 Q69.55 63.6 69.55 59.5 L69.8 51.45 70.0 43.5 70.15 34.5 70.1 34.35 70.5 23.1 70.4 18.05 Q70.35 15.0 70.55 13.0 L71.4 3.6 71.5 3.65 71.55 3.55 Q71.7 -0.45 72.35 -7.5 L73.3 -18.55 Q73.4 -21.15 74.95 -30.7 L76.3 -39.7 M-8.5 -49.7 L-5.4 -49.75 -5.65 -49.4 Q-7.25 -48.55 -8.85 -44.7 -10.5 -40.75 -10.5 -38.5 L-10.4 -38.3 -11.75 -30.1 Q-12.85 -23.6 -13.0 -19.5 -13.2 -14.1 -14.9 1.8 L-14.9 2.65 -14.75 3.35 -15.4 10.15 -16.0 18.85 -15.75 22.6 Q-15.6 24.85 -16.0 26.3 L-16.35 33.75 -16.3 36.25 -16.4 40.5 -16.75 59.45 -16.5 66.6 -16.6 66.55 -16.65 66.6 -16.55 67.15 -16.55 67.3 -16.5 67.3 -16.45 67.55 -16.5 68.15 -17.15 68.1 -20.15 68.2 -20.15 66.6 -20.2 66.6 -20.2 65.25 -20.45 59.5 -20.2 51.45 -20.0 43.5 -19.85 34.5 -19.9 34.35 -19.5 23.1 -19.6 18.05 -19.45 13.0 Q-18.7 6.65 -18.6 3.6 L-18.5 3.65 -18.45 3.55 -17.65 -7.5 Q-16.85 -15.3 -16.7 -18.55 -16.6 -21.15 -15.05 -30.7 L-13.7 -39.7 -12.6 -43.9 Q-11.55 -47.15 -9.2 -49.3 L-9.15 -49.3 -8.9 -49.55 -8.5 -49.7" fill="#999999" fill-rule="evenodd" stroke="none"/>
    <path d="M44.45 67.35 Q44.05 67.35 43.75 67.7 L43.75 67.3 43.8 67.25 43.8 65.25 Q43.55 63.6 43.55 59.5 L43.8 51.45 44.0 43.5 44.15 34.5 44.1 34.35 44.5 23.1 44.4 18.05 Q44.35 15.0 44.55 13.0 L45.4 3.6 45.5 3.65 45.55 3.55 Q45.7 -0.45 46.35 -7.5 L47.3 -18.55 Q47.4 -21.15 48.95 -30.7 L50.3 -39.7 51.4 -43.9 Q52.45 -47.15 54.8 -49.3 L54.85 -49.3 Q55.05 -49.35 55.65 -49.7 L56.35 -49.95 56.35 -49.85 57.25 -49.35 56.6 -49.35 56.5 -49.4 Q56.35 -49.4 55.8 -49.0 L55.2 -48.5 55.25 -48.4 54.85 -48.0 54.9 -47.85 Q53.5 -46.75 52.15 -43.45 50.5 -39.5 50.5 -37.25 L50.6 -37.05 49.25 -28.85 Q48.15 -22.35 48.0 -18.25 47.8 -12.85 46.1 3.05 L46.1 3.9 46.25 4.6 45.6 11.4 45.0 20.1 45.25 23.85 Q45.4 26.1 45.0 27.55 44.65 32.9 44.65 35.0 L44.7 37.5 44.6 41.75 44.25 60.7 44.5 67.35 44.45 67.35 M27.85 -49.35 L28.1 -49.05 27.7 -49.05 27.7 -49.1 27.4 -49.1 27.35 -49.1 27.2 -49.1 27.2 -49.05 26.55 -49.0 26.55 -48.9 Q25.7 -48.75 25.7 -48.5 L25.75 -48.4 25.6 -48.25 Q23.85 -47.55 22.15 -43.45 20.5 -39.5 20.5 -37.25 L20.6 -37.05 19.25 -28.85 Q18.15 -22.35 18.0 -18.25 17.8 -12.85 16.1 3.05 L16.1 3.9 16.25 4.6 15.6 11.4 15.0 20.1 15.25 23.85 Q15.4 26.1 15.0 27.55 14.65 32.9 14.65 35.0 L14.7 37.5 14.6 41.75 14.25 60.7 14.5 67.25 14.2 67.25 14.1 67.5 14.1 67.55 13.85 67.65 13.75 67.75 13.8 67.3 13.8 67.05 13.85 66.25 13.8 66.1 13.8 65.25 Q13.55 63.6 13.55 59.5 L13.8 51.45 14.0 43.5 14.15 34.5 14.1 34.35 14.5 23.1 14.4 18.05 Q14.35 15.0 14.55 13.0 L15.4 3.6 15.5 3.65 15.55 3.55 Q15.7 -0.45 16.35 -7.5 L17.3 -18.55 Q17.4 -21.15 18.95 -30.7 L20.3 -39.7 21.4 -43.9 Q22.45 -47.2 24.85 -49.35 L25.2 -49.45 26.4 -49.65 27.85 -49.35 M80.3 -39.7 L80.5 -40.35 81.4 -43.9 81.7 -44.75 82.0 -45.45 Q82.55 -46.7 83.4 -47.75 L84.7 -49.2 84.8 -49.2 85.5 -49.25 86.05 -49.45 86.35 -49.0 87.0 -48.3 88.75 -43.55 Q89.9 -39.8 90.65 -35.2 L92.05 -25.55 91.95 -25.35 92.6 -21.3 93.2 -16.95 93.45 -12.7 93.7 -8.5 94.3 -0.05 94.35 4.15 Q94.4 6.1 94.6 7.6 94.45 8.0 94.45 8.7 L95.05 16.6 95.6 26.1 95.4 34.8 95.2 43.55 95.25 43.95 95.45 44.4 95.65 46.7 95.95 49.95 95.7 52.8 95.7 54.2 94.95 54.5 94.85 54.6 95.0 50.75 94.75 47.1 94.5 43.8 94.65 28.05 94.2 18.9 93.7 11.5 93.75 11.25 93.9 11.25 93.95 11.15 93.9 10.05 93.25 -5.05 93.0 -9.15 92.05 -17.75 92.0 -18.05 91.85 -19.0 91.8 -19.3 91.65 -20.35 91.0 -25.0 90.85 -26.05 90.25 -30.0 90.2 -30.3 89.1 -36.9 89.0 -37.45 88.4 -39.3 87.85 -40.7 87.8 -40.85 87.45 -41.75 87.0 -42.8 87.0 -42.85 87.0 -42.95 86.8 -43.45 86.75 -43.55 86.8 -43.8 86.6 -43.8 86.55 -43.9 86.45 -44.0 86.45 -44.2 86.3 -44.2 86.2 -44.4 85.55 -44.4 85.55 -43.9 84.7 -43.9 84.6 -43.85 Q83.85 -43.45 83.1 -42.25 L82.5 -41.1 81.8 -39.4 81.75 -39.35 81.2 -37.75 Q80.3 -35.1 80.3 -33.45 L80.4 -33.25 79.35 -26.3 79.25 -25.45 79.0 -23.95 Q78.25 -18.8 78.15 -15.35 L77.65 -7.75 77.05 -1.0 76.45 4.95 76.45 5.75 76.6 6.4 76.05 12.9 Q75.5 19.35 75.5 21.2 L75.75 24.7 Q75.5 26.05 75.5 27.95 L75.5 28.25 75.5 28.3 75.4 29.65 75.2 35.35 75.25 37.75 75.15 41.8 75.1 54.65 74.9 55.75 74.85 57.8 74.8 62.45 Q74.85 64.55 75.05 66.05 L75.05 66.55 74.35 66.75 73.9 67.0 73.9 66.3 73.8 66.15 73.8 65.25 Q73.55 63.6 73.55 59.5 L73.8 51.45 74.0 43.5 74.15 34.5 74.1 34.35 74.4 27.75 74.5 23.1 74.4 18.05 Q74.35 15.0 74.55 13.0 L75.4 3.6 75.5 3.65 75.55 3.55 75.75 -0.15 76.35 -7.5 76.75 -11.5 77.3 -18.55 78.0 -24.55 78.95 -30.7 79.0 -31.0 80.3 -39.7 M-4.4 -49.8 L-3.5 -49.8 -2.3 -49.2 -1.85 -48.8 -2.85 -48.8 -2.9 -48.85 -3.55 -48.85 Q-4.4 -48.55 -4.4 -48.45 L-4.35 -48.3 Q-6.15 -47.6 -7.85 -43.45 -9.5 -39.5 -9.5 -37.25 L-9.4 -37.05 -10.75 -28.85 Q-11.85 -22.35 -12.0 -18.25 -12.2 -12.85 -13.9 3.05 L-13.9 3.9 -13.75 4.6 -14.4 11.4 -15.0 20.1 -14.75 23.85 Q-14.6 26.1 -15.0 27.55 L-15.35 35.0 -15.3 37.5 -15.4 41.75 -15.75 60.7 -15.5 68.0 -16.0 68.35 -16.05 68.2 -16.15 68.2 -16.15 67.1 -16.2 66.95 -16.2 65.25 -16.45 59.5 -16.2 51.45 -16.0 43.5 -15.85 34.5 -15.9 34.35 -15.5 23.1 -15.6 18.05 -15.45 13.0 Q-14.7 6.65 -14.6 3.6 L-14.5 3.65 -14.45 3.55 -13.65 -7.5 -12.7 -18.55 Q-12.6 -21.15 -11.05 -30.7 L-9.7 -39.7 -8.6 -43.9 Q-7.5 -47.3 -5.0 -49.5 L-5.05 -49.6 -4.85 -49.75 -4.4 -49.8 M-43.65 -7.5 Q-42.85 -15.3 -42.7 -18.55 -42.6 -21.15 -41.05 -30.7 L-39.7 -39.7 -38.6 -43.9 Q-37.55 -47.15 -35.2 -49.3 L-34.65 -49.3 -34.3 -49.2 -34.2 -49.2 -33.85 -49.0 -33.7 -48.75 -33.45 -48.5 -33.9 -48.5 -33.95 -48.6 -34.5 -48.5 -34.45 -48.25 Q-36.2 -47.5 -37.85 -43.45 -39.5 -39.5 -39.5 -37.25 L-39.4 -37.05 -40.75 -28.85 Q-41.85 -22.35 -42.0 -18.25 -42.2 -12.85 -43.9 3.05 L-43.9 3.9 -43.75 4.6 -44.4 11.4 -45.0 20.1 -44.75 23.85 Q-44.6 26.1 -45.0 27.55 L-45.35 35.0 -45.3 37.5 -45.4 41.75 -45.75 60.7 -45.5 67.35 -46.15 67.85 -46.25 67.3 -46.2 67.25 -46.2 65.25 -46.45 59.5 -46.2 51.45 -46.0 43.5 -45.85 34.5 -45.9 34.35 -45.5 23.1 -45.6 18.05 -45.45 13.0 Q-44.7 6.65 -44.6 3.6 L-44.5 3.65 -44.45 3.55 -43.65 -7.5" fill="#5e5e5e" fill-rule="evenodd" stroke="none"/>
    <path d="M46.5 4.9 L46.4 4.9 46.4 4.85 46.5 4.9 M44.8 67.3 L45.05 67.3 44.8 67.35 44.8 67.3 M55.9 -48.45 L56.0 -48.25 55.9 -48.4 55.85 -48.4 55.9 -48.45" fill="#6b8d47" fill-rule="evenodd" stroke="none"/>
    <path d="M-3.75 -48.45 L-4.0 -48.25 -4.0 -48.3 -3.75 -48.45 M56.05 -48.55 L56.0 -48.25 55.9 -48.45 56.05 -48.55" fill="#40552b" fill-rule="evenodd" stroke="none"/>
    <path d="M90.35 54.9 Q89.75 54.0 89.7 52.7 L89.8 50.2 89.65 45.05 89.8 39.3 90.05 33.4 89.75 24.35 Q89.7 20.55 89.05 11.45 L88.8 7.5 88.8 6.7 88.4 0.25 87.95 -6.15 87.8 -6.15 86.9 -15.0 Q86.35 -20.4 85.6 -24.25 L84.9 -29.75 Q84.75 -35.05 82.55 -40.1 83.0 -41.25 83.75 -42.25 L84.6 -43.4 84.85 -43.65 84.95 -43.65 85.55 -43.7 86.05 -43.85 86.3 -43.45 Q86.65 -42.85 86.9 -42.8 L87.3 -41.75 87.85 -40.05 88.4 -38.25 88.8 -36.75 89.0 -35.9 90.0 -31.1 90.1 -30.3 90.25 -29.05 90.75 -25.0 90.85 -24.3 91.3 -21.1 91.2 -20.9 91.25 -20.35 91.7 -17.75 91.8 -17.05 91.85 -16.7 92.0 -15.6 92.3 -12.9 92.55 -8.85 92.75 -4.85 93.0 -0.05 93.25 3.2 93.3 7.2 Q93.35 9.05 93.55 10.45 93.4 10.85 93.4 11.5 L93.95 19.05 94.4 28.1 94.25 36.35 94.05 44.7 94.1 45.1 94.3 45.5 94.45 47.7 94.7 50.8 94.5 53.5 94.5 54.8 93.85 54.85 90.5 54.85 90.35 54.9" fill="#4d4d4d" fill-rule="evenodd" stroke="none"/>
    <path d="M-3.75 -48.45 L-3.6 -48.45 -3.6 -48.35 -3.15 -48.35 -3.15 -48.5 -3.0 -48.55 -2.85 -48.6 19.35 -48.6 Q18.25 -47.35 17.15 -44.7 15.5 -40.75 15.5 -38.5 L15.6 -38.3 14.25 -30.1 Q13.15 -23.6 13.0 -19.5 12.8 -14.1 11.1 1.8 L11.1 2.65 11.25 3.35 10.6 10.15 10.0 18.85 10.25 22.6 Q10.4 24.85 10.0 26.3 9.65 31.65 9.65 33.75 L9.7 36.25 9.6 40.5 9.25 59.45 9.5 66.15 9.45 67.3 9.6 67.3 9.6 67.55 -15.2 67.55 -15.2 66.5 -15.45 60.75 -15.2 52.7 -15.0 44.75 -14.85 35.75 -14.9 35.6 -14.5 24.35 -14.6 19.3 -14.45 14.25 Q-13.7 7.95 -13.6 4.9 L-13.5 4.9 -13.45 4.8 -12.65 -6.25 Q-11.85 -14.05 -11.7 -17.3 -11.6 -19.9 -10.05 -29.45 L-8.7 -38.45 -7.6 -42.65 Q-6.5 -46.05 -4.0 -48.25 L-3.75 -48.45 M26.8 -48.65 L26.95 -48.6 27.35 -48.7 27.7 -48.7 27.7 -48.85 49.6 -48.85 Q48.35 -47.65 47.15 -44.7 45.5 -40.75 45.5 -38.5 L45.6 -38.3 44.25 -30.1 Q43.15 -23.6 43.0 -19.5 42.85 -14.85 41.55 -2.3 L39.3 -2.3 39.2 -2.3 36.25 -2.3 32.8 -2.3 32.7 -2.3 17.0 -2.4 17.35 -6.25 18.3 -17.3 Q18.4 -19.9 19.95 -29.45 L21.3 -38.45 22.4 -42.65 Q23.45 -45.95 25.9 -48.1 L26.8 -48.65 M39.25 -2.9 L39.3 -2.75 39.5 -2.75 39.65 -3.0 39.6 -3.15 Q39.25 -3.15 39.25 -2.9 M36.25 -2.75 Q36.6 -2.75 36.65 -2.95 L36.65 -3.25 Q36.1 -3.35 36.0 -2.9 L36.05 -2.8 36.25 -2.75 M32.8 -2.75 Q33.4 -2.75 33.4 -3.1 L33.35 -3.25 32.75 -3.25 32.8 -2.75 M27.25 -3.4 L26.75 -3.15 26.8 -3.0 27.25 -3.0 27.3 -3.05 27.25 -3.4 M30.0 -3.25 L29.7 -3.4 29.65 -2.9 29.95 -2.85 30.15 -2.9 30.0 -3.25 M24.25 -3.05 L24.55 -2.95 24.8 -3.0 24.8 -3.2 Q24.35 -3.6 24.25 -3.05 M21.4 -3.5 L21.0 -3.15 21.05 -3.0 21.2 -2.95 21.45 -3.05 21.4 -3.5 M18.0 -3.5 L18.05 -3.1 18.4 -3.0 18.55 -3.3 18.5 -3.5 18.0 -3.5 M56.05 -48.55 L56.55 -48.95 56.55 -49.05 58.25 -49.05 58.7 -48.95 58.75 -49.0 58.75 -49.05 79.8 -49.05 Q78.45 -47.9 77.15 -44.7 75.5 -40.75 75.5 -38.5 L75.6 -38.3 74.25 -30.1 Q73.15 -23.6 73.0 -19.5 72.8 -14.1 71.1 1.8 L71.1 2.65 71.25 3.35 70.6 10.15 70.0 18.85 70.25 22.6 Q70.4 24.85 70.0 26.3 69.65 31.65 69.65 33.75 L69.7 36.25 69.6 40.5 69.25 59.45 69.5 66.65 69.25 66.65 69.4 67.35 45.05 67.3 44.8 67.3 44.8 66.5 Q44.55 64.85 44.55 60.75 L44.8 52.7 45.0 44.75 45.15 35.75 45.1 35.6 45.5 24.35 45.4 19.3 Q45.35 16.25 45.55 14.25 L46.4 4.9 46.5 4.9 46.55 4.8 Q46.7 0.8 47.35 -6.25 L48.3 -17.3 Q48.4 -19.9 49.95 -29.45 L51.3 -38.45 52.4 -42.65 Q53.5 -46.05 56.0 -48.25 L56.05 -48.55 M79.0 -20.15 L79.85 -26.0 79.9 -26.3 81.0 -34.6 81.2 -35.2 82.0 -38.6 82.25 -39.4 82.35 -39.45 Q83.35 -37.6 84.25 -32.75 L84.5 -31.4 84.45 -31.15 84.8 -28.45 85.2 -25.95 85.25 -25.75 85.1 -25.45 85.1 -25.15 85.1 -24.95 85.0 -24.05 Q85.0 -23.15 85.35 -23.15 L85.4 -23.15 85.4 -22.75 Q85.45 -21.4 85.7 -20.95 L86.5 -14.65 Q87.2 -7.8 87.8 -4.9 L88.0 -2.1 88.05 -0.1 88.0 -0.3 87.85 -0.3 88.1 1.05 88.2 3.15 88.6 7.2 89.0 17.05 Q89.25 22.6 89.45 24.8 L89.45 29.2 89.7 32.85 89.35 45.05 Q89.35 51.1 89.65 54.9 89.1 54.8 88.5 55.15 L88.5 55.1 87.85 55.25 87.65 55.5 87.0 55.85 86.75 55.85 86.85 34.1 86.85 22.55 86.9 16.65 86.9 14.5 87.05 14.4 87.1 -1.55 87.15 -4.2 87.0 -6.35 84.65 -20.55 84.7 -21.2 84.0 -21.25 83.95 -21.15 83.9 -21.15 82.8 -20.95 82.75 -21.0 82.65 -20.9 Q80.35 -20.5 79.55 -20.0 L79.1 -19.85 79.0 -20.15 M16.5 4.9 L16.55 4.8 17.0 -2.0 41.5 -2.0 41.1 1.8 41.1 2.65 41.25 3.35 40.6 10.15 40.0 18.85 40.25 22.6 Q40.4 24.85 40.0 26.3 39.65 31.65 39.65 33.75 L39.7 36.25 39.6 40.5 39.25 59.45 39.5 66.35 39.2 66.35 39.2 66.55 39.4 66.65 39.5 66.65 39.45 67.3 14.8 67.3 14.8 66.5 Q14.55 64.85 14.55 60.75 L14.8 52.7 15.0 44.75 15.15 35.75 15.1 35.6 15.5 24.35 15.4 19.3 Q15.35 16.25 15.55 14.25 L16.4 4.9 16.5 4.9 M-43.5 4.9 L-43.45 4.8 -42.65 -6.25 Q-41.85 -14.05 -41.7 -17.3 -41.6 -19.9 -40.05 -29.45 L-38.7 -38.45 -37.6 -42.65 Q-36.55 -45.95 -34.15 -48.1 L-33.9 -48.15 -33.9 -48.2 -10.95 -48.2 Q-11.9 -46.95 -12.85 -44.7 -14.5 -40.75 -14.5 -38.5 L-14.4 -38.3 -15.75 -30.1 Q-16.85 -23.6 -17.0 -19.5 -17.2 -14.1 -18.9 1.8 L-18.9 2.65 -18.75 3.35 -19.4 10.15 -20.0 18.85 -19.75 22.6 Q-19.6 24.85 -20.0 26.3 L-20.35 33.75 -20.3 36.25 -20.4 40.5 -20.55 50.2 -45.1 50.1 -45.0 44.75 -44.85 35.75 -44.9 35.6 -44.5 24.35 -44.6 19.3 -44.45 14.25 Q-43.7 7.95 -43.6 4.9 L-43.5 4.9 M-45.15 67.35 L-45.2 67.2 -45.2 66.5 -45.45 60.75 -45.2 52.7 -45.1 50.5 -20.55 50.5 -20.55 67.3 -20.55 67.6 -45.15 67.55 -45.15 67.35 M-43.7 51.9 L-43.75 51.75 Q-44.25 51.6 -44.25 52.0 L-44.2 52.25 Q-43.7 52.4 -43.7 51.9 M-41.35 52.0 L-41.4 52.15 -41.35 52.3 -40.75 52.25 -40.75 52.05 -41.35 52.0 M-37.65 51.95 Q-38.15 51.95 -38.25 52.1 L-38.2 52.3 -37.6 52.15 -37.65 51.95 M-34.75 52.4 L-34.45 52.05 -34.6 51.95 Q-34.75 51.95 -35.05 52.3 L-34.75 52.4 M-32.15 52.25 L-32.15 52.5 -31.75 52.65 -31.7 52.6 -31.75 52.25 -32.15 52.25 M-28.65 51.95 L-28.9 52.25 -28.85 52.4 -28.5 52.35 Q-28.5 52.05 -28.65 51.95 M-25.1 52.15 L-25.15 51.75 -25.5 52.0 -25.15 52.25 -25.1 52.15 M-22.45 52.2 L-22.25 52.4 -22.1 52.35 -22.1 52.3 Q-22.1 52.0 -22.35 51.85 L-22.5 51.85 -22.45 52.2" fill="url(#gradient0)" fill-rule="evenodd" stroke="none"/>
    <path d="M76.8 6.7 L76.85 6.6 77.05 3.1 77.55 -3.9 77.9 -7.75 78.4 -14.45 78.85 -19.0 79.25 -19.25 79.75 -19.25 82.05 -20.1 82.65 -20.25 83.55 -16.95 83.85 -13.2 84.3 -9.4 Q84.65 -7.45 85.2 -6.1 L85.15 -6.1 85.1 -6.15 85.1 -6.1 Q84.75 -6.05 84.75 -5.7 84.75 -5.25 85.1 -5.25 L84.95 2.55 84.75 10.9 84.75 55.65 84.6 56.0 84.6 56.25 84.8 56.45 Q83.25 56.9 80.35 58.8 L76.15 61.8 76.1 61.7 76.05 61.5 76.1 56.75 76.1 54.5 76.1 24.45 75.95 24.25 75.85 20.4 Q75.8 17.5 76.0 15.6 L76.75 6.7 76.8 6.7" fill="url(#gradient1)" fill-rule="evenodd" stroke="none"/>
    <path d="M83.05 -20.4 L83.95 -20.8 Q84.85 -17.95 85.5 -13.1 L86.55 -6.3 85.6 -6.2 85.05 -9.3 84.35 -13.65 83.95 -17.3 Q83.65 -19.1 83.05 -20.4" fill="url(#gradient2)" fill-rule="evenodd" stroke="none"/>
    <path d="M85.35 -5.25 L85.5 -5.55 86.2 -5.75 86.6 -5.9 86.6 10.85 86.9 14.5 86.85 14.5 Q86.55 14.5 86.5 14.3 86.35 20.95 86.35 34.1 L86.35 51.55 86.3 54.55 86.4 56.1 85.2 56.2 85.25 22.2 85.3 16.4 85.15 12.0 85.3 11.9 85.35 -1.6 85.4 -3.9 85.35 -5.25" fill="url(#gradient3)" fill-rule="evenodd" stroke="none"/>
    <path d="M85.0 56.6 L80.0 59.75 76.15 62.1 76.05 62.1 75.85 61.95 76.1 61.8 76.15 61.8 80.35 58.8 Q83.25 56.9 84.8 56.45 L84.9 56.4 85.0 56.6" fill="url(#gradient4)" fill-rule="evenodd" stroke="none"/>
    <path d="M76.75 6.7 L76.75 6.65 76.8 6.65 76.75 6.7" fill="url(#gradient5)" fill-rule="evenodd" stroke="none"/>
    <path d="M76.8 6.7 L76.75 6.7 76.8 6.65 76.8 6.7" fill="url(#gradient6)" fill-rule="evenodd" stroke="none"/>
  </g>
  <defs>
    <linearGradient gradientTransform="matrix(0.0, 0.071, -0.0215, 0.0, 62.2, 9.15)" gradientUnits="userSpaceOnUse" id="gradient0" spreadMethod="pad" x1="-819.2" x2="819.2">
      <stop offset="0.0" stop-color="#6d8844"/>
      <stop offset="1.0" stop-color="#303f1f"/>
    </linearGradient>
    <linearGradient gradientTransform="matrix(-0.0057, 0.0, 0.0, -0.0501, 80.55, 20.8)" gradientUnits="userSpaceOnUse" id="gradient1" spreadMethod="pad" x1="-819.2" x2="819.2">
      <stop offset="0.0" stop-color="#313627"/>
      <stop offset="1.0" stop-color="#171d0e"/>
    </linearGradient>
    <linearGradient gradientTransform="matrix(0.0, 0.0089, -0.0021, 0.0, 84.8, -13.5)" gradientUnits="userSpaceOnUse" id="gradient2" spreadMethod="pad" x1="-819.2" x2="819.2">
      <stop offset="0.0" stop-color="#5b7238"/>
      <stop offset="1.0" stop-color="#171d0e"/>
    </linearGradient>
    <linearGradient gradientTransform="matrix(0.0, -0.0379, 0.0011, 0.0, 86.0, 25.15)" gradientUnits="userSpaceOnUse" id="gradient3" spreadMethod="pad" x1="-819.2" x2="819.2">
      <stop offset="0.0" stop-color="#5b7238"/>
      <stop offset="1.0" stop-color="#171d0e"/>
    </linearGradient>
    <linearGradient gradientTransform="matrix(0.0, 0.0035, -0.0056, 0.0, 80.45, 59.25)" gradientUnits="userSpaceOnUse" id="gradient4" spreadMethod="pad" x1="-819.2" x2="819.2">
      <stop offset="0.0" stop-color="#5b7238"/>
      <stop offset="1.0" stop-color="#171d0e"/>
    </linearGradient>
    <linearGradient gradientTransform="matrix(-0.0057, 0.0, 0.0, -0.0501, 80.55, 20.8)" gradientUnits="userSpaceOnUse" id="gradient5" spreadMethod="pad" x1="-819.2" x2="819.2">
      <stop offset="0.0" stop-color="#5b7238"/>
      <stop offset="1.0" stop-color="#171d0e"/>
    </linearGradient>
    <linearGradient gradientTransform="matrix(-0.0057, 0.0, 0.0, -0.0501, 80.55, 20.8)" gradientUnits="userSpaceOnUse" id="gradient6" spreadMethod="pad" x1="-819.2" x2="819.2">
      <stop offset="0.0" stop-color="#556145"/>
      <stop offset="1.0" stop-color="#171d0e"/>
    </linearGradient>
  </defs>
</svg>
