<?xml version="1.0" encoding="UTF-8" standalone="no"?>
<svg xmlns:xlink="http://www.w3.org/1999/xlink" height="59.8px" width="69.9px" xmlns="http://www.w3.org/2000/svg">
  <g transform="matrix(1.0, 0.0, 0.0, 1.0, 42.85, 93.75)">
    <path d="M19.15 -84.8 Q24.9 -79.65 26.35 -72.0 27.95 -64.0 23.8 -57.7 22.2 -55.25 20.35 -55.2 18.95 -54.1 16.5 -54.7 L16.5 -54.85 16.5 -55.05 16.55 -55.25 16.65 -55.45 16.8 -55.6 Q19.1 -56.0 20.3 -57.8 20.95 -58.8 20.8 -60.15 L20.45 -61.25 Q15.65 -62.45 11.55 -59.35 10.45 -58.5 9.3 -57.8 L8.4 -57.15 Q7.35 -56.3 6.05 -56.6 5.55 -57.1 5.45 -57.75 L4.85 -59.3 4.0 -60.2 -6.45 -59.6 -7.0 -60.15 -7.85 -60.95 -8.5 -61.75 -8.5 -63.45 -8.55 -65.1 Q-11.1 -64.75 -13.65 -65.8 -14.15 -64.55 -13.95 -63.2 -13.8 -62.25 -14.05 -61.5 L-14.0 -61.35 Q-13.95 -61.0 -14.15 -60.65 -14.4 -60.1 -14.95 -59.85 L-15.75 -59.8 -16.35 -60.05 -16.45 -60.25 -16.5 -60.45 -16.5 -60.6 -16.45 -60.8 -16.35 -60.95 -17.7 -62.0 -18.4 -62.95 -18.65 -63.4 -18.85 -63.7 -19.6 -64.3 -19.75 -64.45 Q-22.6 -64.25 -24.7 -62.5 L-25.75 -61.7 Q-27.35 -60.75 -29.2 -61.35 L-29.35 -61.55 -29.75 -61.95 -30.15 -62.3 -30.3 -62.35 -31.25 -62.1 Q-32.2 -62.1 -32.7 -61.35 L-33.0 -60.95 -33.0 -59.6 -33.0 -58.7 -33.0 -58.3 -32.95 -58.15 -32.8 -57.55 -32.5 -56.95 Q-32.15 -56.65 -32.3 -56.25 -38.65 -55.7 -41.45 -62.25 -44.4 -69.1 -39.2 -74.0 -37.15 -75.95 -34.55 -77.1 -31.1 -78.7 -27.55 -79.65 L-27.4 -81.1 Q-26.65 -84.8 -23.55 -87.05 -18.15 -91.0 -11.55 -92.7 L-11.25 -92.75 Q-7.6 -93.55 -4.6 -91.95 L-1.95 -90.1 -0.95 -90.4 0.95 -91.15 1.25 -91.25 Q11.6 -91.6 19.15 -84.8 M10.0 -54.75 Q10.5 -54.8 10.7 -54.4 10.9 -53.8 11.25 -53.8 11.75 -53.8 12.05 -53.45 L12.2 -53.25 Q12.35 -52.55 11.9 -51.9 L10.55 -50.8 8.3 -50.6 Q7.9 -50.9 7.85 -51.4 L7.75 -52.3 7.75 -53.05 7.8 -53.8 8.1 -54.1 9.0 -54.5 10.0 -54.75 M9.75 -53.0 L9.45 -52.8 9.25 -52.5 9.25 -52.3 9.75 -52.3 10.35 -52.7 10.5 -53.05 10.5 -53.15 10.25 -53.2 Q10.15 -53.1 10.05 -53.1 L9.75 -53.0 M21.6 -50.05 L21.95 -49.55 Q22.0 -49.15 21.7 -48.9 L21.55 -48.8 20.6 -48.95 Q20.1 -49.25 20.3 -49.8 20.5 -50.25 21.0 -50.2 L21.0 -50.25 21.6 -50.05 M23.9 -41.25 L22.75 -40.75 22.25 -40.5 22.0 -40.5 21.6 -40.65 21.4 -40.85 21.25 -41.2 21.25 -41.35 21.3 -41.7 21.75 -42.3 22.25 -42.5 23.5 -42.45 Q24.0 -42.45 24.15 -42.0 L24.25 -41.6 24.15 -41.45 23.9 -41.25 M15.8 -36.7 Q16.2 -36.05 15.8 -35.35 L14.6 -34.25 12.4 -34.3 12.3 -34.5 12.25 -34.7 12.25 -35.25 12.25 -35.6 12.25 -35.8 12.25 -36.0 12.4 -36.2 12.55 -36.35 13.1 -36.8 13.5 -36.95 13.5 -37.0 13.75 -36.95 14.1 -36.85 14.3 -36.7 14.45 -36.55 14.55 -36.65 14.75 -36.8 15.25 -36.9 15.8 -36.7 M-27.35 -50.0 Q-27.15 -49.45 -27.6 -49.05 L-28.15 -48.15 -28.25 -47.95 Q-28.95 -47.55 -29.65 -47.95 L-30.4 -48.8 -30.5 -49.75 -30.15 -50.0 -28.85 -50.45 -28.25 -50.45 -28.25 -50.5 Q-27.6 -50.55 -27.35 -50.0 M-6.0 -52.95 L-5.65 -52.85 -5.3 -52.5 -5.3 -52.3 -5.4 -51.95 -5.75 -51.35 -5.95 -51.0 -6.2 -50.8 -6.5 -50.75 -6.75 -50.75 -7.15 -50.9 -7.35 -51.05 -7.45 -51.25 -7.5 -51.6 -7.45 -52.35 -7.15 -52.8 -6.75 -53.0 -6.0 -52.95 M-16.15 -46.8 L-15.8 -46.3 Q-15.75 -45.9 -16.05 -45.65 L-16.2 -45.55 -17.15 -45.7 Q-17.65 -46.0 -17.45 -46.55 -17.25 -47.0 -16.75 -46.95 L-16.75 -47.0 -16.15 -46.8 M-21.95 -40.15 Q-21.7 -39.95 -21.4 -40.25 L-21.0 -40.4 -20.6 -40.35 Q-20.1 -39.95 -20.15 -39.25 -20.2 -38.65 -20.65 -38.25 L-21.75 -37.05 -21.95 -36.8 -22.25 -36.8 -22.9 -36.95 -23.1 -37.05 -23.3 -38.0 -23.25 -38.75 -23.1 -40.05 -22.5 -40.5 -21.95 -40.15" fill="#666666" fill-rule="evenodd" stroke="none"/>
    <path d="M19.95 -85.75 Q28.15 -78.2 26.9 -67.25 26.45 -63.45 25.15 -60.05 23.0 -54.3 17.5 -54.5 18.75 -57.15 20.7 -59.8 22.1 -61.6 21.65 -64.25 20.2 -72.6 13.6 -78.3 5.65 -85.2 0.6 -76.5 L-1.45 -73.3 -1.75 -73.25 -2.0 -73.25 -2.4 -73.4 -2.6 -73.55 -3.15 -76.7 -3.75 -78.35 -4.65 -79.85 Q-9.1 -86.8 -16.4 -81.95 -18.5 -80.55 -19.65 -78.4 -21.9 -74.3 -22.2 -69.5 -23.9 -69.15 -25.75 -69.95 -30.35 -72.05 -35.15 -70.75 -36.0 -70.5 -36.45 -69.95 -39.0 -66.7 -37.9 -62.45 -37.2 -59.55 -34.6 -57.7 L-33.5 -56.45 Q-36.5 -55.4 -39.45 -58.1 L-40.7 -59.6 Q-43.25 -63.85 -42.8 -69.2 -42.15 -76.65 -34.1 -78.1 L-27.5 -79.05 -27.5 -79.45 Q-27.6 -81.55 -26.75 -83.4 L-26.5 -83.95 -26.45 -84.1 Q-25.25 -86.65 -23.25 -88.5 -19.55 -91.85 -14.75 -93.3 L-13.25 -93.75 -6.0 -93.5 Q-3.75 -93.35 -1.95 -92.05 L-0.85 -90.85 Q8.75 -93.05 16.8 -88.1 L19.95 -85.75 M10.0 -54.7 Q10.5 -54.7 10.8 -54.4 L11.2 -53.7 11.25 -53.5 11.25 -53.3 11.25 -53.1 11.25 -52.95 11.2 -52.75 11.05 -52.55 10.85 -52.4 10.5 -52.35 Q10.2 -52.4 9.95 -52.6 L9.75 -52.85 9.75 -52.9 9.0 -52.75 Q8.45 -52.65 8.15 -53.05 7.95 -53.3 8.0 -53.6 L8.0 -53.8 8.2 -54.1 8.75 -54.55 9.25 -54.75 10.0 -54.7 M-2.45 -72.45 Q-2.1 -72.0 -2.35 -71.5 L-2.7 -70.75 -2.75 -70.55 Q-1.45 -68.3 -4.05 -67.05 L-7.4 -65.15 Q-9.3 -64.0 -10.0 -65.45 L-13.7 -65.6 Q-13.95 -65.9 -14.3 -66.0 L-15.45 -66.55 -16.25 -67.6 -16.25 -67.8 -16.2 -68.0 -15.95 -68.35 -15.55 -68.75 -16.0 -69.5 -16.3 -70.6 -16.15 -71.55 -15.8 -71.95 Q-12.05 -68.8 -7.7 -70.35 -6.9 -70.6 -6.3 -71.45 -5.2 -72.95 -3.25 -72.75 -2.75 -72.8 -2.45 -72.45 M-6.5 -53.0 Q-5.9 -52.9 -5.85 -52.3 -5.75 -51.8 -6.2 -51.6 -6.75 -51.35 -7.1 -51.85 L-7.25 -52.2 -7.25 -52.35 -7.15 -52.55 -6.9 -52.8 -6.5 -52.95 -6.5 -53.0" fill="#333333" fill-rule="evenodd" stroke="none"/>
  </g>
</svg>
