<?xml version="1.0" encoding="UTF-8" standalone="no"?>
<svg xmlns:xlink="http://www.w3.org/1999/xlink" height="57.7px" width="67.9px" xmlns="http://www.w3.org/2000/svg">
  <g transform="matrix(1.0, 0.0, 0.0, 1.0, 40.5, 93.75)">
    <path d="M18.65 -85.9 Q20.6 -84.9 21.9 -82.8 25.35 -77.3 26.8 -70.8 27.95 -65.65 25.5 -61.35 24.75 -60.05 23.0 -60.55 L22.4 -60.8 22.3 -61.0 22.05 -62.05 21.95 -63.05 21.95 -63.25 21.85 -63.45 21.75 -63.6 21.6 -64.0 21.3 -64.8 21.25 -64.95 21.25 -65.1 Q14.9 -65.9 8.9 -68.8 -0.65 -73.5 -11.8 -72.0 L-14.7 -72.3 Q-21.7 -74.75 -28.25 -70.5 -31.65 -68.25 -35.5 -67.25 -38.7 -66.35 -40.5 -68.75 L-40.3 -70.6 -40.15 -71.35 -39.85 -72.2 Q-39.1 -73.6 -37.55 -74.3 -32.55 -76.55 -27.25 -77.55 L-27.25 -77.75 -27.15 -79.6 -27.05 -79.8 -27.0 -80.0 -26.85 -80.2 -26.75 -80.4 -26.2 -81.3 -25.7 -81.9 -24.65 -82.7 -23.85 -83.45 -23.55 -85.7 -23.5 -86.05 -23.35 -87.35 Q-22.6 -89.6 -20.4 -90.45 -14.6 -92.55 -8.5 -92.75 L-4.5 -92.65 Q-3.85 -92.6 -3.75 -92.05 L-2.75 -91.75 Q-1.55 -91.35 -0.6 -90.5 L-0.4 -90.3 Q5.35 -91.15 11.15 -89.2 15.05 -87.85 18.65 -85.9 M1.0 -89.35 L1.3 -89.2 1.35 -89.3 1.0 -89.35 M9.65 -57.05 L10.0 -57.25 11.0 -57.2 11.4 -57.1 11.55 -56.95 11.7 -56.75 11.75 -56.65 12.55 -56.2 12.7 -56.0 12.75 -55.8 12.75 -55.45 12.75 -54.85 12.75 -54.7 12.7 -54.5 Q12.45 -54.1 12.0 -53.95 9.8 -53.25 7.9 -54.3 L7.8 -54.5 7.75 -54.7 7.75 -55.05 7.75 -55.6 7.75 -55.8 7.75 -56.0 7.9 -56.15 Q8.35 -56.65 9.0 -56.65 L9.65 -57.05 M21.85 -52.05 L22.2 -51.55 Q22.25 -51.15 21.95 -50.9 L21.8 -50.8 20.85 -50.95 Q20.35 -51.25 20.55 -51.8 20.75 -52.25 21.25 -52.2 L21.25 -52.25 21.85 -52.05 M22.55 -44.1 Q22.65 -44.75 23.25 -44.7 L23.25 -44.75 23.9 -44.25 24.0 -43.3 Q24.0 -42.8 23.55 -42.6 L23.25 -42.5 Q22.55 -42.55 22.5 -43.2 L22.55 -44.1 M15.25 -38.15 L15.75 -37.9 16.0 -37.55 15.95 -37.4 15.8 -37.0 15.4 -36.55 14.9 -36.1 14.5 -36.05 13.6 -36.25 Q13.25 -36.35 13.1 -36.7 L13.0 -36.85 13.0 -37.05 13.2 -37.4 13.65 -38.0 Q13.9 -38.3 14.25 -38.2 L14.25 -38.25 15.25 -38.15 M-31.25 -50.45 L-31.25 -50.6 -31.15 -50.8 -30.9 -51.05 -30.5 -51.2 -30.5 -51.25 Q-29.9 -51.15 -29.85 -50.55 -29.75 -50.05 -30.2 -49.85 -30.75 -49.6 -31.1 -50.1 L-31.25 -50.45 M-6.25 -51.25 Q-6.95 -51.3 -7.0 -51.95 L-6.95 -52.85 Q-6.85 -53.5 -6.25 -53.45 L-6.25 -53.5 Q-5.75 -53.45 -5.6 -53.0 L-5.5 -52.05 Q-5.5 -51.55 -5.95 -51.35 L-6.25 -51.25 M-21.85 -40.3 Q-21.75 -39.8 -22.2 -39.6 -22.75 -39.35 -23.1 -39.85 L-23.25 -40.2 -23.25 -40.35 -23.15 -40.55 -22.9 -40.8 -22.5 -40.95 -22.5 -41.0 Q-21.9 -40.9 -21.85 -40.3" fill="#666666" fill-rule="evenodd" stroke="none"/>
    <path d="M5.4 -82.3 L5.2 -82.5 5.0 -82.7 4.8 -82.85 3.4 -82.75 Q1.6 -82.4 0.25 -81.2 -0.8 -80.3 -1.45 -79.1 L-1.75 -78.65 -1.8 -78.5 Q-2.25 -77.55 -3.2 -77.85 L-3.3 -78.1 Q-3.75 -80.65 -5.85 -82.45 -6.4 -82.95 -7.05 -83.25 -8.45 -84.0 -10.0 -84.2 -14.8 -85.0 -19.1 -83.2 L-19.15 -83.0 Q-19.35 -80.85 -20.25 -78.85 L-20.7 -78.05 Q-21.55 -76.95 -22.75 -76.95 -26.75 -77.0 -28.45 -73.75 -29.2 -72.3 -30.25 -70.95 -30.35 -70.85 -30.45 -70.85 L-30.75 -70.75 -31.25 -70.8 Q-31.55 -70.9 -31.85 -71.1 L-32.2 -71.35 -32.25 -71.4 Q-34.45 -71.85 -35.75 -70.25 L-36.6 -69.0 -37.1 -68.35 -37.5 -68.35 -38.2 -68.4 -38.45 -68.4 -39.15 -68.45 Q-39.3 -68.45 -39.35 -68.55 L-39.45 -68.75 Q-39.65 -70.7 -39.1 -72.45 L-38.8 -73.4 -37.95 -74.5 -36.0 -76.0 Q-32.7 -78.0 -28.75 -78.45 L-28.75 -78.55 -28.75 -78.75 Q-28.6 -81.45 -25.9 -82.55 -24.85 -82.95 -24.45 -83.9 -23.85 -85.2 -23.95 -86.7 -24.2 -90.7 -20.3 -92.05 L-15.25 -93.75 -6.05 -93.3 Q-3.55 -93.0 -1.6 -91.45 L-1.5 -91.3 Q9.25 -92.0 17.85 -86.25 22.4 -83.15 25.1 -77.95 29.15 -70.1 26.1 -62.1 25.65 -60.95 24.55 -61.75 21.25 -64.05 21.3 -68.5 21.3 -70.05 20.75 -71.6 18.85 -76.95 14.15 -79.35 12.9 -80.0 11.7 -80.95 9.15 -83.0 5.55 -82.1 L5.4 -82.3 M4.2 -77.0 L4.45 -77.15 4.75 -77.25 6.25 -75.75 Q6.95 -74.85 8.1 -74.6 9.3 -74.4 9.5 -73.35 8.65 -72.05 7.05 -72.8 6.1 -73.25 5.25 -74.05 L4.0 -75.5 4.0 -75.85 4.0 -76.45 Q3.95 -76.75 4.2 -77.0 M8.35 -56.55 Q8.6 -57.0 9.0 -57.0 L11.5 -56.9 Q12.25 -56.85 12.25 -56.1 L12.1 -55.95 Q9.9 -54.25 8.3 -56.2 L8.25 -56.35 8.35 -56.55 M-15.25 -79.75 L-14.9 -79.6 -14.6 -79.25 -14.45 -78.7 -14.45 -78.5 Q-12.7 -77.4 -10.9 -77.95 L-9.1 -78.1 -8.85 -77.75 -8.55 -77.2 -8.3 -76.6 -8.25 -76.45 -8.25 -76.3 -6.75 -75.95 Q-6.15 -75.9 -6.0 -75.3 L-6.0 -75.1 Q-7.1 -73.85 -9.0 -74.7 L-11.9 -75.8 -14.5 -76.1 -14.95 -76.1 -15.7 -77.15 -15.95 -77.8 -16.0 -78.0 -16.0 -78.75 -16.0 -78.95 -15.95 -79.1 Q-15.8 -79.75 -15.25 -79.75" fill="#333333" fill-rule="evenodd" stroke="none"/>
  </g>
</svg>
