<?xml version="1.0" encoding="UTF-8" standalone="no"?>
<svg xmlns:xlink="http://www.w3.org/1999/xlink" height="38.15px" width="63.45px" xmlns="http://www.w3.org/2000/svg">
  <g transform="matrix(1.0, 0.0, 0.0, 1.0, 36.25, 93.7)">
    <path d="M21.1 -76.25 Q10.6 -79.05 -0.5 -77.9 -1.4 -77.8 -1.85 -78.75 L-2.5 -80.25 -3.8 -80.4 -6.45 -79.4 -11.25 -77.9 -11.75 -77.85 -13.85 -78.1 Q-14.9 -78.4 -15.7 -79.2 -18.05 -79.9 -20.25 -78.65 L-23.25 -76.9 -23.85 -76.4 Q-25.8 -74.55 -28.1 -72.9 -31.2 -70.7 -35.1 -72.05 -35.65 -74.3 -34.2 -76.15 L-31.7 -79.5 Q-26.6 -86.3 -18.65 -89.0 -14.2 -90.5 -9.6 -90.7 -8.9 -90.75 -8.15 -91.2 L-6.5 -92.0 Q0.15 -91.85 6.55 -89.95 L10.25 -89.55 Q18.75 -90.15 23.15 -82.95 26.5 -77.45 25.0 -72.0 L23.0 -75.0 Q22.25 -75.95 21.1 -76.25 M9.75 -59.95 L10.75 -60.25 11.25 -60.2 11.6 -60.1 11.8 -59.95 11.95 -59.75 11.95 -59.15 Q11.65 -58.65 11.7 -58.05 L11.75 -56.75 11.55 -56.0 8.05 -55.9 7.2 -56.5 7.1 -56.7 7.0 -56.9 7.0 -57.25 7.0 -57.6 7.0 -58.0 7.85 -58.95 Q8.65 -59.7 9.75 -59.95 M-15.75 -74.65 L-15.25 -74.25 Q-14.75 -74.2 -14.55 -73.75 L-14.5 -73.55 -14.5 -73.35 -14.5 -73.2 -14.6 -73.0 -14.8 -72.65 -15.0 -72.45 -16.5 -72.25 Q-17.15 -72.4 -17.6 -72.85 L-17.75 -73.0 -17.75 -73.2 -17.7 -73.35 -17.6 -73.75 -17.5 -74.1 -17.4 -74.3 -17.3 -74.5 -17.1 -74.7 -16.9 -74.85 -16.5 -74.95 -16.5 -75.0 Q-16.0 -75.05 -15.75 -74.65" fill="#666666" fill-rule="evenodd" stroke="none"/>
    <path d="M14.5 -90.9 Q19.5 -88.45 23.5 -84.75 28.35 -80.25 26.8 -73.5 L26.7 -73.4 26.55 -73.35 26.1 -73.2 25.95 -73.05 25.85 -72.9 25.55 -72.65 24.8 -72.6 Q25.35 -77.3 22.3 -80.5 17.4 -85.65 10.25 -84.05 3.2 -82.5 -4.0 -83.85 -14.75 -85.9 -24.45 -82.45 -26.55 -81.7 -27.8 -79.95 -31.5 -75.05 -36.1 -72.8 -36.45 -74.05 -35.9 -75.2 -33.9 -79.6 -30.3 -83.0 -23.65 -89.25 -14.05 -91.15 L-4.0 -93.25 Q3.35 -94.4 10.3 -92.5 12.45 -91.9 14.5 -90.9 M9.25 -59.75 L10.5 -59.7 Q11.0 -59.7 11.15 -59.25 L11.25 -58.85 11.0 -58.65 8.5 -57.65 Q7.95 -57.4 7.35 -57.65 7.0 -57.85 7.0 -58.2 L7.0 -58.35 7.35 -58.8 8.45 -59.45 8.95 -59.65 9.25 -59.7 9.25 -59.75 M-15.6 -76.0 L-13.85 -75.45 Q-12.95 -75.1 -12.6 -74.25 L-12.6 -73.95 Q-12.85 -73.4 -13.45 -73.6 L-16.55 -74.5 Q-18.35 -75.0 -17.25 -76.1 L-17.0 -76.25 -15.6 -76.0" fill="#333333" fill-rule="evenodd" stroke="none"/>
  </g>
</svg>
