<?xml version="1.0" encoding="UTF-8" standalone="no"?>
<svg xmlns:xlink="http://www.w3.org/1999/xlink" height="27.75px" width="25.75px" xmlns="http://www.w3.org/2000/svg">
  <g transform="matrix(1.0, 0.0, 0.0, 1.0, 16.5, 90.0)">
    <path d="M9.2 -63.3 Q9.35 -62.75 8.85 -62.4 8.3 -62.05 7.9 -62.55 L7.8 -62.95 7.8 -63.5 Q7.95 -64.0 8.5 -63.95 L8.5 -64.0 Q9.1 -63.9 9.2 -63.3 M-10.0 -87.65 L-10.35 -87.6 -10.75 -87.5 -11.1 -87.35 -11.5 -87.25 -10.45 -87.25 Q-10.25 -87.3 -10.05 -87.5 L-10.0 -87.65 M-5.85 -88.55 L-5.75 -88.2 -5.75 -88.0 -5.75 -87.8 -5.8 -87.65 -5.85 -87.45 -5.95 -87.25 Q-6.35 -86.95 -6.85 -86.85 L-7.65 -86.65 -8.75 -86.35 Q-9.0 -85.75 -9.7 -85.55 -12.1 -84.8 -13.85 -86.05 -14.15 -86.7 -13.8 -87.3 -12.9 -88.8 -11.2 -89.15 L-8.5 -89.7 -8.5 -89.75 -7.6 -89.4 -6.75 -89.2 Q-6.25 -89.15 -5.95 -88.75 L-5.85 -88.55 M-15.75 -78.75 Q-15.15 -78.65 -15.1 -78.05 -15.0 -77.55 -15.45 -77.35 -16.0 -77.1 -16.35 -77.6 L-16.5 -77.95 -16.5 -78.1 -16.4 -78.3 -16.15 -78.55 -15.75 -78.7 -15.75 -78.75" fill="#666666" fill-rule="evenodd" stroke="none"/>
    <path d="M-8.0 -89.95 L-7.6 -89.85 -7.45 -89.65 -7.3 -89.3 -6.75 -88.6 -6.55 -88.3 -6.5 -88.1 Q-7.0 -87.2 -8.2 -86.95 L-11.75 -86.05 Q-12.7 -85.75 -13.35 -86.3 L-13.45 -86.5 -13.5 -86.7 -13.5 -87.05 -13.5 -87.6 -13.5 -87.8 -13.5 -88.0 -13.0 -88.6 Q-12.15 -89.4 -10.95 -89.6 L-9.0 -90.0 -8.0 -89.95" fill="#333333" fill-rule="evenodd" stroke="none"/>
  </g>
</svg>
