<?xml version="1.0" encoding="UTF-8" standalone="no"?>
<svg xmlns:xlink="http://www.w3.org/1999/xlink" height="17.65px" width="10.2px" xmlns="http://www.w3.org/2000/svg">
  <g transform="matrix(1.0, 0.0, 0.0, 1.0, 0.0, 0.0)">
    <path d="M9.55 4.3 L9.6 4.45 9.65 6.6 9.8 6.55 10.1 6.5 10.2 6.55 10.2 6.6 9.65 6.85 9.7 7.45 Q9.9 11.15 8.55 14.2 7.85 15.7 6.5 17.0 2.95 18.5 1.0 16.55 L0.8 16.4 0.6 12.6 Q0.05 8.5 0.0 4.4 -0.05 2.3 0.45 0.25 L0.65 0.15 4.9 0.0 Q6.25 0.5 7.15 1.5 L9.55 4.3 M3.9 10.9 L3.95 10.85 4.65 10.75 4.8 10.8 Q6.1 10.45 6.25 11.25 L6.05 11.3 4.15 11.1 4.1 11.3 Q3.6 12.75 3.6 14.4 3.6 16.3 2.2 16.7 L2.4 16.4 Q3.6 15.3 3.55 13.45 3.55 12.15 3.9 10.9 M7.05 7.6 L7.0 9.5 6.0 12.95 5.55 13.8 5.7 13.85 Q5.95 13.9 5.95 14.0 L5.8 14.1 5.95 14.15 6.1 14.45 6.4 14.55 7.45 14.85 Q9.35 11.95 9.25 8.25 L9.2 7.25 7.05 7.55 7.05 7.6 M1.4 5.4 L1.45 5.35 2.3 5.25 2.3 5.3 3.0 5.4 3.1 5.4 3.15 5.45 4.0 5.65 4.05 5.55 Q4.25 5.5 4.15 5.6 L4.15 5.65 3.8 7.6 3.35 9.2 3.4 9.4 Q3.35 9.9 3.0 9.95 L3.0 9.85 3.0 9.8 Q1.9 9.95 0.9 9.5 L3.0 9.5 3.0 9.45 3.05 9.3 3.2 8.8 3.25 8.8 3.6 7.55 4.0 5.8 3.0 5.7 2.95 5.7 1.4 5.4 M1.0 0.8 Q0.85 0.8 0.75 1.0 L0.65 2.3 Q-0.1 5.95 0.4 9.85 0.8 13.2 1.5 16.4 L2.2 16.7 6.3 16.45 7.4 15.0 6.1 14.75 5.4 14.2 5.35 14.1 5.3 14.0 5.25 14.1 5.0 13.8 4.6 13.25 4.55 13.15 Q4.7 12.95 4.85 13.15 L5.25 13.65 5.3 13.7 6.15 11.65 6.25 11.25 6.65 8.25 6.9 7.25 6.95 7.2 9.2 7.1 9.5 7.1 9.15 7.05 9.15 6.8 9.1 6.75 9.15 6.75 Q8.6 2.85 4.9 0.65 L1.0 0.8" fill="#000000" fill-rule="evenodd" stroke="none"/>
    <path d="M1.0 0.8 L4.9 0.65 Q8.6 2.85 9.15 6.75 L9.1 6.75 9.15 6.8 9.15 7.05 9.5 7.1 9.2 7.1 6.95 7.2 6.9 7.25 6.65 8.25 6.25 11.25 6.15 11.65 5.3 13.7 5.25 13.65 4.85 13.15 Q4.7 12.95 4.55 13.15 L4.6 13.25 5.0 13.8 5.25 14.1 5.3 14.0 5.35 14.1 5.4 14.2 6.1 14.75 7.4 15.0 6.3 16.45 2.2 16.7 1.5 16.4 Q0.8 13.2 0.4 9.85 -0.1 5.95 0.65 2.3 L0.75 1.0 Q0.85 0.8 1.0 0.8 M1.4 5.4 L2.95 5.7 3.0 5.7 4.0 5.8 3.6 7.55 3.25 8.8 3.2 8.8 3.05 9.3 3.0 9.45 3.0 9.5 0.9 9.5 Q1.9 9.95 3.0 9.8 L3.0 9.85 3.0 9.95 Q3.35 9.9 3.4 9.4 L3.35 9.2 3.8 7.6 4.15 5.65 4.15 5.6 Q4.25 5.5 4.05 5.55 L4.0 5.65 3.15 5.45 3.1 5.4 3.0 5.4 2.3 5.3 2.3 5.25 1.45 5.35 1.4 5.4 M7.05 7.6 L7.05 7.55 9.2 7.25 9.25 8.25 Q9.35 11.95 7.45 14.85 L6.4 14.55 6.1 14.45 5.95 14.15 5.8 14.1 5.95 14.0 Q5.95 13.9 5.7 13.85 L5.55 13.8 6.0 12.95 7.0 9.5 7.05 7.6 M3.9 10.9 Q3.55 12.15 3.55 13.45 3.6 15.3 2.4 16.4 L2.2 16.7 Q3.6 16.3 3.6 14.4 3.6 12.75 4.1 11.3 L4.15 11.1 6.05 11.3 6.25 11.25 Q6.1 10.45 4.8 10.8 L4.65 10.75 3.95 10.85 3.9 10.9" fill="#32363d" fill-rule="evenodd" stroke="none"/>
  </g>
</svg>
