<?xml version="1.0" encoding="UTF-8" standalone="no"?>
<svg xmlns:xlink="http://www.w3.org/1999/xlink" height="17.85px" width="14.2px" xmlns="http://www.w3.org/2000/svg">
  <g transform="matrix(1.0, 0.0, 0.0, 1.0, 0.3, 0.0)">
    <path d="M10.4 10.75 L10.35 10.75 10.25 10.8 10.3 11.0 9.3 11.7 9.65 12.25 10.05 12.6 10.4 12.5 Q12.25 12.05 10.8 11.1 L10.85 11.0 11.45 11.1 12.0 11.3 12.1 12.45 12.45 12.7 12.55 12.35 12.75 12.3 13.55 13.95 Q14.05 14.8 13.85 15.85 L13.8 16.05 Q13.5 16.45 13.1 16.45 L13.1 16.55 Q12.35 17.45 11.2 16.7 L11.1 17.15 11.1 17.3 Q11.05 18.05 10.2 17.75 8.85 18.1 8.4 16.7 7.6 16.7 6.85 16.25 L6.2 15.05 6.0 14.65 5.8 14.8 4.35 14.75 4.1 14.55 Q2.55 13.15 1.75 11.1 1.35 10.05 1.65 9.2 L1.05 7.9 0.95 6.75 0.05 4.9 Q-0.55 3.5 -0.1 2.05 L0.1 1.6 0.35 1.25 Q0.95 0.45 2.2 0.25 L2.5 0.2 3.9 0.05 4.85 0.0 Q5.8 0.2 5.75 1.1 L5.65 1.9 Q6.15 2.95 6.25 4.2 6.35 5.4 6.05 6.35 L7.65 8.6 8.2 9.4 Q9.25 9.25 10.05 9.95 10.4 10.2 10.4 10.75 M4.85 2.05 Q4.7 1.55 4.85 1.0 L4.85 0.8 Q1.3 0.05 0.75 2.85 0.55 3.85 1.15 4.85 1.65 5.65 1.6 6.4 L2.0 7.65 2.15 8.35 2.25 8.3 2.2 8.55 2.25 8.75 Q2.4 8.15 3.0 7.65 4.05 6.65 5.5 6.4 L5.25 4.1 5.0 2.4 4.85 2.05 M2.75 9.05 L2.45 9.45 2.5 9.55 2.55 9.7 2.1 9.5 Q2.0 10.35 2.2 11.2 2.55 12.85 4.25 13.3 L4.45 13.85 4.85 14.4 4.9 14.45 Q5.65 13.0 7.25 11.85 8.05 11.2 9.3 11.05 L8.25 10.0 7.6 9.5 7.75 9.45 6.45 8.0 Q6.05 7.55 5.55 7.4 L5.5 7.45 5.5 7.4 Q4.5 7.1 3.1 8.15 L2.9 8.7 2.75 9.05 M9.3 11.05 L9.6 11.0 Q9.65 10.5 8.75 10.15 L9.3 10.95 9.3 11.05 M8.85 12.0 L7.35 12.75 Q6.8 12.95 6.3 13.3 6.05 13.65 6.1 14.05 L6.1 14.1 6.25 14.05 6.8 14.75 7.25 15.75 7.35 15.9 8.25 16.15 Q8.05 14.95 8.85 14.4 L8.9 14.35 Q8.75 13.5 9.3 13.0 L8.9 12.35 8.85 12.0 M9.35 14.25 L9.5 14.35 9.6 14.45 9.85 14.45 10.5 14.25 Q11.35 13.8 11.6 12.95 L11.35 12.5 10.55 12.85 Q9.9 13.1 9.45 13.7 L9.35 14.25 M9.75 16.05 L9.6 15.45 9.6 15.65 9.6 15.8 9.75 16.05 M9.1 16.5 L8.95 16.55 Q9.15 17.1 9.75 17.3 L9.9 16.85 9.5 16.55 9.1 16.3 9.1 15.55 9.15 15.05 Q8.65 15.45 8.85 16.25 L8.9 16.4 8.95 16.4 9.1 16.5 M12.8 13.95 L12.5 13.45 11.9 13.25 11.8 13.5 11.5 14.05 11.75 14.2 12.0 14.05 Q12.8 14.35 12.95 15.2 L13.05 15.7 13.35 15.45 Q13.3 14.6 12.8 13.95 M10.35 14.85 L10.05 14.9 10.2 15.6 10.25 16.35 10.4 16.9 10.35 17.2 Q10.75 17.0 10.55 16.4 L10.35 15.35 10.35 14.85 M10.9 14.6 L10.9 14.65 11.0 15.0 11.15 15.6 11.2 15.9 11.6 16.2 12.6 16.4 12.4 16.2 12.1 16.0 12.1 15.95 11.65 15.3 11.5 14.65 11.3 14.25 10.9 14.6" fill="#000000" fill-rule="evenodd" stroke="none"/>
    <path d="M10.85 11.0 L10.8 11.1 Q12.25 12.05 10.4 12.5 L10.05 12.6 9.65 12.25 9.3 11.7 10.3 11.0 10.25 10.8 10.35 10.75 10.4 10.75 Q11.25 10.6 10.9 10.95 L10.85 11.0 M9.35 14.25 L9.45 13.7 Q9.9 13.1 10.55 12.85 L11.35 12.5 11.6 12.95 Q11.35 13.8 10.5 14.25 L9.85 14.45 9.6 14.45 9.5 14.35 9.35 14.25 M8.85 12.0 L8.9 12.35 9.3 13.0 Q8.75 13.5 8.9 14.35 L8.85 14.4 Q8.05 14.95 8.25 16.15 L7.35 15.9 7.25 15.75 6.8 14.75 6.25 14.05 6.1 14.1 6.1 14.05 Q6.05 13.65 6.3 13.3 6.8 12.95 7.35 12.75 L8.85 12.0 M10.9 14.6 L11.3 14.25 11.5 14.65 11.65 15.3 12.1 15.95 12.1 16.0 12.4 16.2 12.6 16.4 11.6 16.2 11.2 15.9 11.15 15.6 11.0 15.0 10.9 14.65 10.9 14.6 M10.35 14.85 L10.35 15.35 10.55 16.4 Q10.75 17.0 10.35 17.2 L10.4 16.9 10.25 16.35 10.2 15.6 10.05 14.9 10.35 14.85 M12.8 13.95 Q13.3 14.6 13.35 15.45 L13.05 15.7 12.95 15.2 Q12.8 14.35 12.0 14.05 L11.75 14.2 11.5 14.05 11.8 13.5 11.9 13.25 12.5 13.45 12.8 13.95 M9.1 16.5 L8.95 16.4 8.9 16.4 8.85 16.25 Q8.65 15.45 9.15 15.05 L9.1 15.55 9.1 16.3 9.5 16.55 9.9 16.85 9.75 17.3 Q9.15 17.1 8.95 16.55 L9.1 16.5" fill="#32363d" fill-rule="evenodd" stroke="none"/>
    <path d="M3.9 0.05 L2.5 0.2 2.8 0.1 3.1 0.0 3.9 0.05 M0.35 1.25 L0.1 1.6 0.1 1.45 0.3 1.25 0.35 1.25 M4.85 2.05 L5.0 2.4 5.25 4.1 5.5 6.4 Q4.05 6.65 3.0 7.65 2.4 8.15 2.25 8.75 L2.2 8.55 2.25 8.3 2.15 8.35 2.0 7.65 1.6 6.4 Q1.65 5.65 1.15 4.85 0.55 3.85 0.75 2.85 1.3 0.05 4.85 0.8 L4.85 1.0 Q4.7 1.55 4.85 2.05 M9.3 11.05 L9.3 10.95 8.75 10.15 Q9.65 10.5 9.6 11.0 L9.3 11.05 Q8.05 11.2 7.25 11.85 5.65 13.0 4.9 14.45 L4.85 14.4 4.45 13.85 4.25 13.3 Q2.55 12.85 2.2 11.2 2.0 10.35 2.1 9.5 L2.55 9.7 2.5 9.55 2.45 9.45 2.75 9.05 2.9 8.7 3.1 8.15 Q4.5 7.1 5.5 7.4 L5.5 7.45 5.55 7.4 Q6.05 7.55 6.45 8.0 L7.75 9.45 7.6 9.5 8.25 10.0 9.3 11.05" fill="#535964" fill-rule="evenodd" stroke="none"/>
    <path d="M5.1 5.1 Q4.2 4.45 4.2 1.6 4.2 1.4 4.35 1.35 L4.5 1.35 Q4.85 1.85 5.0 3.05 L5.3 4.8 5.1 5.1 M3.9 8.7 L3.6 8.15 Q4.25 7.85 4.95 7.8 5.7 7.75 6.05 8.1 6.55 8.1 7.1 8.85 L8.45 10.85 8.45 11.1 8.1 11.25 6.95 9.95 5.95 8.6 5.75 8.45 5.45 8.3 4.6 8.45 3.9 8.7" fill="#c4c8cc" fill-rule="evenodd" stroke="none"/>
  </g>
</svg>
