<?xml version="1.0" encoding="UTF-8" standalone="no"?>
<svg xmlns:xlink="http://www.w3.org/1999/xlink" height="18.7px" width="10.15px" xmlns="http://www.w3.org/2000/svg">
  <g transform="matrix(1.0, 0.0, 0.0, 1.0, 0.0, 0.0)">
    <path d="M4.4 0.0 L6.6 0.4 7.4 0.5 Q8.3 4.7 9.5 8.85 10.25 11.4 10.05 13.85 10.3 14.8 10.0 15.95 9.6 17.55 8.65 18.55 L8.6 18.5 8.15 18.65 5.1 18.5 4.5 17.4 Q3.85 15.45 2.8 13.75 2.25 12.85 1.85 11.75 0.75 10.45 0.35 8.65 -0.35 5.65 0.3 2.75 0.55 1.6 1.35 0.6 1.85 0.25 2.55 0.35 L2.6 0.35 3.75 0.05 4.4 0.0 M7.65 2.45 Q7.45 1.35 6.5 1.05 L4.1 0.55 3.95 0.6 2.75 0.75 1.65 1.1 1.35 1.8 0.85 2.4 Q0.2 3.2 0.6 3.95 0.05 7.2 1.55 9.95 L5.1 17.1 5.4 17.9 8.45 17.8 9.15 17.15 9.25 17.0 Q9.65 16.1 9.5 15.1 L9.5 13.85 9.5 13.8 9.05 10.65 8.8 8.95 8.25 10.75 Q7.15 13.15 5.15 14.15 6.8 12.1 7.85 9.55 8.3 8.6 8.1 7.55 7.95 6.4 8.25 5.75 L8.25 5.7 7.65 2.45" fill="#000000" fill-rule="evenodd" stroke="none"/>
    <path d="M7.65 2.45 L8.25 5.7 8.25 5.75 Q7.95 6.4 8.1 7.55 8.3 8.6 7.85 9.55 6.8 12.1 5.15 14.15 7.15 13.15 8.25 10.75 L8.8 8.95 9.05 10.65 9.5 13.8 9.5 13.85 9.5 15.1 Q9.65 16.1 9.25 17.0 L9.15 17.15 8.45 17.8 5.4 17.9 5.1 17.1 1.55 9.95 Q0.05 7.2 0.6 3.95 0.2 3.2 0.85 2.4 L1.35 1.8 1.65 1.1 2.75 0.75 3.95 0.6 4.1 0.55 6.5 1.05 Q7.45 1.35 7.65 2.45" fill="#32363d" fill-rule="evenodd" stroke="none"/>
  </g>
</svg>
