<?xml version="1.0" encoding="UTF-8" standalone="no"?>
<svg xmlns:xlink="http://www.w3.org/1999/xlink" height="46.15px" width="22.55px" xmlns="http://www.w3.org/2000/svg">
  <g transform="matrix(1.0, 0.0, 0.0, 1.0, -25.75, 9.25)">
    <path d="M27.6 -8.8 Q27.65 -9.25 28.0 -9.25 L30.35 -8.2 30.4 -8.2 Q38.4 -4.25 43.2 3.85 L43.55 4.5 43.6 4.55 Q45.25 7.5 46.35 10.65 47.25 13.35 47.75 16.2 L47.8 16.3 Q48.3 19.25 48.3 22.4 47.45 21.25 46.85 19.7 47.9 23.9 47.5 28.45 47.15 20.85 43.45 14.1 41.15 9.95 38.4 6.15 L40.65 12.7 Q38.45 9.25 37.1 5.0 L36.75 3.9 35.25 2.0 37.1 10.1 37.1 10.15 37.55 13.85 37.65 14.7 37.75 16.55 37.75 16.7 37.75 19.25 37.55 22.8 37.5 23.1 37.4 24.5 Q36.9 29.05 35.1 33.1 L34.3 34.5 34.2 34.6 Q33.25 36.25 31.7 36.9 L32.25 36.0 31.7 36.15 33.3 33.9 Q35.25 29.45 35.3 24.15 L35.3 22.9 Q35.15 16.6 33.7 10.7 L33.35 9.3 32.85 8.15 Q30.55 6.25 28.75 2.8 27.45 0.4 27.25 -1.75 26.7 -2.85 26.5 -4.1 L26.35 -4.3 26.15 -4.5 25.75 -4.85 25.9 -5.95 26.8 -7.25 Q27.5 -7.95 27.6 -8.8 M34.55 -0.2 L35.7 1.15 35.0 -0.4 34.55 -0.2 M40.9 5.8 L39.05 3.55 38.25 2.7 36.05 0.45 Q36.85 1.85 37.45 3.35 40.6 7.45 43.4 11.85 45.0 14.35 46.0 17.05 L45.9 16.65 Q45.3 13.95 44.25 11.5 42.9 8.45 40.9 5.8 M38.65 23.8 L38.8 24.75 38.75 25.7 38.7 25.9 Q38.0 25.8 38.05 24.8 38.1 24.1 38.5 23.85 L38.65 23.8 M39.55 32.05 L38.75 32.6 38.5 32.55 39.1 31.7 39.45 31.1 39.65 31.05 Q39.95 31.6 39.55 32.05" fill="#ffffff" fill-rule="evenodd" stroke="none"/>
  </g>
</svg>
