<?xml version="1.0" encoding="UTF-8" standalone="no"?>
<svg xmlns:xlink="http://www.w3.org/1999/xlink" height="18.9px" width="18.1px" xmlns="http://www.w3.org/2000/svg">
  <g transform="matrix(1.0, 0.0, 0.0, 1.0, 0.0, 0.0)">
    <path d="M2.35 10.2 L2.25 9.05 Q2.0 3.25 6.0 0.0 L6.45 0.5 5.75 6.2 6.9 5.05 Q8.45 3.6 10.35 3.0 L10.55 3.9 10.3 4.65 9.85 5.45 9.05 6.2 14.4 6.6 14.4 8.15 18.1 8.55 18.1 10.1 15.8 11.3 15.5 12.35 16.2 14.9 11.55 14.9 11.8 15.95 11.55 16.4 11.0 16.75 11.0 17.45 Q9.9 17.65 8.9 17.45 7.75 17.4 6.7 16.85 L6.1 17.85 3.45 15.7 3.3 18.9 Q2.0 18.2 1.1 16.75 -0.1 14.7 0.0 12.25 L0.75 11.95 2.25 12.5 0.9 10.4 2.2 10.5 3.0 11.25 2.9 13.4 5.5 16.05 6.2 14.65 9.45 16.5 9.65 15.95 10.4 15.4 10.5 13.4 14.8 13.7 14.7 9.9 15.85 9.65 Q14.25 9.65 12.85 8.85 10.65 7.35 8.05 7.6 L7.85 6.05 5.05 7.75 4.9 3.45 4.1 5.05 Q2.9 7.35 2.35 10.2 M0.95 14.85 Q1.2 15.95 1.9 16.4 L2.5 16.95 2.4 13.7 0.85 14.1 0.95 14.85" fill="#ff0000" fill-rule="evenodd" stroke="none"/>
    <path d="M2.35 10.2 Q2.9 7.35 4.1 5.05 L4.9 3.45 5.05 7.75 7.85 6.05 8.05 7.6 Q10.65 7.35 12.85 8.85 14.25 9.65 15.85 9.65 L14.7 9.9 14.8 13.7 10.5 13.4 10.4 15.4 9.65 15.95 9.45 16.5 6.2 14.65 5.5 16.05 2.9 13.4 3.0 11.25 2.2 10.5 2.35 10.2 M0.95 14.85 L0.85 14.1 2.4 13.7 2.5 16.95 1.9 16.4 Q1.2 15.95 0.95 14.85" fill="#ffffff" fill-rule="evenodd" stroke="none"/>
  </g>
</svg>
