<?xml version="1.0" encoding="UTF-8" standalone="no"?>
<svg xmlns:xlink="http://www.w3.org/1999/xlink" height="15.0px" width="35.45px" xmlns="http://www.w3.org/2000/svg">
  <g transform="matrix(1.0, 0.0, 0.0, 1.0, 0.0, 0.0)">
    <path d="M31.25 5.2 L31.7 5.3 32.35 5.8 32.05 5.9 31.75 6.15 31.75 7.8 Q31.75 8.7 32.25 9.05 L31.75 9.45 31.5 9.5 27.15 10.2 Q26.85 8.95 27.1 7.55 L27.15 5.05 30.95 5.2 31.25 5.2 M7.7 11.8 Q5.4 11.45 3.25 10.45 L3.25 10.35 5.0 10.8 Q3.9 10.2 3.15 9.25 L3.05 9.15 1.95 7.05 Q1.7 6.7 2.15 6.4 L2.7 5.7 2.75 5.5 2.75 5.3 2.8 5.2 14.25 4.95 14.55 4.9 16.75 4.9 16.25 6.25 15.55 6.4 14.65 6.6 Q11.9 7.15 9.6 8.55 7.15 9.95 7.75 11.5 L7.7 11.8 M12.35 5.6 L10.55 5.55 6.6 5.8 4.05 6.15 4.1 6.2 3.9 6.2 3.8 6.45 Q3.8 6.85 4.2 7.0 L5.4 7.05 6.55 6.75 9.3 6.45 Q9.85 6.45 10.0 6.85 L10.3 7.25 10.85 7.1 10.95 6.75 10.75 6.35 12.45 6.2 12.45 6.0 12.35 5.6" fill="#3e434a" fill-rule="evenodd" stroke="none"/>
    <path d="M31.25 5.2 L30.95 5.2 27.15 5.05 27.1 7.55 Q26.85 8.95 27.15 10.2 L31.5 9.5 31.75 9.45 32.25 9.05 Q31.75 8.7 31.75 7.8 L31.75 6.15 32.05 5.9 32.35 5.8 31.7 5.3 31.25 5.2 M30.65 4.1 L28.5 1.75 Q27.8 1.75 27.9 2.65 L28.05 3.7 30.8 4.3 30.65 4.1 M34.9 6.15 L35.0 6.0 Q35.95 7.3 35.0 8.95 34.15 10.4 32.75 9.85 32.55 10.8 31.0 12.1 L27.45 14.95 27.25 15.0 Q26.5 14.5 26.75 13.35 L27.1 11.65 16.75 12.4 Q10.75 14.55 4.15 12.3 L2.0 11.45 2.2 10.4 2.3 10.05 Q1.55 9.75 1.2 8.95 0.9 8.15 1.0 7.05 L1.1 6.95 0.5 6.75 0.2 6.6 0.05 6.4 0.0 6.25 0.05 6.1 0.2 5.9 0.5 5.8 1.5 5.55 1.65 5.45 1.7 5.25 1.75 5.05 1.75 4.9 1.75 4.7 1.85 4.5 2.0 4.3 2.2 4.15 2.5 4.05 14.2 3.8 14.5 3.75 24.3 3.55 26.8 3.6 26.8 3.0 27.2 0.55 Q27.3 0.05 27.75 0.0 29.6 1.15 31.1 2.55 32.35 3.75 32.8 5.05 L34.75 5.8 34.9 6.15 M34.45 8.2 L34.35 8.3 34.1 8.6 34.3 8.5 34.45 8.2 M30.15 11.0 L28.65 11.35 28.3 11.45 28.1 12.25 28.0 12.75 30.05 11.1 30.15 11.0 M25.95 10.3 Q25.4 9.45 25.45 8.0 25.5 6.4 26.15 5.05 L17.7 4.9 Q18.0 5.85 17.3 7.7 16.6 9.5 17.5 11.05 L25.65 10.3 25.95 10.3 M7.75 11.5 Q7.15 9.95 9.6 8.55 11.9 7.15 14.65 6.6 L15.55 6.4 16.25 6.25 16.75 4.9 14.55 4.9 14.25 4.95 2.8 5.2 2.75 5.3 2.75 5.5 2.7 5.7 2.15 6.4 Q1.7 6.7 1.95 7.05 L3.05 9.15 3.15 9.25 Q3.9 10.2 5.0 10.8 L3.25 10.35 3.25 10.45 Q5.4 11.45 7.7 11.8 L7.75 11.8 11.45 12.0 10.15 11.85 11.75 11.7 16.1 11.2 16.2 11.15 16.35 11.1 Q15.75 10.4 15.8 8.8 L15.9 7.7 14.7 7.9 Q11.4 8.15 9.2 10.4 L7.75 11.5" fill="#000000" fill-rule="evenodd" stroke="none"/>
    <path d="M30.65 4.1 L30.8 4.3 28.05 3.7 27.9 2.65 Q27.8 1.75 28.5 1.75 L30.65 4.1 M22.15 5.0 L20.4 5.2 Q19.05 5.4 19.05 5.65 L19.1 5.85 19.95 6.15 23.6 6.35 24.45 6.2 24.6 5.85 24.15 5.25 22.15 5.0 M25.95 10.3 L25.65 10.3 17.5 11.05 Q16.6 9.5 17.3 7.7 18.0 5.85 17.7 4.9 L26.15 5.05 Q25.5 6.4 25.45 8.0 25.4 9.45 25.95 10.3 M30.15 11.0 L30.05 11.1 28.0 12.75 28.1 12.25 28.3 11.45 28.65 11.35 30.15 11.0 M7.7 11.8 L7.75 11.5 9.2 10.4 Q11.4 8.15 14.7 7.9 L15.9 7.7 15.8 8.8 Q15.75 10.4 16.35 11.1 L16.2 11.15 16.1 11.2 11.75 11.7 10.15 11.85 11.45 12.0 7.75 11.8 7.7 11.8" fill="#1d2023" fill-rule="evenodd" stroke="none"/>
    <path d="M22.15 5.0 L24.15 5.25 24.6 5.85 24.45 6.2 23.6 6.35 19.95 6.15 19.1 5.85 19.05 5.65 Q19.05 5.4 20.4 5.2 L22.15 5.0 M12.35 5.6 L12.45 6.0 12.45 6.2 10.75 6.35 10.95 6.75 10.85 7.1 10.3 7.25 10.0 6.85 Q9.85 6.45 9.3 6.45 L6.55 6.75 5.4 7.05 4.2 7.0 Q3.8 6.85 3.8 6.45 L3.9 6.2 4.1 6.2 4.05 6.15 6.6 5.8 10.55 5.55 12.35 5.6" fill="#a8adb5" fill-rule="evenodd" stroke="none"/>
  </g>
</svg>
