<?xml version="1.0" encoding="UTF-8" standalone="no"?>
<svg xmlns:xlink="http://www.w3.org/1999/xlink" height="22.3px" width="49.1px" xmlns="http://www.w3.org/2000/svg">
  <g transform="matrix(1.0, 0.0, 0.0, 1.0, 0.0, 0.0)">
    <path d="M41.05 4.75 L41.25 5.55 41.3 6.4 41.2 6.9 40.95 7.25 40.8 7.5 41.15 7.15 42.1 7.75 Q43.55 8.7 45.05 8.65 L46.6 9.2 Q47.75 9.8 49.0 9.85 49.4 11.45 48.0 12.3 46.5 13.25 44.7 13.75 L42.3 14.2 Q40.85 14.6 39.6 15.35 39.4 16.85 39.35 18.35 L39.3 20.0 Q39.35 21.1 38.7 21.75 37.35 22.5 35.9 22.25 L28.75 21.0 21.65 19.55 20.6 19.65 20.5 19.8 Q18.8 21.2 16.65 21.4 15.35 21.4 14.3 20.8 L13.5 20.15 13.95 18.55 11.95 18.5 10.25 15.65 4.45 15.25 2.75 12.1 0.7 9.9 0.05 8.65 Q-0.1 8.05 0.1 7.55 0.25 7.1 0.0 6.55 L2.7 4.05 10.2 4.25 11.25 3.15 Q13.45 1.05 16.25 0.1 L22.4 0.4 28.9 2.2 30.25 2.85 32.15 2.9 Q32.3 2.75 32.55 2.75 33.1 2.5 33.75 2.4 L34.3 2.5 35.3 3.05 Q35.95 3.5 36.3 4.25 L38.65 4.0 Q39.95 4.15 41.05 4.75 M35.5 7.9 L36.4 7.9 37.6 9.0 40.25 5.9 37.1 5.6 36.55 6.45 35.4 7.75 Q33.8 9.4 31.9 10.45 L29.95 11.1 Q28.4 11.05 27.3 10.05 27.1 14.5 23.95 17.65 23.3 18.3 22.2 18.5 L22.95 17.2 23.85 15.55 24.15 14.95 26.1 11.3 27.3 9.45 31.65 9.4 Q33.05 6.7 35.65 5.2 L32.6 3.5 29.4 4.15 Q28.95 5.5 27.85 6.4 26.05 7.7 23.75 8.3 L22.7 8.65 22.4 9.2 21.5 9.75 Q21.2 9.95 21.05 10.25 L21.0 10.6 20.95 10.75 20.4 11.4 19.85 12.45 19.8 12.5 19.95 12.5 Q21.35 11.95 22.8 12.85 L23.5 13.6 Q24.0 14.45 23.65 15.45 L22.9 17.15 22.05 18.4 21.8 18.65 Q24.1 19.65 26.6 20.05 L36.35 20.65 37.65 20.35 37.8 10.3 36.05 9.05 35.6 8.4 35.5 7.9 M42.2 9.0 L40.55 7.75 38.95 9.2 39.6 14.45 Q39.95 14.25 40.35 14.2 41.7 13.55 43.15 13.05 L46.15 12.3 Q47.35 11.9 48.0 10.85 L42.2 9.0 M11.5 7.75 L22.25 8.1 22.45 8.05 Q26.05 7.1 28.45 4.3 L19.3 5.4 Q12.8 5.85 6.45 5.55 L2.65 5.45 1.0 7.15 5.05 13.25 5.0 14.0 5.95 14.4 Q8.85 15.3 11.5 14.1 L11.5 11.3 13.35 9.9 11.8 8.15 10.1 7.7 10.15 7.65 10.0 7.3 9.7 6.9 9.45 6.25 Q9.4 6.1 9.5 5.9 L10.5 7.05 11.5 7.6 10.9 7.7 11.5 7.75 M28.2 3.15 L22.25 1.9 Q20.3 1.25 18.3 1.35 L15.9 1.9 Q13.85 2.6 12.35 4.25 L28.2 3.15 M20.5 10.5 L20.75 9.65 21.7 8.8 19.75 8.25 16.55 8.3 Q14.85 8.6 12.8 8.3 L13.3 8.7 14.05 9.2 14.85 9.6 16.0 9.85 16.2 9.9 17.15 11.1 18.15 13.5 20.5 10.5 M23.1 14.75 L22.95 14.1 22.55 13.7 19.5 13.75 Q17.95 16.15 15.5 17.7 L14.75 19.8 15.65 20.55 19.5 19.1 19.85 18.55 20.35 18.05 Q20.75 17.8 21.25 17.65 L23.1 14.75 M13.05 10.65 L12.0 11.75 11.95 14.9 11.1 15.05 12.2 16.2 12.7 17.4 13.85 16.95 15.0 16.25 17.55 14.0 Q17.35 11.55 15.5 10.1 L13.05 10.65" fill="#000000" fill-rule="evenodd" stroke="none"/>
    <path d="M42.2 9.0 L48.0 10.85 Q47.35 11.9 46.15 12.3 L43.15 13.05 Q41.7 13.55 40.35 14.2 39.95 14.25 39.6 14.45 L38.95 9.2 40.55 7.75 42.2 9.0 M35.4 7.75 L36.55 6.45 37.1 5.6 40.25 5.9 37.6 9.0 36.4 7.9 35.5 7.9 35.4 7.75 M22.9 17.15 L23.65 15.45 Q24.0 14.45 23.5 13.6 L22.8 12.85 Q21.35 11.95 19.95 12.5 L19.85 12.45 20.4 11.4 20.95 10.75 21.0 10.6 21.05 10.25 Q21.2 9.95 21.5 9.75 L22.4 9.2 22.7 8.65 23.75 8.3 Q26.05 7.7 27.85 6.4 28.95 5.5 29.4 4.15 L32.6 3.5 35.65 5.2 Q33.05 6.7 31.65 9.4 L27.3 9.45 26.1 11.3 24.15 14.95 23.85 15.55 22.95 17.2 22.9 17.15 M11.5 7.6 L10.5 7.05 9.5 5.9 Q9.4 6.1 9.45 6.25 L9.7 6.9 10.0 7.3 10.15 7.65 10.1 7.7 11.8 8.15 13.35 9.9 11.5 11.3 11.5 14.1 Q8.85 15.3 5.95 14.4 L5.0 14.0 5.05 13.25 1.0 7.15 2.65 5.45 6.45 5.55 Q12.8 5.85 19.3 5.4 L28.45 4.3 Q26.05 7.1 22.45 8.05 L22.25 8.1 11.5 7.75 11.5 7.6 M20.5 10.5 L18.15 13.5 17.15 11.1 16.2 9.9 16.0 9.85 14.85 9.6 14.05 9.2 13.3 8.7 12.8 8.3 Q14.85 8.6 16.55 8.3 L19.75 8.25 21.7 8.8 20.75 9.65 20.5 10.5 M28.2 3.15 L12.35 4.25 Q13.85 2.6 15.9 1.9 L18.3 1.35 Q20.3 1.25 22.25 1.9 L28.2 3.15 M13.05 10.65 L15.5 10.1 Q17.35 11.55 17.55 14.0 L15.0 16.25 13.85 16.95 12.7 17.4 12.2 16.2 11.1 15.05 11.95 14.9 12.0 11.75 13.05 10.65" fill="#3e434a" fill-rule="evenodd" stroke="none"/>
    <path d="M35.5 7.9 L35.6 8.4 36.05 9.05 37.8 10.3 37.65 20.35 36.35 20.65 26.6 20.05 Q24.1 19.65 21.8 18.65 L22.05 18.4 22.2 18.5 Q23.3 18.3 23.95 17.65 27.1 14.5 27.3 10.05 28.4 11.05 29.95 11.1 L31.9 10.45 Q33.8 9.4 35.4 7.75 L35.5 7.9 M23.1 14.75 L21.25 17.65 Q20.75 17.8 20.35 18.05 L19.85 18.55 19.5 19.1 15.65 20.55 14.75 19.8 15.5 17.7 Q17.95 16.15 19.5 13.75 L22.55 13.7 22.95 14.1 23.1 14.75" fill="#1d2023" fill-rule="evenodd" stroke="none"/>
    <path d="M41.4 8.85 Q42.15 8.85 43.25 9.5 45.1 10.2 46.4 10.1 46.4 10.35 46.55 10.35 46.2 10.85 45.75 10.85 L44.6 10.8 44.6 11.0 44.4 11.1 42.65 10.5 41.9 10.05 Q40.85 9.5 40.55 8.7 L41.4 8.85 M38.7 6.15 L38.7 6.5 38.35 6.6 Q37.8 6.6 37.5 6.3 37.4 6.55 37.4 6.15 L37.5 5.85 38.7 6.15 M34.15 5.1 L31.9 5.0 31.1 4.7 30.8 4.35 Q31.15 3.95 31.7 3.9 L33.15 3.9 34.5 4.65 34.55 4.95 34.15 5.1 M22.85 5.85 Q21.4 6.6 20.7 6.6 L15.5 6.45 12.15 6.3 Q12.0 6.4 12.0 6.0 12.0 5.55 13.3 5.65 L15.45 5.85 20.05 5.7 22.7 5.4 22.85 5.85 M21.0 2.25 L19.95 2.65 17.1 2.7 16.9 2.7 15.5 3.0 15.2 2.9 15.15 2.6 15.6 2.25 17.35 2.0 17.6 2.05 19.4 1.7 20.85 1.95 21.0 2.25 M4.05 7.2 L4.0 7.5 3.65 7.5 3.45 7.45 3.45 7.8 3.75 8.25 4.05 8.85 3.95 9.3 3.6 9.35 Q3.0 9.35 2.25 7.6 2.25 7.1 2.85 6.8 L2.95 6.8 2.85 6.6 4.6 6.3 5.9 6.55 Q6.7 6.8 6.95 7.05 L6.6 7.35 5.4 7.15 4.15 7.0 4.05 7.2" fill="#a8adb5" fill-rule="evenodd" stroke="none"/>
  </g>
</svg>
