<?xml version="1.0" encoding="UTF-8" standalone="no"?>
<svg xmlns:xlink="http://www.w3.org/1999/xlink" height="47.6px" width="121.05px" xmlns="http://www.w3.org/2000/svg">
  <g transform="matrix(1.0, 0.0, 0.0, 1.0, 0.0, 0.0)">
    <path d="M103.4 23.1 L101.65 23.25 105.05 25.9 105.3 23.85 Q105.75 20.0 104.05 16.75 L103.4 23.1 M83.45 12.5 L92.55 13.0 92.45 14.55 93.1 14.55 93.7 15.35 Q95.85 15.8 97.5 17.5 L102.55 22.25 102.3 13.65 104.05 14.85 Q105.6 16.25 106.05 18.4 106.95 22.45 105.9 26.55 L109.85 29.2 Q117.1 34.4 119.85 42.85 L121.05 43.0 120.4 44.75 Q105.95 48.95 90.9 47.0 L91.0 44.2 Q86.7 46.55 81.7 46.35 77.95 46.05 74.55 44.2 71.45 42.45 68.25 41.05 65.5 40.0 64.0 37.5 59.2 37.9 54.95 39.55 53.35 40.15 51.85 39.25 L48.45 39.7 46.4 40.0 Q44.15 39.6 42.55 38.5 40.55 37.2 38.1 36.9 L37.8 32.05 35.9 33.85 31.15 32.95 31.55 34.35 37.9 36.85 36.95 37.1 35.1 37.05 34.25 36.7 Q31.5 35.55 30.15 33.05 L27.5 34.75 28.3 37.8 Q25.8 41.6 21.3 42.05 L18.15 41.75 16.9 42.0 Q16.15 42.15 15.6 42.6 12.8 44.75 9.15 45.45 L4.2 45.65 1.95 44.7 Q0.1 43.85 0.0 41.8 L0.1 41.2 Q0.5 39.55 2.15 38.9 L1.05 36.85 3.55 35.75 22.05 2.5 25.05 3.1 38.25 7.0 38.3 7.0 46.1 8.55 51.6 10.25 51.8 9.8 52.3 10.75 53.1 14.0 Q54.7 18.7 58.2 22.25 L60.7 24.6 62.05 25.5 64.95 23.65 65.25 23.2 66.1 22.55 66.95 22.0 67.2 21.7 67.35 21.2 67.35 21.05 74.8 20.75 74.65 20.85 69.3 21.75 Q67.45 22.2 65.7 23.25 L65.5 23.6 63.75 25.35 63.1 25.8 62.4 26.1 64.0 27.1 Q68.05 29.5 72.65 30.0 L76.5 30.15 81.75 22.1 79.9 21.9 81.6 21.7 81.5 21.65 77.05 21.15 75.8 20.75 79.4 20.55 81.05 20.85 Q81.65 21.1 82.25 21.5 L86.15 17.75 81.35 18.55 Q78.7 18.95 76.2 19.95 L74.05 20.25 74.75 19.6 Q76.85 18.6 79.15 18.0 82.85 17.05 86.6 17.35 L90.55 14.55 Q87.9 13.75 85.2 13.5 L81.05 13.0 83.45 12.5 M89.6 17.05 L87.85 18.15 Q85.25 19.85 83.3 22.0 L83.1 22.1 Q80.35 25.3 78.35 29.0 L81.4 29.15 Q82.1 26.4 83.45 23.95 85.7 19.9 89.6 17.05 M86.8 22.25 Q85.3 23.05 84.25 24.4 L83.6 25.25 83.1 26.2 82.7 27.2 82.15 29.3 83.0 30.0 83.2 30.6 88.8 32.35 94.35 33.7 105.55 35.75 105.95 31.75 104.9 30.85 105.3 33.35 93.05 16.2 93.5 22.1 93.45 23.85 93.1 25.3 91.95 27.95 92.6 24.8 92.75 23.2 92.7 21.4 92.7 18.55 92.75 15.85 90.55 17.25 Q89.8 20.65 86.8 22.25 M81.05 33.5 L81.2 30.3 78.0 30.05 Q77.85 31.25 76.7 32.1 L76.1 32.65 74.4 34.6 68.2 34.25 69.7 35.3 69.8 35.75 74.6 35.7 78.85 36.8 Q83.15 38.3 86.15 41.75 L90.95 39.45 88.95 34.3 81.05 33.5 M83.8 41.7 L82.1 40.9 80.9 43.05 80.65 44.3 82.6 44.75 83.8 41.7 M88.4 42.85 L84.3 41.9 83.05 44.8 84.3 44.95 Q89.1 45.05 92.2 41.5 L91.75 40.7 88.4 42.85 M106.85 31.55 L106.55 36.1 Q104.95 36.9 103.0 36.95 L101.8 36.95 Q99.3 37.05 96.85 35.9 96.55 39.55 94.7 42.65 L94.1 43.5 Q92.95 44.9 91.55 45.6 L118.05 44.75 118.55 43.25 119.1 43.05 114.95 37.3 105.85 27.15 105.55 28.85 105.05 26.5 101.6 23.9 104.85 29.75 106.9 30.85 106.85 31.55 M96.25 35.75 L90.7 34.6 93.45 40.3 96.25 35.75 M71.05 9.5 L64.6 5.15 65.0 8.25 71.0 9.75 72.35 10.2 71.7 10.1 73.05 11.3 Q73.65 11.85 74.4 12.25 L75.05 12.6 79.3 13.0 Q75.9 14.1 72.85 12.15 L72.0 11.45 71.2 10.5 71.1 10.3 71.05 10.0 66.05 9.4 61.0 8.95 56.05 8.65 46.1 8.5 46.05 8.5 54.9 6.25 54.05 4.6 48.3 5.2 Q44.15 5.2 40.35 3.95 L38.3 6.85 39.1 3.6 Q37.35 2.55 35.15 2.15 32.4 1.45 29.55 2.05 L25.05 3.0 31.6 0.1 51.1 3.1 58.05 0.0 Q61.3 0.8 64.25 2.55 68.5 5.1 71.05 9.5 M57.05 6.6 L64.2 8.05 61.55 3.35 51.65 3.15 54.8 3.5 57.05 6.5 57.0 6.6 57.05 6.6 M54.65 20.25 Q53.05 17.0 52.45 13.55 L52.1 11.6 Q51.45 13.85 49.85 15.5 L48.0 17.45 46.2 19.1 45.55 19.5 46.1 18.9 52.05 11.05 22.95 4.2 23.1 5.8 22.95 5.25 22.75 8.55 22.2 13.4 22.05 14.7 21.9 13.25 Q21.6 8.95 22.45 4.75 L22.45 4.05 22.35 4.65 22.05 5.5 Q13.5 14.4 14.75 26.8 16.75 23.0 19.7 19.9 21.9 17.55 24.85 16.6 29.25 15.3 33.9 16.15 L34.8 15.5 37.65 16.15 37.45 16.15 Q36.6 16.1 37.3 16.75 L37.75 16.95 37.6 16.55 37.7 16.55 38.45 17.3 39.7 18.65 39.2 17.95 Q42.05 20.0 43.8 22.7 45.5 25.4 45.9 28.65 46.35 31.95 46.05 35.35 L52.65 34.25 72.55 32.0 69.65 31.6 Q64.95 30.6 61.1 27.75 57.1 24.75 54.65 20.25 M41.9 22.9 L41.1 22.05 39.4 20.3 38.65 19.55 37.45 20.7 38.35 18.4 38.2 18.1 Q37.2 17.5 36.1 17.2 L32.65 16.95 32.05 22.6 30.95 17.25 26.55 18.45 26.3 21.7 26.1 18.55 25.55 18.7 20.35 20.6 Q22.6 22.2 23.9 24.55 L24.4 25.35 25.5 27.4 27.3 25.8 26.8 24.05 27.6 25.4 31.7 23.9 31.9 23.9 32.05 24.15 32.0 24.3 35.0 25.2 36.75 23.0 36.7 23.35 35.95 25.15 35.75 25.8 37.25 26.7 40.3 25.75 41.9 22.9 M59.95 34.3 L50.9 35.45 52.55 38.4 63.5 37.05 59.95 34.3 M42.9 32.4 L41.8 32.75 Q40.1 33.3 38.6 32.45 L38.55 35.75 39.55 36.45 45.3 35.3 44.6 31.2 42.9 32.4 M70.2 38.7 L69.0 40.0 74.1 41.5 75.2 39.25 75.55 39.0 76.9 39.3 77.4 40.15 76.75 40.2 75.9 39.65 74.55 41.95 78.35 42.9 78.55 43.45 80.45 44.2 80.35 43.4 81.7 40.7 71.15 37.05 70.2 38.7 M67.7 39.5 L68.85 39.95 70.9 37.0 69.65 36.75 67.7 39.5 M62.5 34.2 Q63.75 35.1 64.7 36.55 L65.75 38.45 67.5 39.2 68.9 36.6 68.3 35.05 67.25 34.25 62.5 34.2 M49.0 39.15 L50.05 38.85 51.2 38.4 49.55 35.75 43.2 37.45 46.6 38.85 49.0 39.15 M44.6 29.55 L42.55 23.85 40.9 26.75 37.95 27.4 38.25 29.45 40.15 28.85 40.4 28.85 40.4 29.15 40.25 29.35 38.25 29.65 38.6 32.0 44.6 29.55 M19.85 21.2 L17.45 24.55 Q17.5 25.55 18.15 26.1 L20.25 27.7 19.0 27.35 17.7 26.3 17.1 25.15 15.5 29.3 15.45 29.55 15.45 29.6 Q14.55 32.4 14.9 35.35 L19.05 37.35 21.25 35.15 21.25 33.4 22.0 32.55 Q20.0 33.05 18.2 32.15 16.6 31.25 15.8 29.65 L22.05 32.5 23.1 30.75 22.65 30.45 21.85 29.75 21.45 29.05 23.45 30.15 24.7 28.3 24.0 27.1 19.85 21.2 M13.6 26.75 L13.05 29.85 12.75 24.0 11.1 27.65 9.0 30.95 7.25 33.0 2.55 37.6 5.05 41.75 13.85 35.2 13.6 26.75 M15.2 39.05 L14.9 40.1 13.55 42.15 Q16.65 39.6 20.5 39.35 L20.35 38.65 15.25 36.75 15.2 39.05 M14.85 36.55 L14.3 36.35 Q9.75 38.7 6.6 42.45 L4.3 42.85 2.35 39.2 0.8 41.8 1.75 42.95 1.85 43.65 3.6 45.4 6.55 45.65 Q8.3 45.45 9.9 44.4 14.2 41.55 14.85 36.55 M30.45 31.7 L30.45 26.25 27.35 28.15 Q25.8 29.25 24.6 30.6 L24.75 30.7 Q24.45 30.8 24.25 31.0 L22.5 33.35 23.05 34.2 23.05 35.25 30.45 31.7 M33.75 27.9 L30.8 26.2 31.5 31.45 37.0 30.25 33.75 27.9 M22.15 35.75 L21.65 35.65 20.75 37.8 21.45 39.5 23.15 39.95 Q22.15 38.0 22.15 35.75 M24.9 36.35 L22.45 35.85 24.6 40.45 27.2 37.4 26.4 35.45 24.9 36.35" fill="#000000" fill-rule="evenodd" stroke="none"/>
    <path d="M103.4 23.1 L104.05 16.75 Q105.75 20.0 105.3 23.85 L105.05 25.9 101.65 23.25 103.4 23.1 M46.1 8.55 L38.3 7.0 38.3 6.85 38.25 7.0 25.05 3.1 25.05 3.0 29.55 2.05 Q32.4 1.45 35.15 2.15 37.35 2.55 39.1 3.6 L38.3 6.85 40.35 3.95 Q44.15 5.2 48.3 5.2 L54.05 4.6 54.9 6.25 46.05 8.5 46.1 8.55 M37.9 36.85 L31.55 34.35 31.15 32.95 35.9 33.85 37.8 32.05 38.1 36.9 37.9 36.85 M89.6 17.05 Q85.7 19.9 83.45 23.95 82.1 26.4 81.4 29.15 L78.35 29.0 Q80.35 25.3 83.1 22.1 L83.3 22.0 Q85.25 19.85 87.85 18.15 L89.6 17.05 M86.8 22.25 Q89.8 20.65 90.55 17.25 L92.75 15.85 92.7 18.55 92.7 21.4 92.75 23.2 92.6 24.8 91.95 27.95 93.1 25.3 93.45 23.85 93.5 22.1 93.05 16.2 105.3 33.35 104.9 30.85 105.95 31.75 105.55 35.75 94.35 33.7 88.8 32.35 83.2 30.6 83.0 30.0 82.15 29.3 82.7 27.2 83.1 26.2 83.6 25.25 84.25 24.4 Q85.3 23.05 86.8 22.25 M96.25 35.75 L93.45 40.3 90.7 34.6 96.25 35.75 M71.05 9.5 L71.0 9.75 65.0 8.25 64.6 5.15 71.05 9.5 M57.05 6.5 L54.8 3.5 51.65 3.15 61.55 3.35 64.2 8.05 57.05 6.6 57.05 6.5 M46.2 19.1 L48.0 17.45 49.85 15.5 Q51.45 13.85 52.1 11.6 L52.45 13.55 Q53.05 17.0 54.65 20.25 L51.6 24.05 50.5 23.0 Q49.3 21.95 47.7 21.7 L46.2 19.1 M22.35 4.65 L22.45 4.05 22.45 4.75 22.35 4.65 M22.2 13.4 L22.75 8.55 23.1 5.8 22.95 4.2 52.05 11.05 46.1 18.9 45.1 17.6 42.95 15.35 Q41.45 13.8 39.45 12.8 35.4 10.7 30.9 11.1 26.35 11.6 22.2 13.4 M33.75 27.9 L37.0 30.25 31.5 31.45 30.8 26.2 33.75 27.9 M30.45 31.7 L23.05 35.25 23.05 34.2 22.5 33.35 24.25 31.0 Q24.45 30.8 24.75 30.7 L24.6 30.6 Q25.8 29.25 27.35 28.15 L30.45 26.25 30.45 31.7" fill="#282c31" fill-rule="evenodd" stroke="none"/>
    <path d="M90.55 14.55 L86.6 17.35 Q82.85 17.05 79.15 18.0 76.85 18.6 74.75 19.6 L74.05 20.25 76.2 19.95 Q78.7 18.95 81.35 18.55 L86.15 17.75 82.25 21.5 Q81.65 21.1 81.05 20.85 L79.4 20.55 75.8 20.75 77.05 21.15 81.5 21.65 81.6 21.7 79.9 21.9 81.75 22.1 76.5 30.15 72.65 30.0 Q68.05 29.5 64.0 27.1 L62.4 26.1 63.1 25.8 63.75 25.35 65.5 23.6 65.7 23.25 Q67.45 22.2 69.3 21.75 L74.65 20.85 74.8 20.75 67.35 21.05 67.35 21.2 67.2 21.7 66.95 22.0 66.1 22.55 65.25 23.2 64.95 23.65 62.05 25.5 60.7 24.6 58.2 22.25 Q54.7 18.7 53.1 14.0 L53.55 13.25 54.1 13.5 54.55 13.75 54.9 14.1 55.55 14.95 59.8 15.9 68.2 16.9 Q72.3 17.5 76.4 16.9 L84.8 15.9 Q87.4 15.15 90.55 14.55 M114.95 37.3 L119.1 43.05 118.55 43.25 118.05 44.75 91.55 45.6 Q92.95 44.9 94.1 43.5 L94.7 42.65 Q96.55 39.55 96.85 35.9 99.3 37.05 101.8 36.95 L103.0 36.95 Q104.95 36.9 106.55 36.1 L106.85 31.55 107.35 32.25 Q107.75 32.9 107.8 33.65 L107.8 40.05 109.45 39.85 Q112.35 39.05 114.95 37.3" fill="#26292d" fill-rule="evenodd" stroke="none"/>
    <path d="M83.45 12.5 L81.05 13.0 85.2 13.5 Q87.9 13.75 90.55 14.55 87.4 15.15 84.8 15.9 L76.4 16.9 Q72.3 17.5 68.2 16.9 L59.8 15.9 55.55 14.95 54.9 14.1 54.55 13.75 54.1 13.5 53.55 13.25 53.1 14.0 52.3 10.75 51.8 9.8 51.6 10.25 46.1 8.55 46.1 8.5 56.05 8.65 61.0 8.95 66.05 9.4 71.05 10.0 71.1 10.3 71.2 10.5 72.0 11.45 72.85 12.15 Q75.9 14.1 79.3 13.0 L75.05 12.6 74.4 12.25 Q73.65 11.85 73.05 11.3 L71.7 10.1 72.35 10.2 83.45 12.5 M88.4 42.85 L91.75 40.7 92.2 41.5 Q89.1 45.05 84.3 44.95 L83.05 44.8 84.3 41.9 88.4 42.85 M83.8 41.7 L82.6 44.75 80.65 44.3 80.9 43.05 82.1 40.9 83.8 41.7 M106.85 31.55 L106.9 30.85 104.85 29.75 101.6 23.9 105.05 26.5 105.55 28.85 105.85 27.15 114.95 37.3 Q112.35 39.05 109.45 39.85 L107.8 40.05 107.8 33.65 Q107.75 32.9 107.35 32.25 L106.85 31.55 M59.95 34.3 L63.5 37.05 52.55 38.4 50.9 35.45 59.95 34.3 M49.0 39.15 L46.6 38.85 43.2 37.45 49.55 35.75 51.2 38.4 50.05 38.85 49.0 39.15 M62.5 34.2 L67.25 34.25 68.3 35.05 68.9 36.6 67.5 39.2 65.75 38.45 64.7 36.55 Q63.75 35.1 62.5 34.2 M67.7 39.5 L69.65 36.75 70.9 37.0 68.85 39.95 67.7 39.5 M70.2 38.7 L71.15 37.05 81.7 40.7 80.35 43.4 80.45 44.2 78.55 43.45 78.35 42.9 74.55 41.95 75.9 39.65 76.75 40.2 77.4 40.15 76.9 39.3 75.55 39.0 75.2 39.25 74.1 41.5 69.0 40.0 70.2 38.7 M14.85 36.55 Q14.2 41.55 9.9 44.4 8.3 45.45 6.55 45.65 L3.6 45.4 1.85 43.65 1.75 42.95 0.8 41.8 2.35 39.2 4.3 42.85 6.6 42.45 Q9.75 38.7 14.3 36.35 L14.85 36.55 M15.2 39.05 L15.25 36.75 20.35 38.65 20.5 39.35 Q16.65 39.6 13.55 42.15 L14.9 40.1 15.2 39.05 M24.9 36.35 L26.4 35.45 27.2 37.4 24.6 40.45 22.45 35.85 24.9 36.35 M22.15 35.75 Q22.15 38.0 23.15 39.95 L21.45 39.5 20.75 37.8 21.65 35.65 22.15 35.75" fill="#3e434a" fill-rule="evenodd" stroke="none"/>
    <path d="M81.05 33.5 L88.95 34.3 90.95 39.45 86.15 41.75 Q83.15 38.3 78.85 36.8 L74.6 35.7 69.8 35.75 69.7 35.3 68.2 34.25 74.4 34.6 76.1 32.65 76.7 32.1 Q77.85 31.25 78.0 30.05 L81.2 30.3 81.05 33.5" fill="#1c1e20" fill-rule="evenodd" stroke="none"/>
    <path d="M46.05 8.5 L46.1 8.5 46.1 8.55 46.05 8.5" fill="#535964" fill-rule="evenodd" stroke="none"/>
    <path d="M54.65 20.25 Q57.1 24.75 61.1 27.75 64.95 30.6 69.65 31.6 L72.55 32.0 52.65 34.25 46.05 35.35 Q46.35 31.95 45.9 28.65 45.5 25.4 43.8 22.7 42.05 20.0 39.2 17.95 L38.9 17.5 38.45 17.3 37.7 16.55 37.6 16.55 37.75 16.95 37.3 16.75 Q36.6 16.1 37.45 16.15 L37.65 16.15 34.8 15.5 33.9 16.15 Q29.25 15.3 24.85 16.6 21.9 17.55 19.7 19.9 16.75 23.0 14.75 26.8 13.5 14.4 22.05 5.5 L22.35 4.65 22.45 4.75 Q21.6 8.95 21.9 13.25 L22.05 14.7 22.2 13.4 Q26.35 11.6 30.9 11.1 35.4 10.7 39.45 12.8 41.45 13.8 42.95 15.35 L45.1 17.6 46.1 18.9 45.55 19.5 46.2 19.1 47.7 21.7 Q49.3 21.95 50.5 23.0 L51.6 24.05 54.65 20.25 M22.75 8.55 L22.95 5.25 23.1 5.8 22.75 8.55 M13.6 26.75 L13.85 35.2 5.05 41.75 2.55 37.6 7.25 33.0 9.0 30.95 11.1 27.65 12.75 24.0 13.05 29.85 13.6 26.75" fill="#1d2023" fill-rule="evenodd" stroke="none"/>
    <path d="M39.2 17.95 L39.7 18.65 38.45 17.3 38.9 17.5 39.2 17.95" fill="#4e5661" fill-rule="evenodd" stroke="none"/>
    <path d="M41.9 22.9 L40.3 25.75 37.25 26.7 35.75 25.8 35.95 25.15 36.7 23.35 36.75 23.0 35.0 25.2 32.0 24.3 32.05 24.15 31.9 23.9 31.7 23.9 27.6 25.4 26.8 24.05 27.3 25.8 25.5 27.4 24.4 25.35 23.9 24.55 Q22.6 22.2 20.35 20.6 L25.55 18.7 26.1 18.55 26.3 21.7 26.55 18.45 30.95 17.25 32.05 22.6 32.65 16.95 36.1 17.2 Q37.2 17.5 38.2 18.1 L38.35 18.4 37.45 20.7 38.65 19.55 39.4 20.3 41.1 22.05 41.9 22.9 M42.9 32.4 L44.6 31.2 45.3 35.3 39.55 36.45 38.55 35.75 38.6 32.45 Q40.1 33.3 41.8 32.75 L42.9 32.4 M44.6 29.55 L38.6 32.0 38.25 29.65 40.25 29.35 40.4 29.15 40.4 28.85 40.15 28.85 38.25 29.45 37.95 27.4 40.9 26.75 42.55 23.85 44.6 29.55 M19.85 21.2 L24.0 27.1 24.7 28.3 23.45 30.15 21.45 29.05 21.85 29.75 22.65 30.45 23.1 30.75 22.05 32.5 15.8 29.65 Q16.6 31.25 18.2 32.15 20.0 33.05 22.0 32.55 L21.25 33.4 21.25 35.15 19.05 37.35 14.9 35.35 Q14.55 32.4 15.45 29.6 L15.45 29.55 15.5 29.3 17.1 25.15 17.7 26.3 19.0 27.35 20.25 27.7 18.15 26.1 Q17.5 25.55 17.45 24.55 L19.85 21.2" fill="#353a42" fill-rule="evenodd" stroke="none"/>
    <path d="M40.95 9.9 L35.5 9.4 32.1 9.0 32.0 9.0 32.45 9.2 32.45 9.6 26.15 9.5 26.3 9.75 25.95 10.1 Q25.65 10.0 25.4 9.35 L25.35 9.45 25.25 9.45 Q24.8 9.45 24.75 8.8 L24.75 8.25 24.6 7.95 24.7 7.65 24.8 7.65 Q24.8 6.9 25.05 6.75 L25.2 7.1 25.35 6.9 25.85 7.55 26.25 7.55 28.65 7.75 29.2 7.75 29.4 7.8 30.75 7.85 30.9 7.85 31.7 7.8 Q34.95 7.85 36.85 8.8 L41.85 9.45 Q43.8 9.7 45.35 10.6 L47.7 12.3 47.65 12.5 47.4 12.6 44.6 11.4 40.95 9.9 M52.15 15.45 L52.2 16.2 52.2 17.0 52.9 18.2 54.5 20.75 54.5 20.9 56.85 23.85 56.45 24.15 54.05 21.15 Q53.45 20.95 52.7 19.6 L52.5 19.7 51.9 18.1 51.5 17.3 51.3 17.3 50.4 16.8 50.9 15.7 Q51.3 14.95 51.75 14.85 L52.15 15.45 M25.5 8.9 L25.5 9.15 25.85 8.9 25.8 8.9 25.5 8.9" fill="#8c949d" fill-rule="evenodd" stroke="none"/>
    <path d="M90.0 19.65 L89.9 19.4 Q89.9 19.1 90.6 18.5 L91.25 18.0 91.55 18.2 Q90.95 19.55 90.2 19.7 L90.0 19.65 M94.35 19.9 L94.5 19.65 94.65 19.55 96.6 22.25 97.1 22.9 97.25 23.1 97.85 23.9 99.7 26.65 101.0 28.5 100.8 28.65 Q100.4 28.65 100.1 28.3 L99.75 27.95 Q99.6 27.95 99.6 28.1 L99.45 28.25 97.0 24.7 93.3 19.2 94.35 19.9 M106.55 28.85 Q107.7 28.9 109.4 31.05 L112.1 34.5 114.4 37.65 Q115.65 39.5 115.7 40.95 L115.4 41.1 114.95 40.1 114.8 40.1 114.75 40.35 114.5 40.5 Q113.3 38.35 109.4 33.3 L108.05 31.55 106.9 30.45 Q104.1 27.8 104.1 27.35 104.1 27.0 104.4 26.9 L105.95 28.65 105.9 28.55 105.9 28.35 106.5 29.0 106.55 28.85 M67.0 11.85 L68.55 12.3 69.0 12.3 69.1 12.3 69.15 12.45 69.9 12.65 70.05 12.85 73.05 13.5 73.05 13.85 72.9 13.95 72.45 14.4 69.05 13.8 64.05 13.05 55.65 11.7 55.55 11.7 54.35 12.15 54.05 11.9 54.25 11.65 53.8 11.25 Q53.45 10.8 53.45 10.4 L53.55 10.05 53.75 10.05 53.9 10.25 53.9 10.05 59.05 10.7 60.25 10.85 66.6 11.45 66.65 11.75 66.65 11.8 67.0 11.85 M41.75 22.5 L41.45 22.8 39.8 21.7 39.45 21.45 39.45 21.5 39.15 21.6 38.4 21.45 Q38.25 21.5 38.25 21.1 L38.6 20.7 38.55 20.6 38.9 20.45 38.55 19.85 Q39.1 19.5 39.8 20.3 L40.6 21.35 41.75 22.5 M43.25 26.25 L42.35 25.2 42.45 24.95 Q43.2 24.95 43.55 25.95 L43.25 26.25 M66.35 34.35 L66.45 34.1 66.65 34.05 67.85 35.7 67.55 36.0 Q66.35 35.15 66.35 34.35 M70.8 37.65 L73.15 37.7 75.6 38.45 75.6 38.7 75.1 38.85 73.2 38.4 70.85 38.0 70.8 37.65 M80.9 40.85 L80.95 40.8 81.0 41.05 80.9 41.3 80.55 41.55 79.4 41.35 78.2 40.8 78.05 40.35 78.75 40.2 Q79.5 40.2 80.9 40.85 M20.6 10.15 L19.55 12.65 Q18.35 14.9 17.45 15.45 L17.25 15.4 17.15 15.15 Q17.15 14.6 18.55 12.35 20.0 10.1 20.55 9.9 L20.6 10.15 M30.05 18.15 L30.3 18.45 30.25 18.5 30.35 18.65 30.3 18.9 30.05 18.95 29.8 18.85 28.5 19.45 28.5 19.55 28.35 20.15 Q28.2 20.6 28.2 21.2 L27.9 21.45 27.6 20.6 Q27.6 19.95 27.75 19.6 L27.6 19.5 Q28.5 18.05 29.65 18.1 L29.95 18.15 30.05 18.15 M24.9 19.2 Q25.45 19.1 25.6 19.95 L25.8 21.3 25.8 22.05 25.75 22.1 25.95 23.1 25.65 23.25 25.2 22.05 25.15 21.9 25.1 21.8 25.1 21.6 25.0 21.3 24.9 21.3 24.6 21.15 24.6 20.7 24.65 20.45 24.4 20.55 23.1 21.15 22.4 21.15 22.35 20.75 Q22.35 20.4 23.65 19.9 L24.85 19.6 24.9 19.2 M20.6 23.45 L21.5 24.75 21.45 24.95 21.2 25.05 20.55 24.7 19.85 24.05 19.1 24.9 Q18.8 24.9 18.8 24.55 L19.25 23.4 Q19.75 22.5 20.0 22.35 L20.25 22.35 20.3 22.65 20.25 23.05 20.6 23.45 M35.6 17.95 L35.1 18.05 35.05 18.05 34.8 18.2 34.55 18.2 34.55 18.15 34.35 18.2 34.1 18.2 33.75 18.6 33.05 18.95 32.85 18.9 32.75 18.65 Q32.75 18.2 33.25 17.6 33.8 17.0 34.15 17.75 34.25 17.6 34.6 17.55 34.75 17.3 35.15 17.25 35.9 17.15 36.95 17.7 L37.05 18.05 Q37.1 18.2 36.75 18.2 L35.85 18.05 35.6 17.95" fill="#a8adb5" fill-rule="evenodd" stroke="none"/>
  </g>
</svg>
