<?xml version="1.0" encoding="UTF-8" standalone="no"?>
<svg xmlns:xlink="http://www.w3.org/1999/xlink" height="4.1px" width="9.4px" xmlns="http://www.w3.org/2000/svg">
  <g transform="matrix(1.0, 0.0, 0.0, 1.0, 17.25, 0.0)">
    <path d="M-8.0 1.8 L-13.1 3.2 Q-13.1 3.5 -13.4 3.8 L-13.8 4.05 Q-14.65 4.3 -14.95 3.15 L-15.05 2.75 -16.0 2.0 -17.25 0.85 -17.1 0.75 -16.9 0.8 -16.55 0.35 -16.65 0.1 -16.5 0.0 Q-16.3 -0.05 -14.95 0.9 L-13.4 2.15 -13.05 2.0 -10.05 1.25 -8.55 1.0 -8.6 0.95 -8.25 0.85 -8.05 1.6 Q-7.65 1.55 -8.0 1.8 M-8.4 1.65 L-8.5 1.2 -11.6 2.1 -13.35 2.4 -13.4 2.4 -16.35 0.45 -16.55 0.8 -16.65 0.9 Q-16.0 1.35 -14.7 2.75 L-14.75 2.8 -14.4 3.35 Q-14.2 3.85 -13.9 3.75 L-13.55 3.35 -13.45 3.1 -13.4 3.05 -13.35 2.9 -13.3 2.95 -10.75 2.2 -8.4 1.65" fill="#000000" fill-rule="evenodd" stroke="none"/>
    <path d="M-8.4 1.65 L-10.75 2.2 -13.3 2.95 -13.35 2.9 -13.4 3.05 -13.45 3.1 -13.55 3.35 -13.9 3.75 Q-14.2 3.85 -14.4 3.35 L-14.75 2.8 -14.7 2.75 Q-16.0 1.35 -16.65 0.9 L-16.55 0.8 -16.35 0.45 -13.4 2.4 -13.35 2.4 -11.6 2.1 -8.5 1.2 -8.4 1.65" fill="#734d26" fill-rule="evenodd" stroke="none"/>
  </g>
</svg>
