<?xml version="1.0" encoding="UTF-8" standalone="no"?>
<svg xmlns:xlink="http://www.w3.org/1999/xlink" height="3.7px" width="3.55px" xmlns="http://www.w3.org/2000/svg">
  <g transform="matrix(1.0, 0.0, 0.0, 1.0, -12.6, 2.6)">
    <path d="M16.15 -2.4 L16.1 -2.25 16.1 0.7 16.15 0.85 16.15 0.9 16.1 0.9 16.1 1.0 16.1 1.1 16.1 1.0 16.1 0.9 12.6 0.9 12.6 0.85 12.6 0.6 12.6 -0.85 12.6 -2.25 12.6 -2.3 12.6 -2.55 12.65 -2.55 12.65 -2.6 12.65 -2.55 16.1 -2.55 16.15 -2.4 M16.1 -2.25 L12.65 -2.25 12.65 0.6 16.1 0.55 16.1 -2.25" fill="#000000" fill-rule="evenodd" stroke="none"/>
    <path d="M16.1 -2.25 L16.1 0.55 12.65 0.6 12.65 -2.25 16.1 -2.25" fill="#990000" fill-rule="evenodd" stroke="none"/>
  </g>
</svg>
