<?xml version="1.0" encoding="UTF-8" standalone="no"?>
<svg xmlns:xlink="http://www.w3.org/1999/xlink" height="3.7px" width="11.25px" xmlns="http://www.w3.org/2000/svg">
  <g transform="matrix(1.0, 0.0, 0.0, 1.0, -12.2, 2.6)">
    <path d="M12.2 -2.4 L12.25 -2.25 12.25 0.7 12.2 0.85 12.2 0.9 12.25 0.9 12.25 1.0 12.3 1.1 12.35 1.0 12.35 0.9 23.4 0.9 23.4 0.85 23.4 0.6 23.4 -0.85 23.35 -2.25 23.45 -2.25 23.45 -2.3 23.45 -2.55 23.3 -2.55 23.3 -2.6 23.3 -2.55 12.25 -2.55 12.2 -2.4 M12.35 -2.25 L23.25 -2.25 23.25 0.6 12.35 0.55 12.35 -2.25" fill="#000000" fill-rule="evenodd" stroke="none"/>
    <path d="M12.35 -2.25 L12.35 0.55 23.25 0.6 23.25 -2.25 12.35 -2.25" fill="#990000" fill-rule="evenodd" stroke="none"/>
  </g>
</svg>
