<?xml version="1.0" encoding="UTF-8" standalone="no"?>
<svg xmlns:xlink="http://www.w3.org/1999/xlink" height="25.05px" width="56.55px" xmlns="http://www.w3.org/2000/svg">
  <g transform="matrix(1.0, 0.0, 0.0, 1.0, 28.25, 12.5)">
    <path d="M16.8 -12.0 L16.8 -11.95 16.55 -11.9 16.4 -11.9 16.3 -12.0 16.8 -12.0" fill="#d1c9c7" fill-rule="evenodd" stroke="none"/>
    <path d="M10.1 -0.55 Q10.7 0.0 11.2 1.2 13.65 1.15 14.7 2.45 15.5 3.3 15.5 4.55 L15.5 4.8 15.65 5.45 15.25 5.85 15.2 5.7 15.35 5.45 15.15 5.05 15.0 4.8 15.05 4.75 15.0 4.7 14.2 3.95 13.7 3.65 13.2 3.4 11.7 3.15 Q10.8 3.15 10.45 3.45 L9.95 3.75 9.9 3.45 10.0 2.6 Q10.0 1.65 8.65 0.35 L6.8 -0.65 5.75 -0.95 Q5.15 -1.15 5.15 -1.4 L5.15 -1.45 5.35 -1.55 6.75 -1.8 8.35 -1.65 8.9 -1.4 10.1 -0.55 M19.5 -12.0 L19.8 -10.65 19.8 -10.25 19.65 -9.65 19.4 -8.8 Q19.3 -8.25 18.25 -7.0 L19.1 -6.3 19.45 -5.65 19.75 -4.15 19.7 -3.6 19.35 -2.9 18.4 -1.75 19.6 -1.6 20.0 -1.35 20.35 -0.75 20.4 0.65 Q21.35 -0.2 22.6 -0.2 24.5 -0.2 24.75 1.2 L25.35 0.8 26.6 0.6 27.3 0.75 27.3 4.1 26.95 3.8 Q26.25 3.3 25.6 3.3 L24.85 3.4 24.25 3.75 24.2 3.7 Q24.2 2.95 23.6 2.55 22.1 1.5 21.25 1.5 L20.3 1.7 19.6 2.1 19.5 2.05 19.35 1.15 18.7 0.4 18.2 0.05 17.6 -0.35 16.95 -0.65 15.35 -0.8 15.35 -0.85 Q16.5 -1.5 17.15 -2.7 17.8 -3.7 17.8 -4.75 17.8 -5.35 17.4 -5.9 L17.0 -6.55 Q16.65 -6.95 16.25 -6.9 L16.75 -7.65 17.1 -8.35 Q17.45 -8.85 17.45 -9.75 L17.45 -10.25 17.25 -11.2 16.85 -12.0 19.5 -12.0 M-19.0 -12.0 L-19.8 -11.45 -20.1 -11.0 -20.3 -10.25 -20.35 -9.35 -20.05 -6.55 Q-21.2 -6.5 -22.55 -5.85 L-24.25 -4.75 -24.8 -3.4 -24.95 -2.65 -25.05 -1.8 -25.0 -1.45 -25.35 -1.7 -25.75 -1.75 -26.7 -1.85 -27.5 -1.95 -27.7 -1.9 -27.7 -4.25 -27.5 -4.25 -26.7 -4.15 -26.65 -4.15 -26.1 -3.9 -25.85 -5.05 Q-25.75 -5.8 -25.3 -6.25 -24.35 -7.1 -23.55 -7.25 L-21.3 -7.6 -21.7 -8.25 -21.95 -8.9 -22.1 -9.55 -22.1 -10.25 -21.9 -11.45 -21.55 -12.0 -19.0 -12.0 M11.65 8.2 Q12.35 8.4 12.7 8.9 L13.2 9.75 13.35 10.5 13.35 10.8 13.35 10.85 13.3 11.05 12.85 11.5 12.8 11.5 12.5 11.55 Q12.4 11.3 12.45 10.55 L12.25 9.6 11.25 8.8 Q10.4 8.3 9.55 8.2 L9.5 8.05 Q9.5 7.7 10.0 7.9 L10.15 7.9 11.0 8.05 11.65 8.2" fill="#dd8b55" fill-rule="evenodd" stroke="none"/>
    <path d="M27.3 0.75 L26.6 0.6 25.35 0.8 24.75 1.2 Q24.5 -0.2 22.6 -0.2 21.35 -0.2 20.4 0.65 L20.35 -0.75 20.0 -1.35 19.6 -1.6 18.4 -1.75 19.35 -2.9 19.7 -3.6 19.75 -4.15 19.45 -5.65 19.1 -6.3 18.25 -7.0 Q19.3 -8.25 19.4 -8.8 L19.65 -9.65 19.8 -10.25 19.8 -10.65 19.5 -12.0 27.3 -12.0 27.3 0.75 M-21.55 -12.0 L-21.9 -11.45 -22.1 -10.25 -22.1 -9.55 -21.95 -8.9 -21.7 -8.25 -21.3 -7.6 -23.55 -7.25 Q-24.35 -7.1 -25.3 -6.25 -25.75 -5.8 -25.85 -5.05 L-26.1 -3.9 -26.65 -4.15 -26.7 -4.15 -27.5 -4.25 -27.7 -4.25 -27.7 -12.0 -21.55 -12.0" fill="#f70000" fill-rule="evenodd" stroke="none"/>
    <path d="M10.1 -0.55 L8.9 -1.4 8.35 -1.65 6.75 -1.8 5.35 -1.55 5.15 -1.45 5.15 -1.4 Q5.15 -1.15 5.75 -0.95 L6.8 -0.65 8.65 0.35 Q10.0 1.65 10.0 2.6 L9.9 3.45 9.95 3.75 10.45 3.45 Q10.8 3.15 11.7 3.15 L13.2 3.4 13.7 3.65 14.2 3.95 15.0 4.7 15.05 4.75 15.0 4.8 15.15 5.05 15.35 5.45 15.2 5.7 15.25 5.85 15.65 5.45 15.5 4.8 15.5 4.55 Q15.5 3.3 14.7 2.45 13.65 1.15 11.2 1.2 10.7 0.0 10.1 -0.55 M16.85 -12.0 L17.25 -11.2 17.45 -10.25 17.45 -9.75 Q17.45 -8.85 17.1 -8.35 L16.75 -7.65 16.25 -6.9 Q16.65 -6.95 17.0 -6.55 L17.4 -5.9 Q17.8 -5.35 17.8 -4.75 17.8 -3.7 17.15 -2.7 16.5 -1.5 15.35 -0.85 L15.35 -0.8 16.95 -0.65 17.6 -0.35 18.2 0.05 18.7 0.4 19.35 1.15 19.5 2.05 19.6 2.1 20.3 1.7 21.25 1.5 Q22.1 1.5 23.6 2.55 24.2 2.95 24.2 3.7 L24.25 3.75 24.85 3.4 25.6 3.3 Q26.25 3.3 26.95 3.8 L27.3 4.1 27.3 12.0 -27.7 12.0 -27.7 -1.9 -27.5 -1.95 -26.7 -1.85 -25.75 -1.75 -25.35 -1.7 -25.0 -1.45 -25.05 -1.8 -24.95 -2.65 -24.8 -3.4 -24.25 -4.75 -22.55 -5.85 Q-21.2 -6.5 -20.05 -6.55 L-20.35 -9.35 -20.3 -10.25 -20.1 -11.0 -19.8 -11.45 -19.0 -12.0 16.3 -12.0 16.4 -11.9 16.55 -11.9 16.8 -11.95 16.8 -12.0 16.85 -12.0 M11.65 8.2 L11.0 8.05 10.15 7.9 10.0 7.9 Q9.5 7.7 9.5 8.05 L9.55 8.2 Q10.4 8.3 11.25 8.8 L12.25 9.6 12.45 10.55 Q12.4 11.3 12.5 11.55 L12.8 11.5 12.85 11.5 13.3 11.05 13.35 10.85 13.35 10.8 13.35 10.5 13.2 9.75 12.7 8.9 Q12.35 8.4 11.65 8.2" fill="#65583d" fill-rule="evenodd" stroke="none"/>
    <path d="M-27.7 12.0 L27.3 12.0" fill="none" stroke="#000000" stroke-linecap="round" stroke-linejoin="round" stroke-width="1.0"/>
    <path d="M4.65 -10.45 L4.75 -10.25 4.45 -9.75 4.2 -9.3 3.8 -8.5 3.05 -6.7 3.05 -6.6 3.95 -6.75 4.25 -6.55 3.7 -5.85 3.6 -5.65 22.85 -5.6 22.9 -5.55 23.05 -5.3 23.0 -4.85 23.05 0.3 23.25 0.45 23.15 0.6 3.6 0.6 4.05 1.4 4.15 1.4 4.15 1.7 3.8 1.7 3.4 1.5 4.05 3.0 4.05 3.3 4.0 3.35 3.9 3.35 3.9 3.4 3.75 3.45 2.65 2.2 2.65 11.75 2.75 11.8 2.75 12.05 2.7 12.25 2.45 12.25 2.4 12.25 1.4 12.2 1.4 12.05 1.25 12.0 -0.7 12.15 -2.5 11.95 -2.65 11.95 -2.7 12.1 -3.5 12.1 -3.75 12.15 -3.75 12.05 -3.95 12.05 -4.0 11.9 -3.85 11.75 -3.75 11.75 -3.8 3.5 -3.85 3.1 -3.9 3.1 -4.6 3.9 -4.85 4.3 Q-4.85 4.65 -5.2 4.6 L-5.25 4.45 -4.4 2.4 -4.05 1.4 -3.95 1.1 -5.15 1.55 -5.25 1.55 -5.6 1.8 -5.85 1.8 -5.9 1.6 -5.65 1.3 -5.2 1.0 -5.05 0.9 -22.65 0.9 -22.75 0.9 -22.8 0.0 -22.75 -0.6 -22.85 -0.6 -22.9 -5.05 -23.0 -5.55 -23.0 -5.6 -23.1 -5.6 -23.15 -5.7 -23.1 -5.9 -6.4 -5.9 -6.5 -6.05 -6.8 -6.25 -6.95 -6.6 -6.7 -6.65 -5.45 -6.15 -5.7 -6.7 -5.65 -6.9 -5.0 -6.55 -4.95 -6.55 Q-5.5 -8.75 -6.6 -10.35 L-6.6 -10.6 Q-6.25 -10.65 -6.05 -10.35 L-5.75 -9.85 -4.9 -8.85 -4.35 -8.0 -4.4 -11.2 -4.5 -11.45 -4.35 -11.65 -4.4 -12.2 Q-4.4 -12.45 -3.7 -12.45 L-3.25 -12.3 -2.2 -12.2 1.4 -12.1 2.5 -12.2 2.5 -11.9 2.4 -11.85 2.5 -11.7 2.4 -11.65 2.35 -11.45 2.35 -8.1 2.4 -7.75 2.4 -7.7 2.4 -7.75 3.2 -8.65 3.9 -9.65 4.65 -10.45 M-4.15 2.85 L-4.2 2.85 -4.2 2.9 -4.15 2.85 M-5.75 -5.9 L-5.7 -5.9 -5.8 -5.95 -5.9 -6.0 -6.0 -6.05 -5.85 -5.95 -5.8 -5.95 -5.75 -5.9 M3.3 -8.2 L3.3 -8.25 3.3 -8.2" fill="#ffff00" fill-rule="evenodd" stroke="none"/>
    <path d="M5.3 -7.55 L4.9 -7.15 4.8 -6.9 4.4 -6.3 4.2 -6.0 4.15 -5.9 23.2 -5.9 23.25 -5.7 23.25 -5.65 23.25 -5.4 23.25 -4.65 23.25 -4.15 23.3 -3.95 23.3 0.1 23.4 0.45 23.7 0.45 23.75 0.5 23.75 0.75 23.35 0.75 23.3 0.8 23.05 0.8 23.05 0.75 3.8 0.8 4.0 1.1 4.55 1.75 4.8 1.8 4.8 2.05 4.6 2.15 Q3.95 1.85 3.75 1.85 L3.75 1.9 4.05 2.45 4.4 3.0 4.75 3.65 4.75 3.7 4.9 3.85 4.9 4.15 4.6 4.15 4.15 3.7 3.95 3.4 3.6 3.2 2.9 2.6 2.9 12.15 2.65 12.2 2.6 12.15 2.6 2.1 2.85 2.1 2.9 2.15 2.9 2.2 3.95 3.0 4.0 3.05 3.85 2.8 3.25 1.75 3.25 1.45 3.35 1.45 3.4 1.45 3.85 1.5 3.7 1.25 3.3 0.8 3.2 0.45 3.45 0.45 22.95 0.45 22.9 -0.35 22.9 -0.4 22.9 -0.7 23.0 -2.65 23.0 -2.95 22.85 -2.95 22.85 -3.5 22.9 -4.55 22.8 -5.25 22.9 -5.4 22.9 -5.6 3.75 -5.55 3.45 -5.75 3.4 -5.85 3.75 -6.3 4.0 -6.55 3.75 -6.55 Q3.4 -6.2 3.05 -6.2 L3.05 -6.25 2.85 -6.25 2.85 -6.65 3.6 -8.5 4.0 -9.3 3.45 -8.85 2.35 -7.4 2.1 -7.4 2.1 -7.8 1.9 -8.1 1.95 -8.6 1.9 -11.65 Q2.3 -11.65 2.3 -11.3 L2.25 -10.85 2.35 -9.85 2.5 -8.65 2.5 -8.2 3.5 -9.3 4.15 -9.85 4.15 -9.9 4.6 -10.25 4.65 -10.2 4.95 -10.35 5.0 -10.2 4.45 -9.65 3.8 -8.2 3.25 -6.65 3.65 -6.9 4.6 -7.4 5.25 -7.7 5.3 -7.55 M4.15 -6.7 L4.2 -6.75 4.0 -6.55 4.15 -6.7 M-22.9 -6.25 L-6.55 -6.25 -6.95 -6.7 -6.95 -6.75 -7.05 -6.85 -7.0 -7.05 Q-6.8 -7.1 -5.95 -6.6 L-5.85 -6.6 -6.1 -6.95 -6.5 -7.45 -6.8 -8.0 -7.1 -8.65 -6.75 -8.55 -6.0 -7.65 -5.15 -6.9 -5.2 -7.05 -5.5 -8.25 -5.6 -8.85 -5.85 -9.4 -6.1 -10.0 -6.8 -11.5 -6.75 -11.7 -6.25 -11.4 -5.8 -10.95 -5.45 -10.5 -5.4 -10.4 -5.15 -9.95 -5.15 -9.9 -5.1 -9.8 -5.0 -9.65 -4.35 -8.85 -4.45 -9.45 -4.3 -9.7 -4.4 -9.85 -4.4 -10.45 -4.3 -10.45 -4.5 -10.95 -4.55 -11.3 -4.6 -11.4 -4.6 -11.75 -4.3 -12.0 -4.2 -11.55 -4.15 -11.4 -4.05 -10.9 -4.05 -10.8 -4.0 -10.6 -4.0 -10.4 -3.75 -9.7 -3.75 -9.3 -3.8 -9.25 -3.9 -9.0 -3.85 -8.2 -3.85 -8.05 -3.75 -7.95 -3.85 -7.8 -3.9 -7.75 -4.15 -7.75 -4.15 -7.9 -4.5 -8.3 -4.95 -8.9 -5.7 -9.8 -5.65 -9.7 -5.3 -8.8 -4.75 -7.55 -4.85 -7.4 -4.95 -7.4 -4.75 -6.55 -4.75 -6.45 -4.75 -5.9 -4.8 -5.85 -5.05 -5.85 -5.05 -5.9 -5.15 -5.9 -5.35 -6.05 -5.8 -6.2 -5.75 -6.05 -5.85 -5.95 -5.85 -5.9 -6.0 -5.85 -6.15 -5.9 -6.25 -5.9 -22.9 -5.95 -22.9 -1.15 -22.8 -1.15 -22.75 -0.85 -22.7 -0.9 -22.5 -0.15 -22.5 0.75 -5.4 0.75 -5.4 0.7 -5.05 0.6 -5.0 0.75 -5.1 1.0 -5.1 1.05 -5.15 1.05 -5.3 1.25 -5.3 1.3 -3.8 0.8 -3.75 0.95 -4.25 2.25 -4.9 3.7 -4.05 2.65 -3.8 2.65 -3.75 2.8 -3.75 2.85 -3.7 2.85 -3.65 11.0 -3.55 11.6 -3.95 12.05 -4.05 3.2 -5.6 5.4 -5.85 5.4 -5.9 5.2 -4.2 1.3 -5.1 1.55 -5.9 1.9 -6.2 1.9 -6.25 1.75 -6.0 1.45 -5.6 1.1 -5.55 1.05 -22.5 1.1 -22.6 1.15 -22.85 1.2 -22.85 1.1 -22.9 1.1 -22.9 1.2 -23.15 1.25 -23.2 -5.5 -23.25 -5.95 -23.45 -5.95 -23.5 -6.05 -23.35 -6.25 -23.15 -6.25 -22.95 -6.35 -22.9 -6.3 -22.9 -6.25 M-5.85 -6.25 L-6.35 -6.45 -6.15 -6.3 -6.05 -6.25 -5.85 -6.25 M-5.05 -6.35 L-5.2 -6.4 -5.05 -6.25 -5.05 -6.35 M-22.85 0.75 L-22.9 0.5 -22.9 0.75 -22.85 0.75" fill="#f4c60b" fill-rule="evenodd" stroke="none"/>
    <path d="M0.45 -6.9 L0.75 -6.5 0.95 -5.55 0.65 -4.7 0.2 -4.1 0.35 -3.9 0.45 -3.3 0.8 -3.25 0.65 -3.4 0.65 -3.6 1.0 -3.65 3.55 -3.6 4.1 -3.6 4.15 -3.4 3.0 -3.2 8.45 -3.2 Q8.45 -3.55 9.35 -3.7 L9.6 -3.95 10.4 -4.3 10.45 -4.05 10.25 -3.8 10.1 -3.55 11.65 -3.9 11.7 -3.65 11.4 -2.65 11.35 -1.95 11.35 -1.9 11.25 -1.7 10.95 -1.65 10.95 -1.7 10.1 -1.7 9.3 -1.85 9.2 -1.9 8.95 -1.85 8.95 -1.75 8.9 -1.6 4.7 -1.6 4.4 -1.5 4.35 -1.4 Q4.35 -1.15 3.8 -1.25 3.45 -1.25 3.15 -0.95 L2.65 -0.7 2.55 -0.6 2.55 -0.4 2.55 -0.25 2.55 0.4 Q2.35 0.85 2.35 2.65 L2.4 3.7 2.35 4.7 2.35 5.2 2.4 5.3 2.6 6.2 2.8 8.25 2.85 9.2 2.95 10.85 3.1 11.85 -3.15 11.85 -3.2 11.2 -3.0 9.15 -2.9 5.6 -2.85 5.0 -2.85 4.95 -3.0 4.25 -3.1 4.2 -3.1 1.5 -3.55 -0.6 -3.6 -0.7 -4.5 -0.85 -6.5 -1.4 -6.6 -1.3 -6.95 -1.3 -7.05 -1.4 -6.9 -1.65 -8.65 -1.75 -9.0 -1.65 -10.2 -1.6 -10.25 -1.6 -10.5 -1.55 -10.8 -1.55 -10.8 -1.6 -11.1 -1.6 -11.1 -1.65 -11.35 -1.65 -11.35 -1.85 -11.45 -1.85 -11.55 -2.9 -11.55 -3.45 -11.05 -3.65 -10.65 -3.5 -10.45 -3.4 -9.85 -3.2 -10.1 -3.5 Q-10.1 -3.7 -9.7 -3.7 -9.35 -3.7 -9.25 -3.3 L-9.05 -3.3 -9.0 -3.2 -2.9 -3.2 -3.0 -3.5 -2.1 -3.4 -1.9 -3.45 -1.95 -3.85 -1.9 -4.1 -2.35 -4.6 -2.6 -4.75 -2.55 -4.8 -2.65 -4.95 -2.95 -5.95 Q-2.95 -6.55 -2.55 -6.95 L-1.0 -7.65 Q-0.35 -7.65 -0.4 -7.45 L0.05 -7.3 0.25 -6.95 0.45 -6.9 M1.8 3.85 L1.7 4.4 1.95 4.4 1.8 3.85 M-8.75 -2.4 L-8.75 -2.35 -8.7 -2.3 -8.75 -2.4 M-6.0 -1.65 L-6.15 -1.65 -6.0 -1.6 -6.0 -1.65 M-0.15 -4.1 L-0.1 -4.05 -0.1 -4.2 -0.15 -4.1" fill="#ffffff" fill-rule="evenodd" stroke="none"/>
    <path d="M0.25 -6.25 L0.5 -5.9 0.65 -5.1 0.4 -4.35 0.05 -3.85 0.15 -3.65 0.25 -3.15 0.55 -3.1 0.4 -3.2 0.4 -3.4 0.7 -3.45 2.85 -3.4 3.3 -3.4 3.35 -3.2 2.4 -3.05 6.95 -3.05 7.7 -3.5 7.9 -3.7 Q8.15 -3.95 8.55 -4.0 L8.6 -3.8 8.45 -3.55 8.3 -3.35 9.6 -3.65 9.65 -3.45 9.4 -2.55 9.35 -1.95 9.35 -1.9 9.3 -1.75 9.05 -1.7 9.05 -1.75 8.3 -1.75 7.65 -1.85 7.55 -1.9 7.35 -1.85 7.35 -1.8 7.3 -1.65 3.8 -1.65 3.55 -1.55 3.5 -1.5 Q3.5 -1.25 3.05 -1.35 L2.5 -1.1 2.1 -0.85 2.0 -0.8 2.0 -0.6 2.0 -0.5 2.0 0.1 Q1.85 0.5 1.85 2.05 L1.9 2.95 1.85 3.85 1.85 4.25 1.9 4.35 2.05 5.15 2.2 6.9 2.25 7.75 2.35 9.2 2.75 11.05 2.75 11.4 2.6 11.45 2.35 11.15 2.25 11.4 2.4 11.4 2.4 11.7 2.35 11.75 2.35 11.85 0.65 11.85 0.6 11.8 0.3 11.85 -0.15 11.85 -0.25 11.25 -0.25 11.45 -0.3 11.85 -0.7 11.85 -0.7 11.7 -1.8 11.8 -1.8 11.85 -2.85 11.85 -2.75 11.15 -2.8 10.65 -2.75 10.25 -2.8 9.5 -2.65 7.7 -2.55 4.6 -2.5 4.1 -2.5 4.05 -2.65 3.45 -2.7 3.4 -2.7 1.05 -3.1 -0.8 -3.15 -0.85 -3.9 -1.0 -5.55 -1.5 -5.65 -1.4 -5.95 -1.4 -6.0 -1.5 -5.9 -1.7 -7.35 -1.8 -7.65 -1.7 -8.65 -1.65 -8.7 -1.65 -8.9 -1.6 -9.15 -1.6 -9.15 -1.65 -9.4 -1.65 -9.4 -1.7 -9.6 -1.7 -9.6 -1.85 -9.7 -1.85 -9.8 -2.8 -9.8 -3.25 -9.35 -3.45 -9.05 -3.3 -8.85 -3.2 -8.35 -3.05 -8.55 -3.3 Q-8.55 -3.5 -8.25 -3.5 L-7.85 -3.15 -7.7 -3.15 -7.65 -3.05 -2.55 -3.05 -2.65 -3.3 -1.9 -3.2 -1.7 -3.25 -1.75 -3.6 -1.7 -3.85 -2.1 -4.25 -2.3 -4.4 -2.25 -4.45 -2.35 -4.55 -2.6 -5.45 -2.25 -6.3 -0.95 -6.9 Q-0.4 -6.9 -0.45 -6.75 -0.45 -6.6 -0.1 -6.6 L0.1 -6.3 0.25 -6.25 M1.5 3.55 L1.4 3.1 1.3 3.55 1.5 3.55 M-5.15 -1.65 L-5.15 -1.7 -5.25 -1.7 -5.15 -1.65 M-0.25 -3.85 L-0.2 -3.8 -0.2 -3.9 -0.25 -3.85 M-7.45 -2.35 L-7.45 -2.3 -7.4 -2.25 -7.45 -2.35" fill="#000000" fill-rule="evenodd" stroke="none"/>
    <path d="M-27.75 -12.0 L27.8 -12.0 27.8 12.05 -27.75 12.05 -27.75 -12.0 Z" fill="none" stroke="#000000" stroke-linecap="round" stroke-linejoin="round" stroke-width="1.0"/>
  </g>
</svg>
