<?xml version="1.0" encoding="UTF-8" standalone="no"?>
<svg xmlns:xlink="http://www.w3.org/1999/xlink" height="3.7px" width="5.35px" xmlns="http://www.w3.org/2000/svg">
  <g transform="matrix(1.0, 0.0, 0.0, 1.0, -9.85, 2.6)">
    <path d="M15.2 -2.4 L15.2 -2.25 15.2 0.7 15.2 0.85 15.2 0.9 15.2 1.0 15.15 1.1 15.15 1.0 15.15 0.9 9.9 0.9 9.85 0.85 9.85 0.6 9.9 0.6 9.9 -0.85 9.9 -2.25 9.85 -2.25 9.85 -2.3 9.85 -2.55 9.9 -2.55 9.9 -2.6 9.95 -2.55 15.2 -2.55 15.2 -2.4 M15.15 -2.25 L9.95 -2.25 9.95 0.6 15.15 0.55 15.15 -2.25" fill="#000000" fill-rule="evenodd" stroke="none"/>
    <path d="M15.15 -2.25 L15.15 0.55 9.95 0.6 9.95 -2.25 15.15 -2.25" fill="#990000" fill-rule="evenodd" stroke="none"/>
  </g>
</svg>
