<?xml version="1.0" encoding="UTF-8" standalone="no"?>
<svg xmlns:xlink="http://www.w3.org/1999/xlink" height="3.7px" width="31.3px" xmlns="http://www.w3.org/2000/svg">
  <g transform="matrix(1.0, 0.0, 0.0, 1.0, 15.15, 2.6)">
    <path d="M16.1 -2.4 L16.05 -2.25 16.05 0.7 16.15 0.85 16.1 0.9 16.05 0.9 16.05 1.0 15.9 1.1 15.75 1.0 15.75 0.9 -15.0 0.9 -15.05 0.85 -15.05 0.6 -14.95 0.6 -15.0 -0.85 -14.85 -2.25 -15.1 -2.25 -15.15 -2.3 -15.15 -2.55 -14.75 -2.55 -14.75 -2.6 -14.7 -2.55 16.05 -2.55 16.1 -2.4 M15.75 -2.25 L-14.65 -2.25 -14.65 0.6 15.75 0.55 15.75 -2.25" fill="#000000" fill-rule="evenodd" stroke="none"/>
    <path d="M15.75 -2.25 L15.75 0.55 -14.65 0.6 -14.65 -2.25 15.75 -2.25" fill="#990000" fill-rule="evenodd" stroke="none"/>
  </g>
</svg>
