<?xml version="1.0" encoding="UTF-8" standalone="no"?>
<svg xmlns:xlink="http://www.w3.org/1999/xlink" height="11.5px" width="21.15px" xmlns="http://www.w3.org/2000/svg">
  <g transform="matrix(1.0, 0.0, 0.0, 1.0, 1.9, 7.85)">
    <path d="M3.0 -4.25 L3.15 -4.3 3.2 -4.15 Q4.7 -4.95 5.75 -5.15 L5.8 -5.2 7.9 -5.7 8.8 -5.9 Q10.35 -6.05 11.85 -5.2 L13.1 -4.05 Q17.7 -7.8 17.95 -7.8 L18.8 -7.85 18.85 -7.8 18.85 -7.75 18.95 -7.8 18.95 -7.5 18.45 -6.15 18.1 -5.5 19.2 -5.75 19.25 -5.65 18.55 -3.7 Q18.3 -2.9 17.25 -2.05 18.05 -1.9 18.05 -1.65 18.1 -1.15 17.25 -0.3 L17.1 -0.15 17.4 0.4 17.4 0.55 17.6 0.75 17.45 0.9 17.4 0.95 16.65 1.5 16.95 2.0 17.0 2.35 17.05 2.35 17.05 2.7 16.3 2.75 15.9 2.75 16.05 3.3 16.05 3.65 15.75 3.65 14.45 2.9 13.35 2.15 11.95 2.1 10.65 2.15 6.75 1.45 5.25 0.65 5.3 0.85 5.1 0.8 5.1 0.65 Q4.45 0.45 3.55 -0.65 L3.1 -1.4 Q2.9 -1.8 1.9 -1.8 L1.65 -1.55 0.3 -1.6 0.95 -1.6 0.4 -1.55 0.3 -1.6 Q0.05 -1.7 -0.15 -1.95 L-0.5 -1.8 -0.8 -2.0 -1.05 -2.25 -1.35 -2.15 Q-1.55 -1.95 -1.85 -1.95 L-1.9 -2.15 -1.55 -3.0 Q-1.1 -3.45 -0.65 -3.55 L-0.65 -3.6 -0.1 -4.7 Q0.6 -5.4 1.2 -5.45 L1.4 -5.4 1.4 -5.3 2.5 -5.3 2.5 -5.0 2.25 -4.85 2.7 -4.55 3.0 -4.25 M-0.25 -2.8 L-0.2 -2.65 -0.1 -2.5 0.1 -2.25 Q0.5 -1.75 1.1 -1.85 L1.55 -1.95 1.6 -2.1 1.6 -2.15 1.65 -2.15 1.65 -2.2 1.9 -2.2 1.95 -2.15 2.1 -2.2 Q2.9 -2.25 3.95 -0.95 4.5 -0.2 4.95 0.05 L5.3 0.2 Q5.95 0.5 6.7 1.05 8.45 1.75 13.75 1.85 L13.8 1.9 13.8 2.05 14.3 2.35 15.45 3.15 15.55 3.2 15.6 3.05 15.5 2.65 15.0 2.45 Q14.4 2.2 14.45 1.95 L14.45 1.9 15.6 2.15 16.7 2.35 16.7 2.25 Q16.45 2.0 16.35 1.55 15.05 1.9 14.85 1.2 L15.0 1.05 16.3 1.2 17.15 0.8 16.85 0.0 Q16.2 0.55 15.6 0.6 15.35 0.65 15.3 0.3 L15.6 0.25 Q16.05 0.2 16.9 -0.55 L17.7 -1.6 16.8 -1.75 Q16.0 -1.95 15.95 -2.25 L16.1 -2.5 17.0 -2.1 17.55 -2.65 Q18.3 -3.7 18.75 -5.25 L18.4 -5.25 17.75 -5.05 17.5 -4.85 17.4 -4.95 16.65 -4.45 16.35 -4.4 16.3 -4.55 Q16.25 -4.95 17.65 -5.35 L18.25 -6.5 18.45 -7.15 18.6 -7.55 Q17.45 -7.35 16.8 -6.8 L15.6 -5.7 14.35 -4.6 13.2 -3.8 13.15 -3.7 11.65 -4.8 Q10.3 -5.7 8.7 -5.55 L8.0 -5.35 7.85 -5.3 7.2 -5.15 5.9 -4.85 5.8 -4.85 5.8 -4.8 4.2 -4.4 3.2 -3.85 2.9 -3.75 2.8 -3.9 2.8 -3.95 2.85 -4.1 2.45 -4.35 Q1.95 -4.6 1.9 -4.95 L0.95 -5.0 Q0.4 -4.95 0.0 -4.2 L-0.4 -3.6 -0.35 -3.55 -0.35 -3.3 -0.5 -3.3 -0.5 -3.2 -1.4 -2.65 -0.75 -2.8 -0.45 -2.85 -0.45 -2.8 -0.25 -2.8 M0.95 -4.4 Q1.85 -4.25 1.9 -3.6 1.95 -3.05 1.1 -3.0 0.25 -2.9 0.2 -3.55 0.1 -4.55 0.95 -4.4 M0.6 -3.85 L0.5 -3.6 Q0.5 -3.3 1.05 -3.35 L1.4 -3.35 1.55 -3.6 1.15 -4.0 1.1 -4.0 0.95 -3.75 0.6 -3.7 0.6 -3.85 M8.6 -3.65 L8.95 -3.35 Q8.55 -5.95 9.55 -4.55 L9.95 -3.5 Q10.05 -2.8 10.3 -2.5 11.6 -2.35 11.9 -2.05 L12.1 -0.95 12.75 1.15 12.75 1.45 12.4 1.5 12.25 1.5 11.85 1.25 11.65 1.0 Q11.3 1.0 11.15 -0.45 L10.3 -1.3 9.95 -1.45 10.0 -1.1 9.3 -0.4 9.2 -0.6 9.25 -1.1 8.65 -1.7 8.0 -2.1 8.05 -2.3 8.55 -2.5 8.0 -3.6 8.0 -3.9 8.1 -3.95 8.6 -3.65 M8.7 -3.0 L8.95 -2.3 8.75 -2.1 Q9.65 -1.55 9.55 -1.1 L9.65 -1.75 9.9 -1.75 Q11.3 -1.75 11.45 -0.85 L11.75 0.7 11.8 0.75 12.05 0.85 12.15 1.1 12.35 1.1 12.1 -0.1 11.65 -1.8 10.7 -2.05 10.1 -2.3 Q9.9 -2.3 9.6 -3.1 L9.15 -4.45 9.1 -4.45 9.3 -2.55 9.2 -2.5 Q9.0 -2.45 8.75 -3.05 L8.7 -3.05 8.7 -3.0 M-0.4 -2.5 L-0.85 -2.35 -0.4 -2.35 -0.4 -2.5" fill="#000000" fill-rule="evenodd" stroke="none"/>
    <path d="M-0.35 -3.3 L-0.35 -3.55 -0.4 -3.6 0.0 -4.2 Q0.4 -4.95 0.95 -5.0 L1.9 -4.95 Q1.95 -4.6 2.45 -4.35 L2.85 -4.1 2.8 -3.95 2.8 -3.9 2.9 -3.75 3.2 -3.85 4.2 -4.4 5.8 -4.8 5.8 -4.85 5.9 -4.85 7.2 -5.15 7.85 -5.3 8.0 -5.35 8.7 -5.55 Q10.3 -5.7 11.65 -4.8 L13.15 -3.7 13.2 -3.8 14.35 -4.6 15.6 -5.7 16.8 -6.8 Q17.45 -7.35 18.6 -7.55 L18.45 -7.15 18.25 -6.5 17.65 -5.35 Q16.25 -4.95 16.3 -4.55 L16.35 -4.4 16.65 -4.45 17.4 -4.95 17.5 -4.85 17.75 -5.05 18.4 -5.25 18.75 -5.25 Q18.3 -3.7 17.55 -2.65 L17.0 -2.1 16.1 -2.5 15.95 -2.25 Q16.0 -1.95 16.8 -1.75 L17.7 -1.6 16.9 -0.55 Q16.05 0.2 15.6 0.25 L15.3 0.3 Q15.35 0.65 15.6 0.6 16.2 0.55 16.85 0.0 L17.15 0.8 16.3 1.2 15.0 1.05 14.85 1.2 Q15.05 1.9 16.35 1.55 16.45 2.0 16.7 2.25 L16.7 2.35 15.6 2.15 14.45 1.9 14.45 1.95 Q14.4 2.2 15.0 2.45 L15.5 2.65 15.6 3.05 15.55 3.2 15.45 3.15 14.3 2.35 13.8 2.05 13.8 1.9 13.75 1.85 Q8.45 1.75 6.7 1.05 5.95 0.5 5.3 0.2 L4.95 0.05 Q4.5 -0.2 3.95 -0.95 2.9 -2.25 2.1 -2.2 L1.95 -2.15 1.9 -2.2 1.65 -2.2 1.65 -2.15 1.6 -2.15 1.6 -2.1 1.55 -1.95 1.1 -1.85 Q0.5 -1.75 0.1 -2.25 L-0.1 -2.5 -0.2 -2.65 -0.25 -2.8 -0.2 -2.8 -0.15 -3.05 -0.25 -3.3 -0.35 -3.3 M8.6 -3.65 L8.1 -3.95 8.0 -3.9 8.0 -3.6 8.55 -2.5 8.05 -2.3 8.0 -2.1 8.65 -1.7 9.25 -1.1 9.2 -0.6 9.3 -0.4 10.0 -1.1 9.95 -1.45 10.3 -1.3 11.15 -0.45 Q11.3 1.0 11.65 1.0 L11.85 1.25 12.25 1.5 12.4 1.5 12.75 1.45 12.75 1.15 12.1 -0.95 11.9 -2.05 Q11.6 -2.35 10.3 -2.5 10.05 -2.8 9.95 -3.5 L9.55 -4.55 Q8.55 -5.95 8.95 -3.35 L8.6 -3.65 M0.6 -3.85 L0.6 -3.7 0.95 -3.75 1.1 -4.0 1.15 -4.0 1.55 -3.6 1.4 -3.35 1.05 -3.35 Q0.5 -3.3 0.5 -3.6 L0.6 -3.85 M0.95 -4.4 Q0.1 -4.55 0.2 -3.55 0.25 -2.9 1.1 -3.0 1.95 -3.05 1.9 -3.6 1.85 -4.25 0.95 -4.4" fill="#ffffff" fill-rule="evenodd" stroke="none"/>
    <path d="M-0.35 -3.3 L-0.25 -3.3 -0.15 -3.05 -0.2 -2.8 -0.25 -2.8 -0.45 -2.8 -0.45 -2.85 -0.75 -2.8 -1.4 -2.65 -0.5 -3.2 -0.5 -3.3 -0.35 -3.3 M8.75 -3.05 Q9.0 -2.45 9.2 -2.5 L9.3 -2.55 9.1 -4.45 9.15 -4.45 9.6 -3.1 Q9.9 -2.3 10.1 -2.3 L10.7 -2.05 11.65 -1.8 12.1 -0.1 12.35 1.1 12.15 1.1 12.05 0.85 11.8 0.75 11.75 0.7 11.45 -0.85 Q11.3 -1.75 9.9 -1.75 L9.65 -1.75 9.55 -1.1 Q9.65 -1.55 8.75 -2.1 L8.95 -2.3 8.7 -3.0 8.75 -3.05 M-0.4 -2.5 L-0.4 -2.35 -0.85 -2.35 -0.4 -2.5" fill="#ffff09" fill-rule="evenodd" stroke="none"/>
  </g>
</svg>
