<?xml version="1.0" encoding="UTF-8" standalone="no"?>
<svg xmlns:xlink="http://www.w3.org/1999/xlink" height="14.9px" width="10.45px" xmlns="http://www.w3.org/2000/svg">
  <g transform="matrix(1.0, 0.0, 0.0, 1.0, 17.85, 16.05)">
    <path d="M-9.05 -14.0 Q-8.85 -13.25 -9.55 -12.45 L-11.15 -11.05 -11.9 -10.5 -11.85 -10.45 Q-12.05 -10.3 -12.3 -10.2 L-8.75 -4.3 -8.65 -4.05 Q-8.3 -4.05 -8.0 -3.7 L-7.5 -2.9 -7.45 -2.05 Q-7.55 -1.55 -8.35 -1.25 L-9.75 -1.35 -10.35 -1.9 Q-10.5 -2.4 -10.25 -3.05 L-10.05 -3.35 -13.4 -9.55 -13.85 -9.15 -13.9 -9.3 -13.8 -9.5 -13.85 -9.5 -13.95 -9.4 -14.05 -9.25 -14.1 -9.35 -15.15 -8.85 -16.4 -8.65 -17.15 -9.45 -17.7 -10.65 Q-18.0 -11.55 -17.65 -11.95 L-15.85 -13.3 -16.05 -13.8 -16.15 -14.35 Q-16.1 -14.55 -15.4 -14.75 -15.25 -14.8 -14.65 -14.25 L-13.6 -15.05 Q-12.4 -16.25 -11.1 -16.0 L-10.0 -15.15 Q-9.15 -14.35 -9.05 -14.0 M-15.3 -14.45 L-15.85 -14.15 -15.7 -13.65 -15.6 -13.5 -15.5 -13.35 -15.15 -13.95 -15.0 -14.05 -15.3 -14.4 -15.3 -14.45 M-15.8 -12.75 L-15.75 -12.8 -15.85 -12.9 -17.4 -11.8 Q-17.7 -11.45 -17.45 -10.75 L-16.9 -9.65 -16.5 -9.2 -16.45 -8.9 -15.25 -9.2 -14.25 -9.6 -14.45 -11.2 -14.85 -11.6 -15.05 -11.85 -15.3 -12.35 -15.75 -12.4 -15.85 -12.65 -15.75 -12.65 -15.8 -12.75 M-14.35 -13.05 L-14.35 -12.95 -14.3 -13.05 -14.35 -13.05 M-14.1 -13.55 L-14.15 -13.55 -13.7 -13.0 -13.6 -12.75 -13.6 -12.8 -13.1 -12.3 -13.05 -12.2 -13.2 -12.2 -13.2 -12.15 -11.25 -11.3 -10.8 -11.7 Q-9.15 -13.1 -9.4 -13.9 L-10.25 -15.1 Q-11.05 -15.9 -11.85 -15.7 -12.85 -15.4 -14.35 -13.95 L-14.1 -13.55 M-14.6 -12.75 L-14.7 -13.5 -14.8 -13.75 -15.25 -12.8 -14.95 -12.75 -14.6 -12.75 M-12.5 -10.9 L-12.45 -10.75 -12.4 -10.6 -12.05 -10.65 -11.5 -11.15 -12.95 -11.7 -12.8 -11.4 -12.45 -11.05 -12.5 -10.9 M-13.45 -10.25 L-13.0 -11.1 -13.05 -11.2 -13.45 -11.95 -13.55 -12.0 -13.9 -12.05 -13.85 -10.9 -13.5 -10.3 -13.5 -10.25 -13.45 -10.25 M-14.9 -12.3 L-14.95 -12.3 -14.8 -12.2 -14.7 -12.2 -14.9 -12.3 M-13.75 -10.0 L-13.9 -10.1 -13.85 -9.95 -13.75 -10.0 M-13.2 -9.85 L-12.65 -8.95 -11.65 -7.05 Q-11.4 -6.15 -9.8 -3.7 L-9.1 -4.05 -8.9 -4.0 -12.55 -10.05 -12.75 -9.95 -13.2 -9.85 M-9.5 -3.55 L-9.4 -3.45 -9.4 -3.3 Q-10.2 -2.65 -10.05 -2.05 -10.0 -1.9 -9.55 -1.7 L-8.45 -1.6 Q-7.6 -1.9 -7.85 -2.8 -8.25 -4.05 -9.25 -3.65 L-9.5 -3.55" fill="#000000" fill-rule="evenodd" stroke="none"/>
    <path d="M-15.3 -14.45 L-15.3 -14.4 -15.0 -14.05 -15.15 -13.95 -15.5 -13.35 -15.6 -13.5 -15.7 -13.65 -15.85 -14.15 -15.3 -14.45 M-14.6 -12.75 L-14.95 -12.75 -15.25 -12.8 -14.8 -13.75 -14.7 -13.5 -14.6 -12.75 M-13.5 -10.3 L-13.85 -10.9 -13.9 -12.05 -13.55 -12.0 -13.45 -11.95 -13.05 -11.2 -13.0 -11.1 -13.45 -10.25 -13.5 -10.3 M-9.5 -3.55 L-9.25 -3.65 Q-8.25 -4.05 -7.85 -2.8 -7.6 -1.9 -8.45 -1.6 L-9.55 -1.7 Q-10.0 -1.9 -10.05 -2.05 -10.2 -2.65 -9.4 -3.3 L-9.4 -3.45 -9.5 -3.55 M-13.2 -9.85 L-12.75 -9.95 -12.55 -10.05 -8.9 -4.0 -9.1 -4.05 -9.8 -3.7 Q-11.4 -6.15 -11.65 -7.05 L-12.65 -8.95 -13.2 -9.85" fill="#734d26" fill-rule="evenodd" stroke="none"/>
    <path d="M-15.8 -12.75 L-15.75 -12.65 -15.85 -12.65 -15.75 -12.4 -15.3 -12.35 -15.05 -11.85 -14.85 -11.6 -14.45 -11.2 -14.25 -9.6 -15.25 -9.2 -16.45 -8.9 -16.5 -9.2 -16.9 -9.65 -17.45 -10.75 Q-17.7 -11.45 -17.4 -11.8 L-15.85 -12.9 -15.75 -12.8 -15.8 -12.75 M-14.1 -13.55 L-14.35 -13.95 Q-12.85 -15.4 -11.85 -15.7 -11.05 -15.9 -10.25 -15.1 L-9.4 -13.9 Q-9.15 -13.1 -10.8 -11.7 L-11.25 -11.3 -13.2 -12.15 -13.2 -12.2 -13.05 -12.2 -13.1 -12.3 -13.6 -12.8 -13.6 -12.75 -13.7 -13.0 -14.15 -13.55 -14.1 -13.55 M-12.5 -10.9 L-12.45 -11.05 -12.8 -11.4 -12.95 -11.7 -11.5 -11.15 -12.05 -10.65 -12.4 -10.6 -12.45 -10.75 -12.5 -10.9" fill="#9d9d9d" fill-rule="evenodd" stroke="none"/>
  </g>
</svg>
