<?xml version="1.0" encoding="UTF-8" standalone="no"?>
<svg xmlns:xlink="http://www.w3.org/1999/xlink" height="10.4px" width="21.15px" xmlns="http://www.w3.org/2000/svg">
  <g transform="matrix(1.0, 0.0, 0.0, 1.0, 1.9, 6.75)">
    <path d="M3.0 -3.5 L3.15 -3.55 3.2 -3.4 Q4.7 -4.15 5.75 -4.3 L5.8 -4.35 7.9 -4.8 8.8 -5.0 Q10.35 -5.15 11.85 -4.35 L13.1 -3.3 17.95 -6.7 18.8 -6.75 18.85 -6.7 18.85 -6.65 18.95 -6.7 18.95 -6.45 18.45 -5.2 18.1 -4.65 19.2 -4.85 19.25 -4.75 18.55 -3.0 Q18.3 -2.3 17.25 -1.5 L18.05 -1.15 Q18.1 -0.7 17.25 0.1 L17.1 0.2 17.4 0.7 17.4 0.85 17.6 1.05 17.45 1.15 17.4 1.2 16.65 1.7 16.95 2.15 17.0 2.5 17.05 2.5 17.05 2.8 16.3 2.85 15.9 2.85 16.05 3.35 16.05 3.65 15.75 3.65 14.45 3.0 13.35 2.3 11.95 2.25 10.65 2.3 6.75 1.65 5.25 0.95 5.3 1.1 5.1 1.1 5.1 0.95 Q4.45 0.75 3.55 -0.25 L3.1 -0.9 Q2.9 -1.3 1.9 -1.3 L1.65 -1.05 0.3 -1.1 0.95 -1.1 0.4 -1.05 0.3 -1.1 -0.15 -1.4 -0.5 -1.3 -0.8 -1.45 -1.05 -1.7 -1.35 -1.6 Q-1.55 -1.4 -1.85 -1.4 L-1.9 -1.6 -1.55 -2.35 Q-1.1 -2.8 -0.65 -2.85 L-0.65 -2.9 -0.1 -3.9 Q0.6 -4.55 1.2 -4.6 L1.4 -4.55 1.4 -4.45 2.5 -4.45 2.5 -4.2 2.25 -4.05 2.7 -3.75 3.0 -3.5 M-0.25 -2.2 L-0.2 -2.05 -0.1 -1.9 0.1 -1.7 Q0.5 -1.25 1.1 -1.35 L1.55 -1.4 1.6 -1.55 1.6 -1.6 1.65 -1.6 1.65 -1.65 1.9 -1.65 1.95 -1.6 2.1 -1.65 Q2.9 -1.7 3.95 -0.5 L4.95 0.4 5.3 0.55 6.7 1.3 13.75 2.05 13.8 2.05 13.8 2.2 14.3 2.5 15.45 3.2 15.55 3.25 15.6 3.1 15.5 2.75 15.0 2.55 14.45 2.1 14.45 2.05 15.6 2.3 16.7 2.5 16.7 2.4 16.35 1.75 Q15.05 2.05 14.85 1.45 L15.0 1.3 16.3 1.45 17.15 1.1 16.85 0.35 Q16.2 0.85 15.6 0.9 15.35 0.95 15.3 0.6 L15.6 0.6 Q16.05 0.55 16.9 -0.15 17.65 -0.75 17.7 -1.1 L16.8 -1.25 Q16.0 -1.4 15.95 -1.7 L16.1 -1.9 17.0 -1.55 17.55 -2.05 Q18.3 -3.0 18.75 -4.4 L18.4 -4.4 17.75 -4.25 17.5 -4.05 17.4 -4.15 16.65 -3.7 16.35 -3.65 16.3 -3.75 Q16.25 -4.15 17.65 -4.5 L18.25 -5.55 18.45 -6.15 18.6 -6.5 Q17.45 -6.3 16.8 -5.8 L15.6 -4.8 14.35 -3.8 13.2 -3.1 13.15 -3.0 11.65 -4.0 Q10.3 -4.8 8.7 -4.7 L8.0 -4.5 7.85 -4.45 7.2 -4.3 5.9 -4.05 5.8 -4.05 5.8 -4.0 4.2 -3.65 3.2 -3.15 2.9 -3.05 2.8 -3.2 2.8 -3.25 2.85 -3.35 2.45 -3.6 Q1.95 -3.8 1.9 -4.15 L0.95 -4.2 Q0.4 -4.15 0.0 -3.45 L-0.4 -2.9 -0.35 -2.85 -0.35 -2.65 -0.5 -2.65 -0.5 -2.55 -1.4 -2.05 -0.75 -2.2 -0.45 -2.25 -0.45 -2.2 -0.25 -2.2 M0.95 -3.65 Q1.85 -3.5 1.9 -2.9 1.95 -2.4 1.1 -2.35 0.25 -2.3 0.2 -2.85 0.1 -3.75 0.95 -3.65 M0.6 -3.15 L0.5 -2.9 Q0.5 -2.65 1.05 -2.7 L1.4 -2.7 1.55 -2.9 1.15 -3.3 1.1 -3.3 0.95 -3.05 0.6 -3.0 0.6 -3.15 M8.6 -2.95 Q8.9 -2.65 8.95 -2.7 8.55 -5.05 9.55 -3.75 L9.95 -2.8 Q10.05 -2.2 10.3 -1.9 L11.9 -1.5 12.1 -0.5 12.75 1.4 12.75 1.65 12.4 1.7 12.25 1.7 Q12.05 1.7 11.85 1.5 L11.65 1.25 Q11.3 1.25 11.15 -0.05 11.0 -0.5 10.3 -0.85 10.05 -0.85 9.95 -0.95 L10.0 -0.65 9.3 0.0 9.2 -0.2 9.25 -0.65 8.65 -1.2 Q8.0 -1.5 8.0 -1.55 L8.05 -1.75 8.55 -1.9 8.0 -2.9 8.0 -3.2 8.1 -3.25 8.6 -2.95 M8.7 -2.35 L8.95 -1.75 8.75 -1.55 Q9.65 -1.05 9.55 -0.65 L9.65 -1.25 9.9 -1.25 Q11.3 -1.25 11.45 -0.4 L11.75 1.0 11.8 1.05 12.05 1.1 12.15 1.35 12.35 1.35 12.1 0.25 11.65 -1.3 10.7 -1.5 10.1 -1.75 Q9.9 -1.75 9.6 -2.45 L9.15 -3.7 9.1 -3.7 9.3 -1.95 9.2 -1.9 8.75 -2.4 8.7 -2.4 8.7 -2.35 M-0.4 -1.9 L-0.85 -1.8 -0.4 -1.8 -0.4 -1.9" fill="#000000" fill-rule="evenodd" stroke="none"/>
    <path d="M-0.35 -2.65 L-0.35 -2.85 -0.4 -2.9 0.0 -3.45 Q0.4 -4.15 0.95 -4.2 L1.9 -4.15 Q1.95 -3.8 2.45 -3.6 L2.85 -3.35 2.8 -3.25 2.8 -3.2 2.9 -3.05 3.2 -3.15 4.2 -3.65 5.8 -4.0 5.8 -4.05 5.9 -4.05 7.2 -4.3 7.85 -4.45 8.0 -4.5 8.7 -4.7 Q10.3 -4.8 11.65 -4.0 L13.15 -3.0 13.2 -3.1 14.35 -3.8 15.6 -4.8 16.8 -5.8 Q17.45 -6.3 18.6 -6.5 L18.45 -6.15 18.25 -5.55 17.65 -4.5 Q16.25 -4.15 16.3 -3.75 L16.35 -3.65 16.65 -3.7 17.4 -4.15 17.5 -4.05 17.75 -4.25 18.4 -4.4 18.75 -4.4 Q18.3 -3.0 17.55 -2.05 L17.0 -1.55 16.1 -1.9 15.95 -1.7 Q16.0 -1.4 16.8 -1.25 L17.7 -1.1 Q17.65 -0.75 16.9 -0.15 16.05 0.55 15.6 0.6 L15.3 0.6 Q15.35 0.95 15.6 0.9 16.2 0.85 16.85 0.35 L17.15 1.1 16.3 1.45 15.0 1.3 14.85 1.45 Q15.05 2.05 16.35 1.75 L16.7 2.4 16.7 2.5 15.6 2.3 14.45 2.05 14.45 2.1 15.0 2.55 15.5 2.75 15.6 3.1 15.55 3.25 15.45 3.2 14.3 2.5 13.8 2.2 13.8 2.05 13.75 2.05 6.7 1.3 5.3 0.55 4.95 0.4 3.95 -0.5 Q2.9 -1.7 2.1 -1.65 L1.95 -1.6 1.9 -1.65 1.65 -1.65 1.65 -1.6 1.6 -1.6 1.6 -1.55 1.55 -1.4 1.1 -1.35 Q0.5 -1.25 0.1 -1.7 L-0.1 -1.9 -0.2 -2.05 -0.25 -2.2 -0.2 -2.2 -0.15 -2.4 -0.25 -2.65 -0.35 -2.65 M8.6 -2.95 L8.1 -3.25 8.0 -3.2 8.0 -2.9 8.55 -1.9 8.05 -1.75 8.0 -1.55 Q8.0 -1.5 8.65 -1.2 L9.25 -0.65 9.2 -0.2 9.3 0.0 10.0 -0.65 9.95 -0.95 Q10.05 -0.85 10.3 -0.85 11.0 -0.5 11.15 -0.05 11.3 1.25 11.65 1.25 L11.85 1.5 Q12.05 1.7 12.25 1.7 L12.4 1.7 12.75 1.65 12.75 1.4 12.1 -0.5 11.9 -1.5 10.3 -1.9 Q10.05 -2.2 9.95 -2.8 L9.55 -3.75 Q8.55 -5.05 8.95 -2.7 8.9 -2.65 8.6 -2.95 M0.6 -3.15 L0.6 -3.0 0.95 -3.05 1.1 -3.3 1.15 -3.3 1.55 -2.9 1.4 -2.7 1.05 -2.7 Q0.5 -2.65 0.5 -2.9 L0.6 -3.15 M0.95 -3.65 Q0.1 -3.75 0.2 -2.85 0.25 -2.3 1.1 -2.35 1.95 -2.4 1.9 -2.9 1.85 -3.5 0.95 -3.65" fill="#ffffff" fill-rule="evenodd" stroke="none"/>
    <path d="M-0.35 -2.65 L-0.25 -2.65 -0.15 -2.4 -0.2 -2.2 -0.25 -2.2 -0.45 -2.2 -0.45 -2.25 -0.75 -2.2 -1.4 -2.05 -0.5 -2.55 -0.5 -2.65 -0.35 -2.65 M8.75 -2.4 L9.2 -1.9 9.3 -1.95 9.1 -3.7 9.15 -3.7 9.6 -2.45 Q9.9 -1.75 10.1 -1.75 L10.7 -1.5 11.65 -1.3 12.1 0.25 12.35 1.35 12.15 1.35 12.05 1.1 11.8 1.05 11.75 1.0 11.45 -0.4 Q11.3 -1.25 9.9 -1.25 L9.65 -1.25 9.55 -0.65 Q9.65 -1.05 8.75 -1.55 L8.95 -1.75 8.7 -2.35 8.75 -2.4 M-0.4 -1.9 L-0.4 -1.8 -0.85 -1.8 -0.4 -1.9" fill="#ffff09" fill-rule="evenodd" stroke="none"/>
  </g>
</svg>
