<?xml version="1.0" encoding="UTF-8" standalone="no"?>
<svg xmlns:xlink="http://www.w3.org/1999/xlink" height="11.85px" width="21.15px" xmlns="http://www.w3.org/2000/svg">
  <g transform="matrix(1.0, 0.0, 0.0, 1.0, 1.9, 8.2)">
    <path d="M-0.25 -3.0 L-0.2 -2.85 -0.1 -2.7 0.1 -2.4 Q0.5 -1.9 1.1 -2.0 L1.55 -2.1 1.6 -2.25 1.6 -2.3 1.65 -2.3 1.65 -2.35 1.9 -2.35 1.95 -2.3 2.1 -2.35 Q2.9 -2.4 3.95 -1.1 4.5 -0.3 4.95 -0.05 L5.3 0.1 6.7 1.0 Q8.45 1.7 13.75 1.8 L13.8 1.85 13.8 2.0 14.3 2.35 15.45 3.15 15.55 3.2 15.6 3.05 15.5 2.65 15.0 2.45 Q14.4 2.15 14.45 1.9 L14.45 1.85 15.6 2.1 16.7 2.35 16.7 2.2 Q16.45 1.95 16.35 1.5 15.05 1.85 14.85 1.15 L15.0 1.0 16.3 1.15 17.15 0.75 16.85 -0.1 Q16.2 0.45 15.6 0.5 15.35 0.55 15.3 0.2 L15.6 0.15 Q16.05 0.1 16.9 -0.65 L17.7 -1.75 16.8 -1.9 Q16.0 -2.1 15.95 -2.4 L16.1 -2.7 Q16.25 -2.45 17.0 -2.25 L17.55 -2.85 Q18.3 -3.9 18.75 -5.5 L18.4 -5.5 17.75 -5.3 17.5 -5.1 17.4 -5.2 16.65 -4.7 16.35 -4.65 16.3 -4.8 Q16.25 -5.2 17.65 -5.6 L18.25 -6.8 18.45 -7.5 18.6 -7.9 Q17.45 -7.7 16.8 -7.1 L15.6 -6.0 14.35 -4.85 Q13.7 -4.25 13.2 -4.0 L13.15 -3.9 11.65 -5.05 Q10.3 -6.0 8.7 -5.85 L8.0 -5.6 7.85 -5.55 7.2 -5.4 5.9 -5.1 5.8 -5.1 5.8 -5.05 4.2 -4.65 3.2 -4.05 2.9 -3.95 2.8 -4.15 2.8 -4.2 2.85 -4.35 2.45 -4.6 Q1.95 -4.85 1.9 -5.2 L0.95 -5.25 Q0.4 -5.2 0.0 -4.45 L-0.4 -3.8 -0.35 -3.75 -0.35 -3.5 -0.5 -3.5 -0.5 -3.4 -1.4 -2.85 -0.75 -3.0 -0.45 -3.05 -0.45 -3.0 -0.25 -3.0 M3.0 -4.5 L3.15 -4.55 3.2 -4.4 Q4.7 -5.2 5.75 -5.4 L5.8 -5.45 7.9 -6.0 8.8 -6.2 Q10.35 -6.35 11.85 -5.45 L13.1 -4.3 17.95 -8.15 18.8 -8.2 18.85 -8.15 18.85 -8.1 18.95 -8.15 18.95 -7.85 18.45 -6.45 18.1 -5.8 19.2 -6.05 19.25 -5.95 18.55 -3.9 Q18.3 -3.1 17.25 -2.2 18.05 -2.05 18.05 -1.8 18.1 -1.3 17.25 -0.4 L17.1 -0.25 17.4 0.3 17.4 0.45 17.6 0.65 17.45 0.85 17.4 0.9 16.65 1.45 16.95 1.95 17.0 2.35 17.05 2.35 17.05 2.7 16.3 2.75 15.9 2.75 16.05 3.3 16.05 3.65 15.75 3.65 14.45 2.9 13.35 2.1 11.95 2.05 10.65 2.1 6.75 1.4 5.25 0.55 5.3 0.8 5.1 0.75 5.1 0.55 Q4.45 0.35 3.55 -0.75 L3.1 -1.55 Q2.9 -1.95 1.9 -1.95 L1.65 -1.7 0.3 -1.75 0.95 -1.75 0.4 -1.7 0.3 -1.75 Q0.05 -1.85 -0.15 -2.1 L-0.5 -1.95 -0.8 -2.15 -1.05 -2.4 -1.35 -2.3 Q-1.55 -2.1 -1.85 -2.1 L-1.9 -2.3 -1.55 -3.2 Q-1.1 -3.65 -0.65 -3.75 L-0.65 -3.8 -0.1 -4.95 Q0.6 -5.7 1.2 -5.75 L1.4 -5.7 1.4 -5.55 2.5 -5.55 2.5 -5.25 2.25 -5.1 2.7 -4.8 3.0 -4.5 M0.6 -4.05 L0.5 -3.8 Q0.5 -3.5 1.05 -3.55 L1.4 -3.55 1.55 -3.8 1.15 -4.25 1.1 -4.25 0.95 -3.95 0.6 -3.9 0.6 -4.05 M0.95 -4.65 Q1.85 -4.5 1.9 -3.8 1.95 -3.25 1.1 -3.2 0.25 -3.1 0.2 -3.75 0.1 -4.8 0.95 -4.65 M8.6 -3.85 L8.95 -3.55 Q8.55 -6.25 9.55 -4.8 L9.95 -3.7 Q10.05 -3.0 10.3 -2.7 11.6 -2.55 11.9 -2.2 L12.1 -1.1 12.75 1.1 12.75 1.4 12.4 1.45 12.25 1.45 11.85 1.2 11.65 0.95 Q11.3 0.95 11.15 -0.55 11.0 -1.1 10.3 -1.45 L9.95 -1.6 10.0 -1.25 Q9.9 -0.8 9.3 -0.5 L9.2 -0.7 9.25 -1.25 8.65 -1.85 8.0 -2.25 8.05 -2.45 8.55 -2.7 8.0 -3.8 8.0 -4.15 8.1 -4.2 8.6 -3.85 M8.7 -3.2 L8.95 -2.45 8.75 -2.25 Q9.65 -1.7 9.55 -1.25 L9.65 -1.9 9.9 -1.9 Q11.3 -1.9 11.45 -1.0 L11.75 0.6 11.8 0.65 12.05 0.8 12.15 1.05 12.35 1.05 12.1 -0.2 11.65 -1.95 10.7 -2.2 10.1 -2.45 Q9.9 -2.45 9.6 -3.3 L9.15 -4.7 9.1 -4.7 9.3 -2.75 9.2 -2.7 Q9.0 -2.65 8.75 -3.25 L8.7 -3.25 8.7 -3.2 M-0.4 -2.7 L-0.85 -2.55 -0.4 -2.55 -0.4 -2.7" fill="#000000" fill-rule="evenodd" stroke="none"/>
    <path d="M-0.35 -3.5 L-0.35 -3.75 -0.4 -3.8 0.0 -4.45 Q0.4 -5.2 0.95 -5.25 L1.9 -5.2 Q1.95 -4.85 2.45 -4.6 L2.85 -4.35 2.8 -4.2 2.8 -4.15 2.9 -3.95 3.2 -4.05 4.2 -4.65 5.8 -5.05 5.8 -5.1 5.9 -5.1 7.2 -5.4 7.85 -5.55 8.0 -5.6 8.7 -5.85 Q10.3 -6.0 11.65 -5.05 L13.15 -3.9 13.2 -4.0 Q13.7 -4.25 14.35 -4.85 L15.6 -6.0 16.8 -7.1 Q17.45 -7.7 18.6 -7.9 L18.45 -7.5 18.25 -6.8 17.65 -5.6 Q16.25 -5.2 16.3 -4.8 L16.35 -4.65 16.65 -4.7 17.4 -5.2 17.5 -5.1 17.75 -5.3 18.4 -5.5 18.75 -5.5 Q18.3 -3.9 17.55 -2.85 L17.0 -2.25 Q16.25 -2.45 16.1 -2.7 L15.95 -2.4 Q16.0 -2.1 16.8 -1.9 L17.7 -1.75 16.9 -0.65 Q16.05 0.1 15.6 0.15 L15.3 0.2 Q15.35 0.55 15.6 0.5 16.2 0.45 16.85 -0.1 L17.15 0.75 16.3 1.15 15.0 1.0 14.85 1.15 Q15.05 1.85 16.35 1.5 16.45 1.95 16.7 2.2 L16.7 2.35 15.6 2.1 14.45 1.85 14.45 1.9 Q14.4 2.15 15.0 2.45 L15.5 2.65 15.6 3.05 15.55 3.2 15.45 3.15 14.3 2.35 13.8 2.0 13.8 1.85 13.75 1.8 Q8.45 1.7 6.7 1.0 L5.3 0.1 4.95 -0.05 Q4.5 -0.3 3.95 -1.1 2.9 -2.4 2.1 -2.35 L1.95 -2.3 1.9 -2.35 1.65 -2.35 1.65 -2.3 1.6 -2.3 1.6 -2.25 1.55 -2.1 1.1 -2.0 Q0.5 -1.9 0.1 -2.4 L-0.1 -2.7 -0.2 -2.85 -0.25 -3.0 -0.2 -3.0 -0.15 -3.25 -0.25 -3.5 -0.35 -3.5 M8.6 -3.85 L8.1 -4.2 8.0 -4.15 8.0 -3.8 8.55 -2.7 8.05 -2.45 8.0 -2.25 8.65 -1.85 9.25 -1.25 9.2 -0.7 9.3 -0.5 Q9.9 -0.8 10.0 -1.25 L9.95 -1.6 10.3 -1.45 Q11.0 -1.1 11.15 -0.55 11.3 0.95 11.65 0.95 L11.85 1.2 12.25 1.45 12.4 1.45 12.75 1.4 12.75 1.1 12.1 -1.1 11.9 -2.2 Q11.6 -2.55 10.3 -2.7 10.05 -3.0 9.95 -3.7 L9.55 -4.8 Q8.55 -6.25 8.95 -3.55 L8.6 -3.85 M0.95 -4.65 Q0.1 -4.8 0.2 -3.75 0.25 -3.1 1.1 -3.2 1.95 -3.25 1.9 -3.8 1.85 -4.5 0.95 -4.65 M0.6 -4.05 L0.6 -3.9 0.95 -3.95 1.1 -4.25 1.15 -4.25 1.55 -3.8 1.4 -3.55 1.05 -3.55 Q0.5 -3.5 0.5 -3.8 L0.6 -4.05" fill="#ffffff" fill-rule="evenodd" stroke="none"/>
    <path d="M-0.35 -3.5 L-0.25 -3.5 -0.15 -3.25 -0.2 -3.0 -0.25 -3.0 -0.45 -3.0 -0.45 -3.05 -0.75 -3.0 -1.4 -2.85 -0.5 -3.4 -0.5 -3.5 -0.35 -3.5 M8.75 -3.25 Q9.0 -2.65 9.2 -2.7 L9.3 -2.75 9.1 -4.7 9.15 -4.7 9.6 -3.3 Q9.9 -2.45 10.1 -2.45 L10.7 -2.2 11.65 -1.95 12.1 -0.2 12.35 1.05 12.15 1.05 12.05 0.8 11.8 0.65 11.75 0.6 11.45 -1.0 Q11.3 -1.9 9.9 -1.9 L9.65 -1.9 9.55 -1.25 Q9.65 -1.7 8.75 -2.25 L8.95 -2.45 8.7 -3.2 8.75 -3.25 M-0.4 -2.7 L-0.4 -2.55 -0.85 -2.55 -0.4 -2.7" fill="#ffff09" fill-rule="evenodd" stroke="none"/>
  </g>
</svg>
