<?xml version="1.0" encoding="UTF-8" standalone="no"?>
<svg xmlns:xlink="http://www.w3.org/1999/xlink" height="25.05px" width="56.55px" xmlns="http://www.w3.org/2000/svg">
  <g transform="matrix(1.0, 0.0, 0.0, 1.0, 28.25, 12.5)">
    <path d="M16.8 -12.0 L16.8 -11.95 16.55 -11.9 16.4 -11.9 16.3 -12.0 16.8 -12.0" fill="#d1c9c7" fill-rule="evenodd" stroke="none"/>
    <path d="M10.1 -0.55 L8.9 -1.4 8.35 -1.65 6.75 -1.8 5.35 -1.55 5.15 -1.45 5.15 -1.4 Q5.15 -1.15 5.75 -0.95 L6.8 -0.65 8.65 0.35 Q10.0 1.65 10.0 2.6 L9.9 3.45 9.95 3.75 10.45 3.45 Q10.8 3.15 11.7 3.15 L13.2 3.4 13.7 3.65 14.2 3.95 15.0 4.7 15.05 4.75 15.0 4.8 15.15 5.05 15.35 5.45 15.2 5.7 15.25 5.85 15.65 5.45 15.5 4.8 15.5 4.55 Q15.5 3.3 14.7 2.45 13.65 1.15 11.2 1.2 10.7 0.0 10.1 -0.55 M16.85 -12.0 L17.25 -11.2 17.45 -10.25 17.45 -9.75 Q17.45 -8.85 17.1 -8.35 L16.75 -7.65 16.25 -6.9 Q16.65 -6.95 17.0 -6.55 L17.4 -5.9 Q17.8 -5.35 17.8 -4.75 17.8 -3.7 17.15 -2.7 16.5 -1.5 15.35 -0.85 L15.35 -0.8 16.95 -0.65 17.6 -0.35 18.2 0.05 18.7 0.4 19.35 1.15 19.5 2.05 19.6 2.1 20.3 1.7 21.25 1.5 Q22.1 1.5 23.6 2.55 24.2 2.95 24.2 3.7 L24.25 3.75 24.85 3.4 25.6 3.3 Q26.25 3.3 26.95 3.8 L27.3 4.1 27.3 12.0 -27.7 12.0 -27.7 -1.9 -27.5 -1.95 -26.7 -1.85 -25.75 -1.75 -25.35 -1.7 -25.0 -1.45 -25.05 -1.8 -24.95 -2.65 -24.8 -3.4 -24.25 -4.75 -22.55 -5.85 Q-21.2 -6.5 -20.05 -6.55 L-20.35 -9.35 -20.3 -10.25 -20.1 -11.0 -19.8 -11.45 -19.0 -12.0 16.3 -12.0 16.4 -11.9 16.55 -11.9 16.8 -11.95 16.8 -12.0 16.85 -12.0 M11.65 8.2 L11.0 8.05 10.15 7.9 10.0 7.9 Q9.5 7.7 9.5 8.05 L9.55 8.2 Q10.4 8.3 11.25 8.8 L12.25 9.6 12.45 10.55 Q12.4 11.3 12.5 11.55 L12.8 11.5 12.85 11.5 13.3 11.05 13.35 10.85 13.35 10.8 13.35 10.5 13.2 9.75 12.7 8.9 Q12.35 8.4 11.65 8.2" fill="#9aae95" fill-rule="evenodd" stroke="none"/>
    <path d="M10.1 -0.55 Q10.7 0.0 11.2 1.2 13.65 1.15 14.7 2.45 15.5 3.3 15.5 4.55 L15.5 4.8 15.65 5.45 15.25 5.85 15.2 5.7 15.35 5.45 15.15 5.05 15.0 4.8 15.05 4.75 15.0 4.7 14.2 3.95 13.7 3.65 13.2 3.4 11.7 3.15 Q10.8 3.15 10.45 3.45 L9.95 3.75 9.9 3.45 10.0 2.6 Q10.0 1.65 8.65 0.35 L6.8 -0.65 5.75 -0.95 Q5.15 -1.15 5.15 -1.4 L5.15 -1.45 5.35 -1.55 6.75 -1.8 8.35 -1.65 8.9 -1.4 10.1 -0.55 M19.5 -12.0 L19.8 -10.65 19.8 -10.25 19.65 -9.65 19.4 -8.8 Q19.3 -8.25 18.25 -7.0 L19.1 -6.3 19.45 -5.65 19.75 -4.15 19.7 -3.6 19.35 -2.9 18.4 -1.75 19.6 -1.6 20.0 -1.35 20.35 -0.75 20.4 0.65 Q21.35 -0.2 22.6 -0.2 24.5 -0.2 24.75 1.2 L25.35 0.8 26.6 0.6 27.3 0.75 27.3 4.1 26.95 3.8 Q26.25 3.3 25.6 3.3 L24.85 3.4 24.25 3.75 24.2 3.7 Q24.2 2.95 23.6 2.55 22.1 1.5 21.25 1.5 L20.3 1.7 19.6 2.1 19.5 2.05 19.35 1.15 18.7 0.4 18.2 0.05 17.6 -0.35 16.95 -0.65 15.35 -0.8 15.35 -0.85 Q16.5 -1.5 17.15 -2.7 17.8 -3.7 17.8 -4.75 17.8 -5.35 17.4 -5.9 L17.0 -6.55 Q16.65 -6.95 16.25 -6.9 L16.75 -7.65 17.1 -8.35 Q17.45 -8.85 17.45 -9.75 L17.45 -10.25 17.25 -11.2 16.85 -12.0 19.5 -12.0 M-19.0 -12.0 L-19.8 -11.45 -20.1 -11.0 -20.3 -10.25 -20.35 -9.35 -20.05 -6.55 Q-21.2 -6.5 -22.55 -5.85 L-24.25 -4.75 -24.8 -3.4 -24.95 -2.65 -25.05 -1.8 -25.0 -1.45 -25.35 -1.7 -25.75 -1.75 -26.7 -1.85 -27.5 -1.95 -27.7 -1.9 -27.7 -4.25 -27.5 -4.25 -26.7 -4.15 -26.65 -4.15 -26.1 -3.9 -25.85 -5.05 Q-25.75 -5.8 -25.3 -6.25 -24.35 -7.1 -23.55 -7.25 L-21.3 -7.6 -21.7 -8.25 -21.95 -8.9 -22.1 -9.55 -22.1 -10.25 -21.9 -11.45 -21.55 -12.0 -19.0 -12.0 M11.65 8.2 Q12.35 8.4 12.7 8.9 L13.2 9.75 13.35 10.5 13.35 10.8 13.35 10.85 13.3 11.05 12.85 11.5 12.8 11.5 12.5 11.55 Q12.4 11.3 12.45 10.55 L12.25 9.6 11.25 8.8 Q10.4 8.3 9.55 8.2 L9.5 8.05 Q9.5 7.7 10.0 7.9 L10.15 7.9 11.0 8.05 11.65 8.2" fill="#e6e8e3" fill-rule="evenodd" stroke="none"/>
    <path d="M27.3 0.75 L26.6 0.6 25.35 0.8 24.75 1.2 Q24.5 -0.2 22.6 -0.2 21.35 -0.2 20.4 0.65 L20.35 -0.75 20.0 -1.35 19.6 -1.6 18.4 -1.75 19.35 -2.9 19.7 -3.6 19.75 -4.15 19.45 -5.65 19.1 -6.3 18.25 -7.0 Q19.3 -8.25 19.4 -8.8 L19.65 -9.65 19.8 -10.25 19.8 -10.65 19.5 -12.0 27.3 -12.0 27.3 0.75 M-21.55 -12.0 L-21.9 -11.45 -22.1 -10.25 -22.1 -9.55 -21.95 -8.9 -21.7 -8.25 -21.3 -7.6 -23.55 -7.25 Q-24.35 -7.1 -25.3 -6.25 -25.75 -5.8 -25.85 -5.05 L-26.1 -3.9 -26.65 -4.15 -26.7 -4.15 -27.5 -4.25 -27.7 -4.25 -27.7 -12.0 -21.55 -12.0" fill="#4f5c64" fill-rule="evenodd" stroke="none"/>
    <path d="M-27.7 12.0 L27.3 12.0" fill="none" stroke="#000000" stroke-linecap="round" stroke-linejoin="round" stroke-width="1.0"/>
    <path d="M9.15 -6.5 L10.25 -6.2 10.35 -6.25 10.35 -6.2 10.85 -6.0 12.05 -5.4 12.5 -5.1 12.85 -4.7 13.35 -4.25 13.4 -4.25 Q15.6 -4.25 17.45 -3.05 L18.25 -2.15 18.55 -1.1 18.25 -0.15 17.6 0.6 16.45 1.25 14.4 1.55 14.35 1.6 12.05 1.9 8.45 2.15 7.35 2.3 2.7 2.7 2.7 3.7 2.6 4.85 2.05 5.4 1.75 5.65 1.55 5.8 1.2 5.55 1.15 5.5 0.0 5.25 -0.15 5.15 -0.2 5.3 -0.4 5.35 -0.75 5.8 -1.05 5.8 -1.1 5.65 -0.9 5.4 -2.45 5.65 -5.35 5.65 -6.05 5.75 Q-6.55 5.75 -6.55 5.1 L-6.5 4.6 -6.45 4.5 -6.55 4.5 -6.5 3.9 -6.65 2.6 -12.1 2.6 -12.15 2.65 -12.85 2.65 -14.25 2.15 -15.75 1.65 -17.55 0.8 -17.9 1.1 -17.95 1.25 -18.1 1.25 -18.35 1.5 -18.6 1.5 -18.65 1.3 -18.6 1.25 -19.15 1.35 -19.55 1.5 -20.4 1.25 -20.55 0.95 -20.3 0.0 -20.4 -0.05 -20.4 -0.45 -20.65 -0.8 -20.65 -0.85 -20.7 -1.05 -20.95 -1.8 -21.15 -2.4 -21.4 -3.0 -21.8 -4.1 -22.25 -5.25 -22.25 -5.65 -22.1 -5.65 -19.7 -5.85 Q-21.65 -5.85 -17.5 -5.75 L-17.55 -5.85 -17.25 -5.9 -17.05 -5.7 -16.5 -5.35 -15.7 -4.65 -14.8 -3.95 -14.45 -3.65 -14.05 -3.65 -14.05 -3.6 -11.35 -3.55 -6.8 -3.7 -4.85 -3.9 -3.6 -4.1 -2.7 -4.25 -2.65 -4.25 -2.2 -4.75 -1.5 -5.1 -1.45 -5.0 -0.6 -5.1 1.4 -5.15 1.9 -5.25 2.0 -5.15 2.25 -5.3 2.25 -5.35 2.3 -5.3 3.1 -5.75 3.55 -6.05 4.35 -6.25 8.6 -6.5 9.15 -6.5 M3.2 -5.4 L2.45 -4.95 2.45 -4.8 2.55 -4.6 3.65 -3.95 Q4.5 -3.25 5.45 -2.85 L5.6 -3.55 5.75 -4.4 5.65 -5.0 5.65 -5.5 5.7 -6.05 4.0 -5.85 3.2 -5.4 M13.4 -0.1 L13.4 -0.15 13.7 -1.5 13.9 -3.5 14.0 -3.85 13.5 -3.9 13.3 -3.85 13.2 -3.85 12.75 -3.25 12.15 -2.45 11.9 -2.45 11.15 -2.4 10.85 -2.4 6.75 -2.2 6.0 -2.2 5.95 -2.2 5.05 -2.25 5.0 -2.4 5.1 -2.55 5.25 -2.55 Q4.8 -2.75 4.6 -2.9 L3.6 -3.6 2.55 -4.2 2.4 -4.2 2.2 -4.3 1.7 -4.5 1.65 -4.45 1.4 -4.45 1.4 -4.65 1.3 -4.75 -0.6 -4.75 -1.55 -4.75 -1.85 -4.45 -2.4 -3.9 -2.25 -3.65 -2.5 -3.35 -2.65 -3.0 -2.8 -2.35 -2.85 -1.1 -1.35 -1.15 3.25 -0.6 Q3.45 -0.75 3.45 -0.35 L3.3 -0.15 3.25 -0.1 Q2.95 0.0 2.9 0.25 L2.9 0.3 2.85 0.4 2.4 1.15 2.2 1.5 Q2.4 1.5 2.5 1.85 L2.5 1.95 2.55 2.15 2.6 2.15 2.65 2.35 8.35 1.85 9.0 1.75 12.05 1.55 13.1 1.45 13.1 1.1 13.4 0.25 13.5 0.25 13.55 0.1 13.5 -0.1 13.4 -0.1 M2.1 -4.8 L2.0 -4.75 2.1 -4.75 2.1 -4.8 M2.9 -0.25 L1.4 -0.65 -2.65 -0.85 -3.8 -0.65 -3.55 2.1 -3.45 2.9 -3.4 2.9 -3.35 3.1 -3.45 3.25 -3.4 5.0 -3.4 5.3 -2.9 5.3 -0.8 5.0 -0.55 5.0 0.1 4.05 2.25 0.7 2.75 -0.1 2.9 -0.25 M9.0 -6.15 L6.9 -6.1 6.9 -6.0 6.8 -5.65 6.9 -4.7 6.75 -2.55 10.05 -2.6 9.9 -2.65 9.9 -2.9 10.15 -4.8 10.05 -5.95 9.0 -6.15 M6.5 -6.1 L6.0 -6.05 6.0 -5.85 6.0 -5.35 6.05 -4.4 5.75 -2.7 6.3 -2.55 6.45 -2.55 6.4 -2.9 6.6 -4.7 6.5 -5.25 6.5 -6.1 M12.9 -4.2 L12.5 -4.55 11.7 -5.25 11.3 -5.45 11.4 -4.0 11.3 -3.2 11.2 -2.7 11.9 -2.8 11.9 -2.85 13.0 -4.05 12.9 -4.2 M17.9 -1.55 L17.85 -1.75 17.95 -2.0 17.9 -2.05 17.0 -2.9 14.4 -3.8 14.2 -3.2 14.0 -1.15 13.8 -0.2 13.65 -0.15 13.65 0.15 13.7 0.15 13.4 1.4 14.0 1.3 Q14.15 1.15 14.9 1.05 L16.15 0.95 17.3 0.4 17.85 -0.25 17.85 -1.0 18.05 -1.35 17.9 -1.6 17.9 -1.55 M10.3 -2.6 L10.9 -2.65 10.9 -3.1 11.0 -4.4 11.0 -5.55 10.4 -5.8 10.45 -4.8 10.25 -2.65 10.05 -2.6 10.3 -2.6 M1.6 2.7 L1.45 3.1 1.3 3.65 1.15 4.3 1.35 5.1 1.55 5.0 1.7 5.05 1.75 5.2 Q2.4 5.1 2.4 3.65 L2.35 2.7 1.6 2.7 M1.8 2.4 L2.3 2.35 2.2 2.05 1.8 2.4 M1.75 4.6 Q1.4 4.6 1.5 4.1 L1.6 3.15 Q1.7 2.65 1.95 2.8 L2.15 3.2 Q2.15 4.6 1.75 4.6 M1.1 3.15 L0.0 4.75 0.05 4.85 0.4 5.0 0.9 5.1 0.75 4.3 0.95 3.5 1.1 3.15 M-6.8 0.9 L-6.8 0.55 -6.8 0.0 -6.85 0.0 -6.9 -0.05 -6.9 -0.4 -6.8 -0.4 -6.7 -0.4 -4.9 -0.75 -4.15 -1.0 -3.2 -1.1 -3.25 -1.55 -3.0 -3.0 -2.75 -3.75 -2.7 -3.85 -4.9 -3.55 -7.1 -3.3 -11.35 -3.2 -14.05 -3.3 -14.2 -3.3 -14.25 -3.3 -14.25 -3.25 -14.4 -3.2 -14.5 -3.3 -14.7 -3.3 -14.85 -3.2 -16.15 -3.15 -16.85 -3.3 -17.2 -3.65 -17.8 -4.25 -18.65 -5.45 -20.75 -5.45 -20.75 -5.35 -20.85 -5.15 -20.3 -3.05 -19.95 -2.0 -19.8 -1.5 -19.5 -1.0 -19.5 -0.95 -18.3 -1.1 -15.8 -1.15 -15.5 -1.15 -15.45 -1.0 -15.45 -0.95 -15.5 -0.85 -15.5 -0.9 -15.75 -0.9 -15.8 -0.5 -16.85 0.3 -17.25 0.6 -16.85 0.85 -16.0 1.2 -16.0 1.3 -15.85 1.25 -15.65 1.35 -13.9 1.9 Q-13.6 2.2 -12.15 2.35 L-6.7 2.25 -6.7 2.2 -6.8 1.25 -6.65 1.05 -6.7 0.9 -6.8 0.9 M-21.15 -5.45 L-21.85 -5.45 -21.85 -5.25 -21.15 -3.45 -20.3 -0.95 -20.3 -0.85 -20.1 -0.65 -20.1 -0.75 Q-20.05 -1.1 -19.8 -0.9 L-19.95 -1.2 -20.25 -1.7 -20.55 -2.75 -20.8 -3.8 -21.15 -4.85 -21.15 -5.45 M-17.35 -5.5 L-18.3 -5.45 -18.1 -5.2 -17.6 -4.6 -16.8 -3.75 Q-16.3 -3.35 -15.9 -3.45 L-15.55 -3.4 Q-15.25 -3.35 -14.9 -3.6 L-16.9 -5.15 -17.35 -5.5 M-19.9 -0.05 L-19.3 -0.1 -19.25 -0.1 -19.05 -0.7 -19.45 -0.65 -19.65 -0.65 -19.75 -0.55 -19.85 -0.35 -19.9 -0.05 M-18.8 -0.55 L-19.0 0.45 -19.05 0.95 -18.45 0.9 -18.3 0.9 -17.1 0.05 -16.35 -0.6 Q-16.2 -0.75 -16.0 -0.85 L-16.8 -0.9 -18.85 -0.7 -18.8 -0.55 M-5.0 -0.4 L-6.5 -0.05 -6.45 0.75 -6.15 0.6 -5.05 0.35 -4.1 0.35 -4.1 -0.65 -4.15 -0.65 -5.0 -0.4 M-4.1 0.75 L-4.1 0.7 -4.25 0.7 -5.5 0.8 Q-6.4 0.95 -6.35 1.15 L-6.4 1.15 -6.3 2.25 -6.25 2.45 -6.25 2.55 -6.2 3.35 -6.1 3.3 -5.0 3.15 -3.85 2.95 Q-3.85 1.25 -4.1 0.75 M-3.95 3.35 L-5.9 3.6 -6.15 3.6 -6.15 3.9 -6.15 4.25 -6.1 4.25 -6.05 4.45 -6.25 5.1 -5.95 5.4 -5.0 5.35 -4.0 5.25 -3.75 5.3 -3.85 3.35 -3.95 3.35 M-6.1 7.8 L-11.35 6.65 -11.85 7.35 -11.85 7.65 -11.35 7.8 -9.5 8.25 -8.05 8.45 -6.4 8.75 -6.0 8.85 -5.65 8.15 -5.55 8.0 -6.1 7.8 M-5.65 9.0 L-5.0 9.25 -4.95 9.05 -4.75 8.6 -4.45 8.25 -5.2 8.15 -5.65 9.0 M-6.05 9.25 L-7.0 9.0 -8.5 8.7 -9.65 8.55 -11.55 8.05 -11.95 7.95 -12.3 8.05 -12.35 7.85 -12.35 7.8 -12.8 7.6 -13.05 7.65 -13.1 7.45 -13.05 7.35 -13.0 7.25 -12.75 6.8 -12.6 6.4 -12.3 6.15 -12.2 6.2 -12.05 6.15 -11.55 6.25 -10.2 6.45 -8.3 6.9 -4.3 7.95 -4.25 7.95 -3.95 7.9 -3.9 8.0 -3.65 8.1 -2.85 8.45 -2.2 8.85 -1.9 9.35 -2.05 9.4 -2.15 9.3 -4.65 9.75 -4.8 9.85 -5.0 9.75 -5.05 9.75 -5.1 9.6 -5.6 9.35 -5.95 9.25 -6.05 9.25 M-4.65 9.35 L-3.25 9.25 -2.9 9.25 -3.6 8.65 Q-3.7 8.45 -3.95 8.35 L-4.0 8.3 -4.65 9.35 M-2.55 9.1 L-2.45 9.1 -2.55 9.05 -2.55 9.1 M-19.6 0.3 L-20.05 0.3 -20.25 0.9 -19.5 1.15 -19.5 1.05 -19.3 0.3 -19.6 0.3 M-12.2 6.6 L-11.85 6.8 -11.65 6.55 -11.9 6.5 -12.2 6.6 -12.25 6.6 -12.2 6.6 M-12.35 7.45 L-12.25 7.5 -12.05 7.1 -12.3 7.0 -12.4 6.9 -12.5 7.0 -12.6 7.3 -12.35 7.45" fill="#000000" fill-rule="evenodd" stroke="none"/>
    <path d="M3.25 -0.1 L3.3 -0.15 3.45 -0.35 Q3.45 -0.75 3.25 -0.6 L-1.35 -1.15 -2.85 -1.1 -2.8 -2.35 -2.65 -3.0 -2.5 -3.35 -2.25 -3.65 -2.4 -3.9 -1.85 -4.45 -1.55 -4.75 -0.6 -4.75 1.3 -4.75 1.4 -4.65 1.4 -4.45 1.65 -4.45 1.7 -4.5 2.2 -4.3 2.4 -4.2 2.55 -4.2 3.6 -3.6 4.6 -2.9 Q4.8 -2.75 5.25 -2.55 L5.1 -2.55 5.0 -2.4 5.05 -2.25 5.95 -2.2 6.0 -2.2 6.75 -2.2 10.85 -2.4 11.15 -2.4 11.9 -2.45 12.15 -2.45 12.75 -3.25 13.2 -3.85 13.3 -3.85 13.5 -3.9 14.0 -3.85 13.9 -3.5 13.7 -1.5 13.4 -0.15 13.4 -0.1 11.8 0.2 9.4 0.45 7.35 0.55 6.25 0.7 4.5 0.8 4.15 0.75 3.2 0.75 3.25 0.55 3.45 0.0 3.4 -0.15 3.25 -0.1 M2.85 0.4 L2.9 0.3 2.9 0.45 2.85 0.4 M2.9 -0.25 L2.75 -0.1 2.25 0.7 0.1 4.05 -0.55 5.0 -0.8 5.0 -2.9 5.3 -3.4 5.3 -3.4 5.0 -3.45 3.25 -3.35 3.1 -3.4 2.9 -3.45 2.9 -3.55 2.1 -3.8 -0.65 -2.65 -0.85 1.4 -0.65 2.9 -0.25 M6.5 -6.1 L6.5 -5.25 6.6 -4.7 6.4 -2.9 6.45 -2.55 6.3 -2.55 5.75 -2.7 6.05 -4.4 6.0 -5.35 6.0 -5.85 6.0 -6.05 6.5 -6.1 M10.25 -2.65 L10.45 -4.8 10.4 -5.8 11.0 -5.55 11.0 -4.4 10.9 -3.1 10.9 -2.65 10.3 -2.6 10.25 -2.65 M-15.5 -0.85 L-15.45 -0.95 -15.45 -1.0 -15.5 -1.15 -15.8 -1.15 -18.3 -1.1 -19.5 -0.95 -19.5 -1.0 -19.8 -1.5 -19.95 -2.0 -20.3 -3.05 -20.85 -5.15 -20.75 -5.35 -20.75 -5.45 -18.65 -5.45 -17.8 -4.25 -17.2 -3.65 -16.85 -3.3 -16.15 -3.15 -14.85 -3.2 -14.7 -3.3 -14.5 -3.3 -14.4 -3.2 -14.25 -3.25 -14.25 -3.3 -14.2 -3.3 -14.05 -3.3 -11.35 -3.2 -7.1 -3.3 -4.9 -3.55 -2.7 -3.85 -2.75 -3.75 -3.0 -3.0 -3.25 -1.55 -3.2 -1.1 -4.15 -1.0 -4.9 -0.75 -6.7 -0.4 -6.8 -0.4 -6.9 -0.4 -6.9 -0.05 -6.85 0.0 -6.8 0.0 -6.8 0.55 -6.8 0.9 -7.05 0.9 -7.65 1.0 -9.65 0.9 -11.45 0.9 -13.05 0.7 -13.75 0.5 -14.85 0.25 -15.5 0.05 -15.4 -0.4 -15.4 -0.7 -15.45 -0.7 -15.5 -0.85 M-18.8 -0.55 L-18.85 -0.7 -16.8 -0.9 -16.0 -0.85 Q-16.2 -0.75 -16.35 -0.6 L-17.1 0.05 -18.3 0.9 -18.45 0.9 -19.05 0.95 -19.0 0.45 -18.8 -0.55" fill="#457032" fill-rule="evenodd" stroke="none"/>
    <path d="M13.8 -0.2 L14.0 -1.15 14.2 -3.2 14.4 -3.8 17.0 -2.9 17.9 -2.05 17.95 -2.0 17.85 -1.75 17.9 -1.55 16.65 -0.75 15.85 -0.4 14.9 -0.3 14.25 -0.3 13.8 -0.2 M1.75 4.6 Q2.15 4.6 2.15 3.2 L1.95 2.8 Q1.7 2.65 1.6 3.15 L1.5 4.1 Q1.4 4.6 1.75 4.6 M1.8 2.4 L2.2 2.05 2.3 2.35 1.8 2.4 M1.6 2.7 L2.35 2.7 2.4 3.65 Q2.4 5.1 1.75 5.2 L1.7 5.05 1.55 5.0 1.35 5.1 1.15 4.3 1.3 3.65 1.45 3.1 1.6 2.7 M-19.9 -0.05 L-19.85 -0.35 -19.75 -0.55 -19.65 -0.65 -19.45 -0.65 -19.05 -0.7 -19.25 -0.1 -19.3 -0.1 -19.9 -0.05 M-17.35 -5.5 L-16.9 -5.15 -14.9 -3.6 Q-15.25 -3.35 -15.55 -3.4 L-15.9 -3.45 Q-16.3 -3.35 -16.8 -3.75 L-17.6 -4.6 -18.1 -5.2 -18.3 -5.45 -17.35 -5.5 M-21.15 -5.45 L-21.15 -4.85 -20.8 -3.8 -20.55 -2.75 -20.25 -1.7 -19.95 -1.2 -19.8 -0.9 Q-20.05 -1.1 -20.1 -0.75 L-20.1 -0.65 -20.3 -0.85 -20.3 -0.95 -21.15 -3.45 -21.85 -5.25 -21.85 -5.45 -21.15 -5.45 M-3.95 3.35 L-3.85 3.35 -3.75 5.3 -4.0 5.25 -5.0 5.35 -5.95 5.4 -6.25 5.1 -6.05 4.45 -6.1 4.25 -6.15 4.25 -6.15 3.9 -6.15 3.6 -5.9 3.6 -3.95 3.35 M-4.1 0.75 Q-3.85 1.25 -3.85 2.95 L-5.0 3.15 -6.1 3.3 -6.2 3.35 -6.25 2.55 -6.25 2.45 -6.3 2.25 -6.4 1.15 -6.35 1.15 Q-6.4 0.95 -5.5 0.8 L-4.25 0.7 -4.1 0.7 -4.1 0.75 M-5.0 -0.4 L-4.15 -0.65 -4.1 -0.65 -4.1 0.35 -5.05 0.35 -6.15 0.6 -6.45 0.75 -6.5 -0.05 -5.0 -0.4 M-5.65 9.0 L-5.2 8.15 -4.45 8.25 -4.75 8.6 -4.95 9.05 -5.0 9.25 -5.65 9.0 M-12.2 6.6 L-11.9 6.5 -11.65 6.55 -11.85 6.8 -12.2 6.6 M-19.6 0.3 L-19.3 0.3 -19.5 1.05 -19.5 1.15 -20.25 0.9 -20.05 0.3 -19.6 0.3 M-12.35 7.45 L-12.6 7.3 -12.5 7.0 -12.4 6.9 -12.3 7.0 -12.05 7.1 -12.25 7.5 -12.35 7.45" fill="#831f1f" fill-rule="evenodd" stroke="none"/>
    <path d="M3.25 -0.1 L3.4 -0.15 3.45 0.0 3.25 0.55 3.2 0.75 4.15 0.75 4.5 0.8 6.25 0.7 7.35 0.55 9.4 0.45 11.8 0.2 13.4 -0.1 13.5 -0.1 13.55 0.1 13.5 0.25 13.4 0.25 13.1 1.1 13.1 1.45 12.05 1.55 9.0 1.75 8.35 1.85 2.65 2.35 2.6 2.15 2.55 2.15 2.5 1.95 2.5 1.85 Q2.4 1.5 2.2 1.5 L2.4 1.15 2.85 0.4 2.9 0.45 2.9 0.3 2.9 0.25 Q2.95 0.0 3.25 -0.1 M1.1 3.15 L0.95 3.5 0.75 4.3 0.9 5.1 0.4 5.0 0.05 4.85 0.0 4.75 1.1 3.15 M-15.5 -0.85 L-15.45 -0.7 -15.4 -0.7 -15.4 -0.4 -15.5 0.05 -14.85 0.25 -13.75 0.5 -13.05 0.7 -11.45 0.9 -9.65 0.9 -7.65 1.0 -7.05 0.9 -6.8 0.9 -6.7 0.9 -6.65 1.05 -6.8 1.25 -6.7 2.2 -6.7 2.25 -12.15 2.35 Q-13.6 2.2 -13.9 1.9 L-15.65 1.35 -15.85 1.25 -16.0 1.3 -16.0 1.2 -16.85 0.85 -17.25 0.6 -16.85 0.3 -15.8 -0.5 -15.75 -0.9 -15.5 -0.9 -15.5 -0.85" fill="#28411d" fill-rule="evenodd" stroke="none"/>
    <path d="M13.8 -0.2 L14.25 -0.3 14.9 -0.3 15.85 -0.4 16.65 -0.75 17.9 -1.55 17.9 -1.6 18.05 -1.35 17.85 -1.0 17.85 -0.25 17.3 0.4 16.15 0.95 14.9 1.05 Q14.15 1.15 14.0 1.3 L13.4 1.4 13.7 0.15 13.65 0.15 13.65 -0.15 13.8 -0.2" fill="#3e0f0f" fill-rule="evenodd" stroke="none"/>
    <path d="M3.2 -5.4 L4.0 -5.85 5.7 -6.05 5.65 -5.5 5.65 -5.0 5.75 -4.4 5.6 -3.55 5.45 -2.85 Q4.5 -3.25 3.65 -3.95 L2.55 -4.6 2.45 -4.8 2.45 -4.95 3.2 -5.4 M9.0 -6.15 L10.05 -5.95 10.15 -4.8 9.9 -2.9 9.9 -2.65 10.05 -2.6 6.75 -2.55 6.9 -4.7 6.8 -5.65 6.9 -6.0 6.9 -6.1 9.0 -6.15 M12.9 -4.2 L13.0 -4.05 11.9 -2.85 11.9 -2.8 11.2 -2.7 11.3 -3.2 11.4 -4.0 11.3 -5.45 11.7 -5.25 12.5 -4.55 12.9 -4.2" fill="#369695" fill-rule="evenodd" stroke="none"/>
    <path d="M-6.1 7.8 L-5.55 8.0 -5.65 8.15 -6.0 8.85 -6.4 8.75 -8.05 8.45 -9.5 8.25 -11.35 7.8 -11.85 7.65 -11.85 7.35 -11.35 6.65 -6.1 7.8 M-4.65 9.35 L-4.0 8.3 -3.95 8.35 Q-3.7 8.45 -3.6 8.65 L-2.9 9.25 -3.25 9.25 -4.65 9.35" fill="#515151" fill-rule="evenodd" stroke="none"/>
    <path d="M-27.75 -12.0 L27.8 -12.0 27.8 12.05 -27.75 12.05 -27.75 -12.0 Z" fill="none" stroke="#000000" stroke-linecap="round" stroke-linejoin="round" stroke-width="1.0"/>
  </g>
</svg>
