<?xml version="1.0" encoding="UTF-8" standalone="no"?>
<svg xmlns:xlink="http://www.w3.org/1999/xlink" height="12.7px" width="13.55px" xmlns="http://www.w3.org/2000/svg">
  <g transform="matrix(1.0, 0.0, 0.0, 1.0, 29.05, 34.15)">
    <path d="M-26.6 -26.15 L-26.9 -27.15 Q-27.35 -27.2 -27.35 -26.7 -27.35 -26.15 -26.8 -25.85 L-26.6 -26.15 M-23.75 -23.15 L-23.55 -23.3 Q-23.75 -24.45 -24.4 -24.05 L-24.2 -23.5 -23.75 -23.15 M-21.1 -24.5 L-21.15 -24.85 -21.55 -24.8 -21.5 -24.45 -21.15 -24.45 -21.1 -24.5 M-17.55 -28.6 Q-17.55 -29.95 -17.8 -30.35 L-18.85 -31.3 -19.8 -31.9 -20.15 -31.65 Q-17.95 -30.2 -17.95 -28.65 L-18.35 -25.6 -18.15 -25.3 Q-17.75 -25.75 -17.6 -27.1 L-17.55 -28.6 M-23.0 -28.05 L-23.85 -28.45 Q-23.8 -28.1 -23.25 -27.7 -22.7 -27.2 -22.3 -27.2 -21.7 -27.2 -21.7 -27.5 L-21.75 -27.7 Q-22.6 -27.65 -23.0 -28.05 M-24.2 -30.0 L-24.15 -29.85 Q-23.4 -29.85 -22.85 -30.4 L-22.35 -30.95 -22.45 -31.15 Q-24.2 -30.7 -24.2 -30.0 M-27.6 -28.8 L-27.55 -28.5 Q-27.15 -28.5 -27.15 -29.0 L-26.7 -29.4 -26.45 -29.65 -26.5 -29.95 Q-26.9 -29.95 -27.25 -29.45 L-27.6 -28.8 M-26.1 -32.5 L-25.15 -33.05 -22.7 -33.45 -20.2 -33.4 Q-17.5 -31.35 -17.1 -30.5 L-16.4 -28.8 -15.9 -27.1 Q-15.9 -24.85 -17.2 -23.85 -20.95 -21.95 -23.45 -21.95 -26.6 -21.95 -27.9 -25.05 -28.6 -26.8 -28.6 -28.7 -28.6 -30.35 -27.0 -31.75 L-26.1 -32.5" fill="#857e69" fill-rule="evenodd" stroke="none"/>
    <path d="M-25.85 -33.35 L-23.6 -34.0 Q-23.4 -34.0 -23.4 -34.15 L-22.3 -34.15 Q-18.55 -34.15 -16.75 -30.95 -15.5 -28.85 -15.5 -27.1 -15.5 -24.15 -17.1 -23.3 -18.1 -22.65 -20.05 -22.05 L-23.05 -21.45 Q-26.85 -21.45 -28.3 -24.7 -29.05 -26.4 -29.05 -28.7 L-28.7 -30.5 Q-28.3 -31.65 -27.55 -32.0 L-26.85 -32.6 -25.85 -33.35 M-26.1 -32.5 L-27.0 -31.75 Q-28.6 -30.35 -28.6 -28.7 -28.6 -26.8 -27.9 -25.05 -26.6 -21.95 -23.45 -21.95 -20.95 -21.95 -17.2 -23.85 -15.9 -24.85 -15.9 -27.1 L-16.4 -28.8 -17.1 -30.5 Q-17.5 -31.35 -20.2 -33.4 L-22.7 -33.45 -25.15 -33.05 -26.1 -32.5 M-27.6 -28.8 L-27.25 -29.45 Q-26.9 -29.95 -26.5 -29.95 L-26.45 -29.65 -26.7 -29.4 -27.15 -29.0 Q-27.15 -28.5 -27.55 -28.5 L-27.6 -28.8 M-24.2 -30.0 Q-24.2 -30.7 -22.45 -31.15 L-22.35 -30.95 -22.85 -30.4 Q-23.4 -29.85 -24.15 -29.85 L-24.2 -30.0 M-23.0 -28.05 Q-22.6 -27.65 -21.75 -27.7 L-21.7 -27.5 Q-21.7 -27.2 -22.3 -27.2 -22.7 -27.2 -23.25 -27.7 -23.8 -28.1 -23.85 -28.45 L-23.0 -28.05 M-17.55 -28.6 L-17.6 -27.1 Q-17.75 -25.75 -18.15 -25.3 L-18.35 -25.6 -17.95 -28.65 Q-17.95 -30.2 -20.15 -31.65 L-19.8 -31.9 -18.85 -31.3 -17.8 -30.35 Q-17.55 -29.95 -17.55 -28.6 M-21.1 -24.5 L-21.15 -24.45 -21.5 -24.45 -21.55 -24.8 -21.15 -24.85 -21.1 -24.5 M-23.75 -23.15 L-24.2 -23.5 -24.4 -24.05 Q-23.75 -24.45 -23.55 -23.3 L-23.75 -23.15 M-26.6 -26.15 L-26.8 -25.85 Q-27.35 -26.15 -27.35 -26.7 -27.35 -27.2 -26.9 -27.15 L-26.6 -26.15" fill="#000000" fill-rule="evenodd" stroke="none"/>
  </g>
</svg>
