<?xml version="1.0" encoding="UTF-8" standalone="no"?>
<svg xmlns:xlink="http://www.w3.org/1999/xlink" height="12.7px" width="13.55px" xmlns="http://www.w3.org/2000/svg">
  <g transform="matrix(1.0, 0.0, 0.0, 1.0, 15.95, 41.2)">
    <path d="M-13.5 -33.2 L-13.8 -34.2 Q-14.25 -34.25 -14.25 -33.75 -14.25 -33.2 -13.7 -32.9 L-13.5 -33.2 M-10.65 -30.2 Q-10.55 -30.2 -10.45 -30.35 -10.65 -31.5 -11.3 -31.1 L-11.1 -30.55 -10.65 -30.2 M-8.0 -31.55 L-8.05 -31.9 -8.45 -31.85 -8.4 -31.5 -8.05 -31.5 -8.0 -31.55 M-4.45 -35.65 Q-4.45 -37.0 -4.7 -37.4 L-5.75 -38.35 Q-6.5 -38.95 -6.7 -38.95 L-7.05 -38.7 Q-4.85 -37.25 -4.85 -35.7 L-5.25 -32.65 -5.05 -32.35 Q-4.65 -32.8 -4.5 -34.15 L-4.45 -35.65 M-9.9 -35.1 Q-10.35 -35.5 -10.75 -35.5 L-10.15 -34.75 Q-9.6 -34.25 -9.2 -34.25 -8.6 -34.25 -8.6 -34.55 L-8.65 -34.75 Q-9.5 -34.7 -9.9 -35.1 M-11.1 -37.05 L-11.05 -36.9 Q-10.3 -36.9 -9.75 -37.45 -9.25 -37.8 -9.25 -38.0 L-9.35 -38.2 Q-11.1 -37.75 -11.1 -37.05 M-14.5 -35.85 L-14.45 -35.55 Q-14.05 -35.55 -14.05 -36.05 L-13.6 -36.45 -13.35 -36.7 -13.4 -37.0 -14.15 -36.5 -14.5 -35.85 M-13.0 -39.55 L-12.05 -40.1 -9.6 -40.5 -7.1 -40.45 Q-4.4 -38.4 -4.0 -37.55 L-3.3 -35.85 -2.8 -34.15 Q-2.8 -31.9 -4.1 -30.9 -7.85 -29.0 -10.35 -29.0 -13.5 -29.0 -14.8 -32.1 -15.5 -33.85 -15.5 -35.75 -15.5 -37.4 -13.9 -38.8 L-13.0 -39.55" fill="#857e69" fill-rule="evenodd" stroke="none"/>
    <path d="M-12.75 -40.4 L-10.5 -41.05 -10.3 -41.2 -9.2 -41.2 Q-5.45 -41.2 -3.65 -38.0 -2.4 -35.9 -2.4 -34.15 -2.4 -31.2 -4.0 -30.35 -5.0 -29.7 -6.95 -29.1 L-9.95 -28.5 Q-13.75 -28.5 -15.2 -31.75 -15.95 -33.45 -15.95 -35.75 L-15.6 -37.55 Q-15.2 -38.7 -14.45 -39.05 -14.3 -39.1 -13.75 -39.65 L-12.75 -40.4 M-13.0 -39.55 L-13.9 -38.8 Q-15.5 -37.4 -15.5 -35.75 -15.5 -33.85 -14.8 -32.1 -13.5 -29.0 -10.35 -29.0 -7.85 -29.0 -4.1 -30.9 -2.8 -31.9 -2.8 -34.15 L-3.3 -35.85 -4.0 -37.55 Q-4.4 -38.4 -7.1 -40.45 L-9.6 -40.5 -12.05 -40.1 -13.0 -39.55 M-14.5 -35.85 L-14.15 -36.5 -13.4 -37.0 -13.35 -36.7 -13.6 -36.45 -14.05 -36.05 Q-14.05 -35.55 -14.45 -35.55 L-14.5 -35.85 M-11.1 -37.05 Q-11.1 -37.75 -9.35 -38.2 L-9.25 -38.0 Q-9.25 -37.8 -9.75 -37.45 -10.3 -36.9 -11.05 -36.9 L-11.1 -37.05 M-9.9 -35.1 Q-9.5 -34.7 -8.65 -34.75 L-8.6 -34.55 Q-8.6 -34.25 -9.2 -34.25 -9.6 -34.25 -10.15 -34.75 L-10.75 -35.5 Q-10.35 -35.5 -9.9 -35.1 M-4.45 -35.65 L-4.5 -34.15 Q-4.65 -32.8 -5.05 -32.35 L-5.25 -32.65 -4.85 -35.7 Q-4.85 -37.25 -7.05 -38.7 L-6.7 -38.95 Q-6.5 -38.95 -5.75 -38.35 L-4.7 -37.4 Q-4.45 -37.0 -4.45 -35.65 M-8.0 -31.55 L-8.05 -31.5 -8.4 -31.5 -8.45 -31.85 -8.05 -31.9 -8.0 -31.55 M-10.65 -30.2 L-11.1 -30.55 -11.3 -31.1 Q-10.65 -31.5 -10.45 -30.35 -10.55 -30.2 -10.65 -30.2 M-13.5 -33.2 L-13.7 -32.9 Q-14.25 -33.2 -14.25 -33.75 -14.25 -34.25 -13.8 -34.2 L-13.5 -33.2" fill="#000000" fill-rule="evenodd" stroke="none"/>
  </g>
</svg>
