<?xml version="1.0" encoding="UTF-8" standalone="no"?>
<svg xmlns:xlink="http://www.w3.org/1999/xlink" height="16.35px" width="15.95px" xmlns="http://www.w3.org/2000/svg">
  <g transform="matrix(1.0, 0.0, 0.0, 1.0, 8.3, 7.75)">
    <path d="M3.95 -6.9 L4.0 -6.75 4.0 3.8 4.2 3.9 4.35 3.85 4.35 -6.4 4.8 -5.85 Q6.05 -4.35 6.3 -4.35 L6.75 -3.65 7.3 -2.75 7.25 -2.25 7.25 -2.2 Q6.9 -2.15 6.9 -0.8 L6.9 1.1 6.75 2.85 Q6.65 3.75 6.95 4.2 5.8 4.95 4.2 6.55 L2.75 8.05 0.65 8.05 -3.5 7.95 -4.05 8.0 Q-4.95 6.85 -5.8 6.0 L-5.9 5.9 Q-6.7 4.85 -8.0 3.75 L-7.9 -0.95 -8.0 -1.95 -7.95 -2.0 -7.85 -2.6 -7.0 -3.7 -5.6 -5.0 Q-3.6 -6.9 -3.6 -7.2 L-3.6 -7.35 -2.65 -7.35 -2.7 -7.1 -2.65 -6.15 -2.65 -4.3 -2.6 -0.85 -2.35 -0.9 -2.3 -7.35 3.6 -7.35 3.95 -6.9 M-5.4 -1.15 L-5.5 -1.8 Q-5.8 -1.65 -5.8 0.0 L-5.75 6.0 -5.5 6.0 -5.4 -1.15 M-1.75 -6.75 Q-2.15 -6.65 -2.15 -6.45 L-1.7 -6.15 Q-1.4 -6.15 -1.4 -6.45 -1.4 -6.9 -1.75 -6.75 M1.25 7.1 Q1.25 7.4 1.55 7.4 1.95 7.4 1.95 7.0 L1.75 6.7 Q1.25 6.7 1.25 7.1 M3.05 6.7 L3.0 6.35 Q2.4 6.25 2.4 7.0 2.4 7.35 2.7 7.35 3.05 7.35 3.05 6.7 M0.95 -4.6 L0.9 -4.65 0.65 -4.65 0.65 7.95 0.7 8.0 0.95 7.95 0.95 -4.6" fill="#734d26" fill-rule="evenodd" stroke="none"/>
    <path d="M3.95 -6.9 L3.6 -7.35 -2.3 -7.35 -2.35 -0.9 -2.6 -0.85 -2.65 -4.3 -2.65 -6.15 -2.7 -7.1 -2.65 -7.35 -3.6 -7.35 -3.6 -7.2 Q-3.6 -6.9 -5.6 -5.0 L-7.0 -3.7 -7.85 -2.6 -7.95 -2.0 -8.0 -1.95 -7.9 -0.95 -8.0 3.75 Q-6.7 4.85 -5.9 5.9 L-5.8 6.0 Q-4.95 6.85 -4.05 8.0 L-3.5 7.95 0.65 8.05 2.75 8.05 4.2 6.55 Q5.8 4.95 6.95 4.2 6.65 3.75 6.75 2.85 L6.9 1.1 6.9 -0.8 Q6.9 -2.15 7.25 -2.2 L7.25 -2.25 7.3 -2.75 6.75 -3.65 6.3 -4.35 Q6.05 -4.35 4.8 -5.85 L4.35 -6.4 4.35 3.85 4.2 3.9 4.0 3.8 4.0 -6.75 3.95 -6.9 M4.0 -7.45 L3.95 -7.35 4.05 -7.25 Q6.45 -5.1 7.45 -3.05 L7.6 -3.1 7.65 -2.9 7.6 -1.65 7.45 -1.6 7.35 -1.65 7.2 4.0 7.3 3.95 7.35 4.1 Q7.35 4.35 5.35 6.2 L3.3 8.05 4.7 8.0 4.75 8.15 3.05 8.25 2.5 8.6 2.45 8.4 2.55 8.25 -3.7 8.35 -3.9 8.35 -3.9 8.45 -4.05 8.5 -7.1 5.2 -8.0 4.15 -8.0 4.2 -8.1 4.25 -8.25 4.15 -8.25 3.8 -8.3 3.75 -8.3 3.5 -8.25 3.55 -8.25 -2.1 -8.2 -2.1 -8.25 -2.3 -8.25 -2.5 -8.25 -2.85 -8.05 -2.95 -8.0 -3.0 -7.95 -3.05 -8.0 -3.15 Q-8.0 -3.55 -6.05 -5.35 L-3.7 -7.35 -3.75 -7.35 -3.8 -7.4 -3.8 -7.65 -2.45 -7.7 -2.3 -7.75 -2.3 -7.7 3.95 -7.65 4.0 -7.45 M0.95 -4.6 L0.95 7.95 0.7 8.0 0.65 7.95 0.65 -4.65 0.9 -4.65 0.95 -4.6 M3.05 6.7 Q3.05 7.35 2.7 7.35 2.4 7.35 2.4 7.0 2.4 6.25 3.0 6.35 L3.05 6.7 M1.25 7.1 Q1.25 6.7 1.75 6.7 L1.95 7.0 Q1.95 7.4 1.55 7.4 1.25 7.4 1.25 7.1 M-1.75 -6.75 Q-1.4 -6.9 -1.4 -6.45 -1.4 -6.15 -1.7 -6.15 L-2.15 -6.45 Q-2.15 -6.65 -1.75 -6.75 M-5.4 -1.15 L-5.5 6.0 -5.75 6.0 -5.8 0.0 Q-5.8 -1.65 -5.5 -1.8 L-5.4 -1.15" fill="#000000" fill-rule="evenodd" stroke="none"/>
  </g>
</svg>
