<?xml version="1.0" encoding="UTF-8" standalone="no"?>
<svg xmlns:xlink="http://www.w3.org/1999/xlink" height="5.9px" width="33.55px" xmlns="http://www.w3.org/2000/svg">
  <g transform="matrix(1.0, 0.0, 0.0, 1.0, 31.3, 2.9)">
    <path d="M2.1 -2.3 L2.2 -2.0 2.1 1.65 2.1 1.7 2.2 1.75 2.2 1.8 2.1 3.0 1.65 3.0 -1.9 2.85 -1.9 2.8 -1.95 2.75 -1.75 1.65 -7.95 1.65 -8.0 1.65 -8.1 1.75 -8.3 1.65 -12.0 1.6 -12.1 1.6 -13.0 1.6 -13.15 1.65 -13.2 1.6 -15.85 1.6 -15.9 1.65 -15.95 1.7 -16.15 1.6 -17.35 1.6 -17.6 1.65 -17.7 1.6 -22.55 1.55 -22.6 1.65 -22.8 1.7 -22.9 1.9 -22.95 1.95 -23.45 1.95 -23.9 2.05 -24.1 2.2 -24.05 2.2 -24.0 2.25 -26.3 2.4 Q-29.05 2.25 -30.35 -0.25 L-30.5 -0.4 -30.55 -1.95 -30.6 -1.95 -30.7 -1.95 -31.1 -2.05 -31.25 -2.15 -31.3 -2.15 -31.25 -2.65 -31.25 -2.7 -31.2 -2.8 -31.15 -2.9 -31.0 -2.85 -22.55 -2.85 -22.1 -2.75 -22.05 -2.7 -22.05 -2.65 -22.05 -2.6 -22.05 -2.2 -22.1 -2.05 -22.1 -2.0 -22.15 -1.9 -21.8 -1.8 -21.75 -1.75 -21.7 -1.45 -21.7 -1.4 -21.65 -1.25 -21.25 -1.2 -16.1 -1.2 -16.1 -1.25 -16.05 -1.3 -16.0 -1.3 -15.9 -1.2 -15.85 -1.2 -14.5 -1.2 -14.5 -1.25 -14.45 -1.3 -14.4 -1.3 -14.35 -1.35 -14.25 -1.25 -14.2 -1.25 -14.2 -1.2 -1.8 -1.2 -1.75 -2.2 -1.75 -2.25 -1.7 -2.3 -1.6 -2.35 2.05 -2.35 2.1 -2.3 M1.25 -1.2 L1.45 -1.15 1.45 -1.1 1.45 -1.0 1.45 -0.95 1.65 -0.65 1.7 -0.6 1.7 0.2 1.7 0.4 1.65 0.5 1.6 0.55 1.55 1.35 1.55 1.4 1.6 1.5 1.6 1.55 1.55 1.6 1.45 1.65 1.3 1.55 1.2 1.6 1.15 1.65 -1.5 1.65 -1.65 2.55 1.75 2.6 1.8 2.65 1.95 2.65 1.9 1.95 1.9 1.9 1.8 1.8 1.8 1.65 1.9 -2.0 -1.45 -2.0 -1.45 -1.95 -1.55 -1.2 1.05 -1.2 1.1 -1.2 1.15 -1.25 1.2 -1.25 1.25 -1.2 M0.9 -0.9 L-7.95 -0.95 -7.9 -0.9 -7.85 -0.9 -8.4 0.55 -8.45 0.6 -8.4 0.75 -8.45 0.85 -8.45 0.9 -8.35 1.0 -8.3 1.05 -8.2 1.1 -8.1 1.3 1.15 1.25 1.25 1.25 1.25 1.2 1.25 1.1 1.3 1.05 1.3 1.0 1.3 0.55 1.3 0.4 1.35 0.35 1.4 0.3 1.4 -0.3 1.4 -0.5 1.2 -0.8 1.05 -0.75 1.0 -0.8 0.9 -0.9 M0.0 -0.05 L-0.1 0.15 -0.05 0.5 -0.05 0.6 0.45 0.55 0.45 0.2 0.4 0.15 0.35 0.0 0.05 -0.05 0.0 -0.05 M0.65 -0.1 L0.7 -0.05 0.75 0.55 0.7 0.65 Q0.45 1.1 -0.1 0.9 L-0.3 0.65 -0.3 0.45 -0.45 0.45 -0.45 0.4 -0.5 0.3 -0.5 0.2 -0.1 -0.25 0.05 -0.4 0.45 -0.25 0.5 -0.3 0.55 -0.25 0.6 -0.25 0.65 -0.1 M-30.95 -2.4 L-30.95 -2.3 -30.95 -2.25 -30.55 -2.25 -30.5 -2.25 -30.45 -2.2 -22.4 -2.15 -22.35 -2.25 -22.35 -2.45 -22.6 -2.45 -30.9 -2.65 -30.95 -2.4 M-30.25 -0.6 L-30.0 -0.25 Q-29.35 0.95 -28.2 1.55 L-27.55 1.85 -27.35 1.9 -27.3 1.95 Q-25.7 2.1 -24.4 1.35 L-24.4 1.3 Q-23.6 0.6 -23.15 -0.3 L-22.95 -0.65 -22.9 -0.75 -22.45 -1.95 -30.35 -1.95 -30.25 -0.65 -30.25 -0.6 M-22.9 -0.05 L-23.05 0.05 -23.25 0.4 -23.7 1.0 -23.85 1.15 -23.8 1.2 -24.95 1.95 -24.7 2.0 -23.75 1.6 -23.65 1.65 -23.35 1.55 -23.2 1.7 -23.1 1.6 -23.0 1.45 -22.95 1.45 -22.85 1.55 -22.7 0.95 -22.75 0.95 -22.8 0.85 Q-22.65 0.1 -22.3 -0.5 L-22.1 -1.1 -22.05 -1.1 -22.0 -1.4 -22.0 -1.45 -21.95 -1.45 -22.0 -1.55 -22.25 -1.65 -22.9 -0.15 -22.9 -0.1 -22.9 -0.05 M-21.9 -0.55 L-22.5 1.3 -22.5 1.35 -17.55 1.35 -17.55 1.25 -17.35 1.05 -17.05 0.35 -17.05 0.25 -17.2 0.0 -17.5 -0.65 -17.6 -0.75 -17.6 -0.9 -17.6 -0.95 -21.05 -0.95 -21.15 -0.95 -21.7 -0.95 -21.9 -0.55 M-16.95 -0.1 L-16.95 0.0 -16.85 0.1 -16.25 -0.95 -17.3 -0.95 -17.3 -0.9 -16.95 -0.1 M-12.5 -0.95 L-14.2 -0.95 -14.25 -0.9 -13.5 -0.05 -12.5 -0.95 -12.45 -0.95 -12.5 -0.95 M-14.75 -0.95 L-15.95 -0.95 -16.7 0.45 -16.7 0.5 -16.75 0.5 -16.75 0.6 -17.05 1.05 -17.05 1.15 -17.25 1.35 -16.1 1.35 -15.9 1.15 -15.85 1.1 -15.45 0.35 -15.35 0.25 -15.35 0.2 -15.3 0.1 -14.75 -0.7 -14.8 -0.8 -14.7 -0.9 -14.75 -0.9 -14.75 -0.95 -14.7 -0.95 -14.75 -0.95 M-14.55 -0.55 L-13.8 0.35 -13.75 0.4 -13.7 0.45 -13.7 0.4 -13.55 0.55 -13.55 0.6 -13.55 0.65 -13.35 1.1 -13.3 1.2 -13.1 1.25 -13.05 1.3 -12.35 1.3 -12.4 1.2 -12.45 1.2 -12.6 1.2 -14.35 -0.65 -14.45 -0.75 -14.55 -0.55 M-12.45 -0.7 L-13.3 0.15 -12.45 1.0 -12.4 0.95 -12.05 1.25 -12.0 1.25 -11.95 1.3 -11.1 1.3 Q-11.1 0.65 -11.35 0.05 L-11.4 0.0 -11.9 0.4 -11.9 0.5 -12.1 0.7 -12.15 0.85 -12.15 0.9 -12.5 0.85 -12.4 0.55 -12.2 0.35 -10.85 -0.95 -12.35 -0.95 -12.25 -0.85 -12.25 -0.8 Q-12.35 -0.65 -12.45 -0.7 M-11.1 -0.2 L-11.1 -0.15 Q-10.9 0.2 -10.85 0.65 L-9.85 0.55 -9.8 0.55 -9.4 -0.95 -10.45 -0.95 -11.1 -0.35 -11.1 -0.2 M-9.15 -0.95 L-9.25 -0.1 -8.75 0.55 -8.05 -0.95 -9.15 -0.95 M-8.55 1.25 L-9.3 0.0 -9.6 0.6 -9.55 0.6 -9.5 0.65 -9.45 0.7 -9.5 0.8 -9.65 0.85 -9.75 1.25 -9.75 1.3 -8.5 1.3 -8.55 1.25 M-9.95 0.9 L-10.85 0.85 -10.9 1.05 -10.9 1.1 -10.8 1.3 -10.15 1.3 -10.15 1.25 -10.05 1.15 -9.95 0.9 M-13.8 0.85 L-14.15 1.3 -14.15 1.35 -13.5 1.3 -13.8 0.85 M-14.5 1.25 L-13.95 0.65 Q-14.25 0.1 -14.7 -0.35 L-15.05 0.3 -15.05 0.35 -15.7 1.35 -14.45 1.35 -14.5 1.25 M-25.1 2.05 L-25.05 2.0 -25.15 2.05 -25.1 2.05" fill="#000000" fill-rule="evenodd" stroke="none"/>
    <path d="M1.25 -1.2 L1.2 -1.25 1.15 -1.25 1.1 -1.2 1.05 -1.2 -1.55 -1.2 -1.45 -1.95 -1.45 -2.0 1.9 -2.0 1.8 1.65 1.8 1.8 1.9 1.9 1.9 1.95 1.95 2.65 1.8 2.65 1.75 2.6 -1.65 2.55 -1.5 1.65 1.15 1.65 1.2 1.6 1.3 1.55 1.45 1.65 1.55 1.6 1.6 1.55 1.6 1.5 1.55 1.4 1.55 1.35 1.6 0.55 1.65 0.5 1.7 0.4 1.7 0.2 1.7 -0.6 1.65 -0.65 1.45 -0.95 1.45 -1.0 1.45 -1.1 1.45 -1.15 1.25 -1.2 M0.0 -0.05 L0.05 -0.05 0.35 0.0 0.4 0.15 0.45 0.2 0.45 0.55 -0.05 0.6 -0.05 0.5 -0.1 0.15 0.0 -0.05" fill="#a69b9b" fill-rule="evenodd" stroke="none"/>
    <path d="M0.9 -0.9 L1.0 -0.8 1.05 -0.75 1.2 -0.8 1.4 -0.5 1.4 -0.3 1.4 0.3 1.35 0.35 1.3 0.4 1.3 0.55 1.3 1.0 1.3 1.05 1.25 1.1 1.25 1.2 1.25 1.25 1.15 1.25 -8.1 1.3 -8.2 1.1 -8.3 1.05 -8.35 1.0 -8.45 0.9 -8.45 0.85 -8.4 0.75 -8.45 0.6 -8.4 0.55 -7.85 -0.9 -7.9 -0.9 -7.95 -0.95 0.9 -0.9 M0.65 -0.1 L0.6 -0.25 0.55 -0.25 0.5 -0.3 0.45 -0.25 0.05 -0.4 -0.1 -0.25 -0.5 0.2 -0.5 0.3 -0.45 0.4 -0.45 0.45 -0.3 0.45 -0.3 0.65 -0.1 0.9 Q0.45 1.1 0.7 0.65 L0.75 0.55 0.7 -0.05 0.65 -0.1 M-30.25 -0.6 L-30.25 -0.65 -30.35 -1.95 -22.45 -1.95 -22.9 -0.75 -22.95 -0.65 -23.15 -0.3 Q-23.6 0.6 -24.4 1.3 L-24.4 1.35 Q-25.7 2.1 -27.3 1.95 L-27.35 1.9 -27.55 1.85 -28.2 1.55 Q-29.35 0.95 -30.0 -0.25 L-30.25 -0.6 M-21.9 -0.55 L-21.7 -0.95 -21.15 -0.95 -21.05 -0.95 -17.6 -0.95 -17.6 -0.9 -17.6 -0.75 -17.5 -0.65 -17.2 0.0 -17.05 0.25 -17.05 0.35 -17.35 1.05 -17.55 1.25 -17.55 1.35 -22.5 1.35 -22.5 1.3 -21.9 -0.55" fill="#715426" fill-rule="evenodd" stroke="none"/>
    <path d="M-30.95 -2.4 L-30.9 -2.65 -22.6 -2.45 -22.35 -2.45 -22.35 -2.25 -22.4 -2.15 -30.45 -2.2 -30.5 -2.25 -30.55 -2.25 -30.95 -2.25 -30.95 -2.3 -30.95 -2.4 M-22.9 -0.05 L-22.9 -0.1 -22.9 -0.15 -22.25 -1.65 -22.0 -1.55 -21.95 -1.45 -22.0 -1.45 -22.0 -1.4 -22.05 -1.1 -22.1 -1.1 -22.3 -0.5 Q-22.65 0.1 -22.8 0.85 L-22.75 0.95 -22.7 0.95 -22.85 1.55 -22.95 1.45 -23.0 1.45 -23.1 1.6 -23.2 1.7 -23.35 1.55 -23.65 1.65 -23.75 1.6 -24.7 2.0 -24.95 1.95 -23.8 1.2 -23.85 1.15 -23.7 1.0 -23.25 0.4 -23.05 0.05 -22.9 -0.05" fill="#9d6f37" fill-rule="evenodd" stroke="none"/>
    <path d="M-12.5 -0.95 L-13.5 -0.05 -14.25 -0.9 -14.2 -0.95 -12.5 -0.95 M-16.95 -0.1 L-17.3 -0.9 -17.3 -0.95 -16.25 -0.95 -16.85 0.1 -16.95 0.0 -16.95 -0.1 M-14.75 -0.95 L-14.75 -0.9 -14.7 -0.9 -14.8 -0.8 -14.75 -0.7 -15.3 0.1 -15.35 0.2 -15.35 0.25 -15.45 0.35 -15.85 1.1 -15.9 1.15 -16.1 1.35 -17.25 1.35 -17.05 1.15 -17.05 1.05 -16.75 0.6 -16.75 0.5 -16.7 0.5 -16.7 0.45 -15.95 -0.95 -14.75 -0.95 M-14.5 1.25 L-14.45 1.35 -15.7 1.35 -15.05 0.35 -15.05 0.3 -14.7 -0.35 Q-14.25 0.1 -13.95 0.65 L-14.5 1.25 M-13.8 0.85 L-13.5 1.3 -14.15 1.35 -14.15 1.3 -13.8 0.85 M-9.95 0.9 L-10.05 1.15 -10.15 1.25 -10.15 1.3 -10.8 1.3 -10.9 1.1 -10.9 1.05 -10.85 0.85 -9.95 0.9 M-8.55 1.25 L-8.5 1.3 -9.75 1.3 -9.75 1.25 -9.65 0.85 -9.5 0.8 -9.45 0.7 -9.5 0.65 -9.55 0.6 -9.6 0.6 -9.3 0.0 -8.55 1.25 M-9.15 -0.95 L-8.05 -0.95 -8.75 0.55 -9.25 -0.1 -9.15 -0.95 M-11.1 -0.2 L-11.1 -0.35 -10.45 -0.95 -9.4 -0.95 -9.8 0.55 -9.85 0.55 -10.85 0.65 Q-10.9 0.2 -11.1 -0.15 L-11.1 -0.2 M-12.45 -0.7 Q-12.35 -0.65 -12.25 -0.8 L-12.25 -0.85 -12.35 -0.95 -10.85 -0.95 -12.2 0.35 -12.4 0.55 -12.5 0.85 -12.15 0.9 -12.15 0.85 -12.1 0.7 -11.9 0.5 -11.9 0.4 -11.4 0.0 -11.35 0.05 Q-11.1 0.65 -11.1 1.3 L-11.95 1.3 -12.0 1.25 -12.05 1.25 -12.4 0.95 -12.45 1.0 -13.3 0.15 -12.45 -0.7 M-14.55 -0.55 L-14.45 -0.75 -14.35 -0.65 -12.6 1.2 -12.45 1.2 -12.4 1.2 -12.35 1.3 -13.05 1.3 -13.1 1.25 -13.3 1.2 -13.35 1.1 -13.55 0.65 -13.55 0.6 -13.55 0.55 -13.7 0.4 -13.7 0.45 -13.75 0.4 -13.8 0.35 -14.55 -0.55" fill="#e3cdb3" fill-rule="evenodd" stroke="none"/>
  </g>
</svg>
