<?xml version="1.0" encoding="UTF-8" standalone="no"?>
<svg xmlns:xlink="http://www.w3.org/1999/xlink" height="8.3px" width="8.3px" xmlns="http://www.w3.org/2000/svg">
  <g transform="matrix(1.0, 0.0, 0.0, 1.0, 30.3, 8.85)">
    <path d="M-27.9 -2.45 L-28.5 -2.95 -28.5 -2.9 Q-28.7 -2.55 -28.0 -2.25 L-27.95 -2.3 -27.85 -2.4 -27.9 -2.45 M-27.25 -3.7 L-27.3 -3.65 -27.4 -3.55 Q-27.2 -3.1 -26.8 -3.25 L-27.25 -3.7 M-25.45 -5.3 L-25.55 -5.35 -25.6 -5.3 -25.65 -5.0 Q-25.45 -4.75 -25.3 -5.0 L-25.3 -5.05 -25.4 -5.25 -25.45 -5.3 M-28.6 -3.9 Q-28.45 -3.8 -28.35 -4.0 L-28.4 -4.05 -28.45 -4.25 -28.55 -4.3 -28.6 -4.35 Q-28.85 -4.15 -28.6 -3.9 M-29.15 -5.45 L-29.2 -5.5 -29.25 -5.45 Q-29.6 -4.6 -29.35 -3.7 L-29.25 -3.65 -29.15 -3.7 -29.1 -3.8 -29.1 -5.4 -29.15 -5.45 M-27.5 -6.55 L-27.65 -6.65 -28.15 -6.3 -28.15 -6.25 -28.1 -6.15 Q-27.75 -6.15 -27.5 -6.5 L-27.5 -6.55 M-25.9 -8.05 L-26.05 -8.2 -27.55 -7.8 -27.55 -7.75 -27.55 -7.65 Q-26.7 -7.55 -25.9 -8.05 M-24.7 -1.7 L-24.85 -1.85 Q-25.3 -1.55 -25.85 -1.4 L-25.85 -1.35 -25.85 -1.25 Q-25.2 -1.1 -24.7 -1.7 M-23.85 -4.3 L-23.9 -4.35 -23.9 -4.3 Q-24.1 -3.95 -23.8 -3.4 L-23.6 -3.45 -23.55 -3.5 -23.8 -4.25 -23.85 -4.3 M-23.55 -6.55 L-23.65 -6.5 -23.7 -6.35 -23.45 -6.25 -23.3 -6.05 -23.1 -5.25 -23.1 -5.2 -22.9 -5.2 Q-22.7 -6.15 -23.55 -6.55 M-22.85 -6.9 L-22.7 -6.85 Q-22.25 -6.15 -22.3 -5.3 -22.45 -4.0 -22.85 -2.8 L-22.95 -2.7 -23.2 -2.2 Q-24.3 -0.55 -26.45 -0.8 -28.3 -1.05 -29.35 -2.6 L-29.45 -2.85 -29.7 -3.25 -29.85 -3.6 -29.95 -4.0 -30.0 -4.0 -30.0 -4.05 -30.0 -4.65 Q-30.0 -5.55 -29.6 -6.35 -28.9 -7.75 -27.45 -8.15 L-27.7 -8.3 -27.6 -8.3 -26.95 -8.55 Q-24.95 -8.6 -23.45 -7.3 L-23.35 -7.25 -22.95 -6.95 -22.85 -6.9" fill="#95917b" fill-rule="evenodd" stroke="none"/>
    <path d="M-22.4 -6.75 L-22.1 -6.4 Q-21.95 -5.65 -22.05 -4.9 L-22.6 -2.6 -22.65 -2.55 -22.75 -2.5 Q-23.65 -0.4 -26.1 -0.55 L-28.15 -1.0 -28.8 -1.65 -28.9 -1.75 -29.35 -2.15 -29.65 -2.45 -29.65 -2.5 -29.7 -2.75 -29.95 -3.05 -30.3 -4.35 Q-30.35 -5.5 -29.95 -6.5 L-29.95 -6.55 -29.85 -6.6 -29.8 -6.65 -29.8 -6.7 -29.75 -6.75 -29.65 -6.9 -29.7 -6.95 -29.7 -7.0 -29.75 -7.0 Q-29.5 -7.8 -28.7 -8.2 L-26.95 -8.85 Q-25.05 -8.85 -23.45 -7.8 L-22.4 -6.75 M-22.85 -6.9 L-22.95 -6.95 -23.35 -7.25 -23.45 -7.3 Q-24.95 -8.6 -26.95 -8.55 L-27.6 -8.3 -27.7 -8.3 -27.45 -8.15 Q-28.9 -7.75 -29.6 -6.35 -30.0 -5.55 -30.0 -4.65 L-30.0 -4.05 -30.0 -4.0 -29.95 -4.0 -29.85 -3.6 -29.7 -3.25 -29.45 -2.85 -29.35 -2.6 Q-28.3 -1.05 -26.45 -0.8 -24.3 -0.55 -23.2 -2.2 L-22.95 -2.7 -22.85 -2.8 Q-22.45 -4.0 -22.3 -5.3 -22.25 -6.15 -22.7 -6.85 L-22.85 -6.9 M-23.55 -6.55 Q-22.7 -6.15 -22.9 -5.2 L-23.1 -5.2 -23.1 -5.25 -23.3 -6.05 -23.45 -6.25 -23.7 -6.35 -23.65 -6.5 -23.55 -6.55 M-23.85 -4.3 L-23.8 -4.25 -23.55 -3.5 -23.6 -3.45 -23.8 -3.4 Q-24.1 -3.95 -23.9 -4.3 L-23.9 -4.35 -23.85 -4.3 M-24.7 -1.7 Q-25.2 -1.1 -25.85 -1.25 L-25.85 -1.35 -25.85 -1.4 Q-25.3 -1.55 -24.85 -1.85 L-24.7 -1.7 M-25.9 -8.05 Q-26.7 -7.55 -27.55 -7.65 L-27.55 -7.75 -27.55 -7.8 -26.05 -8.2 -25.9 -8.05 M-27.5 -6.55 L-27.5 -6.5 Q-27.75 -6.15 -28.1 -6.15 L-28.15 -6.25 -28.15 -6.3 -27.65 -6.65 -27.5 -6.55 M-29.15 -5.45 L-29.1 -5.4 -29.1 -3.8 -29.15 -3.7 -29.25 -3.65 -29.35 -3.7 Q-29.6 -4.6 -29.25 -5.45 L-29.2 -5.5 -29.15 -5.45 M-28.6 -3.9 Q-28.85 -4.15 -28.6 -4.35 L-28.55 -4.3 -28.45 -4.25 -28.4 -4.05 -28.35 -4.0 Q-28.45 -3.8 -28.6 -3.9 M-25.45 -5.3 L-25.4 -5.25 -25.3 -5.05 -25.3 -5.0 Q-25.45 -4.75 -25.65 -5.0 L-25.6 -5.3 -25.55 -5.35 -25.45 -5.3 M-27.25 -3.7 L-26.8 -3.25 Q-27.2 -3.1 -27.4 -3.55 L-27.3 -3.65 -27.25 -3.7 M-27.9 -2.45 L-27.85 -2.4 -27.95 -2.3 -28.0 -2.25 Q-28.7 -2.55 -28.5 -2.9 L-28.5 -2.95 -27.9 -2.45" fill="#000000" fill-rule="evenodd" stroke="none"/>
  </g>
</svg>
