<?xml version="1.0" encoding="UTF-8" standalone="no"?>
<svg xmlns:xlink="http://www.w3.org/1999/xlink" height="8.3px" width="8.3px" xmlns="http://www.w3.org/2000/svg">
  <g transform="matrix(1.0, 0.0, 0.0, 1.0, 29.7, 11.6)">
    <path d="M-27.3 -5.2 L-27.9 -5.7 -27.9 -5.65 Q-28.1 -5.3 -27.4 -5.0 L-27.35 -5.05 -27.25 -5.15 -27.3 -5.2 M-26.65 -6.45 L-26.7 -6.4 -26.8 -6.3 Q-26.6 -5.85 -26.2 -6.0 L-26.65 -6.45 M-24.85 -8.05 L-24.95 -8.1 -25.0 -8.05 -25.05 -7.75 Q-24.85 -7.5 -24.7 -7.75 L-24.7 -7.8 -24.8 -8.0 -24.85 -8.05 M-28.0 -6.65 Q-27.85 -6.55 -27.75 -6.75 L-27.8 -6.8 -27.85 -7.0 -27.95 -7.05 -28.0 -7.1 Q-28.25 -6.9 -28.0 -6.65 M-28.55 -8.2 L-28.6 -8.25 -28.65 -8.2 Q-29.0 -7.35 -28.75 -6.45 L-28.65 -6.4 -28.55 -6.45 -28.5 -6.55 -28.5 -8.15 -28.55 -8.2 M-26.9 -9.3 L-27.05 -9.4 -27.55 -9.05 -27.55 -9.0 -27.5 -8.9 Q-27.15 -8.9 -26.9 -9.25 L-26.9 -9.3 M-25.3 -10.8 L-25.45 -10.95 -26.95 -10.55 -26.95 -10.5 -26.95 -10.4 Q-26.1 -10.3 -25.3 -10.8 M-24.1 -4.45 L-24.25 -4.6 Q-24.7 -4.3 -25.25 -4.15 L-25.25 -4.1 -25.25 -4.0 Q-24.6 -3.85 -24.1 -4.45 M-23.25 -7.05 L-23.3 -7.1 -23.3 -7.05 Q-23.5 -6.7 -23.2 -6.15 L-23.0 -6.2 -22.95 -6.25 -23.2 -7.0 -23.25 -7.05 M-22.95 -9.3 L-23.05 -9.25 -23.1 -9.1 -22.85 -9.0 -22.7 -8.8 -22.5 -8.0 -22.5 -7.95 -22.3 -7.95 Q-22.1 -8.9 -22.95 -9.3 M-22.25 -9.65 L-22.1 -9.6 Q-21.65 -8.9 -21.7 -8.05 -21.85 -6.75 -22.25 -5.55 L-22.35 -5.45 -22.6 -4.95 Q-23.7 -3.3 -25.85 -3.55 -27.7 -3.8 -28.75 -5.35 L-28.85 -5.6 -29.1 -6.0 -29.25 -6.35 -29.35 -6.75 -29.4 -6.75 -29.4 -6.8 -29.4 -7.4 Q-29.4 -8.3 -29.0 -9.1 -28.3 -10.5 -26.85 -10.9 L-27.1 -11.05 -27.0 -11.05 Q-26.65 -11.1 -26.35 -11.3 -24.35 -11.35 -22.85 -10.05 L-22.75 -10.0 -22.35 -9.7 -22.25 -9.65" fill="#95917b" fill-rule="evenodd" stroke="none"/>
    <path d="M-21.8 -9.5 L-21.5 -9.15 -21.45 -7.65 Q-21.6 -6.5 -22.0 -5.35 L-22.05 -5.3 -22.15 -5.25 Q-23.05 -3.15 -25.5 -3.3 -26.6 -3.35 -27.55 -3.75 L-28.2 -4.4 -28.3 -4.5 -28.75 -4.9 -29.05 -5.2 -29.05 -5.25 -29.1 -5.5 -29.35 -5.8 -29.7 -7.1 Q-29.75 -8.25 -29.35 -9.25 L-29.35 -9.3 -29.25 -9.35 -29.2 -9.4 -29.2 -9.45 -29.15 -9.5 -29.05 -9.65 -29.1 -9.7 -29.1 -9.75 -29.15 -9.75 Q-28.9 -10.55 -28.1 -10.95 L-26.35 -11.6 Q-24.45 -11.6 -22.85 -10.55 L-21.8 -9.5 M-22.25 -9.65 L-22.35 -9.7 -22.75 -10.0 -22.85 -10.05 Q-24.35 -11.35 -26.35 -11.3 -26.65 -11.1 -27.0 -11.05 L-27.1 -11.05 -26.85 -10.9 Q-28.3 -10.5 -29.0 -9.1 -29.4 -8.3 -29.4 -7.4 L-29.4 -6.8 -29.4 -6.75 -29.35 -6.75 -29.25 -6.35 -29.1 -6.0 -28.85 -5.6 -28.75 -5.35 Q-27.7 -3.8 -25.85 -3.55 -23.7 -3.3 -22.6 -4.95 L-22.35 -5.45 -22.25 -5.55 Q-21.85 -6.75 -21.7 -8.05 -21.65 -8.9 -22.1 -9.6 L-22.25 -9.65 M-22.95 -9.3 Q-22.1 -8.9 -22.3 -7.95 L-22.5 -7.95 -22.5 -8.0 -22.7 -8.8 -22.85 -9.0 -23.1 -9.1 -23.05 -9.25 -22.95 -9.3 M-23.25 -7.05 L-23.2 -7.0 -22.95 -6.25 -23.0 -6.2 -23.2 -6.15 Q-23.5 -6.7 -23.3 -7.05 L-23.3 -7.1 -23.25 -7.05 M-24.1 -4.45 Q-24.6 -3.85 -25.25 -4.0 L-25.25 -4.1 -25.25 -4.15 Q-24.7 -4.3 -24.25 -4.6 L-24.1 -4.45 M-25.3 -10.8 Q-26.1 -10.3 -26.95 -10.4 L-26.95 -10.5 -26.95 -10.55 -25.45 -10.95 -25.3 -10.8 M-26.9 -9.3 L-26.9 -9.25 Q-27.15 -8.9 -27.5 -8.9 L-27.55 -9.0 -27.55 -9.05 -27.05 -9.4 -26.9 -9.3 M-28.55 -8.2 L-28.5 -8.15 -28.5 -6.55 -28.55 -6.45 -28.65 -6.4 -28.75 -6.45 Q-29.0 -7.35 -28.65 -8.2 L-28.6 -8.25 -28.55 -8.2 M-28.0 -6.65 Q-28.25 -6.9 -28.0 -7.1 L-27.95 -7.05 -27.85 -7.0 -27.8 -6.8 -27.75 -6.75 Q-27.85 -6.55 -28.0 -6.65 M-24.85 -8.05 L-24.8 -8.0 -24.7 -7.8 -24.7 -7.75 Q-24.85 -7.5 -25.05 -7.75 L-25.0 -8.05 -24.95 -8.1 -24.85 -8.05 M-26.65 -6.45 L-26.2 -6.0 Q-26.6 -5.85 -26.8 -6.3 L-26.7 -6.4 -26.65 -6.45 M-27.3 -5.2 L-27.25 -5.15 -27.35 -5.05 -27.4 -5.0 Q-28.1 -5.3 -27.9 -5.65 L-27.9 -5.7 -27.3 -5.2" fill="#000000" fill-rule="evenodd" stroke="none"/>
  </g>
</svg>
