<?xml version="1.0" encoding="UTF-8" standalone="no"?>
<svg xmlns:xlink="http://www.w3.org/1999/xlink" height="8.3px" width="8.3px" xmlns="http://www.w3.org/2000/svg">
  <g transform="matrix(1.0, 0.0, 0.0, 1.0, 28.15, 14.9)">
    <path d="M-21.3 -13.35 L-21.2 -13.3 -20.8 -13.0 -20.7 -12.95 -20.55 -12.9 Q-20.1 -12.2 -20.15 -11.35 -20.3 -10.05 -20.7 -8.85 L-20.8 -8.75 -21.05 -8.25 Q-22.15 -6.6 -24.3 -6.85 -26.15 -7.1 -27.2 -8.65 L-27.3 -8.9 -27.55 -9.3 -27.7 -9.65 -27.8 -10.05 -27.85 -10.05 -27.85 -10.1 -27.85 -10.7 Q-27.85 -11.6 -27.45 -12.4 -26.75 -13.8 -25.3 -14.2 -25.35 -14.35 -25.55 -14.35 L-25.45 -14.35 Q-25.1 -14.4 -24.8 -14.6 -22.8 -14.65 -21.3 -13.35 M-21.4 -12.6 L-21.5 -12.55 -21.55 -12.4 -21.3 -12.3 -21.15 -12.1 -20.95 -11.3 -20.95 -11.25 -20.75 -11.25 Q-20.55 -12.2 -21.4 -12.6 M-25.75 -8.5 L-26.35 -9.0 -26.35 -8.95 Q-26.55 -8.6 -25.85 -8.3 L-25.8 -8.35 -25.7 -8.45 -25.75 -8.5 M-23.3 -11.35 L-23.4 -11.4 -23.45 -11.35 -23.5 -11.05 Q-23.3 -10.8 -23.15 -11.05 L-23.15 -11.1 -23.25 -11.3 -23.3 -11.35 M-25.1 -9.75 L-25.15 -9.7 -25.25 -9.6 Q-25.05 -9.15 -24.65 -9.3 L-25.1 -9.75 M-26.45 -9.95 Q-26.3 -9.85 -26.2 -10.05 L-26.25 -10.1 -26.3 -10.3 -26.4 -10.35 -26.45 -10.4 Q-26.7 -10.2 -26.45 -9.95 M-27.0 -11.5 L-27.05 -11.55 -27.1 -11.5 Q-27.45 -10.65 -27.2 -9.75 L-27.1 -9.7 -27.0 -9.75 -26.95 -9.85 -26.95 -11.45 -27.0 -11.5 M-25.35 -12.6 L-25.5 -12.7 -26.0 -12.35 -26.0 -12.3 -25.95 -12.2 Q-25.6 -12.2 -25.35 -12.55 L-25.35 -12.6 M-23.75 -14.1 L-23.9 -14.25 -25.4 -13.85 -25.4 -13.8 -25.4 -13.7 Q-24.55 -13.6 -23.75 -14.1 M-22.55 -7.75 L-22.7 -7.9 Q-23.15 -7.6 -23.7 -7.45 L-23.7 -7.4 -23.7 -7.3 Q-23.05 -7.15 -22.55 -7.75 M-21.7 -10.35 L-21.75 -10.4 -21.75 -10.35 Q-21.95 -10.0 -21.65 -9.45 L-21.45 -9.5 -21.4 -9.55 -21.65 -10.3 -21.7 -10.35" fill="#95917b" fill-rule="evenodd" stroke="none"/>
    <path d="M-21.4 -12.6 Q-20.55 -12.2 -20.75 -11.25 L-20.95 -11.25 -20.95 -11.3 -21.15 -12.1 -21.3 -12.3 -21.55 -12.4 -21.5 -12.55 -21.4 -12.6 M-21.3 -13.35 Q-22.8 -14.65 -24.8 -14.6 -25.1 -14.4 -25.45 -14.35 L-25.55 -14.35 Q-25.35 -14.35 -25.3 -14.2 -26.75 -13.8 -27.45 -12.4 -27.85 -11.6 -27.85 -10.7 L-27.85 -10.1 -27.85 -10.05 -27.8 -10.05 -27.7 -9.65 -27.55 -9.3 -27.3 -8.9 -27.2 -8.65 Q-26.15 -7.1 -24.3 -6.85 -22.15 -6.6 -21.05 -8.25 L-20.8 -8.75 -20.7 -8.85 Q-20.3 -10.05 -20.15 -11.35 -20.1 -12.2 -20.55 -12.9 L-20.7 -12.95 -20.8 -13.0 -21.2 -13.3 -21.3 -13.35 M-20.25 -12.8 L-19.95 -12.45 -19.9 -10.95 -20.45 -8.65 -20.5 -8.6 -20.6 -8.55 Q-21.5 -6.45 -23.95 -6.6 -25.05 -6.65 -26.0 -7.05 L-26.65 -7.7 -26.75 -7.8 -27.2 -8.2 -27.5 -8.5 -27.5 -8.55 -27.55 -8.8 -27.8 -9.1 -28.15 -10.4 Q-28.2 -11.55 -27.8 -12.55 L-27.8 -12.6 -27.7 -12.65 -27.65 -12.7 -27.65 -12.75 -27.6 -12.8 -27.5 -12.95 -27.55 -13.0 -27.55 -13.05 -27.6 -13.05 Q-27.35 -13.85 -26.55 -14.25 L-24.8 -14.9 Q-22.9 -14.9 -21.3 -13.85 L-20.25 -12.8 M-21.7 -10.35 L-21.65 -10.3 -21.4 -9.55 -21.45 -9.5 -21.65 -9.45 Q-21.95 -10.0 -21.75 -10.35 L-21.75 -10.4 -21.7 -10.35 M-22.55 -7.75 Q-23.05 -7.15 -23.7 -7.3 L-23.7 -7.4 -23.7 -7.45 Q-23.15 -7.6 -22.7 -7.9 L-22.55 -7.75 M-23.75 -14.1 Q-24.55 -13.6 -25.4 -13.7 L-25.4 -13.8 -25.4 -13.85 -23.9 -14.25 -23.75 -14.1 M-25.35 -12.6 L-25.35 -12.55 Q-25.6 -12.2 -25.95 -12.2 L-26.0 -12.3 -26.0 -12.35 -25.5 -12.7 -25.35 -12.6 M-27.0 -11.5 L-26.95 -11.45 -26.95 -9.85 -27.0 -9.75 -27.1 -9.7 -27.2 -9.75 Q-27.45 -10.65 -27.1 -11.5 L-27.05 -11.55 -27.0 -11.5 M-26.45 -9.95 Q-26.7 -10.2 -26.45 -10.4 L-26.4 -10.35 -26.3 -10.3 -26.25 -10.1 -26.2 -10.05 Q-26.3 -9.85 -26.45 -9.95 M-25.1 -9.75 L-24.65 -9.3 Q-25.05 -9.15 -25.25 -9.6 L-25.15 -9.7 -25.1 -9.75 M-23.3 -11.35 L-23.25 -11.3 -23.15 -11.1 -23.15 -11.05 Q-23.3 -10.8 -23.5 -11.05 L-23.45 -11.35 -23.4 -11.4 -23.3 -11.35 M-25.75 -8.5 L-25.7 -8.45 -25.8 -8.35 -25.85 -8.3 Q-26.55 -8.6 -26.35 -8.95 L-26.35 -9.0 -25.75 -8.5" fill="#000000" fill-rule="evenodd" stroke="none"/>
  </g>
</svg>
