<?xml version="1.0" encoding="UTF-8" standalone="no"?>
<svg xmlns:xlink="http://www.w3.org/1999/xlink" height="8.3px" width="8.3px" xmlns="http://www.w3.org/2000/svg">
  <g transform="matrix(1.0, 0.0, 0.0, 1.0, 15.45, 27.6)">
    <path d="M-13.05 -21.2 L-13.65 -21.7 -13.65 -21.65 Q-13.85 -21.3 -13.15 -21.0 L-13.1 -21.05 -13.0 -21.15 -13.05 -21.2 M-12.4 -22.45 L-12.45 -22.4 -12.55 -22.3 Q-12.35 -21.85 -11.95 -22.0 L-12.4 -22.45 M-10.6 -24.05 L-10.7 -24.1 -10.75 -24.05 -10.8 -23.75 Q-10.6 -23.5 -10.45 -23.75 L-10.45 -23.8 -10.55 -24.0 -10.6 -24.05 M-13.75 -22.65 Q-13.6 -22.55 -13.5 -22.75 L-13.55 -22.8 -13.6 -23.0 -13.7 -23.05 -13.75 -23.1 Q-14.0 -22.9 -13.75 -22.65 M-14.3 -24.2 L-14.35 -24.25 -14.4 -24.2 Q-14.75 -23.35 -14.5 -22.45 L-14.4 -22.4 -14.3 -22.45 -14.25 -22.55 -14.25 -24.15 -14.3 -24.2 M-12.65 -25.3 L-12.8 -25.4 -13.3 -25.05 -13.3 -25.0 -13.25 -24.9 Q-12.9 -24.9 -12.65 -25.25 L-12.65 -25.3 M-11.05 -26.8 L-11.2 -26.95 -12.7 -26.55 -12.7 -26.5 -12.7 -26.4 Q-11.85 -26.3 -11.05 -26.8 M-9.85 -20.45 L-10.0 -20.6 Q-10.45 -20.3 -11.0 -20.15 L-11.0 -20.1 -11.0 -20.0 Q-10.35 -19.85 -9.85 -20.45 M-9.0 -23.05 L-9.05 -23.1 -9.05 -23.05 Q-9.25 -22.7 -8.95 -22.15 L-8.75 -22.2 -8.7 -22.25 -8.95 -23.0 -9.0 -23.05 M-8.7 -25.3 L-8.8 -25.25 -8.85 -25.1 -8.6 -25.0 -8.45 -24.8 -8.25 -24.0 -8.25 -23.95 -8.05 -23.95 Q-7.85 -24.9 -8.7 -25.3 M-8.6 -26.05 L-8.5 -26.0 -8.1 -25.7 -8.0 -25.65 -7.85 -25.6 Q-7.4 -24.9 -7.45 -24.05 -7.6 -22.75 -8.0 -21.55 L-8.1 -21.45 -8.35 -20.95 Q-9.45 -19.3 -11.6 -19.55 -13.45 -19.8 -14.5 -21.35 L-14.6 -21.6 -14.85 -22.0 -15.0 -22.35 -15.1 -22.75 -15.15 -22.75 -15.15 -22.8 -15.15 -23.4 Q-15.15 -24.3 -14.75 -25.1 -14.05 -26.5 -12.6 -26.9 L-12.85 -27.05 -12.75 -27.05 Q-12.4 -27.1 -12.1 -27.3 -10.1 -27.35 -8.6 -26.05" fill="#95917b" fill-rule="evenodd" stroke="none"/>
    <path d="M-7.55 -25.5 L-7.25 -25.15 Q-7.1 -24.4 -7.2 -23.65 L-7.75 -21.35 -7.8 -21.3 -7.9 -21.25 Q-8.8 -19.15 -11.25 -19.3 -12.35 -19.35 -13.3 -19.75 L-13.95 -20.4 -14.05 -20.5 -14.5 -20.9 -14.8 -21.2 -14.8 -21.25 -14.85 -21.5 -15.1 -21.8 -15.45 -23.1 Q-15.5 -24.25 -15.1 -25.25 L-15.1 -25.3 -15.0 -25.35 -14.95 -25.4 -14.95 -25.45 -14.9 -25.5 -14.8 -25.65 -14.85 -25.7 -14.85 -25.75 -14.9 -25.75 Q-14.65 -26.55 -13.85 -26.95 L-12.1 -27.6 Q-10.2 -27.6 -8.6 -26.55 L-7.55 -25.5 M-8.6 -26.05 Q-10.1 -27.35 -12.1 -27.3 -12.4 -27.1 -12.75 -27.05 L-12.85 -27.05 -12.6 -26.9 Q-14.05 -26.5 -14.75 -25.1 -15.15 -24.3 -15.15 -23.4 L-15.15 -22.8 -15.15 -22.75 -15.1 -22.75 -15.0 -22.35 -14.85 -22.0 -14.6 -21.6 -14.5 -21.35 Q-13.45 -19.8 -11.6 -19.55 -9.45 -19.3 -8.35 -20.95 L-8.1 -21.45 -8.0 -21.55 Q-7.6 -22.75 -7.45 -24.05 -7.4 -24.9 -7.85 -25.6 L-8.0 -25.65 -8.1 -25.7 -8.5 -26.0 -8.6 -26.05 M-8.7 -25.3 Q-7.85 -24.9 -8.05 -23.95 L-8.25 -23.95 -8.25 -24.0 -8.45 -24.8 -8.6 -25.0 -8.85 -25.1 -8.8 -25.25 -8.7 -25.3 M-9.0 -23.05 L-8.95 -23.0 -8.7 -22.25 -8.75 -22.2 -8.95 -22.15 Q-9.25 -22.7 -9.05 -23.05 L-9.05 -23.1 -9.0 -23.05 M-9.85 -20.45 Q-10.35 -19.85 -11.0 -20.0 L-11.0 -20.1 -11.0 -20.15 Q-10.45 -20.3 -10.0 -20.6 L-9.85 -20.45 M-11.05 -26.8 Q-11.85 -26.3 -12.7 -26.4 L-12.7 -26.5 -12.7 -26.55 -11.2 -26.95 -11.05 -26.8 M-12.65 -25.3 L-12.65 -25.25 Q-12.9 -24.9 -13.25 -24.9 L-13.3 -25.0 -13.3 -25.05 -12.8 -25.4 -12.65 -25.3 M-14.3 -24.2 L-14.25 -24.15 -14.25 -22.55 -14.3 -22.45 -14.4 -22.4 -14.5 -22.45 Q-14.75 -23.35 -14.4 -24.2 L-14.35 -24.25 -14.3 -24.2 M-13.75 -22.65 Q-14.0 -22.9 -13.75 -23.1 L-13.7 -23.05 -13.6 -23.0 -13.55 -22.8 -13.5 -22.75 Q-13.6 -22.55 -13.75 -22.65 M-10.6 -24.05 L-10.55 -24.0 -10.45 -23.8 -10.45 -23.75 Q-10.6 -23.5 -10.8 -23.75 L-10.75 -24.05 -10.7 -24.1 -10.6 -24.05 M-12.4 -22.45 L-11.95 -22.0 Q-12.35 -21.85 -12.55 -22.3 L-12.45 -22.4 -12.4 -22.45 M-13.05 -21.2 L-13.0 -21.15 -13.1 -21.05 -13.15 -21.0 Q-13.85 -21.3 -13.65 -21.65 L-13.65 -21.7 -13.05 -21.2" fill="#000000" fill-rule="evenodd" stroke="none"/>
  </g>
</svg>
