<?xml version="1.0" encoding="UTF-8" standalone="no"?>
<svg xmlns:xlink="http://www.w3.org/1999/xlink" height="8.3px" width="8.3px" xmlns="http://www.w3.org/2000/svg">
  <g transform="matrix(1.0, 0.0, 0.0, 1.0, 7.75, 30.15)">
    <path d="M-1.0 -27.85 L-1.1 -27.8 -1.15 -27.65 -0.9 -27.55 -0.75 -27.35 -0.55 -26.55 -0.55 -26.5 -0.35 -26.5 Q-0.15 -27.45 -1.0 -27.85 M-5.35 -23.75 L-5.95 -24.25 -5.95 -24.2 Q-6.15 -23.85 -5.45 -23.55 L-5.4 -23.6 -5.3 -23.7 -5.35 -23.75 M-2.9 -26.6 L-3.0 -26.65 -3.05 -26.6 -3.1 -26.3 Q-2.9 -26.05 -2.75 -26.3 L-2.75 -26.35 -2.85 -26.55 -2.9 -26.6 M-4.7 -25.0 L-4.75 -24.95 -4.85 -24.85 Q-4.65 -24.4 -4.25 -24.55 L-4.7 -25.0 M-6.05 -25.2 Q-5.9 -25.1 -5.8 -25.3 L-5.85 -25.35 -5.9 -25.55 -6.0 -25.6 -6.05 -25.65 Q-6.3 -25.45 -6.05 -25.2 M-6.6 -26.75 L-6.65 -26.8 -6.7 -26.75 Q-7.05 -25.9 -6.8 -25.0 L-6.7 -24.95 -6.6 -25.0 -6.55 -25.1 -6.55 -26.7 -6.6 -26.75 M-4.95 -27.85 L-5.1 -27.95 -5.6 -27.6 -5.6 -27.55 -5.55 -27.45 Q-5.2 -27.45 -4.95 -27.8 L-4.95 -27.85 M-3.35 -29.35 L-3.5 -29.5 -5.0 -29.1 -5.0 -29.05 -5.0 -28.95 Q-4.15 -28.85 -3.35 -29.35 M-2.15 -23.0 L-2.3 -23.15 Q-2.75 -22.85 -3.3 -22.7 L-3.3 -22.65 -3.3 -22.55 Q-2.65 -22.4 -2.15 -23.0 M-1.3 -25.6 L-1.35 -25.65 -1.35 -25.6 Q-1.55 -25.25 -1.25 -24.7 L-1.05 -24.75 -1.0 -24.8 -1.25 -25.55 -1.3 -25.6 M-0.3 -28.2 L-0.15 -28.15 Q0.3 -27.45 0.25 -26.6 L-0.3 -24.1 -0.4 -24.0 -0.65 -23.5 Q-1.75 -21.85 -3.9 -22.1 -5.75 -22.35 -6.8 -23.9 L-6.9 -24.15 -7.15 -24.55 -7.3 -24.9 -7.4 -25.3 -7.45 -25.3 -7.45 -25.35 -7.45 -25.95 Q-7.45 -26.85 -7.05 -27.65 -6.35 -29.05 -4.9 -29.45 -4.95 -29.6 -5.15 -29.6 L-5.05 -29.6 -4.4 -29.85 Q-2.4 -29.9 -0.9 -28.6 L-0.8 -28.55 -0.4 -28.25 -0.3 -28.2" fill="#95917b" fill-rule="evenodd" stroke="none"/>
    <path d="M-1.0 -27.85 Q-0.15 -27.45 -0.35 -26.5 L-0.55 -26.5 -0.55 -26.55 -0.75 -27.35 -0.9 -27.55 -1.15 -27.65 -1.1 -27.8 -1.0 -27.85 M0.15 -28.05 L0.45 -27.7 0.5 -26.2 -0.05 -23.9 -0.1 -23.85 -0.2 -23.8 Q-1.1 -21.7 -3.55 -21.85 L-5.6 -22.3 -6.25 -22.95 -6.35 -23.05 -6.8 -23.45 -7.1 -23.75 -7.1 -23.8 -7.15 -24.05 -7.4 -24.35 -7.75 -25.65 Q-7.8 -26.8 -7.4 -27.8 L-7.4 -27.85 -7.3 -27.9 -7.25 -27.95 -7.25 -28.0 -7.2 -28.05 -7.1 -28.2 -7.15 -28.25 -7.15 -28.3 -7.2 -28.3 Q-6.95 -29.1 -6.15 -29.5 L-4.4 -30.15 Q-2.5 -30.15 -0.9 -29.1 L0.15 -28.05 M-0.3 -28.2 L-0.4 -28.25 -0.8 -28.55 -0.9 -28.6 Q-2.4 -29.9 -4.4 -29.85 L-5.05 -29.6 -5.15 -29.6 Q-4.95 -29.6 -4.9 -29.45 -6.35 -29.05 -7.05 -27.65 -7.45 -26.85 -7.45 -25.95 L-7.45 -25.35 -7.45 -25.3 -7.4 -25.3 -7.3 -24.9 -7.15 -24.55 -6.9 -24.15 -6.8 -23.9 Q-5.75 -22.35 -3.9 -22.1 -1.75 -21.85 -0.65 -23.5 L-0.4 -24.0 -0.3 -24.1 0.25 -26.6 Q0.3 -27.45 -0.15 -28.15 L-0.3 -28.2 M-1.3 -25.6 L-1.25 -25.55 -1.0 -24.8 -1.05 -24.75 -1.25 -24.7 Q-1.55 -25.25 -1.35 -25.6 L-1.35 -25.65 -1.3 -25.6 M-2.15 -23.0 Q-2.65 -22.4 -3.3 -22.55 L-3.3 -22.65 -3.3 -22.7 Q-2.75 -22.85 -2.3 -23.15 L-2.15 -23.0 M-3.35 -29.35 Q-4.15 -28.85 -5.0 -28.95 L-5.0 -29.05 -5.0 -29.1 -3.5 -29.5 -3.35 -29.35 M-4.95 -27.85 L-4.95 -27.8 Q-5.2 -27.45 -5.55 -27.45 L-5.6 -27.55 -5.6 -27.6 -5.1 -27.95 -4.95 -27.85 M-6.6 -26.75 L-6.55 -26.7 -6.55 -25.1 -6.6 -25.0 -6.7 -24.95 -6.8 -25.0 Q-7.05 -25.9 -6.7 -26.75 L-6.65 -26.8 -6.6 -26.75 M-6.05 -25.2 Q-6.3 -25.45 -6.05 -25.65 L-6.0 -25.6 -5.9 -25.55 -5.85 -25.35 -5.8 -25.3 Q-5.9 -25.1 -6.05 -25.2 M-4.7 -25.0 L-4.25 -24.55 Q-4.65 -24.4 -4.85 -24.85 L-4.75 -24.95 -4.7 -25.0 M-2.9 -26.6 L-2.85 -26.55 -2.75 -26.35 -2.75 -26.3 Q-2.9 -26.05 -3.1 -26.3 L-3.05 -26.6 -3.0 -26.65 -2.9 -26.6 M-5.35 -23.75 L-5.3 -23.7 -5.4 -23.6 -5.45 -23.55 Q-6.15 -23.85 -5.95 -24.2 L-5.95 -24.25 -5.35 -23.75" fill="#000000" fill-rule="evenodd" stroke="none"/>
  </g>
</svg>
