<?xml version="1.0" encoding="UTF-8" standalone="no"?>
<svg xmlns:xlink="http://www.w3.org/1999/xlink" height="33.25px" width="9.6px" xmlns="http://www.w3.org/2000/svg">
  <g transform="matrix(1.0, 0.0, 0.0, 1.0, 2.3, 30.5)">
    <path d="M3.0 2.65 L2.7 2.7 -0.95 2.2 -1.0 2.2 -1.05 2.3 -1.1 2.3 -2.3 2.05 -2.25 1.6 -1.7 -1.9 -1.65 -1.9 -1.6 -1.95 -0.5 -1.65 0.2 -7.8 0.2 -7.85 0.1 -7.95 0.2 -8.15 0.7 -11.8 0.7 -11.9 0.8 -12.8 0.75 -12.95 0.8 -13.0 1.1 -15.65 1.05 -15.7 1.0 -15.75 1.15 -15.9 1.3 -17.1 Q1.2 -17.2 1.25 -17.35 L1.3 -17.45 1.9 -22.2 1.8 -22.3 1.8 -22.5 1.6 -22.6 1.55 -22.65 Q1.45 -23.0 1.6 -23.15 L1.55 -23.65 1.45 -23.85 1.4 -23.8 1.35 -23.75 Q1.25 -24.85 1.45 -26.05 1.95 -28.75 4.55 -29.75 L4.75 -29.9 6.3 -29.8 6.3 -29.85 6.3 -29.95 6.45 -30.3 6.55 -30.45 6.6 -30.5 7.05 -30.4 7.1 -30.4 7.2 -30.35 7.3 -30.3 7.25 -30.15 6.3 -21.75 6.15 -21.35 6.1 -21.3 6.05 -21.3 6.0 -21.3 5.6 -21.35 5.45 -21.4 5.4 -21.45 5.3 -21.5 5.15 -21.15 5.1 -21.1 4.8 -21.1 4.75 -21.1 4.6 -21.05 4.5 -20.65 3.95 -15.5 4.0 -15.5 4.05 -15.45 3.9 -15.35 3.9 -15.3 3.75 -13.95 3.8 -13.95 3.85 -13.9 3.85 -13.85 3.9 -13.8 3.8 -13.7 3.8 -13.65 3.75 -13.65 2.35 -1.35 3.35 -1.2 3.4 -1.2 3.45 -1.15 3.5 -1.05 3.05 2.6 3.0 2.65 M2.0 1.7 L1.95 1.9 1.9 1.85 1.8 1.85 1.75 1.85 1.4 2.0 1.35 2.05 0.55 2.0 0.35 1.95 0.25 1.9 0.2 1.85 -0.55 1.7 -0.6 1.7 -0.75 1.75 -0.8 1.75 -0.8 1.65 -0.85 1.55 -0.75 1.45 -0.8 1.3 -0.85 1.25 -0.55 -1.4 -1.4 -1.65 -1.85 1.75 -1.9 1.8 -1.9 1.95 -1.2 2.0 -1.15 2.0 -1.05 1.9 -0.9 1.9 2.75 2.4 3.1 -0.95 3.05 -0.95 2.3 -1.1 2.05 1.5 2.05 1.55 2.05 1.6 2.05 1.65 2.0 1.7 M1.75 1.3 L2.8 -7.5 2.75 -7.45 2.7 -7.4 1.35 -8.1 1.3 -8.15 1.15 -8.15 1.05 -8.2 1.0 -8.2 0.9 -8.1 0.8 -8.05 0.75 -7.95 0.55 -7.9 -0.45 1.3 -0.45 1.4 -0.4 1.4 -0.3 1.45 -0.25 1.5 -0.2 1.5 0.25 1.55 0.4 1.55 0.45 1.6 0.5 1.65 1.1 1.75 1.3 1.75 1.6 1.6 1.6 1.45 1.65 1.4 1.75 1.3 M1.0 0.3 L0.8 0.2 0.45 0.2 0.35 0.2 Q0.2 0.4 0.35 0.7 L0.7 0.75 0.75 0.7 0.9 0.65 1.0 0.35 1.0 0.3 M1.0 0.95 L0.9 1.0 0.3 1.0 0.2 0.95 Q-0.2 0.65 0.05 0.1 L0.35 -0.05 0.55 -0.05 0.55 -0.2 0.6 -0.2 0.7 -0.25 0.8 -0.2 1.2 0.25 1.35 0.4 1.15 0.8 1.2 0.85 1.15 0.9 1.15 0.95 1.0 0.95 M6.8 -30.15 L6.7 -30.15 6.65 -30.15 6.6 -29.75 6.6 -29.7 6.55 -29.65 5.6 -21.7 5.7 -21.65 5.9 -21.65 5.9 -21.85 7.05 -30.05 6.8 -30.15 M4.9 -29.65 L4.55 -29.4 Q3.25 -28.9 2.55 -27.85 L2.15 -27.25 2.1 -27.05 2.05 -27.0 Q1.7 -25.45 2.3 -24.05 L2.35 -24.05 Q2.95 -23.15 3.8 -22.6 L4.15 -22.4 4.25 -22.3 5.4 -21.75 6.25 -29.6 4.95 -29.65 4.9 -29.65 M3.55 -22.4 L3.45 -22.55 3.15 -22.8 2.6 -23.3 2.45 -23.5 2.4 -23.45 1.75 -24.65 1.7 -24.4 2.0 -23.45 1.95 -23.35 2.0 -23.0 1.85 -22.9 1.9 -22.8 2.05 -22.65 2.05 -22.6 1.95 -22.5 2.5 -22.3 2.55 -22.35 2.65 -22.4 3.95 -21.8 4.5 -21.55 4.5 -21.5 4.8 -21.4 4.85 -21.4 4.85 -21.35 4.95 -21.4 5.05 -21.6 3.65 -22.4 3.6 -22.4 3.55 -22.4 M3.95 -21.4 L2.15 -22.15 2.1 -22.15 1.55 -17.25 1.65 -17.25 1.85 -17.0 2.5 -16.65 2.6 -16.65 2.85 -16.75 Q3.2 -16.8 3.55 -17.0 L3.65 -17.05 3.8 -17.05 3.85 -17.05 4.25 -20.5 4.25 -20.6 4.3 -21.15 3.95 -21.4 M2.95 -16.5 L2.85 -16.5 2.7 -16.4 3.7 -15.7 3.8 -16.75 3.75 -16.75 Q3.4 -16.5 2.95 -16.5 M3.3 -12.0 L3.5 -13.7 3.45 -13.75 2.5 -13.1 3.3 -12.0 3.3 -11.95 3.3 -12.0 M3.55 -14.25 L3.65 -15.45 2.35 -16.3 2.3 -16.3 2.3 -16.35 2.2 -16.35 1.8 -16.7 1.7 -16.75 1.5 -16.95 1.4 -15.8 1.55 -15.65 1.6 -15.55 2.3 -15.1 2.4 -15.0 2.45 -14.95 2.55 -14.9 3.3 -14.25 3.4 -14.3 3.5 -14.2 3.5 -14.25 3.55 -14.25 3.55 -14.2 3.55 -14.25 M3.1 -14.1 L2.15 -13.45 2.1 -13.4 2.0 -13.35 2.05 -13.35 1.9 -13.2 1.85 -13.2 1.8 -13.2 1.35 -13.05 1.25 -13.05 1.15 -12.85 1.1 -12.8 1.0 -12.1 1.15 -12.15 1.15 -12.2 1.15 -12.35 3.2 -13.9 3.3 -13.95 3.1 -14.1 M3.15 -11.75 L3.1 -11.75 3.05 -11.95 2.3 -12.9 1.35 -12.15 1.4 -12.1 1.05 -11.8 1.05 -11.75 1.0 -11.7 0.9 -10.85 2.15 -10.95 2.2 -11.0 1.85 -11.55 1.75 -11.55 1.6 -11.8 1.45 -11.85 1.4 -11.85 1.5 -12.2 1.8 -12.05 1.95 -11.85 3.1 -10.35 3.25 -11.85 3.15 -11.75 M2.4 -10.7 L2.35 -10.7 1.5 -10.5 1.5 -9.5 1.5 -9.45 2.95 -8.95 3.05 -9.95 2.55 -10.65 2.4 -10.7 M2.9 -8.7 L2.1 -8.9 1.35 -8.45 2.8 -7.6 2.9 -8.7 M0.65 -8.35 Q1.25 -8.9 2.0 -8.95 L1.4 -9.3 1.4 -9.25 1.35 -9.2 1.3 -9.2 1.2 -9.25 1.15 -9.35 0.8 -9.5 0.75 -9.5 0.6 -8.3 0.65 -8.35 M1.15 -9.65 L1.3 -10.55 1.1 -10.6 1.05 -10.6 0.85 -10.55 0.8 -9.9 0.85 -9.9 0.9 -9.8 1.15 -9.65 M1.65 -13.5 L1.2 -13.9 1.15 -13.9 1.15 -13.25 1.65 -13.5 M1.3 -14.25 L1.85 -13.6 2.95 -14.25 2.3 -14.7 2.25 -14.7 1.35 -15.45 1.2 -14.2 1.3 -14.25 M1.7 -24.85 L1.75 -24.75 1.7 -24.9 1.7 -24.85" fill="#000000" fill-rule="evenodd" stroke="none"/>
    <path d="M2.0 1.7 L2.05 1.65 2.05 1.6 2.05 1.55 2.05 1.5 2.3 -1.1 3.05 -0.95 3.1 -0.95 2.75 2.4 -0.9 1.9 -1.05 1.9 -1.15 2.0 -1.2 2.0 -1.9 1.95 -1.9 1.8 -1.85 1.75 -1.4 -1.65 -0.55 -1.4 -0.85 1.25 -0.8 1.3 -0.75 1.45 -0.85 1.55 -0.8 1.65 -0.8 1.75 -0.75 1.75 -0.6 1.7 -0.55 1.7 0.2 1.85 0.25 1.9 0.35 1.95 0.55 2.0 1.35 2.05 1.4 2.0 1.75 1.85 1.8 1.85 1.9 1.85 1.95 1.9 2.0 1.7 M1.0 0.3 L1.0 0.35 0.9 0.65 0.75 0.7 0.7 0.75 0.35 0.7 Q0.2 0.4 0.35 0.2 L0.45 0.2 0.8 0.2 1.0 0.3" fill="#a69b9b" fill-rule="evenodd" stroke="none"/>
    <path d="M1.75 1.3 L1.65 1.4 1.6 1.45 1.6 1.6 1.3 1.75 1.1 1.75 0.5 1.65 0.45 1.6 0.4 1.55 0.25 1.55 -0.2 1.5 -0.25 1.5 -0.3 1.45 -0.4 1.4 -0.45 1.4 -0.45 1.3 0.55 -7.9 0.75 -7.95 0.8 -8.05 0.9 -8.1 1.0 -8.2 1.05 -8.2 1.15 -8.15 1.3 -8.15 1.35 -8.1 2.7 -7.4 2.75 -7.45 2.8 -7.5 1.75 1.3 M1.0 0.95 L1.15 0.95 1.15 0.9 1.2 0.85 1.15 0.8 1.35 0.4 1.2 0.25 0.8 -0.2 0.7 -0.25 0.6 -0.2 0.55 -0.2 0.55 -0.05 0.35 -0.05 0.05 0.1 Q-0.2 0.65 0.2 0.95 L0.3 1.0 0.9 1.0 1.0 0.95 M4.9 -29.65 L4.95 -29.65 6.25 -29.6 5.4 -21.75 4.25 -22.3 4.15 -22.4 3.8 -22.6 Q2.95 -23.15 2.35 -24.05 L2.3 -24.05 Q1.7 -25.45 2.05 -27.0 L2.1 -27.05 2.15 -27.25 2.55 -27.85 Q3.25 -28.9 4.55 -29.4 L4.9 -29.65 M3.95 -21.4 L4.3 -21.15 4.25 -20.6 4.25 -20.5 3.85 -17.05 3.8 -17.05 3.65 -17.05 3.55 -17.0 Q3.2 -16.8 2.85 -16.75 L2.6 -16.65 2.5 -16.65 1.85 -17.0 1.65 -17.25 1.55 -17.25 2.1 -22.15 2.15 -22.15 3.95 -21.4" fill="#715426" fill-rule="evenodd" stroke="none"/>
    <path d="M6.8 -30.15 L7.05 -30.05 5.9 -21.85 5.9 -21.65 5.7 -21.65 5.6 -21.7 6.55 -29.65 6.6 -29.7 6.6 -29.75 6.65 -30.15 6.7 -30.15 6.8 -30.15 M3.55 -22.4 L3.6 -22.4 3.65 -22.4 5.05 -21.6 4.95 -21.4 4.85 -21.35 4.85 -21.4 4.8 -21.4 4.5 -21.5 4.5 -21.55 3.95 -21.8 2.65 -22.4 2.55 -22.35 2.5 -22.3 1.95 -22.5 2.05 -22.6 2.05 -22.65 1.9 -22.8 1.85 -22.9 2.0 -23.0 1.95 -23.35 2.0 -23.45 1.7 -24.4 1.75 -24.65 2.4 -23.45 2.45 -23.5 2.6 -23.3 3.15 -22.8 3.45 -22.55 3.55 -22.4" fill="#9d6f37" fill-rule="evenodd" stroke="none"/>
    <path d="M3.3 -12.0 L2.5 -13.1 3.45 -13.75 3.5 -13.7 3.3 -12.0 M2.95 -16.5 Q3.4 -16.5 3.75 -16.75 L3.8 -16.75 3.7 -15.7 2.7 -16.4 2.85 -16.5 2.95 -16.5 M3.55 -14.25 L3.5 -14.25 3.5 -14.2 3.4 -14.3 3.3 -14.25 2.55 -14.9 2.45 -14.95 2.4 -15.0 2.3 -15.1 1.6 -15.55 1.55 -15.65 1.4 -15.8 1.5 -16.95 1.7 -16.75 1.8 -16.7 2.2 -16.35 2.3 -16.35 2.3 -16.3 2.35 -16.3 3.65 -15.45 3.55 -14.25 M1.3 -14.25 L1.2 -14.2 1.35 -15.45 2.25 -14.7 2.3 -14.7 2.95 -14.25 1.85 -13.6 1.3 -14.25 M1.65 -13.5 L1.15 -13.25 1.15 -13.9 1.2 -13.9 1.65 -13.5 M1.15 -9.65 L0.9 -9.8 0.85 -9.9 0.8 -9.9 0.85 -10.55 1.05 -10.6 1.1 -10.6 1.3 -10.55 1.15 -9.65 M0.65 -8.35 L0.6 -8.3 0.75 -9.5 0.8 -9.5 1.15 -9.35 1.2 -9.25 1.3 -9.2 1.35 -9.2 1.4 -9.25 1.4 -9.3 2.0 -8.95 Q1.25 -8.9 0.65 -8.35 M2.9 -8.7 L2.8 -7.6 1.35 -8.45 2.1 -8.9 2.9 -8.7 M2.4 -10.7 L2.55 -10.65 3.05 -9.95 2.95 -8.95 1.5 -9.45 1.5 -9.5 1.5 -10.5 2.35 -10.7 2.4 -10.7 M3.15 -11.75 L3.25 -11.85 3.1 -10.35 1.95 -11.85 1.8 -12.05 1.5 -12.2 1.4 -11.85 1.45 -11.85 1.6 -11.8 1.75 -11.55 1.85 -11.55 2.2 -11.0 2.15 -10.95 0.9 -10.85 1.0 -11.7 1.05 -11.75 1.05 -11.8 1.4 -12.1 1.35 -12.15 2.3 -12.9 3.05 -11.95 3.1 -11.75 3.15 -11.75 M3.1 -14.1 L3.3 -13.95 3.2 -13.9 1.15 -12.35 1.15 -12.2 1.15 -12.15 1.0 -12.1 1.1 -12.8 1.15 -12.85 1.25 -13.05 1.35 -13.05 1.8 -13.2 1.85 -13.2 1.9 -13.2 2.05 -13.35 2.0 -13.35 2.1 -13.4 2.15 -13.45 3.1 -14.1" fill="#e3cdb3" fill-rule="evenodd" stroke="none"/>
  </g>
</svg>
