<?xml version="1.0" encoding="UTF-8" standalone="no"?>
<svg xmlns:xlink="http://www.w3.org/1999/xlink" height="33.2px" width="9.45px" xmlns="http://www.w3.org/2000/svg">
  <g transform="matrix(1.0, 0.0, 0.0, 1.0, 2.3, 30.45)">
    <path d="M2.65 2.7 L-1.0 2.2 -1.05 2.2 -1.1 2.3 -1.15 2.3 -2.3 2.05 -2.25 1.6 -1.7 -1.9 -1.65 -1.9 -1.6 -1.95 -0.55 -1.65 0.1 -7.8 0.1 -7.85 0.05 -7.9 0.15 -8.1 0.6 -11.75 0.6 -11.85 0.7 -12.75 0.7 -12.95 0.75 -12.95 1.0 -15.55 0.95 -15.65 0.95 -15.7 1.05 -15.85 1.2 -17.05 Q1.1 -17.2 1.15 -17.35 L1.2 -17.4 1.8 -22.2 1.7 -22.3 1.65 -22.5 1.5 -22.6 1.45 -22.65 Q1.3 -23.0 1.5 -23.15 1.4 -23.4 1.45 -23.6 L1.3 -23.8 1.25 -23.75 Q1.1 -24.75 1.35 -26.0 1.8 -28.75 4.45 -29.7 L4.6 -29.85 6.15 -29.75 6.15 -29.8 6.2 -29.9 6.3 -30.3 6.45 -30.4 6.45 -30.45 6.95 -30.35 7.05 -30.3 7.15 -30.25 7.05 -30.1 6.15 -21.75 6.0 -21.3 5.95 -21.25 5.9 -21.25 5.5 -21.3 5.35 -21.4 5.3 -21.4 5.2 -21.45 5.05 -21.1 5.0 -21.05 4.7 -21.05 4.65 -21.05 4.5 -21.0 4.4 -20.6 3.85 -15.5 3.9 -15.5 3.95 -15.45 3.95 -15.4 3.8 -15.3 3.8 -15.25 3.65 -13.9 3.7 -13.9 3.75 -13.85 3.75 -13.8 3.8 -13.75 3.7 -13.65 3.7 -13.6 3.65 -13.6 2.3 -1.35 3.3 -1.2 3.35 -1.2 3.4 -1.15 3.4 -1.05 3.05 2.6 2.95 2.65 2.65 2.7 M2.0 1.55 L2.05 1.6 2.0 1.65 1.95 1.7 1.9 1.85 1.85 1.85 1.75 1.85 1.7 1.85 1.35 2.0 1.3 2.05 0.5 2.0 0.3 1.95 0.2 1.9 0.2 1.85 -0.6 1.7 -0.65 1.7 -0.75 1.75 -0.8 1.75 -0.85 1.7 -0.9 1.55 -0.8 1.45 -0.85 1.35 -0.85 1.25 -0.6 -1.4 -1.45 -1.65 -1.9 1.75 -1.95 1.8 -1.95 1.95 -1.25 2.0 -1.2 2.0 -1.1 1.9 -0.95 1.9 2.7 2.4 3.05 -0.95 3.0 -0.95 2.25 -1.1 2.0 1.5 2.0 1.55 M1.7 1.3 L2.7 -7.5 2.65 -7.45 2.65 -7.4 1.25 -8.05 1.2 -8.1 1.05 -8.1 0.95 -8.15 0.9 -8.15 0.8 -8.05 0.75 -8.0 0.7 -7.9 0.5 -7.85 -0.45 1.3 -0.5 1.4 -0.45 1.4 -0.35 1.45 -0.3 1.5 -0.25 1.5 0.2 1.55 0.35 1.55 0.4 1.6 0.45 1.65 1.05 1.75 1.25 1.75 1.55 1.6 1.55 1.45 1.6 1.4 1.7 1.3 M0.95 0.95 L0.85 1.0 0.25 1.0 0.15 0.95 Q-0.25 0.65 0.0 0.1 L0.3 -0.05 0.5 -0.05 0.5 -0.2 0.55 -0.2 0.65 -0.25 0.75 -0.2 1.15 0.25 1.3 0.4 1.1 0.8 1.15 0.85 1.1 0.9 1.1 0.95 0.95 0.95 M0.95 0.35 L0.95 0.3 0.75 0.2 0.4 0.2 0.3 0.2 Q0.15 0.4 0.3 0.7 L0.65 0.75 0.7 0.7 0.85 0.65 0.95 0.35 M6.65 -30.1 L6.55 -30.1 6.5 -30.1 6.45 -29.7 6.45 -29.65 6.4 -29.6 5.5 -21.65 5.55 -21.6 5.75 -21.6 5.8 -21.85 6.9 -30.0 6.65 -30.1 M4.8 -29.6 L4.4 -29.35 Q3.15 -28.9 2.4 -27.8 L2.05 -27.2 1.95 -27.0 1.9 -26.95 Q1.6 -25.4 2.2 -24.0 L2.25 -24.0 3.7 -22.6 4.05 -22.4 4.15 -22.3 5.3 -21.75 6.15 -29.55 4.85 -29.6 4.8 -29.6 M3.45 -22.4 L3.35 -22.55 3.0 -22.8 2.45 -23.3 2.35 -23.45 2.3 -23.45 1.65 -24.6 1.6 -24.35 1.9 -23.4 1.8 -23.35 1.9 -23.0 1.7 -22.9 1.8 -22.75 1.95 -22.65 1.95 -22.6 1.85 -22.5 2.4 -22.3 2.4 -22.35 2.5 -22.4 3.8 -21.75 4.4 -21.5 4.4 -21.45 4.7 -21.35 4.75 -21.35 4.75 -21.3 4.85 -21.35 4.95 -21.55 3.55 -22.4 3.5 -22.4 3.45 -22.4 M3.85 -21.35 L2.05 -22.15 2.0 -22.15 1.45 -17.25 1.55 -17.25 1.75 -17.0 2.4 -16.65 2.5 -16.65 2.75 -16.75 3.45 -17.0 3.55 -17.05 3.7 -17.05 3.75 -17.05 4.15 -20.45 4.15 -20.55 4.2 -21.1 3.85 -21.35 M2.85 -16.5 L2.75 -16.5 2.65 -16.4 3.6 -15.7 3.75 -16.75 3.7 -16.75 2.85 -16.5 M3.2 -12.0 L3.4 -13.65 3.35 -13.7 2.4 -13.05 3.2 -12.0 3.2 -11.95 3.2 -12.0 M3.45 -14.2 L3.45 -14.15 3.45 -14.2 3.6 -15.4 2.25 -16.3 2.2 -16.3 2.2 -16.35 2.1 -16.35 1.7 -16.7 1.6 -16.7 1.4 -16.95 1.3 -15.8 1.45 -15.55 1.5 -15.5 2.25 -15.05 2.3 -14.95 2.35 -14.9 2.45 -14.85 3.2 -14.2 3.3 -14.25 3.4 -14.15 3.4 -14.2 3.45 -14.2 M3.05 -14.05 L2.05 -13.4 2.0 -13.35 1.95 -13.3 2.0 -13.3 1.8 -13.15 1.75 -13.15 1.7 -13.15 1.25 -13.05 1.15 -13.05 1.05 -12.85 1.0 -12.8 0.95 -12.1 1.05 -12.15 1.05 -12.2 1.05 -12.35 3.1 -13.85 3.2 -13.9 3.05 -14.05 M3.05 -11.75 L2.95 -11.95 2.2 -12.9 1.25 -12.15 1.3 -12.1 0.95 -11.8 0.95 -11.75 0.9 -11.7 0.8 -10.85 2.1 -10.95 2.15 -11.0 1.8 -11.55 1.7 -11.55 1.5 -11.8 1.35 -11.85 1.3 -11.85 1.4 -12.2 1.7 -12.05 1.85 -11.85 3.05 -10.35 3.2 -11.85 3.1 -11.75 3.05 -11.75 M2.3 -10.7 L2.25 -10.7 1.45 -10.5 1.4 -9.5 1.4 -9.45 2.85 -8.9 3.0 -9.95 2.45 -10.65 2.3 -10.7 M2.85 -8.65 L2.0 -8.85 1.3 -8.4 2.7 -7.55 2.85 -8.65 M0.6 -8.3 Q1.2 -8.85 1.9 -8.9 L1.35 -9.25 1.35 -9.2 1.3 -9.15 1.2 -9.15 1.15 -9.2 1.1 -9.35 0.7 -9.5 0.65 -9.5 0.5 -8.25 0.6 -8.3 M1.1 -9.65 Q1.1 -10.15 1.25 -10.55 L1.05 -10.6 1.0 -10.6 0.75 -10.55 0.7 -9.9 0.75 -9.9 0.85 -9.75 1.1 -9.65 M1.55 -13.45 L1.15 -13.85 1.1 -13.85 1.05 -13.2 1.55 -13.45 M1.2 -14.2 L1.75 -13.55 2.85 -14.2 2.25 -14.65 2.2 -14.65 1.25 -15.4 1.1 -14.15 1.2 -14.2 M1.55 -24.75 L1.6 -24.7 1.6 -24.8 1.55 -24.75" fill="#000000" fill-rule="evenodd" stroke="none"/>
    <path d="M2.0 1.55 L2.0 1.5 2.25 -1.1 3.0 -0.95 3.05 -0.95 2.7 2.4 -0.95 1.9 -1.1 1.9 -1.2 2.0 -1.25 2.0 -1.95 1.95 -1.95 1.8 -1.9 1.75 -1.45 -1.65 -0.6 -1.4 -0.85 1.25 -0.85 1.35 -0.8 1.45 -0.9 1.55 -0.85 1.7 -0.8 1.75 -0.75 1.75 -0.65 1.7 -0.6 1.7 0.2 1.85 0.2 1.9 0.3 1.95 0.5 2.0 1.3 2.05 1.35 2.0 1.7 1.85 1.75 1.85 1.85 1.85 1.9 1.85 1.95 1.7 2.0 1.65 2.05 1.6 2.0 1.55 M0.95 0.35 L0.85 0.65 0.7 0.7 0.65 0.75 0.3 0.7 Q0.15 0.4 0.3 0.2 L0.4 0.2 0.75 0.2 0.95 0.3 0.95 0.35" fill="#a69b9b" fill-rule="evenodd" stroke="none"/>
    <path d="M0.95 0.95 L1.1 0.95 1.1 0.9 1.15 0.85 1.1 0.8 1.3 0.4 1.15 0.25 0.75 -0.2 0.65 -0.25 0.55 -0.2 0.5 -0.2 0.5 -0.05 0.3 -0.05 0.0 0.1 Q-0.25 0.65 0.15 0.95 L0.25 1.0 0.85 1.0 0.95 0.95 M1.7 1.3 L1.6 1.4 1.55 1.45 1.55 1.6 1.25 1.75 1.05 1.75 0.45 1.65 0.4 1.6 0.35 1.55 0.2 1.55 -0.25 1.5 -0.3 1.5 -0.35 1.45 -0.45 1.4 -0.5 1.4 -0.45 1.3 0.5 -7.85 0.7 -7.9 0.75 -8.0 0.8 -8.05 0.9 -8.15 0.95 -8.15 1.05 -8.1 1.2 -8.1 1.25 -8.05 2.65 -7.4 2.65 -7.45 2.7 -7.5 1.7 1.3 M4.8 -29.6 L4.85 -29.6 6.15 -29.55 5.3 -21.75 4.15 -22.3 4.05 -22.4 3.7 -22.6 2.25 -24.0 2.2 -24.0 Q1.6 -25.4 1.9 -26.95 L1.95 -27.0 2.05 -27.2 2.4 -27.8 Q3.15 -28.9 4.4 -29.35 L4.8 -29.6 M3.85 -21.35 L4.2 -21.1 4.15 -20.55 4.15 -20.45 3.75 -17.05 3.7 -17.05 3.55 -17.05 3.45 -17.0 2.75 -16.75 2.5 -16.65 2.4 -16.65 1.75 -17.0 1.55 -17.25 1.45 -17.25 2.0 -22.15 2.05 -22.15 3.85 -21.35" fill="#715426" fill-rule="evenodd" stroke="none"/>
    <path d="M6.65 -30.1 L6.9 -30.0 5.8 -21.85 5.75 -21.6 5.55 -21.6 5.5 -21.65 6.4 -29.6 6.45 -29.65 6.45 -29.7 6.5 -30.1 6.55 -30.1 6.65 -30.1 M3.45 -22.4 L3.5 -22.4 3.55 -22.4 4.95 -21.55 4.85 -21.35 4.75 -21.3 4.75 -21.35 4.7 -21.35 4.4 -21.45 4.4 -21.5 3.8 -21.75 2.5 -22.4 2.4 -22.35 2.4 -22.3 1.85 -22.5 1.95 -22.6 1.95 -22.65 1.8 -22.75 1.7 -22.9 1.9 -23.0 1.8 -23.35 1.9 -23.4 1.6 -24.35 1.65 -24.6 2.3 -23.45 2.35 -23.45 2.45 -23.3 3.0 -22.8 3.35 -22.55 3.45 -22.4" fill="#9d6f37" fill-rule="evenodd" stroke="none"/>
    <path d="M3.2 -12.0 L2.4 -13.05 3.35 -13.7 3.4 -13.65 3.2 -12.0 M2.85 -16.5 L3.7 -16.75 3.75 -16.75 3.6 -15.7 2.65 -16.4 2.75 -16.5 2.85 -16.5 M3.45 -14.2 L3.4 -14.2 3.4 -14.15 3.3 -14.25 3.2 -14.2 2.45 -14.85 2.35 -14.9 2.3 -14.95 2.25 -15.05 1.5 -15.5 1.45 -15.55 1.3 -15.8 1.4 -16.95 1.6 -16.7 1.7 -16.7 2.1 -16.35 2.2 -16.35 2.2 -16.3 2.25 -16.3 3.6 -15.4 3.45 -14.2 M1.2 -14.2 L1.1 -14.15 1.25 -15.4 2.2 -14.65 2.25 -14.65 2.85 -14.2 1.75 -13.55 1.2 -14.2 M1.55 -13.45 L1.05 -13.2 1.1 -13.85 1.15 -13.85 1.55 -13.45 M1.1 -9.65 L0.85 -9.75 0.75 -9.9 0.7 -9.9 0.75 -10.55 1.0 -10.6 1.05 -10.6 1.25 -10.55 Q1.1 -10.15 1.1 -9.65 M0.6 -8.3 L0.5 -8.25 0.65 -9.5 0.7 -9.5 1.1 -9.35 1.15 -9.2 1.2 -9.15 1.3 -9.15 1.35 -9.2 1.35 -9.25 1.9 -8.9 Q1.2 -8.85 0.6 -8.3 M2.85 -8.65 L2.7 -7.55 1.3 -8.4 2.0 -8.85 2.85 -8.65 M2.3 -10.7 L2.45 -10.65 3.0 -9.95 2.85 -8.9 1.4 -9.45 1.4 -9.5 1.45 -10.5 2.25 -10.7 2.3 -10.7 M3.05 -11.75 L3.1 -11.75 3.2 -11.85 3.05 -10.35 1.85 -11.85 1.7 -12.05 1.4 -12.2 1.3 -11.85 1.35 -11.85 1.5 -11.8 1.7 -11.55 1.8 -11.55 2.15 -11.0 2.1 -10.95 0.8 -10.85 0.9 -11.7 0.95 -11.75 0.95 -11.8 1.3 -12.1 1.25 -12.15 2.2 -12.9 2.95 -11.95 3.05 -11.75 M3.05 -14.05 L3.2 -13.9 3.1 -13.85 1.05 -12.35 1.05 -12.2 1.05 -12.15 0.95 -12.1 1.0 -12.8 1.05 -12.85 1.15 -13.05 1.25 -13.05 1.7 -13.15 1.75 -13.15 1.8 -13.15 2.0 -13.3 1.95 -13.3 2.0 -13.35 2.05 -13.4 3.05 -14.05" fill="#e3cdb3" fill-rule="evenodd" stroke="none"/>
  </g>
</svg>
