<?xml version="1.0" encoding="UTF-8" standalone="no"?>
<svg xmlns:xlink="http://www.w3.org/1999/xlink" height="8.15px" width="6.9px" xmlns="http://www.w3.org/2000/svg">
  <g transform="matrix(1.0, 0.0, 0.0, 1.0, 3.45, 4.1)">
    <path d="M0.45 -3.7 L-1.5 -3.6 -1.5 -3.55 -1.65 -3.55 -1.65 -3.1 -1.4 -3.15 -1.45 -3.35 -1.25 -3.35 -1.0 -3.35 0.6 -3.55 0.55 -3.7 0.95 -3.8 1.3 -3.8 1.5 -3.6 0.6 -3.35 -0.4 -3.25 -0.5 -3.2 -0.5 -3.05 1.3 -3.1 1.3 -3.05 1.4 -2.5 1.75 -2.0 2.25 -1.5 2.9 -1.15 2.95 -0.15 2.85 -0.15 2.85 1.05 2.75 2.2 2.5 2.4 2.1 2.65 1.25 3.05 0.15 3.45 -1.1 3.7 -1.05 3.85 -2.0 3.65 -2.6 3.4 -3.05 3.1 -3.2 2.75 -3.25 -0.7 -3.1 -1.1 -3.0 -1.15 -2.25 -1.85 Q-1.75 -2.5 -1.75 -2.9 L-1.7 -2.95 -1.7 -3.05 -1.9 -3.15 -1.95 -3.25 -1.9 -3.45 -1.55 -3.65 0.45 -3.7 M-2.9 -1.0 L-2.9 -0.85 -2.55 -0.65 -0.4 -0.5 1.45 -0.55 1.4 -0.75 -1.95 -0.8 Q-2.7 -0.8 -2.7 -1.0 L-2.9 -1.0 M-2.4 -1.35 L-2.4 -1.1 -2.15 -1.1 -2.15 -1.0 -1.2 -0.9 -1.15 -0.9 -1.0 -0.9 -0.9 -0.9 -0.5 -0.9 1.6 -1.2 1.55 -1.3 0.6 -1.2 0.55 -1.35 -0.1 -1.45 -0.25 -1.5 -0.35 -1.55 -0.6 -1.55 -1.05 -1.7 -1.3 -1.7 Q-1.05 -2.05 -1.05 -2.65 L-1.1 -2.75 -1.8 -2.15 -2.4 -1.35 M-2.65 -0.35 L-2.8 -0.5 -3.05 -0.55 -3.1 0.45 -3.05 0.55 -3.05 3.0 -2.55 3.1 -2.4 3.2 -2.25 3.15 -2.25 3.05 -2.2 3.0 -1.8 1.7 Q-1.35 0.7 -0.9 0.5 L-0.9 0.45 -0.85 0.15 -0.75 -0.1 -0.65 -0.2 -0.55 -0.35 -0.6 -0.45 -0.8 -0.45 -0.85 -0.45 -0.85 -0.4 -0.95 -0.3 -1.25 -0.3 -2.65 -0.35 M1.6 -3.5 L1.65 -3.45 1.5 -3.3 1.45 -3.35 1.6 -3.5 M3.1 1.3 L3.2 1.75 3.1 1.65 3.1 1.3" fill="#ca984f" fill-rule="evenodd" stroke="none"/>
    <path d="M-1.05 3.85 L-1.1 3.7 0.15 3.45 1.25 3.05 2.1 2.65 2.5 2.4 2.75 2.2 2.85 1.05 2.85 -0.15 2.95 -0.15 3.05 -0.15 3.1 1.3 3.1 1.65 3.2 1.75 3.25 2.7 3.15 2.65 3.1 2.75 3.0 2.85 2.9 2.95 2.6 3.0 1.9 3.4 0.95 3.65 -0.3 3.85 -0.55 3.9 -1.05 3.9 -1.05 3.85 M1.3 -3.1 L-0.5 -3.05 -0.5 -3.2 -0.4 -3.25 0.6 -3.35 1.5 -3.6 1.55 -3.6 1.6 -3.5 1.45 -3.35 1.4 -3.3 1.55 -3.25 1.55 -3.15 1.55 -3.1 1.3 -3.1" fill="#412f14" fill-rule="evenodd" stroke="none"/>
    <path d="M0.55 -3.7 L0.6 -3.55 -1.0 -3.35 -1.25 -3.35 -1.45 -3.35 -1.4 -3.15 -1.65 -3.1 -1.65 -3.55 -1.5 -3.55 -1.5 -3.6 0.45 -3.7 0.55 -3.7 M-2.65 -0.35 L-1.25 -0.3 -0.95 -0.3 -0.85 -0.4 -0.85 -0.45 -0.8 -0.45 -0.6 -0.45 -0.55 -0.35 -0.65 -0.2 -0.75 -0.1 -0.85 0.15 -0.9 0.45 -0.9 0.5 Q-1.35 0.7 -1.8 1.7 L-2.2 3.0 -2.25 3.05 -2.25 3.15 -2.4 3.2 -2.55 3.1 -3.05 3.0 -3.05 0.55 -3.1 0.45 -3.05 -0.55 -2.8 -0.5 -2.65 -0.35 M-2.4 -1.35 L-1.8 -2.15 -1.1 -2.75 -1.05 -2.65 Q-1.05 -2.05 -1.3 -1.7 L-1.05 -1.7 -0.6 -1.55 -0.35 -1.55 -0.25 -1.5 -0.1 -1.45 0.55 -1.35 0.6 -1.2 1.55 -1.3 1.6 -1.2 -0.5 -0.9 -0.9 -0.9 -1.0 -0.9 -1.15 -0.9 -1.2 -0.9 -2.15 -1.0 -2.15 -1.1 -2.4 -1.1 -2.4 -1.35" fill="#e8d1b0" fill-rule="evenodd" stroke="none"/>
    <path d="M0.45 -3.7 L-1.55 -3.65 -1.9 -3.45 -1.95 -3.25 -1.9 -3.15 -1.7 -3.05 -1.7 -2.95 -1.75 -2.9 Q-1.75 -2.5 -2.25 -1.85 L-3.0 -1.15 -3.1 -1.1 -3.25 -0.7 -3.2 2.75 -3.05 3.1 -2.6 3.4 -2.0 3.65 -1.05 3.85 -1.05 3.9 -0.55 3.9 -0.3 3.85 0.95 3.65 1.9 3.4 2.6 3.0 2.9 2.95 3.0 2.85 3.1 2.75 3.15 2.65 3.25 2.7 3.2 1.75 3.1 1.3 3.05 -0.15 2.95 -0.15 2.9 -1.15 2.25 -1.5 1.75 -2.0 1.4 -2.5 1.3 -3.05 1.3 -3.1 1.55 -3.1 Q1.55 -1.95 3.05 -1.35 L3.05 -1.3 3.1 -1.3 3.2 -0.9 3.1 -0.65 3.45 2.5 3.4 3.05 3.25 3.05 3.25 2.9 2.8 3.2 2.45 3.45 1.9 3.6 1.4 3.8 0.55 3.9 -0.6 4.05 -1.8 3.95 Q-2.05 3.85 -2.9 3.5 -3.55 3.25 -3.4 2.75 L-3.4 -1.3 -3.1 -1.3 -2.4 -2.15 -2.05 -2.55 -1.95 -2.9 Q-2.15 -3.0 -2.15 -3.25 -2.15 -3.75 -1.7 -3.75 L0.45 -3.95 0.85 -3.95 1.0 -4.1 1.65 -4.1 1.7 -4.0 1.6 -3.85 1.65 -3.75 1.9 -3.45 1.6 -3.15 1.55 -3.15 1.55 -3.25 1.4 -3.3 1.45 -3.35 1.5 -3.3 1.65 -3.45 1.6 -3.5 1.55 -3.6 1.5 -3.6 1.3 -3.8 0.95 -3.8 0.55 -3.7 0.45 -3.7 M-2.9 -1.0 L-2.7 -1.0 Q-2.7 -0.8 -1.95 -0.8 L1.4 -0.75 1.45 -0.55 -0.4 -0.5 -2.55 -0.65 -2.9 -0.85 -2.9 -1.0" fill="#000000" fill-rule="evenodd" stroke="none"/>
  </g>
</svg>
