<?xml version="1.0" encoding="UTF-8" standalone="no"?>
<svg xmlns:xlink="http://www.w3.org/1999/xlink" height="10.85px" width="10.55px" xmlns="http://www.w3.org/2000/svg">
  <g transform="matrix(1.0, 0.0, 0.0, 1.0, 5.0, 5.05)">
    <path d="M3.2 -4.2 L3.3 -4.2 4.4 -3.15 4.45 -3.1 4.45 -3.05 4.45 -2.9 4.35 -2.85 3.9 -2.3 3.9 -2.25 4.05 -1.75 4.15 -1.35 5.15 -1.5 5.25 -1.55 5.35 -1.5 5.4 -1.5 5.5 0.2 5.45 0.3 5.3 0.25 5.25 0.3 4.5 0.55 4.55 1.05 4.5 1.15 4.5 1.2 4.75 1.25 4.85 1.35 4.85 1.4 5.05 1.45 5.3 1.7 5.45 1.8 5.5 1.85 5.5 1.9 5.45 2.0 5.4 2.05 4.8 3.0 4.6 3.4 4.55 3.45 4.45 3.5 4.35 3.55 4.35 3.5 4.2 3.5 4.2 3.4 3.7 3.05 3.65 3.1 3.2 3.55 3.35 3.7 3.4 3.7 3.45 3.9 3.5 3.9 3.55 3.9 3.6 4.45 3.55 4.5 3.45 4.55 2.25 5.25 2.05 5.2 1.85 5.2 1.8 5.0 1.75 4.8 1.65 4.65 1.05 4.6 0.7 4.7 0.7 4.9 0.65 5.0 0.65 5.2 0.65 5.25 0.65 5.45 0.5 5.6 0.4 5.6 -0.75 5.7 -0.85 5.6 -0.95 5.5 -1.35 5.4 -1.45 5.35 -1.5 5.25 -1.25 4.45 -1.2 4.4 -1.6 4.1 -1.65 4.1 -1.8 4.25 -1.85 4.35 -2.25 4.8 -2.3 5.0 -2.45 5.1 -2.55 4.95 -2.55 4.9 -2.75 4.75 -2.85 4.7 -2.85 4.6 -3.1 4.4 -3.15 4.35 -3.25 4.3 -3.3 4.2 -3.65 4.0 -3.6 3.85 -3.55 3.8 -3.5 3.75 -3.55 3.65 -3.5 3.55 -3.2 3.05 -3.2 2.9 -3.3 2.8 -3.3 2.75 -3.35 2.7 -3.4 2.65 -3.4 2.55 -4.15 2.65 -4.2 2.7 -4.25 2.8 -4.5 2.7 -4.8 1.75 -4.85 1.6 -4.8 1.5 -4.75 1.45 -4.75 1.15 -4.85 1.05 -4.75 0.95 -4.7 0.9 -4.15 0.8 -4.05 0.3 -4.05 0.05 -4.8 -0.05 -4.95 -0.15 -4.95 -0.25 -5.0 -0.35 -5.0 -0.45 -4.95 -0.8 -4.7 -1.05 -4.4 -1.8 -4.4 -1.85 -4.4 -1.95 -4.25 -2.0 -4.2 -1.9 -4.15 -1.8 -3.75 -1.65 -3.35 -2.0 -3.5 -2.15 -3.8 -2.5 -3.85 -2.5 -3.9 -2.65 -3.85 -2.8 -3.8 -2.8 -3.7 -2.8 -3.7 -2.9 -3.65 -2.95 -3.4 -3.2 -3.15 -3.65 -2.7 -3.9 -2.55 -3.85 -2.5 -3.8 -2.5 -3.75 -2.1 -3.35 -1.15 -3.55 -0.9 -4.35 -0.9 -4.6 -1.0 -4.7 -1.0 -4.8 -0.95 -4.8 -0.9 -4.85 1.05 -4.75 1.1 -4.85 1.1 -4.95 1.25 -4.85 1.3 -4.85 1.25 -4.3 1.2 -4.2 1.15 -4.05 1.25 -4.0 Q1.65 -3.4 2.4 -3.55 L2.9 -4.05 2.9 -4.15 2.95 -4.3 3.2 -4.2 M-0.95 -3.4 L-2.2 -3.0 -2.6 -3.55 -2.9 -3.4 -3.1 -3.2 -3.1 -3.15 -3.1 -3.1 -3.45 -2.65 -3.3 -2.4 -3.25 -2.4 -3.05 -2.35 -2.95 -2.1 -2.95 -2.0 -3.4 -1.45 -3.45 -1.3 -3.8 -1.25 -3.8 -1.35 Q-4.15 -1.4 -4.3 -1.55 L-4.4 -1.15 -4.45 -1.05 -4.6 -0.7 -4.65 -0.4 -4.55 -0.4 -4.45 -0.4 -4.4 -0.35 -4.35 -0.35 -4.35 -0.3 -3.75 -0.15 -3.8 0.2 -3.85 0.35 -3.85 0.6 -3.8 0.85 Q-4.15 1.3 -4.5 1.25 L-4.45 1.4 -4.45 1.5 -4.45 1.6 -4.5 1.65 -4.35 2.2 -4.3 2.35 -4.15 2.55 -4.2 2.5 Q-3.9 2.25 -3.55 2.15 -3.35 2.1 -3.25 2.3 L-3.25 2.35 -2.95 2.8 -2.85 2.9 -3.25 3.65 -3.25 3.8 -3.0 4.0 -3.0 4.05 -2.85 4.25 -2.8 4.2 -2.7 4.35 -2.65 4.5 -2.6 4.6 -2.5 4.6 -2.15 4.2 -1.95 3.85 -1.85 3.8 -1.8 3.75 Q-1.35 3.85 -1.0 4.2 L-0.9 4.25 -1.0 4.6 -1.05 4.65 -1.2 5.2 0.3 5.55 0.35 5.2 0.5 4.4 1.65 4.25 1.7 4.3 1.9 4.5 2.05 4.95 3.35 4.35 3.3 4.2 3.25 4.15 3.2 4.0 3.15 3.9 2.95 3.65 2.85 3.55 3.25 3.2 3.4 2.95 3.35 2.9 3.45 2.75 3.55 2.75 3.6 2.75 4.3 3.2 4.45 3.15 4.5 2.95 4.5 2.85 4.55 2.8 4.6 2.65 4.65 2.65 4.7 2.7 4.9 2.55 4.9 2.25 4.95 2.25 4.95 2.2 5.0 2.05 5.05 1.95 4.65 1.65 4.65 1.6 4.05 1.45 4.2 0.95 4.2 0.4 4.2 0.3 5.2 -0.05 5.2 -0.1 5.2 -0.2 5.15 -1.2 4.05 -1.0 3.8 -1.6 3.65 -2.0 3.45 -2.25 4.1 -3.0 3.8 -3.25 3.7 -3.2 3.7 -3.3 3.7 -3.35 3.2 -3.8 3.1 -3.9 3.05 -3.9 2.75 -3.65 2.55 -3.25 1.7 -3.25 1.15 -3.65 1.1 -3.75 1.05 -3.8 0.9 -3.8 0.85 -3.85 0.8 -3.95 0.8 -4.0 0.95 -4.3 1.0 -4.65 0.7 -4.65 0.6 -4.75 -0.65 -4.6 Q-0.5 -4.0 -0.9 -3.45 L-0.95 -3.4 M0.55 -0.5 L0.25 -0.55 -0.1 -0.55 Q-0.25 -0.3 -0.6 -0.25 L-0.7 -0.15 -0.8 -0.05 -0.8 0.1 -0.95 0.25 -0.95 0.5 -0.85 1.0 -0.5 1.2 -0.25 1.45 1.0 1.15 1.3 0.6 1.3 0.2 0.9 -0.2 0.55 -0.5 M0.65 -0.8 Q1.5 -0.25 1.55 0.5 L1.4 1.0 Q0.55 2.2 -0.7 1.4 -1.3 1.15 -1.3 0.5 L-1.25 0.1 -1.2 0.05 -1.15 -0.05 -1.1 -0.05 -1.0 -0.05 -0.9 -0.3 -0.55 -0.75 Q0.05 -0.95 0.6 -0.75 L0.65 -0.8" fill="#000000" fill-rule="evenodd" stroke="none"/>
    <path d="M-0.95 -3.4 L-0.9 -3.45 Q-0.5 -4.0 -0.65 -4.6 L0.6 -4.75 0.7 -4.65 1.0 -4.65 0.95 -4.3 0.8 -4.0 0.8 -3.95 0.85 -3.85 0.9 -3.8 1.05 -3.8 1.1 -3.75 1.15 -3.65 1.7 -3.25 2.55 -3.25 2.75 -3.65 3.05 -3.9 3.1 -3.9 3.2 -3.8 3.7 -3.35 3.7 -3.3 3.7 -3.2 3.8 -3.25 4.1 -3.0 3.45 -2.25 3.65 -2.0 3.8 -1.6 4.05 -1.0 5.15 -1.2 5.2 -0.2 5.2 -0.1 5.2 -0.05 4.2 0.3 4.2 0.4 4.2 0.95 4.05 1.45 4.65 1.6 4.65 1.65 5.05 1.95 5.0 2.05 4.95 2.2 4.95 2.25 4.9 2.25 4.9 2.55 4.7 2.7 4.65 2.65 4.6 2.65 4.55 2.8 4.5 2.85 4.5 2.95 4.45 3.15 4.3 3.2 3.6 2.75 3.55 2.75 3.45 2.75 3.35 2.9 3.4 2.95 3.25 3.2 2.85 3.55 2.95 3.65 3.15 3.9 3.2 4.0 3.25 4.15 3.3 4.2 3.35 4.35 2.05 4.95 1.9 4.5 1.7 4.3 1.65 4.25 0.5 4.4 0.35 5.2 0.3 5.55 -1.2 5.2 -1.05 4.65 -1.0 4.6 -0.9 4.25 -1.0 4.2 Q-1.35 3.85 -1.8 3.75 L-1.85 3.8 -1.95 3.85 -2.15 4.2 -2.5 4.6 -2.6 4.6 -2.65 4.5 -2.7 4.35 -2.8 4.2 -2.85 4.25 -3.0 4.05 -3.0 4.0 -3.25 3.8 -3.25 3.65 -2.85 2.9 -2.95 2.8 -3.25 2.35 -3.25 2.3 Q-3.35 2.1 -3.55 2.15 -3.9 2.25 -4.2 2.5 L-4.15 2.55 -4.3 2.35 -4.35 2.2 -4.5 1.65 -4.45 1.6 -4.45 1.5 -4.45 1.4 -4.5 1.25 Q-4.15 1.3 -3.8 0.85 L-3.85 0.6 -3.85 0.35 -3.8 0.2 -3.75 -0.15 -4.35 -0.3 -4.35 -0.35 -4.4 -0.35 -4.45 -0.4 -4.55 -0.4 -4.65 -0.4 -4.6 -0.7 -4.45 -1.05 -4.4 -1.15 -4.3 -1.55 Q-4.15 -1.4 -3.8 -1.35 L-3.8 -1.25 -3.45 -1.3 -3.4 -1.45 -2.95 -2.0 -2.95 -2.1 -3.05 -2.35 -3.25 -2.4 -3.3 -2.4 -3.45 -2.65 -3.1 -3.1 -3.1 -3.15 -3.1 -3.2 -2.9 -3.4 -2.6 -3.55 -2.2 -3.0 -0.95 -3.4 M0.65 -0.8 L0.6 -0.75 Q0.05 -0.95 -0.55 -0.75 L-0.9 -0.3 -1.0 -0.05 -1.1 -0.05 -1.15 -0.05 -1.2 0.05 -1.25 0.1 -1.3 0.5 Q-1.3 1.15 -0.7 1.4 0.55 2.2 1.4 1.0 L1.55 0.5 Q1.5 -0.25 0.65 -0.8" fill="#ceab73" fill-rule="evenodd" stroke="none"/>
  </g>
</svg>
