<?xml version="1.0" encoding="UTF-8" standalone="no"?>
<svg xmlns:xlink="http://www.w3.org/1999/xlink" height="10.7px" width="10.55px" xmlns="http://www.w3.org/2000/svg">
  <g transform="matrix(1.0, 0.0, 0.0, 1.0, 4.95, 5.1)">
    <path d="M3.45 4.55 L3.4 4.65 2.1 5.25 2.0 5.35 1.95 5.3 1.85 5.2 1.8 5.1 1.45 4.5 1.45 4.45 0.85 4.45 0.45 4.4 Q0.2 4.85 0.25 5.35 L0.25 5.45 0.2 5.55 0.1 5.6 -1.5 5.05 -1.55 5.0 -1.45 4.85 -1.45 4.75 -1.4 4.0 -1.9 3.85 -1.95 3.8 -2.05 3.75 -2.2 3.95 -2.3 4.0 -2.35 4.0 -2.5 4.15 -2.75 4.3 -2.9 4.4 -2.95 4.45 -3.0 4.4 -3.05 4.3 -3.1 4.25 -3.75 3.35 -4.1 3.0 -4.05 2.95 -4.1 2.8 -4.1 2.7 -4.05 2.75 -4.05 2.6 -3.95 2.65 -3.45 2.35 -3.45 2.3 -3.7 1.7 -3.9 1.8 -3.9 1.85 -4.1 1.8 -4.15 1.85 -4.15 1.9 -4.7 1.75 -4.75 1.7 -4.7 1.55 -4.95 0.2 -4.85 0.0 -4.75 -0.2 -4.55 -0.2 -4.3 -0.15 -4.1 -0.15 -3.85 -0.7 -3.85 -1.05 -4.0 -1.1 -4.1 -1.2 -4.3 -1.25 -4.35 -1.3 -4.5 -1.45 -4.6 -1.6 -4.6 -1.7 -4.25 -2.8 -4.15 -2.85 -3.95 -2.95 -3.7 -3.25 -3.65 -3.3 -3.5 -3.35 -2.9 -2.8 -2.85 -2.75 -2.4 -3.0 -2.4 -3.05 -2.45 -3.2 -2.5 -3.35 -2.85 -3.85 -3.0 -3.9 -3.0 -4.1 -2.85 -4.2 -2.8 -4.2 -2.6 -4.3 -2.55 -4.35 -2.4 -4.35 -2.1 -4.45 -2.05 -4.5 -1.95 -4.6 -1.85 -4.55 -1.6 -4.85 -1.5 -4.7 -1.45 -4.65 -1.45 -4.6 -1.35 -4.6 -1.25 -4.55 -0.85 -4.05 -0.7 -4.0 -0.6 -4.05 -0.55 -4.05 -0.5 -4.1 -0.45 -4.1 -0.35 -4.1 -0.15 -4.75 -0.2 -4.85 -0.25 -4.95 -0.05 -5.1 0.95 -5.05 1.1 -5.0 1.2 -4.95 1.2 -4.9 1.45 -4.8 1.6 -4.8 1.65 -4.7 1.65 -4.65 Q1.4 -4.4 1.55 -4.1 L2.0 -3.85 2.25 -3.7 2.65 -4.4 2.75 -4.45 2.85 -4.45 2.95 -4.45 3.05 -4.45 3.35 -4.25 3.55 -3.9 4.05 -3.4 4.1 -3.35 4.2 -3.35 4.15 -3.15 4.05 -3.1 3.95 -3.1 3.7 -2.8 Q3.7 -2.6 3.85 -2.35 L4.05 -2.45 4.45 -2.55 4.5 -2.6 4.65 -2.55 4.7 -2.55 4.8 -2.45 4.75 -2.4 4.85 -2.35 4.85 -2.3 5.0 -1.95 5.3 -1.55 5.4 -1.0 5.25 -0.9 5.2 -0.9 5.15 -0.9 4.7 -0.7 4.5 0.3 5.1 0.8 5.35 0.9 5.45 0.85 5.55 0.9 5.55 0.95 5.6 1.0 Q5.6 2.15 4.75 2.8 L4.85 2.9 4.9 2.95 4.8 3.05 4.8 3.1 4.3 2.8 4.2 2.75 4.15 2.6 4.05 2.65 3.95 2.75 Q3.3 2.85 3.15 3.55 3.5 3.85 3.45 4.25 L3.55 4.25 3.6 4.35 3.45 4.55 M4.25 0.45 L4.35 -0.95 5.05 -1.05 5.0 -1.4 4.9 -1.6 4.85 -1.7 4.8 -1.7 4.45 -2.25 4.2 -2.15 4.2 -2.1 4.05 -1.95 3.8 -1.95 3.75 -2.0 3.45 -2.6 3.3 -2.65 3.25 -2.7 3.4 -3.0 3.5 -2.95 3.85 -3.35 3.5 -3.6 3.4 -3.7 3.15 -3.95 2.85 -4.1 2.85 -4.0 2.8 -3.95 2.75 -3.9 2.75 -3.85 2.7 -3.85 2.3 -3.35 2.05 -3.5 1.9 -3.65 1.65 -3.75 1.4 -3.8 Q1.1 -4.3 1.3 -4.6 L1.15 -4.6 1.05 -4.6 0.95 -4.7 0.9 -4.75 0.3 -4.8 0.15 -4.85 -0.05 -4.75 0.0 -4.75 0.05 -4.1 -0.15 -3.8 -0.2 -3.8 -0.75 -3.7 -0.85 -3.65 -1.4 -4.3 -1.55 -4.4 Q-1.7 -4.3 -1.8 -4.25 L-1.85 -4.25 -2.05 -4.2 -2.05 -4.15 -2.2 -4.05 -2.35 -4.0 -2.45 -4.05 -2.6 -3.95 -2.3 -3.5 -2.05 -3.25 -2.05 -3.1 -2.0 -3.05 -2.75 -2.45 -2.8 -2.4 -3.1 -2.6 -3.15 -2.65 -3.55 -3.05 -4.45 -1.8 -4.15 -1.6 -3.5 -1.1 -3.75 -0.05 -3.8 0.0 -4.1 0.15 -4.6 0.1 -4.45 1.5 -4.3 1.55 -4.25 1.5 -4.1 1.5 -4.0 1.5 -3.7 1.4 -3.6 1.35 Q-3.35 1.55 -3.4 1.9 L-3.15 2.1 -3.1 2.15 -3.0 2.25 -3.05 2.35 -3.1 2.4 -3.8 2.8 -3.75 2.95 -3.65 3.15 -3.55 3.15 -3.5 3.2 -3.4 3.3 -3.4 3.35 -3.45 3.4 -3.35 3.6 -3.1 3.75 -3.1 3.8 -3.05 3.8 -2.95 3.85 -2.9 4.0 -2.5 3.75 -2.45 3.75 -2.15 3.2 -1.65 3.55 -1.2 3.8 -1.1 3.8 -1.15 4.9 -1.1 4.9 -1.0 4.9 Q-0.6 5.25 -0.05 5.25 -0.1 4.75 0.2 4.15 L0.85 4.15 1.3 4.2 1.55 4.05 2.05 4.95 2.35 4.7 2.4 4.65 2.5 4.7 2.55 4.7 3.1 4.4 3.2 4.35 3.2 4.3 3.1 3.95 2.9 3.55 3.2 2.85 3.7 2.45 3.8 2.45 3.85 2.4 3.9 2.25 4.0 2.2 4.1 2.25 4.2 2.25 4.4 2.55 4.7 2.7 4.8 2.4 4.95 2.35 5.3 1.1 Q4.7 1.05 4.25 0.5 L4.25 0.45 M1.0 0.7 L1.2 0.45 1.3 0.1 1.2 -0.45 1.15 -0.55 1.1 -0.65 1.0 -0.8 0.9 -0.95 0.65 -1.05 0.15 -1.15 -0.15 -0.9 -0.5 -0.7 -0.7 0.55 -0.3 1.05 0.1 1.2 0.65 0.95 1.0 0.7 M1.25 0.95 Q0.45 1.55 -0.3 1.3 L-0.7 1.0 Q-1.45 -0.25 -0.3 -1.2 L0.8 -1.35 1.15 -1.15 1.2 -1.1 1.25 -1.05 1.2 -1.0 1.2 -0.9 1.4 -0.7 1.7 -0.2 1.25 0.9 1.25 0.95" fill="#000000" fill-rule="evenodd" stroke="none"/>
    <path d="M4.25 0.45 L4.25 0.5 Q4.7 1.05 5.3 1.1 L4.95 2.35 4.8 2.4 4.7 2.7 4.4 2.55 4.2 2.25 4.1 2.25 4.0 2.2 3.9 2.25 3.85 2.4 3.8 2.45 3.7 2.45 3.2 2.85 2.9 3.55 3.1 3.95 3.2 4.3 3.2 4.35 3.1 4.4 2.55 4.7 2.5 4.7 2.4 4.65 2.35 4.7 2.05 4.95 1.55 4.05 1.3 4.2 0.85 4.15 0.2 4.15 Q-0.1 4.75 -0.05 5.25 -0.6 5.25 -1.0 4.9 L-1.1 4.9 -1.15 4.9 -1.1 3.8 -1.2 3.8 -1.65 3.55 -2.15 3.2 -2.45 3.75 -2.5 3.75 -2.9 4.0 -2.95 3.85 -3.05 3.8 -3.1 3.8 -3.1 3.75 -3.35 3.6 -3.45 3.4 -3.4 3.35 -3.4 3.3 -3.5 3.2 -3.55 3.15 -3.65 3.15 -3.75 2.95 -3.8 2.8 -3.1 2.4 -3.05 2.35 -3.0 2.25 -3.1 2.15 -3.15 2.1 -3.4 1.9 Q-3.35 1.55 -3.6 1.35 L-3.7 1.4 -4.0 1.5 -4.1 1.5 -4.25 1.5 -4.3 1.55 -4.45 1.5 -4.6 0.1 -4.1 0.15 -3.8 0.0 -3.75 -0.05 -3.5 -1.1 -4.15 -1.6 -4.45 -1.8 -3.55 -3.05 -3.15 -2.65 -3.1 -2.6 -2.8 -2.4 -2.75 -2.45 -2.0 -3.05 -2.05 -3.1 -2.05 -3.25 -2.3 -3.5 -2.6 -3.95 -2.45 -4.05 -2.35 -4.0 -2.2 -4.05 -2.05 -4.15 -2.05 -4.2 -1.85 -4.25 -1.8 -4.25 Q-1.7 -4.3 -1.55 -4.4 L-1.4 -4.3 -0.85 -3.65 -0.75 -3.7 -0.2 -3.8 -0.15 -3.8 0.05 -4.1 0.0 -4.75 -0.05 -4.75 0.15 -4.85 0.3 -4.8 0.9 -4.75 0.95 -4.7 1.05 -4.6 1.15 -4.6 1.3 -4.6 Q1.1 -4.3 1.4 -3.8 L1.65 -3.75 1.9 -3.65 2.05 -3.5 2.3 -3.35 2.7 -3.85 2.75 -3.85 2.75 -3.9 2.8 -3.95 2.85 -4.0 2.85 -4.1 3.15 -3.95 3.4 -3.7 3.5 -3.6 3.85 -3.35 3.5 -2.95 3.4 -3.0 3.25 -2.7 3.3 -2.65 3.45 -2.6 3.75 -2.0 3.8 -1.95 4.05 -1.95 4.2 -2.1 4.2 -2.15 4.45 -2.25 4.8 -1.7 4.85 -1.7 4.9 -1.6 5.0 -1.4 5.05 -1.05 4.35 -0.95 4.25 0.45 M1.25 0.95 L1.25 0.9 1.7 -0.2 1.4 -0.7 1.2 -0.9 1.2 -1.0 1.25 -1.05 1.2 -1.1 1.15 -1.15 0.8 -1.35 -0.3 -1.2 Q-1.45 -0.25 -0.7 1.0 L-0.3 1.3 Q0.45 1.55 1.25 0.95" fill="#ceab73" fill-rule="evenodd" stroke="none"/>
  </g>
</svg>
