<?xml version="1.0" encoding="UTF-8" standalone="no"?>
<svg xmlns:xlink="http://www.w3.org/1999/xlink" height="33.3px" width="8.6px" xmlns="http://www.w3.org/2000/svg">
  <g transform="matrix(1.0, 0.0, 0.0, 1.0, 2.2, 30.6)">
    <path d="M2.75 2.65 L-0.85 2.25 -0.9 2.25 -1.0 2.35 -1.05 2.35 -2.2 2.15 -2.2 1.7 -1.75 -1.85 -1.7 -1.85 -1.65 -1.9 -0.55 -1.6 -0.05 -7.75 -0.05 -7.8 -0.15 -7.9 0.0 -8.1 0.35 -11.75 0.35 -11.85 0.4 -12.75 0.4 -12.9 0.45 -12.95 0.65 -15.6 0.6 -15.65 0.55 -15.7 0.7 -15.9 0.8 -17.1 Q0.7 -17.2 0.75 -17.35 L0.8 -17.45 1.25 -22.25 1.15 -22.3 1.15 -22.5 0.95 -22.6 0.9 -22.65 Q0.75 -22.95 0.95 -23.15 L0.85 -23.6 0.75 -23.85 0.75 -23.8 0.7 -23.75 Q0.5 -24.8 0.7 -26.05 1.1 -28.75 3.7 -29.85 L3.85 -29.95 5.4 -29.9 5.4 -29.95 5.45 -30.05 5.55 -30.45 5.7 -30.55 5.7 -30.6 6.2 -30.55 6.25 -30.55 6.3 -30.45 6.4 -30.4 6.35 -30.25 5.65 -21.85 5.5 -21.4 5.45 -21.4 5.4 -21.4 5.35 -21.4 4.95 -21.4 4.8 -21.5 4.75 -21.5 4.7 -21.55 4.55 -21.2 4.5 -21.15 4.2 -21.15 4.15 -21.15 4.0 -21.1 3.9 -20.7 3.5 -15.6 3.55 -15.6 3.55 -15.55 3.55 -15.5 3.45 -15.4 3.45 -15.35 3.35 -14.0 3.4 -14.0 3.45 -13.95 3.45 -13.9 3.5 -13.85 3.4 -13.75 3.35 -13.7 3.3 -13.7 2.3 -1.4 3.3 -1.25 3.35 -1.25 3.4 -1.2 3.45 -1.1 3.15 2.55 3.1 2.6 2.75 2.65 M2.05 1.5 L2.1 1.55 2.1 1.6 2.05 1.65 2.0 1.85 1.95 1.85 1.85 1.85 1.8 1.85 Q1.65 1.85 1.45 2.0 L1.4 2.05 0.6 2.0 0.4 1.95 0.3 1.9 0.25 1.85 -0.55 1.75 -0.6 1.75 -0.7 1.8 -0.75 1.75 -0.8 1.7 -0.8 1.6 -0.7 1.45 -0.75 1.35 -0.8 1.3 -0.6 -1.35 -1.45 -1.55 -1.8 1.85 -1.85 1.9 -1.85 2.05 -1.15 2.05 -1.1 2.05 -1.0 1.95 -0.85 1.95 2.8 2.35 3.05 -1.0 3.0 -1.0 2.3 -1.15 2.05 1.45 2.05 1.5 M1.8 1.25 L2.55 -7.5 2.5 -7.5 2.5 -7.45 1.1 -8.1 1.05 -8.15 0.9 -8.1 0.8 -8.15 0.75 -8.15 0.65 -8.1 0.6 -8.05 0.55 -7.95 0.3 -7.85 -0.4 1.35 -0.4 1.45 -0.35 1.45 -0.25 1.45 -0.2 1.5 -0.15 1.5 0.3 1.55 0.45 1.55 0.5 1.6 0.55 1.7 1.15 1.7 1.35 1.75 1.65 1.55 1.6 1.4 1.65 1.35 1.8 1.25 M1.0 0.95 L0.95 1.0 0.35 1.0 0.25 0.95 Q-0.2 0.65 0.05 0.15 L0.3 -0.05 0.5 -0.05 0.55 -0.2 0.6 -0.2 0.7 -0.2 0.8 -0.2 1.2 0.2 1.35 0.4 1.15 0.75 1.2 0.8 1.15 0.85 1.15 0.9 1.0 0.95 M1.0 0.3 L0.8 0.2 0.45 0.2 0.35 0.2 Q0.2 0.45 0.35 0.7 L0.7 0.75 0.75 0.7 0.9 0.65 1.0 0.35 1.0 0.3 M5.9 -30.25 L5.8 -30.25 5.75 -30.25 5.7 -29.85 5.7 -29.8 5.65 -29.75 4.95 -21.75 5.05 -21.7 5.25 -21.7 5.25 -21.95 6.15 -30.2 5.9 -30.25 M4.05 -29.7 Q3.9 -29.55 3.65 -29.5 2.4 -28.95 1.75 -27.85 L1.35 -27.2 1.3 -27.0 1.25 -26.95 Q0.95 -25.4 1.6 -24.05 L1.65 -24.05 Q2.3 -23.2 3.15 -22.7 L3.5 -22.45 3.6 -22.4 4.75 -21.85 5.4 -29.7 4.1 -29.7 4.05 -29.7 M2.9 -22.45 L2.8 -22.6 2.45 -22.85 1.9 -23.35 1.75 -23.5 1.7 -23.45 1.05 -24.65 1.0 -24.4 1.3 -23.45 1.25 -23.35 1.35 -23.05 1.15 -22.9 1.25 -22.8 1.4 -22.65 1.4 -22.6 1.3 -22.55 1.85 -22.35 1.9 -22.4 2.0 -22.4 3.3 -21.8 3.85 -21.55 3.85 -21.5 4.15 -21.45 4.2 -21.45 4.2 -21.4 4.3 -21.4 4.45 -21.65 3.0 -22.45 2.95 -22.45 2.9 -22.45 M3.3 -21.4 L1.5 -22.15 1.45 -22.15 1.05 -17.25 1.15 -17.25 1.35 -17.05 2.0 -16.7 2.1 -16.65 2.35 -16.8 3.05 -17.05 3.15 -17.15 3.3 -17.15 3.35 -17.1 3.65 -20.5 3.65 -20.6 3.7 -21.15 3.3 -21.4 M2.45 -16.55 L2.35 -16.55 2.25 -16.45 3.25 -15.75 3.35 -16.8 3.3 -16.85 Q2.9 -16.55 2.45 -16.55 M2.95 -12.0 L3.05 -13.7 3.05 -13.8 2.1 -13.1 2.95 -12.0 2.95 -11.95 2.95 -12.0 M3.1 -14.25 L3.1 -14.2 3.1 -14.25 3.2 -15.45 1.9 -16.35 1.85 -16.35 1.85 -16.4 1.75 -16.4 1.3 -16.75 1.2 -16.75 1.0 -16.95 0.95 -15.8 1.1 -15.6 1.15 -15.55 1.85 -15.1 1.95 -14.95 2.0 -14.95 2.1 -14.9 2.85 -14.3 2.95 -14.35 3.05 -14.25 3.05 -14.3 3.1 -14.25 M2.7 -14.1 L1.75 -13.45 1.7 -13.4 1.65 -13.35 1.7 -13.35 1.5 -13.2 1.45 -13.2 1.4 -13.2 0.95 -13.05 0.85 -13.0 0.8 -12.8 0.75 -12.75 0.65 -12.05 0.75 -12.1 0.8 -12.15 0.8 -12.3 Q1.65 -13.25 2.8 -13.9 L2.9 -14.0 2.7 -14.1 M2.7 -12.0 L1.9 -12.9 1.0 -12.15 1.0 -12.1 0.7 -11.75 0.7 -11.7 0.65 -11.65 0.55 -10.85 1.85 -10.95 1.9 -11.0 1.55 -11.55 1.45 -11.55 1.25 -11.75 1.1 -11.8 1.05 -11.8 Q0.95 -12.1 1.15 -12.15 L1.4 -12.05 1.6 -11.85 2.8 -10.4 2.9 -11.85 Q2.9 -11.75 2.8 -11.8 L2.75 -11.8 2.7 -12.0 M2.05 -10.75 L2.0 -10.75 1.2 -10.55 1.2 -9.55 1.2 -9.5 2.7 -8.95 2.75 -10.0 2.2 -10.7 2.05 -10.75 M2.65 -8.7 L1.8 -8.9 1.1 -8.45 2.55 -7.6 2.65 -8.7 M0.4 -8.3 Q1.0 -8.85 1.7 -8.95 1.45 -9.1 1.15 -9.3 L1.15 -9.25 1.1 -9.2 1.05 -9.15 0.95 -9.2 0.9 -9.35 0.5 -9.5 0.45 -9.5 0.35 -8.25 0.4 -8.3 M0.85 -9.65 Q0.85 -10.2 1.0 -10.55 L0.8 -10.65 0.75 -10.65 0.55 -10.55 0.5 -9.9 0.55 -9.9 0.65 -9.8 0.85 -9.65 M1.25 -13.45 L0.8 -13.85 0.75 -13.85 0.75 -13.2 1.25 -13.45 M0.9 -14.2 L1.45 -13.6 Q2.05 -13.85 2.5 -14.25 L1.9 -14.65 1.85 -14.7 0.9 -15.4 0.8 -14.15 0.9 -14.2 M0.95 -24.8 L1.0 -24.75 0.95 -24.85 0.95 -24.8" fill="#000000" fill-rule="evenodd" stroke="none"/>
    <path d="M2.05 1.5 L2.05 1.45 2.3 -1.15 3.0 -1.0 3.05 -1.0 2.8 2.35 -0.85 1.95 -1.0 1.95 -1.1 2.05 -1.15 2.05 -1.85 2.05 -1.85 1.9 -1.8 1.85 -1.45 -1.55 -0.6 -1.35 -0.8 1.3 -0.75 1.35 -0.7 1.45 -0.8 1.6 -0.8 1.7 -0.75 1.75 -0.7 1.8 -0.6 1.75 -0.55 1.75 0.25 1.85 0.3 1.9 0.4 1.95 0.6 2.0 1.4 2.05 1.45 2.0 Q1.65 1.85 1.8 1.85 L1.85 1.85 1.95 1.85 2.0 1.85 2.05 1.65 2.1 1.6 2.1 1.55 2.05 1.5 M1.0 0.3 L1.0 0.35 0.9 0.65 0.75 0.7 0.7 0.75 0.35 0.7 Q0.2 0.45 0.35 0.2 L0.45 0.2 0.8 0.2 1.0 0.3" fill="#a69b9b" fill-rule="evenodd" stroke="none"/>
    <path d="M1.0 0.95 L1.15 0.9 1.15 0.85 1.2 0.8 1.15 0.75 1.35 0.4 1.2 0.2 0.8 -0.2 0.7 -0.2 0.6 -0.2 0.55 -0.2 0.5 -0.05 0.3 -0.05 0.05 0.15 Q-0.2 0.65 0.25 0.95 L0.35 1.0 0.95 1.0 1.0 0.95 M1.8 1.25 L1.65 1.35 1.6 1.4 1.65 1.55 1.35 1.75 1.15 1.7 0.55 1.7 0.5 1.6 0.45 1.55 0.3 1.55 -0.15 1.5 -0.2 1.5 -0.25 1.45 -0.35 1.45 -0.4 1.45 -0.4 1.35 0.3 -7.85 0.55 -7.95 0.6 -8.05 0.65 -8.1 0.75 -8.15 0.8 -8.15 0.9 -8.1 1.05 -8.15 1.1 -8.1 2.5 -7.45 2.5 -7.5 2.55 -7.5 1.8 1.25 M4.05 -29.7 L4.1 -29.7 5.4 -29.7 4.75 -21.85 3.6 -22.4 3.5 -22.45 3.15 -22.7 Q2.3 -23.2 1.65 -24.05 L1.6 -24.05 Q0.95 -25.4 1.25 -26.95 L1.3 -27.0 1.35 -27.2 1.75 -27.85 Q2.4 -28.95 3.65 -29.5 3.9 -29.55 4.05 -29.7 M3.3 -21.4 L3.7 -21.15 3.65 -20.6 3.65 -20.5 3.35 -17.1 3.3 -17.15 3.15 -17.15 3.05 -17.05 2.35 -16.8 2.1 -16.65 2.0 -16.7 1.35 -17.05 1.15 -17.25 1.05 -17.25 1.45 -22.15 1.5 -22.15 3.3 -21.4" fill="#715426" fill-rule="evenodd" stroke="none"/>
    <path d="M5.9 -30.25 L6.15 -30.2 5.25 -21.95 5.25 -21.7 5.05 -21.7 4.95 -21.75 5.65 -29.75 5.7 -29.8 5.7 -29.85 5.75 -30.25 5.8 -30.25 5.9 -30.25 M2.9 -22.45 L2.95 -22.45 3.0 -22.45 4.45 -21.65 4.3 -21.4 4.2 -21.4 4.2 -21.45 4.15 -21.45 3.85 -21.5 3.85 -21.55 3.3 -21.8 2.0 -22.4 1.9 -22.4 1.85 -22.35 1.3 -22.55 1.4 -22.6 1.4 -22.65 1.25 -22.8 1.15 -22.9 1.35 -23.05 1.25 -23.35 1.3 -23.45 1.0 -24.4 1.05 -24.65 1.7 -23.45 1.75 -23.5 1.9 -23.35 2.45 -22.85 2.8 -22.6 2.9 -22.45" fill="#9d6f37" fill-rule="evenodd" stroke="none"/>
    <path d="M2.95 -12.0 L2.1 -13.1 3.05 -13.8 3.05 -13.7 2.95 -12.0 M2.45 -16.55 Q2.9 -16.55 3.3 -16.85 L3.35 -16.8 3.25 -15.75 2.25 -16.45 2.35 -16.55 2.45 -16.55 M3.1 -14.25 L3.05 -14.3 3.05 -14.25 2.95 -14.35 2.85 -14.3 2.1 -14.9 2.0 -14.95 1.95 -14.95 1.85 -15.1 1.15 -15.55 1.1 -15.6 0.95 -15.8 1.0 -16.95 1.2 -16.75 1.3 -16.75 1.75 -16.4 1.85 -16.4 1.85 -16.35 1.9 -16.35 3.2 -15.45 3.1 -14.25 M0.9 -14.2 L0.8 -14.15 0.9 -15.4 1.85 -14.7 1.9 -14.65 2.5 -14.25 Q2.05 -13.85 1.45 -13.6 L0.9 -14.2 M1.25 -13.45 L0.75 -13.2 0.75 -13.85 0.8 -13.85 1.25 -13.45 M0.85 -9.65 L0.65 -9.8 0.55 -9.9 0.5 -9.9 0.55 -10.55 0.75 -10.65 0.8 -10.65 1.0 -10.55 Q0.85 -10.2 0.85 -9.65 M0.4 -8.3 L0.35 -8.25 0.45 -9.5 0.5 -9.5 0.9 -9.35 0.95 -9.2 1.05 -9.15 1.1 -9.2 1.15 -9.25 1.15 -9.3 Q1.45 -9.1 1.7 -8.95 1.0 -8.85 0.4 -8.3 M2.65 -8.7 L2.55 -7.6 1.1 -8.45 1.8 -8.9 2.65 -8.7 M2.05 -10.75 L2.2 -10.7 2.75 -10.0 2.7 -8.95 1.2 -9.5 1.2 -9.55 1.2 -10.55 2.0 -10.75 2.05 -10.75 M2.7 -12.0 L2.75 -11.8 2.8 -11.8 Q2.9 -11.75 2.9 -11.85 L2.8 -10.4 1.6 -11.85 1.4 -12.05 1.15 -12.15 Q0.95 -12.1 1.05 -11.8 L1.1 -11.8 1.25 -11.75 1.45 -11.55 1.55 -11.55 1.9 -11.0 1.85 -10.95 0.55 -10.85 0.65 -11.65 0.7 -11.7 0.7 -11.75 1.0 -12.1 1.0 -12.15 1.9 -12.9 2.7 -12.0 M2.7 -14.1 L2.9 -14.0 2.8 -13.9 Q1.65 -13.25 0.8 -12.3 L0.8 -12.15 0.75 -12.1 0.65 -12.05 0.75 -12.75 0.8 -12.8 0.85 -13.0 0.95 -13.05 1.4 -13.2 1.45 -13.2 1.5 -13.2 1.7 -13.35 1.65 -13.35 1.7 -13.4 1.75 -13.45 2.7 -14.1" fill="#e3cdb3" fill-rule="evenodd" stroke="none"/>
  </g>
</svg>
