<?xml version="1.0" encoding="UTF-8" standalone="no"?>
<svg xmlns:xlink="http://www.w3.org/1999/xlink" height="8.05px" width="3.0px" xmlns="http://www.w3.org/2000/svg">
  <g transform="matrix(1.0, 0.0, 0.0, 1.0, 1.35, 1.55)">
    <path d="M1.6 -1.3 L1.65 -1.25 1.65 -1.2 1.55 -1.1 1.45 2.45 1.55 4.95 1.4 5.85 1.4 5.95 1.4 6.15 1.3 6.45 0.9 6.5 -0.8 6.35 -0.85 6.45 -1.05 6.4 -1.05 6.3 -1.15 6.2 -1.1 6.1 Q-1.45 3.35 -1.3 0.5 L-1.2 -1.05 -1.25 -1.15 -1.3 -1.2 -1.3 -1.25 -1.25 -1.3 -1.2 -1.3 -1.2 -1.45 -1.1 -1.5 -1.05 -1.55 -0.95 -1.45 -0.9 -1.45 -0.9 -1.4 1.55 -1.35 1.6 -1.3 M-0.25 0.2 L0.1 0.3 0.15 0.25 0.15 0.2 0.4 -0.05 Q0.3 -0.35 -0.1 -0.3 L-0.3 0.2 -0.25 0.2 M0.65 -0.25 L0.7 -0.2 Q0.55 0.9 -0.45 0.35 L-0.6 0.1 -0.6 -0.15 -0.5 -0.25 -0.45 -0.35 -0.45 -0.4 -0.15 -0.55 -0.1 -0.6 Q0.4 -0.65 0.65 -0.25 M1.2 3.8 L1.05 1.3 1.25 -1.05 -0.9 -1.0 -0.95 4.5 -0.8 5.95 -0.75 6.1 -0.7 6.1 0.95 6.25 1.1 6.15 1.1 6.05 1.1 6.0 1.1 5.9 1.2 5.6 1.2 5.5 1.2 5.45 1.25 4.2 1.2 3.8" fill="#000000" fill-rule="evenodd" stroke="none"/>
    <path d="M-0.3 0.2 L-0.1 -0.3 Q0.3 -0.35 0.4 -0.05 L0.15 0.2 0.15 0.25 0.1 0.3 -0.25 0.2 -0.3 0.2" fill="#b9b9b9" fill-rule="evenodd" stroke="none"/>
    <path d="M1.2 3.8 L1.25 4.2 1.2 5.45 1.2 5.5 1.2 5.6 1.1 5.9 1.1 6.0 1.1 6.05 1.1 6.15 0.95 6.25 -0.7 6.1 -0.75 6.1 -0.8 5.95 -0.95 4.5 -0.9 -1.0 1.25 -1.05 1.05 1.3 1.2 3.8 M0.65 -0.25 Q0.4 -0.65 -0.1 -0.6 L-0.15 -0.55 -0.45 -0.4 -0.45 -0.35 -0.5 -0.25 -0.6 -0.15 -0.6 0.1 -0.45 0.35 Q0.55 0.9 0.7 -0.2 L0.65 -0.25" fill="#ab813a" fill-rule="evenodd" stroke="none"/>
  </g>
</svg>
