<?xml version="1.0" encoding="UTF-8" standalone="no"?>
<svg xmlns:xlink="http://www.w3.org/1999/xlink" height="15.2px" width="19.85px" xmlns="http://www.w3.org/2000/svg">
  <g transform="matrix(1.0, 0.0, 0.0, 1.0, 7.25, 9.5)">
    <path d="M9.85 -7.7 L9.45 -7.75 9.35 -7.7 9.35 -7.65 9.2 -7.65 9.05 -7.65 9.0 -7.65 8.8 -7.55 8.75 -7.6 8.65 -7.65 6.6 -7.3 6.25 -7.5 5.85 -7.25 4.2 -7.25 3.55 -7.45 3.0 -7.35 2.75 -7.45 2.75 -7.4 2.7 -7.3 Q2.7 -7.15 2.85 -7.15 L4.3 -6.9 5.6 -6.75 6.1 -6.8 6.25 -6.75 7.25 -6.9 7.25 -6.95 7.25 -7.0 8.4 -7.15 8.6 -7.1 9.2 -7.15 9.3 -7.2 11.0 -7.15 10.75 -7.2 11.5 -7.15 11.55 -7.2 12.0 -7.1 12.0 -7.15 12.05 -7.2 12.1 -7.15 12.05 -7.05 12.0 -7.05 11.6 -6.95 9.0 -5.95 8.6 -5.5 7.65 -4.75 7.65 -4.65 7.6 -4.55 7.1 -4.05 5.45 -2.85 5.45 -2.8 5.4 -2.75 5.35 -2.7 5.3 -2.65 5.35 -2.6 5.35 -2.55 5.55 -2.5 5.6 -2.5 Q5.25 -1.85 5.25 -1.05 L5.3 -1.0 5.4 -0.8 5.35 -0.75 Q5.35 0.05 5.6 0.85 L5.65 2.4 5.4 3.25 Q4.65 5.05 2.65 5.3 -0.25 5.6 -3.05 4.55 L-3.95 4.35 Q-4.75 4.2 -5.35 3.65 -6.4 2.65 -6.9 1.15 L-6.9 0.75 Q-7.0 -1.2 -5.85 -2.9 L-5.75 -2.95 -5.5 -3.35 Q-4.75 -4.35 -4.9 -5.6 L-4.9 -5.75 Q-4.5 -7.1 -5.3 -8.05 L-5.3 -8.1 -5.2 -8.15 -5.05 -8.3 -5.0 -8.3 -4.8 -8.4 -4.5 -8.35 -3.0 -8.1 Q-2.75 -8.05 -2.6 -8.25 L-4.4 -8.75 -4.45 -8.8 -2.4 -8.45 1.1 -7.9 1.05 -7.85 1.0 -7.8 0.95 -7.65 0.8 -6.95 0.8 -6.9 0.75 -6.75 0.0 -6.45 -0.05 -6.4 -0.45 -4.8 -0.65 -4.75 -0.7 -4.8 -0.75 -4.85 -0.8 -5.05 -0.8 -5.1 -0.7 -5.45 -0.75 -5.55 -0.9 -5.6 -1.3 -5.35 -1.3 -5.3 -1.5 -5.0 -1.5 -4.95 -1.6 -3.55 -1.05 -2.9 Q0.35 -2.25 1.9 -2.55 L1.9 -2.6 1.95 -2.6 Q3.1 -3.05 2.85 -4.6 L2.65 -4.65 2.55 -4.55 Q2.55 -4.2 2.35 -4.0 2.2 -3.85 2.15 -4.0 L2.15 -4.1 2.15 -4.15 2.3 -4.35 Q2.6 -5.05 2.4 -5.9 L2.1 -6.2 2.1 -6.3 2.05 -6.45 1.9 -6.55 1.75 -6.45 1.9 -5.9 1.9 -5.75 1.7 -5.45 1.7 -5.4 Q1.65 -5.05 1.2 -4.95 L1.0 -5.05 1.0 -5.15 Q0.75 -5.9 1.35 -6.45 L1.4 -6.65 1.45 -7.15 1.4 -7.15 1.2 -7.6 1.2 -7.85 1.2 -7.9 5.6 -7.55 7.95 -7.75 9.95 -7.7 9.85 -7.7 M9.25 -7.6 L9.35 -7.65 9.35 -7.6 9.25 -7.6 M1.05 -2.0 L1.0 -2.1 Q-0.9 -2.2 -2.45 -3.0 L-3.75 -3.15 -3.8 -3.15 -3.8 -3.2 -3.6 -3.25 -3.85 -3.25 -3.9 -3.25 -4.2 -3.15 -4.1 -3.2 -4.8 -2.85 -4.85 -2.8 -4.9 -2.85 -4.35 -3.05 -4.45 -3.1 -5.0 -3.0 -5.05 -3.0 -5.2 -2.95 -5.7 -2.3 -6.05 -1.2 -6.25 -0.1 -6.25 0.35 -5.8 0.95 -5.6 0.95 -5.45 0.8 -5.3 0.75 Q-4.05 -0.1 -2.65 -0.55 L-2.1 -0.6 -0.1 -0.8 0.2 -0.9 Q1.1 -1.15 1.05 -2.0 M-5.5 -8.2 L-5.55 -8.35 -5.55 -8.4 -5.2 -9.05 -5.0 -8.95 -5.05 -9.0 -5.15 -8.75 -5.2 -8.65 -5.35 -8.55 -5.5 -8.2 M-5.8 0.7 L-5.8 0.65 -5.75 0.7 -5.8 0.7" fill="#333333" fill-rule="evenodd" stroke="none"/>
    <path d="M11.55 -7.2 L11.5 -7.15 10.75 -7.2 11.0 -7.15 9.3 -7.2 9.2 -7.15 8.6 -7.1 8.4 -7.15 7.25 -7.0 7.25 -6.95 7.25 -6.9 6.25 -6.75 6.1 -6.8 5.6 -6.75 4.3 -6.9 2.85 -7.15 Q2.7 -7.15 2.7 -7.3 L2.75 -7.4 2.75 -7.45 3.0 -7.35 3.55 -7.45 4.2 -7.25 5.85 -7.25 6.25 -7.5 6.6 -7.3 8.65 -7.65 8.75 -7.6 8.8 -7.55 9.0 -7.65 9.05 -7.65 9.2 -7.65 9.35 -7.65 9.35 -7.7 9.45 -7.75 9.85 -7.7 9.45 -7.65 9.35 -7.6 9.35 -7.65 9.25 -7.6 9.05 -7.6 9.05 -7.55 9.0 -7.45 9.05 -7.45 9.15 -7.4 9.25 -7.4 9.25 -7.3 10.05 -7.4 11.55 -7.2 M-4.4 -8.75 L-2.6 -8.25 Q-2.75 -8.05 -3.0 -8.1 L-4.5 -8.35 Q-4.35 -8.35 -4.2 -8.5 L-4.4 -8.7 -4.4 -8.75 M-4.8 -8.4 L-5.0 -8.3 -5.05 -8.3 -5.2 -8.15 -5.3 -8.1 -5.3 -8.05 -5.45 -8.15 -5.5 -8.2 -5.35 -8.55 -5.4 -8.5 -5.25 -8.3 Q-5.1 -8.3 -4.95 -8.45 L-4.8 -8.4 M1.05 -2.0 Q1.1 -1.15 0.2 -0.9 L-0.1 -0.8 -2.1 -0.6 -2.65 -0.55 Q-4.05 -0.1 -5.3 0.75 L-5.45 0.8 -5.6 0.95 -5.8 0.95 -6.25 0.35 -6.25 -0.1 -6.05 -1.2 -5.7 -2.3 -5.2 -2.95 -5.05 -3.0 -5.0 -3.0 -4.45 -3.1 -4.35 -3.05 -4.9 -2.85 -4.85 -2.8 -4.8 -2.85 -4.1 -3.2 -4.2 -3.15 -3.9 -3.25 -3.85 -3.25 -3.6 -3.25 -3.8 -3.2 -3.8 -3.15 -3.75 -3.15 -2.45 -3.0 Q-0.9 -2.2 1.0 -2.1 L1.05 -2.0 M-4.85 -2.8 L-5.45 -2.1 -5.65 -1.9 -5.95 -1.1 -5.95 -1.05 Q-5.55 -0.65 -4.9 -0.75 L-3.2 -1.35 -2.4 -1.6 -1.65 -1.85 -1.6 -1.9 -1.5 -2.05 -1.5 -2.1 -1.55 -2.4 -1.6 -2.45 -1.65 -2.5 Q-2.4 -3.05 -3.5 -3.0 L-4.75 -2.8 -4.85 -2.8 M-5.4 -1.65 L-5.45 -1.65 -5.2 -1.9 -5.4 -1.7 -5.4 -1.65 M-5.8 0.7 L-5.75 0.7 -5.8 0.65 -5.8 0.7" fill="#5a5a5a" fill-rule="evenodd" stroke="none"/>
    <path d="M9.85 -7.7 L9.95 -7.7 10.1 -7.75 10.25 -7.75 9.25 -7.4 9.15 -7.4 9.05 -7.45 9.0 -7.45 9.05 -7.55 9.05 -7.6 9.25 -7.6 9.35 -7.6 9.45 -7.65 9.85 -7.7 M-4.5 -8.35 L-4.8 -8.4 -4.95 -8.45 Q-5.1 -8.3 -5.25 -8.3 L-5.4 -8.5 -5.35 -8.55 -5.2 -8.65 -5.15 -8.75 -5.05 -9.0 -5.0 -8.95 -5.0 -9.0 -4.95 -9.0 -4.9 -9.05 -4.75 -8.95 -4.8 -8.95 -4.95 -8.8 Q-4.7 -8.5 -4.4 -8.7 L-4.2 -8.5 Q-4.35 -8.35 -4.5 -8.35 M12.05 -7.2 L12.0 -7.15 12.0 -7.1 11.55 -7.2 10.05 -7.4 10.4 -7.55 10.25 -7.75 12.0 -7.3 12.05 -7.3 12.05 -7.25 12.05 -7.2 M-4.85 -2.8 L-4.75 -2.8 -3.5 -3.0 Q-2.4 -3.05 -1.65 -2.5 L-1.6 -2.45 -1.55 -2.4 -1.5 -2.1 -1.5 -2.05 -1.6 -1.9 -1.65 -1.85 -2.4 -1.6 -3.2 -1.35 -4.9 -0.75 Q-5.55 -0.65 -5.95 -1.05 L-5.95 -1.1 -5.65 -1.9 -5.45 -2.1 -4.85 -2.8 M-3.8 -2.5 L-3.7 -2.55 Q-3.6 -2.5 -3.6 -2.6 -3.75 -2.85 -4.0 -2.85 L-4.15 -2.85 -4.3 -2.75 -4.4 -2.6 -4.55 -2.4 -4.5 -2.35 -4.15 -2.15 -4.0 -2.2 -3.8 -2.5 M-5.4 -1.65 L-5.4 -1.7 -5.2 -1.9 -5.45 -1.65 -5.4 -1.65" fill="#767676" fill-rule="evenodd" stroke="none"/>
    <path d="M-4.45 -8.8 L-4.4 -8.75 -4.4 -8.7 Q-4.7 -8.5 -4.95 -8.8 L-4.8 -8.95 -4.75 -8.95 -4.75 -9.0 -4.45 -8.8 M10.05 -7.4 L9.25 -7.3 9.25 -7.4 10.25 -7.75 10.4 -7.55 10.05 -7.4 M-3.8 -2.5 L-4.0 -2.2 -4.15 -2.15 -4.5 -2.35 -4.55 -2.4 -4.4 -2.6 -4.3 -2.75 -4.15 -2.85 -4.0 -2.85 Q-3.75 -2.85 -3.6 -2.6 -3.6 -2.5 -3.7 -2.55 L-3.8 -2.5" fill="#cbcbcb" fill-rule="evenodd" stroke="none"/>
    <path d="M9.95 -7.7 L7.95 -7.75 5.6 -7.55 1.2 -7.9 1.2 -7.85 1.2 -7.6 1.4 -7.15 1.45 -7.15 1.4 -6.65 1.35 -6.45 Q0.75 -5.9 1.0 -5.15 L1.0 -5.05 1.2 -4.95 Q1.65 -5.05 1.7 -5.4 L1.7 -5.45 1.9 -5.75 1.9 -5.9 1.75 -6.45 1.9 -6.55 2.05 -6.45 2.1 -6.3 2.1 -6.2 2.4 -5.9 Q2.6 -5.05 2.3 -4.35 L2.15 -4.15 2.15 -4.1 2.15 -4.0 Q2.2 -3.85 2.35 -4.0 2.55 -4.2 2.55 -4.55 L2.65 -4.65 2.85 -4.6 Q3.1 -3.05 1.95 -2.6 L1.9 -2.6 1.9 -2.55 Q0.35 -2.25 -1.05 -2.9 L-1.6 -3.55 -1.5 -4.95 -1.5 -5.0 -1.3 -5.3 -1.3 -5.35 -0.9 -5.6 -0.75 -5.55 -0.7 -5.45 -0.8 -5.1 -0.8 -5.05 -0.75 -4.85 -0.7 -4.8 -0.65 -4.75 -0.75 -4.7 -0.95 -4.8 -0.95 -4.85 -1.1 -4.9 -1.2 -4.95 -1.2 -4.9 -1.25 -4.8 -1.35 -4.05 -1.4 -3.8 -1.3 -3.7 -1.3 -3.65 -1.25 -3.55 -1.25 -3.45 -1.1 -3.3 -0.95 -3.2 -0.5 -3.0 -0.45 -3.0 -0.4 -2.95 1.0 -2.7 1.05 -2.75 1.3 -2.75 1.45 -2.75 1.45 -2.8 1.65 -2.8 1.7 -2.8 2.15 -3.0 2.35 -3.15 2.4 -3.15 2.45 -3.2 2.75 -3.5 2.75 -3.55 2.6 -3.7 2.6 -3.65 2.55 -3.7 2.6 -3.8 2.45 -3.65 2.4 -3.6 2.3 -3.7 2.05 -3.6 1.8 -3.8 1.85 -4.2 2.25 -4.6 2.25 -4.65 2.35 -4.8 2.35 -5.1 2.25 -5.2 2.3 -5.3 2.25 -5.35 2.2 -5.45 2.15 -5.5 2.15 -5.55 2.1 -5.6 2.1 -5.45 1.95 -5.35 1.9 -5.25 1.8 -5.1 1.65 -4.85 1.45 -4.75 1.45 -4.7 1.45 -4.65 1.25 -4.65 0.9 -4.75 Q0.65 -4.95 0.55 -5.25 L0.6 -5.65 0.65 -5.7 0.7 -5.85 0.75 -6.0 0.95 -6.15 1.0 -6.25 1.05 -6.35 1.15 -6.55 1.25 -6.8 1.2 -6.8 1.1 -6.9 1.15 -6.95 1.15 -7.05 1.15 -6.95 1.1 -6.85 1.05 -6.85 0.95 -6.8 0.95 -6.7 0.05 -6.15 0.05 -6.05 0.0 -6.0 -0.05 -5.9 -0.05 -5.7 0.0 -5.7 -0.05 -5.3 -0.15 -5.1 -0.4 -4.8 -0.45 -4.8 -0.05 -6.4 0.0 -6.45 0.75 -6.75 0.8 -6.9 0.8 -6.95 0.95 -7.65 1.0 -7.8 1.05 -7.85 1.1 -7.9 -2.4 -8.45 -4.45 -8.8 -4.75 -9.0 -4.75 -8.95 -4.9 -9.05 -4.95 -9.0 -5.0 -9.0 -5.0 -8.95 -5.2 -9.05 -5.55 -8.4 -5.55 -8.35 -5.5 -8.2 -5.45 -8.15 -5.3 -8.05 Q-4.5 -7.1 -4.9 -5.75 L-4.9 -5.6 Q-4.75 -4.35 -5.5 -3.35 L-5.75 -2.95 -5.85 -2.9 Q-7.0 -1.2 -6.9 0.75 L-6.9 1.15 Q-6.4 2.65 -5.35 3.65 -4.75 4.2 -3.95 4.35 L-3.05 4.55 Q-0.25 5.6 2.65 5.3 4.65 5.05 5.4 3.25 L5.65 2.4 5.6 0.85 Q5.35 0.05 5.35 -0.75 L5.4 -0.8 5.3 -1.0 5.25 -1.05 Q5.25 -1.85 5.6 -2.5 L5.6 -2.55 5.55 -2.5 5.35 -2.55 5.35 -2.6 5.3 -2.65 5.35 -2.7 5.4 -2.75 5.45 -2.8 5.45 -2.85 7.1 -4.05 7.6 -4.55 7.65 -4.65 7.65 -4.75 8.6 -5.5 9.0 -5.95 11.6 -6.95 12.0 -7.05 12.05 -7.05 12.1 -7.15 12.05 -7.2 12.05 -7.25 12.05 -7.3 12.0 -7.3 10.25 -7.75 10.1 -7.75 9.95 -7.7 M10.2 -8.0 L12.0 -7.6 12.1 -7.55 12.15 -7.5 12.3 -7.4 12.35 -7.5 12.4 -7.55 12.45 -7.55 12.55 -7.4 12.6 -7.4 12.55 -7.2 12.55 -7.15 12.55 -7.1 12.45 -7.05 12.45 -7.0 12.35 -6.95 12.4 -6.75 12.05 -6.7 11.85 -6.65 Q10.55 -6.4 9.35 -5.75 L9.15 -5.75 8.55 -5.1 8.25 -4.75 8.2 -4.7 8.0 -4.6 Q7.4 -3.85 6.6 -3.25 L6.15 -2.9 6.1 -2.85 Q5.6 -2.15 5.6 -1.2 L5.55 -1.15 5.9 0.7 Q6.3 2.55 5.3 4.2 L4.85 4.7 4.8 4.7 4.7 4.75 4.05 5.1 3.95 5.2 3.9 5.25 2.65 5.65 Q-0.7 5.9 -3.85 4.65 -4.3 4.75 -4.5 4.45 -6.2 3.85 -6.85 2.1 L-7.25 1.2 Q-7.4 -0.85 -6.35 -2.65 L-6.15 -3.05 Q-5.55 -3.55 -5.4 -4.25 L-5.4 -4.3 Q-5.1 -4.7 -5.1 -5.3 L-5.15 -5.35 -5.2 -5.5 -5.25 -5.55 Q-4.9 -6.65 -5.4 -7.65 L-5.65 -8.0 -5.9 -8.15 -5.55 -9.15 -5.6 -9.15 -5.55 -9.15 -5.5 -9.4 -5.5 -9.45 -5.4 -9.45 -5.35 -9.45 -5.3 -9.4 -5.25 -9.4 -5.2 -9.25 -4.25 -9.1 -3.35 -8.95 3.65 -7.85 3.8 -7.85 9.65 -7.95 10.15 -7.95 10.2 -8.0" fill="#000000" fill-rule="evenodd" stroke="none"/>
    <path d="M2.15 -5.5 L2.1 -5.45 2.1 -5.6 2.15 -5.55 2.15 -5.5 M1.65 -4.85 L1.5 -4.7 1.45 -4.65 1.45 -4.7 1.45 -4.75 1.65 -4.85 M1.25 -4.65 L1.05 -4.6 1.35 -4.5 1.45 -4.45 1.75 -4.45 1.5 -4.15 1.65 -4.0 1.7 -4.0 1.85 -4.2 1.8 -3.8 2.05 -3.6 1.95 -3.65 1.95 -3.6 1.95 -3.5 2.05 -3.35 1.7 -3.2 1.6 -3.15 1.6 -3.1 0.9 -3.0 -0.2 -3.15 -0.8 -3.45 -0.8 -3.5 -0.75 -3.55 -0.9 -3.65 -0.9 -3.7 -0.95 -3.8 -1.05 -4.0 -1.05 -4.05 -1.0 -4.35 -0.15 -4.35 -0.1 -4.35 0.0 -4.55 0.3 -5.15 0.35 -5.25 0.35 -5.4 0.3 -5.45 0.25 -5.55 0.3 -5.6 0.3 -5.8 0.35 -5.85 0.5 -5.9 0.45 -5.75 0.6 -5.65 0.55 -5.25 Q0.65 -4.95 0.9 -4.75 L1.25 -4.65 M1.1 -6.85 L1.15 -6.95 1.1 -6.9 1.1 -6.85 M2.4 -3.6 L2.45 -3.65 2.6 -3.8 2.55 -3.7 2.6 -3.65 2.4 -3.6 M2.45 -3.2 L2.4 -3.15 2.35 -3.15 2.15 -3.0 1.7 -2.8 1.65 -2.8 Q2.0 -2.9 2.35 -3.15 L2.45 -3.2 M1.45 -2.8 L1.45 -2.75 1.3 -2.75 1.45 -2.8 M-1.25 -3.55 L-1.3 -3.65 -1.3 -3.7 -1.25 -3.7 -1.2 -3.55 -1.25 -3.55 M-1.2 -4.9 L-1.2 -4.95 -1.1 -4.9 -1.15 -4.9 -1.2 -4.9 M0.0 -5.65 L-0.05 -5.55 -0.05 -5.3 0.0 -5.7 0.0 -5.65" fill="#e99916" fill-rule="evenodd" stroke="none"/>
    <path d="M-0.65 -4.75 L-0.45 -4.8 -0.4 -4.8 -0.15 -5.1 -0.05 -5.3 -0.05 -5.55 0.0 -5.65 0.0 -5.95 0.2 -6.1 0.2 -6.15 1.05 -6.65 1.1 -6.55 1.15 -6.55 1.05 -6.35 1.0 -6.3 1.0 -6.35 0.85 -6.5 0.55 -6.3 0.45 -6.2 0.5 -5.9 0.35 -5.85 0.3 -5.8 0.3 -5.6 0.25 -5.55 0.15 -5.2 0.1 -4.85 -0.1 -4.8 -0.1 -4.75 -0.15 -4.65 -0.25 -4.55 -0.55 -4.55 -0.55 -4.5 -0.6 -4.45 -1.0 -4.4 -1.0 -4.35 -1.05 -4.05 -1.05 -4.0 -1.05 -3.95 -1.05 -3.85 -1.1 -3.9 -1.25 -3.7 -1.3 -3.7 -1.4 -3.8 -1.35 -4.05 -1.3 -4.6 -1.15 -4.85 -0.95 -4.8 -0.75 -4.7 -0.65 -4.75 M2.1 -5.45 L2.15 -5.5 2.2 -5.45 2.25 -5.35 2.3 -5.3 2.25 -5.2 2.35 -5.1 2.35 -4.8 2.25 -4.65 2.25 -4.6 2.35 -4.9 2.3 -4.9 2.25 -5.0 2.2 -4.95 1.75 -4.45 1.45 -4.45 1.35 -4.5 1.05 -4.6 1.25 -4.65 1.45 -4.65 1.5 -4.7 1.65 -4.85 1.8 -5.1 1.9 -5.25 1.95 -5.35 2.1 -5.45" fill="#f4cd8e" fill-rule="evenodd" stroke="none"/>
    <path d="M1.1 -6.9 L1.2 -6.8 1.25 -6.8 1.15 -6.55 1.1 -6.55 1.05 -6.65 0.2 -6.15 0.2 -6.1 0.0 -5.95 0.0 -5.65 0.0 -5.7 -0.05 -5.7 -0.05 -5.9 0.0 -6.0 0.05 -6.05 0.05 -6.15 0.95 -6.7 0.95 -6.8 1.05 -6.85 1.1 -6.85 1.1 -6.9 M1.05 -6.35 L1.0 -6.25 0.95 -6.15 0.75 -6.0 0.75 -6.15 0.9 -6.2 1.0 -6.25 1.0 -6.3 1.05 -6.35 M-1.35 -4.05 L-1.25 -4.8 -1.2 -4.9 -1.15 -4.9 -1.1 -4.9 -0.95 -4.85 -0.95 -4.8 -1.15 -4.85 -1.3 -4.6 -1.35 -4.05 M0.25 -5.55 L0.3 -5.45 0.35 -5.4 0.35 -5.25 0.3 -5.15 0.0 -4.55 -0.1 -4.35 -0.15 -4.35 -1.0 -4.35 -1.0 -4.4 -0.6 -4.45 -0.55 -4.5 -0.55 -4.55 -0.25 -4.55 -0.15 -4.65 -0.1 -4.75 -0.1 -4.8 0.1 -4.85 0.15 -5.2 0.25 -5.55 M-1.05 -4.0 L-0.95 -3.8 -0.9 -3.7 -0.9 -3.65 -0.95 -3.65 -0.95 -3.7 -1.05 -3.85 -1.05 -3.95 -1.05 -4.0" fill="#efb85f" fill-rule="evenodd" stroke="none"/>
    <path d="M1.75 -4.45 L2.2 -4.95 2.25 -5.0 2.3 -4.9 2.35 -4.9 2.25 -4.6 1.85 -4.2 1.7 -4.0 1.65 -4.0 1.5 -4.15 1.75 -4.45 M0.75 -6.0 L0.7 -5.85 0.65 -5.7 0.6 -5.65 0.45 -5.75 0.5 -5.9 0.45 -6.2 0.55 -6.3 0.85 -6.5 1.0 -6.35 1.0 -6.3 1.0 -6.25 0.9 -6.2 0.75 -6.15 0.75 -6.0 M2.05 -3.6 L2.3 -3.7 2.4 -3.6 2.6 -3.65 2.6 -3.7 2.75 -3.55 2.75 -3.5 2.45 -3.2 2.35 -3.15 Q2.0 -2.9 1.65 -2.8 L1.45 -2.8 1.3 -2.75 1.05 -2.75 1.0 -2.7 -0.4 -2.95 -0.45 -3.0 -0.5 -3.0 -0.95 -3.2 -1.1 -3.3 -1.25 -3.45 -1.25 -3.55 -1.2 -3.55 -1.25 -3.7 -1.1 -3.9 -1.05 -3.85 -0.95 -3.7 -0.95 -3.65 -0.9 -3.65 -0.75 -3.55 -0.8 -3.5 -0.8 -3.45 -0.2 -3.15 0.9 -3.0 1.6 -3.1 1.6 -3.15 1.7 -3.2 2.05 -3.35 1.95 -3.5 1.95 -3.6 1.95 -3.65 2.05 -3.6" fill="#95620f" fill-rule="evenodd" stroke="none"/>
  </g>
</svg>
