<?xml version="1.0" encoding="UTF-8" standalone="no"?>
<svg xmlns:xlink="http://www.w3.org/1999/xlink" height="17.55px" width="21.5px" xmlns="http://www.w3.org/2000/svg">
  <g transform="matrix(1.0, 0.0, 0.0, 1.0, 6.7, 10.85)">
    <path d="M12.75 -0.2 L12.45 -0.5 12.35 -0.5 12.25 -0.6 12.1 -0.65 11.9 -0.75 11.85 -0.8 11.8 -0.85 9.9 -1.85 9.75 -2.2 9.3 -2.25 7.95 -3.2 7.55 -3.8 7.05 -4.1 6.9 -4.25 6.75 -4.2 6.75 -4.0 7.8 -2.95 8.75 -2.0 9.2 -1.75 9.3 -1.65 10.15 -1.1 10.2 -1.15 10.25 -1.2 11.2 -0.65 11.4 -0.45 11.9 -0.15 12.05 -0.1 13.3 0.95 13.1 0.75 13.75 1.2 13.85 1.2 14.1 1.55 14.15 1.5 14.2 1.55 14.05 1.7 14.0 1.65 13.65 1.5 11.0 0.65 10.45 0.8 9.15 0.8 9.1 0.85 9.0 0.95 8.35 1.0 Q7.35 1.2 6.35 1.0 L6.25 1.1 6.2 1.05 6.1 1.05 6.05 1.1 6.1 1.15 6.05 1.2 6.2 1.35 Q5.55 1.7 5.05 2.3 L5.05 2.4 5.0 2.55 4.95 2.6 Q4.5 3.25 4.2 4.05 L3.25 5.3 2.6 5.85 Q0.9 6.85 -0.85 5.8 -3.35 4.3 -4.9 1.75 L-5.6 1.05 -6.25 -0.3 Q-6.5 -1.75 -6.0 -3.25 L-5.75 -3.6 Q-4.65 -5.2 -2.65 -5.9 L-2.55 -5.8 -2.15 -6.0 Q-0.9 -6.35 -0.3 -7.45 L-0.2 -7.55 Q0.95 -8.4 0.85 -9.6 L0.9 -9.65 1.0 -9.65 1.25 -9.7 1.3 -9.65 1.45 -9.6 1.7 -9.35 2.7 -8.25 3.1 -8.15 2.0 -9.65 3.45 -8.2 5.9 -5.65 5.8 -5.65 5.7 -5.65 5.6 -5.55 5.1 -5.05 5.05 -5.0 4.9 -4.95 4.1 -5.15 4.05 -5.2 2.8 -4.15 2.6 -4.25 2.6 -4.35 2.65 -4.5 2.7 -4.55 3.0 -4.85 2.9 -5.05 2.5 -5.05 2.45 -5.0 2.1 -4.95 2.05 -4.9 1.15 -3.8 1.15 -3.0 Q1.85 -1.6 3.25 -0.9 L3.3 -0.95 3.35 -0.9 Q4.55 -0.6 5.25 -2.0 L5.15 -2.2 5.0 -2.15 4.55 -1.8 Q4.3 -1.85 4.4 -1.95 L4.45 -2.0 4.5 -2.05 4.7 -2.15 5.75 -3.3 5.65 -3.7 5.7 -3.75 5.75 -4.0 5.65 -4.1 5.55 -4.1 5.3 -3.55 5.2 -3.45 4.9 -3.35 4.85 -3.3 4.2 -3.25 4.1 -3.45 4.1 -3.55 Q4.35 -4.3 5.2 -4.35 L5.35 -4.5 5.7 -4.85 5.65 -4.9 5.8 -5.35 5.9 -5.55 5.95 -5.6 Q7.35 -3.9 9.25 -2.7 L11.25 -1.4 Q12.15 -0.9 12.85 -0.2 L12.75 -0.2 M12.25 -0.5 L12.35 -0.5 12.35 -0.4 12.25 -0.5 M2.25 -1.0 L2.3 -1.05 Q0.85 -2.3 0.05 -3.9 L-0.85 -4.8 -0.9 -4.85 -0.7 -4.75 -0.9 -4.95 -0.95 -5.0 -1.2 -5.05 -1.1 -5.05 -1.9 -5.15 -1.95 -5.2 -1.35 -5.1 -1.45 -5.2 -2.0 -5.45 -2.15 -5.5 -2.9 -5.25 Q-3.5 -5.05 -3.8 -4.65 L-4.65 -3.9 -4.9 -3.55 -4.95 -2.7 -4.8 -2.65 -4.6 -2.65 -4.45 -2.6 -1.5 -2.05 -1.05 -1.8 0.65 -0.7 0.95 -0.6 Q1.8 -0.25 2.25 -1.0 M0.85 -9.9 L0.85 -10.0 0.9 -10.05 1.55 -10.4 1.65 -10.2 1.6 -10.25 1.4 -10.05 1.3 -10.05 1.15 -10.0 0.85 -9.9 M-4.8 -2.95 L-4.75 -3.0 -4.75 -2.9 -4.8 -2.95" fill="#333333" fill-rule="evenodd" stroke="none"/>
    <path d="M13.85 1.2 L13.75 1.2 13.1 0.75 13.3 0.95 12.05 -0.1 11.9 -0.15 11.4 -0.45 11.2 -0.65 10.25 -1.2 10.2 -1.15 10.15 -1.1 9.3 -1.65 9.2 -1.75 8.75 -2.0 7.8 -2.95 6.75 -4.0 6.75 -4.2 6.9 -4.25 7.05 -4.1 7.55 -3.8 7.95 -3.2 9.3 -2.25 9.75 -2.2 9.9 -1.85 11.8 -0.85 11.85 -0.8 11.9 -0.75 12.1 -0.65 12.25 -0.6 12.35 -0.5 12.45 -0.5 12.75 -0.2 12.4 -0.45 12.35 -0.4 12.35 -0.5 12.25 -0.5 12.05 -0.6 11.95 -0.5 12.0 -0.35 12.05 -0.3 12.05 -0.2 12.75 0.1 13.85 1.2 M2.0 -9.65 L3.1 -8.15 2.7 -8.25 1.7 -9.35 2.0 -9.35 1.95 -9.6 2.0 -9.65 M1.45 -9.6 L1.3 -9.65 1.25 -9.7 1.0 -9.65 0.9 -9.65 0.85 -9.6 0.85 -9.8 0.85 -9.9 1.15 -10.0 1.1 -10.05 1.05 -9.8 1.4 -9.75 1.45 -9.6 M2.25 -1.0 Q1.8 -0.25 0.95 -0.6 L0.65 -0.7 -1.05 -1.8 -1.5 -2.05 -4.45 -2.6 -4.6 -2.65 -4.8 -2.65 -4.95 -2.7 -4.9 -3.55 -4.65 -3.9 -3.8 -4.65 Q-3.5 -5.05 -2.9 -5.25 L-2.15 -5.5 -2.0 -5.45 -1.45 -5.2 -1.35 -5.1 -1.95 -5.2 -1.9 -5.15 -1.1 -5.05 -1.2 -5.05 -0.95 -5.0 -0.9 -4.95 -0.7 -4.75 -0.9 -4.85 -0.85 -4.8 0.05 -3.9 Q0.85 -2.3 2.3 -1.05 L2.25 -1.0 M-1.95 -5.2 L-2.85 -5.0 -3.1 -4.95 -3.85 -4.5 -3.9 -4.45 Q-3.8 -3.85 -3.25 -3.6 L-1.5 -3.05 -0.7 -2.75 0.0 -2.45 0.1 -2.45 0.3 -2.55 0.35 -2.6 0.45 -2.8 0.45 -2.9 0.45 -3.0 Q0.15 -3.9 -0.75 -4.5 -1.25 -5.0 -1.85 -5.1 L-1.95 -5.2 M-3.05 -4.6 L-3.1 -4.65 -2.75 -4.7 -3.05 -4.6 M-4.8 -2.95 L-4.75 -2.9 -4.75 -3.0 -4.8 -2.95" fill="#5a5a5a" fill-rule="evenodd" stroke="none"/>
    <path d="M12.75 -0.2 L12.85 -0.2 13.0 -0.15 13.15 0.0 12.1 -0.35 12.05 -0.3 12.0 -0.35 11.95 -0.5 12.05 -0.6 12.25 -0.5 12.35 -0.4 12.4 -0.45 12.75 -0.2 M1.7 -9.35 L1.45 -9.6 1.4 -9.75 1.05 -9.8 1.1 -10.05 1.15 -10.0 1.3 -10.05 1.4 -10.05 1.6 -10.25 1.65 -10.2 1.7 -10.25 1.75 -10.2 1.8 -10.15 1.85 -10.0 1.8 -10.05 1.65 -10.0 Q1.6 -9.65 1.95 -9.6 L2.0 -9.35 1.7 -9.35 M14.2 1.55 L14.15 1.5 14.1 1.55 13.85 1.2 12.75 0.1 13.1 0.25 13.15 0.0 14.2 1.35 14.25 1.4 14.25 1.5 14.2 1.55 M-1.95 -5.2 L-1.85 -5.1 Q-1.25 -5.0 -0.75 -4.5 0.15 -3.9 0.45 -3.0 L0.45 -2.9 0.45 -2.8 0.35 -2.6 0.3 -2.55 0.1 -2.45 0.0 -2.45 -0.7 -2.75 -1.5 -3.05 -3.25 -3.6 Q-3.8 -3.85 -3.9 -4.45 L-3.85 -4.5 -3.1 -4.95 -2.85 -5.0 -1.95 -5.2 M-1.35 -4.3 L-1.2 -4.25 Q-1.15 -4.2 -1.05 -4.3 L-1.25 -4.7 -1.35 -4.8 -1.55 -4.8 -1.7 -4.75 -1.95 -4.7 -1.95 -4.6 -1.8 -4.25 -1.65 -4.2 -1.35 -4.3 M-3.05 -4.6 L-2.75 -4.7 -3.1 -4.65 -3.05 -4.6" fill="#767676" fill-rule="evenodd" stroke="none"/>
    <path d="M12.75 0.1 L12.05 -0.2 12.05 -0.3 12.1 -0.35 13.15 0.0 13.1 0.25 12.75 0.1 M1.85 -10.0 L1.9 -10.05 2.0 -9.65 1.95 -9.6 Q1.6 -9.65 1.65 -10.0 L1.8 -10.05 1.85 -10.0 M-1.35 -4.3 L-1.65 -4.2 -1.8 -4.25 -1.95 -4.6 -1.95 -4.7 -1.7 -4.75 -1.55 -4.8 -1.35 -4.8 -1.25 -4.7 -1.05 -4.3 Q-1.15 -4.2 -1.2 -4.25 L-1.35 -4.3" fill="#cbcbcb" fill-rule="evenodd" stroke="none"/>
    <path d="M12.85 -0.2 Q12.15 -0.9 11.25 -1.4 L9.25 -2.7 Q7.35 -3.9 5.95 -5.6 L5.9 -5.55 5.8 -5.35 5.65 -4.9 5.7 -4.85 5.35 -4.5 5.2 -4.35 Q4.35 -4.3 4.1 -3.55 L4.1 -3.45 4.2 -3.25 4.85 -3.3 4.9 -3.35 5.2 -3.45 5.3 -3.55 5.55 -4.1 5.65 -4.1 5.75 -4.0 5.7 -3.75 5.65 -3.7 5.75 -3.3 4.7 -2.15 4.5 -2.05 4.45 -2.0 4.4 -1.95 Q4.3 -1.85 4.55 -1.8 L5.0 -2.15 5.15 -2.2 5.25 -2.0 Q4.55 -0.6 3.35 -0.9 L3.3 -0.95 3.25 -0.9 Q1.85 -1.6 1.15 -3.0 L1.15 -3.8 2.05 -4.9 2.1 -4.95 2.45 -5.0 2.5 -5.05 2.9 -5.05 3.0 -4.85 2.7 -4.55 2.65 -4.5 2.6 -4.35 2.6 -4.25 2.5 -4.25 2.4 -4.45 2.35 -4.6 2.3 -4.65 2.25 -4.6 2.15 -4.6 1.6 -4.05 1.45 -3.9 1.4 -3.75 1.4 -3.55 1.35 -3.5 1.35 -3.3 1.4 -3.15 1.65 -2.7 1.7 -2.65 1.7 -2.55 2.6 -1.55 2.7 -1.55 2.95 -1.4 3.05 -1.3 3.1 -1.35 3.25 -1.2 3.75 -1.1 4.0 -1.15 4.05 -1.1 4.55 -1.2 4.6 -1.25 4.55 -1.4 4.5 -1.35 4.5 -1.45 4.6 -1.55 4.4 -1.45 4.35 -1.5 4.3 -1.55 4.05 -1.7 4.0 -1.95 4.3 -2.25 4.8 -2.35 4.85 -2.4 5.0 -2.45 5.15 -2.7 5.2 -2.85 5.25 -2.9 5.25 -3.0 5.25 -3.1 5.3 -3.15 5.3 -3.25 5.15 -3.1 5.0 -3.15 4.95 -3.1 4.75 -3.0 4.45 -2.9 4.25 -3.0 4.2 -2.95 4.15 -2.9 4.05 -3.0 3.8 -3.25 3.85 -3.9 4.1 -4.15 4.2 -4.15 4.3 -4.25 4.4 -4.35 4.7 -4.35 4.8 -4.45 4.9 -4.45 5.1 -4.55 5.3 -4.65 5.25 -4.7 5.3 -4.85 5.35 -4.9 5.4 -4.95 5.35 -4.9 5.25 -4.8 5.2 -4.85 5.1 -4.85 5.05 -4.8 4.0 -4.85 3.95 -4.8 3.85 -4.8 3.8 -4.75 3.65 -4.6 3.7 -4.55 3.4 -4.25 3.2 -4.15 2.85 -4.1 2.8 -4.15 4.05 -5.2 4.1 -5.15 4.9 -4.95 5.05 -5.0 5.1 -5.05 5.6 -5.55 5.7 -5.65 5.8 -5.65 5.9 -5.65 3.45 -8.2 2.0 -9.65 1.9 -10.05 1.85 -10.0 1.8 -10.15 1.75 -10.2 1.7 -10.25 1.65 -10.2 1.55 -10.4 0.9 -10.05 0.85 -10.0 0.85 -9.9 0.85 -9.8 0.85 -9.6 Q0.95 -8.4 -0.2 -7.55 L-0.3 -7.45 Q-0.9 -6.35 -2.15 -6.0 L-2.55 -5.8 -2.65 -5.9 Q-4.65 -5.2 -5.75 -3.6 L-6.0 -3.25 Q-6.5 -1.75 -6.25 -0.3 L-5.6 1.05 -4.9 1.75 Q-3.35 4.3 -0.85 5.8 0.9 6.85 2.6 5.85 L3.25 5.3 4.2 4.05 Q4.5 3.25 4.95 2.6 L5.0 2.55 5.05 2.4 5.05 2.3 Q5.55 1.7 6.2 1.35 L6.05 1.2 6.1 1.15 6.05 1.1 6.1 1.05 6.2 1.05 6.25 1.1 6.35 1.0 Q7.35 1.2 8.35 1.0 L9.0 0.95 9.1 0.85 9.15 0.8 10.45 0.8 11.0 0.65 13.65 1.5 14.0 1.65 14.05 1.7 14.2 1.55 14.25 1.5 14.25 1.4 14.2 1.35 13.15 0.0 13.0 -0.15 12.85 -0.2 M13.2 -0.25 L14.4 1.15 14.45 1.3 14.55 1.5 14.6 1.45 14.7 1.45 14.75 1.5 14.75 1.6 14.8 1.65 14.6 1.75 14.6 1.85 14.55 1.9 14.45 1.8 14.4 1.85 14.25 1.9 14.2 2.05 13.85 1.9 13.7 1.85 Q12.5 1.25 11.2 1.05 L11.0 0.95 10.15 1.1 9.75 1.2 9.65 1.2 9.35 1.1 7.45 1.3 6.9 1.35 6.85 1.4 Q6.0 1.65 5.35 2.4 L4.5 4.05 Q3.65 5.8 1.9 6.55 L1.25 6.7 1.2 6.65 1.15 6.6 0.35 6.5 0.25 6.5 0.15 6.5 -1.05 6.1 Q-3.9 4.25 -5.6 1.35 L-6.05 0.8 Q-7.05 -0.7 -6.5 -2.45 L-6.25 -3.4 Q-5.15 -5.2 -3.2 -5.95 L-2.8 -6.15 Q-2.05 -6.2 -1.5 -6.65 L-0.6 -7.35 -0.6 -7.45 -0.6 -7.55 -0.55 -7.6 Q0.35 -8.3 0.55 -9.4 L0.55 -9.8 0.5 -10.05 1.3 -10.65 1.5 -10.85 1.65 -10.8 1.7 -10.85 1.7 -10.75 1.75 -10.7 1.65 -10.5 2.35 -9.8 2.95 -9.2 7.9 -4.05 8.0 -3.95 12.75 -0.6 13.1 -0.25 13.2 -0.25 M6.2 1.35 L6.25 1.3 6.2 1.35" fill="#000000" fill-rule="evenodd" stroke="none"/>
    <path d="M5.25 -3.1 L5.15 -3.1 5.3 -3.25 5.3 -3.15 5.25 -3.1 M4.45 -2.9 L4.25 -2.9 4.15 -2.9 4.2 -2.95 4.25 -3.0 4.45 -2.9 M4.05 -3.0 L3.85 -3.1 4.05 -2.8 4.1 -2.75 4.3 -2.55 3.95 -2.4 3.95 -2.2 4.0 -2.25 4.3 -2.25 4.0 -1.95 4.05 -1.7 4.0 -1.75 3.95 -1.7 3.9 -1.65 3.9 -1.45 3.5 -1.55 3.4 -1.55 2.75 -1.9 Q2.25 -2.2 2.0 -2.65 L1.7 -3.25 1.75 -3.3 1.75 -3.5 1.8 -3.55 1.8 -3.65 1.8 -3.85 1.85 -3.9 2.05 -4.1 2.75 -3.6 2.8 -3.55 3.0 -3.65 3.6 -3.95 3.65 -4.0 3.75 -4.1 3.75 -4.2 3.8 -4.25 3.85 -4.3 4.0 -4.45 4.05 -4.5 4.2 -4.45 4.1 -4.35 4.1 -4.15 3.85 -3.9 3.8 -3.25 4.05 -3.0 M5.25 -4.8 L5.35 -4.9 5.3 -4.85 5.25 -4.8 M4.35 -1.5 L4.4 -1.45 4.6 -1.55 4.5 -1.45 4.5 -1.35 4.35 -1.5 M4.05 -1.1 L4.0 -1.15 3.75 -1.1 3.25 -1.2 4.0 -1.15 4.05 -1.1 M3.1 -1.35 L3.05 -1.3 2.95 -1.4 3.1 -1.35 M1.4 -3.55 L1.4 -3.75 1.45 -3.7 1.4 -3.55 M2.25 -4.6 L2.3 -4.65 2.35 -4.6 2.3 -4.65 2.25 -4.6 M3.65 -4.5 L3.6 -4.45 3.4 -4.25 3.7 -4.55 3.65 -4.5" fill="#e99916" fill-rule="evenodd" stroke="none"/>
    <path d="M2.6 -4.25 L2.8 -4.15 2.85 -4.1 3.2 -4.15 3.4 -4.25 3.6 -4.45 3.65 -4.5 3.85 -4.7 4.1 -4.75 4.15 -4.8 5.05 -4.7 5.1 -4.55 4.9 -4.45 4.8 -4.45 4.85 -4.5 4.8 -4.65 4.5 -4.75 4.35 -4.7 4.2 -4.45 4.05 -4.5 4.0 -4.45 3.85 -4.3 3.8 -4.25 3.5 -4.05 3.2 -3.85 3.05 -3.9 3.0 -3.85 2.95 -3.8 2.75 -3.8 2.6 -3.95 2.55 -3.9 2.45 -3.9 2.1 -4.15 2.05 -4.1 1.85 -3.9 1.8 -3.85 1.75 -3.7 1.7 -3.85 1.45 -3.7 1.4 -3.75 1.45 -3.9 1.6 -4.05 2.0 -4.45 2.25 -4.6 2.4 -4.45 2.5 -4.25 2.6 -4.25 M5.15 -3.1 L5.25 -3.1 5.25 -3.0 5.25 -2.9 5.2 -2.85 5.15 -2.7 5.0 -2.45 4.85 -2.4 4.8 -2.35 5.05 -2.5 5.0 -2.55 5.05 -2.7 4.95 -2.7 4.3 -2.55 4.1 -2.75 4.05 -2.8 3.85 -3.1 4.05 -3.0 4.15 -2.9 4.25 -2.9 4.45 -2.9 4.75 -3.0 4.95 -3.1 5.0 -3.15 5.15 -3.1" fill="#f4cd8e" fill-rule="evenodd" stroke="none"/>
    <path d="M5.3 -4.85 L5.25 -4.7 5.3 -4.65 5.1 -4.55 5.05 -4.7 4.15 -4.8 4.1 -4.75 3.85 -4.7 3.65 -4.5 3.7 -4.55 3.65 -4.6 3.8 -4.75 3.85 -4.8 3.95 -4.8 4.0 -4.85 5.05 -4.8 5.1 -4.85 5.2 -4.85 5.25 -4.8 5.3 -4.85 M4.9 -4.45 L4.8 -4.45 4.7 -4.35 4.4 -4.35 4.55 -4.5 4.75 -4.4 4.8 -4.45 4.9 -4.45 M1.6 -4.05 L2.15 -4.6 2.25 -4.6 2.3 -4.65 2.35 -4.6 2.4 -4.45 2.25 -4.6 2.0 -4.45 1.6 -4.05 M3.8 -4.25 L3.75 -4.2 3.75 -4.1 3.65 -4.0 3.6 -3.95 3.0 -3.65 2.8 -3.55 2.75 -3.6 2.05 -4.1 2.1 -4.15 2.45 -3.9 2.55 -3.9 2.6 -3.95 2.75 -3.8 2.95 -3.8 3.0 -3.85 3.05 -3.9 3.2 -3.85 3.5 -4.05 3.8 -4.25 M1.8 -3.85 L1.8 -3.65 1.8 -3.55 1.75 -3.5 1.7 -3.55 1.75 -3.6 1.75 -3.7 1.8 -3.85" fill="#efb85f" fill-rule="evenodd" stroke="none"/>
    <path d="M4.3 -2.55 L4.95 -2.7 5.05 -2.7 5.0 -2.55 5.05 -2.5 4.8 -2.35 4.3 -2.25 4.0 -2.25 3.95 -2.2 3.95 -2.4 4.3 -2.55 M4.4 -4.35 L4.3 -4.25 4.2 -4.15 4.1 -4.15 4.1 -4.35 4.2 -4.45 4.35 -4.7 4.5 -4.75 4.8 -4.65 4.85 -4.5 4.8 -4.45 4.75 -4.4 4.55 -4.5 4.4 -4.35 M4.05 -1.7 L4.3 -1.55 4.35 -1.5 4.5 -1.35 4.55 -1.4 4.6 -1.25 4.55 -1.2 4.05 -1.1 4.0 -1.15 3.25 -1.2 3.1 -1.35 2.95 -1.4 2.7 -1.55 2.6 -1.55 1.7 -2.55 1.7 -2.65 1.65 -2.7 1.4 -3.15 1.35 -3.3 1.35 -3.5 1.4 -3.55 1.45 -3.7 1.7 -3.85 1.75 -3.7 1.75 -3.6 1.7 -3.55 1.75 -3.5 1.75 -3.3 1.7 -3.25 2.0 -2.65 Q2.25 -2.2 2.75 -1.9 L3.4 -1.55 3.5 -1.55 3.9 -1.45 3.9 -1.65 3.95 -1.7 4.0 -1.75 4.05 -1.7" fill="#95620f" fill-rule="evenodd" stroke="none"/>
  </g>
</svg>
