<?xml version="1.0" encoding="UTF-8" standalone="no"?>
<svg xmlns:xlink="http://www.w3.org/1999/xlink" height="16.2px" width="18.05px" xmlns="http://www.w3.org/2000/svg">
  <g transform="matrix(1.0, 0.0, 0.0, 1.0, 7.9, 10.65)">
    <path d="M7.35 -10.1 L6.95 -10.05 6.85 -10.0 6.9 -9.95 6.75 -9.9 6.65 -9.85 6.6 -9.85 6.4 -9.7 6.35 -9.7 6.25 -9.75 4.35 -8.85 3.95 -9.0 3.65 -8.65 2.1 -8.15 1.35 -8.15 Q1.05 -8.2 0.9 -7.95 L0.65 -7.95 0.65 -7.9 0.6 -7.8 Q0.6 -7.65 0.75 -7.65 L2.2 -7.9 3.5 -8.05 4.0 -8.2 4.15 -8.25 Q4.7 -8.3 5.1 -8.6 L5.05 -8.65 5.05 -8.7 6.1 -9.15 6.3 -9.2 6.9 -9.45 7.0 -9.5 8.6 -9.9 8.35 -9.9 9.1 -10.1 9.15 -10.1 9.6 -10.15 9.65 -10.2 9.7 -10.2 9.65 -10.05 9.6 -10.05 9.3 -9.85 7.0 -8.25 6.8 -7.7 6.05 -6.65 6.05 -6.55 6.1 -6.45 5.7 -5.85 4.45 -4.25 4.45 -4.2 4.4 -4.15 4.35 -4.1 4.4 -4.05 4.45 -4.0 4.45 -3.95 4.65 -4.0 4.7 -4.0 Q4.55 -3.25 4.75 -2.45 L4.8 -2.4 4.95 -2.3 4.95 -2.25 5.6 -0.75 6.05 0.7 6.1 1.65 Q5.85 3.55 3.95 4.3 1.25 5.4 -1.75 5.15 L-2.65 5.25 Q-3.45 5.3 -4.15 4.9 -5.5 4.25 -6.4 2.95 L-6.5 2.55 Q-7.1 0.7 -6.45 -1.3 L-6.35 -1.35 -6.2 -1.8 Q-5.75 -2.95 -6.3 -4.1 L-6.3 -4.25 Q-6.3 -5.7 -7.3 -6.35 L-7.3 -6.4 -7.2 -6.5 -7.15 -6.7 -7.1 -6.7 -6.9 -6.85 -6.6 -6.85 -5.1 -7.0 -4.75 -7.25 -6.6 -7.25 -6.65 -7.3 -4.6 -7.55 -1.1 -8.0 -1.15 -7.85 -1.2 -7.8 -1.15 -7.65 -1.1 -6.95 -1.1 -6.9 -1.15 -6.75 -1.8 -6.25 -1.85 -6.2 -1.75 -4.6 -1.95 -4.45 -2.0 -4.5 -2.05 -4.55 -2.2 -4.65 -2.2 -4.7 -2.2 -5.15 -2.25 -5.15 -2.4 -5.2 -2.7 -4.85 -2.7 -4.8 -2.8 -4.5 -2.8 -4.45 -2.5 -3.05 -1.85 -2.6 Q-0.35 -2.35 1.1 -3.05 L1.1 -3.1 1.15 -3.1 Q2.1 -3.85 1.45 -5.2 L1.25 -5.25 1.15 -5.15 1.15 -4.5 Q1.0 -4.35 0.95 -4.5 L0.95 -4.6 0.95 -4.65 1.0 -4.85 Q1.1 -5.65 0.7 -6.4 L0.3 -6.6 0.3 -6.7 0.2 -6.85 0.0 -6.85 -0.05 -6.75 Q0.0 -6.45 0.2 -6.2 L0.25 -6.05 0.1 -5.75 0.15 -5.7 -0.2 -5.15 -0.4 -5.15 -0.5 -5.25 Q-0.9 -5.9 -0.45 -6.65 L-0.5 -6.85 -0.55 -7.35 -0.6 -7.35 -0.9 -7.7 -1.0 -7.95 -1.0 -8.0 Q1.25 -8.1 3.3 -8.85 L5.55 -9.65 7.45 -10.15 7.35 -10.1 M6.85 -9.9 L6.9 -9.95 6.95 -9.9 6.85 -9.9 M0.45 -2.3 L0.4 -2.3 Q-1.5 -1.9 -3.2 -2.3 L-4.45 -2.05 -4.5 -2.05 -4.55 -2.1 -4.4 -2.2 -4.65 -2.15 -4.7 -2.15 -4.9 -1.95 -4.8 -2.0 -5.4 -1.5 -5.45 -1.4 -5.5 -1.45 -5.05 -1.85 -5.15 -1.8 -5.7 -1.6 -5.75 -1.6 -5.8 -1.45 -6.1 -0.7 -6.15 0.4 -6.05 1.5 -5.95 1.95 -5.35 2.45 -5.2 2.35 -5.05 2.25 -4.9 2.1 -2.75 0.15 -2.2 -0.1 Q-1.25 -0.3 -0.3 -0.8 L-0.1 -1.0 Q0.7 -1.45 0.45 -2.3 M-7.5 -6.5 L-7.65 -6.55 -7.65 -6.6 -7.5 -7.35 -7.3 -7.35 -7.35 -7.35 -7.35 -7.05 -7.4 -6.95 -7.45 -6.85 -7.5 -6.5 M-5.4 2.2 L-5.4 2.15 -5.35 2.2 -5.4 2.2" fill="#333333" fill-rule="evenodd" stroke="none"/>
    <path d="M9.15 -10.1 L9.1 -10.1 8.35 -9.9 8.6 -9.9 7.0 -9.5 6.9 -9.45 6.3 -9.2 6.1 -9.15 5.05 -8.7 5.05 -8.65 5.1 -8.6 Q4.7 -8.3 4.15 -8.25 L4.0 -8.2 3.5 -8.05 2.2 -7.9 0.75 -7.65 Q0.6 -7.65 0.6 -7.8 L0.65 -7.9 0.65 -7.95 0.9 -7.95 Q1.05 -8.2 1.35 -8.15 L2.1 -8.15 3.65 -8.65 3.95 -9.0 4.35 -8.85 6.25 -9.75 6.35 -9.7 6.4 -9.7 6.6 -9.85 6.65 -9.85 6.75 -9.9 6.9 -9.95 6.85 -10.0 6.95 -10.05 7.35 -10.1 7.0 -9.95 6.95 -9.9 6.9 -9.95 6.85 -9.9 6.65 -9.8 6.65 -9.75 6.6 -9.7 6.65 -9.7 6.75 -9.65 6.85 -9.7 6.95 -9.6 7.65 -9.9 9.15 -10.1 M-6.6 -7.25 L-4.75 -7.25 -5.1 -7.0 -6.6 -6.85 -6.4 -7.1 -6.6 -7.2 -6.6 -7.25 M-6.9 -6.85 L-7.1 -6.7 -7.15 -6.7 -7.2 -6.5 -7.3 -6.4 -7.3 -6.35 -7.45 -6.45 -7.5 -6.5 -7.45 -6.85 -7.5 -6.8 -7.35 -6.6 -7.05 -6.85 -6.9 -6.85 M0.45 -2.3 Q0.7 -1.45 -0.1 -1.0 L-0.3 -0.8 Q-1.25 -0.3 -2.2 -0.1 L-2.75 0.15 -4.9 2.1 -5.05 2.25 -5.2 2.35 -5.35 2.45 -5.95 1.95 -6.05 1.5 -6.15 0.4 -6.1 -0.7 -5.8 -1.45 -5.75 -1.6 -5.7 -1.6 -5.15 -1.8 -5.05 -1.85 -5.5 -1.45 -5.45 -1.4 -5.4 -1.5 -4.8 -2.0 -4.9 -1.95 -4.7 -2.15 -4.65 -2.15 -4.4 -2.2 -4.55 -2.1 -4.5 -2.05 -4.45 -2.05 -3.2 -2.3 Q-1.5 -1.9 0.4 -2.3 L0.45 -2.3 M-5.45 -1.4 L-5.85 -0.6 -5.95 -0.4 -6.05 0.5 -6.05 0.55 Q-5.55 0.85 -5.0 0.55 L-3.5 -0.45 -2.8 -0.9 -2.15 -1.35 -2.1 -1.45 -2.0 -1.65 -2.0 -1.7 -2.15 -1.95 -2.2 -1.95 -2.25 -2.0 Q-3.2 -2.35 -4.2 -2.0 L-5.35 -1.5 -5.45 -1.4 M-5.7 -0.2 L-5.7 -0.15 -5.75 -0.15 -5.6 -0.5 -5.7 -0.2 M-5.4 2.2 L-5.35 2.2 -5.4 2.15 -5.4 2.2" fill="#5a5a5a" fill-rule="evenodd" stroke="none"/>
    <path d="M7.35 -10.1 L7.45 -10.15 7.6 -10.25 7.75 -10.25 9.55 -10.3 9.6 -10.3 9.65 -10.25 9.65 -10.2 9.6 -10.15 9.15 -10.1 7.65 -9.9 7.9 -10.15 7.75 -10.25 6.85 -9.75 6.85 -9.7 6.75 -9.65 6.65 -9.7 6.6 -9.7 6.65 -9.75 6.65 -9.8 6.85 -9.9 6.95 -9.9 7.0 -9.95 7.35 -10.1 M-6.6 -6.85 L-6.9 -6.85 -7.05 -6.85 -7.35 -6.6 -7.5 -6.8 -7.45 -6.85 -7.4 -6.95 -7.35 -7.05 -7.35 -7.35 -7.3 -7.35 -7.3 -7.4 -7.25 -7.4 -7.2 -7.45 -7.05 -7.35 -7.1 -7.35 -7.15 -7.2 Q-6.85 -7.0 -6.6 -7.2 L-6.4 -7.1 -6.6 -6.85 M-5.45 -1.4 L-5.35 -1.5 -4.2 -2.0 Q-3.2 -2.35 -2.25 -2.0 L-2.2 -1.95 -2.15 -1.95 -2.0 -1.7 -2.0 -1.65 -2.1 -1.45 -2.15 -1.35 -2.8 -0.9 -3.5 -0.45 -5.0 0.55 Q-5.55 0.85 -6.05 0.55 L-6.05 0.5 -5.95 -0.4 -5.85 -0.6 -5.45 -1.4 M-4.4 -1.4 L-4.3 -1.5 -4.2 -1.6 -4.7 -1.75 -4.75 -1.65 -4.9 -1.55 -5.0 -1.4 -5.05 -1.1 -5.0 -1.1 Q-4.8 -0.95 -4.6 -0.95 L-4.5 -1.1 -4.4 -1.4 M-5.7 -0.2 L-5.6 -0.5 -5.75 -0.15 -5.7 -0.15 -5.7 -0.2" fill="#767676" fill-rule="evenodd" stroke="none"/>
    <path d="M-6.65 -7.3 L-6.6 -7.25 -6.6 -7.2 Q-6.85 -7.0 -7.15 -7.2 L-7.1 -7.35 -7.05 -7.35 -7.05 -7.4 -6.65 -7.3 M7.65 -9.9 L6.95 -9.6 6.85 -9.7 6.85 -9.75 7.75 -10.25 7.9 -10.15 7.65 -9.9 M-4.4 -1.4 L-4.5 -1.1 -4.6 -0.95 Q-4.8 -0.95 -5.0 -1.1 L-5.05 -1.1 -5.0 -1.4 -4.9 -1.55 -4.75 -1.65 -4.7 -1.75 -4.2 -1.6 -4.3 -1.5 -4.4 -1.4" fill="#cbcbcb" fill-rule="evenodd" stroke="none"/>
    <path d="M7.45 -10.15 L5.55 -9.65 3.3 -8.85 Q1.25 -8.1 -1.0 -8.0 L-1.0 -7.95 -0.9 -7.7 -0.6 -7.35 -0.55 -7.35 -0.5 -6.85 -0.45 -6.65 Q-0.9 -5.9 -0.5 -5.25 L-0.4 -5.15 -0.2 -5.15 0.15 -5.7 0.1 -5.75 0.25 -6.05 0.2 -6.2 Q0.0 -6.45 -0.05 -6.75 L0.0 -6.85 0.2 -6.85 0.3 -6.7 0.3 -6.6 0.7 -6.4 Q1.1 -5.65 1.0 -4.85 L0.95 -4.65 0.95 -4.6 0.95 -4.5 Q1.0 -4.35 1.15 -4.5 L1.15 -5.15 1.25 -5.25 1.45 -5.2 Q2.1 -3.85 1.15 -3.1 L1.1 -3.1 1.1 -3.05 Q-0.35 -2.35 -1.85 -2.6 L-2.5 -3.05 -2.8 -4.45 -2.8 -4.5 -2.7 -4.8 -2.7 -4.85 -2.4 -5.2 -2.25 -5.15 -2.2 -5.15 -2.2 -4.7 -2.2 -4.65 -2.05 -4.55 -2.0 -4.5 -1.95 -4.45 -2.05 -4.4 -2.25 -4.4 -2.25 -4.45 -2.4 -4.5 -2.5 -4.5 -2.5 -4.45 -2.55 -4.3 -2.45 -3.55 -2.4 -3.3 -2.3 -3.3 -2.3 -3.25 -2.15 -3.15 -2.15 -3.05 -2.0 -2.9 -1.85 -2.9 -1.3 -2.8 -1.25 -2.8 -1.2 -2.75 0.2 -2.9 0.25 -2.95 0.5 -3.05 0.65 -3.05 0.65 -3.1 0.85 -3.2 0.9 -3.2 1.25 -3.5 1.35 -3.75 1.4 -3.75 1.45 -3.8 1.65 -4.2 1.65 -4.25 1.5 -4.3 1.5 -4.25 1.45 -4.3 1.4 -4.4 1.35 -4.25 1.3 -4.2 1.2 -4.2 0.95 -4.1 Q0.8 -4.1 0.7 -4.2 0.6 -4.4 0.65 -4.6 L0.85 -5.1 0.85 -5.15 0.95 -5.3 0.85 -5.6 0.75 -5.7 0.75 -5.8 0.65 -5.8 0.6 -5.85 0.55 -5.9 0.55 -5.95 0.5 -6.0 0.5 -5.85 0.4 -5.75 0.4 -5.65 0.3 -5.4 0.25 -5.15 0.05 -5.05 0.05 -5.0 0.1 -4.95 -0.05 -4.85 -0.45 -4.85 -0.95 -5.25 -1.0 -5.65 -0.95 -5.7 -0.9 -5.85 -0.95 -6.0 -0.75 -6.25 -0.8 -6.35 -0.75 -6.45 -0.65 -6.65 -0.65 -6.9 -0.7 -6.9 -0.8 -7.0 -0.8 -7.05 -0.8 -6.95 -0.85 -6.95 -0.95 -6.9 -0.95 -6.8 -1.65 -5.95 -1.65 -5.85 -1.65 -5.8 -1.65 -5.7 -1.65 -5.5 -1.6 -5.5 -1.55 -5.1 -1.55 -4.9 -1.7 -4.6 -1.75 -4.6 -1.85 -6.2 -1.8 -6.25 -1.15 -6.75 -1.1 -6.9 -1.1 -6.95 -1.15 -7.65 -1.2 -7.8 -1.15 -7.85 -1.1 -8.0 -4.6 -7.55 -6.65 -7.3 -7.05 -7.4 -7.05 -7.35 -7.2 -7.45 -7.25 -7.4 -7.3 -7.4 -7.3 -7.35 -7.5 -7.35 -7.65 -6.6 -7.65 -6.55 -7.5 -6.5 -7.45 -6.45 -7.3 -6.35 Q-6.3 -5.7 -6.3 -4.25 L-6.3 -4.1 Q-5.75 -2.95 -6.2 -1.8 L-6.35 -1.35 -6.45 -1.3 Q-7.1 0.7 -6.5 2.55 L-6.4 2.95 Q-5.5 4.25 -4.15 4.9 -3.45 5.3 -2.65 5.25 L-1.75 5.15 Q1.25 5.4 3.95 4.3 5.85 3.55 6.1 1.65 L6.05 0.7 5.6 -0.75 4.95 -2.25 4.95 -2.3 4.8 -2.4 4.75 -2.45 Q4.55 -3.25 4.7 -4.0 L4.7 -4.05 4.65 -4.0 4.45 -3.95 4.45 -4.0 4.4 -4.05 4.35 -4.1 4.4 -4.15 4.45 -4.2 4.45 -4.25 5.7 -5.85 6.1 -6.45 6.05 -6.55 6.05 -6.65 6.8 -7.7 7.0 -8.25 9.3 -9.85 9.6 -10.05 9.65 -10.05 9.7 -10.2 9.65 -10.2 9.65 -10.25 9.6 -10.3 9.55 -10.3 7.75 -10.25 7.6 -10.25 7.45 -10.15 M7.6 -10.5 L9.5 -10.6 9.6 -10.55 9.65 -10.55 9.8 -10.5 9.85 -10.6 9.9 -10.65 9.95 -10.65 10.05 -10.55 10.1 -10.6 10.1 -10.35 10.15 -10.35 10.15 -10.3 10.05 -10.2 10.0 -10.05 10.1 -9.9 9.75 -9.75 9.55 -9.65 7.45 -8.15 Q7.35 -8.05 7.25 -8.05 L6.85 -7.3 6.65 -6.85 6.65 -6.8 6.4 -6.6 5.4 -4.95 5.1 -4.5 5.1 -4.45 Q4.8 -3.65 5.0 -2.7 L5.05 -2.65 5.8 -1.0 Q6.7 0.75 6.2 2.6 L5.95 3.2 5.9 3.2 5.8 3.25 5.25 3.8 5.15 3.9 5.1 3.95 4.05 4.65 Q0.9 5.8 -2.45 5.45 -2.9 5.65 -3.2 5.45 -5.0 5.35 -6.05 3.8 L-6.65 3.05 Q-7.4 1.15 -6.85 -0.85 L-6.75 -1.35 Q-6.35 -1.95 -6.4 -2.65 L-6.4 -2.7 Q-6.2 -3.2 -6.4 -3.8 L-6.45 -3.85 -6.5 -3.95 -6.55 -3.95 Q-6.55 -5.15 -7.3 -5.95 L-7.65 -6.2 -7.9 -6.35 -7.85 -7.35 -7.9 -7.35 -7.85 -7.35 -7.85 -7.6 -7.9 -7.65 -7.8 -7.7 -7.75 -7.8 -7.7 -7.75 -7.65 -7.75 -7.5 -7.55 -6.55 -7.7 -5.65 -7.75 1.35 -8.6 1.5 -8.65 7.1 -10.3 7.55 -10.45 7.6 -10.5 M-0.8 -7.05 L-0.85 -7.15 -0.8 -7.05" fill="#000000" fill-rule="evenodd" stroke="none"/>
    <path d="M0.55 -5.9 L0.5 -5.85 0.5 -6.0 0.55 -5.95 0.55 -5.9 M0.25 -5.15 L0.1 -5.0 0.1 -4.95 0.05 -5.0 0.05 -5.05 0.25 -5.15 M-0.05 -4.85 L-0.25 -4.8 0.05 -4.7 0.15 -4.75 0.45 -4.85 0.3 -4.45 0.45 -4.3 0.5 -4.4 0.65 -4.6 Q0.6 -4.4 0.7 -4.2 0.8 -4.1 0.95 -4.1 L0.85 -4.05 0.85 -4.0 0.9 -3.9 1.05 -3.85 0.7 -3.6 0.7 -3.55 0.7 -3.5 0.0 -3.2 -1.1 -3.05 -1.7 -3.15 -1.7 -3.2 -1.75 -3.25 -1.9 -3.4 -1.95 -3.5 Q-2.05 -3.5 -2.15 -3.6 L-2.15 -3.65 -2.2 -3.95 -1.35 -4.2 -1.3 -4.25 -1.3 -4.45 -1.1 -5.05 -1.15 -5.15 -1.15 -5.3 -1.2 -5.35 -1.25 -5.45 -1.25 -5.5 -1.3 -5.7 -1.25 -5.75 -1.15 -5.9 -1.15 -5.75 -1.0 -5.65 -0.95 -5.25 -0.45 -4.85 -0.05 -4.85 M-0.8 -7.05 L-0.8 -7.0 -0.8 -6.95 -0.8 -7.05 M1.3 -4.2 L1.35 -4.25 1.4 -4.4 1.45 -4.3 1.5 -4.25 1.3 -4.2 M1.45 -3.8 L1.4 -3.75 1.35 -3.75 1.25 -3.5 0.9 -3.2 0.85 -3.2 1.35 -3.75 1.45 -3.8 M0.65 -3.1 L0.65 -3.05 0.5 -3.05 0.65 -3.1 M-2.15 -3.15 L-2.3 -3.25 -2.3 -3.3 -2.25 -3.3 -2.1 -3.15 -2.15 -3.15 M-2.5 -4.45 L-2.5 -4.5 -2.4 -4.5 -2.45 -4.5 -2.5 -4.45 M-1.55 -5.45 L-1.55 -5.35 -1.55 -5.1 -1.6 -5.5 -1.55 -5.45" fill="#e99916" fill-rule="evenodd" stroke="none"/>
    <path d="M-1.95 -4.45 L-1.75 -4.6 -1.7 -4.6 -1.55 -4.9 -1.55 -5.1 -1.55 -5.35 -1.55 -5.45 -1.6 -5.75 -1.5 -6.0 -1.5 -6.05 -0.85 -6.75 -0.7 -6.65 -0.65 -6.65 -0.75 -6.45 -0.8 -6.4 -0.8 -6.45 -0.95 -6.5 -1.25 -6.3 -1.25 -6.1 -1.15 -5.9 -1.25 -5.75 -1.3 -5.7 -1.25 -5.5 -1.25 -5.45 -1.25 -5.1 -1.25 -4.75 -1.4 -4.65 -1.4 -4.6 -1.45 -4.45 -1.55 -4.35 -1.75 -4.25 -1.75 -4.2 -1.8 -4.15 -2.2 -4.0 -2.2 -3.95 -2.15 -3.65 -2.15 -3.6 -2.15 -3.55 -2.05 -3.45 -2.15 -3.5 -2.25 -3.3 -2.3 -3.3 -2.4 -3.3 -2.45 -3.55 -2.5 -4.1 -2.45 -4.45 -2.25 -4.4 -2.05 -4.4 -1.95 -4.45 M0.5 -5.85 L0.55 -5.9 0.6 -5.85 0.65 -5.8 0.75 -5.8 0.75 -5.7 0.85 -5.6 0.95 -5.3 0.85 -5.15 0.85 -5.1 0.95 -5.4 0.9 -5.4 0.75 -5.5 0.7 -5.4 0.45 -4.85 0.15 -4.75 0.05 -4.7 -0.25 -4.8 -0.05 -4.85 0.1 -4.95 0.1 -5.0 0.25 -5.15 0.3 -5.4 0.4 -5.65 0.4 -5.75 0.5 -5.85" fill="#f4cd8e" fill-rule="evenodd" stroke="none"/>
    <path d="M-0.8 -7.0 L-0.7 -6.9 -0.65 -6.9 -0.65 -6.65 -0.7 -6.65 -0.85 -6.75 -1.5 -6.05 -1.5 -6.0 -1.6 -5.75 -1.55 -5.45 -1.6 -5.5 -1.65 -5.5 -1.65 -5.7 -1.65 -5.8 -1.65 -5.85 -1.65 -5.95 -0.95 -6.8 -0.95 -6.9 -0.85 -6.95 -0.8 -6.95 -0.8 -7.0 M-0.75 -6.45 L-0.8 -6.35 -0.75 -6.25 -0.95 -6.0 -0.95 -6.15 -0.8 -6.3 -0.8 -6.35 -0.8 -6.4 -0.75 -6.45 M-2.45 -3.55 L-2.55 -4.3 -2.5 -4.45 -2.45 -4.5 -2.4 -4.5 -2.25 -4.45 -2.25 -4.4 -2.45 -4.45 -2.5 -4.1 -2.45 -3.55 M-1.25 -5.45 L-1.2 -5.35 -1.15 -5.3 -1.15 -5.15 -1.1 -5.05 -1.3 -4.45 -1.3 -4.25 -1.35 -4.2 -2.2 -3.95 -2.2 -4.0 -1.8 -4.15 -1.75 -4.2 -1.75 -4.25 -1.55 -4.35 -1.45 -4.45 -1.4 -4.6 -1.4 -4.65 -1.25 -4.75 -1.25 -5.1 -1.25 -5.45 M-2.15 -3.6 Q-2.05 -3.5 -1.95 -3.5 L-1.9 -3.4 -1.95 -3.4 -2.05 -3.45 -2.15 -3.55 -2.15 -3.6" fill="#efb85f" fill-rule="evenodd" stroke="none"/>
    <path d="M0.45 -4.85 L0.7 -5.4 0.75 -5.5 0.9 -5.4 0.95 -5.4 0.85 -5.1 0.65 -4.6 0.5 -4.4 0.45 -4.3 0.3 -4.45 0.45 -4.85 M-0.95 -6.0 L-0.9 -5.85 -0.95 -5.7 -1.0 -5.65 -1.15 -5.75 -1.15 -5.9 -1.25 -6.1 -1.25 -6.3 -0.95 -6.5 -0.8 -6.45 -0.8 -6.4 -0.8 -6.35 -0.8 -6.3 -0.95 -6.15 -0.95 -6.0 M0.95 -4.1 L1.2 -4.2 1.3 -4.2 1.5 -4.25 1.5 -4.3 1.65 -4.25 1.65 -4.2 1.45 -3.8 1.35 -3.75 0.85 -3.2 0.65 -3.1 0.5 -3.05 0.25 -2.95 0.2 -2.9 -1.2 -2.75 -1.25 -2.8 -1.3 -2.8 -1.85 -2.9 -2.0 -2.9 -2.15 -3.05 -2.15 -3.15 -2.1 -3.15 -2.25 -3.3 -2.15 -3.5 -2.05 -3.45 -1.95 -3.4 -1.9 -3.4 -1.75 -3.25 -1.7 -3.2 -1.7 -3.15 -1.1 -3.05 0.0 -3.2 0.7 -3.5 0.7 -3.55 0.7 -3.6 1.05 -3.85 0.9 -3.9 0.85 -4.0 0.85 -4.05 0.95 -4.1" fill="#95620f" fill-rule="evenodd" stroke="none"/>
  </g>
</svg>
