<?xml version="1.0" encoding="UTF-8" standalone="no"?>
<svg xmlns:xlink="http://www.w3.org/1999/xlink" height="14.9px" width="18.6px" xmlns="http://www.w3.org/2000/svg">
  <g transform="matrix(1.0, 0.0, 0.0, 1.0, 7.1, 9.35)">
    <path d="M8.75 -9.0 L8.35 -9.0 8.25 -8.95 8.25 -8.9 8.1 -8.9 8.0 -8.85 7.95 -8.85 7.75 -8.75 7.7 -8.75 7.6 -8.8 5.55 -8.15 5.2 -8.3 4.85 -8.0 3.25 -7.75 2.55 -7.85 2.0 -7.7 1.75 -7.75 1.75 -7.7 1.7 -7.6 Q1.7 -7.45 1.85 -7.45 L3.35 -7.45 4.65 -7.45 5.15 -7.55 5.3 -7.55 6.25 -7.8 6.25 -7.85 6.25 -7.9 7.35 -8.2 7.6 -8.2 8.2 -8.35 8.3 -8.4 9.95 -8.6 9.7 -8.6 10.45 -8.7 10.5 -8.75 10.95 -8.7 10.95 -8.75 11.0 -8.8 11.05 -8.8 11.0 -8.6 10.95 -8.6 10.6 -8.45 8.15 -7.15 7.85 -6.65 6.95 -5.75 6.95 -5.65 6.95 -5.55 6.5 -5.0 5.05 -3.6 5.05 -3.5 5.0 -3.45 4.95 -3.4 4.95 -3.35 5.0 -3.3 5.0 -3.25 5.2 -3.25 5.25 -3.25 Q5.0 -2.55 5.1 -1.75 L5.15 -1.7 5.25 -1.55 5.25 -1.5 Q5.35 -0.7 5.7 0.05 L5.95 1.6 5.85 2.5 Q5.35 4.35 3.4 4.85 0.55 5.55 -2.35 4.9 L-3.3 4.85 Q-4.1 4.8 -4.75 4.35 -5.95 3.5 -6.65 2.1 L-6.7 1.7 Q-7.05 -0.25 -6.15 -2.1 L-6.05 -2.15 -5.85 -2.55 Q-5.25 -3.7 -5.6 -4.9 L-5.6 -5.05 Q-5.4 -6.45 -6.3 -7.25 L-6.3 -7.3 -6.2 -7.35 -6.1 -7.55 -6.05 -7.55 -5.85 -7.65 -5.55 -7.65 -4.05 -7.6 Q-3.8 -7.6 -3.7 -7.8 L-5.5 -8.05 -5.55 -8.1 -3.5 -8.05 0.05 -8.0 0.0 -7.9 -0.05 -7.85 -0.05 -7.7 -0.1 -7.0 -0.1 -6.95 -0.15 -6.8 -0.85 -6.4 -0.9 -6.35 -1.05 -4.75 -1.25 -4.65 -1.3 -4.7 -1.35 -4.75 -1.45 -4.9 -1.45 -4.95 -1.4 -5.35 -1.45 -5.4 -1.6 -5.45 -1.95 -5.15 -1.95 -5.1 -2.1 -4.8 -2.1 -4.75 -2.0 -3.3 -1.4 -2.75 1.55 -2.8 1.55 -2.85 1.6 -2.85 Q2.7 -3.45 2.2 -4.95 L2.0 -5.0 1.9 -4.9 1.8 -4.3 Q1.65 -4.15 1.6 -4.3 L1.6 -4.4 1.6 -4.45 1.7 -4.65 Q1.9 -5.4 1.6 -6.2 L1.25 -6.45 1.25 -6.55 1.15 -6.7 1.0 -6.75 0.9 -6.65 1.1 -6.1 1.1 -5.95 0.95 -5.65 0.95 -5.6 0.55 -5.1 0.35 -5.15 0.3 -5.25 Q-0.05 -5.95 0.5 -6.6 L0.5 -6.8 0.5 -7.3 0.45 -7.3 0.2 -7.7 0.15 -7.95 0.15 -8.0 4.55 -8.25 6.85 -8.8 8.85 -9.05 8.75 -9.0 M8.2 -8.85 L8.25 -8.9 8.3 -8.85 8.2 -8.85 M0.8 -2.15 L0.75 -2.2 Q-1.15 -2.05 -2.85 -2.65 L-4.1 -2.6 -4.15 -2.6 -4.2 -2.65 -4.0 -2.7 -4.25 -2.7 -4.3 -2.7 -4.55 -2.55 -4.45 -2.6 -5.1 -2.15 -5.15 -2.1 -5.2 -2.15 -4.7 -2.45 -4.8 -2.45 -5.35 -2.3 -5.4 -2.3 -5.5 -2.2 -5.9 -1.5 -6.1 -0.4 -6.15 0.7 -6.1 1.15 -5.55 1.75 -5.4 1.7 -5.25 1.55 -5.1 1.45 Q-4.0 0.45 -2.65 -0.2 L-2.1 -0.35 -0.15 -0.8 0.1 -0.95 Q0.95 -1.3 0.8 -2.15 M-6.5 -7.4 L-6.6 -7.5 -6.6 -7.55 -6.35 -8.25 -6.15 -8.2 -6.2 -8.2 -6.25 -7.95 -6.3 -7.85 -6.4 -7.75 -6.5 -7.4 M-5.6 1.45 L-5.6 1.4 -5.55 1.45 -5.6 1.45" fill="#333333" fill-rule="evenodd" stroke="none"/>
    <path d="M10.5 -8.75 L10.45 -8.7 9.7 -8.6 9.95 -8.6 8.3 -8.4 8.2 -8.35 7.6 -8.2 7.35 -8.2 6.25 -7.9 6.25 -7.85 6.25 -7.8 5.3 -7.55 5.15 -7.55 4.65 -7.45 3.35 -7.45 1.85 -7.45 Q1.7 -7.45 1.7 -7.6 L1.75 -7.7 1.75 -7.75 2.0 -7.7 2.55 -7.85 3.25 -7.75 4.85 -8.0 5.2 -8.3 5.55 -8.15 7.6 -8.8 7.7 -8.75 7.75 -8.75 7.95 -8.85 8.0 -8.85 8.1 -8.9 8.25 -8.9 8.25 -8.95 8.35 -9.0 8.75 -9.0 8.35 -8.9 8.3 -8.85 8.25 -8.9 8.2 -8.85 8.0 -8.8 8.0 -8.75 7.95 -8.65 8.0 -8.65 8.1 -8.6 8.2 -8.6 8.25 -8.5 9.0 -8.75 10.5 -8.75 M-5.5 -8.05 L-3.7 -7.8 Q-3.8 -7.6 -4.05 -7.6 L-5.55 -7.65 -5.3 -7.85 -5.5 -8.0 -5.5 -8.05 M-5.85 -7.65 L-6.05 -7.55 -6.1 -7.55 -6.2 -7.35 -6.3 -7.3 -6.3 -7.25 -6.45 -7.35 -6.5 -7.4 -6.4 -7.75 -6.45 -7.7 -6.3 -7.5 -6.0 -7.7 -5.85 -7.65 M0.8 -2.15 Q0.95 -1.3 0.1 -0.95 L-0.15 -0.8 -2.1 -0.35 -2.65 -0.2 Q-4.0 0.45 -5.1 1.45 L-5.25 1.55 -5.4 1.7 -5.55 1.75 -6.1 1.15 -6.15 0.7 -6.1 -0.4 -5.9 -1.5 -5.5 -2.2 -5.4 -2.3 -5.35 -2.3 -4.8 -2.45 -4.7 -2.45 -5.2 -2.15 -5.15 -2.1 -5.1 -2.15 -4.45 -2.6 -4.55 -2.55 -4.3 -2.7 -4.25 -2.7 -4.0 -2.7 -4.2 -2.65 -4.15 -2.6 -4.1 -2.6 -2.85 -2.65 Q-1.15 -2.05 0.75 -2.2 L0.8 -2.15 M-5.15 -2.1 L-5.65 -1.35 -5.8 -1.15 -6.0 -0.3 -6.0 -0.25 Q-5.55 0.1 -4.95 -0.1 -4.1 -0.45 -3.35 -0.9 L-2.55 -1.25 -1.85 -1.6 -1.8 -1.65 -1.7 -1.85 -1.7 -1.9 -1.8 -2.15 -1.85 -2.2 -1.9 -2.25 -3.85 -2.5 -5.05 -2.15 -5.15 -2.1 M-5.55 -0.95 L-5.55 -0.9 -5.6 -0.9 -5.4 -1.2 -5.55 -0.95 M-5.6 1.45 L-5.55 1.45 -5.6 1.4 -5.6 1.45" fill="#5a5a5a" fill-rule="evenodd" stroke="none"/>
    <path d="M8.75 -9.0 L8.85 -9.05 9.0 -9.1 9.15 -9.1 10.9 -8.9 10.95 -8.9 11.0 -8.85 11.0 -8.8 10.95 -8.75 10.95 -8.7 10.5 -8.75 9.0 -8.75 9.3 -8.95 9.15 -9.1 8.2 -8.65 8.2 -8.6 8.1 -8.6 8.0 -8.65 7.95 -8.65 8.0 -8.75 8.0 -8.8 8.2 -8.85 8.3 -8.85 8.35 -8.9 8.75 -9.0 M-5.55 -7.65 L-5.85 -7.65 -6.0 -7.7 -6.3 -7.5 -6.45 -7.7 -6.4 -7.75 -6.3 -7.85 -6.25 -7.95 -6.2 -8.2 -6.15 -8.2 -6.15 -8.25 -6.1 -8.25 -6.05 -8.3 -5.9 -8.2 -5.95 -8.2 -6.05 -8.05 -5.5 -8.0 -5.3 -7.85 -5.55 -7.65 M-5.15 -2.1 L-5.05 -2.15 -3.85 -2.5 -1.9 -2.25 -1.85 -2.2 -1.8 -2.15 -1.7 -1.9 -1.7 -1.85 -1.8 -1.65 -1.85 -1.6 -2.55 -1.25 -3.35 -0.9 Q-4.1 -0.45 -4.95 -0.1 -5.55 0.1 -6.0 -0.25 L-6.0 -0.3 -5.8 -1.15 -5.65 -1.35 -5.15 -2.1 M-4.1 -1.95 L-4.0 -2.0 -3.9 -2.1 -4.35 -2.3 -4.45 -2.25 -4.6 -2.15 -4.7 -2.0 -4.8 -1.75 -4.75 -1.7 -4.4 -1.55 -4.25 -1.65 Q-4.1 -1.75 -4.1 -1.95 M-5.55 -0.95 L-5.4 -1.2 -5.6 -0.9 -5.55 -0.9 -5.55 -0.95" fill="#767676" fill-rule="evenodd" stroke="none"/>
    <path d="M-5.55 -8.1 L-5.5 -8.05 -5.5 -8.0 -6.05 -8.05 -5.95 -8.2 -5.9 -8.2 -5.9 -8.25 Q-5.65 -8.25 -5.55 -8.1 M9.0 -8.75 L8.25 -8.5 8.2 -8.6 8.2 -8.65 9.15 -9.1 9.3 -8.95 9.0 -8.75 M-4.1 -1.95 Q-4.1 -1.75 -4.25 -1.65 L-4.4 -1.55 -4.75 -1.7 -4.8 -1.75 -4.7 -2.0 -4.6 -2.15 -4.45 -2.25 -4.35 -2.3 -3.9 -2.1 -4.0 -2.0 -4.1 -1.95" fill="#cbcbcb" fill-rule="evenodd" stroke="none"/>
    <path d="M8.85 -9.05 L6.85 -8.8 4.55 -8.25 0.15 -8.0 0.15 -7.95 0.2 -7.7 0.45 -7.3 0.5 -7.3 0.5 -6.8 0.5 -6.6 Q-0.05 -5.95 0.3 -5.25 L0.35 -5.15 0.55 -5.1 0.95 -5.6 0.95 -5.65 1.1 -5.95 1.1 -6.1 0.9 -6.65 1.0 -6.75 1.15 -6.7 1.25 -6.55 1.25 -6.45 1.6 -6.2 Q1.9 -5.4 1.7 -4.65 L1.6 -4.45 1.6 -4.4 1.6 -4.3 Q1.65 -4.15 1.8 -4.3 L1.9 -4.9 2.0 -5.0 2.2 -4.95 Q2.7 -3.45 1.6 -2.85 L1.55 -2.85 1.55 -2.8 -1.4 -2.75 -2.0 -3.3 -2.1 -4.75 -2.1 -4.8 -1.95 -5.1 -1.95 -5.15 -1.6 -5.45 -1.45 -5.4 -1.4 -5.35 -1.45 -4.95 -1.45 -4.9 -1.35 -4.75 -1.3 -4.7 -1.25 -4.65 -1.35 -4.6 -1.55 -4.65 -1.55 -4.7 -1.7 -4.75 -1.8 -4.75 -1.8 -4.7 -1.85 -4.6 -1.85 -3.85 -1.85 -3.6 -1.75 -3.5 -1.75 -3.45 -1.65 -3.35 -1.65 -3.25 -1.5 -3.1 -1.35 -3.05 -0.85 -2.9 -0.8 -2.9 -0.75 -2.85 0.65 -2.8 0.7 -2.85 0.95 -2.9 1.1 -2.9 1.1 -2.95 1.3 -3.0 1.35 -3.0 1.75 -3.25 1.9 -3.45 1.95 -3.45 2.0 -3.5 2.25 -3.9 2.25 -3.95 2.1 -4.05 2.1 -4.0 2.05 -4.05 2.05 -4.15 1.95 -4.0 1.9 -3.95 1.8 -4.0 1.55 -3.9 1.3 -4.05 1.3 -4.45 1.6 -4.9 1.6 -4.95 1.7 -5.1 1.65 -5.4 1.55 -5.5 1.55 -5.6 1.5 -5.65 1.45 -5.7 1.4 -5.75 1.4 -5.8 1.35 -5.85 1.35 -5.7 1.2 -5.6 1.2 -5.5 1.1 -5.3 1.0 -5.05 0.8 -4.95 0.8 -4.9 0.8 -4.85 0.65 -4.8 0.25 -4.85 -0.15 -5.3 -0.15 -5.7 -0.1 -5.75 -0.05 -5.9 -0.05 -6.05 0.15 -6.25 0.15 -6.35 0.2 -6.45 0.3 -6.65 0.35 -6.9 0.3 -6.9 0.2 -7.0 0.2 -7.05 0.2 -6.95 0.15 -6.95 0.05 -6.9 0.05 -6.8 -0.75 -6.1 -0.75 -6.0 -0.8 -5.95 -0.8 -5.85 -0.8 -5.65 -0.75 -5.65 -0.75 -5.25 -0.8 -5.05 -1.0 -4.75 -1.05 -4.75 -0.9 -6.35 -0.85 -6.4 -0.15 -6.8 -0.1 -6.95 -0.1 -7.0 -0.05 -7.7 -0.05 -7.85 0.0 -7.9 0.05 -8.0 -3.5 -8.05 -5.55 -8.1 Q-5.65 -8.25 -5.9 -8.25 L-5.9 -8.2 -6.05 -8.3 -6.1 -8.25 -6.15 -8.25 -6.15 -8.2 -6.35 -8.25 -6.6 -7.55 -6.6 -7.5 -6.5 -7.4 -6.45 -7.35 -6.3 -7.25 Q-5.4 -6.45 -5.6 -5.05 L-5.6 -4.9 Q-5.25 -3.7 -5.85 -2.55 L-6.05 -2.15 -6.15 -2.1 Q-7.05 -0.25 -6.7 1.7 L-6.65 2.1 Q-5.95 3.5 -4.75 4.35 -4.1 4.8 -3.3 4.85 L-2.35 4.9 Q0.55 5.55 3.4 4.85 5.35 4.35 5.85 2.5 L5.95 1.6 5.7 0.05 Q5.35 -0.7 5.25 -1.5 L5.25 -1.55 5.15 -1.7 5.1 -1.75 Q5.0 -2.55 5.25 -3.25 L5.25 -3.3 5.2 -3.25 5.0 -3.25 5.0 -3.3 4.95 -3.35 4.95 -3.4 5.0 -3.45 5.05 -3.5 5.05 -3.6 6.5 -5.0 6.95 -5.55 6.95 -5.65 6.95 -5.75 7.85 -6.65 8.15 -7.15 10.6 -8.45 10.95 -8.6 11.0 -8.6 11.05 -8.8 11.0 -8.8 11.0 -8.85 10.95 -8.9 10.9 -8.9 9.15 -9.1 9.0 -9.1 8.85 -9.05 M9.05 -9.35 L10.9 -9.2 11.0 -9.15 11.05 -9.15 11.2 -9.05 11.25 -9.15 11.3 -9.2 11.35 -9.2 11.45 -9.1 11.5 -9.1 11.45 -8.9 11.5 -8.85 11.5 -8.8 11.4 -8.75 11.4 -8.7 11.3 -8.55 11.4 -8.4 11.05 -8.3 10.85 -8.2 Q9.6 -7.8 8.55 -7.0 L8.35 -6.95 7.85 -6.25 7.6 -5.85 7.55 -5.8 7.3 -5.65 6.1 -4.15 5.7 -3.75 5.7 -3.7 Q5.3 -2.9 5.4 -1.95 L5.4 -1.9 5.95 -0.15 Q6.6 1.7 5.85 3.45 L5.5 4.0 5.45 4.0 5.35 4.05 4.75 4.5 4.65 4.6 4.6 4.65 Q4.0 4.85 3.45 5.2 0.15 5.9 -3.15 5.1 L-3.85 5.0 Q-5.6 4.65 -6.45 3.0 L-6.95 2.2 Q-7.4 0.15 -6.6 -1.75 L-6.45 -2.2 Q-5.95 -2.75 -5.9 -3.45 L-5.9 -3.5 Q-5.65 -4.0 -5.75 -4.6 L-5.8 -4.65 -5.85 -4.75 -5.9 -4.8 Q-5.75 -5.95 -6.35 -6.85 L-6.65 -7.15 -6.9 -7.3 -6.7 -8.3 -6.75 -8.3 -6.7 -8.3 -6.7 -8.55 -6.7 -8.6 -6.6 -8.65 -6.55 -8.7 -6.5 -8.65 -6.45 -8.65 -6.35 -8.45 -5.4 -8.45 -4.5 -8.4 2.6 -8.3 2.75 -8.3 8.5 -9.25 9.0 -9.3 9.05 -9.35 M0.2 -7.05 L0.2 -7.15 0.2 -7.05" fill="#000000" fill-rule="evenodd" stroke="none"/>
    <path d="M1.4 -5.75 L1.35 -5.7 1.35 -5.85 1.4 -5.8 1.4 -5.75 M1.0 -5.05 L0.85 -4.9 0.8 -4.85 0.8 -4.9 0.8 -4.95 1.0 -5.05 M0.65 -4.8 L0.45 -4.75 0.75 -4.65 0.85 -4.65 1.15 -4.7 0.95 -4.35 1.1 -4.2 1.15 -4.25 1.3 -4.45 1.3 -4.05 1.55 -3.9 1.45 -3.9 1.45 -3.85 1.45 -3.75 1.6 -3.65 1.25 -3.4 1.2 -3.35 1.2 -3.3 0.5 -3.1 -0.6 -3.1 -1.2 -3.3 -1.2 -3.35 -1.2 -3.4 -1.35 -3.55 -1.35 -3.6 -1.4 -3.7 -1.55 -3.85 -1.55 -3.9 -1.55 -4.2 -0.7 -4.3 -0.65 -4.35 -0.6 -4.55 -0.35 -5.15 -0.35 -5.25 -0.35 -5.4 -0.4 -5.45 -0.45 -5.55 -0.45 -5.6 -0.45 -5.8 -0.4 -5.85 -0.3 -5.95 -0.3 -5.8 -0.15 -5.7 -0.15 -5.3 0.25 -4.85 0.65 -4.8 M0.2 -7.05 L0.2 -7.0 0.2 -6.95 0.2 -7.05 M1.9 -3.95 L1.95 -4.0 2.05 -4.15 2.05 -4.05 2.1 -4.0 1.9 -3.95 M2.0 -3.5 L1.95 -3.45 1.9 -3.45 1.75 -3.25 1.35 -3.0 1.3 -3.0 Q1.6 -3.15 1.9 -3.45 L2.0 -3.5 M1.1 -2.95 L1.1 -2.9 0.95 -2.9 1.1 -2.95 M-1.65 -3.35 L-1.75 -3.45 -1.75 -3.5 -1.7 -3.5 -1.6 -3.35 -1.65 -3.35 M-1.8 -4.7 L-1.8 -4.75 -1.7 -4.75 -1.75 -4.75 -1.8 -4.7 M-0.75 -5.6 L-0.75 -5.5 -0.75 -5.25 -0.75 -5.65 -0.75 -5.6" fill="#e99916" fill-rule="evenodd" stroke="none"/>
    <path d="M-1.25 -4.65 L-1.05 -4.75 -1.0 -4.75 -0.8 -5.05 -0.75 -5.25 -0.75 -5.5 -0.75 -5.6 -0.75 -5.9 -0.6 -6.1 -0.6 -6.15 0.15 -6.75 0.25 -6.65 0.3 -6.65 0.2 -6.45 0.15 -6.4 0.15 -6.45 0.0 -6.55 -0.3 -6.35 -0.35 -6.2 -0.3 -5.95 -0.4 -5.85 -0.45 -5.8 -0.45 -5.6 -0.45 -5.55 -0.5 -5.2 -0.55 -4.85 -0.7 -4.75 -0.7 -4.7 -0.75 -4.6 -0.85 -4.5 -1.1 -4.45 -1.1 -4.4 -1.15 -4.35 -1.55 -4.25 -1.55 -4.2 -1.55 -3.9 -1.55 -3.85 -1.55 -3.8 -1.5 -3.7 -1.6 -3.75 -1.7 -3.5 -1.75 -3.5 -1.85 -3.6 -1.85 -3.85 -1.85 -4.4 -1.75 -4.7 -1.55 -4.65 -1.35 -4.6 -1.25 -4.65 M1.35 -5.7 L1.4 -5.75 1.45 -5.7 1.5 -5.65 1.55 -5.6 1.55 -5.5 1.65 -5.4 1.7 -5.1 1.6 -4.95 1.6 -4.9 1.7 -5.2 1.65 -5.2 1.55 -5.3 1.5 -5.25 1.15 -4.7 0.85 -4.65 0.75 -4.65 0.45 -4.75 0.65 -4.8 0.8 -4.85 0.85 -4.9 1.0 -5.05 1.1 -5.3 1.2 -5.5 1.2 -5.6 1.35 -5.7" fill="#f4cd8e" fill-rule="evenodd" stroke="none"/>
    <path d="M0.2 -7.0 L0.3 -6.9 0.35 -6.9 0.3 -6.65 0.25 -6.65 0.15 -6.75 -0.6 -6.15 -0.6 -6.1 -0.75 -5.9 -0.75 -5.6 -0.75 -5.65 -0.8 -5.65 -0.8 -5.85 -0.8 -5.95 -0.75 -6.0 -0.75 -6.1 0.05 -6.8 0.05 -6.9 0.15 -6.95 0.2 -6.95 0.2 -7.0 M0.2 -6.45 L0.15 -6.35 0.15 -6.25 -0.05 -6.05 -0.05 -6.2 0.1 -6.3 0.15 -6.35 0.15 -6.4 0.2 -6.45 M-1.85 -3.85 L-1.85 -4.6 -1.8 -4.7 -1.75 -4.75 -1.7 -4.75 -1.55 -4.7 -1.55 -4.65 -1.75 -4.7 -1.85 -4.4 -1.85 -3.85 M-0.45 -5.55 L-0.4 -5.45 -0.35 -5.4 -0.35 -5.25 -0.35 -5.15 -0.6 -4.55 -0.65 -4.35 -0.7 -4.3 -1.55 -4.2 -1.55 -4.25 -1.15 -4.35 -1.1 -4.4 -1.1 -4.45 -0.85 -4.5 -0.75 -4.6 -0.7 -4.7 -0.7 -4.75 -0.55 -4.85 -0.5 -5.2 -0.45 -5.55 M-1.55 -3.85 L-1.4 -3.7 -1.35 -3.6 -1.35 -3.55 -1.4 -3.55 -1.4 -3.6 -1.5 -3.7 -1.55 -3.8 -1.55 -3.85" fill="#efb85f" fill-rule="evenodd" stroke="none"/>
    <path d="M1.15 -4.7 L1.5 -5.25 1.55 -5.3 1.65 -5.2 1.7 -5.2 1.6 -4.9 1.3 -4.45 1.15 -4.25 1.1 -4.2 0.95 -4.35 1.15 -4.7 M-0.05 -6.05 L-0.05 -5.9 -0.1 -5.75 -0.15 -5.7 -0.3 -5.8 -0.3 -5.95 -0.35 -6.2 -0.3 -6.35 0.0 -6.55 0.15 -6.45 0.15 -6.4 0.15 -6.35 0.1 -6.3 -0.05 -6.2 -0.05 -6.05 M1.55 -3.9 L1.8 -4.0 1.9 -3.95 2.1 -4.0 2.1 -4.05 2.25 -3.95 2.25 -3.9 2.0 -3.5 1.9 -3.45 Q1.6 -3.15 1.3 -3.0 L1.1 -2.95 0.95 -2.9 0.7 -2.85 0.65 -2.8 -0.75 -2.85 -0.8 -2.9 -0.85 -2.9 -1.35 -3.05 -1.5 -3.1 -1.65 -3.25 -1.65 -3.35 -1.6 -3.35 -1.7 -3.5 -1.6 -3.75 -1.5 -3.7 -1.4 -3.6 -1.4 -3.55 -1.35 -3.55 -1.2 -3.4 -1.2 -3.35 -1.2 -3.3 -0.6 -3.1 0.5 -3.1 1.2 -3.3 1.2 -3.35 1.25 -3.4 1.6 -3.65 1.45 -3.75 1.45 -3.85 1.45 -3.9 1.55 -3.9" fill="#95620f" fill-rule="evenodd" stroke="none"/>
  </g>
</svg>
