<?xml version="1.0" encoding="UTF-8" standalone="no"?>
<svg xmlns:xlink="http://www.w3.org/1999/xlink" height="7.05px" width="13.35px" xmlns="http://www.w3.org/2000/svg">
  <g transform="matrix(1.0, 0.0, 0.0, 1.0, 0.0, 0.0)">
    <path d="M0.7 3.15 Q0.95 2.95 1.25 2.9 L3.35 1.8 3.75 1.1 3.55 0.85 3.5 0.85 3.6 0.7 3.65 0.7 3.8 0.75 3.85 0.7 4.05 0.65 4.1 0.65 5.5 0.95 7.05 0.95 7.0 0.9 7.05 0.85 7.1 0.8 7.15 0.75 Q7.8 0.8 8.3 0.25 L8.7 0.0 Q9.4 0.0 9.9 0.4 L10.1 0.3 10.4 0.2 Q12.7 0.65 13.25 2.9 13.75 4.75 12.25 5.8 L11.35 6.2 10.85 6.3 Q9.65 7.3 7.85 7.0 L6.6 6.7 6.55 6.65 6.65 6.65 6.6 6.6 Q5.3 7.05 3.95 6.2 L3.65 5.85 3.65 5.7 3.45 5.5 3.45 5.65 3.2 5.65 Q2.95 5.9 2.65 5.85 L2.55 5.75 2.55 5.7 3.55 4.95 3.6 4.9 Q2.05 4.0 0.3 3.9 L0.25 3.95 0.2 3.95 Q0.05 4.0 0.0 3.85 L0.25 3.55 0.2 3.5 0.2 3.45 0.45 3.25 0.45 3.2 0.7 3.15 M3.7 5.3 L3.65 5.35 3.85 5.5 3.85 5.4 3.8 5.35 3.7 5.3" fill="#cccccc" fill-rule="evenodd" stroke="none"/>
  </g>
</svg>
