<?xml version="1.0" encoding="UTF-8" standalone="no"?>
<svg xmlns:xlink="http://www.w3.org/1999/xlink" height="12.4px" width="25.6px" xmlns="http://www.w3.org/2000/svg">
  <g transform="matrix(1.0, 0.0, 0.0, 1.0, 7.45, 6.4)">
    <path d="M-6.0 -3.3 L-6.05 -3.3 Q-5.9 -4.15 -5.15 -4.7 L-4.6 -4.9 -4.55 -4.95 -4.5 -5.05 -4.4 -5.05 -4.4 -5.1 -4.25 -5.05 -4.25 -5.1 -4.2 -5.05 -4.1 -5.05 -4.1 -5.0 -4.05 -4.95 -4.05 -4.9 -3.6 -4.25 Q-3.0 -4.95 -2.1 -5.2 L-1.95 -5.2 -1.9 -5.15 -1.8 -5.1 -1.75 -5.1 -1.65 -6.2 -1.55 -6.3 -1.45 -6.25 -1.35 -6.3 -1.25 -6.35 1.2 -6.25 1.25 -6.2 1.3 -6.25 1.4 -6.2 1.4 -6.15 1.4 -5.1 1.4 -5.0 1.3 -4.95 1.25 -4.9 1.25 -4.8 1.3 -4.75 2.25 -4.35 2.95 -5.35 3.05 -5.45 3.1 -5.5 Q3.75 -5.4 4.2 -5.0 L5.35 -3.9 5.4 -3.85 5.4 -3.8 5.45 -3.75 4.9 -3.0 5.55 -1.45 5.6 -1.3 5.55 -1.2 5.1 0.25 4.4 1.95 4.75 2.3 4.8 2.25 4.95 2.4 5.05 2.5 5.1 2.55 4.05 4.3 3.95 4.4 3.85 4.55 3.75 4.6 3.65 4.55 3.45 4.6 3.5 4.7 3.4 4.75 3.25 4.75 3.15 4.65 3.0 4.65 2.9 4.45 2.9 4.4 2.6 4.2 2.45 4.2 2.3 4.1 1.95 4.5 2.0 4.55 1.5 4.85 1.45 5.45 1.4 5.55 1.45 5.65 Q1.1 6.0 0.7 5.95 L0.0 5.85 -0.6 5.85 -0.6 5.9 Q-1.0 6.15 -1.3 5.9 L-1.35 5.9 -1.5 5.8 -1.6 5.1 -1.65 5.05 -1.65 5.0 -1.75 4.95 -1.85 4.9 -1.8 4.95 -3.35 4.5 -3.85 4.8 Q-4.0 5.05 -4.25 5.0 -5.15 4.4 -5.25 3.35 L-5.5 2.7 -5.6 2.5 -4.9 2.1 -5.1 1.95 Q-5.05 1.7 -4.75 1.75 -4.6 1.6 -4.45 1.55 L-4.55 1.45 -4.6 1.4 -4.8 1.0 -5.2 -0.2 -5.3 -1.15 -5.5 -1.7 -5.5 -1.8 -5.5 -1.9 -5.55 -2.05 -5.6 -2.1 -5.55 -2.15 -6.05 -2.6 -6.0 -2.7 -5.95 -2.8 -6.15 -2.85 -6.2 -2.85 -6.15 -3.15 -6.05 -3.25 -5.2 -2.2 -5.2 -2.15 -5.3 -2.05 -5.15 -1.8 -5.15 -1.85 -5.1 -1.8 -5.05 -1.75 -5.05 -1.5 -4.9 -0.65 -4.7 0.5 -4.35 1.25 -3.95 1.5 -3.95 1.65 -4.0 1.75 -4.25 1.75 -4.5 1.9 -4.5 2.1 -4.5 2.2 Q-4.9 2.5 -5.25 2.6 L-5.0 3.1 -5.05 3.3 Q-4.85 4.1 -4.2 4.75 L-3.55 4.1 -3.5 4.05 -3.4 4.05 -3.25 4.15 -3.05 4.2 -3.05 4.25 -3.05 4.3 -1.5 4.45 -1.5 4.5 -1.45 4.55 -1.35 4.6 -1.35 4.65 -1.15 5.55 -1.05 5.55 -1.0 5.5 0.7 5.65 1.1 5.5 Q0.95 5.05 1.15 4.8 L1.15 4.75 1.2 4.8 1.2 4.7 1.2 4.6 1.3 4.55 1.35 4.5 1.4 4.55 1.45 4.55 1.5 4.5 1.55 4.5 2.0 4.0 2.2 3.7 2.3 3.65 2.35 3.6 2.45 3.7 2.5 3.7 2.5 3.75 2.8 3.9 2.85 3.9 2.9 3.95 2.9 4.05 3.25 4.3 Q4.15 3.75 4.6 2.9 L4.65 2.95 4.7 2.85 4.7 2.7 4.25 2.25 4.2 2.25 4.15 2.3 4.0 2.15 4.05 2.1 3.8 1.9 3.75 1.85 3.8 1.75 3.9 1.7 4.15 1.8 4.5 0.85 4.4 0.75 4.65 0.4 4.95 -0.55 4.95 -0.6 5.05 -0.65 5.1 -0.7 5.15 -0.65 5.35 -1.25 4.7 -2.55 4.65 -2.6 4.3 -3.05 4.4 -3.2 4.45 -3.2 4.5 -3.15 5.05 -3.65 5.0 -3.7 4.8 -4.0 4.7 -4.15 4.75 -4.0 4.75 -3.95 4.7 -3.95 4.5 -3.95 Q4.15 -4.9 3.25 -5.15 L3.2 -5.15 2.25 -4.05 2.1 -4.15 1.4 -4.3 1.05 -4.45 1.0 -4.45 0.95 -4.5 0.85 -4.55 0.95 -4.7 1.0 -6.0 1.0 -6.1 -1.15 -5.95 -1.35 -5.95 -1.4 -4.55 -1.45 -4.45 -1.55 -4.45 -1.7 -4.5 -1.7 -4.6 -1.7 -4.75 -1.7 -4.85 Q-2.7 -4.65 -3.55 -4.0 L-3.65 -3.95 -3.75 -4.0 -4.35 -4.7 -4.35 -4.75 Q-5.3 -4.3 -5.7 -3.3 -5.75 -3.2 -5.9 -3.2 L-5.95 -3.25 -6.0 -3.3 M2.5 3.75 L2.45 3.8 2.5 3.75 M-1.15 5.55 L-1.15 5.6 -1.15 5.55" fill="#000000" fill-rule="evenodd" stroke="none"/>
    <path d="M-6.05 -3.25 L-6.0 -3.3 -5.95 -3.25 -5.9 -3.2 Q-5.75 -3.2 -5.7 -3.3 -5.3 -4.3 -4.35 -4.75 L-4.35 -4.7 -3.75 -4.0 -3.65 -3.95 -3.55 -4.0 Q-2.7 -4.65 -1.7 -4.85 L-1.7 -4.75 -1.7 -4.6 -1.7 -4.5 -1.55 -4.45 -1.45 -4.45 -1.4 -4.55 -1.35 -5.95 -1.15 -5.95 1.0 -6.1 1.0 -6.0 0.95 -4.7 0.85 -4.55 0.95 -4.5 1.0 -4.45 1.05 -4.45 1.4 -4.3 2.1 -4.15 2.25 -4.05 3.2 -5.15 3.25 -5.15 Q4.15 -4.9 4.5 -3.95 L4.7 -3.95 4.75 -3.95 4.75 -4.0 4.8 -4.0 5.0 -3.7 5.05 -3.65 4.5 -3.15 4.45 -3.2 4.4 -3.2 4.3 -3.05 4.65 -2.6 4.7 -2.55 5.35 -1.25 5.15 -0.65 5.1 -0.7 5.05 -0.65 4.95 -0.6 4.95 -0.55 4.65 0.4 4.4 0.75 4.5 0.85 4.15 1.8 3.9 1.7 3.8 1.75 3.75 1.85 3.8 1.9 4.05 2.1 4.0 2.15 4.15 2.3 4.2 2.25 4.25 2.25 4.7 2.7 4.7 2.85 4.65 2.95 4.6 2.9 Q4.15 3.75 3.25 4.3 L2.9 4.05 2.9 3.95 2.85 3.9 2.8 3.9 2.5 3.75 2.5 3.7 2.45 3.7 2.35 3.6 2.3 3.65 2.2 3.7 2.0 4.0 1.55 4.5 1.5 4.5 1.45 4.55 1.4 4.55 1.35 4.5 1.3 4.55 1.2 4.6 1.2 4.7 1.2 4.8 1.15 4.75 1.15 4.8 Q0.95 5.05 1.1 5.5 L0.7 5.65 -1.0 5.5 -1.05 5.55 -1.15 5.55 -1.35 4.65 -1.35 4.6 -1.45 4.55 -1.5 4.5 -1.5 4.45 -3.05 4.3 -3.05 4.25 -3.05 4.2 -3.25 4.15 -3.4 4.05 -3.5 4.05 -3.55 4.1 -4.2 4.75 Q-4.85 4.1 -5.05 3.3 L-5.0 3.1 -5.25 2.6 Q-4.9 2.5 -4.5 2.2 L-4.5 2.1 -4.5 1.9 -4.25 1.75 -4.0 1.75 -3.95 1.65 -3.95 1.5 -4.35 1.25 -4.7 0.5 -4.9 -0.65 -5.05 -1.5 -5.05 -1.75 -5.1 -1.8 -5.15 -1.85 -5.15 -1.8 -5.3 -2.05 -5.2 -2.15 -5.2 -2.2 -6.05 -3.25" fill="#754e39" fill-rule="evenodd" stroke="none"/>
    <path d="M4.75 -2.7 L4.7 -2.8 4.65 -2.8 4.55 -2.9 4.5 -2.85 4.4 -2.75 3.45 -2.85 0.95 -3.15 -0.25 -3.35 -0.3 -3.55 -0.35 -3.55 -0.45 -3.65 -0.5 -3.6 -0.65 -3.4 -2.65 -3.7 -2.7 -3.65 -2.7 -3.6 -2.75 -3.6 -2.8 -3.55 Q-4.55 -3.9 -6.0 -2.8 L-6.65 -2.0 -7.1 -0.5 -7.15 -0.5 -7.15 -0.4 -7.15 -0.05 -7.2 0.0 -7.2 0.1 -7.1 0.3 -7.05 0.65 -7.05 1.5 -6.85 1.65 -6.3 2.3 -6.2 2.4 -6.15 2.55 -6.0 2.6 -5.8 2.75 -5.55 3.0 -5.45 3.05 -5.35 3.05 -5.3 3.15 -4.6 3.35 -4.25 3.4 -3.2 3.4 -2.75 3.4 -2.7 3.4 -3.15 3.5 -1.6 3.5 -1.5 3.55 -1.45 3.5 -1.4 3.5 -0.55 3.35 -0.4 3.4 -0.3 3.4 -0.05 3.25 -0.05 3.15 0.0 3.15 0.05 3.15 0.55 3.05 1.55 2.9 3.65 2.7 3.7 2.7 4.4 2.65 4.45 2.8 2.85 3.0 -3.0 3.8 -3.05 3.75 -3.75 3.85 -4.7 3.6 Q-6.05 3.15 -6.95 2.05 L-6.95 1.85 -7.15 1.65 -7.45 0.25 -7.45 -0.05 -7.45 -0.15 -7.45 -0.45 -7.15 -1.85 -6.95 -2.05 -6.95 -2.25 Q-6.05 -3.35 -4.7 -3.8 L-3.75 -4.05 -3.05 -3.95 -3.0 -4.0 2.85 -3.2 5.9 -2.85 11.7 -2.25 16.95 -1.95 16.9 -2.0 16.9 -2.05 17.2 -2.3 17.45 -2.5 17.8 -2.45 17.85 -2.45 17.9 -2.4 18.1 -2.25 18.15 -0.15 18.15 -0.05 18.1 2.05 17.9 2.2 17.85 2.25 17.8 2.25 17.45 2.3 17.2 2.1 16.9 1.85 16.9 1.8 16.95 1.75 11.7 2.05 5.9 2.65 4.9 2.75 4.95 2.7 4.95 2.6 5.25 2.55 5.3 2.5 5.35 2.45 5.45 2.45 5.6 2.45 6.0 2.55 6.05 2.55 6.15 2.5 6.4 2.4 6.6 2.35 6.75 2.35 6.8 2.35 7.6 2.25 8.55 2.3 8.6 2.25 8.6 2.2 8.65 2.15 8.8 2.15 9.25 2.15 9.45 2.1 9.5 2.15 9.6 2.2 9.85 2.05 9.9 2.0 10.45 1.9 10.65 1.9 10.75 1.85 11.1 1.8 11.15 1.8 11.45 1.8 11.55 1.8 11.95 1.75 12.0 1.75 13.6 1.65 14.05 1.7 15.3 1.55 16.75 1.6 16.8 1.65 17.3 1.8 17.35 1.85 17.4 1.9 17.4 1.95 17.45 2.05 17.8 2.0 17.8 1.95 17.9 1.85 17.9 1.75 18.05 0.95 18.05 0.9 17.95 0.65 18.0 0.6 17.9 0.5 17.85 0.5 17.95 0.1 17.95 -0.05 17.9 -0.05 17.9 -0.15 17.95 -0.15 17.95 -0.3 Q17.75 -0.95 17.8 -1.65 L17.8 -1.9 17.85 -1.95 17.8 -2.0 17.8 -2.15 17.75 -2.15 17.45 -2.2 17.45 -2.15 17.4 -2.05 17.35 -2.0 Q17.25 -1.9 17.15 -1.9 L17.1 -1.95 17.05 -1.9 16.95 -1.85 16.95 -1.8 Q14.9 -1.6 12.85 -1.75 L12.6 -1.8 7.0 -2.55 5.6 -2.6 4.75 -2.7" fill="#000000" fill-rule="evenodd" stroke="none"/>
    <path d="M-0.05 -2.05 L-0.1 -1.3 -0.15 -1.25 -0.2 -1.2 -0.2 -1.1 -0.25 -0.7 -0.2 -0.65 -0.15 -0.2 -0.2 -0.15 -0.25 0.3 -0.25 0.55 -0.3 0.55 -0.35 0.6 -0.35 0.95 -0.4 1.05 Q-0.6 1.55 -0.3 2.05 L-0.3 2.25 -0.3 2.3 -0.35 2.25 -0.4 2.3 -0.45 2.35 -0.45 2.25 -0.45 2.0 -0.5 0.6 -0.5 0.35 -0.5 0.2 -0.5 0.1 -0.45 0.1 -0.5 -1.1 -0.4 -2.1 -0.3 -2.45 -0.3 -2.5 -0.3 -2.6 -0.3 -2.95 -0.3 -3.1 -0.25 -3.25 -0.2 -3.3 -0.25 -3.3 -0.25 -3.35 0.95 -3.15 3.45 -2.85 4.4 -2.75 4.35 -2.7 4.3 -2.65 4.2 -2.6 4.15 -2.6 2.6 -2.75 -0.15 -3.3 -0.15 -3.25 -0.1 -3.2 -0.05 -3.05 0.0 -3.05 0.0 -2.85 0.0 -2.45 -0.05 -2.05 M4.75 -2.7 L5.6 -2.6 4.8 -2.6 4.85 -2.55 4.9 -2.55 4.95 -2.45 4.95 -2.4 5.0 -2.4 5.0 -2.15 4.95 -1.35 4.9 -1.0 4.85 -0.95 4.8 -0.9 4.75 -0.5 4.8 -0.45 4.8 -0.3 Q8.5 -0.6 12.25 -0.4 L12.4 -0.4 13.4 -0.4 15.4 -0.1 Q16.4 0.05 17.1 -0.4 L17.2 0.0 17.2 0.35 17.15 0.4 17.05 0.45 9.75 0.8 6.1 1.25 5.55 1.35 4.95 1.45 5.0 0.0 4.95 0.0 4.85 -0.1 4.8 -0.05 4.75 0.5 4.7 0.5 4.65 0.55 Q4.5 0.65 4.65 0.85 L4.6 0.9 4.55 1.5 4.7 1.75 4.7 1.9 4.65 1.9 4.6 1.95 4.55 1.95 4.55 1.7 4.5 1.5 4.5 0.55 4.5 0.2 4.5 0.15 4.55 0.1 4.5 -0.25 4.55 -1.35 4.7 -1.95 4.7 -2.05 4.7 -2.15 4.7 -2.45 4.75 -2.55 4.8 -2.6 4.75 -2.6 4.75 -2.7 M12.85 -1.75 Q14.9 -1.6 16.95 -1.8 L17.0 -1.55 12.85 -1.75 M17.15 -1.9 Q17.25 -1.9 17.35 -2.0 L17.4 -2.05 17.45 -2.15 17.45 -2.2 17.75 -2.15 17.8 -2.15 17.8 -2.0 17.7 -2.1 17.7 -2.05 17.5 -2.0 17.45 -1.95 17.45 -1.9 17.2 -1.8 17.2 -1.85 17.15 -1.9 M17.8 -1.65 Q17.75 -0.95 17.95 -0.3 L17.95 -0.15 17.9 -0.15 17.9 -0.05 17.95 -0.05 17.95 0.1 17.85 0.5 17.7 0.6 17.55 0.65 17.55 0.6 17.6 0.55 17.6 0.45 17.6 -0.45 17.65 -0.5 17.7 -0.55 17.75 -1.55 17.75 -1.6 17.8 -1.65 M-5.8 2.75 L-6.0 2.6 -5.85 2.7 -5.8 2.75 M-6.2 2.4 L-6.3 2.3 -6.25 2.35 -6.2 2.4 M-7.05 0.65 L-7.1 0.3 -7.05 0.55 -7.05 0.65 M-7.1 -0.5 L-6.65 -2.0 -6.0 -2.8 Q-4.55 -3.9 -2.8 -3.55 L-2.75 -3.6 -2.7 -3.6 -2.7 -3.65 -2.65 -3.7 -0.65 -3.4 -0.7 -3.35 -3.25 -3.55 -3.4 -3.5 -5.7 -2.7 -6.55 -1.9 -6.55 -1.8 -6.55 -1.7 -6.55 -1.65 -6.55 -1.4 -6.55 -1.35 -6.5 -1.3 -6.5 -1.25 -6.35 -0.5 -5.85 0.15 Q-4.3 0.95 -2.55 0.65 L-0.7 0.4 -0.7 0.5 -0.7 0.85 Q-1.0 1.4 -0.75 2.15 L-0.7 2.2 -0.7 2.3 Q-2.85 2.55 -4.95 2.3 -5.15 2.0 -5.55 1.9 L-6.05 1.35 -6.05 1.3 -6.05 1.2 -6.7 0.15 -6.65 -0.05 -6.7 -0.05 -6.8 -0.15 -6.85 -0.1 -6.85 -0.15 -6.9 -0.5 -6.95 -0.55 -7.0 -0.6 -7.05 -0.55 -7.1 -0.5 M4.3 -0.25 L4.3 -0.1 4.3 0.45 4.3 0.75 Q4.05 1.1 4.2 1.55 L-0.05 2.2 0.0 0.3 0.4 0.2 3.0 -0.1 4.3 -0.25 M-6.5 1.25 L-6.6 0.95 -6.35 1.35 -6.35 1.45 -6.35 1.5 -6.4 1.4 -6.45 1.35 -6.45 1.3 -6.5 1.25" fill="#928647" fill-rule="evenodd" stroke="none"/>
    <path d="M17.85 0.5 L17.9 0.5 18.0 0.6 17.95 0.65 18.05 0.9 18.05 0.95 17.9 1.75 17.9 1.85 17.8 1.95 17.8 2.0 17.45 2.05 17.4 1.95 17.4 1.9 17.35 1.85 17.3 1.8 16.8 1.65 16.75 1.6 15.3 1.55 14.05 1.7 13.6 1.65 12.0 1.75 11.95 1.75 11.55 1.8 11.45 1.8 11.15 1.8 11.1 1.8 10.75 1.85 10.65 1.9 10.45 1.9 9.9 2.0 9.85 2.05 9.6 2.2 9.5 2.15 9.45 2.1 9.25 2.15 8.8 2.15 8.65 2.15 8.6 2.2 8.6 2.25 8.55 2.3 7.6 2.25 6.8 2.35 6.75 2.35 6.6 2.35 6.4 2.4 6.15 2.5 6.05 2.55 6.0 2.55 5.6 2.45 5.45 2.45 5.35 2.45 5.3 2.5 5.25 2.55 4.95 2.6 4.95 2.7 4.9 2.75 4.7 2.8 4.6 2.8 4.45 2.8 4.4 2.65 3.7 2.7 3.65 2.7 1.55 2.9 0.55 3.05 0.05 3.15 0.0 3.15 -0.05 3.15 -0.05 3.25 -0.3 3.4 -0.4 3.4 -0.55 3.35 -1.4 3.5 -1.45 3.5 -1.5 3.55 -1.6 3.5 -3.15 3.5 -2.7 3.4 -2.75 3.4 -3.2 3.4 -4.25 3.4 -4.6 3.35 -5.3 3.15 -5.35 3.05 -5.45 3.05 -5.55 3.0 -5.8 2.75 -5.85 2.7 -6.0 2.6 -6.15 2.55 -6.2 2.4 -6.25 2.35 -6.3 2.3 -6.85 1.65 -7.05 1.5 -7.05 0.65 -7.05 0.55 -7.1 0.3 -7.2 0.1 -7.2 0.0 -7.15 -0.05 -7.15 -0.4 -7.15 -0.5 -7.1 -0.5 -7.05 -0.55 -7.0 -0.6 -6.95 -0.55 -6.9 -0.5 -6.85 -0.15 -6.85 -0.1 -6.8 -0.15 -6.7 -0.05 -6.65 -0.05 -6.7 0.15 -6.05 1.2 -6.05 1.3 -6.05 1.35 -5.55 1.9 Q-5.15 2.0 -4.95 2.3 -2.85 2.55 -0.7 2.3 L-0.7 2.9 -0.65 2.95 -0.65 2.7 -0.55 2.7 -0.5 2.4 -0.5 2.35 -0.45 2.35 -0.4 2.3 -0.35 2.25 -0.3 2.3 -0.3 2.25 -0.3 2.05 Q-0.6 1.55 -0.4 1.05 L-0.35 0.95 -0.35 0.6 -0.3 0.55 -0.25 0.55 -0.25 0.3 -0.2 -0.15 -0.15 -0.2 -0.05 -0.1 0.0 -0.1 0.0 0.3 -0.05 2.2 4.2 1.55 4.25 1.8 4.3 1.85 4.3 2.4 4.35 2.45 4.35 2.25 4.45 2.25 4.5 2.0 4.5 1.95 4.55 1.95 4.6 1.95 4.65 1.9 4.7 1.9 4.7 1.75 4.55 1.5 4.6 0.9 4.65 0.85 Q4.5 0.65 4.65 0.55 L4.7 0.5 4.75 0.5 4.8 -0.05 4.85 -0.1 4.95 0.0 5.0 0.0 4.95 1.45 5.55 1.35 6.1 1.25 9.75 0.8 17.05 0.45 17.15 0.4 17.2 0.35 17.2 0.5 17.25 0.55 17.3 1.2 17.55 1.25 17.55 1.15 17.55 0.65 17.7 0.6 17.85 0.5 M-6.5 1.25 L-6.45 1.3 -6.45 1.35 -6.4 1.4 -6.35 1.5 -6.35 1.45 -6.35 1.35 -6.6 0.95 -6.5 1.25" fill="#443c22" fill-rule="evenodd" stroke="none"/>
    <path d="M-0.05 -2.05 L2.5 -1.95 2.5 -2.0 2.55 -2.05 2.55 -2.1 2.5 -2.1 2.4 -2.15 0.0 -2.45 0.0 -2.85 4.05 -2.2 4.2 -2.2 4.2 -1.95 4.25 -1.95 4.25 -1.8 4.25 -1.7 4.15 -1.7 4.15 -1.6 4.15 -1.35 3.7 -1.35 -0.2 -1.1 -0.2 -1.2 -0.15 -1.25 -0.1 -1.3 -0.05 -2.05 M4.5 -2.35 L4.55 -2.35 4.6 -2.35 4.65 -2.45 4.65 -2.5 4.7 -2.45 4.7 -2.15 4.7 -2.05 4.7 -1.95 4.55 -1.35 4.5 -0.25 4.55 0.1 4.5 0.15 4.5 0.2 4.5 0.55 4.45 0.55 4.3 0.5 4.3 0.45 4.3 -0.1 4.3 -0.25 4.3 -0.3 4.35 -0.75 4.35 -1.0 4.35 -1.35 4.35 -1.45 4.3 -1.5 4.45 -2.15 4.5 -2.3 4.5 -2.35 M5.0 -2.15 L9.55 -1.95 10.2 -1.85 12.5 -1.6 15.9 -1.4 16.8 -1.4 16.85 -1.45 17.0 -1.5 17.05 -1.05 4.95 -1.35 5.0 -2.15 M17.2 0.0 L17.2 -0.3 17.2 -0.35 17.3 -0.4 17.3 -0.55 17.35 -1.05 17.35 -1.3 17.35 -1.35 17.45 -1.4 17.5 -1.45 17.55 -1.4 17.6 -1.45 17.65 -1.6 17.65 -1.65 17.7 -1.6 17.75 -1.6 17.75 -1.55 17.7 -0.55 17.65 -0.5 17.6 -0.45 17.6 0.45 17.6 0.55 17.55 0.6 17.55 0.65 17.55 1.15 17.55 1.25 17.3 1.2 17.25 0.55 17.25 0.35 17.2 0.0 M-0.8 -1.05 L-2.7 -0.8 Q-4.5 -0.55 -6.05 -1.3 L-6.1 -1.85 -6.1 -1.9 -6.1 -2.1 -5.3 -2.65 -3.5 -3.2 -3.25 -3.25 -1.9 -3.15 -0.8 -3.05 -0.75 -3.0 -0.8 -2.55 -3.5 -3.0 -3.55 -2.95 -3.65 -2.9 -3.65 -2.8 -4.25 -2.85 -4.25 -2.8 Q-4.9 -2.8 -5.3 -2.35 L-5.25 -2.25 -4.95 -2.1 -4.8 -2.15 -4.7 -2.1 -4.7 -2.05 -3.25 -2.1 -2.5 -2.05 -1.4 -2.1 -0.85 -2.1 -0.85 -2.05 -0.8 -1.05 M-0.7 0.4 L-0.7 -0.15 -0.7 -0.45 -0.65 -0.95 -0.65 -1.3 -0.65 -1.85 -0.7 -1.95 -0.65 -2.1 -0.6 -2.55 -0.5 -2.9 -0.5 -2.95 -0.45 -3.0 -0.4 -2.95 -0.4 -3.0 -0.35 -3.1 -0.35 -3.15 -0.3 -3.1 -0.3 -2.95 -0.3 -2.6 -0.3 -2.5 -0.3 -2.45 -0.4 -2.1 -0.5 -1.1 -0.45 0.1 -0.5 0.1 -0.5 0.2 -0.5 0.35 -0.5 0.6 -0.55 0.6 -0.7 0.55 -0.7 0.5 -0.7 0.4" fill="#f7eebd" fill-rule="evenodd" stroke="none"/>
    <path d="M0.0 -2.45 L2.4 -2.15 2.5 -2.1 2.55 -2.1 2.55 -2.05 2.5 -2.0 2.5 -1.95 -0.05 -2.05 0.0 -2.45 M4.15 -1.35 L4.15 -1.6 4.15 -1.7 4.25 -1.7 4.3 -1.75 4.25 -1.8 4.25 -1.95 4.2 -1.95 4.2 -2.2 4.25 -2.4 4.3 -2.55 4.3 -2.6 4.35 -2.7 4.4 -2.75 4.5 -2.85 4.55 -2.9 4.65 -2.8 4.7 -2.8 4.75 -2.7 4.75 -2.6 4.75 -2.55 4.7 -2.45 4.65 -2.5 4.65 -2.45 4.6 -2.35 4.55 -2.35 4.5 -2.35 4.5 -2.3 4.45 -2.15 4.3 -1.5 4.35 -1.45 4.35 -1.35 4.35 -1.0 4.35 -0.75 4.25 -0.75 4.2 -0.8 4.15 -1.35 M16.95 -1.8 L16.95 -1.85 17.05 -1.9 17.1 -1.95 17.15 -1.9 17.2 -1.85 17.2 -1.8 17.45 -1.9 17.45 -1.95 17.5 -2.0 17.7 -2.05 17.7 -2.1 17.8 -2.0 17.85 -1.95 17.8 -1.9 17.8 -1.65 17.75 -1.6 17.7 -1.6 17.65 -1.65 17.65 -1.6 17.6 -1.45 17.55 -1.4 17.5 -1.45 17.45 -1.4 17.35 -1.35 17.35 -1.3 17.35 -1.05 17.3 -0.55 17.3 -0.4 17.2 -0.35 17.2 -0.3 17.2 0.0 17.1 -0.4 17.05 -1.05 17.0 -1.5 17.0 -1.55 16.95 -1.8 M-0.65 -3.4 L-0.5 -3.6 -0.45 -3.65 -0.35 -3.55 -0.3 -3.55 -0.25 -3.35 -0.25 -3.3 -0.25 -3.25 -0.3 -3.1 -0.35 -3.15 -0.35 -3.1 -0.4 -3.0 -0.4 -2.95 -0.45 -3.0 -0.5 -2.95 -0.5 -2.9 -0.6 -2.55 -0.65 -2.1 -0.7 -1.95 -0.65 -1.85 -0.65 -1.3 -0.65 -0.95 -0.75 -1.0 -0.8 -1.05 -0.85 -2.05 -0.85 -2.1 -1.4 -2.1 -2.5 -2.05 -3.25 -2.1 -4.7 -2.05 -4.7 -2.1 -4.8 -2.15 -4.95 -2.1 -5.25 -2.25 -5.3 -2.35 Q-4.9 -2.8 -4.25 -2.8 L-4.25 -2.85 -3.65 -2.8 -3.65 -2.9 -3.55 -2.95 -3.5 -3.0 -0.8 -2.55 -0.75 -3.0 -0.75 -3.05 -0.7 -3.25 -0.65 -3.35 -0.65 -3.4 M17.2 0.35 L17.2 0.0 17.25 0.35 17.25 0.55 17.2 0.5 17.2 0.35 M-0.75 -2.25 L-0.75 -2.2 -0.7 -2.2 -0.75 -2.25" fill="#ffffff" fill-rule="evenodd" stroke="none"/>
    <path d="M-0.2 -1.1 L3.7 -1.35 4.15 -1.35 4.2 -0.8 4.25 -0.75 4.35 -0.75 4.3 -0.3 4.3 -0.25 3.0 -0.1 0.4 0.2 0.0 0.3 0.0 -0.1 -0.05 -0.1 -0.15 -0.2 -0.2 -0.65 -0.25 -0.7 -0.2 -1.1 M4.25 -1.7 L4.25 -1.8 4.3 -1.75 4.25 -1.7 M4.2 -2.2 L4.05 -2.2 0.0 -2.85 0.0 -3.05 -0.05 -3.05 -0.1 -3.2 -0.15 -3.25 -0.15 -3.3 2.6 -2.75 4.15 -2.6 4.2 -2.6 4.3 -2.65 4.35 -2.7 4.3 -2.6 4.3 -2.55 4.25 -2.4 4.2 -2.2 M5.6 -2.6 L7.0 -2.55 12.6 -1.8 12.85 -1.75 17.0 -1.55 17.0 -1.5 16.85 -1.45 16.8 -1.4 15.9 -1.4 12.5 -1.6 10.2 -1.85 9.55 -1.95 5.0 -2.15 5.0 -2.4 4.95 -2.4 4.95 -2.45 4.9 -2.55 4.85 -2.55 4.8 -2.6 5.6 -2.6 M4.75 -2.55 L4.75 -2.6 4.8 -2.6 4.75 -2.55 M4.5 -2.3 L4.5 -2.35 4.5 -2.3 M17.1 -0.4 Q16.4 0.05 15.4 -0.1 L13.4 -0.4 12.4 -0.4 12.25 -0.4 Q8.5 -0.6 4.8 -0.3 L4.8 -0.45 4.75 -0.5 4.8 -0.9 4.85 -0.95 4.9 -1.0 4.95 -1.35 17.05 -1.05 17.1 -0.4 M4.3 0.45 L4.3 0.5 4.45 0.55 4.5 0.55 4.5 1.5 4.55 1.7 4.55 1.95 4.5 1.95 4.5 2.0 4.45 2.25 4.35 2.25 4.35 2.45 4.3 2.4 4.3 1.85 4.25 1.8 4.2 1.55 Q4.05 1.1 4.3 0.75 L4.3 0.45 M-0.75 -3.0 L-0.8 -3.05 -1.9 -3.15 -3.25 -3.25 -3.5 -3.2 -5.3 -2.65 -6.1 -2.1 -6.1 -1.9 -6.1 -1.85 -6.05 -1.3 Q-4.5 -0.55 -2.7 -0.8 L-0.8 -1.05 -0.75 -1.0 -0.65 -0.95 -0.7 -0.45 -0.7 -0.15 -0.7 0.4 -2.55 0.65 Q-4.3 0.95 -5.85 0.15 L-6.35 -0.5 -6.5 -1.25 -6.5 -1.3 -6.55 -1.35 -6.55 -1.4 -6.55 -1.65 -6.55 -1.7 -6.55 -1.8 -6.55 -1.9 -5.7 -2.7 -3.4 -3.5 -3.25 -3.55 -0.7 -3.35 -0.65 -3.4 -0.65 -3.35 -0.7 -3.25 -0.75 -3.05 -0.75 -3.0 M-0.7 2.3 L-0.7 2.2 -0.75 2.15 Q-1.0 1.4 -0.7 0.85 L-0.7 0.5 -0.7 0.55 -0.55 0.6 -0.5 0.6 -0.45 2.0 -0.45 2.25 -0.45 2.35 -0.5 2.35 -0.5 2.4 -0.55 2.7 -0.65 2.7 -0.65 2.95 -0.7 2.9 -0.7 2.3 M-0.25 -3.25 L-0.25 -3.3 -0.2 -3.3 -0.25 -3.25 M-0.5 -2.95 L-0.5 -2.9 -0.5 -2.95 M-0.75 -2.25 L-0.7 -2.2 -0.75 -2.2 -0.75 -2.25" fill="#c6c664" fill-rule="evenodd" stroke="none"/>
  </g>
</svg>
