<?xml version="1.0" encoding="UTF-8" standalone="no"?>
<svg xmlns:xlink="http://www.w3.org/1999/xlink" height="11.55px" width="18.7px" xmlns="http://www.w3.org/2000/svg">
  <g transform="matrix(1.0, 0.0, 0.0, 1.0, -20.6, 6.5)">
    <path d="M24.55 -6.4 L24.6 -6.35 23.55 -3.55 23.55 -3.5 27.1 -3.0 26.2 -2.85 28.1 -2.55 29.35 -2.4 29.95 -2.3 31.45 -1.85 35.35 -1.05 39.25 0.0 39.3 0.35 39.15 0.35 33.05 1.0 29.2 1.55 26.8 1.65 26.7 1.65 26.7 1.7 26.7 1.75 26.7 1.85 25.05 1.9 24.2 1.95 23.5 2.0 24.15 2.55 24.2 2.5 24.8 3.05 25.85 3.85 25.6 3.85 25.9 4.2 25.9 4.25 Q26.2 4.2 26.3 4.4 L26.0 4.5 26.0 4.55 25.95 4.55 25.9 4.6 25.65 4.5 25.25 4.25 Q23.55 3.35 22.1 2.2 L22.0 2.15 22.0 2.3 22.0 2.35 22.1 2.55 22.15 2.55 22.15 2.7 22.1 2.8 22.35 3.25 22.35 3.3 22.15 3.4 22.55 4.3 22.9 4.65 22.9 4.7 22.8 4.7 22.95 4.95 22.95 5.0 22.85 5.05 22.75 5.0 22.45 4.65 22.25 4.5 22.1 4.4 22.0 4.2 20.85 2.25 20.8 2.25 20.6 2.15 20.65 1.4 20.65 0.75 20.65 0.45 20.7 -2.3 20.6 -2.4 21.15 -5.65 21.2 -5.75 21.3 -5.65 21.35 -5.6 21.35 -5.2 21.35 -5.15 21.4 -5.1 21.45 -4.25 21.45 -4.1 21.45 -3.95 21.4 -3.6 21.4 -3.3 22.85 -4.9 23.75 -5.65 23.8 -5.6 24.05 -5.8 24.1 -5.85 24.15 -5.8 24.45 -6.45 24.45 -6.5 24.5 -6.45 24.55 -6.4" fill="#ffffff" fill-rule="evenodd" stroke="none"/>
  </g>
</svg>
