<?xml version="1.0" encoding="UTF-8" standalone="no"?>
<svg xmlns:xlink="http://www.w3.org/1999/xlink" height="11.05px" width="32.1px" xmlns="http://www.w3.org/2000/svg">
  <g transform="matrix(1.0, 0.0, 0.0, 1.0, 16.45, 5.65)">
    <path d="M-7.95 0.55 L-10.3 0.9 Q-12.5 1.3 -14.4 0.2 -14.95 -0.1 -15.05 -0.7 L-15.25 -1.75 -15.25 -1.8 -15.3 -1.85 -15.3 -1.95 -15.3 -2.3 -15.3 -2.35 -15.3 -2.5 -15.3 -2.65 Q-14.95 -3.4 -14.25 -3.75 -12.9 -4.6 -11.35 -4.9 L-11.15 -4.95 -8.0 -4.65 -8.1 -4.55 -8.1 -4.5 -8.15 -4.3 -8.15 -4.25 -9.45 -4.4 -11.15 -4.55 -11.5 -4.45 -13.75 -3.7 -14.75 -2.9 -14.75 -2.65 -14.75 -2.55 -14.65 -1.8 Q-12.75 -0.8 -10.45 -1.1 L-8.1 -1.45 -8.05 -1.4 -8.05 -1.35 -8.0 -0.75 -7.95 -0.45 -7.95 -0.25 -7.95 0.55 M-8.0 3.2 L-8.0 3.05 -8.05 3.0 Q-8.35 2.0 -8.0 1.15 L-8.0 0.8 -7.95 0.8 -7.8 0.85 -7.75 0.85 -7.7 2.8 -7.7 3.15 -7.7 3.25 -7.7 3.35 -7.8 3.8 -7.9 3.8 -7.95 4.05 -8.0 3.2 M-0.15 -3.7 L1.7 -3.55 8.7 -2.5 9.1 -2.45 14.2 -2.2 14.2 -2.1 14.05 -2.0 14.0 -1.95 12.85 -1.95 8.55 -2.2 5.7 -2.55 4.9 -2.7 -0.85 -3.0 -0.8 -3.4 -0.9 -3.4 -0.95 -3.55 -1.0 -3.6 -1.05 -3.65 -0.15 -3.7 M-7.1 -3.95 L-7.1 -4.25 -7.15 -4.25 -7.2 -4.3 -7.2 -4.45 -7.25 -4.55 -3.85 -3.85 -1.9 -3.6 -1.8 -3.6 -1.9 -3.45 -1.8 -3.35 -1.85 -3.05 -2.0 -3.05 Q-4.65 -3.2 -7.1 -3.95 M-7.35 -1.55 L-2.45 -1.85 -1.9 -1.85 -1.8 -1.1 -1.75 -1.05 -1.75 -0.55 -1.7 -0.35 -3.35 -0.15 -6.6 0.3 -7.1 0.4 -7.1 -0.15 -7.15 -0.15 -7.3 -0.25 -7.35 -0.9 -7.4 -0.95 -7.35 -1.55 M-1.7 0.7 L-1.5 0.75 -1.45 2.1 -1.4 2.35 -1.4 2.7 -1.45 2.75 -1.45 2.8 -1.5 3.15 -1.65 3.15 -1.65 3.35 -1.7 3.35 -1.75 2.55 -1.85 2.15 Q-2.0 1.55 -1.75 1.05 L-1.7 0.7 M-1.15 -3.65 L-1.05 -3.65 -1.15 -3.6 -1.15 -3.65 M-0.9 -1.85 L14.25 -1.5 14.35 -0.6 Q13.45 0.05 12.2 -0.15 L9.7 -0.55 8.45 -0.55 8.25 -0.55 Q3.55 -0.85 -1.05 -0.4 L-1.05 -0.65 -1.15 -0.7 -1.1 -1.3 -1.0 -1.35 -0.95 -1.4 -0.9 -1.85" fill="#546581" fill-rule="evenodd" stroke="none"/>
    <path d="M-8.0 -4.65 L-11.15 -4.95 -11.35 -4.9 Q-12.9 -4.6 -14.25 -3.75 -14.95 -3.4 -15.3 -2.65 L-15.3 -2.5 -15.3 -2.35 -15.3 -2.3 -15.3 -1.95 -15.3 -1.85 -15.25 -1.8 -15.25 -1.75 -15.05 -0.7 Q-14.95 -0.1 -14.4 0.2 -12.5 1.3 -10.3 0.9 L-7.95 0.55 -7.95 0.7 -8.0 0.8 -8.0 1.15 Q-8.35 2.0 -8.05 3.0 L-8.0 3.05 -8.0 3.2 Q-10.7 3.6 -13.3 3.25 -13.55 2.8 -14.05 2.65 L-14.65 1.9 -14.65 1.85 -14.65 1.7 -15.5 0.2 -15.45 -0.05 -15.5 -0.05 -15.6 -0.2 -15.7 -0.15 -15.7 -0.2 -15.75 -0.7 -15.8 -0.75 -15.85 -0.85 -15.95 -0.75 -16.0 -0.75 -15.45 -2.8 Q-15.2 -3.45 -14.6 -3.9 -12.8 -5.45 -10.6 -4.95 L-10.55 -5.0 -10.45 -5.0 -10.45 -5.1 -10.4 -5.15 -10.4 -5.2 -7.9 -4.75 -7.95 -4.65 -8.0 -4.65 M-14.35 3.85 L-14.6 3.65 -14.4 3.75 -14.35 3.85 M-14.9 3.35 L-15.05 3.2 -14.95 3.25 -14.9 3.35 M-15.95 0.9 L-16.0 0.4 -15.95 0.75 -15.95 0.9 M-7.4 -4.65 L-5.9 -4.4 -2.75 -3.95 -1.6 -3.85 -1.65 -3.75 -1.7 -3.75 -1.8 -3.6 -1.9 -3.6 -3.85 -3.85 -7.25 -4.55 -7.2 -4.45 -7.2 -4.3 -7.15 -4.25 -7.1 -4.25 -7.1 -3.95 -7.15 -3.45 -7.15 -2.9 -7.2 -1.8 -7.3 -1.75 -7.35 -1.65 -7.35 -1.55 -7.4 -0.95 -7.35 -0.9 -7.3 -0.25 -7.35 -0.2 -7.4 0.45 -7.45 0.8 -7.55 0.85 Q-7.75 1.05 -7.55 1.35 L-7.6 1.5 Q-7.85 2.2 -7.5 2.9 L-7.5 3.1 -7.5 3.2 -7.55 3.15 -7.6 3.25 -7.7 3.25 -7.7 3.15 -7.7 2.8 -7.75 0.85 -7.7 0.5 -7.7 0.3 -7.7 0.15 -7.7 0.1 -7.7 -1.5 -7.55 -2.9 -7.5 -3.45 -7.5 -3.5 -7.45 -3.65 -7.5 -4.1 -7.45 -4.3 -7.4 -4.55 -7.4 -4.65 M-1.15 -3.8 L-0.15 -3.7 -1.05 -3.65 -1.0 -3.6 -0.95 -3.55 -0.9 -3.4 -0.8 -3.4 -0.85 -3.0 -0.9 -1.85 -0.95 -1.4 -1.0 -1.35 -1.1 -1.3 -1.15 -0.7 -1.05 -0.65 -1.05 -0.4 Q3.55 -0.85 8.25 -0.55 L8.45 -0.55 9.7 -0.55 12.2 -0.15 Q13.45 0.05 14.35 -0.6 L14.5 0.0 14.5 0.5 14.4 0.55 14.3 0.65 5.15 1.15 0.55 1.75 -0.15 1.9 -0.85 2.0 -0.8 0.0 -0.9 0.0 -1.0 -0.15 -1.05 -0.15 -1.05 -0.1 -1.15 0.7 -1.2 0.7 -1.25 0.75 Q-1.45 0.9 -1.25 1.15 L-1.3 1.25 -1.4 2.1 -1.25 2.4 -1.25 2.65 -1.3 2.7 -1.4 2.7 -1.4 2.35 -1.45 2.1 -1.5 0.75 -1.45 0.3 -1.45 0.2 -1.4 0.15 -1.45 -0.35 -1.4 -1.85 -1.25 -2.7 -1.2 -2.9 -1.25 -3.05 -1.2 -3.45 -1.15 -3.6 -1.05 -3.65 -1.15 -3.65 -1.15 -3.8 M9.1 -2.45 Q11.6 -2.2 14.15 -2.5 L14.2 -2.2 9.1 -2.45 M14.4 -2.65 L14.65 -2.8 14.75 -2.85 14.8 -3.0 14.8 -3.05 15.15 -3.0 15.25 -3.0 15.25 -2.8 15.1 -2.9 15.1 -2.85 14.85 -2.8 14.8 -2.7 14.8 -2.65 14.5 -2.5 14.5 -2.55 14.4 -2.65 M15.25 -2.3 Q15.15 -1.35 15.4 -0.4 L15.4 -0.2 15.35 -0.2 15.35 -0.05 15.4 -0.05 15.4 0.15 15.3 0.7 15.1 0.85 14.9 0.95 14.9 0.8 15.0 0.8 15.0 0.65 14.95 -0.6 15.05 -0.7 15.1 -0.75 15.15 -2.15 15.15 -2.2 15.25 -2.3 M-1.7 -0.35 L-1.7 -0.15 -1.7 0.65 -1.7 0.7 -1.75 1.05 Q-2.0 1.55 -1.85 2.15 L-7.15 3.05 -7.1 0.4 -6.6 0.3 -3.35 -0.15 -1.7 -0.35 M-15.15 1.95 L-15.2 1.9 -15.2 1.85 -15.25 1.7 -15.4 1.35 -15.05 1.9 -15.05 2.05 -15.1 2.05 -15.15 1.95" fill="#343f50" fill-rule="evenodd" stroke="none"/>
    <path d="M-7.95 0.55 L-7.95 -0.25 -7.95 -0.45 -7.95 -0.65 -7.95 -1.35 -7.95 -1.85 -7.9 -2.6 -7.95 -2.7 -7.95 -2.95 -7.85 -3.55 -7.75 -4.05 -7.7 -4.1 -7.65 -4.15 -7.65 -4.2 -7.6 -4.15 -7.55 -4.3 -7.55 -4.4 -7.45 -4.3 -7.5 -4.1 -7.45 -3.65 -7.5 -3.5 -7.5 -3.45 -7.55 -2.9 -7.7 -1.5 -7.7 0.1 -7.7 0.15 -7.7 0.3 -7.7 0.5 -7.75 0.85 -7.8 0.85 -7.95 0.8 -7.95 0.7 -7.95 0.55 M-8.1 -1.45 L-10.45 -1.1 Q-12.75 -0.8 -14.65 -1.8 L-14.75 -2.55 -14.75 -2.65 -14.75 -2.9 -13.75 -3.7 -11.5 -4.45 -11.15 -4.55 -9.45 -4.4 -8.15 -4.25 -8.05 -4.2 -8.1 -3.6 -11.5 -4.2 -11.55 -4.1 -11.65 -4.05 -11.65 -3.95 -12.4 -3.95 -12.45 -3.95 Q-13.25 -3.9 -13.75 -3.25 L-13.65 -3.15 -13.3 -2.9 -13.1 -3.0 -13.0 -2.9 -13.0 -2.85 -11.2 -2.95 -10.2 -2.85 -8.85 -2.95 -8.15 -2.95 -8.15 -2.85 -8.1 -1.45 M-7.1 -3.95 Q-4.65 -3.2 -2.0 -3.05 L-1.85 -3.05 -1.8 -2.75 -1.75 -2.7 -1.75 -2.5 -1.75 -2.4 -1.9 -2.35 -1.9 -2.25 -1.9 -1.85 -2.45 -1.85 -7.35 -1.55 -7.35 -1.65 -7.3 -1.75 -7.2 -1.8 -7.15 -2.9 -3.95 -2.7 -3.95 -2.8 -3.9 -2.85 -3.9 -2.9 -3.95 -2.9 -4.1 -3.0 -7.15 -3.45 -7.1 -3.95 M-1.5 -3.2 L-1.45 -3.25 -1.4 -3.3 -1.35 -3.3 -1.25 -3.45 -1.25 -3.5 -1.2 -3.45 -1.25 -3.05 -1.2 -2.9 -1.25 -2.7 -1.4 -1.85 -1.45 -0.35 -1.4 0.15 -1.45 0.2 -1.45 0.3 -1.5 0.75 -1.7 0.7 -1.7 0.65 -1.7 -0.15 -1.7 -0.35 -1.7 -0.45 -1.65 -1.05 -1.65 -1.4 -1.65 -1.85 -1.65 -2.05 -1.7 -2.1 -1.55 -3.05 -1.5 -3.2 M-0.85 -3.0 L4.9 -2.7 5.7 -2.55 8.55 -2.2 12.85 -1.95 14.0 -1.95 14.05 -2.0 14.2 -2.1 14.25 -1.5 -0.9 -1.85 -0.85 -3.0 M14.5 0.0 L14.5 -0.4 14.5 -0.5 14.6 -0.55 14.6 -0.8 14.65 -1.5 14.65 -1.8 14.65 -1.85 14.8 -1.95 14.8 -2.0 14.85 -2.0 14.9 -1.95 14.95 -2.0 15.05 -2.2 15.05 -2.3 15.1 -2.2 15.15 -2.2 15.15 -2.15 15.1 -0.75 15.05 -0.7 14.95 -0.6 15.0 0.65 15.0 0.8 14.9 0.8 14.9 0.95 14.9 1.6 14.9 1.75 14.6 1.7 14.5 0.75 14.5 0.7 14.5 0.5 14.5 0.0" fill="#ced6df" fill-rule="evenodd" stroke="none"/>
    <path d="M-7.9 -4.75 L-10.4 -5.2 -10.45 -5.2 -10.4 -5.15 -10.45 -5.1 -10.45 -5.0 -10.55 -5.0 -10.6 -4.95 Q-12.8 -5.45 -14.6 -3.9 -15.2 -3.45 -15.45 -2.8 L-16.0 -0.75 -16.05 -0.7 -16.05 -0.55 -16.05 -0.05 -16.1 0.0 -16.1 0.15 -16.0 0.4 -15.95 0.9 -15.95 2.1 -15.7 2.3 -15.05 3.2 -14.9 3.35 -14.8 3.6 -14.65 3.6 -14.6 3.65 -14.35 3.85 -14.05 4.2 -13.9 4.25 -13.8 4.25 -13.75 4.4 -12.85 4.7 -12.45 4.75 -11.15 4.8 -10.55 4.75 -10.45 4.75 -11.05 4.9 -9.1 4.9 -8.95 4.95 -8.9 4.9 -8.85 4.9 -8.85 4.85 -7.8 4.65 -7.8 4.7 -7.6 4.75 -7.45 4.75 -7.15 4.55 -7.15 4.4 -7.05 4.4 -6.4 4.25 -5.2 4.05 -2.5 3.8 -2.45 3.75 -1.6 3.7 -1.5 3.9 -3.5 4.2 -10.85 5.3 -10.9 5.25 -11.8 5.4 -13.0 5.05 Q-14.7 4.4 -15.8 2.9 L-15.8 2.6 -16.05 2.3 -16.45 0.35 -16.45 -0.05 -16.45 -0.2 -16.45 -0.6 -16.05 -2.55 -15.8 -2.85 -15.8 -3.15 Q-14.7 -4.7 -13.0 -5.3 L-11.8 -5.65 -10.9 -5.5 -10.85 -5.6 -3.5 -4.45 0.3 -3.95 7.6 -3.15 14.15 -2.7 14.1 -2.8 14.1 -2.85 14.5 -3.2 14.8 -3.5 15.25 -3.4 15.3 -3.4 15.35 -3.35 15.6 -3.15 15.65 -0.2 15.65 -0.05 15.6 2.9 15.35 3.1 15.3 3.15 15.25 3.15 14.8 3.25 14.5 2.95 14.1 2.6 14.1 2.55 14.15 2.45 7.6 2.9 0.3 3.7 -0.95 3.85 -0.9 3.75 -0.9 3.65 -0.5 3.6 -0.45 3.5 -0.4 3.45 -0.2 3.45 -0.1 3.45 0.45 3.55 0.5 3.6 0.6 3.5 0.95 3.35 1.2 3.3 1.3 3.25 2.45 3.15 3.65 3.25 Q3.6 3.15 3.7 3.15 L3.7 3.1 3.75 3.0 3.9 3.0 4.5 3.0 4.75 2.95 4.8 3.0 4.95 3.1 5.25 2.9 5.35 2.8 5.5 2.8 5.7 2.75 6.85 2.55 7.25 2.55 7.4 2.5 7.9 2.45 7.95 2.4 9.95 2.3 10.55 2.4 12.05 2.15 13.9 2.25 14.0 2.3 14.6 2.55 14.65 2.6 14.75 2.65 14.75 2.75 14.8 2.9 15.25 2.8 15.25 2.75 15.35 2.6 15.35 2.45 Q15.3 1.9 15.55 1.35 L15.55 1.25 15.4 0.9 15.5 0.85 15.35 0.7 15.3 0.7 15.4 0.15 15.4 -0.05 15.35 -0.05 15.35 -0.2 15.4 -0.2 15.4 -0.4 Q15.15 -1.35 15.25 -2.3 L15.25 -2.35 15.25 -2.45 15.25 -2.5 15.25 -2.65 15.3 -2.7 15.25 -2.8 15.25 -3.0 15.15 -3.0 14.8 -3.05 14.8 -3.0 14.75 -2.85 14.65 -2.8 14.4 -2.65 14.35 -2.7 14.3 -2.65 14.25 -2.65 14.15 -2.55 14.15 -2.5 Q11.6 -2.2 9.1 -2.45 L8.7 -2.5 1.7 -3.55 -0.15 -3.7 -1.15 -3.8 -1.2 -3.95 -1.25 -3.95 -1.4 -4.05 -1.45 -4.0 -1.6 -3.85 -2.75 -3.95 -5.9 -4.4 -7.4 -4.65 -7.45 -4.95 -7.55 -4.95 -7.65 -5.1 -7.7 -5.0 -7.9 -4.75" fill="#000000" fill-rule="evenodd" stroke="none"/>
    <path d="M-8.05 -1.4 L-8.1 -1.45 -8.15 -2.85 -8.15 -2.95 -8.85 -2.95 -10.2 -2.85 -11.2 -2.95 -13.0 -2.85 -13.0 -2.9 -13.1 -3.0 -13.3 -2.9 -13.65 -3.15 -13.75 -3.25 Q-13.25 -3.9 -12.45 -3.95 L-12.4 -3.95 -11.65 -3.95 -11.65 -4.05 -11.55 -4.1 -11.5 -4.2 -8.1 -3.6 -8.05 -4.2 -8.05 -4.25 -7.95 -4.55 -7.95 -4.65 -7.9 -4.75 -7.7 -5.0 -7.65 -5.1 -7.55 -4.95 -7.45 -4.95 -7.4 -4.65 -7.4 -4.55 -7.45 -4.3 -7.55 -4.4 -7.55 -4.3 -7.6 -4.15 -7.65 -4.2 -7.65 -4.15 -7.7 -4.1 -7.75 -4.15 -7.75 -4.05 -7.85 -3.55 -7.95 -2.95 -7.95 -2.7 -7.9 -2.6 -7.95 -1.85 -7.95 -1.35 -8.05 -1.4 M-1.6 -3.85 L-1.45 -4.0 -1.4 -4.05 -1.25 -3.95 -1.2 -3.95 -1.15 -3.8 -1.15 -3.65 -1.15 -3.6 -1.2 -3.45 -1.25 -3.5 -1.25 -3.45 -1.35 -3.3 -1.4 -3.3 -1.45 -3.25 -1.5 -3.3 -1.5 -3.2 -1.55 -3.05 -1.7 -2.1 -1.65 -2.05 -1.65 -1.85 -1.65 -1.4 -1.65 -1.05 -1.75 -1.05 -1.8 -1.1 -1.9 -1.85 -1.9 -2.25 -1.9 -2.35 -1.75 -2.4 -1.75 -2.5 -1.75 -2.7 -1.8 -2.75 -1.85 -3.05 -1.8 -3.35 -1.7 -3.6 -1.65 -3.75 -1.6 -3.85 M14.15 -2.5 L14.15 -2.55 14.25 -2.65 14.3 -2.65 14.35 -2.7 14.4 -2.65 14.5 -2.55 14.5 -2.5 14.8 -2.65 14.8 -2.7 14.85 -2.8 15.1 -2.85 15.1 -2.9 15.25 -2.8 15.3 -2.7 15.25 -2.65 15.25 -2.5 15.25 -2.45 15.25 -2.35 15.25 -2.3 15.15 -2.2 15.1 -2.2 15.05 -2.3 15.05 -2.2 14.95 -2.0 14.9 -1.95 14.85 -2.0 14.8 -2.0 14.8 -1.95 14.65 -1.85 14.65 -1.8 14.65 -1.5 14.6 -0.8 14.6 -0.55 14.5 -0.5 14.5 -0.4 14.5 0.0 14.35 -0.6 14.25 -1.5 14.2 -2.1 14.2 -2.2 14.15 -2.5 M-7.15 -3.45 L-4.1 -3.0 -3.95 -2.9 -3.9 -2.9 -3.9 -2.85 -3.95 -2.8 -3.95 -2.7 -7.15 -2.9 -7.15 -3.45 M-8.0 -3.1 L-8.05 -3.15 -8.05 -3.05 -8.0 -3.1" fill="#ffffff" fill-rule="evenodd" stroke="none"/>
    <path d="M-16.0 -0.75 L-15.95 -0.75 -15.85 -0.85 -15.8 -0.75 -15.75 -0.7 -15.7 -0.2 -15.7 -0.15 -15.6 -0.2 -15.5 -0.05 -15.45 -0.05 -15.5 0.2 -14.65 1.7 -14.65 1.85 -14.65 1.9 -14.05 2.65 Q-13.55 2.8 -13.3 3.25 -10.7 3.6 -8.0 3.2 L-7.95 4.05 -7.9 3.8 -7.8 3.8 -7.7 3.35 -7.7 3.25 -7.6 3.25 -7.55 3.15 -7.5 3.2 -7.5 3.1 -7.5 2.9 Q-7.85 2.2 -7.6 1.5 L-7.55 1.35 Q-7.75 1.05 -7.55 0.85 L-7.45 0.8 -7.4 0.45 -7.35 -0.2 -7.3 -0.25 -7.15 -0.15 -7.1 -0.15 -7.1 0.4 -7.15 3.05 -1.85 2.15 -1.75 2.55 -1.7 3.35 -1.65 3.4 -1.65 3.35 -1.65 3.15 -1.5 3.15 -1.45 2.8 -1.45 2.75 -1.4 2.7 -1.3 2.7 -1.25 2.65 -1.25 2.4 -1.4 2.1 -1.3 1.25 -1.25 1.15 Q-1.45 0.9 -1.25 0.75 L-1.2 0.7 -1.15 0.7 -1.05 -0.1 -1.05 -0.15 -1.0 -0.15 -0.9 0.0 -0.8 0.0 -0.85 2.0 -0.15 1.9 0.55 1.75 5.15 1.15 14.3 0.65 14.4 0.55 14.5 0.5 14.5 0.7 14.5 0.75 14.6 1.7 14.9 1.75 14.9 1.6 14.9 0.95 15.1 0.85 15.3 0.7 15.35 0.7 15.5 0.85 15.4 0.9 15.55 1.25 15.55 1.35 Q15.3 1.9 15.35 2.45 L15.35 2.6 15.25 2.75 15.25 2.8 14.8 2.9 14.75 2.75 14.75 2.65 14.65 2.6 14.6 2.55 14.0 2.3 13.9 2.25 12.05 2.15 10.55 2.4 9.95 2.3 7.95 2.4 7.9 2.45 7.4 2.5 7.25 2.55 6.85 2.55 5.7 2.75 5.5 2.8 5.35 2.8 5.25 2.9 4.95 3.1 4.8 3.0 4.75 2.95 4.5 3.0 3.9 3.0 3.75 3.0 3.7 3.1 3.7 3.15 Q3.6 3.15 3.65 3.25 L2.45 3.15 1.3 3.25 1.2 3.3 0.95 3.35 0.6 3.5 0.5 3.6 0.45 3.55 -0.1 3.45 -0.2 3.45 -0.4 3.45 -0.45 3.5 -0.5 3.6 -0.9 3.65 -0.9 3.75 -0.95 3.85 -1.2 3.95 -1.3 3.95 -1.5 3.9 -1.6 3.7 -2.45 3.75 -2.5 3.8 -5.2 4.05 -6.4 4.25 -7.05 4.4 -7.15 4.4 -7.15 4.55 -7.45 4.75 -7.6 4.75 -7.8 4.7 -7.8 4.65 -8.85 4.85 -8.85 4.9 -8.9 4.9 -8.95 4.95 -9.1 4.9 -11.05 4.9 -10.45 4.75 -10.55 4.75 -11.15 4.8 -12.45 4.75 -12.85 4.7 -13.75 4.4 -13.8 4.25 -13.9 4.25 -14.05 4.2 -14.35 3.85 -14.4 3.75 -14.6 3.65 -14.65 3.6 -14.8 3.6 -14.9 3.35 -14.95 3.25 -15.05 3.2 -15.7 2.3 -15.95 2.1 -15.95 0.9 -15.95 0.75 -16.0 0.4 -16.1 0.15 -16.1 0.0 -16.05 -0.05 -16.05 -0.55 -16.05 -0.7 -16.0 -0.75 M-15.15 1.95 L-15.1 2.05 -15.05 2.05 -15.05 1.9 -15.4 1.35 -15.25 1.7 -15.2 1.85 -15.2 1.9 -15.15 1.95" fill="#232b36" fill-rule="evenodd" stroke="none"/>
    <path d="M-7.95 -0.45 L-8.0 -0.75 -8.05 -1.35 -8.05 -1.4 -7.95 -1.35 -7.95 -0.65 -7.95 -0.45 M-8.15 -4.25 L-8.15 -4.3 -8.1 -4.5 -8.1 -4.55 -8.0 -4.65 -7.95 -4.65 -7.95 -4.55 -8.05 -4.25 -8.05 -4.2 -8.15 -4.25 M-8.0 0.8 L-7.95 0.7 -7.95 0.8 -8.0 0.8 M-1.8 -3.35 L-1.9 -3.45 -1.8 -3.6 -1.7 -3.75 -1.65 -3.75 -1.7 -3.6 -1.8 -3.35 M-7.7 -4.1 L-7.75 -4.05 -7.75 -4.15 -7.7 -4.1 M-8.0 -3.1 L-8.05 -3.05 -8.05 -3.15 -8.0 -3.1 M-1.45 -3.25 L-1.5 -3.2 -1.5 -3.3 -1.45 -3.25 M-1.65 -1.05 L-1.7 -0.45 -1.7 -0.35 -1.75 -0.55 -1.75 -1.05 -1.65 -1.05 M-1.65 3.35 L-1.65 3.4 -1.7 3.35 -1.65 3.35" fill="#c6c664" fill-rule="evenodd" stroke="none"/>
  </g>
</svg>
