<?xml version="1.0" encoding="UTF-8" standalone="no"?>
<svg xmlns:xlink="http://www.w3.org/1999/xlink" height="11.1px" width="32.15px" xmlns="http://www.w3.org/2000/svg">
  <g transform="matrix(1.0, 0.0, 0.0, 1.0, 16.45, 5.7)">
    <path d="M-14.3 3.8 L-14.55 3.6 -14.35 3.7 -14.3 3.8 M-14.85 3.3 L-15.0 3.15 -14.9 3.2 -14.85 3.3 M-15.9 0.85 L-15.95 0.35 -15.9 0.7 -15.9 0.85 M-11.35 -5.1 L-11.15 -5.1 -10.55 -5.0 -10.5 -5.05 -10.4 -5.05 -10.4 -5.15 -10.35 -5.2 -10.35 -5.25 -7.85 -4.8 -7.9 -4.7 -7.95 -4.7 -10.55 -4.95 -10.6 -4.95 -11.1 -5.0 -11.3 -4.95 -11.3 -5.05 -11.35 -5.1 M-7.35 -4.7 L-7.2 -4.7 -5.85 -4.45 -2.7 -4.0 -1.6 -3.9 -1.55 -3.9 -1.6 -3.8 -1.65 -3.8 -1.7 -3.75 -1.75 -3.65 -1.8 -3.65 -1.85 -3.65 -3.8 -3.9 -7.2 -4.6 -7.3 -4.6 -7.35 -4.6 -7.35 -4.7 M-1.1 -3.85 L-0.1 -3.75 -0.5 -3.75 -1.0 -3.7 -1.1 -3.7 -1.1 -3.8 -1.1 -3.85 M14.45 -2.7 L14.65 -2.8 14.7 -2.85 14.75 -2.9 14.8 -2.9 14.8 -3.0 14.85 -3.05 14.85 -3.1 15.2 -3.05 15.3 -3.05 15.3 -2.85 15.25 -2.85 15.15 -2.95 15.15 -2.9 15.1 -2.9 14.9 -2.85 14.85 -2.8 14.85 -2.7 14.8 -2.7 14.6 -2.6 14.55 -2.55 14.55 -2.6 14.5 -2.7 14.45 -2.7 M15.3 -2.35 L15.3 -2.25 15.2 -2.25 15.25 -2.3 15.3 -2.35 M-1.4 2.05 L-1.35 2.05 -1.2 2.35 -1.2 2.6 -1.25 2.6 -1.25 2.65 -1.35 2.65 -1.35 2.3 -1.4 2.1 -1.4 2.05 M-15.15 1.85 L-15.15 1.8 -15.2 1.65 -15.2 1.6 -15.35 1.3 -15.0 1.85 -15.0 2.0 -15.05 2.0 -15.1 1.9 -15.15 1.85" fill="#343f50" fill-rule="evenodd" stroke="none"/>
    <path d="M-1.5 3.9 L-3.5 4.2 -10.85 5.3 -10.9 5.25 -11.8 5.4 -13.0 5.05 Q-14.7 4.4 -15.8 2.9 L-15.8 2.6 -16.05 2.3 -16.45 0.35 -16.45 -0.05 -16.45 -0.2 -16.45 -0.6 -16.05 -2.55 -15.9 -2.8 -15.8 -2.85 -15.8 -3.15 -15.25 -3.8 -14.6 -4.4 -12.95 -5.35 -11.75 -5.7 -10.85 -5.55 -10.85 -5.6 -10.8 -5.6 -10.8 -5.65 -3.45 -4.5 0.35 -4.0 7.65 -3.2 14.15 -2.75 14.1 -2.8 14.1 -2.85 14.15 -2.85 14.15 -2.9 14.45 -3.1 14.5 -3.2 14.65 -3.4 14.85 -3.55 15.3 -3.45 15.35 -3.45 15.4 -3.4 15.65 -3.2 15.7 -0.25 15.7 -0.1 15.65 2.85 15.6 2.9 15.4 3.1 15.35 3.1 15.3 3.15 15.25 3.15 14.8 3.25 14.5 2.95 14.1 2.6 14.1 2.55 14.15 2.45 7.6 2.9 0.3 3.7 -0.95 3.85 -0.9 3.8 -0.85 3.7 -0.85 3.6 -0.45 3.55 -0.4 3.45 -0.35 3.4 -0.15 3.4 -0.05 3.4 0.5 3.5 0.55 3.55 0.6 3.5 0.65 3.45 1.0 3.3 1.25 3.25 1.35 3.2 2.5 3.1 3.65 3.2 3.7 3.2 3.7 3.15 3.7 3.1 3.75 3.1 3.75 3.05 3.8 3.0 3.8 2.95 3.95 2.95 4.55 2.95 4.8 2.9 4.85 2.95 5.0 3.05 5.25 2.95 5.4 2.75 5.55 2.75 5.75 2.7 6.9 2.5 7.3 2.5 7.45 2.45 7.95 2.4 8.0 2.35 10.0 2.25 10.6 2.35 12.1 2.1 13.95 2.2 14.05 2.25 14.65 2.5 14.7 2.55 14.8 2.6 14.8 2.7 14.85 2.85 15.25 2.8 15.3 2.75 15.3 2.7 15.4 2.55 15.4 2.4 Q15.35 1.85 15.6 1.3 L15.6 1.2 15.45 0.9 15.45 0.85 15.55 0.8 15.4 0.65 15.35 0.65 15.45 0.1 15.45 -0.1 15.4 -0.1 15.4 -0.25 15.45 -0.25 15.45 -0.45 15.3 -2.25 15.3 -2.35 15.3 -2.4 15.3 -2.5 15.3 -2.55 15.3 -2.7 15.35 -2.75 15.3 -2.85 15.3 -3.05 15.2 -3.05 14.85 -3.1 14.85 -3.05 14.8 -3.0 14.8 -2.9 14.75 -2.9 14.7 -2.85 14.65 -2.8 14.45 -2.7 14.4 -2.75 14.35 -2.7 14.3 -2.7 14.25 -2.65 14.2 -2.6 14.2 -2.55 14.15 -2.55 Q11.65 -2.25 9.15 -2.5 L8.75 -2.55 1.75 -3.6 -0.1 -3.75 -1.1 -3.85 -1.15 -4.0 -1.2 -4.0 -1.35 -4.1 -1.4 -4.05 -1.5 -3.95 -1.55 -3.9 -1.6 -3.9 -2.7 -4.0 -5.85 -4.45 -7.2 -4.7 -7.35 -4.7 -7.4 -5.0 -7.5 -5.0 -7.6 -5.15 -7.6 -5.05 -7.65 -5.05 -7.7 -5.0 -7.75 -4.95 -7.85 -4.8 -10.35 -5.25 -10.35 -5.2 -10.4 -5.15 -10.4 -5.05 -10.5 -5.05 -10.55 -5.0 -11.15 -5.1 -11.35 -5.1 Q-12.65 -5.15 -13.8 -4.45 L-14.55 -3.95 -14.85 -3.65 -15.4 -2.85 -15.95 -0.8 -15.9 -0.8 -15.95 -0.75 -16.0 -0.75 -16.0 -0.6 -16.0 -0.1 -16.05 -0.05 -16.05 0.1 -15.95 0.35 -15.9 0.85 -15.9 2.05 -15.65 2.25 Q-15.5 2.8 -15.0 3.15 L-14.85 3.3 -14.75 3.55 -14.6 3.55 -14.55 3.6 -14.3 3.8 -14.0 4.15 -13.85 4.2 -13.75 4.2 -13.7 4.35 -12.8 4.65 -12.4 4.7 -11.1 4.75 -10.5 4.7 -10.4 4.7 -10.55 4.75 -11.0 4.85 -10.85 4.9 -9.05 4.85 -8.9 4.9 -8.85 4.85 -8.8 4.85 -8.8 4.8 -7.75 4.6 -7.75 4.65 -7.55 4.7 -7.4 4.7 -7.15 4.55 -7.1 4.5 -7.1 4.4 -7.1 4.35 -7.0 4.35 -6.35 4.2 -5.15 4.0 -2.45 3.75 -2.4 3.7 -1.55 3.65 -1.45 3.85 -1.5 3.85 -1.5 3.9 M14.2 2.4 L14.15 2.4 14.2 2.45 14.2 2.4" fill="#000000" fill-rule="evenodd" stroke="none"/>
    <path d="M-1.5 3.9 L-1.5 3.85 -1.45 3.85 -1.25 3.9 -1.15 3.9 -0.95 3.85 -1.2 3.95 -1.3 3.95 -1.5 3.9 M-7.3 -0.25 L-7.25 -0.3 -7.2 -0.3 -7.3 -0.25 M-1.0 -0.15 L-1.0 -0.2 -0.95 -0.2 -1.0 -0.15 M14.2 2.4 L14.2 2.45 14.15 2.4 14.2 2.4" fill="#232b36" fill-rule="evenodd" stroke="none"/>
    <path d="M-1.1 -3.65 L-1.1 -3.7 -1.0 -3.7 -1.1 -3.65 M-1.65 3.1 L-1.6 3.1 -1.6 3.15 -1.6 3.3 -1.65 3.3 -1.65 3.15 -1.65 3.1 M-7.85 3.75 L-7.85 3.8 -7.9 4.0 -7.9 3.9 -7.95 3.75 -7.85 3.75" fill="#546581" fill-rule="evenodd" stroke="none"/>
    <path d="M-7.85 -4.8 L-7.75 -4.95 -7.7 -5.0 -7.65 -5.05 -7.6 -5.05 -7.6 -5.15 -7.5 -5.0 -7.4 -5.0 -7.35 -4.7 -7.35 -4.6 -7.4 -4.35 -7.45 -4.4 -7.5 -4.45 -7.5 -4.35 -7.55 -4.2 -7.6 -4.25 -7.6 -4.2 -7.65 -4.15 -7.7 -4.2 -7.7 -4.1 -7.8 -3.6 -7.9 -3.0 -7.9 -2.75 -7.85 -2.65 -7.9 -1.9 -7.9 -1.4 -7.95 -1.4 -8.0 -1.45 -8.05 -1.5 -8.1 -2.9 -8.1 -3.0 -8.8 -3.0 -10.15 -2.9 -11.15 -3.0 -12.95 -2.9 -12.95 -2.95 -13.05 -3.05 -13.25 -2.95 -13.6 -3.2 -13.7 -3.3 -13.55 -3.45 -12.4 -4.0 -12.35 -4.0 -11.65 -4.0 -11.6 -4.0 -11.6 -4.05 -11.6 -4.1 -11.55 -4.15 -11.5 -4.15 -11.5 -4.2 -11.45 -4.25 -8.1 -3.65 -8.05 -3.65 -8.0 -4.25 -8.0 -4.3 -7.9 -4.6 -7.9 -4.7 -7.85 -4.8 M-1.55 -3.9 L-1.5 -3.95 -1.4 -4.05 -1.35 -4.1 -1.2 -4.0 -1.15 -4.0 -1.1 -3.85 -1.1 -3.8 -1.1 -3.7 -1.1 -3.65 -1.1 -3.6 -1.15 -3.5 -1.2 -3.55 -1.2 -3.5 -1.25 -3.45 -1.3 -3.35 -1.35 -3.35 -1.4 -3.3 -1.45 -3.35 -1.45 -3.25 -1.5 -3.1 -1.65 -2.15 -1.6 -2.1 -1.6 -1.9 -1.6 -1.45 -1.6 -1.1 -1.65 -1.05 -1.7 -1.1 -1.75 -1.15 -1.85 -1.9 -1.85 -2.3 -1.85 -2.4 -1.75 -2.45 -1.7 -2.45 -1.7 -2.55 -1.7 -2.75 -1.75 -2.8 -1.8 -3.1 -1.75 -3.4 -1.65 -3.65 -1.6 -3.8 -1.55 -3.9 M14.2 -2.55 L14.2 -2.6 14.25 -2.65 14.3 -2.7 14.35 -2.7 14.4 -2.75 14.45 -2.7 14.5 -2.7 14.55 -2.6 14.55 -2.55 14.6 -2.6 14.8 -2.7 14.85 -2.7 14.85 -2.8 14.9 -2.85 15.1 -2.9 15.15 -2.9 15.15 -2.95 15.25 -2.85 15.3 -2.85 15.35 -2.75 15.3 -2.7 15.3 -2.55 15.3 -2.5 15.3 -2.4 15.3 -2.35 15.25 -2.3 15.2 -2.25 15.15 -2.25 15.1 -2.35 15.1 -2.25 15.05 -2.2 15.0 -2.05 14.95 -2.0 14.9 -2.05 14.85 -2.05 14.85 -2.0 14.8 -1.95 14.75 -1.9 14.7 -1.9 14.7 -1.85 14.7 -1.55 14.65 -0.85 14.65 -0.6 14.55 -0.55 14.55 -0.45 14.55 -0.05 14.5 -0.2 14.4 -0.65 14.3 -1.55 14.25 -2.15 14.25 -2.25 14.2 -2.55 M-7.1 -2.95 L-7.1 -3.45 -7.1 -3.5 -4.05 -3.05 -3.9 -2.95 -3.85 -2.95 -3.85 -2.9 -3.9 -2.85 -3.9 -2.75 -3.95 -2.75 -7.1 -2.95 M-7.95 -3.15 L-8.0 -3.2 -8.0 -3.1 -7.95 -3.15" fill="#ffffff" fill-rule="evenodd" stroke="none"/>
    <path d="M-7.9 -0.5 L-7.95 -0.75 -7.95 -0.85 -8.0 -1.35 -8.0 -1.45 -7.95 -1.4 -7.9 -1.4 -7.9 -0.7 -7.9 -0.5 M-8.1 -4.3 L-8.1 -4.35 -8.05 -4.55 -8.05 -4.65 -7.95 -4.7 -7.9 -4.7 -7.9 -4.6 -8.0 -4.3 -8.0 -4.25 -8.05 -4.25 -8.1 -4.3 M-7.95 0.75 L-7.9 0.65 -7.9 0.75 -7.95 0.75 M-1.75 -3.4 L-1.85 -3.5 -1.8 -3.6 -1.75 -3.65 -1.7 -3.75 -1.65 -3.8 -1.6 -3.8 -1.65 -3.65 -1.75 -3.4 M-7.65 -4.15 L-7.7 -4.1 -7.7 -4.2 -7.65 -4.15 M-7.95 -3.15 L-8.0 -3.1 -8.0 -3.2 -7.95 -3.15 M-1.65 -0.4 L-1.7 -0.6 -1.7 -1.0 -1.7 -1.1 -1.65 -1.05 -1.6 -1.1 -1.65 -0.5 -1.65 -0.4 M-1.45 -3.25 L-1.45 -3.35 -1.4 -3.3 -1.45 -3.25 M-1.65 3.3 L-1.6 3.3 -1.6 3.35 -1.65 3.3" fill="#c6c664" fill-rule="evenodd" stroke="none"/>
    <path d="M-0.1 -3.75 L1.75 -3.6 8.75 -2.55 9.15 -2.5 Q11.65 -2.25 14.15 -2.55 L14.2 -2.55 14.25 -2.25 14.25 -2.15 14.2 -2.1 14.1 -2.05 14.05 -2.0 12.9 -2.0 8.6 -2.25 5.75 -2.6 4.95 -2.75 -0.8 -3.05 -0.75 -3.45 -0.85 -3.45 -0.9 -3.6 -0.95 -3.65 -1.0 -3.7 -0.5 -3.75 -0.1 -3.75 M-7.9 0.5 L-7.95 0.5 -10.25 0.85 Q-12.45 1.25 -14.35 0.15 -14.9 -0.15 -15.0 -0.75 L-15.2 -1.8 -15.2 -1.85 -15.25 -1.9 -15.25 -2.0 -15.25 -2.35 -15.25 -2.4 -15.25 -2.55 -15.25 -2.7 -14.8 -3.35 -14.2 -3.8 Q-12.85 -4.65 -11.3 -4.95 L-11.1 -5.0 -10.6 -4.95 -10.55 -4.95 -7.95 -4.7 -8.05 -4.65 -8.05 -4.55 -8.1 -4.35 -8.1 -4.3 -8.15 -4.3 -9.4 -4.45 -11.1 -4.6 -11.45 -4.5 -13.7 -3.75 -14.45 -3.15 -14.7 -2.95 -14.7 -2.7 -14.7 -2.6 -14.6 -1.85 Q-12.7 -0.85 -10.4 -1.15 L-8.1 -1.5 -8.05 -1.5 -8.0 -1.45 -8.0 -1.35 -7.95 -0.85 -7.95 -0.75 -7.9 -0.5 -7.9 -0.3 -7.9 0.5 M-7.95 3.15 L-7.95 3.0 -8.0 2.95 Q-8.3 1.95 -7.95 1.1 L-7.95 0.8 -7.95 0.75 -7.9 0.75 -7.8 0.85 -7.75 0.8 -7.7 0.8 -7.7 1.85 -7.65 2.45 -7.65 2.75 -7.65 3.1 -7.65 3.2 -7.65 3.3 -7.75 3.75 -7.8 3.75 -7.85 3.75 -7.95 3.75 -7.95 3.15 M-7.05 -4.0 L-7.05 -4.3 -7.1 -4.3 -7.15 -4.35 -7.15 -4.5 -7.2 -4.6 -3.8 -3.9 -1.85 -3.65 -1.8 -3.65 -1.75 -3.65 -1.8 -3.6 -1.85 -3.5 -1.75 -3.4 -1.8 -3.1 -1.85 -3.1 -1.95 -3.1 -7.05 -4.0 M-7.25 -0.3 L-7.3 -0.95 -7.35 -1.0 -7.3 -1.55 -7.3 -1.6 -2.4 -1.9 -1.9 -1.9 -1.85 -1.9 -1.75 -1.15 -1.7 -1.1 -1.7 -1.0 -1.7 -0.6 -1.65 -0.4 -1.7 -0.4 -3.3 -0.2 -6.55 0.25 -7.05 0.35 -7.05 -0.2 -7.1 -0.2 -7.2 -0.3 -7.25 -0.3 M-0.85 -1.9 L14.25 -1.55 14.3 -1.55 14.4 -0.65 14.35 -0.6 Q13.45 0.0 12.25 -0.2 L9.75 -0.6 8.5 -0.6 8.3 -0.6 Q3.6 -0.9 -1.0 -0.45 L-1.0 -0.7 -1.1 -0.75 -1.05 -1.3 -1.05 -1.35 -0.95 -1.4 -0.9 -1.45 -0.85 -1.85 -0.85 -1.9 M-1.65 0.65 L-1.5 0.75 -1.45 0.7 -1.4 1.65 -1.4 2.05 -1.4 2.1 -1.35 2.3 -1.35 2.65 -1.4 2.7 -1.4 2.75 -1.45 3.1 -1.5 3.1 -1.6 3.1 -1.65 3.1 -1.7 2.5 -1.8 2.1 Q-1.95 1.5 -1.7 1.0 L-1.65 0.75 -1.65 0.65" fill="#982c2c" fill-rule="evenodd" stroke="none"/>
    <path d="M-15.9 -0.8 L-15.95 -0.8 -15.4 -2.85 -14.85 -3.65 -14.55 -3.95 -13.8 -4.45 Q-12.65 -5.15 -11.35 -5.1 L-11.3 -5.05 -11.3 -4.95 Q-12.85 -4.65 -14.2 -3.8 L-14.8 -3.35 -15.25 -2.7 -15.25 -2.55 -15.25 -2.4 -15.25 -2.35 -15.25 -2.0 -15.25 -1.9 -15.2 -1.85 -15.2 -1.8 -15.0 -0.75 Q-14.9 -0.15 -14.35 0.15 -12.45 1.25 -10.25 0.85 L-7.95 0.5 -7.9 0.5 -7.9 0.65 -7.95 0.75 -7.95 0.8 -7.95 1.1 Q-8.3 1.95 -8.0 2.95 L-7.95 3.0 -7.95 3.15 -8.0 3.15 Q-10.65 3.55 -13.25 3.2 -13.5 2.75 -14.0 2.6 L-14.6 1.85 -14.6 1.8 -14.6 1.65 Q-15.2 1.0 -15.45 0.15 L-15.4 -0.1 -15.45 -0.1 -15.55 -0.25 -15.65 -0.2 -15.65 -0.25 -15.7 -0.75 -15.75 -0.8 -15.8 -0.9 -15.9 -0.8 M15.3 -2.25 L15.45 -0.45 15.45 -0.25 15.4 -0.25 15.4 -0.1 15.45 -0.1 15.45 0.1 15.35 0.65 15.3 0.65 Q15.25 0.6 15.2 0.7 L15.15 0.8 15.1 0.85 14.95 0.9 14.95 0.8 14.95 0.75 15.05 0.75 15.05 0.6 15.0 -0.65 15.05 -0.7 15.1 -0.75 15.15 -0.8 15.2 -2.2 15.2 -2.25 15.3 -2.25 M-7.2 -4.6 L-7.15 -4.5 -7.15 -4.35 -7.1 -4.3 -7.05 -4.3 -7.05 -4.0 -7.05 -3.95 -7.1 -3.5 -7.1 -3.45 -7.1 -2.95 -7.1 -2.9 -7.15 -1.85 -7.2 -1.8 -7.25 -1.8 -7.25 -1.75 -7.3 -1.7 -7.3 -1.6 -7.3 -1.55 -7.35 -1.0 -7.3 -0.95 -7.25 -0.3 -7.3 -0.25 -7.35 0.4 -7.4 0.75 -7.45 0.75 -7.5 0.8 -7.55 0.85 -7.5 1.3 -7.55 1.45 Q-7.8 2.15 -7.45 2.85 L-7.45 3.05 -7.45 3.15 -7.5 3.1 -7.55 3.15 -7.55 3.2 -7.6 3.2 -7.65 3.2 -7.65 3.1 -7.65 2.75 -7.65 2.45 -7.7 1.85 -7.7 0.8 -7.65 0.45 -7.65 0.25 -7.65 0.1 -7.65 0.05 -7.65 -1.55 -7.5 -2.95 -7.45 -3.5 -7.45 -3.55 -7.4 -3.7 -7.45 -4.15 -7.4 -4.35 -7.35 -4.6 -7.3 -4.6 -7.2 -4.6 M-7.05 0.35 L-6.55 0.25 -3.3 -0.2 -1.7 -0.4 -1.65 -0.4 -1.65 -0.2 -1.65 0.6 -1.65 0.65 -1.65 0.75 -1.7 1.0 Q-1.95 1.5 -1.8 2.1 L-1.85 2.1 -7.1 3.0 -7.05 0.4 -7.05 0.35 M-1.15 -3.5 L-1.1 -3.6 -1.1 -3.65 -1.0 -3.7 -0.95 -3.65 -0.9 -3.6 -0.85 -3.45 -0.75 -3.45 -0.8 -3.05 -0.8 -3.0 -0.85 -1.9 -0.85 -1.85 -0.9 -1.45 -0.95 -1.4 -1.05 -1.35 -1.05 -1.3 -1.1 -0.75 -1.0 -0.7 -1.0 -0.45 Q3.6 -0.9 8.3 -0.6 L8.5 -0.6 9.75 -0.6 12.25 -0.2 Q13.45 0.0 14.35 -0.6 L14.4 -0.65 14.5 -0.2 14.55 -0.05 14.55 0.45 14.5 0.45 14.45 0.5 14.4 0.55 14.35 0.6 5.2 1.1 0.6 1.7 -0.1 1.85 -0.8 1.95 -0.75 -0.05 -0.85 -0.05 -0.95 -0.2 -1.0 -0.2 -1.0 -0.15 -1.1 0.65 -1.15 0.65 -1.2 0.7 -1.25 0.75 -1.2 1.1 -1.25 1.2 -1.35 2.05 -1.4 2.05 -1.4 1.65 -1.45 0.7 -1.4 0.25 -1.4 0.15 -1.35 0.1 -1.4 -0.4 -1.35 -1.9 -1.2 -2.75 -1.15 -2.95 -1.2 -3.1 -1.15 -3.5" fill="#6d0101" fill-rule="evenodd" stroke="none"/>
    <path d="M-7.9 0.5 L-7.9 -0.3 -7.9 -0.5 -7.9 -0.7 -7.9 -1.4 -7.9 -1.9 -7.85 -2.65 -7.9 -2.75 -7.9 -3.0 -7.8 -3.6 -7.7 -4.1 -7.65 -4.15 -7.6 -4.2 -7.6 -4.25 -7.55 -4.2 -7.5 -4.35 -7.5 -4.45 -7.45 -4.4 -7.4 -4.35 -7.45 -4.15 -7.4 -3.7 -7.45 -3.55 -7.45 -3.5 -7.5 -2.95 -7.65 -1.55 -7.65 0.05 -7.65 0.1 -7.65 0.25 -7.65 0.45 -7.7 0.8 -7.75 0.8 -7.8 0.85 -7.9 0.75 -7.9 0.65 -7.9 0.5 M-8.05 -1.5 L-8.1 -1.5 -10.4 -1.15 Q-12.7 -0.85 -14.6 -1.85 L-14.7 -2.6 -14.7 -2.7 -14.7 -2.95 -14.45 -3.15 -13.7 -3.75 -11.45 -4.5 -11.1 -4.6 -9.4 -4.45 -8.15 -4.3 -8.1 -4.3 -8.05 -4.25 -8.0 -4.25 -8.05 -3.65 -8.1 -3.65 -11.45 -4.25 -11.5 -4.2 -11.5 -4.15 -11.55 -4.15 -11.6 -4.1 -11.6 -4.05 -11.6 -4.0 -11.65 -4.0 -12.35 -4.0 -12.4 -4.0 -13.55 -3.45 -13.7 -3.3 -13.6 -3.2 -13.25 -2.95 -13.05 -3.05 -12.95 -2.95 -12.95 -2.9 -11.15 -3.0 -10.15 -2.9 -8.8 -3.0 -8.1 -3.0 -8.1 -2.9 -8.05 -1.5 M-7.05 -4.0 L-1.95 -3.1 -1.85 -3.1 -1.8 -3.1 -1.75 -2.8 -1.7 -2.75 -1.7 -2.55 -1.7 -2.45 -1.75 -2.45 -1.85 -2.4 -1.85 -2.3 -1.85 -1.9 -1.9 -1.9 -2.4 -1.9 -7.3 -1.6 -7.3 -1.7 -7.25 -1.75 -7.25 -1.8 -7.2 -1.8 -7.15 -1.85 -7.1 -2.9 -7.1 -2.95 -3.95 -2.75 -3.9 -2.75 -3.9 -2.85 -3.85 -2.9 -3.85 -2.95 -3.9 -2.95 -4.05 -3.05 -7.1 -3.5 -7.05 -3.95 -7.05 -4.0 M-1.6 -1.1 L-1.6 -1.45 -1.6 -1.9 -1.6 -2.1 -1.65 -2.15 -1.5 -3.1 -1.45 -3.25 -1.4 -3.3 -1.35 -3.35 -1.3 -3.35 -1.25 -3.45 -1.2 -3.5 -1.2 -3.55 -1.15 -3.5 -1.2 -3.1 -1.15 -2.95 -1.2 -2.75 -1.35 -1.9 -1.4 -0.4 -1.35 0.1 -1.4 0.15 -1.4 0.25 -1.45 0.7 -1.5 0.75 -1.65 0.65 -1.65 0.6 -1.65 -0.2 -1.65 -0.4 -1.65 -0.5 -1.6 -1.1 M-0.8 -3.05 L4.95 -2.75 5.75 -2.6 8.6 -2.25 12.9 -2.0 14.05 -2.0 14.1 -2.05 14.2 -2.1 14.25 -2.15 14.3 -1.55 14.25 -1.55 -0.85 -1.9 -0.8 -3.0 -0.8 -3.05 M14.55 0.45 L14.55 -0.05 14.55 -0.45 14.55 -0.55 14.65 -0.6 14.65 -0.85 14.7 -1.55 14.7 -1.85 14.7 -1.9 14.75 -1.9 14.8 -1.95 14.85 -2.0 14.85 -2.05 14.9 -2.05 14.95 -2.0 15.0 -2.05 15.05 -2.2 15.1 -2.25 15.1 -2.35 15.15 -2.25 15.2 -2.25 15.2 -2.2 15.15 -0.8 15.1 -0.75 15.05 -0.7 15.0 -0.65 15.05 0.6 15.05 0.75 14.95 0.75 14.95 0.8 14.95 0.9 14.95 0.95 14.95 1.55 14.95 1.7 14.9 1.75 Q14.75 1.8 14.65 1.65 L14.55 0.7 14.55 0.65 14.55 0.45" fill="#c69f9f" fill-rule="evenodd" stroke="none"/>
    <path d="M-1.45 3.85 L-1.55 3.65 -2.4 3.7 -2.45 3.75 -5.15 4.0 -6.35 4.2 -7.0 4.35 -7.1 4.35 -7.1 4.4 -7.1 4.5 -7.15 4.55 -7.4 4.7 -7.55 4.7 -7.75 4.65 -7.75 4.6 -8.8 4.8 -8.8 4.85 -8.85 4.85 -8.9 4.9 -9.05 4.85 -10.85 4.9 -11.0 4.85 -10.55 4.75 -10.4 4.7 -10.5 4.7 -11.1 4.75 -12.4 4.7 -12.8 4.65 -13.7 4.35 -13.75 4.2 -13.85 4.2 -14.0 4.15 -14.3 3.8 -14.35 3.7 -14.55 3.6 -14.6 3.55 -14.75 3.55 -14.85 3.3 -14.9 3.2 -15.0 3.15 Q-15.5 2.8 -15.65 2.25 L-15.9 2.05 -15.9 0.85 -15.9 0.7 -15.95 0.35 -16.05 0.1 -16.05 -0.05 -16.0 -0.1 -16.0 -0.6 -16.0 -0.75 -15.95 -0.75 -15.9 -0.8 -15.8 -0.9 -15.75 -0.8 -15.7 -0.75 -15.65 -0.25 -15.65 -0.2 -15.55 -0.25 -15.45 -0.1 -15.4 -0.1 -15.45 0.15 Q-15.2 1.0 -14.6 1.65 L-14.6 1.8 -14.6 1.85 -14.0 2.6 Q-13.5 2.75 -13.25 3.2 -10.65 3.55 -8.0 3.15 L-7.95 3.15 -7.95 3.75 -7.9 3.9 -7.9 4.0 -7.85 3.8 -7.85 3.75 -7.8 3.75 -7.75 3.75 -7.65 3.3 -7.65 3.2 -7.6 3.2 -7.55 3.2 -7.55 3.15 -7.5 3.1 -7.45 3.15 -7.45 3.05 -7.45 2.85 Q-7.8 2.15 -7.55 1.45 L-7.5 1.3 -7.55 0.85 -7.5 0.8 -7.45 0.75 -7.4 0.75 -7.35 0.4 -7.3 -0.25 -7.2 -0.3 -7.1 -0.2 -7.05 -0.2 -7.05 0.35 -7.05 0.4 -7.1 3.0 -1.85 2.1 -1.8 2.1 -1.7 2.5 -1.65 3.1 -1.65 3.15 -1.65 3.3 -1.6 3.35 -1.6 3.3 -1.6 3.15 -1.6 3.1 -1.5 3.1 -1.45 3.1 -1.4 2.75 -1.4 2.7 -1.35 2.65 -1.25 2.65 -1.25 2.6 -1.2 2.6 -1.2 2.35 -1.35 2.05 -1.25 1.2 -1.2 1.1 -1.25 0.75 -1.2 0.7 -1.15 0.65 -1.1 0.65 -1.0 -0.15 -0.95 -0.2 -0.85 -0.05 -0.75 -0.05 -0.8 1.95 -0.1 1.85 0.6 1.7 5.2 1.1 14.35 0.6 14.4 0.55 14.45 0.5 14.5 0.45 14.55 0.45 14.55 0.65 14.55 0.7 14.65 1.65 Q14.75 1.8 14.9 1.75 L14.95 1.7 14.95 1.55 14.95 0.95 14.95 0.9 15.1 0.85 15.15 0.8 15.2 0.7 Q15.25 0.6 15.3 0.65 L15.35 0.65 15.4 0.65 15.55 0.8 15.45 0.85 15.45 0.9 15.6 1.2 15.6 1.3 Q15.35 1.85 15.4 2.4 L15.4 2.55 15.3 2.7 15.3 2.75 15.25 2.8 14.85 2.85 14.8 2.7 14.8 2.6 14.7 2.55 14.65 2.5 14.05 2.25 13.95 2.2 12.1 2.1 10.6 2.35 10.0 2.25 8.0 2.35 7.95 2.4 7.45 2.45 7.3 2.5 6.9 2.5 5.75 2.7 5.55 2.75 5.4 2.75 5.25 2.95 5.0 3.05 4.85 2.95 4.8 2.9 4.55 2.95 3.95 2.95 3.8 2.95 3.8 3.0 3.75 3.05 3.75 3.1 3.7 3.1 3.7 3.15 3.7 3.2 3.65 3.2 2.5 3.1 1.35 3.2 1.25 3.25 1.0 3.3 0.65 3.45 0.6 3.5 0.55 3.55 0.5 3.5 -0.05 3.4 -0.15 3.4 -0.35 3.4 -0.4 3.45 -0.45 3.55 -0.85 3.6 -0.85 3.7 -0.9 3.8 -0.95 3.85 -1.15 3.9 -1.25 3.9 -1.45 3.85 M-15.15 1.85 L-15.1 1.9 -15.05 2.0 -15.0 2.0 -15.0 1.85 -15.35 1.3 -15.2 1.6 -15.2 1.65 -15.15 1.8 -15.15 1.85" fill="#2b0000" fill-rule="evenodd" stroke="none"/>
  </g>
</svg>
