<?xml version="1.0" encoding="UTF-8" standalone="no"?>
<svg xmlns:xlink="http://www.w3.org/1999/xlink" height="14.45px" width="11.05px" xmlns="http://www.w3.org/2000/svg">
  <g transform="matrix(1.0, 0.0, 0.0, 1.0, 4.65, 10.1)">
    <path d="M0.35 -9.45 L0.45 -9.5 Q1.35 -9.3 1.95 -8.7 L2.05 -8.6 2.1 -8.6 1.95 -8.3 1.95 -8.25 Q1.4 -7.7 0.7 -7.55 L0.55 -7.65 -3.3 -7.75 -3.3 -7.7 -3.55 -7.75 -3.55 -9.3 -3.55 -9.35 -3.45 -9.4 -3.4 -9.45 -3.35 -9.4 -3.3 -9.45 -3.25 -9.45 0.3 -9.35 0.35 -9.45 M1.75 -8.55 L1.3 -8.85 0.65 -9.15 0.55 -9.15 -3.3 -9.15 -3.3 -7.95 0.75 -7.9 0.8 -7.9 1.2 -8.0 1.75 -8.5 1.75 -8.55 M0.8 -7.1 L0.85 -7.1 0.9 -7.15 1.2 -7.0 1.25 -7.0 2.05 -6.6 2.1 -6.6 2.2 -6.35 2.2 -6.15 1.9 -5.95 1.6 -5.6 1.5 -5.5 0.7 -5.3 0.25 -5.15 0.15 -5.2 0.1 -5.3 -3.35 -5.3 -3.4 -5.3 -3.45 -5.25 -3.65 -5.3 Q-3.8 -6.25 -3.45 -6.95 L-3.65 -7.1 -3.65 -7.2 -3.6 -7.25 -3.5 -7.3 -3.4 -7.3 -3.35 -7.35 0.7 -7.25 0.75 -7.2 0.8 -7.2 0.8 -7.1 M1.2 -6.75 L0.8 -6.95 0.75 -7.0 Q0.7 -6.9 0.55 -6.9 L0.4 -6.9 -0.45 -6.95 -1.6 -6.9 -3.25 -6.95 -3.4 -5.6 -3.4 -5.55 -3.35 -5.55 -3.35 -5.6 0.25 -5.6 0.3 -5.55 0.4 -5.5 0.45 -5.5 0.55 -5.55 0.6 -5.55 Q1.35 -5.75 1.95 -6.2 L1.9 -6.25 1.85 -6.4 1.35 -6.7 1.2 -6.75 M0.5 -4.7 L1.95 -4.1 2.0 -4.05 2.15 -3.95 2.2 -3.8 2.2 -3.75 2.2 -3.7 Q1.55 -3.05 0.85 -2.9 L0.8 -2.85 0.7 -2.8 -3.6 -2.85 -3.65 -2.9 -3.7 -2.95 -3.7 -4.45 -3.7 -4.55 -3.65 -4.55 -3.65 -4.6 -3.5 -4.75 0.45 -4.7 0.5 -4.7 M0.4 -4.5 L-3.45 -4.55 -3.4 -3.2 -3.4 -3.1 0.55 -3.05 1.35 -3.35 1.85 -3.8 0.45 -4.5 0.4 -4.5" fill="#000000" fill-rule="evenodd" stroke="none"/>
    <path d="M1.75 -8.55 L1.75 -8.5 1.2 -8.0 0.8 -7.9 0.75 -7.9 -3.3 -7.95 -3.3 -9.15 0.55 -9.15 0.65 -9.15 1.3 -8.85 1.75 -8.55 M1.15 -8.7 L0.65 -9.0 0.6 -8.95 0.55 -8.95 -2.35 -9.1 -3.1 -8.95 -3.15 -8.95 -3.25 -8.9 -3.25 -8.85 -3.2 -8.8 0.55 -8.6 0.75 -8.65 Q0.85 -8.55 1.05 -8.5 L1.15 -8.6 1.2 -8.65 1.15 -8.7 M0.4 -6.9 L0.55 -6.9 Q0.7 -6.9 0.75 -7.0 L0.8 -6.95 1.2 -6.75 1.05 -6.8 1.0 -6.75 0.95 -6.75 0.95 -6.7 0.4 -6.9 M1.35 -6.7 L1.85 -6.4 1.9 -6.25 1.95 -6.2 Q1.35 -5.75 0.6 -5.55 L0.55 -5.55 0.45 -5.5 0.4 -5.5 0.3 -5.55 0.25 -5.6 -3.35 -5.6 -3.4 -5.6 -3.25 -6.95 -1.6 -6.9 -3.05 -6.65 -1.5 -6.55 -0.5 -6.55 0.95 -6.6 1.45 -6.5 1.45 -6.55 1.35 -6.7 M0.6 -4.15 L0.5 -4.2 -2.9 -4.4 -3.0 -4.35 -3.05 -4.35 -3.2 -4.3 -3.25 -4.25 -3.2 -4.1 0.45 -4.0 0.5 -4.05 0.6 -4.15 M0.7 -4.05 L1.25 -3.75 1.45 -3.75 1.45 -3.8 Q1.35 -4.2 0.85 -4.2 L0.7 -4.1 0.7 -4.05 M0.4 -4.5 L0.45 -4.5 1.85 -3.8 1.35 -3.35 0.55 -3.05 -3.4 -3.1 -3.4 -3.2 -3.45 -4.55 0.4 -4.5" fill="#666666" fill-rule="evenodd" stroke="none"/>
    <path d="M1.15 -8.7 L1.2 -8.65 1.15 -8.6 1.05 -8.5 Q0.85 -8.55 0.75 -8.65 L0.55 -8.6 -3.2 -8.8 -3.25 -8.85 -3.25 -8.9 -3.15 -8.95 -3.1 -8.95 -2.35 -9.1 0.55 -8.95 0.6 -8.95 0.65 -9.0 1.15 -8.7 M0.4 -6.9 L0.95 -6.7 0.95 -6.75 1.0 -6.75 1.05 -6.8 1.2 -6.75 1.35 -6.7 1.45 -6.55 1.45 -6.5 0.95 -6.6 -0.5 -6.55 -1.5 -6.55 -3.05 -6.65 -1.6 -6.9 -0.45 -6.95 0.4 -6.9 M0.7 -4.05 L0.7 -4.1 0.85 -4.2 Q1.35 -4.2 1.45 -3.8 L1.45 -3.75 1.25 -3.75 0.7 -4.05 M0.6 -4.15 L0.5 -4.05 0.45 -4.0 -3.2 -4.1 -3.25 -4.25 -3.2 -4.3 -3.05 -4.35 -3.0 -4.35 -2.9 -4.4 0.5 -4.2 0.6 -4.15" fill="#e3e3e3" fill-rule="evenodd" stroke="none"/>
    <path d="M5.95 1.3 L6.15 1.4 6.1 1.9 6.1 2.45 6.25 2.6 6.25 2.8 6.2 2.8 6.0 2.8 5.95 2.8 5.15 2.85 4.95 3.75 4.9 3.85 4.75 3.85 4.7 3.8 4.05 3.8 3.95 4.15 4.0 4.15 4.05 4.15 4.0 4.3 3.95 4.3 3.8 4.3 -2.25 4.35 -2.4 4.2 -2.9 3.45 -3.1 3.1 -3.45 2.85 -3.45 2.8 -4.3 2.8 -4.35 2.8 -4.35 2.85 -4.4 3.15 -4.65 3.15 -4.65 -2.75 -4.65 -3.0 -4.55 -3.05 -4.45 -3.15 -2.8 -3.15 -2.9 -9.0 -2.8 -9.75 -2.8 -9.85 -2.75 -9.9 -2.65 -10.1 -2.6 -10.05 -2.55 -10.0 0.25 -9.9 0.3 -9.85 0.3 -9.75 0.3 -9.7 0.35 -3.85 0.3 -3.15 5.85 -3.1 5.85 -3.15 5.95 -3.2 6.0 -3.25 6.05 -3.2 6.1 -3.15 6.1 -3.1 6.15 -3.1 Q6.1 -3.0 6.2 -2.9 L6.1 -2.9 6.1 -2.55 6.0 -2.3 Q5.95 -2.0 6.15 -1.8 L6.15 0.3 6.1 0.3 6.0 0.35 5.95 0.35 5.85 0.3 5.85 0.35 5.9 0.35 5.85 0.35 5.85 0.4 5.55 0.45 5.5 0.55 5.5 0.7 5.05 0.7 4.7 0.65 4.25 0.6 3.55 1.5 3.55 1.55 3.5 1.65 3.45 1.7 3.4 1.75 3.3 1.75 0.3 1.7 0.25 2.55 0.25 2.6 5.75 2.55 5.8 2.5 5.85 2.45 5.85 1.7 5.95 1.65 5.95 1.6 5.95 1.3 M6.05 0.45 L6.05 0.4 6.1 0.45 6.2 0.3 6.25 0.25 6.4 0.4 6.4 0.45 Q6.25 0.65 6.1 0.45 L6.05 0.55 6.05 0.45 M-2.5 -3.15 L0.05 -3.15 -0.05 -8.95 0.1 -9.65 -2.55 -9.6 -2.55 -4.1 -2.45 -3.35 -2.5 -3.15 M-3.6 -2.4 L-3.55 -2.35 -3.5 -2.3 0.95 -2.25 0.85 -2.75 0.85 -2.85 -4.4 -2.85 -4.35 2.6 0.05 2.6 0.05 2.55 0.1 -0.15 -3.85 -0.15 -4.0 -0.3 -3.85 -0.45 -3.85 -1.8 -3.85 -1.85 -3.75 -1.9 -3.7 -2.1 -3.8 -2.1 -3.8 -2.15 -3.65 -2.3 -3.6 -2.3 -3.6 -2.35 -3.6 -2.4 M-3.65 -0.45 L1.8 -0.4 Q1.7 -1.25 1.9 -2.05 L1.05 -2.05 -3.5 -2.1 Q-3.45 -1.55 -3.55 -1.05 L-3.6 -1.0 -3.6 -0.95 -3.65 -0.45 M1.3 -2.7 L1.3 -2.6 1.25 -2.5 1.2 -2.45 1.25 -2.35 1.3 -2.3 1.3 -2.25 1.95 -2.25 1.95 -2.3 2.0 -2.35 2.1 -2.25 2.15 -2.2 2.15 -2.1 2.05 -0.4 2.3 -0.4 2.4 -0.35 2.45 -0.35 2.4 -0.2 2.35 -0.2 0.25 -0.15 0.3 1.55 0.4 1.5 2.85 1.55 Q2.85 1.4 3.0 1.45 L3.0 1.4 3.3 1.45 3.4 1.15 3.45 1.1 3.5 1.05 3.55 1.05 Q3.75 0.5 4.25 0.25 L4.25 0.2 4.3 0.15 4.45 0.3 4.7 0.3 5.7 0.2 5.8 0.25 5.85 0.3 5.85 -2.9 1.3 -2.85 1.3 -2.7 M4.3 2.85 L-2.9 2.8 -2.45 3.5 -2.4 3.65 -2.3 3.8 -2.2 3.9 -2.2 4.05 3.7 4.1 3.75 3.75 3.75 3.65 4.2 3.05 4.2 3.0 4.3 2.85 M4.55 3.05 L4.3 3.45 4.4 3.45 4.4 3.4 4.55 3.4 4.7 3.5 4.75 3.05 4.55 3.05" fill="#000000" fill-rule="evenodd" stroke="none"/>
    <path d="M1.3 -2.7 L1.3 -2.85 5.85 -2.9 5.85 0.3 5.8 0.25 5.7 0.2 4.7 0.3 4.45 0.3 4.3 0.15 4.25 0.2 4.25 0.25 Q3.75 0.5 3.55 1.05 L3.5 1.05 3.45 1.1 3.4 1.15 3.3 1.45 3.0 1.4 3.0 1.45 Q2.85 1.4 2.85 1.55 L0.4 1.5 0.3 1.55 0.25 -0.15 2.35 -0.2 2.4 -0.2 2.45 -0.35 2.4 -0.35 2.3 -0.4 2.05 -0.4 2.15 -2.1 2.15 -2.2 2.1 -2.25 2.0 -2.35 1.95 -2.3 1.95 -2.25 1.3 -2.25 1.3 -2.3 1.25 -2.35 1.2 -2.45 1.25 -2.5 1.3 -2.6 1.3 -2.7" fill="#3c5430" fill-rule="evenodd" stroke="none"/>
    <path d="M-2.75 -1.8 L-2.85 -1.8 -2.95 -1.8 -3.0 -1.75 -3.05 -1.75 -3.1 -1.7 -3.15 -1.65 -3.15 -1.55 Q-0.85 -1.1 1.55 -1.55 L1.55 -1.65 1.5 -1.7 1.45 -1.7 1.45 -1.75 1.35 -1.8 1.3 -1.8 -2.3 -1.9 -2.7 -1.85 -2.75 -1.8 M-3.65 -0.45 L-3.6 -0.95 -3.6 -1.0 -3.55 -1.05 Q-3.45 -1.55 -3.5 -2.1 L1.05 -2.05 1.9 -2.05 Q1.7 -1.25 1.8 -0.4 L-3.65 -0.45" fill="#afafaf" fill-rule="evenodd" stroke="none"/>
    <path d="M-2.75 -1.8 L-2.7 -1.85 -2.3 -1.9 1.3 -1.8 1.35 -1.8 1.45 -1.75 1.45 -1.7 1.5 -1.7 1.55 -1.65 1.55 -1.55 Q-0.85 -1.1 -3.15 -1.55 L-3.15 -1.65 -3.1 -1.7 -3.05 -1.75 -3.0 -1.75 -2.95 -1.8 -2.85 -1.8 -2.75 -1.8" fill="#e7e7e7" fill-rule="evenodd" stroke="none"/>
    <path d="M-3.6 -2.4 L-3.6 -2.35 -3.6 -2.3 -3.65 -2.3 -3.8 -2.15 -3.8 -2.1 -3.7 -2.1 -3.75 -1.9 -3.85 -1.85 -3.85 -1.8 -3.85 -0.45 -4.0 -0.3 -3.85 -0.15 0.1 -0.15 0.05 2.55 0.05 2.6 -4.35 2.6 -4.4 -2.85 0.85 -2.85 0.85 -2.75 0.95 -2.25 -3.5 -2.3 -3.55 -2.35 -3.6 -2.4" fill="#516123" fill-rule="evenodd" stroke="none"/>
    <path d="M5.85 0.4 L5.9 0.35 6.0 0.45 6.05 0.45 6.05 0.55 5.95 1.3 5.95 1.6 5.95 1.65 5.85 1.7 5.85 2.45 5.8 2.5 5.75 2.55 0.25 2.6 0.25 2.55 0.3 1.7 3.3 1.75 3.4 1.75 3.45 1.7 3.5 1.65 3.55 1.55 3.55 1.5 4.25 0.6 4.7 0.65 5.05 0.7 5.5 0.7 5.5 0.55 5.55 0.45 5.85 0.4 M-2.5 -3.15 L-2.45 -3.35 -2.55 -4.1 -2.55 -9.6 0.1 -9.65 -0.05 -8.95 0.05 -3.15 -2.5 -3.15 M4.3 2.85 L4.2 3.0 4.2 3.05 3.75 3.65 3.75 3.75 3.7 4.1 -2.2 4.05 -2.2 3.9 -2.3 3.8 -2.4 3.65 -2.45 3.5 -2.9 2.8 4.3 2.85" fill="#517212" fill-rule="evenodd" stroke="none"/>
    <path d="M4.55 3.05 L4.75 3.05 4.7 3.5 4.55 3.4 4.4 3.4 4.4 3.45 4.3 3.45 4.55 3.05" fill="#f9f900" fill-rule="evenodd" stroke="none"/>
  </g>
</svg>
