<?xml version="1.0" encoding="UTF-8" standalone="no"?>
<svg xmlns:xlink="http://www.w3.org/1999/xlink" height="23.4px" width="25.35px" xmlns="http://www.w3.org/2000/svg">
  <g transform="matrix(1.0, 0.0, 0.0, 1.0, -19.4, 13.2)">
    <path d="M19.45 -3.6 L19.55 -3.65 20.55 -3.15 20.6 -3.1 21.2 -2.7 21.25 -2.8 Q20.8 -4.15 20.7 -5.45 L20.65 -5.8 Q20.4 -6.25 20.4 -6.75 L20.45 -6.8 20.5 -6.75 20.6 -6.75 20.6 -6.7 20.65 -6.65 20.7 -6.65 20.95 -5.8 21.35 -5.3 21.4 -5.25 21.3 -5.15 21.3 -5.1 21.8 -4.15 21.85 -4.1 22.15 -4.0 22.25 -4.2 22.2 -4.2 22.05 -4.35 22.5 -6.0 22.8 -9.55 22.85 -9.6 22.85 -10.25 22.85 -11.3 22.85 -11.75 22.9 -12.25 22.9 -13.15 22.95 -13.2 23.0 -13.15 23.05 -13.15 23.1 -12.5 23.7 -6.7 23.7 -6.15 23.85 -6.0 23.9 -5.95 24.2 -4.55 24.8 -5.8 25.0 -5.6 25.0 -5.55 25.05 -5.5 24.9 -3.9 25.15 -2.9 25.2 -2.9 25.4 -2.75 25.0 -2.4 24.8 -2.35 23.9 -1.55 22.95 -1.45 23.25 -0.9 23.3 -0.9 24.2 -1.25 24.45 -0.95 24.8 -0.85 24.85 -0.6 24.95 -0.5 24.95 -0.45 25.0 -0.4 25.45 -0.6 25.6 -0.5 25.6 -0.45 Q25.15 -0.05 24.6 0.0 L24.45 0.0 23.7 0.0 23.65 -0.1 23.6 -0.15 23.4 -0.2 23.2 0.45 23.1 0.85 Q22.55 0.9 22.55 0.3 L22.55 0.1 22.3 0.5 22.1 0.55 22.1 0.5 22.05 0.45 22.05 0.4 22.1 0.25 22.1 0.1 21.1 0.0 20.65 0.0 20.45 -0.15 20.5 -0.2 19.45 -0.25 19.45 -0.3 19.5 -0.4 21.75 -0.7 21.6 -0.9 21.15 -1.35 21.15 -1.4 21.25 -1.45 21.3 -1.5 Q21.95 -1.15 22.6 -1.15 L22.6 -1.5 Q21.8 -1.6 21.1 -1.95 L21.2 -2.05 21.25 -2.1 21.2 -2.15 20.85 -2.35 20.9 -2.4 20.8 -2.5 20.35 -2.85 19.4 -3.5 19.45 -3.6 M21.3 -2.05 L21.3 -2.1 21.25 -2.1 21.3 -2.05 M28.95 -5.6 L29.0 -5.7 29.1 -5.65 29.15 -5.6 28.95 -4.55 28.95 -4.45 29.0 -4.4 29.05 -4.35 28.9 -3.9 29.05 -3.95 29.15 -3.9 29.2 -3.85 29.4 -3.8 30.2 -4.25 30.35 -4.15 30.35 -4.1 29.7 -3.45 29.65 -3.4 29.65 -3.35 29.8 -3.3 29.8 -3.25 29.85 -3.15 29.85 -3.1 30.5 -3.0 30.55 -2.95 30.65 -2.9 30.7 -2.85 30.15 -2.1 32.95 -1.75 33.0 -1.75 33.05 -1.8 38.95 -1.15 39.15 -1.1 39.2 -1.15 39.4 -1.1 39.45 -1.1 39.45 -1.05 40.2 -0.9 40.2 -0.95 40.25 -0.95 40.3 -1.0 40.35 -1.0 40.45 -0.95 40.85 -0.9 43.2 -0.7 43.8 -0.8 43.95 -0.7 43.95 -0.65 44.75 -0.55 43.7 -0.4 43.2 -0.3 42.1 -0.3 40.15 -0.3 34.7 0.75 32.85 1.1 32.15 1.25 29.55 1.7 29.95 2.35 30.0 2.45 29.3 2.45 29.4 2.55 29.2 2.75 28.9 2.9 28.85 2.85 28.75 2.75 28.75 2.7 28.55 2.5 28.5 2.45 28.05 2.1 27.9 2.25 28.05 3.05 28.1 3.25 28.35 3.6 Q28.1 3.75 27.9 3.45 L27.7 3.5 27.6 3.55 27.1 3.1 25.65 1.55 25.6 1.4 Q25.75 0.9 26.35 0.7 L26.4 0.7 26.55 0.8 26.6 0.8 26.55 0.75 26.55 0.7 25.7 0.1 25.7 0.05 25.75 0.0 25.8 0.0 25.8 -0.3 25.8 -0.35 26.6 -1.05 25.7 -1.75 25.65 -1.75 Q25.45 -1.7 25.45 -1.85 L25.4 -1.85 Q25.35 -2.25 25.7 -2.65 L25.85 -2.8 25.95 -2.75 25.95 -2.8 26.0 -2.75 26.05 -2.75 27.25 -3.8 27.2 -3.85 27.15 -3.95 27.2 -4.0 Q28.25 -4.6 28.9 -5.65 L28.95 -5.6 M37.4 -1.0 L37.55 -1.0 37.4 -1.0 M36.3 -0.05 L36.3 0.0 36.3 -0.05 M25.85 1.5 L25.8 1.55 25.75 1.55 26.1 1.85 25.9 1.45 25.85 1.5 M25.5 3.25 L25.85 3.95 25.85 4.0 25.75 4.05 25.65 4.0 24.5 2.3 24.0 4.1 23.65 7.05 23.6 7.75 23.6 8.4 23.6 9.1 23.55 9.15 23.35 9.1 23.35 8.85 23.2 8.75 23.25 8.5 23.15 8.45 23.1 8.3 23.15 8.45 23.15 8.75 23.35 10.1 23.3 10.15 23.1 10.1 22.8 8.05 22.7 7.95 22.3 3.7 21.35 5.75 21.2 5.7 21.4 4.75 21.35 4.75 Q21.2 4.8 21.15 4.65 L21.6 2.4 21.35 2.65 21.3 2.7 21.05 2.7 20.7 3.15 20.4 3.5 20.25 3.55 20.2 3.4 20.8 2.5 20.75 2.4 21.3 1.35 21.4 1.45 21.85 1.25 21.95 1.35 22.0 1.4 22.0 1.45 22.05 1.45 22.05 1.5 23.15 1.35 24.2 1.25 24.55 1.3 24.6 1.35 24.65 1.3 24.7 1.3 24.75 1.35 24.9 1.35 24.95 1.4 24.9 1.55 25.5 3.15 25.5 3.25" fill="#ffffff" fill-rule="evenodd" stroke="none"/>
  </g>
</svg>
