<?xml version="1.0" encoding="UTF-8" standalone="no"?>
<svg xmlns:xlink="http://www.w3.org/1999/xlink" height="5.1px" width="20.9px" xmlns="http://www.w3.org/2000/svg">
  <g transform="matrix(1.0, 0.0, 0.0, 1.0, -1.05, 2.9)">
    <path d="M1.2 -1.35 L1.25 -1.7 2.1 -1.8 2.1 -1.9 2.15 -1.95 2.2 -1.95 Q2.15 -2.5 2.35 -2.85 L2.35 -2.9 2.4 -2.85 2.45 -2.8 2.5 -1.9 2.6 -1.8 2.65 -1.8 2.85 -1.75 2.9 -1.7 2.95 -1.7 2.95 -1.65 15.85 -1.6 15.85 -1.75 15.75 -1.75 15.8 -1.85 15.9 -2.05 16.55 -2.55 16.6 -2.55 16.7 -2.65 17.2 -2.6 17.3 -2.6 17.3 -2.55 17.35 -2.5 17.45 -2.5 17.5 -2.25 17.4 -2.25 17.45 -2.2 17.55 -2.2 17.8 -1.95 17.7 -1.95 17.65 -1.9 17.7 -1.9 17.9 -1.9 18.7 -1.85 19.25 -1.85 20.2 -1.85 20.3 -1.85 20.7 -1.85 20.3 -1.85 20.3 -1.9 20.85 -2.1 20.95 -2.2 21.0 -2.25 21.25 -2.6 21.65 -2.55 21.7 -2.55 21.8 -2.5 21.85 -2.3 21.85 -2.25 21.85 1.95 21.95 2.0 21.85 2.05 21.85 2.1 21.7 2.15 Q21.35 2.2 21.05 1.95 L21.1 1.85 21.1 1.75 17.6 1.7 17.55 1.9 17.55 1.95 17.55 2.05 16.85 2.15 16.8 2.1 16.7 2.0 16.65 1.95 16.6 1.95 16.55 1.9 16.55 1.8 16.2 1.6 16.1 1.6 15.95 1.6 15.85 1.4 15.85 1.35 15.8 1.35 15.65 1.25 15.0 1.1 14.85 1.1 14.75 1.15 14.55 1.05 13.95 1.1 13.95 1.05 13.65 1.05 5.35 1.1 2.7 1.1 2.65 1.2 2.55 1.25 2.5 1.85 2.5 1.9 2.3 1.9 2.3 1.6 2.2 1.55 2.2 1.45 2.25 1.4 2.25 1.3 1.3 1.25 Q0.9 0.5 1.1 -0.4 L1.2 -1.35 M2.4 -1.45 L1.5 -1.4 1.4 -0.45 1.45 0.95 1.6 1.0 Q1.85 0.75 2.2 0.8 L2.2 0.35 2.2 0.2 2.3 0.15 2.35 0.1 2.4 0.15 2.4 0.1 2.45 0.15 2.55 0.15 2.6 0.15 2.75 0.8 5.45 0.85 5.45 0.8 15.1 0.85 15.55 0.85 15.85 0.85 15.9 0.85 15.95 0.8 16.05 0.9 16.1 0.85 16.15 0.8 Q16.45 1.0 16.35 1.35 L16.25 1.4 16.25 1.45 16.3 1.4 Q16.65 1.45 16.85 1.75 L17.0 1.85 17.25 1.8 17.25 1.75 17.3 1.6 17.35 1.55 17.45 1.4 17.45 1.35 17.55 1.3 17.75 1.4 21.2 1.4 21.35 1.55 21.4 1.6 21.4 1.75 21.45 1.8 21.6 1.85 21.7 -2.2 21.65 -2.25 21.6 -2.3 21.55 -2.25 21.45 -2.25 21.35 -2.25 21.3 -2.15 21.25 -2.1 21.05 -1.9 21.05 -1.8 20.95 -1.65 20.75 -1.6 17.65 -1.65 17.55 -1.65 17.4 -1.65 17.05 -1.95 17.05 -2.0 17.1 -2.05 17.05 -2.3 16.8 -2.3 16.3 -1.85 16.25 -1.75 16.25 -1.65 16.15 -1.45 16.15 -1.4 15.9 -1.4 2.55 -1.35 2.4 -1.45 M20.35 0.3 Q18.65 0.65 17.1 0.0 L17.05 -0.1 17.0 -0.1 17.1 -0.5 17.45 -0.75 17.45 -0.8 17.5 -0.85 17.55 -0.85 18.3 -1.0 21.2 -0.55 21.25 -0.5 21.3 -0.45 21.25 -0.4 21.25 -0.35 21.2 -0.2 20.75 0.1 20.5 0.15 20.5 0.2 20.5 0.25 20.35 0.3 M17.35 -0.15 L17.35 -0.1 20.75 -0.2 20.8 -0.3 20.85 -0.3 Q20.65 -0.55 20.05 -0.6 L18.25 -0.7 18.15 -0.65 17.8 -0.65 17.65 -0.55 17.35 -0.4 17.3 -0.35 17.3 -0.25 17.35 -0.15 M15.05 1.1 L15.0 1.1 15.05 1.1" fill="#000000" fill-rule="evenodd" stroke="none"/>
    <path d="M13.4 -1.05 L12.8 -1.05 12.45 -1.1 12.45 -1.05 12.4 -1.05 2.8 -1.1 2.8 -1.05 2.65 -0.95 2.65 -0.9 2.8 -0.8 12.35 -0.85 12.7 -0.75 12.95 -0.8 12.95 -0.85 13.7 -0.85 13.7 -0.8 Q13.8 -0.6 13.95 -0.75 L14.0 -0.8 14.0 -0.85 14.2 -0.85 14.2 -0.7 Q14.35 -0.5 14.5 -0.7 L14.5 -0.75 14.65 -0.6 14.7 -0.65 14.9 -0.7 15.15 -0.7 15.25 -0.7 15.3 -0.7 15.45 -0.7 15.6 -0.65 Q15.7 -0.5 15.85 -0.7 L16.3 -0.75 16.35 -0.8 16.5 -0.9 16.5 -1.0 16.55 -1.05 16.6 -1.25 16.8 -1.25 16.85 -1.25 16.95 -1.35 17.05 -1.55 17.05 -1.75 17.0 -1.75 16.7 -1.9 16.65 -1.85 16.35 -1.7 16.3 -1.55 16.35 -1.4 16.2 -1.2 16.2 -1.1 16.15 -1.1 16.1 -1.05 15.8 -1.05 15.7 -1.1 15.65 -1.05 15.6 -1.05 15.5 -1.1 15.45 -1.05 15.45 -1.1 13.55 -1.25 13.4 -1.1 13.4 -1.05 M2.4 -1.45 L2.55 -1.35 15.9 -1.4 16.15 -1.4 16.15 -1.45 16.25 -1.65 16.25 -1.75 16.3 -1.85 16.8 -2.3 17.05 -2.3 17.1 -2.05 17.05 -2.0 17.05 -1.95 17.4 -1.65 17.55 -1.65 17.65 -1.65 20.75 -1.6 20.95 -1.65 21.05 -1.8 21.05 -1.9 21.25 -2.1 21.3 -2.15 21.35 -2.25 21.45 -2.25 21.55 -2.25 21.6 -2.3 21.65 -2.25 21.7 -2.2 21.6 1.85 21.45 1.8 21.4 1.75 21.4 1.6 21.35 1.55 21.2 1.4 17.75 1.4 17.55 1.3 17.45 1.35 17.45 1.4 17.35 1.55 17.3 1.6 17.25 1.75 17.25 1.8 17.0 1.85 16.85 1.75 Q16.65 1.45 16.3 1.4 L16.25 1.45 16.25 1.4 16.35 1.35 Q16.45 1.0 16.15 0.8 L16.1 0.85 16.05 0.9 15.95 0.8 15.9 0.85 15.85 0.85 15.55 0.85 15.1 0.85 5.45 0.8 5.45 0.85 2.75 0.8 2.6 0.15 2.55 0.15 2.45 0.15 2.4 0.1 2.4 0.15 2.35 0.1 2.3 0.15 2.2 0.2 2.2 0.35 2.2 0.8 Q1.85 0.75 1.6 1.0 L1.45 0.95 1.4 -0.45 1.5 -1.4 2.4 -1.45 M14.5 -0.8 L14.5 -0.85 14.55 -0.85 14.5 -0.8 M20.5 0.25 L20.5 0.2 20.5 0.15 20.75 0.1 21.2 -0.2 21.25 -0.35 21.25 -0.4 21.3 -0.45 21.25 -0.5 21.2 -0.55 18.3 -1.0 17.55 -0.85 17.5 -0.85 17.45 -0.8 17.45 -0.75 17.1 -0.5 17.0 -0.1 17.05 -0.1 17.1 0.0 Q18.65 0.65 20.35 0.3 L19.4 0.55 Q20.35 0.8 21.2 0.15 L21.05 0.0 20.5 0.25 M19.6 -1.15 L19.6 -1.1 19.75 -1.05 21.2 -1.1 21.3 -1.1 21.35 -1.2 21.45 -1.7 21.45 -1.75 21.35 -1.8 21.3 -1.75 21.05 -1.35 21.05 -1.3 20.35 -1.3 20.4 -1.35 20.25 -1.5 19.4 -1.25 19.6 -1.15" fill="#333333" fill-rule="evenodd" stroke="none"/>
    <path d="M16.6 -1.25 L16.55 -1.05 16.5 -1.0 16.5 -0.9 16.35 -0.8 16.3 -0.75 15.85 -0.7 Q15.7 -0.5 15.6 -0.65 L15.45 -0.7 15.3 -0.7 15.25 -0.7 15.15 -0.7 14.9 -0.7 14.7 -0.65 14.65 -0.6 14.5 -0.75 14.5 -0.7 Q14.35 -0.5 14.2 -0.7 L14.2 -0.85 14.0 -0.85 14.0 -0.8 13.95 -0.75 Q13.8 -0.6 13.7 -0.8 L13.7 -0.85 12.95 -0.85 12.95 -0.8 12.7 -0.75 12.35 -0.85 2.8 -0.8 2.65 -0.9 2.65 -0.95 2.8 -1.05 2.8 -1.1 12.4 -1.05 12.45 -1.05 12.45 -1.1 12.8 -1.05 13.4 -1.05 15.45 -0.9 15.5 -1.0 15.45 -1.05 15.5 -1.1 15.6 -1.05 15.65 -1.05 15.7 -1.1 15.8 -1.05 16.1 -1.05 16.15 -1.1 16.2 -1.1 16.2 -1.2 16.35 -1.4 16.6 -1.25 M14.5 -0.8 L14.55 -0.85 14.5 -0.85 14.5 -0.8 M20.35 -1.3 L21.05 -1.3 21.05 -1.35 21.3 -1.75 21.35 -1.8 21.45 -1.75 21.45 -1.7 21.35 -1.2 21.3 -1.1 21.2 -1.1 19.75 -1.05 19.6 -1.1 19.6 -1.15 Q20.0 -1.05 20.35 -1.3" fill="#c1c1c1" fill-rule="evenodd" stroke="none"/>
    <path d="M13.4 -1.05 L13.4 -1.1 13.55 -1.25 15.45 -1.1 15.45 -1.05 15.5 -1.0 15.45 -0.9 13.4 -1.05 M16.35 -1.4 L16.3 -1.55 16.35 -1.7 16.65 -1.85 16.7 -1.9 17.0 -1.75 17.05 -1.75 17.05 -1.55 16.95 -1.35 16.85 -1.25 16.8 -1.25 16.6 -1.25 16.35 -1.4 M20.5 0.25 L21.05 0.0 21.2 0.15 Q20.35 0.8 19.4 0.55 L20.35 0.3 20.5 0.25 M19.6 -1.15 L19.4 -1.25 20.25 -1.5 20.4 -1.35 20.35 -1.3 Q20.0 -1.05 19.6 -1.15" fill="#fcfcfc" fill-rule="evenodd" stroke="none"/>
  </g>
</svg>
