<?xml version="1.0" encoding="UTF-8" standalone="no"?>
<svg xmlns:xlink="http://www.w3.org/1999/xlink" height="5.1px" width="20.9px" xmlns="http://www.w3.org/2000/svg">
  <g transform="matrix(1.0, 0.0, 0.0, 1.0, -2.0, 2.9)">
    <path d="M2.15 -1.35 L2.2 -1.7 3.05 -1.8 3.05 -1.9 3.1 -1.95 3.15 -1.95 Q3.1 -2.5 3.3 -2.85 L3.3 -2.9 3.35 -2.85 3.4 -2.8 3.45 -1.9 3.55 -1.8 3.6 -1.8 3.8 -1.75 3.85 -1.7 3.9 -1.7 3.9 -1.65 16.8 -1.6 16.8 -1.75 16.7 -1.75 16.75 -1.85 16.85 -2.05 17.5 -2.55 17.55 -2.55 17.65 -2.65 18.15 -2.6 18.25 -2.6 18.25 -2.55 18.3 -2.5 18.4 -2.5 18.45 -2.25 18.35 -2.25 18.4 -2.2 18.5 -2.2 18.75 -1.95 18.65 -1.95 18.6 -1.9 18.65 -1.9 18.85 -1.9 19.65 -1.85 20.2 -1.85 21.15 -1.85 21.25 -1.85 21.65 -1.85 21.25 -1.85 21.25 -1.9 21.8 -2.1 21.9 -2.2 21.95 -2.25 22.2 -2.6 22.6 -2.55 22.65 -2.55 22.75 -2.5 22.8 -2.3 22.8 -2.25 22.8 1.95 22.9 2.0 22.8 2.05 22.8 2.1 22.65 2.15 22.0 1.95 22.05 1.85 22.05 1.75 18.55 1.7 18.5 1.9 18.5 1.95 18.5 2.05 17.8 2.15 17.75 2.1 17.65 2.0 17.6 1.95 17.55 1.95 17.5 1.9 17.5 1.8 17.15 1.6 17.05 1.6 16.9 1.6 16.8 1.4 16.8 1.35 16.75 1.35 16.6 1.25 15.95 1.1 15.8 1.1 15.7 1.15 15.5 1.05 14.9 1.1 14.9 1.05 14.6 1.05 6.3 1.1 3.65 1.1 3.6 1.2 3.5 1.25 3.45 1.85 3.45 1.9 3.25 1.9 3.25 1.6 3.15 1.55 3.15 1.45 3.2 1.4 3.2 1.3 2.25 1.25 Q1.85 0.5 2.05 -0.4 L2.15 -1.35 M3.35 -1.45 L2.45 -1.4 2.35 -0.45 Q2.25 0.3 2.4 0.95 L2.55 1.0 Q2.8 0.75 3.15 0.8 L3.15 0.35 3.15 0.2 3.25 0.15 3.3 0.1 3.35 0.15 3.35 0.1 3.4 0.15 3.5 0.15 3.55 0.15 3.7 0.8 6.4 0.85 6.4 0.8 16.05 0.85 16.5 0.85 16.8 0.85 16.85 0.85 16.9 0.8 17.0 0.9 17.05 0.85 17.1 0.8 Q17.4 1.0 17.3 1.35 L17.2 1.4 17.2 1.45 17.25 1.4 17.8 1.75 17.95 1.85 18.2 1.8 18.2 1.75 18.25 1.6 18.3 1.55 18.4 1.4 18.4 1.35 18.5 1.3 18.7 1.4 22.15 1.4 22.3 1.55 22.35 1.6 22.35 1.75 22.4 1.8 22.55 1.85 22.65 -2.2 22.6 -2.25 22.55 -2.3 22.5 -2.25 22.4 -2.25 22.3 -2.25 22.25 -2.15 22.2 -2.1 22.0 -1.9 22.0 -1.8 21.9 -1.65 21.7 -1.6 18.6 -1.65 18.5 -1.65 18.35 -1.65 18.0 -1.95 18.0 -2.0 18.05 -2.05 18.0 -2.3 17.75 -2.3 17.25 -1.85 17.2 -1.75 17.2 -1.65 17.1 -1.45 17.1 -1.4 16.85 -1.4 3.5 -1.35 3.35 -1.45 M21.3 0.3 L18.05 0.0 18.0 -0.1 17.95 -0.1 18.05 -0.5 Q18.15 -0.7 18.4 -0.75 L18.4 -0.8 18.45 -0.85 18.5 -0.85 19.25 -1.0 22.15 -0.55 22.2 -0.5 22.25 -0.45 22.2 -0.4 22.2 -0.35 22.15 -0.2 21.7 0.1 21.45 0.15 21.45 0.2 21.45 0.25 21.3 0.3 M18.3 -0.15 L18.3 -0.1 21.7 -0.2 21.75 -0.3 21.8 -0.3 21.0 -0.6 19.2 -0.7 19.1 -0.65 18.75 -0.65 18.6 -0.55 18.3 -0.4 18.25 -0.35 18.25 -0.25 18.3 -0.15 M16.0 1.1 L15.95 1.1 16.0 1.1" fill="#000000" fill-rule="evenodd" stroke="none"/>
    <path d="M3.35 -1.45 L3.5 -1.35 16.85 -1.4 17.1 -1.4 17.1 -1.45 17.2 -1.65 17.2 -1.75 17.25 -1.85 17.75 -2.3 18.0 -2.3 18.05 -2.05 18.0 -2.0 18.0 -1.95 18.35 -1.65 18.5 -1.65 18.6 -1.65 21.7 -1.6 21.9 -1.65 22.0 -1.8 22.0 -1.9 22.2 -2.1 22.25 -2.15 22.3 -2.25 22.4 -2.25 22.5 -2.25 22.55 -2.3 22.6 -2.25 22.65 -2.2 22.55 1.85 22.4 1.8 22.35 1.75 22.35 1.6 22.3 1.55 22.15 1.4 18.7 1.4 18.5 1.3 18.4 1.35 18.4 1.4 18.3 1.55 18.25 1.6 18.2 1.75 18.2 1.8 17.95 1.85 17.8 1.75 17.25 1.4 17.2 1.45 17.2 1.4 17.3 1.35 Q17.4 1.0 17.1 0.8 L17.05 0.85 17.0 0.9 16.9 0.8 16.85 0.85 16.8 0.85 16.5 0.85 16.05 0.85 6.4 0.8 6.4 0.85 3.7 0.8 3.55 0.15 3.5 0.15 3.4 0.15 3.35 0.1 3.35 0.15 3.3 0.1 3.25 0.15 3.15 0.2 3.15 0.35 3.15 0.8 Q2.8 0.75 2.55 1.0 L2.4 0.95 Q2.25 0.3 2.35 -0.45 L2.45 -1.4 3.35 -1.45 M14.35 -1.05 L13.75 -1.05 13.4 -1.1 13.4 -1.05 13.35 -1.05 3.75 -1.1 3.75 -1.05 3.6 -0.95 3.6 -0.9 3.75 -0.8 13.3 -0.85 13.65 -0.75 13.9 -0.8 13.9 -0.85 14.65 -0.85 14.65 -0.8 Q14.75 -0.6 14.9 -0.75 L14.95 -0.8 14.95 -0.85 15.15 -0.85 15.15 -0.7 Q15.3 -0.5 15.45 -0.7 L15.45 -0.75 15.6 -0.6 15.65 -0.65 15.85 -0.7 16.1 -0.7 16.2 -0.7 16.25 -0.7 16.4 -0.7 16.55 -0.65 16.8 -0.7 17.25 -0.75 17.3 -0.8 17.45 -0.9 17.45 -1.0 17.5 -1.05 17.55 -1.25 17.75 -1.25 17.8 -1.25 17.9 -1.35 18.0 -1.55 18.0 -1.75 17.95 -1.75 17.65 -1.9 17.6 -1.85 17.3 -1.7 17.25 -1.55 17.3 -1.4 17.15 -1.2 17.15 -1.1 17.1 -1.1 17.05 -1.05 16.75 -1.05 16.65 -1.1 16.6 -1.05 16.55 -1.05 16.45 -1.1 16.4 -1.05 16.4 -1.1 14.5 -1.25 14.35 -1.1 14.35 -1.05 M15.45 -0.8 L15.45 -0.85 15.5 -0.85 15.45 -0.8 M21.45 0.25 L21.45 0.2 21.45 0.15 21.7 0.1 22.15 -0.2 22.2 -0.35 22.2 -0.4 22.25 -0.45 22.2 -0.5 22.15 -0.55 19.25 -1.0 18.5 -0.85 18.45 -0.85 18.4 -0.8 18.4 -0.75 Q18.15 -0.7 18.05 -0.5 L17.95 -0.1 18.0 -0.1 18.05 0.0 21.3 0.3 20.35 0.55 Q21.3 0.8 22.15 0.15 L22.0 0.0 21.45 0.25 M20.55 -1.15 L20.55 -1.1 20.7 -1.05 22.15 -1.1 22.25 -1.1 22.3 -1.2 22.4 -1.7 22.4 -1.75 22.3 -1.8 22.25 -1.75 22.0 -1.35 22.0 -1.3 21.3 -1.3 21.35 -1.35 21.2 -1.5 20.35 -1.25 20.55 -1.15" fill="#333333" fill-rule="evenodd" stroke="none"/>
    <path d="M17.55 -1.25 L17.5 -1.05 17.45 -1.0 17.45 -0.9 17.3 -0.8 17.25 -0.75 16.8 -0.7 16.55 -0.65 16.4 -0.7 16.25 -0.7 16.2 -0.7 16.1 -0.7 15.85 -0.7 15.65 -0.65 15.6 -0.6 15.45 -0.75 15.45 -0.7 Q15.3 -0.5 15.15 -0.7 L15.15 -0.85 14.95 -0.85 14.95 -0.8 14.9 -0.75 Q14.75 -0.6 14.65 -0.8 L14.65 -0.85 13.9 -0.85 13.9 -0.8 13.65 -0.75 13.3 -0.85 3.75 -0.8 3.6 -0.9 3.6 -0.95 3.75 -1.05 3.75 -1.1 13.35 -1.05 13.4 -1.05 13.4 -1.1 13.75 -1.05 14.35 -1.05 16.4 -0.9 16.45 -1.0 16.4 -1.05 16.45 -1.1 16.55 -1.05 16.6 -1.05 16.65 -1.1 16.75 -1.05 17.05 -1.05 17.1 -1.1 17.15 -1.1 17.15 -1.2 17.3 -1.4 Q17.4 -1.3 17.55 -1.25 M15.45 -0.8 L15.5 -0.85 15.45 -0.85 15.45 -0.8 M21.3 -1.3 L22.0 -1.3 22.0 -1.35 22.25 -1.75 22.3 -1.8 22.4 -1.75 22.4 -1.7 22.3 -1.2 22.25 -1.1 22.15 -1.1 20.7 -1.05 20.55 -1.1 20.55 -1.15 21.3 -1.3" fill="#c1c1c1" fill-rule="evenodd" stroke="none"/>
    <path d="M14.35 -1.05 L14.35 -1.1 14.5 -1.25 16.4 -1.1 16.4 -1.05 16.45 -1.0 16.4 -0.9 14.35 -1.05 M17.3 -1.4 L17.25 -1.55 17.3 -1.7 17.6 -1.85 17.65 -1.9 17.95 -1.75 18.0 -1.75 18.0 -1.55 17.9 -1.35 17.8 -1.25 17.75 -1.25 17.55 -1.25 Q17.4 -1.3 17.3 -1.4 M21.45 0.25 L22.0 0.0 22.15 0.15 Q21.3 0.8 20.35 0.55 L21.3 0.3 21.45 0.25 M20.55 -1.15 L20.35 -1.25 21.2 -1.5 21.35 -1.35 21.3 -1.3 20.55 -1.15" fill="#fcfcfc" fill-rule="evenodd" stroke="none"/>
  </g>
</svg>
