<?xml version="1.0" encoding="UTF-8" standalone="no"?>
<svg xmlns:xlink="http://www.w3.org/1999/xlink" height="32.3px" width="32.1px" xmlns="http://www.w3.org/2000/svg">
  <g transform="matrix(1.0, 0.0, 0.0, 1.0, -0.6, -0.3)">
    <path d="M29.4 0.4 Q29.85 0.1 29.85 0.7 L29.7 1.1 29.6 1.25 29.05 2.1 28.6 1.8 28.6 1.45 28.85 0.8 Q28.9 0.35 29.3 0.35 L29.4 0.4 M1.25 2.6 Q0.8 2.6 0.7 2.2 L0.7 1.7 Q0.7 1.15 1.45 0.65 2.2 0.2 2.2 0.95 L1.25 2.6 M1.55 29.85 L0.6 29.85 1.55 29.85 1.0 30.25 Q0.6 30.25 0.6 29.85 L0.6 29.8 Q0.6 29.5 0.9 29.25 1.3 28.9 1.8 29.1 L1.85 29.35 1.55 29.85 M29.85 29.85 L29.8 29.95 29.4 30.25 Q29.0 30.25 28.95 29.85 L28.95 29.8 Q28.95 29.4 29.45 29.0 29.95 28.55 29.95 29.35 L29.85 29.85 28.95 29.85 29.85 29.85" fill="#ff6666" fill-rule="evenodd" stroke="none"/>
    <path d="M32.7 3.95 L32.7 4.35 31.45 4.6 Q30.2 4.6 30.2 4.2 30.2 3.9 30.7 3.65 L31.35 2.95 Q31.15 2.6 31.45 2.15 31.8 1.75 32.3 1.95 L32.7 3.95 M3.9 2.1 Q4.2 1.65 4.2 2.5 4.2 4.6 2.45 4.6 L2.05 4.55 Q1.95 4.05 2.1 3.9 L1.7 3.5 Q1.7 3.05 3.35 3.05 L3.9 2.1 M4.3 30.1 L4.35 32.05 Q4.25 32.6 3.75 32.6 L1.6 32.45 Q1.45 32.4 1.45 32.15 2.65 30.7 3.6 30.85 L3.6 30.35 Q3.7 30.0 4.3 30.1 M32.2 29.85 L32.25 29.95 32.45 31.75 32.25 32.5 31.25 32.5 30.25 32.5 29.85 32.05 30.05 31.8 31.3 31.25 31.2 30.65 Q31.2 30.25 31.5 29.85 L31.55 29.8 32.2 29.85 31.5 29.85 32.2 29.85" fill="#660000" fill-rule="evenodd" stroke="none"/>
  </g>
</svg>
