<?xml version="1.0" encoding="UTF-8" standalone="no"?>
<svg xmlns:xlink="http://www.w3.org/1999/xlink" height="5.1px" width="20.9px" xmlns="http://www.w3.org/2000/svg">
  <g transform="matrix(1.0, 0.0, 0.0, 1.0, -6.75, 4.8)">
    <path d="M6.9 -3.25 L6.95 -3.6 7.8 -3.7 7.8 -3.8 7.85 -3.85 7.9 -3.85 Q7.85 -4.4 8.05 -4.75 L8.05 -4.8 8.1 -4.75 8.15 -4.7 8.2 -3.8 8.3 -3.7 8.35 -3.7 8.55 -3.65 8.6 -3.6 8.65 -3.6 8.65 -3.55 21.55 -3.5 21.55 -3.65 21.45 -3.65 21.5 -3.75 21.6 -3.95 Q22.0 -4.1 22.25 -4.45 L22.3 -4.45 22.4 -4.55 22.9 -4.5 23.0 -4.5 23.0 -4.45 23.05 -4.4 23.15 -4.4 23.2 -4.15 23.1 -4.15 23.15 -4.1 23.25 -4.1 23.5 -3.85 23.4 -3.85 23.35 -3.8 23.4 -3.8 23.6 -3.8 24.4 -3.75 24.95 -3.75 25.9 -3.75 26.0 -3.75 26.4 -3.75 26.0 -3.75 26.0 -3.8 26.55 -4.0 26.65 -4.1 26.7 -4.15 26.95 -4.5 27.35 -4.45 27.4 -4.45 27.5 -4.4 27.55 -4.2 27.55 -4.15 27.55 0.05 27.65 0.1 27.55 0.15 27.55 0.2 27.4 0.25 26.75 0.05 26.8 -0.05 26.8 -0.15 23.3 -0.2 23.25 0.0 23.25 0.05 23.25 0.15 22.55 0.25 22.5 0.2 22.4 0.1 22.35 0.05 22.3 0.05 22.25 0.0 22.25 -0.1 21.9 -0.3 21.8 -0.3 21.65 -0.3 21.55 -0.5 21.55 -0.55 21.5 -0.55 21.35 -0.65 20.7 -0.8 20.55 -0.8 20.45 -0.75 20.25 -0.85 19.65 -0.8 19.65 -0.85 19.35 -0.85 11.05 -0.8 8.4 -0.8 8.35 -0.7 8.25 -0.65 8.2 -0.05 8.2 0.0 8.0 0.0 8.0 -0.3 7.9 -0.35 7.9 -0.45 7.95 -0.5 7.95 -0.6 7.0 -0.65 Q6.6 -1.4 6.8 -2.3 L6.9 -3.25 M8.1 -3.35 L7.2 -3.3 7.1 -2.35 Q7.0 -1.6 7.15 -0.95 L7.3 -0.9 Q7.55 -1.15 7.9 -1.1 L7.9 -1.55 7.9 -1.7 8.0 -1.75 8.05 -1.8 8.1 -1.75 8.1 -1.8 8.15 -1.75 8.25 -1.75 8.3 -1.75 8.45 -1.1 11.15 -1.05 11.15 -1.1 20.8 -1.05 21.25 -1.05 21.55 -1.05 21.6 -1.05 21.65 -1.1 21.75 -1.0 21.8 -1.05 21.85 -1.1 Q22.15 -0.9 22.05 -0.55 L21.95 -0.5 21.95 -0.45 22.0 -0.5 22.55 -0.15 22.7 -0.05 22.95 -0.1 22.95 -0.15 23.0 -0.3 23.05 -0.35 23.15 -0.5 23.15 -0.55 23.25 -0.6 23.45 -0.5 26.9 -0.5 27.05 -0.35 27.1 -0.3 27.1 -0.15 27.15 -0.1 27.3 -0.05 27.4 -4.1 27.35 -4.15 27.3 -4.2 27.25 -4.15 27.15 -4.15 27.05 -4.15 27.0 -4.05 26.95 -4.0 26.75 -3.8 26.75 -3.7 26.65 -3.55 26.45 -3.5 23.35 -3.55 23.25 -3.55 23.1 -3.55 Q22.9 -3.65 22.75 -3.85 L22.75 -3.9 22.8 -3.95 22.75 -4.2 22.5 -4.2 22.0 -3.75 21.95 -3.65 21.95 -3.55 21.85 -3.35 21.85 -3.3 21.6 -3.3 8.25 -3.25 8.1 -3.35 M26.05 -1.6 L22.8 -1.9 22.75 -2.0 22.7 -2.0 22.8 -2.4 Q22.9 -2.6 23.15 -2.65 L23.15 -2.7 23.2 -2.75 23.25 -2.75 24.0 -2.9 26.9 -2.45 26.95 -2.4 27.0 -2.35 26.95 -2.3 26.95 -2.25 26.9 -2.1 26.45 -1.8 26.2 -1.75 26.2 -1.7 26.2 -1.65 26.05 -1.6 M23.05 -2.05 L23.05 -2.0 26.45 -2.1 26.5 -2.2 26.55 -2.2 Q26.35 -2.45 25.75 -2.5 L23.95 -2.6 23.85 -2.55 23.5 -2.55 23.35 -2.45 23.05 -2.3 23.0 -2.25 23.0 -2.15 23.05 -2.05 M20.75 -0.8 L20.7 -0.8 20.75 -0.8" fill="#000000" fill-rule="evenodd" stroke="none"/>
    <path d="M8.1 -3.35 L8.25 -3.25 21.6 -3.3 21.85 -3.3 21.85 -3.35 21.95 -3.55 21.95 -3.65 22.0 -3.75 22.5 -4.2 22.75 -4.2 22.8 -3.95 22.75 -3.9 22.75 -3.85 Q22.9 -3.65 23.1 -3.55 L23.25 -3.55 23.35 -3.55 26.45 -3.5 26.65 -3.55 26.75 -3.7 26.75 -3.8 26.95 -4.0 27.0 -4.05 27.05 -4.15 27.15 -4.15 27.25 -4.15 27.3 -4.2 27.35 -4.15 27.4 -4.1 27.3 -0.05 27.15 -0.1 27.1 -0.15 27.1 -0.3 27.05 -0.35 26.9 -0.5 23.45 -0.5 23.25 -0.6 23.15 -0.55 23.15 -0.5 23.05 -0.35 23.0 -0.3 22.95 -0.15 22.95 -0.1 22.7 -0.05 22.55 -0.15 22.0 -0.5 21.95 -0.45 21.95 -0.5 22.05 -0.55 Q22.15 -0.9 21.85 -1.1 L21.8 -1.05 21.75 -1.0 21.65 -1.1 21.6 -1.05 21.55 -1.05 21.25 -1.05 20.8 -1.05 11.15 -1.1 11.15 -1.05 8.45 -1.1 8.3 -1.75 8.25 -1.75 8.15 -1.75 8.1 -1.8 8.1 -1.75 8.05 -1.8 8.0 -1.75 7.9 -1.7 7.9 -1.55 7.9 -1.1 Q7.55 -1.15 7.3 -0.9 L7.15 -0.95 Q7.0 -1.6 7.1 -2.35 L7.2 -3.3 8.1 -3.35 M19.1 -2.95 L18.5 -2.95 18.15 -3.0 18.15 -2.95 18.1 -2.95 8.5 -3.0 8.5 -2.95 8.35 -2.85 8.35 -2.8 8.5 -2.7 18.05 -2.75 18.4 -2.65 18.65 -2.7 18.65 -2.75 19.4 -2.75 19.4 -2.7 Q19.5 -2.5 19.65 -2.65 L19.7 -2.7 19.7 -2.75 19.9 -2.75 19.9 -2.6 Q20.05 -2.4 20.2 -2.6 L20.2 -2.65 20.35 -2.5 20.4 -2.55 20.6 -2.6 20.85 -2.6 20.95 -2.6 21.0 -2.6 21.15 -2.6 21.3 -2.55 21.55 -2.6 22.0 -2.65 22.05 -2.7 22.2 -2.8 22.2 -2.9 22.25 -2.95 22.3 -3.15 22.5 -3.15 22.55 -3.15 22.65 -3.25 22.75 -3.45 22.75 -3.65 22.7 -3.65 22.4 -3.8 22.35 -3.75 22.05 -3.6 22.0 -3.45 22.05 -3.3 21.9 -3.1 21.9 -3.0 21.85 -3.0 21.8 -2.95 21.5 -2.95 21.4 -3.0 21.35 -2.95 21.3 -2.95 21.2 -3.0 21.15 -2.95 21.15 -3.0 19.25 -3.15 19.1 -3.0 19.1 -2.95 M20.2 -2.7 L20.2 -2.75 20.25 -2.75 20.2 -2.7 M26.2 -1.65 L26.2 -1.7 26.2 -1.75 26.45 -1.8 26.9 -2.1 26.95 -2.25 26.95 -2.3 27.0 -2.35 26.95 -2.4 26.9 -2.45 24.0 -2.9 23.25 -2.75 23.2 -2.75 23.15 -2.7 23.15 -2.65 Q22.9 -2.6 22.8 -2.4 L22.7 -2.0 22.75 -2.0 22.8 -1.9 26.05 -1.6 25.1 -1.35 Q26.05 -1.1 26.9 -1.75 L26.75 -1.9 26.2 -1.65 M25.3 -3.05 L25.3 -3.0 25.45 -2.95 26.9 -3.0 27.0 -3.0 27.05 -3.1 27.15 -3.6 27.15 -3.65 27.05 -3.7 27.0 -3.65 26.75 -3.25 26.75 -3.2 26.05 -3.2 26.1 -3.25 25.95 -3.4 25.1 -3.15 25.3 -3.05" fill="#333333" fill-rule="evenodd" stroke="none"/>
    <path d="M22.3 -3.15 L22.25 -2.95 22.2 -2.9 22.2 -2.8 22.05 -2.7 22.0 -2.65 21.55 -2.6 21.3 -2.55 21.15 -2.6 21.0 -2.6 20.95 -2.6 20.85 -2.6 20.6 -2.6 20.4 -2.55 20.35 -2.5 20.2 -2.65 20.2 -2.6 Q20.05 -2.4 19.9 -2.6 L19.9 -2.75 19.7 -2.75 19.7 -2.7 19.65 -2.65 Q19.5 -2.5 19.4 -2.7 L19.4 -2.75 18.65 -2.75 18.65 -2.7 18.4 -2.65 18.05 -2.75 8.5 -2.7 8.35 -2.8 8.35 -2.85 8.5 -2.95 8.5 -3.0 18.1 -2.95 18.15 -2.95 18.15 -3.0 18.5 -2.95 19.1 -2.95 21.15 -2.8 21.2 -2.9 21.15 -2.95 21.2 -3.0 21.3 -2.95 21.35 -2.95 21.4 -3.0 21.5 -2.95 21.8 -2.95 21.85 -3.0 21.9 -3.0 21.9 -3.1 22.05 -3.3 22.3 -3.15 M20.2 -2.7 L20.25 -2.75 20.2 -2.75 20.2 -2.7 M26.05 -3.2 L26.75 -3.2 26.75 -3.25 27.0 -3.65 27.05 -3.7 27.15 -3.65 27.15 -3.6 27.05 -3.1 27.0 -3.0 26.9 -3.0 25.45 -2.95 25.3 -3.0 25.3 -3.05 26.05 -3.2" fill="#c1c1c1" fill-rule="evenodd" stroke="none"/>
    <path d="M19.1 -2.95 L19.1 -3.0 19.25 -3.15 21.15 -3.0 21.15 -2.95 21.2 -2.9 21.15 -2.8 19.1 -2.95 M22.05 -3.3 L22.0 -3.45 22.05 -3.6 22.35 -3.75 22.4 -3.8 22.7 -3.65 22.75 -3.65 22.75 -3.45 22.65 -3.25 22.55 -3.15 22.5 -3.15 22.3 -3.15 22.05 -3.3 M26.2 -1.65 L26.75 -1.9 26.9 -1.75 Q26.05 -1.1 25.1 -1.35 L26.05 -1.6 26.2 -1.65 M25.3 -3.05 L25.1 -3.15 25.95 -3.4 26.1 -3.25 26.05 -3.2 25.3 -3.05" fill="#fcfcfc" fill-rule="evenodd" stroke="none"/>
  </g>
</svg>
