<?xml version="1.0" encoding="UTF-8" standalone="no"?>
<svg xmlns:xlink="http://www.w3.org/1999/xlink" height="14.1px" width="18.25px" xmlns="http://www.w3.org/2000/svg">
  <g transform="matrix(1.0, 0.0, 0.0, 1.0, 9.15, 7.05)">
    <path d="M5.9 -6.7 L6.1 -6.2 6.35 -5.7 6.5 -5.65 6.85 -5.2 6.85 -4.75 6.9 -4.7 8.8 -4.7 8.95 -4.75 9.05 -4.55 9.1 -4.35 9.0 -3.75 9.0 5.3 7.15 5.3 7.1 5.45 6.15 7.05 -2.05 7.05 -2.5 7.0 -3.25 7.05 -3.7 6.6 -6.4 6.6 -6.65 6.6 -7.2 6.3 -7.4 5.7 -7.5 5.4 -7.6 5.2 -7.8 4.7 -7.8 4.55 -8.75 4.55 -9.0 4.6 -9.0 4.55 -9.05 4.4 -9.0 4.35 -9.15 -3.2 -9.15 -3.3 -9.0 -3.5 -8.8 -3.5 -7.9 -3.5 -7.9 -3.7 Q-7.6 -4.25 -7.4 -5.25 L-7.2 -6.05 -6.75 -6.55 -6.75 -6.6 -3.6 -6.55 -3.35 -6.75 -3.3 -6.85 4.5 -6.85 4.85 -6.95 5.5 -6.9 5.5 -7.05 5.9 -6.7 M6.6 5.4 L6.55 5.35 6.55 -4.6 6.35 -4.95 6.15 -5.0 6.15 -5.2 6.0 -5.4 5.8 -5.85 5.5 -6.6 4.8 -6.6 4.8 -6.5 -3.0 -6.45 -3.2 -6.45 -4.5 -5.0 -5.9 -3.3 -6.0 -3.3 -6.0 -3.2 -8.75 -3.1 -8.75 4.25 -5.45 4.25 -5.4 4.3 -4.7 4.95 -3.7 6.05 -3.45 6.3 -3.4 6.35 -3.1 6.7 5.8 6.7 5.8 6.85 6.45 5.85 6.65 5.45 6.65 5.4 6.6 5.4 M0.8 -1.2 L-2.3 -0.9 -3.95 -0.8 -5.25 -0.85 -5.25 -0.65 -5.15 -0.15 -5.15 1.0 -5.05 1.0 -2.65 1.0 1.25 1.3 2.25 1.7 Q2.7 1.7 2.55 1.85 2.4 1.95 2.6 1.95 L2.9 2.0 3.4 2.2 3.95 2.45 4.05 0.1 3.85 -2.0 1.6 -1.4 0.8 -1.2 M2.25 -0.55 L2.5 -0.55 2.6 -0.1 2.6 0.5 2.45 0.55 2.25 0.1 2.1 -0.35 2.25 -0.55 M-4.45 -1.2 L-2.3 -1.2 -0.25 -1.45 1.65 -1.75 2.25 -1.95 3.15 -2.1 3.35 -2.2 -6.7 -2.2 -5.5 -1.1 -5.5 -1.25 -5.2 -1.25 -4.5 -1.15 -3.95 -1.15 -4.45 -1.2 M4.05 -2.45 L4.1 -2.45 4.35 -1.05 4.25 2.6 4.25 2.8 4.25 2.95 -6.55 3.05 -6.85 2.95 -6.9 2.95 -7.2 3.1 -7.2 -2.45 -7.05 -2.35 -6.65 -2.55 3.85 -2.5 3.9 -2.45 4.05 -2.5 4.05 -2.45 M8.6 -4.4 L6.85 -4.4 6.85 4.9 7.05 4.95 7.1 4.9 7.1 4.95 8.75 5.0 8.7 -3.6 8.6 -4.3 8.6 -4.4 M8.2 -3.7 L7.15 -3.7 7.1 -3.75 7.1 -4.0 7.5 -4.05 8.2 -4.0 8.25 -3.85 8.2 -3.7 M8.1 -1.05 L7.7 -0.95 Q7.35 -0.95 7.35 -1.15 7.35 -1.35 7.75 -1.35 L8.1 -1.05 M8.1 1.6 L8.15 1.75 7.8 1.95 7.45 1.95 7.4 1.8 Q7.4 1.45 7.85 1.6 L8.1 1.6 M7.25 4.2 L8.1 4.2 8.15 4.35 Q8.15 4.55 7.7 4.55 L7.25 4.45 7.25 4.2 M3.1 2.4 L2.45 2.2 1.9 1.95 0.25 1.55 -0.55 1.4 -5.15 1.35 -5.2 1.35 -6.05 2.2 -6.45 2.65 3.7 2.65 3.1 2.4 M-7.15 -4.9 L-7.4 -4.1 -7.55 -3.5 -6.2 -3.5 -6.15 -3.65 -5.85 -3.9 -5.45 -4.4 Q-5.05 -4.65 -4.8 -5.2 L-3.95 -6.0 -3.75 -6.25 -6.5 -6.3 -6.75 -6.05 -6.95 -5.65 -7.15 -4.9 M-6.4 -1.5 L-6.85 -1.85 -6.9 -1.15 -6.9 1.8 -6.85 2.55 -6.7 2.3 -5.7 1.45 -5.5 1.2 -5.55 -0.7 -6.4 -1.5 M-4.85 5.3 L-5.7 4.55 -7.4 4.55 -7.1 5.4 -6.9 6.0 Q-6.75 6.35 -5.95 6.2 L-5.9 6.3 -4.0 6.3 -4.15 6.2 -4.5 5.7 -4.85 5.3" fill="#000000" fill-rule="evenodd" stroke="none"/>
    <path d="M6.65 5.45 L6.45 5.85 5.8 6.85 5.8 6.7 -3.1 6.7 -3.4 6.35 -3.45 6.3 -3.7 6.05 -4.7 4.95 -5.4 4.3 -5.45 4.25 -8.75 4.25 -8.75 -3.1 -6.0 -3.2 -6.0 -3.3 -5.9 -3.3 -4.5 -5.0 -3.2 -6.45 -3.0 -6.45 4.8 -6.5 4.8 -6.6 5.5 -6.6 5.8 -5.85 6.0 -5.4 6.15 -5.2 6.15 -5.0 6.35 -4.95 6.55 -4.6 6.55 5.35 6.6 5.4 6.65 5.45 M4.05 -2.45 L4.05 -2.5 3.9 -2.45 3.85 -2.5 -6.65 -2.55 -7.05 -2.35 -7.2 -2.45 -7.2 3.1 -6.9 2.95 -6.85 2.95 -6.55 3.05 4.25 2.95 4.25 2.8 4.25 2.6 4.35 -1.05 4.1 -2.45 4.05 -2.45" fill="#3e4d33" fill-rule="evenodd" stroke="none"/>
    <path d="M-7.15 -4.9 L-6.95 -5.65 -6.75 -6.05 -6.5 -6.3 -3.75 -6.25 -3.95 -6.0 -4.8 -5.2 Q-5.05 -4.65 -5.45 -4.4 L-5.85 -3.9 -6.15 -3.65 -6.2 -3.5 -7.55 -3.5 -7.4 -4.1 -7.15 -4.9 M-4.85 5.3 L-4.5 5.7 -4.15 6.2 -4.0 6.3 -5.9 6.3 -5.95 6.2 Q-6.75 6.35 -6.9 6.0 L-7.1 5.4 -7.4 4.55 -5.7 4.55 -4.85 5.3" fill="#6b623f" fill-rule="evenodd" stroke="none"/>
    <path d="M-4.5 -1.15 L-5.2 -1.25 -5.5 -1.25 -5.5 -1.1 -6.7 -2.2 3.35 -2.2 3.15 -2.1 2.25 -1.95 1.65 -1.75 -0.25 -1.45 -2.3 -1.2 -4.45 -1.2 -4.5 -1.15 M2.25 -0.55 L2.1 -0.35 2.25 0.1 2.45 0.55 2.6 0.5 2.6 -0.1 2.5 -0.55 2.25 -0.55 M0.8 -1.2 L1.6 -1.4 3.85 -2.0 4.05 0.1 3.95 2.45 3.4 2.2 2.9 2.0 2.6 1.95 Q2.4 1.95 2.55 1.85 2.7 1.7 2.25 1.7 L1.25 1.3 -2.65 1.0 -5.05 1.0 -5.15 1.0 -5.15 -0.15 -5.25 -0.65 -5.25 -0.85 -3.95 -0.8 -2.3 -0.9 0.8 -1.2" fill="#8ca77a" fill-rule="evenodd" stroke="none"/>
    <path d="M3.1 2.4 L3.7 2.65 -6.45 2.65 -6.05 2.2 -5.2 1.35 -5.15 1.35 -0.55 1.4 0.25 1.55 1.9 1.95 2.45 2.2 3.1 2.4 M-6.4 -1.5 L-5.55 -0.7 -5.5 1.2 -5.7 1.45 -6.7 2.3 -6.85 2.55 -6.9 1.8 -6.9 -1.15 -6.85 -1.85 -6.4 -1.5" fill="#668055" fill-rule="evenodd" stroke="none"/>
    <path d="M7.25 4.2 L7.25 4.45 7.7 4.55 Q8.15 4.55 8.15 4.35 L8.1 4.2 7.25 4.2 M8.1 1.6 L7.85 1.6 Q7.4 1.45 7.4 1.8 L7.45 1.95 7.8 1.95 8.15 1.75 8.1 1.6 M8.1 -1.05 L7.75 -1.35 Q7.35 -1.35 7.35 -1.15 7.35 -0.95 7.7 -0.95 L8.1 -1.05 M8.2 -3.7 L8.25 -3.85 8.2 -4.0 7.5 -4.05 7.1 -4.0 7.1 -3.75 7.15 -3.7 8.2 -3.7 M8.6 -4.4 L8.6 -4.3 8.7 -3.6 8.75 5.0 7.1 4.95 7.1 4.9 7.05 4.95 6.85 4.9 6.85 -4.4 8.6 -4.4" fill="#999999" fill-rule="evenodd" stroke="none"/>
  </g>
</svg>
