<?xml version="1.0" encoding="UTF-8" standalone="no"?>
<svg xmlns:xlink="http://www.w3.org/1999/xlink" height="23.4px" width="25.35px" xmlns="http://www.w3.org/2000/svg">
  <g transform="matrix(1.0, 0.0, 0.0, 1.0, -22.4, 14.45)">
    <path d="M25.9 -14.4 L25.95 -14.45 26.0 -14.4 26.05 -14.4 26.1 -13.75 26.7 -7.95 26.7 -7.4 26.85 -7.25 26.9 -7.2 27.2 -5.8 27.8 -7.05 28.0 -6.85 28.0 -6.8 28.05 -6.75 27.9 -5.15 28.15 -4.15 28.2 -4.15 28.4 -4.0 28.0 -3.65 27.8 -3.6 26.9 -2.8 25.95 -2.7 26.25 -2.15 26.3 -2.15 27.2 -2.5 27.45 -2.2 27.8 -2.1 27.85 -1.85 27.95 -1.75 27.95 -1.7 28.0 -1.65 28.45 -1.85 28.6 -1.75 28.6 -1.7 Q28.15 -1.3 27.6 -1.25 L27.45 -1.25 26.7 -1.25 26.65 -1.35 26.6 -1.4 26.4 -1.45 26.2 -0.8 26.1 -0.4 Q25.55 -0.35 25.55 -0.95 L25.55 -1.15 25.3 -0.75 25.1 -0.7 25.1 -0.75 25.05 -0.8 25.05 -0.85 25.1 -1.0 25.1 -1.15 24.1 -1.25 Q23.85 -1.1 23.65 -1.25 L23.45 -1.4 23.5 -1.45 22.45 -1.5 22.45 -1.55 22.5 -1.65 24.75 -1.95 24.6 -2.15 24.15 -2.6 24.15 -2.65 24.25 -2.7 24.3 -2.75 Q24.95 -2.4 25.6 -2.4 L25.6 -2.75 Q24.8 -2.85 24.1 -3.2 L24.2 -3.3 24.25 -3.35 24.2 -3.4 Q24.0 -3.45 23.85 -3.6 L23.9 -3.65 23.8 -3.75 23.35 -4.1 22.4 -4.75 22.45 -4.85 22.55 -4.9 23.55 -4.4 23.6 -4.35 24.2 -3.95 24.25 -4.05 Q23.8 -5.4 23.7 -6.7 L23.65 -7.05 23.4 -8.0 23.45 -8.05 23.5 -8.0 23.6 -8.0 23.6 -7.95 23.65 -7.9 23.7 -7.9 23.95 -7.05 24.35 -6.55 24.4 -6.5 24.3 -6.4 24.3 -6.35 24.8 -5.4 24.85 -5.35 25.15 -5.25 25.25 -5.45 25.2 -5.45 25.05 -5.6 25.5 -7.25 25.8 -10.8 25.85 -10.85 25.85 -11.5 25.85 -12.55 25.85 -13.0 25.9 -13.5 25.9 -14.4 M30.2 -5.25 Q31.25 -5.85 31.9 -6.9 L31.95 -6.85 32.0 -6.95 32.1 -6.9 32.15 -6.85 31.95 -5.8 31.95 -5.7 32.0 -5.65 32.05 -5.6 31.9 -5.15 32.05 -5.2 32.15 -5.15 32.2 -5.1 32.4 -5.05 Q32.8 -5.3 33.2 -5.5 L33.35 -5.4 33.35 -5.35 32.7 -4.7 32.65 -4.65 32.65 -4.6 32.8 -4.55 32.8 -4.5 32.85 -4.4 32.85 -4.35 33.5 -4.25 33.55 -4.2 33.65 -4.15 33.7 -4.1 33.15 -3.35 35.95 -3.0 36.0 -3.0 36.05 -3.05 41.95 -2.4 42.15 -2.35 42.2 -2.4 42.4 -2.35 42.45 -2.35 42.45 -2.3 43.2 -2.15 43.2 -2.2 43.25 -2.2 43.3 -2.25 43.35 -2.25 43.45 -2.2 43.85 -2.15 46.2 -1.95 46.8 -2.05 46.95 -1.95 46.95 -1.9 47.75 -1.8 46.7 -1.65 46.2 -1.55 45.1 -1.55 43.15 -1.55 37.7 -0.5 35.85 -0.15 35.15 0.0 32.55 0.45 32.95 1.1 33.0 1.2 32.3 1.2 32.4 1.3 32.2 1.5 31.9 1.65 31.85 1.6 31.75 1.5 31.75 1.45 31.55 1.25 31.5 1.2 31.05 0.85 30.9 1.0 31.05 1.8 31.1 2.0 31.35 2.35 Q31.1 2.5 30.9 2.2 L30.7 2.25 30.6 2.3 30.1 1.85 Q29.15 1.2 28.65 0.3 L28.6 0.15 Q28.75 -0.35 29.35 -0.55 L29.4 -0.55 29.55 -0.45 29.6 -0.45 29.55 -0.5 29.55 -0.55 28.7 -1.15 28.7 -1.2 28.75 -1.25 28.8 -1.25 28.8 -1.55 28.8 -1.6 29.6 -2.3 28.7 -3.0 28.65 -3.0 Q28.45 -2.95 28.45 -3.1 L28.4 -3.1 Q28.35 -3.5 28.7 -3.9 L28.85 -4.05 28.95 -4.0 28.95 -4.05 29.0 -4.0 29.05 -4.0 30.25 -5.05 30.2 -5.1 30.15 -5.2 30.2 -5.25 M28.8 0.3 L28.75 0.3 29.1 0.6 28.9 0.2 28.85 0.25 28.8 0.3 M27.95 0.15 L27.9 0.3 28.5 1.9 28.5 2.0 28.85 2.7 28.85 2.75 28.75 2.8 28.65 2.75 27.5 1.05 27.0 2.85 26.65 5.8 26.6 6.5 26.6 7.15 26.6 7.85 26.55 7.9 26.35 7.85 26.35 7.6 26.2 7.5 26.25 7.25 26.15 7.2 26.15 7.5 26.35 8.85 26.3 8.9 26.1 8.85 25.8 6.8 25.7 6.7 25.3 2.45 24.35 4.5 24.2 4.45 24.4 3.5 24.35 3.5 Q24.2 3.55 24.15 3.4 L24.6 1.15 24.35 1.4 24.3 1.45 24.05 1.45 23.7 1.9 23.4 2.25 23.25 2.3 23.2 2.15 23.8 1.25 23.75 1.15 24.3 0.1 24.4 0.2 24.85 0.0 24.95 0.1 25.0 0.15 25.0 0.2 25.05 0.2 25.05 0.25 26.15 0.1 27.2 0.0 27.55 0.05 27.6 0.1 27.65 0.05 27.7 0.05 27.75 0.1 27.9 0.1 27.95 0.15" fill="#ffffff" fill-rule="evenodd" stroke="none"/>
  </g>
</svg>
