<?xml version="1.0" encoding="UTF-8" standalone="no"?>
<svg xmlns:xlink="http://www.w3.org/1999/xlink" height="5.1px" width="20.9px" xmlns="http://www.w3.org/2000/svg">
  <g transform="matrix(1.0, 0.0, 0.0, 1.0, 0.05, 4.8)">
    <path d="M0.1 -3.25 L0.15 -3.6 1.0 -3.7 1.0 -3.8 1.05 -3.85 1.1 -3.85 Q1.05 -4.4 1.25 -4.75 L1.25 -4.8 1.3 -4.75 1.35 -4.7 1.4 -3.8 1.5 -3.7 1.55 -3.7 1.75 -3.65 1.8 -3.6 1.85 -3.6 1.85 -3.55 14.75 -3.5 14.75 -3.65 14.65 -3.65 14.7 -3.75 14.8 -3.95 15.45 -4.45 15.5 -4.45 15.6 -4.55 16.1 -4.5 16.2 -4.5 16.2 -4.45 16.25 -4.4 16.35 -4.4 16.4 -4.15 16.3 -4.15 16.35 -4.1 16.45 -4.1 16.7 -3.85 16.6 -3.85 16.55 -3.8 16.6 -3.8 16.8 -3.8 17.6 -3.75 18.15 -3.75 19.1 -3.75 19.2 -3.75 19.6 -3.75 19.2 -3.75 19.2 -3.8 19.75 -4.0 19.85 -4.1 19.9 -4.15 20.15 -4.5 20.55 -4.45 20.6 -4.45 20.7 -4.4 20.75 -4.2 20.75 -4.15 20.75 0.05 20.85 0.1 20.75 0.15 20.75 0.2 20.6 0.25 19.95 0.05 20.0 -0.05 20.0 -0.15 16.5 -0.2 16.45 0.0 16.45 0.05 16.45 0.15 15.75 0.25 15.7 0.2 15.6 0.1 15.55 0.05 15.5 0.05 15.45 0.0 15.45 -0.1 15.1 -0.3 15.0 -0.3 14.85 -0.3 14.75 -0.5 14.75 -0.55 14.7 -0.55 14.55 -0.65 13.9 -0.8 13.75 -0.8 13.65 -0.75 13.45 -0.85 12.85 -0.8 12.85 -0.85 12.55 -0.85 4.25 -0.8 1.6 -0.8 1.55 -0.7 1.45 -0.65 1.4 -0.05 1.4 0.0 1.2 0.0 1.2 -0.3 1.1 -0.35 1.1 -0.45 1.15 -0.5 1.15 -0.6 0.2 -0.65 Q-0.2 -1.4 0.0 -2.3 L0.1 -3.25 M1.3 -3.35 L0.4 -3.3 0.3 -2.35 Q0.2 -1.6 0.35 -0.95 L0.5 -0.9 1.1 -1.1 1.1 -1.55 1.1 -1.7 1.2 -1.75 1.25 -1.8 1.3 -1.75 1.3 -1.8 1.35 -1.75 1.45 -1.75 1.5 -1.75 1.65 -1.1 4.35 -1.05 4.35 -1.1 14.0 -1.05 14.45 -1.05 14.75 -1.05 14.8 -1.05 14.85 -1.1 14.95 -1.0 15.0 -1.05 15.05 -1.1 Q15.35 -0.9 15.25 -0.55 L15.15 -0.5 15.15 -0.45 15.2 -0.5 15.75 -0.15 15.9 -0.05 16.15 -0.1 16.15 -0.15 16.2 -0.3 16.25 -0.35 16.35 -0.5 16.35 -0.55 16.45 -0.6 16.65 -0.5 20.1 -0.5 20.25 -0.35 20.3 -0.3 20.3 -0.15 20.35 -0.1 20.5 -0.05 20.6 -4.1 20.55 -4.15 20.5 -4.2 20.45 -4.15 20.35 -4.15 20.25 -4.15 20.2 -4.05 20.15 -4.0 19.95 -3.8 19.95 -3.7 19.85 -3.55 19.65 -3.5 16.55 -3.55 16.45 -3.55 16.3 -3.55 15.95 -3.85 15.95 -3.9 16.0 -3.95 15.95 -4.2 15.7 -4.2 Q15.65 -3.95 15.2 -3.75 L15.15 -3.65 15.15 -3.55 15.05 -3.35 15.05 -3.3 14.8 -3.3 1.45 -3.25 1.3 -3.35 M19.25 -1.6 L16.0 -1.9 15.95 -2.0 15.9 -2.0 16.0 -2.4 16.35 -2.65 16.35 -2.7 16.4 -2.75 16.45 -2.75 17.2 -2.9 20.1 -2.45 20.15 -2.4 20.2 -2.35 20.15 -2.3 20.15 -2.25 20.1 -2.1 19.65 -1.8 19.4 -1.75 19.4 -1.7 19.4 -1.65 19.25 -1.6 M16.25 -2.05 L16.25 -2.0 19.65 -2.1 19.7 -2.2 19.75 -2.2 Q19.55 -2.45 18.95 -2.5 L17.15 -2.6 17.05 -2.55 16.7 -2.55 16.55 -2.45 16.25 -2.3 16.2 -2.25 16.2 -2.15 16.25 -2.05 M13.95 -0.8 L13.9 -0.8 13.95 -0.8" fill="#000000" fill-rule="evenodd" stroke="none"/>
    <path d="M1.3 -3.35 L1.45 -3.25 14.8 -3.3 15.05 -3.3 15.05 -3.35 15.15 -3.55 15.15 -3.65 15.2 -3.75 Q15.65 -3.95 15.7 -4.2 L15.95 -4.2 16.0 -3.95 15.95 -3.9 15.95 -3.85 16.3 -3.55 16.45 -3.55 16.55 -3.55 19.65 -3.5 19.85 -3.55 19.95 -3.7 19.95 -3.8 20.15 -4.0 20.2 -4.05 20.25 -4.15 20.35 -4.15 20.45 -4.15 20.5 -4.2 20.55 -4.15 20.6 -4.1 20.5 -0.05 20.35 -0.1 20.3 -0.15 20.3 -0.3 20.25 -0.35 20.1 -0.5 16.65 -0.5 16.45 -0.6 16.35 -0.55 16.35 -0.5 16.25 -0.35 16.2 -0.3 16.15 -0.15 16.15 -0.1 15.9 -0.05 15.75 -0.15 15.2 -0.5 15.15 -0.45 15.15 -0.5 15.25 -0.55 Q15.35 -0.9 15.05 -1.1 L15.0 -1.05 14.95 -1.0 14.85 -1.1 14.8 -1.05 14.75 -1.05 14.45 -1.05 14.0 -1.05 4.35 -1.1 4.35 -1.05 1.65 -1.1 1.5 -1.75 1.45 -1.75 1.35 -1.75 1.3 -1.8 1.3 -1.75 1.25 -1.8 1.2 -1.75 1.1 -1.7 1.1 -1.55 1.1 -1.1 0.5 -0.9 0.35 -0.95 Q0.2 -1.6 0.3 -2.35 L0.4 -3.3 1.3 -3.35 M12.3 -2.95 L11.7 -2.95 11.35 -3.0 11.35 -2.95 11.3 -2.95 1.7 -3.0 1.7 -2.95 Q1.6 -3.0 1.55 -2.85 L1.55 -2.8 1.7 -2.7 11.25 -2.75 11.6 -2.65 Q11.7 -2.5 11.85 -2.7 L11.85 -2.75 12.6 -2.75 12.6 -2.7 12.85 -2.65 12.9 -2.7 12.9 -2.75 13.1 -2.75 13.1 -2.6 Q13.25 -2.4 13.4 -2.6 L13.4 -2.65 13.55 -2.5 13.6 -2.55 13.8 -2.6 14.05 -2.6 14.15 -2.6 14.2 -2.6 14.35 -2.6 14.5 -2.55 14.75 -2.6 15.2 -2.65 15.25 -2.7 15.4 -2.8 15.4 -2.9 15.45 -2.95 15.5 -3.15 15.7 -3.15 15.75 -3.15 15.85 -3.25 15.95 -3.45 15.95 -3.65 15.9 -3.65 15.6 -3.8 15.55 -3.75 15.25 -3.6 15.2 -3.45 15.25 -3.3 15.1 -3.1 15.1 -3.0 15.05 -3.0 15.0 -2.95 14.7 -2.95 14.6 -3.0 14.55 -2.95 14.5 -2.95 14.4 -3.0 14.35 -2.95 14.35 -3.0 12.45 -3.15 12.3 -3.0 12.3 -2.95 M13.4 -2.7 L13.4 -2.75 13.45 -2.75 13.4 -2.7 M19.4 -1.65 L19.4 -1.7 19.4 -1.75 19.65 -1.8 20.1 -2.1 20.15 -2.25 20.15 -2.3 20.2 -2.35 20.15 -2.4 20.1 -2.45 17.2 -2.9 16.45 -2.75 16.4 -2.75 16.35 -2.7 16.35 -2.65 16.0 -2.4 15.9 -2.0 15.95 -2.0 16.0 -1.9 19.25 -1.6 18.3 -1.35 Q19.25 -1.1 20.1 -1.75 L19.95 -1.9 19.4 -1.65 M18.5 -3.05 L18.5 -3.0 18.65 -2.95 20.1 -3.0 20.2 -3.0 20.25 -3.1 20.35 -3.6 20.35 -3.65 20.25 -3.7 20.2 -3.65 19.95 -3.25 19.95 -3.2 19.25 -3.2 19.3 -3.25 19.15 -3.4 18.3 -3.15 18.5 -3.05" fill="#333333" fill-rule="evenodd" stroke="none"/>
    <path d="M15.5 -3.15 L15.45 -2.95 15.4 -2.9 15.4 -2.8 15.25 -2.7 15.2 -2.65 14.75 -2.6 14.5 -2.55 14.35 -2.6 14.2 -2.6 14.15 -2.6 14.05 -2.6 13.8 -2.6 13.6 -2.55 13.55 -2.5 13.4 -2.65 13.4 -2.6 Q13.25 -2.4 13.1 -2.6 L13.1 -2.75 12.9 -2.75 12.9 -2.7 12.85 -2.65 12.6 -2.7 12.6 -2.75 11.85 -2.75 11.85 -2.7 Q11.7 -2.5 11.6 -2.65 L11.25 -2.75 1.7 -2.7 1.55 -2.8 1.55 -2.85 Q1.6 -3.0 1.7 -2.95 L1.7 -3.0 11.3 -2.95 11.35 -2.95 11.35 -3.0 11.7 -2.95 12.3 -2.95 14.35 -2.8 14.4 -2.9 14.35 -2.95 14.4 -3.0 14.5 -2.95 14.55 -2.95 14.6 -3.0 14.7 -2.95 15.0 -2.95 15.05 -3.0 15.1 -3.0 15.1 -3.1 15.25 -3.3 15.5 -3.15 M13.4 -2.7 L13.45 -2.75 13.4 -2.75 13.4 -2.7 M19.25 -3.2 L19.95 -3.2 19.95 -3.25 20.2 -3.65 20.25 -3.7 20.35 -3.65 20.35 -3.6 20.25 -3.1 20.2 -3.0 20.1 -3.0 18.65 -2.95 18.5 -3.0 18.5 -3.05 19.25 -3.2" fill="#c1c1c1" fill-rule="evenodd" stroke="none"/>
    <path d="M12.3 -2.95 L12.3 -3.0 12.45 -3.15 14.35 -3.0 14.35 -2.95 14.4 -2.9 14.35 -2.8 12.3 -2.95 M15.25 -3.3 L15.2 -3.45 15.25 -3.6 15.55 -3.75 15.6 -3.8 15.9 -3.65 15.95 -3.65 15.95 -3.45 15.85 -3.25 15.75 -3.15 15.7 -3.15 15.5 -3.15 15.25 -3.3 M19.4 -1.65 L19.95 -1.9 20.1 -1.75 Q19.25 -1.1 18.3 -1.35 L19.25 -1.6 19.4 -1.65 M18.5 -3.05 L18.3 -3.15 19.15 -3.4 19.3 -3.25 19.25 -3.2 18.5 -3.05" fill="#fcfcfc" fill-rule="evenodd" stroke="none"/>
  </g>
</svg>
