<?xml version="1.0" encoding="UTF-8" standalone="no"?>
<svg xmlns:xlink="http://www.w3.org/1999/xlink" height="25.9px" width="18.25px" xmlns="http://www.w3.org/2000/svg">
  <g transform="matrix(1.0, 0.0, 0.0, 1.0, -8.2, -3.95)">
    <path d="M14.25 29.85 L11.35 29.85 11.3 29.5 Q11.3 29.0 11.85 27.7 L12.15 27.3 12.5 27.25 12.6 27.15 12.7 27.15 12.8 26.95 12.7 26.7 12.7 26.6 14.5 27.35 14.45 27.6 14.45 28.6 14.25 29.55 14.25 29.85 M11.1 29.85 L9.35 29.85 9.3 28.95 Q9.3 28.45 10.0 27.25 L10.15 27.1 10.3 26.7 10.55 26.5 10.55 26.75 10.7 26.85 10.7 26.95 11.1 27.15 11.85 27.3 11.8 27.45 Q11.2 28.45 11.1 29.1 L11.1 29.15 11.0 29.6 11.1 29.85 M15.15 7.4 L15.15 7.55 15.2 7.55 15.2 7.6 15.35 7.7 15.5 7.8 15.55 7.8 15.7 7.9 Q16.25 8.35 16.25 9.1 L15.95 9.25 15.8 9.25 15.75 9.25 15.7 9.3 15.7 9.4 15.15 9.3 14.45 9.3 14.25 9.3 13.1 9.05 12.5 8.7 12.25 8.35 12.05 7.7 11.8 7.15 11.8 7.05 11.75 7.05 11.75 7.0 12.25 7.0 13.5 7.2 13.5 7.35 13.7 7.55 13.75 7.35 13.9 7.15 14.45 7.6 14.85 7.95 15.0 7.75 15.05 7.5 15.2 7.2 15.2 7.35 15.15 7.4 M10.85 10.95 L10.5 11.15 10.5 11.0 10.5 10.9 11.3 10.95 10.85 10.95 M10.45 11.5 L11.8 11.35 Q12.25 11.45 12.35 11.95 L12.4 12.65 12.05 13.45 11.85 14.0 12.0 14.65 12.05 15.3 11.85 16.25 11.85 16.35 11.45 17.45 11.1 18.05 11.1 18.1 11.0 17.95 10.9 18.15 11.0 18.25 11.0 18.3 11.05 18.5 11.25 19.0 11.3 19.15 11.45 19.4 11.95 20.55 11.85 21.8 11.85 22.95 11.85 23.2 11.95 24.05 12.0 24.4 12.05 24.6 12.15 24.8 12.05 24.8 12.4 25.05 12.95 25.55 12.95 25.6 12.9 25.6 12.7 25.6 12.55 25.75 12.4 25.95 12.4 26.2 12.4 26.35 12.4 26.7 12.5 26.9 12.4 26.95 12.35 26.95 12.05 26.95 11.8 26.9 Q10.9 26.9 10.85 26.6 L10.85 26.2 10.85 25.95 10.85 25.8 11.2 25.25 11.25 25.2 11.25 25.0 11.4 24.85 11.4 24.8 11.4 24.65 10.45 22.6 10.35 22.4 9.6 20.7 9.6 19.8 9.7 19.6 9.7 19.45 9.75 19.4 9.6 19.25 9.55 19.0 9.55 18.8 9.6 18.65 9.55 18.6 9.55 18.5 9.4 18.4 9.6 18.25 9.6 18.15 9.6 17.5 9.7 16.45 9.9 15.65 9.95 15.4 10.15 15.2 10.1 14.85 10.1 14.7 9.95 14.45 9.9 14.15 10.1 13.9 10.1 13.75 10.15 13.8 10.1 13.7 10.15 13.45 10.15 13.35 10.1 13.25 10.1 12.8 10.1 11.95 10.3 11.65 10.35 11.5 10.45 11.5 M12.9 12.3 L12.9 12.45 12.95 15.6 12.55 16.0 12.05 16.2 12.25 15.4 12.25 14.55 12.2 14.5 12.25 14.15 12.2 13.75 12.35 13.55 12.6 12.7 12.55 11.65 12.7 11.85 12.9 12.3 M10.0 22.75 L10.1 22.65 10.15 22.65 10.25 22.8 10.55 23.4 10.7 23.85 11.2 24.85 10.1 24.45 10.0 23.55 10.0 22.8 10.0 22.75 M11.1 14.55 L11.05 14.55 10.7 15.8 10.7 15.95 10.35 17.0 10.35 17.7 10.45 17.5 10.55 16.95 10.65 16.15 10.7 16.0 10.75 15.85 11.1 14.65 11.1 14.55 M12.2 23.95 L12.15 23.35 13.15 23.55 13.3 23.4 13.3 23.3 Q13.45 23.3 14.1 23.65 L14.0 23.95 14.0 25.0 14.0 25.05 14.2 25.05 14.4 25.25 14.75 25.8 14.75 26.0 14.5 26.0 13.35 25.8 13.3 25.8 13.35 25.75 13.35 25.65 13.25 25.45 12.7 24.9 12.4 24.7 12.2 23.95 M10.15 26.15 L10.45 26.15 10.3 26.2 10.3 26.3 10.25 26.4 10.15 26.55 10.15 26.5 10.15 26.15" fill="#ffead5" fill-rule="evenodd" stroke="none"/>
    <path d="M9.35 29.85 L9.1 29.85 9.05 29.5 9.05 29.35 8.95 29.1 9.05 28.6 9.05 28.55 9.95 26.9 10.0 26.9 9.95 26.85 9.95 26.75 9.95 26.6 9.95 26.55 9.9 26.1 9.15 25.95 9.0 25.95 8.8 25.85 8.75 25.85 Q8.1 25.6 8.25 25.2 8.3 25.05 8.4 25.15 L8.4 25.05 8.3 24.9 8.75 24.3 8.85 24.4 9.7 24.25 9.75 24.3 9.75 23.9 9.75 22.65 9.7 22.65 9.5 22.55 9.4 22.45 9.3 22.55 9.2 22.6 8.95 22.25 8.8 22.25 8.75 22.15 8.75 21.9 8.8 19.65 8.8 19.6 8.95 18.05 8.85 18.1 8.8 18.1 8.95 17.85 8.95 17.65 8.95 17.1 8.85 16.45 8.8 15.8 8.95 14.65 9.0 13.6 9.05 13.05 9.15 12.5 9.2 12.25 9.15 12.3 8.65 13.05 8.3 13.4 8.25 13.35 8.25 13.25 8.65 11.65 9.15 10.2 9.05 10.25 9.0 10.25 Q8.95 10.25 8.85 10.35 L8.55 10.4 8.45 10.4 8.45 10.35 8.85 9.45 Q9.3 8.55 9.5 8.35 L9.4 8.35 8.85 8.3 8.8 8.25 8.8 8.1 8.95 7.8 9.0 7.55 9.0 7.35 8.95 7.2 8.95 7.05 9.2 7.05 9.4 6.6 9.2 6.4 8.95 6.1 9.15 6.0 9.35 5.7 9.35 5.3 Q9.4 4.95 9.75 5.3 L9.9 5.5 10.15 5.15 11.0 4.4 14.25 4.5 Q14.6 4.6 14.95 5.0 L15.4 5.65 15.8 6.3 16.1 6.75 16.0 6.85 15.95 6.95 15.8 6.85 15.5 6.75 15.55 6.85 15.6 6.95 15.6 7.0 15.6 7.15 15.6 7.2 15.5 7.25 15.5 7.4 15.5 7.55 15.75 7.7 16.15 7.95 16.25 8.15 16.35 8.7 16.5 9.2 16.45 9.4 16.0 9.45 16.15 10.15 16.25 11.2 16.25 11.35 16.15 11.45 15.95 11.35 15.9 11.3 15.9 11.75 15.7 12.2 16.15 12.85 16.45 13.7 16.35 13.8 16.25 13.8 16.15 13.75 16.15 14.0 15.95 14.2 15.8 15.05 15.75 15.25 15.6 15.8 15.7 16.35 15.7 16.95 15.7 17.3 15.7 17.55 15.75 19.35 15.8 20.9 15.75 21.5 15.7 22.2 15.7 22.4 15.7 22.95 15.75 22.95 15.75 23.0 15.7 23.0 15.7 23.4 15.7 23.5 15.7 23.9 15.7 23.95 15.75 24.05 15.7 24.15 15.6 24.15 14.5 23.75 14.45 23.75 14.4 24.5 14.25 24.85 14.45 25.05 15.0 25.75 15.05 26.1 16.0 26.0 16.35 26.15 Q16.45 26.0 16.7 25.95 L17.3 25.95 18.25 26.2 18.45 26.3 19.1 26.2 19.75 26.15 20.3 26.15 20.95 26.55 21.6 26.4 22.35 26.55 22.45 26.55 22.7 26.85 23.05 27.1 23.7 27.1 24.35 27.35 24.7 27.65 Q26.45 28.6 26.45 29.85 L26.15 29.85 25.95 29.4 25.55 28.45 24.0 27.6 23.8 27.45 23.65 27.3 22.95 27.3 Q22.5 27.15 22.3 26.85 L20.85 26.85 20.25 26.4 19.3 26.4 18.35 26.5 18.05 26.4 17.65 26.5 17.25 26.15 16.75 26.2 16.35 26.15 16.3 26.3 15.05 26.2 14.75 26.15 14.65 26.15 13.3 26.1 12.75 25.85 12.7 26.35 13.75 26.85 14.6 27.15 Q14.75 27.15 14.95 27.3 L15.6 27.6 15.9 27.5 16.3 27.85 16.65 27.85 17.25 27.9 17.95 28.35 18.8 29.15 18.9 29.1 19.85 29.4 Q20.35 29.55 20.65 29.85 L19.75 29.85 19.2 29.6 18.8 29.5 18.75 29.4 17.95 28.8 17.2 28.2 16.65 28.1 16.25 28.2 16.15 28.1 15.95 28.05 15.9 28.0 15.95 28.0 15.9 27.9 15.7 27.8 15.6 27.85 14.85 27.5 14.75 28.55 14.5 29.85 14.25 29.85 14.25 29.55 14.45 28.6 14.45 27.6 14.5 27.35 12.7 26.6 12.7 26.7 12.8 26.95 12.7 27.15 12.6 27.15 12.5 27.25 12.15 27.3 11.85 27.7 Q11.3 29.0 11.3 29.5 L11.35 29.85 11.1 29.85 11.0 29.6 11.1 29.15 11.1 29.1 Q11.2 28.45 11.8 27.45 L11.85 27.3 11.1 27.15 10.7 26.95 10.7 26.85 10.55 26.75 10.55 26.5 10.3 26.7 10.15 27.1 10.0 27.25 Q9.3 28.45 9.3 28.95 L9.35 29.85 M10.9 4.7 L10.65 5.0 10.3 5.45 10.25 5.55 9.95 5.9 9.9 5.9 9.7 5.75 9.55 5.65 9.6 5.9 9.6 6.05 9.4 6.2 9.55 6.3 9.6 6.4 9.7 6.5 9.55 6.95 9.3 7.35 9.3 7.55 9.2 7.8 9.05 8.0 9.7 8.25 9.8 8.3 9.5 8.9 8.85 9.95 8.85 10.0 9.05 9.85 9.4 9.85 Q9.55 9.85 9.55 9.95 L9.55 10.05 9.2 11.0 8.95 11.65 8.75 12.45 9.05 11.95 9.2 11.85 9.2 11.65 9.35 11.5 9.7 10.95 9.6 10.9 9.7 10.9 9.75 10.75 9.8 10.75 9.8 10.8 10.45 10.8 10.7 10.8 11.65 10.9 12.15 11.15 12.35 11.35 12.4 11.35 Q12.9 11.65 13.15 12.4 L13.5 13.0 13.75 13.9 13.9 13.55 13.9 13.35 13.85 13.0 13.9 13.0 13.9 12.95 14.0 13.0 14.45 14.3 14.6 13.8 15.15 15.3 15.4 16.25 15.4 15.8 15.4 15.5 15.5 15.1 15.55 14.75 15.6 14.5 15.55 14.35 15.5 14.15 15.5 14.1 Q15.55 14.0 15.7 14.0 L15.6 13.8 15.75 13.75 15.8 13.75 15.9 13.8 15.8 13.55 15.75 13.35 Q15.75 13.2 15.9 13.2 L15.95 13.25 15.6 12.5 15.5 12.3 15.0 11.7 15.0 11.65 Q15.0 11.55 15.15 11.55 L15.2 11.65 15.25 11.55 15.35 11.55 15.4 11.65 15.4 11.7 15.55 11.7 15.6 11.75 15.6 11.15 15.6 11.0 15.75 10.9 15.9 10.95 15.95 11.0 15.95 10.8 15.95 10.55 15.9 10.35 15.75 9.75 15.75 9.65 15.25 9.65 14.05 9.45 12.7 9.2 12.2 8.9 12.15 8.75 12.05 8.65 12.05 8.45 11.8 7.7 11.65 7.35 11.45 7.2 11.25 7.15 11.1 7.15 11.05 7.15 11.05 7.05 11.2 7.0 Q11.2 6.65 12.05 6.75 L12.8 6.75 13.3 6.85 13.45 6.95 13.65 6.95 13.75 6.95 13.85 6.85 14.1 6.95 14.4 7.2 14.6 7.4 14.8 7.55 14.95 7.15 15.0 6.85 15.0 6.65 15.15 6.65 15.4 6.4 15.5 6.45 15.6 6.45 14.95 5.35 14.8 5.25 14.45 4.9 13.75 4.55 13.1 4.35 11.5 4.5 11.4 4.6 11.25 4.55 10.9 4.7 M15.15 7.4 L15.2 7.35 15.2 7.2 15.05 7.5 15.0 7.75 14.85 7.95 14.45 7.6 13.9 7.15 13.75 7.35 13.7 7.55 13.5 7.35 13.5 7.2 12.25 7.0 11.75 7.0 11.75 7.05 11.8 7.05 11.8 7.15 12.05 7.7 12.25 8.35 12.5 8.7 13.1 9.05 14.25 9.3 14.45 9.3 15.15 9.3 15.7 9.4 15.7 9.3 15.75 9.25 15.8 9.25 15.95 9.25 16.25 9.1 Q16.25 8.35 15.7 7.9 L15.55 7.8 15.5 7.8 15.35 7.7 15.2 7.6 15.2 7.55 15.15 7.55 15.15 7.4 M10.45 11.5 L10.35 11.5 10.3 11.65 10.1 11.95 10.1 12.8 10.1 13.25 10.15 13.35 10.15 13.45 10.1 13.7 10.15 13.8 10.1 13.75 10.1 13.9 9.9 14.15 9.95 14.45 10.1 14.7 10.1 14.85 10.15 15.2 9.95 15.4 9.9 15.65 9.7 16.45 9.6 17.5 9.6 18.15 9.6 18.25 9.4 18.4 9.55 18.5 9.55 18.6 9.6 18.65 9.55 18.8 9.55 19.0 9.6 19.25 9.75 19.4 9.7 19.45 9.7 19.6 9.6 19.8 9.6 20.7 10.35 22.4 10.45 22.6 11.4 24.65 11.4 24.8 11.4 24.85 11.25 25.0 11.25 25.2 11.2 25.25 10.85 25.8 10.85 25.95 10.85 26.2 10.85 26.6 Q10.9 26.9 11.8 26.9 L12.05 26.95 12.35 26.95 12.4 26.95 12.5 26.9 12.4 26.7 12.4 26.35 12.4 26.2 12.4 25.95 12.55 25.75 12.7 25.6 12.9 25.6 12.95 25.6 12.95 25.55 12.4 25.05 12.05 24.8 12.15 24.8 12.05 24.6 12.0 24.4 11.95 24.05 11.85 23.2 11.85 22.95 11.85 21.8 11.95 20.55 11.45 19.4 11.3 19.15 11.25 19.0 11.05 18.5 11.0 18.3 11.0 18.25 10.9 18.15 11.0 17.95 11.1 18.1 11.1 18.05 11.45 17.45 11.85 16.35 11.85 16.25 12.05 15.3 12.0 14.65 11.85 14.0 12.05 13.45 12.4 12.65 12.35 11.95 Q12.25 11.45 11.8 11.35 L10.45 11.5 M10.85 10.95 L11.3 10.95 10.5 10.9 10.5 11.0 10.5 11.15 10.85 10.95 M10.3 11.35 L10.45 10.9 9.8 10.9 9.5 11.5 9.55 11.65 9.5 11.7 9.55 11.7 9.55 11.85 9.3 13.25 9.05 15.8 9.05 16.45 9.2 17.1 9.15 17.95 9.05 19.0 9.05 20.7 8.95 21.9 9.05 22.0 9.3 22.05 9.5 22.2 9.55 22.25 9.7 22.25 9.75 22.25 9.95 22.35 10.0 22.4 9.75 21.7 9.5 20.9 9.35 20.7 9.35 20.55 9.3 19.95 9.35 19.6 9.4 19.4 9.3 19.35 9.2 19.25 9.2 19.0 9.3 18.9 9.4 18.65 9.2 18.45 9.2 18.3 9.35 18.15 9.3 17.9 9.35 17.1 9.35 17.0 9.4 16.4 9.5 16.05 9.6 15.6 9.75 15.3 9.7 14.65 9.55 14.2 Q9.55 14.0 9.7 13.75 L9.8 13.4 9.9 13.35 9.75 13.2 9.8 12.5 Q9.9 11.75 10.1 11.55 10.1 11.5 10.25 11.45 L10.3 11.35 M12.9 12.3 L12.7 11.85 12.55 11.65 12.6 12.7 12.35 13.55 12.2 13.75 12.25 14.15 12.2 14.5 12.25 14.55 12.25 15.4 12.05 16.2 12.55 16.0 12.95 15.6 12.9 12.45 12.9 12.3 M10.0 22.75 L10.0 22.8 10.0 23.55 10.1 24.45 11.2 24.85 10.7 23.85 10.55 23.4 10.25 22.8 10.15 22.65 10.1 22.65 10.0 22.75 M9.0 24.7 L8.85 24.7 8.65 25.05 8.8 25.05 Q8.55 25.4 8.75 25.55 L9.05 25.8 9.9 25.85 10.15 25.85 10.35 25.85 10.55 25.95 10.65 25.95 Q10.7 25.45 10.9 25.15 L11.0 25.05 9.6 24.45 9.0 24.7 M15.4 17.75 L15.4 17.55 15.35 17.55 15.35 17.5 15.35 16.7 15.15 15.85 14.75 14.65 14.8 14.55 14.75 14.35 14.65 14.15 14.6 14.2 14.6 14.35 14.45 14.5 14.4 14.5 14.2 13.9 14.0 13.4 14.0 13.75 13.75 14.15 13.5 13.2 13.25 12.8 13.15 12.65 13.15 12.95 13.15 13.0 12.95 12.6 13.0 13.95 13.0 15.4 12.8 15.95 12.05 16.35 11.85 17.0 11.75 17.35 11.5 17.95 11.3 18.3 11.5 18.7 11.45 19.0 11.5 19.05 12.05 20.2 12.15 20.55 12.15 20.75 12.05 21.45 12.05 22.6 12.05 22.95 13.0 23.2 13.0 23.0 13.15 22.95 14.1 23.3 14.45 23.4 14.65 23.5 15.4 23.85 15.5 22.9 14.75 22.25 14.4 21.9 14.1 21.3 14.1 21.25 14.2 21.15 14.2 21.05 14.1 20.9 14.2 20.85 14.4 20.85 14.5 20.75 15.0 20.65 14.65 20.4 14.45 20.2 Q14.45 19.95 14.75 19.65 L15.5 19.55 15.5 19.0 15.5 18.15 15.4 17.75 M11.1 14.55 L11.1 14.65 10.75 15.85 10.7 16.0 10.65 16.15 10.55 16.95 10.45 17.5 10.35 17.7 10.35 17.0 10.7 15.95 10.7 15.8 11.05 14.55 11.1 14.55 M11.25 18.45 L11.25 18.5 11.4 18.9 11.45 18.7 11.3 18.4 11.25 18.45 M14.85 15.95 L15.0 16.15 15.15 16.45 15.15 16.6 15.05 17.1 14.65 17.55 Q14.2 17.55 14.0 17.2 L13.9 16.8 13.9 16.7 13.85 16.6 13.75 16.45 Q13.75 16.35 14.1 16.0 L14.45 15.8 14.45 15.7 14.85 15.95 M14.25 16.05 L14.25 16.0 14.2 16.05 14.1 16.15 14.05 16.25 13.9 16.55 14.0 16.55 14.05 16.4 14.0 16.6 14.05 16.6 14.1 16.7 14.1 16.75 14.05 16.75 14.0 16.7 14.0 16.8 Q14.0 17.35 14.65 17.35 L14.95 17.1 15.0 16.7 14.95 16.15 Q14.75 15.85 14.4 16.0 L14.25 16.05 M15.0 19.65 L14.85 19.65 Q14.75 19.65 14.6 20.2 L14.85 20.4 15.15 20.7 14.95 20.75 14.75 20.85 14.5 20.85 14.4 20.9 14.25 20.95 14.25 21.15 14.25 21.25 14.4 21.6 15.0 22.25 15.5 22.65 15.5 22.25 15.55 20.9 15.5 20.1 15.5 19.75 15.0 19.65 M12.2 23.95 L12.4 24.7 12.7 24.9 13.25 25.45 13.35 25.65 13.35 25.75 13.3 25.8 13.35 25.8 14.5 26.0 14.75 26.0 14.75 25.8 14.4 25.25 14.2 25.05 14.0 25.05 14.0 25.0 14.0 23.95 14.1 23.65 Q13.45 23.3 13.3 23.3 L13.3 23.4 13.15 23.55 12.15 23.35 12.2 23.95 M19.15 28.45 L18.7 28.2 18.75 28.05 19.1 28.1 19.3 28.4 19.3 28.45 19.15 28.45 M10.15 26.15 L10.15 26.5 10.15 26.55 10.25 26.4 10.3 26.3 10.3 26.2 10.45 26.15 10.15 26.15 M21.9 27.45 L22.35 27.8 22.95 27.8 23.45 27.9 23.4 28.1 22.35 28.0 21.95 27.9 21.6 27.5 21.9 27.45" fill="#000000" fill-rule="evenodd" stroke="none"/>
    <path d="M10.9 4.7 L11.25 4.55 11.4 4.6 11.5 4.5 13.1 4.35 13.75 4.55 14.45 4.9 14.8 5.25 14.95 5.35 15.6 6.45 15.5 6.45 15.4 6.4 15.15 6.65 15.0 6.65 15.0 6.85 14.95 7.15 14.8 7.55 14.6 7.4 14.4 7.2 14.1 6.95 13.85 6.85 13.75 6.95 13.65 6.95 13.45 6.95 13.3 6.85 12.8 6.75 12.05 6.75 Q11.2 6.65 11.2 7.0 L11.05 7.05 11.05 7.15 11.1 7.15 11.25 7.15 11.45 7.2 11.65 7.35 11.8 7.7 12.05 8.45 12.05 8.65 12.15 8.75 12.2 8.9 12.7 9.2 14.05 9.45 15.25 9.65 15.75 9.65 15.75 9.75 15.9 10.35 15.95 10.55 15.95 10.8 15.95 11.0 15.9 10.95 15.75 10.9 15.6 11.0 15.6 11.15 15.6 11.75 15.55 11.7 15.4 11.7 15.4 11.65 15.35 11.55 15.25 11.55 15.2 11.65 15.15 11.55 Q15.0 11.55 15.0 11.65 L15.0 11.7 15.5 12.3 15.6 12.5 15.95 13.25 15.9 13.2 Q15.75 13.2 15.75 13.35 L15.8 13.55 15.9 13.8 15.8 13.75 15.75 13.75 15.6 13.8 15.7 14.0 Q15.55 14.0 15.5 14.1 L15.5 14.15 15.55 14.35 15.6 14.5 15.55 14.75 15.5 15.1 15.4 15.5 15.4 15.8 15.4 16.25 15.15 15.3 14.6 13.8 14.45 14.3 14.0 13.0 13.9 12.95 13.9 13.0 13.85 13.0 13.9 13.35 13.9 13.55 13.75 13.9 13.5 13.0 13.15 12.4 Q12.9 11.65 12.4 11.35 L12.35 11.35 12.15 11.15 11.65 10.9 10.7 10.8 10.45 10.8 9.8 10.8 9.8 10.75 9.75 10.75 9.7 10.9 9.6 10.9 9.7 10.95 9.35 11.5 9.2 11.65 9.2 11.85 9.05 11.95 8.75 12.45 8.95 11.65 9.2 11.0 9.55 10.05 9.55 9.95 Q9.55 9.85 9.4 9.85 L9.05 9.85 8.85 10.0 8.85 9.95 9.5 8.9 9.8 8.3 9.7 8.25 9.05 8.0 9.2 7.8 9.3 7.55 9.3 7.35 9.55 6.95 9.7 6.5 9.6 6.4 9.55 6.3 9.4 6.2 9.6 6.05 9.6 5.9 9.55 5.65 9.7 5.75 9.9 5.9 9.95 5.9 10.25 5.55 10.3 5.45 10.65 5.0 10.9 4.7" fill="#605142" fill-rule="evenodd" stroke="none"/>
    <path d="M10.3 11.35 L10.25 11.45 Q10.1 11.5 10.1 11.55 9.9 11.75 9.8 12.5 L9.75 13.2 9.9 13.35 9.8 13.4 9.7 13.75 Q9.55 14.0 9.55 14.2 L9.7 14.65 9.75 15.3 9.6 15.6 9.5 16.05 9.4 16.4 9.35 17.0 9.35 17.1 9.3 17.9 9.35 18.15 9.2 18.3 9.2 18.45 9.4 18.65 9.3 18.9 9.2 19.0 9.2 19.25 9.3 19.35 9.4 19.4 9.35 19.6 9.3 19.95 9.35 20.55 9.35 20.7 9.5 20.9 9.75 21.7 10.0 22.4 9.95 22.35 9.75 22.25 9.7 22.25 9.55 22.25 9.5 22.2 9.3 22.05 9.05 22.0 8.95 21.9 9.05 20.7 9.05 19.0 9.15 17.95 9.2 17.1 9.05 16.45 9.05 15.8 9.3 13.25 9.55 11.85 9.55 11.7 9.5 11.7 9.55 11.65 9.5 11.5 9.8 10.9 10.45 10.9 10.3 11.35 M15.4 17.75 L15.5 18.15 15.5 19.0 15.5 19.55 14.75 19.65 Q14.45 19.95 14.45 20.2 L14.65 20.4 15.0 20.65 14.5 20.75 14.4 20.85 14.2 20.85 14.1 20.9 14.2 21.05 14.2 21.15 14.1 21.25 14.1 21.3 14.4 21.9 14.75 22.25 15.5 22.9 15.4 23.85 14.65 23.5 14.45 23.4 14.1 23.3 13.15 22.95 13.0 23.0 13.0 23.2 12.05 22.95 12.05 22.6 12.05 21.45 12.15 20.75 12.15 20.55 12.05 20.2 11.5 19.05 11.45 19.0 11.5 18.7 11.3 18.3 11.5 17.95 11.75 17.35 11.85 17.0 12.05 16.35 12.8 15.95 13.0 15.4 13.0 13.95 12.95 12.6 13.15 13.0 13.15 12.95 13.15 12.65 13.25 12.8 13.5 13.2 13.75 14.15 14.0 13.75 14.0 13.4 14.2 13.9 14.4 14.5 14.45 14.5 14.6 14.35 14.6 14.2 14.65 14.15 14.75 14.35 14.8 14.55 14.75 14.65 15.15 15.85 15.35 16.7 15.35 17.5 15.35 17.55 15.4 17.55 15.4 17.75 M14.85 15.95 L14.45 15.7 14.45 15.8 14.1 16.0 Q13.75 16.35 13.75 16.45 L13.85 16.6 13.9 16.7 13.9 16.8 14.0 17.2 Q14.2 17.55 14.65 17.55 L15.05 17.1 15.15 16.6 15.15 16.45 15.0 16.15 14.85 15.95" fill="#d9b83e" fill-rule="evenodd" stroke="none"/>
    <path d="M11.25 18.45 L11.3 18.4 11.45 18.7 11.4 18.9 11.25 18.5 11.25 18.45 M14.25 16.05 L14.4 16.0 Q14.75 15.85 14.95 16.15 L15.0 16.7 14.95 17.1 14.65 17.35 Q14.0 17.35 14.0 16.8 L14.0 16.7 14.05 16.75 14.1 16.75 14.1 16.7 14.05 16.6 14.0 16.6 14.05 16.4 14.0 16.55 13.9 16.55 14.05 16.25 14.1 16.15 14.2 16.05 14.25 16.05 M15.0 19.65 L15.5 19.75 15.5 20.1 15.55 20.9 15.5 22.25 15.5 22.65 15.0 22.25 14.4 21.6 14.25 21.25 14.25 21.15 14.25 20.95 14.4 20.9 14.5 20.85 14.75 20.85 14.95 20.75 15.15 20.7 14.85 20.4 14.6 20.2 Q14.75 19.65 14.85 19.65 L15.0 19.65" fill="#735437" fill-rule="evenodd" stroke="none"/>
    <path d="M26.15 29.85 L20.65 29.85 Q20.35 29.55 19.85 29.4 L18.9 29.1 18.8 29.15 17.95 28.35 17.25 27.9 16.65 27.85 16.3 27.85 15.9 27.5 15.6 27.6 14.95 27.3 Q14.75 27.15 14.6 27.15 L13.75 26.85 12.7 26.35 12.75 25.85 13.3 26.1 14.65 26.15 14.75 26.15 15.05 26.2 16.3 26.3 16.35 26.15 16.75 26.2 17.25 26.15 17.65 26.5 18.05 26.4 18.35 26.5 19.3 26.4 20.25 26.4 20.85 26.85 22.3 26.85 Q22.5 27.15 22.95 27.3 L23.65 27.3 23.8 27.45 24.0 27.6 25.55 28.45 25.95 29.4 26.15 29.85 M9.0 24.7 L9.6 24.45 11.0 25.05 10.9 25.15 Q10.7 25.45 10.65 25.95 L10.55 25.95 10.35 25.85 10.15 25.85 9.9 25.85 9.05 25.8 8.75 25.55 Q8.55 25.4 8.8 25.05 L8.65 25.05 8.85 24.7 9.0 24.7 M19.15 28.45 L19.3 28.45 19.3 28.4 19.1 28.1 18.75 28.05 18.7 28.2 19.15 28.45 M21.9 27.45 L21.6 27.5 21.95 27.9 22.35 28.0 23.4 28.1 23.45 27.9 22.95 27.8 22.35 27.8 21.9 27.45" fill="#785829" fill-rule="evenodd" stroke="none"/>
  </g>
</svg>
