<?xml version="1.0" encoding="UTF-8" standalone="no"?>
<svg xmlns:xlink="http://www.w3.org/1999/xlink" height="12.45px" width="42.1px" xmlns="http://www.w3.org/2000/svg">
  <g transform="matrix(1.0, 0.0, 0.0, 1.0, 18.65, 6.35)">
    <path d="M4.45 -5.65 L6.35 -5.65 6.35 -5.75 6.65 -5.75 6.7 -5.7 6.7 -4.95 7.3 -5.0 7.9 -4.95 7.9 -4.9 8.0 -4.9 8.05 -4.8 8.05 -4.25 8.25 -4.05 9.7 -2.85 Q10.0 -2.5 10.55 -2.3 L12.65 -1.55 13.2 -1.3 13.2 -4.05 13.25 -4.05 13.25 -4.4 13.4 -4.6 13.8 -4.7 Q14.25 -4.7 14.45 -4.25 L14.5 -3.7 14.5 -1.1 19.35 -1.05 19.65 -1.35 Q20.2 -1.85 20.8 -1.85 22.05 -1.85 22.85 -1.1 23.45 -0.5 23.45 0.15 L23.05 1.15 22.85 1.45 22.55 1.65 22.4 1.95 21.65 2.05 20.1 1.75 19.7 1.5 19.55 1.35 19.2 1.35 19.1 1.35 14.5 1.5 14.45 3.2 14.5 3.8 Q14.5 5.05 13.8 5.05 L13.35 4.8 13.15 4.25 13.2 4.1 13.15 3.9 13.15 3.3 13.2 3.3 13.2 1.8 12.95 1.85 11.7 2.2 Q11.4 2.2 11.25 2.45 L10.85 2.6 9.2 3.55 9.0 3.65 8.9 3.8 8.6 4.0 8.25 4.2 8.05 4.45 8.05 4.75 8.1 4.9 8.05 5.05 7.8 5.1 6.95 5.1 6.7 5.05 6.7 5.9 6.6 5.95 6.55 6.0 -12.45 6.0 -12.45 6.05 -12.7 6.1 -12.7 6.0 -15.7 6.0 -15.7 5.9 -15.8 5.9 -15.8 4.8 -16.4 4.35 -16.9 4.05 -17.3 3.75 -18.05 3.15 -18.4 2.85 -18.45 2.85 -18.55 2.55 -18.45 2.55 -18.5 -2.5 -18.65 -2.65 -18.65 -2.8 -18.4 -3.35 -18.45 -3.4 -17.9 -3.85 -17.25 -4.25 -16.3 -4.7 -15.75 -4.95 -15.75 -5.15 -15.9 -5.4 Q-15.9 -5.85 -15.5 -5.75 L-13.15 -5.7 -13.15 -5.8 -13.1 -5.95 -13.15 -5.95 -13.2 -6.1 -12.9 -6.35 4.55 -6.35 4.6 -6.15 4.55 -6.0 4.45 -6.0 4.45 -5.65 M3.35 -3.7 L3.55 -3.7 3.55 -3.95 3.5 -4.0 3.95 -4.9 4.2 -5.4 4.15 -5.65 4.1 -5.75 4.15 -6.0 3.9 -6.0 3.7 -6.05 3.4 -6.0 -11.95 -6.0 -12.2 -6.1 -12.6 -6.0 -12.8 -6.0 -12.8 -5.85 -12.8 -5.8 -12.85 -5.55 -12.65 -5.1 -12.45 -4.5 -12.35 -4.1 -12.35 -3.8 -12.3 -3.75 -12.25 -3.75 -12.1 -3.25 -11.75 -2.1 -11.5 -1.0 2.1 -1.0 2.1 -1.1 3.35 -3.7 M6.4 -1.35 L6.4 -5.25 6.35 -5.25 6.35 -5.35 4.45 -5.35 4.45 -5.25 3.3 -3.0 2.35 -0.65 2.1 -0.65 2.1 -0.7 -11.5 -0.65 -11.55 -0.6 -11.8 -0.6 -11.85 -0.7 -11.9 -0.8 -11.85 -0.85 -11.9 -1.25 -12.05 -1.85 -12.8 -4.35 -13.15 -5.35 -15.5 -5.35 -15.5 -5.0 -15.45 -4.85 -15.5 -4.7 -15.5 -1.5 -14.75 -1.5 -14.85 -1.45 -13.75 -1.45 -12.8 -1.35 -12.75 -1.15 -12.7 -1.1 -12.7 -0.05 -12.75 0.1 -12.7 0.25 -12.7 1.3 -12.35 1.35 -11.95 1.55 -11.95 0.85 -12.1 0.8 -12.1 0.55 -11.95 0.5 -11.75 0.5 2.55 0.5 2.6 0.65 2.55 0.8 2.55 1.15 3.0 1.15 3.35 1.2 3.4 0.25 3.45 0.25 3.45 -0.05 3.4 -0.05 3.4 -0.1 3.45 -1.15 3.5 -1.15 3.55 -1.3 6.35 -1.35 6.4 -1.25 6.4 -1.35 M3.75 -0.2 L3.65 -0.2 3.65 0.05 3.7 0.15 3.65 1.4 3.6 1.45 3.2 1.55 2.55 1.5 2.55 2.2 2.5 2.25 2.55 2.25 2.6 2.45 2.55 2.6 -11.15 2.65 -11.3 2.75 -11.55 2.65 -11.85 2.6 -11.85 2.4 -11.9 2.4 -11.95 2.35 -11.95 1.8 -12.05 1.8 -12.35 1.7 -12.8 1.65 -12.95 1.65 -12.95 1.6 -13.0 1.6 -13.0 1.35 -13.05 0.45 -13.05 0.3 -12.95 0.3 -12.95 0.05 -13.0 0.0 -13.0 -0.9 -13.0 -1.0 -13.6 -1.0 -14.55 -1.1 -15.5 -1.2 -15.5 -0.05 -15.6 -0.05 -15.6 0.2 -15.5 0.3 -15.5 3.25 -15.6 3.4 -15.55 3.55 -15.5 3.55 -15.5 4.35 -15.55 4.35 -15.55 4.6 -15.3 4.75 -15.35 4.95 -15.55 4.95 -15.55 5.7 -14.7 5.7 -14.65 4.0 -12.65 4.1 -12.6 4.0 -12.45 4.1 -12.45 5.7 2.6 5.65 2.55 3.95 2.5 3.8 2.65 3.65 5.3 3.65 5.35 3.75 5.4 3.85 5.4 5.65 6.3 5.65 6.4 5.7 6.4 3.5 6.55 3.5 6.55 3.25 6.4 3.15 6.4 0.15 6.55 0.15 6.55 -0.1 6.5 -0.15 6.4 -0.15 6.4 -1.0 3.75 -1.0 3.75 -0.2 M4.05 -0.4 L4.05 -0.75 4.3 -0.75 4.35 -0.55 4.3 -0.4 4.05 -0.4 M4.9 -0.55 L5.15 -0.75 5.2 -0.7 5.2 -0.45 4.95 -0.4 4.9 -0.55 M13.2 0.45 L13.3 0.45 13.3 0.2 13.25 0.15 13.2 0.15 13.2 -1.0 12.15 -1.35 11.25 -1.7 10.25 -2.15 Q9.55 -2.45 8.85 -3.15 L8.25 -3.55 8.05 -3.7 8.05 -0.7 7.9 -0.7 Q7.9 -0.5 8.05 -0.35 L8.05 3.95 8.85 3.4 10.6 2.35 12.7 1.6 Q12.9 1.45 13.2 1.4 L13.2 0.45 M7.65 -4.6 L7.65 -4.65 6.7 -4.65 6.7 4.75 7.75 4.75 7.75 -4.35 7.65 -4.6 M5.8 -0.45 Q5.55 -0.45 5.6 -0.65 5.6 -0.95 5.95 -0.8 L5.95 -0.5 5.8 -0.45 M13.95 -4.3 L13.9 -4.5 13.65 -4.3 Q13.5 -4.25 13.5 -3.9 L13.45 -3.9 13.45 -1.7 13.4 -1.0 13.4 0.55 13.4 0.95 13.4 1.6 13.35 2.2 13.45 2.6 13.45 3.3 13.5 3.4 13.5 4.45 13.85 4.7 Q14.15 4.7 14.2 3.65 L14.2 2.75 14.25 2.45 14.2 1.8 14.2 -0.7 14.2 -1.35 14.2 -1.6 14.15 -3.4 Q14.35 -4.25 13.95 -4.3 M19.05 0.35 L19.1 0.2 19.05 0.05 19.0 0.05 19.0 -0.05 19.15 -0.75 15.0 -0.7 14.5 -0.7 14.5 0.05 14.4 0.2 14.45 0.35 14.5 0.35 14.5 1.2 15.4 1.05 19.1 1.05 19.1 1.0 19.2 1.0 19.05 0.55 19.05 0.35 M19.45 -0.5 L19.3 -0.05 Q19.3 0.7 19.7 1.0 L20.25 1.4 21.6 1.7 22.1 1.65 22.4 1.35 22.75 1.0 23.15 0.1 22.7 -0.75 Q22.1 -1.35 21.4 -1.4 L20.85 -1.5 20.35 -1.35 19.75 -0.95 19.45 -0.5 M5.1 4.05 L4.9 4.05 2.85 4.0 2.85 5.65 5.1 5.65 5.1 4.05 M2.2 0.8 L-11.65 0.85 -11.65 2.25 2.15 2.25 2.15 1.8 2.25 1.8 2.15 1.0 2.2 0.8 M-17.65 -3.5 L-18.2 -3.25 -18.2 -3.2 -18.3 -2.95 -18.2 -2.8 -18.2 2.6 -15.8 4.4 -15.8 4.1 -15.75 4.1 -15.75 -4.5 -17.05 -3.95 -17.65 -3.5 M-15.2 -0.85 L-14.95 -0.85 -14.9 -0.65 -14.95 -0.5 -15.2 -0.5 -15.2 -0.85 M-14.55 -0.8 L-14.25 -0.85 -14.2 -0.8 -14.2 -0.55 -14.35 -0.5 Q-14.55 -0.5 -14.55 -0.8 M-13.7 -0.5 L-13.7 -0.75 -13.45 -0.75 -13.4 -0.6 -13.45 -0.45 -13.65 -0.45 -13.7 -0.5 M-14.35 5.7 L-12.7 5.7 -12.75 5.05 -12.7 4.35 -14.35 4.4 -14.35 5.7" fill="#000000" fill-rule="evenodd" stroke="none"/>
    <path d="M3.35 -0.1 L3.4 -0.1 3.4 -0.05 3.35 -0.1 M6.35 -1.35 L6.4 -1.35 6.4 -1.25 6.35 -1.35" fill="#5b6938" fill-rule="evenodd" stroke="none"/>
    <path d="M6.4 3.15 L6.55 3.25 6.55 3.5 6.4 3.5 6.4 5.7 6.3 5.65 5.4 5.65 5.4 3.85 5.35 3.75 5.3 3.65 2.65 3.65 2.5 3.8 2.55 3.95 2.6 5.65 -12.45 5.7 -12.45 4.1 -12.6 4.0 -12.65 4.1 -14.65 4.0 -14.7 5.7 -15.55 5.7 -15.55 4.95 -15.35 4.95 -15.3 4.75 -15.55 4.6 -15.55 4.35 -15.5 4.35 -15.5 3.55 -15.55 3.55 -15.6 3.4 -15.5 3.25 -15.4 3.2 -4.45 3.15 6.4 3.15 M8.05 -0.35 L8.3 -0.2 9.3 0.0 10.7 0.25 12.35 0.45 13.2 0.45 13.2 1.4 Q12.9 1.45 12.7 1.6 L10.6 2.35 8.85 3.4 8.05 3.95 8.05 -0.35 M7.65 -4.6 L7.75 -4.35 7.75 4.75 6.7 4.75 6.7 -4.65 7.65 -4.65 7.65 -4.6 M7.0 -4.15 L6.9 -3.5 7.05 -1.1 7.4 -1.35 7.45 -3.3 7.45 -3.5 7.45 -4.45 7.4 -4.5 7.35 -4.5 7.3 -4.45 7.2 -4.4 7.0 -4.4 7.0 -4.15 M14.5 0.35 L15.6 0.4 16.15 0.45 19.05 0.35 19.05 0.55 19.2 1.0 19.1 1.0 19.1 1.05 15.4 1.05 14.5 1.2 14.5 0.35 M19.8 -0.9 L19.4 -0.25 19.8 0.35 20.6 0.6 Q22.35 0.6 22.35 -0.25 L21.9 -0.8 21.45 -1.05 20.85 -1.3 Q20.25 -1.3 19.8 -0.9 M19.45 -0.5 L19.75 -0.95 20.35 -1.35 20.85 -1.5 21.4 -1.4 Q22.1 -1.35 22.7 -0.75 L23.15 0.1 22.75 1.0 22.4 1.35 22.1 1.65 21.6 1.7 20.25 1.4 19.7 1.0 Q19.3 0.7 19.3 -0.05 L19.45 -0.5 M-17.65 -3.5 L-17.05 -3.95 -15.75 -4.5 -15.75 4.1 -15.8 4.1 -15.8 4.4 -18.2 2.6 -18.2 -2.8 -18.3 -2.95 -18.2 -3.2 -18.2 -3.25 -17.65 -3.5 M-16.65 -3.7 L-16.85 -3.6 -17.6 -3.2 -17.85 -3.0 -17.9 -2.85 -17.85 -2.7 -17.9 -2.2 Q-17.9 -1.25 -17.65 -1.25 L-17.45 -1.35 -16.2 -1.35 -15.95 -3.4 -15.9 -3.6 -15.95 -3.8 -16.0 -4.0 Q-16.2 -4.05 -16.6 -3.75 L-16.65 -3.7" fill="#333333" fill-rule="evenodd" stroke="none"/>
    <path d="M7.45 -3.5 L7.3 -3.45 7.1 -3.75 7.0 -4.1 7.0 -4.15 7.0 -4.4 7.2 -4.4 7.3 -4.45 7.35 -4.5 7.4 -4.5 7.45 -4.45 7.45 -3.5 M-17.85 -2.7 L-17.9 -2.85 -17.85 -3.0 -17.6 -3.2 -16.85 -3.6 -16.65 -3.7 -16.1 -3.85 -15.95 -3.8 -15.9 -3.6 -15.95 -3.4 Q-16.05 -3.25 -16.3 -3.15 L-16.85 -3.0 -17.3 -2.75 -17.6 -2.8 Q-17.8 -2.7 -17.85 -2.7" fill="#cccccc" fill-rule="evenodd" stroke="none"/>
    <path d="M7.0 -4.15 L7.0 -4.1 7.1 -3.75 7.3 -3.45 7.45 -3.5 7.45 -3.3 7.4 -1.35 7.05 -1.1 6.9 -3.5 7.0 -4.15 M-16.65 -3.7 L-16.6 -3.75 Q-16.2 -4.05 -16.0 -4.0 L-15.95 -3.8 -16.1 -3.85 -16.65 -3.7 M-15.95 -3.4 L-16.2 -1.35 -17.45 -1.35 -17.65 -1.25 Q-17.9 -1.25 -17.9 -2.2 L-17.85 -2.7 Q-17.8 -2.7 -17.6 -2.8 L-17.3 -2.75 -16.85 -3.0 -16.3 -3.15 Q-16.05 -3.25 -15.95 -3.4" fill="#7b7b7b" fill-rule="evenodd" stroke="none"/>
    <path d="M2.55 2.25 L2.5 2.25 2.55 2.2 2.55 2.25" fill="#434e29" fill-rule="evenodd" stroke="none"/>
    <path d="M2.2 0.8 L2.15 1.0 2.25 1.8 2.15 1.8 2.15 2.25 -11.65 2.25 -11.65 0.85 2.2 0.8" fill="#a9a801" fill-rule="evenodd" stroke="none"/>
    <path d="M5.1 4.05 L5.1 5.65 2.85 5.65 2.85 4.0 4.9 4.05 5.1 4.05 M-14.35 5.7 L-14.35 4.4 -12.7 4.35 -12.75 5.05 -12.7 5.7 -14.35 5.7" fill="#1a1a1a" fill-rule="evenodd" stroke="none"/>
    <path d="M-12.7 -0.05 L3.35 -0.1 3.4 -0.05 3.45 -0.05 3.45 0.25 3.4 0.25 3.35 1.2 3.0 1.15 2.55 1.15 2.55 0.8 2.6 0.65 2.55 0.5 -11.75 0.5 -11.95 0.5 -12.1 0.55 -12.1 0.8 -11.95 0.85 -11.95 1.55 -12.35 1.35 -12.7 1.3 -12.7 0.25 -12.75 0.1 -12.7 -0.05 M2.55 2.2 L2.55 1.5 3.2 1.55 3.6 1.45 3.65 1.4 3.7 0.15 3.65 0.05 3.65 -0.2 3.75 -0.2 6.4 -0.15 6.5 -0.15 6.55 -0.1 6.55 0.15 6.4 0.15 6.4 3.15 -4.45 3.15 -15.4 3.2 -15.5 3.25 -15.5 0.3 -15.6 0.2 -15.6 -0.05 -15.5 -0.05 -15.3 0.0 -13.0 0.0 -12.95 0.05 -12.95 0.3 -13.05 0.3 -13.05 0.45 -13.0 1.35 -13.0 1.6 -12.95 1.6 -12.95 1.65 -12.8 1.65 -12.35 1.7 -12.05 1.8 -11.95 1.8 -11.95 2.35 -11.9 2.4 -11.85 2.4 -11.85 2.6 -11.55 2.65 -11.3 2.75 -11.15 2.65 2.55 2.6 2.6 2.45 2.55 2.25 2.55 2.2 M8.05 -0.35 Q7.9 -0.5 7.9 -0.7 L8.05 -0.7 8.05 -3.7 8.25 -3.55 8.85 -3.15 Q9.55 -2.45 10.25 -2.15 L11.25 -1.7 12.15 -1.35 13.2 -1.0 13.2 0.15 13.25 0.15 13.3 0.2 13.3 0.45 13.2 0.45 12.35 0.45 10.7 0.25 9.3 0.0 8.3 -0.2 8.05 -0.35 M9.1 -2.0 Q9.45 -1.9 9.6 -1.65 9.7 -1.4 10.1 -1.4 L11.25 -0.95 12.45 -0.4 12.8 -0.4 12.85 -0.55 12.8 -0.7 12.15 -0.85 11.8 -1.2 Q10.95 -1.5 10.65 -1.75 L8.8 -2.95 8.55 -2.95 8.55 -2.6 8.75 -2.3 Q8.8 -2.0 9.1 -2.0 M14.5 0.35 L14.45 0.35 14.4 0.2 14.5 0.05 14.5 -0.7 15.0 -0.7 19.15 -0.75 19.0 -0.05 19.0 0.05 19.05 0.05 19.1 0.2 19.05 0.35 16.15 0.45 15.6 0.4 14.5 0.35 M19.8 -0.9 Q20.25 -1.3 20.85 -1.3 L21.45 -1.05 21.9 -0.8 22.35 -0.25 Q22.35 0.6 20.6 0.6 L19.8 0.35 19.4 -0.25 19.8 -0.9 M21.3 -0.6 L21.1 -0.8 20.9 -1.0 20.2 -0.45 Q20.2 -0.15 20.65 -0.15 21.3 -0.15 21.3 -0.6 M16.55 -0.3 L15.35 -0.5 15.15 -0.25 16.15 0.0 17.3 0.1 18.5 -0.15 18.45 -0.3 16.55 -0.3" fill="#6a6a6a" fill-rule="evenodd" stroke="none"/>
    <path d="M-12.7 -0.05 L-12.7 -1.1 -12.75 -1.15 -12.8 -1.35 -13.75 -1.45 -14.85 -1.45 -14.75 -1.5 -15.5 -1.5 -15.5 -4.7 -15.45 -4.85 -15.5 -5.0 -15.5 -5.35 -13.15 -5.35 -12.8 -4.35 -12.05 -1.85 -11.9 -1.25 -11.85 -0.85 -11.9 -0.8 -11.85 -0.7 -11.8 -0.6 -11.55 -0.6 -11.5 -0.65 2.1 -0.7 2.1 -0.65 2.35 -0.65 3.3 -3.0 4.45 -5.25 4.45 -5.35 6.35 -5.35 6.35 -5.25 6.4 -5.25 6.4 -1.35 6.35 -1.35 3.55 -1.3 3.5 -1.15 3.45 -1.15 3.4 -0.1 3.35 -0.1 -12.7 -0.05 M3.75 -0.2 L3.75 -1.0 6.4 -1.0 6.4 -0.15 3.75 -0.2 M-15.5 -0.05 L-15.5 -1.2 -14.55 -1.1 -13.6 -1.0 -13.0 -1.0 -13.0 -0.9 -13.0 0.0 -15.3 0.0 -15.5 -0.05 M4.9 -0.55 L4.95 -0.4 5.2 -0.45 5.2 -0.7 5.15 -0.75 4.9 -0.55 M4.05 -0.4 L4.3 -0.4 4.35 -0.55 4.3 -0.75 4.05 -0.75 4.05 -0.4 M5.8 -0.45 L5.95 -0.5 5.95 -0.8 Q5.6 -0.95 5.6 -0.65 5.55 -0.45 5.8 -0.45 M9.1 -2.0 Q8.8 -2.0 8.75 -2.3 L8.55 -2.6 8.55 -2.95 8.8 -2.95 10.65 -1.75 Q10.95 -1.5 11.8 -1.2 L12.15 -0.85 12.8 -0.7 12.85 -0.55 12.8 -0.4 12.45 -0.4 11.25 -0.95 10.1 -1.4 Q9.7 -1.4 9.6 -1.65 9.45 -1.9 9.1 -2.0 M16.55 -0.3 L18.45 -0.3 18.5 -0.15 17.3 0.1 16.15 0.0 15.15 -0.25 15.35 -0.5 16.55 -0.3 M21.3 -0.6 Q21.3 -0.15 20.65 -0.15 20.2 -0.15 20.2 -0.45 L20.9 -1.0 21.1 -0.8 21.3 -0.6 M-13.7 -0.5 L-13.65 -0.45 -13.45 -0.45 -13.4 -0.6 -13.45 -0.75 -13.7 -0.75 -13.7 -0.5 M-14.55 -0.8 Q-14.55 -0.5 -14.35 -0.5 L-14.2 -0.55 -14.2 -0.8 -14.25 -0.85 -14.55 -0.8 M-15.2 -0.85 L-15.2 -0.5 -14.95 -0.5 -14.9 -0.65 -14.95 -0.85 -15.2 -0.85" fill="#b7b7b7" fill-rule="evenodd" stroke="none"/>
    <path d="M3.35 -3.7 L2.1 -1.1 2.1 -1.0 -11.5 -1.0 -11.75 -2.1 -12.1 -3.25 -12.25 -3.75 -12.05 -3.8 -12.05 -3.85 -11.9 -3.7 3.35 -3.7 M13.95 -4.3 Q14.35 -4.25 14.15 -3.4 L14.2 -1.6 14.2 -1.35 14.2 -0.7 14.2 1.8 14.25 2.45 14.2 2.75 14.2 3.65 Q14.15 4.7 13.85 4.7 L13.5 4.45 13.5 3.4 13.45 3.3 13.45 2.6 13.35 2.2 13.4 1.6 13.4 0.95 13.8 1.0 13.95 0.95 14.05 -3.45 14.05 -3.65 14.05 -3.75 14.05 -3.95 14.0 -4.0 13.95 -4.15 13.95 -4.3 M13.4 0.55 L13.4 -1.0 13.45 -1.7 13.45 -3.9 13.5 -3.9 Q13.5 -4.25 13.65 -4.3 L13.6 -4.1 13.5 -3.65 13.6 -3.3 13.5 -1.4 13.4 0.55" fill="#910000" fill-rule="evenodd" stroke="none"/>
    <path d="M-12.25 -3.75 L-12.3 -3.75 -12.35 -3.8 -12.35 -4.1 -12.45 -4.5 -12.65 -5.1 -12.85 -5.55 -12.8 -5.8 -12.8 -5.85 -12.8 -6.0 -12.6 -6.0 -12.2 -6.1 -11.95 -6.0 3.4 -6.0 3.7 -6.05 3.9 -6.0 4.15 -6.0 4.1 -5.75 4.15 -5.65 4.2 -5.4 3.95 -4.9 3.5 -4.0 3.55 -3.95 3.55 -3.7 3.35 -3.7 -11.9 -3.7 -12.05 -3.85 -12.05 -3.8 -12.25 -3.75 M3.45 -5.45 L3.45 -5.75 -11.95 -5.75 -11.95 -5.7 -12.25 -5.4 -12.2 -5.25 -12.15 -5.2 -11.95 -5.15 -11.95 -5.2 3.3 -5.2 3.4 -5.3 3.45 -5.45" fill="#dd0000" fill-rule="evenodd" stroke="none"/>
    <path d="M3.45 -5.45 L3.4 -5.3 3.3 -5.2 -11.95 -5.2 -11.95 -5.15 -12.15 -5.2 -12.2 -5.25 -12.25 -5.4 -11.95 -5.7 -11.95 -5.75 3.45 -5.75 3.45 -5.45" fill="#ff9191" fill-rule="evenodd" stroke="none"/>
    <path d="M13.4 0.95 L13.4 0.55 13.5 -1.4 13.6 -3.3 13.5 -3.65 13.6 -4.1 13.55 -3.8 Q13.55 -3.3 13.75 -3.3 14.0 -3.3 14.05 -3.65 L14.05 -3.45 13.95 0.95 13.8 1.0 13.4 0.95 M14.0 -4.0 L13.95 -4.1 13.95 -4.15 14.0 -4.0" fill="#ec0202" fill-rule="evenodd" stroke="none"/>
    <path d="M13.65 -4.3 L13.9 -4.5 13.95 -4.3 13.95 -4.15 13.95 -4.1 14.0 -4.0 14.05 -3.95 14.05 -3.75 14.05 -3.65 Q14.0 -3.3 13.75 -3.3 13.55 -3.3 13.55 -3.8 L13.6 -4.1 13.65 -4.3" fill="#fe7878" fill-rule="evenodd" stroke="none"/>
  </g>
</svg>
