<?xml version="1.0" encoding="UTF-8" standalone="no"?>
<svg xmlns:xlink="http://www.w3.org/1999/xlink" height="23.4px" width="25.35px" xmlns="http://www.w3.org/2000/svg">
  <g transform="matrix(1.0, 0.0, 0.0, 1.0, -18.5, 13.35)">
    <path d="M19.8 -6.8 L20.05 -5.95 20.45 -5.45 20.5 -5.4 20.4 -5.3 20.4 -5.25 20.9 -4.3 20.95 -4.25 21.25 -4.15 21.35 -4.35 21.3 -4.35 21.15 -4.5 21.6 -6.15 21.9 -9.7 21.95 -9.75 21.95 -10.4 21.95 -11.45 21.95 -11.9 22.0 -12.4 22.0 -13.3 22.05 -13.35 22.1 -13.3 22.15 -13.3 22.2 -12.65 22.8 -6.85 22.8 -6.3 22.95 -6.15 23.0 -6.1 23.3 -4.7 23.9 -5.95 24.1 -5.75 24.1 -5.7 24.15 -5.65 24.0 -4.05 24.25 -3.05 24.3 -3.05 24.5 -2.9 24.1 -2.55 23.9 -2.5 23.0 -1.7 22.05 -1.6 22.35 -1.05 22.4 -1.05 23.3 -1.4 23.55 -1.1 23.9 -1.0 23.95 -0.75 24.05 -0.65 24.05 -0.6 24.1 -0.55 Q24.35 -0.6 24.55 -0.75 L24.7 -0.65 24.7 -0.6 Q24.25 -0.2 23.7 -0.15 L23.55 -0.15 22.8 -0.15 22.75 -0.25 22.7 -0.3 22.5 -0.35 22.3 0.3 22.2 0.7 Q21.65 0.75 21.65 0.15 L21.65 -0.05 21.4 0.35 21.2 0.4 21.2 0.35 21.15 0.3 21.15 0.25 21.2 0.1 21.2 -0.05 20.2 -0.15 Q19.95 0.0 19.75 -0.15 L19.55 -0.3 19.6 -0.35 18.55 -0.4 18.55 -0.45 18.6 -0.55 20.85 -0.85 20.7 -1.05 20.25 -1.5 20.25 -1.55 20.35 -1.6 20.4 -1.65 Q21.05 -1.3 21.7 -1.3 L21.7 -1.65 20.2 -2.1 20.3 -2.2 20.35 -2.25 20.3 -2.3 19.95 -2.5 20.0 -2.55 19.9 -2.65 Q19.65 -2.8 19.45 -3.0 L18.5 -3.65 18.55 -3.75 18.65 -3.8 19.65 -3.3 19.7 -3.25 20.3 -2.85 20.35 -2.95 Q19.9 -4.3 19.8 -5.6 L19.75 -5.95 Q19.5 -6.4 19.5 -6.9 L19.55 -6.95 19.6 -6.9 19.7 -6.9 19.7 -6.85 19.75 -6.8 19.8 -6.8 M24.95 -2.95 L25.05 -2.9 25.05 -2.95 25.1 -2.9 25.15 -2.9 26.35 -3.95 26.3 -4.0 26.25 -4.1 26.3 -4.15 Q27.35 -4.75 28.0 -5.8 L28.05 -5.75 28.1 -5.85 28.2 -5.8 28.25 -5.75 28.05 -4.7 28.05 -4.6 28.1 -4.55 28.15 -4.5 28.0 -4.05 28.15 -4.1 28.25 -4.05 28.3 -4.0 28.5 -3.95 29.3 -4.4 29.45 -4.3 29.45 -4.25 28.8 -3.6 28.75 -3.55 28.75 -3.5 28.9 -3.45 28.9 -3.4 28.95 -3.3 28.95 -3.25 29.6 -3.15 29.65 -3.1 29.75 -3.05 29.8 -3.0 29.25 -2.25 32.05 -1.9 32.1 -1.9 32.15 -1.95 38.05 -1.3 38.25 -1.25 38.3 -1.3 38.5 -1.25 38.55 -1.25 38.55 -1.2 39.3 -1.05 39.3 -1.1 39.35 -1.1 39.4 -1.15 39.45 -1.15 39.55 -1.1 39.95 -1.05 42.3 -0.85 42.9 -0.95 43.05 -0.85 43.05 -0.8 43.85 -0.7 42.8 -0.55 42.3 -0.45 41.2 -0.45 39.25 -0.45 33.8 0.6 31.95 0.95 31.25 1.1 28.65 1.55 29.05 2.2 29.1 2.3 28.4 2.3 28.5 2.4 28.3 2.6 28.0 2.75 27.95 2.7 27.85 2.6 27.85 2.55 27.65 2.35 27.6 2.3 27.15 1.95 27.0 2.1 27.15 2.9 27.2 3.1 27.45 3.45 Q27.2 3.6 27.0 3.3 L26.8 3.35 26.7 3.4 26.2 2.95 24.75 1.4 24.7 1.25 Q24.85 0.75 25.45 0.55 L25.5 0.55 25.65 0.65 25.7 0.65 25.65 0.6 25.65 0.55 24.8 -0.05 24.8 -0.1 24.85 -0.15 24.9 -0.15 24.9 -0.45 24.9 -0.5 25.7 -1.2 24.8 -1.9 24.75 -1.9 Q24.55 -1.85 24.55 -2.0 L24.5 -2.0 Q24.45 -2.4 24.8 -2.8 L24.95 -2.95 M24.85 1.4 L25.2 1.7 25.0 1.3 24.95 1.35 24.9 1.4 24.85 1.4 M23.65 1.15 L23.7 1.2 23.75 1.15 23.8 1.15 23.85 1.2 24.0 1.2 24.05 1.25 24.0 1.4 24.6 3.0 24.6 3.1 24.95 3.8 24.95 3.85 24.85 3.9 24.75 3.85 23.6 2.15 23.1 3.95 22.75 6.9 22.7 7.6 22.7 8.25 22.7 8.95 22.65 9.0 22.45 8.95 22.45 8.7 22.3 8.6 22.35 8.35 22.25 8.3 22.25 8.6 22.45 9.95 22.4 10.0 22.2 9.95 21.9 7.9 21.8 7.8 21.4 3.55 20.45 5.6 20.3 5.55 20.5 4.6 20.45 4.6 Q20.3 4.65 20.25 4.5 L20.7 2.25 20.45 2.5 20.4 2.55 20.15 2.55 19.8 3.0 19.5 3.35 19.35 3.4 19.3 3.25 19.9 2.35 19.85 2.25 20.4 1.2 20.5 1.3 20.95 1.1 21.05 1.2 21.1 1.25 21.1 1.3 21.15 1.3 21.15 1.35 22.25 1.2 23.3 1.1 23.65 1.15" fill="#ffffff" fill-rule="evenodd" stroke="none"/>
  </g>
</svg>
