<?xml version="1.0" encoding="UTF-8" standalone="no"?>
<svg xmlns:xlink="http://www.w3.org/1999/xlink" height="14.05px" width="7.35px" xmlns="http://www.w3.org/2000/svg">
  <g transform="matrix(1.0, 0.0, 0.0, 1.0, 1.6, 7.3)">
    <path d="M2.2 -6.85 L1.2 -6.75 0.05 -6.5 -0.55 -6.35 Q-0.75 -6.15 -1.0 -6.0 L-1.55 -6.0 -1.6 -6.15 0.05 -6.85 1.2 -7.1 2.8 -7.3 3.3 -7.3 3.35 -7.15 3.3 -7.0 2.2 -6.85 M5.75 6.05 Q5.75 6.25 5.3 6.25 L4.55 6.15 3.6 6.75 3.35 6.75 3.3 6.6 Q3.3 6.45 3.45 6.45 L3.85 6.3 4.2 5.95 Q4.35 5.7 4.7 5.8 L5.7 5.9 5.75 6.05" fill="#ffffff" fill-rule="evenodd" stroke="none"/>
  </g>
</svg>
