<?xml version="1.0" encoding="UTF-8" standalone="no"?>
<svg xmlns:xlink="http://www.w3.org/1999/xlink" height="12.9px" width="9.2px" xmlns="http://www.w3.org/2000/svg">
  <g transform="matrix(1.0, 0.0, 0.0, 1.0, 0.6, 6.25)">
    <path d="M3.45 -3.15 Q3.9 -3.15 4.0 -2.9 L4.25 -2.55 4.75 -1.9 5.05 -1.2 5.05 -0.45 4.95 0.9 4.05 2.55 2.7 3.9 2.3 4.2 1.85 4.4 1.6 4.5 1.7 4.5 Q1.95 4.5 1.95 4.85 L1.85 5.3 Q1.75 5.5 1.8 5.85 1.25 5.9 1.4 5.4 0.65 5.35 0.65 4.95 0.65 4.7 1.35 4.7 L1.4 4.6 0.65 4.75 0.4 4.65 0.0 4.7 -0.6 4.45 -0.4 4.25 0.05 4.35 1.85 3.55 2.2 3.3 2.3 3.05 2.75 2.5 3.25 0.05 3.2 -0.55 2.95 -1.15 3.05 -1.4 2.95 -1.7 2.9 -2.05 2.65 -2.35 Q2.5 -2.45 2.45 -2.7 L1.95 -3.5 1.65 -3.85 1.8 -4.1 2.25 -3.75 2.6 -3.75 3.1 -3.6 3.45 -3.15" fill="url(#gradient0)" fill-rule="evenodd" stroke="none"/>
    <path d="M4.8 -5.85 L5.7 -5.65 5.9 -5.65 6.05 -5.7 6.2 -5.75 6.85 -6.0 7.0 -6.1 7.05 -6.05 8.25 -6.25 Q8.7 -6.25 8.6 -6.05 L8.35 -5.85 7.45 -5.7 6.35 -5.45 5.4 -5.1 5.25 -5.0 Q4.85 -4.65 4.55 -4.65 L4.5 -4.65 4.45 -4.65 4.4 -4.4 4.15 -4.4 4.15 -4.9 4.25 -4.9 4.2 -5.15 4.0 -5.65 4.05 -5.8 4.2 -5.85 4.5 -5.75 4.8 -5.85" fill="url(#gradient1)" fill-rule="evenodd" stroke="none"/>
    <path d="M5.45 5.7 L6.95 6.35 7.0 6.5 6.95 6.65 6.7 6.65 Q6.15 6.6 5.25 6.0 L4.9 6.2 4.85 6.05 4.95 5.8 5.0 5.8 4.95 5.75 Q4.75 5.7 4.7 5.9 L4.5 6.1 Q4.25 6.1 4.25 5.8 L4.0 5.8 3.95 5.65 4.3 5.3 4.4 5.2 4.25 4.9 4.4 4.65 4.6 4.95 Q5.05 4.5 5.05 5.4 L5.45 5.65 5.45 5.7" fill="url(#gradient2)" fill-rule="evenodd" stroke="none"/>
  </g>
  <defs>
    <radialGradient cx="0" cy="0" gradientTransform="matrix(0.0089, 0.0, 0.0, 0.0089, 4.45, 0.05)" gradientUnits="userSpaceOnUse" id="gradient0" r="819.2" spreadMethod="pad">
      <stop offset="0.1607843137254902" stop-color="#ffffff" stop-opacity="0.92156863"/>
      <stop offset="0.30196078431372547" stop-color="#fd1313" stop-opacity="0.87058824"/>
      <stop offset="0.8705882352941177" stop-color="#e60000" stop-opacity="0.0"/>
    </radialGradient>
    <radialGradient cx="0" cy="0" gradientTransform="matrix(0.0054, 0.0, 0.0, 0.0054, 4.9, -5.0)" gradientUnits="userSpaceOnUse" id="gradient1" r="819.2" spreadMethod="pad">
      <stop offset="0.1607843137254902" stop-color="#ffffff" stop-opacity="0.92156863"/>
      <stop offset="0.30196078431372547" stop-color="#fd1313" stop-opacity="0.87058824"/>
      <stop offset="0.8705882352941177" stop-color="#e60000" stop-opacity="0.0"/>
    </radialGradient>
    <radialGradient cx="0" cy="0" gradientTransform="matrix(0.0033, 0.0, 0.0, 0.0033, 4.7, 5.2)" gradientUnits="userSpaceOnUse" id="gradient2" r="819.2" spreadMethod="pad">
      <stop offset="0.1607843137254902" stop-color="#ffffff" stop-opacity="0.92156863"/>
      <stop offset="0.30196078431372547" stop-color="#fd1313" stop-opacity="0.87058824"/>
      <stop offset="0.8705882352941177" stop-color="#e60000" stop-opacity="0.0"/>
    </radialGradient>
  </defs>
</svg>
