<?xml version="1.0" encoding="UTF-8" standalone="no"?>
<svg xmlns:xlink="http://www.w3.org/1999/xlink" height="4.35px" width="33.2px" xmlns="http://www.w3.org/2000/svg">
  <g transform="matrix(1.0, 0.0, 0.0, 1.0, 30.65, 2.15)">
    <path d="M-0.5 -1.95 L-0.5 1.95 -30.65 1.95 -30.65 -1.95 -0.5 -1.95" fill="url(#gradient0)" fill-rule="evenodd" stroke="none"/>
    <path d="M0.95 -2.05 L1.15 -1.9 1.6 -1.65 2.25 -1.1 2.4 -0.45 2.55 0.2 2.55 0.8 2.25 1.3 1.85 1.55 1.6 1.75 Q1.0 2.2 0.05 2.1 L-0.6 2.2 -1.45 2.0 -2.0 1.75 -2.4 1.15 -2.75 0.55 -2.8 0.0 -2.4 -1.15 -2.05 -1.75 -1.5 -1.9 -1.15 -2.05 0.15 -2.15 0.95 -2.05 M0.75 1.9 L0.7 1.85 0.55 1.9 0.75 1.9" fill="#910000" fill-rule="evenodd" stroke="none"/>
    <path d="M-1.35 -0.75 L-1.45 -1.05 Q-1.45 -1.6 -0.7 -1.6 0.0 -1.6 0.0 -1.15 0.0 -0.6 -0.6 -0.6 L-1.35 -0.75" fill="#e6e6e6" fill-rule="evenodd" stroke="none"/>
    <path d="M1.35 -1.15 L1.65 -0.65 1.7 -0.1 1.35 0.6 1.0 0.95 0.45 1.25 -1.3 1.05 -2.05 0.65 -2.3 -0.25 Q-2.3 -1.85 -0.4 -1.85 L0.7 -1.55 1.35 -1.15 M-1.35 -0.75 L-0.6 -0.6 Q0.0 -0.6 0.0 -1.15 0.0 -1.6 -0.7 -1.6 -1.45 -1.6 -1.45 -1.05 L-1.35 -0.75" fill="#d37878" fill-rule="evenodd" stroke="none"/>
  </g>
  <defs>
    <linearGradient gradientTransform="matrix(0.0184, 0.0, 0.0, 0.0024, -15.6, 0.0)" gradientUnits="userSpaceOnUse" id="gradient0" spreadMethod="pad" x1="-819.2" x2="819.2">
      <stop offset="0.0" stop-color="#c40000" stop-opacity="0.0"/>
      <stop offset="1.0" stop-color="#ff2b2b" stop-opacity="0.43137255"/>
    </linearGradient>
  </defs>
</svg>
