<?xml version="1.0" encoding="UTF-8" standalone="no"?>
<svg xmlns:xlink="http://www.w3.org/1999/xlink" height="12.35px" width="20.55px" xmlns="http://www.w3.org/2000/svg">
  <g transform="matrix(1.0, 0.0, 0.0, 1.0, 15.5, 5.95)">
    <path d="M-6.0 4.6 L-7.55 4.5 -9.05 3.7 -9.8 3.1 -10.65 3.1 -15.1 2.5 Q-15.35 2.15 -15.2 1.2 L-15.05 0.2 -13.65 0.75 -13.8 1.2 Q-13.8 1.7 -11.4 2.0 L-11.85 2.5 -11.6 2.85 -11.0 2.95 Q-9.7 2.95 -9.7 1.55 L-9.7 1.05 -9.1 0.45 Q-8.9 1.75 -8.35 2.65 L-6.9 3.4 -5.45 3.7 -5.15 3.65 Q-5.15 4.0 -4.55 4.2 -6.55 4.2 -6.0 4.6" fill="#ffffff" fill-rule="evenodd" stroke="none"/>
    <path d="M-0.15 -1.55 L0.2 -2.0 0.5 -2.25 -0.15 -1.55 M1.3 4.5 L1.45 4.35 1.45 4.5 1.3 4.5 M-11.4 2.0 Q-13.8 1.7 -13.8 1.2 L-13.65 0.75 -11.25 1.45 -11.25 1.6 -11.4 2.0" fill="#6f6f6f" fill-rule="evenodd" stroke="none"/>
    <path d="M0.5 -2.25 L0.2 -2.0 -0.15 -1.55 -0.8 -0.75 Q-1.5 0.3 -2.65 0.5 -1.9 0.65 -0.9 1.05 -0.4 1.15 0.3 1.7 1.45 2.6 1.45 3.75 L1.45 4.35 1.3 4.5 Q1.25 4.9 0.9 5.0 0.5 5.9 -1.5 5.9 -3.25 5.9 -2.55 5.35 L-2.0 4.9 -0.9 4.85 -1.25 4.35 -0.45 3.9 -0.35 3.9 Q-0.45 2.6 -2.15 1.85 L-4.1 1.25 Q-5.35 0.9 -5.25 0.15 L-4.25 0.1 Q-4.1 -0.25 -3.0 -0.6 -2.55 -0.75 -1.65 -1.85 -0.9 -2.9 -0.9 -3.1 -0.9 -3.9 -1.85 -3.95 L-2.0 -3.95 Q-3.25 -4.2 -3.6 -4.55 L-1.65 -5.0 Q1.25 -5.0 1.25 -3.25 1.25 -2.45 0.9 -2.3 L0.5 -2.25 M-3.85 5.1 L-4.1 5.1 Q-5.35 5.1 -6.0 4.7 L-6.0 4.6 Q-6.55 4.2 -4.55 4.2 -5.15 4.0 -5.15 3.65 L-3.65 2.85 -2.65 3.05 Q-2.3 3.35 -2.3 4.05 L-2.3 4.45 Q-2.55 5.0 -3.15 5.1 L-3.85 5.1 M-15.05 0.2 L-15.1 0.2 Q-15.8 -0.2 -15.2 -0.8 L-14.75 -0.9 -14.1 -0.75 -13.55 -0.5 -13.35 -0.6 -13.2 -0.8 -10.35 -0.8 -10.3 -0.45 -10.3 -0.35 -9.1 0.2 -9.1 0.4 -9.1 0.45 -9.7 1.05 -9.7 1.55 Q-9.7 2.95 -11.0 2.95 L-11.6 2.85 -11.85 2.5 -11.4 2.0 -11.25 1.6 -11.25 1.45 -13.65 0.75 -15.05 0.2" fill="#e79721" fill-rule="evenodd" stroke="none"/>
    <path d="M-2.0 -3.95 L-1.85 -3.95 Q-0.9 -3.9 -0.9 -3.1 -0.9 -2.9 -1.65 -1.85 -2.55 -0.75 -3.0 -0.6 -4.1 -0.25 -4.25 0.1 L-5.25 0.15 Q-5.35 0.9 -4.1 1.25 L-2.15 1.85 Q-0.45 2.6 -0.35 3.9 L-0.45 3.9 -1.25 4.35 -0.9 4.85 -2.0 4.9 -2.3 4.45 -2.3 4.05 Q-2.3 3.35 -2.65 3.05 L-3.65 2.85 -5.15 3.65 -5.45 3.7 -6.9 3.4 -8.35 2.65 Q-8.9 1.75 -9.1 0.45 L-9.1 0.4 -9.1 0.2 Q-8.9 0.1 -8.8 -0.2 L-7.55 -1.7 Q-6.0 -2.6 -4.9 -2.3 -3.0 -2.3 -2.8 -3.8 L-2.0 -3.95" fill="#ffff33" fill-rule="evenodd" stroke="none"/>
    <path d="M-0.15 -1.55 L0.5 -2.25 0.9 -2.3 Q1.25 -2.45 1.25 -3.25 1.25 -5.0 -1.65 -5.0 L-3.6 -4.55 Q-3.25 -4.2 -2.0 -3.95 L-2.8 -3.8 Q-3.0 -2.3 -4.9 -2.3 -6.0 -2.6 -7.55 -1.7 L-8.8 -0.2 Q-8.9 0.1 -9.1 0.2 L-10.3 -0.35 -10.3 -0.45 -10.35 -0.8 -13.2 -0.8 -13.35 -0.6 -13.55 -0.5 -14.1 -0.75 -13.35 -0.95 -12.5 -1.0 -10.35 -0.9 -8.9 -2.45 Q-8.35 -2.95 -7.05 -3.35 L-5.0 -3.4 Q-4.5 -5.05 -2.1 -5.55 L-0.15 -5.95 Q1.45 -5.95 2.0 -5.35 L2.25 -5.2 3.75 -3.25 Q4.2 -3.2 4.3 -2.95 4.6 -2.6 4.6 -0.8 4.6 -0.1 4.2 0.4 4.85 0.75 4.85 2.15 L4.85 2.5 5.05 3.15 Q5.05 3.95 4.55 4.2 L3.95 5.4 3.1 6.0 2.2 6.15 -1.35 6.4 Q-2.1 6.4 -2.8 5.9 L-3.85 5.1 -3.15 5.1 Q-2.55 5.0 -2.3 4.45 L-2.0 4.9 -2.55 5.35 Q-3.25 5.9 -1.5 5.9 0.5 5.9 0.9 5.0 1.25 4.9 1.3 4.5 L1.45 4.5 1.45 4.35 1.45 3.75 Q1.45 2.6 0.3 1.7 -0.4 1.15 -0.9 1.05 -1.9 0.65 -2.65 0.5 -1.5 0.3 -0.8 -0.75 L-0.15 -1.55" fill="#ffff91" fill-rule="evenodd" stroke="none"/>
  </g>
</svg>
