<?xml version="1.0" encoding="UTF-8" standalone="no"?>
<svg xmlns:xlink="http://www.w3.org/1999/xlink" height="7.1px" width="3.75px" xmlns="http://www.w3.org/2000/svg">
  <g transform="matrix(1.0, 0.0, 0.0, 1.0, 2.3, 3.0)">
    <path d="M0.85 -1.9 L1.35 -1.4 1.45 -1.05 1.15 -0.2 Q0.85 0.25 0.85 0.5 L1.1 1.9 1.35 3.25 1.35 3.75 Q1.25 4.1 0.7 4.1 L-0.9 3.6 -2.3 2.95 -1.4 2.6 Q-0.45 2.05 -0.3 1.0 -0.9 1.15 -1.1 0.75 L-1.15 0.0 Q-1.15 -1.75 0.1 -2.6 1.35 -3.5 1.35 -2.35 L1.2 -2.1 0.85 -1.9 M0.5 2.75 L0.15 3.1 0.55 3.25 0.6 3.1 0.55 2.65 0.5 2.75" fill="#990000" fill-rule="evenodd" stroke="none"/>
  </g>
</svg>
