<?xml version="1.0" encoding="UTF-8" standalone="no"?>
<svg xmlns:xlink="http://www.w3.org/1999/xlink" height="4.7px" width="5.25px" xmlns="http://www.w3.org/2000/svg">
  <g transform="matrix(1.0, 0.0, 0.0, 1.0, 2.05, 2.85)">
    <path d="M0.5 -1.5 L0.35 -0.8 0.35 -0.75 Q1.0 -0.8 1.15 -0.45 L1.2 0.0 1.2 0.6 1.2 0.8 0.55 1.85 Q-0.05 1.85 0.1 1.3 0.1 1.05 0.25 0.85 -0.4 0.75 -0.55 0.5 L-0.55 -0.05 Q0.7 -4.25 0.7 -2.2 L0.5 -1.5 M3.15 1.25 L2.9 1.35 Q2.2 1.35 2.2 0.9 L3.2 0.95 3.15 1.25 M-1.3 -0.25 L-1.95 -0.3 -2.05 -0.55 Q-2.05 -0.95 -1.4 -1.0 L-0.8 -0.65 Q-0.8 -0.25 -1.3 -0.25" fill="#f40202" fill-rule="evenodd" stroke="none"/>
  </g>
</svg>
