<?xml version="1.0" encoding="UTF-8" standalone="no"?>
<svg xmlns:xlink="http://www.w3.org/1999/xlink" height="75.0px" width="74.0px" xmlns="http://www.w3.org/2000/svg">
  <g transform="matrix(1.0, 0.0, 0.0, 1.0, 36.5, 36.75)">
    <path d="M26.0 -26.15 Q31.75 -21.6 34.85 -12.95 37.5 -5.65 37.5 1.75 37.5 7.35 34.95 14.75 31.75 24.0 27.1 25.6 L26.85 25.5 26.75 25.05 27.35 23.65 Q26.0 23.6 26.0 22.5 L26.0 22.35 Q25.55 22.25 25.35 21.95 L25.0 21.4 Q24.25 22.0 23.6 22.0 22.15 22.0 21.9 20.4 L21.5 18.0 Q21.1 18.4 20.45 18.4 19.9 18.4 18.0 16.8 16.05 15.15 15.25 15.15 L12.3 11.65 Q9.2 8.1 8.25 8.1 6.9 8.1 6.75 7.35 L6.65 6.25 6.5 6.25 Q4.85 6.25 4.55 5.35 L4.5 4.0 4.05 4.7 Q3.6 5.25 3.0 5.25 2.2 5.25 2.15 4.2 L2.1 2.5 Q1.95 2.8 1.25 3.0 1.0 2.6 0.9 1.85 L0.75 0.7 0.6 0.65 0.5 0.65 -0.65 0.5 Q-0.5 0.55 -0.5 0.9 L-2.25 1.9 -4.0 2.65 -5.9 2.35 -6.85 2.0 Q-7.45 2.0 -8.05 2.6 -8.65 3.15 -8.75 3.15 L-10.15 2.6 -11.0 2.0 Q-11.45 2.0 -12.2 2.8 L-13.0 3.6 Q-14.15 3.6 -14.55 3.1 L-15.0 2.25 -15.85 3.8 Q-16.45 4.9 -17.25 5.5 -18.0 5.35 -18.3 4.75 L-18.5 3.75 -19.0 4.4 Q-19.45 4.3 -20.35 3.55 L-21.3 2.5 -22.15 1.0 -22.25 1.0 Q-22.4 1.55 -22.15 3.35 -22.1 4.95 -23.4 5.0 -23.0 7.15 -23.0 9.15 L-23.5 9.5 Q-24.45 8.15 -25.05 5.75 L-26.0 1.85 -26.0 6.9 Q-24.2 13.45 -22.2 18.85 L-22.0 19.15 -22.05 19.6 -22.6 19.75 -22.65 19.75 Q-23.25 19.65 -24.95 17.35 L-28.25 13.1 Q-25.6 18.45 -22.75 22.65 -19.3 27.7 -14.75 32.4 L-15.0 32.75 Q-22.85 28.8 -27.05 24.15 -29.85 21.1 -31.35 17.3 L-32.75 15.5 -32.85 15.4 -32.8 15.55 -32.9 16.85 -33.0 17.0 -33.5 17.1 Q-35.05 17.1 -35.9 11.85 L-36.5 6.55 Q-36.5 -0.2 -34.8 -10.2 -32.6 -23.05 -29.4 -24.4 L-31.2 -18.8 -33.25 -13.3 -33.25 -12.25 Q-32.3 -14.0 -30.9 -17.8 -29.4 -21.2 -27.3 -23.25 L-27.05 -23.5 Q-26.95 -23.05 -27.0 -22.2 L-27.05 -20.8 -27.05 -20.75 -27.0 -20.75 -26.5 -22.2 -25.75 -23.4 Q-24.15 -22.65 -24.15 -21.25 L-24.25 -20.9 -23.65 -21.5 -22.1 -19.5 Q-20.65 -17.75 -19.0 -17.75 -18.55 -17.75 -17.65 -16.5 -16.75 -15.25 -15.75 -15.25 -10.9 -11.75 -10.65 -9.05 -10.95 -8.75 -10.3 -8.75 L-9.75 -9.1 Q-9.25 -9.5 -8.75 -9.5 -7.8 -9.5 -7.5 -8.25 L-7.25 -6.55 -5.75 -6.8 Q-1.15 -2.75 0.9 -0.3 2.1 -1.1 2.8 -0.6 3.55 -0.1 3.75 2.0 L4.65 1.15 Q5.6 0.4 6.0 0.4 L6.45 0.7 7.0 1.25 7.6 0.8 8.25 0.4 Q8.8 0.4 9.4 1.75 L10.65 1.1 11.75 0.5 Q12.05 0.5 12.1 0.75 L12.5 1.0 13.15 0.65 Q13.8 0.25 14.0 0.25 15.5 0.25 15.9 1.9 L17.8 1.5 21.35 -5.0 Q22.4 -5.0 22.4 -3.5 L22.5 -5.0 22.4 -6.35 22.4 -6.75 22.55 -6.85 23.1 -7.0 Q25.75 -7.0 25.75 -0.3 L26.45 -3.3 Q26.95 -5.5 28.0 -5.5 L28.55 -5.3 29.0 -4.75 29.25 -6.8 26.75 -19.5 26.75 -19.6 27.25 -19.75 28.5 -17.65 30.0 -14.5 Q29.35 -17.1 27.5 -20.7 L24.35 -26.9 Q25.5 -27.45 25.85 -26.55 L26.0 -26.15 M22.15 -28.5 L17.7 -31.55 12.0 -35.5 Q21.9 -28.25 24.65 -19.4 L24.25 -19.0 21.85 -21.75 19.4 -24.65 Q18.8 -24.05 18.35 -24.05 L19.5 -21.8 19.25 -21.45 19.0 -21.05 21.25 -15.65 21.05 -12.95 20.65 -9.05 19.75 -9.25 19.35 -8.0 Q18.75 -8.6 18.75 -10.05 L18.8 -10.95 19.75 -11.05 19.85 -14.0 19.9 -15.9 18.0 -20.65 Q16.05 -25.05 15.25 -25.9 15.25 -26.3 15.85 -26.3 16.15 -26.3 17.05 -25.75 L17.35 -25.55 Q18.05 -25.2 18.25 -25.15 L17.4 -25.75 16.35 -26.75 16.35 -27.3 16.3 -27.4 16.65 -27.5 Q18.0 -27.5 19.9 -25.45 L22.25 -22.75 Q19.8 -26.95 17.4 -29.75 14.05 -33.55 9.15 -36.75 12.4 -36.25 16.85 -33.35 20.9 -30.75 22.25 -28.75 L22.15 -28.5 M30.2 -8.5 L30.25 -8.8 Q30.25 -9.75 29.35 -12.75 L30.15 -8.65 30.2 -8.5 M16.5 3.5 L16.7 3.6 16.75 3.5 16.5 3.5 M28.0 -3.9 L28.0 -4.0 28.0 -3.9 M21.25 -2.8 L21.35 -2.8 21.25 -3.0 21.25 -2.8 M2.5 1.1 L2.65 1.3 2.15 -0.05 Q1.85 0.0 1.5 0.35 L1.15 0.7 1.5 1.5 2.5 1.1 M3.3 3.3 L3.25 3.75 3.45 3.5 3.3 3.3 M15.8 13.1 L15.65 13.15 15.8 13.1 M14.6 36.25 L14.5 36.9 11.55 36.85 Q10.25 36.85 7.5 37.55 L0.1 38.25 -3.0 38.25 Q-8.25 36.2 -9.15 35.4 L-9.15 35.0 Q-9.35 34.75 -8.75 34.75 -8.0 35.35 -6.65 35.95 -3.9 37.1 0.15 37.1 L7.3 36.5 9.5 35.85 9.85 35.75 9.5 35.75 1.35 35.3 Q-6.4 34.75 -8.25 33.75 L-8.25 33.0 -7.25 32.85 -1.8 33.5 0.9 33.1 1.0 33.0 0.95 33.0 -2.15 31.9 -4.25 31.15 -3.4 30.35 Q-2.85 30.0 -2.5 30.0 L-1.75 29.85 -7.75 26.8 Q-12.65 24.05 -12.65 22.95 -12.65 22.45 -6.2 26.1 -0.4 29.45 0.75 30.25 L-0.2 30.85 -1.0 31.0 -1.55 31.0 -1.0 31.15 1.8 32.0 Q3.65 32.8 3.35 33.9 L11.15 34.6 Q14.6 35.1 14.6 36.25 M-18.9 29.0 L-19.0 29.1 -18.8 29.1 -18.9 29.0" fill="#000000" fill-rule="evenodd" stroke="none"/>
  </g>
</svg>
