<?xml version="1.0" encoding="UTF-8" standalone="no"?>
<svg xmlns:xlink="http://www.w3.org/1999/xlink" height="75.3px" width="74.25px" xmlns="http://www.w3.org/2000/svg">
  <g transform="matrix(1.0, 0.0, 0.0, 1.0, 38.0, 36.95)">
    <path d="M8.6 -33.9 L10.55 -32.7 11.75 -31.5 11.3 -30.85 9.75 -30.8 9.6 -29.55 Q9.25 -28.65 9.25 -28.2 6.75 -21.6 6.75 -19.6 L7.25 -16.05 Q7.25 -15.35 4.5 -13.4 L5.0 -11.95 5.5 -10.7 Q5.5 -9.5 3.9 -9.5 L4.75 -6.15 Q4.75 -5.1 4.1 -5.0 L2.0 -5.05 Q1.6 -5.05 1.55 -4.75 L1.5 -4.0 Q1.5 -3.35 2.0 -2.0 L2.5 -0.3 2.15 0.35 1.6 0.55 1.65 1.05 1.55 1.6 1.15 2.0 1.15 4.0 1.85 3.85 2.0 3.8 2.15 4.25 1.75 4.95 1.7 5.05 Q2.85 6.45 2.85 6.9 L2.1 8.0 0.9 8.85 0.85 8.9 Q1.85 8.9 2.65 9.6 3.5 10.4 3.35 11.5 L5.75 10.85 Q7.7 10.85 7.5 13.25 L10.0 13.5 13.35 12.65 13.75 12.75 Q13.9 12.9 13.95 12.85 L14.0 13.25 Q14.0 14.05 11.45 15.6 L7.35 17.85 7.35 17.9 10.75 18.35 15.0 17.65 15.35 17.75 15.5 18.25 Q15.5 18.75 14.75 19.2 L12.9 20.4 12.75 20.5 Q15.5 19.75 18.35 18.05 L22.75 15.4 23.1 15.5 23.25 16.0 Q23.25 17.75 15.4 24.15 L15.25 24.25 Q23.1 21.95 28.45 16.7 31.1 14.1 35.5 7.6 L35.75 7.6 35.75 7.5 36.1 7.6 36.25 8.0 36.1 8.65 35.4 10.25 35.35 10.55 Q35.35 12.15 33.25 16.25 30.65 21.3 26.75 25.65 15.45 38.35 -0.2 38.35 -3.6 38.35 -8.55 36.75 -13.05 35.3 -13.05 34.8 L-13.0 34.35 -13.15 33.45 -13.1 32.75 Q-12.9 32.45 -12.05 32.5 L-12.9 31.1 Q-11.9 30.5 -11.25 30.5 L-11.8 29.75 Q-11.35 29.35 -10.95 29.3 L-10.25 29.25 -10.8 26.7 Q-10.8 24.75 -8.3 25.5 -9.05 24.6 -9.05 23.8 -9.05 21.15 -5.35 12.7 -2.1 5.15 -0.65 3.1 -0.85 2.75 -2.0 2.65 L-2.2 2.6 -2.25 2.15 Q-2.25 1.8 -1.25 0.7 L-0.5 -0.05 -0.4 -0.3 Q-1.1 -0.6 -1.25 -1.95 L-0.75 -3.5 -2.05 -3.15 -3.25 -2.9 -4.5 -3.0 -4.5 -3.65 Q-4.5 -4.3 -3.75 -5.4 L-3.65 -5.55 -4.5 -5.35 -5.5 -5.15 Q-6.5 -5.15 -6.55 -5.75 -6.6 -6.6 -6.8 -6.75 L-11.25 -5.55 -12.25 -5.65 -12.3 -6.5 Q-12.3 -7.2 -11.3 -9.4 L-10.15 -11.8 -10.05 -12.0 Q-11.85 -11.45 -12.85 -10.45 -14.25 -9.1 -14.75 -8.8 L-15.2 -9.2 -15.3 -9.8 -14.8 -11.4 -14.3 -12.75 -14.4 -12.95 -14.8 -13.0 Q-15.55 -13.0 -17.1 -12.3 -18.0 -12.3 -18.0 -14.5 -24.15 -10.1 -23.55 -4.55 L-23.55 -4.4 Q-23.6 -4.25 -24.0 -4.25 -24.6 -4.25 -24.9 -4.75 L-26.15 -1.0 Q-26.75 1.5 -27.5 2.75 -28.85 1.5 -28.8 -0.85 L-28.75 -4.75 -30.4 -0.65 Q-31.2 1.7 -31.05 3.75 L-31.1 3.85 -31.5 3.9 Q-32.55 3.9 -32.55 1.4 L-32.5 -2.65 -32.5 -2.75 -33.5 3.4 -33.75 5.85 -32.9 13.65 Q-32.9 14.3 -33.0 14.15 L-32.5 15.75 -32.5 16.2 Q-32.6 16.4 -33.0 16.4 -34.25 16.4 -34.9 13.35 L-35.5 11.85 -36.25 9.0 -36.5 9.15 -37.0 9.25 Q-38.05 9.25 -38.0 1.4 -38.0 -3.5 -35.8 -10.15 -33.7 -16.6 -31.0 -18.65 L-29.75 -21.3 Q-27.4 -24.55 -24.6 -27.15 -19.35 -34.1 -7.65 -36.35 -1.7 -37.5 2.85 -36.45 L3.3 -36.35 10.1 -35.4 10.15 -35.25 8.25 -34.9 6.4 -35.1 7.55 -34.2 8.95 -34.7 10.85 -34.8 10.5 -34.25 9.5 -34.05 8.6 -33.9 M8.65 -32.7 L8.85 -32.25 8.85 -32.2 10.0 -32.0 8.65 -32.7 M0.2 -3.1 L-0.15 -2.05 -0.1 -1.65 0.0 -1.5 1.05 -1.45 0.75 -2.4 0.45 -3.7 0.2 -3.1 M32.0 -7.5 Q31.7 1.5 23.0 9.75 22.25 9.0 22.25 8.45 L23.75 2.2 Q23.75 0.6 22.75 0.25 L20.75 4.4 Q19.2 7.75 17.75 7.75 17.1 7.75 15.65 6.8 14.25 5.85 13.25 5.85 L10.0 6.75 8.75 6.75 8.6 6.6 Q8.95 6.05 10.7 5.4 12.5 4.65 13.75 4.65 14.7 4.65 15.9 5.6 17.1 6.5 17.75 6.5 18.55 6.5 20.0 2.75 21.5 -1.0 22.25 -1.0 23.8 -1.0 24.45 0.55 L24.75 2.2 Q24.75 3.35 23.4 7.85 L23.5 7.9 Q27.2 4.05 29.3 -0.5 31.3 -4.9 31.4 -9.0 33.45 -7.1 33.65 -2.95 33.9 2.35 34.5 3.75 L34.4 4.0 Q33.25 2.2 33.1 -1.55 32.95 -5.6 32.0 -7.5 M19.5 24.15 L19.5 24.25 19.5 24.15 M12.3 19.35 L12.25 19.4 12.35 19.35 12.3 19.35 M10.15 14.85 L10.15 14.9 10.25 14.85 10.15 14.85 M19.9 18.45 L19.9 18.5 19.9 18.4 19.9 18.45 M-26.95 -23.35 L-28.6 -20.9 -28.55 -20.9 -28.5 -20.85 -26.95 -23.35 M-32.3 -14.6 L-32.2 -14.95 -32.75 -13.8 -32.3 -14.6 M-2.95 -4.25 L-3.0 -4.4 -3.0 -4.25 -2.95 -4.25 M-12.9 -12.1 L-13.05 -12.3 -13.0 -12.05 -12.9 -12.1 M-34.1 -2.35 L-34.15 -2.3 -34.2 -1.95 -34.1 -2.35 M-19.8 6.2 Q-20.15 6.9 -21.15 6.9 -21.65 6.9 -22.3 5.95 L-23.0 4.9 Q-23.3 5.9 -23.65 10.8 -23.9 14.4 -24.75 14.4 -25.65 14.4 -26.85 13.15 L-28.25 11.75 Q-27.9 13.8 -25.6 18.25 -23.25 22.85 -22.8 24.85 L-22.8 24.95 -23.25 25.0 Q-25.0 25.0 -30.9 18.5 L-30.55 17.65 Q-30.2 17.25 -29.75 17.25 L-27.75 19.7 Q-25.65 22.65 -23.75 24.1 L-26.75 18.05 Q-29.05 13.15 -29.05 11.05 L-29.0 10.55 -28.75 10.35 Q-27.7 10.7 -26.65 11.8 L-25.15 13.25 -24.8 6.9 Q-24.4 3.1 -21.05 5.75 L-20.6 4.55 Q-20.45 4.0 -19.75 4.0 L-18.0 4.5 Q-16.6 4.8 -16.55 4.1 L-16.25 4.5 -16.65 5.3 -19.55 5.25 -19.8 6.2 M-35.8 5.5 L-35.75 1.5 -35.75 1.25 -35.8 1.25 -35.9 3.65 -35.8 5.5" fill="#000000" fill-rule="evenodd" stroke="none"/>
  </g>
</svg>
