<?xml version="1.0" encoding="UTF-8" standalone="no"?>
<svg xmlns:xlink="http://www.w3.org/1999/xlink" height="140.6px" width="166.35px" xmlns="http://www.w3.org/2000/svg">
  <g transform="matrix(1.0, 0.0, 0.0, 1.0, 40.05, 86.7)">
    <path d="M-17.95 -45.65 L-17.7 -47.55 Q-17.1 -50.35 -15.5 -52.35 L-12.3 -56.95 Q-10.8 -59.1 -9.35 -60.5 -9.15 -62.0 -4.2 -66.7 -0.45 -70.3 4.05 -74.05 L12.8 -80.65 Q23.2 -86.7 24.55 -86.7 L25.5 -86.15 Q25.9 -85.4 26.45 -85.1 26.65 -85.0 26.85 -84.15 27.05 -83.4 27.4 -83.4 L27.9 -83.5 Q28.6 -83.5 28.65 -79.9 L28.45 -72.2 28.4 -72.15 28.35 -72.0 29.75 -70.3 31.25 -68.2 Q32.35 -66.4 34.3 -63.9 L34.3 -63.7 35.35 -64.0 39.55 -64.95 49.8 -65.9 59.25 -66.45 59.95 -66.45 59.8 -66.55 60.05 -66.6 Q60.45 -66.6 64.55 -64.5 L71.0 -60.85 75.35 -57.85 Q77.7 -56.0 78.0 -54.8 80.2 -45.0 80.2 -40.9 L80.05 -39.2 80.15 -38.5 80.15 -38.4 80.2 -38.4 80.6 -38.5 83.9 -38.55 85.5 -38.45 86.2 -38.35 86.2 -38.2 Q86.65 -38.2 86.8 -35.95 L86.9 -35.8 87.65 -34.8 88.95 -33.3 91.25 -30.25 93.4 -27.25 94.8 -24.9 97.7 -25.7 Q98.75 -25.7 99.5 -23.85 L100.15 -21.9 100.8 -19.9 101.1 -17.75 102.25 -9.6 102.35 -9.0 102.55 -7.35 102.7 -4.3 Q102.9 -0.6 103.25 1.95 104.25 9.1 104.6 14.5 L104.6 23.15 104.65 23.15 104.75 26.3 104.5 26.2 104.45 26.3 104.4 23.9 104.3 23.9 104.25 15.45 Q104.2 10.35 103.65 7.0 103.15 3.9 102.7 -1.4 L101.85 -9.8 101.85 -10.25 102.0 -10.05 101.8 -11.65 Q101.6 -9.65 98.65 -6.95 95.3 -3.95 91.8 -3.45 L91.7 -3.4 Q91.2 -3.05 90.85 -3.05 90.0 -3.05 88.9 -4.0 L87.65 -5.15 84.55 -7.55 Q84.1 -7.85 83.6 -8.3 L83.55 -8.3 83.55 -8.25 81.35 6.3 80.25 14.15 80.1 14.6 80.1 15.0 79.25 21.0 79.05 28.7 78.85 37.75 79.1 45.3 79.05 45.35 79.1 45.35 80.75 45.4 81.85 45.7 82.6 45.6 83.45 45.8 84.5 45.85 84.65 46.05 85.2 46.45 86.2 47.05 87.35 47.55 88.0 47.65 88.05 47.65 88.25 47.75 88.3 47.75 90.4 47.85 92.5 47.6 95.6 47.35 97.25 47.55 98.35 47.75 99.75 47.6 100.85 47.4 102.4 46.8 102.85 44.15 103.65 37.1 Q104.4 31.35 104.45 28.0 L104.75 27.55 104.4 32.2 104.55 32.2 Q105.2 32.2 107.8 34.7 L111.6 38.6 114.55 41.55 Q116.65 43.85 116.75 45.0 L117.0 45.15 Q118.8 46.25 119.5 47.0 119.9 47.65 120.7 47.7 L122.1 47.8 123.45 48.55 124.5 48.85 126.25 48.85 126.3 48.9 126.3 49.15 125.0 49.15 123.0 48.55 121.75 48.05 120.65 47.9 Q119.7 47.8 119.35 47.4 L116.9 45.55 116.7 45.45 Q116.45 46.35 114.9 47.5 112.85 48.95 110.65 48.95 L110.05 48.85 109.1 49.05 109.2 49.25 109.05 49.3 108.55 49.05 108.35 48.95 108.35 48.9 105.85 47.25 105.4 47.1 104.95 46.95 104.45 46.4 103.85 45.8 Q103.45 45.5 103.0 45.55 L102.75 46.45 102.8 46.7 102.95 46.9 102.9 47.1 102.8 47.15 102.6 47.1 102.6 47.05 102.45 47.45 102.35 47.25 100.9 47.75 98.3 48.15 97.35 48.05 96.95 47.85 96.8 47.75 94.7 47.7 92.45 47.9 90.35 48.25 87.9 48.1 87.9 47.95 86.65 47.65 85.75 47.25 85.1 46.8 Q84.75 46.75 84.5 46.5 L84.5 46.45 84.1 46.4 84.05 46.25 83.15 46.1 82.6 46.0 81.85 46.1 Q81.25 45.8 79.95 45.8 L78.8 45.6 77.85 45.4 76.25 45.55 74.3 45.35 74.25 45.3 74.25 45.05 73.8 46.45 Q72.8 48.25 71.0 49.05 L68.5 50.15 66.45 50.85 66.2 50.85 66.15 50.65 66.25 50.6 65.9 50.6 62.05 50.3 57.65 49.95 49.6 50.4 42.7 50.75 38.0 50.9 31.75 50.4 Q30.65 50.15 29.9 49.75 L29.85 49.75 29.6 49.65 28.65 48.85 28.1 48.65 27.75 48.75 26.25 49.05 25.2 49.45 24.95 49.5 24.9 49.25 17.0 49.85 15.4 49.85 16.9 50.4 Q18.5 51.25 18.6 51.45 L18.45 51.55 17.4 51.1 16.4 50.55 15.25 50.2 14.25 49.75 Q12.7 48.3 11.9 48.3 L11.75 48.35 11.75 48.4 12.1 49.3 Q12.1 50.35 10.5 51.2 8.9 52.1 6.75 52.4 6.25 52.45 4.25 53.25 L-1.0 53.9 -4.95 53.85 -6.4 53.4 -7.9 53.05 -8.8 52.35 -8.65 52.3 -8.45 52.4 -8.4 52.4 -8.75 51.8 -8.65 51.45 -8.8 50.5 -8.8 50.4 Q-9.3 50.45 -10.1 51.1 -11.25 52.0 -11.7 52.0 L-12.0 51.85 -10.7 50.95 -11.0 50.95 -12.2 50.85 -14.85 51.05 -19.45 51.2 Q-24.95 51.2 -28.15 50.3 -31.3 49.35 -31.3 47.9 L-30.75 46.55 -30.0 45.3 -29.95 45.05 Q-31.05 45.45 -31.85 46.1 L-33.05 47.45 -34.6 48.65 -36.3 49.75 Q-36.3 50.45 -40.0 51.2 L-40.05 51.05 Q-40.05 50.75 -38.55 50.35 L-36.55 49.7 Q-36.35 49.5 -35.15 48.65 L-33.25 47.1 Q-32.2 45.6 -29.95 44.6 L-29.85 44.6 -28.7 39.15 Q-27.55 34.05 -27.05 33.0 L-27.05 32.95 -24.8 23.4 -23.55 18.85 -23.45 19.15 -23.35 19.15 -24.7 23.95 -26.7 32.85 -26.65 32.9 -26.8 33.3 -27.6 36.2 -28.4 39.55 -29.1 42.9 -29.5 44.6 -29.45 44.6 -29.4 44.75 -29.45 44.9 -29.65 44.95 -30.0 45.85 -30.0 45.75 -31.0 47.85 Q-31.0 49.2 -27.75 50.0 -24.5 50.85 -19.4 50.85 L-14.4 50.65 -12.1 50.45 -10.2 50.55 -10.2 50.6 -9.15 50.0 -8.75 50.0 Q-8.65 48.75 -7.9 47.1 L-6.1 44.0 -4.0 41.9 -3.9 41.85 -4.0 41.85 -4.05 41.85 -4.1 41.65 -3.85 41.05 -3.8 40.95 -3.85 40.55 -2.95 33.75 -1.9 27.3 -0.45 20.55 0.45 17.05 Q-0.05 16.3 -0.35 11.95 -0.35 9.4 0.2 5.7 L0.35 5.5 0.3 5.25 0.55 3.65 0.6 3.55 Q-0.8 3.45 -5.1 1.6 -9.55 -0.3 -11.2 -1.5 L-11.2 -1.75 -11.85 -2.4 -12.25 -2.8 -17.75 5.8 Q-18.75 7.55 -19.8 10.3 L-21.55 14.7 -21.65 14.65 Q-21.95 14.65 -22.5 16.0 L-21.85 14.5 -20.0 9.85 Q-18.95 6.95 -17.9 5.35 L-15.0 0.65 -12.4 -2.95 -13.65 -4.15 Q-15.05 -5.4 -16.0 -7.2 -16.8 -8.85 -18.25 -13.8 -19.0 -16.55 -19.6 -20.2 -20.4 -24.7 -20.4 -27.4 L-20.35 -27.95 -20.35 -28.05 Q-18.2 -34.25 -15.8 -38.4 L-16.85 -39.85 -17.85 -41.9 -18.05 -41.9 -18.1 -42.4 -18.05 -44.4 -18.0 -44.4 -17.75 -44.75 -17.75 -42.25 -16.9 -40.8 -15.6 -38.7 -14.25 -41.1 Q-13.3 -42.65 -12.35 -43.65 -11.25 -44.7 -9.35 -44.7 L-6.5 -44.35 -3.35 -43.95 -2.35 -43.6 -2.0 -43.55 1.1 -43.05 5.15 -42.0 Q7.85 -41.35 11.15 -39.9 L12.65 -41.6 15.3 -44.85 18.9 -50.2 Q20.4 -52.2 21.8 -55.3 22.15 -55.4 22.5 -56.8 L24.15 -60.45 24.2 -60.5 24.25 -60.55 24.1 -60.5 24.05 -60.65 25.95 -64.85 Q27.9 -69.65 28.05 -72.8 L28.15 -72.8 28.35 -79.8 28.25 -81.65 28.0 -82.65 27.6 -82.9 Q27.2 -83.0 27.0 -83.2 26.7 -83.35 26.6 -84.0 26.5 -84.65 26.1 -84.9 25.6 -85.2 25.25 -85.8 24.95 -86.3 24.5 -86.3 19.95 -84.3 18.55 -83.5 14.15 -81.2 12.8 -80.2 L4.15 -73.6 0.5 -70.35 -3.2 -66.95 -6.5 -63.65 -8.4 -61.2 -8.4 -61.15 -10.9 -58.2 Q-13.75 -54.7 -15.4 -51.85 L-16.7 -49.5 Q-17.4 -48.1 -17.55 -47.1 L-17.65 -46.15 -17.95 -45.65 M79.45 -45.3 L79.6 -45.7 79.35 -46.1 78.95 -48.3 77.7 -54.75 Q77.55 -55.45 76.45 -56.45 L74.7 -57.85 70.25 -60.9 Q69.0 -61.75 64.75 -63.8 L60.25 -66.15 52.85 -65.8 40.0 -64.65 Q34.7 -63.6 32.55 -62.55 L32.4 -62.2 32.55 -61.9 32.4 -61.85 32.3 -61.85 31.5 -59.85 30.95 -58.35 31.05 -58.1 30.9 -58.05 30.85 -58.05 29.95 -55.5 27.8 -48.45 25.1 -41.35 25.05 -41.15 24.6 -40.3 24.7 -40.15 Q23.4 -36.6 22.9 -34.1 L22.85 -34.0 22.9 -34.0 Q26.9 -31.8 29.0 -29.95 L29.45 -30.85 29.95 -31.9 30.95 -32.95 32.7 -33.4 35.85 -33.75 36.65 -33.55 37.8 -33.5 39.2 -33.25 40.05 -32.7 Q40.65 -32.3 41.1 -32.15 L43.05 -31.15 46.0 -30.45 Q48.25 -30.2 50.2 -29.4 L54.15 -31.1 58.7 -32.8 66.65 -35.1 70.1 -36.0 73.55 -37.0 79.85 -38.35 79.75 -39.2 79.9 -40.85 79.45 -45.3 M32.6 -63.2 L32.65 -63.05 34.05 -63.6 31.6 -66.95 Q29.3 -70.15 28.35 -71.8 L27.6 -68.65 28.9 -67.25 30.0 -65.45 32.2 -62.45 32.25 -62.6 32.25 -62.65 32.45 -62.9 32.6 -63.2 M25.25 -62.35 L25.2 -62.45 25.2 -62.35 24.65 -61.25 24.65 -61.15 24.55 -60.65 24.5 -60.6 24.6 -60.6 28.2 -50.65 28.8 -52.7 Q28.3 -53.3 26.95 -57.55 L25.25 -62.35 M25.35 -62.7 L26.5 -61.35 27.8 -59.8 30.0 -57.0 30.45 -58.4 28.8 -60.35 25.9 -64.0 25.35 -62.7 M27.25 -63.0 L28.65 -61.35 29.9 -59.75 30.6 -58.85 Q31.25 -60.75 31.95 -62.05 31.3 -62.6 30.1 -64.5 L27.55 -68.35 26.6 -65.8 26.05 -64.4 27.25 -63.0 M25.85 -61.5 L27.3 -57.7 28.9 -53.1 29.75 -56.15 29.9 -56.65 27.0 -59.95 25.85 -61.5 M26.1 -55.2 L24.4 -60.25 22.35 -55.5 Q21.1 -52.7 19.3 -50.1 L15.7 -44.75 Q13.65 -41.7 11.55 -39.75 L13.4 -38.85 22.6 -34.2 22.65 -34.15 22.6 -34.35 23.4 -37.4 24.75 -41.6 27.55 -48.7 28.05 -50.2 Q27.5 -50.25 26.1 -55.2 M-20.05 -26.45 Q-19.95 -23.85 -19.35 -20.5 L-17.95 -13.9 Q-17.0 -9.75 -15.65 -7.25 -15.45 -6.2 -14.8 -5.6 L-13.15 -4.2 -11.6 -2.75 -10.6 -1.5 -8.8 -0.55 -5.45 1.25 -2.1 2.15 Q-0.35 2.7 0.65 3.35 1.45 -0.95 2.35 -3.75 3.15 -6.4 5.3 -11.25 L6.95 -15.0 8.95 -18.4 8.95 -18.5 Q8.95 -18.7 9.85 -19.15 L10.95 -19.1 12.9 -21.3 15.5 -23.85 16.85 -24.85 18.35 -25.7 25.15 -26.5 27.9 -26.15 27.9 -26.55 28.1 -27.1 28.25 -27.1 Q28.45 -27.15 28.45 -27.5 L28.3 -27.8 28.55 -28.7 28.9 -29.7 22.6 -34.0 13.35 -38.5 Q7.8 -40.95 5.2 -41.65 L-1.55 -43.05 -1.65 -43.1 -1.6 -43.0 -1.8 -42.95 -3.15 -43.35 -4.85 -43.8 -9.55 -44.3 Q-11.3 -44.3 -12.45 -43.05 L-14.25 -40.55 -16.6 -36.3 -18.45 -32.05 -20.0 -28.05 -19.9 -27.9 -19.95 -27.65 -20.1 -27.6 -20.15 -27.1 -20.05 -26.45 M45.4 -25.1 L44.9 -25.1 44.7 -24.85 44.55 -25.05 44.55 -25.1 43.65 -25.1 38.6 -25.4 36.3 -25.75 Q32.75 -25.75 31.4 -25.05 L31.35 -24.8 31.15 -24.8 Q30.15 -24.05 29.2 -23.75 L24.7 -22.25 24.4 -22.25 24.35 -22.3 24.35 -22.55 Q27.0 -23.15 29.15 -24.1 L30.55 -24.75 30.55 -24.8 Q29.65 -25.05 27.4 -25.85 L24.95 -26.1 20.95 -25.75 18.3 -25.3 Q17.6 -25.15 16.75 -24.5 L15.5 -23.35 13.0 -21.05 11.15 -19.0 11.5 -18.8 13.2 -17.45 13.4 -17.15 13.45 -17.05 13.5 -17.05 14.25 -15.95 15.3 -14.5 Q18.3 -11.05 19.6 -8.55 L21.15 -5.5 22.15 -4.05 23.15 -2.6 25.2 1.35 Q25.7 0.8 28.1 -0.75 L31.75 -3.0 Q34.3 -4.75 38.75 -6.65 L40.1 -8.6 42.05 -11.35 Q42.65 -12.35 42.95 -13.85 43.3 -15.55 43.7 -16.4 L44.5 -18.3 44.65 -18.35 44.6 -18.55 44.7 -18.95 Q45.25 -20.4 46.1 -21.3 L48.65 -23.5 48.85 -23.75 49.55 -24.2 Q50.65 -24.85 51.45 -24.85 L52.55 -24.6 52.8 -24.5 52.8 -24.6 52.15 -24.85 51.4 -24.9 48.75 -25.1 45.7 -25.2 45.35 -25.15 45.3 -25.15 45.4 -25.1 M50.4 -28.7 L48.75 -29.45 44.5 -30.2 Q43.55 -30.4 40.75 -32.05 38.45 -33.4 35.65 -33.4 32.05 -33.4 30.8 -32.45 30.35 -32.15 29.6 -30.45 L28.85 -28.5 28.25 -26.5 28.4 -26.25 28.3 -26.0 28.35 -26.0 Q30.25 -25.35 30.95 -25.25 L31.35 -25.25 31.35 -25.2 31.7 -25.4 Q32.05 -25.5 32.25 -25.75 L32.35 -25.75 32.5 -25.75 32.65 -25.8 34.25 -25.9 35.0 -26.0 36.45 -26.05 38.65 -25.75 43.65 -25.45 44.9 -25.45 44.95 -25.45 44.9 -25.5 44.9 -25.55 44.95 -25.5 45.0 -25.45 45.75 -25.55 47.35 -25.4 48.4 -25.5 Q52.4 -25.5 53.1 -24.75 L53.15 -24.75 53.2 -24.5 53.2 -24.45 54.65 -24.35 56.1 -24.45 57.2 -24.85 58.25 -25.1 59.7 -25.25 60.0 -25.3 60.8 -25.3 61.85 -25.25 61.8 -25.5 61.85 -25.6 61.0 -26.7 59.85 -26.8 59.15 -27.0 56.4 -27.25 Q55.15 -27.15 52.85 -27.8 51.0 -28.3 50.6 -28.75 L50.4 -28.7 M22.65 -2.7 L22.65 -3.05 22.15 -3.5 19.45 -8.2 Q17.6 -11.55 15.5 -13.75 L13.4 -16.55 Q11.65 -18.85 10.65 -18.85 9.85 -18.85 9.5 -18.5 L9.35 -18.4 7.15 -14.65 5.5 -10.95 Q4.7 -9.3 4.0 -7.3 L2.65 -3.6 Q1.9 -1.65 0.95 3.6 L0.2 8.55 0.1 8.55 0.1 9.4 -0.05 12.0 Q-0.05 13.35 0.7 16.35 L1.1 15.25 1.0 15.1 1.45 13.95 2.05 12.9 Q2.25 12.6 3.25 12.0 4.15 11.45 4.4 11.4 L5.6 10.9 8.45 10.65 12.2 10.5 16.45 10.35 19.1 10.25 Q23.5 10.25 25.85 11.75 L25.6 7.95 25.5 4.45 25.6 3.45 Q25.6 2.35 22.8 -2.45 L22.65 -2.7 M85.7 -30.8 L85.75 -30.8 Q86.1 -30.8 86.2 -31.3 L86.5 -31.55 86.5 -34.8 86.0 -38.0 85.7 -38.0 85.35 -38.15 83.75 -38.15 Q79.7 -38.15 74.85 -36.95 L66.65 -34.7 58.8 -32.45 Q53.8 -30.8 50.75 -29.3 L51.3 -29.0 52.55 -28.2 Q53.85 -27.6 57.05 -27.6 60.05 -27.6 61.25 -26.95 L62.2 -25.6 62.2 -25.35 62.15 -25.3 62.15 -25.25 64.55 -24.85 64.55 -24.8 65.05 -24.75 Q68.35 -23.85 70.15 -21.2 L70.5 -20.6 Q72.7 -21.2 75.5 -22.9 L79.85 -25.85 83.6 -28.85 85.7 -30.8 M49.0 -23.35 L48.55 -23.05 Q47.15 -22.05 46.25 -20.95 45.6 -20.2 44.95 -18.7 L43.95 -16.1 43.25 -13.45 Q42.9 -11.9 42.3 -11.1 L39.3 -6.9 40.6 -7.5 45.45 -9.75 Q48.55 -11.2 49.75 -11.25 L53.7 -12.6 Q57.7 -14.0 58.4 -14.0 59.5 -14.0 60.9 -12.6 62.15 -11.35 62.6 -10.25 L63.4 -8.3 64.15 -6.2 64.35 -4.0 Q64.35 -2.55 64.65 -1.65 L64.9 -0.75 64.95 -0.65 64.95 -0.6 65.25 0.55 65.45 1.2 65.3 1.3 65.35 1.45 65.5 1.45 65.65 2.1 65.55 2.2 65.6 2.45 65.7 2.35 65.7 2.5 65.15 5.0 65.05 5.35 65.0 5.35 65.0 5.5 Q64.6 6.85 64.7 7.75 L64.5 9.1 64.15 10.45 64.0 11.75 63.65 12.8 63.55 17.5 Q63.55 18.2 62.05 20.4 L61.2 21.8 60.65 22.85 60.9 22.9 Q62.5 23.25 64.0 24.0 L65.3 21.75 66.9 18.75 66.8 18.8 66.75 18.65 67.25 17.75 67.3 17.65 67.3 17.7 67.35 17.6 Q68.2 15.95 68.3 14.7 L68.8 12.7 69.15 10.6 69.9 6.45 Q70.3 3.95 70.3 2.3 L70.15 -0.95 70.15 -1.2 70.2 -1.55 70.1 -1.85 69.9 -3.6 69.4 -3.5 69.25 -3.25 69.05 -3.25 68.6 -2.9 68.6 -2.8 Q66.25 -1.25 65.0 -0.65 L64.95 -0.8 66.65 -2.05 68.3 -3.0 68.6 -3.4 69.0 -3.65 Q70.65 -6.45 71.15 -7.8 71.95 -9.8 71.95 -11.85 L71.9 -15.35 70.6 -19.55 Q69.9 -21.5 67.95 -22.95 65.6 -24.6 62.0 -24.85 L60.65 -24.9 57.05 -24.45 Q55.95 -23.95 54.6 -23.95 L52.8 -24.2 51.45 -24.5 Q50.3 -24.5 49.5 -23.85 L49.25 -23.6 49.3 -23.6 49.05 -23.4 49.0 -23.35 M65.2 1.3 L65.3 1.05 65.1 0.8 64.3 -1.75 Q64.0 -2.6 64.0 -3.95 L63.9 -5.9 Q63.35 -8.35 61.9 -10.7 60.15 -13.6 58.35 -13.6 57.7 -13.6 53.95 -12.35 L49.65 -10.85 Q48.35 -10.55 45.4 -9.2 L40.6 -7.05 Q32.8 -3.85 25.35 1.75 L25.9 3.45 25.8 4.45 25.9 7.65 26.05 10.1 26.05 10.2 25.95 10.2 25.9 10.35 25.95 11.05 26.1 11.1 26.2 11.75 26.2 12.0 27.4 13.25 27.2 13.45 27.25 13.6 27.5 13.4 27.6 13.55 Q28.0 14.25 29.75 15.7 30.5 16.3 34.65 16.65 L35.1 16.75 35.05 16.8 35.1 16.95 35.35 16.8 42.8 18.35 Q47.2 21.65 47.4 22.55 48.8 22.0 50.2 22.1 L60.25 22.8 Q60.4 22.15 61.5 20.55 L62.85 18.7 Q63.35 17.9 63.35 14.0 L63.4 12.55 63.5 12.55 64.4 7.65 64.65 4.95 65.4 2.45 65.2 1.3 M77.1 -23.4 L77.15 -23.5 77.05 -23.45 75.6 -22.6 Q71.8 -20.3 70.75 -20.25 72.2 -17.4 72.3 -12.65 L72.2 -10.8 72.25 -10.4 Q72.0 -8.75 71.35 -7.2 L69.65 -3.95 69.95 -4.0 Q70.6 -4.0 70.65 2.3 70.65 4.05 69.5 10.65 L68.65 15.25 68.3 16.5 69.75 19.05 Q70.8 21.3 70.8 22.7 70.8 23.35 69.7 25.05 68.7 26.55 68.05 26.9 L70.05 29.35 72.65 33.0 73.4 34.25 73.45 34.4 73.45 34.55 73.7 34.9 74.4 36.85 Q75.05 38.95 75.05 40.75 L74.6 43.4 74.3 44.95 74.85 44.9 75.45 45.05 76.3 45.15 77.9 45.0 Q78.35 45.0 78.75 45.25 L78.8 45.25 78.75 45.1 78.8 44.9 78.55 37.75 Q78.55 33.35 78.9 20.5 L79.0 20.5 81.05 5.95 82.3 -2.1 83.2 -8.55 83.2 -8.6 79.5 -12.4 Q77.1 -14.95 77.55 -17.75 L77.1 -23.4 M77.6 -20.85 L77.85 -18.15 Q77.65 -16.1 78.1 -15.3 78.95 -13.45 79.65 -12.75 82.65 -9.4 84.7 -7.9 L86.4 -6.8 87.8 -5.55 88.9 -4.45 Q90.15 -3.45 90.9 -3.45 L91.15 -3.5 91.1 -3.6 Q91.1 -3.8 91.7 -3.85 L92.05 -4.0 92.1 -3.85 93.6 -4.2 95.55 -5.0 Q96.55 -5.6 98.25 -7.2 L100.4 -9.55 Q101.45 -10.85 101.45 -11.95 L101.0 -13.8 101.1 -14.1 100.65 -14.7 100.35 -15.3 98.7 -18.2 96.9 -21.05 95.05 -24.05 93.2 -27.0 Q92.15 -28.95 91.05 -30.0 90.55 -30.4 89.95 -31.35 L88.9 -32.85 87.5 -34.35 86.8 -35.15 86.8 -33.7 86.6 -31.6 86.65 -31.5 Q86.65 -30.3 80.1 -25.55 L77.4 -23.75 77.6 -20.85 M95.25 -24.35 L97.15 -21.45 Q98.35 -19.25 99.05 -18.35 L100.85 -15.3 101.5 -13.6 100.95 -17.25 Q99.6 -25.3 97.7 -25.3 L95.6 -24.75 94.9 -24.75 95.25 -24.35 M37.9 28.4 L37.95 28.45 38.15 28.2 40.25 27.1 Q43.4 25.45 44.7 24.1 45.35 23.4 46.8 22.8 L46.9 22.8 46.95 22.75 47.0 22.7 47.0 22.65 Q45.45 19.4 40.9 18.0 38.7 17.3 34.25 16.9 30.8 16.6 29.2 15.7 28.1 15.15 27.25 13.75 L26.2 12.5 25.95 12.55 25.9 12.3 Q23.65 10.6 18.85 10.6 6.95 10.6 3.7 12.1 2.55 12.65 2.0 13.6 L1.55 14.45 0.2 19.8 -1.65 27.6 -2.85 35.55 -3.0 36.45 -2.95 36.5 -3.35 39.35 -3.6 39.85 -3.6 40.15 -3.45 40.15 -3.5 40.65 -3.4 40.65 -3.4 40.95 -3.55 41.45 -3.6 41.6 -3.5 41.5 -1.6 40.4 Q1.0 39.05 2.6 39.05 4.05 39.05 5.35 40.6 L5.3 40.7 5.3 41.1 5.55 41.1 5.6 40.9 6.0 41.45 8.55 43.95 10.4 46.3 11.55 47.95 11.95 47.9 Q12.5 47.9 14.25 49.25 L14.25 49.2 15.05 49.2 17.0 49.5 20.2 49.2 25.0 48.9 28.2 48.2 27.95 47.25 27.9 47.25 27.9 46.0 Q28.0 42.9 29.35 39.45 30.1 37.6 32.4 33.1 33.15 31.55 35.2 30.05 L37.9 28.4 M9.5 45.7 L9.6 45.65 9.6 45.4 9.2 45.3 8.2 44.05 5.7 41.6 4.55 40.35 Q3.6 39.55 2.25 39.4 L2.0 39.4 Q-2.45 40.1 -5.65 44.0 -8.3 47.1 -8.45 50.05 L-8.7 50.05 -8.7 50.35 -8.65 50.4 -8.6 50.4 -8.6 50.55 -8.45 51.0 Q-8.35 52.25 -7.3 52.75 -5.75 53.5 -1.0 53.5 2.4 53.5 4.25 52.8 L6.45 52.05 Q11.75 51.45 11.75 49.3 L11.45 48.5 11.3 48.5 11.25 48.35 11.3 48.25 10.05 46.45 9.5 45.7 M116.2 45.85 L116.45 45.6 116.4 45.5 116.45 45.1 Q116.45 44.05 113.95 41.4 L111.05 38.55 108.05 35.45 105.45 33.45 Q104.55 32.85 104.4 32.5 L104.1 35.95 103.9 37.8 103.7 39.35 Q103.45 39.35 103.45 39.5 L103.65 39.85 103.6 40.2 103.4 42.35 103.35 42.9 103.4 42.9 103.45 43.0 103.6 43.5 103.45 43.55 103.4 43.55 103.05 45.15 103.25 45.15 Q103.7 45.15 104.3 45.65 L104.9 46.25 106.35 47.2 108.0 48.35 108.5 48.6 110.05 48.45 110.7 48.55 Q112.55 48.55 114.6 47.2 L116.15 45.95 116.2 45.85 M67.25 18.35 L67.25 18.85 65.9 21.55 64.25 24.1 Q65.65 24.8 66.9 25.9 L67.0 25.8 67.7 26.5 69.3 24.95 Q70.5 23.5 70.5 22.85 70.5 21.3 69.55 19.55 L68.15 16.8 67.25 18.35 M67.0 26.3 L66.95 26.15 Q64.25 24.1 60.05 23.2 L50.1 22.4 47.35 22.8 46.5 23.15 44.7 24.6 40.0 27.6 37.25 29.0 Q35.45 29.95 34.9 30.55 33.7 31.7 32.7 33.4 L32.5 33.4 32.5 33.65 Q28.6 39.35 28.2 46.5 L28.3 46.5 28.35 46.7 28.25 46.9 Q28.25 47.8 28.85 48.55 L29.35 48.95 29.65 49.2 Q30.65 49.85 32.45 50.2 L38.05 50.5 49.7 50.0 57.65 49.6 61.8 49.9 65.9 50.25 67.1 50.15 67.1 50.2 67.5 50.0 Q69.0 49.3 70.3 48.95 71.65 48.5 72.3 47.8 L73.4 46.45 Q73.75 46.05 73.9 45.05 L74.1 43.55 74.7 40.7 Q74.7 38.4 74.2 36.9 73.7 35.3 72.2 32.9 L69.95 29.4 67.65 27.0 67.6 26.9 67.0 26.3" fill="#000000" fill-rule="evenodd" stroke="none"/>
    <path d="M24.2 -60.5 L24.15 -60.45 24.1 -60.5 24.2 -60.5 M21.8 -55.3 Q20.4 -52.2 18.9 -50.2 L15.3 -44.85 12.65 -41.6 11.15 -39.9 Q7.85 -41.35 5.15 -42.0 L1.1 -43.05 -2.0 -43.55 -2.35 -43.6 -3.35 -43.95 -6.5 -44.35 -9.35 -44.7 Q-11.25 -44.7 -12.35 -43.65 -13.3 -42.65 -14.25 -41.1 L-15.6 -38.7 -16.9 -40.8 -17.75 -42.25 -17.75 -44.75 -15.8 -47.6 -12.4 -52.35 -9.0 -56.4 Q-6.65 -58.8 -2.95 -60.2 L-3.0 -60.15 -3.65 -58.5 -3.9 -57.3 -3.9 -56.9 Q-3.8 -56.65 -3.3 -56.65 -1.65 -56.65 3.6 -61.65 8.8 -66.7 11.55 -66.7 L11.95 -65.1 Q12.2 -63.55 12.6 -63.55 L17.6 -64.85 17.7 -63.35 17.45 -61.3 17.45 -61.0 Q17.5 -60.65 17.85 -60.65 L19.2 -61.75 20.85 -63.35 21.6 -64.7 22.35 -66.05 22.7 -64.35 Q22.7 -61.9 22.05 -58.95 L21.35 -56.0 21.35 -55.6 Q21.4 -55.3 21.75 -55.3 L21.8 -55.3 M25.1 -41.35 L25.1 -41.25 25.05 -41.15 25.1 -41.35 M24.7 -40.15 L24.7 -40.05 25.1 -40.0 34.25 -47.9 40.1 -52.0 Q44.55 -54.55 49.1 -54.8 L48.7 -54.2 Q48.7 -53.95 49.0 -53.65 L49.85 -53.6 49.85 -53.55 48.6 -52.0 47.85 -50.9 Q47.85 -50.5 48.5 -50.5 L52.75 -51.8 58.85 -53.15 60.4 -52.7 61.7 -52.1 61.1 -50.55 60.45 -49.0 Q60.45 -48.55 61.25 -48.35 L64.5 -47.9 68.35 -47.3 69.8 -47.0 Q70.5 -47.0 71.85 -48.0 73.2 -49.1 74.1 -49.1 75.35 -49.1 79.25 -45.2 79.4 -45.2 79.45 -45.3 L79.9 -40.85 79.75 -39.2 79.85 -38.35 73.55 -37.0 70.1 -36.0 66.65 -35.1 58.7 -32.8 54.15 -31.1 50.2 -29.4 Q48.25 -30.2 46.0 -30.45 L43.05 -31.15 41.1 -32.15 Q40.65 -32.3 40.05 -32.7 L39.2 -33.25 37.8 -33.5 36.65 -33.55 35.85 -33.75 32.7 -33.4 30.95 -32.95 29.95 -31.9 29.45 -30.85 29.0 -29.95 Q26.9 -31.8 22.9 -34.0 L22.9 -34.1 Q23.4 -36.6 24.7 -40.15 M18.55 -57.75 L19.0 -57.7 Q19.25 -57.7 20.3 -59.1 L21.35 -60.6 21.3 -61.0 Q20.6 -61.0 19.5 -59.6 L18.45 -58.05 18.55 -57.75 M10.1 -63.7 Q10.1 -65.3 6.25 -61.9 2.35 -58.5 2.35 -57.75 L2.45 -57.5 2.85 -57.45 6.6 -60.45 10.1 -63.7 M38.65 -46.5 Q32.85 -42.9 32.85 -41.7 32.85 -41.35 33.75 -41.35 35.95 -41.35 40.35 -44.2 44.45 -46.9 44.45 -47.65 44.45 -50.2 38.65 -46.5 M-20.05 -26.45 Q-19.9 -25.75 -19.4 -25.75 -18.15 -25.75 -14.95 -30.45 -11.75 -35.2 -10.15 -35.2 -9.6 -35.2 -9.6 -34.5 -9.55 -33.8 -8.6 -33.8 -6.4 -34.1 -6.4 -33.0 L-6.65 -31.15 Q-6.75 -29.9 -5.55 -29.9 -5.25 -29.9 -0.2 -32.35 4.8 -34.85 8.0 -34.85 L11.15 -34.1 Q14.35 -33.3 14.65 -33.4 18.9 -33.4 19.65 -31.55 19.85 -31.0 21.65 -30.5 23.7 -29.95 24.3 -29.45 L25.3 -27.85 Q25.75 -27.1 27.25 -27.1 L28.1 -27.1 27.9 -26.55 27.9 -26.15 25.15 -26.5 18.35 -25.7 16.85 -24.85 15.5 -23.85 12.9 -21.3 10.95 -19.1 9.85 -19.15 Q8.95 -18.7 8.95 -18.5 L8.95 -18.4 6.95 -15.0 5.3 -11.25 Q3.15 -6.4 2.35 -3.75 1.45 -0.95 0.65 3.35 -0.35 2.7 -2.1 2.15 L-5.45 1.25 -8.8 -0.55 -10.6 -1.5 -11.6 -2.75 -13.15 -4.2 -14.8 -5.6 Q-15.45 -6.2 -15.65 -7.25 -17.0 -9.75 -17.95 -13.9 L-19.35 -20.5 Q-19.95 -23.85 -20.05 -26.45 M-1.55 -43.05 L-1.6 -43.0 -1.65 -43.1 -1.55 -43.05 M13.5 -17.05 L15.6 -18.8 Q17.55 -20.1 19.7 -20.1 L20.7 -19.85 22.05 -19.65 22.85 -19.45 24.25 -19.2 Q29.25 -19.2 32.8 -21.65 36.35 -24.05 38.0 -24.05 41.25 -24.05 42.05 -23.2 38.55 -19.75 38.55 -19.35 38.55 -18.9 39.2 -18.9 L40.55 -19.0 Q42.15 -19.0 42.35 -18.35 42.5 -17.75 42.8 -17.75 L44.5 -18.3 43.7 -16.4 Q43.3 -15.55 42.95 -13.85 42.65 -12.35 42.05 -11.35 L40.1 -8.6 38.75 -6.65 Q34.3 -4.75 31.75 -3.0 L28.1 -0.75 Q25.7 0.8 25.2 1.35 L23.15 -2.6 22.15 -4.05 21.15 -5.5 19.6 -8.55 Q18.3 -11.05 15.3 -14.5 L14.25 -15.95 13.5 -17.05 M48.85 -23.75 L46.6 -24.85 46.5 -24.85 45.4 -25.1 45.35 -25.15 45.7 -25.2 48.75 -25.1 51.4 -24.9 51.45 -24.85 Q50.65 -24.85 49.55 -24.2 L48.85 -23.75 M32.25 -25.75 L32.35 -25.8 32.35 -25.75 32.25 -25.75 M32.65 -25.8 L32.65 -26.05 Q32.55 -26.2 32.75 -26.5 L33.7 -26.8 34.95 -26.65 Q39.8 -26.65 41.05 -27.3 41.8 -27.65 42.65 -28.7 L42.65 -28.65 42.6 -27.9 Q42.65 -27.4 43.25 -27.2 L42.9 -26.75 42.9 -26.45 42.95 -26.1 43.65 -25.9 44.4 -26.0 44.75 -26.05 44.75 -26.2 Q44.75 -27.35 46.95 -27.95 L50.4 -28.7 50.6 -28.75 Q51.0 -28.3 52.85 -27.8 55.15 -27.15 56.4 -27.25 L59.15 -27.0 59.85 -26.8 61.0 -26.7 61.85 -25.6 61.8 -25.5 61.85 -25.25 60.8 -25.3 60.0 -25.3 59.7 -25.25 58.25 -25.1 57.2 -24.85 56.1 -24.45 54.65 -24.35 53.2 -24.45 53.2 -24.5 53.15 -24.75 53.1 -24.75 Q52.4 -25.5 48.4 -25.5 L47.35 -25.4 45.75 -25.55 45.0 -25.45 44.95 -25.5 44.9 -25.55 44.9 -25.5 44.95 -25.45 44.9 -25.45 43.65 -25.45 38.65 -25.75 36.45 -26.05 35.0 -26.0 34.25 -25.9 32.65 -25.8 M1.9 -29.05 Q6.1 -31.35 6.1 -32.0 6.1 -33.45 0.9 -30.65 -4.3 -27.9 -4.3 -27.15 -4.3 -26.8 -3.4 -26.8 -2.3 -26.8 1.9 -29.05 M0.1 9.4 L0.1 10.8 0.15 10.9 1.1 8.65 Q1.65 7.15 2.15 6.3 L4.25 1.65 Q5.0 -0.65 6.2 -3.15 8.3 -7.55 10.0 -7.55 L11.1 -7.25 11.5 -7.35 12.45 -7.55 13.7 -7.45 14.2 -7.5 14.7 -7.6 Q15.2 -7.6 16.35 -5.85 17.55 -4.15 17.85 -4.15 18.65 -4.15 18.65 -6.05 L18.8 -6.05 20.75 -4.4 22.4 -2.6 22.65 -2.65 22.65 -2.7 22.8 -2.45 Q25.6 2.35 25.6 3.45 L25.5 4.45 25.6 7.95 25.85 11.75 Q23.5 10.25 19.1 10.25 L16.45 10.35 12.2 10.5 8.45 10.65 5.6 10.9 4.4 11.4 Q4.15 11.45 3.25 12.0 2.25 12.6 2.05 12.9 L1.45 13.95 1.0 15.1 1.1 15.25 0.7 16.35 Q-0.05 13.35 -0.05 12.0 L0.1 9.4 M37.9 -18.75 L38.05 -19.4 38.05 -20.05 38.3 -21.25 38.15 -21.8 37.55 -22.25 Q37.05 -22.25 34.25 -20.65 L30.8 -18.75 Q23.35 -15.75 23.35 -15.3 23.35 -14.55 25.5 -14.55 27.1 -14.55 30.15 -15.45 32.7 -16.15 34.15 -16.85 L36.5 -17.75 Q37.4 -18.15 37.9 -18.75 M19.95 -3.6 L19.7 -3.35 Q19.7 -2.65 21.3 1.05 23.1 5.05 24.1 5.05 24.65 5.05 24.65 3.85 24.65 2.25 22.85 -0.55 L21.05 -3.05 21.15 -3.25 20.75 -3.45 20.45 -3.3 19.95 -3.6 M65.05 -24.75 L65.1 -24.75 67.7 -26.25 Q70.6 -27.9 72.2 -28.4 L80.75 -31.3 79.95 -30.65 79.7 -30.15 79.75 -29.7 Q79.9 -29.35 80.35 -29.35 81.4 -29.35 83.05 -30.85 84.7 -32.4 85.1 -32.4 L85.35 -31.75 85.3 -30.85 85.7 -30.8 83.6 -28.85 79.85 -25.85 75.5 -22.9 Q72.7 -21.2 70.5 -20.6 L70.15 -21.2 Q68.35 -23.85 65.05 -24.75 M49.0 -23.35 Q48.2 -22.5 46.5 -19.5 L44.85 -16.25 Q44.85 -15.9 45.35 -15.9 45.9 -15.9 48.15 -17.65 L50.8 -19.75 54.1 -21.8 54.3 -21.9 Q52.5 -22.35 50.4 -23.15 L49.3 -23.6 49.25 -23.6 49.5 -23.85 Q50.3 -24.5 51.45 -24.5 L52.8 -24.2 54.6 -23.95 Q55.95 -23.95 57.05 -24.45 L60.65 -24.9 62.0 -24.85 Q65.6 -24.6 67.95 -22.95 69.9 -21.5 70.6 -19.55 L71.9 -15.35 71.95 -11.85 Q71.95 -9.8 71.15 -7.8 70.65 -6.45 69.0 -3.65 L68.6 -3.4 68.3 -3.0 66.65 -2.05 64.95 -0.8 64.9 -0.75 64.65 -1.65 Q64.35 -2.55 64.35 -4.0 L64.15 -6.2 63.4 -8.3 62.6 -10.25 Q62.15 -11.35 60.9 -12.6 59.5 -14.0 58.4 -14.0 57.7 -14.0 53.7 -12.6 L49.75 -11.25 Q48.55 -11.2 45.45 -9.75 L40.6 -7.5 39.3 -6.9 42.3 -11.1 Q42.9 -11.9 43.25 -13.45 L43.95 -16.1 44.95 -18.7 Q45.6 -20.2 46.25 -20.95 47.15 -22.05 48.55 -23.05 L49.0 -23.35 M57.0 -21.3 L57.25 -21.25 57.55 -21.25 57.0 -21.3 M57.9 -19.75 L57.35 -19.0 57.05 -18.3 57.15 -17.8 57.0 -17.05 57.3 -16.85 57.9 -17.0 59.5 -17.25 Q60.2 -17.25 61.9 -16.3 L63.6 -15.45 Q64.1 -15.45 64.8 -16.25 65.45 -17.05 66.0 -17.05 66.75 -17.05 66.75 -15.05 66.75 -12.7 65.95 -9.75 L65.1 -6.95 Q65.1 -6.3 65.9 -6.3 67.3 -6.3 68.6 -7.65 L68.6 -18.45 67.35 -18.95 Q60.75 -21.65 59.95 -21.65 L59.5 -21.45 59.0 -21.2 58.1 -21.2 Q57.6 -20.45 57.6 -20.15 L57.9 -19.75 M26.1 11.1 L26.4 11.1 29.05 8.3 32.5 5.35 Q35.0 3.2 42.45 -0.5 L42.5 -0.45 40.95 2.0 40.95 2.55 41.55 2.5 41.55 2.55 41.35 3.3 41.4 3.65 Q41.5 3.85 41.95 3.85 43.2 3.85 47.7 1.5 52.2 -0.8 53.55 -0.8 54.55 -0.8 55.25 -0.15 55.9 0.45 55.9 1.2 L55.3 3.05 Q55.3 3.45 55.65 3.45 L57.45 2.95 Q57.85 2.95 57.95 3.3 L58.3 3.55 Q59.7 3.55 62.6 0.55 62.95 0.55 63.15 1.35 L63.3 2.5 63.65 2.5 65.2 1.3 65.4 2.45 64.65 4.95 64.4 7.65 63.5 12.55 63.4 12.55 63.35 14.0 Q63.35 17.9 62.85 18.7 L61.5 20.55 Q60.4 22.15 60.25 22.8 L50.2 22.1 Q48.8 22.0 47.4 22.55 47.2 21.65 42.8 18.35 L35.35 16.8 37.7 13.75 Q38.1 13.05 40.85 10.4 41.9 9.25 45.3 6.35 L48.2 3.65 48.15 3.5 47.9 3.5 43.45 6.1 38.95 8.45 38.95 8.4 39.15 8.15 Q39.15 7.85 38.8 7.85 L37.8 8.25 37.8 8.2 Q39.45 6.75 39.45 6.1 39.45 5.55 39.1 5.55 37.9 5.55 32.45 9.4 28.15 12.45 27.4 13.25 L26.2 12.0 26.2 11.75 26.1 11.1 M77.6 -20.85 L77.7 -20.75 77.85 -19.8 Q78.05 -18.95 78.4 -18.95 78.85 -18.95 78.85 -19.45 L78.6 -20.75 Q78.6 -22.45 82.2 -24.65 L88.1 -28.4 90.9 -25.15 Q92.4 -23.25 92.7 -21.95 90.6 -22.45 90.6 -21.3 L93.3 -16.45 Q96.05 -11.7 96.35 -11.7 96.85 -11.7 96.85 -13.75 97.7 -13.6 97.9 -13.95 L98.2 -14.35 Q99.1 -14.35 100.75 -13.75 L101.0 -13.8 101.45 -11.95 Q101.45 -10.85 100.4 -9.55 L98.25 -7.2 Q96.55 -5.6 95.55 -5.0 L93.6 -4.2 92.1 -3.85 92.05 -4.0 91.7 -3.85 Q91.1 -3.8 91.1 -3.6 L91.15 -3.5 90.9 -3.45 Q90.15 -3.45 88.9 -4.45 L87.8 -5.55 86.4 -6.8 84.7 -7.9 Q82.65 -9.4 79.65 -12.75 78.95 -13.45 78.1 -15.3 77.65 -16.1 77.85 -18.15 L77.6 -20.85 M64.95 -0.6 L64.95 -0.65 65.0 -0.65 64.95 -0.6 M68.6 -2.8 L68.6 -2.9 69.05 -3.25 69.25 -3.25 69.4 -3.5 69.9 -3.6 70.1 -1.85 Q69.8 -2.1 68.85 -1.6 L68.6 -1.45 68.6 -1.7 68.6 -2.8 M70.15 -1.2 L70.15 -0.95 70.3 2.3 Q70.3 3.95 69.9 6.45 L69.15 10.6 68.8 12.7 68.3 14.7 Q68.2 15.95 67.35 17.6 L67.3 17.6 67.3 17.65 67.25 17.75 66.75 18.65 66.8 18.8 66.9 18.75 65.3 21.75 64.0 24.0 Q62.5 23.25 60.9 22.9 L60.65 22.85 61.2 21.8 62.05 20.4 Q63.55 18.2 63.55 17.5 L63.65 12.8 64.0 11.75 64.15 10.45 64.5 9.1 64.7 7.75 Q64.6 6.85 65.0 5.5 L65.0 5.7 65.45 6.0 66.4 5.05 67.1 3.9 68.15 2.5 68.2 2.5 69.7 0.95 Q69.7 0.35 68.6 0.8 L68.35 0.95 68.35 0.8 Q67.65 0.85 66.6 1.45 L65.65 2.1 65.5 1.45 65.7 1.45 Q66.5 0.9 68.15 0.1 L68.4 0.1 Q69.2 0.1 69.75 -0.55 L70.15 -1.2 M89.2 -25.8 Q87.7 -27.1 87.7 -26.15 L88.85 -24.75 Q90.0 -23.5 90.35 -23.5 L90.65 -23.6 90.7 -24.0 Q90.7 -24.5 89.2 -25.8 M-3.1 -57.6 L-3.1 -57.7 -3.05 -57.6 -3.1 -57.6 M0.2 5.7 Q-0.35 9.4 -0.35 11.95 -0.05 16.3 0.45 17.05 L-0.45 20.55 -1.9 27.3 -2.95 33.75 -3.85 40.55 -3.8 40.95 -3.85 41.05 -4.1 41.65 -4.05 41.85 -4.0 41.85 -4.0 41.9 -6.1 44.0 -7.9 47.1 Q-8.65 48.75 -8.75 50.0 L-9.15 50.0 -10.2 50.6 -10.2 50.55 -12.1 50.45 -14.4 50.65 -19.4 50.85 Q-24.5 50.85 -27.75 50.0 -31.0 49.2 -31.0 47.85 L-30.0 45.75 -30.0 45.85 -29.65 44.95 -29.45 44.9 -29.4 44.75 -29.45 44.6 -29.5 44.6 -29.1 42.9 -28.4 39.55 -27.6 36.2 -26.8 33.3 -26.65 32.9 -26.7 32.85 -24.7 23.95 -23.35 19.15 -23.05 19.2 -20.6 15.45 Q-18.0 11.15 -14.9 9.05 L-15.05 10.35 Q-15.0 11.4 -14.05 11.4 L-13.5 11.2 -12.65 10.65 -12.4 11.2 Q-12.2 11.6 -11.4 11.7 L-11.65 13.1 Q-11.8 13.75 -11.05 13.75 -10.4 13.75 -8.35 11.7 L-6.0 9.25 Q-0.6 6.4 0.2 5.7 M-10.7 12.7 L-10.8 12.75 -10.8 12.6 -10.7 12.7 M-15.15 15.0 L-15.2 14.5 Q-16.75 13.4 -18.8 17.0 L-21.8 23.35 -24.05 28.45 Q-25.65 32.2 -25.65 32.8 -25.65 33.2 -25.1 33.2 -23.95 33.2 -19.7 26.3 -15.15 18.85 -15.15 15.0 M-2.95 36.5 L-2.95 36.6 Q-2.45 36.4 -2.3 35.8 L-2.1 34.7 -1.2 32.75 1.05 28.95 Q2.7 25.9 7.15 21.15 L7.4 21.15 Q7.4 22.0 8.2 22.0 L9.4 21.7 Q10.3 21.25 10.9 21.15 L10.95 21.2 11.0 21.4 10.95 22.1 Q11.1 22.55 12.2 22.55 14.0 22.55 17.95 21.3 21.85 20.05 22.95 20.05 L26.0 20.35 Q27.75 20.7 27.75 21.0 L27.35 21.65 26.95 22.45 Q26.95 22.8 28.05 23.2 L29.7 23.75 32.0 24.05 33.65 24.7 36.6 26.5 37.9 28.4 35.2 30.05 Q33.15 31.55 32.4 33.1 30.1 37.6 29.35 39.45 28.0 42.9 27.9 46.0 L27.9 47.25 27.95 47.25 28.2 48.2 25.0 48.9 20.2 49.2 17.0 49.5 15.05 49.2 14.25 49.2 14.25 49.25 Q12.5 47.9 11.95 47.9 L11.55 47.95 10.4 46.3 8.55 43.95 6.0 41.45 5.6 40.9 6.3 38.4 6.1 37.85 5.9 37.4 Q5.9 36.75 6.8 35.1 L7.65 33.1 Q7.7 32.7 7.4 32.7 6.65 32.7 3.55 34.9 L3.55 34.85 6.05 29.3 7.75 25.0 7.4 24.65 Q6.8 24.65 4.35 27.5 2.2 30.1 1.0 32.0 -2.15 36.75 -3.35 39.35 L-2.95 36.5 M-8.45 51.0 Q-8.2 51.75 -7.85 51.75 -7.55 51.75 -6.0 49.35 -4.05 46.45 -2.25 44.85 L-2.25 44.9 -2.7 46.3 Q-2.7 46.7 -2.5 46.7 L-2.05 46.5 -2.05 46.7 -1.8 46.8 -0.9 46.55 Q-0.9 47.35 1.9 45.55 4.0 44.35 5.0 44.35 L6.3 44.6 7.45 44.85 7.95 45.45 9.45 45.7 9.5 45.7 10.05 46.45 11.3 48.25 11.25 48.35 11.3 48.5 11.45 48.5 11.75 49.3 Q11.75 51.45 6.45 52.05 L4.25 52.8 Q2.4 53.5 -1.0 53.5 -5.75 53.5 -7.3 52.75 -8.35 52.25 -8.45 51.0 M-4.0 48.15 L-4.6 49.2 Q-6.0 50.95 -6.0 51.55 L-5.65 51.8 -4.0 49.9 Q-2.4 47.95 -2.4 47.65 -2.4 47.35 -3.0 47.35 -3.5 47.35 -4.0 48.15 M80.1 15.0 Q80.15 15.35 80.5 15.35 L81.85 13.05 84.05 9.65 Q85.45 7.8 87.15 6.05 89.25 3.85 89.9 3.85 L90.55 4.8 Q91.05 5.75 91.7 5.75 92.15 5.75 92.45 5.1 92.8 4.45 93.2 4.45 L93.65 4.85 Q94.0 5.25 94.45 5.25 95.35 5.25 96.35 3.25 L97.7 0.5 Q98.9 4.3 101.35 17.45 103.3 28.1 104.15 28.1 L104.45 28.0 Q104.4 31.35 103.65 37.1 L102.85 44.15 102.4 46.8 100.85 47.4 99.75 47.6 98.35 47.75 97.25 47.55 95.6 47.35 92.5 47.6 90.4 47.85 88.3 47.75 88.25 47.75 88.05 47.65 88.0 47.65 87.35 47.55 86.2 47.05 85.2 46.45 84.65 46.05 84.5 45.85 83.45 45.8 82.6 45.6 81.85 45.7 80.75 45.4 79.1 45.35 79.1 45.3 78.85 37.75 79.05 28.7 79.25 21.0 80.1 15.0 M103.9 37.8 L103.95 37.8 Q103.95 38.5 106.95 39.9 L110.6 41.6 113.2 43.85 Q115.55 45.85 116.05 45.85 L116.2 45.85 116.15 45.95 114.6 47.2 Q112.55 48.55 110.7 48.55 L110.05 48.45 108.5 48.6 108.0 48.35 106.35 47.2 104.9 46.25 104.3 45.65 Q103.7 45.15 103.25 45.15 L103.05 45.15 103.4 43.55 103.45 43.55 103.6 43.5 103.45 43.0 103.4 42.9 103.35 42.9 103.4 42.35 103.6 40.2 103.65 39.85 Q104.1 40.25 105.5 40.9 107.45 41.85 108.0 41.85 108.35 41.85 108.35 41.3 106.6 39.7 106.0 39.7 L104.6 39.4 103.7 39.35 103.9 37.8 M54.05 3.15 L53.75 2.5 53.25 2.2 52.9 2.2 52.85 2.25 52.8 2.2 50.5 3.95 48.0 5.7 45.8 7.6 Q44.25 9.05 44.25 9.35 L44.3 9.55 Q54.05 4.6 54.05 3.15 M45.65 8.4 L45.55 8.4 45.6 8.35 45.65 8.4 M32.5 33.65 L32.5 34.2 32.8 34.3 35.3 33.45 37.7 32.5 38.1 32.5 38.15 32.65 37.35 34.2 Q36.55 35.4 36.55 35.95 L36.55 36.35 Q36.7 36.65 37.4 36.65 38.75 36.65 43.55 34.55 48.35 32.45 50.4 32.45 51.8 32.45 52.8 33.15 L56.7 35.4 58.9 37.05 Q60.15 38.0 62.3 38.0 L64.25 37.65 64.6 36.95 Q64.7 36.4 65.35 36.25 66.05 36.0 66.15 35.75 L66.25 34.35 Q66.45 33.65 66.9 33.4 L67.0 26.3 67.6 26.9 67.65 27.0 69.95 29.4 72.2 32.9 Q73.7 35.3 74.2 36.9 74.7 38.4 74.7 40.7 L74.1 43.55 73.9 45.05 Q73.75 46.05 73.4 46.45 L72.3 47.8 Q71.65 48.5 70.3 48.95 69.0 49.3 67.5 50.0 L67.1 50.2 67.1 50.15 65.9 50.25 61.8 49.9 57.65 49.6 49.7 50.0 38.05 50.5 32.45 50.2 Q30.65 49.85 29.65 49.2 L29.35 48.95 28.85 48.55 Q28.25 47.8 28.25 46.9 L28.35 46.7 28.3 46.5 28.2 46.5 Q28.6 39.35 32.5 33.65 M48.35 36.55 L47.75 36.85 45.05 37.55 45.85 38.4 Q46.65 38.85 47.2 38.85 48.1 38.85 49.1 38.0 50.0 37.2 50.0 36.65 50.0 36.05 48.95 36.05 L48.35 36.55 M36.9 33.9 L36.65 33.55 Q35.7 33.55 33.1 35.95 30.35 38.5 30.35 39.95 L30.55 41.5 30.4 41.9 30.45 42.05 30.7 42.05 33.4 38.25 35.5 35.8 36.5 34.75 36.7 34.45 36.9 33.9" fill="#737162" fill-rule="evenodd" stroke="none"/>
    <path d="M104.75 26.3 L104.85 26.4 104.85 27.3 104.75 27.55 104.45 28.0 104.15 28.1 Q103.3 28.1 101.35 17.45 98.9 4.3 97.7 0.5 L96.35 3.25 Q95.35 5.25 94.45 5.25 94.0 5.25 93.65 4.85 L93.2 4.45 Q92.8 4.45 92.45 5.1 92.15 5.75 91.7 5.75 91.05 5.75 90.55 4.8 L89.9 3.85 Q89.25 3.85 87.15 6.05 85.45 7.8 84.05 9.65 L81.85 13.05 80.5 15.35 Q80.15 15.35 80.1 15.0 L80.1 14.6 80.25 14.15 81.35 6.3 83.55 -8.25 83.6 -8.3 Q84.1 -7.85 84.55 -7.55 L87.65 -5.15 88.9 -4.0 Q90.0 -3.05 90.85 -3.05 91.2 -3.05 91.7 -3.4 L91.8 -3.45 Q95.3 -3.95 98.65 -6.95 101.6 -9.65 101.8 -11.65 L102.0 -10.05 101.85 -10.25 101.85 -9.8 102.7 -1.4 Q103.15 3.9 103.65 7.0 104.2 10.35 104.25 15.45 L104.3 23.9 104.4 23.9 104.45 26.3 104.5 26.2 104.75 26.3 M-23.55 18.85 L-22.5 16.0 Q-21.95 14.65 -21.65 14.65 L-21.55 14.7 -19.8 10.3 Q-18.75 7.55 -17.75 5.8 L-12.25 -2.8 -11.85 -2.4 -11.2 -1.75 -11.2 -1.5 Q-9.55 -0.3 -5.1 1.6 -0.8 3.45 0.6 3.55 L0.55 3.65 0.3 5.25 0.35 5.5 0.2 5.7 Q-0.6 6.4 -6.0 9.25 L-8.35 11.7 Q-10.4 13.75 -11.05 13.75 -11.8 13.75 -11.65 13.1 L-11.4 11.7 Q-12.2 11.6 -12.4 11.2 L-12.65 10.65 -13.5 11.2 -14.05 11.4 Q-15.0 11.4 -15.05 10.35 L-14.9 9.05 Q-18.0 11.15 -20.6 15.45 L-23.05 19.2 -23.35 19.15 -23.45 19.15 -23.55 18.85 M-18.05 -44.4 Q-18.55 -44.4 -18.55 -44.8 L-17.95 -45.65 -17.65 -46.15 -17.55 -47.1 Q-17.4 -48.1 -16.7 -49.5 L-15.4 -51.85 Q-13.75 -54.7 -10.9 -58.2 L-8.4 -61.15 -8.4 -61.2 -6.5 -63.65 -3.2 -66.95 0.5 -70.35 4.15 -73.6 12.8 -80.2 Q14.15 -81.2 18.55 -83.5 19.95 -84.3 24.5 -86.3 24.95 -86.3 25.25 -85.8 25.6 -85.2 26.1 -84.9 26.5 -84.65 26.6 -84.0 26.7 -83.35 27.0 -83.2 27.2 -83.0 27.6 -82.9 L28.0 -82.65 28.25 -81.65 28.35 -79.8 28.15 -72.8 28.05 -72.8 Q27.9 -69.65 25.95 -64.85 L24.05 -60.65 24.1 -60.5 24.15 -60.45 22.5 -56.8 Q22.15 -55.4 21.8 -55.3 L21.75 -55.3 Q21.4 -55.3 21.35 -55.6 L21.35 -56.0 22.05 -58.95 Q22.7 -61.9 22.7 -64.35 L22.35 -66.05 21.6 -64.7 20.85 -63.35 19.2 -61.75 17.85 -60.65 Q17.5 -60.65 17.45 -61.0 L17.45 -61.3 17.7 -63.35 17.6 -64.85 12.6 -63.55 Q12.2 -63.55 11.95 -65.1 L11.55 -66.7 Q8.8 -66.7 3.6 -61.65 -1.65 -56.65 -3.3 -56.65 -3.8 -56.65 -3.9 -56.9 L-3.9 -57.3 -3.65 -58.5 -3.0 -60.15 -2.95 -60.2 Q-6.65 -58.8 -9.0 -56.4 L-12.4 -52.35 -15.8 -47.6 -17.75 -44.75 -18.0 -44.4 -18.05 -44.4 M25.1 -41.35 L27.8 -48.45 29.95 -55.5 30.85 -58.05 30.9 -58.05 31.05 -58.1 30.95 -58.35 31.5 -59.85 32.3 -61.85 32.4 -61.85 32.55 -61.9 32.4 -62.2 32.55 -62.55 Q34.7 -63.6 40.0 -64.65 L52.85 -65.8 60.25 -66.15 64.75 -63.8 Q69.0 -61.75 70.25 -60.9 L74.7 -57.85 76.45 -56.45 Q77.55 -55.45 77.7 -54.75 L78.95 -48.3 79.35 -46.1 79.6 -45.7 79.45 -45.3 Q79.4 -45.2 79.25 -45.2 75.35 -49.1 74.1 -49.1 73.2 -49.1 71.85 -48.0 70.5 -47.0 69.8 -47.0 L68.35 -47.3 64.5 -47.9 61.25 -48.35 Q60.45 -48.55 60.45 -49.0 L61.1 -50.55 61.7 -52.1 60.4 -52.7 58.85 -53.15 52.75 -51.8 48.5 -50.5 Q47.85 -50.5 47.85 -50.9 L48.6 -52.0 49.85 -53.55 49.85 -53.6 49.0 -53.65 Q48.7 -53.95 48.7 -54.2 L49.1 -54.8 Q44.55 -54.55 40.1 -52.0 L34.25 -47.9 25.1 -40.0 24.7 -40.05 24.7 -40.15 24.6 -40.3 25.05 -41.15 25.1 -41.25 25.1 -41.35 M10.1 -63.7 L6.6 -60.45 2.85 -57.45 2.45 -57.5 2.35 -57.75 Q2.35 -58.5 6.25 -61.9 10.1 -65.3 10.1 -63.7 M18.55 -57.75 L18.45 -58.05 19.5 -59.6 Q20.6 -61.0 21.3 -61.0 L21.35 -60.6 20.3 -59.1 Q19.25 -57.7 19.0 -57.7 L18.55 -57.75 M38.65 -46.5 Q44.45 -50.2 44.45 -47.65 44.45 -46.9 40.35 -44.2 35.95 -41.35 33.75 -41.35 32.85 -41.35 32.85 -41.7 32.85 -42.9 38.65 -46.5 M28.1 -27.1 L27.25 -27.1 Q25.75 -27.1 25.3 -27.85 L24.3 -29.45 Q23.7 -29.95 21.65 -30.5 19.85 -31.0 19.65 -31.55 18.9 -33.4 14.65 -33.4 14.35 -33.3 11.15 -34.1 L8.0 -34.85 Q4.8 -34.85 -0.2 -32.35 -5.25 -29.9 -5.55 -29.9 -6.75 -29.9 -6.65 -31.15 L-6.4 -33.0 Q-6.4 -34.1 -8.6 -33.8 -9.55 -33.8 -9.6 -34.5 -9.6 -35.2 -10.15 -35.2 -11.75 -35.2 -14.95 -30.45 -18.15 -25.75 -19.4 -25.75 -19.9 -25.75 -20.05 -26.45 L-20.15 -27.1 -20.1 -27.6 -19.95 -27.65 -19.9 -27.9 -20.0 -28.05 -18.45 -32.05 -16.6 -36.3 -14.25 -40.55 -12.45 -43.05 Q-11.3 -44.3 -9.55 -44.3 L-4.85 -43.8 -3.15 -43.35 -1.8 -42.95 -1.6 -43.0 -1.55 -43.05 5.2 -41.65 Q7.8 -40.95 13.35 -38.5 L22.6 -34.0 28.9 -29.7 28.55 -28.7 28.3 -27.8 28.45 -27.5 Q28.45 -27.15 28.25 -27.1 L28.1 -27.1 M13.5 -17.05 L13.45 -17.05 13.4 -17.15 13.2 -17.45 11.5 -18.8 11.15 -19.0 13.0 -21.05 15.5 -23.35 16.75 -24.5 Q17.6 -25.15 18.3 -25.3 L20.95 -25.75 24.95 -26.1 27.4 -25.85 Q29.65 -25.05 30.55 -24.8 L30.55 -24.75 29.15 -24.1 Q27.0 -23.15 24.35 -22.55 L24.35 -22.3 24.4 -22.25 24.7 -22.25 29.2 -23.75 Q30.15 -24.05 31.15 -24.8 L31.35 -24.8 31.4 -25.05 Q32.75 -25.75 36.3 -25.75 L38.6 -25.4 43.65 -25.1 44.55 -25.1 44.55 -25.05 44.7 -24.85 44.9 -25.1 45.4 -25.1 46.5 -24.85 46.6 -24.85 48.85 -23.75 48.65 -23.5 46.1 -21.3 Q45.25 -20.4 44.7 -18.95 L44.6 -18.55 44.65 -18.35 44.5 -18.3 42.8 -17.75 Q42.5 -17.75 42.35 -18.35 42.15 -19.0 40.55 -19.0 L39.2 -18.9 Q38.55 -18.9 38.55 -19.35 38.55 -19.75 42.05 -23.2 41.25 -24.05 38.0 -24.05 36.35 -24.05 32.8 -21.65 29.25 -19.2 24.25 -19.2 L22.85 -19.45 22.05 -19.65 20.7 -19.85 19.7 -20.1 Q17.55 -20.1 15.6 -18.8 L13.5 -17.05 M32.25 -25.75 Q32.05 -25.5 31.7 -25.4 L31.35 -25.2 31.35 -25.25 30.95 -25.25 Q30.25 -25.35 28.35 -26.0 L28.3 -26.0 28.4 -26.25 28.25 -26.5 28.85 -28.5 29.6 -30.45 Q30.35 -32.15 30.8 -32.45 32.05 -33.4 35.65 -33.4 38.45 -33.4 40.75 -32.05 43.55 -30.4 44.5 -30.2 L48.75 -29.45 50.4 -28.7 46.95 -27.95 Q44.75 -27.35 44.75 -26.2 L44.75 -26.05 44.4 -26.0 43.65 -25.9 42.95 -26.1 42.9 -26.45 42.9 -26.75 43.25 -27.2 Q42.65 -27.4 42.6 -27.9 L42.65 -28.65 42.65 -28.7 Q41.8 -27.65 41.05 -27.3 39.8 -26.65 34.95 -26.65 L33.7 -26.8 32.75 -26.5 Q32.55 -26.2 32.65 -26.05 L32.65 -25.8 32.5 -25.75 32.35 -25.75 32.35 -25.8 32.25 -25.75 M1.9 -29.05 Q-2.3 -26.8 -3.4 -26.8 -4.3 -26.8 -4.3 -27.15 -4.3 -27.9 0.9 -30.65 6.1 -33.45 6.1 -32.0 6.1 -31.35 1.9 -29.05 M0.1 9.4 L0.1 8.55 0.2 8.55 0.95 3.6 Q1.9 -1.65 2.65 -3.6 L4.0 -7.3 Q4.7 -9.3 5.5 -10.95 L7.15 -14.65 9.35 -18.4 9.5 -18.5 Q9.85 -18.85 10.65 -18.85 11.65 -18.85 13.4 -16.55 L15.5 -13.75 Q17.6 -11.55 19.45 -8.2 L22.15 -3.5 22.65 -3.05 22.65 -2.7 22.65 -2.65 22.4 -2.6 20.75 -4.4 18.8 -6.05 18.65 -6.05 Q18.65 -4.15 17.85 -4.15 17.55 -4.15 16.35 -5.85 15.2 -7.6 14.7 -7.6 L14.2 -7.5 13.7 -7.45 12.45 -7.55 11.5 -7.35 11.1 -7.25 10.0 -7.55 Q8.3 -7.55 6.2 -3.15 5.0 -0.65 4.25 1.65 L2.15 6.3 Q1.65 7.15 1.1 8.65 L0.15 10.9 0.1 10.8 0.1 9.4 M19.95 -3.6 L20.45 -3.3 20.75 -3.45 21.15 -3.25 21.05 -3.05 22.85 -0.55 Q24.65 2.25 24.65 3.85 24.65 5.05 24.1 5.05 23.1 5.05 21.3 1.05 19.7 -2.65 19.7 -3.35 L19.95 -3.6 M37.9 -18.75 Q37.4 -18.15 36.5 -17.75 L34.15 -16.85 Q32.7 -16.15 30.15 -15.45 27.1 -14.55 25.5 -14.55 23.35 -14.55 23.35 -15.3 23.35 -15.75 30.8 -18.75 L34.25 -20.65 Q37.05 -22.25 37.55 -22.25 L38.15 -21.8 38.3 -21.25 38.05 -20.05 38.05 -19.4 37.9 -18.75 M65.05 -24.75 L64.55 -24.8 64.55 -24.85 62.15 -25.25 62.15 -25.3 62.2 -25.35 62.2 -25.6 61.25 -26.95 Q60.05 -27.6 57.05 -27.6 53.85 -27.6 52.55 -28.2 L51.3 -29.0 50.75 -29.3 Q53.8 -30.8 58.8 -32.45 L66.65 -34.7 74.85 -36.95 Q79.7 -38.15 83.75 -38.15 L85.35 -38.15 85.7 -38.0 86.0 -38.0 86.5 -34.8 86.5 -31.55 86.2 -31.3 Q86.1 -30.8 85.75 -30.8 L85.7 -30.8 85.3 -30.85 85.35 -31.75 85.1 -32.4 Q84.7 -32.4 83.05 -30.85 81.4 -29.35 80.35 -29.35 79.9 -29.35 79.75 -29.7 L79.7 -30.15 79.95 -30.65 80.75 -31.3 72.2 -28.4 Q70.6 -27.9 67.7 -26.25 L65.1 -24.75 65.05 -24.75 M57.9 -19.75 L57.6 -20.15 Q57.6 -20.45 58.1 -21.2 L59.0 -21.2 59.5 -21.45 59.95 -21.65 Q60.75 -21.65 67.35 -18.95 L68.6 -18.45 68.6 -7.65 Q67.3 -6.3 65.9 -6.3 65.1 -6.3 65.1 -6.95 L65.95 -9.75 Q66.75 -12.7 66.75 -15.05 66.75 -17.05 66.0 -17.05 65.45 -17.05 64.8 -16.25 64.1 -15.45 63.6 -15.45 L61.9 -16.3 Q60.2 -17.25 59.5 -17.25 L57.9 -17.0 57.3 -16.85 57.0 -17.05 57.15 -17.8 57.05 -18.3 57.35 -19.0 57.9 -19.75 M57.0 -21.3 L57.55 -21.25 57.25 -21.25 57.0 -21.3 M49.3 -23.6 L50.4 -23.15 Q52.5 -22.35 54.3 -21.9 L54.1 -21.8 50.8 -19.75 48.15 -17.65 Q45.9 -15.9 45.35 -15.9 44.85 -15.9 44.85 -16.25 L46.5 -19.5 Q48.2 -22.5 49.0 -23.35 L49.05 -23.4 49.3 -23.6 M26.1 11.1 L25.95 11.05 25.9 10.35 25.95 10.2 26.05 10.2 26.05 10.1 25.9 7.65 25.8 4.45 25.9 3.45 25.35 1.75 Q32.8 -3.85 40.6 -7.05 L45.4 -9.2 Q48.35 -10.55 49.65 -10.85 L53.95 -12.35 Q57.7 -13.6 58.35 -13.6 60.15 -13.6 61.9 -10.7 63.35 -8.35 63.9 -5.9 L64.0 -3.95 Q64.0 -2.6 64.3 -1.75 L65.1 0.8 65.3 1.05 65.2 1.3 63.65 2.5 63.3 2.5 63.15 1.35 Q62.95 0.55 62.6 0.55 59.7 3.55 58.3 3.55 L57.95 3.3 Q57.85 2.95 57.45 2.95 L55.65 3.45 Q55.3 3.45 55.3 3.05 L55.9 1.2 Q55.9 0.45 55.25 -0.15 54.55 -0.8 53.55 -0.8 52.2 -0.8 47.7 1.5 43.2 3.85 41.95 3.85 41.5 3.85 41.4 3.65 L41.35 3.3 41.55 2.55 41.55 2.5 40.95 2.55 40.95 2.0 42.5 -0.45 42.45 -0.5 Q35.0 3.2 32.5 5.35 L29.05 8.3 26.4 11.1 26.1 11.1 M35.35 16.8 L35.1 16.95 35.05 16.8 35.1 16.75 34.65 16.65 Q30.5 16.3 29.75 15.7 28.0 14.25 27.6 13.55 L27.5 13.4 27.25 13.6 27.2 13.45 27.4 13.25 Q28.15 12.45 32.45 9.4 37.9 5.55 39.1 5.55 39.45 5.55 39.45 6.1 39.45 6.75 37.8 8.2 L37.8 8.25 38.8 7.85 Q39.15 7.85 39.15 8.15 L38.95 8.4 38.95 8.45 43.45 6.1 47.9 3.5 48.15 3.5 48.2 3.65 45.3 6.35 Q41.9 9.25 40.85 10.4 38.1 13.05 37.7 13.75 L35.35 16.8 M101.0 -13.8 L100.75 -13.75 Q99.1 -14.35 98.2 -14.35 L97.9 -13.95 Q97.7 -13.6 96.85 -13.75 96.85 -11.7 96.35 -11.7 96.05 -11.7 93.3 -16.45 L90.6 -21.3 Q90.6 -22.45 92.7 -21.95 92.4 -23.25 90.9 -25.15 L88.1 -28.4 82.2 -24.65 Q78.6 -22.45 78.6 -20.75 L78.85 -19.45 Q78.85 -18.95 78.4 -18.95 78.05 -18.95 77.85 -19.8 L77.7 -20.75 77.6 -20.85 77.4 -23.75 80.1 -25.55 Q86.65 -30.3 86.65 -31.5 L86.6 -31.6 86.8 -33.7 86.8 -35.15 87.5 -34.35 88.9 -32.85 89.95 -31.35 Q90.55 -30.4 91.05 -30.0 92.15 -28.95 93.2 -27.0 L95.05 -24.05 96.9 -21.05 98.7 -18.2 100.35 -15.3 100.65 -14.7 101.1 -14.1 101.0 -13.8 M64.95 -0.6 L65.0 -0.65 Q66.25 -1.25 68.6 -2.8 L68.6 -1.7 68.6 -1.45 68.85 -1.6 Q69.8 -2.1 70.1 -1.85 L70.2 -1.55 70.15 -1.2 69.75 -0.55 Q69.2 0.1 68.4 0.1 L68.15 0.1 Q66.5 0.9 65.7 1.45 L65.5 1.45 65.35 1.45 65.3 1.3 65.45 1.2 65.25 0.55 64.95 -0.6 M65.0 5.5 L65.0 5.35 65.05 5.35 65.15 5.0 65.7 2.5 65.7 2.35 65.6 2.45 65.55 2.2 65.65 2.1 66.6 1.45 Q67.65 0.85 68.35 0.8 L68.35 0.95 68.6 0.8 Q69.7 0.35 69.7 0.95 L68.2 2.5 68.15 2.5 67.1 3.9 66.4 5.05 65.45 6.0 65.0 5.7 65.0 5.5 M89.2 -25.8 Q90.7 -24.5 90.7 -24.0 L90.65 -23.6 90.35 -23.5 Q90.0 -23.5 88.85 -24.75 L87.7 -26.15 Q87.7 -27.1 89.2 -25.8 M95.25 -24.35 L94.9 -24.75 95.6 -24.75 97.7 -25.3 Q99.6 -25.3 100.95 -17.25 L101.5 -13.6 100.85 -15.3 99.05 -18.35 Q98.35 -19.25 97.15 -21.45 L95.25 -24.35 M-3.1 -57.6 L-3.05 -57.6 -3.1 -57.7 -3.1 -57.6 M-15.15 15.0 Q-15.15 18.85 -19.7 26.3 -23.95 33.2 -25.1 33.2 -25.65 33.2 -25.65 32.8 -25.65 32.2 -24.05 28.45 L-21.8 23.35 -18.8 17.0 Q-16.75 13.4 -15.2 14.5 L-15.15 15.0 M-10.7 12.7 L-10.8 12.6 -10.8 12.75 -10.7 12.7 M37.9 28.4 L36.6 26.5 33.65 24.7 32.0 24.05 29.7 23.75 28.05 23.2 Q26.95 22.8 26.95 22.45 L27.35 21.65 27.75 21.0 Q27.75 20.7 26.0 20.35 L22.95 20.05 Q21.85 20.05 17.95 21.3 14.0 22.55 12.2 22.55 11.1 22.55 10.95 22.1 L11.0 21.4 10.95 21.2 10.9 21.15 Q10.3 21.25 9.4 21.7 L8.2 22.0 Q7.4 22.0 7.4 21.15 L7.15 21.15 Q2.7 25.9 1.05 28.95 L-1.2 32.75 -2.1 34.7 -2.3 35.8 Q-2.45 36.4 -2.95 36.6 L-2.95 36.5 -3.0 36.45 -2.85 35.55 -1.65 27.6 0.2 19.8 1.55 14.45 2.0 13.6 Q2.55 12.65 3.7 12.1 6.95 10.6 18.85 10.6 23.65 10.6 25.9 12.3 L25.95 12.55 26.2 12.5 27.25 13.75 Q28.1 15.15 29.2 15.7 30.8 16.6 34.25 16.9 38.7 17.3 40.9 18.0 45.45 19.4 47.0 22.65 L46.95 22.75 46.9 22.8 46.8 22.8 Q45.35 23.4 44.7 24.1 43.4 25.45 40.25 27.1 L38.15 28.2 37.95 28.45 37.9 28.4 M-3.35 39.35 Q-2.15 36.75 1.0 32.0 2.2 30.1 4.35 27.5 6.8 24.65 7.4 24.65 L7.75 25.0 6.05 29.3 3.55 34.85 3.55 34.9 Q6.65 32.7 7.4 32.7 7.7 32.7 7.65 33.1 L6.8 35.1 Q5.9 36.75 5.9 37.4 L6.1 37.85 6.3 38.4 5.6 40.9 5.55 41.1 5.3 41.1 5.3 40.7 5.35 40.6 Q4.05 39.05 2.6 39.05 1.0 39.05 -1.6 40.4 L-3.5 41.5 -3.55 41.45 -3.4 40.95 -3.4 40.65 -3.5 40.65 -3.45 40.15 -3.6 40.15 -3.6 39.85 -3.35 39.35 M9.5 45.7 L9.45 45.7 7.95 45.45 7.45 44.85 6.3 44.6 5.0 44.35 Q4.0 44.35 1.9 45.55 -0.9 47.35 -0.9 46.55 L-1.8 46.8 -2.05 46.7 -2.05 46.5 -2.5 46.7 Q-2.7 46.7 -2.7 46.3 L-2.25 44.9 -2.25 44.85 Q-4.05 46.45 -6.0 49.35 -7.55 51.75 -7.85 51.75 -8.2 51.75 -8.45 51.0 L-8.6 50.55 -8.6 50.4 -8.65 50.4 -8.7 50.35 -8.7 50.05 -8.45 50.05 Q-8.3 47.1 -5.65 44.0 -2.45 40.1 2.0 39.4 L2.25 39.4 Q3.6 39.55 4.55 40.35 L5.7 41.6 8.2 44.05 9.2 45.3 9.6 45.4 9.6 45.65 9.5 45.7 M-4.0 48.15 Q-3.5 47.35 -3.0 47.35 -2.4 47.35 -2.4 47.65 -2.4 47.95 -4.0 49.9 L-5.65 51.8 -6.0 51.55 Q-6.0 50.95 -4.6 49.2 L-4.0 48.15 M103.9 37.8 L104.1 35.95 104.4 32.5 Q104.55 32.85 105.45 33.45 L108.05 35.45 111.05 38.55 113.95 41.4 Q116.45 44.05 116.45 45.1 L116.4 45.5 116.45 45.6 116.2 45.85 116.05 45.85 Q115.55 45.85 113.2 43.85 L110.6 41.6 106.95 39.9 Q103.95 38.5 103.95 37.8 L103.9 37.8 M103.65 39.85 L103.45 39.5 Q103.45 39.35 103.7 39.35 L104.6 39.4 106.0 39.7 Q106.6 39.7 108.35 41.3 108.35 41.85 108.0 41.85 107.45 41.85 105.5 40.9 104.1 40.25 103.65 39.85 M67.25 18.35 L68.15 16.8 69.55 19.55 Q70.5 21.3 70.5 22.85 70.5 23.5 69.3 24.95 L67.7 26.5 67.0 25.8 66.9 25.9 Q65.65 24.8 64.25 24.1 L65.9 21.55 67.25 18.85 67.25 18.35 M54.05 3.15 Q54.05 4.6 44.3 9.55 L44.25 9.35 Q44.25 9.05 45.8 7.6 L48.0 5.7 50.5 3.95 52.8 2.2 52.85 2.25 52.9 2.2 53.25 2.2 53.75 2.5 54.05 3.15 M45.65 8.4 L45.6 8.35 45.55 8.4 45.65 8.4 M32.5 33.65 L32.5 33.4 32.7 33.4 Q33.7 31.7 34.9 30.55 35.45 29.95 37.25 29.0 L40.0 27.6 44.7 24.6 46.5 23.15 47.35 22.8 50.1 22.4 60.05 23.2 Q64.25 24.1 66.95 26.15 L67.0 26.3 66.9 33.4 Q66.45 33.65 66.25 34.35 L66.15 35.75 Q66.05 36.0 65.35 36.25 64.7 36.4 64.6 36.95 L64.25 37.65 62.3 38.0 Q60.15 38.0 58.9 37.05 L56.7 35.4 52.8 33.15 Q51.8 32.45 50.4 32.45 48.35 32.45 43.55 34.55 38.75 36.65 37.4 36.65 36.7 36.65 36.55 36.35 L36.55 35.95 Q36.55 35.4 37.35 34.2 L38.15 32.65 38.1 32.5 37.7 32.5 35.3 33.45 32.8 34.3 32.5 34.2 32.5 33.65 M48.35 36.55 L48.95 36.05 Q50.0 36.05 50.0 36.65 50.0 37.2 49.1 38.0 48.1 38.85 47.2 38.85 46.65 38.85 45.85 38.4 L45.05 37.55 47.75 36.85 48.35 36.55 M36.9 33.9 L36.7 34.45 36.5 34.75 35.5 35.8 33.4 38.25 30.7 42.05 30.45 42.05 30.4 41.9 30.55 41.5 30.35 39.95 Q30.35 38.5 33.1 35.95 35.7 33.55 36.65 33.55 L36.9 33.9" fill="#8f8c81" fill-rule="evenodd" stroke="none"/>
    <path d="M32.6 -63.2 L32.45 -62.9 32.25 -62.65 32.25 -62.6 32.2 -62.45 30.0 -65.45 28.9 -67.25 27.6 -68.65 28.35 -71.8 Q29.3 -70.15 31.6 -66.95 L34.05 -63.6 32.65 -63.05 32.6 -63.2 M25.2 -62.35 L25.25 -62.35 26.95 -57.55 Q28.3 -53.3 28.8 -52.7 L28.2 -50.65 24.6 -60.6 24.55 -60.65 24.65 -61.15 24.65 -61.25 25.2 -62.35 M25.35 -62.7 L25.9 -64.0 28.8 -60.35 30.45 -58.4 30.0 -57.0 27.8 -59.8 26.5 -61.35 25.35 -62.7" fill="#cbb356" fill-rule="evenodd" stroke="none"/>
    <path d="M77.05 -23.45 L77.1 -23.4 77.55 -17.75 Q77.1 -14.95 79.5 -12.4 L83.2 -8.6 83.2 -8.55 82.3 -2.1 81.05 5.95 79.0 20.5 78.9 20.5 Q78.55 33.35 78.55 37.75 L78.8 44.9 78.75 45.1 78.8 45.25 78.75 45.25 Q78.35 45.0 77.9 45.0 L76.3 45.15 75.45 45.05 74.85 44.9 74.3 44.95 74.6 43.4 75.05 40.75 Q75.05 38.95 74.4 36.85 L73.7 34.9 73.9 34.9 Q74.8 34.9 75.1 29.55 L75.2 24.1 Q75.2 10.2 74.25 -4.85 L73.65 -4.15 73.35 -3.5 73.35 -3.6 73.1 -9.25 Q72.5 -13.45 72.3 -12.65 72.2 -17.4 70.75 -20.25 71.8 -20.3 75.6 -22.6 L77.05 -23.45 M73.4 34.25 L73.45 34.2 73.45 34.4 73.4 34.25 M73.9 -1.75 L73.85 -1.85 73.85 -1.9 73.9 -1.75" fill="#282724" fill-rule="evenodd" stroke="none"/>
    <path d="M72.3 -12.65 Q72.5 -13.45 73.1 -9.25 L73.35 -3.6 73.35 -3.5 73.65 -4.15 74.25 -4.85 Q75.2 10.2 75.2 24.1 L75.1 29.55 Q74.8 34.9 73.9 34.9 L73.7 34.9 73.45 34.55 73.45 34.4 73.45 34.2 73.4 34.25 72.65 33.0 70.05 29.35 68.05 26.9 Q68.7 26.55 69.7 25.05 70.8 23.35 70.8 22.7 70.8 21.3 69.75 19.05 L68.3 16.5 68.65 15.25 69.5 10.65 Q70.65 4.05 70.65 2.3 70.6 -4.0 69.95 -4.0 L69.65 -3.95 71.35 -7.2 Q72.0 -8.75 72.25 -10.4 L72.2 -10.8 72.3 -12.65 M73.9 -1.75 L73.85 -1.9 73.85 -1.85 73.9 -1.75" fill="#161514" fill-rule="evenodd" stroke="none"/>
  </g>
</svg>
