<?xml version="1.0" encoding="UTF-8" standalone="no"?>
<svg xmlns:xlink="http://www.w3.org/1999/xlink" height="57.0px" width="535.3px" xmlns="http://www.w3.org/2000/svg">
  <g transform="matrix(1.0, 0.0, 0.0, 1.0, 267.05, 28.8)">
    <path d="M-237.9 -20.6 L-219.3 23.9 -218.1 23.9 -237.45 -22.9 -237.9 -20.6 M-239.25 -16.8 Q-239.6 -15.25 -241.15 -11.6 L-244.05 -4.7 -246.85 2.35 Q-248.3 6.15 -248.6 6.15 L-244.5 6.45 -238.95 6.55 -229.3 6.15 -233.9 -4.6 -239.25 -16.8 M-234.9 -28.5 L-218.95 9.55 Q-215.9 16.95 -212.05 23.8 L-205.7 25.1 -205.7 26.8 -232.9 26.8 -232.9 25.05 -223.05 23.8 Q-223.55 21.0 -225.0 16.8 -226.45 12.6 -228.0 9.95 L-249.85 9.95 -252.05 15.65 -253.65 20.35 -254.7 23.8 -245.2 25.05 -245.2 26.8 -267.05 26.8 -267.05 25.1 -260.1 23.75 Q-257.8 19.85 -255.8 14.85 L-238.8 -28.5 -234.9 -28.5" fill="url(#gradient0)" fill-rule="evenodd" stroke="none"/>
    <path d="M-171.15 -28.75 L-169.45 -28.7 -167.05 -28.55 -158.7 -28.25 -152.05 -28.5 -151.45 -14.85 -153.35 -14.85 -155.65 -23.1 -158.65 -23.7 -163.3 -24.35 -168.85 -24.65 Q-175.05 -24.65 -179.55 -22.65 -184.1 -20.7 -186.85 -17.35 -189.6 -14.0 -190.9 -9.9 -192.15 -5.8 -192.15 -1.5 -192.15 3.35 -190.35 7.65 -188.6 11.95 -185.3 15.3 -182.1 18.6 -177.75 20.4 -173.45 22.25 -168.55 22.25 L-165.95 22.1 -163.3 21.8 -160.25 21.3 Q-159.6 18.6 -159.6 15.1 -159.6 10.25 -160.25 7.95 L-169.75 6.65 -169.75 4.85 -143.95 4.85 -143.95 6.6 -149.85 8.0 -150.55 14.3 Q-150.85 18.4 -150.75 22.1 L-158.1 24.8 Q-160.8 25.7 -164.55 26.4 L-172.65 27.1 Q-180.0 27.1 -185.6 24.8 -191.15 22.5 -194.8 18.55 -198.5 14.65 -200.25 9.85 -202.0 5.1 -202.0 0.2 -202.0 -5.5 -200.05 -10.7 -198.1 -15.95 -194.35 -20.05 -190.6 -24.1 -185.1 -26.45 -179.6 -28.8 -172.75 -28.8 L-171.15 -28.75 M-169.05 -27.4 L-169.6 -27.4 Q-176.3 -27.4 -181.65 -25.45 -187.05 -23.5 -190.6 -19.95 L-191.05 -19.5 -191.65 -18.9 Q-195.1 -15.35 -197.05 -10.4 -198.95 -5.5 -198.95 0.2 -198.95 6.75 -195.7 12.4 -192.4 18.0 -186.3 21.35 -183.55 22.8 -180.4 23.65 -174.9 25.55 -168.15 25.5 L-168.15 24.45 -171.75 24.65 Q-176.4 24.65 -180.4 23.65 L-181.4 23.25 Q-187.3 21.0 -190.95 17.1 -194.65 13.1 -196.25 8.45 -197.85 3.8 -197.85 -0.9 -197.85 -6.65 -196.0 -11.5 -194.25 -16.1 -191.05 -19.5 -187.7 -22.65 -183.3 -24.5 -178.45 -26.45 -172.75 -26.45 L-169.05 -26.3 -169.05 -27.4 M-157.05 7.8 L-157.05 20.55 -156.1 19.9 -156.1 7.8 -157.05 7.8" fill="url(#gradient1)" fill-rule="evenodd" stroke="none"/>
    <path d="M-130.95 -25.05 L-130.95 23.9 -129.95 23.9 -129.95 -25.05 -130.95 -25.05 M-143.55 -27.95 L-103.3 -27.95 -102.35 -15.15 -104.3 -15.15 -106.9 -24.1 -113.3 -24.25 -123.9 -23.4 Q-124.55 -18.15 -124.55 -10.55 L-124.3 -3.55 -117.7 -3.3 -109.85 -3.7 -108.2 -9.95 -106.2 -9.95 -106.2 7.0 -108.2 7.0 -109.9 0.4 -116.3 0.1 -124.3 0.5 Q-124.75 4.1 -124.55 8.0 L-124.4 16.5 -124.05 21.85 Q-120.2 23.0 -113.1 23.0 L-106.65 22.75 -103.75 13.9 -101.9 13.9 -102.75 26.8 -143.45 26.8 -143.45 25.05 -134.65 23.75 Q-134.45 22.85 -134.2 19.8 L-133.8 12.95 -133.55 6.6 -133.45 2.15 -133.45 -7.0 -133.55 -11.9 -133.9 -18.55 Q-134.1 -21.95 -134.45 -24.9 L-143.55 -26.2 -143.55 -27.95" fill="url(#gradient2)" fill-rule="evenodd" stroke="none"/>
    <path d="M-42.25 -26.2 L-42.25 -27.25 Q-47.0 -26.8 -51.45 -24.5 -55.8 -22.35 -58.9 -18.85 L-59.4 -18.4 Q-63.0 -14.8 -64.95 -10.25 -67.0 -5.7 -67.0 -0.7 -67.0 5.45 -63.65 11.3 -61.4 15.2 -58.0 18.15 L-54.35 21.15 Q-48.75 25.0 -42.2 25.6 L-42.2 24.55 Q-48.5 24.4 -54.4 20.75 -56.35 19.55 -58.0 18.15 -60.95 15.2 -62.8 11.45 -65.7 5.7 -65.7 -0.5 -65.7 -5.55 -64.05 -10.25 -62.4 -14.85 -59.2 -18.55 L-58.9 -18.85 Q-55.5 -22.15 -51.15 -24.1 -46.45 -26.15 -42.25 -26.2 M-67.85 -11.05 Q-65.75 -16.15 -61.75 -20.15 -57.75 -24.15 -52.15 -26.45 -46.55 -28.7 -40.05 -28.7 -32.15 -28.7 -26.25 -26.05 -20.45 -23.4 -16.75 -19.1 -13.0 -14.8 -11.3 -9.95 -9.55 -5.1 -9.55 -0.7 -9.55 4.4 -11.5 9.3 -13.45 14.2 -17.3 18.25 -21.15 22.3 -26.8 24.75 -32.45 27.15 -39.35 27.15 -49.4 27.15 -56.35 22.85 -63.35 18.5 -66.65 12.05 -70.0 5.6 -70.0 -0.55 -70.0 -5.95 -67.85 -11.05 M-57.15 -13.65 Q-59.9 -8.25 -59.9 -0.85 -59.9 7.15 -56.9 12.6 -53.9 18.05 -49.3 20.65 -44.7 23.25 -39.75 23.25 -35.7 23.25 -32.1 21.7 -28.5 20.15 -25.7 17.2 -22.8 14.2 -21.2 9.85 -19.6 5.45 -19.6 0.1 -19.6 -7.3 -21.3 -11.7 -22.95 -16.05 -26.25 -19.35 -29.0 -22.1 -32.55 -23.4 -36.1 -24.7 -39.8 -24.7 -45.25 -24.7 -49.85 -21.9 -54.45 -19.05 -57.15 -13.65 M-37.2 -27.25 L-37.2 -26.2 Q-33.7 -26.1 -29.7 -24.45 -25.65 -22.8 -22.35 -19.65 L-22.2 -19.5 Q-19.95 -16.8 -18.5 -12.8 -16.5 -7.65 -16.5 -0.5 -16.5 4.2 -17.65 8.55 -18.8 12.9 -21.35 16.6 L-22.55 18.15 Q-25.55 21.05 -29.35 22.65 -33.4 24.4 -37.1 24.55 L-37.1 25.6 Q-32.1 25.1 -28.0 22.7 -24.8 20.8 -22.55 18.15 L-22.1 17.7 Q-18.95 14.5 -17.15 9.8 -15.3 5.15 -15.3 -0.6 -15.3 -6.9 -17.2 -11.7 -19.05 -16.4 -22.2 -19.5 L-23.65 -21.05 Q-26.85 -24.1 -30.55 -25.55 -34.25 -27.05 -37.2 -27.25" fill="url(#gradient3)" fill-rule="evenodd" stroke="none"/>
    <path d="M5.9 -25.05 L5.9 24.0 6.9 24.0 6.9 -25.05 5.9 -25.05 M2.85 -19.5 L2.4 -24.8 -6.65 -26.25 -6.65 -27.95 33.75 -27.95 34.5 -14.9 32.65 -14.9 30.05 -24.1 23.85 -24.3 13.0 -23.35 12.5 -17.1 12.25 -10.35 12.5 -3.6 19.65 -3.3 26.95 -3.65 28.75 -9.95 30.6 -9.95 30.6 7.1 28.75 7.1 26.95 0.4 23.5 0.2 19.55 0.1 12.4 0.45 Q12.25 3.4 12.25 7.6 12.25 10.6 12.55 15.95 12.8 21.25 13.2 23.8 L22.35 25.05 22.35 26.8 -6.65 26.8 -6.65 25.05 2.2 23.8 Q2.7 20.45 3.0 14.05 L3.35 3.25 3.35 -6.85 3.2 -12.4 2.85 -19.5" fill="url(#gradient4)" fill-rule="evenodd" stroke="none"/>
    <path d="M74.6 -25.05 L87.55 19.6 88.0 18.3 75.65 -25.05 74.6 -25.05 M64.8 -27.95 L92.85 -27.95 92.85 -26.2 82.5 -24.8 Q82.5 -22.85 83.35 -18.05 84.2 -13.25 85.35 -9.3 L88.85 2.7 91.1 10.8 95.65 -0.75 101.9 -16.3 Q105.2 -24.85 106.25 -28.5 L107.95 -28.5 109.95 -23.5 112.2 -18.05 121.05 1.3 125.45 11.65 Q125.95 9.3 128.45 1.2 L132.6 -13.55 Q133.45 -16.25 134.1 -19.55 L135.0 -24.95 124.45 -26.15 124.45 -27.95 147.35 -27.95 147.35 -26.25 140.65 -24.9 Q139.6 -22.55 138.5 -19.3 L136.3 -12.15 129.8 10.2 126.9 20.7 Q125.65 25.3 125.1 28.2 L123.3 28.2 122.05 24.75 121.0 21.9 119.95 19.4 118.6 16.35 108.4 -6.35 Q105.3 -12.7 105.0 -14.0 104.95 -13.25 103.55 -9.95 L101.9 -5.95 93.4 15.2 91.65 19.35 Q90.75 21.45 90.2 23.35 L88.6 28.2 86.8 28.2 Q86.1 23.9 83.4 14.25 L76.5 -9.95 Q74.15 -18.35 71.35 -24.9 L64.8 -26.25 64.8 -27.95 M106.3 -16.95 L123.05 21.35 123.5 18.85 106.7 -19.2 106.3 -16.95 M87.55 19.6 L87.0 21.05 87.95 21.05 87.55 19.6" fill="url(#gradient5)" fill-rule="evenodd" stroke="none"/>
    <path d="M177.55 -20.6 L196.15 23.9 197.35 23.9 178.0 -22.9 177.55 -20.6 M176.2 -16.8 Q175.85 -15.25 174.3 -11.6 L171.4 -4.7 168.6 2.35 Q167.15 6.15 166.85 6.15 L170.95 6.45 176.5 6.55 186.15 6.15 181.55 -4.6 176.2 -16.8 M180.55 -28.5 L196.5 9.55 Q199.55 16.95 203.4 23.8 L209.75 25.1 209.75 26.8 182.55 26.8 182.55 25.05 192.4 23.8 Q191.9 21.0 190.45 16.8 189.0 12.6 187.45 9.95 L165.6 9.95 163.4 15.65 Q162.55 17.85 161.8 20.35 L160.75 23.8 170.25 25.05 170.25 26.8 148.4 26.8 148.4 25.1 155.35 23.75 Q157.65 19.85 159.65 14.85 L176.65 -28.5 180.55 -28.5" fill="url(#gradient6)" fill-rule="evenodd" stroke="none"/>
    <path d="M233.0 -26.7 L233.0 -25.65 234.0 -25.65 Q236.65 -25.65 239.3 -24.75 L241.8 -23.6 Q244.75 -21.4 246.15 -18.25 247.75 -14.75 247.75 -11.35 247.75 -7.65 246.3 -5.05 244.05 -2.3 241.0 -1.45 L241.4 -0.75 Q244.7 -2.25 246.3 -5.05 L246.4 -5.2 Q248.7 -8.1 248.7 -12.1 248.7 -15.25 247.45 -17.8 246.2 -20.35 244.1 -22.1 L241.8 -23.6 241.0 -24.2 Q237.45 -26.65 233.0 -26.7 M223.05 -25.0 L223.05 23.9 224.1 23.9 224.1 -25.0 223.05 -25.0 M210.85 -26.25 L210.85 -27.95 235.5 -27.95 Q242.55 -27.95 246.8 -25.1 251.0 -22.25 252.7 -18.6 254.35 -15.0 254.35 -12.3 254.35 -8.7 252.65 -5.8 251.0 -2.9 248.3 -1.2 246.5 -0.1 244.95 0.4 L247.4 2.25 250.4 6.0 254.8 12.45 259.1 18.6 261.6 21.9 Q264.8 24.95 268.25 24.95 L268.25 26.8 261.1 26.8 Q255.5 26.8 252.75 23.6 250.9 22.15 249.6 20.4 L245.85 14.9 241.4 8.6 238.55 5.0 Q237.1 3.55 235.9 3.05 234.75 2.55 232.45 2.55 L229.55 2.7 229.45 6.45 229.45 13.2 Q229.45 17.45 230.25 23.8 L239.4 25.05 239.4 26.8 210.85 26.8 210.85 25.05 219.5 23.8 220.3 14.0 220.6 4.4 220.6 -6.85 220.35 -16.65 219.65 -24.9 210.85 -26.25 M237.0 -23.45 Q234.8 -24.35 232.75 -24.35 L230.15 -24.2 Q229.85 -22.55 229.6 -18.75 L229.35 -12.25 229.35 -6.25 Q229.35 -3.05 229.5 -1.05 L232.9 -0.9 Q237.35 -0.9 240.05 -2.4 242.7 -3.9 243.8 -6.3 245.0 -8.7 245.0 -11.55 245.0 -14.4 243.8 -16.8 242.7 -19.2 240.95 -20.9 239.2 -22.5 237.0 -23.45 M259.1 24.05 Q257.9 24.0 256.7 23.45 254.65 21.55 251.9 17.5 L245.55 8.35 Q243.55 5.45 241.85 4.0 L240.55 3.05 Q239.55 1.95 238.6 1.4 L238.4 2.1 Q239.5 2.4 240.55 3.05 L242.25 5.3 250.2 16.85 Q253.0 20.8 255.05 22.4 L256.7 23.45 Q258.05 24.7 259.1 25.0 L259.1 24.05" fill="url(#gradient7)" fill-rule="evenodd" stroke="none"/>
  </g>
  <defs>
    <linearGradient gradientTransform="matrix(0.0197, 0.034, -0.0293, 0.017, -243.8, 11.6)" gradientUnits="userSpaceOnUse" id="gradient0" spreadMethod="pad" x1="-819.2" x2="819.2">
      <stop offset="0.0" stop-color="#eed600"/>
      <stop offset="0.19607843137254902" stop-color="#fef292"/>
      <stop offset="0.36470588235294116" stop-color="#ecd502"/>
      <stop offset="0.6352941176470588" stop-color="#9a8b00"/>
      <stop offset="0.8627450980392157" stop-color="#fff9c4"/>
      <stop offset="1.0" stop-color="#c4c400"/>
    </linearGradient>
    <linearGradient gradientTransform="matrix(0.0182, 0.0314, -0.0324, 0.0188, -171.25, -0.4)" gradientUnits="userSpaceOnUse" id="gradient1" spreadMethod="pad" x1="-819.2" x2="819.2">
      <stop offset="0.0" stop-color="#eed600"/>
      <stop offset="0.19607843137254902" stop-color="#fef292"/>
      <stop offset="0.36470588235294116" stop-color="#ecd502"/>
      <stop offset="0.6352941176470588" stop-color="#9a8b00"/>
      <stop offset="0.8627450980392157" stop-color="#fff9c4"/>
      <stop offset="1.0" stop-color="#c4c400"/>
    </linearGradient>
    <linearGradient gradientTransform="matrix(0.0207, 0.0358, -0.0328, 0.019, -123.3, -0.45)" gradientUnits="userSpaceOnUse" id="gradient2" spreadMethod="pad" x1="-819.2" x2="819.2">
      <stop offset="0.0" stop-color="#eed600"/>
      <stop offset="0.19607843137254902" stop-color="#fef292"/>
      <stop offset="0.36470588235294116" stop-color="#ecd502"/>
      <stop offset="0.6352941176470588" stop-color="#9a8b00"/>
      <stop offset="0.8627450980392157" stop-color="#fff9c4"/>
      <stop offset="1.0" stop-color="#c4c400"/>
    </linearGradient>
    <linearGradient gradientTransform="matrix(0.0176, 0.0304, -0.0314, 0.0182, -39.75, -0.7)" gradientUnits="userSpaceOnUse" id="gradient3" spreadMethod="pad" x1="-819.2" x2="819.2">
      <stop offset="0.0" stop-color="#eed600"/>
      <stop offset="0.19607843137254902" stop-color="#fef292"/>
      <stop offset="0.36470588235294116" stop-color="#ecd502"/>
      <stop offset="0.6352941176470588" stop-color="#9a8b00"/>
      <stop offset="0.8627450980392157" stop-color="#fff9c4"/>
      <stop offset="1.0" stop-color="#c4c400"/>
    </linearGradient>
    <linearGradient gradientTransform="matrix(0.0189, 0.0327, -0.0329, 0.0191, 12.15, -3.05)" gradientUnits="userSpaceOnUse" id="gradient4" spreadMethod="pad" x1="-819.2" x2="819.2">
      <stop offset="0.0" stop-color="#eed600"/>
      <stop offset="0.19607843137254902" stop-color="#fef292"/>
      <stop offset="0.36470588235294116" stop-color="#ecd502"/>
      <stop offset="0.6352941176470588" stop-color="#9a8b00"/>
      <stop offset="0.8627450980392157" stop-color="#fff9c4"/>
      <stop offset="1.0" stop-color="#c4c400"/>
    </linearGradient>
    <linearGradient gradientTransform="matrix(0.0241, 0.0416, -0.0425, 0.0246, 111.55, -9.5)" gradientUnits="userSpaceOnUse" id="gradient5" spreadMethod="pad" x1="-819.2" x2="819.2">
      <stop offset="0.0" stop-color="#eed600"/>
      <stop offset="0.19607843137254902" stop-color="#fef292"/>
      <stop offset="0.36470588235294116" stop-color="#ecd502"/>
      <stop offset="0.6352941176470588" stop-color="#9a8b00"/>
      <stop offset="0.8627450980392157" stop-color="#fff9c4"/>
      <stop offset="1.0" stop-color="#c4c400"/>
    </linearGradient>
    <linearGradient gradientTransform="matrix(0.0197, 0.034, -0.0294, 0.017, 171.7, 11.55)" gradientUnits="userSpaceOnUse" id="gradient6" spreadMethod="pad" x1="-819.2" x2="819.2">
      <stop offset="0.0" stop-color="#eed600"/>
      <stop offset="0.19607843137254902" stop-color="#fef292"/>
      <stop offset="0.36470588235294116" stop-color="#ecd502"/>
      <stop offset="0.6352941176470588" stop-color="#9a8b00"/>
      <stop offset="0.8627450980392157" stop-color="#fff9c4"/>
      <stop offset="1.0" stop-color="#c4c400"/>
    </linearGradient>
    <linearGradient gradientTransform="matrix(0.0233, 0.0402, -0.0312, 0.0181, 231.75, 3.95)" gradientUnits="userSpaceOnUse" id="gradient7" spreadMethod="pad" x1="-819.2" x2="819.2">
      <stop offset="0.0" stop-color="#eed600"/>
      <stop offset="0.19607843137254902" stop-color="#fef292"/>
      <stop offset="0.36470588235294116" stop-color="#ecd502"/>
      <stop offset="0.6352941176470588" stop-color="#9a8b00"/>
      <stop offset="0.8627450980392157" stop-color="#fff9c4"/>
      <stop offset="1.0" stop-color="#c4c400"/>
    </linearGradient>
  </defs>
</svg>
