<?xml version="1.0" encoding="UTF-8" standalone="no"?>
<svg xmlns:xlink="http://www.w3.org/1999/xlink" height="32.3px" width="32.1px" xmlns="http://www.w3.org/2000/svg">
  <g transform="matrix(1.0, 0.0, 0.0, 1.0, -0.6, -0.3)">
    <path d="M29.4 0.4 Q29.85 0.1 29.85 0.7 L29.7 1.1 29.6 1.25 29.05 2.1 28.6 1.8 28.6 1.45 28.85 0.8 Q28.9 0.35 29.3 0.35 L29.4 0.4 M1.25 2.6 Q0.8 2.6 0.7 2.2 L0.7 1.7 Q0.7 1.15 1.45 0.65 2.2 0.2 2.2 0.95 L1.25 2.6 M1.85 29.35 L1.55 29.85 1.0 30.25 Q0.6 30.25 0.6 29.8 0.6 29.5 0.9 29.25 1.3 28.9 1.8 29.1 L1.85 29.35 M29.95 29.35 L29.8 29.95 29.4 30.25 Q28.95 30.25 28.95 29.8 28.95 29.4 29.45 29.0 29.95 28.55 29.95 29.35" fill="#ff6666" fill-rule="evenodd" stroke="none"/>
    <path d="M32.7 3.95 L32.7 4.35 31.45 4.6 Q30.2 4.6 30.2 4.2 30.2 3.9 30.7 3.65 L31.35 2.95 Q31.15 2.6 31.45 2.15 31.8 1.75 32.3 1.95 L32.7 3.95 M3.9 2.1 Q4.2 1.65 4.2 2.5 4.2 4.6 2.45 4.6 L2.05 4.55 Q1.95 4.05 2.1 3.9 L1.7 3.5 Q1.7 3.05 3.35 3.05 L3.9 2.1 M3.6 30.35 Q3.7 30.0 4.3 30.1 L4.35 32.05 Q4.25 32.6 3.75 32.6 L1.6 32.45 Q1.45 32.4 1.45 32.15 2.65 30.7 3.6 30.85 L3.6 30.35 M32.25 32.5 L31.25 32.5 30.25 32.5 29.85 32.05 30.05 31.8 31.3 31.25 31.2 30.65 Q31.2 30.25 31.55 29.8 31.95 29.25 32.25 29.95 L32.45 31.75 32.25 32.5" fill="#660000" fill-rule="evenodd" stroke="none"/>
    <path d="M8.25 29.9 L7.95 29.9 7.9 29.1 7.65 28.85 7.3 28.7 7.2 28.6 7.05 29.55 6.9 29.6 6.9 29.7 6.65 29.8 6.55 28.9 Q6.55 27.85 6.95 26.25 L7.35 24.8 7.35 24.65 7.6 24.0 7.2 23.8 6.95 24.55 6.8 24.8 6.5 24.65 6.2 23.7 5.7 24.1 5.5 23.95 5.55 23.0 4.7 23.0 4.3 22.75 4.4 22.55 6.05 21.6 6.1 21.2 6.4 20.65 6.5 20.65 6.05 20.25 7.35 17.45 7.1 17.1 Q6.75 16.55 6.75 16.15 L6.95 15.05 6.95 14.95 7.05 14.75 7.35 13.95 7.45 13.65 7.5 13.55 7.35 13.35 7.5 13.1 7.5 13.05 7.75 11.95 Q8.15 10.7 8.6 10.7 L8.85 10.7 8.85 10.6 8.9 10.3 9.05 9.9 8.9 8.9 8.75 7.55 Q8.75 7.05 8.9 6.65 L8.85 6.55 Q8.85 6.25 9.55 5.25 L9.55 5.0 9.6 4.9 9.6 5.0 9.7 5.0 10.0 4.4 12.25 4.15 14.0 4.2 14.05 4.15 14.0 3.85 Q14.2 3.75 14.5 4.0 L14.9 4.4 15.55 5.85 15.7 5.85 15.6 5.8 15.85 5.6 15.85 5.45 16.1 5.45 16.1 7.75 16.15 7.75 16.15 8.05 16.0 8.25 16.1 8.25 16.15 8.5 16.25 8.8 16.4 9.35 16.0 11.3 Q16.0 12.1 16.15 12.4 L16.6 13.25 16.7 13.35 16.45 13.25 16.4 13.35 16.15 13.35 16.15 13.4 16.15 13.55 16.0 13.5 16.15 13.95 16.1 14.45 15.9 14.45 15.9 14.5 15.9 14.6 16.25 15.2 16.3 15.85 16.45 15.9 16.4 16.3 17.25 18.4 17.35 19.05 17.7 19.65 17.8 19.55 17.95 19.75 18.35 20.5 19.5 20.95 19.65 21.15 24.05 21.6 24.25 21.45 27.4 22.05 27.6 21.9 27.7 22.05 28.3 22.15 27.75 25.25 27.6 25.75 27.7 25.8 27.45 25.95 27.0 25.9 27.0 25.8 24.9 25.35 23.95 25.2 23.95 25.35 23.8 25.35 23.4 25.8 23.3 26.1 23.1 26.25 22.8 26.25 22.55 26.5 22.25 26.65 21.85 26.5 21.7 26.25 21.55 26.35 21.0 26.35 20.85 26.45 20.45 26.45 20.3 26.6 20.05 26.35 18.75 25.9 18.55 25.35 18.5 25.35 17.85 24.8 17.55 25.1 16.15 25.2 16.25 25.35 15.9 25.5 15.6 25.75 15.85 26.75 15.6 27.85 15.4 28.45 15.4 28.7 Q15.3 28.85 15.0 28.85 L15.4 29.9 14.95 29.9 14.6 29.0 14.5 29.3 14.15 29.3 14.05 29.25 13.85 29.9 13.6 29.9 13.6 29.55 13.8 28.85 13.2 29.1 12.9 29.15 12.55 29.25 11.1 29.6 9.05 28.0 8.75 27.65 8.6 27.5 8.5 27.85 8.45 28.45 8.45 28.6 8.9 29.4 9.15 29.7 9.15 29.45 9.9 29.9 8.65 29.9 8.5 29.4 8.2 29.25 8.25 29.9 M22.45 23.0 L22.85 23.25 27.2 24.1 27.3 23.25 27.6 22.45 24.65 21.85 20.05 21.65 19.6 21.6 18.65 21.45 18.65 21.6 18.5 22.05 20.05 22.2 20.45 22.3 20.6 22.3 22.1 22.75 22.45 23.0 M21.3 23.45 L21.45 23.45 21.6 23.45 21.6 23.4 21.85 23.45 21.9 23.45 22.0 23.55 22.6 23.7 22.7 23.7 24.1 24.0 24.1 24.1 24.05 24.3 23.85 24.3 22.1 24.1 21.4 23.8 21.3 23.8 Q21.05 23.8 20.85 24.25 20.5 24.25 20.6 23.8 20.6 23.55 20.85 23.45 L21.3 23.45 M21.05 23.0 L17.85 22.4 17.55 22.4 16.95 22.2 16.8 22.55 16.55 22.45 16.1 22.05 11.55 21.15 11.5 21.15 11.35 20.95 11.25 20.9 10.95 20.9 7.1 20.1 7.2 20.65 7.2 21.5 7.1 22.4 6.95 23.4 7.1 23.55 7.45 23.3 9.2 22.75 9.6 22.7 10.3 22.6 10.8 22.55 10.95 22.55 11.4 22.55 11.95 22.55 12.4 22.45 12.5 22.45 12.65 22.45 12.8 22.4 12.95 22.4 13.1 22.45 13.8 22.6 13.8 22.7 19.45 23.8 19.6 24.0 19.95 24.55 20.15 24.7 20.15 24.8 21.0 24.85 21.85 24.8 21.9 24.8 22.15 24.85 22.55 24.7 22.8 24.7 22.85 24.7 23.55 24.8 23.85 24.85 24.35 24.85 24.95 24.95 25.05 24.95 27.4 25.4 27.45 24.7 27.2 24.5 22.85 23.55 21.7 23.15 21.05 23.0 M27.45 24.15 L27.55 24.15 27.9 22.55 27.85 22.45 27.75 22.45 27.45 24.15 M15.75 6.1 L15.6 6.15 15.0 6.5 14.85 6.5 14.9 6.55 12.55 6.85 12.25 6.85 12.25 7.25 14.2 7.55 15.75 7.75 15.85 7.25 15.9 6.85 15.85 6.15 15.85 6.1 15.75 6.1 M14.35 4.4 L13.8 5.55 13.05 6.5 14.5 6.15 14.6 6.15 14.75 6.1 15.15 6.0 14.45 4.45 14.35 4.4 M10.85 10.2 L10.85 9.5 11.0 9.05 11.25 8.65 10.95 7.5 Q10.95 7.25 11.4 7.2 L11.95 7.1 Q11.85 6.85 12.05 6.8 L12.05 6.55 12.4 6.55 12.9 6.25 13.65 5.25 13.8 4.55 13.65 4.55 12.25 4.45 Q10.4 4.55 9.85 5.25 L9.85 5.3 9.6 5.6 Q9.0 6.15 9.0 7.55 L9.0 7.65 9.15 8.95 Q9.2 9.35 9.4 9.6 L9.4 9.7 9.4 9.9 9.4 10.15 9.2 10.4 9.7 10.4 9.9 10.45 10.65 10.45 10.65 10.4 10.85 10.4 10.95 10.2 10.85 10.2 M13.45 8.45 L13.25 8.6 13.1 8.75 13.35 9.05 13.6 9.75 13.1 10.85 13.25 11.25 14.85 12.25 15.0 12.3 15.45 12.55 16.3 13.1 15.9 12.55 15.85 12.4 15.75 11.3 15.9 10.45 16.15 9.3 16.0 8.9 15.9 8.9 13.45 8.35 13.45 8.45 M13.05 8.35 L12.8 8.35 12.8 7.9 12.9 7.75 12.05 7.65 12.05 7.4 11.95 7.4 11.4 7.5 11.35 7.55 11.55 8.75 11.5 9.15 11.25 9.5 11.25 9.7 11.25 9.9 11.25 10.2 11.25 10.4 11.4 10.45 12.4 10.85 12.65 10.9 12.95 11.1 12.9 10.85 13.1 10.3 13.35 9.75 13.1 9.2 12.9 8.95 12.9 8.65 12.9 8.5 13.05 8.35 M13.5 8.1 L14.9 8.2 15.55 8.2 15.55 8.1 13.35 7.8 13.25 7.95 Q13.35 7.95 13.5 8.1 M9.0 12.95 Q9.75 12.55 10.65 12.65 L11.25 12.7 11.95 12.95 12.25 13.1 12.35 13.1 Q13.05 13.4 13.45 14.25 L13.6 14.95 13.75 15.9 13.8 15.9 13.8 16.2 13.9 16.2 13.9 17.95 14.0 17.8 Q14.5 16.6 14.45 14.6 L14.45 14.35 14.45 14.2 14.35 13.25 14.35 13.1 14.3 12.85 14.05 12.5 Q13.45 11.6 11.8 10.9 10.65 10.45 9.6 11.15 8.9 11.6 8.35 12.55 L8.15 13.05 7.8 13.55 7.65 13.9 7.75 13.9 Q8.0 13.5 8.5 13.2 L8.75 13.05 8.9 12.95 9.0 12.95 M9.85 10.75 L9.85 10.7 9.75 10.7 9.6 10.75 9.85 10.75 M8.15 12.0 L7.9 12.8 8.0 12.8 8.05 12.55 8.7 11.4 9.15 11.15 9.05 11.15 8.6 11.1 Q8.35 11.1 8.2 11.95 L8.15 12.0 M8.6 13.5 L8.3 13.95 7.6 14.95 7.5 15.05 7.45 15.35 Q7.9 14.95 8.7 14.6 L9.05 14.5 9.9 14.35 11.7 14.65 Q12.4 14.9 12.8 16.0 L12.9 16.45 13.1 17.85 13.1 18.15 13.2 18.1 13.35 18.0 13.6 18.0 13.65 18.0 Q13.5 17.4 13.5 16.4 L13.5 15.6 13.5 15.5 13.45 14.95 13.25 14.5 13.05 14.05 12.55 13.5 12.25 13.35 11.95 13.2 10.65 12.85 10.4 12.85 9.4 13.05 Q8.9 13.1 8.85 13.35 L8.6 13.5 M8.6 15.05 L8.6 15.15 8.0 15.6 8.05 15.9 8.05 16.0 8.05 16.2 9.7 17.25 10.15 17.95 11.65 17.7 Q11.8 17.7 12.2 18.1 L12.75 17.95 12.55 16.9 Q12.2 15.2 11.55 14.9 L9.4 14.75 8.6 15.05 M7.2 16.0 L7.2 15.6 7.05 16.0 7.35 16.75 7.45 16.0 7.35 16.0 7.35 16.05 7.2 16.0 M7.75 16.0 Q7.45 16.45 7.65 17.15 L7.8 17.6 8.15 18.25 8.15 18.15 8.3 18.15 8.9 17.85 9.0 17.8 9.3 17.7 9.45 17.6 9.05 17.15 8.7 16.85 8.2 16.6 7.9 16.55 Q7.75 16.45 7.75 16.0 M9.05 18.1 L8.35 18.55 8.45 18.8 8.9 19.65 10.25 19.4 10.45 18.3 10.45 18.25 10.1 18.25 9.55 17.8 9.4 17.85 9.05 18.1 M7.75 19.9 L8.0 19.95 8.05 20.05 10.15 20.45 10.45 19.95 10.8 19.65 8.85 20.05 8.75 19.9 8.2 19.2 8.15 19.05 7.6 17.85 6.75 19.5 6.55 20.1 6.75 20.35 6.75 20.05 7.35 19.8 7.75 19.95 7.75 19.9 M6.65 20.8 L6.4 21.35 6.75 21.15 6.8 21.15 6.75 20.9 6.65 20.8 M6.5 22.0 L6.2 22.15 5.95 22.2 5.15 22.55 6.05 22.75 5.85 23.0 5.95 23.3 6.25 23.1 6.5 23.25 6.75 24.1 6.9 23.8 Q6.5 23.55 6.9 22.7 L6.9 21.75 6.5 22.0 M8.0 24.25 L7.75 24.95 7.65 25.2 Q7.9 25.25 8.0 25.4 L8.05 25.4 8.5 24.5 8.05 24.3 8.0 24.25 M7.75 23.7 L8.6 24.0 8.75 24.1 8.9 24.15 10.0 24.55 9.75 24.25 9.3 23.15 7.6 23.6 7.75 23.7 M15.3 12.7 L15.4 12.8 16.0 13.2 15.75 12.95 15.3 12.7 M15.2 14.2 L15.55 14.75 15.45 14.25 15.2 14.2 M15.75 19.35 L16.0 19.1 16.45 18.1 16.45 17.95 15.6 15.7 15.45 15.2 15.2 14.8 14.9 14.35 15.0 14.25 14.75 14.2 14.7 14.65 14.7 14.75 14.45 17.8 14.15 18.3 14.05 18.3 14.0 18.3 13.8 18.15 13.75 18.25 13.65 18.3 13.75 18.15 13.65 18.1 13.65 18.15 13.65 18.3 13.75 18.55 13.9 19.05 14.0 19.25 14.05 19.5 14.05 19.55 14.15 19.55 14.75 19.75 15.05 19.75 15.3 19.75 15.75 19.35 M15.75 14.65 L15.6 14.9 15.85 15.6 15.75 15.2 15.75 14.65 M15.85 14.05 Q15.7 13.65 15.85 13.4 L15.05 13.1 14.85 13.5 14.85 13.65 15.55 13.95 15.85 14.05 M16.15 16.15 L16.15 16.05 16.1 16.05 16.15 16.15 M16.8 18.25 L16.3 19.05 16.55 20.45 16.8 19.8 16.85 18.4 16.8 18.25 M14.85 12.7 L14.5 12.65 14.7 12.85 14.85 12.7 M11.35 18.1 L10.8 18.25 10.8 18.85 10.7 19.2 10.65 19.35 11.0 19.25 11.4 19.2 11.5 19.2 11.8 18.85 12.05 18.55 12.55 18.3 11.35 18.1 M13.35 18.4 L12.9 18.55 12.8 18.65 12.55 18.85 12.75 19.25 12.9 19.9 Q12.9 20.35 12.05 20.6 L12.05 20.8 13.8 21.15 13.9 21.05 14.15 20.65 14.3 20.5 14.6 20.1 13.65 19.65 13.6 19.5 13.5 19.35 13.5 19.25 13.35 19.2 13.25 19.1 13.35 19.05 13.45 18.95 13.45 18.65 13.45 18.4 13.35 18.4 M14.5 20.8 L14.2 21.2 15.6 21.5 15.45 21.2 16.15 20.75 15.9 19.55 15.3 20.1 15.05 20.1 14.6 20.8 14.5 20.8 M12.55 19.8 L12.25 19.1 11.95 19.25 11.8 19.35 11.35 19.55 10.45 20.5 11.55 20.75 11.15 19.95 11.4 19.75 11.85 20.35 12.2 20.1 12.55 19.8 M12.55 22.9 L12.4 22.85 10.8 22.9 10.4 22.9 9.75 23.0 10.7 25.1 10.8 25.25 11.5 25.35 11.55 25.2 12.05 25.25 12.25 25.25 12.5 24.55 12.8 23.95 13.25 23.4 13.2 23.4 12.9 23.15 12.55 22.9 M13.75 23.0 L13.35 22.9 13.25 23.15 13.35 23.15 13.5 23.25 13.65 23.25 13.65 23.15 13.75 23.0 M12.8 25.4 Q13.2 24.4 13.65 23.95 L13.65 23.8 13.65 23.6 13.65 23.45 13.45 23.45 13.1 24.0 Q12.75 24.55 12.75 25.0 L12.5 25.35 12.75 25.55 12.8 25.4 M14.05 24.15 L14.0 24.25 13.45 25.25 13.2 25.9 13.1 25.95 12.9 26.35 12.75 26.5 13.5 26.8 13.75 26.8 13.75 26.5 13.9 26.2 14.5 25.55 15.3 24.7 15.2 24.5 15.15 24.15 Q15.3 23.6 15.7 23.45 L14.05 23.1 14.15 23.25 14.15 23.45 14.15 23.55 14.05 23.8 14.05 24.15 M18.05 21.45 L17.8 21.9 18.2 22.0 18.35 21.45 18.05 21.45 M18.1 20.6 L18.05 20.35 17.7 19.95 17.25 20.45 17.25 20.5 17.65 20.95 17.7 20.9 18.1 20.65 18.1 20.6 M18.25 20.8 L18.25 20.9 18.55 20.95 18.25 20.8 M17.35 19.9 L17.55 19.75 17.35 19.35 17.25 19.65 17.15 20.1 17.35 19.9 M16.25 21.6 L16.3 21.65 16.55 22.0 17.35 21.85 17.4 21.85 17.5 21.5 17.7 21.35 17.35 21.2 16.95 20.8 16.85 20.75 16.1 21.3 16.0 21.3 16.1 21.35 16.25 21.6 M15.7 23.95 L15.7 24.1 15.75 24.5 15.75 24.55 16.0 24.85 16.45 24.8 17.55 24.55 16.8 23.95 16.45 23.6 16.1 23.55 16.0 23.6 15.7 23.95 M17.35 23.8 L17.55 23.95 17.55 23.8 17.35 23.8 M17.95 23.85 L17.95 24.3 18.5 24.85 18.5 24.65 18.65 24.8 18.8 24.85 19.05 25.1 19.1 25.0 19.25 25.0 19.65 24.85 19.45 24.7 19.1 24.1 17.95 23.85 M19.35 25.5 L19.25 25.4 19.05 25.4 19.05 25.55 19.05 25.65 19.65 26.05 19.65 25.95 19.75 25.8 19.8 25.35 19.35 25.5 M19.95 25.9 L20.45 25.95 20.35 25.75 20.45 25.5 20.05 25.5 19.95 25.9 M15.6 25.25 L14.85 25.65 14.05 26.45 14.15 26.6 14.45 26.45 Q14.5 26.25 14.7 26.2 L14.9 26.05 15.15 25.8 15.4 25.55 15.55 25.35 15.6 25.25 M15.4 26.05 L15.2 26.35 15.45 26.45 15.55 26.35 15.45 25.95 15.4 26.05 M15.55 26.65 L15.15 26.65 15.2 27.5 15.55 26.65 M13.25 27.2 L11.55 27.75 Q11.0 27.75 9.9 27.15 L9.85 27.15 9.15 26.65 8.85 26.2 8.7 27.05 8.6 27.35 8.75 27.3 8.9 27.45 9.9 28.2 Q10.95 29.15 11.1 29.15 L12.75 29.0 13.1 28.85 13.75 28.55 13.9 28.55 14.05 27.75 14.15 27.3 14.2 27.2 13.45 27.2 13.25 27.2 M14.45 27.65 L14.3 28.3 Q14.2 28.35 14.2 28.55 L14.35 28.45 14.85 28.35 14.9 28.3 15.0 28.3 15.0 28.15 14.7 26.75 14.45 27.65 M12.25 25.55 L12.2 25.5 10.55 25.5 10.3 25.25 Q9.4 25.0 9.0 24.65 L8.85 25.75 9.7 26.45 10.4 26.8 10.45 26.9 11.65 27.35 11.8 27.35 12.25 27.2 12.75 27.05 12.5 26.75 12.25 26.95 12.25 26.75 12.4 26.25 12.5 26.2 12.4 26.1 12.25 25.75 12.25 25.55 M7.65 25.75 L7.6 25.65 7.45 26.8 7.35 26.95 7.45 26.95 7.6 26.65 7.8 25.8 7.65 25.75 M8.45 26.35 Q8.5 25.5 8.7 24.95 L7.75 27.05 Q7.45 27.75 7.3 28.35 L7.45 28.35 8.0 28.55 8.2 28.7 8.3 28.7 8.15 28.45 8.2 27.75 8.45 26.35 M23.0 25.1 L22.6 25.1 22.4 25.25 22.7 25.5 22.8 25.8 23.25 25.25 23.0 25.1 M22.25 25.1 L22.0 25.1 22.15 25.2 22.25 25.1 M21.6 25.25 L21.4 25.75 21.15 25.95 21.2 26.05 21.6 25.95 21.7 25.95 21.85 26.05 21.85 25.75 22.0 25.5 21.7 25.25 21.6 25.25 M22.1 26.05 Q22.1 26.25 22.25 26.25 L22.45 26.2 22.55 26.1 22.55 25.95 22.3 25.55 22.25 25.5 22.25 25.55 22.15 25.8 22.1 25.9 22.1 26.05 M21.3 25.2 L20.85 25.2 20.75 25.25 21.15 25.4 21.2 25.35 21.3 25.2 M20.6 25.55 L20.6 25.75 20.7 25.9 20.9 26.05 20.9 25.8 21.0 25.8 21.0 25.75 20.9 25.75 20.7 25.55 20.6 25.55" fill="#000000" fill-rule="evenodd" stroke="none"/>
    <path d="M8.6 15.05 L9.4 14.75 11.55 14.9 Q12.2 15.2 12.55 16.9 L12.75 17.95 12.2 18.1 Q11.8 17.7 11.65 17.7 L10.15 17.95 9.7 17.25 8.05 16.2 8.05 16.0 8.05 15.9 8.0 15.6 8.6 15.15 8.6 15.05 M15.2 14.2 L15.45 14.25 15.55 14.75 15.2 14.2" fill="#626262" fill-rule="evenodd" stroke="none"/>
    <path d="M9.0 12.95 L9.05 12.7 9.45 12.65 10.1 12.4 10.0 12.1 9.7 12.15 9.75 12.0 10.4 11.4 10.45 11.25 Q10.3 11.25 9.75 11.55 L9.85 11.45 9.2 11.95 9.2 12.0 9.05 12.1 8.9 12.3 8.5 12.8 8.35 12.95 8.75 13.05 8.5 13.2 Q8.0 13.5 7.75 13.9 L7.65 13.9 7.8 13.55 8.15 13.05 8.35 12.55 Q8.9 11.6 9.6 11.15 10.65 10.45 11.8 10.9 13.45 11.6 14.05 12.5 L14.3 12.85 14.35 13.1 14.2 13.05 14.0 13.25 13.9 14.9 13.8 14.75 13.45 13.9 13.45 14.25 Q13.05 13.4 12.35 13.1 L12.25 13.1 11.95 12.95 11.25 12.7 10.65 12.65 Q9.75 12.55 9.0 12.95 M8.75 13.05 L8.9 12.85 8.9 12.95 8.75 13.05 M10.7 11.7 L10.95 12.15 12.35 12.1 12.25 12.15 Q12.05 12.8 12.25 12.85 L12.35 12.85 12.75 12.3 12.9 12.7 Q12.95 13.05 13.45 13.25 L13.75 13.2 14.0 13.1 13.75 12.55 13.6 12.8 13.75 13.05 13.6 13.05 13.45 12.95 Q13.05 12.8 13.05 12.5 L12.8 12.1 12.9 11.95 12.95 11.6 Q12.65 11.55 12.5 11.85 L11.7 11.8 11.15 12.0 10.95 11.95 10.95 11.8 11.1 11.6 10.95 11.55 10.7 11.7 M9.85 10.75 L9.6 10.75 9.75 10.7 9.85 10.7 9.85 10.75 M15.3 12.7 L15.75 12.95 16.0 13.2 15.4 12.8 15.3 12.7 M14.35 13.25 L14.45 14.2 14.45 14.35 14.45 14.6 Q14.5 16.6 14.0 17.8 L13.9 17.95 13.9 16.2 14.0 16.2 14.05 16.05 14.3 14.45 14.35 13.25" fill="#bfbfbf" fill-rule="evenodd" stroke="none"/>
    <path d="M8.6 13.5 L8.85 13.35 Q8.9 13.1 9.4 13.05 L10.4 12.85 10.65 12.85 11.95 13.2 12.25 13.35 12.55 13.5 13.05 14.05 13.25 14.5 13.45 14.95 13.5 15.5 13.5 15.6 13.5 16.4 Q13.5 17.4 13.65 18.0 L13.6 18.0 13.35 18.0 13.2 18.1 13.1 18.15 13.1 17.85 12.9 16.45 12.8 16.0 Q12.4 14.9 11.7 14.65 L9.9 14.35 9.05 14.5 8.7 14.6 Q7.9 14.95 7.45 15.35 L7.5 15.05 7.6 14.95 8.3 13.95 8.6 13.5 M15.85 14.05 L15.55 13.95 14.85 13.65 14.85 13.5 15.05 13.1 15.85 13.4 Q15.7 13.65 15.85 14.05" fill="#8c8c8c" fill-rule="evenodd" stroke="none"/>
    <path d="M7.75 16.0 Q7.75 16.45 7.9 16.55 L8.2 16.6 8.7 16.85 9.05 17.15 9.45 17.6 9.3 17.7 9.0 17.8 8.9 17.85 8.3 18.15 8.15 18.15 8.15 18.25 7.8 17.6 7.65 17.15 Q7.45 16.45 7.75 16.0 M7.75 23.7 L7.6 23.6 9.3 23.15 9.75 24.25 10.0 24.55 8.9 24.15 8.75 24.1 8.6 24.0 7.75 23.7 M15.75 14.65 L15.75 15.2 15.85 15.6 15.6 14.9 15.75 14.65 M16.15 16.15 L16.1 16.05 16.15 16.05 16.15 16.15 M13.35 18.4 L13.45 18.4 13.45 18.65 13.45 18.95 13.35 19.05 13.25 19.1 13.35 19.2 13.5 19.25 13.5 19.35 13.6 19.5 13.65 19.65 14.6 20.1 14.3 20.5 14.15 20.65 13.9 21.05 13.8 21.15 12.05 20.8 12.05 20.6 Q12.9 20.35 12.9 19.9 L12.75 19.25 12.55 18.85 12.8 18.65 12.9 18.55 13.35 18.4 M11.35 18.1 L12.55 18.3 12.05 18.55 11.8 18.85 11.5 19.2 11.4 19.2 11.0 19.25 10.65 19.35 10.7 19.2 10.8 18.85 10.8 18.25 11.35 18.1 M18.25 20.8 L18.55 20.95 18.25 20.9 18.25 20.8 M17.95 23.85 L19.1 24.1 19.45 24.7 19.65 24.85 19.25 25.0 19.1 25.0 19.05 25.1 18.8 24.85 18.65 24.8 18.5 24.65 18.5 24.85 17.95 24.3 17.95 23.85 M17.35 23.8 L17.55 23.8 17.55 23.95 17.35 23.8" fill="#404040" fill-rule="evenodd" stroke="none"/>
    <path d="M7.75 19.9 L7.75 19.95 7.35 19.8 6.75 20.05 6.75 20.35 6.55 20.1 6.75 19.5 7.6 17.85 8.15 19.05 8.2 19.2 8.75 19.9 8.85 20.05 10.8 19.65 10.45 19.95 10.15 20.45 8.05 20.05 8.0 19.95 7.75 19.9 M16.8 18.25 L16.85 18.4 16.8 19.8 16.55 20.45 16.3 19.05 16.8 18.25" fill="#777777" fill-rule="evenodd" stroke="none"/>
    <path d="M8.75 13.05 L8.35 12.95 8.5 12.8 8.9 12.3 9.05 12.1 9.2 12.0 9.2 11.95 9.85 11.45 9.75 11.55 Q10.3 11.25 10.45 11.25 L10.4 11.4 9.75 12.0 9.7 12.15 10.0 12.1 10.1 12.4 9.45 12.65 9.05 12.7 9.0 12.95 8.9 12.95 8.9 12.85 8.75 13.05 M13.45 14.25 L13.45 13.9 13.8 14.75 13.9 14.9 14.0 13.25 14.2 13.05 14.35 13.1 14.35 13.25 14.3 14.45 14.05 16.05 14.0 16.2 13.9 16.2 13.8 16.2 13.8 15.9 13.75 15.9 13.6 14.95 13.45 14.25 M10.7 11.7 L10.95 11.55 11.1 11.6 10.95 11.8 10.95 11.95 11.15 12.0 11.7 11.8 12.5 11.85 Q12.65 11.55 12.95 11.6 L12.9 11.95 12.8 12.1 13.05 12.5 Q13.05 12.8 13.45 12.95 L13.6 13.05 13.75 13.05 13.6 12.8 13.75 12.55 14.0 13.1 13.75 13.2 13.45 13.25 Q12.95 13.05 12.9 12.7 L12.75 12.3 12.35 12.85 12.25 12.85 Q12.05 12.8 12.25 12.15 L12.35 12.1 10.95 12.15 10.7 11.7 M9.05 18.1 L9.4 17.85 9.55 17.8 10.1 18.25 10.45 18.25 10.45 18.3 10.25 19.4 8.9 19.65 8.45 18.8 8.35 18.55 9.05 18.1" fill="#ffff09" fill-rule="evenodd" stroke="none"/>
    <path d="M6.65 20.8 L6.75 20.9 6.8 21.15 6.75 21.15 6.4 21.35 6.65 20.8 M17.35 19.9 L17.15 20.1 17.25 19.65 17.35 19.35 17.55 19.75 17.35 19.9" fill="#373737" fill-rule="evenodd" stroke="none"/>
    <path d="M13.6 29.9 L11.4 29.9 11.15 29.85 10.95 29.9 9.9 29.9 9.15 29.45 9.15 29.7 8.9 29.4 8.45 28.6 8.45 28.45 8.5 27.85 8.6 27.5 8.75 27.65 9.05 28.0 11.1 29.6 12.55 29.25 12.9 29.15 13.2 29.1 13.8 28.85 13.6 29.55 13.6 29.9 M8.0 24.25 L8.05 24.3 8.5 24.5 8.05 25.4 8.0 25.4 Q7.9 25.25 7.65 25.2 L7.75 24.95 8.0 24.25 M12.4 22.85 L12.5 22.9 12.55 22.9 12.9 23.15 13.2 23.4 13.25 23.4 12.8 23.95 12.5 24.55 12.25 25.25 12.05 25.25 11.55 25.2 11.55 25.1 10.85 24.85 10.3 23.0 10.4 22.9 11.1 23.3 11.15 23.15 10.8 22.9 12.4 22.85 M12.8 25.4 L12.75 25.55 12.5 25.35 12.75 25.0 Q12.65 25.25 12.8 25.4 M19.75 25.8 L19.35 25.5 19.8 25.35 19.75 25.8 M15.6 25.25 L15.55 25.35 15.4 25.55 15.15 25.8 14.9 26.05 14.7 26.2 Q14.5 26.25 14.45 26.45 L14.15 26.6 14.05 26.45 14.85 25.65 15.6 25.25 M19.95 25.9 L20.05 25.5 20.45 25.5 20.35 25.75 20.45 25.95 19.95 25.9 M13.25 27.2 L13.45 27.2 14.2 27.2 14.15 27.3 14.05 27.75 13.9 28.55 13.75 28.55 13.1 28.85 12.75 29.0 11.1 29.15 Q10.95 29.15 9.9 28.2 L8.9 27.45 8.75 27.3 8.6 27.35 8.7 27.05 8.85 26.2 9.15 26.65 9.85 27.15 9.9 27.15 Q11.0 27.75 11.55 27.75 L13.25 27.2 M15.55 26.65 L15.2 27.5 15.15 26.65 15.55 26.65 M12.25 25.55 L12.25 25.75 12.4 26.1 12.5 26.2 12.4 26.25 12.25 26.75 12.25 26.95 12.5 26.75 12.75 27.05 12.25 27.2 11.8 27.35 11.65 27.35 10.45 26.9 10.4 26.8 9.7 26.45 8.85 25.75 9.0 24.65 Q9.4 25.0 10.3 25.25 L10.55 25.5 12.2 25.5 12.25 25.55 M11.5 26.9 Q11.95 26.9 11.95 26.5 L11.35 26.1 Q10.95 26.1 11.0 26.5 11.0 26.9 11.5 26.9 M11.4 29.0 L11.65 28.7 Q11.65 28.3 11.25 28.35 10.8 28.35 10.8 28.75 10.8 29.0 11.4 29.0 M7.65 25.75 L7.8 25.8 7.6 26.65 7.45 26.95 7.35 26.95 7.45 26.8 7.6 25.65 7.65 25.75 M20.6 25.55 L20.7 25.55 20.9 25.75 21.0 25.75 21.0 25.8 20.9 25.8 20.9 26.05 20.7 25.9 20.6 25.75 20.6 25.55 M21.3 25.2 L21.2 25.35 21.15 25.4 20.75 25.25 20.85 25.2 21.3 25.2 M22.1 26.05 L22.1 25.9 22.15 25.8 22.25 25.55 22.25 25.5 22.3 25.55 22.55 25.95 22.55 26.1 22.45 26.2 22.25 26.25 Q22.1 26.25 22.1 26.05 M21.6 25.25 L21.7 25.25 22.0 25.5 21.85 25.75 21.85 26.05 21.7 25.95 21.6 25.95 21.2 26.05 21.15 25.95 21.4 25.75 21.6 25.25 M22.25 25.1 L22.15 25.2 22.0 25.1 22.25 25.1 M23.0 25.1 L23.25 25.25 22.8 25.8 22.7 25.5 22.4 25.25 22.6 25.1 23.0 25.1" fill="#7b7b7b" fill-rule="evenodd" stroke="none"/>
    <path d="M11.4 29.9 L10.95 29.9 11.15 29.85 11.4 29.9 M9.6 5.6 L9.7 5.7 9.45 6.7 Q9.2 7.2 9.2 7.65 L9.4 8.8 9.6 9.7 10.1 8.9 10.15 9.2 10.15 9.3 10.25 9.2 10.3 9.35 10.0 9.75 9.9 10.0 10.85 10.2 10.95 10.2 10.85 10.4 10.65 10.4 9.7 10.4 9.2 10.4 9.4 10.15 9.45 10.05 9.4 9.7 9.4 9.6 Q9.2 9.35 9.15 8.95 L9.0 7.65 9.0 7.55 Q9.0 6.15 9.6 5.6 M13.65 8.5 L13.75 8.65 14.75 8.75 14.85 8.8 14.5 9.05 14.0 8.9 14.0 9.05 14.05 9.85 13.8 10.4 14.2 10.4 14.5 10.4 13.9 10.85 13.75 10.85 14.35 11.4 14.9 11.8 15.2 11.95 15.75 12.25 15.75 12.4 15.45 12.3 Q14.35 11.95 13.8 11.4 L13.45 11.0 13.25 11.0 13.35 10.7 13.8 9.6 13.75 9.3 13.6 9.3 13.45 8.75 13.65 8.5 M6.5 22.0 L6.9 21.75 6.9 22.7 Q6.5 23.55 6.9 23.8 L6.75 24.1 6.5 23.25 6.25 23.1 5.95 23.3 5.85 23.0 6.05 22.75 5.15 22.55 5.95 22.2 6.2 22.15 6.5 22.0 M14.7 14.75 L14.7 14.65 14.75 14.2 15.0 14.25 14.9 14.35 15.2 14.8 15.45 15.2 15.6 15.7 16.45 17.95 16.45 18.1 16.0 19.1 15.75 19.35 15.05 19.75 14.75 19.75 14.15 19.55 14.05 19.5 14.0 19.25 14.05 19.1 13.75 18.25 13.8 18.15 14.0 18.3 14.05 18.3 14.15 18.7 15.05 18.65 15.15 18.85 14.85 19.05 14.9 19.35 14.9 19.5 15.75 19.05 15.85 18.65 16.1 18.15 16.0 17.8 15.3 17.7 14.9 17.55 14.9 17.4 15.9 17.4 15.4 16.05 14.7 14.75 M12.55 22.9 L12.5 22.9 12.4 22.85 12.55 22.9 M10.8 22.9 L11.15 23.15 11.1 23.3 10.4 22.9 10.3 23.0 10.85 24.85 11.55 25.1 11.55 25.2 11.5 25.35 10.8 25.25 10.7 25.1 9.75 23.0 10.4 22.9 10.8 22.9 M12.75 25.0 Q12.75 24.55 13.1 24.0 L13.45 23.45 13.65 23.45 13.65 23.6 13.65 23.8 13.65 23.95 Q13.2 24.4 12.8 25.4 12.65 25.25 12.75 25.0 M18.1 20.6 L18.1 20.65 17.7 20.9 17.65 20.95 17.25 20.5 17.25 20.45 17.7 19.95 18.05 20.35 18.1 20.6 M19.75 25.8 L19.65 25.95 19.65 26.05 19.05 25.65 19.05 25.55 19.05 25.4 19.25 25.4 19.35 25.5 19.75 25.8 M15.4 26.05 L15.45 25.95 15.55 26.35 15.45 26.45 15.2 26.35 15.4 26.05 M11.5 26.9 Q11.0 26.9 11.0 26.5 10.95 26.1 11.35 26.1 L11.95 26.5 Q11.95 26.9 11.5 26.9 M11.4 29.0 Q10.8 29.0 10.8 28.75 10.8 28.35 11.25 28.35 11.65 28.3 11.65 28.7 L11.4 29.0" fill="#ffff00" fill-rule="evenodd" stroke="none"/>
    <path d="M8.65 29.9 L8.25 29.9 8.2 29.25 8.5 29.4 8.65 29.9" fill="#666666" fill-rule="evenodd" stroke="none"/>
    <path d="M14.95 29.9 L13.85 29.9 14.05 29.25 14.15 29.3 14.5 29.3 14.6 29.0 14.95 29.9" fill="#a6a6a6" fill-rule="evenodd" stroke="none"/>
    <path d="M12.55 19.8 L12.2 20.1 11.85 20.35 11.4 19.75 11.15 19.95 11.55 20.75 10.45 20.5 11.35 19.55 11.8 19.35 11.95 19.25 12.25 19.1 12.55 19.8" fill="#333333" fill-rule="evenodd" stroke="none"/>
    <path d="M14.35 4.4 L14.45 4.45 15.15 6.0 14.75 6.1 14.6 6.15 14.5 6.15 13.05 6.5 13.8 5.55 14.35 4.4 M13.05 8.35 L12.9 8.5 12.9 8.65 12.9 8.95 13.1 9.2 13.35 9.75 13.1 10.3 12.9 10.85 12.95 11.1 12.65 10.9 12.4 10.85 11.4 10.45 11.25 10.4 11.25 10.2 11.25 9.9 11.25 9.7 11.25 9.5 11.5 9.15 11.55 8.75 11.35 7.55 11.4 7.5 11.95 7.4 12.05 7.4 12.05 7.65 12.9 7.75 12.8 7.9 12.8 8.35 13.05 8.35" fill="#555555" fill-rule="evenodd" stroke="none"/>
    <path d="M9.6 5.6 L9.85 5.3 9.85 5.25 Q10.4 4.55 12.25 4.45 L13.65 4.55 13.8 4.55 13.65 5.25 12.9 6.25 12.4 6.55 12.05 6.55 12.05 6.8 Q11.85 6.85 11.95 7.1 L11.4 7.2 Q10.95 7.25 10.95 7.5 L11.25 8.65 11.0 9.05 10.85 9.5 10.85 10.2 9.9 10.0 10.0 9.75 10.3 9.35 10.25 9.2 10.15 9.3 10.15 9.2 10.1 8.9 9.6 9.7 9.4 8.8 9.2 7.65 Q9.2 7.2 9.45 6.7 L9.7 5.7 9.6 5.6 M10.65 10.4 L10.65 10.45 9.9 10.45 9.7 10.4 10.65 10.4 M9.4 10.15 L9.4 9.9 9.4 9.7 9.45 10.05 9.4 10.15" fill="#9d9d9d" fill-rule="evenodd" stroke="none"/>
    <path d="M15.75 6.1 L15.85 6.1 15.85 6.15 15.9 6.85 15.85 7.25 15.75 7.75 14.2 7.55 12.25 7.25 12.25 6.85 12.55 6.85 14.9 6.55 14.85 6.5 15.0 6.5 15.6 6.15 15.75 6.1 M13.45 8.45 L13.45 8.35 15.9 8.9 16.0 8.9 16.15 9.3 15.9 10.45 15.75 11.3 15.85 12.4 15.9 12.55 16.3 13.1 15.45 12.55 15.0 12.3 14.85 12.25 13.25 11.25 13.1 10.85 13.6 9.75 13.35 9.05 13.1 8.75 13.25 8.6 13.45 8.45 M13.65 8.5 L13.45 8.75 13.6 9.3 13.75 9.3 13.8 9.6 13.35 10.7 13.25 11.0 13.45 11.0 13.8 11.4 Q14.35 11.95 15.45 12.3 L15.75 12.4 15.75 12.25 15.2 11.95 14.9 11.8 14.35 11.4 13.75 10.85 13.9 10.85 14.5 10.4 14.2 10.4 13.8 10.4 14.05 9.85 14.0 9.05 14.0 8.9 14.5 9.05 14.85 8.8 14.75 8.75 13.75 8.65 13.65 8.5" fill="#b3b3b3" fill-rule="evenodd" stroke="none"/>
    <path d="M13.5 8.1 Q13.35 7.95 13.25 7.95 L13.35 7.8 15.55 8.1 15.55 8.2 14.9 8.2 13.5 8.1" fill="#ff1111" fill-rule="evenodd" stroke="none"/>
    <path d="M7.2 16.0 L7.35 16.05 7.35 16.0 7.45 16.0 7.35 16.75 7.05 16.0 7.2 15.6 7.2 16.0" fill="#cccccc" fill-rule="evenodd" stroke="none"/>
    <path d="M8.15 12.0 L8.2 11.95 Q8.35 11.1 8.6 11.1 L9.05 11.15 9.15 11.15 8.7 11.4 8.05 12.55 8.0 12.8 7.9 12.8 8.15 12.0 M14.85 12.7 L14.7 12.85 14.5 12.65 14.85 12.7" fill="#515151" fill-rule="evenodd" stroke="none"/>
    <path d="M15.75 19.35 L15.3 19.75 15.05 19.75 15.75 19.35 M14.15 19.55 L14.05 19.55 14.05 19.5 14.15 19.55 M14.0 19.25 L13.9 19.05 13.75 18.55 13.65 18.3 13.65 18.15 13.65 18.1 13.75 18.15 13.65 18.3 13.75 18.25 14.05 19.1 14.0 19.25 M14.05 18.3 L14.15 18.3 14.45 17.8 14.7 14.75 15.4 16.05 15.9 17.4 14.9 17.4 14.9 17.55 15.3 17.7 16.0 17.8 16.1 18.15 15.85 18.65 15.75 19.05 14.9 19.5 14.9 19.35 14.85 19.05 15.15 18.85 15.05 18.65 14.15 18.7 14.05 18.3" fill="#c8c8c8" fill-rule="evenodd" stroke="none"/>
    <path d="M14.5 20.8 L14.6 20.8 15.05 20.1 15.3 20.1 15.9 19.55 16.15 20.75 15.45 21.2 15.6 21.5 14.2 21.2 14.5 20.8 M13.75 23.0 L13.65 23.15 13.65 23.25 13.5 23.25 13.35 23.15 13.25 23.15 13.35 22.9 13.75 23.0" fill="#999999" fill-rule="evenodd" stroke="none"/>
    <path d="M14.45 27.65 L14.7 26.75 15.0 28.15 15.0 28.3 14.9 28.3 14.85 28.35 14.35 28.45 14.2 28.55 Q14.2 28.35 14.3 28.3 L14.45 27.65 M8.45 26.35 L8.2 27.75 8.15 28.45 8.3 28.7 8.2 28.7 8.0 28.55 7.45 28.35 7.3 28.35 Q7.45 27.75 7.75 27.05 L8.7 24.95 Q8.5 25.5 8.45 26.35" fill="#2b2b2b" fill-rule="evenodd" stroke="none"/>
    <path d="M21.05 23.0 L21.7 23.15 22.85 23.55 27.2 24.5 27.45 24.7 27.4 25.4 25.05 24.95 24.95 24.95 24.35 24.85 23.85 24.85 23.55 24.8 22.85 24.7 22.8 24.7 22.55 24.7 22.15 24.85 21.9 24.8 21.85 24.8 21.0 24.85 20.15 24.8 20.15 24.7 19.95 24.55 19.6 24.0 19.45 23.8 13.8 22.7 13.8 22.6 13.1 22.45 12.95 22.4 12.8 22.4 12.65 22.45 12.5 22.45 12.4 22.45 11.95 22.55 11.4 22.55 10.95 22.55 10.8 22.55 10.3 22.6 9.6 22.7 9.2 22.75 7.45 23.3 7.1 23.55 6.95 23.4 7.1 22.4 7.2 21.5 7.2 20.65 7.1 20.1 10.95 20.9 11.25 20.9 11.35 20.95 11.5 21.15 11.55 21.15 16.1 22.05 16.55 22.45 16.8 22.55 16.95 22.2 17.55 22.4 17.85 22.4 21.05 23.0 M21.3 23.45 L20.85 23.45 Q20.6 23.55 20.6 23.8 20.5 24.25 20.85 24.25 21.05 23.8 21.3 23.8 L21.4 23.8 22.1 24.1 23.85 24.3 24.05 24.3 24.1 24.1 24.1 24.0 22.7 23.7 22.6 23.7 22.0 23.55 21.9 23.45 21.85 23.45 21.6 23.4 21.6 23.45 21.45 23.45 21.3 23.45 M14.05 24.15 L14.05 23.8 14.15 23.55 14.15 23.45 14.15 23.25 14.05 23.1 15.7 23.45 Q15.3 23.6 15.15 24.15 L15.2 24.5 15.3 24.7 14.5 25.55 13.9 26.2 13.75 26.5 13.75 26.8 13.5 26.8 12.75 26.5 12.9 26.35 13.1 25.95 13.2 25.9 13.45 25.25 14.0 24.25 14.05 24.15" fill="#803c21" fill-rule="evenodd" stroke="none"/>
    <path d="M27.45 24.15 L27.75 22.45 27.85 22.45 27.9 22.55 27.55 24.15 27.45 24.15 M18.05 21.45 L18.35 21.45 18.2 22.0 17.8 21.9 18.05 21.45" fill="#e8d006" fill-rule="evenodd" stroke="none"/>
    <path d="M22.45 23.0 L22.1 22.75 20.6 22.3 20.45 22.3 20.05 22.2 18.5 22.05 18.65 21.6 18.65 21.45 19.6 21.6 20.05 21.65 24.65 21.85 27.6 22.45 27.3 23.25 27.2 24.1 22.85 23.25 22.45 23.0 M16.25 21.6 L16.1 21.35 16.0 21.3 16.1 21.3 16.85 20.75 16.95 20.8 17.35 21.2 17.7 21.35 17.5 21.5 17.4 21.85 17.35 21.85 16.55 22.0 16.3 21.65 16.25 21.6" fill="#59616a" fill-rule="evenodd" stroke="none"/>
  </g>
</svg>
