<?xml version="1.0" encoding="UTF-8" standalone="no"?>
<svg xmlns:xlink="http://www.w3.org/1999/xlink" height="32.3px" width="32.1px" xmlns="http://www.w3.org/2000/svg">
  <g transform="matrix(1.0, 0.0, 0.0, 1.0, -0.6, -0.3)">
    <path d="M29.4 0.4 Q29.85 0.1 29.85 0.7 L29.7 1.1 29.6 1.25 29.05 2.1 28.6 1.8 28.6 1.45 28.85 0.8 Q28.9 0.35 29.3 0.35 L29.4 0.4 M1.25 2.6 Q0.8 2.6 0.7 2.2 L0.7 1.7 Q0.7 1.15 1.45 0.65 2.2 0.2 2.2 0.95 L1.25 2.6 M1.85 29.35 L1.55 29.85 1.0 30.25 Q0.6 30.25 0.6 29.8 0.6 29.5 0.9 29.25 1.3 28.9 1.8 29.1 L1.85 29.35 M29.95 29.35 L29.8 29.95 29.4 30.25 Q28.95 30.25 28.95 29.8 28.95 29.4 29.45 29.0 29.95 28.55 29.95 29.35" fill="#ff6666" fill-rule="evenodd" stroke="none"/>
    <path d="M32.7 3.95 L32.7 4.35 31.45 4.6 Q30.2 4.6 30.2 4.2 30.2 3.9 30.7 3.65 L31.35 2.95 Q31.15 2.6 31.45 2.15 31.8 1.75 32.3 1.95 L32.7 3.95 M3.9 2.1 Q4.2 1.65 4.2 2.5 4.2 4.6 2.45 4.6 L2.05 4.55 Q1.95 4.05 2.1 3.9 L1.7 3.5 Q1.7 3.05 3.35 3.05 L3.9 2.1 M3.6 30.35 Q3.7 30.0 4.3 30.1 L4.35 32.05 Q4.25 32.6 3.75 32.6 L1.6 32.45 Q1.45 32.4 1.45 32.15 2.65 30.7 3.6 30.85 L3.6 30.35 M32.25 32.5 L31.25 32.5 30.25 32.5 29.85 32.05 30.05 31.8 31.3 31.25 31.2 30.65 Q31.2 30.25 31.55 29.8 31.95 29.25 32.25 29.95 L32.45 31.75 32.25 32.5" fill="#660000" fill-rule="evenodd" stroke="none"/>
    <path d="M20.3 5.65 L20.35 6.0 Q19.8 6.4 19.15 7.4 18.65 8.2 18.5 8.95 L18.35 9.75 18.4 9.95 18.5 10.55 18.55 10.75 18.65 10.95 Q18.85 11.5 19.2 11.65 L18.95 11.95 18.85 11.8 18.3 12.0 18.2 12.0 18.0 12.0 17.8 11.95 17.5 11.75 17.25 11.45 17.4 11.45 17.45 11.3 17.35 11.1 17.25 10.9 17.3 10.85 17.5 10.2 17.7 9.4 17.9 8.8 18.05 8.4 18.15 8.15 Q18.85 6.7 20.3 5.65 M7.0 29.7 L5.45 29.7 5.0 28.9 5.0 27.85 4.3 27.85 3.35 26.85 3.35 26.2 6.6 26.35 6.15 28.05 6.2 28.25 6.0 28.1 7.0 29.7 M20.2 7.7 L20.25 7.7 21.15 7.15 21.7 6.9 21.15 7.25 Q20.3 7.85 20.15 8.15 L20.2 7.7 M20.95 8.9 L21.0 9.0 20.9 8.95 20.3 8.35 22.35 6.8 21.5 7.85 Q20.95 8.5 20.95 8.9 M20.8 15.35 Q20.8 16.2 21.65 16.2 22.05 16.2 22.05 15.55 21.9 14.9 21.2 14.9 L20.85 14.9 20.8 15.35 M20.3 14.7 Q20.3 13.3 21.4 13.95 22.45 14.65 22.45 16.2 L22.45 16.65 Q22.35 17.0 21.7 17.0 21.1 17.0 20.65 15.95 20.3 15.15 20.3 14.7 M22.3 24.7 L22.55 24.7 22.55 24.75 21.4 24.65 21.65 24.5 22.3 24.7 M21.4 22.95 L21.45 23.0 21.5 22.95 21.7 22.95 25.15 22.45 25.65 23.1 26.05 23.55 25.6 24.45 25.2 25.05 23.75 24.9 23.75 24.85 23.35 24.85 23.2 24.8 23.05 24.8 23.05 24.75 22.95 24.75 22.9 24.6 23.1 24.1 22.9 23.5 Q22.6 23.15 22.15 23.15 21.45 23.15 21.45 23.95 L21.35 23.95 20.65 24.25 20.6 24.1 20.2 22.95 19.45 22.2 20.0 21.6 21.2 22.8 21.2 22.9 21.25 22.95 21.4 22.95 M24.6 24.05 L24.6 24.5 24.85 24.5 25.15 24.05 25.35 23.55 Q25.35 23.0 24.85 23.0 24.55 23.0 24.55 23.45 L24.7 23.85 24.6 24.05 M20.1 7.0 L19.8 8.4 19.95 9.9 19.7 10.55 19.65 10.6 19.45 10.65 19.35 11.2 19.3 11.2 18.85 10.3 18.65 9.75 18.7 9.3 Q18.95 8.15 20.25 6.5 L20.1 7.0 M10.1 19.4 Q9.7 19.4 8.7 21.2 L7.55 23.5 7.3 23.2 8.1 22.0 9.05 19.4 9.85 17.95 11.0 19.3 10.75 19.65 10.6 19.55 10.1 19.4 M11.8 14.8 L12.15 15.25 12.8 15.2 13.0 15.5 12.8 15.7 Q12.1 16.6 12.1 17.65 L12.15 18.0 12.0 18.15 10.65 16.65 11.8 14.8 M18.85 21.65 L18.85 21.55 17.25 20.55 17.5 20.45 18.45 20.0 19.55 21.1 19.0 21.5 18.85 21.65" fill="#39342d" fill-rule="evenodd" stroke="none"/>
    <path d="M20.3 5.65 Q18.85 6.7 18.15 8.15 L18.05 8.4 17.9 8.8 17.7 9.4 17.5 10.2 17.3 10.85 17.25 10.9 17.35 11.1 17.45 11.3 17.4 11.45 17.25 11.45 17.5 11.75 17.8 11.95 18.0 12.0 18.2 12.0 18.3 12.0 18.85 11.8 18.95 11.95 19.2 11.65 Q18.85 11.5 18.65 10.95 L18.55 10.75 18.5 10.55 18.4 9.95 18.35 9.75 18.5 8.95 Q18.65 8.2 19.15 7.4 19.8 6.4 20.35 6.0 L20.3 5.65 M3.35 12.7 L3.35 12.3 5.55 10.6 Q5.9 10.4 6.95 9.95 L6.05 8.7 6.05 8.45 7.45 8.5 Q7.5 8.15 7.8 8.3 L7.8 8.4 9.05 8.0 Q8.45 7.25 8.45 6.75 L8.45 6.7 8.45 6.6 8.5 6.6 Q8.55 6.45 8.8 6.5 L8.85 6.7 10.6 7.0 10.8 7.0 10.95 7.0 12.5 6.9 14.2 6.8 15.8 7.0 15.8 6.9 Q15.8 6.35 15.95 6.05 L15.95 5.75 Q16.35 5.7 17.0 6.5 L17.15 6.5 17.2 6.65 17.2 6.8 17.2 6.85 17.25 6.85 Q17.65 6.85 18.0 7.5 19.1 5.3 20.35 5.3 20.8 5.3 20.7 5.9 L20.4 7.15 20.35 7.35 Q20.7 7.0 22.3 6.4 L22.75 6.4 22.8 6.55 Q22.8 7.5 21.1 9.1 L21.4 9.25 21.4 9.3 21.95 9.3 22.0 9.65 22.0 9.75 25.8 10.1 25.85 10.25 24.85 11.0 Q23.75 11.8 23.25 12.3 L23.45 12.6 23.45 12.65 23.5 13.0 23.35 13.45 23.5 14.1 Q23.5 14.35 23.85 14.85 L24.15 15.4 24.15 15.65 24.4 15.65 26.1 15.85 26.15 16.0 25.5 16.6 24.7 17.25 24.8 17.3 24.8 17.35 24.85 17.35 24.85 17.45 24.8 17.65 26.2 17.45 26.25 17.6 25.25 18.55 Q25.6 18.6 25.65 19.0 L25.7 19.2 25.5 20.05 26.0 21.75 27.25 22.9 26.55 23.5 26.4 23.5 26.4 23.6 26.05 24.5 25.65 25.05 30.1 25.4 30.1 25.8 29.75 25.75 Q29.75 25.45 29.35 25.55 L28.95 25.7 25.05 25.35 24.95 25.2 24.8 25.2 24.6 25.3 23.45 25.2 23.2 25.1 23.1 25.15 23.05 25.1 22.25 25.05 21.75 24.7 Q21.0 24.65 20.6 24.95 L15.2 24.65 15.15 24.55 14.95 24.4 12.95 24.15 19.85 24.55 20.3 24.4 19.95 23.1 19.45 22.6 19.25 22.4 19.0 22.65 18.85 22.6 18.75 22.2 18.6 21.9 18.65 21.85 18.3 21.55 17.85 21.2 Q16.95 21.0 16.95 20.7 L17.0 20.65 15.35 20.9 14.8 20.85 13.35 22.15 Q12.4 22.95 11.95 24.1 L12.65 24.1 11.6 24.4 4.2 24.0 4.05 23.7 3.8 23.65 3.35 23.85 3.35 23.6 4.45 23.65 5.55 23.05 5.75 22.95 6.0 22.8 6.2 22.7 6.55 22.35 6.8 21.9 7.15 20.65 Q7.75 18.9 8.1 18.3 L8.9 16.8 9.15 16.45 9.3 16.15 9.5 15.85 9.7 15.55 10.8 14.25 10.65 13.0 10.45 12.45 Q9.15 12.5 7.9 11.1 L7.3 12.15 7.15 12.4 7.0 12.65 6.6 13.35 6.35 13.8 6.25 13.95 5.0 16.95 3.9 20.2 3.8 20.7 3.7 21.05 3.35 22.0 3.35 20.65 3.45 20.35 3.65 19.7 3.85 19.25 4.85 16.5 6.1 13.55 6.15 13.45 6.35 13.1 6.7 12.25 6.8 11.95 6.85 11.95 Q7.15 11.3 7.7 10.9 L7.1 10.2 5.85 10.85 3.65 12.45 3.35 12.7 M30.1 27.15 L30.1 27.5 22.5 27.2 22.5 27.25 22.05 27.25 21.95 27.3 21.85 27.2 21.85 27.25 19.5 27.15 20.6 26.9 21.4 26.95 21.55 27.1 21.95 26.9 30.1 27.15 M19.2 27.1 L12.05 26.7 11.45 26.7 10.4 26.7 10.2 27.4 Q9.9 28.9 9.9 29.7 L9.6 29.7 9.65 29.4 9.95 26.8 10.0 26.65 9.9 26.65 9.0 26.6 7.75 26.45 7.55 26.45 Q7.2 27.45 7.2 28.2 L8.25 29.7 7.8 29.7 7.55 29.4 Q6.9 28.6 6.9 28.2 L7.15 26.4 6.85 26.4 6.45 28.3 6.3 28.35 7.5 29.7 7.0 29.7 6.0 28.1 6.2 28.25 6.15 28.05 6.6 26.35 3.35 26.2 3.35 25.9 7.75 26.15 7.85 26.25 8.0 26.25 8.1 26.2 8.75 26.2 8.9 26.3 9.1 26.25 9.4 26.25 9.55 26.3 9.85 26.3 10.2 26.3 10.3 26.5 10.65 26.35 10.85 26.35 11.0 26.45 11.3 26.35 12.35 26.45 12.5 26.5 12.85 26.45 18.2 26.75 18.45 26.9 18.65 26.8 19.2 26.8 19.2 27.1 M5.45 29.7 L5.05 29.7 5.0 29.65 5.0 28.9 5.45 29.7 M4.3 27.85 L3.85 27.85 3.35 27.4 3.35 26.85 4.3 27.85 M3.35 17.65 L3.35 16.15 3.85 15.3 3.9 15.55 3.35 17.65 M20.25 7.7 L20.25 7.65 20.2 7.7 20.15 8.15 Q20.3 7.85 21.15 7.25 L21.7 6.9 21.15 7.15 20.25 7.7 M20.7 9.25 L20.35 8.95 20.15 8.75 20.25 9.45 20.2 9.65 20.25 9.95 20.1 10.45 20.1 10.5 19.9 10.9 19.75 11.15 19.7 11.25 19.6 11.5 19.6 11.6 19.45 12.05 Q19.25 12.35 18.95 12.35 L18.65 12.35 18.3 12.35 18.2 12.35 17.85 12.3 17.7 12.3 17.35 12.15 16.85 11.55 16.6 10.6 Q16.6 10.15 17.0 9.8 L17.05 9.8 17.15 9.7 17.55 8.55 17.6 8.4 17.75 8.1 17.8 7.9 17.9 7.7 17.85 7.65 17.85 7.6 Q17.85 7.2 17.3 7.1 16.7 7.0 16.7 7.45 L16.95 7.85 16.95 7.95 16.65 8.85 16.5 9.35 16.25 10.15 16.25 10.25 16.15 10.5 16.45 13.15 16.45 13.55 16.9 13.75 17.25 13.95 17.55 14.1 Q18.7 14.8 19.2 15.7 19.75 16.7 19.75 18.4 L19.75 18.45 19.8 18.45 19.8 19.1 19.65 19.35 20.8 20.6 21.7 21.7 23.1 21.4 24.35 20.95 24.7 20.95 25.4 21.25 25.35 21.15 25.2 20.0 25.2 19.4 25.3 19.15 25.2 18.9 Q24.55 18.85 24.4 18.45 L24.35 17.95 Q24.35 17.65 24.5 17.5 L24.4 17.45 24.15 17.45 24.1 17.3 24.15 17.3 Q23.6 16.9 23.6 16.05 23.6 15.65 23.75 15.5 L23.4 14.7 23.1 13.5 Q21.95 13.3 21.35 12.3 20.85 11.5 20.85 10.5 L20.9 10.2 21.05 10.15 21.1 9.75 21.1 9.55 21.2 9.4 21.0 9.4 20.7 9.25 M20.95 8.9 Q20.95 8.5 21.5 7.85 L22.35 6.8 20.3 8.35 20.9 8.95 21.0 9.0 20.95 8.9 M21.7 9.65 L21.35 9.65 21.15 10.4 Q21.15 11.95 22.25 12.7 L23.1 13.15 23.15 13.15 23.2 13.05 23.1 12.65 22.75 12.4 22.05 11.7 21.65 11.0 21.6 10.45 21.7 9.75 21.7 9.65 M21.95 10.3 L21.85 10.5 21.9 10.65 Q21.95 11.25 22.7 11.8 L22.95 12.05 23.75 11.35 24.95 10.5 25.05 10.45 24.45 10.45 24.45 10.4 Q24.45 10.0 23.15 10.0 L22.15 10.15 21.95 10.1 21.95 10.3 M25.35 17.95 L25.4 17.9 25.35 17.9 24.65 17.95 24.85 18.5 25.35 17.95 M20.8 15.35 L20.85 15.65 21.1 15.6 21.1 15.5 20.9 15.35 20.8 15.35 20.85 14.9 21.2 14.9 Q21.9 14.9 22.05 15.55 22.05 16.2 21.65 16.2 20.8 16.2 20.8 15.35 M21.25 15.0 L21.25 15.35 21.35 15.45 21.65 15.45 21.65 15.15 21.25 15.0 M20.3 14.7 Q20.3 15.15 20.65 15.95 21.1 17.0 21.7 17.0 22.35 17.0 22.45 16.65 L22.45 16.2 Q22.45 14.65 21.4 13.95 20.3 13.3 20.3 14.7 M22.35 17.25 L21.65 17.35 Q20.85 17.35 20.35 16.15 L19.95 14.65 Q19.95 13.4 21.1 13.4 21.85 13.4 22.4 14.75 L22.8 16.35 22.75 16.85 Q22.4 16.55 22.35 17.25 M25.2 16.1 Q25.15 15.75 24.65 15.8 24.35 15.85 24.2 16.0 L23.9 15.95 23.9 16.0 Q23.9 16.55 24.4 17.0 L24.45 17.05 25.45 16.15 25.2 16.1 M23.05 21.55 L22.05 22.0 21.8 22.0 21.8 22.05 21.75 22.2 20.4 20.75 19.35 19.4 19.35 19.2 19.35 18.55 19.45 18.4 Q19.45 15.85 17.45 14.4 L17.15 14.2 16.7 13.95 16.45 13.8 16.3 13.85 16.25 13.8 Q16.05 13.55 16.05 12.2 L15.9 10.7 15.65 10.7 15.6 10.55 16.15 9.15 16.2 8.95 16.6 7.8 16.65 7.6 16.7 7.35 16.8 6.9 16.35 6.55 16.15 6.35 16.2 7.1 16.2 7.15 16.2 7.45 16.15 7.6 15.75 8.9 15.75 8.95 14.9 10.1 Q15.4 10.5 15.7 12.7 L15.55 13.8 15.5 14.1 15.55 14.1 15.9 14.15 16.35 14.35 16.9 14.65 17.2 14.85 17.3 14.95 18.5 15.9 Q19.15 17.0 19.15 18.1 19.15 18.95 18.65 19.55 L18.65 19.65 Q18.95 19.65 21.35 22.65 L25.45 22.05 25.5 22.25 25.5 22.3 26.3 23.2 26.9 22.95 26.0 22.2 25.95 22.2 Q25.7 22.2 25.55 21.8 24.85 21.3 24.65 21.3 L23.05 21.55 M21.4 22.95 L21.25 22.95 21.2 22.9 21.2 22.8 20.0 21.6 19.45 22.2 20.2 22.95 20.6 24.1 20.65 24.25 21.35 23.95 21.45 23.95 Q21.45 23.15 22.15 23.15 22.6 23.15 22.9 23.5 L23.1 24.1 22.9 24.6 22.95 24.75 23.05 24.75 23.05 24.8 23.2 24.8 23.35 24.85 23.75 24.85 23.75 24.9 25.2 25.05 25.6 24.45 26.05 23.55 25.65 23.1 25.15 22.45 21.7 22.95 21.5 22.95 21.45 23.0 21.4 22.95 M22.3 24.7 L21.65 24.5 21.4 24.65 22.55 24.75 22.55 24.7 22.3 24.7 M21.9 24.25 L22.3 24.35 22.8 24.1 Q22.8 23.7 22.3 23.55 21.8 23.35 21.8 23.95 L21.85 23.95 21.9 24.2 21.9 24.25 M24.6 24.05 L24.7 23.85 24.55 23.45 Q24.55 23.0 24.85 23.0 25.35 23.0 25.35 23.55 L25.15 24.05 24.85 24.5 24.6 24.5 24.6 24.05 M15.8 7.5 L15.8 7.35 15.1 7.2 15.1 7.1 12.7 7.25 11.55 7.35 11.45 7.3 11.4 7.3 11.2 7.35 10.9 7.35 10.7 7.35 10.6 7.6 11.05 8.5 11.45 9.2 12.15 10.35 12.65 11.25 13.25 13.15 Q13.3 13.6 13.95 14.15 L14.5 14.55 15.1 14.4 15.05 14.3 15.2 13.55 15.35 12.65 15.2 11.5 14.35 10.2 Q14.45 10.0 14.6 10.0 L15.4 8.65 15.7 8.05 15.8 7.5 M10.3 7.35 L9.0 7.15 9.45 7.9 9.6 7.9 9.65 8.05 9.65 8.15 9.85 8.4 10.15 8.65 10.8 9.35 11.2 9.85 11.75 10.9 12.0 11.45 Q12.55 12.75 12.55 13.45 L12.45 14.0 13.15 14.7 13.15 14.75 13.5 15.1 Q13.75 14.85 14.1 14.7 L13.7 14.4 Q13.05 13.8 12.95 13.3 L12.35 11.45 12.05 10.8 11.65 10.1 11.1 9.05 10.75 8.5 10.2 7.65 10.3 7.35 M10.5 9.45 L10.05 9.0 9.85 8.8 9.45 8.4 9.35 8.3 8.35 8.55 7.9 8.65 8.3 9.4 8.45 9.6 8.75 9.95 9.25 10.9 Q9.6 11.4 10.45 11.4 L10.75 11.45 11.05 11.5 11.4 11.85 11.6 12.45 11.9 12.9 12.1 13.15 12.2 13.25 11.95 12.25 11.65 11.55 11.05 10.25 10.9 10.0 10.5 9.45 M10.7 12.25 L10.85 12.55 11.0 12.95 11.35 13.35 11.55 13.7 12.0 14.4 12.45 14.85 12.75 14.85 12.1 14.1 12.15 13.7 12.1 13.7 11.85 13.6 11.55 13.15 11.35 12.75 11.0 12.15 10.7 11.85 10.45 11.75 9.8 11.85 8.5 10.25 8.15 9.7 8.0 9.5 7.55 8.75 6.6 8.8 7.3 9.8 7.45 10.0 7.8 10.4 9.3 11.95 Q9.65 12.35 10.25 12.15 L10.7 12.25 M20.1 7.0 L20.25 6.5 Q18.95 8.15 18.7 9.3 L18.65 9.75 18.85 10.3 19.3 11.2 19.35 11.2 19.45 10.65 19.65 10.6 19.7 10.55 19.95 9.9 19.8 8.4 20.1 7.0 M17.05 10.7 L17.0 10.5 16.95 10.6 16.95 10.7 17.05 10.7 M9.95 16.0 L9.8 16.2 9.45 16.75 9.2 17.15 8.35 18.55 7.45 21.1 6.7 22.5 6.4 22.85 6.2 23.0 6.0 23.15 5.75 23.3 5.2 23.7 6.05 23.75 6.1 23.7 6.6 23.4 6.8 23.25 7.1 22.95 7.9 21.75 8.9 19.0 9.6 17.65 9.75 17.35 10.05 16.7 10.1 16.6 10.2 16.4 10.3 16.25 11.0 15.15 11.55 14.45 11.35 14.15 11.1 13.75 11.1 14.2 10.05 15.9 9.95 16.0 M10.1 19.4 L10.6 19.55 10.75 19.65 11.0 19.3 9.85 17.95 9.05 19.4 8.1 22.0 7.3 23.2 7.55 23.5 8.7 21.2 Q9.7 19.4 10.1 19.4 M10.15 22.8 Q10.0 22.2 10.0 21.4 L10.0 21.3 8.8 23.4 8.6 23.9 9.2 23.9 10.25 24.0 10.45 24.0 10.25 23.35 10.15 22.8 M6.9 23.8 L7.4 23.8 7.05 23.5 Q6.9 23.55 6.8 23.7 L6.9 23.8 M8.95 22.05 Q9.5 21.05 10.0 20.65 L10.55 19.9 Q10.3 19.75 10.15 19.75 9.95 19.75 9.05 21.45 L7.8 23.8 7.8 23.85 8.1 23.85 8.95 22.05 M15.6 14.95 L15.95 15.05 16.05 15.25 15.9 15.45 15.65 15.45 15.6 15.4 15.6 14.95 M15.5 14.5 L15.0 14.7 14.55 14.95 14.0 15.25 13.9 15.35 13.45 15.7 Q12.45 16.6 12.45 17.65 L12.5 18.1 12.55 18.35 12.75 18.8 13.0 19.25 13.1 19.4 Q13.65 20.25 14.6 20.5 L15.1 20.55 15.35 20.55 Q17.2 20.55 18.35 19.75 L18.3 19.65 18.6 19.0 18.85 18.1 Q18.85 17.0 18.05 15.95 17.7 15.5 17.25 15.2 L16.8 14.9 16.05 14.6 15.5 14.5 M17.3 15.7 Q17.6 15.7 17.6 16.05 L17.55 16.2 17.1 16.2 17.1 15.7 17.3 15.7 M16.75 15.9 L16.75 16.05 16.95 16.35 18.05 16.5 18.1 16.65 Q17.4 17.5 17.4 17.7 L17.85 18.1 18.25 18.5 17.65 18.6 Q17.35 18.65 17.15 18.85 16.95 19.0 16.9 19.25 L16.6 20.15 16.1 19.8 15.75 19.45 15.6 19.4 Q15.45 19.4 15.0 19.85 L14.55 19.85 Q14.55 18.9 13.95 18.7 L13.6 18.6 13.35 18.55 13.6 17.75 13.55 17.4 13.45 17.3 13.35 17.2 13.3 17.0 13.55 16.55 13.55 16.5 13.85 16.2 14.15 16.4 14.45 16.4 14.45 16.3 14.55 15.9 14.8 15.5 15.25 15.55 15.65 16.0 16.15 15.75 16.4 15.55 16.6 15.45 16.75 15.85 16.75 15.9 M16.5 16.55 L16.45 16.45 16.45 16.3 16.45 15.9 Q16.1 16.3 15.7 16.35 L15.6 16.35 Q15.3 16.35 15.2 16.15 L15.1 15.85 15.0 15.85 15.0 16.1 14.8 16.5 14.45 16.65 14.35 16.7 14.3 16.7 13.7 16.95 13.65 16.95 13.8 17.2 13.95 17.55 13.95 17.8 Q13.8 18.0 13.8 18.4 L14.0 18.45 Q14.55 18.5 14.7 18.8 L14.85 19.4 14.85 19.45 14.9 19.45 15.25 19.2 15.3 19.2 Q15.4 19.05 15.6 19.05 L15.7 19.05 Q16.05 19.1 16.45 19.6 L16.65 18.9 Q16.8 18.45 17.65 18.35 L17.05 17.8 17.15 17.3 17.55 16.75 16.8 16.65 16.5 16.55 M16.35 17.7 L16.35 17.75 16.0 18.35 15.5 18.4 15.1 18.35 14.8 18.05 14.6 17.65 14.6 17.6 Q14.65 16.9 15.5 16.85 L15.85 16.9 15.85 16.95 Q15.8 17.2 15.9 17.35 L15.5 17.25 Q14.95 17.3 14.95 17.65 L15.1 17.85 15.45 18.05 15.75 18.05 16.05 17.75 16.05 17.6 16.35 17.7 M18.45 17.6 L18.25 17.8 18.0 17.8 17.95 17.6 Q17.95 17.35 18.2 17.35 L18.45 17.6 M11.8 14.8 L10.65 16.65 12.0 18.15 12.15 18.0 12.1 17.65 Q12.1 16.6 12.8 15.7 L13.0 15.5 12.8 15.2 12.15 15.25 11.8 14.8 M10.65 17.2 L10.65 17.15 10.5 16.85 10.1 17.5 11.3 19.0 11.75 18.45 10.65 17.2 M14.3 15.8 L14.0 15.8 13.95 15.65 13.95 15.55 Q14.0 15.35 14.4 15.4 L14.45 15.55 14.3 15.8 M13.0 17.45 L13.25 17.45 13.3 17.65 13.1 17.8 13.05 17.8 12.9 17.7 12.85 17.5 13.0 17.45 M13.0 19.8 L12.75 19.45 12.5 19.05 Q10.9 20.8 10.9 21.3 L11.25 23.25 11.45 24.05 11.55 24.05 Q11.9 22.9 12.85 22.1 L13.05 22.1 Q13.35 22.1 13.45 21.6 L13.95 21.15 14.1 21.25 14.5 20.8 Q13.6 20.55 13.0 19.8 M13.65 19.45 L13.45 19.35 13.45 19.0 13.85 19.0 13.9 19.2 13.65 19.45 M10.3 21.5 Q10.3 22.25 10.6 23.3 L10.85 24.0 11.05 24.05 10.9 23.3 10.6 21.3 Q10.6 20.45 12.3 18.6 L12.25 18.45 10.4 20.8 10.3 21.5 M18.85 21.65 L19.0 21.5 19.55 21.1 18.45 20.0 17.5 20.45 17.25 20.55 18.85 21.55 18.85 21.65 M19.4 21.65 L19.0 21.95 19.1 22.0 19.85 21.4 19.75 21.35 19.4 21.65 M17.65 19.25 L17.35 19.5 17.3 19.45 17.3 19.0 17.55 19.05 17.65 19.25 M15.8 20.0 L15.5 20.1 15.5 20.0 15.45 19.95 15.65 19.75 15.8 19.75 15.8 20.0" fill="#000000" fill-rule="evenodd" stroke="none"/>
    <path d="M7.8 29.7 L7.5 29.7 6.3 28.35 6.45 28.3 6.85 26.4 7.15 26.4 6.9 28.2 Q6.9 28.6 7.55 29.4 L7.8 29.7 M21.7 9.65 L21.7 9.75 21.6 10.45 21.65 11.0 22.05 11.7 22.75 12.4 23.1 12.65 23.2 13.05 23.15 13.15 23.1 13.15 22.25 12.7 Q21.15 11.95 21.15 10.4 L21.35 9.65 21.7 9.65 M23.05 21.55 L24.65 21.3 Q24.85 21.3 25.55 21.8 25.7 22.2 25.95 22.2 L26.0 22.2 26.9 22.95 26.3 23.2 25.5 22.3 25.5 22.25 25.45 22.05 21.35 22.65 Q18.95 19.65 18.65 19.65 L18.65 19.55 Q19.15 18.95 19.15 18.1 19.15 17.0 18.5 15.9 L17.3 14.95 17.2 14.85 16.9 14.65 16.35 14.35 15.9 14.15 15.55 14.1 15.5 14.1 15.55 13.8 15.7 12.7 Q15.4 10.5 14.9 10.1 L15.75 8.95 15.75 8.9 16.15 7.6 16.2 7.45 16.2 7.15 16.2 7.1 16.15 6.35 16.35 6.55 16.8 6.9 16.7 7.35 16.65 7.6 16.6 7.8 16.2 8.95 16.15 9.15 15.6 10.55 15.65 10.7 15.9 10.7 16.05 12.2 Q16.05 13.55 16.25 13.8 L16.3 13.85 16.45 13.8 16.7 13.95 17.15 14.2 17.45 14.4 Q19.45 15.85 19.45 18.4 L19.35 18.55 19.35 19.2 19.35 19.4 20.4 20.75 21.75 22.2 21.8 22.05 21.8 22.0 22.05 22.0 23.05 21.55 M21.9 24.25 L21.9 24.2 21.85 23.95 21.8 23.95 Q21.8 23.35 22.3 23.55 22.8 23.7 22.8 24.1 L22.3 24.35 21.9 24.25 M10.3 7.35 L10.2 7.65 10.75 8.5 11.1 9.05 11.65 10.1 12.05 10.8 12.35 11.45 12.95 13.3 Q13.05 13.8 13.7 14.4 L14.1 14.7 Q13.75 14.85 13.5 15.1 L13.15 14.75 13.15 14.7 12.45 14.0 12.55 13.45 Q12.55 12.75 12.0 11.45 L11.75 10.9 11.2 9.85 10.8 9.35 10.15 8.65 9.85 8.4 9.65 8.15 9.65 8.05 9.6 7.9 9.45 7.9 9.0 7.15 10.3 7.35 M10.7 12.25 L10.25 12.15 Q9.65 12.35 9.3 11.95 L7.8 10.4 7.45 10.0 7.3 9.8 6.6 8.8 7.55 8.75 8.0 9.5 8.15 9.7 8.5 10.25 9.8 11.85 10.45 11.75 10.7 11.85 11.0 12.15 11.35 12.75 11.55 13.15 11.85 13.6 12.1 13.7 12.15 13.7 12.1 14.1 12.75 14.85 12.45 14.85 12.0 14.4 11.55 13.7 11.35 13.35 11.0 12.95 10.85 12.55 10.7 12.25 M9.95 16.0 L10.05 15.9 11.1 14.2 11.1 13.75 11.35 14.15 11.55 14.45 11.0 15.15 10.3 16.25 10.2 16.4 10.1 16.6 10.05 16.7 9.75 17.35 9.6 17.65 8.9 19.0 7.9 21.75 7.1 22.95 6.8 23.25 6.6 23.4 6.1 23.7 6.05 23.75 5.2 23.7 5.75 23.3 6.0 23.15 6.2 23.0 6.4 22.85 6.7 22.5 7.45 21.1 8.35 18.55 9.2 17.15 9.45 16.75 9.8 16.2 9.95 16.0 M16.75 15.9 L16.75 15.85 16.6 15.45 16.4 15.55 16.15 15.75 15.65 16.0 15.25 15.55 14.8 15.5 14.55 15.9 14.45 16.3 14.45 16.4 14.15 16.4 13.85 16.2 13.55 16.5 13.55 16.55 13.3 17.0 13.35 17.2 13.45 17.3 13.55 17.4 13.6 17.75 13.35 18.55 13.6 18.6 13.95 18.7 Q14.55 18.9 14.55 19.85 L15.0 19.85 Q15.45 19.4 15.6 19.4 L15.75 19.45 16.1 19.8 16.6 20.15 16.9 19.25 Q16.95 19.0 17.15 18.85 17.35 18.65 17.65 18.6 L18.25 18.5 17.85 18.1 17.4 17.7 Q17.4 17.5 18.1 16.65 L18.05 16.5 16.95 16.35 16.75 16.05 16.75 15.9 M17.3 15.7 L17.1 15.7 17.1 16.2 17.55 16.2 17.6 16.05 Q17.6 15.7 17.3 15.7 M15.5 14.5 L16.05 14.6 16.8 14.9 17.25 15.2 Q17.7 15.5 18.05 15.95 18.85 17.0 18.85 18.1 L18.6 19.0 18.3 19.65 18.35 19.75 Q17.2 20.55 15.35 20.55 L15.1 20.55 14.6 20.5 Q13.65 20.25 13.1 19.4 L13.0 19.25 12.75 18.8 12.55 18.35 12.5 18.1 12.45 17.65 Q12.45 16.6 13.45 15.7 L13.9 15.35 14.0 15.25 14.55 14.95 15.0 14.7 15.5 14.5 M15.6 14.95 L15.6 15.4 15.65 15.45 15.9 15.45 16.05 15.25 15.95 15.05 15.6 14.95 M8.95 22.05 L8.1 23.85 7.8 23.85 7.8 23.8 9.05 21.45 Q9.95 19.75 10.15 19.75 10.3 19.75 10.55 19.9 L10.0 20.65 Q9.5 21.05 8.95 22.05 M15.9 17.35 L16.05 17.6 16.05 17.75 15.75 18.05 15.45 18.05 15.1 17.85 14.95 17.65 Q14.95 17.3 15.5 17.25 L15.9 17.35 M18.45 17.6 L18.2 17.35 Q17.95 17.35 17.95 17.6 L18.0 17.8 18.25 17.8 18.45 17.6 M13.0 17.45 L12.85 17.5 12.9 17.7 13.05 17.8 13.1 17.8 13.3 17.65 13.25 17.45 13.0 17.45 M14.3 15.8 L14.45 15.55 14.4 15.4 Q14.0 15.35 13.95 15.55 L13.95 15.65 14.0 15.8 14.3 15.8 M13.65 19.45 L13.9 19.2 13.85 19.0 13.45 19.0 13.45 19.35 13.65 19.45 M10.3 21.5 L10.4 20.8 12.25 18.45 12.3 18.6 Q10.6 20.45 10.6 21.3 L10.9 23.3 11.05 24.05 10.85 24.0 10.6 23.3 Q10.3 22.25 10.3 21.5 M15.8 20.0 L15.8 19.75 15.65 19.75 15.45 19.95 15.5 20.0 15.5 20.1 15.8 20.0 M17.65 19.25 L17.55 19.05 17.3 19.0 17.3 19.45 17.35 19.5 17.65 19.25" fill="#ffe711" fill-rule="evenodd" stroke="none"/>
    <path d="M9.6 29.7 L8.25 29.7 7.2 28.2 Q7.2 27.45 7.55 26.45 L7.75 26.45 9.0 26.6 Q9.1 27.5 9.6 27.5 L9.85 27.45 9.9 27.15 9.9 26.65 10.0 26.65 9.95 26.8 9.65 29.4 9.6 29.7 M3.85 27.85 L3.5 27.85 3.35 27.65 3.35 27.4 3.85 27.85 M20.25 9.45 L20.15 8.75 20.35 8.95 20.7 9.25 20.25 9.3 20.25 9.45 M21.0 9.4 L21.2 9.4 21.1 9.55 21.0 9.4 M20.9 10.2 L20.85 10.5 Q20.85 11.5 21.35 12.3 21.95 13.3 23.1 13.5 L23.4 14.7 23.75 15.5 Q23.6 15.65 23.6 16.05 23.6 16.9 24.15 17.3 L24.1 17.3 24.15 17.45 24.4 17.45 24.5 17.5 Q24.35 17.65 24.35 17.95 L24.4 18.45 Q24.55 18.85 25.2 18.9 L25.3 19.15 25.2 19.4 25.2 20.0 25.35 21.15 25.4 21.25 24.7 20.95 24.35 20.95 23.1 21.4 21.7 21.7 20.8 20.6 19.65 19.35 19.8 19.1 19.8 18.45 19.75 18.45 19.75 18.4 Q19.75 16.7 19.2 15.7 18.7 14.8 17.55 14.1 L17.25 13.95 16.9 13.75 16.45 13.55 16.45 13.15 16.15 10.5 16.25 10.25 16.25 10.15 16.5 9.35 16.65 8.85 16.95 7.95 16.95 7.85 17.45 7.95 17.8 7.9 17.85 7.65 17.9 7.7 17.8 7.9 17.75 8.1 17.6 8.4 17.55 8.55 17.15 9.7 17.05 9.8 17.0 9.8 Q16.6 10.15 16.6 10.6 L16.85 11.55 17.35 12.15 17.7 12.3 17.85 12.3 18.2 12.35 18.3 12.35 18.65 12.35 18.95 12.35 Q19.25 12.35 19.45 12.05 L19.6 11.6 19.6 11.5 19.7 11.25 19.75 11.15 19.9 10.9 19.85 11.35 19.6 12.25 19.35 13.1 19.35 13.4 19.8 13.7 20.1 13.35 Q20.25 13.0 20.35 13.0 L20.85 12.95 20.95 12.55 20.1 10.5 20.1 10.45 20.25 9.95 Q20.35 10.2 20.8 10.2 L20.9 10.2 M21.95 10.3 L21.95 10.1 22.15 10.15 21.95 10.3 M24.45 10.45 L25.05 10.45 24.95 10.5 23.75 11.35 22.95 12.05 22.7 11.8 Q21.95 11.25 21.9 10.65 L23.3 10.95 Q24.45 10.95 24.45 10.45 M25.35 17.9 L25.35 17.95 24.85 18.5 24.65 17.95 25.35 17.9 M22.75 16.85 L22.8 16.35 22.4 14.75 Q21.85 13.4 21.1 13.4 19.95 13.4 19.95 14.65 L20.35 16.15 Q20.85 17.35 21.65 17.35 L22.35 17.25 22.35 17.35 22.1 17.4 21.45 17.35 Q21.2 17.4 21.2 17.7 21.2 18.2 22.1 18.2 L22.6 18.15 22.8 18.65 Q23.3 19.8 23.6 19.8 L23.95 19.65 Q23.8 18.55 23.3 17.6 L23.35 17.35 23.3 17.05 22.95 17.05 22.75 16.85 M25.2 16.1 L25.45 16.15 24.45 17.05 24.4 17.0 Q23.9 16.55 23.9 16.0 L23.9 15.95 24.2 16.0 24.1 16.25 24.2 16.5 24.75 16.55 25.2 16.15 25.2 16.1 M11.55 7.35 L12.7 7.25 15.1 7.1 15.1 7.2 15.8 7.35 15.8 7.5 14.0 7.55 12.25 7.55 11.55 7.35 M15.4 8.65 L14.6 10.0 Q14.45 10.0 14.35 10.2 L15.2 11.5 15.35 12.65 15.2 13.55 15.05 14.3 15.1 14.4 14.5 14.55 13.95 14.15 Q13.3 13.6 13.25 13.15 L12.65 11.25 12.15 10.35 11.45 9.2 11.05 8.5 10.6 7.6 10.7 7.35 10.9 7.35 11.2 7.35 Q10.95 7.5 10.95 7.85 L11.2 8.45 11.35 8.6 11.8 9.35 11.85 9.45 12.0 9.75 Q12.75 11.3 12.95 11.3 L13.3 11.2 13.35 10.8 12.85 9.7 14.35 8.55 14.75 8.45 14.85 8.45 15.4 8.65 M10.5 9.45 L10.9 10.0 11.05 10.25 11.65 11.55 11.95 12.25 12.2 13.25 12.1 13.15 11.9 12.9 11.6 12.45 11.4 11.85 11.05 11.5 10.75 11.45 10.45 11.4 Q9.6 11.4 9.25 10.9 L8.75 9.95 8.45 9.6 8.3 9.4 7.9 8.65 8.35 8.55 9.35 8.3 9.45 8.4 9.85 8.8 10.05 9.0 10.5 9.45 M17.05 10.7 L16.95 10.7 16.95 10.6 17.0 10.5 17.05 10.7 M8.65 8.6 Q8.2 8.6 8.2 9.05 L8.6 9.45 9.65 9.8 Q10.2 9.8 10.2 9.4 L9.85 9.05 Q9.85 8.7 9.1 8.6 L8.65 8.6 M9.2 23.9 L8.6 23.9 8.8 23.4 10.0 21.3 10.0 21.4 Q10.0 22.2 10.15 22.8 9.95 22.6 9.6 23.2 L9.2 23.9 M10.25 23.35 L10.45 24.0 10.25 24.0 10.25 23.7 10.25 23.35 M6.9 23.8 L6.8 23.7 Q6.9 23.55 7.05 23.5 L7.4 23.8 6.9 23.8 M16.5 16.55 L16.8 16.65 17.55 16.75 17.15 17.3 17.05 17.8 17.65 18.35 Q16.8 18.45 16.65 18.9 L16.45 19.6 Q16.05 19.1 15.7 19.05 L15.6 19.05 Q15.4 19.05 15.3 19.2 L15.25 19.2 14.9 19.45 14.85 19.45 14.85 19.4 14.7 18.8 Q14.55 18.5 14.0 18.45 L13.8 18.4 Q13.8 18.0 13.95 17.8 L13.95 17.55 13.8 17.2 13.65 16.95 13.7 16.95 14.3 16.7 14.35 16.7 14.45 16.65 14.8 16.5 15.0 16.1 15.0 15.85 15.1 15.85 15.2 16.15 Q15.3 16.35 15.6 16.35 L15.7 16.35 Q16.1 16.3 16.45 15.9 L16.45 16.3 16.45 16.45 16.5 16.55 M16.35 17.7 L16.5 17.7 16.8 17.65 16.85 17.4 16.35 16.7 Q15.9 16.3 15.85 16.9 L15.5 16.85 Q14.65 16.9 14.6 17.6 L14.6 17.65 14.8 18.05 15.1 18.35 15.5 18.4 16.0 18.35 16.35 17.75 16.35 17.7 M10.65 17.2 L11.75 18.45 11.3 19.0 10.1 17.5 10.25 17.5 10.6 17.45 10.65 17.2 M12.85 22.1 Q11.9 22.9 11.55 24.05 L11.45 24.05 11.25 23.25 10.9 21.3 Q10.9 20.8 12.5 19.05 L12.75 19.45 13.0 19.8 Q12.65 21.05 12.65 21.6 L12.65 21.85 12.85 22.1 M13.95 21.15 L13.45 21.6 13.5 21.0 13.95 21.15 M19.4 21.65 L19.75 21.35 19.85 21.4 19.1 22.0 19.0 21.95 19.4 21.65" fill="#999999" fill-rule="evenodd" stroke="none"/>
    <path d="M3.5 27.85 L3.35 27.85 3.35 27.65 3.5 27.85 M20.25 9.45 L20.25 9.3 20.7 9.25 21.0 9.4 21.1 9.55 21.1 9.75 21.05 10.15 20.9 10.2 20.8 10.2 Q20.35 10.2 20.25 9.95 L20.2 9.65 20.25 9.45 M16.95 7.85 L16.7 7.45 Q16.7 7.0 17.3 7.1 17.85 7.2 17.85 7.6 L17.85 7.65 17.8 7.9 17.45 7.95 16.95 7.85 M19.9 10.9 L20.1 10.5 20.95 12.55 20.85 12.95 20.35 13.0 Q20.25 13.0 20.1 13.35 L19.8 13.7 19.35 13.4 19.35 13.1 19.6 12.25 19.85 11.35 19.9 10.9 M21.9 10.65 L21.85 10.5 21.95 10.3 22.15 10.15 23.15 10.0 Q24.45 10.0 24.45 10.4 L24.45 10.45 Q24.45 10.95 23.3 10.95 L21.9 10.65 M22.75 16.85 L22.95 17.05 23.3 17.05 23.35 17.35 23.3 17.6 Q23.8 18.55 23.95 19.65 L23.6 19.8 Q23.3 19.8 22.8 18.65 L22.6 18.15 22.1 18.2 Q21.2 18.2 21.2 17.7 21.2 17.4 21.45 17.35 L22.1 17.4 22.35 17.35 22.35 17.25 Q22.4 16.55 22.75 16.85 M24.2 16.0 Q24.35 15.85 24.65 15.8 25.15 15.75 25.2 16.1 L25.2 16.15 24.75 16.55 24.2 16.5 24.1 16.25 24.2 16.0 M11.55 7.35 L12.25 7.55 14.0 7.55 15.8 7.5 15.7 8.05 15.4 8.65 14.85 8.45 14.75 8.45 14.35 8.55 12.85 9.7 13.35 10.8 13.3 11.2 12.95 11.3 Q12.75 11.3 12.0 9.75 L11.85 9.45 11.8 9.35 11.35 8.6 11.2 8.45 10.95 7.85 Q10.95 7.5 11.2 7.35 L11.4 7.3 11.45 7.3 11.55 7.35 M8.65 8.6 L9.1 8.6 Q9.85 8.7 9.85 9.05 L10.2 9.4 Q10.2 9.8 9.65 9.8 L8.6 9.45 8.2 9.05 Q8.2 8.6 8.65 8.6 M9.2 23.9 L9.6 23.2 Q9.95 22.6 10.15 22.8 L10.25 23.35 10.25 23.7 10.25 24.0 9.2 23.9 M15.85 16.9 Q15.9 16.3 16.35 16.7 L16.85 17.4 16.8 17.65 16.5 17.7 16.35 17.7 16.05 17.6 15.9 17.35 Q15.8 17.2 15.85 16.95 L15.85 16.9 M10.1 17.5 L10.5 16.85 10.65 17.15 10.65 17.2 10.6 17.45 10.25 17.5 10.1 17.5 M12.85 22.1 L12.65 21.85 12.65 21.6 Q12.65 21.05 13.0 19.8 13.6 20.55 14.5 20.8 L14.1 21.25 13.95 21.15 13.5 21.0 13.45 21.6 Q13.35 22.1 13.05 22.1 L12.85 22.1 M9.0 26.6 L9.9 26.65 9.9 27.15 9.85 27.45 9.6 27.5 Q9.1 27.5 9.0 26.6" fill="#cccccc" fill-rule="evenodd" stroke="none"/>
    <path d="M3.35 23.6 L3.35 22.0 3.7 21.05 3.8 20.7 3.9 20.2 5.0 16.95 6.25 13.95 6.35 13.8 6.6 13.35 7.0 12.65 7.15 12.4 7.3 12.15 7.9 11.1 Q9.15 12.5 10.45 12.45 L10.65 13.0 10.8 14.25 9.7 15.55 9.5 15.85 9.3 16.15 9.15 16.45 8.9 16.8 8.1 18.3 Q7.75 18.9 7.15 20.65 L6.8 21.9 6.55 22.35 6.2 22.7 6.0 22.8 5.75 22.95 5.55 23.05 4.45 23.65 3.35 23.6 M3.35 20.65 L3.35 17.65 3.9 15.55 3.85 15.3 3.35 16.15 3.35 12.7 3.65 12.45 5.85 10.85 7.1 10.2 7.7 10.9 Q7.15 11.3 6.85 11.95 L6.8 11.95 6.7 12.25 6.35 13.1 6.15 13.45 6.1 13.55 4.85 16.5 3.85 19.25 3.65 19.7 3.45 20.35 3.35 20.65" fill="#d81616" fill-rule="evenodd" stroke="none"/>
    <path d="M21.25 15.0 L21.65 15.15 21.65 15.45 21.35 15.45 21.25 15.35 21.25 15.0 M20.8 15.35 L20.9 15.35 21.1 15.5 21.1 15.6 20.85 15.65 20.8 15.35" fill="#ffffff" fill-rule="evenodd" stroke="none"/>
    <path d="M30.1 25.8 L30.1 26.15 29.65 26.1 29.75 25.75 30.1 25.8 M30.1 27.05 L30.1 27.15 21.95 26.9 22.3 26.7 23.2 26.5 Q24.95 26.25 25.0 25.5 L25.05 25.35 28.95 25.7 28.2 25.9 Q26.95 26.25 26.95 26.55 L26.95 26.7 27.0 26.8 27.2 26.85 27.6 26.75 28.05 26.65 29.4 27.0 30.1 27.05 M3.35 25.9 L3.35 24.85 4.2 24.0 11.6 24.4 11.05 24.45 9.3 24.5 Q7.85 24.8 7.75 26.05 L7.75 26.15 3.35 25.9 M15.2 24.65 L20.6 24.95 19.65 25.15 18.85 25.2 17.9 26.4 18.2 26.75 12.85 26.45 14.05 25.7 15.2 24.75 15.2 24.65 M22.25 25.05 L23.05 25.1 23.1 25.15 Q23.0 25.15 22.95 25.25 L22.7 25.4 22.25 25.05 M23.45 25.2 L24.6 25.3 23.75 25.75 Q23.7 25.3 23.45 25.2 M12.35 26.45 L11.3 26.35 11.75 26.0 12.25 26.1 12.35 26.45 M10.85 26.35 L10.65 26.35 10.8 26.1 10.85 26.35 M10.2 26.3 L9.85 26.3 10.15 26.05 10.2 26.3 M9.4 26.25 L9.1 26.25 9.3 26.0 9.4 26.25 M8.75 26.2 L8.1 26.2 8.5 25.85 8.75 26.2 M18.65 26.8 L18.65 26.7 Q18.75 26.5 18.9 26.55 19.2 26.55 19.2 26.7 L19.2 26.8 18.65 26.8 M21.4 26.95 L20.6 26.9 21.3 26.7 21.4 26.9 21.4 26.95" fill="#f2f2f2" fill-rule="evenodd" stroke="none"/>
    <path d="M30.1 26.15 L30.1 27.05 29.4 27.0 28.05 26.65 27.6 26.75 27.2 26.85 27.0 26.8 26.95 26.7 26.95 26.55 Q26.95 26.25 28.2 25.9 L28.95 25.7 29.35 25.55 Q29.75 25.45 29.75 25.75 L29.65 26.1 30.1 26.15 M19.5 27.15 L19.2 27.15 19.2 27.1 19.2 26.8 19.2 26.7 Q19.2 26.55 18.9 26.55 18.75 26.5 18.65 26.7 L18.65 26.8 18.45 26.9 18.2 26.75 17.9 26.4 18.85 25.2 19.65 25.15 20.6 24.95 Q21.0 24.65 21.75 24.7 L22.25 25.05 22.7 25.4 22.95 25.25 Q23.0 25.15 23.1 25.15 L23.2 25.1 23.45 25.2 Q23.7 25.3 23.75 25.75 L24.6 25.3 24.8 25.2 24.95 25.2 25.05 25.35 25.0 25.5 Q24.95 26.25 23.2 26.5 L22.3 26.7 21.95 26.9 21.55 27.1 21.4 26.95 21.4 26.9 21.3 26.7 20.6 26.9 19.5 27.15 M3.35 24.85 L3.35 23.85 3.8 23.65 4.05 23.7 4.2 24.0 3.35 24.85 M11.6 24.4 L12.65 24.1 12.95 24.15 14.95 24.4 15.15 24.55 15.2 24.65 15.2 24.75 14.05 25.7 12.85 26.45 12.5 26.5 12.35 26.45 12.25 26.1 11.75 26.0 11.3 26.35 11.0 26.45 10.85 26.35 10.8 26.1 10.65 26.35 10.3 26.5 10.2 26.3 10.15 26.05 9.85 26.3 9.55 26.3 9.4 26.25 9.3 26.0 9.1 26.25 8.9 26.3 8.75 26.2 8.5 25.85 8.1 26.2 8.0 26.25 7.85 26.25 7.75 26.15 7.75 26.05 Q7.85 24.8 9.3 24.5 L11.05 24.45 11.6 24.4" fill="#db3535" fill-rule="evenodd" stroke="none"/>
  </g>
</svg>
