<?xml version="1.0" encoding="UTF-8" standalone="no"?>
<svg xmlns:xlink="http://www.w3.org/1999/xlink" height="32.3px" width="32.1px" xmlns="http://www.w3.org/2000/svg">
  <g transform="matrix(1.0, 0.0, 0.0, 1.0, -0.6, -0.3)">
    <path d="M29.85 0.7 L29.7 1.1 29.6 1.25 29.05 2.1 28.6 1.8 28.6 1.45 28.85 0.8 Q28.9 0.35 29.3 0.35 L29.4 0.4 Q29.85 0.1 29.85 0.7 M1.25 2.6 Q0.8 2.6 0.7 2.2 L0.7 1.7 Q0.7 1.15 1.45 0.65 2.2 0.2 2.2 0.95 L1.25 2.6 M1.85 29.35 L1.55 29.85 1.0 30.25 Q0.6 30.25 0.6 29.8 0.6 29.5 0.9 29.25 1.3 28.9 1.8 29.1 L1.85 29.35 M29.95 29.35 L29.8 29.95 29.4 30.25 Q28.95 30.25 28.95 29.8 28.95 29.4 29.45 29.0 29.95 28.55 29.95 29.35" fill="#ff6666" fill-rule="evenodd" stroke="none"/>
    <path d="M32.7 3.95 L32.7 4.35 31.45 4.6 Q30.2 4.6 30.2 4.2 30.2 3.9 30.7 3.65 L31.35 2.95 Q31.15 2.6 31.45 2.15 31.8 1.75 32.3 1.95 L32.7 3.95 M4.2 2.5 Q4.2 4.6 2.45 4.6 L2.05 4.55 Q1.95 4.05 2.1 3.9 L1.7 3.5 Q1.7 3.05 3.35 3.05 L3.9 2.1 Q4.2 1.65 4.2 2.5 M3.6 30.35 Q3.7 30.0 4.3 30.1 L4.35 32.05 Q4.25 32.6 3.75 32.6 L1.6 32.45 Q1.45 32.4 1.45 32.15 2.65 30.7 3.6 30.85 L3.6 30.35 M32.25 32.5 L31.25 32.5 30.25 32.5 29.85 32.05 30.05 31.8 31.3 31.25 31.2 30.65 Q31.2 30.25 31.55 29.8 31.95 29.25 32.25 29.95 L32.45 31.75 32.25 32.5" fill="#660000" fill-rule="evenodd" stroke="none"/>
    <path d="M12.7 29.65 L12.5 29.65 12.6 29.3 12.7 29.2 12.75 29.15 12.85 29.15 12.6 28.2 11.75 27.65 11.0 26.75 10.85 25.6 10.05 25.4 10.55 23.35 Q10.85 22.3 11.45 21.4 L10.85 21.25 10.55 19.3 10.3 17.75 10.25 17.7 10.25 17.65 10.35 17.6 10.7 17.7 11.0 17.65 11.35 17.8 11.55 17.85 11.55 17.75 11.65 17.25 11.35 16.7 11.2 16.0 11.3 15.1 11.2 15.2 Q11.05 14.35 11.65 13.35 L12.3 12.35 12.2 12.1 Q12.15 11.9 12.25 11.75 L12.9 10.7 12.9 10.65 12.95 9.7 12.85 8.95 Q12.8 8.45 12.9 8.1 12.75 7.75 12.85 7.25 L13.1 6.65 13.35 6.2 Q13.85 5.6 14.55 5.35 L14.6 5.4 14.75 5.2 14.9 5.0 14.95 5.0 Q15.15 5.2 15.3 4.9 L15.45 4.75 15.5 4.75 15.65 4.75 15.85 4.85 15.8 5.0 15.85 5.0 17.65 5.3 17.7 5.3 17.75 5.5 17.75 5.55 18.5 6.1 18.6 6.35 Q18.95 6.9 18.8 7.65 18.7 8.25 18.25 8.55 L18.3 9.45 18.5 9.75 18.7 10.0 Q18.8 10.4 18.45 10.5 L18.0 10.65 17.8 11.3 17.6 11.7 17.8 12.2 18.0 12.7 17.8 12.95 17.65 13.0 Q17.4 13.15 17.3 13.45 L17.2 13.7 17.6 14.15 17.5 14.05 17.2 13.85 17.65 15.05 17.65 14.25 17.8 14.45 17.85 14.65 17.95 15.7 18.5 17.05 Q18.95 18.05 18.0 19.1 L17.8 19.3 17.85 19.6 17.8 20.6 17.6 20.6 18.2 22.1 18.3 22.7 19.1 24.3 18.7 24.65 18.55 24.75 18.5 25.05 18.45 24.95 18.45 25.7 Q19.25 25.5 20.1 25.7 L22.75 26.6 25.0 27.4 26.9 28.1 27.2 28.0 27.6 28.2 27.75 28.25 27.75 28.5 16.45 25.6 15.95 25.45 15.8 26.75 15.8 27.15 16.3 27.2 16.75 27.25 17.05 27.3 17.85 27.45 18.2 27.5 18.9 27.6 21.7 28.15 23.95 28.65 26.45 29.2 27.75 29.55 27.75 29.65 26.6 29.65 24.85 29.25 21.15 28.45 18.15 27.95 18.1 27.95 17.9 28.6 17.85 28.8 18.75 29.1 18.7 29.15 18.6 29.65 18.25 29.65 18.25 29.6 18.2 29.65 16.6 29.65 16.65 29.2 17.4 29.55 17.45 29.1 17.5 28.65 17.55 28.65 17.7 27.9 16.95 27.8 16.45 29.2 16.3 29.65 16.0 29.65 16.55 27.85 16.6 27.75 15.5 27.5 15.3 28.2 14.4 28.55 13.6 28.7 13.0 28.45 13.2 29.15 Q13.8 29.25 14.25 29.65 L12.8 29.65 12.75 29.6 12.7 29.6 12.7 29.65 M13.9 8.65 L13.8 8.5 13.8 8.7 Q13.8 9.3 14.05 9.9 L14.1 9.85 14.2 9.9 14.15 9.3 14.1 8.9 13.9 8.75 13.9 8.65 M14.65 9.2 L14.7 9.3 14.7 9.2 14.65 9.2 M12.6 12.25 L12.85 12.05 13.0 12.05 13.1 12.1 13.2 12.15 13.25 12.2 13.75 12.0 13.8 11.95 Q15.75 12.45 16.45 14.1 L16.45 14.35 Q16.4 16.3 15.45 18.1 L15.45 18.15 15.5 18.4 15.5 18.5 15.6 18.45 15.8 18.35 15.85 18.5 15.95 18.6 15.9 18.75 15.7 18.8 16.0 19.85 16.45 19.75 16.55 19.7 17.35 19.1 17.45 18.95 17.1 17.6 17.0 16.5 17.0 15.9 16.95 15.7 16.85 14.3 16.8 14.05 16.6 13.55 16.55 13.5 16.45 13.2 16.3 13.1 15.7 12.5 Q14.45 11.25 12.55 11.95 L12.6 12.25 M13.95 9.95 L13.9 9.85 13.95 10.0 13.95 9.95 M14.55 10.45 L13.15 10.65 13.15 10.75 13.05 10.95 12.95 11.1 12.95 11.2 12.9 11.45 12.85 11.5 12.85 11.55 12.75 11.65 12.85 11.65 12.9 11.65 13.1 11.65 13.45 11.6 13.5 11.55 13.55 11.55 Q15.15 11.2 16.15 12.3 L16.9 13.45 16.95 13.55 16.95 13.5 16.95 13.3 17.0 13.3 17.05 13.4 17.2 13.2 Q17.8 12.65 17.3 11.9 L17.25 11.8 17.15 11.65 16.75 11.0 16.4 10.85 14.9 10.5 14.55 10.45 M15.25 8.85 L15.05 9.95 14.95 10.3 16.45 10.7 17.3 11.35 17.4 11.1 17.75 10.6 17.7 10.6 Q17.8 10.45 18.05 10.35 L18.45 10.2 18.3 9.85 18.1 9.6 18.05 9.55 18.05 9.45 17.9 8.95 17.9 8.7 17.85 8.7 17.85 8.3 17.85 8.25 17.75 8.25 17.6 8.2 17.1 8.7 17.05 8.35 16.1 8.8 16.2 8.65 16.1 8.75 15.9 8.9 15.65 8.9 15.7 8.7 15.3 8.85 15.35 8.7 15.25 8.75 15.25 8.85 M17.75 8.0 L17.65 8.15 17.75 8.05 17.75 8.0 M17.55 7.75 L17.5 7.7 17.45 7.9 17.55 7.75 M16.2 13.7 L15.1 12.9 13.8 12.3 13.4 12.5 13.2 12.65 Q12.65 13.0 12.4 13.5 L12.35 15.05 12.25 15.8 12.15 16.2 12.05 16.6 12.1 17.4 12.15 18.0 13.0 18.25 14.2 18.35 Q14.35 18.35 14.5 18.5 L14.7 18.45 14.9 17.8 15.0 17.55 15.3 17.1 15.5 16.9 15.6 16.65 16.15 15.05 16.35 13.9 16.2 13.7 M17.3 14.95 L17.4 15.65 17.6 16.45 17.75 17.35 17.75 17.4 17.55 17.15 17.55 18.1 17.55 18.15 17.55 18.4 17.55 18.6 17.55 18.85 17.65 18.75 17.9 18.4 18.55 17.65 17.9 16.3 17.7 15.85 17.5 15.4 17.3 14.95 M12.1 13.75 L11.55 14.65 11.55 15.1 11.65 15.15 11.85 15.35 11.85 15.1 12.0 14.3 12.05 13.9 12.1 13.75 M11.6 15.6 L11.75 16.3 11.8 15.85 11.6 15.6 M10.35 17.85 L11.3 20.25 11.45 20.95 11.45 21.0 11.65 21.15 11.7 21.15 12.7 20.95 15.2 20.75 15.55 20.75 15.5 19.9 15.45 19.6 15.4 19.35 15.4 18.85 15.35 18.8 15.25 18.75 15.2 18.7 15.1 18.65 Q14.8 18.7 14.6 18.85 L14.55 18.85 13.3 18.55 12.15 18.35 11.85 18.2 11.8 18.15 11.65 18.2 11.25 18.2 11.1 18.05 11.0 18.0 10.6 17.95 10.35 17.85 M12.7 21.25 L12.2 21.35 12.05 21.35 12.1 21.55 12.1 21.6 12.2 22.05 12.2 22.1 12.25 22.4 12.05 23.35 11.95 24.2 11.9 24.3 11.9 24.45 11.9 24.55 12.05 24.85 12.3 25.7 13.0 25.75 13.2 25.95 13.7 25.9 13.75 25.9 13.8 25.85 13.95 25.85 14.05 25.95 14.1 26.0 14.1 26.05 14.15 26.15 14.2 26.2 14.25 26.25 14.35 26.15 14.45 26.05 Q14.4 25.55 14.7 25.05 L14.95 24.65 15.2 24.3 15.3 24.05 15.25 24.0 Q14.5 23.55 14.45 22.85 14.4 22.1 14.5 21.4 L14.55 21.2 14.55 21.05 13.55 21.15 12.7 21.25 M14.85 21.2 L15.35 21.2 15.3 21.1 14.8 21.1 14.85 21.2 M11.75 22.0 Q11.2 22.45 11.0 23.05 L10.4 25.2 10.85 25.3 11.05 24.05 11.5 24.1 11.5 23.95 11.9 23.0 11.75 22.4 11.75 22.0 M14.7 23.2 L15.25 23.55 15.35 23.65 Q15.7 22.35 16.25 21.35 L15.95 21.35 15.95 21.4 15.7 21.35 14.9 21.4 14.85 22.0 Q14.7 22.6 14.7 23.2 M17.4 19.6 L17.3 20.25 17.6 20.25 17.45 19.55 17.4 19.6 M16.8 20.0 L16.75 20.05 16.1 20.2 16.0 20.25 15.8 21.05 15.8 21.15 16.35 21.1 16.65 21.0 16.75 20.95 16.7 20.35 16.8 20.05 16.8 20.0 M16.35 21.25 L15.85 23.75 15.8 24.0 16.2 25.25 17.1 25.5 17.1 23.65 17.0 23.4 Q16.7 23.0 16.7 22.3 L16.45 21.25 16.35 21.25 M17.15 20.55 L17.05 20.9 17.25 20.85 17.2 20.95 17.6 21.55 17.2 20.6 17.15 20.55 M16.9 21.5 L17.4 21.95 17.15 21.0 17.05 21.1 17.1 21.35 17.05 21.4 16.85 21.2 16.75 21.2 16.55 21.25 16.9 21.5 M17.25 22.75 L17.3 25.55 17.8 25.45 18.2 25.7 18.25 24.45 17.65 23.2 17.15 22.2 17.25 22.75 M18.75 24.05 L18.4 23.5 18.2 23.2 18.45 23.95 18.5 24.35 18.75 24.05 M12.35 26.85 L11.05 25.3 11.0 25.3 11.1 25.65 Q11.35 26.75 12.25 27.65 L12.55 27.9 12.95 28.1 13.65 28.25 14.45 28.25 14.9 28.15 15.55 25.9 15.55 24.8 15.5 24.4 15.45 24.85 15.3 25.05 15.25 25.1 15.15 25.3 14.55 27.05 14.5 26.5 14.2 26.55 13.85 26.3 13.25 26.3 12.75 26.0 12.7 26.0 12.8 27.15 14.1 27.2 14.5 27.1 Q14.05 27.95 13.35 27.65 L13.05 27.65 12.4 26.9 12.5 27.0 12.55 26.0 12.15 25.85 11.9 25.8 12.35 26.85 M11.55 24.8 L11.5 25.05 11.6 24.95 11.55 24.9 11.55 24.8" fill="#000000" fill-rule="evenodd" stroke="none"/>
    <path d="M13.8 8.7 L13.9 8.65 13.9 8.75 14.1 8.9 14.15 9.3 14.2 9.9 14.1 9.85 14.05 9.9 Q13.8 9.3 13.8 8.7 M16.1 8.8 L17.05 8.35 17.1 8.7 17.6 8.2 17.75 8.25 17.85 8.25 17.85 8.3 17.85 8.7 17.9 8.7 17.9 8.95 18.05 9.45 18.05 9.55 18.1 9.6 18.3 9.85 18.45 10.2 18.05 10.35 Q17.8 10.45 17.7 10.6 L17.75 10.6 17.4 11.1 17.3 11.35 16.45 10.7 14.95 10.3 15.05 9.95 15.25 8.85 15.3 8.85 15.7 8.7 15.65 8.9 15.9 8.9 16.1 8.75 16.1 8.8" fill="#eedc9d" fill-rule="evenodd" stroke="none"/>
    <path d="M17.6 14.15 L17.65 14.2 17.65 14.25 17.65 15.05 17.2 13.85 17.5 14.05 17.6 14.15 M14.55 10.45 L14.9 10.5 16.4 10.85 16.75 11.0 17.15 11.65 17.25 11.8 17.3 11.9 Q17.8 12.65 17.2 13.2 L17.05 13.4 17.0 13.3 16.95 13.3 16.95 13.5 16.95 13.55 16.9 13.45 16.15 12.3 Q15.15 11.2 13.55 11.55 L13.5 11.55 13.45 11.6 13.1 11.65 12.9 11.65 12.85 11.65 12.75 11.65 12.85 11.55 12.85 11.5 12.9 11.45 12.95 11.2 12.95 11.1 13.05 10.95 13.15 10.75 13.15 10.65 14.55 10.45 M16.2 13.7 L16.35 13.9 16.15 15.05 15.6 16.65 15.5 16.9 15.3 17.1 15.0 17.55 14.9 17.8 14.7 18.45 14.5 18.5 Q14.35 18.35 14.2 18.35 L13.0 18.25 12.15 18.0 12.1 17.4 12.05 16.6 12.15 16.2 12.25 15.8 12.35 15.05 12.4 13.5 Q12.65 13.0 13.2 12.65 L13.4 12.5 13.8 12.3 15.1 12.9 16.2 13.7 M12.1 13.75 L12.05 13.9 12.0 14.3 11.85 15.1 11.85 15.35 11.65 15.15 11.55 15.1 11.55 14.65 12.1 13.75 M14.7 23.2 Q14.7 22.6 14.85 22.0 L14.9 21.4 15.7 21.35 15.95 21.4 15.95 21.35 16.25 21.35 Q15.7 22.35 15.35 23.65 L15.25 23.55 14.7 23.2 M11.75 22.0 L11.75 22.4 11.9 23.0 11.5 23.95 11.5 24.1 11.05 24.05 10.85 25.3 10.4 25.2 11.0 23.05 Q11.2 22.45 11.75 22.0 M16.9 21.5 L16.55 21.25 16.75 21.2 16.85 21.2 17.05 21.4 17.1 21.35 17.05 21.1 17.15 21.0 17.4 21.95 16.9 21.5 M18.75 24.05 L18.5 24.35 18.45 23.95 18.2 23.2 18.4 23.5 18.75 24.05" fill="#ffffff" fill-rule="evenodd" stroke="none"/>
    <path d="M12.8 29.65 L12.7 29.65 12.7 29.6 12.75 29.6 12.8 29.65 M12.6 12.25 L12.55 11.95 Q14.45 11.25 15.7 12.5 L16.3 13.1 16.45 13.2 16.55 13.5 16.6 13.55 16.8 14.05 16.85 14.3 16.95 15.7 17.0 15.9 17.0 16.5 17.1 17.6 17.45 18.95 17.35 19.1 16.55 19.7 16.45 19.75 16.0 19.85 15.7 18.8 15.9 18.75 15.95 18.6 15.85 18.5 15.8 18.35 15.6 18.45 15.5 18.5 15.5 18.4 15.45 18.15 15.45 18.1 Q16.4 16.3 16.45 14.35 L16.45 14.1 Q15.75 12.45 13.8 11.95 L13.75 12.0 13.25 12.2 13.2 12.15 13.1 12.1 13.0 12.05 12.85 12.05 12.6 12.25 M17.3 14.95 L17.5 15.4 17.7 15.85 17.9 16.3 18.55 17.65 17.9 18.4 17.65 18.75 17.55 18.85 17.55 18.6 17.55 18.4 17.55 18.15 17.55 18.1 17.55 17.15 17.75 17.4 17.75 17.35 17.6 16.45 17.4 15.65 17.3 14.95 M14.85 21.2 L14.8 21.1 15.3 21.1 15.35 21.2 14.85 21.2 M12.7 21.25 L13.55 21.15 14.55 21.05 14.55 21.2 14.5 21.4 Q14.4 22.1 14.45 22.85 14.5 23.55 15.25 24.0 L15.3 24.05 15.2 24.3 14.95 24.65 14.7 25.05 Q14.4 25.55 14.45 26.05 L14.35 26.15 14.25 26.25 14.2 26.2 14.15 26.15 14.1 26.05 14.1 26.0 14.05 25.95 13.95 25.85 13.8 25.85 13.75 25.9 13.7 25.9 13.2 25.95 13.0 25.75 12.3 25.7 12.05 24.85 11.9 24.55 11.9 24.45 11.9 24.3 11.95 24.2 12.05 23.35 12.25 22.4 12.2 22.1 12.2 22.05 12.1 21.6 12.1 21.55 12.05 21.35 12.2 21.35 12.7 21.25 M10.35 17.85 L10.6 17.95 11.0 18.0 11.1 18.05 11.25 18.2 11.65 18.2 11.8 18.15 11.85 18.2 12.15 18.35 13.3 18.55 14.55 18.85 14.6 18.85 Q14.8 18.7 15.1 18.65 L15.2 18.7 15.25 18.75 15.35 18.8 15.4 18.85 15.4 19.35 15.45 19.6 15.5 19.9 15.55 20.75 15.2 20.75 12.7 20.95 11.7 21.15 11.65 21.15 11.45 21.0 11.45 20.95 11.3 20.25 10.35 17.85 M11.6 15.6 L11.8 15.85 11.75 16.3 11.6 15.6 M17.4 19.6 L17.45 19.55 17.6 20.25 17.3 20.25 17.4 19.6" fill="#63492e" fill-rule="evenodd" stroke="none"/>
    <path d="M16.6 29.65 L16.3 29.65 16.45 29.2 16.95 27.8 17.7 27.9 17.55 28.65 17.5 28.65 17.45 29.1 17.4 29.55 16.65 29.2 16.6 29.65 M16.0 29.65 L14.25 29.65 Q13.8 29.25 13.2 29.15 L13.0 28.45 13.6 28.7 14.4 28.55 15.3 28.2 15.5 27.5 16.6 27.75 16.55 27.85 16.0 29.65 M17.15 20.55 L17.2 20.6 17.6 21.55 17.2 20.95 17.25 20.85 17.05 20.9 17.15 20.55 M16.35 21.25 L16.45 21.25 16.7 22.3 Q16.7 23.0 17.0 23.4 L17.1 23.65 17.1 25.5 16.2 25.25 15.8 24.0 15.85 23.75 16.35 21.25 M17.25 22.75 L17.15 22.2 17.65 23.2 18.25 24.45 18.2 25.7 17.8 25.45 17.3 25.55 17.25 22.75 M14.55 27.05 L14.5 27.1 14.1 27.2 12.8 27.15 12.7 26.0 12.75 26.0 13.25 26.3 13.85 26.3 14.2 26.55 14.5 26.5 14.55 27.05" fill="#3c3e7d" fill-rule="evenodd" stroke="none"/>
    <path d="M16.8 20.0 L16.8 20.05 16.7 20.35 16.75 20.95 16.65 21.0 16.35 21.1 15.8 21.15 15.8 21.05 16.0 20.25 16.1 20.2 16.75 20.05 16.8 20.0" fill="#666666" fill-rule="evenodd" stroke="none"/>
    <path d="M14.55 27.05 L15.15 25.3 15.25 25.1 15.3 25.05 15.45 24.85 15.5 24.4 15.55 24.8 15.55 25.9 14.9 28.15 14.45 28.25 13.65 28.25 12.95 28.1 12.55 27.9 12.25 27.65 Q11.35 26.75 11.1 25.65 L11.0 25.3 11.05 25.3 12.35 26.85 12.4 26.9 13.05 27.65 13.35 27.65 Q14.05 27.95 14.5 27.1 L14.55 27.05 M11.55 24.8 L11.55 24.9 11.6 24.95 11.5 25.05 11.55 24.8" fill="#e0dc8f" fill-rule="evenodd" stroke="none"/>
    <path d="M15.8 27.15 L15.8 26.75 15.95 25.45 16.45 25.6 15.8 27.15" fill="#e5e5e5" fill-rule="evenodd" stroke="none"/>
    <path d="M27.75 28.5 L27.75 29.55 26.45 29.2 23.95 28.65 21.7 28.15 18.9 27.6 18.2 27.5 17.85 27.45 17.05 27.3 16.75 27.25 16.3 27.2 15.8 27.15 16.45 25.6 27.75 28.5" fill="#e8e8e8" fill-rule="evenodd" stroke="none"/>
  </g>
</svg>
