<?xml version="1.0" encoding="UTF-8" standalone="no"?>
<svg xmlns:xlink="http://www.w3.org/1999/xlink" height="32.3px" width="32.1px" xmlns="http://www.w3.org/2000/svg">
  <g transform="matrix(1.0, 0.0, 0.0, 1.0, -0.6, -0.3)">
    <path d="M29.85 0.7 L29.7 1.1 29.6 1.25 29.05 2.1 28.6 1.8 28.6 1.45 28.85 0.8 Q28.9 0.35 29.3 0.35 L29.4 0.4 Q29.85 0.1 29.85 0.7 M1.25 2.6 Q0.8 2.6 0.7 2.2 L0.7 1.7 Q0.7 1.15 1.45 0.65 2.2 0.2 2.2 0.95 L1.25 2.6 M1.85 29.35 L1.55 29.85 1.0 30.25 Q0.6 30.25 0.6 29.8 0.6 29.5 0.9 29.25 1.3 28.9 1.8 29.1 L1.85 29.35 M29.95 29.35 L29.8 29.95 29.4 30.25 Q28.95 30.25 28.95 29.8 28.95 29.4 29.45 29.0 29.95 28.55 29.95 29.35" fill="#ff6666" fill-rule="evenodd" stroke="none"/>
    <path d="M32.7 3.95 L32.7 4.35 31.45 4.6 Q30.2 4.6 30.2 4.2 30.2 3.9 30.7 3.65 L31.35 2.95 Q31.15 2.6 31.45 2.15 31.8 1.75 32.3 1.95 L32.7 3.95 M4.2 2.5 Q4.2 4.6 2.45 4.6 L2.05 4.55 Q1.95 4.05 2.1 3.9 L1.7 3.5 Q1.7 3.05 3.35 3.05 L3.9 2.1 Q4.2 1.65 4.2 2.5 M3.6 30.35 Q3.7 30.0 4.3 30.1 L4.35 32.05 Q4.25 32.6 3.75 32.6 L1.6 32.45 Q1.45 32.4 1.45 32.15 2.65 30.7 3.6 30.85 L3.6 30.35 M32.25 32.5 L31.25 32.5 30.25 32.5 29.85 32.05 30.05 31.8 31.3 31.25 31.2 30.65 Q31.2 30.25 31.55 29.8 31.95 29.25 32.25 29.95 L32.45 31.75 32.25 32.5" fill="#660000" fill-rule="evenodd" stroke="none"/>
    <path d="M6.55 11.75 L10.25 12.35 11.5 12.3 11.6 12.3 Q14.35 12.15 17.35 11.0 L17.9 10.85 Q19.55 10.3 21.15 10.25 L21.4 10.25 17.25 9.45 16.3 9.45 14.3 9.8 10.45 10.85 7.6 11.4 6.45 11.45 6.35 11.45 6.45 11.5 6.5 11.65 6.5 11.7 6.45 11.8 6.5 11.8 6.85 11.9 6.55 11.75 M11.0 7.6 L12.8 6.6 15.6 6.35 15.7 6.35 16.2 6.55 16.35 6.65 16.5 7.4 17.05 8.45 17.3 8.9 18.05 9.0 21.55 9.9 22.05 10.3 22.25 10.35 22.3 10.55 17.95 11.25 17.8 11.9 16.95 12.95 16.8 14.05 17.1 14.55 17.3 14.8 Q17.3 15.3 16.85 15.4 L16.3 15.45 15.95 16.25 15.75 16.6 15.75 16.7 15.75 16.75 15.65 16.9 16.65 16.8 16.9 16.55 17.9 15.8 Q17.85 15.4 18.25 15.35 L18.7 15.35 19.0 15.85 Q19.4 15.8 19.7 16.1 L19.95 16.3 21.4 16.15 21.4 16.1 24.55 15.8 29.55 15.75 29.75 15.5 29.75 16.45 29.55 16.85 29.6 17.0 Q29.3 17.15 29.1 17.4 L28.9 17.7 28.95 18.05 28.95 18.1 29.25 18.55 29.75 18.55 29.75 18.85 29.0 18.7 28.7 18.3 28.7 18.0 26.5 18.55 27.2 18.6 25.6 19.35 25.9 20.3 26.2 20.15 26.7 19.9 27.05 19.8 28.2 19.75 29.25 19.7 29.75 19.5 29.75 20.05 28.95 20.2 27.85 20.0 27.1 20.35 26.5 20.5 26.05 20.65 26.0 21.55 23.95 22.4 22.15 23.1 22.1 23.1 22.05 23.15 22.05 23.1 22.0 23.1 22.05 22.65 22.0 22.35 21.25 22.75 20.8 22.65 20.85 22.6 20.75 22.55 20.6 22.5 20.25 22.8 20.0 23.0 19.35 25.35 18.9 27.3 18.85 27.35 18.85 27.4 18.75 27.45 18.45 27.2 18.0 27.05 17.75 26.7 17.25 26.4 17.05 26.35 Q16.7 25.7 16.0 25.4 L15.0 24.85 14.4 25.2 14.1 26.05 13.85 26.8 14.1 26.8 14.0 26.85 15.1 29.0 15.4 29.6 14.3 29.6 13.9 28.65 Q13.35 28.35 12.95 27.7 L12.8 27.5 12.55 28.5 12.85 29.6 11.55 29.6 12.05 28.5 12.3 28.0 12.7 27.35 12.75 27.25 12.65 27.25 12.35 27.3 12.05 27.25 11.7 27.25 11.4 27.25 10.0 27.15 9.35 27.05 7.75 26.65 7.1 27.6 Q6.45 28.1 6.15 28.8 L5.8 29.6 5.4 29.6 5.5 29.25 Q6.0 27.6 7.2 26.5 L6.95 26.4 Q6.5 25.9 6.75 25.3 L7.05 24.2 Q7.15 23.85 7.5 23.7 L7.6 23.75 7.75 23.8 7.8 23.9 7.85 23.95 7.85 24.0 7.8 24.05 7.95 24.05 Q7.85 22.5 7.15 21.0 L7.05 20.15 7.2 19.0 7.1 19.15 7.25 18.2 7.4 16.8 7.45 16.7 8.7 15.75 8.6 15.4 8.8 15.0 9.65 13.75 10.2 13.3 10.2 12.8 9.75 12.75 7.7 12.3 7.65 12.35 7.6 12.4 Q6.8 12.75 6.2 12.1 L6.2 12.0 6.1 11.85 6.15 11.4 6.25 11.1 9.05 11.0 9.45 10.9 9.35 10.85 10.35 10.0 10.6 9.6 10.75 9.8 10.8 9.9 10.8 9.95 10.55 10.25 10.15 10.7 10.55 10.55 10.65 10.5 11.4 10.3 11.65 10.4 11.6 10.2 16.65 8.95 16.85 8.95 16.9 8.95 Q16.6 8.8 16.45 8.35 L16.0 7.1 15.95 6.85 12.9 7.0 Q11.95 7.25 11.15 7.75 11.45 8.2 11.25 8.8 L11.05 8.1 11.1 8.1 11.1 8.05 11.0 7.6 M23.1 19.9 Q24.0 19.1 25.1 18.8 L25.35 18.7 25.4 18.7 Q26.4 18.3 27.4 18.0 L28.7 17.75 Q28.75 17.05 29.2 16.35 L28.35 16.4 27.85 16.45 25.15 16.6 22.8 16.85 22.4 16.85 22.15 16.9 21.55 16.95 20.65 17.1 Q21.15 17.6 20.95 18.55 L20.95 18.65 21.9 18.9 22.15 18.95 22.25 18.95 22.6 19.1 23.0 19.25 23.05 19.85 23.05 19.9 23.1 19.9 M20.45 17.25 L20.15 17.2 19.8 16.9 19.6 16.55 19.15 16.4 19.05 16.35 18.95 16.35 18.9 16.35 18.65 16.1 18.6 16.0 18.65 16.0 18.6 15.8 18.6 15.75 18.25 15.8 17.7 16.65 17.45 16.8 16.65 17.4 16.3 17.65 Q16.95 18.5 16.7 19.4 L16.65 19.45 16.35 20.15 16.1 20.65 15.9 21.05 15.65 21.4 16.4 21.7 16.8 21.85 18.7 22.35 18.7 22.05 18.8 21.45 18.85 21.4 18.9 21.0 Q19.15 20.3 19.65 20.0 L20.15 19.05 20.2 19.0 20.4 18.6 20.4 18.4 Q20.35 17.8 20.45 17.25 M23.05 20.2 L22.9 20.0 22.6 19.55 22.6 19.65 22.45 21.2 22.4 21.35 22.4 21.4 22.5 21.9 22.4 22.15 22.4 22.25 22.35 22.7 22.3 22.95 Q23.75 21.85 25.6 21.05 25.85 21.0 25.7 20.7 L25.3 19.5 23.05 20.2 M20.55 19.6 L19.65 20.5 19.55 21.3 19.2 21.95 19.1 22.4 19.15 22.45 19.85 22.2 20.0 22.15 20.05 22.15 20.95 22.2 21.25 22.0 21.55 22.05 21.95 20.75 21.7 19.1 20.85 19.05 20.55 19.6 M16.2 11.9 L16.2 11.85 16.1 12.05 16.2 11.9 M16.4 12.2 L16.3 12.3 16.4 12.25 16.4 12.2 M16.55 11.85 L16.5 11.95 16.55 12.0 16.55 11.85 M9.4 14.9 L9.55 14.9 10.0 14.85 10.4 14.8 12.3 15.05 13.5 16.05 13.7 16.3 14.0 16.85 14.1 17.0 15.1 16.95 15.3 16.4 15.0 15.55 14.45 14.5 14.0 14.3 Q13.5 14.0 13.0 13.85 L11.75 13.6 11.45 13.6 10.25 13.65 10.0 13.7 9.95 13.85 9.8 14.05 9.7 14.25 9.4 14.85 9.35 14.9 9.4 14.9 M9.15 15.25 L9.15 15.55 9.5 15.4 11.4 15.3 11.65 15.45 13.65 17.15 13.75 17.1 13.05 16.35 12.95 16.2 Q12.55 15.7 12.0 15.45 L11.95 15.4 9.95 15.1 9.15 15.25 M9.25 15.95 L8.0 16.75 7.75 16.9 7.75 17.15 7.8 18.3 8.2 19.2 Q8.85 19.5 9.75 20.25 L10.2 20.6 11.2 21.55 11.5 21.75 12.05 22.0 12.85 22.4 13.0 22.5 13.05 22.55 13.3 22.7 13.55 21.9 14.35 20.7 15.35 21.25 Q15.3 20.95 15.55 20.65 L15.5 20.65 15.2 20.3 14.3 19.3 Q13.85 18.8 13.75 18.05 L13.6 17.85 13.25 17.3 12.25 16.2 11.1 15.3 10.85 15.3 Q10.35 15.4 9.9 15.65 L9.25 15.95 M7.95 19.5 L7.85 19.5 7.95 19.55 8.35 20.0 8.45 20.2 8.45 20.25 8.6 20.3 8.85 20.35 9.0 20.45 9.05 20.45 8.75 20.15 8.35 19.85 7.95 19.5 M9.35 20.75 L9.25 20.7 9.6 20.9 9.55 20.85 9.35 20.75 M7.55 19.1 L7.6 19.15 7.55 19.1 M7.3 24.65 L7.25 25.15 7.15 25.55 7.05 25.85 9.45 26.75 9.75 26.8 9.8 26.85 10.3 26.9 11.2 27.0 11.35 27.0 11.7 27.0 11.55 26.5 11.55 26.45 11.6 26.15 11.7 25.95 11.7 25.8 10.05 25.45 9.6 25.15 Q8.8 25.1 8.2 24.75 L7.95 24.8 7.95 24.45 7.6 24.35 7.4 24.3 7.3 24.65 M8.35 24.35 L8.4 24.4 10.9 25.25 11.7 25.4 11.6 22.35 11.25 22.1 8.9 20.95 Q7.95 20.35 7.55 19.7 L7.8 21.4 8.35 24.15 8.35 24.35 M13.2 12.85 L13.05 13.7 14.05 14.15 Q15.15 14.7 15.5 15.95 L15.95 15.35 16.35 15.15 16.95 15.0 16.8 14.55 16.6 14.25 16.55 14.1 16.5 14.0 Q16.4 13.8 16.45 13.35 L16.5 13.1 16.45 13.05 16.45 12.55 16.45 12.5 16.35 12.5 16.2 12.45 15.5 12.9 15.5 12.5 14.3 12.9 14.4 12.75 14.3 12.85 14.05 13.05 13.65 12.95 13.85 12.75 13.3 12.85 13.4 12.6 13.2 12.75 13.2 12.85 M16.05 17.4 L15.0 17.35 14.75 17.35 14.25 17.3 13.85 17.25 13.75 17.25 15.05 19.15 15.4 19.8 15.6 20.05 16.25 19.6 16.55 18.95 16.1 18.25 15.9 17.65 15.95 17.5 16.05 17.4 M13.0 12.5 L13.05 12.5 13.0 12.5 M11.8 12.7 L11.45 12.75 11.45 13.35 11.75 13.4 11.75 13.25 11.8 12.7 M12.45 13.2 L12.45 13.15 12.4 13.15 12.45 13.2 M12.1 22.75 L11.85 25.4 13.3 25.3 14.45 24.45 14.45 24.4 13.7 24.25 13.35 23.85 13.2 23.85 12.95 23.95 12.9 23.7 12.85 23.55 13.05 23.45 13.2 23.4 13.2 23.15 13.15 23.05 12.75 23.0 12.15 22.8 12.1 22.75 M13.85 23.15 L13.6 23.55 13.7 23.65 13.75 23.75 13.75 23.8 13.9 23.85 14.35 23.95 14.6 23.9 14.7 24.0 14.8 24.15 15.3 24.55 15.85 24.9 Q16.7 25.3 17.3 26.0 L17.35 26.1 18.0 26.3 18.15 26.55 18.2 26.65 18.65 26.9 18.85 27.15 Q18.75 25.15 19.15 23.1 19.25 22.8 18.95 22.75 L18.4 22.65 16.7 22.2 16.2 22.0 14.4 21.25 Q14.0 22.05 13.85 22.95 L13.85 23.15 M12.7 25.8 L12.2 25.8 12.2 26.35 12.2 26.4 12.25 26.9 12.25 26.95 12.35 26.95 13.0 26.9 13.45 26.85 13.45 26.15 13.6 25.7 12.7 25.8 M13.75 27.4 L13.5 27.15 13.3 27.2 13.15 27.2 13.7 27.65 14.1 28.15 13.95 26.95 13.8 27.05 13.75 27.35 13.75 27.4" fill="#000000" fill-rule="evenodd" stroke="none"/>
    <path d="M14.3 12.9 L15.5 12.5 15.5 12.9 16.2 12.45 16.35 12.5 16.45 12.5 16.45 12.55 16.45 13.05 16.5 13.1 16.45 13.35 Q16.4 13.8 16.5 14.0 L16.55 14.1 16.6 14.25 16.8 14.55 16.95 15.0 16.35 15.15 15.95 15.35 15.5 15.95 Q15.15 14.7 14.05 14.15 L13.05 13.7 13.2 12.85 13.3 12.85 13.85 12.75 13.65 12.95 14.05 13.05 14.3 12.85 14.3 12.9 M11.8 12.7 L11.75 13.25 11.75 13.4 11.45 13.35 11.45 12.75 11.8 12.7" fill="#eedc9d" fill-rule="evenodd" stroke="none"/>
    <path d="M11.55 29.6 L5.8 29.6 6.15 28.8 Q6.45 28.1 7.1 27.6 L7.75 26.65 9.35 27.05 10.0 27.15 11.4 27.25 11.7 27.25 12.05 27.25 12.35 27.3 12.65 27.25 12.75 27.25 12.7 27.35 12.3 28.0 12.05 28.5 11.55 29.6 M20.55 19.6 L20.85 19.05 21.7 19.1 21.95 20.75 21.55 22.05 21.25 22.0 20.95 22.2 20.05 22.15 20.0 22.15 19.85 22.2 19.15 22.45 19.1 22.4 19.2 21.95 19.55 21.3 19.65 20.5 20.55 19.6 M9.4 14.85 L9.7 14.25 9.8 14.05 9.95 13.85 10.0 13.7 10.25 13.65 11.45 13.6 11.75 13.6 13.0 13.85 Q13.5 14.0 14.0 14.3 L14.45 14.5 15.0 15.55 15.3 16.4 15.1 16.95 14.1 17.0 14.0 16.85 13.7 16.3 13.5 16.05 12.3 15.05 10.4 14.8 10.0 14.85 9.55 14.9 9.4 14.9 9.4 14.85 M7.95 19.5 L8.35 19.85 8.75 20.15 9.05 20.45 9.0 20.45 8.85 20.35 8.6 20.3 8.45 20.25 8.45 20.2 8.35 20.0 7.95 19.55 7.85 19.5 7.95 19.5 M9.25 15.95 L9.9 15.65 Q10.35 15.4 10.85 15.3 L11.1 15.3 12.25 16.2 13.25 17.3 13.6 17.85 13.75 18.05 Q13.85 18.8 14.3 19.3 L15.2 20.3 15.5 20.65 15.55 20.65 Q15.3 20.95 15.35 21.25 L14.35 20.7 13.55 21.9 13.3 22.7 13.05 22.55 13.0 22.5 12.85 22.4 12.05 22.0 11.5 21.75 11.2 21.55 10.2 20.6 9.75 20.25 Q8.85 19.5 8.2 19.2 L7.8 18.3 7.75 17.15 7.75 16.9 8.0 16.75 9.25 15.95 M7.55 19.1 L7.6 19.15 7.55 19.1 M13.75 27.4 L13.75 27.35 13.8 27.05 13.95 26.95 14.1 28.15 13.7 27.65 13.15 27.2 13.3 27.2 13.5 27.15 13.75 27.4" fill="#ffffff" fill-rule="evenodd" stroke="none"/>
    <path d="M6.45 11.45 L7.6 11.4 10.45 10.85 14.3 9.8 16.3 9.45 17.25 9.45 21.4 10.25 21.15 10.25 Q19.55 10.3 17.9 10.85 L17.35 11.0 Q14.35 12.15 11.6 12.3 L11.5 12.3 10.25 12.35 6.55 11.75 6.45 11.8 6.5 11.7 6.5 11.65 6.45 11.5 6.45 11.45 M29.75 16.45 L29.75 18.55 29.25 18.55 28.95 18.1 28.95 18.05 28.9 17.7 29.1 17.4 Q29.3 17.15 29.6 17.0 L29.55 16.85 29.75 16.45 M29.75 18.85 L29.75 19.5 29.25 19.7 28.2 19.75 27.05 19.8 26.7 19.9 26.2 20.15 25.9 20.3 25.6 19.35 27.2 18.6 26.5 18.55 28.7 18.0 28.7 18.3 29.0 18.7 29.75 18.85 M11.25 8.8 Q11.45 8.2 11.15 7.75 11.95 7.25 12.9 7.0 L15.95 6.85 16.0 7.1 16.45 8.35 Q16.6 8.8 16.9 8.95 L16.85 8.95 16.65 8.95 11.6 10.2 11.4 9.2 11.3 8.95 11.25 8.8 M11.4 10.3 L10.65 10.5 10.55 10.55 10.15 10.7 10.55 10.25 10.8 9.95 10.8 9.9 11.3 10.2 11.4 10.3 M23.05 19.85 L23.1 19.9 23.05 19.9 23.05 19.85 M23.05 20.2 L25.3 19.5 25.7 20.7 Q25.85 21.0 25.6 21.05 23.75 21.85 22.3 22.95 L22.35 22.7 22.4 22.25 22.4 22.15 22.5 21.9 22.4 21.4 22.4 21.35 22.45 21.2 22.6 19.65 22.6 19.55 22.9 20.0 23.05 20.2 M20.45 17.25 Q20.35 17.8 20.4 18.4 L20.4 18.6 20.2 19.0 20.15 19.05 19.65 20.0 Q19.15 20.3 18.9 21.0 L18.85 21.4 18.8 21.45 18.7 22.05 18.7 22.35 16.8 21.85 16.4 21.7 15.65 21.4 15.9 21.05 16.1 20.65 16.35 20.15 16.65 19.45 16.7 19.4 Q16.95 18.5 16.3 17.65 L16.65 17.4 17.45 16.8 17.7 16.65 18.25 15.8 18.6 15.75 18.6 15.8 18.65 16.0 18.6 16.0 18.65 16.1 18.9 16.35 18.95 16.35 19.05 16.35 19.15 16.4 19.6 16.55 19.8 16.9 20.15 17.2 20.45 17.25 M9.15 15.25 L9.95 15.1 11.95 15.4 12.0 15.45 Q12.55 15.7 12.95 16.2 L13.05 16.35 13.75 17.1 13.65 17.15 11.65 15.45 11.4 15.3 9.5 15.4 9.15 15.55 9.15 15.25 M9.35 20.75 L9.55 20.85 9.6 20.9 9.25 20.7 9.35 20.75 M8.35 24.35 L8.35 24.15 7.8 21.4 7.55 19.7 Q7.95 20.35 8.9 20.95 L11.25 22.1 11.6 22.35 11.7 25.4 10.9 25.25 8.4 24.4 8.35 24.35 M7.3 24.65 L7.4 24.3 7.6 24.35 7.95 24.45 7.95 24.8 8.2 24.75 Q8.8 25.1 9.6 25.15 L10.05 25.45 11.7 25.8 11.7 25.95 11.6 26.15 11.55 26.45 11.55 26.5 11.7 27.0 11.35 27.0 11.2 27.0 10.3 26.9 9.8 26.85 9.75 26.8 9.45 26.75 7.05 25.85 7.15 25.55 7.25 25.15 7.3 24.65 M13.85 23.15 L13.85 22.95 Q14.0 22.05 14.4 21.25 L16.2 22.0 16.7 22.2 18.4 22.65 18.95 22.75 Q19.25 22.8 19.15 23.1 18.75 25.15 18.85 27.15 L18.65 26.9 18.2 26.65 18.15 26.55 18.0 26.3 17.35 26.1 17.3 26.0 Q16.7 25.3 15.85 24.9 L15.3 24.55 14.8 24.15 14.7 24.0 14.6 23.9 14.35 23.95 13.9 23.85 13.75 23.8 13.75 23.75 13.7 23.65 13.6 23.55 13.85 23.15 M12.1 22.75 L12.15 22.8 12.75 23.0 13.15 23.05 13.2 23.15 13.2 23.4 13.05 23.45 12.85 23.55 12.9 23.7 12.95 23.95 13.2 23.85 13.35 23.85 13.7 24.25 14.45 24.4 14.45 24.45 13.3 25.3 11.85 25.4 12.1 22.75" fill="#63492e" fill-rule="evenodd" stroke="none"/>
    <path d="M14.3 29.6 L12.85 29.6 12.55 28.5 12.8 27.5 12.95 27.7 Q13.35 28.35 13.9 28.65 L14.3 29.6" fill="#3c3e7d" fill-rule="evenodd" stroke="none"/>
    <path d="M12.7 25.8 L13.6 25.7 13.45 26.15 13.45 26.85 13.0 26.9 12.35 26.95 12.25 26.95 12.25 26.9 12.2 26.4 12.2 26.35 12.2 25.8 12.7 25.8" fill="#666666" fill-rule="evenodd" stroke="none"/>
    <path d="M23.05 19.85 L23.0 19.25 22.6 19.1 22.25 18.95 22.15 18.95 21.9 18.9 20.95 18.65 20.95 18.55 Q21.15 17.6 20.65 17.1 L21.55 16.95 22.15 16.9 22.4 16.85 22.8 16.85 25.15 16.6 27.85 16.45 28.35 16.4 29.2 16.35 Q28.75 17.05 28.7 17.75 L27.4 18.0 Q26.4 18.3 25.4 18.7 L25.35 18.7 25.1 18.8 Q24.0 19.1 23.1 19.9 L23.05 19.85 M16.05 17.4 L15.95 17.5 15.9 17.65 16.1 18.25 16.55 18.95 16.25 19.6 15.6 20.05 15.4 19.8 15.05 19.15 13.75 17.25 13.85 17.25 14.25 17.3 14.75 17.35 15.0 17.35 16.05 17.4" fill="#2b1f13" fill-rule="evenodd" stroke="none"/>
    <path d="M10.6 9.6 L10.15 8.9 Q9.25 8.5 8.5 7.65 8.2 7.3 8.6 7.15 9.45 7.3 10.05 7.75 10.55 8.15 10.6 8.8 L10.7 8.8 10.7 7.9 10.3 7.5 9.55 6.1 9.65 6.1 10.65 6.85 11.0 7.6 11.1 8.05 11.1 8.1 11.05 8.1 11.25 8.8 11.3 8.95 11.4 9.2 11.6 10.2 11.65 10.4 11.4 10.3 11.3 10.2 10.8 9.9 10.75 9.8 10.6 9.6" fill="#990000" fill-rule="evenodd" stroke="none"/>
  </g>
</svg>
