<?xml version="1.0" encoding="UTF-8" standalone="no"?>
<svg xmlns:xlink="http://www.w3.org/1999/xlink" height="32.3px" width="32.1px" xmlns="http://www.w3.org/2000/svg">
  <g transform="matrix(1.0, 0.0, 0.0, 1.0, -0.6, -0.3)">
    <path d="M29.85 0.7 L29.7 1.1 29.6 1.25 29.05 2.1 28.6 1.8 28.6 1.45 28.85 0.8 Q28.9 0.35 29.3 0.35 L29.4 0.4 Q29.85 0.1 29.85 0.7 M1.25 2.6 Q0.8 2.6 0.7 2.2 L0.7 1.7 Q0.7 1.15 1.45 0.65 2.2 0.2 2.2 0.95 L1.25 2.6 M1.85 29.35 L1.55 29.85 1.0 30.25 Q0.6 30.25 0.6 29.8 0.6 29.5 0.9 29.25 1.3 28.9 1.8 29.1 L1.85 29.35 M29.95 29.35 L29.8 29.95 29.4 30.25 Q28.95 30.25 28.95 29.8 28.95 29.4 29.45 29.0 29.95 28.55 29.95 29.35" fill="#ff6666" fill-rule="evenodd" stroke="none"/>
    <path d="M32.7 3.95 L32.7 4.35 31.45 4.6 Q30.2 4.6 30.2 4.2 30.2 3.9 30.7 3.65 L31.35 2.95 Q31.15 2.6 31.45 2.15 31.8 1.75 32.3 1.95 L32.7 3.95 M4.2 2.5 Q4.2 4.6 2.45 4.6 L2.05 4.55 Q1.95 4.05 2.1 3.9 L1.7 3.5 Q1.7 3.05 3.35 3.05 L3.9 2.1 Q4.2 1.65 4.2 2.5 M3.6 30.35 Q3.7 30.0 4.3 30.1 L4.35 32.05 Q4.25 32.6 3.75 32.6 L1.6 32.45 Q1.45 32.4 1.45 32.15 2.65 30.7 3.6 30.85 L3.6 30.35 M32.25 32.5 L31.25 32.5 30.25 32.5 29.85 32.05 30.05 31.8 31.3 31.25 31.2 30.65 Q31.2 30.25 31.55 29.8 31.95 29.25 32.25 29.95 L32.45 31.75 32.25 32.5" fill="#660000" fill-rule="evenodd" stroke="none"/>
    <path d="M24.0 18.8 L25.65 17.55 26.5 16.65 26.75 16.2 26.95 16.0 27.3 15.35 27.45 15.65 27.5 15.6 Q28.55 17.35 29.05 19.45 29.3 20.85 29.2 22.15 L29.3 22.65 29.2 23.5 29.15 23.55 29.2 23.75 28.2 23.4 26.55 22.55 25.9 22.5 25.05 23.05 23.15 23.95 22.75 24.15 22.6 24.45 22.2 24.65 21.9 25.2 20.35 25.25 17.7 26.45 17.4 26.2 17.15 26.35 Q17.1 26.8 16.2 26.9 L15.25 27.2 14.9 27.3 14.7 27.25 15.05 28.25 16.3 30.0 15.9 30.0 15.05 28.65 14.6 28.95 14.45 29.1 14.35 29.4 14.25 29.15 14.15 28.8 13.95 28.2 Q13.85 28.45 13.9 28.65 L13.9 29.95 13.9 30.0 13.3 30.0 13.3 29.95 13.35 29.8 Q13.3 28.75 13.65 27.8 L13.65 27.35 13.6 27.0 13.45 27.15 Q12.0 27.3 11.15 26.45 10.85 27.35 10.95 28.3 L10.95 28.35 11.9 30.0 11.35 30.0 10.8 28.9 10.5 30.0 10.2 30.0 Q10.05 28.95 10.55 27.8 L10.5 27.65 Q10.35 26.6 10.7 25.75 L10.65 25.6 10.05 25.5 7.5 25.1 6.7 24.9 6.5 25.05 Q5.8 25.6 5.5 26.25 L4.85 27.9 4.55 27.9 4.95 26.65 Q5.3 25.5 6.05 24.6 L4.65 24.05 4.6 23.95 4.7 23.9 4.85 23.65 4.0 23.25 5.2 22.2 5.35 21.75 5.55 21.65 Q5.2 21.1 5.35 20.4 L5.55 20.15 5.6 20.2 5.65 20.1 5.75 20.0 5.7 19.6 Q5.55 19.3 5.75 18.95 L6.1 18.1 5.65 17.15 Q5.65 16.7 6.7 14.7 L7.8 12.7 7.75 12.6 Q7.75 12.35 8.55 12.3 L8.85 11.75 8.9 11.55 9.0 11.1 8.15 11.45 8.05 11.45 7.85 11.5 7.75 11.45 7.75 11.3 8.1 10.25 8.4 9.8 8.4 9.7 8.55 9.55 Q8.25 9.25 8.4 7.8 8.75 5.35 10.7 4.55 11.05 4.25 12.1 4.1 13.8 3.85 15.15 4.8 L16.05 5.8 16.85 6.8 16.9 6.8 Q17.8 7.1 18.7 7.75 L18.65 7.85 18.5 7.9 18.4 7.85 16.3 8.45 15.5 9.5 15.5 10.6 15.75 11.0 15.95 11.25 Q16.0 11.75 15.6 11.9 L15.0 11.95 14.7 12.75 14.45 13.15 14.7 13.85 14.95 14.45 14.9 14.5 14.8 14.65 16.6 14.85 16.65 14.95 15.4 16.05 15.2 16.6 Q16.05 17.65 16.55 18.95 L16.55 18.9 16.55 18.8 16.55 18.65 16.65 18.6 16.8 18.5 16.85 18.6 16.85 18.65 16.9 18.8 Q18.0 18.8 18.85 19.7 L23.6 18.2 23.9 18.35 Q24.55 18.6 23.95 18.8 23.3 18.35 22.7 18.65 L19.65 19.8 18.9 20.05 18.45 20.15 17.45 20.5 17.0 20.65 16.6 20.8 16.25 20.95 24.0 18.8 M8.85 30.0 L7.4 30.0 6.1 29.7 6.1 30.0 5.9 30.0 5.9 29.65 5.65 29.55 5.65 29.1 5.95 29.2 6.1 29.25 8.85 30.0 M27.4 16.15 L27.2 16.4 25.45 18.5 25.7 18.9 Q26.55 20.45 26.25 22.15 L27.85 22.5 Q28.45 22.65 28.8 22.95 L28.75 22.75 28.85 22.2 28.6 19.8 Q28.25 17.85 27.4 16.15 M23.35 19.45 L22.3 19.8 Q23.0 20.35 22.95 21.25 L23.05 21.25 23.05 21.15 23.15 19.75 23.7 20.8 24.7 20.6 25.2 20.5 25.65 20.3 25.35 18.55 23.35 19.45 M24.45 22.95 L22.25 23.7 22.15 23.65 22.1 23.65 22.8 23.4 22.9 23.35 23.25 23.2 23.3 23.15 Q24.6 22.5 25.95 22.2 L25.9 22.15 26.0 22.1 25.65 20.55 23.8 21.25 23.1 21.5 22.25 21.85 21.85 22.0 21.75 22.05 21.05 22.25 20.65 22.4 20.55 22.4 Q20.0 22.5 19.6 22.75 L19.25 23.0 18.75 23.4 18.75 23.45 18.9 24.4 19.3 24.35 19.75 24.3 19.9 24.25 19.95 24.25 21.9 23.7 21.95 23.7 21.95 23.8 18.0 25.05 17.65 25.75 18.55 25.5 19.85 24.95 20.35 24.75 21.5 24.3 21.65 24.25 22.05 24.1 22.4 23.95 22.9 23.75 23.1 23.65 23.15 23.65 24.45 23.05 25.0 22.75 24.45 22.95 M21.7 20.15 L21.85 19.9 21.5 20.15 19.2 20.95 18.8 21.1 18.4 21.25 18.1 21.4 17.0 22.4 16.7 22.75 16.6 22.85 15.75 23.65 15.35 23.95 15.1 24.15 15.35 24.7 15.7 25.0 15.7 25.1 16.7 24.35 17.15 23.8 17.55 23.4 17.95 23.05 18.0 22.95 18.15 22.85 18.3 22.7 18.5 22.55 19.3 21.85 19.7 21.6 20.0 21.4 21.7 20.15 M16.65 24.85 L18.6 24.4 18.6 24.05 18.65 23.2 18.65 23.0 18.7 22.75 19.25 22.55 19.95 22.3 20.3 22.15 20.4 22.15 20.75 22.0 21.05 21.9 21.65 21.7 21.95 21.55 22.45 21.3 22.3 19.8 21.4 20.65 20.3 21.55 19.05 22.35 18.5 22.75 18.5 22.8 18.35 22.9 18.25 23.0 18.1 23.15 17.9 23.35 17.45 23.8 17.35 23.85 16.9 24.4 16.6 24.8 16.6 24.85 16.65 24.85 M21.7 24.65 L21.7 24.85 21.95 24.5 21.7 24.65 M10.55 4.85 Q8.95 5.75 8.7 7.85 L8.85 9.35 8.95 9.3 9.8 8.8 11.4 7.9 Q12.15 7.45 13.4 7.1 L12.95 6.1 11.65 5.2 10.8 4.85 10.7 5.0 10.55 4.85 M11.75 4.95 L13.05 5.8 13.65 7.1 16.15 6.8 16.55 6.8 15.7 5.8 Q14.7 4.6 13.2 4.4 11.8 4.2 11.05 4.7 L11.75 4.95 M13.5 8.05 L13.55 7.9 Q13.6 7.6 13.95 7.55 14.4 7.45 14.3 7.9 L13.85 8.25 13.5 8.05 M17.15 7.25 L17.15 7.6 16.7 7.9 16.4 7.75 16.3 7.65 16.3 7.4 16.35 7.35 Q16.4 7.1 16.75 7.1 L16.25 7.1 Q13.85 6.95 11.75 8.0 L8.95 9.75 8.75 9.8 8.35 10.75 9.0 10.35 9.45 10.15 9.5 10.15 9.8 10.0 9.8 9.95 9.5 9.8 9.5 9.55 Q9.5 9.35 9.85 9.35 10.1 9.4 10.15 9.55 L10.15 9.7 10.1 9.9 10.15 9.9 10.5 9.75 11.7 9.3 12.2 9.15 14.7 8.5 14.75 8.5 15.05 8.4 16.35 8.1 18.2 7.75 17.2 7.2 16.85 7.05 16.8 7.05 16.8 7.1 17.15 7.25 M14.9 8.9 L15.0 8.8 14.95 8.75 14.9 8.9 M12.95 9.55 L12.7 9.7 Q12.55 9.85 12.35 9.6 L12.5 9.4 11.95 9.55 11.9 9.55 11.55 10.9 11.35 11.25 13.25 11.95 14.2 12.7 14.3 12.5 14.7 11.9 14.65 11.9 Q14.8 11.7 15.1 11.6 L15.65 11.5 15.5 11.05 15.25 10.75 15.15 10.65 15.15 10.55 15.05 9.9 15.1 9.6 15.05 9.6 15.05 9.15 15.05 9.1 14.95 9.05 14.75 9.05 14.15 9.55 14.05 9.1 12.95 9.6 13.05 9.45 12.95 9.55 M12.0 8.85 L11.75 8.95 Q11.45 8.95 11.5 8.6 L11.9 8.25 Q12.2 8.25 12.15 8.6 L12.0 8.85 M11.15 9.95 L11.2 10.0 11.2 9.9 11.15 9.95 M10.15 10.65 Q10.05 10.85 10.2 10.85 L10.25 10.75 10.15 10.65 M10.25 10.45 L10.3 10.75 10.4 10.7 10.5 10.7 10.5 10.3 10.25 10.45 M11.0 11.45 L9.25 11.55 9.2 11.7 9.1 11.9 9.0 12.05 8.95 12.25 11.45 12.55 12.3 13.0 12.85 13.55 13.35 14.25 13.75 14.35 14.3 14.55 Q14.55 14.05 14.2 13.4 L14.15 13.3 14.0 13.0 13.6 12.35 13.15 12.1 Q12.3 11.6 11.25 11.5 L11.0 11.45 M16.65 7.55 L16.95 7.55 16.95 7.45 16.75 7.4 16.6 7.45 16.65 7.55 M9.25 13.35 L9.15 13.4 8.8 13.55 8.0 14.25 8.0 14.35 7.85 14.95 7.45 16.0 7.15 16.7 7.05 16.9 6.6 17.75 6.5 18.2 6.4 18.8 6.3 19.55 6.25 19.7 6.2 19.75 5.9 20.45 5.85 20.8 5.75 21.05 5.95 21.35 Q7.45 20.2 8.55 18.7 L8.55 18.55 8.65 18.4 8.8 18.3 9.0 18.3 9.05 18.4 9.05 18.45 9.0 18.65 Q9.8 18.8 10.4 19.25 L10.6 19.1 10.8 18.85 Q11.55 18.15 11.95 17.15 L12.45 15.85 12.35 15.6 11.35 14.35 10.0 13.2 9.25 13.35 M10.1 12.8 Q12.2 13.95 12.55 16.15 L12.5 16.4 Q11.95 18.2 10.85 19.7 L11.3 20.35 10.7 21.15 12.55 22.75 13.55 22.55 14.1 22.1 13.45 22.05 Q12.7 21.65 12.75 20.85 L15.15 21.05 15.45 20.25 15.75 19.45 15.6 19.15 13.85 17.9 13.9 17.8 13.95 17.8 14.1 17.9 14.6 18.1 Q14.85 18.2 15.1 18.4 L15.45 18.65 15.25 18.15 14.95 17.0 15.0 16.9 14.9 16.95 Q14.75 16.9 14.75 16.65 L14.75 16.55 14.9 16.25 15.0 16.15 15.0 16.05 14.65 15.95 14.5 15.9 14.2 15.8 14.15 15.8 14.05 15.75 13.75 15.25 13.65 15.1 13.1 14.2 Q12.55 13.35 11.65 12.95 11.1 12.6 10.35 12.6 L9.95 12.55 8.8 12.6 8.2 12.7 8.05 12.75 7.1 14.2 Q6.0 15.95 5.95 17.2 L6.25 17.75 6.6 16.65 6.85 15.95 Q7.0 15.45 7.3 15.05 7.15 14.75 7.45 14.55 L7.6 14.15 7.65 14.1 7.2 14.75 7.0 15.05 7.45 14.2 7.65 13.95 7.65 13.85 8.05 13.45 8.35 13.1 10.0 12.85 10.1 12.8 M8.65 19.25 L8.6 19.2 6.25 21.75 5.9 22.05 5.45 22.4 5.3 22.65 4.3 23.25 7.45 24.2 7.55 23.55 7.6 23.3 7.65 23.05 7.8 22.55 Q8.3 20.8 9.8 19.6 L8.65 19.25 M9.15 20.75 Q8.2 21.4 7.9 22.6 L7.8 23.05 7.75 23.4 7.75 23.6 7.65 24.25 8.35 24.45 8.75 23.85 8.8 23.75 10.8 20.25 10.05 19.85 9.2 20.7 9.15 20.75 M6.2 24.4 L6.95 24.65 5.15 23.8 4.95 24.0 5.85 24.25 6.2 24.4 M9.75 23.35 L9.4 23.2 9.75 24.4 9.75 23.35 M9.4 24.3 L9.25 23.5 8.95 24.1 9.4 24.3 M15.95 15.1 L14.4 14.85 14.15 14.8 13.85 14.7 13.45 14.5 13.85 15.1 14.0 15.3 14.15 15.6 14.35 15.65 15.0 15.7 15.3 15.75 Q15.45 15.45 15.95 15.1 M15.05 21.35 L13.0 21.2 13.25 21.7 14.9 21.6 15.4 21.5 15.6 21.5 16.8 21.25 17.05 21.2 18.3 20.8 18.4 20.75 18.3 20.8 17.45 20.95 17.1 21.05 16.85 21.1 16.5 21.15 15.75 21.3 15.25 21.35 15.05 21.35 M11.4 23.1 L10.85 23.4 10.8 23.45 11.05 23.6 12.5 23.15 12.0 22.85 11.4 23.1 M11.25 22.4 L9.45 23.05 10.2 23.3 11.75 22.6 11.35 22.25 11.25 22.4 M11.25 24.1 L11.1 24.0 10.95 25.1 10.95 25.45 11.3 25.7 11.25 25.75 11.3 25.85 Q11.65 26.45 12.35 26.55 L12.65 26.35 13.1 26.35 13.25 25.9 13.7 25.9 13.9 25.4 14.2 25.2 14.45 24.1 14.4 23.9 14.35 23.75 13.15 23.6 12.05 24.45 11.45 24.5 11.3 25.65 11.2 25.4 11.2 24.75 11.15 24.55 Q11.15 24.15 11.35 24.2 L11.25 24.1 M11.6 24.2 L13.05 23.45 12.75 23.2 11.25 23.75 11.45 24.0 11.6 24.2 M14.25 22.75 L14.85 23.65 15.05 23.6 15.4 23.3 16.65 22.1 16.8 21.95 17.25 21.45 16.9 21.6 16.7 21.65 Q15.85 21.95 15.0 22.35 L14.25 22.75 M14.35 22.1 L14.3 22.1 14.3 22.2 14.35 22.1 M13.0 23.05 L14.25 23.6 13.9 22.85 13.0 23.05 M10.45 21.45 L9.55 22.85 11.2 22.2 10.45 21.45 M17.9 19.65 L17.65 20.1 18.45 19.85 17.9 19.65 M16.7 19.4 L16.4 20.1 16.2 20.5 17.2 20.25 17.7 19.45 16.75 19.35 16.7 19.35 16.7 19.4 M16.0 19.45 L15.6 20.6 15.8 20.55 16.2 19.8 16.0 19.45 M15.45 21.05 L15.5 20.85 15.4 21.05 15.45 21.05 M9.85 23.45 L10.2 24.6 10.75 24.95 10.85 23.75 9.85 23.45 M16.75 25.6 L16.5 25.3 16.0 25.9 16.75 25.6 M15.8 25.7 L15.8 25.5 Q15.35 25.55 15.8 25.7 M17.15 25.9 L17.5 25.1 17.1 25.2 17.15 25.9 14.95 26.6 15.2 26.6 15.5 26.55 17.15 25.9 M15.25 25.05 L14.5 24.65 14.4 25.25 15.15 25.35 15.25 25.35 15.25 25.05 M14.8 26.25 L14.8 26.3 15.65 25.95 15.05 25.85 14.8 26.25 M14.35 25.65 L14.3 25.55 14.15 25.4 13.95 25.55 13.9 25.7 13.9 25.8 13.9 26.1 14.1 26.2 14.25 26.1 14.4 25.85 14.35 25.65 M13.65 26.15 L13.4 26.05 13.3 26.7 13.65 26.6 13.8 26.15 13.65 26.15 M14.35 26.55 L14.35 26.7 14.45 26.7 14.6 26.7 14.5 26.55 14.35 26.55 M14.1 27.1 L14.2 27.3 14.3 27.75 14.4 28.55 14.75 28.3 14.7 28.2 14.25 27.35 14.1 27.1 M10.0 25.25 L10.45 25.35 8.75 24.45 8.25 25.0 10.0 25.25 M21.25 24.85 L21.25 24.9 21.4 24.75 21.3 24.8 21.25 24.85" fill="#000000" fill-rule="evenodd" stroke="none"/>
    <path d="M21.7 24.65 L21.95 24.5 21.7 24.85 21.7 24.65 M12.95 9.6 L14.05 9.1 14.15 9.55 14.75 9.05 14.95 9.05 15.05 9.1 15.05 9.15 15.05 9.6 15.1 9.6 15.05 9.9 15.15 10.55 15.15 10.65 15.25 10.75 15.5 11.05 15.65 11.5 15.1 11.6 Q14.8 11.7 14.65 11.9 L14.7 11.9 14.3 12.5 14.2 12.7 13.25 11.95 11.35 11.25 11.55 10.9 11.9 9.55 11.95 9.55 12.5 9.4 12.35 9.6 Q12.55 9.85 12.7 9.7 L12.95 9.55 12.95 9.6 M10.25 10.45 L10.5 10.3 10.5 10.7 10.4 10.7 10.3 10.75 10.25 10.45 M13.0 23.05 L13.9 22.85 14.25 23.6 13.0 23.05 M15.25 25.05 L15.25 25.35 15.15 25.35 14.4 25.25 14.5 24.65 15.25 25.05 M13.65 26.15 L13.8 26.15 13.65 26.6 13.3 26.7 13.4 26.05 13.65 26.15 M14.35 25.65 L14.4 25.85 14.25 26.1 14.1 26.2 13.9 26.1 13.9 25.8 13.9 25.7 13.95 25.55 14.15 25.4 14.3 25.55 14.35 25.65 M21.25 24.85 L21.3 24.8 21.4 24.75 21.25 24.9 21.25 24.85" fill="#eedc9d" fill-rule="evenodd" stroke="none"/>
    <path d="M10.2 30.0 L8.85 30.0 6.1 29.25 5.95 29.2 5.65 29.1 5.65 27.9 4.85 27.9 5.5 26.25 Q5.8 25.6 6.5 25.05 L6.7 24.9 7.5 25.1 10.05 25.5 10.65 25.6 10.7 25.75 Q10.35 26.6 10.5 27.65 L10.55 27.8 Q10.05 28.95 10.2 30.0 M11.0 11.45 L11.25 11.5 Q12.3 11.6 13.15 12.1 L13.6 12.35 14.0 13.0 14.15 13.3 14.2 13.4 Q14.55 14.05 14.3 14.55 L13.75 14.35 13.35 14.25 12.85 13.55 12.3 13.0 11.45 12.55 8.95 12.25 9.0 12.05 9.1 11.9 9.2 11.7 9.25 11.55 11.0 11.45 M9.25 13.35 L10.0 13.2 11.35 14.35 12.35 15.6 12.45 15.85 11.95 17.15 Q11.55 18.15 10.8 18.85 L10.6 19.1 10.4 19.25 Q9.8 18.8 9.0 18.65 L9.05 18.45 9.05 18.4 9.0 18.3 8.8 18.3 8.65 18.4 8.55 18.55 8.55 18.7 Q7.45 20.2 5.95 21.35 L5.75 21.05 5.85 20.8 5.9 20.45 6.2 19.75 6.25 19.7 6.3 19.55 6.4 18.8 6.5 18.2 6.6 17.75 7.05 16.9 7.15 16.7 7.45 16.0 7.85 14.95 8.0 14.35 8.0 14.25 8.8 13.55 9.15 13.4 9.25 13.35 M15.45 21.05 L15.4 21.05 15.5 20.85 15.45 21.05 M16.0 19.45 L16.2 19.8 15.8 20.55 15.6 20.6 16.0 19.45 M14.1 27.1 L14.25 27.35 14.7 28.2 14.75 28.3 14.4 28.55 14.3 27.75 14.2 27.3 14.1 27.1" fill="#ffffff" fill-rule="evenodd" stroke="none"/>
    <path d="M9.15 20.75 L9.2 20.7 10.05 19.85 10.8 20.25 8.8 23.75 8.75 23.85 8.35 24.45 7.65 24.25 7.75 23.6 7.75 23.4 7.8 23.05 7.9 22.6 Q8.2 21.4 9.15 20.75 M8.65 19.25 L9.8 19.6 Q8.3 20.8 7.8 22.55 L7.65 23.05 7.6 23.3 7.55 23.55 7.45 24.2 4.3 23.25 5.3 22.65 5.45 22.4 5.9 22.05 6.25 21.75 8.6 19.2 8.65 19.25 M9.4 24.3 L8.95 24.1 9.25 23.5 9.4 24.3 M9.75 23.35 L9.75 24.4 9.4 23.2 9.75 23.35 M11.6 24.2 L11.45 24.0 11.25 23.75 12.75 23.2 13.05 23.45 11.6 24.2 M11.25 24.1 L11.35 24.2 Q11.15 24.15 11.15 24.55 L11.2 24.75 11.2 25.4 11.3 25.65 11.45 24.5 12.05 24.45 13.15 23.6 14.35 23.75 14.4 23.9 14.45 24.1 14.2 25.2 13.9 25.4 13.7 25.9 13.25 25.9 13.1 26.35 12.65 26.35 12.35 26.55 Q11.65 26.45 11.3 25.85 L11.25 25.75 11.3 25.7 10.95 25.45 10.95 25.1 11.1 24.0 11.25 24.1 M11.25 22.4 L11.35 22.25 11.75 22.6 10.2 23.3 9.45 23.05 11.25 22.4 M11.4 23.1 L12.0 22.85 12.5 23.15 11.05 23.6 10.8 23.45 10.85 23.4 11.4 23.1 M16.7 19.4 L16.7 19.35 16.75 19.35 17.7 19.45 17.2 20.25 16.2 20.5 16.4 20.1 16.7 19.4 M17.9 19.65 L18.45 19.85 17.65 20.1 17.9 19.65 M10.45 21.45 L11.2 22.2 9.55 22.85 10.45 21.45 M9.85 23.45 L10.85 23.75 10.75 24.95 10.2 24.6 9.85 23.45" fill="#666666" fill-rule="evenodd" stroke="none"/>
    <path d="M15.9 30.0 L13.9 30.0 13.9 29.95 13.9 28.65 Q13.85 28.45 13.95 28.2 L14.15 28.8 14.25 29.15 14.35 29.4 14.45 29.1 14.6 28.95 15.05 28.65 15.9 30.0 M11.35 30.0 L10.5 30.0 10.8 28.9 11.35 30.0 M7.4 30.0 L6.1 30.0 6.1 29.7 7.4 30.0" fill="#3c3e7d" fill-rule="evenodd" stroke="none"/>
    <path d="M13.3 30.0 L11.9 30.0 10.95 28.35 10.95 28.3 Q10.85 27.35 11.15 26.45 12.0 27.3 13.45 27.15 L13.6 27.0 13.65 27.35 13.65 27.8 Q13.3 28.75 13.35 29.8 L13.3 29.95 13.3 30.0 M23.95 18.8 L24.0 18.8 16.25 20.95 16.6 20.8 17.0 20.65 17.45 20.5 18.45 20.15 18.9 20.05 19.65 19.8 22.7 18.65 Q23.3 18.35 23.95 18.8 M27.4 16.15 Q28.25 17.85 28.6 19.8 L28.85 22.2 28.75 22.75 28.8 22.95 Q28.45 22.65 27.85 22.5 L26.25 22.15 Q26.55 20.45 25.7 18.9 L25.45 18.5 27.2 16.4 27.4 16.15 M23.35 19.45 L23.15 19.75 23.05 21.15 23.05 21.25 22.95 21.25 Q23.0 20.35 22.3 19.8 L23.35 19.45 M24.45 23.05 L23.15 23.65 23.1 23.65 22.9 23.75 22.4 23.95 22.05 24.1 21.65 24.25 21.5 24.3 20.35 24.75 19.85 24.95 18.55 25.5 17.65 25.75 18.0 25.05 21.95 23.8 21.95 23.7 21.9 23.7 19.95 24.25 19.9 24.25 19.75 24.3 19.3 24.35 18.9 24.4 18.75 23.45 18.75 23.4 19.25 23.0 19.6 22.75 Q20.0 22.5 20.55 22.4 L20.65 22.4 21.05 22.25 21.75 22.05 21.85 22.0 22.25 21.85 23.1 21.5 23.8 21.25 25.65 20.55 26.0 22.1 25.9 22.15 25.95 22.2 Q24.6 22.5 23.3 23.15 L23.25 23.2 22.9 23.35 22.8 23.4 22.1 23.65 22.15 23.65 22.25 23.7 24.45 22.95 24.45 23.05 M21.7 20.15 L20.0 21.4 19.7 21.6 19.3 21.85 18.5 22.55 18.3 22.7 18.15 22.85 18.0 22.95 17.95 23.05 17.55 23.4 17.15 23.8 16.7 24.35 15.7 25.1 15.7 25.0 15.35 24.7 15.1 24.15 15.35 23.95 15.75 23.65 16.6 22.85 16.7 22.75 17.0 22.4 18.1 21.4 18.4 21.25 18.8 21.1 19.2 20.95 21.5 20.15 21.85 19.9 21.7 20.15 M16.65 24.85 L16.6 24.85 16.6 24.8 16.65 24.85 M17.2 7.2 L18.2 7.75 16.35 8.1 15.05 8.4 14.75 8.5 14.7 8.5 12.2 9.15 11.7 9.3 10.5 9.75 10.15 9.9 10.1 9.9 10.15 9.7 10.15 9.55 Q10.1 9.4 9.85 9.35 9.5 9.35 9.5 9.55 L9.5 9.8 9.8 9.95 9.8 10.0 9.5 10.15 9.45 10.15 9.0 10.35 8.35 10.75 8.75 9.8 8.95 9.75 11.75 8.0 Q13.85 6.95 16.25 7.1 L16.75 7.1 Q16.4 7.1 16.35 7.35 L16.3 7.4 16.3 7.65 16.4 7.75 16.7 7.9 17.15 7.6 17.15 7.25 17.2 7.2 M13.5 8.05 L13.85 8.25 14.3 7.9 Q14.4 7.45 13.95 7.55 13.6 7.6 13.55 7.9 L13.5 8.05 M11.75 4.95 L11.05 4.7 Q11.8 4.2 13.2 4.4 14.7 4.6 15.7 5.8 L16.55 6.8 16.15 6.8 13.65 7.1 13.05 5.8 11.75 4.95 M10.55 4.85 L10.7 5.0 10.8 4.85 11.65 5.2 12.95 6.1 13.4 7.1 Q12.15 7.45 11.4 7.9 L9.8 8.8 8.95 9.3 8.85 9.35 8.7 7.85 Q8.95 5.75 10.55 4.85 M12.0 8.85 L12.15 8.6 Q12.2 8.25 11.9 8.25 L11.5 8.6 Q11.45 8.95 11.75 8.95 L12.0 8.85 M10.1 12.8 L10.0 12.85 8.35 13.1 8.05 13.45 7.65 13.85 7.65 13.95 7.45 14.2 7.0 15.05 7.2 14.75 7.65 14.1 7.6 14.15 7.45 14.55 Q7.15 14.75 7.3 15.05 7.0 15.45 6.85 15.95 L6.6 16.65 6.25 17.75 5.95 17.2 Q6.0 15.95 7.1 14.2 L8.05 12.75 8.2 12.7 8.8 12.6 9.95 12.55 10.35 12.6 Q11.1 12.6 11.65 12.95 12.55 13.35 13.1 14.2 L13.65 15.1 13.75 15.25 14.05 15.75 14.15 15.8 14.2 15.8 14.5 15.9 14.65 15.95 15.0 16.05 15.0 16.15 14.9 16.25 14.75 16.55 14.75 16.65 Q14.75 16.9 14.9 16.95 L15.0 16.9 14.95 17.0 15.25 18.15 15.45 18.65 15.1 18.4 Q14.85 18.2 14.6 18.1 L14.1 17.9 13.95 17.8 13.9 17.8 13.85 17.9 15.6 19.15 15.75 19.45 15.45 20.25 15.15 21.05 12.75 20.85 Q12.7 21.65 13.45 22.05 L14.1 22.1 13.55 22.55 12.55 22.75 10.7 21.15 11.3 20.35 10.85 19.7 Q11.95 18.2 12.5 16.4 L12.55 16.15 Q12.2 13.95 10.1 12.8 M6.2 24.4 L5.85 24.25 4.95 24.0 5.15 23.8 6.95 24.65 6.2 24.4 M15.95 15.1 Q15.45 15.45 15.3 15.75 L15.0 15.7 14.35 15.65 14.15 15.6 14.0 15.3 13.85 15.1 13.45 14.5 13.85 14.7 14.15 14.8 14.4 14.85 15.95 15.1 M15.05 21.35 L15.25 21.35 15.75 21.3 16.5 21.15 16.85 21.1 17.1 21.05 17.45 20.95 18.3 20.8 18.4 20.75 18.3 20.8 17.05 21.2 16.8 21.25 15.6 21.5 15.4 21.5 14.9 21.6 13.25 21.7 13.0 21.2 15.05 21.35 M14.35 22.1 L14.3 22.2 14.3 22.1 14.35 22.1 M17.15 25.9 L15.5 26.55 15.2 26.6 14.95 26.6 17.15 25.9 17.1 25.2 17.5 25.1 17.15 25.9 M15.8 25.7 Q15.35 25.55 15.8 25.5 L15.8 25.7 M14.35 26.55 L14.5 26.55 14.6 26.7 14.45 26.7 14.35 26.7 14.35 26.55 M10.0 25.25 L8.25 25.0 8.75 24.45 10.45 25.35 10.0 25.25" fill="#999999" fill-rule="evenodd" stroke="none"/>
    <path d="M23.15 19.75 L23.35 19.45 25.35 18.55 25.65 20.3 25.2 20.5 24.7 20.6 23.7 20.8 23.15 19.75 M22.3 19.8 L22.45 21.3 21.95 21.55 21.65 21.7 21.05 21.9 20.75 22.0 20.4 22.15 20.3 22.15 19.95 22.3 19.25 22.55 18.7 22.75 18.65 23.0 18.65 23.2 18.6 24.05 18.6 24.4 16.65 24.85 16.6 24.8 16.9 24.4 17.35 23.85 17.45 23.8 17.9 23.35 18.1 23.15 18.25 23.0 18.35 22.9 18.5 22.8 18.5 22.75 19.05 22.35 20.3 21.55 21.4 20.65 22.3 19.8 M14.25 22.75 L15.0 22.35 Q15.85 21.95 16.7 21.65 L16.9 21.6 17.25 21.45 16.8 21.95 16.65 22.1 15.4 23.3 15.05 23.6 14.85 23.65 14.25 22.75" fill="#5a371d" fill-rule="evenodd" stroke="none"/>
    <path d="M24.45 23.05 L24.45 22.95 25.0 22.75 24.45 23.05" fill="#333333" fill-rule="evenodd" stroke="none"/>
  </g>
</svg>
