<?xml version="1.0" encoding="UTF-8" standalone="no"?>
<svg xmlns:xlink="http://www.w3.org/1999/xlink" height="32.3px" width="32.1px" xmlns="http://www.w3.org/2000/svg">
  <g transform="matrix(1.0, 0.0, 0.0, 1.0, -0.6, -0.3)">
    <path d="M29.85 0.7 L29.7 1.1 29.6 1.25 29.05 2.1 28.6 1.8 28.6 1.45 28.85 0.8 Q28.9 0.35 29.3 0.35 L29.4 0.4 Q29.85 0.1 29.85 0.7 M1.25 2.6 Q0.8 2.6 0.7 2.2 L0.7 1.7 Q0.7 1.15 1.45 0.65 2.2 0.2 2.2 0.95 L1.25 2.6 M1.85 29.35 L1.55 29.85 1.0 30.25 Q0.6 30.25 0.6 29.8 0.6 29.5 0.9 29.25 1.3 28.9 1.8 29.1 L1.85 29.35 M29.95 29.35 L29.8 29.95 29.4 30.25 Q28.95 30.25 28.95 29.8 28.95 29.4 29.45 29.0 29.95 28.55 29.95 29.35" fill="#ff6666" fill-rule="evenodd" stroke="none"/>
    <path d="M32.7 3.95 L32.7 4.35 31.45 4.6 Q30.2 4.6 30.2 4.2 30.2 3.9 30.7 3.65 L31.35 2.95 Q31.15 2.6 31.45 2.15 31.8 1.75 32.3 1.95 L32.7 3.95 M4.2 2.5 Q4.2 4.6 2.45 4.6 L2.05 4.55 Q1.95 4.05 2.1 3.9 L1.7 3.5 Q1.7 3.05 3.35 3.05 L3.9 2.1 Q4.2 1.65 4.2 2.5 M3.6 30.35 Q3.7 30.0 4.3 30.1 L4.35 32.05 Q4.25 32.6 3.75 32.6 L1.6 32.45 Q1.45 32.4 1.45 32.15 2.65 30.7 3.6 30.85 L3.6 30.35 M32.25 32.5 L31.25 32.5 30.25 32.5 29.85 32.05 30.05 31.8 31.3 31.25 31.2 30.65 Q31.2 30.25 31.55 29.8 31.95 29.25 32.25 29.95 L32.45 31.75 32.25 32.5" fill="#660000" fill-rule="evenodd" stroke="none"/>
    <path d="M3.15 11.85 L3.15 10.8 3.2 10.7 3.2 10.5 3.3 10.5 3.5 10.45 3.65 10.45 6.0 10.5 6.8 10.6 6.8 10.7 6.8 10.9 7.0 11.05 7.1 11.15 7.1 11.5 7.15 11.5 7.45 11.5 7.6 11.5 7.6 11.6 7.7 11.7 7.7 11.85 7.8 11.95 7.9 11.85 7.7 11.6 7.6 10.9 7.55 10.95 7.45 10.95 7.15 10.95 Q6.7 10.9 6.7 9.25 L6.55 9.1 6.8 8.8 7.25 8.7 7.15 8.1 Q7.25 7.2 7.45 6.85 L7.6 6.55 7.7 6.4 Q8.15 5.95 9.15 5.4 L10.95 4.4 Q11.05 3.9 12.35 4.4 L14.55 5.3 14.7 5.15 14.8 5.5 14.7 5.5 14.55 5.65 Q14.9 5.75 14.9 6.55 L15.0 7.2 15.4 7.85 15.5 8.0 15.35 8.35 15.35 8.45 15.15 9.35 15.25 10.45 15.4 10.45 15.4 10.6 13.35 12.65 13.25 12.6 12.9 12.65 12.8 12.85 12.35 12.75 12.3 12.85 12.1 13.05 Q12.75 14.0 13.0 15.35 L13.1 16.35 13.2 16.7 Q13.55 16.6 13.8 16.9 L14.7 17.7 14.1 18.4 14.45 19.05 14.55 19.2 15.8 18.4 20.35 20.85 20.25 21.1 Q20.9 21.2 21.35 21.65 L21.15 22.25 Q22.35 22.25 23.15 22.9 L23.05 23.8 22.95 23.9 22.7 24.05 26.3 25.95 27.1 25.4 Q27.35 25.75 27.2 26.15 L27.0 26.4 27.55 27.1 27.0 27.45 23.75 26.5 23.7 26.95 Q21.9 26.95 20.2 26.05 L19.3 25.7 18.55 25.4 Q17.85 26.2 17.6 27.4 L15.25 27.1 Q15.5 25.7 16.4 24.4 L13.7 23.35 13.55 23.55 14.0 24.0 13.9 24.7 13.7 24.85 Q12.55 25.05 11.9 26.15 L11.05 26.5 Q10.05 26.3 9.4 25.85 L8.6 25.4 8.45 26.2 Q10.2 27.55 11.2 30.0 L11.25 30.1 10.9 30.1 Q9.95 27.95 8.35 26.4 L8.05 26.15 8.0 26.15 7.45 25.75 7.25 25.6 7.0 25.4 6.7 25.25 6.65 25.25 5.65 25.15 5.45 25.15 4.95 25.15 4.5 25.15 3.75 25.5 3.6 25.6 3.4 25.6 3.4 25.7 3.15 25.85 3.15 24.9 3.2 24.95 3.4 25.15 3.5 25.05 4.2 24.8 4.4 24.8 5.1 24.8 6.45 24.8 6.8 24.85 6.8 24.7 7.0 24.35 5.75 23.55 5.1 23.15 5.0 23.1 5.1 23.55 5.2 23.45 5.3 23.45 5.4 23.7 5.3 23.8 5.2 23.8 5.2 23.9 4.95 23.7 4.4 22.7 4.2 22.55 3.65 22.25 3.4 22.8 3.15 23.65 3.15 22.15 3.2 22.0 3.15 21.95 3.15 21.35 3.3 21.65 3.75 22.1 4.2 22.45 4.3 22.45 4.95 22.8 5.0 22.8 6.0 23.25 6.1 23.25 7.25 23.8 7.45 23.9 7.55 23.7 8.45 22.35 6.25 19.3 3.75 18.6 4.05 18.5 3.15 17.8 3.15 17.55 3.75 17.95 4.2 18.4 4.75 18.4 5.3 18.6 6.55 19.15 7.45 19.95 7.7 18.95 6.65 18.3 6.35 18.15 5.4 17.35 5.2 17.15 4.95 16.8 4.85 16.7 4.65 16.55 4.65 16.45 4.2 15.9 4.05 16.0 3.85 16.15 Q4.1 15.55 3.5 15.9 L3.3 15.9 3.2 15.85 3.6 15.35 3.75 15.1 4.3 15.25 4.55 15.25 4.65 15.25 Q5.0 14.0 5.8 13.2 L5.75 13.1 5.7 13.15 Q5.9 12.65 6.2 12.4 L4.85 12.2 4.2 11.95 3.15 11.85 M8.6 30.1 L8.1 30.1 7.7 29.55 7.25 28.75 6.9 28.65 6.9 28.9 7.15 29.0 7.8 30.1 7.35 30.1 7.0 29.35 7.0 30.1 6.65 30.1 6.65 30.0 Q6.65 29.25 6.8 28.65 L6.8 28.55 6.65 28.55 6.25 28.55 Q5.65 28.65 5.0 29.0 L4.95 28.9 4.9 28.95 4.9 28.7 Q5.4 28.35 6.0 28.3 L6.25 28.2 6.35 28.2 6.7 28.2 7.1 28.3 7.8 28.8 8.6 30.1 M20.65 22.35 L21.1 21.8 20.2 21.55 20.1 22.2 22.4 23.9 22.8 23.35 20.65 22.35 M13.9 8.1 L15.05 8.1 15.05 8.0 14.9 8.0 14.45 5.75 14.45 5.65 Q11.9 4.6 11.05 4.6 10.4 4.85 9.7 5.3 9.0 5.65 8.65 6.1 L8.6 6.1 8.5 6.25 8.45 6.3 8.25 6.2 8.25 6.5 8.15 6.55 8.05 6.55 7.9 6.65 7.7 6.75 7.45 7.9 7.45 8.0 7.45 8.2 7.55 8.35 7.55 8.55 7.35 8.65 7.45 8.7 7.9 9.1 7.15 9.1 6.9 9.15 7.15 10.5 7.15 10.6 Q7.45 10.25 8.6 10.15 L10.75 10.05 10.5 9.55 10.6 9.35 10.6 9.25 10.75 8.65 9.85 8.7 8.0 9.1 8.15 9.0 8.25 8.65 9.25 8.65 9.7 8.45 9.75 8.45 9.95 8.65 9.95 8.45 10.15 8.45 10.3 8.25 11.75 8.25 11.85 8.1 12.9 8.1 13.65 8.25 13.9 8.1 M11.5 8.45 L11.4 8.55 11.2 8.55 10.85 9.55 11.1 9.9 11.2 10.05 12.2 9.9 14.15 10.25 14.35 9.8 Q14.55 9.55 14.9 9.55 L14.8 9.35 15.05 8.45 11.85 8.45 11.5 8.45 M11.5 10.8 L11.4 10.8 11.1 10.45 10.95 10.45 11.05 10.25 10.6 10.35 10.85 11.25 Q11.2 11.85 12.2 12.3 12.35 12.2 12.45 12.2 L13.55 12.05 14.0 11.5 14.9 10.6 14.9 9.7 Q14.6 9.9 14.55 10.45 L13.25 10.7 11.55 10.5 11.55 10.6 11.5 10.8 M10.4 10.9 L10.5 10.7 10.3 10.45 10.3 10.35 10.15 10.45 9.15 10.35 Q8.25 10.45 8.0 10.7 L7.9 10.7 7.7 10.9 7.9 11.25 7.9 11.3 8.0 11.3 Q8.35 11.6 9.25 11.75 9.5 12.05 9.85 12.2 L9.4 12.15 8.5 12.05 9.15 12.4 9.5 12.5 10.5 13.1 11.2 13.05 11.2 12.95 10.95 12.75 10.85 12.65 Q11.1 12.85 11.4 12.85 L11.5 12.75 11.75 12.6 11.85 12.6 11.9 12.65 11.9 12.5 10.85 11.5 10.4 10.9 M4.4 10.6 L4.1 10.7 3.5 10.8 3.5 10.9 3.4 11.25 3.4 11.5 4.75 11.7 6.45 12.15 6.55 12.05 6.65 12.15 6.65 11.95 6.8 11.95 6.8 11.5 6.8 11.25 Q5.8 10.45 4.4 10.6 M7.45 11.95 L7.45 11.85 Q7.15 11.75 7.1 11.95 L7.1 12.2 7.55 12.05 7.45 11.95 M10.75 16.35 L10.85 16.15 11.05 14.9 10.85 13.75 10.75 13.55 10.65 13.3 8.05 12.05 7.7 12.3 7.35 12.6 7.0 12.75 5.65 14.2 5.45 14.45 4.95 15.2 4.4 15.8 4.85 16.25 5.0 16.45 5.3 16.7 5.45 16.9 6.65 17.85 6.9 18.15 7.9 18.75 8.95 17.6 9.3 17.35 9.5 17.25 10.3 16.8 10.65 16.55 10.75 16.55 10.75 16.35 M9.95 18.15 L9.85 18.05 9.85 17.95 9.75 17.95 8.0 18.95 8.05 19.6 7.7 20.3 7.9 20.75 8.15 20.75 8.5 20.75 8.6 20.75 8.95 20.75 9.4 20.75 9.75 20.85 10.4 20.9 10.65 20.5 10.95 20.5 11.65 20.4 11.85 19.95 11.55 19.3 11.5 19.05 11.4 18.95 11.1 18.85 10.05 18.15 9.95 18.05 9.95 18.15 M4.3 12.6 L4.2 12.6 3.95 13.1 3.15 14.0 3.15 13.8 Q3.95 13.05 4.2 11.95 L4.3 12.6 M8.15 21.0 L8.0 21.0 8.05 21.3 8.25 21.45 8.15 21.0 M8.8 21.0 L8.85 20.9 8.8 20.9 8.8 21.0 M8.45 21.55 L8.5 21.65 8.6 21.35 8.8 21.35 8.7 20.9 8.5 20.9 8.45 21.55 M9.4 21.9 L9.7 21.8 9.5 21.65 9.3 21.65 9.15 21.65 9.05 21.65 8.8 21.65 8.7 21.8 8.8 21.9 8.95 21.9 9.4 21.9 M9.3 21.2 L9.15 21.0 9.05 21.3 9.3 21.3 9.3 21.2 M9.6 21.0 L9.6 21.1 9.7 21.0 9.6 21.0 M9.95 21.2 L10.15 21.2 10.05 21.1 9.95 21.1 9.95 21.2 M8.8 22.65 L8.45 23.15 8.25 23.35 8.0 23.7 7.9 23.8 7.9 24.05 8.35 24.05 8.6 24.0 9.25 22.55 8.8 22.65 M9.75 22.25 L9.6 22.35 9.25 24.05 8.35 24.35 8.5 24.6 8.8 25.05 9.05 25.4 Q9.85 26.3 10.85 26.15 L11.05 25.85 11.9 25.7 13.65 24.25 11.65 23.1 11.4 22.9 12.0 22.35 11.55 22.1 10.95 21.9 10.65 21.9 10.4 22.0 10.15 22.1 9.75 22.25 M9.95 21.75 L10.5 21.55 10.5 21.45 10.3 21.45 9.85 21.65 9.95 21.75 M12.65 17.45 L12.65 17.15 12.65 16.35 12.55 15.7 12.1 13.65 12.0 13.4 11.85 13.05 11.5 13.3 11.3 13.4 11.1 13.4 11.05 13.5 11.1 13.75 Q11.5 14.55 11.5 15.2 11.55 16.0 11.1 16.7 L10.95 17.0 10.95 17.05 10.4 17.6 11.85 17.8 12.1 17.8 12.8 17.95 12.9 17.95 12.75 18.05 12.55 18.3 12.65 18.05 12.55 18.05 12.35 18.75 12.65 18.75 11.75 19.05 11.9 19.65 11.9 20.3 12.0 20.4 11.9 20.4 11.9 20.5 11.65 20.75 11.5 20.85 11.4 20.85 11.1 20.85 10.95 20.85 10.65 21.0 12.8 22.0 12.9 22.25 12.35 22.35 12.0 22.8 Q12.75 22.9 13.35 23.45 L13.65 23.25 13.9 23.15 14.1 23.15 14.8 23.35 14.1 22.8 14.25 22.55 15.4 22.8 15.35 23.55 16.95 24.15 17.05 24.15 18.05 22.8 17.75 22.8 Q16.05 22.45 14.6 21.75 L13.25 20.9 12.0 20.4 17.65 22.2 18.2 22.35 19.0 22.35 19.65 22.35 19.2 22.1 18.9 21.8 17.05 20.75 Q16.5 20.4 15.85 20.2 L15.15 19.85 13.65 19.05 13.9 19.05 13.8 18.7 13.55 18.95 13.35 18.85 13.25 18.85 13.45 18.6 13.5 18.6 13.7 18.3 13.8 18.25 14.25 17.6 13.1 16.9 13.1 17.0 12.9 17.7 12.65 17.45 M11.9 18.7 L12.3 18.15 11.85 18.25 11.2 18.3 10.75 18.3 11.3 18.5 11.9 18.7 M10.6 21.3 L10.6 21.2 10.4 21.2 10.5 21.3 10.6 21.3 M10.65 21.55 L10.75 21.45 10.95 21.45 10.85 21.35 10.6 21.45 10.65 21.55 M12.2 22.1 L12.3 22.1 12.2 21.9 11.85 21.75 11.9 21.8 12.2 22.1 M14.7 23.1 L15.0 23.1 15.15 23.1 15.0 22.9 14.55 22.7 14.7 23.1 M19.2 21.65 L19.9 22.0 20.1 20.75 15.95 18.7 15.35 19.05 14.7 19.3 15.25 19.5 15.35 19.4 15.85 19.3 16.4 19.2 17.5 19.95 17.75 19.95 Q19.1 20.2 19.2 21.65 M18.9 20.85 L16.15 19.5 15.7 19.65 16.15 19.95 18.9 21.35 18.9 20.85 M18.3 23.0 L17.85 23.7 17.75 23.8 17.3 24.25 19.1 25.05 19.65 24.8 20.35 23.1 20.2 22.8 18.4 22.8 18.3 23.0 M19.35 25.5 L18.75 25.25 18.85 25.4 19.8 25.85 19.35 25.5 M18.2 25.25 L18.3 25.15 16.6 24.4 15.5 26.95 17.3 27.05 Q17.5 26.2 17.95 25.5 L18.2 25.25 M8.15 25.05 L7.8 24.85 7.7 24.8 7.35 24.6 7.25 24.95 7.55 25.15 7.9 25.6 7.9 25.7 8.05 25.95 8.15 25.75 8.15 25.6 8.45 25.25 8.15 25.05 M26.8 25.95 L26.9 25.85 26.8 25.85 26.45 26.15 26.65 26.2 26.8 25.95 M20.8 25.4 L19.65 25.3 21.45 26.15 23.4 26.4 Q22.6 25.85 21.5 25.6 L20.8 25.4 M27.35 27.05 L20.65 23.25 20.0 24.6 20.55 24.6 21.15 24.8 27.35 27.05" fill="#000000" fill-rule="evenodd" stroke="none"/>
    <path d="M3.85 16.15 L4.05 16.0 4.2 15.9 4.65 16.45 4.65 16.55 4.85 16.7 4.95 16.8 5.2 17.15 5.4 17.35 6.35 18.15 6.65 18.3 7.7 18.95 7.45 19.95 6.55 19.15 5.3 18.6 4.95 18.4 4.65 18.15 4.75 17.95 4.5 17.8 4.1 17.45 4.05 17.45 3.6 16.45 3.65 16.45 3.85 16.35 3.75 16.25 3.85 16.15 M3.15 25.85 L3.4 25.7 3.4 25.6 3.6 25.6 3.75 25.5 4.5 25.15 4.95 25.15 5.45 25.15 5.65 25.15 6.0 25.15 6.65 25.25 6.7 25.25 7.0 25.4 7.25 25.6 7.45 25.75 8.0 26.15 8.05 26.15 8.35 26.4 Q9.95 27.95 10.9 30.1 L9.7 30.1 Q8.3 28.0 7.35 28.0 L7.8 28.8 7.1 28.3 6.7 28.2 6.35 28.2 6.25 28.2 6.0 28.3 Q5.4 28.35 4.9 28.7 L4.9 28.35 5.1 28.3 4.95 28.0 5.4 27.45 4.75 26.65 4.05 26.05 3.6 26.4 3.3 26.15 3.3 26.75 3.5 27.75 3.15 27.75 3.15 25.85 M8.1 30.1 L7.8 30.1 7.15 29.0 6.9 28.9 6.9 28.65 7.25 28.75 7.7 29.55 8.1 30.1 M7.35 30.1 L7.0 30.1 7.0 29.35 7.35 30.1 M6.65 30.1 L4.95 30.1 5.1 29.1 5.0 29.0 Q5.65 28.65 6.25 28.55 L6.65 28.55 6.8 28.55 6.8 28.65 Q6.65 29.25 6.65 30.0 L6.65 30.1 M10.65 16.55 L10.3 16.8 9.5 17.25 9.3 17.35 8.95 17.6 7.9 18.75 6.9 18.15 6.65 17.85 5.45 16.9 5.3 16.7 5.0 16.45 4.85 16.25 4.4 15.8 4.95 15.2 5.45 14.45 5.65 14.2 7.0 12.75 7.35 12.6 7.7 12.3 8.05 12.05 10.65 13.3 10.75 13.55 10.85 13.75 11.05 14.9 10.85 16.15 10.75 16.35 8.95 16.25 Q7.35 16.25 7.25 16.55 L7.45 16.8 8.35 16.8 Q7.35 17.15 7.15 17.6 L7.35 17.7 7.6 17.8 Q7.35 17.95 7.6 18.15 L7.8 18.05 Q8.35 17.25 9.5 16.9 L10.65 16.55 M7.0 13.65 L6.9 13.05 Q6.1 13.5 5.3 15.25 L5.3 15.65 5.45 16.1 5.65 16.15 5.75 16.0 5.9 15.25 6.45 14.45 7.0 13.65 M8.15 21.0 L8.25 21.45 8.05 21.3 8.0 21.0 8.15 21.0 M12.9 17.7 L13.1 17.0 13.1 16.9 14.25 17.6 13.8 18.25 13.9 17.95 14.0 17.8 13.8 17.7 13.65 17.95 13.55 17.95 13.0 18.5 12.9 18.6 12.8 18.85 12.65 18.75 12.35 18.75 12.55 18.05 12.65 18.05 12.55 18.3 12.75 18.05 12.9 17.95 13.0 17.85 12.9 17.7 M13.7 18.3 L13.5 18.6 13.65 18.3 13.7 18.3 M8.15 25.05 L8.45 25.25 8.15 25.6 7.9 25.7 7.9 25.6 8.15 25.05 M7.55 25.15 L7.25 24.95 7.35 24.6 7.7 24.8 7.55 25.15" fill="#968367" fill-rule="evenodd" stroke="none"/>
    <path d="M3.15 17.8 L4.05 18.5 3.75 18.6 6.25 19.3 8.45 22.35 7.55 23.7 7.45 23.9 7.25 23.8 6.1 23.25 6.0 23.25 5.0 22.8 4.95 22.8 4.3 22.45 4.2 22.45 3.75 22.1 3.3 21.65 3.15 21.35 3.15 17.8 M13.55 18.95 L13.8 18.7 13.9 19.05 13.65 19.05 13.55 18.95 M12.2 22.1 L11.9 21.8 11.85 21.75 12.2 21.9 12.3 22.1 12.2 22.1 M14.7 23.1 L14.55 22.7 15.0 22.9 15.15 23.1 15.0 23.1 14.7 23.1" fill="#f0e1bd" fill-rule="evenodd" stroke="none"/>
    <path d="M3.2 15.85 L3.3 15.9 3.5 15.9 Q4.1 15.55 3.85 16.15 L3.75 16.25 3.85 16.35 3.65 16.45 3.6 16.45 4.05 17.45 4.1 17.45 4.5 17.8 4.75 17.95 4.65 18.15 4.95 18.4 5.3 18.6 4.75 18.4 4.2 18.4 3.75 17.95 3.15 17.55 3.15 15.9 3.2 15.85 M9.7 30.1 L8.6 30.1 7.8 28.8 7.35 28.0 Q8.3 28.0 9.7 30.1 M4.95 30.1 L4.9 30.1 4.9 28.95 4.95 28.9 5.0 29.0 5.1 29.1 4.95 30.1 M4.9 28.35 L4.9 27.75 3.5 27.75 3.3 26.75 3.3 26.15 3.6 26.4 4.05 26.05 4.75 26.65 5.4 27.45 4.95 28.0 5.1 28.3 4.9 28.35 M10.65 16.55 L9.5 16.9 Q8.35 17.25 7.8 18.05 L7.6 18.15 Q7.35 17.95 7.6 17.8 L7.35 17.7 7.15 17.6 Q7.35 17.15 8.35 16.8 L7.45 16.8 7.25 16.55 Q7.35 16.25 8.95 16.25 L10.75 16.35 10.75 16.55 10.65 16.55 M7.0 13.65 L6.45 14.45 5.9 15.25 5.75 16.0 5.65 16.15 5.45 16.1 5.3 15.65 5.3 15.25 Q6.1 13.5 6.9 13.05 L7.0 13.65 M13.8 18.25 L13.7 18.3 13.65 18.3 13.5 18.6 13.45 18.6 13.25 18.85 12.8 18.85 12.9 18.6 13.0 18.5 13.55 17.95 13.65 17.95 13.8 17.7 14.0 17.8 13.9 17.95 13.8 18.25 M7.7 24.8 L7.8 24.85 8.15 25.05 7.9 25.6 7.55 25.15 7.7 24.8 M8.15 25.6 L8.15 25.75 8.05 25.95 7.9 25.7 8.15 25.6" fill="#605342" fill-rule="evenodd" stroke="none"/>
    <path d="M3.15 11.85 L4.2 11.95 4.85 12.2 6.2 12.4 Q5.9 12.65 5.7 13.15 L5.65 13.2 Q5.1 13.5 4.85 14.3 L4.55 15.25 4.3 15.25 3.75 15.1 3.6 15.35 3.15 15.25 3.15 14.5 3.3 14.55 5.2 12.5 5.1 12.4 4.55 12.15 4.3 12.6 4.2 11.95 Q3.95 13.05 3.15 13.8 L3.15 11.85 M3.15 21.95 L3.2 22.0 3.15 22.15 3.15 21.95 M4.2 22.55 L4.4 22.7 4.95 23.7 5.2 23.9 5.2 23.8 5.3 23.8 5.4 23.7 5.45 23.7 5.75 23.55 7.0 24.35 6.8 24.7 6.8 24.85 6.45 24.8 5.1 24.8 4.5 24.15 Q3.95 23.55 3.95 23.35 L4.2 22.55 M5.3 23.45 L5.2 23.45 5.1 23.55 5.0 23.1 5.1 23.15 5.3 23.45 M3.2 24.95 L3.15 24.9 3.15 24.85 3.2 24.95 M5.65 25.15 L6.65 25.25 6.0 25.15 5.65 25.15 M20.65 22.35 L22.8 23.35 22.4 23.9 20.1 22.2 20.2 21.55 21.1 21.8 20.65 22.35 M11.3 5.3 L11.4 5.4 13.35 7.1 13.7 6.75 13.9 6.3 13.35 5.6 Q12.75 5.05 11.65 5.05 L11.4 5.15 Q11.2 5.15 11.3 5.3 M8.65 6.1 Q9.0 5.65 9.7 5.3 10.4 4.85 11.05 4.6 11.9 4.6 14.45 5.65 L14.45 5.75 14.9 8.0 15.05 8.0 15.05 8.1 13.9 8.1 13.8 7.75 12.0 7.75 11.5 7.65 10.3 6.95 9.15 6.4 9.05 6.3 9.05 6.05 8.8 6.1 8.8 6.05 8.65 6.1 M9.7 8.45 L9.25 8.65 8.25 8.65 8.45 8.45 8.95 8.45 9.7 8.45 M7.55 8.55 L7.55 8.35 7.6 8.45 7.55 8.55 M8.15 6.55 L8.25 6.5 8.25 6.55 8.15 6.65 8.15 6.55 M8.45 6.3 L8.5 6.25 8.5 6.3 8.45 6.3 M10.4 10.9 L10.85 11.5 11.9 12.5 11.9 12.65 11.85 12.6 11.75 12.6 Q11.75 12.5 10.75 11.75 9.6 11.05 9.6 10.95 L9.95 10.95 9.95 11.05 10.3 11.3 10.5 11.25 10.5 11.05 10.3 10.9 10.4 10.9 M10.95 12.75 L11.2 12.95 11.2 13.05 10.95 12.75 M8.5 12.05 L9.4 12.15 9.85 12.2 9.3 12.3 8.8 12.15 8.5 12.05 M9.25 11.75 Q8.35 11.6 8.0 11.3 L8.45 11.3 8.45 11.4 Q8.6 11.6 8.85 11.6 L9.25 11.75 M7.9 11.25 L7.7 10.9 7.9 10.7 8.0 10.7 7.8 10.95 7.9 11.05 7.9 11.25 M10.15 10.45 L10.3 10.35 10.3 10.45 10.15 10.45 M4.1 10.7 L3.95 10.9 4.05 11.05 4.2 11.15 4.55 10.8 4.5 10.6 4.4 10.6 Q5.8 10.45 6.8 11.25 L6.8 11.5 6.8 11.95 6.65 11.95 6.65 12.15 6.55 12.05 6.45 12.15 4.75 11.7 3.4 11.5 3.4 11.25 3.5 10.9 3.5 10.8 4.1 10.7 M8.45 7.55 L8.6 7.65 8.6 7.75 8.45 7.55 M7.45 11.95 L7.55 12.05 7.1 12.2 7.1 11.95 Q7.15 11.75 7.45 11.85 L7.45 11.95 M8.45 21.55 L8.5 20.9 8.7 20.9 8.8 21.35 8.6 21.35 8.5 21.65 8.45 21.55 M8.95 21.9 L8.8 21.9 8.7 21.8 8.8 21.65 9.05 21.65 9.15 21.65 9.3 21.65 9.5 21.65 9.7 21.8 9.4 21.9 8.95 21.8 8.95 21.9 M9.95 21.2 L9.95 21.1 10.05 21.1 10.15 21.2 9.95 21.2 M9.6 21.0 L9.7 21.0 9.6 21.1 9.6 21.0 M9.3 21.2 L9.3 21.3 9.05 21.3 9.15 21.0 9.3 21.2 M9.75 22.25 L10.15 22.1 10.4 22.0 10.65 21.9 10.95 21.9 11.55 22.1 12.0 22.35 11.4 22.9 11.65 23.1 13.65 24.25 11.9 25.7 11.05 25.85 10.85 26.15 Q9.85 26.3 9.05 25.4 L8.8 25.05 8.5 24.6 8.35 24.35 9.25 24.05 9.6 22.35 9.75 22.25 M8.8 22.65 L9.25 22.55 8.6 24.0 8.35 24.05 7.9 24.05 7.9 23.8 8.0 23.7 8.25 23.35 8.45 23.15 8.8 22.65 M9.95 21.75 L9.85 21.65 10.3 21.45 10.5 21.45 10.5 21.55 9.95 21.75 M11.1 13.75 L11.05 13.5 11.1 13.4 11.3 13.4 11.5 13.3 11.85 13.05 12.0 13.4 12.1 13.65 12.55 15.7 12.65 16.35 12.65 17.15 12.65 17.45 Q12.2 17.05 11.2 16.7 L11.1 16.7 Q11.55 16.0 11.5 15.2 L12.0 15.35 12.2 15.25 12.3 14.55 Q12.3 14.0 11.1 13.75 M12.1 17.8 L11.85 17.8 10.4 17.6 11.1 17.6 12.1 17.8 M10.95 17.05 L10.95 17.0 11.1 17.05 10.95 17.05 M11.3 18.5 L10.75 18.3 11.2 18.3 11.85 18.25 12.3 18.15 11.9 18.7 11.9 18.4 11.3 18.5 M10.6 21.3 L10.5 21.3 10.4 21.2 10.6 21.2 10.6 21.3 M19.35 25.5 L19.8 25.85 18.85 25.4 18.75 25.25 19.35 25.5" fill="#485331" fill-rule="evenodd" stroke="none"/>
    <path d="M8.0 9.1 L9.85 8.7 10.75 8.65 10.6 9.25 10.6 9.35 10.5 9.55 10.75 10.05 8.6 10.15 Q7.45 10.25 7.15 10.6 L7.15 10.5 6.9 9.15 7.15 9.1 7.9 9.1 8.0 9.1 M11.5 10.8 L11.55 10.6 11.55 10.5 13.25 10.7 14.55 10.45 Q14.6 9.9 14.9 9.7 L14.9 10.6 14.0 11.5 13.55 12.05 12.45 12.2 Q12.35 12.2 12.2 12.3 11.2 11.85 10.85 11.25 L10.6 10.35 11.05 10.25 10.95 10.45 11.1 10.45 11.4 10.8 11.5 10.8" fill="#7e7b67" fill-rule="evenodd" stroke="none"/>
    <path d="M8.65 6.1 L8.8 6.05 8.8 6.1 9.05 6.05 9.05 6.3 9.15 6.4 10.3 6.95 11.5 7.65 12.0 7.75 13.8 7.75 13.9 8.1 13.65 8.25 12.9 8.1 11.85 8.1 11.75 8.25 10.3 8.25 10.15 8.45 9.95 8.45 9.95 8.65 9.75 8.45 9.7 8.45 8.95 8.45 8.45 8.45 8.25 8.65 8.15 9.0 8.0 9.1 7.9 9.1 7.45 8.7 7.35 8.65 7.55 8.55 7.6 8.45 7.55 8.35 7.45 8.2 7.45 8.0 7.45 7.9 7.7 6.75 7.9 6.65 8.05 6.55 8.15 6.55 8.15 6.65 8.25 6.55 8.25 6.5 8.25 6.2 8.45 6.3 8.5 6.3 8.5 6.25 8.6 6.1 8.65 6.1 M10.3 10.45 L10.5 10.7 10.4 10.9 10.3 10.9 9.95 10.95 9.6 10.95 Q9.6 11.05 10.75 11.75 11.75 12.5 11.75 12.6 L11.5 12.75 11.4 12.85 Q11.1 12.85 10.85 12.65 L10.95 12.75 11.2 13.05 10.5 13.1 9.5 12.5 9.15 12.4 8.5 12.05 8.8 12.15 9.3 12.3 9.85 12.2 Q9.5 12.05 9.25 11.75 L8.85 11.6 Q8.6 11.6 8.45 11.4 L8.45 11.3 8.0 11.3 7.9 11.3 7.9 11.25 7.9 11.05 7.8 10.95 8.0 10.7 Q8.25 10.45 9.15 10.35 L10.15 10.45 10.3 10.45 M8.45 7.55 L8.6 7.75 8.6 7.65 8.45 7.55 M7.8 8.35 L7.8 8.1 7.7 8.1 7.6 8.35 7.8 8.35" fill="#2f3520" fill-rule="evenodd" stroke="none"/>
    <path d="M11.3 5.3 Q11.2 5.15 11.4 5.15 L11.65 5.05 Q12.75 5.05 13.35 5.6 L13.9 6.3 13.7 6.75 13.35 7.1 11.4 5.4 11.3 5.3 M10.3 10.9 L10.5 11.05 10.5 11.25 10.3 11.3 9.95 11.05 9.95 10.95 10.3 10.9 M4.1 10.7 L4.4 10.6 4.5 10.6 4.55 10.8 4.2 11.15 4.05 11.05 3.95 10.9 4.1 10.7 M4.3 12.6 L4.55 12.15 5.1 12.4 5.2 12.5 3.3 14.55 3.15 14.5 3.15 14.0 3.95 13.1 4.2 12.6 4.3 12.6 M8.95 21.9 L8.95 21.8 9.4 21.9 8.95 21.9 M11.1 13.75 Q12.3 14.0 12.3 14.55 L12.2 15.25 12.0 15.35 11.5 15.2 Q11.5 14.55 11.1 13.75 M11.3 18.5 L11.9 18.4 11.9 18.7 11.3 18.5" fill="#a8b685" fill-rule="evenodd" stroke="none"/>
    <path d="M7.8 8.35 L7.6 8.35 7.7 8.1 7.8 8.1 7.8 8.35" fill="#3e4529" fill-rule="evenodd" stroke="none"/>
    <path d="M5.7 13.15 L5.75 13.1 5.8 13.2 Q5.0 14.0 4.65 15.25 L4.55 15.25 4.85 14.3 Q5.1 13.5 5.65 13.2 L5.7 13.15 M3.6 15.35 L3.2 15.85 3.15 15.9 3.15 15.25 3.6 15.35 M3.15 23.65 L3.4 22.8 3.65 22.25 4.2 22.55 3.95 23.35 Q3.95 23.55 4.5 24.15 L5.1 24.8 4.4 24.8 4.2 24.8 3.5 25.05 3.4 25.15 3.2 24.95 3.15 24.85 3.15 23.65 M5.4 23.7 L5.3 23.45 5.1 23.15 5.75 23.55 5.45 23.7 5.4 23.7 M8.8 21.0 L8.8 20.9 8.85 20.9 8.8 21.0 M11.1 16.7 L11.2 16.7 Q12.2 17.05 12.65 17.45 L12.9 17.7 13.0 17.85 12.9 17.95 12.8 17.95 12.1 17.8 11.1 17.6 10.4 17.6 10.95 17.05 11.1 17.05 10.95 17.0 11.1 16.7" fill="#262b1a" fill-rule="evenodd" stroke="none"/>
    <path d="M9.95 18.15 L9.95 18.05 10.05 18.15 11.1 18.85 11.4 18.95 11.5 19.05 11.55 19.3 11.85 19.95 11.65 20.4 10.95 20.5 10.65 20.5 10.4 20.9 9.75 20.85 9.4 20.75 8.95 20.75 8.6 20.75 8.5 20.75 8.15 20.75 7.9 20.75 7.7 20.3 8.05 19.6 8.0 18.95 9.75 17.95 9.85 17.95 9.85 18.05 9.95 18.15 M13.25 18.85 L13.35 18.85 13.55 18.95 13.65 19.05 15.15 19.85 15.85 20.2 Q16.5 20.4 17.05 20.75 L18.9 21.8 19.2 22.1 19.65 22.35 19.0 22.35 18.2 22.35 17.65 22.2 12.0 20.4 13.25 20.9 14.6 21.75 Q16.05 22.45 17.75 22.8 L18.05 22.8 17.05 24.15 16.95 24.15 15.35 23.55 15.4 22.8 14.25 22.55 14.1 22.8 14.8 23.35 14.1 23.15 13.9 23.15 13.65 23.25 13.35 23.45 Q12.75 22.9 12.0 22.8 L12.35 22.35 12.9 22.25 12.8 22.0 10.65 21.0 10.95 20.85 11.1 20.85 11.4 20.85 11.5 20.85 11.65 20.75 11.9 20.5 11.9 20.4 12.0 20.4 11.9 20.3 11.9 19.65 11.75 19.05 12.65 18.75 12.8 18.85 13.25 18.85 M19.2 21.65 Q19.1 20.2 17.75 19.95 L17.5 19.95 16.4 19.2 15.85 19.3 15.35 19.4 15.25 19.5 14.7 19.3 15.35 19.05 15.95 18.7 20.1 20.75 19.9 22.0 19.2 21.65 M18.3 23.0 L18.4 22.8 20.2 22.8 20.35 23.1 19.65 24.8 19.1 25.05 17.3 24.25 17.75 23.8 17.85 23.7 18.3 23.0 M18.2 25.25 L17.95 25.5 Q17.5 26.2 17.3 27.05 L15.5 26.95 16.6 24.4 18.3 25.15 18.2 25.25 M26.8 25.85 L26.8 25.95 26.65 26.2 26.45 26.15 26.8 25.85 M27.35 27.05 L21.15 24.8 20.55 24.6 20.0 24.6 20.65 23.25 27.35 27.05 M20.8 25.4 L21.5 25.6 Q22.6 25.85 23.4 26.4 L21.45 26.15 19.65 25.3 20.8 25.4" fill="#333333" fill-rule="evenodd" stroke="none"/>
    <path d="M11.5 8.45 L11.85 8.45 15.05 8.45 14.8 9.35 14.9 9.55 Q14.55 9.55 14.35 9.8 L14.15 10.25 12.2 9.9 11.2 10.05 11.1 9.9 10.85 9.55 11.2 8.55 11.4 8.55 11.5 8.45" fill="url(#gradient0)" fill-rule="evenodd" stroke="none"/>
  </g>
  <defs>
    <linearGradient gradientTransform="matrix(0.0025, 3.0E-4, -2.0E-4, 0.0013, 12.9, 9.15)" gradientUnits="userSpaceOnUse" id="gradient0" spreadMethod="pad" x1="-819.2" x2="819.2">
      <stop offset="0.00784313725490196" stop-color="#373737"/>
      <stop offset="0.20784313725490197" stop-color="#ffffff"/>
      <stop offset="0.4588235294117647" stop-color="#5c5c5c"/>
      <stop offset="0.6941176470588235" stop-color="#dddddd"/>
      <stop offset="0.8705882352941177" stop-color="#929292"/>
      <stop offset="1.0" stop-color="#aaaaaa"/>
    </linearGradient>
  </defs>
</svg>
