<?xml version="1.0" encoding="UTF-8" standalone="no"?>
<svg xmlns:xlink="http://www.w3.org/1999/xlink" height="49.9px" width="22.1px" xmlns="http://www.w3.org/2000/svg">
  <g transform="matrix(1.0, 0.0, 0.0, 1.0, -13.65, 1.0)">
    <path d="M28.75 35.2 Q28.15 32.85 27.4 27.25 27.15 27.45 27.15 27.8 27.15 28.75 27.7 31.8 28.25 34.85 28.5 35.35 L28.75 35.2 M26.9 7.25 L27.2 7.25 27.25 10.9 Q27.4 17.3 27.9 21.5 L29.5 32.1 Q30.0 35.35 31.35 38.85 32.75 42.3 33.9 42.7 L34.6 43.8 35.25 45.3 Q35.25 48.35 27.15 48.35 25.6 48.35 22.65 47.3 L19.1 45.95 15.85 44.7 Q14.25 43.85 14.25 42.9 L14.9 41.65 14.75 41.45 Q15.5 39.35 16.4 34.85 L17.7 36.2 Q19.5 37.85 20.75 37.85 L21.0 37.6 20.9 37.4 Q19.15 36.75 17.95 35.8 L16.5 34.35 17.15 30.7 18.7 19.95 20.3 20.4 22.45 20.85 23.0 20.6 22.9 20.35 20.15 19.9 18.75 19.6 19.0 14.35 18.75 7.1 18.75 3.85 18.9 2.1 18.85 1.1 19.45 0.1 Q20.35 -0.5 24.5 -0.5 L27.0 0.6 27.15 6.7 26.4 6.6 25.25 6.65 25.35 7.0 26.9 7.25 M26.0 0.45 L25.85 0.1 25.25 0.05 25.25 0.8 22.0 1.05 20.4 0.95 20.25 0.6 20.5 0.35 20.4 0.1 20.15 0.1 Q19.75 0.2 19.75 0.65 L19.9 1.15 Q20.35 1.6 21.95 1.6 L25.45 1.3 Q26.0 1.05 26.0 0.45 M28.5 41.4 L28.9 43.35 Q29.65 45.25 31.5 45.25 L32.2 44.55 32.5 43.6 31.85 41.45 Q31.1 39.35 30.65 39.35 L30.55 39.45 30.45 39.55 Q29.0 39.55 28.65 40.15 28.5 40.4 28.5 41.4" fill="url(#gradient0)" fill-rule="evenodd" stroke="none"/>
    <path d="M27.45 0.7 Q27.8 1.25 27.8 2.35 L27.75 5.1 27.8 6.75 27.9 7.0 27.8 7.25 27.9 10.45 27.95 15.8 Q28.0 19.0 28.3 21.1 29.6 31.05 29.8 31.75 31.05 37.65 34.25 42.25 L35.3 43.6 35.75 45.25 Q35.75 46.8 34.55 47.6 32.55 48.9 27.15 48.9 L22.7 47.75 18.35 46.25 Q13.75 44.7 13.75 42.95 L13.65 42.75 14.5 39.75 15.7 35.6 17.0 28.5 Q18.5 17.45 18.5 14.25 L18.25 3.85 18.4 2.15 18.5 0.9 Q18.5 -0.5 21.2 -0.9 24.2 -1.4 27.65 0.3 L27.75 0.5 27.45 0.7 M26.0 0.45 Q26.0 1.05 25.45 1.3 L21.95 1.6 Q20.35 1.6 19.9 1.15 L19.75 0.65 Q19.75 0.2 20.15 0.1 L20.4 0.1 20.5 0.35 20.25 0.6 20.4 0.95 22.0 1.05 25.25 0.8 25.25 0.05 25.85 0.1 26.0 0.45 M26.9 7.25 L25.35 7.0 25.25 6.65 26.4 6.6 27.15 6.7 27.0 0.6 24.5 -0.5 Q20.35 -0.5 19.45 0.1 L18.85 1.1 18.9 2.1 18.75 3.85 18.75 7.1 19.0 14.35 18.75 19.6 20.15 19.9 22.9 20.35 23.0 20.6 22.45 20.85 20.3 20.4 18.7 19.95 17.15 30.7 16.5 34.35 17.95 35.8 Q19.15 36.75 20.9 37.4 L21.0 37.6 20.75 37.85 Q19.5 37.85 17.7 36.2 L16.4 34.85 Q15.5 39.35 14.75 41.45 L14.9 41.65 14.25 42.9 Q14.25 43.85 15.85 44.7 L19.1 45.95 22.65 47.3 Q25.6 48.35 27.15 48.35 35.25 48.35 35.25 45.3 L34.6 43.8 33.9 42.7 Q32.75 42.3 31.35 38.85 30.0 35.35 29.5 32.1 L27.9 21.5 Q27.4 17.3 27.25 10.9 L27.2 7.25 26.9 7.25 M28.75 35.2 L28.5 35.35 Q28.25 34.85 27.7 31.8 27.15 28.75 27.15 27.8 27.15 27.45 27.4 27.25 28.15 32.85 28.75 35.2 M29.4 43.2 Q30.05 44.7 31.45 44.7 31.8 44.7 32.0 43.55 32.0 41.95 30.5 40.35 29.0 38.75 29.0 41.4 29.0 42.3 29.4 43.2 M28.5 41.4 Q28.5 40.4 28.65 40.15 29.0 39.55 30.45 39.55 L30.55 39.45 30.65 39.35 Q31.1 39.35 31.85 41.45 L32.5 43.6 32.2 44.55 31.5 45.25 Q29.65 45.25 28.9 43.35 L28.5 41.4" fill="#000000" fill-rule="evenodd" stroke="none"/>
    <path d="M29.4 43.2 Q29.0 42.3 29.0 41.4 29.0 38.75 30.5 40.35 32.0 41.95 32.0 43.55 31.8 44.7 31.45 44.7 30.05 44.7 29.4 43.2" fill="#ccffff" fill-rule="evenodd" stroke="none"/>
  </g>
  <defs>
    <linearGradient gradientTransform="matrix(-0.0148, 0.005, -0.0096, -0.0286, 21.85, 25.35)" gradientUnits="userSpaceOnUse" id="gradient0" spreadMethod="pad" x1="-819.2" x2="819.2">
      <stop offset="0.0" stop-color="#ffffff"/>
      <stop offset="1.0" stop-color="#f2ede1"/>
    </linearGradient>
  </defs>
</svg>
