<?xml version="1.0" encoding="UTF-8" standalone="no"?>
<svg xmlns:xlink="http://www.w3.org/1999/xlink" height="32.3px" width="32.1px" xmlns="http://www.w3.org/2000/svg">
  <g transform="matrix(1.0, 0.0, 0.0, 1.0, -0.6, -0.3)">
    <path d="M29.85 0.7 L29.7 1.1 29.6 1.25 29.05 2.1 28.6 1.8 28.6 1.45 28.85 0.8 Q28.9 0.35 29.3 0.35 L29.4 0.4 Q29.85 0.1 29.85 0.7 M1.25 2.6 Q0.8 2.6 0.7 2.2 L0.7 1.7 Q0.7 1.15 1.45 0.65 2.2 0.2 2.2 0.95 L1.25 2.6 M1.85 29.35 L1.55 29.85 1.0 30.25 Q0.6 30.25 0.6 29.8 0.6 29.5 0.9 29.25 1.3 28.9 1.8 29.1 L1.85 29.35 M29.95 29.35 L29.8 29.95 29.4 30.25 Q28.95 30.25 28.95 29.8 28.95 29.4 29.45 29.0 29.95 28.55 29.95 29.35" fill="#ff6666" fill-rule="evenodd" stroke="none"/>
    <path d="M32.7 3.95 L32.7 4.35 31.45 4.6 Q30.2 4.6 30.2 4.2 30.2 3.9 30.7 3.65 L31.35 2.95 Q31.15 2.6 31.45 2.15 31.8 1.75 32.3 1.95 L32.7 3.95 M4.2 2.5 Q4.2 4.6 2.45 4.6 L2.05 4.55 Q1.95 4.05 2.1 3.9 L1.7 3.5 Q1.7 3.05 3.35 3.05 L3.9 2.1 Q4.2 1.65 4.2 2.5 M3.6 30.35 Q3.7 30.0 4.3 30.1 L4.35 32.05 Q4.25 32.6 3.75 32.6 L1.6 32.45 Q1.45 32.4 1.45 32.15 2.65 30.7 3.6 30.85 L3.6 30.35 M32.25 32.5 L31.25 32.5 30.25 32.5 29.85 32.05 30.05 31.8 31.3 31.25 31.2 30.65 Q31.2 30.25 31.55 29.8 31.95 29.25 32.25 29.95 L32.45 31.75 32.25 32.5" fill="#660000" fill-rule="evenodd" stroke="none"/>
    <path d="M3.0 15.0 L3.0 14.25 3.3 14.1 6.1 14.3 9.05 15.15 9.65 15.45 10.5 15.45 10.7 15.4 11.25 15.25 11.5 15.3 11.95 15.55 12.4 16.1 13.45 16.0 14.55 16.4 14.65 16.75 14.65 17.15 14.6 17.35 19.65 17.45 19.8 17.45 24.2 17.55 25.35 17.6 25.4 17.4 25.6 16.45 Q25.65 16.25 25.85 16.2 26.7 16.7 27.35 17.3 27.9 17.8 28.05 18.3 L28.95 18.65 29.0 18.75 29.05 18.7 Q29.45 19.25 29.0 19.9 28.6 20.45 27.95 20.2 L27.15 21.05 25.45 22.1 25.4 22.1 Q25.05 21.9 25.15 21.45 L25.4 20.8 20.65 20.9 15.1 20.7 15.05 20.7 13.85 21.2 13.7 22.55 13.65 23.05 13.85 23.35 10.9 21.35 11.1 22.75 13.85 23.45 14.45 23.65 14.15 23.6 14.75 24.15 15.35 24.6 15.65 24.75 17.6 24.95 Q16.05 25.45 14.65 24.55 L14.3 24.25 13.9 23.8 13.85 23.7 13.85 23.55 13.65 23.55 12.9 23.45 11.6 23.3 9.3 23.1 7.05 22.95 6.7 22.95 4.3 22.9 3.0 22.9 3.0 22.75 6.25 21.95 6.3 21.95 6.5 21.85 6.1 21.1 3.85 21.4 3.5 21.4 3.0 21.4 3.0 20.15 3.8 20.3 Q3.7 19.3 3.0 18.7 L3.0 18.5 3.15 18.55 3.25 18.55 3.65 19.1 4.1 20.2 5.2 18.85 5.3 18.45 5.75 18.1 4.85 17.85 3.4 17.85 3.0 17.9 3.0 17.65 6.0 17.8 6.1 17.75 Q7.7 17.35 8.8 16.1 L4.7 16.55 3.0 16.6 3.0 15.9 8.7 15.55 6.05 14.95 4.25 14.7 3.15 14.95 3.0 15.0 M19.5 24.7 L23.65 24.95 23.6 25.65 23.9 25.65 24.15 26.0 Q25.15 26.2 25.9 27.0 L28.2 29.15 28.05 25.25 28.85 25.75 Q29.55 26.4 29.75 27.4 L29.95 29.25 29.5 29.25 Q29.5 27.85 28.85 26.65 L28.6 29.25 28.0 29.25 28.0 29.6 27.8 29.6 28.0 29.75 28.0 30.1 27.75 29.9 28.0 30.35 28.0 30.5 26.8 30.5 26.2 29.6 23.85 26.4 23.95 27.75 24.05 29.05 24.05 29.6 24.05 29.85 23.9 30.5 23.6 30.5 23.65 30.3 23.7 29.6 23.7 29.55 23.7 28.75 23.7 27.45 23.7 26.25 22.7 26.85 Q22.4 28.4 21.0 29.15 L20.35 29.6 19.85 30.1 19.55 30.5 19.2 30.5 19.5 29.9 19.65 29.6 Q20.65 27.95 22.3 26.75 L21.5 27.25 Q20.3 28.05 19.4 29.0 L19.35 29.05 18.9 29.6 18.2 30.5 17.8 30.5 18.7 29.05 17.85 29.0 18.65 28.9 18.6 28.85 16.6 28.65 16.0 28.45 17.65 28.35 18.4 28.5 18.95 28.8 20.7 27.1 18.55 27.45 Q17.35 27.65 16.2 28.1 L15.2 28.25 15.55 27.95 Q16.5 27.5 17.55 27.2 L20.9 26.9 22.7 25.65 20.3 25.15 18.4 24.95 19.5 24.7 M10.55 30.5 L9.9 30.5 11.1 29.75 11.15 29.6 11.2 29.55 11.6 29.25 12.0 29.0 12.1 28.9 12.15 28.65 12.15 28.6 15.55 28.45 15.5 28.5 13.05 28.9 Q12.2 29.1 11.4 29.6 L11.35 29.75 10.55 30.5 M9.6 30.5 L8.05 30.5 7.3 29.6 6.4 28.25 Q5.65 26.75 5.4 25.2 L5.25 24.3 4.2 26.05 3.35 26.95 3.0 27.35 3.0 27.0 5.2 24.05 3.0 23.5 3.0 23.05 5.0 23.7 5.1 23.5 5.3 23.9 5.7 25.4 Q6.4 27.5 8.0 29.15 L8.5 29.6 9.15 30.2 9.6 30.5 M25.9 17.7 L27.15 17.95 27.1 17.9 26.2 16.95 Q25.85 16.9 25.9 17.25 L25.9 17.7 M27.35 18.35 L27.2 18.35 25.5 18.2 25.45 19.2 25.4 20.2 27.4 20.0 27.5 20.0 27.75 19.85 27.55 19.4 27.6 18.7 27.7 18.65 27.85 18.6 27.55 18.4 27.35 18.35 M18.0 18.75 L18.15 18.75 18.15 18.95 19.8 18.55 20.2 18.5 20.55 18.45 20.8 17.95 19.8 17.9 19.65 17.95 15.1 17.8 15.85 18.15 16.35 18.2 17.0 18.4 17.05 18.45 17.75 18.7 18.0 18.75 M21.2 17.95 Q21.35 18.35 21.0 19.05 20.65 19.75 21.05 20.4 L24.75 20.2 24.9 20.25 24.65 19.3 Q24.7 18.7 25.05 18.2 L21.2 17.95 M16.6 20.45 L18.25 20.65 17.65 20.55 18.4 20.5 20.4 20.4 20.5 20.4 Q20.25 20.1 20.3 19.45 L20.35 19.0 19.8 19.05 Q18.85 19.1 18.05 19.45 L17.65 19.85 16.75 20.3 16.6 20.35 16.35 20.45 16.6 20.45 M28.6 19.75 L28.7 19.7 28.75 19.6 28.7 19.6 28.6 19.75 M25.8 21.05 L25.75 21.2 26.7 20.65 26.75 20.6 26.1 20.7 25.9 20.75 25.8 21.05 M6.2 18.05 L6.05 18.3 5.65 18.55 5.45 18.75 5.4 18.9 5.4 18.95 5.15 19.25 4.9 19.75 4.95 19.75 6.05 19.85 7.85 19.05 8.3 18.45 10.25 18.45 Q10.9 17.2 12.1 16.55 L10.7 15.75 9.25 16.05 8.55 17.05 Q7.7 17.65 6.65 17.9 L6.2 18.05 M4.8 20.45 L5.0 20.35 4.7 20.35 4.65 20.4 4.8 20.45 M11.95 17.7 Q11.25 18.45 10.35 18.9 L9.45 19.2 Q8.75 19.15 8.25 18.7 L8.25 19.1 Q9.55 19.45 10.75 20.2 12.05 20.95 12.95 22.05 L13.05 18.9 12.25 18.3 12.05 18.0 12.0 17.75 12.4 17.75 12.95 18.3 14.15 16.9 12.75 16.75 12.5 17.1 11.95 17.7 M7.5 21.95 L7.45 22.0 7.5 22.0 10.75 22.7 9.55 20.55 5.05 20.45 6.45 20.6 7.5 21.95 M15.3 18.45 L15.25 18.4 15.1 18.35 15.05 18.3 14.3 17.7 13.6 18.4 13.6 18.65 13.65 19.15 13.85 20.75 14.15 20.65 14.6 20.5 15.35 20.2 15.45 20.15 16.65 19.9 16.85 19.85 17.65 19.2 17.0 18.95 16.95 18.85 16.65 18.85 15.3 18.45" fill="#000000" fill-rule="evenodd" stroke="none"/>
    <path d="M14.45 23.65 L19.5 24.7 18.4 24.95 20.3 25.15 22.7 25.65 20.1 26.25 16.3 26.7 Q14.4 27.0 12.55 26.7 L8.75 26.25 6.8 25.8 6.5 25.45 6.35 25.25 6.15 25.15 5.9 25.05 5.7 25.4 5.3 23.9 5.1 23.5 5.0 23.7 3.0 23.05 3.0 22.9 4.3 22.9 6.7 22.95 7.05 22.95 9.3 23.1 11.6 23.3 12.9 23.45 13.65 23.55 13.85 23.55 13.85 23.7 13.9 23.8 14.3 24.25 14.65 24.55 Q16.05 25.45 17.6 24.95 L15.65 24.75 15.35 24.6 14.75 24.15 14.15 23.6 14.45 23.65 M28.0 30.1 L28.0 30.35 27.75 29.9 28.0 30.1 M3.0 20.15 L3.0 18.7 Q3.7 19.3 3.8 20.3 L3.0 20.15 M3.0 18.5 L3.0 17.9 3.4 17.85 4.85 17.85 5.75 18.1 5.3 18.45 5.2 18.85 4.1 20.2 3.65 19.1 3.25 18.55 3.15 18.55 3.0 18.5 M3.0 17.65 L3.0 17.0 5.3 17.1 6.3 16.75 6.25 16.55 5.05 16.7 3.0 16.7 3.0 16.6 4.7 16.55 8.8 16.1 Q7.7 17.35 6.1 17.75 L6.0 17.8 3.0 17.65 M3.0 15.9 L3.0 15.45 3.6 15.3 3.7 15.3 5.0 15.3 5.45 15.1 5.4 14.95 4.75 14.85 3.9 15.0 3.8 14.95 3.0 15.1 3.0 15.0 3.15 14.95 4.25 14.7 6.05 14.95 8.7 15.55 3.0 15.9 M15.85 18.15 L15.1 17.8 19.65 17.95 19.8 17.9 20.8 17.95 20.55 18.45 20.2 18.5 19.8 18.55 18.15 18.95 18.15 18.75 18.0 18.75 18.1 18.7 18.15 18.55 18.05 18.4 18.85 18.35 18.85 18.3 18.8 18.15 17.95 18.1 16.2 18.1 15.85 18.15 M27.35 18.35 L27.55 18.4 27.85 18.6 27.7 18.65 27.6 18.7 27.55 19.4 27.75 19.85 27.5 20.0 27.4 20.0 25.4 20.2 25.45 19.2 25.5 18.2 27.2 18.35 27.35 18.35 M17.75 18.7 L17.05 18.45 17.0 18.4 17.35 18.4 Q17.6 18.4 17.7 18.55 L17.75 18.7 M16.6 20.35 L16.6 20.45 16.35 20.45 16.6 20.35 M6.2 18.05 L6.65 17.9 Q7.7 17.65 8.55 17.05 L9.25 16.05 10.7 15.75 12.1 16.55 Q10.9 17.2 10.25 18.45 L8.3 18.45 7.85 19.05 6.05 19.85 4.95 19.75 4.9 19.75 5.15 19.25 5.4 18.95 5.4 18.9 5.45 18.75 5.65 18.55 6.05 18.3 6.2 18.05 M9.9 16.15 L10.05 16.3 10.4 16.45 11.4 16.5 11.6 16.45 11.6 16.3 10.95 15.95 10.3 15.95 Q10.05 15.95 9.9 16.15 M11.95 17.7 L12.5 17.1 12.75 16.75 14.15 16.9 12.95 18.3 12.4 17.75 12.0 17.75 11.95 17.7 M5.9 23.6 L5.85 23.75 6.0 24.15 6.2 24.3 6.1 24.45 6.25 24.55 6.8 24.35 6.85 24.35 10.65 24.95 12.95 25.3 14.5 25.55 14.7 25.35 14.75 25.3 14.75 25.15 13.4 24.85 13.35 24.75 13.0 24.7 12.95 24.6 12.9 24.6 12.7 24.6 12.0 24.4 11.85 24.4 11.85 24.25 8.95 23.95 8.4 23.9 6.05 23.6 6.05 23.7 6.0 23.6 5.9 23.6 M15.3 18.45 L16.65 18.85 15.55 18.55 15.3 18.45 M17.0 18.95 L17.65 19.2 16.85 19.85 16.65 19.9 15.45 20.15 15.35 20.2 14.6 20.5 14.15 20.65 13.85 20.75 13.65 19.15 13.6 18.65 13.6 18.4 14.3 17.7 15.05 18.3 14.7 18.25 14.3 18.15 Q14.45 18.55 14.9 18.8 L15.25 19.0 16.05 19.25 16.1 19.25 16.1 19.15 16.65 19.2 17.0 18.95 M12.9 16.85 L12.85 17.0 12.9 17.05 13.3 17.2 13.45 17.15 13.45 17.0 Q13.2 16.85 12.9 16.85" fill="#3e434a" fill-rule="evenodd" stroke="none"/>
    <path d="M26.5 30.5 L25.85 30.5 25.65 30.25 25.2 29.6 23.95 27.75 24.45 28.05 24.5 27.95 24.6 27.9 25.45 29.15 25.7 29.45 25.75 29.5 25.85 29.6 26.05 29.9 26.5 30.5 M3.0 17.0 L3.0 16.7 5.05 16.7 6.25 16.55 6.3 16.75 5.3 17.1 3.0 17.0 M3.0 15.45 L3.0 15.1 3.8 14.95 3.9 15.0 4.75 14.85 5.4 14.95 5.45 15.1 5.0 15.3 3.7 15.3 3.6 15.3 3.0 15.45 M15.85 18.15 L16.2 18.1 17.95 18.1 18.8 18.15 18.85 18.3 18.85 18.35 18.05 18.4 18.15 18.55 18.1 18.7 18.0 18.75 17.75 18.7 17.7 18.55 Q17.6 18.4 17.35 18.4 L17.0 18.4 16.35 18.2 15.85 18.15 M23.25 18.1 L24.15 18.2 24.35 18.45 24.25 18.6 23.85 18.65 22.25 18.5 21.85 18.35 21.85 18.3 22.45 18.15 23.25 18.1 M9.9 16.15 Q10.05 15.95 10.3 15.95 L10.95 15.95 11.6 16.3 11.6 16.45 11.4 16.5 10.4 16.45 10.05 16.3 9.9 16.15 M5.9 23.6 L6.0 23.6 6.05 23.7 6.05 23.6 8.4 23.9 8.95 23.95 11.85 24.25 11.85 24.4 12.0 24.4 12.7 24.6 12.9 24.6 12.95 24.6 13.0 24.7 13.35 24.75 13.4 24.85 14.75 25.15 14.75 25.3 14.7 25.35 14.5 25.55 12.95 25.3 10.65 24.95 6.85 24.35 6.8 24.35 6.25 24.55 6.1 24.45 6.2 24.3 6.0 24.15 5.85 23.75 5.9 23.6 M15.05 18.3 L15.1 18.35 15.25 18.4 15.3 18.45 15.55 18.55 16.65 18.85 16.95 18.85 17.0 18.95 16.65 19.2 16.1 19.15 16.1 19.25 16.05 19.25 15.25 19.0 14.9 18.8 Q14.45 18.55 14.3 18.15 L14.7 18.25 15.05 18.3 M12.9 16.85 Q13.2 16.85 13.45 17.0 L13.45 17.15 13.3 17.2 12.9 17.05 12.85 17.0 12.9 16.85 M23.15 27.3 L22.55 28.0 22.45 27.95 22.4 27.85 22.75 27.45 23.05 27.2 23.15 27.3" fill="#a8adb5" fill-rule="evenodd" stroke="none"/>
    <path d="M8.05 30.5 L4.75 30.5 4.75 29.7 5.0 29.95 6.05 28.65 6.1 28.65 6.9 29.6 7.2 30.0 7.4 29.85 6.3 28.5 6.3 28.4 6.4 28.25 7.3 29.6 8.05 30.5 M3.2 28.75 L3.0 28.75 3.0 28.45 3.2 28.75 M25.9 17.7 L25.9 17.25 Q25.85 16.9 26.2 16.95 L27.1 17.9 27.15 17.95 25.9 17.7 M21.2 17.95 L25.05 18.2 Q24.7 18.7 24.65 19.3 L24.9 20.25 24.75 20.2 21.05 20.4 Q20.65 19.75 21.0 19.05 21.35 18.35 21.2 17.95 M23.25 18.1 L22.45 18.15 21.85 18.3 21.85 18.35 22.25 18.5 23.85 18.65 24.25 18.6 24.35 18.45 24.15 18.2 23.25 18.1 M16.6 20.35 L16.75 20.3 17.65 19.85 18.05 19.45 Q18.85 19.1 19.8 19.05 L20.35 19.0 20.3 19.45 Q20.25 20.1 20.5 20.4 L20.4 20.4 18.4 20.5 17.65 20.55 18.25 20.65 16.6 20.45 16.6 20.35 M25.8 21.05 L25.9 20.75 26.1 20.7 26.75 20.6 26.7 20.65 25.75 21.2 25.8 21.05 M4.8 20.45 L4.65 20.4 4.7 20.35 5.0 20.35 4.8 20.45 M12.0 17.75 L12.05 18.0 12.25 18.3 13.05 18.9 12.95 22.05 Q12.05 20.95 10.75 20.2 9.55 19.45 8.25 19.1 L8.25 18.7 Q8.75 19.15 9.45 19.2 L10.35 18.9 Q11.25 18.45 11.95 17.7 L12.0 17.75 M7.5 22.0 L7.45 22.0 7.5 21.95 7.5 22.0" fill="#1d2023" fill-rule="evenodd" stroke="none"/>
    <path d="M17.8 30.5 L10.55 30.5 11.35 29.75 11.4 29.6 Q12.2 29.1 13.05 28.9 L15.5 28.5 15.55 28.45 12.15 28.6 12.15 28.65 12.1 28.9 12.0 29.0 11.6 29.25 11.2 29.55 11.15 29.6 11.1 29.75 9.9 30.5 9.6 30.5 9.15 30.2 8.5 29.6 8.0 29.15 Q6.4 27.5 5.7 25.4 L5.9 25.05 6.15 25.15 6.35 25.25 6.5 25.45 6.8 25.8 8.75 26.25 12.55 26.7 Q14.4 27.0 16.3 26.7 L20.1 26.25 22.7 25.65 20.9 26.9 17.55 27.2 Q16.5 27.5 15.55 27.95 L15.2 28.25 16.2 28.1 Q17.35 27.65 18.55 27.45 L20.7 27.1 18.95 28.8 18.4 28.5 17.65 28.35 16.0 28.45 16.6 28.65 18.6 28.85 18.65 28.9 17.85 29.0 18.7 29.05 17.8 30.5" fill="#26292d" fill-rule="evenodd" stroke="none"/>
    <path d="M13.85 23.35 L13.85 23.45 11.1 22.75 10.9 21.35 13.85 23.35 M29.5 29.25 L28.6 29.25 28.85 26.65 Q29.5 27.85 29.5 29.25 M28.0 29.6 L28.0 29.75 27.8 29.6 28.0 29.6 M26.8 30.5 L26.5 30.5 26.05 29.9 25.85 29.6 25.75 29.5 25.7 29.45 25.45 29.15 24.6 27.9 24.5 27.95 24.45 28.05 23.95 27.75 25.2 29.6 25.65 30.25 25.85 30.5 23.9 30.5 24.05 29.85 24.05 29.6 24.05 29.05 23.95 27.75 23.85 26.4 26.2 29.6 26.8 30.5 M23.6 30.5 L19.55 30.5 19.85 30.1 20.35 29.6 21.0 29.15 Q22.4 28.4 22.7 26.85 L23.7 26.25 23.7 27.45 23.7 28.75 23.7 29.55 23.7 29.6 23.65 30.3 23.6 30.5 M19.2 30.5 L18.2 30.5 18.9 29.6 19.35 29.05 19.4 29.0 Q20.3 28.05 21.5 27.25 L22.3 26.75 Q20.65 27.95 19.65 29.6 L19.5 29.9 19.2 30.5 M4.75 29.7 L4.75 28.75 3.2 28.75 3.0 28.45 3.0 27.35 3.35 26.95 4.2 26.05 5.25 24.3 5.4 25.2 Q5.65 26.75 6.4 28.25 L6.3 28.4 5.6 27.3 5.3 26.75 5.3 26.4 5.25 26.05 5.05 25.75 4.7 26.15 4.45 26.65 4.85 26.9 4.95 26.9 5.15 27.25 5.4 28.0 5.5 27.95 6.05 28.65 5.0 29.95 4.75 29.7 M3.0 27.0 L3.0 24.75 3.1 24.75 3.2 24.7 3.25 24.6 3.0 24.45 3.0 23.5 5.2 24.05 3.0 27.0 M3.0 22.75 L3.0 21.4 3.5 21.4 3.85 21.4 6.1 21.1 6.5 21.85 6.3 21.95 6.25 21.95 3.0 22.75 M7.5 21.95 L6.45 20.6 5.05 20.45 9.55 20.55 10.75 22.7 7.5 22.0 7.5 21.95 M23.15 27.3 L23.05 27.2 22.75 27.45 22.4 27.85 22.45 27.95 22.55 28.0 23.15 27.3" fill="#282c31" fill-rule="evenodd" stroke="none"/>
    <path d="M3.0 24.75 L3.0 24.45 3.25 24.6 3.2 24.7 3.1 24.75 3.0 24.75 M6.05 28.65 L5.5 27.95 5.4 28.0 5.15 27.25 4.95 26.9 4.85 26.9 4.45 26.65 4.7 26.15 5.05 25.75 5.25 26.05 5.3 26.4 5.3 26.75 5.6 27.3 6.3 28.4 6.3 28.5 7.4 29.85 7.2 30.0 6.9 29.6 6.1 28.65 6.05 28.65" fill="#8c949d" fill-rule="evenodd" stroke="none"/>
  </g>
</svg>
