<?xml version="1.0" encoding="UTF-8" standalone="no"?>
<svg xmlns:xlink="http://www.w3.org/1999/xlink" height="32.3px" width="34.15px" xmlns="http://www.w3.org/2000/svg">
  <g transform="matrix(1.0, 0.0, 0.0, 1.0, 1.05, -0.3)">
    <path d="M29.85 0.7 L29.7 1.1 29.6 1.25 29.05 2.1 28.6 1.8 28.6 1.45 28.85 0.8 Q28.9 0.35 29.3 0.35 L29.4 0.4 Q29.85 0.1 29.85 0.7 M1.25 2.6 Q0.8 2.6 0.7 2.2 L0.7 1.7 Q0.7 1.15 1.45 0.65 2.2 0.2 2.2 0.95 L1.25 2.6 M1.85 29.35 L1.55 29.85 1.0 30.25 Q0.6 30.25 0.6 29.8 0.6 29.5 0.9 29.25 1.3 28.9 1.8 29.1 L1.85 29.35 M29.95 29.35 L29.8 29.95 29.4 30.25 Q28.95 30.25 28.95 29.8 28.95 29.4 29.45 29.0 29.95 28.55 29.95 29.35" fill="#ff6666" fill-rule="evenodd" stroke="none"/>
    <path d="M32.7 3.95 L32.7 4.35 31.45 4.6 Q30.2 4.6 30.2 4.2 30.2 3.9 30.7 3.65 L31.35 2.95 Q31.15 2.6 31.45 2.15 31.8 1.75 32.3 1.95 L32.7 3.95 M4.2 2.5 Q4.2 4.6 2.45 4.6 L2.05 4.55 Q1.95 4.05 2.1 3.9 L1.7 3.5 Q1.7 3.05 3.35 3.05 L3.9 2.1 Q4.2 1.65 4.2 2.5 M3.6 30.35 Q3.7 30.0 4.3 30.1 L4.35 32.05 Q4.25 32.6 3.75 32.6 L1.6 32.45 Q1.45 32.4 1.45 32.15 2.65 30.7 3.6 30.85 L3.6 30.35 M32.25 32.5 L31.25 32.5 30.25 32.5 29.85 32.05 30.05 31.8 31.3 31.25 31.2 30.65 Q31.2 30.25 31.55 29.8 31.95 29.25 32.25 29.95 L32.45 31.75 32.25 32.5" fill="#660000" fill-rule="evenodd" stroke="none"/>
    <path d="M19.9 8.25 L20.25 8.7 20.3 8.85 20.3 19.4 20.5 19.5 20.65 19.45 20.65 9.2 21.1 9.75 22.6 11.25 23.05 11.95 23.6 12.85 23.55 13.35 23.55 13.4 Q23.2 13.45 23.2 14.8 L23.2 16.7 23.05 18.45 Q22.95 19.35 23.25 19.8 22.1 20.55 20.5 22.15 L19.05 23.65 16.95 23.65 12.8 23.55 12.25 23.6 10.5 21.6 10.4 21.5 8.3 19.35 8.4 14.65 8.3 13.65 8.35 13.6 8.45 13.0 9.3 11.9 10.7 10.6 Q12.7 8.7 12.7 8.4 L12.7 8.25 13.65 8.25 13.6 8.5 13.65 9.45 13.65 11.3 13.7 14.75 13.95 14.7 14.0 8.25 19.9 8.25 M10.9 14.45 L10.8 13.8 Q10.5 13.95 10.5 15.6 L10.55 21.6 10.8 21.6 10.9 14.45 M14.55 8.85 L14.15 9.15 Q14.15 9.45 14.6 9.45 L14.9 9.15 Q14.9 8.7 14.55 8.85 M17.55 22.7 Q17.55 23.0 17.85 23.0 18.25 23.0 18.25 22.6 L18.05 22.3 Q17.55 22.3 17.55 22.7 M19.35 22.3 L19.3 21.95 Q18.7 21.85 18.7 22.6 18.7 22.95 19.0 22.95 19.35 22.95 19.35 22.3 M17.25 11.0 L17.2 10.95 16.95 10.95 16.95 23.55 17.0 23.6 17.25 23.55 17.25 11.0" fill="#734d26" fill-rule="evenodd" stroke="none"/>
    <path d="M19.9 8.25 L14.0 8.25 13.95 14.7 13.7 14.75 13.65 11.3 13.65 9.45 13.6 8.5 13.65 8.25 12.7 8.25 12.7 8.4 Q12.7 8.7 10.7 10.6 L9.3 11.9 8.45 13.0 8.35 13.6 8.3 13.65 8.4 14.65 8.3 19.35 10.4 21.5 10.5 21.6 12.25 23.6 12.8 23.55 16.95 23.65 19.05 23.65 20.5 22.15 Q22.1 20.55 23.25 19.8 22.95 19.35 23.05 18.45 L23.2 16.7 23.2 14.8 Q23.2 13.45 23.55 13.4 L23.55 13.35 23.6 12.85 23.05 11.95 22.6 11.25 21.1 9.75 20.65 9.2 20.65 19.45 20.5 19.5 20.3 19.4 20.3 8.85 20.25 8.7 19.9 8.25 M20.35 8.35 Q22.75 10.5 23.75 12.55 L23.9 12.5 23.95 12.7 23.9 13.95 23.75 14.0 23.65 13.95 23.5 19.6 23.6 19.55 23.65 19.7 21.65 21.8 19.6 23.65 21.0 23.6 21.05 23.75 19.35 23.85 18.8 24.2 18.75 24.0 18.85 23.85 12.6 23.95 12.4 23.95 12.4 24.05 12.25 24.1 9.2 20.8 8.3 19.75 8.3 19.8 8.2 19.85 8.05 19.75 8.05 19.4 8.0 19.35 8.0 19.1 8.05 19.15 8.05 13.5 8.1 13.5 8.05 13.3 8.05 13.1 8.05 12.75 8.25 12.65 8.3 12.6 8.35 12.55 8.3 12.45 Q8.3 12.05 10.25 10.25 L12.6 8.25 12.55 8.25 12.5 8.2 12.5 7.95 13.85 7.9 14.0 7.85 14.0 7.9 20.25 7.95 20.3 8.15 20.25 8.25 20.35 8.35 M17.25 11.0 L17.25 23.55 17.0 23.6 16.95 23.55 16.95 10.95 17.2 10.95 17.25 11.0 M19.35 22.3 Q19.35 22.95 19.0 22.95 18.7 22.95 18.7 22.6 18.7 21.85 19.3 21.95 L19.35 22.3 M17.55 22.7 Q17.55 22.3 18.05 22.3 L18.25 22.6 Q18.25 23.0 17.85 23.0 17.55 23.0 17.55 22.7 M14.55 8.85 Q14.9 8.7 14.9 9.15 L14.6 9.45 Q14.15 9.45 14.15 9.15 L14.55 8.85 M10.9 14.45 L10.8 21.6 10.55 21.6 10.5 15.6 Q10.5 13.95 10.8 13.8 L10.9 14.45" fill="#000000" fill-rule="evenodd" stroke="none"/>
    <path d="M4.2 16.75 L3.95 16.0 Q3.65 15.95 3.65 16.35 3.65 16.75 4.05 16.95 L4.2 16.75 M6.3 18.95 L6.45 18.85 Q6.3 18.0 5.8 18.3 L5.95 18.7 6.3 18.95 M8.25 17.95 L8.2 17.7 7.9 17.75 7.95 18.0 8.2 18.0 8.25 17.95 M10.85 14.95 Q10.85 13.95 10.65 13.65 L9.9 12.95 Q9.35 12.5 9.2 12.5 L8.95 12.7 Q10.55 13.75 10.55 14.9 L10.25 17.15 10.4 17.35 Q10.7 17.05 10.8 16.05 L10.85 14.95 M6.85 15.35 Q6.5 15.05 6.2 15.05 L6.65 15.6 Q7.05 15.95 7.35 15.95 7.8 15.95 7.8 15.75 L7.75 15.6 6.85 15.35 M5.95 13.9 L6.0 14.0 Q6.55 14.0 6.95 13.6 L7.3 13.2 7.25 13.05 Q5.95 13.4 5.95 13.9 M3.45 14.8 L3.5 15.0 3.8 14.65 4.1 14.35 4.3 14.15 4.25 13.95 Q3.95 13.95 3.7 14.3 L3.45 14.8 M4.55 12.05 Q5.0 11.7 5.25 11.65 L7.05 11.35 8.9 11.4 Q10.9 12.9 11.2 13.55 L11.7 14.8 12.05 16.05 Q12.05 17.7 11.1 18.45 8.35 19.85 6.5 19.85 4.2 19.85 3.25 17.55 2.7 16.25 2.7 14.85 2.7 13.65 3.9 12.6 L4.55 12.05" fill="#857e69" fill-rule="evenodd" stroke="none"/>
    <path d="M4.75 11.45 L6.4 10.95 6.55 10.85 7.35 10.85 Q10.1 10.85 11.45 13.2 12.35 14.75 12.35 16.05 12.35 18.2 11.2 18.85 L9.0 19.75 6.8 20.2 Q4.0 20.2 2.95 17.8 2.4 16.55 2.4 14.85 L2.65 13.55 Q2.95 12.7 3.5 12.45 L4.0 12.0 4.75 11.45 M4.55 12.05 L3.9 12.6 Q2.7 13.65 2.7 14.85 2.7 16.25 3.25 17.55 4.2 19.85 6.5 19.85 8.35 19.85 11.1 18.45 12.05 17.7 12.05 16.05 L11.7 14.8 11.2 13.55 Q10.9 12.9 8.9 11.4 L7.05 11.35 5.25 11.65 Q5.0 11.7 4.55 12.05 M3.45 14.8 L3.7 14.3 Q3.95 13.95 4.25 13.95 L4.3 14.15 4.1 14.35 3.8 14.65 3.5 15.0 3.45 14.8 M5.95 13.9 Q5.95 13.4 7.25 13.05 L7.3 13.2 6.95 13.6 Q6.55 14.0 6.0 14.0 L5.95 13.9 M6.85 15.35 L7.75 15.6 7.8 15.75 Q7.8 15.95 7.35 15.95 7.05 15.95 6.65 15.6 L6.2 15.05 Q6.5 15.05 6.85 15.35 M10.85 14.95 L10.8 16.05 Q10.7 17.05 10.4 17.35 L10.25 17.15 10.55 14.9 Q10.55 13.75 8.95 12.7 L9.2 12.5 Q9.35 12.5 9.9 12.95 L10.65 13.65 Q10.85 13.95 10.85 14.95 M8.25 17.95 L8.2 18.0 7.95 18.0 7.9 17.75 8.2 17.7 8.25 17.95 M6.3 18.95 L5.95 18.7 5.8 18.3 Q6.3 18.0 6.45 18.85 L6.3 18.95 M4.2 16.75 L4.05 16.95 Q3.65 16.75 3.65 16.35 3.65 15.95 3.95 16.0 L4.2 16.75" fill="#000000" fill-rule="evenodd" stroke="none"/>
    <path d="M2.9 12.4 L2.9 17.65 3.4 18.1 3.55 18.55 Q3.55 19.45 2.4 19.45 L1.95 19.45 1.0 20.15 -0.4 21.1 -0.45 20.9 -0.4 20.75 -0.75 20.25 -1.0 20.25 -1.05 20.1 0.2 18.85 Q1.2 17.95 1.8 17.65 L1.75 17.3 1.8 14.2 Q1.8 13.1 1.95 12.7 L1.9 12.7 1.9 12.35 2.7 12.4 Q2.75 12.0 2.9 12.4 M2.65 12.7 L2.15 12.7 2.2 15.9 2.05 17.65 2.05 17.7 -0.55 20.1 -0.3 20.35 -0.2 20.5 2.05 19.05 2.1 19.1 2.75 18.95 Q3.25 18.85 3.25 18.55 L2.95 18.15 2.75 18.0 2.7 17.95 2.55 17.85 2.65 17.75 2.55 15.15 2.65 12.7" fill="#000000" fill-rule="evenodd" stroke="none"/>
    <path d="M2.65 12.7 L2.55 15.15 2.65 17.75 2.55 17.85 2.7 17.95 2.75 18.0 2.95 18.15 3.25 18.55 Q3.25 18.85 2.75 18.95 L2.1 19.1 2.05 19.05 -0.2 20.5 -0.3 20.35 -0.55 20.1 2.05 17.7 2.05 17.65 2.2 15.9 2.15 12.7 2.65 12.7" fill="#734d26" fill-rule="evenodd" stroke="none"/>
    <path d="M29.45 11.65 L29.45 11.95 29.7 12.6 30.0 13.15 30.15 13.1 30.15 17.0 31.5 17.0 31.45 16.15 31.45 15.05 31.55 13.2 31.5 13.2 31.45 13.05 Q31.45 13.0 32.15 12.5 L32.8 11.55 32.6 11.2 32.3 10.95 31.6 11.55 Q31.2 12.1 31.15 12.35 L31.1 12.35 31.1 12.4 30.95 12.45 Q30.75 12.45 30.65 11.95 30.5 11.4 29.85 11.4 L29.45 11.65 M31.85 17.1 L31.95 17.0 32.05 17.6 31.95 21.05 32.15 21.05 32.2 21.2 32.15 21.35 1.85 21.45 1.65 21.35 1.65 21.4 1.5 21.45 Q1.25 21.45 1.2 18.35 1.2 17.4 1.35 17.0 L1.3 16.95 1.35 16.8 1.4 16.8 1.65 16.7 1.7 16.8 4.05 17.05 29.05 17.05 29.0 17.0 29.8 17.0 29.8 13.45 Q29.4 13.4 29.2 12.6 L29.05 11.65 Q29.05 11.05 29.9 11.05 30.8 11.05 31.05 11.65 L31.05 11.7 31.5 11.2 Q32.05 10.6 32.35 10.6 32.8 10.6 33.1 11.55 L32.75 12.4 31.8 13.15 31.8 17.0 31.65 17.2 31.6 17.2 29.8 17.35 29.45 17.35 3.85 17.45 1.65 17.15 1.5 18.3 Q1.5 20.05 1.65 20.8 L1.65 21.05 1.75 21.05 31.6 21.05 31.6 21.1 31.85 21.1 31.9 20.95 31.75 20.75 31.7 20.75 31.65 19.2 Q31.65 17.9 31.8 17.35 L31.9 17.35 31.95 17.2 31.85 17.1" fill="#000000" fill-rule="evenodd" stroke="none"/>
    <path d="M29.45 11.65 L29.85 11.4 Q30.5 11.4 30.65 11.95 30.75 12.45 30.95 12.45 L31.1 12.4 31.1 12.35 31.15 12.35 Q31.2 12.1 31.6 11.55 L32.3 10.95 32.6 11.2 32.8 11.55 32.15 12.5 Q31.45 13.0 31.45 13.05 L31.5 13.2 31.55 13.2 31.45 15.05 31.45 16.15 31.5 17.0 30.15 17.0 30.15 13.1 30.0 13.15 29.7 12.6 29.45 11.95 29.45 11.65" fill="#ede8de" fill-rule="evenodd" stroke="none"/>
    <path d="M31.8 17.0 L31.85 17.1 31.95 17.2 31.9 17.35 31.8 17.35 Q31.65 17.9 31.65 19.2 L31.7 20.75 31.75 20.75 31.9 20.95 31.85 21.1 31.6 21.1 31.6 21.05 1.75 21.05 1.65 21.05 1.65 20.8 Q1.5 20.05 1.5 18.3 L1.65 17.15 3.85 17.45 29.45 17.35 29.8 17.35 31.6 17.2 31.65 17.2 31.8 17.0 M31.35 18.15 L31.3 18.0 29.45 17.95 Q28.95 17.95 28.95 18.15 L29.0 18.3 31.3 18.3 31.35 18.15 M22.2 20.2 L22.25 20.35 30.75 20.35 30.8 20.2 28.3 20.0 28.3 19.95 Q28.3 19.8 27.75 19.75 L22.4 19.6 22.2 19.7 22.1 19.85 21.9 19.9 21.8 20.0 6.6 20.0 6.45 20.15 6.5 20.3 22.0 20.3 22.0 20.2 22.2 20.2 M17.35 19.3 L27.2 19.3 27.25 19.15 27.2 19.0 9.6 18.9 7.7 19.2 7.75 19.25 4.65 19.25 4.5 19.45 4.55 19.6 17.35 19.6 17.4 19.45 17.35 19.3 M24.55 18.2 L24.2 18.0 22.55 18.0 20.75 18.0 20.75 18.25 20.8 18.3 24.35 18.4 24.55 18.2 M22.45 17.75 L22.4 17.6 20.65 17.6 20.65 17.85 20.7 17.9 22.4 17.9 22.45 17.75 M13.85 18.3 L13.8 18.1 3.25 18.15 2.25 18.3 2.3 18.45 13.8 18.45 13.85 18.3" fill="#85732e" fill-rule="evenodd" stroke="none"/>
    <path d="M31.35 18.15 L31.3 18.3 29.0 18.3 28.95 18.15 Q28.95 17.95 29.45 17.95 L31.3 18.0 31.35 18.15 M28.3 20.0 L28.25 20.1 24.6 20.1 22.25 20.1 22.25 20.2 22.2 20.2 22.0 20.2 22.0 20.3 6.5 20.3 6.45 20.15 6.6 20.0 21.8 20.0 21.9 19.9 22.1 19.85 22.2 19.7 22.4 19.6 27.75 19.75 Q28.3 19.8 28.3 19.95 L28.3 20.0 M17.35 19.3 L17.4 19.45 17.35 19.6 4.55 19.6 4.5 19.45 4.65 19.25 7.75 19.25 16.85 19.25 17.35 19.3 M22.45 17.75 L22.4 17.9 20.7 17.9 20.65 17.85 20.65 17.6 22.4 17.6 22.45 17.75" fill="#9d8837" fill-rule="evenodd" stroke="none"/>
    <path d="M24.6 20.1 L28.25 20.1 28.3 20.0 30.8 20.2 30.75 20.35 22.25 20.35 22.2 20.2 22.25 20.2 24.6 20.1 M7.75 19.25 L7.7 19.2 9.6 18.9 27.2 19.0 27.25 19.15 27.2 19.3 17.35 19.3 16.85 19.25 7.75 19.25 M24.55 18.2 L24.35 18.4 20.8 18.3 20.75 18.25 20.75 18.0 22.55 18.0 24.2 18.0 24.55 18.2 M13.85 18.3 L13.8 18.45 2.3 18.45 2.25 18.3 3.25 18.15 13.8 18.1 13.85 18.3" fill="#665126" fill-rule="evenodd" stroke="none"/>
    <path d="M24.6 20.1 L22.25 20.2 22.25 20.1 24.6 20.1" fill="#bfa748" fill-rule="evenodd" stroke="none"/>
    <path d="M32.4 13.2 L32.35 13.35 32.35 16.3 32.45 16.45 32.4 16.5 32.35 16.5 32.35 16.6 32.2 16.7 32.05 16.6 32.05 16.5 1.3 16.5 1.25 16.45 1.25 16.2 1.35 16.2 Q1.25 15.8 1.3 14.75 1.3 13.8 1.45 13.35 L1.2 13.35 1.15 13.3 1.15 13.05 1.55 13.05 1.55 13.0 1.6 13.05 32.35 13.05 32.4 13.2 M32.05 13.35 L1.65 13.35 1.65 16.2 32.05 16.15 32.05 13.35" fill="#000000" fill-rule="evenodd" stroke="none"/>
    <path d="M32.05 13.35 L32.05 16.15 1.65 16.2 1.65 13.35 32.05 13.35" fill="#990000" fill-rule="evenodd" stroke="none"/>
  </g>
</svg>
