<?xml version="1.0" encoding="UTF-8" standalone="no"?>
<svg xmlns:xlink="http://www.w3.org/1999/xlink" height="32.3px" width="32.1px" xmlns="http://www.w3.org/2000/svg">
  <g transform="matrix(1.0, 0.0, 0.0, 1.0, -0.6, -0.3)">
    <path d="M29.85 0.7 L29.7 1.1 29.6 1.25 29.05 2.1 28.6 1.8 28.6 1.45 28.85 0.8 Q28.9 0.35 29.3 0.35 L29.4 0.4 Q29.85 0.1 29.85 0.7 M1.25 2.6 Q0.8 2.6 0.7 2.2 L0.7 1.7 Q0.7 1.15 1.45 0.65 2.2 0.2 2.2 0.95 L1.25 2.6 M1.85 29.35 L1.55 29.85 1.0 30.25 Q0.6 30.25 0.6 29.8 0.6 29.5 0.9 29.25 1.3 28.9 1.8 29.1 L1.85 29.35 M29.95 29.35 L29.8 29.95 29.4 30.25 Q28.95 30.25 28.95 29.8 28.95 29.4 29.45 29.0 29.95 28.55 29.95 29.35" fill="#ff6666" fill-rule="evenodd" stroke="none"/>
    <path d="M32.7 3.95 L32.7 4.35 31.45 4.6 Q30.2 4.6 30.2 4.2 30.2 3.9 30.7 3.65 L31.35 2.95 Q31.15 2.6 31.45 2.15 31.8 1.75 32.3 1.95 L32.7 3.95 M4.2 2.5 Q4.2 4.6 2.45 4.6 L2.05 4.55 Q1.95 4.05 2.1 3.9 L1.7 3.5 Q1.7 3.05 3.35 3.05 L3.9 2.1 Q4.2 1.65 4.2 2.5 M3.6 30.35 Q3.7 30.0 4.3 30.1 L4.35 32.05 Q4.25 32.6 3.75 32.6 L1.6 32.45 Q1.45 32.4 1.45 32.15 2.65 30.7 3.6 30.85 L3.6 30.35 M32.25 32.5 L31.25 32.5 30.25 32.5 29.85 32.05 30.05 31.8 31.3 31.25 31.2 30.65 Q31.2 30.25 31.55 29.8 31.95 29.25 32.25 29.95 L32.45 31.75 32.25 32.5" fill="#660000" fill-rule="evenodd" stroke="none"/>
    <path d="M7.7 22.1 L8.55 21.5 Q9.25 21.05 10.0 20.85 L10.25 20.8 10.3 20.8 11.05 20.85 11.5 20.9 11.9 20.35 Q12.05 20.05 12.5 19.85 L12.8 19.75 13.1 19.65 13.55 19.7 13.65 19.85 14.15 19.45 14.2 19.35 14.3 19.3 14.45 19.3 14.55 19.35 14.75 19.55 14.95 18.85 14.55 18.5 14.5 18.2 14.65 18.1 15.4 18.65 15.6 18.6 15.65 18.75 15.65 18.85 15.8 18.95 Q16.3 18.55 17.65 18.25 L18.65 18.35 19.15 17.25 19.2 17.15 Q19.4 16.8 19.85 16.75 L20.25 16.85 20.45 17.05 20.3 17.4 Q20.05 17.6 20.1 17.75 L20.3 18.05 20.7 18.15 22.25 17.4 22.6 17.2 23.2 16.9 22.6 16.2 22.25 15.65 22.2 15.5 22.25 15.2 22.6 14.85 22.85 14.65 23.65 14.15 23.3 13.9 22.9 13.45 Q22.85 13.1 23.1 13.05 L22.6 12.75 22.25 12.6 22.05 12.55 22.0 12.45 21.8 12.3 22.25 11.7 22.7 11.05 22.75 10.95 24.1 9.05 24.0 8.85 23.7 8.9 22.2 9.8 20.55 9.65 18.8 9.45 18.3 9.65 18.3 9.7 17.95 10.1 17.7 10.25 17.1 10.6 16.7 10.8 15.95 11.25 15.65 11.4 14.95 11.75 13.05 13.5 11.85 15.45 10.35 17.25 10.0 17.55 9.85 17.65 10.0 17.7 10.35 17.9 10.6 18.1 11.0 18.65 Q11.15 19.3 10.3 20.05 L10.0 20.25 Q9.05 20.9 7.3 21.55 7.65 21.65 7.65 22.05 L7.65 22.1 7.7 22.1 M3.25 24.8 L3.25 24.55 4.05 24.25 3.8 24.35 8.35 23.2 7.95 22.65 7.8 22.85 7.35 22.95 7.3 22.55 7.35 22.1 Q7.25 21.6 6.7 21.9 L6.6 21.75 Q6.5 21.35 7.3 21.15 L9.3 20.3 10.0 19.8 10.0 18.75 9.95 18.75 9.85 18.6 10.0 18.5 10.0 18.1 9.85 18.0 9.5 18.1 7.8 19.9 Q7.5 19.95 7.55 19.8 L7.6 19.75 7.5 19.7 7.9 18.9 8.55 18.25 8.55 18.3 9.65 17.25 10.0 16.95 10.0 15.85 10.05 15.85 10.0 15.65 10.0 15.45 10.0 15.1 10.2 15.0 10.25 14.95 10.3 14.9 10.25 14.8 Q10.25 14.4 12.2 12.6 13.65 11.25 14.4 10.7 L13.35 7.0 13.35 6.3 Q12.45 6.1 12.2 4.8 12.2 4.05 12.35 3.75 12.75 3.0 14.05 3.0 15.55 3.0 15.65 4.65 15.65 5.25 15.25 5.7 L15.1 5.9 15.2 5.85 16.35 10.25 16.75 10.25 17.1 10.05 17.25 10.0 Q17.35 9.75 17.9 9.45 18.05 9.25 18.7 9.15 L20.3 9.3 21.15 9.45 22.15 9.45 23.0 9.0 23.6 8.55 24.15 8.45 24.4 9.05 23.6 10.35 23.15 10.95 24.85 11.95 25.7 12.6 26.0 13.4 26.05 13.95 25.6 13.9 25.55 13.9 26.45 14.1 26.6 13.9 26.8 13.7 Q27.95 13.45 28.2 14.35 L28.05 14.85 28.05 14.9 28.1 15.0 28.5 15.5 28.55 15.65 28.8 15.95 28.95 15.8 29.0 15.85 29.25 15.75 29.55 15.9 29.75 15.95 29.75 16.3 28.95 16.2 28.95 16.15 27.5 17.5 27.6 17.75 27.75 18.15 27.05 18.65 27.8 19.35 28.65 19.1 28.85 19.2 29.15 18.95 29.25 18.8 29.3 18.8 29.75 18.2 29.75 18.8 29.65 18.95 29.75 19.05 29.75 19.4 29.5 19.25 29.45 19.2 28.85 19.8 28.6 19.85 28.5 19.7 28.55 19.5 27.5 19.75 27.3 19.35 26.75 18.8 Q26.65 18.35 27.15 18.2 L27.0 18.15 26.85 18.15 26.65 18.15 26.55 18.1 26.1 18.3 25.6 18.25 25.45 21.95 25.55 21.9 25.6 22.05 23.6 24.15 21.55 26.0 22.95 25.95 23.0 26.1 21.3 26.2 20.75 26.55 20.7 26.35 20.8 26.2 14.55 26.3 14.65 26.6 14.75 27.0 14.6 27.1 Q14.25 27.2 13.4 25.65 L13.1 25.35 12.0 25.65 12.0 26.35 12.75 28.55 12.6 28.65 Q12.3 28.7 11.35 27.6 L10.0 26.15 10.0 26.05 4.35 26.8 3.25 26.9 3.25 26.6 11.6 25.35 12.85 25.1 13.15 25.05 13.15 25.0 13.4 24.95 13.4 25.0 13.45 25.0 14.45 24.65 14.4 24.6 Q14.3 24.3 14.7 24.1 L14.75 24.25 14.75 24.45 15.55 24.05 17.25 23.25 17.8 23.0 17.8 22.65 17.0 21.55 16.7 21.2 16.3 21.3 16.35 21.75 15.65 21.65 14.95 22.2 14.5 21.95 14.5 22.25 14.4 21.9 14.55 21.85 14.85 22.15 Q15.35 21.6 15.6 21.55 L16.2 21.65 16.05 21.3 16.6 21.1 16.15 20.6 12.8 22.1 12.6 22.15 12.5 22.2 11.3 22.65 10.85 22.8 4.4 24.55 3.25 24.8 M22.6 11.6 L22.4 11.85 22.6 12.0 22.65 12.0 22.6 12.2 22.5 12.3 22.6 12.35 23.05 12.5 23.7 13.1 Q23.7 13.25 23.2 13.4 23.9 13.7 24.05 14.35 24.1 14.6 23.75 14.7 L22.6 15.35 22.45 15.45 22.6 15.65 23.05 16.15 23.5 16.85 23.45 17.0 24.4 16.15 24.3 15.15 24.8 14.0 25.0 13.7 25.25 13.4 25.65 13.3 24.4 12.15 23.25 11.6 22.85 11.3 22.65 11.6 22.6 11.6 M24.4 17.0 L24.45 17.15 24.55 17.15 24.55 16.95 25.15 17.15 25.2 17.15 25.6 17.35 25.75 17.5 25.6 17.85 26.05 17.95 26.4 17.75 Q26.5 17.6 26.7 17.6 L26.75 17.6 28.5 16.1 28.15 15.9 28.0 16.1 27.75 16.15 27.65 16.0 Q27.6 15.65 28.15 15.45 L27.85 15.35 26.9 16.25 26.8 16.1 Q26.75 15.9 27.15 15.35 L27.65 14.95 Q27.7 14.7 27.9 14.4 27.2 14.0 26.9 14.05 L26.7 14.25 26.75 14.3 25.95 15.25 25.9 15.2 25.75 15.05 25.9 14.95 26.3 14.55 25.05 14.15 24.95 14.25 Q24.6 14.65 24.55 15.35 L24.35 16.7 24.3 16.7 24.3 16.85 24.3 16.9 24.1 17.2 23.45 17.3 23.4 17.25 23.35 17.05 23.3 17.15 24.0 18.5 24.1 18.8 23.95 18.9 23.9 18.9 22.6 20.9 22.6 21.8 22.45 21.85 22.3 21.8 22.25 22.35 Q22.05 23.05 21.05 23.25 L19.55 23.45 19.2 23.55 19.2 25.9 18.95 25.95 18.9 25.9 18.9 23.65 Q17.65 24.15 16.05 25.75 15.8 25.8 15.4 25.05 15.2 24.85 14.8 24.75 L14.65 24.8 14.55 25.6 14.55 25.9 14.75 25.9 18.9 26.0 21.0 26.0 22.45 24.5 Q24.05 22.9 25.2 22.15 24.9 21.7 25.0 20.8 L25.15 19.05 25.15 17.45 24.8 17.35 24.3 17.2 24.4 17.0 M27.45 18.1 L27.4 18.05 27.4 18.1 27.45 18.1 M27.2 17.75 L27.15 17.8 27.25 17.85 27.2 17.75 M19.8 13.95 L20.0 13.7 20.05 13.9 20.3 13.85 20.6 13.6 21.0 13.5 21.05 13.65 20.65 13.65 20.1 14.0 19.9 13.95 19.4 14.2 19.2 14.5 19.15 14.5 18.9 14.45 18.85 14.4 Q18.75 14.25 18.9 14.1 L19.2 13.85 19.55 13.6 19.5 12.65 19.3 12.15 18.95 11.6 19.05 11.55 19.4 12.1 19.6 12.65 19.65 13.8 19.85 13.5 19.9 13.6 19.75 13.95 19.75 14.0 19.8 13.95 M22.25 17.85 L20.75 18.45 20.1 18.3 19.75 17.9 19.95 17.15 19.7 17.05 19.2 17.95 18.95 18.75 18.9 18.8 18.85 18.85 17.7 18.7 17.15 18.85 Q17.1 20.05 16.5 20.25 L17.25 21.1 18.1 22.6 18.9 22.5 18.95 22.5 19.2 22.65 19.6 22.65 Q20.3 22.5 21.1 20.9 L21.35 20.8 21.45 20.95 20.7 22.0 Q20.45 22.85 19.7 23.0 L19.2 23.05 19.05 23.0 18.9 22.95 18.5 22.9 18.1 23.3 18.05 23.3 16.0 24.25 15.05 24.65 15.5 24.75 Q15.85 24.9 15.85 25.25 L16.05 25.3 Q17.7 23.85 18.9 23.35 L19.2 23.25 19.5 23.15 21.0 22.95 Q21.6 22.8 22.2 21.1 L22.25 20.95 22.6 20.15 Q23.05 19.2 23.7 18.65 L23.4 18.15 23.0 17.4 23.0 17.35 22.6 17.65 22.25 17.85 M20.5 19.05 L20.3 19.1 20.25 18.85 20.5 19.05 M21.3 24.65 Q21.3 25.3 20.95 25.3 20.65 25.3 20.65 24.95 20.65 24.2 21.25 24.3 L21.3 24.65 M14.1 3.9 Q14.85 3.9 14.85 4.45 L14.75 4.85 14.5 4.85 14.55 4.45 14.35 4.25 Q14.15 4.25 14.1 3.9 M13.6 3.8 L13.2 4.55 13.3 4.9 Q13.45 5.15 13.7 5.05 L13.75 5.2 13.7 5.35 13.4 5.35 12.95 4.95 12.9 4.5 Q12.9 3.85 13.55 3.65 L13.6 3.8 M13.8 6.0 Q14.65 6.0 15.05 5.4 L15.35 4.65 Q15.35 3.3 13.95 3.3 12.5 3.3 12.5 4.85 L12.85 5.5 Q13.3 6.0 13.8 6.0 M14.35 7.05 L13.85 7.05 14.7 10.3 15.8 10.25 15.95 10.2 15.95 10.25 16.0 10.25 15.5 8.55 15.1 7.0 14.35 7.05 M14.4 6.3 L13.75 6.35 13.75 6.75 14.9 6.7 14.9 6.35 14.4 6.3 M14.65 10.75 L14.5 11.05 12.65 12.95 11.25 14.25 10.4 15.35 10.3 15.95 10.25 16.0 10.35 16.7 11.15 15.85 12.15 14.25 12.6 13.55 Q12.65 12.8 15.2 11.2 L15.6 11.0 15.55 10.85 15.6 10.6 14.65 10.6 14.65 10.75 M15.95 10.75 L16.25 10.6 15.95 10.6 15.95 10.75 M16.45 12.05 L17.7 12.0 18.45 12.4 18.95 12.8 18.2 11.0 18.45 10.95 18.35 11.2 19.0 12.35 19.15 13.2 19.1 13.2 19.1 13.3 18.95 13.75 18.9 13.95 18.55 14.7 18.25 15.6 Q17.95 16.05 16.15 16.45 L15.9 16.5 15.65 16.5 15.2 16.5 13.75 16.55 13.7 16.55 13.65 16.35 13.2 15.75 13.25 15.6 13.2 15.6 13.1 15.35 Q12.95 14.7 13.6 14.1 L15.3 12.6 15.6 12.4 15.95 12.25 16.45 12.05 M8.6 18.55 L8.5 18.75 9.05 18.3 8.75 18.4 8.6 18.55 M8.4 22.65 L8.65 23.1 10.6 22.5 11.0 22.35 11.5 22.15 11.45 22.1 11.5 21.25 11.05 21.2 10.3 21.15 10.0 21.25 Q8.85 21.55 8.2 22.25 L8.4 22.65 M17.95 12.5 Q17.15 12.1 16.6 12.25 L15.95 12.55 15.65 12.75 15.6 12.8 Q14.95 13.25 14.65 13.7 L13.75 14.65 Q13.3 14.9 13.35 15.2 L13.5 15.35 13.5 15.4 13.6 15.75 14.1 16.1 14.15 16.2 15.0 16.0 15.4 16.05 15.55 16.15 15.65 16.15 15.9 16.1 16.05 16.05 16.55 16.0 17.75 15.35 18.25 14.45 18.65 13.7 18.75 13.1 17.95 12.5 M11.4 18.25 L11.45 18.8 11.2 19.3 11.3 18.3 11.4 18.25 M13.1 15.95 L13.15 16.1 12.95 16.15 12.9 16.35 Q13.05 16.9 13.35 17.0 L13.35 17.1 Q12.95 17.1 12.85 16.4 12.75 16.0 13.0 15.85 L13.1 15.95 M14.45 19.65 L14.3 19.8 13.9 20.15 13.45 20.25 Q13.35 19.95 13.1 20.0 L12.8 20.1 12.5 20.2 12.1 20.4 12.05 20.95 12.0 21.05 11.85 22.05 12.5 21.75 12.8 21.6 14.35 20.95 14.3 20.85 Q14.2 20.4 14.55 19.8 L14.45 19.65 M14.65 20.8 L16.05 20.25 15.95 20.15 16.35 19.8 16.75 19.15 16.65 19.0 Q16.15 19.2 15.85 19.35 L15.45 19.2 14.9 20.1 14.85 20.25 14.65 20.8 M10.35 19.45 L10.7 18.65 10.35 18.65 10.3 19.5 10.35 19.45 M12.3 23.75 Q12.0 23.9 11.85 24.0 L11.65 24.1 11.6 24.05 11.75 23.85 11.9 23.6 12.15 23.55 12.5 23.5 12.75 23.4 12.95 23.35 13.15 23.35 12.75 23.55 12.5 23.65 12.3 23.75 M19.7 18.85 L20.05 18.75 19.95 18.8 Q19.7 18.85 19.55 19.05 L19.2 19.3 19.15 19.3 18.9 19.3 18.8 19.25 18.9 19.15 19.2 18.95 19.25 18.95 19.2 19.1 19.15 19.1 19.2 19.15 19.7 18.85 M16.3 22.7 L16.8 22.35 17.4 22.25 17.4 22.35 17.3 22.45 17.2 22.4 Q17.2 22.3 17.1 22.35 L16.3 22.7 M19.8 25.35 Q19.5 25.35 19.5 25.05 19.5 24.65 20.0 24.65 L20.2 24.95 Q20.2 25.35 19.8 25.35 M14.2 25.4 L14.25 24.95 13.6 25.2 13.55 25.2 14.15 26.35 14.15 25.9 14.2 25.4 M11.7 25.7 L11.65 25.75 10.35 26.0 11.05 26.7 12.0 27.8 11.7 26.4 11.7 25.7" fill="#000000" fill-rule="evenodd" stroke="none"/>
    <path d="M24.3 16.9 L24.4 17.0 24.3 17.2 24.8 17.35 25.15 17.45 25.15 19.05 25.0 20.8 Q24.9 21.7 25.2 22.15 24.05 22.9 22.45 24.5 L21.0 26.0 18.9 26.0 14.75 25.9 14.55 25.9 14.55 25.6 14.65 24.8 14.8 24.75 Q15.2 24.85 15.4 25.05 15.8 25.8 16.05 25.75 17.65 24.15 18.9 23.65 L18.9 25.9 18.95 25.95 19.2 25.9 19.2 23.55 19.55 23.45 21.05 23.25 Q22.05 23.05 22.25 22.35 L22.3 21.8 22.45 21.85 22.6 21.8 22.6 20.9 23.9 18.9 23.95 18.9 24.1 18.8 24.0 18.5 23.3 17.15 23.35 17.05 23.4 17.25 23.45 17.3 24.1 17.2 24.3 16.9 M19.75 13.95 L19.8 13.95 19.75 14.0 19.75 13.95 M21.3 24.65 L21.25 24.3 Q20.65 24.2 20.65 24.95 20.65 25.3 20.95 25.3 21.3 25.3 21.3 24.65 M14.35 7.05 L15.1 7.0 15.5 8.55 16.0 10.25 15.95 10.25 15.95 10.2 15.8 10.25 14.7 10.3 13.85 7.05 14.35 7.05 M13.8 6.0 Q13.3 6.0 12.85 5.5 L12.5 4.85 Q12.5 3.3 13.95 3.3 15.35 3.3 15.35 4.65 L15.05 5.4 Q14.65 6.0 13.8 6.0 M13.6 3.8 L13.55 3.65 Q12.9 3.85 12.9 4.5 L12.95 4.95 13.4 5.35 13.7 5.35 13.75 5.2 13.7 5.05 Q13.45 5.15 13.3 4.9 L13.2 4.55 13.6 3.8 M14.1 3.9 Q14.15 4.25 14.35 4.25 L14.55 4.45 14.5 4.85 14.75 4.85 14.85 4.45 Q14.85 3.9 14.1 3.9 M15.95 10.75 L15.95 10.6 16.25 10.6 15.95 10.75 M14.65 10.75 L14.65 10.6 15.6 10.6 15.55 10.85 15.6 11.0 15.2 11.2 Q12.65 12.8 12.6 13.55 L12.15 14.25 11.15 15.85 10.35 16.7 10.25 16.0 10.3 15.95 10.4 15.35 11.25 14.25 12.65 12.95 14.5 11.05 14.65 10.75 M10.35 19.45 L10.3 19.5 10.35 18.65 10.7 18.65 10.35 19.45 M19.8 25.35 Q20.2 25.35 20.2 24.95 L20.0 24.65 Q19.5 24.65 19.5 25.05 19.5 25.35 19.8 25.35" fill="#734d26" fill-rule="evenodd" stroke="none"/>
    <path d="M14.4 6.3 L14.9 6.35 14.9 6.7 13.75 6.75 13.75 6.35 14.4 6.3" fill="#ecd9c6" fill-rule="evenodd" stroke="none"/>
    <path d="M7.65 22.05 Q7.65 21.65 7.3 21.55 9.05 20.9 10.0 20.25 L10.3 20.05 Q11.15 19.3 11.0 18.65 L10.6 18.1 10.35 17.9 10.0 17.7 9.85 17.65 10.0 17.55 10.35 17.25 11.85 15.45 13.05 13.5 14.95 11.75 15.65 11.4 15.95 11.25 16.7 10.8 17.1 10.6 17.7 10.25 17.95 10.1 18.3 9.7 18.3 9.65 18.8 9.45 20.55 9.65 22.2 9.8 23.7 8.9 24.0 8.85 24.1 9.05 22.75 10.95 22.7 11.05 22.25 11.7 21.8 12.3 22.0 12.45 22.05 12.55 22.25 12.6 22.6 12.75 23.1 13.05 Q22.85 13.1 22.9 13.45 L23.3 13.9 23.65 14.15 22.85 14.65 22.6 14.85 22.25 15.2 22.2 15.5 22.25 15.65 22.6 16.2 23.2 16.9 22.6 17.2 22.25 17.4 20.7 18.15 20.3 18.05 20.1 17.75 Q20.05 17.6 20.3 17.4 L20.45 17.05 20.25 16.85 19.85 16.75 Q19.4 16.8 19.2 17.15 L19.15 17.25 18.65 18.35 17.65 18.25 Q16.3 18.55 15.8 18.95 L15.65 18.85 15.65 18.75 15.6 18.6 15.4 18.65 14.65 18.1 14.5 18.2 14.55 18.5 14.95 18.85 14.75 19.55 14.55 19.35 14.45 19.3 14.3 19.3 14.2 19.35 14.15 19.45 13.65 19.85 13.55 19.7 13.1 19.65 12.8 19.75 12.5 19.85 Q12.05 20.05 11.9 20.35 L11.5 20.9 11.05 20.85 10.3 20.8 10.25 20.8 10.0 20.85 Q9.25 21.05 8.55 21.5 L7.7 22.1 7.65 22.05 M29.75 16.3 L29.75 18.2 29.3 18.8 29.25 18.8 29.15 18.95 28.85 19.2 28.65 19.1 27.8 19.35 27.05 18.65 27.75 18.15 27.6 17.75 27.5 17.5 28.95 16.15 28.95 16.2 29.75 16.3 M29.75 18.8 L29.75 19.05 29.65 18.95 29.75 18.8 M3.25 26.6 L3.25 24.8 4.4 24.55 10.85 22.8 11.3 22.65 12.5 22.2 12.6 22.15 12.8 22.1 16.15 20.6 16.6 21.1 16.05 21.3 16.2 21.65 15.6 21.55 Q15.35 21.6 14.85 22.15 L14.55 21.85 14.4 21.9 14.5 22.25 14.5 21.95 14.95 22.2 15.65 21.65 16.35 21.75 16.3 21.3 16.7 21.2 17.0 21.55 17.8 22.65 17.8 23.0 17.25 23.25 15.55 24.05 14.75 24.45 14.75 24.25 14.7 24.1 Q14.3 24.3 14.4 24.6 L14.45 24.65 13.45 25.0 13.4 25.0 13.4 24.95 13.15 25.0 13.15 25.05 12.85 25.1 11.6 25.35 3.25 26.6 M24.3 16.9 L24.3 16.85 24.3 16.7 24.35 16.7 24.55 15.35 Q24.6 14.65 24.95 14.25 L25.05 14.15 26.3 14.55 25.9 14.95 25.75 15.05 25.9 15.2 25.95 15.25 26.75 14.3 26.7 14.25 26.9 14.05 Q27.2 14.0 27.9 14.4 27.7 14.7 27.65 14.95 L27.15 15.35 Q26.75 15.9 26.8 16.1 L26.9 16.25 27.85 15.35 28.15 15.45 Q27.6 15.65 27.65 16.0 L27.75 16.15 28.0 16.1 28.15 15.9 28.5 16.1 26.75 17.6 26.7 17.6 Q26.5 17.6 26.4 17.75 L26.05 17.95 25.6 17.85 25.75 17.5 25.6 17.35 25.2 17.15 25.15 17.15 24.55 16.95 24.55 17.15 24.45 17.15 24.4 17.0 24.3 16.9 M22.6 11.6 L22.65 11.6 22.85 11.3 23.25 11.6 24.4 12.15 25.65 13.3 25.25 13.4 25.0 13.7 24.8 14.0 24.3 15.15 24.4 16.15 23.45 17.0 23.5 16.85 23.05 16.15 22.6 15.65 22.45 15.45 22.6 15.35 23.75 14.7 Q24.1 14.6 24.05 14.35 23.9 13.7 23.2 13.4 23.7 13.25 23.7 13.1 L23.05 12.5 22.6 12.35 22.5 12.3 22.6 12.2 22.65 12.0 22.6 12.0 22.4 11.85 22.6 11.6 M19.75 13.95 L19.9 13.6 19.85 13.5 19.65 13.8 19.6 12.65 19.4 12.1 19.05 11.55 18.95 11.6 19.3 12.15 19.5 12.65 19.55 13.6 19.2 13.85 18.9 14.1 Q18.75 14.25 18.85 14.4 L18.9 14.45 19.15 14.5 19.2 14.5 19.4 14.2 19.9 13.95 20.1 14.0 20.65 13.65 21.05 13.65 21.0 13.5 20.6 13.6 20.3 13.85 20.05 13.9 20.0 13.7 19.8 13.95 19.75 13.95 M20.5 19.05 L20.25 18.85 20.3 19.1 20.5 19.05 M22.25 17.85 L22.6 17.65 23.0 17.35 23.0 17.4 23.4 18.15 23.7 18.65 Q23.05 19.2 22.6 20.15 L22.25 20.95 22.2 21.1 Q21.6 22.8 21.0 22.95 L19.5 23.15 19.2 23.25 18.9 23.35 Q17.7 23.85 16.05 25.3 L15.85 25.25 Q15.85 24.9 15.5 24.75 L15.05 24.65 16.0 24.25 18.05 23.3 18.1 23.3 18.5 22.9 18.9 22.95 19.05 23.0 19.2 23.05 19.7 23.0 Q20.45 22.85 20.7 22.0 L21.45 20.95 21.35 20.8 21.1 20.9 Q20.3 22.5 19.6 22.65 L19.2 22.65 18.95 22.5 18.9 22.5 18.1 22.6 17.25 21.1 16.5 20.25 Q17.1 20.05 17.15 18.85 L17.7 18.7 18.85 18.85 18.9 18.8 18.95 18.75 19.2 17.95 19.7 17.05 19.95 17.15 19.75 17.9 20.1 18.3 20.75 18.45 22.25 17.85 M16.45 12.05 L15.95 12.25 15.6 12.4 15.3 12.6 13.6 14.1 Q12.95 14.7 13.1 15.35 L13.2 15.6 13.25 15.6 13.2 15.75 13.65 16.35 13.7 16.55 13.75 16.55 15.2 16.5 15.65 16.5 15.9 16.5 16.15 16.45 Q17.95 16.05 18.25 15.6 L18.55 14.7 18.9 13.95 18.95 13.75 19.1 13.3 19.1 13.2 19.15 13.2 19.0 12.35 18.35 11.2 18.45 10.95 18.2 11.0 18.95 12.8 18.45 12.4 17.7 12.0 16.45 12.05 M8.4 22.65 L8.2 22.25 Q8.85 21.55 10.0 21.25 L10.3 21.15 11.05 21.2 11.5 21.25 11.45 22.1 11.5 22.15 11.0 22.35 10.6 22.5 8.65 23.1 8.4 22.65 M14.45 19.65 L14.55 19.8 Q14.2 20.4 14.3 20.85 L14.35 20.95 12.8 21.6 12.5 21.75 11.85 22.05 12.0 21.05 12.05 20.95 12.1 20.4 12.5 20.2 12.8 20.1 13.1 20.0 Q13.35 19.95 13.45 20.25 L13.9 20.15 14.3 19.8 14.45 19.65 M13.1 15.95 L13.0 15.85 Q12.75 16.0 12.85 16.4 12.95 17.1 13.35 17.1 L13.35 17.0 Q13.05 16.9 12.9 16.35 L12.95 16.15 13.15 16.1 13.1 15.95 M11.4 18.25 L11.3 18.3 11.2 19.3 11.45 18.8 11.4 18.25 M12.3 23.75 L12.5 23.65 12.75 23.55 13.15 23.35 12.95 23.35 12.75 23.4 12.5 23.5 12.15 23.55 11.9 23.6 11.75 23.85 11.6 24.05 11.65 24.1 11.85 24.0 Q12.0 23.9 12.3 23.75 M19.7 18.85 L19.2 19.15 19.15 19.1 19.2 19.1 19.25 18.95 19.2 18.95 18.9 19.15 18.8 19.25 18.9 19.3 19.15 19.3 19.2 19.3 19.55 19.05 Q19.7 18.85 19.95 18.8 L20.05 18.75 19.7 18.85 M16.3 22.7 L17.1 22.35 Q17.2 22.3 17.2 22.4 L17.3 22.45 17.4 22.35 17.4 22.25 16.8 22.35 16.3 22.7 M11.7 25.7 L11.7 26.4 12.0 27.8 11.05 26.7 10.35 26.0 11.65 25.75 11.7 25.7 M14.2 25.4 L14.15 25.9 14.15 26.35 13.55 25.2 13.6 25.2 14.25 24.95 14.2 25.4" fill="#fff7d5" fill-rule="evenodd" stroke="none"/>
    <path d="M17.95 12.5 L18.75 13.1 18.65 13.7 18.25 14.45 17.75 15.35 16.55 16.0 16.05 16.05 15.9 16.1 15.65 16.15 15.55 16.15 15.4 16.05 15.0 16.0 14.15 16.2 14.1 16.1 13.6 15.75 13.5 15.4 13.5 15.35 13.35 15.2 Q13.3 14.9 13.75 14.65 L14.65 13.7 Q14.95 13.25 15.6 12.8 L15.65 12.75 15.95 12.55 16.6 12.25 Q17.15 12.1 17.95 12.5 M14.65 20.8 L14.85 20.25 14.9 20.1 15.45 19.2 15.85 19.35 Q16.15 19.2 16.65 19.0 L16.75 19.15 16.35 19.8 15.95 20.15 16.05 20.25 14.65 20.8" fill="#443600" fill-rule="evenodd" stroke="none"/>
  </g>
</svg>
