<?xml version="1.0" encoding="UTF-8" standalone="no"?>
<svg xmlns:xlink="http://www.w3.org/1999/xlink" height="32.3px" width="32.1px" xmlns="http://www.w3.org/2000/svg">
  <g transform="matrix(1.0, 0.0, 0.0, 1.0, -0.6, -0.3)">
    <path d="M29.85 0.7 L29.7 1.1 29.6 1.25 29.05 2.1 28.6 1.8 28.6 1.45 28.85 0.8 Q28.9 0.35 29.3 0.35 L29.4 0.4 Q29.85 0.1 29.85 0.7 M1.25 2.6 Q0.8 2.6 0.7 2.2 L0.7 1.7 Q0.7 1.15 1.45 0.65 2.2 0.2 2.2 0.95 L1.25 2.6 M1.85 29.35 L1.55 29.85 1.0 30.25 Q0.6 30.25 0.6 29.8 0.6 29.5 0.9 29.25 1.3 28.9 1.8 29.1 L1.85 29.35 M29.95 29.35 L29.8 29.95 29.4 30.25 Q28.95 30.25 28.95 29.8 28.95 29.4 29.45 29.0 29.95 28.55 29.95 29.35" fill="#ff6666" fill-rule="evenodd" stroke="none"/>
    <path d="M32.7 3.95 L32.7 4.35 31.45 4.6 Q30.2 4.6 30.2 4.2 30.2 3.9 30.7 3.65 L31.35 2.95 Q31.15 2.6 31.45 2.15 31.8 1.75 32.3 1.95 L32.7 3.95 M4.2 2.5 Q4.2 4.6 2.45 4.6 L2.05 4.55 Q1.95 4.05 2.1 3.9 L1.7 3.5 Q1.7 3.05 3.35 3.05 L3.9 2.1 Q4.2 1.65 4.2 2.5 M3.6 30.35 Q3.7 30.0 4.3 30.1 L4.35 32.05 Q4.25 32.6 3.75 32.6 L1.6 32.45 Q1.45 32.4 1.45 32.15 2.65 30.7 3.6 30.85 L3.6 30.35 M32.25 32.5 L31.25 32.5 30.25 32.5 29.85 32.05 30.05 31.8 31.3 31.25 31.2 30.65 Q31.2 30.25 31.55 29.8 31.95 29.25 32.25 29.95 L32.45 31.75 32.25 32.5" fill="#660000" fill-rule="evenodd" stroke="none"/>
    <path d="M15.2 11.95 L15.2 12.0 15.3 12.55 Q15.4 12.9 15.65 13.05 L16.15 13.55 16.8 13.9 16.85 14.9 16.75 14.9 16.75 15.5 13.0 15.5 13.05 15.2 13.15 14.95 13.25 14.85 13.35 14.7 13.3 14.6 13.1 14.6 13.05 14.6 13.05 14.65 12.95 14.75 12.65 14.75 11.25 14.7 11.1 14.55 10.85 14.5 10.8 15.5 10.7 15.5 10.65 14.35 Q10.65 13.95 10.8 13.95 L10.9 13.9 11.65 13.2 12.15 12.15 12.2 12.1 12.2 12.0 12.0 11.9 11.95 11.8 12.0 11.6 12.35 11.4 14.35 11.35 12.4 11.45 12.4 11.5 12.25 11.5 12.25 11.95 12.5 11.9 12.45 11.7 12.65 11.7 12.9 11.7 14.5 11.5 14.45 11.35 14.85 11.25 15.2 11.25 15.4 11.45 14.5 11.7 13.5 11.8 13.4 11.85 13.4 12.0 15.2 11.95 M15.5 11.55 L15.55 11.6 15.4 11.75 15.35 11.7 15.5 11.55 M15.5 13.85 L15.45 13.75 14.5 13.85 14.45 13.7 13.8 13.6 13.65 13.55 13.55 13.5 13.3 13.5 12.85 13.35 12.6 13.35 12.85 12.4 12.8 12.3 12.1 12.9 11.5 13.7 11.5 13.95 11.75 13.95 11.75 14.05 12.7 14.15 12.75 14.15 12.9 14.15 13.0 14.15 13.4 14.15 15.5 13.85 M15.35 14.5 L15.3 14.3 11.95 14.25 Q11.2 14.25 11.2 14.05 L11.0 14.05 11.0 14.2 11.35 14.4 13.5 14.55 15.35 14.5" fill="#ca984f" fill-rule="evenodd" stroke="none"/>
    <path d="M13.0 15.5 L10.8 15.5 10.85 14.5 11.1 14.55 11.25 14.7 12.65 14.75 12.95 14.75 13.05 14.65 13.05 14.6 13.1 14.6 13.3 14.6 13.35 14.7 13.25 14.85 13.15 14.95 13.05 15.2 13.0 15.5 M14.35 11.35 L14.45 11.35 14.5 11.5 12.9 11.7 12.65 11.7 12.45 11.7 12.5 11.9 12.25 11.95 12.25 11.5 12.4 11.5 12.4 11.45 14.35 11.35 M15.5 13.85 L13.4 14.15 13.0 14.15 12.9 14.15 12.75 14.15 12.7 14.15 11.75 14.05 11.75 13.95 11.5 13.95 11.5 13.7 12.1 12.9 12.8 12.3 12.85 12.4 12.6 13.35 12.85 13.35 13.3 13.5 13.55 13.5 13.65 13.55 13.8 13.6 14.45 13.7 14.5 13.85 15.45 13.75 15.5 13.85" fill="#e8d1b0" fill-rule="evenodd" stroke="none"/>
    <path d="M15.45 11.95 Q15.45 13.1 16.95 13.7 L16.95 13.75 17.0 13.75 17.1 14.15 17.0 14.4 17.15 15.5 17.7 15.5 18.15 15.6 18.2 15.65 18.2 15.75 18.2 16.15 18.15 16.3 18.15 16.35 18.1 16.45 18.45 16.55 18.5 16.6 18.55 16.9 18.55 16.95 18.6 17.1 19.0 17.15 24.15 17.15 24.15 17.1 24.2 17.05 24.25 17.05 24.35 17.15 24.4 17.15 25.75 17.15 25.75 17.1 25.8 17.05 25.85 17.05 25.9 17.0 26.0 17.1 26.05 17.1 26.05 17.15 30.25 17.15 30.25 17.4 29.8 17.4 29.15 18.0 29.15 18.15 29.15 18.2 29.4 19.0 30.25 18.9 30.25 19.25 29.4 19.2 29.35 19.4 29.35 19.45 29.45 19.65 30.1 19.65 30.1 19.6 30.2 19.5 30.25 19.4 30.25 20.0 28.25 19.95 28.15 19.95 27.25 19.95 27.1 20.0 27.05 19.95 24.4 19.95 24.35 20.0 24.3 20.05 24.1 19.95 22.9 19.95 22.65 20.0 22.55 19.95 17.7 19.9 17.65 20.0 17.45 20.05 17.35 20.25 17.3 20.3 16.8 20.3 16.35 20.4 16.15 20.55 16.2 20.55 16.25 20.6 13.95 20.75 Q11.2 20.6 9.9 18.1 L9.75 17.95 9.7 16.4 9.65 16.4 9.55 16.4 9.15 16.3 9.0 16.2 8.95 16.2 9.0 15.7 9.0 15.65 9.05 15.55 9.1 15.45 9.25 15.5 10.5 15.5 10.5 13.75 10.8 13.75 11.5 12.9 11.85 12.5 11.95 12.15 11.75 11.8 Q11.75 11.3 12.2 11.3 L14.35 11.1 14.75 11.1 14.9 10.95 15.55 10.95 15.6 11.05 15.5 11.2 15.55 11.3 15.8 11.6 15.5 11.9 15.45 11.9 15.45 11.8 15.3 11.75 15.35 11.7 15.4 11.75 15.55 11.6 15.5 11.55 15.45 11.45 15.4 11.45 15.2 11.25 14.85 11.25 14.45 11.35 14.35 11.35 12.35 11.4 12.0 11.6 11.95 11.8 12.0 11.9 12.2 12.0 12.2 12.1 12.15 12.15 11.65 13.2 10.9 13.9 10.8 13.95 Q10.65 13.95 10.65 14.35 L10.7 15.5 10.8 15.5 13.0 15.5 16.75 15.5 17.0 15.5 16.95 14.9 16.85 14.9 16.8 13.9 16.15 13.55 15.65 13.05 Q15.4 12.9 15.3 12.55 L15.2 12.0 15.2 11.95 15.45 11.95 M26.0 17.45 L26.75 18.3 27.75 17.4 26.05 17.4 26.0 17.45 M25.8 17.6 L25.7 17.8 26.45 18.7 26.5 18.75 26.55 18.8 26.55 18.75 26.7 18.9 26.7 19.0 26.9 19.45 26.95 19.55 27.15 19.6 27.2 19.65 27.9 19.65 27.85 19.55 27.8 19.55 27.65 19.55 25.9 17.7 25.8 17.6 M25.5 17.4 L24.3 17.4 23.55 18.8 23.55 18.85 23.5 18.85 23.5 18.95 23.2 19.4 23.2 19.5 23.0 19.7 24.15 19.7 24.35 19.5 24.4 19.45 24.8 18.7 24.9 18.6 24.9 18.55 24.95 18.45 25.5 17.65 25.45 17.55 25.55 17.45 25.5 17.45 25.5 17.4 M26.95 18.5 L27.8 19.35 27.85 19.3 28.2 19.6 28.25 19.6 28.3 19.65 29.15 19.65 28.9 18.4 28.85 18.35 28.35 18.75 28.35 18.85 28.15 19.05 28.1 19.2 28.1 19.25 27.75 19.2 27.85 18.9 28.05 18.7 29.4 17.4 27.9 17.4 28.0 17.5 28.0 17.55 27.8 17.65 26.95 18.5 M22.65 17.4 L19.2 17.4 19.1 17.4 18.55 17.4 18.35 17.8 17.75 19.65 17.75 19.7 22.7 19.7 22.7 19.6 22.9 19.4 23.2 18.7 23.2 18.6 23.05 18.35 22.75 17.7 22.65 17.6 22.65 17.45 22.65 17.4 M23.3 18.35 L23.4 18.45 24.0 17.4 22.95 17.4 22.95 17.45 23.3 18.25 23.3 18.35 M25.2 18.7 L24.55 19.7 25.8 19.7 25.75 19.6 Q25.95 19.25 26.3 19.0 L25.55 18.0 25.2 18.65 25.2 18.7 M26.1 19.65 L26.1 19.7 26.75 19.65 26.45 19.2 26.1 19.65 M9.8 16.15 L10.5 16.15 10.7 16.15 10.85 16.15 12.45 16.15 16.75 16.2 17.0 16.2 17.25 16.2 17.85 16.2 17.9 16.1 17.9 15.9 17.65 15.9 17.2 15.9 17.0 15.9 16.75 15.9 12.7 15.8 10.85 15.75 10.7 15.75 10.5 15.75 9.35 15.7 9.3 15.95 9.3 16.05 9.3 16.1 9.7 16.1 9.75 16.1 9.8 16.15 M10.0 17.75 L10.25 18.1 Q10.9 19.3 12.05 19.9 L12.7 20.2 12.9 20.25 12.95 20.3 Q14.55 20.45 15.85 19.7 L15.85 19.65 17.1 18.05 17.15 18.0 17.3 17.7 17.35 17.6 17.8 16.4 17.25 16.4 17.05 16.4 17.0 16.4 16.8 16.4 12.3 16.45 10.85 16.4 10.7 16.4 10.5 16.4 9.9 16.4 10.0 17.7 10.0 17.75 M15.35 14.5 L13.5 14.55 11.35 14.4 11.0 14.2 11.0 14.05 11.2 14.05 Q11.2 14.25 11.95 14.25 L15.3 14.3 15.35 14.5 M17.2 18.4 L17.0 18.75 16.55 19.35 16.4 19.5 16.45 19.55 15.3 20.3 15.55 20.35 16.5 19.95 16.6 20.0 16.9 19.9 17.05 20.05 17.15 19.95 17.25 19.8 17.3 19.8 17.4 19.9 17.55 19.3 17.5 19.3 17.45 19.2 17.95 17.85 18.15 17.25 18.2 17.25 18.25 16.95 18.25 16.9 18.3 16.9 18.25 16.8 18.0 16.7 17.35 18.2 17.35 18.3 17.2 18.4 M15.15 20.4 L15.2 20.35 15.1 20.4 15.15 20.4" fill="#000000" fill-rule="evenodd" stroke="none"/>
    <path d="M15.45 11.9 L15.45 11.95 15.2 11.95 13.4 12.0 13.4 11.85 13.5 11.8 14.5 11.7 15.4 11.45 15.45 11.45 15.5 11.55 15.35 11.7 15.3 11.75 15.45 11.8 15.45 11.9 M16.85 14.9 L16.95 14.9 17.0 15.5 16.75 15.5 16.75 14.9 16.85 14.9" fill="#412f14" fill-rule="evenodd" stroke="none"/>
    <path d="M30.25 17.4 L30.25 18.9 29.4 19.0 29.15 18.2 29.15 18.15 29.15 18.0 29.8 17.4 30.25 17.4 M30.25 19.25 L30.25 19.4 30.2 19.5 30.1 19.6 30.1 19.65 29.45 19.65 29.35 19.45 29.35 19.4 29.4 19.2 30.25 19.25 M26.95 18.5 L27.8 17.65 28.0 17.55 28.0 17.5 27.9 17.4 29.4 17.4 28.05 18.7 27.85 18.9 27.75 19.2 28.1 19.25 28.1 19.2 28.15 19.05 28.35 18.85 28.35 18.75 28.85 18.35 28.9 18.4 29.15 19.65 28.3 19.65 28.25 19.6 28.2 19.6 27.85 19.3 27.8 19.35 26.95 18.5 M25.5 17.4 L25.5 17.45 25.55 17.45 25.45 17.55 25.5 17.65 24.95 18.45 24.9 18.55 24.9 18.6 24.8 18.7 24.4 19.45 24.35 19.5 24.15 19.7 23.0 19.7 23.2 19.5 23.2 19.4 23.5 18.95 23.5 18.85 23.55 18.85 23.55 18.8 24.3 17.4 25.5 17.4 M25.8 17.6 L25.9 17.7 27.65 19.55 27.8 19.55 27.85 19.55 27.9 19.65 27.2 19.65 27.15 19.6 26.95 19.55 26.9 19.45 26.7 19.0 26.7 18.9 26.55 18.75 26.55 18.8 26.5 18.75 26.45 18.7 25.7 17.8 25.8 17.6 M26.0 17.45 L26.05 17.4 27.75 17.4 26.75 18.3 26.0 17.45 M26.1 19.65 L26.45 19.2 26.75 19.65 26.1 19.7 26.1 19.65 M25.2 18.7 L25.2 18.65 25.55 18.0 26.3 19.0 Q25.95 19.25 25.75 19.6 L25.8 19.7 24.55 19.7 25.2 18.7 M23.3 18.35 L23.3 18.25 22.95 17.45 22.95 17.4 24.0 17.4 23.4 18.45 23.3 18.35" fill="#e3cdb3" fill-rule="evenodd" stroke="none"/>
    <path d="M22.65 17.4 L22.65 17.45 22.65 17.6 22.75 17.7 23.05 18.35 23.2 18.6 23.2 18.7 22.9 19.4 22.7 19.6 22.7 19.7 17.75 19.7 17.75 19.65 18.35 17.8 18.55 17.4 19.1 17.4 19.2 17.4 22.65 17.4 M10.0 17.75 L10.0 17.7 9.9 16.4 10.5 16.4 10.7 16.4 10.85 16.4 12.3 16.45 16.8 16.4 17.0 16.4 17.05 16.4 17.25 16.4 17.8 16.4 17.35 17.6 17.3 17.7 17.15 18.0 17.1 18.05 15.85 19.65 15.85 19.7 Q14.55 20.45 12.95 20.3 L12.9 20.25 12.7 20.2 12.05 19.9 Q10.9 19.3 10.25 18.1 L10.0 17.75" fill="#715426" fill-rule="evenodd" stroke="none"/>
    <path d="M9.8 16.15 L9.75 16.1 9.7 16.1 9.3 16.1 9.3 16.05 9.3 15.95 9.35 15.7 10.5 15.75 10.7 15.75 10.85 15.75 12.7 15.8 16.75 15.9 17.0 15.9 17.2 15.9 17.65 15.9 17.9 15.9 17.9 16.1 17.85 16.2 17.25 16.2 17.0 16.2 16.75 16.2 12.45 16.15 10.85 16.15 10.7 16.15 10.5 16.15 9.8 16.15 M17.2 18.4 L17.35 18.3 17.35 18.2 18.0 16.7 18.25 16.8 18.3 16.9 18.25 16.9 18.25 16.95 18.2 17.25 18.15 17.25 17.95 17.85 17.45 19.2 17.5 19.3 17.55 19.3 17.4 19.9 17.3 19.8 17.25 19.8 17.15 19.95 17.05 20.05 16.9 19.9 16.6 20.0 16.5 19.95 15.55 20.35 15.3 20.3 16.45 19.55 16.4 19.5 16.55 19.35 17.0 18.75 17.2 18.4" fill="#9d6f37" fill-rule="evenodd" stroke="none"/>
  </g>
</svg>
