<?xml version="1.0" encoding="UTF-8" standalone="no"?>
<svg xmlns:xlink="http://www.w3.org/1999/xlink" height="32.3px" width="32.1px" xmlns="http://www.w3.org/2000/svg">
  <g transform="matrix(1.0, 0.0, 0.0, 1.0, -0.6, -0.3)">
    <path d="M29.85 0.7 L29.7 1.1 29.6 1.25 29.05 2.1 28.6 1.8 28.6 1.45 28.85 0.8 Q28.9 0.35 29.3 0.35 L29.4 0.4 Q29.85 0.1 29.85 0.7 M1.25 2.6 Q0.8 2.6 0.7 2.2 L0.7 1.7 Q0.7 1.15 1.45 0.65 2.2 0.2 2.2 0.95 L1.25 2.6 M1.85 29.35 L1.55 29.85 1.0 30.25 Q0.6 30.25 0.6 29.8 0.6 29.5 0.9 29.25 1.3 28.9 1.8 29.1 L1.85 29.35 M29.95 29.35 L29.8 29.95 29.4 30.25 Q28.95 30.25 28.95 29.8 28.95 29.4 29.45 29.0 29.95 28.55 29.95 29.35" fill="#ff6666" fill-rule="evenodd" stroke="none"/>
    <path d="M32.7 3.95 L32.7 4.35 31.45 4.6 Q30.2 4.6 30.2 4.2 30.2 3.9 30.7 3.65 L31.35 2.95 Q31.15 2.6 31.45 2.15 31.8 1.75 32.3 1.95 L32.7 3.95 M4.2 2.5 Q4.2 4.6 2.45 4.6 L2.05 4.55 Q1.95 4.05 2.1 3.9 L1.7 3.5 Q1.7 3.05 3.35 3.05 L3.9 2.1 Q4.2 1.65 4.2 2.5 M3.6 30.35 Q3.7 30.0 4.3 30.1 L4.35 32.05 Q4.25 32.6 3.75 32.6 L1.6 32.45 Q1.45 32.4 1.45 32.15 2.65 30.7 3.6 30.85 L3.6 30.35 M32.25 32.5 L31.25 32.5 30.25 32.5 29.85 32.05 30.05 31.8 31.3 31.25 31.2 30.65 Q31.2 30.25 31.55 29.8 31.95 29.25 32.25 29.95 L32.45 31.75 32.25 32.5" fill="#660000" fill-rule="evenodd" stroke="none"/>
    <path d="M5.4 13.0 L5.35 13.0 Q5.5 12.15 6.25 11.6 L6.8 11.4 6.85 11.35 6.9 11.25 7.0 11.25 7.0 11.2 7.15 11.25 7.15 11.2 7.2 11.25 7.3 11.25 7.3 11.3 7.35 11.35 7.35 11.4 7.8 12.05 Q8.4 11.35 9.3 11.1 L9.45 11.1 9.5 11.15 9.6 11.2 9.65 11.2 9.75 10.1 9.85 10.0 9.95 10.05 10.05 10.0 10.15 9.95 12.6 10.05 12.65 10.1 12.7 10.05 12.8 10.1 12.8 10.15 12.8 11.2 12.8 11.3 12.7 11.35 12.65 11.4 12.65 11.5 12.7 11.55 13.65 11.95 14.35 10.95 14.45 10.85 14.5 10.8 Q15.15 10.9 15.6 11.3 L16.75 12.4 16.8 12.45 16.8 12.5 16.85 12.55 16.3 13.3 16.95 14.85 17.0 15.0 16.95 15.1 16.5 16.55 15.8 18.25 16.15 18.6 16.2 18.55 16.35 18.7 16.45 18.8 16.5 18.85 15.45 20.6 15.35 20.7 15.25 20.85 15.15 20.9 15.05 20.85 14.85 20.9 14.9 21.0 14.8 21.05 14.65 21.05 14.55 20.95 14.4 20.95 14.3 20.75 14.3 20.7 14.0 20.5 13.85 20.5 13.7 20.4 13.35 20.8 13.4 20.85 12.9 21.15 12.85 21.75 12.8 21.85 12.85 21.95 Q12.5 22.3 12.1 22.25 L11.4 22.15 10.8 22.15 10.8 22.2 Q10.4 22.45 10.1 22.2 L10.05 22.2 9.9 22.1 9.8 21.4 9.75 21.35 9.75 21.3 9.65 21.25 9.55 21.2 9.6 21.25 8.05 20.8 7.55 21.1 Q7.4 21.35 7.15 21.3 6.25 20.7 6.15 19.65 L5.9 19.0 5.8 18.8 6.5 18.4 Q6.35 18.4 6.3 18.25 6.35 18.0 6.65 18.05 6.8 17.9 6.95 17.85 L6.85 17.75 6.8 17.7 6.6 17.3 6.2 16.1 6.1 15.15 5.9 14.6 5.9 14.5 5.9 14.4 5.85 14.25 5.8 14.2 5.85 14.15 5.35 13.7 5.4 13.6 5.45 13.5 5.25 13.45 5.2 13.45 5.25 13.15 5.35 13.05 6.2 14.1 6.2 14.15 6.1 14.25 6.25 14.5 6.25 14.45 6.3 14.5 6.35 14.55 6.35 14.8 6.5 15.65 6.7 16.8 7.05 17.55 7.45 17.8 7.45 17.95 7.4 18.05 7.15 18.05 6.9 18.2 6.9 18.4 6.9 18.5 6.15 18.9 6.4 19.4 6.35 19.6 Q6.55 20.4 7.2 21.05 L7.85 20.4 7.9 20.35 8.0 20.35 8.15 20.45 8.35 20.5 8.35 20.55 8.35 20.6 9.9 20.75 9.9 20.8 9.95 20.85 10.05 20.9 10.05 20.95 10.25 21.85 10.35 21.85 10.4 21.8 12.1 21.95 Q12.25 21.8 12.5 21.8 12.35 21.35 12.55 21.1 L12.55 21.05 12.6 21.1 12.6 21.0 12.6 20.9 12.7 20.85 12.75 20.8 12.8 20.85 12.85 20.85 12.9 20.8 12.95 20.8 13.4 20.3 13.6 20.0 13.7 19.95 13.75 19.9 13.85 20.0 13.9 20.0 13.9 20.05 14.2 20.2 14.25 20.2 14.3 20.25 14.3 20.35 14.65 20.6 16.0 19.2 16.05 19.25 16.1 19.15 16.1 19.0 15.65 18.55 15.6 18.55 15.55 18.6 15.4 18.45 15.45 18.4 15.2 18.2 15.15 18.15 15.2 18.05 15.3 18.0 15.55 18.1 15.9 17.15 15.8 17.05 16.05 16.7 16.35 15.75 16.35 15.7 16.45 15.65 16.5 15.6 16.55 15.65 16.75 15.05 16.1 13.75 16.05 13.7 15.7 13.25 15.8 13.1 15.85 13.1 15.9 13.15 16.45 12.65 16.4 12.6 16.2 12.3 16.1 12.15 16.15 12.3 16.15 12.35 16.1 12.35 15.9 12.35 Q15.55 11.4 14.65 11.15 L14.6 11.15 13.65 12.25 13.5 12.15 12.8 12.0 12.45 11.85 12.4 11.85 12.35 11.8 12.25 11.75 12.35 11.6 12.4 10.3 12.4 10.2 10.25 10.35 10.05 10.35 10.0 11.75 9.95 11.85 9.85 11.85 9.7 11.8 9.7 11.7 9.7 11.55 9.7 11.45 Q8.7 11.65 7.85 12.3 L7.75 12.35 7.65 12.3 7.05 11.6 7.05 11.55 Q6.1 12.0 5.7 13.0 L5.5 13.1 5.45 13.05 5.4 13.0 M13.9 20.05 L13.85 20.1 13.9 20.05 M10.25 21.85 L10.25 21.9 10.25 21.85" fill="#000000" fill-rule="evenodd" stroke="none"/>
    <path d="M5.35 13.05 L5.4 13.0 5.45 13.05 5.5 13.1 5.7 13.0 Q6.1 12.0 7.05 11.55 L7.05 11.6 7.65 12.3 7.75 12.35 7.85 12.3 Q8.7 11.65 9.7 11.45 L9.7 11.55 9.7 11.7 9.7 11.8 9.85 11.85 9.95 11.85 10.0 11.75 10.05 10.35 10.25 10.35 12.4 10.2 12.4 10.3 12.35 11.6 12.25 11.75 12.35 11.8 12.4 11.85 12.45 11.85 12.8 12.0 13.5 12.15 13.65 12.25 14.6 11.15 14.65 11.15 Q15.55 11.4 15.9 12.35 L16.1 12.35 16.15 12.35 16.15 12.3 16.2 12.3 16.4 12.6 16.45 12.65 15.9 13.15 15.85 13.1 15.8 13.1 15.7 13.25 16.05 13.7 16.1 13.75 16.75 15.05 16.55 15.65 16.5 15.6 16.45 15.65 16.35 15.7 16.35 15.75 16.05 16.7 15.8 17.05 15.9 17.15 15.55 18.1 15.3 18.0 15.2 18.05 15.15 18.15 15.2 18.2 15.45 18.4 15.4 18.45 15.55 18.6 15.6 18.55 15.65 18.55 16.1 19.0 16.1 19.15 16.05 19.25 16.0 19.2 14.65 20.6 14.3 20.35 14.3 20.25 14.25 20.2 14.2 20.2 13.9 20.05 13.9 20.0 13.85 20.0 13.75 19.9 13.7 19.95 13.6 20.0 13.4 20.3 12.95 20.8 12.9 20.8 12.85 20.85 12.8 20.85 12.75 20.8 12.7 20.85 12.6 20.9 12.6 21.0 12.6 21.1 12.55 21.05 12.55 21.1 Q12.35 21.35 12.5 21.8 12.25 21.8 12.1 21.95 L10.4 21.8 10.35 21.85 10.25 21.85 10.05 20.95 10.05 20.9 9.95 20.85 9.9 20.8 9.9 20.75 8.35 20.6 8.35 20.55 8.35 20.5 8.15 20.45 8.0 20.35 7.9 20.35 7.85 20.4 7.2 21.05 Q6.55 20.4 6.35 19.6 L6.4 19.4 6.15 18.9 6.9 18.5 6.9 18.4 6.9 18.2 7.15 18.05 7.4 18.05 7.45 17.95 7.45 17.8 7.05 17.55 6.7 16.8 6.5 15.65 6.35 14.8 6.35 14.55 6.3 14.5 6.25 14.45 6.25 14.5 6.1 14.25 6.2 14.15 6.2 14.1 5.35 13.05" fill="#754e39" fill-rule="evenodd" stroke="none"/>
    <path d="M16.15 13.6 L16.1 13.5 16.05 13.5 15.95 13.4 15.9 13.45 15.8 13.55 14.85 13.45 12.35 13.15 11.15 12.95 11.1 12.75 11.05 12.75 10.95 12.65 10.9 12.7 10.75 12.9 8.75 12.6 8.7 12.65 8.7 12.7 8.65 12.7 8.6 12.75 Q6.85 12.4 5.4 13.5 L4.75 14.3 Q4.35 15.0 4.3 15.8 L4.25 15.8 4.25 15.9 4.25 16.25 4.2 16.3 4.2 16.4 4.3 16.6 4.35 16.95 4.35 17.8 4.55 17.95 Q4.65 18.35 5.1 18.6 L5.2 18.7 5.25 18.85 5.4 18.9 5.6 19.05 5.85 19.3 5.95 19.35 6.05 19.35 6.1 19.45 6.8 19.65 7.15 19.7 8.2 19.7 8.65 19.7 8.7 19.7 8.25 19.8 9.8 19.8 9.9 19.85 9.95 19.8 10.0 19.8 10.85 19.65 11.0 19.7 11.1 19.7 11.35 19.55 11.35 19.45 11.4 19.45 11.45 19.45 11.95 19.35 12.95 19.2 15.05 19.0 15.1 19.0 15.8 18.95 15.85 19.1 14.25 19.3 8.4 20.1 8.35 20.05 7.65 20.15 6.7 19.9 Q5.35 19.45 4.45 18.35 L4.45 18.15 4.25 17.95 3.95 16.55 3.95 16.25 3.95 16.15 3.95 15.85 4.25 14.45 4.45 14.25 4.45 14.05 Q5.35 12.95 6.7 12.5 L7.65 12.25 8.35 12.35 8.4 12.3 14.25 13.1 17.3 13.45 23.1 14.05 28.35 14.35 28.3 14.3 28.3 14.25 28.6 14.0 Q28.7 13.85 28.85 13.8 L29.2 13.85 29.25 13.85 29.3 13.9 29.5 14.05 29.55 16.15 29.55 16.25 29.5 18.35 29.3 18.5 29.25 18.55 29.2 18.55 28.85 18.6 28.6 18.4 28.3 18.15 28.3 18.1 28.35 18.05 23.1 18.35 17.3 18.95 16.3 19.05 16.35 19.0 16.35 18.9 16.65 18.85 16.7 18.8 16.75 18.75 16.85 18.75 17.0 18.75 17.4 18.85 17.45 18.85 17.55 18.8 17.8 18.7 18.0 18.65 18.15 18.65 18.2 18.65 19.0 18.55 19.95 18.6 20.0 18.55 20.0 18.5 20.05 18.45 20.2 18.45 20.65 18.45 20.85 18.4 20.9 18.45 21.0 18.5 21.25 18.35 21.3 18.3 21.85 18.2 22.05 18.2 22.15 18.15 22.5 18.1 22.55 18.1 22.85 18.1 22.95 18.1 23.35 18.05 23.4 18.05 25.0 17.95 25.45 18.0 26.7 17.85 28.15 17.9 28.2 17.95 28.7 18.1 28.75 18.15 28.8 18.2 28.8 18.25 28.85 18.35 29.2 18.3 29.2 18.25 29.3 18.15 29.3 18.05 29.45 17.25 29.45 17.2 29.35 16.95 29.4 16.9 29.3 16.8 29.25 16.8 29.35 16.4 29.35 16.25 29.3 16.25 29.3 16.15 29.35 16.15 29.35 16.0 29.2 14.65 29.2 14.4 29.25 14.35 29.2 14.3 29.2 14.15 29.15 14.15 28.85 14.1 28.85 14.15 28.8 14.25 28.75 14.3 28.55 14.4 28.5 14.35 28.45 14.4 28.35 14.45 28.35 14.5 24.25 14.55 24.0 14.5 18.4 13.75 17.0 13.7 16.15 13.6" fill="#000000" fill-rule="evenodd" stroke="none"/>
    <path d="M11.35 14.25 L11.3 15.0 11.25 15.05 11.2 15.1 11.2 15.2 11.15 15.6 11.2 15.65 11.25 16.1 11.2 16.15 11.15 16.6 11.15 16.85 11.1 16.85 11.05 16.9 Q10.9 17.05 11.05 17.25 L11.0 17.35 Q10.8 17.85 11.1 18.35 L11.1 18.55 11.1 18.6 11.05 18.55 11.0 18.6 10.95 18.65 10.95 18.55 10.95 18.3 Q10.85 17.6 10.9 16.9 L10.9 16.65 10.9 16.5 10.9 16.4 10.95 16.4 10.9 15.2 11.0 14.2 11.1 13.85 11.1 13.8 11.1 13.7 11.1 13.35 11.1 13.2 11.15 13.05 11.2 13.0 11.15 13.0 11.15 12.95 12.35 13.15 14.85 13.45 15.8 13.55 15.75 13.6 15.7 13.65 15.6 13.7 15.55 13.7 14.0 13.55 11.25 13.0 11.25 13.05 11.3 13.1 11.35 13.25 11.4 13.25 11.4 13.45 11.4 13.85 11.35 14.25 M16.15 13.6 L17.0 13.7 16.2 13.7 16.25 13.75 16.3 13.75 16.35 13.85 16.35 13.9 16.4 13.9 16.4 14.15 16.35 14.95 16.3 15.3 16.25 15.35 16.2 15.4 16.15 15.8 16.2 15.85 16.2 16.0 Q19.9 15.7 23.65 15.9 L23.8 15.9 24.8 15.9 26.8 16.2 Q27.8 16.35 28.5 15.9 L28.6 16.3 28.6 16.65 28.55 16.7 28.45 16.75 21.15 17.1 17.5 17.55 16.95 17.65 16.35 17.75 16.4 16.3 16.35 16.3 16.25 16.2 16.2 16.25 16.15 16.8 16.1 16.8 16.05 16.85 Q15.9 16.95 16.05 17.15 L16.0 17.2 15.95 17.8 16.1 18.05 16.1 18.2 16.05 18.2 16.0 18.25 15.95 18.25 15.95 18.0 15.9 17.8 15.9 16.85 15.9 16.5 15.9 16.45 15.95 16.4 15.9 16.05 15.95 14.95 16.1 14.35 16.1 14.25 16.1 14.15 16.1 13.85 16.15 13.75 16.2 13.7 16.15 13.7 16.15 13.6 M24.25 14.55 L28.35 14.5 28.4 14.75 24.25 14.55 M28.55 14.4 L28.75 14.3 28.8 14.25 28.85 14.15 28.85 14.1 29.15 14.15 29.2 14.15 29.2 14.3 29.1 14.2 29.1 14.25 28.9 14.3 28.85 14.35 28.85 14.4 28.6 14.5 28.6 14.45 28.55 14.4 M29.2 14.65 L29.35 16.0 29.35 16.15 29.3 16.15 29.3 16.25 29.35 16.25 29.35 16.4 29.25 16.8 29.1 16.9 28.95 16.95 28.95 16.9 29.0 16.85 29.0 16.75 29.0 15.85 29.05 15.8 29.1 15.75 29.15 14.75 29.15 14.7 29.2 14.65 M5.6 19.05 L5.4 18.9 5.55 19.0 5.6 19.05 M5.2 18.7 L5.1 18.6 5.15 18.65 5.2 18.7 M4.35 16.95 L4.3 16.6 4.35 16.85 4.35 16.95 M4.3 15.8 Q4.35 15.0 4.75 14.3 L5.4 13.5 Q6.85 12.4 8.6 12.75 L8.65 12.7 8.7 12.7 8.7 12.65 8.75 12.6 10.75 12.9 10.7 12.95 8.15 12.75 8.0 12.8 Q6.8 13.0 5.7 13.6 5.15 13.85 4.85 14.4 L4.85 14.5 4.85 14.6 4.85 14.65 4.85 14.9 4.85 14.95 4.9 15.0 4.9 15.05 5.05 15.8 5.55 16.45 Q7.1 17.25 8.85 16.95 L10.7 16.7 10.7 16.8 10.7 17.15 Q10.4 17.7 10.65 18.45 L10.7 18.5 10.7 18.6 Q8.55 18.85 6.45 18.6 6.25 18.3 5.85 18.2 L5.35 17.65 5.35 17.6 5.35 17.5 4.7 16.45 4.75 16.25 4.7 16.25 4.6 16.15 4.55 16.2 4.55 16.15 4.5 15.8 4.45 15.75 4.4 15.7 4.35 15.75 4.3 15.8 M15.7 16.05 L15.7 16.2 15.7 16.75 15.7 17.05 Q15.45 17.4 15.6 17.85 L11.35 18.5 11.4 16.6 11.8 16.5 14.4 16.2 15.7 16.05 M4.9 17.55 L4.8 17.25 5.05 17.65 5.05 17.75 5.05 17.8 5.0 17.7 4.95 17.65 4.95 17.6 4.9 17.55" fill="#928647" fill-rule="evenodd" stroke="none"/>
    <path d="M29.25 16.8 L29.3 16.8 29.4 16.9 29.35 16.95 29.45 17.2 29.45 17.25 29.3 18.05 29.3 18.15 29.2 18.25 29.2 18.3 28.85 18.35 28.8 18.25 28.8 18.2 28.75 18.15 28.7 18.1 28.2 17.95 28.15 17.9 26.7 17.85 25.45 18.0 25.0 17.95 23.4 18.05 23.35 18.05 22.95 18.1 22.85 18.1 22.55 18.1 22.5 18.1 22.15 18.15 22.05 18.2 21.85 18.2 21.3 18.3 21.25 18.35 21.0 18.5 20.9 18.45 20.85 18.4 20.65 18.45 20.2 18.45 20.05 18.45 20.0 18.5 20.0 18.55 19.95 18.6 19.0 18.55 18.2 18.65 18.15 18.65 18.0 18.65 17.8 18.7 17.55 18.8 17.45 18.85 17.4 18.85 17.0 18.75 16.85 18.75 16.75 18.75 16.7 18.8 16.65 18.85 16.35 18.9 16.35 19.0 16.3 19.05 16.1 19.1 16.0 19.1 15.85 19.1 15.8 18.95 15.1 19.0 15.05 19.0 12.95 19.2 11.95 19.35 11.45 19.45 11.4 19.45 11.35 19.45 11.35 19.55 11.1 19.7 11.0 19.7 10.85 19.65 10.0 19.8 9.95 19.8 9.9 19.85 9.8 19.8 8.25 19.8 8.7 19.7 8.65 19.7 8.2 19.7 7.15 19.7 6.8 19.65 6.1 19.45 6.05 19.35 5.95 19.35 5.85 19.3 5.6 19.05 5.55 19.0 5.4 18.9 5.25 18.85 5.2 18.7 5.15 18.65 5.1 18.6 Q4.65 18.35 4.55 17.95 L4.35 17.8 4.35 16.95 4.35 16.85 4.3 16.6 4.2 16.4 4.2 16.3 4.25 16.25 4.25 15.9 4.25 15.8 4.3 15.8 4.35 15.75 4.4 15.7 4.45 15.75 4.5 15.8 4.55 16.15 4.55 16.2 4.6 16.15 4.7 16.25 4.75 16.25 4.7 16.45 5.35 17.5 5.35 17.6 5.35 17.65 5.85 18.2 Q6.25 18.3 6.45 18.6 8.55 18.85 10.7 18.6 L10.7 19.2 10.75 19.25 10.75 19.0 10.85 19.0 10.9 18.7 10.9 18.65 10.95 18.65 11.0 18.6 11.05 18.55 11.1 18.6 11.1 18.55 11.1 18.35 Q10.8 17.85 11.0 17.35 L11.05 17.25 Q10.9 17.05 11.05 16.9 L11.1 16.85 11.15 16.85 11.15 16.6 11.2 16.15 11.25 16.1 11.35 16.2 11.4 16.2 11.4 16.6 11.35 18.5 15.6 17.85 15.65 18.1 15.7 18.15 15.7 18.7 15.75 18.75 15.75 18.55 15.85 18.55 15.9 18.3 15.9 18.25 15.95 18.25 16.0 18.25 16.05 18.2 16.1 18.2 16.1 18.05 15.95 17.8 16.0 17.2 16.05 17.15 Q15.9 16.95 16.05 16.85 L16.1 16.8 16.15 16.8 16.2 16.25 16.25 16.2 16.35 16.3 16.4 16.3 16.35 17.75 16.95 17.65 17.5 17.55 21.15 17.1 28.45 16.75 28.55 16.7 28.6 16.65 28.6 16.8 28.65 16.85 28.7 17.5 28.95 17.55 28.95 17.45 28.95 16.95 29.1 16.9 29.25 16.8 M4.9 17.55 L4.95 17.6 4.95 17.65 5.0 17.7 5.05 17.8 5.05 17.75 5.05 17.65 4.8 17.25 4.9 17.55" fill="#443c22" fill-rule="evenodd" stroke="none"/>
    <path d="M11.35 14.25 L13.9 14.35 13.9 14.3 13.95 14.25 13.95 14.2 13.9 14.2 13.8 14.15 11.4 13.85 11.4 13.45 15.45 14.1 15.6 14.1 15.6 14.35 15.65 14.35 15.65 14.5 15.65 14.6 15.55 14.6 15.55 14.7 15.55 14.95 15.1 14.95 11.2 15.2 11.2 15.1 11.25 15.05 11.3 15.0 11.35 14.25 M15.9 13.95 L15.95 13.95 16.0 13.95 16.05 13.85 16.05 13.8 16.1 13.85 16.1 14.15 16.1 14.25 16.1 14.35 15.95 14.95 15.9 16.05 15.95 16.4 15.9 16.45 15.9 16.5 15.9 16.85 15.85 16.85 15.7 16.8 15.7 16.75 15.7 16.2 15.7 16.05 15.7 16.0 15.75 15.55 15.75 15.3 15.75 14.95 15.75 14.85 15.7 14.8 15.85 14.15 15.9 14.0 15.9 13.95 M16.4 14.15 L20.95 14.35 21.6 14.45 23.9 14.7 27.3 14.9 28.2 14.9 28.25 14.85 28.4 14.8 28.45 15.25 Q22.35 14.95 16.35 14.95 L16.4 14.15 M28.6 16.3 L28.6 16.0 28.6 15.95 28.7 15.9 28.7 15.75 28.75 15.25 28.75 15.0 28.75 14.95 28.85 14.9 28.9 14.85 28.95 14.9 29.0 14.85 29.05 14.7 29.05 14.65 29.1 14.7 29.15 14.7 29.15 14.75 29.1 15.75 29.05 15.8 29.0 15.85 29.0 16.75 29.0 16.85 28.95 16.9 28.95 16.95 28.95 17.45 28.95 17.55 28.7 17.5 28.65 16.85 28.65 16.65 28.6 16.3 M10.6 15.25 L8.7 15.5 Q6.9 15.75 5.35 15.0 L5.3 14.45 5.3 14.4 5.3 14.2 Q5.65 13.85 6.1 13.65 L7.9 13.1 8.15 13.05 9.5 13.15 10.6 13.25 10.65 13.3 10.6 13.75 7.9 13.3 7.85 13.35 7.75 13.4 7.75 13.5 7.15 13.45 7.15 13.5 Q6.5 13.5 6.1 13.95 L6.15 14.05 6.45 14.2 6.6 14.15 6.7 14.2 6.7 14.25 8.15 14.2 8.9 14.25 10.0 14.2 10.55 14.2 10.55 14.25 10.6 15.25 M10.7 16.7 L10.7 16.15 10.7 15.85 10.75 15.35 10.75 15.0 10.75 14.45 10.7 14.35 10.75 14.2 10.8 13.75 10.9 13.4 10.9 13.35 10.95 13.3 11.0 13.35 11.0 13.3 11.05 13.2 11.05 13.15 11.1 13.2 11.1 13.35 11.1 13.7 11.1 13.8 11.1 13.85 11.0 14.2 10.9 15.2 10.95 16.4 10.9 16.4 10.9 16.5 10.9 16.65 10.9 16.9 10.85 16.9 10.7 16.85 10.7 16.8 10.7 16.7" fill="#f7eebd" fill-rule="evenodd" stroke="none"/>
    <path d="M11.4 13.85 L13.8 14.15 13.9 14.2 13.95 14.2 13.95 14.25 13.9 14.3 13.9 14.35 11.35 14.25 11.4 13.85 M15.55 14.95 L15.55 14.7 15.55 14.6 15.65 14.6 15.7 14.55 15.65 14.5 15.65 14.35 15.6 14.35 15.6 14.1 15.65 13.9 15.7 13.75 15.7 13.7 15.75 13.6 15.8 13.55 15.9 13.45 15.95 13.4 16.05 13.5 16.1 13.5 16.15 13.6 16.15 13.7 16.15 13.75 16.1 13.85 16.05 13.8 16.05 13.85 16.0 13.95 15.95 13.95 15.9 13.95 15.9 14.0 15.85 14.15 15.7 14.8 15.75 14.85 15.75 14.95 15.75 15.3 15.75 15.55 15.65 15.55 15.6 15.5 15.55 14.95 M28.35 14.5 L28.35 14.45 28.45 14.4 28.5 14.35 28.55 14.4 28.6 14.45 28.6 14.5 28.85 14.4 28.85 14.35 28.9 14.3 29.1 14.25 29.1 14.2 29.2 14.3 29.25 14.35 29.2 14.4 29.2 14.65 29.15 14.7 29.1 14.7 29.05 14.65 29.05 14.7 29.0 14.85 28.95 14.9 28.9 14.85 28.85 14.9 28.75 14.95 28.75 15.0 28.75 15.25 28.7 15.75 28.7 15.9 28.6 15.95 28.6 16.0 28.6 16.3 28.5 15.9 28.45 15.25 28.4 14.8 28.4 14.75 28.35 14.5 M10.75 12.9 L10.9 12.7 10.95 12.65 11.05 12.75 11.1 12.75 11.15 12.95 11.15 13.0 11.15 13.05 11.1 13.2 11.05 13.15 11.05 13.2 11.0 13.3 11.0 13.35 10.95 13.3 10.9 13.35 10.9 13.4 10.8 13.75 10.75 14.2 10.7 14.35 10.75 14.45 10.75 15.0 10.75 15.35 10.65 15.3 10.6 15.25 10.55 14.25 10.55 14.2 10.0 14.2 8.9 14.25 8.15 14.2 6.7 14.25 6.7 14.2 6.6 14.15 6.45 14.2 6.15 14.05 6.1 13.95 Q6.5 13.5 7.15 13.5 L7.15 13.45 7.75 13.5 7.75 13.4 7.85 13.35 7.9 13.3 10.6 13.75 10.65 13.3 10.65 13.25 10.7 13.05 10.75 12.95 10.75 12.9 M28.6 16.65 L28.6 16.3 28.65 16.65 28.65 16.85 28.6 16.8 28.6 16.65 M10.65 14.05 L10.65 14.1 10.7 14.1 10.65 14.05" fill="#ffffff" fill-rule="evenodd" stroke="none"/>
    <path d="M11.2 15.2 L15.1 14.95 15.55 14.95 15.6 15.5 15.65 15.55 15.75 15.55 15.7 16.0 15.7 16.05 14.4 16.2 11.8 16.5 11.4 16.6 11.4 16.2 11.35 16.2 11.25 16.1 11.2 15.65 11.15 15.6 11.2 15.2 M15.65 14.6 L15.65 14.5 15.7 14.55 15.65 14.6 M15.6 14.1 L15.45 14.1 11.4 13.45 11.4 13.25 11.35 13.25 11.3 13.1 11.25 13.05 11.25 13.0 14.0 13.55 15.55 13.7 15.6 13.7 15.7 13.65 15.75 13.6 15.7 13.7 15.7 13.75 15.65 13.9 15.6 14.1 M17.0 13.7 L18.4 13.75 24.0 14.5 24.25 14.55 28.4 14.75 28.4 14.8 28.25 14.85 28.2 14.9 27.3 14.9 23.9 14.7 21.6 14.45 20.95 14.35 16.4 14.15 16.4 13.9 16.35 13.9 16.35 13.85 16.3 13.75 16.25 13.75 16.2 13.7 17.0 13.7 M16.15 13.75 L16.15 13.7 16.2 13.7 16.15 13.75 M15.9 14.0 L15.9 13.95 15.9 14.0 M28.5 15.9 Q27.8 16.35 26.8 16.2 L24.8 15.9 23.8 15.9 23.65 15.9 Q19.9 15.7 16.2 16.0 L16.2 15.85 16.15 15.8 16.2 15.4 16.25 15.35 16.3 15.3 16.35 14.95 Q22.35 14.95 28.45 15.25 L28.5 15.9 M15.7 16.75 L15.7 16.8 15.85 16.85 15.9 16.85 15.9 17.8 15.95 18.0 15.95 18.25 15.9 18.25 15.9 18.3 15.85 18.55 15.75 18.55 15.75 18.75 15.7 18.7 15.7 18.15 15.65 18.1 15.6 17.85 Q15.45 17.4 15.7 17.05 L15.7 16.75 M10.65 13.3 L10.6 13.25 9.5 13.15 8.15 13.05 7.9 13.1 6.1 13.65 Q5.65 13.85 5.3 14.2 L5.3 14.4 5.3 14.45 5.35 15.0 Q6.9 15.75 8.7 15.5 L10.6 15.25 10.65 15.3 10.75 15.35 10.7 15.85 10.7 16.15 10.7 16.7 8.85 16.95 Q7.1 17.25 5.55 16.45 L5.05 15.8 4.9 15.05 4.9 15.0 4.85 14.95 4.85 14.9 4.85 14.65 4.85 14.6 4.85 14.5 4.85 14.4 Q5.15 13.85 5.7 13.6 6.8 13.0 8.0 12.8 L8.15 12.75 10.7 12.95 10.75 12.9 10.75 12.95 10.7 13.05 10.65 13.25 10.65 13.3 M10.7 18.6 L10.7 18.5 10.65 18.45 Q10.4 17.7 10.7 17.15 L10.7 16.8 10.7 16.85 10.85 16.9 10.9 16.9 Q10.85 17.6 10.95 18.3 L10.95 18.55 10.95 18.65 10.9 18.65 10.9 18.7 10.85 19.0 10.75 19.0 10.75 19.25 10.7 19.2 10.7 18.6 M11.15 13.05 L11.15 13.0 11.2 13.0 11.15 13.05 M10.9 13.35 L10.9 13.4 10.9 13.35 M10.65 14.05 L10.7 14.1 10.65 14.1 10.65 14.05" fill="#c6c664" fill-rule="evenodd" stroke="none"/>
  </g>
</svg>
