<?xml version="1.0" encoding="UTF-8" standalone="no"?>
<svg xmlns:xlink="http://www.w3.org/1999/xlink" height="32.3px" width="32.4px" xmlns="http://www.w3.org/2000/svg">
  <g transform="matrix(1.0, 0.0, 0.0, 1.0, -0.3, -0.3)">
    <path d="M29.85 0.7 L29.7 1.1 29.6 1.25 29.05 2.1 28.6 1.8 28.6 1.45 28.85 0.8 Q28.9 0.35 29.3 0.35 L29.4 0.4 Q29.85 0.1 29.85 0.7 M1.25 2.6 Q0.8 2.6 0.7 2.2 L0.7 1.7 Q0.7 1.15 1.45 0.65 2.2 0.2 2.2 0.95 L1.25 2.6 M1.85 29.35 L1.55 29.85 1.0 30.25 Q0.6 30.25 0.6 29.8 0.6 29.5 0.9 29.25 1.3 28.9 1.8 29.1 L1.85 29.35 M29.95 29.35 L29.8 29.95 29.4 30.25 Q28.95 30.25 28.95 29.8 28.95 29.4 29.45 29.0 29.95 28.55 29.95 29.35" fill="#ff6666" fill-rule="evenodd" stroke="none"/>
    <path d="M32.7 3.95 L32.7 4.35 31.45 4.6 Q30.2 4.6 30.2 4.2 30.2 3.9 30.7 3.65 L31.35 2.95 Q31.15 2.6 31.45 2.15 31.8 1.75 32.3 1.95 L32.7 3.95 M4.2 2.5 Q4.2 4.6 2.45 4.6 L2.05 4.55 Q1.95 4.05 2.1 3.9 L1.7 3.5 Q1.7 3.05 3.35 3.05 L3.9 2.1 Q4.2 1.65 4.2 2.5 M3.6 30.35 Q3.7 30.0 4.3 30.1 L4.35 32.05 Q4.25 32.6 3.75 32.6 L1.6 32.45 Q1.45 32.4 1.45 32.15 2.65 30.7 3.6 30.85 L3.6 30.35 M32.25 32.5 L31.25 32.5 30.25 32.5 29.85 32.05 30.05 31.8 31.3 31.25 31.2 30.65 Q31.2 30.25 31.55 29.8 31.95 29.25 32.25 29.95 L32.45 31.75 32.25 32.5" fill="#660000" fill-rule="evenodd" stroke="none"/>
    <path d="M5.75 13.25 L5.7 13.25 Q5.85 12.4 6.6 11.85 L7.15 11.65 7.2 11.6 7.25 11.5 7.35 11.5 7.35 11.45 7.5 11.5 7.5 11.45 7.55 11.5 7.65 11.5 7.65 11.55 7.7 11.6 7.7 11.65 8.15 12.3 Q8.75 11.6 9.65 11.35 L9.8 11.35 9.85 11.4 9.95 11.45 10.0 11.45 10.1 10.35 10.2 10.25 10.3 10.3 10.4 10.25 10.5 10.2 12.95 10.3 13.0 10.35 13.05 10.3 13.15 10.35 13.15 10.4 13.15 11.45 13.15 11.55 13.05 11.6 13.0 11.65 13.0 11.75 13.05 11.8 14.0 12.2 14.7 11.2 14.8 11.1 14.85 11.05 Q15.5 11.15 15.95 11.55 L17.1 12.65 17.15 12.7 17.15 12.75 17.2 12.8 16.65 13.55 17.3 15.1 17.35 15.25 17.3 15.35 16.85 16.8 16.15 18.5 16.5 18.85 16.55 18.8 16.7 18.95 16.8 19.05 16.85 19.1 15.8 20.85 15.7 20.95 15.6 21.1 15.5 21.15 15.4 21.1 15.2 21.15 15.25 21.25 15.15 21.3 15.0 21.3 14.9 21.2 14.75 21.2 14.65 21.0 14.65 20.95 14.35 20.75 14.2 20.75 14.05 20.65 13.7 21.05 13.75 21.1 13.25 21.4 13.2 22.0 13.15 22.1 13.2 22.2 12.45 22.5 11.75 22.4 11.15 22.4 11.15 22.45 Q10.75 22.7 10.45 22.45 L10.4 22.45 10.25 22.35 10.15 21.65 10.1 21.6 10.1 21.55 10.0 21.5 9.9 21.45 9.95 21.5 8.4 21.05 7.9 21.35 7.5 21.55 Q6.6 20.95 6.5 19.9 L6.25 19.25 6.15 19.05 Q6.45 18.8 6.85 18.65 L6.65 18.5 Q6.7 18.25 7.0 18.3 L7.3 18.1 7.2 18.0 7.15 17.95 6.95 17.55 6.55 16.35 6.45 15.4 6.25 14.85 6.25 14.75 6.25 14.65 6.2 14.5 6.15 14.45 6.2 14.4 5.7 13.95 5.75 13.85 5.8 13.75 5.6 13.7 5.55 13.7 5.6 13.4 5.7 13.3 6.55 14.35 6.55 14.4 6.45 14.5 6.6 14.75 6.6 14.7 6.65 14.75 6.7 14.8 6.7 15.05 6.85 15.9 7.05 17.05 7.4 17.8 7.8 18.05 7.8 18.2 7.75 18.3 7.5 18.3 7.25 18.45 7.25 18.65 7.25 18.75 6.5 19.15 6.75 19.65 6.7 19.85 Q6.9 20.65 7.55 21.3 L8.2 20.65 8.25 20.6 8.35 20.6 8.5 20.7 8.7 20.75 8.7 20.8 8.7 20.85 10.25 21.0 10.25 21.05 10.3 21.1 10.4 21.15 10.4 21.2 10.6 22.1 10.7 22.1 10.75 22.05 12.45 22.2 12.85 22.05 Q12.7 21.6 12.9 21.35 L12.9 21.3 12.95 21.35 12.95 21.25 12.95 21.15 13.05 21.1 13.1 21.05 13.15 21.1 13.2 21.1 13.25 21.05 13.3 21.05 13.75 20.55 13.95 20.25 14.05 20.2 14.1 20.15 14.2 20.25 14.25 20.25 14.25 20.3 14.55 20.45 14.6 20.45 14.65 20.5 14.65 20.6 15.0 20.85 16.35 19.45 16.4 19.5 16.45 19.4 16.45 19.25 16.0 18.8 15.95 18.8 15.9 18.85 15.75 18.7 15.8 18.65 15.55 18.45 15.5 18.4 15.55 18.3 15.65 18.25 15.9 18.35 16.25 17.4 16.15 17.3 16.4 16.95 16.7 16.0 16.7 15.95 16.8 15.9 16.85 15.85 16.9 15.9 17.1 15.3 16.45 14.0 16.4 13.95 16.05 13.5 16.15 13.35 16.2 13.35 16.25 13.4 16.8 12.9 16.75 12.85 16.55 12.55 16.45 12.4 16.5 12.55 16.5 12.6 16.45 12.6 16.25 12.6 Q15.9 11.65 15.0 11.4 L14.95 11.4 14.0 12.5 13.85 12.4 13.15 12.25 12.8 12.1 12.75 12.1 12.7 12.05 12.6 12.0 12.7 11.85 12.75 10.55 12.75 10.45 10.6 10.6 10.4 10.6 10.35 12.0 10.3 12.1 10.2 12.1 10.05 12.05 10.05 11.95 10.05 11.8 10.05 11.7 Q9.05 11.9 8.2 12.55 L8.1 12.6 8.0 12.55 7.4 11.85 7.4 11.8 Q6.45 12.25 6.05 13.25 L5.85 13.35 5.8 13.3 5.75 13.25 M14.25 20.3 L14.2 20.35 14.25 20.3 M10.6 22.1 L10.6 22.15 10.6 22.1" fill="#000000" fill-rule="evenodd" stroke="none"/>
    <path d="M5.7 13.3 L5.75 13.25 5.8 13.3 5.85 13.35 6.05 13.25 Q6.45 12.25 7.4 11.8 L7.4 11.85 8.0 12.55 8.1 12.6 8.2 12.55 Q9.05 11.9 10.05 11.7 L10.05 11.8 10.05 11.95 10.05 12.05 10.2 12.1 10.3 12.1 10.35 12.0 10.4 10.6 10.6 10.6 12.75 10.45 12.75 10.55 12.7 11.85 12.6 12.0 12.7 12.05 12.75 12.1 12.8 12.1 13.15 12.25 13.85 12.4 14.0 12.5 14.95 11.4 15.0 11.4 Q15.9 11.65 16.25 12.6 L16.45 12.6 16.5 12.6 16.5 12.55 16.55 12.55 16.75 12.85 16.8 12.9 16.25 13.4 16.2 13.35 16.15 13.35 16.05 13.5 16.4 13.95 16.45 14.0 17.1 15.3 16.9 15.9 16.85 15.85 16.8 15.9 16.7 15.95 16.7 16.0 16.4 16.95 16.15 17.3 16.25 17.4 15.9 18.35 15.65 18.25 15.55 18.3 15.5 18.4 15.55 18.45 15.8 18.65 15.75 18.7 15.9 18.85 15.95 18.8 16.0 18.8 16.45 19.25 16.45 19.4 16.4 19.5 16.35 19.45 15.0 20.85 14.65 20.6 14.65 20.5 14.6 20.45 14.55 20.45 14.25 20.3 14.25 20.25 14.2 20.25 14.1 20.15 14.05 20.2 13.95 20.25 13.75 20.55 13.3 21.05 13.25 21.05 13.2 21.1 13.15 21.1 13.1 21.05 13.05 21.1 12.95 21.15 12.95 21.25 12.95 21.35 12.9 21.3 12.9 21.35 Q12.7 21.6 12.85 22.05 L12.45 22.2 10.75 22.05 10.7 22.1 10.6 22.1 10.4 21.2 10.4 21.15 10.3 21.1 10.25 21.05 10.25 21.0 8.7 20.85 8.7 20.8 8.7 20.75 8.5 20.7 8.35 20.6 8.25 20.6 8.2 20.65 7.55 21.3 Q6.9 20.65 6.7 19.85 L6.75 19.65 6.5 19.15 7.25 18.75 7.25 18.65 7.25 18.45 7.5 18.3 7.75 18.3 7.8 18.2 7.8 18.05 7.4 17.8 7.05 17.05 6.85 15.9 6.7 15.05 6.7 14.8 6.65 14.75 6.6 14.7 6.6 14.75 6.45 14.5 6.55 14.4 6.55 14.35 5.7 13.3" fill="#754e39" fill-rule="evenodd" stroke="none"/>
    <path d="M15.6 12.75 L16.6 12.85 15.7 12.9 15.75 12.95 15.8 13.0 15.85 13.15 15.95 13.15 15.9 13.55 15.85 14.7 15.8 15.15 15.75 15.2 15.65 15.25 15.6 15.85 Q15.65 15.8 15.7 15.9 L15.7 16.15 Q20.3 15.7 25.0 16.0 L25.2 16.0 26.45 16.0 28.95 16.4 Q30.2 16.6 31.1 15.95 L31.25 16.55 31.25 17.05 31.15 17.1 31.05 17.2 21.9 17.7 17.3 18.3 16.6 18.45 15.9 18.55 15.95 16.55 15.85 16.55 15.75 16.4 15.7 16.4 15.7 16.45 15.6 17.25 15.55 17.25 15.5 17.3 Q15.3 17.45 15.5 17.7 L15.45 17.8 Q15.25 18.2 15.35 18.65 L15.5 18.95 15.5 19.2 15.45 19.25 15.35 19.25 15.35 18.9 15.3 18.65 15.25 17.3 15.3 16.85 15.3 16.75 15.35 16.7 15.3 16.2 Q15.25 15.4 15.35 14.7 L15.5 13.85 15.55 13.65 15.5 13.5 Q15.45 13.3 15.55 13.1 L15.6 12.95 15.7 12.9 15.6 12.9 15.6 12.75 M25.85 14.1 Q28.35 14.35 30.9 14.05 L30.95 14.35 25.85 14.1 M31.15 13.9 L31.4 13.75 31.5 13.7 Q31.45 13.6 31.55 13.55 L31.55 13.5 31.9 13.55 32.0 13.55 32.0 13.75 31.85 13.65 31.85 13.7 31.6 13.75 31.55 13.85 31.55 13.9 Q31.3 13.9 31.25 14.05 L31.25 14.0 31.15 13.9 M32.0 14.25 Q31.9 15.2 32.15 16.15 L32.15 16.35 32.1 16.35 32.1 16.5 32.15 16.5 32.15 16.7 32.05 17.25 Q31.9 17.15 31.85 17.4 L31.65 17.5 31.65 17.35 31.75 17.35 31.75 17.2 31.7 15.95 31.8 15.85 31.85 15.8 31.9 14.4 31.9 14.35 32.0 14.25 M16.55 20.0 L16.35 20.0 16.55 20.0 M2.4 20.4 L2.15 20.2 2.35 20.3 2.4 20.4 M1.85 19.9 L1.7 19.75 1.8 19.8 1.85 19.9 M0.8 17.45 L0.75 16.95 0.8 17.3 0.8 17.45 M0.75 15.8 Q0.8 14.75 1.3 13.75 1.55 13.1 2.15 12.65 3.95 11.1 6.15 11.6 L6.2 11.55 6.3 11.55 6.3 11.45 6.35 11.4 6.35 11.35 8.85 11.8 8.8 11.9 8.75 11.9 5.6 11.6 5.4 11.65 Q3.85 11.95 2.5 12.8 1.8 13.15 1.45 13.9 L1.45 14.05 1.45 14.2 1.45 14.25 1.45 14.6 1.45 14.7 1.5 14.75 1.5 14.8 1.7 15.85 Q1.8 16.45 2.35 16.75 4.25 17.85 6.45 17.45 L8.8 17.1 8.8 17.25 8.75 17.35 8.75 17.7 Q8.4 18.55 8.7 19.55 L8.75 19.6 8.75 19.75 Q6.05 20.15 3.45 19.8 3.2 19.35 2.7 19.2 L2.1 18.45 2.1 18.4 2.1 18.25 Q1.5 17.6 1.25 16.75 L1.3 16.5 1.25 16.5 1.15 16.35 1.05 16.4 1.05 16.35 1.0 15.85 0.95 15.8 0.9 15.7 0.8 15.8 0.75 15.8 M9.35 11.9 L10.85 12.15 14.0 12.6 15.15 12.7 15.1 12.8 15.05 12.8 14.95 12.95 14.85 12.95 12.9 12.7 9.45 12.0 9.55 12.1 9.55 12.25 9.6 12.3 9.65 12.3 9.65 12.6 9.6 13.1 9.6 13.65 9.55 14.75 9.45 14.8 9.4 14.9 9.4 15.0 9.35 15.6 9.4 15.65 9.45 16.3 9.4 16.35 9.35 17.0 9.3 17.35 9.2 17.4 Q9.0 17.6 9.2 17.9 L9.15 18.05 Q8.9 18.75 9.25 19.45 L9.25 19.65 9.25 19.75 9.2 19.7 9.15 19.8 9.05 19.8 9.05 19.7 9.05 19.35 9.0 17.4 9.05 17.05 9.05 16.85 9.05 16.7 9.05 16.65 9.05 15.05 9.2 13.65 9.25 13.1 9.25 13.05 9.3 12.9 9.25 12.45 9.3 12.25 9.35 12.0 9.35 11.95 9.35 11.9 M15.05 16.2 L15.05 16.4 15.05 17.2 15.05 17.25 15.0 17.6 Q14.75 18.1 14.9 18.7 L9.6 19.6 9.65 16.95 10.15 16.85 13.4 16.4 15.05 16.2 M9.35 12.0 L9.4 12.0 9.35 12.0 M1.7 18.6 L1.65 18.6 1.6 18.5 1.55 18.45 1.55 18.4 1.5 18.25 1.35 17.9 1.7 18.45 1.7 18.6" fill="#343f50" fill-rule="evenodd" stroke="none"/>
    <path d="M15.6 12.75 L15.55 12.6 15.5 12.6 15.35 12.5 15.3 12.55 15.15 12.7 14.0 12.6 10.85 12.15 9.35 11.9 9.3 11.6 9.2 11.6 9.1 11.45 9.05 11.55 8.85 11.8 6.35 11.35 6.3 11.35 6.35 11.4 6.3 11.45 6.3 11.55 6.2 11.55 6.15 11.6 Q3.95 11.1 2.15 12.65 1.55 13.1 1.3 13.75 0.8 14.75 0.75 15.8 L0.7 15.85 0.7 16.0 0.7 16.5 0.65 16.55 0.65 16.7 0.75 16.95 0.8 17.45 0.8 18.65 1.05 18.85 Q1.2 19.4 1.7 19.75 L1.85 19.9 1.95 20.15 2.1 20.15 2.15 20.2 2.4 20.4 2.7 20.75 2.85 20.8 2.95 20.8 3.0 20.95 3.9 21.25 4.3 21.3 5.6 21.35 6.2 21.3 6.3 21.3 5.7 21.45 7.65 21.45 7.8 21.5 7.85 21.45 7.9 21.45 7.9 21.4 8.95 21.2 8.95 21.25 9.15 21.3 9.3 21.3 9.6 21.1 9.6 20.95 9.65 20.95 9.7 20.95 10.35 20.8 11.55 20.6 14.25 20.35 14.3 20.3 15.15 20.25 15.25 20.45 13.25 20.75 5.9 21.85 5.85 21.8 4.95 21.95 3.75 21.6 Q2.05 20.95 0.95 19.45 L0.95 19.15 0.7 18.85 Q0.35 17.9 0.3 16.9 L0.3 16.5 0.3 16.35 0.3 15.95 Q0.35 14.95 0.7 14.0 L0.95 13.7 0.95 13.4 Q2.05 11.85 3.75 11.25 L4.95 10.9 5.85 11.05 5.9 10.95 13.25 12.1 17.05 12.6 24.35 13.4 30.9 13.85 30.85 13.75 30.85 13.7 31.25 13.35 31.55 13.05 32.0 13.15 32.05 13.15 32.1 13.2 32.35 13.4 32.4 16.35 32.4 16.5 32.35 19.45 32.1 19.65 32.05 19.7 32.0 19.7 31.55 19.8 31.25 19.5 30.85 19.15 30.85 19.1 30.9 19.0 24.35 19.45 17.05 20.25 15.8 20.4 15.85 20.3 15.85 20.2 16.25 20.15 16.3 20.05 16.35 20.0 16.55 20.0 16.65 20.0 17.2 20.1 17.25 20.15 17.35 20.05 17.7 19.9 17.95 19.85 18.05 19.8 19.2 19.7 20.4 19.8 20.45 19.7 20.45 19.65 20.5 19.55 20.65 19.55 21.25 19.55 21.5 19.5 21.55 19.55 21.7 19.65 22.0 19.45 22.1 19.35 22.25 19.35 22.45 19.3 23.6 19.1 24.0 19.1 24.15 19.05 24.65 19.0 24.7 18.95 26.7 18.85 27.3 18.95 28.8 18.7 30.65 18.8 30.75 18.85 31.35 19.1 31.4 19.15 31.5 19.2 31.5 19.3 31.55 19.45 32.0 19.35 32.0 19.3 32.1 19.15 32.1 19.0 Q32.05 18.45 32.3 17.9 L32.3 17.8 32.15 17.45 32.25 17.4 32.1 17.25 32.05 17.25 32.15 16.7 32.15 16.5 32.1 16.5 32.1 16.35 32.15 16.35 32.15 16.15 Q31.9 15.2 32.0 14.25 L32.0 14.2 32.0 14.1 32.0 14.05 32.0 13.9 32.05 13.85 32.0 13.75 32.0 13.55 31.9 13.55 31.55 13.5 31.55 13.55 Q31.45 13.6 31.5 13.7 L31.4 13.75 31.15 13.9 31.1 13.85 31.05 13.9 31.0 13.9 30.9 14.0 30.9 14.05 Q28.35 14.35 25.85 14.1 L25.45 14.05 18.45 13.0 16.6 12.85 15.6 12.75" fill="#000000" fill-rule="evenodd" stroke="none"/>
    <path d="M32.05 17.25 L32.1 17.25 32.25 17.4 32.15 17.45 32.3 17.8 32.3 17.9 Q32.05 18.45 32.1 19.0 L32.1 19.15 32.0 19.3 32.0 19.35 31.55 19.45 31.5 19.3 31.5 19.2 31.4 19.15 31.35 19.1 30.75 18.85 30.65 18.8 28.8 18.7 27.3 18.95 26.7 18.85 24.7 18.95 24.65 19.0 24.15 19.05 24.0 19.1 23.6 19.1 22.45 19.3 22.25 19.35 22.1 19.35 22.0 19.45 21.7 19.65 21.55 19.55 21.5 19.5 21.25 19.55 20.65 19.55 20.5 19.55 20.45 19.65 20.45 19.7 20.4 19.8 19.2 19.7 18.05 19.8 17.95 19.85 17.7 19.9 17.35 20.05 17.25 20.15 17.2 20.1 16.65 20.0 16.55 20.0 16.35 20.0 16.3 20.05 16.25 20.15 15.85 20.2 15.85 20.3 15.8 20.4 15.55 20.5 15.45 20.5 15.25 20.45 15.15 20.25 14.3 20.3 14.25 20.35 11.55 20.6 10.35 20.8 9.7 20.95 9.65 20.95 9.6 20.95 9.6 21.1 9.3 21.3 9.15 21.3 8.95 21.25 8.95 21.2 7.9 21.4 7.9 21.45 7.85 21.45 7.8 21.5 7.65 21.45 5.7 21.45 6.3 21.3 6.2 21.3 5.6 21.35 4.3 21.3 3.9 21.25 3.0 20.95 2.95 20.8 2.85 20.8 2.7 20.75 2.4 20.4 2.35 20.3 2.15 20.2 2.1 20.15 1.95 20.15 1.85 19.9 1.8 19.8 1.7 19.75 Q1.2 19.4 1.05 18.85 L0.8 18.65 0.8 17.45 0.8 17.3 0.75 16.95 0.65 16.7 0.65 16.55 0.7 16.5 0.7 16.0 0.7 15.85 0.75 15.8 0.8 15.8 0.9 15.7 0.95 15.8 1.0 15.85 1.05 16.35 1.05 16.4 1.15 16.35 1.25 16.5 1.3 16.5 1.25 16.75 Q1.5 17.6 2.1 18.25 L2.1 18.4 2.1 18.45 2.7 19.2 Q3.2 19.35 3.45 19.8 6.05 20.15 8.75 19.75 L8.8 20.6 8.85 20.35 8.95 20.35 9.05 19.9 9.05 19.85 9.05 19.8 9.15 19.8 9.2 19.7 9.25 19.75 9.25 19.65 9.25 19.45 Q8.9 18.75 9.15 18.05 L9.2 17.9 Q9.0 17.6 9.2 17.4 L9.3 17.35 9.35 17.0 9.4 16.35 9.45 16.3 9.6 16.4 9.65 16.4 9.65 16.95 9.6 19.6 14.9 18.7 15.0 19.1 15.05 19.9 15.1 19.95 15.1 19.9 15.1 19.7 15.25 19.7 15.3 19.35 15.3 19.3 15.35 19.25 15.45 19.25 15.5 19.2 15.5 18.95 15.35 18.65 Q15.25 18.2 15.45 17.8 L15.5 17.7 Q15.3 17.45 15.5 17.3 L15.55 17.25 15.6 17.25 15.7 16.45 15.7 16.4 15.75 16.4 15.85 16.55 15.95 16.55 15.9 18.55 16.6 18.45 17.3 18.3 21.9 17.7 31.05 17.2 31.15 17.1 31.25 17.05 31.25 17.25 31.25 17.3 31.35 18.25 31.65 18.3 31.65 18.15 31.65 17.5 31.85 17.4 Q31.9 17.15 32.05 17.25 M8.8 20.6 L8.8 20.65 8.8 20.6 M1.7 18.6 L1.7 18.45 1.35 17.9 1.5 18.25 1.55 18.4 1.55 18.45 1.6 18.5 1.65 18.6 1.7 18.6" fill="#232b36" fill-rule="evenodd" stroke="none"/>
    <path d="M16.6 12.85 L18.45 13.0 25.45 14.05 25.85 14.1 30.95 14.35 30.95 14.45 30.8 14.55 30.75 14.6 29.6 14.6 25.3 14.35 22.45 14.0 21.65 13.85 15.9 13.55 15.95 13.15 15.85 13.15 15.8 13.0 15.75 12.95 15.7 12.9 16.6 12.85 M14.95 13.2 L14.9 13.5 14.75 13.5 Q12.1 13.35 9.65 12.6 L9.65 12.3 9.6 12.3 9.55 12.25 9.55 12.1 9.45 12.0 12.9 12.7 14.85 12.95 14.95 12.95 14.85 13.1 14.95 13.2 M14.85 14.7 L14.95 15.45 15.0 15.5 15.0 16.0 15.05 16.2 13.4 16.4 10.15 16.85 9.65 16.95 9.65 16.4 9.6 16.4 9.45 16.3 9.4 15.65 9.35 15.6 9.4 15.0 14.3 14.7 14.85 14.7 M15.6 12.95 L15.6 12.9 15.7 12.9 15.6 12.95 M15.85 14.7 Q23.4 14.65 31.0 15.05 L31.1 15.95 Q30.2 16.6 28.95 16.4 L26.45 16.0 25.2 16.0 25.0 16.0 Q20.3 15.7 15.7 16.15 L15.7 15.9 Q15.65 15.8 15.6 15.85 L15.65 15.25 15.75 15.2 15.8 15.15 15.85 14.7 M15.05 17.25 L15.25 17.3 15.3 18.65 15.35 18.9 15.35 19.25 15.3 19.3 15.3 19.35 15.25 19.7 15.1 19.7 15.1 19.9 15.05 19.9 15.0 19.1 14.9 18.7 Q14.75 18.1 15.0 17.6 L15.05 17.25 M8.8 17.1 L6.45 17.45 Q4.25 17.85 2.35 16.75 1.8 16.45 1.7 15.85 L1.5 14.8 1.5 14.75 1.45 14.7 1.45 14.6 1.45 14.25 1.45 14.2 1.45 14.05 1.45 13.9 Q1.8 13.15 2.5 12.8 3.85 11.95 5.4 11.65 L5.6 11.6 8.75 11.9 8.65 12.0 8.65 12.05 8.6 12.25 8.6 12.3 7.3 12.15 5.6 12.0 5.25 12.1 Q4.05 12.35 3.0 12.85 2.45 13.15 2.0 13.65 L2.0 13.9 2.0 14.0 2.1 14.75 Q4.0 15.75 6.3 15.45 L8.65 15.1 8.7 15.15 8.7 15.2 8.75 15.8 8.8 16.1 8.8 16.3 8.8 17.1 M8.75 19.75 L8.75 19.6 8.7 19.55 Q8.4 18.55 8.75 17.7 L8.75 17.35 8.8 17.35 Q8.85 17.55 8.95 17.4 L9.0 17.4 9.05 19.35 9.05 19.7 9.05 19.8 9.05 19.85 9.05 19.9 8.95 20.35 8.85 20.35 8.8 20.6 8.75 19.75 M9.35 12.0 L9.4 12.0 9.35 12.0" fill="#546581" fill-rule="evenodd" stroke="none"/>
    <path d="M14.9 13.5 L14.95 13.8 15.0 13.85 15.0 14.05 15.0 14.15 14.85 14.2 14.85 14.3 14.85 14.7 14.3 14.7 9.4 15.0 9.4 14.9 9.45 14.8 9.55 14.75 9.6 13.65 12.8 13.85 12.8 13.75 12.85 13.7 12.85 13.65 12.8 13.65 12.65 13.55 9.6 13.1 9.65 12.6 Q12.1 13.35 14.75 13.5 L14.9 13.5 M15.1 15.5 L15.1 15.15 15.1 14.7 15.1 14.5 15.05 14.45 15.2 13.5 15.25 13.35 15.3 13.3 15.35 13.25 15.4 13.25 15.5 13.1 15.5 13.05 15.55 13.1 Q15.45 13.3 15.5 13.5 L15.55 13.65 15.5 13.85 15.35 14.7 Q15.25 15.4 15.3 16.2 L15.35 16.7 15.3 16.75 15.3 16.85 15.25 17.3 15.05 17.25 15.05 17.2 15.05 16.4 15.05 16.2 15.05 16.1 15.1 15.5 M15.9 13.55 L21.65 13.85 22.45 14.0 25.3 14.35 29.6 14.6 30.75 14.6 30.8 14.55 30.95 14.45 31.0 15.05 Q23.4 14.65 15.85 14.7 L15.9 13.55 M31.9 14.35 L31.9 14.4 31.85 15.8 31.8 15.85 31.7 15.95 31.75 17.2 31.75 17.35 31.65 17.35 31.65 17.5 31.65 18.15 31.65 18.3 31.35 18.25 31.25 17.3 31.25 17.05 31.25 16.55 31.25 16.15 31.25 16.05 31.35 16.0 31.35 15.75 31.4 15.05 31.4 14.75 31.4 14.7 Q31.45 14.6 31.55 14.6 L31.55 14.55 31.6 14.55 31.65 14.6 31.7 14.55 31.8 14.35 31.8 14.25 31.85 14.35 31.9 14.35 M8.8 17.1 L8.8 16.3 8.8 16.1 8.8 15.9 8.8 15.2 8.8 14.7 8.85 13.95 8.8 13.85 8.8 13.6 8.9 13.0 9.0 12.5 9.05 12.45 9.1 12.4 9.1 12.35 9.15 12.4 9.2 12.25 9.2 12.15 9.3 12.25 9.25 12.45 9.3 12.9 9.25 13.05 9.25 13.1 9.2 13.65 9.05 15.05 9.05 16.65 9.05 16.7 9.05 16.85 9.05 17.05 9.0 17.4 8.95 17.4 Q8.85 17.55 8.8 17.35 L8.8 17.25 8.8 17.1 M8.65 15.1 L6.3 15.45 Q4.0 15.75 2.1 14.75 L2.0 14.0 2.0 13.9 2.0 13.65 Q2.45 13.15 3.0 12.85 4.05 12.35 5.25 12.1 L5.6 12.0 7.3 12.15 8.6 12.3 8.7 12.35 8.65 12.95 5.25 12.35 5.2 12.45 5.1 12.5 5.1 12.6 4.35 12.6 4.3 12.6 Q3.5 12.65 3.0 13.3 L3.1 13.4 3.45 13.65 3.65 13.55 3.75 13.65 3.75 13.7 5.55 13.6 6.55 13.7 7.9 13.6 8.6 13.6 8.6 13.7 8.65 15.1" fill="#ced6df" fill-rule="evenodd" stroke="none"/>
    <path d="M15.15 12.7 L15.3 12.55 15.35 12.5 15.5 12.6 15.55 12.6 15.6 12.75 15.6 12.9 15.6 12.95 15.55 13.1 15.5 13.05 15.5 13.1 15.4 13.25 15.35 13.25 15.3 13.3 15.25 13.25 15.25 13.35 15.2 13.5 15.05 14.45 15.1 14.5 15.1 14.7 15.1 15.15 15.1 15.5 15.0 15.5 14.95 15.45 14.85 14.7 14.85 14.3 14.85 14.2 15.0 14.15 15.0 14.1 15.0 14.05 15.0 13.85 14.95 13.8 14.9 13.5 14.95 13.2 15.05 12.95 15.1 12.8 15.15 12.7 M30.9 14.05 L30.9 14.0 31.0 13.9 31.05 13.9 31.1 13.85 31.15 13.9 31.25 14.0 31.25 14.05 Q31.3 13.9 31.55 13.9 L31.55 13.85 31.6 13.75 31.85 13.7 31.85 13.65 32.0 13.75 32.05 13.85 32.0 13.9 32.0 14.05 32.0 14.1 32.0 14.2 32.0 14.25 31.9 14.35 31.85 14.35 31.8 14.25 31.8 14.35 31.7 14.55 31.65 14.6 31.6 14.55 31.55 14.55 31.55 14.6 Q31.45 14.6 31.4 14.7 L31.4 14.75 31.4 15.05 31.35 15.75 31.35 16.0 31.25 16.05 31.25 16.15 31.25 16.55 31.1 15.95 31.0 15.05 30.95 14.45 30.95 14.35 30.9 14.05 M8.85 11.8 L9.05 11.55 9.1 11.45 9.2 11.6 9.3 11.6 9.35 11.9 9.35 11.95 9.35 12.0 9.3 12.25 9.2 12.15 9.2 12.25 9.15 12.4 9.1 12.35 9.1 12.4 9.05 12.45 9.0 12.4 9.0 12.5 8.9 13.0 8.8 13.6 8.8 13.85 8.85 13.95 8.8 14.7 8.8 15.2 8.7 15.15 8.65 15.1 8.6 13.7 8.6 13.6 7.9 13.6 6.55 13.7 5.55 13.6 3.75 13.7 3.75 13.65 3.65 13.55 3.45 13.65 3.1 13.4 3.0 13.3 Q3.5 12.65 4.3 12.6 L4.35 12.6 5.1 12.6 5.1 12.5 5.2 12.45 5.25 12.35 8.65 12.95 8.7 12.35 8.7 12.3 8.8 12.0 8.8 11.9 8.85 11.8 M9.6 13.1 L12.65 13.55 12.8 13.65 12.85 13.65 12.85 13.7 12.8 13.75 12.8 13.85 9.6 13.65 9.6 13.1 M31.25 17.05 L31.25 16.55 31.25 17.05 31.25 17.3 31.25 17.25 31.25 17.05 M8.75 13.45 L8.7 13.4 8.7 13.5 8.75 13.45" fill="#ffffff" fill-rule="evenodd" stroke="none"/>
    <path d="M15.1 12.8 L15.05 12.95 14.95 13.2 14.85 13.1 14.95 12.95 15.05 12.8 15.1 12.8 M15.0 14.05 L15.0 14.1 15.0 14.15 15.0 14.05 M15.0 15.5 L15.1 15.5 15.05 16.1 15.05 16.2 15.0 16.0 15.0 15.5 M15.25 13.35 L15.25 13.25 15.3 13.3 15.25 13.35 M15.05 17.2 L15.05 17.25 15.05 17.2 M15.05 19.9 L15.1 19.9 15.1 19.95 15.05 19.9 M8.8 16.1 L8.75 15.8 8.7 15.2 8.7 15.15 8.8 15.2 8.8 15.9 8.8 16.1 M8.6 12.3 L8.6 12.25 8.65 12.05 8.65 12.0 8.75 11.9 8.8 11.9 8.85 11.8 8.8 11.9 8.8 12.0 8.7 12.3 8.7 12.35 8.6 12.3 M8.75 17.35 L8.8 17.25 8.8 17.35 8.75 17.35 M9.05 12.45 L9.0 12.5 9.0 12.4 9.05 12.45 M8.75 13.45 L8.7 13.5 8.7 13.4 8.75 13.45 M8.8 20.6 L8.8 20.65 8.8 20.6" fill="#c6c664" fill-rule="evenodd" stroke="none"/>
  </g>
</svg>
