<?xml version="1.0" encoding="UTF-8" standalone="no"?>
<svg xmlns:xlink="http://www.w3.org/1999/xlink" height="32.3px" width="32.15px" xmlns="http://www.w3.org/2000/svg">
  <g transform="matrix(1.0, 0.0, 0.0, 1.0, -0.55, -0.3)">
    <path d="M29.85 0.7 L29.7 1.1 29.6 1.25 29.05 2.1 28.6 1.8 28.6 1.45 28.85 0.8 Q28.9 0.35 29.3 0.35 L29.4 0.4 Q29.85 0.1 29.85 0.7 M1.25 2.6 Q0.8 2.6 0.7 2.2 L0.7 1.7 Q0.7 1.15 1.45 0.65 2.2 0.2 2.2 0.95 L1.25 2.6 M1.85 29.35 L1.55 29.85 1.0 30.25 Q0.6 30.25 0.6 29.8 0.6 29.5 0.9 29.25 1.3 28.9 1.8 29.1 L1.85 29.35 M29.95 29.35 L29.8 29.95 29.4 30.25 Q28.95 30.25 28.95 29.8 28.95 29.4 29.45 29.0 29.95 28.55 29.95 29.35" fill="#ff6666" fill-rule="evenodd" stroke="none"/>
    <path d="M32.7 3.95 L32.7 4.35 31.45 4.6 Q30.2 4.6 30.2 4.2 30.2 3.9 30.7 3.65 L31.35 2.95 Q31.15 2.6 31.45 2.15 31.8 1.75 32.3 1.95 L32.7 3.95 M4.2 2.5 Q4.2 4.6 2.45 4.6 L2.05 4.55 Q1.95 4.05 2.1 3.9 L1.7 3.5 Q1.7 3.05 3.35 3.05 L3.9 2.1 Q4.2 1.65 4.2 2.5 M3.6 30.35 Q3.7 30.0 4.3 30.1 L4.35 32.05 Q4.25 32.6 3.75 32.6 L1.6 32.45 Q1.45 32.4 1.45 32.15 2.65 30.7 3.6 30.85 L3.6 30.35 M32.25 32.5 L31.25 32.5 30.25 32.5 29.85 32.05 30.05 31.8 31.3 31.25 31.2 30.65 Q31.2 30.25 31.55 29.8 31.95 29.25 32.25 29.95 L32.45 31.75 32.25 32.5" fill="#660000" fill-rule="evenodd" stroke="none"/>
    <path d="M31.15 14.05 Q28.6 14.35 26.1 14.1 L25.7 14.05 18.7 13.0 17.4 12.9 17.0 12.85 16.85 12.85 15.85 12.75 15.8 12.6 15.75 12.6 15.6 12.5 15.55 12.55 15.4 12.7 15.35 12.7 14.25 12.6 11.1 12.15 10.6 12.05 10.3 12.0 9.75 11.9 9.6 11.9 9.55 11.6 9.45 11.6 9.4 11.55 9.35 11.45 9.3 11.55 9.2 11.65 9.1 11.8 9.0 11.8 7.95 11.6 7.5 11.5 6.6 11.35 6.55 11.35 6.6 11.4 6.55 11.45 6.55 11.55 6.45 11.55 6.4 11.6 5.8 11.5 5.6 11.5 Q3.85 11.4 2.4 12.65 1.8 13.1 1.55 13.75 1.05 14.75 1.0 15.8 L0.95 15.85 0.95 16.0 0.95 16.5 0.9 16.55 0.9 16.7 1.0 16.95 1.05 17.45 1.05 18.65 1.3 18.85 Q1.45 19.4 1.95 19.75 L2.1 19.9 2.2 20.15 2.35 20.15 2.4 20.2 2.65 20.4 2.95 20.75 3.1 20.8 3.2 20.8 3.25 20.95 Q3.6 21.25 4.15 21.25 L4.55 21.3 5.85 21.35 6.45 21.3 6.55 21.3 5.95 21.45 7.65 21.5 7.9 21.45 8.05 21.5 8.1 21.45 8.15 21.45 8.15 21.4 9.05 21.25 9.2 21.2 9.2 21.25 9.4 21.3 9.55 21.3 9.85 21.1 9.85 20.95 9.95 20.95 10.6 20.8 11.8 20.6 14.1 20.45 14.5 20.35 14.55 20.35 14.55 20.3 15.4 20.25 15.5 20.45 14.9 20.55 14.9 20.6 15.25 20.85 15.75 20.5 15.8 20.5 16.05 20.4 16.1 20.3 16.1 20.2 16.5 20.15 16.55 20.05 16.6 20.0 16.7 20.0 16.8 20.0 16.9 20.0 17.45 20.1 17.5 20.15 17.6 20.05 17.95 19.9 18.2 19.85 18.3 19.8 19.45 19.7 20.65 19.8 Q20.6 19.7 20.7 19.7 L20.7 19.65 20.75 19.55 20.9 19.55 21.5 19.55 21.75 19.5 21.8 19.55 21.95 19.65 22.25 19.45 22.35 19.35 22.5 19.35 22.7 19.3 23.85 19.1 24.25 19.1 24.4 19.05 24.9 19.0 24.95 18.95 26.95 18.85 27.55 18.95 29.05 18.7 30.9 18.8 31.0 18.85 31.6 19.1 31.65 19.15 31.75 19.2 31.75 19.3 31.8 19.45 32.25 19.35 32.25 19.3 32.35 19.15 32.35 19.0 Q32.3 18.45 32.55 17.9 L32.55 17.8 32.4 17.45 32.5 17.4 32.35 17.25 32.3 17.25 32.4 16.7 32.4 16.5 32.35 16.5 32.35 16.35 32.4 16.35 32.4 16.15 Q32.2 15.25 32.25 14.35 L32.25 14.25 32.25 14.2 32.25 14.1 32.25 14.05 32.25 13.9 32.3 13.85 32.25 13.75 32.25 13.55 32.15 13.55 31.8 13.5 31.8 13.55 31.75 13.7 31.65 13.75 31.4 13.9 31.35 13.85 31.3 13.9 31.25 13.9 31.15 14.0 31.15 14.05 M32.35 13.2 L32.6 13.4 32.65 16.35 32.65 16.5 32.6 19.45 32.35 19.65 32.3 19.7 32.25 19.7 31.8 19.8 31.5 19.5 31.1 19.15 31.1 19.1 31.15 19.0 24.6 19.45 17.3 20.25 16.5 20.35 16.05 20.85 15.95 20.95 15.85 21.1 15.75 21.15 15.65 21.1 15.45 21.15 15.5 21.25 15.4 21.3 15.25 21.3 15.15 21.2 15.0 21.2 14.9 21.0 14.9 20.95 14.6 20.75 14.45 20.75 14.3 20.65 13.95 21.05 14.0 21.1 13.5 21.4 13.45 22.0 13.4 22.1 13.45 22.2 Q13.1 22.55 12.7 22.5 L12.0 22.4 11.4 22.4 11.4 22.45 Q11.0 22.7 10.7 22.45 L10.65 22.45 10.5 22.35 10.4 21.65 10.35 21.6 10.35 21.55 10.25 21.5 10.15 21.45 10.2 21.5 9.55 21.45 6.15 21.85 6.1 21.8 5.2 21.95 4.0 21.6 Q2.3 20.95 1.2 19.45 L1.2 19.15 0.95 18.85 Q0.6 17.9 0.55 16.9 L0.55 16.5 0.55 16.35 0.55 15.95 Q0.6 14.95 0.95 14.0 1.0 13.75 1.2 13.7 L1.2 13.4 Q2.3 11.85 4.0 11.25 L5.2 10.9 6.1 11.05 6.15 10.95 9.7 11.4 9.9 11.35 10.05 11.35 10.1 11.4 10.2 11.45 10.25 11.45 10.35 10.35 10.45 10.25 10.55 10.3 10.65 10.25 10.75 10.2 13.2 10.3 13.25 10.35 13.3 10.3 13.4 10.35 13.4 10.4 13.4 11.45 13.4 11.55 13.3 11.6 13.25 11.65 13.25 11.75 13.3 11.8 14.25 12.2 14.95 11.2 15.05 11.1 15.1 11.05 Q15.75 11.15 16.2 11.55 L17.35 12.6 24.6 13.4 31.15 13.85 31.1 13.75 31.1 13.7 31.5 13.35 31.8 13.05 32.25 13.15 32.3 13.15 32.35 13.2 M10.65 10.6 L10.6 11.55 12.85 12.0 12.95 11.85 13.0 10.55 13.0 10.45 10.85 10.6 10.65 10.6 M15.25 11.4 L15.2 11.4 14.55 12.3 16.5 12.55 Q16.1 11.65 15.25 11.4 M16.75 12.55 L16.8 12.55 16.7 12.4 16.75 12.55 M13.9 20.7 L13.5 20.75 10.65 21.25 10.85 22.1 10.95 22.1 11.0 22.05 12.7 22.2 13.1 22.05 Q12.95 21.6 13.15 21.35 L13.15 21.3 13.2 21.35 13.2 21.25 13.2 21.15 13.3 21.1 13.35 21.05 13.4 21.1 13.45 21.1 13.5 21.05 13.55 21.05 13.9 20.7" fill="#000000" fill-rule="evenodd" stroke="none"/>
    <path d="M15.75 20.5 L15.25 20.85 14.9 20.6 14.9 20.55 15.5 20.45 15.7 20.5 15.75 20.5 M10.65 10.6 L10.85 10.6 13.0 10.45 13.0 10.55 12.95 11.85 12.85 12.0 10.6 11.55 10.65 10.6 M15.25 11.4 Q16.1 11.65 16.5 12.55 L14.55 12.3 15.2 11.4 15.25 11.4 M13.9 20.7 L13.55 21.05 13.5 21.05 13.45 21.1 13.4 21.1 13.35 21.05 13.3 21.1 13.2 21.15 13.2 21.25 13.2 21.35 13.15 21.3 13.15 21.35 Q12.95 21.6 13.1 22.05 L12.7 22.2 11.0 22.05 10.95 22.1 10.85 22.1 10.65 21.25 13.5 20.75 13.9 20.7" fill="#754e39" fill-rule="evenodd" stroke="none"/>
    <path d="M31.2 14.45 L31.05 14.55 31.0 14.6 29.85 14.6 25.55 14.35 22.7 14.0 21.9 13.85 16.9 13.6 16.35 13.55 16.15 13.55 16.2 13.15 16.1 13.15 16.05 13.0 16.0 12.95 15.95 12.9 16.85 12.85 17.0 12.85 17.4 12.9 18.7 13.0 25.7 14.05 26.1 14.1 Q28.6 14.35 31.15 14.05 L31.2 14.35 31.2 14.45 M16.1 14.7 L17.05 14.7 17.4 14.7 Q24.3 14.7 31.25 15.05 L31.35 15.95 Q30.45 16.6 29.2 16.4 L26.7 16.0 25.45 16.0 25.25 16.0 Q21.3 15.75 17.4 16.05 L16.95 16.1 15.95 16.15 15.95 15.9 15.85 15.85 15.9 15.25 16.0 15.2 16.05 15.15 16.1 14.7 M15.6 19.25 L15.55 19.3 15.55 19.35 15.5 19.7 15.35 19.7 15.3 19.7 15.25 19.1 15.15 18.7 Q15.0 18.1 15.25 17.6 L15.3 17.25 15.5 17.3 15.55 18.65 15.6 18.9 15.6 19.25 M9.9 16.95 L9.9 16.4 9.85 16.4 9.75 16.3 9.7 16.3 9.65 15.65 9.6 15.6 9.65 15.0 14.55 14.7 15.1 14.7 15.2 15.45 15.25 15.5 15.25 16.0 15.3 16.2 13.65 16.4 10.4 16.85 9.9 16.95 M9.3 19.8 L9.3 19.9 9.2 20.35 9.1 20.35 9.0 20.35 9.0 19.75 9.0 19.6 8.95 19.55 Q8.65 18.55 9.0 17.7 L9.0 17.35 9.05 17.35 9.2 17.4 9.25 17.4 9.3 19.35 9.3 19.7 9.3 19.8 M5.65 11.65 L5.85 11.6 6.4 11.65 7.2 11.7 8.1 11.8 8.85 11.9 9.0 11.9 8.9 12.0 8.9 12.05 8.85 12.25 8.85 12.3 8.45 12.25 8.4 12.25 8.0 12.2 7.55 12.15 7.25 12.05 6.7 12.0 5.85 12.0 5.5 12.1 Q4.3 12.35 3.25 12.85 2.7 13.15 2.25 13.65 L2.25 13.9 2.25 14.0 2.35 14.75 Q4.25 15.75 6.55 15.45 L6.7 15.45 7.05 15.35 8.9 15.1 8.95 15.15 8.95 15.2 9.0 15.8 9.05 16.1 9.05 16.3 9.05 17.1 7.45 17.35 7.15 17.4 6.7 17.45 Q4.5 17.85 2.6 16.75 2.05 16.45 1.95 15.85 L1.75 14.8 1.75 14.75 1.7 14.7 1.7 14.6 1.7 14.25 1.7 14.2 1.7 14.05 1.7 13.9 Q2.05 13.15 2.75 12.8 4.1 11.95 5.65 11.65 M9.75 12.0 L13.15 12.7 15.1 12.95 15.2 12.95 15.1 13.1 15.2 13.2 15.15 13.5 15.0 13.5 9.9 12.6 9.9 12.3 9.85 12.3 9.8 12.25 9.8 12.1 9.75 12.0" fill="#982c2c" fill-rule="evenodd" stroke="none"/>
    <path d="M15.95 12.9 L16.0 12.95 16.05 13.0 16.1 13.15 16.2 13.15 16.15 13.55 16.1 14.7 16.05 15.15 16.0 15.2 15.9 15.25 15.85 15.85 15.95 15.9 15.95 16.15 16.95 16.1 17.4 16.05 Q21.3 15.75 25.25 16.0 L25.45 16.0 26.7 16.0 29.2 16.4 Q30.45 16.6 31.35 15.95 L31.5 16.55 31.5 17.05 31.4 17.1 31.3 17.2 22.15 17.7 17.55 18.3 16.85 18.45 16.45 18.5 16.4 18.5 16.15 18.55 16.15 18.35 16.2 16.55 16.1 16.55 16.0 16.4 15.95 16.4 15.95 16.45 15.85 17.25 15.8 17.25 15.75 17.3 Q15.55 17.45 15.75 17.7 L15.7 17.8 Q15.5 18.2 15.6 18.65 L15.55 18.65 15.5 17.3 15.55 16.85 15.55 16.75 15.6 16.7 15.55 16.2 Q15.5 15.4 15.6 14.7 L15.75 13.85 15.8 13.65 15.75 13.5 15.8 13.1 15.85 12.95 15.95 12.9 M1.0 15.8 Q1.05 14.75 1.55 13.75 1.8 13.1 2.4 12.65 3.85 11.4 5.6 11.5 L5.65 11.65 Q4.1 11.95 2.75 12.8 2.05 13.15 1.7 13.9 L1.7 14.05 1.7 14.2 1.7 14.25 1.7 14.6 1.7 14.7 1.75 14.75 1.75 14.8 1.95 15.85 Q2.05 16.45 2.6 16.75 4.5 17.85 6.7 17.45 L7.15 17.4 7.45 17.35 9.05 17.1 9.05 17.25 9.0 17.35 9.0 17.7 Q8.65 18.55 8.95 19.55 L9.0 19.6 9.0 19.75 7.0 19.95 6.75 19.95 3.7 19.8 Q3.45 19.35 2.95 19.2 L2.35 18.45 2.35 18.4 2.35 18.25 Q1.75 17.6 1.5 16.75 L1.55 16.5 1.5 16.5 1.4 16.35 1.3 16.4 1.3 16.35 1.25 15.85 1.2 15.8 1.15 15.7 1.05 15.8 1.0 15.8 M32.25 14.35 Q32.2 15.25 32.4 16.15 L32.4 16.35 32.35 16.35 32.35 16.5 32.4 16.5 32.4 16.7 32.3 17.25 Q32.15 17.15 32.1 17.4 L31.9 17.5 31.9 17.35 32.0 17.35 32.0 17.2 31.95 15.95 32.05 15.85 32.1 15.8 32.15 14.4 32.15 14.35 32.25 14.35 M15.15 18.7 L9.85 19.6 9.9 16.95 10.4 16.85 13.65 16.4 15.3 16.2 15.3 16.4 15.3 17.2 15.3 17.25 15.25 17.6 Q15.0 18.1 15.15 18.7 M9.65 16.35 L9.6 17.0 9.55 17.35 9.45 17.4 Q9.25 17.6 9.45 17.9 L9.4 18.05 Q9.15 18.75 9.5 19.45 L9.5 19.65 9.5 19.75 9.45 19.7 9.4 19.8 9.3 19.8 9.3 19.7 9.3 19.35 9.25 17.4 9.3 17.05 9.3 16.85 9.3 16.7 9.3 16.65 9.3 15.05 9.45 13.65 9.5 13.1 9.5 13.05 9.55 12.9 9.5 12.45 9.55 12.25 9.6 12.0 9.65 12.0 9.75 12.0 9.8 12.1 9.8 12.25 9.85 12.3 9.9 12.3 9.9 12.6 9.85 13.1 9.85 13.65 9.8 14.75 9.7 14.8 9.65 14.9 9.65 15.0 9.6 15.6 9.65 15.65 9.7 16.3 9.65 16.35" fill="#6d0101" fill-rule="evenodd" stroke="none"/>
    <path d="M16.15 13.55 L16.35 13.55 16.9 13.6 21.9 13.85 22.7 14.0 25.55 14.35 29.85 14.6 31.0 14.6 31.05 14.55 31.2 14.45 31.25 15.05 Q24.3 14.7 17.4 14.7 L17.05 14.7 16.1 14.7 16.15 13.55 M31.9 17.5 L31.9 18.15 31.9 18.3 31.6 18.25 31.5 17.3 31.5 17.05 31.5 16.55 31.5 16.15 31.5 16.05 31.6 16.0 31.6 15.75 31.65 15.05 31.65 14.75 31.65 14.7 Q31.7 14.6 31.8 14.6 L31.8 14.55 31.85 14.55 31.9 14.6 31.95 14.55 32.05 14.35 32.05 14.25 32.1 14.35 32.15 14.35 32.15 14.4 32.1 15.8 32.05 15.85 31.95 15.95 32.0 17.2 32.0 17.35 31.9 17.35 31.9 17.5 M9.05 17.1 L9.05 16.3 9.05 16.1 9.05 15.9 9.05 15.2 9.05 14.7 9.1 13.95 9.05 13.85 9.05 13.6 9.15 13.0 9.25 12.5 9.3 12.45 9.35 12.4 9.35 12.35 9.4 12.4 9.45 12.25 9.45 12.15 9.55 12.25 9.5 12.45 9.55 12.9 9.5 13.05 9.5 13.1 9.45 13.65 9.3 15.05 9.3 16.65 9.3 16.7 9.3 16.85 9.3 17.05 9.25 17.4 9.2 17.4 9.05 17.35 9.05 17.25 9.05 17.1 M8.9 15.1 L7.05 15.35 6.7 15.45 6.55 15.45 Q4.25 15.75 2.35 14.75 L2.25 14.0 2.25 13.9 2.25 13.65 Q2.7 13.15 3.25 12.85 4.3 12.35 5.5 12.1 L5.85 12.0 6.7 12.0 7.25 12.05 7.55 12.15 8.0 12.2 8.4 12.25 8.45 12.25 8.85 12.3 8.95 12.35 Q8.85 12.65 8.9 12.95 L6.7 12.55 6.25 12.5 5.5 12.35 5.45 12.45 5.35 12.5 5.35 12.6 4.6 12.6 4.55 12.6 Q3.75 12.65 3.25 13.3 L3.35 13.4 3.7 13.65 3.9 13.55 4.0 13.65 4.0 13.7 5.8 13.6 6.35 13.65 6.8 13.7 8.15 13.6 8.85 13.6 8.85 13.7 8.9 15.1 M9.9 12.6 L15.0 13.5 15.15 13.5 15.2 13.8 15.25 13.85 15.25 14.05 15.25 14.15 15.1 14.2 15.1 14.3 15.1 14.7 14.55 14.7 9.65 15.0 9.65 14.9 9.7 14.8 9.8 14.75 9.85 13.65 13.05 13.85 13.05 13.75 13.1 13.7 13.1 13.65 13.05 13.65 12.9 13.55 9.85 13.1 9.9 12.6 M15.8 13.1 L15.75 13.5 15.8 13.65 15.75 13.85 15.6 14.7 Q15.5 15.4 15.55 16.2 L15.6 16.7 15.55 16.75 15.55 16.85 15.5 17.3 15.3 17.25 15.3 17.2 15.3 16.4 15.3 16.2 15.3 16.1 15.35 15.5 15.35 15.15 15.35 14.7 15.35 14.5 15.3 14.45 15.45 13.5 15.5 13.35 15.55 13.3 15.6 13.25 15.65 13.25 15.75 13.1 15.75 13.05 15.8 13.1" fill="#c69f9f" fill-rule="evenodd" stroke="none"/>
    <path d="M32.3 17.25 L32.35 17.25 32.5 17.4 32.4 17.45 32.55 17.8 32.55 17.9 Q32.3 18.45 32.35 19.0 L32.35 19.15 32.25 19.3 32.25 19.35 31.8 19.45 31.75 19.3 31.75 19.2 31.65 19.15 31.6 19.1 31.0 18.85 30.9 18.8 29.05 18.7 27.55 18.95 26.95 18.85 24.95 18.95 24.9 19.0 24.4 19.05 24.25 19.1 23.85 19.1 22.7 19.3 22.5 19.35 22.35 19.35 22.25 19.45 21.95 19.65 21.8 19.55 21.75 19.5 21.5 19.55 20.9 19.55 20.75 19.55 20.7 19.65 20.7 19.7 Q20.6 19.7 20.65 19.8 L19.45 19.7 18.3 19.8 18.2 19.85 17.95 19.9 17.6 20.05 17.5 20.15 17.45 20.1 16.9 20.0 16.8 20.0 16.7 20.0 16.6 20.0 16.55 20.05 16.5 20.15 16.1 20.2 16.1 20.3 16.05 20.4 15.8 20.5 15.75 20.5 15.7 20.5 15.5 20.45 15.4 20.25 14.55 20.3 14.55 20.35 14.5 20.35 14.1 20.45 11.8 20.6 10.6 20.8 9.95 20.95 9.85 20.95 9.85 21.1 9.55 21.3 9.4 21.3 9.2 21.25 9.2 21.2 9.05 21.25 8.15 21.4 8.15 21.45 8.1 21.45 8.05 21.5 7.9 21.45 7.65 21.5 5.95 21.45 6.55 21.3 6.45 21.3 5.85 21.35 4.55 21.3 4.15 21.25 Q3.6 21.25 3.25 20.95 L3.2 20.8 3.1 20.8 2.95 20.75 2.65 20.4 2.6 20.3 2.4 20.2 2.35 20.15 2.2 20.15 2.1 19.9 2.05 19.8 1.95 19.75 Q1.45 19.4 1.3 18.85 L1.05 18.65 1.05 17.45 1.05 17.3 1.0 16.95 0.9 16.7 0.9 16.55 0.95 16.5 0.95 16.0 0.95 15.85 1.0 15.8 1.05 15.8 1.15 15.7 1.2 15.8 1.25 15.85 1.3 16.35 1.3 16.4 1.4 16.35 1.5 16.5 1.55 16.5 1.5 16.75 Q1.75 17.6 2.35 18.25 L2.35 18.4 2.35 18.45 2.95 19.2 Q3.45 19.35 3.7 19.8 L6.75 19.95 7.0 19.95 9.0 19.75 9.0 20.35 9.05 20.6 9.1 20.35 9.2 20.35 9.3 19.9 9.3 19.8 9.4 19.8 9.45 19.7 9.5 19.75 9.5 19.65 9.5 19.45 Q9.15 18.75 9.4 18.05 L9.45 17.9 Q9.25 17.6 9.45 17.4 L9.55 17.35 9.6 17.0 9.65 16.35 9.75 16.3 9.85 16.4 9.9 16.4 9.9 16.95 9.85 19.6 15.15 18.7 15.25 19.1 15.3 19.7 15.3 19.9 15.35 19.95 15.35 19.9 15.35 19.7 15.5 19.7 15.55 19.35 15.55 19.3 15.6 19.25 15.7 19.25 15.75 19.2 15.75 18.95 15.6 18.65 Q15.5 18.2 15.7 17.8 L15.75 17.7 Q15.55 17.45 15.75 17.3 L15.8 17.25 15.85 17.25 15.95 16.45 16.0 16.4 16.1 16.55 16.2 16.55 16.15 18.35 16.15 18.55 16.4 18.5 16.45 18.5 16.85 18.45 17.55 18.3 22.15 17.7 31.3 17.2 31.4 17.1 31.5 17.05 31.5 17.3 31.6 18.25 31.9 18.3 31.9 18.15 31.9 17.5 32.1 17.4 Q32.15 17.15 32.3 17.25 M1.75 18.25 L1.8 18.4 1.8 18.45 1.85 18.5 1.9 18.6 1.95 18.6 1.95 18.45 1.6 17.9 1.75 18.25" fill="#2b0000" fill-rule="evenodd" stroke="none"/>
    <path d="M16.85 12.85 L15.95 12.9 15.85 12.9 15.85 12.75 16.85 12.85 M2.65 20.4 L2.4 20.2 2.6 20.3 2.65 20.4 M2.1 19.9 L1.95 19.75 2.05 19.8 2.1 19.9 M1.05 17.45 L1.0 16.95 1.05 17.3 1.05 17.45 M5.6 11.5 L5.8 11.5 6.4 11.6 6.45 11.55 6.55 11.55 6.55 11.45 6.6 11.4 6.6 11.35 7.5 11.5 7.95 11.6 9.0 11.8 9.1 11.8 Q9.0 11.8 9.05 11.9 L9.0 11.9 8.85 11.9 8.1 11.8 7.2 11.7 6.4 11.65 5.85 11.6 5.65 11.65 5.6 11.5 M9.6 11.9 L9.75 11.9 10.3 12.0 10.6 12.05 11.1 12.15 14.25 12.6 15.35 12.7 15.4 12.7 15.35 12.8 15.3 12.8 Q15.2 12.8 15.2 12.95 L15.1 12.95 13.15 12.7 9.75 12.0 9.65 12.0 9.6 12.0 9.6 11.9 M32.25 13.75 L32.1 13.65 32.1 13.7 31.85 13.75 31.8 13.85 31.8 13.9 Q31.55 13.9 31.5 14.05 L31.5 14.0 31.4 13.9 31.65 13.75 31.75 13.7 31.8 13.55 31.8 13.5 32.15 13.55 32.25 13.55 32.25 13.75 M32.25 14.25 L32.25 14.35 32.15 14.35 32.25 14.25 M15.6 18.65 L15.75 18.95 15.75 19.2 15.7 19.25 15.6 19.25 15.6 18.9 15.55 18.65 15.6 18.65 M1.75 18.25 L1.6 17.9 1.95 18.45 1.95 18.6 1.9 18.6 1.85 18.5 1.8 18.45 1.8 18.4 1.75 18.25" fill="#343f50" fill-rule="evenodd" stroke="none"/>
    <path d="M31.2 14.45 L31.2 14.35 31.15 14.05 31.15 14.0 31.25 13.9 31.3 13.9 31.35 13.85 31.4 13.9 31.5 14.0 31.5 14.05 Q31.55 13.9 31.8 13.9 L31.8 13.85 31.85 13.75 32.1 13.7 32.1 13.65 32.25 13.75 32.3 13.85 32.25 13.9 32.25 14.05 32.25 14.1 32.25 14.2 32.25 14.25 32.15 14.35 32.1 14.35 32.05 14.25 32.05 14.35 31.95 14.55 31.9 14.6 31.85 14.55 31.8 14.55 31.8 14.6 Q31.7 14.6 31.65 14.7 L31.65 14.75 31.65 15.05 31.6 15.75 31.6 16.0 31.5 16.05 31.5 16.15 31.5 16.55 31.35 15.95 31.25 15.05 31.2 14.45 M9.1 11.8 L9.2 11.65 9.3 11.55 9.35 11.45 9.4 11.55 9.45 11.6 9.55 11.6 9.6 11.9 9.6 12.0 9.55 12.25 9.45 12.15 9.45 12.25 9.4 12.4 9.35 12.35 9.35 12.4 9.3 12.45 9.25 12.4 9.25 12.5 9.15 13.0 9.05 13.6 9.05 13.85 9.1 13.95 9.05 14.7 9.05 15.2 8.95 15.15 8.9 15.1 8.85 13.7 8.85 13.6 8.15 13.6 6.8 13.7 6.35 13.65 5.8 13.6 4.0 13.7 4.0 13.65 3.9 13.55 3.7 13.65 3.35 13.4 3.25 13.3 Q3.75 12.65 4.55 12.6 L4.6 12.6 5.35 12.6 5.35 12.5 5.45 12.45 5.5 12.35 6.25 12.5 6.7 12.55 8.9 12.95 Q8.85 12.65 8.95 12.35 L8.95 12.3 8.95 12.2 9.05 12.0 9.05 11.9 Q9.0 11.8 9.1 11.8 M15.4 12.7 L15.55 12.55 15.6 12.5 15.75 12.6 15.8 12.6 15.85 12.75 15.85 12.9 15.85 12.95 15.8 13.1 15.75 13.05 15.75 13.1 15.65 13.25 15.6 13.25 15.55 13.3 15.5 13.25 15.5 13.35 15.45 13.5 15.3 14.45 15.35 14.5 15.35 14.7 15.35 15.15 15.35 15.5 15.25 15.5 15.2 15.45 15.1 14.7 15.1 14.3 15.1 14.2 15.25 14.15 15.25 14.05 15.25 13.85 15.2 13.8 15.15 13.5 15.2 13.2 15.3 12.95 15.35 12.8 15.4 12.7 M9.85 13.1 L12.9 13.55 13.05 13.65 13.1 13.65 13.1 13.7 13.05 13.75 13.05 13.85 9.85 13.65 9.85 13.1 M9.0 13.45 L8.95 13.4 8.95 13.5 9.0 13.45" fill="#ffffff" fill-rule="evenodd" stroke="none"/>
    <path d="M15.35 19.9 L15.35 19.95 15.3 19.9 15.35 19.9 M9.05 16.1 L9.0 15.8 8.95 15.2 8.95 15.15 9.05 15.2 9.05 15.9 9.05 16.1 M8.85 12.3 L8.85 12.25 8.9 12.05 8.9 12.0 9.0 11.9 9.05 11.9 9.05 12.0 8.95 12.2 8.95 12.3 8.95 12.35 8.85 12.3 M9.3 12.45 L9.25 12.5 9.25 12.4 9.3 12.45 M15.2 12.95 Q15.2 12.8 15.3 12.8 L15.35 12.8 15.3 12.95 15.2 13.2 15.1 13.1 15.2 12.95 M9.0 13.45 L8.95 13.5 8.95 13.4 9.0 13.45 M9.05 17.25 L9.05 17.35 9.0 17.35 9.05 17.25 M15.5 13.35 L15.5 13.25 15.55 13.3 15.5 13.35 M15.35 15.5 L15.3 16.1 15.3 16.2 15.25 16.0 15.25 15.5 15.35 15.5" fill="#c6c664" fill-rule="evenodd" stroke="none"/>
    <path d="M16.0 16.4 L15.95 16.45 15.95 16.4 16.0 16.4 M9.75 16.3 L9.65 16.35 9.7 16.3 9.75 16.3" fill="#232b36" fill-rule="evenodd" stroke="none"/>
    <path d="M15.35 19.7 L15.35 19.9 15.3 19.9 15.3 19.7 15.35 19.7 M9.1 20.35 L9.05 20.6 9.0 20.35 9.1 20.35 M15.95 12.9 L15.85 12.95 15.85 12.9 15.95 12.9" fill="#546581" fill-rule="evenodd" stroke="none"/>
  </g>
</svg>
