<?xml version="1.0" encoding="UTF-8" standalone="no"?>
<svg xmlns:xlink="http://www.w3.org/1999/xlink" height="32.3px" width="32.1px" xmlns="http://www.w3.org/2000/svg">
  <g transform="matrix(1.0, 0.0, 0.0, 1.0, -0.6, -0.3)">
    <path d="M29.85 0.7 L29.7 1.1 29.6 1.25 29.05 2.1 28.6 1.8 28.6 1.45 28.85 0.8 Q28.9 0.35 29.3 0.35 L29.4 0.4 Q29.85 0.1 29.85 0.7 M1.25 2.6 Q0.8 2.6 0.7 2.2 L0.7 1.7 Q0.7 1.15 1.45 0.65 2.2 0.2 2.2 0.95 L1.25 2.6 M1.85 29.35 L1.55 29.85 1.0 30.25 Q0.6 30.25 0.6 29.8 0.6 29.5 0.9 29.25 1.3 28.9 1.8 29.1 L1.85 29.35 M29.95 29.35 L29.8 29.95 29.4 30.25 Q28.95 30.25 28.95 29.8 28.95 29.4 29.45 29.0 29.95 28.55 29.95 29.35" fill="#ff6666" fill-rule="evenodd" stroke="none"/>
    <path d="M32.7 3.95 L32.7 4.35 31.45 4.6 Q30.2 4.6 30.2 4.2 30.2 3.9 30.7 3.65 L31.35 2.95 Q31.15 2.6 31.45 2.15 31.8 1.75 32.3 1.95 L32.7 3.95 M4.2 2.5 Q4.2 4.6 2.45 4.6 L2.05 4.55 Q1.95 4.05 2.1 3.9 L1.7 3.5 Q1.7 3.05 3.35 3.05 L3.9 2.1 Q4.2 1.65 4.2 2.5 M3.6 30.35 Q3.7 30.0 4.3 30.1 L4.35 32.05 Q4.25 32.6 3.75 32.6 L1.6 32.45 Q1.45 32.4 1.45 32.15 2.65 30.7 3.6 30.85 L3.6 30.35 M32.25 32.5 L31.25 32.5 30.25 32.5 29.85 32.05 30.05 31.8 31.3 31.25 31.2 30.65 Q31.2 30.25 31.55 29.8 31.95 29.25 32.25 29.95 L32.45 31.75 32.25 32.5" fill="#660000" fill-rule="evenodd" stroke="none"/>
    <path d="M7.85 16.55 L7.85 16.5 11.6 16.55 12.3 16.55 Q12.15 17.2 12.25 17.9 L7.75 17.9 7.75 17.45 7.75 17.4 7.8 17.4 7.85 16.7 7.85 16.55 M6.9 16.7 L6.9 17.1 4.65 17.0 4.65 17.05 4.6 17.05 4.6 16.8 4.6 16.65 6.9 16.7 M8.2 16.85 L8.15 16.9 8.15 16.95 Q10.05 17.35 12.05 16.95 L12.05 16.9 12.0 16.85 11.95 16.85 11.95 16.8 11.85 16.75 8.85 16.7 8.5 16.7 8.45 16.75 8.4 16.75 8.3 16.75 8.2 16.85 M4.55 19.95 L4.55 19.55 6.9 19.6 6.9 20.0 4.6 19.95 4.55 19.95" fill="#afafaf" fill-rule="evenodd" stroke="none"/>
    <path d="M27.55 16.05 L27.95 16.1 28.05 16.1 28.05 16.15 28.1 16.2 28.15 16.2 28.2 16.4 28.15 16.4 28.15 16.45 28.25 16.45 28.45 16.65 28.4 16.65 28.35 16.7 28.4 16.7 28.55 16.7 29.2 16.7 29.65 16.7 30.45 16.7 30.55 16.7 30.6 16.7 31.0 16.5 31.1 16.4 31.3 16.1 31.65 16.15 31.7 16.15 31.75 16.2 31.8 16.35 31.8 16.4 31.8 19.85 31.9 19.9 31.8 19.95 31.8 20.0 31.7 20.05 Q31.4 20.05 31.15 19.85 L31.2 19.8 31.2 19.7 28.3 19.65 Q28.2 19.75 28.25 19.8 L28.25 19.85 28.25 19.95 27.65 20.05 27.65 20.0 27.55 19.9 27.5 19.85 27.45 19.85 27.45 19.75 27.15 19.55 26.95 19.55 26.85 19.4 26.85 19.35 26.8 19.35 26.7 19.3 Q26.5 19.15 26.2 19.15 L26.15 19.15 26.0 19.15 25.95 19.2 25.75 19.1 25.25 19.15 25.25 19.1 25.05 19.1 18.15 19.15 15.95 19.15 15.9 19.25 15.85 19.3 15.85 19.4 15.8 19.75 15.8 19.8 15.8 20.3 15.9 20.4 15.9 20.55 15.7 20.55 15.65 20.55 15.0 20.6 14.85 21.35 14.8 21.45 14.7 21.45 14.65 21.4 14.1 21.4 14.0 21.7 14.1 21.7 14.05 21.8 13.9 21.8 8.9 21.85 8.75 21.75 8.35 21.1 8.2 20.8 7.9 20.6 7.9 20.55 7.2 20.55 7.15 20.55 7.15 20.6 7.1 20.85 6.9 20.85 6.9 20.15 4.5 20.1 4.5 20.15 4.5 20.25 4.5 20.35 4.55 20.4 4.6 20.45 4.55 20.55 4.45 20.55 3.15 20.55 2.95 20.5 2.9 20.5 2.8 20.5 2.8 20.45 2.95 20.3 2.95 20.25 2.95 16.7 2.95 16.6 2.8 16.45 2.95 16.1 2.9 16.1 2.9 16.05 3.0 15.95 3.05 15.95 4.5 15.95 4.55 16.0 4.6 16.0 4.55 16.15 4.6 16.45 6.9 16.45 6.9 15.95 6.9 15.75 7.0 15.75 7.05 15.65 7.7 15.65 7.7 14.55 7.7 14.5 7.75 14.5 7.75 14.45 7.85 14.3 8.45 14.35 8.45 13.85 8.0 13.85 7.95 13.85 7.9 13.9 7.75 13.85 Q7.6 13.1 7.9 12.5 L7.75 12.35 7.75 12.25 7.85 12.2 7.95 12.2 8.0 12.15 8.4 12.2 8.4 11.9 8.0 11.85 8.0 11.9 7.8 11.85 7.8 10.55 7.8 10.5 7.9 10.45 8.05 10.45 8.4 10.45 8.45 10.2 8.45 10.05 8.55 9.9 8.6 9.95 8.65 9.95 10.95 10.05 11.0 10.1 11.0 10.2 11.0 10.5 11.05 10.45 11.1 10.4 Q11.85 10.55 12.35 11.05 L12.45 11.15 12.5 11.15 12.35 11.4 Q11.9 11.9 11.35 12.0 L11.2 11.9 11.05 11.9 11.05 12.25 11.35 12.25 11.35 12.3 11.4 12.3 11.4 12.35 11.5 12.35 11.75 12.45 11.8 12.45 12.45 12.8 12.5 12.8 12.55 13.0 12.55 13.15 12.3 13.35 12.05 13.6 12.0 13.7 11.35 13.85 11.05 14.0 11.05 14.35 11.15 14.35 12.35 14.85 12.4 14.9 12.55 15.0 12.55 15.2 12.0 15.65 15.6 15.7 15.6 15.65 15.65 15.6 15.7 15.55 15.75 15.6 15.8 15.65 15.8 15.7 15.85 15.7 15.9 15.85 15.8 15.85 15.8 16.15 15.8 16.7 15.9 16.75 16.1 16.8 16.15 16.85 16.15 16.9 26.85 16.95 26.85 16.8 26.75 16.8 26.8 16.7 26.9 16.55 27.45 16.15 27.55 16.05 M27.2 16.8 L27.2 16.9 27.1 17.05 27.1 17.1 26.9 17.1 15.85 17.15 15.85 18.35 15.9 18.35 15.95 18.45 16.05 18.6 16.0 18.7 16.0 18.9 18.25 18.95 18.25 18.9 26.25 18.95 26.6 18.95 26.85 18.95 26.9 18.95 26.95 18.9 27.0 19.0 27.05 18.95 27.1 18.9 27.25 19.35 27.2 19.4 27.65 19.7 27.8 19.8 28.0 19.75 28.0 19.7 28.05 19.55 28.1 19.55 28.15 19.4 28.15 19.35 28.25 19.35 28.4 19.4 31.25 19.4 31.4 19.55 31.45 19.55 31.45 19.7 31.5 19.75 31.6 19.8 31.7 16.45 31.6 16.35 31.55 16.4 31.5 16.4 31.4 16.4 31.3 16.5 31.15 16.7 31.15 16.75 31.05 16.9 30.9 16.95 28.35 16.9 28.25 16.9 28.15 16.9 27.85 16.65 27.85 16.6 27.9 16.55 27.85 16.35 27.65 16.35 27.2 16.7 27.2 16.8 M28.75 17.7 L28.45 17.7 28.35 17.8 28.1 17.9 28.05 17.95 28.05 18.05 28.1 18.15 30.9 18.1 30.95 18.0 31.0 18.0 Q30.8 17.8 30.3 17.75 L28.85 17.65 28.75 17.7 M30.55 18.5 L27.9 18.25 27.85 18.15 27.8 18.15 27.9 17.85 28.15 17.65 28.15 17.6 28.2 17.55 28.25 17.55 28.85 17.4 31.25 17.8 31.3 17.85 31.35 17.9 31.3 17.9 31.3 17.95 31.25 18.1 30.9 18.35 30.7 18.35 30.7 18.45 30.55 18.5 M10.75 10.5 L10.85 10.25 8.65 10.3 8.65 10.45 8.65 10.7 8.65 10.8 8.65 11.0 8.7 11.65 8.7 11.9 8.7 12.2 8.7 12.55 8.7 12.65 8.7 12.85 8.7 13.6 8.7 13.85 8.7 14.35 8.65 14.55 8.65 14.65 8.65 14.85 8.65 14.9 8.7 15.5 8.7 15.65 10.8 15.65 10.8 14.95 10.8 14.75 10.8 14.55 10.8 14.35 10.8 13.85 10.8 13.6 10.8 12.9 10.75 12.5 10.75 12.25 10.75 11.9 10.75 11.7 10.7 11.15 10.7 10.85 10.7 10.8 10.7 10.7 10.75 10.5 M11.0 11.15 L11.05 11.7 11.35 11.7 11.4 11.7 11.75 11.65 12.2 11.2 12.2 11.15 Q11.95 11.15 11.85 10.95 L11.3 10.7 11.2 10.7 11.0 10.7 11.0 10.85 11.0 11.15 M8.35 10.85 L8.35 10.8 8.35 10.7 8.0 10.7 8.0 11.65 8.4 11.65 8.35 11.0 8.35 10.85 M8.45 12.8 L8.45 12.7 8.45 12.55 8.05 12.5 7.95 13.6 7.95 13.65 8.0 13.65 8.0 13.6 8.45 13.6 8.45 12.8 M8.45 14.6 L8.45 14.55 7.9 14.5 7.95 15.6 7.95 15.65 8.45 15.65 8.45 14.9 8.45 14.6 M7.55 16.7 L7.65 16.7 7.7 16.5 7.6 16.5 7.6 16.4 7.75 16.35 7.75 16.25 7.8 16.3 7.85 16.35 11.55 16.4 11.45 15.95 11.45 15.9 11.4 15.9 7.75 15.9 7.1 15.9 7.15 16.45 7.15 16.7 7.15 17.1 7.15 17.35 7.15 19.4 7.15 19.6 7.15 20.0 7.15 20.15 7.15 20.4 10.8 20.4 10.8 20.35 Q10.7 19.25 10.85 18.15 L7.55 18.15 7.45 18.0 7.55 17.9 7.55 17.3 7.55 16.75 7.55 16.7 M6.9 16.7 L4.6 16.65 4.6 16.8 4.6 17.05 4.65 17.05 4.65 17.0 6.9 17.1 6.9 16.7 M7.85 16.55 L7.85 16.7 7.8 17.4 7.75 17.4 7.75 17.45 7.75 17.9 12.25 17.9 Q12.15 17.2 12.3 16.55 L11.6 16.55 7.85 16.5 7.85 16.55 M4.35 16.15 L4.05 16.15 Q4.15 17.05 3.2 16.95 L3.2 20.15 3.2 20.3 3.2 20.35 4.2 20.35 4.3 19.95 4.3 19.55 4.3 19.5 4.3 16.75 4.25 16.65 4.3 16.55 4.35 16.5 4.35 16.2 4.35 16.15 M3.15 16.4 L3.2 16.45 3.2 16.7 3.65 16.7 3.9 16.15 3.2 16.15 3.15 16.2 3.1 16.3 3.15 16.4 M4.65 17.35 L4.6 17.35 4.55 17.4 4.55 17.45 4.55 19.35 6.9 19.4 6.9 17.35 4.65 17.35 M4.55 19.95 L4.6 19.95 6.9 20.0 6.9 19.6 4.55 19.55 4.55 19.95 M8.7 21.15 L8.75 21.25 8.85 21.4 8.95 21.5 8.95 21.6 13.8 21.65 13.85 21.35 13.85 21.25 14.25 20.75 14.3 20.6 8.35 20.55 8.7 21.15 M15.6 15.85 L11.85 15.9 11.85 16.0 11.85 16.1 11.8 16.2 11.75 16.2 11.8 16.3 11.85 16.35 11.85 16.4 12.35 16.4 12.35 16.35 12.4 16.3 12.5 16.4 12.55 16.45 12.55 16.5 12.45 17.9 12.65 17.9 12.75 17.95 12.8 17.95 12.75 18.1 12.7 18.1 10.95 18.15 11.0 19.55 11.1 19.5 13.1 19.55 Q13.1 19.4 13.25 19.45 L13.25 19.4 13.5 19.45 13.55 19.2 13.6 19.15 13.65 19.1 13.7 19.1 Q13.85 18.65 14.25 18.45 L14.25 18.4 14.3 18.35 14.45 18.5 14.6 18.5 14.65 18.5 14.85 18.45 15.45 18.4 15.55 18.45 15.6 18.5 15.6 18.4 15.6 17.1 15.6 16.05 15.6 15.85 M15.6 18.55 L15.6 18.6 15.55 18.6 15.35 18.6 15.3 18.7 15.3 18.85 14.95 18.85 14.9 18.85 14.65 18.8 14.25 18.75 13.7 19.5 13.7 19.55 13.65 19.6 13.6 19.65 13.55 19.7 13.5 19.7 11.0 19.65 10.95 20.35 10.95 20.4 15.5 20.35 15.55 20.3 15.6 20.3 15.6 19.65 15.65 19.6 15.65 19.55 15.65 19.35 15.75 18.7 15.75 18.6 15.7 18.6 15.65 18.55 15.6 18.55 M11.05 12.9 L11.05 13.7 11.1 13.7 11.2 13.65 11.25 13.65 12.35 13.1 12.3 13.1 12.3 12.95 11.85 12.7 11.75 12.65 11.65 12.6 11.4 12.5 11.35 12.45 11.2 12.55 11.1 12.55 11.05 12.55 11.05 12.9 M11.05 14.95 L11.05 15.05 11.0 15.65 11.4 15.65 11.85 15.5 12.3 15.1 11.1 14.55 11.05 14.55 11.05 14.75 11.05 14.95 M14.4 21.1 L14.4 21.05 14.5 21.05 14.65 21.15 14.7 20.75 14.5 20.75 14.3 21.1 14.4 21.1" fill="#000000" fill-rule="evenodd" stroke="none"/>
    <path d="M3.15 16.4 L3.1 16.3 3.15 16.2 3.2 16.15 3.9 16.15 3.65 16.7 3.2 16.7 3.2 16.45 3.15 16.4 M4.35 16.15 L4.35 16.2 4.35 16.5 4.3 16.55 4.25 16.65 4.3 16.75 4.3 19.5 4.3 19.55 4.3 19.95 4.2 20.35 3.2 20.35 3.2 20.3 3.2 20.15 3.2 16.95 Q4.15 17.05 4.05 16.15 L4.35 16.15 M15.6 15.85 L15.6 16.05 15.6 17.1 15.6 18.4 15.6 18.5 15.55 18.45 15.45 18.4 14.85 18.45 14.65 18.5 14.6 18.5 14.45 18.5 14.3 18.35 14.25 18.4 14.25 18.45 Q13.85 18.65 13.7 19.1 L13.65 19.1 13.6 19.15 13.55 19.2 13.5 19.45 13.25 19.4 13.25 19.45 Q13.1 19.4 13.1 19.55 L11.1 19.5 11.0 19.55 10.95 18.15 12.7 18.1 12.75 18.1 12.8 17.95 12.75 17.95 12.65 17.9 12.45 17.9 12.55 16.5 12.55 16.45 12.5 16.4 12.4 16.3 12.35 16.35 12.35 16.4 11.85 16.4 11.85 16.35 11.8 16.3 11.75 16.2 11.8 16.2 11.85 16.1 11.85 16.0 11.85 15.9 15.6 15.85" fill="#3c5430" fill-rule="evenodd" stroke="none"/>
    <path d="M27.2 16.8 L27.2 16.7 27.65 16.35 27.85 16.35 27.9 16.55 27.85 16.6 27.85 16.65 28.15 16.9 28.25 16.9 28.35 16.9 30.9 16.95 31.05 16.9 31.15 16.75 31.15 16.7 31.3 16.5 31.4 16.4 31.5 16.4 31.55 16.4 31.6 16.35 31.7 16.45 31.6 19.8 31.5 19.75 31.45 19.7 31.45 19.55 31.4 19.55 31.25 19.4 28.4 19.4 28.25 19.35 28.15 19.35 28.15 19.4 28.1 19.55 28.05 19.55 28.0 19.7 28.0 19.75 27.8 19.8 27.65 19.7 27.2 19.4 27.25 19.35 27.1 18.9 27.05 18.95 27.0 19.0 26.95 18.9 26.9 18.95 26.85 18.95 26.6 18.95 26.25 18.95 18.25 18.9 18.25 18.95 16.0 18.9 16.0 18.7 16.05 18.6 15.95 18.45 15.9 18.35 15.85 18.35 15.85 17.15 26.9 17.1 27.1 17.1 27.1 17.05 27.2 16.9 27.2 16.8 M27.45 17.2 L27.65 17.2 27.75 17.15 27.85 16.95 27.85 16.8 27.8 16.8 27.55 16.7 27.5 16.7 27.25 16.85 27.2 16.95 27.25 17.1 27.15 17.25 27.15 17.35 27.1 17.35 27.05 17.4 26.8 17.4 26.7 17.35 26.7 17.4 26.65 17.4 26.55 17.35 26.5 17.4 26.5 17.35 24.95 17.2 24.8 17.35 24.8 17.4 24.3 17.4 24.05 17.35 24.05 17.4 24.0 17.4 16.05 17.35 16.05 17.4 Q15.95 17.35 15.9 17.45 L15.9 17.5 16.05 17.6 23.95 17.55 24.25 17.65 24.45 17.6 24.45 17.55 25.05 17.55 25.05 17.6 25.25 17.65 25.3 17.6 25.3 17.55 25.5 17.55 25.5 17.65 Q25.6 17.85 25.75 17.65 L25.85 17.75 25.9 17.7 26.05 17.65 26.25 17.65 26.35 17.65 26.4 17.65 26.5 17.65 26.65 17.7 26.85 17.65 27.2 17.65 27.25 17.6 27.4 17.5 27.4 17.4 27.45 17.4 27.45 17.2 M30.9 18.35 L31.25 18.1 31.3 17.95 31.3 17.9 31.35 17.9 31.3 17.85 31.25 17.8 28.85 17.4 28.25 17.55 28.2 17.55 28.15 17.6 28.15 17.65 27.9 17.85 27.8 18.15 27.85 18.15 27.9 18.25 30.55 18.5 29.8 18.7 Q30.55 18.9 31.25 18.35 L31.15 18.25 30.9 18.35 30.7 18.45 30.7 18.35 30.9 18.35 M29.95 17.3 L29.95 17.35 30.05 17.4 31.25 17.35 31.35 17.35 31.4 17.25 31.5 16.85 31.5 16.8 31.4 16.75 31.35 16.8 31.15 17.15 30.6 17.15 30.5 17.0 29.8 17.2 29.95 17.3" fill="#333333" fill-rule="evenodd" stroke="none"/>
    <path d="M27.25 17.1 L27.2 16.95 27.25 16.85 27.5 16.7 27.55 16.7 27.8 16.8 27.85 16.8 27.85 16.95 27.75 17.15 27.65 17.2 27.45 17.2 27.25 17.1 M24.8 17.4 L24.8 17.35 24.95 17.2 26.5 17.35 26.5 17.4 26.55 17.4 26.5 17.5 24.8 17.4 M30.9 18.35 L31.15 18.25 31.25 18.35 Q30.55 18.9 29.8 18.7 L30.55 18.5 30.7 18.45 30.9 18.35 M29.95 17.3 L29.8 17.2 30.5 17.0 30.6 17.15 30.55 17.15 29.95 17.3" fill="#fcfcfc" fill-rule="evenodd" stroke="none"/>
    <path d="M27.45 17.2 L27.45 17.4 27.4 17.4 27.4 17.5 27.25 17.6 27.2 17.65 26.85 17.65 26.65 17.7 26.5 17.65 26.4 17.65 26.35 17.65 26.25 17.65 26.05 17.65 25.9 17.7 25.85 17.75 25.75 17.65 Q25.6 17.85 25.5 17.65 L25.5 17.55 25.3 17.55 25.3 17.6 25.25 17.65 25.05 17.6 25.05 17.55 24.45 17.55 24.45 17.6 24.25 17.65 23.95 17.55 16.05 17.6 15.9 17.5 15.9 17.45 Q15.95 17.35 16.05 17.4 L16.05 17.35 24.0 17.4 24.05 17.4 24.05 17.35 24.3 17.4 24.8 17.4 26.5 17.5 26.55 17.4 26.5 17.4 26.55 17.35 26.65 17.4 26.7 17.4 26.7 17.35 26.8 17.4 27.05 17.4 27.1 17.35 27.15 17.35 27.15 17.25 27.25 17.1 27.45 17.2 M30.6 17.15 L31.15 17.15 31.35 16.8 31.4 16.75 31.5 16.8 31.5 16.85 31.4 17.25 31.35 17.35 31.25 17.35 30.05 17.4 29.95 17.35 29.95 17.3 30.55 17.15 30.6 17.15" fill="#c1c1c1" fill-rule="evenodd" stroke="none"/>
    <path d="M11.0 10.85 L11.0 10.7 11.2 10.7 11.3 10.7 11.85 10.95 Q11.95 11.15 12.2 11.15 L12.2 11.2 11.75 11.65 11.4 11.7 11.35 11.7 11.05 11.7 11.0 11.15 11.2 11.15 11.35 11.1 11.6 11.2 11.7 11.15 11.75 11.1 11.7 11.05 11.3 10.8 11.25 10.85 11.2 10.85 11.0 10.85 M8.35 11.0 L8.4 11.65 8.0 11.65 8.0 10.7 8.35 10.7 8.35 10.8 8.35 10.85 8.2 10.85 8.15 10.85 8.05 10.9 8.05 10.95 8.1 10.95 8.35 11.0 M8.45 12.7 L8.25 12.75 8.45 12.8 8.45 13.6 8.0 13.6 7.95 13.6 8.05 12.5 8.45 12.55 8.45 12.7 M8.45 14.9 L8.45 15.65 7.95 15.65 7.95 15.6 7.9 14.5 8.45 14.55 8.45 14.6 8.35 14.6 8.25 14.65 8.1 14.7 8.05 14.75 8.1 14.85 8.45 14.9 M11.85 12.7 L12.3 12.95 12.3 13.1 12.35 13.1 11.25 13.65 11.2 13.65 11.1 13.7 11.05 13.7 11.05 12.9 11.55 12.8 11.95 12.85 11.85 12.7 M11.1 12.55 L11.2 12.55 11.35 12.45 11.4 12.5 11.65 12.6 11.6 12.6 11.6 12.65 11.55 12.65 11.55 12.7 11.1 12.55 M11.05 14.75 L11.05 14.55 11.1 14.55 12.3 15.1 11.85 15.5 11.4 15.65 11.0 15.65 11.05 15.05 11.05 14.95 11.1 14.95 11.15 14.9 11.25 14.8 11.15 14.75 11.05 14.75 M11.35 14.85 L11.35 14.9 11.8 15.15 11.95 15.15 11.95 15.1 Q11.85 14.75 11.45 14.75 L11.35 14.85" fill="#666666" fill-rule="evenodd" stroke="none"/>
    <path d="M11.0 10.85 L11.2 10.85 11.25 10.85 11.3 10.8 11.7 11.05 11.75 11.1 11.7 11.15 11.6 11.2 11.35 11.1 11.2 11.15 11.0 11.15 11.0 10.85 M8.35 11.0 L8.1 10.95 8.05 10.95 8.05 10.9 8.15 10.85 8.2 10.85 8.35 10.85 8.35 11.0 M8.45 12.7 L8.45 12.8 8.25 12.75 8.45 12.7 M8.45 14.9 L8.1 14.85 8.05 14.75 8.1 14.7 8.25 14.65 8.35 14.6 8.45 14.6 8.45 14.9 M11.85 12.7 L11.95 12.85 11.55 12.8 11.05 12.9 11.05 12.55 11.1 12.55 11.55 12.7 11.55 12.65 11.6 12.65 11.6 12.6 11.65 12.6 11.75 12.65 11.85 12.7 M11.05 14.75 L11.15 14.75 11.25 14.8 11.15 14.9 11.1 14.95 11.05 14.95 11.05 14.75 M11.35 14.85 L11.45 14.75 Q11.85 14.75 11.95 15.1 L11.95 15.15 11.8 15.15 11.35 14.9 11.35 14.85" fill="#e3e3e3" fill-rule="evenodd" stroke="none"/>
    <path d="M10.75 10.5 L10.7 10.7 10.7 10.8 10.7 10.85 10.7 11.15 10.75 11.7 10.75 11.9 10.75 12.25 10.75 12.5 10.8 12.9 10.8 13.6 10.8 13.85 10.8 14.35 10.8 14.55 10.8 14.75 10.8 14.95 10.8 15.65 8.7 15.65 8.7 15.5 8.65 14.9 8.65 14.85 8.65 14.65 8.65 14.55 8.7 14.35 8.7 13.85 8.7 13.6 8.7 12.85 8.7 12.65 8.7 12.55 8.7 12.2 8.7 11.9 8.7 11.65 8.65 11.0 8.65 10.8 8.65 10.7 8.65 10.45 8.65 10.3 10.85 10.25 10.75 10.5 M8.7 21.15 L8.35 20.55 14.3 20.6 14.25 20.75 13.85 21.25 13.85 21.35 13.8 21.65 8.95 21.6 8.95 21.5 8.85 21.4 8.75 21.25 8.7 21.15 M15.6 18.55 L15.65 18.55 15.7 18.6 15.75 18.6 15.75 18.7 15.65 19.35 15.65 19.55 15.65 19.6 15.6 19.65 15.6 20.3 15.55 20.3 15.5 20.35 10.95 20.4 10.95 20.35 11.0 19.65 13.5 19.7 13.55 19.7 13.6 19.65 13.65 19.6 13.7 19.55 13.7 19.5 14.25 18.75 14.65 18.8 14.9 18.85 14.95 18.85 15.3 18.85 15.3 18.7 15.35 18.6 15.55 18.6 15.6 18.6 15.6 18.55" fill="#517212" fill-rule="evenodd" stroke="none"/>
    <path d="M7.55 16.7 L7.55 16.75 7.55 17.3 7.55 17.9 7.45 18.0 7.55 18.15 10.85 18.15 Q10.7 19.25 10.8 20.35 L10.8 20.4 7.15 20.4 7.15 20.15 7.15 20.0 7.15 19.6 7.15 19.4 7.15 17.35 7.15 17.1 7.15 16.7 7.15 16.45 7.1 15.9 7.75 15.9 11.4 15.9 11.45 15.9 11.45 15.95 11.55 16.4 7.85 16.35 7.8 16.3 7.75 16.25 7.75 16.35 7.6 16.4 7.6 16.5 7.7 16.5 7.65 16.7 7.55 16.7" fill="#516123" fill-rule="evenodd" stroke="none"/>
    <path d="M8.2 16.85 L8.3 16.75 8.4 16.75 8.45 16.75 8.5 16.7 8.85 16.7 11.85 16.75 11.95 16.8 11.95 16.85 12.0 16.85 12.05 16.9 12.05 16.95 Q10.05 17.35 8.15 16.95 L8.15 16.9 8.2 16.85" fill="#e7e7e7" fill-rule="evenodd" stroke="none"/>
    <path d="M14.4 21.1 L14.3 21.1 14.5 20.75 14.7 20.75 14.65 21.15 14.5 21.05 14.4 21.05 14.4 21.1" fill="#f9f900" fill-rule="evenodd" stroke="none"/>
  </g>
</svg>
