<?xml version="1.0" encoding="UTF-8" standalone="no"?>
<svg xmlns:xlink="http://www.w3.org/1999/xlink" height="32.3px" width="32.1px" xmlns="http://www.w3.org/2000/svg">
  <g transform="matrix(1.0, 0.0, 0.0, 1.0, -0.6, -0.3)">
    <path d="M29.85 0.7 L29.7 1.1 29.6 1.25 29.05 2.1 28.6 1.8 28.6 1.45 28.85 0.8 Q28.9 0.35 29.3 0.35 L29.4 0.4 Q29.85 0.1 29.85 0.7 M1.25 2.6 Q0.8 2.6 0.7 2.2 L0.7 1.7 Q0.7 1.15 1.45 0.65 2.2 0.2 2.2 0.95 L1.25 2.6 M1.85 29.35 L1.55 29.85 1.0 30.25 Q0.6 30.25 0.6 29.8 0.6 29.5 0.9 29.25 1.3 28.9 1.8 29.1 L1.85 29.35 M29.95 29.35 L29.8 29.95 29.4 30.25 Q28.95 30.25 28.95 29.8 28.95 29.4 29.45 29.0 29.95 28.55 29.95 29.35" fill="#ff6666" fill-rule="evenodd" stroke="none"/>
    <path d="M32.7 3.95 L32.7 4.35 31.45 4.6 Q30.2 4.6 30.2 4.2 30.2 3.9 30.7 3.65 L31.35 2.95 Q31.15 2.6 31.45 2.15 31.8 1.75 32.3 1.95 L32.7 3.95 M4.2 2.5 Q4.2 4.6 2.45 4.6 L2.05 4.55 Q1.95 4.05 2.1 3.9 L1.7 3.5 Q1.7 3.05 3.35 3.05 L3.9 2.1 Q4.2 1.65 4.2 2.5 M3.6 30.35 Q3.7 30.0 4.3 30.1 L4.35 32.05 Q4.25 32.6 3.75 32.6 L1.6 32.45 Q1.45 32.4 1.45 32.15 2.65 30.7 3.6 30.85 L3.6 30.35 M32.25 32.5 L31.25 32.5 30.25 32.5 29.85 32.05 30.05 31.8 31.3 31.25 31.2 30.65 Q31.2 30.25 31.55 29.8 31.95 29.25 32.25 29.95 L32.45 31.75 32.25 32.5" fill="#660000" fill-rule="evenodd" stroke="none"/>
    <path d="M26.25 12.35 L28.15 12.35 28.15 12.25 28.45 12.25 28.5 12.3 28.5 13.05 29.1 13.0 29.7 13.05 29.7 13.1 29.8 13.1 29.85 13.2 29.85 22.75 29.9 22.9 29.85 23.05 29.6 23.1 28.75 23.1 28.5 23.05 28.5 23.9 28.4 23.95 28.35 24.0 9.35 24.0 9.35 24.05 9.1 24.1 9.1 24.0 6.1 24.0 6.1 23.9 6.0 23.9 6.0 22.8 5.4 22.35 4.9 22.05 4.5 21.75 3.75 21.15 3.4 20.85 3.35 20.85 3.25 20.55 3.35 20.55 3.3 15.5 3.15 15.35 3.15 15.2 Q3.15 14.7 3.4 14.65 L3.35 14.6 Q3.35 14.55 3.9 14.15 L4.55 13.75 5.5 13.3 6.05 13.05 6.05 12.85 Q5.9 12.85 5.9 12.6 5.9 12.15 6.3 12.25 L8.65 12.3 8.65 12.2 8.7 12.05 8.65 12.05 8.6 11.9 Q8.6 11.6 8.9 11.65 L26.35 11.65 26.4 11.85 26.35 12.0 26.25 12.0 26.25 12.35 M25.15 14.3 L25.35 14.3 25.35 14.05 25.3 14.0 25.75 13.1 26.0 12.6 25.95 12.35 25.9 12.25 25.95 12.0 25.7 12.0 25.5 11.95 25.2 12.0 9.85 12.0 9.6 11.9 9.2 12.0 9.0 12.0 9.0 12.15 9.0 12.2 8.95 12.45 9.15 12.9 9.35 13.5 9.45 13.9 9.45 14.2 9.5 14.25 9.55 14.25 9.7 14.75 10.05 15.9 10.3 17.0 23.9 17.0 23.9 16.9 25.15 14.3 M29.45 13.35 L28.5 13.35 28.5 22.75 29.55 22.75 29.55 13.65 29.45 13.4 29.45 13.35 M25.2 17.95 L25.25 16.85 25.3 16.85 25.35 16.7 28.15 16.65 28.2 16.75 28.2 12.75 28.15 12.75 28.15 12.65 26.25 12.65 26.25 12.75 25.1 15.0 24.15 17.35 23.9 17.35 23.9 17.3 10.3 17.35 10.25 17.4 10.0 17.4 9.95 17.3 9.9 17.2 9.95 17.15 9.9 16.75 9.75 16.15 9.0 13.65 8.65 12.65 6.3 12.65 6.3 13.0 6.35 13.15 6.3 13.3 6.3 16.5 7.05 16.5 6.95 16.55 8.05 16.55 9.0 16.65 9.05 16.85 9.1 16.9 9.1 17.95 9.05 18.1 9.1 18.25 9.1 19.3 9.45 19.35 9.85 19.55 9.85 18.85 9.7 18.8 9.7 18.55 9.85 18.5 10.05 18.5 24.35 18.5 24.4 18.65 24.35 18.8 24.35 19.15 24.8 19.15 25.15 19.2 25.2 18.25 25.25 18.25 25.25 17.95 25.2 17.95 M26.1 17.6 L25.85 17.6 25.85 17.25 26.1 17.25 26.15 17.45 26.1 17.6 M25.55 17.8 L25.45 17.8 25.45 18.05 25.5 18.15 25.45 19.4 25.4 19.45 25.0 19.55 24.35 19.5 24.35 20.2 24.3 20.25 24.35 20.25 24.4 20.45 24.35 20.6 10.65 20.65 10.5 20.75 10.25 20.65 9.95 20.6 9.95 20.4 9.9 20.4 9.85 20.35 9.85 19.8 9.75 19.8 9.45 19.7 9.0 19.65 8.85 19.65 8.85 19.6 8.8 19.6 8.8 19.35 8.75 18.45 8.75 18.3 8.85 18.3 8.85 18.05 8.8 18.0 8.8 17.1 8.8 17.0 8.2 17.0 7.25 16.9 6.3 16.8 6.3 17.95 6.2 17.95 6.2 18.2 6.3 18.3 6.3 21.25 6.2 21.4 6.25 21.55 6.3 21.55 6.3 22.35 6.25 22.35 6.25 22.6 6.5 22.75 6.45 22.95 6.25 22.95 6.25 23.7 7.1 23.7 7.15 22.0 9.15 22.1 9.2 22.0 9.35 22.1 9.35 23.7 24.4 23.65 24.35 21.95 24.3 21.8 24.45 21.65 27.1 21.65 27.15 21.75 27.2 21.85 27.2 23.65 28.1 23.65 28.2 23.7 28.2 21.5 28.35 21.5 28.35 21.25 28.2 21.15 28.2 18.15 28.35 18.15 28.35 17.9 28.3 17.85 28.2 17.85 28.2 17.0 25.55 17.0 25.55 17.8 M27.75 17.5 L27.6 17.55 Q27.35 17.55 27.4 17.35 27.4 17.05 27.75 17.2 L27.75 17.5 M27.0 17.55 L26.75 17.6 26.7 17.45 Q26.7 17.2 26.95 17.25 L27.0 17.3 27.0 17.55 M24.0 18.8 L10.15 18.85 10.15 20.25 23.95 20.25 23.95 19.8 24.05 19.8 23.95 19.0 24.0 18.8 M24.65 23.65 L26.9 23.65 26.9 22.05 26.7 22.05 24.65 22.0 24.65 23.65 M7.55 17.15 L7.6 17.2 7.6 17.45 7.45 17.5 7.25 17.2 7.55 17.15 M6.85 17.15 L6.9 17.35 6.85 17.5 6.6 17.5 6.6 17.15 6.85 17.15 M8.35 17.55 L8.15 17.55 8.1 17.5 8.1 17.25 8.35 17.25 8.4 17.4 8.35 17.55 M3.6 15.2 L3.6 20.6 6.0 22.4 6.0 22.1 6.05 22.1 6.05 13.5 4.75 14.05 4.15 14.5 3.6 14.75 3.6 14.8 3.5 15.05 3.6 15.2 M7.45 23.7 L9.1 23.7 9.05 23.05 9.1 22.35 7.45 22.4 7.45 23.7" fill="#000000" fill-rule="evenodd" stroke="none"/>
    <path d="M9.55 14.25 L9.5 14.25 9.45 14.2 9.45 13.9 9.35 13.5 9.15 12.9 8.95 12.45 9.0 12.2 9.0 12.15 9.0 12.0 9.2 12.0 9.6 11.9 9.85 12.0 25.2 12.0 25.5 11.95 25.7 12.0 25.95 12.0 25.9 12.25 25.95 12.35 26.0 12.6 25.75 13.1 25.3 14.0 25.35 14.05 25.35 14.3 25.15 14.3 9.9 14.3 9.75 14.15 9.75 14.2 9.55 14.25 M25.1 12.8 L25.2 12.7 25.25 12.55 25.25 12.25 9.85 12.25 9.85 12.3 9.55 12.6 9.6 12.75 9.65 12.8 9.85 12.85 9.85 12.8 25.1 12.8" fill="#778e60" fill-rule="evenodd" stroke="none"/>
    <path d="M29.45 13.35 L29.45 13.4 29.55 13.65 29.55 22.75 28.5 22.75 28.5 13.35 29.45 13.35 M29.25 14.5 L29.25 13.55 29.2 13.5 29.15 13.5 29.1 13.55 29.0 13.6 28.8 13.6 28.8 13.85 28.7 14.5 28.85 16.9 Q29.2 16.9 29.2 16.65 L29.25 14.7 29.25 14.5 M5.85 14.2 L5.8 14.0 5.2 14.25 5.15 14.3 4.95 14.4 Q4.45 14.6 4.2 14.8 L3.95 15.0 3.9 15.15 3.95 15.3 3.9 15.8 Q3.9 16.75 4.15 16.75 L4.35 16.65 5.6 16.65 5.85 14.6 5.9 14.4 5.85 14.2 M3.6 15.2 L3.5 15.05 3.6 14.8 3.6 14.75 4.15 14.5 4.75 14.05 6.05 13.5 6.05 22.1 6.0 22.1 6.0 22.4 3.6 20.6 3.6 15.2" fill="#333333" fill-rule="evenodd" stroke="none"/>
    <path d="M28.8 13.85 L28.8 13.6 29.0 13.6 29.1 13.55 29.15 13.5 29.2 13.5 29.25 13.55 29.25 14.5 29.1 14.55 28.9 14.25 28.8 13.9 28.8 13.85 M5.15 14.3 L5.7 14.15 5.85 14.2 5.9 14.4 5.85 14.6 5.5 14.85 4.95 15.0 4.5 15.25 4.2 15.2 3.95 15.3 3.9 15.15 3.95 15.0 4.2 14.8 Q4.45 14.6 4.95 14.4 L5.15 14.3" fill="#cccccc" fill-rule="evenodd" stroke="none"/>
    <path d="M9.1 17.95 L9.1 16.9 9.05 16.85 9.0 16.65 8.05 16.55 6.95 16.55 7.05 16.5 6.3 16.5 6.3 13.3 6.35 13.15 6.3 13.0 6.3 12.65 8.65 12.65 9.0 13.65 9.75 16.15 9.9 16.75 9.95 17.15 9.9 17.2 9.95 17.3 10.0 17.4 10.25 17.4 10.3 17.35 23.9 17.3 23.9 17.35 24.15 17.35 25.1 15.0 26.25 12.75 26.25 12.65 28.15 12.65 28.15 12.75 28.2 12.75 28.2 16.75 28.15 16.65 25.35 16.7 25.3 16.85 25.25 16.85 25.2 17.95 25.15 17.9 9.1 17.95 M26.1 17.6 L26.15 17.45 26.1 17.25 25.85 17.25 25.85 17.6 26.1 17.6 M25.55 17.8 L25.55 17.0 28.2 17.0 28.2 17.85 25.55 17.8 M6.3 17.95 L6.3 16.8 7.25 16.9 8.2 17.0 8.8 17.0 8.8 17.1 8.8 18.0 6.5 18.0 6.3 17.95 M27.0 17.55 L27.0 17.3 26.95 17.25 Q26.7 17.2 26.7 17.45 L26.75 17.6 27.0 17.55 M27.75 17.5 L27.75 17.2 Q27.4 17.05 27.4 17.35 27.35 17.55 27.6 17.55 L27.75 17.5 M8.35 17.55 L8.4 17.4 8.35 17.25 8.1 17.25 8.1 17.5 8.15 17.55 8.35 17.55 M6.85 17.15 L6.6 17.15 6.6 17.5 6.85 17.5 6.9 17.35 6.85 17.15 M7.55 17.15 L7.25 17.2 7.45 17.5 7.6 17.45 7.6 17.2 7.55 17.15" fill="#5b6938" fill-rule="evenodd" stroke="none"/>
    <path d="M29.25 14.5 L29.25 14.7 29.2 16.65 Q29.2 16.9 28.85 16.9 L28.7 14.5 28.8 13.85 28.8 13.9 28.9 14.25 29.1 14.55 29.25 14.5 M5.85 14.2 L5.7 14.15 5.15 14.3 5.2 14.25 5.8 14.0 5.85 14.2 M3.95 15.3 L4.2 15.2 4.5 15.25 4.95 15.0 5.5 14.85 5.85 14.6 5.6 16.65 4.35 16.65 4.15 16.75 Q3.9 16.75 3.9 15.8 L3.95 15.3" fill="#7b7b7b" fill-rule="evenodd" stroke="none"/>
    <path d="M9.1 17.95 L25.15 17.9 25.2 17.95 25.25 17.95 25.25 18.25 25.2 18.25 25.15 19.2 24.8 19.15 24.35 19.15 24.35 18.8 24.4 18.65 24.35 18.5 10.05 18.5 9.85 18.5 9.7 18.55 9.7 18.8 9.85 18.85 9.85 19.55 9.45 19.35 9.1 19.3 9.1 18.25 9.05 18.1 9.1 17.95 M8.8 18.0 L8.85 18.05 8.85 18.3 8.75 18.3 8.75 18.45 8.8 19.35 8.8 19.6 8.85 19.6 8.85 19.65 9.0 19.65 9.45 19.7 9.75 19.8 9.85 19.8 9.85 20.35 9.9 20.4 9.95 20.4 9.95 20.6 10.25 20.65 10.5 20.75 10.65 20.65 24.35 20.6 24.4 20.45 24.35 20.25 24.3 20.25 24.35 20.2 24.35 19.5 25.0 19.55 25.4 19.45 25.45 19.4 25.5 18.15 25.45 18.05 25.45 17.8 25.55 17.8 28.2 17.85 28.3 17.85 28.35 17.9 28.35 18.15 28.2 18.15 28.2 21.15 17.35 21.15 6.4 21.2 6.3 21.25 6.3 18.3 6.2 18.2 6.2 17.95 6.3 17.95 6.5 18.0 8.8 18.0" fill="#434e29" fill-rule="evenodd" stroke="none"/>
    <path d="M25.1 12.8 L9.85 12.8 9.85 12.85 9.65 12.8 9.6 12.75 9.55 12.6 9.85 12.3 9.85 12.25 25.25 12.25 25.25 12.55 25.2 12.7 25.1 12.8" fill="#c9d2bd" fill-rule="evenodd" stroke="none"/>
    <path d="M25.15 14.3 L23.9 16.9 23.9 17.0 10.3 17.0 10.05 15.9 9.7 14.75 9.55 14.25 9.75 14.2 9.75 14.15 9.9 14.3 25.15 14.3" fill="#3e4d33" fill-rule="evenodd" stroke="none"/>
    <path d="M24.0 18.8 L23.95 19.0 24.05 19.8 23.95 19.8 23.95 20.25 10.15 20.25 10.15 18.85 24.0 18.8" fill="#a9a801" fill-rule="evenodd" stroke="none"/>
    <path d="M28.2 21.15 L28.35 21.25 28.35 21.5 28.2 21.5 28.2 23.7 28.1 23.65 27.2 23.65 27.2 21.85 27.15 21.75 27.1 21.65 24.45 21.65 24.3 21.8 24.35 21.95 24.4 23.65 9.35 23.7 9.35 22.1 9.2 22.0 9.15 22.1 7.15 22.0 7.1 23.7 6.25 23.7 6.25 22.95 6.45 22.95 6.5 22.75 6.25 22.6 6.25 22.35 6.3 22.35 6.3 21.55 6.25 21.55 6.2 21.4 6.3 21.25 6.4 21.2 17.35 21.15 28.2 21.15" fill="#272d17" fill-rule="evenodd" stroke="none"/>
    <path d="M24.65 23.65 L24.65 22.0 26.7 22.05 26.9 22.05 26.9 23.65 24.65 23.65 M7.45 23.7 L7.45 22.4 9.1 22.35 9.05 23.05 9.1 23.7 7.45 23.7" fill="#1a1a1a" fill-rule="evenodd" stroke="none"/>
  </g>
</svg>
