<?xml version="1.0" encoding="UTF-8" standalone="no"?>
<svg xmlns:xlink="http://www.w3.org/1999/xlink" height="71.7px" width="68.2px" xmlns="http://www.w3.org/2000/svg">
  <g transform="matrix(1.0, 0.0, 0.0, 1.0, 8.2, 25.7)">
    <path d="M54.7 -12.7 L54.9 -12.8 55.0 -12.5 55.2 -11.8 55.5 -12.45 55.45 -12.55 55.45 -12.65 55.65 -12.8 55.7 -12.75 55.9 -13.1 55.9 -13.0 55.8 -12.65 56.3 -12.2 56.7 -11.8 57.2 -11.65 57.4 -12.1 57.4 -11.7 56.55 -8.9 56.55 -8.8 56.5 -8.8 56.45 -8.5 56.7 -8.3 Q56.95 -8.15 57.4 -8.3 L57.4 -8.15 57.35 -8.1 57.4 -8.05 57.4 -7.45 57.0 -7.75 57.15 -8.0 Q57.0 -7.9 56.7 -8.1 L56.3 -8.55 56.05 -8.45 55.65 -8.2 55.35 -8.1 55.2 -8.0 54.95 -7.75 55.05 -7.65 54.95 -7.55 54.85 -7.6 54.85 -7.35 54.7 -6.3 54.6 -4.45 54.3 -2.9 55.05 -2.2 Q55.55 -1.85 55.95 -1.95 L56.8 -3.5 57.4 -4.95 57.4 -4.5 56.8 -3.4 56.1 -2.0 56.25 -2.15 56.3 -1.9 56.15 -1.75 55.95 -1.65 56.3 0.05 56.6 1.4 56.65 1.3 56.7 1.35 57.25 1.0 57.4 0.85 57.4 1.05 57.15 1.35 56.7 1.6 56.7 1.7 56.1 5.1 55.5 8.25 55.4 8.0 55.35 8.55 55.1 10.15 55.05 11.25 55.45 10.3 56.15 9.15 56.15 9.0 56.75 7.15 57.4 5.45 57.4 5.8 56.3 8.85 57.4 9.95 57.4 10.3 56.8 9.9 Q56.3 9.7 56.2 9.3 L55.0 11.5 54.95 11.8 57.0 14.45 57.0 14.4 57.15 14.45 57.35 13.9 57.4 13.8 57.4 14.4 57.2 14.7 57.2 14.9 57.2 15.6 57.15 17.6 57.2 19.1 57.15 20.35 57.15 20.45 57.4 20.25 57.4 20.7 56.95 20.8 55.95 22.3 Q56.0 22.95 56.35 23.5 L56.7 24.1 57.15 24.15 57.4 24.35 57.4 24.85 57.0 24.6 56.8 24.45 56.25 26.35 55.65 28.15 56.7 29.0 57.4 29.6 57.4 29.9 56.35 29.1 55.7 28.5 55.65 28.5 54.55 27.7 53.6 31.0 53.45 31.0 53.65 30.3 54.45 27.6 54.4 27.5 53.8 26.75 53.75 27.05 53.7 26.95 53.7 26.8 53.75 26.7 53.7 26.75 52.45 26.9 Q51.85 26.9 51.6 26.7 L51.6 33.9 51.8 33.5 51.8 34.1 51.6 34.25 51.65 34.3 51.6 34.5 51.6 35.5 51.55 35.6 51.5 35.65 51.5 34.6 51.4 34.5 51.15 34.45 50.9 34.8 50.8 35.0 50.8 36.05 50.75 36.05 50.75 35.05 50.65 35.1 50.65 34.85 49.85 35.05 49.5 37.95 49.25 40.0 49.05 40.0 49.4 37.75 49.75 35.4 49.7 35.45 49.5 35.55 47.7 37.55 45.85 39.75 45.95 40.0 45.75 40.0 45.7 39.85 45.0 39.1 44.9 39.0 44.9 38.55 45.65 39.55 45.65 39.4 45.8 39.6 Q46.15 38.9 47.55 37.4 L49.45 35.45 49.4 35.45 49.2 35.25 49.2 35.15 49.4 35.1 Q48.3 33.55 47.75 31.8 L46.65 33.95 46.6 34.0 45.95 35.4 44.9 37.45 44.9 37.15 45.6 35.75 46.65 33.6 46.05 32.5 45.5 31.3 45.3 31.65 44.9 32.4 44.9 31.9 45.15 31.4 Q45.4 30.95 45.6 30.85 L45.95 29.8 46.35 28.1 45.35 27.8 44.9 28.25 44.9 27.8 45.1 27.75 45.15 27.6 Q45.05 27.1 45.1 26.45 L45.1 24.9 45.05 22.95 45.1 22.25 45.05 22.1 45.1 22.0 44.9 21.95 44.9 21.4 45.2 21.7 45.25 21.5 45.25 21.55 47.35 16.4 47.3 16.15 46.1 15.4 45.5 16.75 44.9 17.85 44.9 17.5 45.95 15.1 44.9 13.35 44.9 13.0 45.55 13.95 46.15 15.05 46.15 15.2 46.85 15.5 47.3 15.95 47.2 14.95 46.95 13.6 46.9 13.15 46.8 13.5 Q46.5 12.85 46.15 11.1 L45.6 8.45 45.6 8.35 45.15 8.6 44.9 8.6 44.9 8.4 45.05 8.4 Q45.4 8.35 45.6 8.1 L45.6 8.05 45.65 8.05 45.65 7.95 45.7 8.0 46.0 6.25 46.3 4.2 46.15 4.3 46.05 4.3 46.05 4.0 46.15 4.0 46.2 4.0 45.45 3.5 44.9 3.05 44.9 2.6 45.5 3.35 Q46.15 3.6 46.35 3.9 L47.3 2.5 47.95 0.95 Q47.75 0.7 47.75 -0.3 L47.65 -2.05 47.5 -2.9 47.45 -3.1 47.35 -2.95 47.25 -2.95 47.35 -3.15 47.1 -3.1 46.95 -3.0 46.65 -2.75 46.25 -2.5 46.0 -2.35 46.0 -2.3 45.65 -1.4 45.15 -0.75 45.3 -0.65 44.9 0.1 44.9 -0.5 45.0 -0.65 44.9 -0.6 44.9 -0.75 45.65 -1.6 45.85 -2.1 45.8 -2.35 45.75 -2.3 45.75 -2.4 44.9 -4.15 44.9 -4.55 45.05 -4.3 45.6 -5.05 46.05 -6.0 46.5 -7.0 46.4 -7.25 46.45 -7.35 46.6 -7.25 46.7 -7.4 46.85 -7.45 46.85 -7.35 46.8 -7.2 47.1 -6.9 47.3 -7.85 47.45 -8.3 47.55 -8.4 47.45 -7.85 47.2 -6.85 47.3 -6.8 Q47.9 -6.45 48.3 -6.4 L48.25 -6.65 48.3 -6.75 48.45 -6.55 48.55 -6.75 48.55 -6.4 Q49.3 -5.5 49.6 -5.65 L49.85 -6.0 49.8 -6.15 49.9 -6.2 49.9 -6.3 49.8 -6.75 49.9 -6.8 49.8 -7.7 49.7 -8.95 49.7 -9.7 49.8 -9.15 50.0 -6.45 50.4 -5.0 50.45 -4.8 50.7 -4.25 50.85 -3.7 51.1 -3.95 51.15 -4.0 51.2 -4.0 51.45 -4.05 51.6 -4.8 51.8 -5.6 51.9 -5.9 52.35 -7.85 52.5 -10.8 52.6 -11.45 52.6 -10.7 52.5 -9.35 52.45 -8.35 52.45 -7.85 52.45 -7.75 52.45 -7.6 52.7 -7.55 Q53.05 -7.75 53.8 -9.55 L53.7 -9.85 53.85 -9.8 54.0 -10.2 54.05 -10.15 54.0 -9.85 55.05 -11.5 55.1 -11.65 54.85 -12.3 54.7 -12.7 M46.0 -2.3 L45.9 -2.3 45.95 -2.25 46.0 -2.3 M47.35 16.4 L46.3 19.3 45.25 21.85 45.3 24.6 45.25 27.55 46.35 27.85 46.35 27.75 46.45 27.7 47.55 25.9 47.55 25.85 47.6 25.9 48.15 24.85 49.35 22.8 49.4 20.7 49.3 15.65 49.05 15.9 Q47.7 16.75 47.35 16.4 M54.95 11.8 Q54.65 12.55 53.25 13.35 L53.0 13.4 52.9 18.55 52.95 20.65 54.15 21.2 54.7 21.6 55.85 22.0 55.9 21.95 55.95 22.05 57.0 20.45 57.0 17.5 57.0 14.75 55.95 13.45 54.95 11.8 M46.55 -6.75 L46.15 -5.95 45.75 -5.05 45.4 -4.35 45.35 -4.35 45.25 -4.3 45.1 -4.2 45.85 -2.6 46.55 -2.95 46.95 -3.1 47.45 -3.5 47.55 -3.75 47.5 -3.75 48.05 -5.55 48.3 -6.2 Q47.85 -5.9 47.2 -6.2 L46.55 -6.75 M49.7 -5.5 L48.85 -5.55 48.45 -6.0 47.6 -3.75 47.7 -3.75 47.6 -3.4 47.9 -0.2 47.95 0.4 48.15 0.65 48.15 0.6 48.2 0.65 48.85 0.8 49.1 1.0 50.0 -0.9 50.6 -2.4 50.45 -2.85 50.45 -2.9 50.7 -2.8 50.75 -2.8 50.75 -3.2 50.7 -3.75 50.65 -4.05 50.6 -4.05 50.45 -4.35 50.35 -4.6 49.9 -5.75 49.7 -5.5 M57.2 -11.5 L57.1 -11.45 56.95 -11.35 56.9 -11.35 56.55 -11.6 56.15 -12.0 55.7 -12.25 55.1 -11.0 Q54.5 -9.95 54.0 -9.65 L54.25 -9.3 54.85 -8.2 54.75 -8.1 54.85 -7.95 55.35 -8.2 55.75 -8.55 56.45 -9.0 57.2 -11.5 M52.65 -7.3 L52.4 -7.3 51.95 -5.55 51.8 -5.15 51.7 -4.7 51.65 -4.7 51.6 -4.3 51.55 -3.65 51.6 -3.35 51.85 -3.75 51.85 -3.7 51.7 -3.05 52.3 -2.25 Q52.85 -1.65 53.25 -1.55 L53.45 -2.0 54.1 -2.95 54.3 -3.45 54.4 -4.15 54.7 -7.7 54.6 -7.9 54.7 -8.05 53.85 -9.25 53.45 -8.35 52.65 -7.3 M51.45 -4.0 L51.35 -3.95 51.4 -3.8 51.45 -4.0 M50.95 -3.7 L50.85 -3.65 50.85 -3.5 50.95 -3.7 M50.85 -3.45 L50.85 -3.25 50.75 -2.35 51.15 -1.3 51.6 -2.9 51.4 -3.55 51.4 -3.75 51.25 -3.65 51.15 -3.65 51.0 -3.5 50.85 -3.45 M50.65 -2.2 L50.15 -0.9 49.1 1.15 49.2 2.2 49.1 4.35 49.1 4.55 Q49.2 5.15 49.4 5.35 L49.4 5.4 50.6 3.55 50.7 3.4 51.15 2.75 51.6 2.85 51.7 2.9 52.9 3.3 52.9 3.25 53.2 2.1 53.25 1.8 53.1 -0.15 53.2 -1.3 Q52.85 -1.25 52.15 -2.1 L51.6 -2.8 51.6 -2.7 51.15 -0.95 50.7 -2.15 50.65 -2.2 M53.9 -2.2 Q53.2 -1.55 53.2 -0.2 L53.25 1.0 53.3 1.5 53.4 1.35 53.45 1.4 53.35 1.85 53.4 2.0 53.35 2.2 53.3 2.25 53.3 2.3 53.05 3.2 53.15 3.3 53.25 3.25 53.2 3.35 53.8 3.9 53.85 3.65 53.9 3.85 53.9 4.05 Q54.2 4.2 54.55 4.5 L54.65 4.4 54.65 4.55 55.85 2.85 56.55 1.65 56.2 0.3 Q55.85 -1.1 55.85 -1.55 L55.85 -1.65 Q55.35 -1.55 54.8 -2.05 L54.2 -2.6 53.9 -2.2 M51.55 3.35 L51.6 3.3 51.55 3.3 51.4 3.2 51.15 3.1 50.9 3.5 50.75 3.75 50.75 3.8 50.65 4.1 50.7 4.15 51.15 5.25 51.6 3.6 51.65 3.5 51.55 3.35 M51.6 4.0 L51.15 5.6 50.7 4.55 50.55 4.15 49.3 5.75 48.6 7.35 49.05 8.45 49.65 9.75 50.55 8.05 50.7 7.7 51.15 6.85 51.6 7.15 51.75 7.3 52.65 7.95 53.25 5.9 53.7 4.25 53.05 3.5 51.8 3.4 51.6 4.0 M54.65 4.75 L55.05 5.95 55.5 7.35 55.45 7.6 55.55 7.85 56.55 1.95 54.65 4.75 M55.3 7.15 L54.9 6.25 54.5 4.75 53.85 4.35 53.3 6.15 52.85 7.6 52.9 7.6 53.05 12.5 53.0 13.15 53.4 13.0 54.7 11.95 54.9 11.45 55.15 9.35 55.35 7.8 55.25 7.4 55.3 7.2 55.35 7.3 55.3 7.15 M51.15 7.45 L50.85 7.95 50.7 8.2 49.7 9.85 49.7 10.15 49.6 9.95 49.5 10.1 49.4 14.7 49.4 15.4 49.4 15.55 49.5 22.6 49.6 22.4 49.6 22.5 49.5 22.8 50.2 22.9 50.25 22.9 50.25 22.95 50.7 22.95 51.0 23.05 51.15 22.65 51.25 22.9 51.6 22.4 52.0 21.9 52.05 21.8 52.15 21.75 52.85 20.75 52.7 20.65 52.7 20.5 52.85 20.55 52.9 13.45 52.85 13.3 52.9 13.2 52.9 12.55 52.8 8.1 52.7 8.05 52.65 8.35 52.6 8.2 52.65 8.05 51.6 7.65 51.45 7.6 51.15 7.45 M54.9 11.85 L54.9 11.75 54.85 11.85 54.9 11.85 M52.75 7.9 L52.8 7.9 52.8 7.85 52.75 7.9 M48.4 1.1 L48.1 1.1 47.5 2.35 46.45 4.05 46.45 4.15 46.1 6.4 45.75 8.15 46.5 8.5 47.7 8.75 47.7 8.6 47.75 8.6 48.4 7.35 48.35 7.2 48.45 6.9 48.5 7.1 49.1 5.85 49.05 5.8 49.15 5.7 49.2 5.5 49.0 4.9 49.0 4.85 48.95 4.85 48.95 4.7 48.95 4.5 48.9 4.15 48.9 4.1 49.0 4.15 49.0 3.6 49.1 2.3 Q49.1 0.95 48.4 1.1 M40.7 3.25 L40.7 3.75 39.3 6.85 39.3 7.0 39.25 7.0 39.1 7.35 39.5 7.8 Q39.95 8.3 40.7 8.45 L40.7 8.6 40.55 8.6 40.7 8.75 40.7 9.6 40.65 9.55 Q40.2 9.35 40.05 8.8 L40.25 8.6 Q40.0 8.6 39.5 8.05 L38.9 7.1 39.0 7.2 39.05 7.1 38.9 7.1 38.5 7.15 37.9 7.1 37.4 6.95 37.15 6.95 36.75 7.15 36.9 7.35 36.75 7.4 36.65 7.25 36.6 7.6 36.35 8.85 36.2 11.3 Q36.2 12.65 35.75 13.25 L36.9 14.7 Q37.75 15.65 38.4 15.85 L39.7 14.45 40.7 12.9 40.7 13.55 39.75 14.6 38.55 15.85 38.6 15.85 38.85 15.75 38.9 16.1 38.7 16.25 38.4 16.25 38.4 16.3 38.9 18.75 39.4 20.85 39.45 20.8 39.5 20.85 39.55 20.85 39.55 20.9 40.4 20.85 40.7 20.8 40.7 21.1 Q40.4 21.1 40.25 21.3 L39.55 21.3 39.55 21.45 Q39.1 22.7 38.6 25.5 L37.65 29.3 37.5 28.9 37.4 29.55 37.05 31.5 36.9 32.95 37.6 32.0 38.7 31.05 38.7 30.9 Q38.7 30.6 39.65 28.8 L40.7 27.0 40.7 27.5 38.95 30.8 Q39.35 31.6 40.7 33.1 L40.7 33.6 39.7 32.65 Q38.9 31.85 38.75 31.25 L36.85 33.25 36.75 33.6 40.05 38.95 40.05 38.85 40.25 39.1 40.6 38.45 40.7 38.35 40.7 39.15 40.35 39.4 40.35 39.55 40.35 39.75 40.35 40.0 40.05 40.0 40.05 39.3 38.4 36.75 Q37.3 35.0 36.75 33.6 36.25 34.35 34.1 34.35 L33.7 34.25 33.6 40.0 33.45 40.0 33.5 34.15 33.45 34.0 33.5 33.85 33.55 33.0 33.4 26.85 33.25 26.75 33.1 27.0 33.0 26.85 33.1 26.65 31.45 25.25 31.25 25.05 30.75 24.6 30.25 25.05 30.05 25.25 28.4 26.65 28.45 26.85 28.4 27.0 28.3 26.75 28.15 26.85 27.95 33.0 27.95 33.85 28.0 34.0 27.95 34.15 28.05 40.0 27.95 40.0 27.85 34.25 27.4 34.35 Q25.25 34.35 24.75 33.6 L24.65 33.25 22.75 31.25 21.8 32.65 20.85 33.6 20.85 33.1 Q22.2 31.6 22.55 30.8 L20.85 27.5 20.85 27.0 21.85 28.8 22.8 30.9 22.8 31.05 23.9 32.0 24.6 32.95 24.5 31.5 24.15 29.55 24.0 28.9 23.85 29.3 Q23.35 28.1 22.85 25.5 L21.9 21.45 21.9 21.3 21.25 21.3 20.85 21.1 20.85 20.8 21.05 20.85 21.9 20.9 21.9 20.85 22.0 20.85 22.05 20.8 22.1 20.85 22.6 18.75 23.1 16.3 23.1 16.25 22.8 16.25 22.65 16.1 22.7 15.75 22.85 15.85 22.9 15.85 21.75 14.6 20.85 13.55 20.85 12.9 21.8 14.45 23.15 15.85 24.6 14.7 25.7 13.25 Q25.35 12.65 25.35 11.3 L25.15 8.85 24.95 7.6 24.85 7.25 24.75 7.4 24.6 7.35 24.7 7.15 Q24.6 6.95 24.35 6.95 L24.1 6.95 23.65 7.1 23.0 7.15 22.6 7.1 22.45 7.1 22.5 7.2 22.6 7.1 22.0 8.05 21.25 8.6 21.45 8.8 Q21.35 9.35 20.9 9.55 L20.85 9.6 20.85 8.75 20.95 8.6 20.85 8.6 20.85 8.45 Q21.5 8.3 22.0 7.8 L22.35 7.35 22.3 7.0 22.2 7.0 22.2 6.85 20.85 3.75 20.85 3.25 21.1 3.7 21.9 3.1 22.65 2.2 23.35 1.25 23.2 0.8 23.25 0.65 23.55 0.95 23.65 0.8 23.9 0.85 23.95 1.05 23.85 1.25 24.35 1.8 24.65 0.7 24.85 0.2 25.05 0.2 24.9 0.85 24.5 1.95 24.6 2.1 26.25 3.5 26.15 3.15 26.2 3.05 26.45 3.45 26.65 3.25 26.6 3.7 Q27.8 5.5 28.3 5.5 28.6 5.5 28.7 5.3 L28.65 5.05 28.75 5.05 28.75 4.95 28.65 4.3 28.75 4.3 28.65 3.0 28.45 1.25 28.45 0.2 28.65 1.05 28.9 4.8 29.55 7.15 29.7 7.45 30.05 8.4 30.3 9.3 30.65 9.15 30.75 9.1 30.8 9.15 31.2 9.3 31.45 8.4 31.8 7.45 31.95 7.15 32.6 4.8 Q32.6 3.3 32.9 1.05 L33.0 0.2 33.05 0.2 33.0 1.25 32.9 3.0 32.8 4.3 32.85 4.3 32.8 4.95 32.8 5.05 32.85 5.05 32.8 5.3 Q32.95 5.5 33.25 5.5 33.75 5.5 34.9 3.7 L34.8 3.25 35.05 3.45 35.25 3.05 35.3 3.15 35.25 3.5 36.9 2.1 37.0 1.95 36.6 0.85 36.4 0.2 36.65 0.2 36.85 0.7 37.15 1.8 37.65 1.25 37.6 1.05 37.6 0.85 37.85 0.8 37.95 0.95 38.25 0.65 38.25 0.8 38.1 1.25 38.9 2.2 39.55 3.1 40.35 3.7 40.7 3.25 M21.4 40.0 L21.15 40.0 21.15 39.75 21.1 39.55 21.2 39.4 20.85 39.15 20.85 38.35 20.9 38.45 21.3 39.1 21.4 38.85 21.4 38.95 24.75 33.6 23.1 36.75 21.4 39.3 21.4 40.0 M48.45 7.6 L47.85 8.8 47.4 10.8 47.0 12.2 47.1 12.35 46.95 12.85 47.15 14.2 47.4 16.0 47.6 16.25 48.9 15.75 49.3 15.4 49.3 14.75 49.4 9.7 49.0 8.8 48.45 7.6 M45.75 8.45 L46.7 13.2 46.85 12.8 46.8 12.6 47.25 10.65 47.65 8.95 45.75 8.45 M49.5 9.85 L49.5 9.9 49.55 9.85 49.5 9.85 M47.5 16.3 L47.45 16.25 47.45 16.35 47.5 16.3 M49.35 23.2 L49.35 23.1 48.4 24.7 47.7 25.95 47.8 26.0 47.7 26.35 48.5 29.5 48.55 29.25 48.55 29.6 Q50.25 28.0 50.7 27.05 L50.7 27.0 50.6 26.9 50.6 26.85 50.65 26.9 50.45 25.4 50.25 24.0 50.25 23.9 50.15 23.3 49.45 23.1 49.35 23.2 M50.35 23.5 L50.6 25.25 50.7 26.15 50.75 26.8 50.8 26.65 50.85 26.75 50.85 26.9 50.95 26.95 51.15 26.9 51.15 27.1 51.2 26.85 51.35 26.7 51.4 26.6 51.45 26.55 51.45 26.4 51.5 26.25 51.55 26.35 51.6 25.6 51.7 24.6 51.95 22.55 52.0 22.3 51.6 22.75 51.35 23.0 51.3 23.1 51.25 23.1 51.15 23.0 51.05 23.2 51.05 23.25 51.0 23.3 50.95 23.25 50.7 23.3 50.35 23.3 50.35 23.5 M52.95 20.9 L52.95 21.0 52.85 21.05 52.15 22.1 52.05 22.8 52.05 22.9 51.85 24.55 51.6 26.3 51.7 26.2 51.7 26.25 51.6 26.45 51.6 26.5 53.75 26.45 53.7 26.15 53.8 26.3 54.65 22.15 54.5 21.95 54.6 21.8 53.9 21.4 52.95 20.9 M55.5 28.15 L55.5 28.0 55.55 28.1 56.2 26.25 56.7 24.45 56.5 24.25 56.15 23.7 Q55.75 23.0 55.75 22.55 L55.7 22.45 55.75 22.35 55.8 22.1 55.75 22.2 54.75 21.9 53.9 26.4 55.45 28.25 55.5 28.25 55.5 28.15 M51.35 26.95 L51.25 27.1 51.2 27.05 51.15 27.1 51.05 27.15 51.0 27.25 50.95 27.2 50.8 27.3 50.8 34.55 50.85 34.5 51.15 34.05 51.45 34.15 51.5 34.15 51.5 26.9 51.35 26.95 M50.7 27.25 L49.85 28.5 48.55 29.85 48.55 29.9 48.6 30.05 48.55 30.2 48.5 29.95 47.95 31.4 47.85 31.6 48.65 33.35 49.5 34.95 Q49.65 34.45 49.9 34.45 L49.95 34.2 49.95 34.4 50.25 34.25 50.7 34.45 50.75 34.45 50.75 27.25 50.7 27.25 M46.85 33.45 L48.4 29.7 47.5 26.3 46.55 27.75 46.5 27.75 46.5 27.95 46.6 27.95 46.55 28.15 46.5 28.15 46.15 29.75 45.85 30.7 45.6 31.2 46.1 32.35 46.7 33.45 46.8 33.25 46.8 33.4 46.8 33.5 46.85 33.45 M49.8 35.0 L49.55 35.05 49.8 35.15 49.8 35.0 M49.55 35.05 L49.55 35.0 49.5 35.05 49.55 35.05 M50.3 40.0 L50.0 40.0 50.7 39.65 50.8 39.6 51.15 38.7 51.5 39.2 51.6 39.1 51.8 38.95 51.8 39.1 51.55 39.25 51.6 39.3 51.5 39.5 51.45 39.4 51.45 40.0 51.4 40.0 51.4 39.35 51.2 39.45 51.4 39.3 51.15 39.05 50.95 39.55 51.1 39.5 50.95 39.6 50.95 40.0 50.85 40.0 50.85 39.75 50.8 39.9 50.75 39.85 50.75 39.7 50.3 40.0 M38.65 2.35 L38.0 1.6 37.0 2.85 Q36.05 3.75 35.25 3.75 L35.7 4.45 36.6 6.4 36.45 6.5 36.6 6.75 37.4 6.85 38.05 6.7 39.1 6.65 Q39.45 5.5 40.35 3.85 L40.15 3.85 39.9 3.85 39.35 3.25 38.65 2.35 M34.4 5.05 L33.1 5.8 32.75 5.65 32.0 7.65 31.8 8.05 31.6 8.55 31.55 8.6 31.45 9.05 31.35 9.85 31.45 10.4 31.45 10.35 31.85 10.05 31.9 10.1 31.6 10.8 32.55 12.4 34.05 14.2 34.4 13.7 35.4 12.95 35.45 12.85 35.45 12.9 35.75 12.5 35.9 11.55 36.4 6.95 36.2 6.6 36.4 6.45 Q35.35 5.15 35.0 4.2 L34.4 5.05 M31.15 9.5 L31.2 9.35 31.1 9.4 31.15 9.5 M31.15 9.6 L30.95 9.65 30.75 9.55 30.55 9.65 30.3 9.6 30.3 9.9 30.1 10.95 30.75 12.75 31.45 10.95 Q31.15 10.3 31.15 9.9 L31.15 9.6 M33.5 20.35 L33.95 19.05 34.05 18.7 33.85 15.9 33.95 14.45 Q33.4 14.25 32.3 12.5 L31.5 11.1 31.45 11.25 30.75 13.2 30.05 11.25 30.0 11.1 29.2 12.5 Q28.05 14.25 27.5 14.45 L27.65 15.9 27.45 18.7 27.5 19.05 Q27.65 19.9 27.95 20.35 L27.95 20.4 29.9 18.9 30.05 18.75 30.75 18.2 31.45 18.75 31.6 18.9 33.5 20.4 33.55 20.4 33.5 20.35 M26.45 4.2 Q26.15 5.15 25.1 6.45 L25.3 6.6 25.1 6.95 25.55 11.55 25.7 12.5 26.0 12.9 26.0 12.85 26.05 12.95 27.1 13.7 27.45 14.2 28.95 12.4 29.9 10.8 29.65 10.1 29.65 10.05 30.05 10.35 30.1 10.4 30.15 9.85 30.05 9.05 29.95 8.6 29.9 8.55 29.7 8.05 29.5 7.65 Q28.95 6.6 28.75 5.65 L28.4 5.8 Q27.85 5.8 27.1 5.05 L26.45 4.2 M26.25 3.75 Q25.5 3.75 24.5 2.85 23.85 2.3 23.5 1.6 L22.85 2.35 22.2 3.25 21.6 3.85 21.55 3.85 21.35 3.85 21.2 3.85 Q22.05 5.5 22.35 6.65 L23.45 6.7 24.1 6.85 24.9 6.75 25.05 6.5 24.95 6.4 Q25.15 5.65 25.85 4.45 L26.25 3.75 M30.3 9.5 L30.45 9.4 30.3 9.35 30.3 9.5 M25.9 13.5 L25.0 14.7 Q24.05 15.85 23.3 16.15 L23.3 16.3 22.75 19.05 22.2 21.15 23.35 22.2 Q24.6 23.4 25.25 23.5 L25.25 23.35 25.35 23.4 26.4 22.2 26.35 22.05 26.45 21.7 26.55 21.95 27.45 20.75 27.4 20.7 27.55 20.65 27.7 20.4 Q27.45 20.1 27.35 19.4 L27.35 19.3 27.3 19.3 27.25 19.05 27.3 18.8 27.15 18.3 27.15 18.2 27.35 18.35 27.4 17.65 27.45 15.9 Q27.45 14.1 26.45 13.75 L25.9 13.5 M22.2 21.55 L23.7 28.8 23.9 28.35 23.85 28.05 Q23.85 27.6 24.6 25.75 L25.2 23.8 22.2 21.55 M30.15 19.4 L29.95 19.65 30.05 19.75 30.75 21.65 31.45 19.75 31.55 19.65 31.35 19.4 31.45 19.4 31.35 19.3 31.1 19.05 30.75 18.7 30.35 19.05 30.15 19.3 30.1 19.4 30.15 19.4 M29.75 19.65 Q28.45 20.7 27.8 20.8 L26.7 22.4 27.4 24.25 28.35 26.5 29.8 24.9 30.05 24.6 30.75 23.8 31.45 24.6 31.7 24.9 33.1 26.5 34.1 24.25 34.8 22.4 33.75 20.8 Q33.05 20.7 31.75 19.65 L31.45 20.35 30.75 22.1 30.05 20.35 29.75 19.65 M25.5 23.75 L24.8 26.05 24.15 27.7 24.3 27.9 24.15 28.55 24.4 30.5 24.8 33.15 25.1 33.65 27.15 34.0 27.85 33.9 27.8 33.0 27.95 26.2 28.0 26.2 27.35 24.7 26.45 22.65 25.5 23.75 M36.55 14.7 L35.6 13.5 35.1 13.75 Q34.0 14.1 34.0 15.9 L34.1 17.65 34.2 18.35 34.35 18.2 34.35 18.3 34.25 18.8 34.3 19.05 34.25 19.3 34.15 19.3 34.15 19.4 33.8 20.4 33.9 20.65 34.1 20.7 34.0 20.75 34.9 21.95 35.0 21.7 35.15 22.05 35.1 22.2 36.15 23.4 36.25 23.35 36.25 23.5 38.15 22.2 39.3 21.15 38.75 19.05 Q38.2 16.85 38.2 16.3 L38.2 16.15 36.55 14.7 M37.35 27.7 L36.7 26.05 Q36.05 24.35 36.05 23.75 L35.0 22.65 34.2 24.7 33.45 26.2 33.5 26.2 33.75 33.0 33.7 33.9 34.35 34.0 36.4 33.65 36.7 33.15 37.1 30.5 37.4 28.55 37.2 27.9 37.3 27.65 37.4 27.85 37.35 27.7 M39.3 21.55 Q37.0 23.55 36.25 23.8 L36.9 25.75 37.6 28.05 37.6 28.35 37.75 28.8 39.3 21.55 M11.65 0.2 L11.85 0.7 12.15 1.8 12.65 1.25 12.6 1.05 12.6 0.85 12.85 0.8 12.95 0.95 13.25 0.65 13.25 0.8 13.1 1.25 13.9 2.2 14.55 3.1 15.35 3.7 15.7 3.25 15.7 3.75 14.3 6.85 14.3 7.0 14.25 7.0 14.1 7.35 14.5 7.8 Q14.95 8.3 15.7 8.45 L15.7 8.6 15.55 8.6 15.7 8.75 15.7 9.6 15.65 9.55 Q15.2 9.35 15.05 8.8 L15.25 8.6 Q15.0 8.6 14.5 8.05 L13.9 7.1 13.5 7.15 12.9 7.1 12.4 6.95 12.15 6.95 11.75 7.15 11.9 7.35 11.75 7.4 11.65 7.25 11.6 7.6 11.35 8.85 11.2 11.3 Q11.2 12.65 10.75 13.25 L11.9 14.7 Q12.75 15.65 13.4 15.85 L14.7 14.45 15.7 12.9 15.7 13.55 14.75 14.6 13.55 15.85 13.6 15.85 13.85 15.75 13.9 16.1 13.7 16.25 13.4 16.25 13.4 16.3 13.9 18.75 14.4 20.85 14.45 20.8 14.5 20.85 14.55 20.85 14.55 20.9 15.4 20.85 15.7 20.8 15.7 21.1 Q15.4 21.1 15.25 21.3 L14.55 21.3 14.55 21.45 Q14.1 22.7 13.6 25.5 L12.65 29.3 12.5 28.9 12.4 29.55 12.05 31.5 11.9 32.95 12.6 32.0 Q13.3 31.25 13.7 31.05 L13.7 30.9 Q13.7 30.6 14.65 28.8 L15.7 27.0 15.7 27.5 13.95 30.8 Q14.35 31.6 15.7 33.1 L15.7 33.6 14.7 32.65 Q13.9 31.85 13.75 31.25 L11.85 33.25 11.75 33.6 Q11.25 34.35 9.1 34.35 L8.7 34.25 8.6 40.0 8.45 40.0 8.5 34.15 8.45 34.0 8.5 33.85 8.55 33.0 8.4 26.85 8.25 26.75 8.1 27.0 8.0 26.85 8.1 26.65 6.45 25.25 6.25 25.05 5.75 24.6 5.25 25.05 5.05 25.25 3.4 26.65 3.45 26.85 3.4 27.0 3.3 26.75 3.15 26.85 2.95 33.0 2.95 33.85 3.0 34.0 2.95 34.15 3.05 40.0 2.95 40.0 2.85 34.25 2.4 34.35 Q0.25 34.35 -0.25 33.6 L-0.35 33.25 -2.25 31.25 Q-2.4 31.85 -3.2 32.65 L-4.15 33.6 -4.15 33.1 -2.45 30.8 -4.15 27.5 -4.15 27.0 -3.15 28.8 Q-2.2 30.6 -2.2 30.9 L-2.2 31.05 Q-1.8 31.25 -1.1 32.0 L-0.4 32.95 -0.5 31.5 -0.85 29.55 -1.0 28.9 -1.15 29.3 Q-1.65 28.1 -2.15 25.5 -2.65 22.7 -3.1 21.45 L-3.1 21.3 -3.75 21.3 -4.15 21.1 -4.15 20.8 -3.95 20.85 -3.1 20.9 -3.1 20.85 -3.0 20.85 -2.95 20.8 -2.9 20.85 -2.4 18.75 -1.9 16.3 -1.9 16.25 -2.2 16.25 -2.35 16.1 -2.3 15.75 -2.15 15.85 -2.1 15.85 -3.25 14.6 -4.15 13.55 -4.15 12.9 -3.2 14.45 -1.85 15.85 -0.4 14.7 0.7 13.25 Q0.35 12.65 0.35 11.3 L0.15 8.85 -0.05 7.6 -0.15 7.25 -0.25 7.4 -0.4 7.35 -0.3 7.15 Q-0.4 6.95 -0.65 6.95 L-0.9 6.95 -1.35 7.1 -2.0 7.15 -2.4 7.1 -3.0 8.05 -3.75 8.6 -3.55 8.8 Q-3.65 9.35 -4.1 9.55 L-4.15 9.6 -4.15 8.75 -4.05 8.6 -4.15 8.6 -4.15 8.45 Q-3.5 8.3 -3.0 7.8 L-2.65 7.35 -2.7 7.0 -2.8 7.0 -2.8 6.85 -4.15 3.75 -4.15 3.25 -3.9 3.7 -3.1 3.1 -2.35 2.2 -1.65 1.25 -1.8 0.8 -1.75 0.65 -1.45 0.95 -1.35 0.8 -1.1 0.85 -1.05 1.05 -1.15 1.25 -0.65 1.8 -0.35 0.7 -0.15 0.2 0.05 0.2 -0.1 0.85 -0.5 1.95 -0.4 2.1 1.25 3.5 1.15 3.15 1.2 3.05 1.45 3.45 1.65 3.25 1.6 3.7 Q2.8 5.5 3.3 5.5 3.6 5.5 3.7 5.3 L3.65 5.05 3.75 5.05 3.75 4.95 3.65 4.3 3.75 4.3 3.65 3.0 3.45 1.25 3.45 0.2 3.65 1.05 3.9 4.8 4.55 7.15 4.7 7.45 5.05 8.4 5.3 9.3 5.65 9.15 5.75 9.1 5.8 9.15 6.2 9.3 6.45 8.4 6.8 7.45 6.95 7.15 7.6 4.8 Q7.6 3.3 7.9 1.05 L8.0 0.2 8.05 0.2 8.0 1.25 7.9 3.0 7.8 4.3 7.85 4.3 7.8 4.95 7.8 5.05 7.85 5.05 7.8 5.3 Q7.95 5.5 8.25 5.5 8.75 5.5 9.9 3.7 L9.8 3.25 10.05 3.45 10.25 3.05 10.3 3.15 10.25 3.5 11.9 2.1 12.0 1.95 11.6 0.85 11.4 0.2 11.65 0.2 M-2.4 7.1 L-2.55 7.1 -2.5 7.2 -2.4 7.1 M13.9 7.1 L14.0 7.2 14.05 7.1 13.9 7.1 M11.4 6.95 L11.2 6.6 11.4 6.45 Q10.35 5.15 10.0 4.2 L9.4 5.05 Q8.65 5.8 8.1 5.8 L7.75 5.65 7.0 7.65 6.8 8.05 6.6 8.55 6.55 8.6 6.45 9.05 6.35 9.85 6.45 10.4 6.45 10.35 6.85 10.05 6.9 10.1 6.6 10.8 7.55 12.4 9.05 14.2 9.4 13.7 10.4 12.95 10.45 12.85 10.45 12.9 10.75 12.5 10.9 11.55 11.4 6.95 M13.65 2.35 L13.0 1.6 12.0 2.85 Q11.05 3.75 10.25 3.75 L10.7 4.45 11.6 6.4 11.45 6.5 11.6 6.75 12.4 6.85 13.05 6.7 14.1 6.65 Q14.45 5.5 15.35 3.85 L15.15 3.85 14.9 3.85 14.35 3.25 13.65 2.35 M1.25 3.75 Q0.5 3.75 -0.5 2.85 L-1.5 1.6 -2.15 2.35 -2.8 3.25 -3.4 3.85 -3.45 3.85 -3.65 3.85 -3.8 3.85 Q-2.95 5.5 -2.65 6.65 L-1.55 6.7 -0.9 6.85 -0.1 6.75 0.05 6.5 -0.05 6.4 Q0.15 5.65 0.85 4.45 L1.25 3.75 M1.45 4.2 Q1.15 5.15 0.1 6.45 L0.3 6.6 0.1 6.95 0.55 11.55 0.7 12.5 1.0 12.9 1.0 12.85 1.05 12.95 2.1 13.7 2.45 14.2 3.95 12.4 4.9 10.8 4.65 10.1 4.65 10.05 Q4.95 10.15 5.05 10.35 L5.1 10.4 5.15 9.85 5.05 9.05 4.95 8.6 4.9 8.55 4.7 8.05 4.5 7.65 Q3.95 6.6 3.75 5.65 L3.4 5.8 Q2.85 5.8 2.1 5.05 L1.45 4.2 M8.5 20.35 L8.95 19.05 9.05 18.7 8.85 15.9 8.95 14.45 Q8.4 14.25 7.3 12.5 L6.5 11.1 6.45 11.25 5.75 13.2 5.05 11.25 5.0 11.1 4.2 12.5 Q3.05 14.25 2.5 14.45 L2.65 15.9 2.45 18.7 2.5 19.05 Q2.65 19.9 2.95 20.35 L2.95 20.4 4.9 18.9 5.05 18.75 5.75 18.2 6.45 18.75 6.6 18.9 8.5 20.4 8.55 20.4 8.5 20.35 M5.75 9.55 L5.55 9.65 5.3 9.6 5.3 9.9 5.1 10.95 5.75 12.75 6.45 10.95 6.15 9.9 6.15 9.6 5.95 9.65 5.75 9.55 M6.2 9.35 L6.1 9.4 6.15 9.5 6.2 9.35 M5.3 9.35 L5.3 9.5 5.45 9.4 5.3 9.35 M9.35 18.2 L9.35 18.3 9.25 18.8 9.3 19.05 9.25 19.3 9.15 19.3 9.15 19.4 8.8 20.4 8.9 20.65 9.1 20.7 9.0 20.75 9.9 21.95 10.0 21.7 10.15 22.05 10.1 22.2 11.15 23.4 11.25 23.35 11.25 23.5 13.15 22.2 14.3 21.15 13.75 19.05 Q13.2 16.85 13.2 16.3 L13.2 16.15 11.55 14.7 10.6 13.5 10.1 13.75 Q9.0 14.1 9.0 15.9 L9.1 17.65 9.2 18.35 9.35 18.2 M0.9 13.5 L0.0 14.7 -1.7 16.15 -1.7 16.3 Q-1.7 16.85 -2.25 19.05 L-2.8 21.15 -1.65 22.2 0.25 23.5 0.25 23.35 0.35 23.4 1.4 22.2 1.35 22.05 1.45 21.7 1.55 21.95 2.45 20.75 2.4 20.7 2.55 20.65 2.7 20.4 Q2.45 20.1 2.35 19.4 L2.35 19.3 2.3 19.3 2.25 19.05 2.3 18.8 2.15 18.3 2.15 18.2 2.35 18.35 2.4 17.65 2.45 15.9 Q2.45 14.1 1.45 13.75 L0.9 13.5 M4.75 19.65 Q3.45 20.7 2.8 20.8 L1.7 22.4 2.4 24.25 3.35 26.5 4.8 24.9 5.05 24.6 5.75 23.8 6.45 24.6 6.7 24.9 8.1 26.5 9.1 24.25 9.8 22.4 8.75 20.8 Q8.05 20.7 6.75 19.65 L6.45 20.35 5.75 22.1 5.05 20.35 4.75 19.65 M5.15 19.4 L4.95 19.65 5.05 19.75 5.75 21.65 6.45 19.75 6.55 19.65 6.35 19.4 6.45 19.4 6.35 19.3 6.1 19.05 5.75 18.7 5.35 19.05 5.15 19.3 5.1 19.4 5.15 19.4 M1.45 22.65 L0.5 23.75 -0.2 26.05 -0.85 27.7 -0.7 27.9 -0.85 28.55 -0.6 30.5 -0.2 33.15 0.1 33.65 2.15 34.0 2.85 33.9 2.8 33.0 2.95 26.2 3.0 26.2 2.35 24.7 1.45 22.65 M12.35 27.7 L11.7 26.05 Q11.05 24.35 11.05 23.75 L10.0 22.65 9.2 24.7 8.45 26.2 8.5 26.2 8.75 33.0 8.7 33.9 9.35 34.0 11.4 33.65 11.7 33.15 12.1 30.5 12.4 28.55 12.2 27.9 12.3 27.65 12.4 27.85 12.35 27.7 M14.3 21.55 Q12.0 23.55 11.25 23.8 L11.9 25.75 12.6 28.05 12.6 28.35 12.75 28.8 14.3 21.55 M11.65 33.5 L11.6 33.65 11.65 33.6 11.65 33.5 M15.05 40.0 L15.05 39.3 13.4 36.75 Q12.3 35.0 11.75 33.6 L15.05 38.95 15.05 38.85 15.25 39.1 15.6 38.45 15.7 38.35 15.7 39.15 15.35 39.4 15.35 39.55 15.35 39.75 15.35 40.0 15.05 40.0 M8.3 26.55 L8.35 26.55 8.35 26.5 8.3 26.55 M3.2 26.55 L3.15 26.5 3.15 26.55 3.2 26.55 M33.3 26.55 L33.35 26.55 33.35 26.5 33.3 26.55 M36.6 33.65 L36.65 33.6 36.65 33.5 36.6 33.65 M28.15 26.5 L28.15 26.55 28.2 26.55 28.15 26.5 M24.85 33.5 L24.85 33.6 24.95 33.65 24.85 33.5 M-1.15 28.05 L-0.4 25.75 0.2 23.8 -2.8 21.55 -1.3 28.8 -1.1 28.35 -1.15 28.05 M-0.05 33.65 L-0.15 33.5 -0.15 33.6 -0.05 33.65 M-0.25 33.6 L-1.9 36.75 -3.6 39.3 -3.6 40.0 -3.85 40.0 -3.85 39.75 -3.9 39.55 -3.8 39.4 -4.15 39.15 -4.15 38.35 -4.1 38.45 -3.7 39.1 -3.6 38.85 -3.6 38.95 -0.25 33.6" fill="#000000" fill-rule="evenodd" stroke="none"/>
    <path d="M54.7 -12.7 L54.85 -12.3 55.1 -11.65 55.05 -11.5 54.0 -9.85 54.05 -10.15 54.0 -10.2 53.85 -9.8 53.7 -9.85 53.8 -9.55 Q53.05 -7.75 52.7 -7.55 L52.45 -7.6 52.45 -7.75 52.45 -7.85 52.45 -8.35 52.5 -9.35 52.6 -10.7 52.6 -11.45 54.7 -12.7 M49.7 -9.7 L49.7 -8.95 49.8 -7.7 49.9 -6.8 49.8 -6.75 49.9 -6.3 49.9 -6.2 49.8 -6.15 49.85 -6.0 49.6 -5.65 Q49.3 -5.5 48.55 -6.4 L48.55 -6.75 48.45 -6.55 48.3 -6.75 48.25 -6.65 48.3 -6.4 Q47.9 -6.45 47.3 -6.8 L47.2 -6.85 47.45 -7.85 47.55 -8.4 49.7 -9.7 M44.9 0.1 L45.3 -0.65 45.15 -0.75 45.65 -1.4 46.0 -2.3 46.0 -2.35 46.25 -2.5 46.65 -2.75 46.95 -3.0 47.1 -3.1 47.35 -3.15 47.25 -2.95 47.35 -2.95 47.45 -3.1 47.5 -2.9 47.65 -2.05 47.75 -0.3 Q47.75 0.7 47.95 0.95 L47.3 2.5 46.35 3.9 Q46.15 3.6 45.5 3.35 L44.9 2.6 44.9 0.1 M44.9 8.6 L45.15 8.6 45.6 8.35 45.6 8.45 46.15 11.1 Q46.5 12.85 46.8 13.5 L46.9 13.15 46.95 13.6 47.2 14.95 47.3 15.95 46.85 15.5 46.15 15.2 46.15 15.05 45.55 13.95 44.9 13.0 44.9 8.6 M47.35 16.4 Q47.7 16.75 49.05 15.9 L49.3 15.65 49.4 20.7 49.35 22.8 48.15 24.85 47.6 25.9 47.55 25.85 47.55 25.9 46.45 27.7 46.35 27.75 46.35 27.85 45.25 27.55 45.3 24.6 45.25 21.85 46.3 19.3 47.35 16.4 M45.95 40.0 L45.85 39.75 47.7 37.55 49.5 35.55 49.7 35.45 49.75 35.4 49.4 37.75 49.05 40.0 45.95 40.0 M51.8 33.5 L51.6 33.9 51.6 26.7 Q51.85 26.9 52.45 26.9 L53.7 26.75 53.7 26.8 53.7 26.95 53.75 27.05 53.8 26.75 54.4 27.5 54.45 27.6 53.65 30.3 53.45 31.0 51.8 31.0 51.8 33.5 M54.95 11.8 L55.95 13.45 57.0 14.75 57.0 17.5 57.0 20.45 55.95 22.05 55.9 21.95 55.85 22.0 54.7 21.6 54.15 21.2 52.95 20.65 52.9 18.55 53.0 13.4 53.25 13.35 Q54.65 12.55 54.95 11.8 M57.4 5.45 L56.75 7.15 56.15 9.0 56.15 9.15 55.45 10.3 55.05 11.25 55.1 10.15 55.35 8.55 55.4 8.0 55.5 8.25 56.1 5.1 56.7 1.7 56.7 1.6 57.15 1.35 57.4 1.05 57.4 5.45 M57.4 -4.95 L56.8 -3.5 55.95 -1.95 Q55.55 -1.85 55.05 -2.2 L54.3 -2.9 54.6 -4.45 54.7 -6.3 54.85 -7.35 54.85 -7.6 54.95 -7.55 55.05 -7.65 54.95 -7.75 55.2 -8.0 55.35 -8.1 55.65 -8.2 56.05 -8.45 56.3 -8.55 56.7 -8.1 Q57.0 -7.9 57.15 -8.0 L57.0 -7.75 57.4 -7.45 57.4 -4.95 M50.65 -2.2 L50.7 -2.15 51.15 -0.95 51.6 -2.7 51.6 -2.8 52.15 -2.1 Q52.85 -1.25 53.2 -1.3 L53.1 -0.15 53.25 1.8 53.2 2.1 52.9 3.25 52.9 3.3 51.7 2.9 51.6 2.85 51.15 2.75 50.7 3.4 50.6 3.55 49.4 5.4 49.4 5.35 Q49.2 5.15 49.1 4.55 L49.1 4.35 49.2 2.2 49.1 1.15 50.15 -0.9 50.65 -2.2 M51.6 4.0 L51.8 3.4 53.05 3.5 53.7 4.25 53.25 5.9 52.65 7.95 51.75 7.3 51.6 7.15 51.15 6.85 50.7 7.7 50.55 8.05 49.65 9.75 49.05 8.45 48.6 7.35 49.3 5.75 50.55 4.15 50.7 4.55 51.15 5.6 51.6 4.0 M40.7 9.6 L40.7 12.9 39.7 14.45 38.4 15.85 Q37.75 15.65 36.9 14.7 L35.75 13.25 Q36.2 12.65 36.2 11.3 L36.35 8.85 36.6 7.6 36.65 7.25 36.75 7.4 36.9 7.35 36.75 7.15 37.15 6.95 37.4 6.95 37.9 7.1 38.5 7.15 38.9 7.1 39.5 8.05 Q40.0 8.6 40.25 8.6 L40.05 8.8 Q40.2 9.35 40.65 9.55 L40.7 9.6 M40.7 21.1 L40.7 27.0 39.65 28.8 Q38.7 30.6 38.7 30.9 L38.7 31.05 37.6 32.0 36.9 32.95 37.05 31.5 37.4 29.55 37.5 28.9 37.65 29.3 38.6 25.5 Q39.1 22.7 39.55 21.45 L39.55 21.3 40.25 21.3 Q40.4 21.1 40.7 21.1 M40.05 40.0 L33.6 40.0 33.7 34.25 34.1 34.35 Q36.25 34.35 36.75 33.6 37.3 35.0 38.4 36.75 L40.05 39.3 40.05 40.0 M27.95 40.0 L21.4 40.0 21.4 39.3 23.1 36.75 24.75 33.6 Q25.25 34.35 27.4 34.35 L27.85 34.25 27.95 40.0 M20.85 27.0 L20.85 21.1 21.25 21.3 21.9 21.3 21.9 21.45 22.85 25.5 Q23.35 28.1 23.85 29.3 L24.0 28.9 24.15 29.55 24.5 31.5 24.6 32.95 23.9 32.0 22.8 31.05 22.8 30.9 21.85 28.8 20.85 27.0 M20.85 12.9 L20.85 9.6 20.9 9.55 Q21.35 9.35 21.45 8.8 L21.25 8.6 22.0 8.05 22.6 7.1 23.0 7.15 23.65 7.1 24.1 6.95 24.35 6.95 Q24.6 6.95 24.7 7.15 L24.6 7.35 24.75 7.4 24.85 7.25 24.95 7.6 25.15 8.85 25.35 11.3 Q25.35 12.65 25.7 13.25 L24.6 14.7 23.15 15.85 21.8 14.45 20.85 12.9 M25.05 0.2 L28.45 0.2 28.45 1.25 28.65 3.0 28.75 4.3 28.65 4.3 28.75 4.95 28.75 5.05 28.65 5.05 28.7 5.3 Q28.6 5.5 28.3 5.5 27.8 5.5 26.6 3.7 L26.65 3.25 26.45 3.45 26.2 3.05 26.15 3.15 26.25 3.5 24.6 2.1 24.5 1.95 24.9 0.85 25.05 0.2 M33.05 0.2 L36.4 0.2 36.6 0.85 37.0 1.95 36.9 2.1 35.25 3.5 35.3 3.15 35.25 3.05 35.05 3.45 34.8 3.25 34.9 3.7 Q33.75 5.5 33.25 5.5 32.95 5.5 32.8 5.3 L32.85 5.05 32.8 5.05 32.8 4.95 32.85 4.3 32.8 4.3 32.9 3.0 33.0 1.25 33.05 0.2 M50.7 27.25 L50.75 27.25 50.75 34.45 50.7 34.45 50.25 34.25 49.95 34.4 49.95 34.2 49.9 34.45 Q49.65 34.45 49.5 34.95 L48.65 33.35 47.85 31.6 47.95 31.4 48.5 29.95 48.55 30.2 48.6 30.05 48.55 29.9 48.55 29.85 49.85 28.5 50.7 27.25 M50.95 40.0 L50.95 39.6 51.1 39.5 50.95 39.55 51.15 39.05 51.4 39.3 51.2 39.45 51.4 39.35 51.4 40.0 50.95 40.0 M33.5 20.4 L31.6 18.9 31.45 18.75 30.75 18.2 30.05 18.75 29.9 18.9 27.95 20.4 27.95 20.35 Q27.65 19.9 27.5 19.05 L27.45 18.7 27.65 15.9 27.5 14.45 Q28.05 14.25 29.2 12.5 L30.0 11.1 30.05 11.25 30.75 13.2 31.45 11.25 31.5 11.1 32.3 12.5 Q33.4 14.25 33.95 14.45 L33.85 15.9 34.05 18.7 33.95 19.05 33.5 20.35 33.5 20.4 M29.75 19.65 L30.05 20.35 30.75 22.1 31.45 20.35 31.75 19.65 Q33.05 20.7 33.75 20.8 L34.8 22.4 34.1 24.25 33.1 26.5 31.7 24.9 31.45 24.6 30.75 23.8 30.05 24.6 29.8 24.9 28.35 26.5 27.4 24.25 26.7 22.4 27.8 20.8 Q28.45 20.7 29.75 19.65 M11.4 0.2 L11.6 0.85 12.0 1.95 11.9 2.1 10.25 3.5 10.3 3.15 10.25 3.05 10.05 3.45 9.8 3.25 9.9 3.7 Q8.75 5.5 8.25 5.5 7.95 5.5 7.8 5.3 L7.85 5.05 7.8 5.05 7.8 4.95 7.85 4.3 7.8 4.3 7.9 3.0 8.0 1.25 8.05 0.2 11.4 0.2 M3.45 0.2 L3.45 1.25 3.65 3.0 3.75 4.3 3.65 4.3 3.75 4.95 3.75 5.05 3.65 5.05 3.7 5.3 Q3.6 5.5 3.3 5.5 2.8 5.5 1.6 3.7 L1.65 3.25 1.45 3.45 1.2 3.05 1.15 3.15 1.25 3.5 -0.4 2.1 -0.5 1.95 -0.1 0.85 0.05 0.2 3.45 0.2 M-4.15 9.6 L-4.1 9.55 Q-3.65 9.35 -3.55 8.8 L-3.75 8.6 -3.0 8.05 -2.4 7.1 -2.0 7.15 -1.35 7.1 -0.9 6.95 -0.65 6.95 Q-0.4 6.95 -0.3 7.15 L-0.4 7.35 -0.25 7.4 -0.15 7.25 -0.05 7.6 0.15 8.85 0.35 11.3 Q0.35 12.65 0.7 13.25 L-0.4 14.7 -1.85 15.85 -3.2 14.45 -4.15 12.9 -4.15 9.6 M-4.15 21.1 L-3.75 21.3 -3.1 21.3 -3.1 21.45 Q-2.65 22.7 -2.15 25.5 -1.65 28.1 -1.15 29.3 L-1.0 28.9 -0.85 29.55 -0.5 31.5 -0.4 32.95 -1.1 32.0 Q-1.8 31.25 -2.2 31.05 L-2.2 30.9 Q-2.2 30.6 -3.15 28.8 L-4.15 27.0 -4.15 21.1 M-0.25 33.6 Q0.25 34.35 2.4 34.35 L2.85 34.25 2.95 40.0 -3.6 40.0 -3.6 39.3 -1.9 36.75 -0.25 33.6 M8.6 40.0 L8.7 34.25 9.1 34.35 Q11.25 34.35 11.75 33.6 12.3 35.0 13.4 36.75 L15.05 39.3 15.05 40.0 8.6 40.0 M15.7 27.0 L14.65 28.8 Q13.7 30.6 13.7 30.9 L13.7 31.05 Q13.3 31.25 12.6 32.0 L11.9 32.95 12.05 31.5 12.4 29.55 12.5 28.9 12.65 29.3 13.6 25.5 Q14.1 22.7 14.55 21.45 L14.55 21.3 15.25 21.3 Q15.4 21.1 15.7 21.1 L15.7 27.0 M15.7 12.9 L14.7 14.45 13.4 15.85 Q12.75 15.65 11.9 14.7 L10.75 13.25 Q11.2 12.65 11.2 11.3 L11.35 8.85 11.6 7.6 11.65 7.25 11.75 7.4 11.9 7.35 11.75 7.15 12.15 6.95 12.4 6.95 12.9 7.1 13.5 7.15 13.9 7.1 14.5 8.05 Q15.0 8.6 15.25 8.6 L15.05 8.8 Q15.2 9.35 15.65 9.55 L15.7 9.6 15.7 12.9 M8.5 20.4 L6.6 18.9 6.45 18.75 5.75 18.2 5.05 18.75 4.9 18.9 2.95 20.4 2.95 20.35 Q2.65 19.9 2.5 19.05 L2.45 18.7 2.65 15.9 2.5 14.45 Q3.05 14.25 4.2 12.5 L5.0 11.1 5.05 11.25 5.75 13.2 6.45 11.25 6.5 11.1 7.3 12.5 Q8.4 14.25 8.95 14.45 L8.85 15.9 9.05 18.7 8.95 19.05 8.5 20.35 8.5 20.4 M4.75 19.65 L5.05 20.35 5.75 22.1 6.45 20.35 6.75 19.65 Q8.05 20.7 8.75 20.8 L9.8 22.4 9.1 24.25 8.1 26.5 6.7 24.9 6.45 24.6 5.75 23.8 5.05 24.6 4.8 24.9 3.35 26.5 2.4 24.25 1.7 22.4 2.8 20.8 Q3.45 20.7 4.75 19.65" fill="#f7f700" fill-rule="evenodd" stroke="none"/>
    <path d="M47.45 -8.3 L47.3 -7.85 47.1 -6.9 46.8 -7.2 46.85 -7.35 46.85 -7.45 46.7 -7.4 46.6 -7.25 46.45 -7.35 46.4 -7.25 46.5 -7.0 46.05 -6.0 45.6 -5.05 45.05 -4.3 44.9 -4.55 44.9 -6.8 47.45 -8.3 M44.9 3.05 L45.45 3.5 46.2 4.0 46.15 4.0 46.05 4.0 46.05 4.3 46.15 4.3 46.3 4.2 46.0 6.25 45.7 8.0 45.65 7.95 45.65 8.05 45.6 8.05 45.6 8.1 Q45.4 8.35 45.05 8.4 L44.9 8.4 44.9 3.05 M44.9 28.25 L45.35 27.8 46.35 28.1 45.95 29.8 45.6 30.85 Q45.4 30.95 45.15 31.4 L44.9 31.9 44.9 28.25 M44.9 37.45 L45.95 35.4 46.6 34.0 46.65 33.95 47.75 31.8 Q48.3 33.55 49.4 35.1 L49.2 35.15 49.2 35.25 49.4 35.45 49.45 35.45 47.55 37.4 Q46.15 38.9 45.8 39.6 L45.65 39.4 45.65 39.55 44.9 38.55 44.9 37.45 M53.6 31.0 L54.55 27.7 55.65 28.5 55.7 28.5 56.35 29.1 57.4 29.9 57.4 31.0 53.6 31.0 M57.4 24.35 L57.15 24.15 56.7 24.1 56.35 23.5 Q56.0 22.95 55.95 22.3 L56.95 20.8 57.4 20.7 57.4 24.35 M57.4 0.85 L57.25 1.0 56.7 1.35 56.65 1.3 56.6 1.4 56.3 0.05 55.95 -1.65 56.15 -1.75 56.3 -1.9 56.25 -2.15 56.1 -2.0 56.8 -3.4 57.4 -4.5 57.4 0.85 M57.4 -12.1 L57.2 -11.65 56.7 -11.8 56.3 -12.2 55.8 -12.65 55.9 -13.0 55.9 -13.1 55.7 -12.75 55.65 -12.8 55.45 -12.65 55.45 -12.55 55.5 -12.45 55.2 -11.8 55.0 -12.5 54.9 -12.8 57.4 -14.35 57.4 -12.1 M50.85 -3.45 L51.0 -3.5 51.15 -3.65 51.25 -3.65 51.4 -3.75 51.4 -3.55 51.6 -2.9 51.15 -1.3 50.75 -2.35 50.85 -3.25 50.85 -3.45 M55.3 7.2 L55.25 7.4 55.35 7.8 55.15 9.35 54.9 11.45 54.7 11.95 53.4 13.0 53.0 13.15 53.05 12.5 52.9 7.6 52.85 7.6 53.3 6.15 53.85 4.35 54.5 4.75 54.9 6.25 55.3 7.15 55.3 7.2 M40.7 13.55 L40.7 20.8 40.4 20.85 39.55 20.9 39.55 20.85 39.5 20.85 39.45 20.8 39.4 20.85 38.9 18.75 38.4 16.3 38.4 16.25 38.7 16.25 38.9 16.1 38.85 15.75 38.6 15.85 38.55 15.85 39.75 14.6 40.7 13.55 M20.85 20.8 L20.85 13.55 21.75 14.6 22.9 15.85 22.85 15.85 22.7 15.75 22.65 16.1 22.8 16.25 23.1 16.25 23.1 16.3 22.6 18.75 22.1 20.85 22.05 20.8 22.0 20.85 21.9 20.85 21.9 20.9 21.05 20.85 20.85 20.8 M20.85 3.25 L20.85 0.2 24.85 0.2 24.65 0.7 24.35 1.8 23.85 1.25 23.95 1.05 23.9 0.85 23.65 0.8 23.55 0.95 23.25 0.65 23.2 0.8 23.35 1.25 22.65 2.2 21.9 3.1 21.1 3.7 20.85 3.25 M36.65 0.2 L40.7 0.2 40.7 3.25 40.35 3.7 39.55 3.1 38.9 2.2 38.1 1.25 38.25 0.8 38.25 0.65 37.95 0.95 37.85 0.8 37.6 0.85 37.6 1.05 37.65 1.25 37.15 1.8 36.85 0.7 36.65 0.2 M48.45 7.6 L49.0 8.8 49.4 9.7 49.3 14.75 49.3 15.4 48.9 15.75 47.6 16.25 47.4 16.0 47.15 14.2 46.95 12.85 47.1 12.35 47.0 12.2 47.4 10.8 47.85 8.8 48.45 7.6 M49.35 23.2 L49.45 23.1 50.15 23.3 50.25 23.9 50.25 24.0 50.45 25.4 50.65 26.9 50.6 26.85 50.6 26.9 50.7 27.0 50.7 27.05 Q50.25 28.0 48.55 29.6 L48.55 29.25 48.5 29.5 47.7 26.35 47.8 26.0 47.7 25.95 48.4 24.7 49.35 23.1 49.35 23.2 M52.95 20.9 L53.9 21.4 54.6 21.8 54.5 21.95 54.65 22.15 53.8 26.3 53.7 26.15 53.75 26.45 51.6 26.5 51.6 26.45 51.7 26.25 51.7 26.2 51.6 26.3 51.85 24.55 52.05 22.9 52.05 22.8 52.15 22.1 52.85 21.05 52.95 21.0 52.95 20.9 M51.35 26.95 L51.5 26.9 51.5 34.15 51.45 34.15 51.15 34.05 50.85 34.5 50.8 34.55 50.8 27.3 50.95 27.2 51.0 27.25 51.05 27.15 51.15 27.1 51.2 27.05 51.25 27.1 51.35 26.95 M50.3 40.0 L50.75 39.7 50.75 39.85 50.8 39.9 50.85 39.75 50.85 40.0 50.3 40.0 M51.45 40.0 L51.45 39.4 51.5 39.5 51.6 39.3 51.55 39.25 51.8 39.1 51.8 40.0 51.45 40.0 M31.15 9.6 L31.15 9.9 Q31.15 10.3 31.45 10.95 L30.75 12.75 30.1 10.95 30.3 9.9 30.3 9.6 30.55 9.65 30.75 9.55 30.95 9.65 31.15 9.6 M25.5 23.75 L26.45 22.65 27.35 24.7 28.0 26.2 27.95 26.2 27.8 33.0 27.85 33.9 27.15 34.0 25.1 33.65 24.8 33.15 24.4 30.5 24.15 28.55 24.3 27.9 24.15 27.7 24.8 26.05 25.5 23.75 M37.3 27.65 L37.2 27.9 37.4 28.55 37.1 30.5 36.7 33.15 36.4 33.65 34.35 34.0 33.7 33.9 33.75 33.0 33.5 26.2 33.45 26.2 34.2 24.7 35.0 22.65 36.05 23.75 Q36.05 24.35 36.7 26.05 L37.35 27.7 37.3 27.65 M15.7 3.25 L15.35 3.7 14.55 3.1 13.9 2.2 13.1 1.25 13.25 0.8 13.25 0.65 12.95 0.95 12.85 0.8 12.6 0.85 12.6 1.05 12.65 1.25 12.15 1.8 11.85 0.7 11.65 0.2 15.7 0.2 15.7 3.25 M-0.15 0.2 L-0.35 0.7 -0.65 1.8 -1.15 1.25 -1.05 1.05 -1.1 0.85 -1.35 0.8 -1.45 0.95 -1.75 0.65 -1.8 0.8 -1.65 1.25 -2.35 2.2 -3.1 3.1 -3.9 3.7 -4.15 3.25 -4.15 0.2 -0.15 0.2 M-4.15 13.55 L-3.25 14.6 -2.1 15.85 -2.15 15.85 -2.3 15.75 -2.35 16.1 -2.2 16.25 -1.9 16.25 -1.9 16.3 -2.4 18.75 -2.9 20.85 -2.95 20.8 -3.0 20.85 -3.1 20.85 -3.1 20.9 -3.95 20.85 -4.15 20.8 -4.15 13.55 M15.7 20.8 L15.4 20.85 14.55 20.9 14.55 20.85 14.5 20.85 14.45 20.8 14.4 20.85 13.9 18.75 13.4 16.3 13.4 16.25 13.7 16.25 13.9 16.1 13.85 15.75 13.6 15.85 13.55 15.85 14.75 14.6 15.7 13.55 15.7 20.8 M5.75 9.55 L5.95 9.65 6.15 9.6 6.15 9.9 6.45 10.95 5.75 12.75 5.1 10.95 5.3 9.9 5.3 9.6 5.55 9.65 5.75 9.55 M1.45 22.65 L2.35 24.7 3.0 26.2 2.95 26.2 2.8 33.0 2.85 33.9 2.15 34.0 0.1 33.65 -0.2 33.15 -0.6 30.5 -0.85 28.55 -0.7 27.9 -0.85 27.7 -0.2 26.05 0.5 23.75 1.45 22.65 M12.3 27.65 L12.2 27.9 12.4 28.55 12.1 30.5 11.7 33.15 11.4 33.65 9.35 34.0 8.7 33.9 8.75 33.0 8.5 26.2 8.45 26.2 9.2 24.7 10.0 22.65 11.05 23.75 Q11.05 24.35 11.7 26.05 L12.35 27.7 12.3 27.65" fill="#2bff80" fill-rule="evenodd" stroke="none"/>
    <path d="M52.6 -11.45 L52.5 -10.8 52.35 -7.85 51.9 -5.9 51.8 -5.6 51.6 -4.8 51.45 -4.05 51.2 -4.0 51.15 -4.0 51.1 -3.95 50.85 -3.7 50.7 -4.25 50.45 -4.8 50.4 -5.0 50.0 -6.45 49.8 -9.15 49.7 -9.7 52.6 -11.45 M44.9 -4.15 L45.75 -2.4 45.75 -2.3 45.8 -2.35 45.85 -2.1 45.65 -1.6 44.9 -0.75 44.9 -4.15 M44.9 13.35 L45.95 15.1 44.9 17.5 44.9 13.35 M44.9 21.95 L45.1 22.0 45.05 22.1 45.1 22.25 45.05 22.95 45.1 24.9 45.1 26.45 Q45.05 27.1 45.15 27.6 L45.1 27.75 44.9 27.8 44.9 21.95 M44.9 32.4 L45.3 31.65 45.5 31.3 46.05 32.5 46.65 33.6 45.6 35.75 44.9 37.15 44.9 32.4 M44.9 39.0 L45.0 39.1 45.7 39.85 45.75 40.0 44.9 40.0 44.9 39.0 M57.4 29.6 L56.7 29.0 55.65 28.15 56.25 26.35 56.8 24.45 57.0 24.6 57.4 24.85 57.4 29.6 M57.4 20.25 L57.15 20.45 57.15 20.35 57.2 19.1 57.15 17.6 57.2 15.6 57.2 14.9 57.2 14.7 57.4 14.4 57.4 20.25 M57.4 9.95 L56.3 8.85 57.4 5.8 57.4 9.95 M57.4 -8.3 Q56.95 -8.15 56.7 -8.3 L56.45 -8.5 56.5 -8.8 56.55 -8.8 56.55 -8.9 57.4 -11.7 57.4 -8.3 M53.9 -2.2 L54.2 -2.6 54.8 -2.05 Q55.35 -1.55 55.85 -1.65 L55.85 -1.55 Q55.85 -1.1 56.2 0.3 L56.55 1.65 55.85 2.85 54.65 4.55 54.65 4.4 54.55 4.5 Q54.2 4.2 53.9 4.05 L53.9 3.85 53.85 3.65 53.8 3.9 53.2 3.35 53.25 3.25 53.15 3.3 53.05 3.2 53.3 2.3 53.3 2.25 53.35 2.2 53.4 2.0 53.35 1.85 53.45 1.4 53.4 1.35 53.3 1.5 53.25 1.0 53.2 -0.2 Q53.2 -1.55 53.9 -2.2 M51.15 7.45 L51.45 7.6 51.6 7.65 52.65 8.05 52.6 8.2 52.65 8.35 52.7 8.05 52.8 8.1 52.9 12.55 52.9 13.2 52.85 13.3 52.9 13.45 52.85 20.55 52.7 20.5 52.7 20.65 52.85 20.75 52.15 21.75 52.05 21.8 52.0 21.9 51.6 22.4 51.25 22.9 51.15 22.65 51.0 23.05 50.7 22.95 50.25 22.95 50.25 22.9 50.2 22.9 49.5 22.8 49.6 22.5 49.6 22.4 49.5 22.6 49.4 15.55 49.4 15.4 49.4 14.7 49.5 10.1 49.6 9.95 49.7 10.15 49.7 9.85 50.7 8.2 50.85 7.95 51.15 7.45 M48.4 1.1 Q49.1 0.95 49.1 2.3 L49.0 3.6 49.0 4.15 48.9 4.1 48.9 4.15 48.95 4.5 48.95 4.7 48.95 4.85 49.0 4.85 49.0 4.9 49.2 5.5 49.15 5.7 49.05 5.8 49.1 5.85 48.5 7.1 48.45 6.9 48.35 7.2 48.4 7.35 47.75 8.6 47.7 8.6 47.7 8.75 46.5 8.5 45.75 8.15 46.1 6.4 46.45 4.15 46.45 4.05 47.5 2.35 48.1 1.1 48.4 1.1 M40.7 3.75 L40.7 8.45 Q39.95 8.3 39.5 7.8 L39.1 7.35 39.25 7.0 39.3 7.0 39.3 6.85 40.7 3.75 M40.7 27.5 L40.7 33.1 Q39.35 31.6 38.95 30.8 L40.7 27.5 M40.7 39.15 L40.7 40.0 40.35 40.0 40.35 39.75 40.35 39.55 40.35 39.4 40.7 39.15 M33.45 40.0 L28.05 40.0 27.95 34.15 28.0 34.0 27.95 33.85 27.95 33.0 28.15 26.85 28.3 26.75 28.4 27.0 28.45 26.85 28.4 26.65 30.05 25.25 30.25 25.05 30.75 24.6 31.25 25.05 31.45 25.25 33.1 26.65 33.0 26.85 33.1 27.0 33.25 26.75 33.4 26.85 33.55 33.0 33.5 33.85 33.45 34.0 33.5 34.15 33.45 40.0 M21.15 40.0 L20.85 40.0 20.85 39.15 21.2 39.4 21.1 39.55 21.15 39.75 21.15 40.0 M20.85 33.1 L20.85 27.5 22.55 30.8 Q22.2 31.6 20.85 33.1 M20.85 8.45 L20.85 3.75 22.2 6.85 22.2 7.0 22.3 7.0 22.35 7.35 22.0 7.8 Q21.5 8.3 20.85 8.45 M28.45 0.2 L33.0 0.2 32.9 1.05 Q32.6 3.3 32.6 4.8 L31.95 7.15 31.8 7.45 31.45 8.4 31.2 9.3 30.8 9.15 30.75 9.1 30.65 9.15 30.3 9.3 30.05 8.4 29.7 7.45 29.55 7.15 28.9 4.8 28.65 1.05 28.45 0.2 M25.9 13.5 L26.45 13.75 Q27.45 14.1 27.45 15.9 L27.4 17.65 27.35 18.35 27.15 18.2 27.15 18.3 27.3 18.8 27.25 19.05 27.3 19.3 27.35 19.3 27.35 19.4 Q27.45 20.1 27.7 20.4 L27.55 20.65 27.4 20.7 27.45 20.75 26.55 21.95 26.45 21.7 26.35 22.05 26.4 22.2 25.35 23.4 25.25 23.35 25.25 23.5 Q24.6 23.4 23.35 22.2 L22.2 21.15 22.75 19.05 23.3 16.3 23.3 16.15 Q24.05 15.85 25.0 14.7 L25.9 13.5 M36.55 14.7 L38.2 16.15 38.2 16.3 Q38.2 16.85 38.75 19.05 L39.3 21.15 38.15 22.2 36.25 23.5 36.25 23.35 36.15 23.4 35.1 22.2 35.15 22.05 35.0 21.7 34.9 21.95 34.0 20.75 34.1 20.7 33.9 20.65 33.8 20.4 34.15 19.4 34.15 19.3 34.25 19.3 34.3 19.05 34.25 18.8 34.35 18.3 34.35 18.2 34.2 18.35 34.1 17.65 34.0 15.9 Q34.0 14.1 35.1 13.75 L35.6 13.5 36.55 14.7 M8.0 0.2 L7.9 1.05 Q7.6 3.3 7.6 4.8 L6.95 7.15 6.8 7.45 6.45 8.4 6.2 9.3 5.8 9.15 5.75 9.1 5.65 9.15 5.3 9.3 5.05 8.4 4.7 7.45 4.55 7.15 3.9 4.8 3.65 1.05 3.45 0.2 8.0 0.2 M-4.15 3.75 L-2.8 6.85 -2.8 7.0 -2.7 7.0 -2.65 7.35 -3.0 7.8 Q-3.5 8.3 -4.15 8.45 L-4.15 3.75 M-4.15 27.5 L-2.45 30.8 -4.15 33.1 -4.15 27.5 M3.05 40.0 L2.95 34.15 3.0 34.0 2.95 33.85 2.95 33.0 3.15 26.85 3.3 26.75 3.4 27.0 3.45 26.85 3.4 26.65 5.05 25.25 5.25 25.05 5.75 24.6 6.25 25.05 6.45 25.25 8.1 26.65 8.0 26.85 8.1 27.0 8.25 26.75 8.4 26.85 8.55 33.0 8.5 33.85 8.45 34.0 8.5 34.15 8.45 40.0 3.05 40.0 M15.7 33.1 Q14.35 31.6 13.95 30.8 L15.7 27.5 15.7 33.1 M15.7 8.45 Q14.95 8.3 14.5 7.8 L14.1 7.35 14.25 7.0 14.3 7.0 14.3 6.85 15.7 3.75 15.7 8.45 M9.35 18.2 L9.2 18.35 9.1 17.65 9.0 15.9 Q9.0 14.1 10.1 13.75 L10.6 13.5 11.55 14.7 13.2 16.15 13.2 16.3 Q13.2 16.85 13.75 19.05 L14.3 21.15 13.15 22.2 11.25 23.5 11.25 23.35 11.15 23.4 10.1 22.2 10.15 22.05 10.0 21.7 9.9 21.95 9.0 20.75 9.1 20.7 8.9 20.65 8.8 20.4 9.15 19.4 9.15 19.3 9.25 19.3 9.3 19.05 9.25 18.8 9.35 18.3 9.35 18.2 M0.9 13.5 L1.45 13.75 Q2.45 14.1 2.45 15.9 L2.4 17.65 2.35 18.35 2.15 18.2 2.15 18.3 2.3 18.8 2.25 19.05 2.3 19.3 2.35 19.3 2.35 19.4 Q2.45 20.1 2.7 20.4 L2.55 20.65 2.4 20.7 2.45 20.75 1.55 21.95 1.45 21.7 1.35 22.05 1.4 22.2 0.35 23.4 0.25 23.35 0.25 23.5 -1.65 22.2 -2.8 21.15 -2.25 19.05 Q-1.7 16.85 -1.7 16.3 L-1.7 16.15 0.0 14.7 0.9 13.5 M15.35 40.0 L15.35 39.75 15.35 39.55 15.35 39.4 15.7 39.15 15.7 40.0 15.35 40.0 M-4.15 39.15 L-3.8 39.4 -3.9 39.55 -3.85 39.75 -3.85 40.0 -4.15 40.0 -4.15 39.15" fill="#cc0000" fill-rule="evenodd" stroke="none"/>
    <path d="M44.9 17.85 L45.5 16.75 46.1 15.4 47.3 16.15 47.35 16.4 45.25 21.55 45.25 21.5 45.2 21.7 44.9 21.4 44.9 17.85 M49.25 40.0 L49.5 37.95 49.85 35.05 50.65 34.85 50.65 35.1 50.75 35.05 50.75 36.05 50.8 36.05 50.8 35.0 50.9 34.8 51.15 34.45 51.4 34.5 51.5 34.6 51.5 35.65 51.55 35.6 51.6 35.5 51.6 34.5 51.65 34.3 51.6 34.25 51.8 34.1 51.8 38.95 51.6 39.1 51.5 39.2 51.15 38.7 50.8 39.6 50.7 39.65 50.0 40.0 49.25 40.0 M57.4 13.8 L57.35 13.9 57.15 14.45 57.0 14.4 57.0 14.45 54.95 11.8 55.0 11.5 56.2 9.3 Q56.3 9.7 56.8 9.9 L57.4 10.3 57.4 13.8 M46.55 -6.75 L47.2 -6.2 Q47.85 -5.9 48.3 -6.2 L48.05 -5.55 47.5 -3.75 47.55 -3.75 47.45 -3.5 46.95 -3.1 46.55 -2.95 45.85 -2.6 45.1 -4.2 45.25 -4.3 45.35 -4.35 45.4 -4.35 45.75 -5.05 46.15 -5.95 46.55 -6.75 M49.7 -5.5 L49.9 -5.75 50.35 -4.6 50.45 -4.35 50.6 -4.05 50.65 -4.05 50.7 -3.75 50.75 -3.2 50.75 -2.8 50.7 -2.8 50.45 -2.9 50.45 -2.85 50.6 -2.4 50.0 -0.9 49.1 1.0 48.85 0.8 48.2 0.65 48.15 0.6 48.15 0.65 47.95 0.4 47.9 -0.2 47.6 -3.4 47.7 -3.75 47.6 -3.75 48.45 -6.0 48.85 -5.55 49.7 -5.5 M57.2 -11.5 L56.45 -9.0 55.75 -8.55 55.35 -8.2 54.85 -7.95 54.75 -8.1 54.85 -8.2 54.25 -9.3 54.0 -9.65 Q54.5 -9.95 55.1 -11.0 L55.7 -12.25 56.15 -12.0 56.55 -11.6 56.9 -11.35 56.95 -11.35 57.1 -11.45 57.2 -11.5 M52.65 -7.3 L53.45 -8.35 53.85 -9.25 54.7 -8.05 54.6 -7.9 54.7 -7.7 54.4 -4.15 54.3 -3.45 54.1 -2.95 53.45 -2.0 53.25 -1.55 Q52.85 -1.65 52.3 -2.25 L51.7 -3.05 51.85 -3.7 51.85 -3.75 51.6 -3.35 51.55 -3.65 51.6 -4.3 51.65 -4.7 51.7 -4.7 51.8 -5.15 51.95 -5.55 52.4 -7.3 52.65 -7.3 M51.55 3.3 L51.55 3.35 51.65 3.5 51.6 3.6 51.15 5.25 50.7 4.15 50.65 4.1 50.75 3.8 50.75 3.75 50.9 3.5 51.15 3.1 51.4 3.2 51.55 3.3 M54.65 4.75 L56.55 1.95 55.55 7.85 55.45 7.6 55.5 7.35 55.05 5.95 54.65 4.75 M40.7 33.6 L40.7 38.35 40.6 38.45 40.25 39.1 40.05 38.85 40.05 38.95 36.75 33.6 36.85 33.25 38.75 31.25 Q38.9 31.85 39.7 32.65 L40.7 33.6 M20.85 38.35 L20.85 33.6 21.8 32.65 22.75 31.25 24.65 33.25 24.75 33.6 21.4 38.95 21.4 38.85 21.3 39.1 20.9 38.45 20.85 38.35 M45.75 8.45 L47.65 8.95 47.25 10.65 46.8 12.6 46.85 12.8 46.7 13.2 45.75 8.45 M50.35 23.5 L50.35 23.3 50.7 23.3 50.95 23.25 51.0 23.3 51.05 23.25 51.05 23.2 51.15 23.0 51.25 23.1 51.3 23.1 51.35 23.0 51.6 22.75 52.0 22.3 51.95 22.55 51.7 24.6 51.6 25.6 51.55 26.35 51.5 26.25 51.45 26.4 51.45 26.55 51.4 26.6 51.35 26.7 51.2 26.85 51.15 27.1 51.15 26.9 50.95 26.95 50.85 26.9 50.85 26.75 50.8 26.65 50.75 26.8 50.7 26.15 50.6 25.25 50.35 23.5 M55.45 28.25 L53.9 26.4 54.75 21.9 55.75 22.2 55.8 22.1 55.75 22.35 55.7 22.45 55.75 22.55 Q55.75 23.0 56.15 23.7 L56.5 24.25 56.7 24.45 56.2 26.25 55.55 28.1 55.5 28.0 55.5 28.15 55.45 28.25 M46.8 33.4 L46.8 33.25 46.7 33.45 46.1 32.35 45.6 31.2 45.85 30.7 46.15 29.75 46.5 28.15 46.55 28.15 46.6 27.95 46.5 27.95 46.5 27.75 46.55 27.75 47.5 26.3 48.4 29.7 46.85 33.45 46.8 33.4 M38.65 2.35 L39.35 3.25 39.9 3.85 40.15 3.85 40.35 3.85 Q39.45 5.5 39.1 6.65 L38.05 6.7 37.4 6.85 36.6 6.75 36.45 6.5 36.6 6.4 35.7 4.45 35.25 3.75 Q36.05 3.75 37.0 2.85 L38.0 1.6 38.65 2.35 M34.4 5.05 L35.0 4.2 Q35.35 5.15 36.4 6.45 L36.2 6.6 36.4 6.95 35.9 11.55 35.75 12.5 35.45 12.9 35.45 12.85 35.4 12.95 34.4 13.7 34.05 14.2 32.55 12.4 31.6 10.8 31.9 10.1 31.85 10.05 31.45 10.35 31.45 10.4 31.35 9.85 31.45 9.05 31.55 8.6 31.6 8.55 31.8 8.05 32.0 7.65 32.75 5.65 33.1 5.8 34.4 5.05 M26.25 3.75 L25.85 4.45 Q25.15 5.65 24.95 6.4 L25.05 6.5 24.9 6.75 24.1 6.85 23.45 6.7 22.35 6.65 Q22.05 5.5 21.2 3.85 L21.35 3.85 21.55 3.85 21.6 3.85 22.2 3.25 22.85 2.35 23.5 1.6 Q23.85 2.3 24.5 2.85 25.5 3.75 26.25 3.75 M26.45 4.2 L27.1 5.05 Q27.85 5.8 28.4 5.8 L28.75 5.65 Q28.95 6.6 29.5 7.65 L29.7 8.05 29.9 8.55 29.95 8.6 30.05 9.05 30.15 9.85 30.1 10.4 30.05 10.35 29.65 10.05 29.65 10.1 29.9 10.8 28.95 12.4 27.45 14.2 27.1 13.7 26.05 12.95 26.0 12.85 26.0 12.9 25.7 12.5 25.55 11.55 25.1 6.95 25.3 6.6 25.1 6.45 Q26.15 5.15 26.45 4.2 M31.35 19.4 L31.55 19.65 31.45 19.75 30.75 21.65 30.05 19.75 29.95 19.65 30.15 19.4 30.15 19.3 30.35 19.05 30.75 18.7 31.1 19.05 31.35 19.3 31.35 19.4 M22.2 21.55 L25.2 23.8 24.6 25.75 Q23.85 27.6 23.85 28.05 L23.9 28.35 23.7 28.8 22.2 21.55 M39.3 21.55 L37.75 28.8 37.6 28.35 37.6 28.05 36.9 25.75 36.25 23.8 Q37.0 23.55 39.3 21.55 M-4.15 33.6 L-3.2 32.65 Q-2.4 31.85 -2.25 31.25 L-0.35 33.25 -0.25 33.6 -3.6 38.95 -3.6 38.85 -3.7 39.1 -4.1 38.45 -4.15 38.35 -4.15 33.6 M11.75 33.6 L11.85 33.25 13.75 31.25 Q13.9 31.85 14.7 32.65 L15.7 33.6 15.7 38.35 15.6 38.45 15.25 39.1 15.05 38.85 15.05 38.95 11.75 33.6 M13.65 2.35 L14.35 3.25 14.9 3.85 15.15 3.85 15.35 3.85 Q14.45 5.5 14.1 6.65 L13.05 6.7 12.4 6.85 11.6 6.75 11.45 6.5 11.6 6.4 10.7 4.45 10.25 3.75 Q11.05 3.75 12.0 2.85 L13.0 1.6 13.65 2.35 M11.4 6.95 L10.9 11.55 10.75 12.5 10.45 12.9 10.45 12.85 10.4 12.95 9.4 13.7 9.05 14.2 7.55 12.4 6.6 10.8 6.9 10.1 6.85 10.05 6.45 10.35 6.45 10.4 6.35 9.85 6.45 9.05 6.55 8.6 6.6 8.55 6.8 8.05 7.0 7.65 7.75 5.65 8.1 5.8 Q8.65 5.8 9.4 5.05 L10.0 4.2 Q10.35 5.15 11.4 6.45 L11.2 6.6 11.4 6.95 M1.45 4.2 L2.1 5.05 Q2.85 5.8 3.4 5.8 L3.75 5.65 Q3.95 6.6 4.5 7.65 L4.7 8.05 4.9 8.55 4.95 8.6 5.05 9.05 5.15 9.85 5.1 10.4 5.05 10.35 Q4.95 10.15 4.65 10.05 L4.65 10.1 4.9 10.8 3.95 12.4 2.45 14.2 2.1 13.7 1.05 12.95 1.0 12.85 1.0 12.9 0.7 12.5 0.55 11.55 0.1 6.95 0.3 6.6 0.1 6.45 Q1.15 5.15 1.45 4.2 M1.25 3.75 L0.85 4.45 Q0.15 5.65 -0.05 6.4 L0.05 6.5 -0.1 6.75 -0.9 6.85 -1.55 6.7 -2.65 6.65 Q-2.95 5.5 -3.8 3.85 L-3.65 3.85 -3.45 3.85 -3.4 3.85 -2.8 3.25 -2.15 2.35 -1.5 1.6 -0.5 2.85 Q0.5 3.75 1.25 3.75 M6.35 19.4 L6.55 19.65 6.45 19.75 5.75 21.65 5.05 19.75 4.95 19.65 5.15 19.4 5.15 19.3 5.35 19.05 5.75 18.7 6.1 19.05 6.35 19.3 6.35 19.4 M14.3 21.55 L12.75 28.8 12.6 28.35 12.6 28.05 11.9 25.75 11.25 23.8 Q12.0 23.55 14.3 21.55 M-1.15 28.05 L-1.1 28.35 -1.3 28.8 -2.8 21.55 0.2 23.8 -0.4 25.75 -1.15 28.05" fill="#2bd5ff" fill-rule="evenodd" stroke="none"/>
    <path d="M6.4 -25.1 L6.4 -24.5 Q6.4 -23.3 7.95 -19.45 8.95 -16.95 11.25 -15.35 L41.85 -15.35 41.75 -16.75 Q41.75 -17.7 42.0 -18.35 L42.0 -18.45 42.05 -18.45 42.0 -18.5 42.0 -18.95 42.15 -18.95 42.25 -18.8 42.25 -18.85 42.3 -18.7 42.3 -18.55 42.35 -18.45 43.6 -15.25 52.7 -15.25 53.85 -16.05 54.9 -17.15 54.9 -17.2 55.6 -18.45 55.6 -18.5 56.05 -19.75 56.65 -20.95 57.1 -22.95 57.1 -23.15 Q57.15 -24.85 57.6 -25.7 L57.65 -25.6 57.75 -25.45 57.75 -25.25 57.8 -25.25 Q59.55 -21.55 59.55 -11.7 59.55 -9.75 58.7 -7.05 L58.7 -6.85 58.85 -0.75 58.85 3.3 58.85 3.4 58.85 7.4 58.7 6.9 58.7 25.05 59.05 25.1 59.0 25.55 59.5 26.45 59.5 26.6 59.45 26.7 59.7 27.2 59.9 27.5 59.9 27.7 60.0 27.9 59.9 28.05 59.7 30.0 59.5 32.3 59.7 34.15 59.7 34.75 59.6 34.85 59.8 35.05 58.85 36.75 58.85 36.8 58.75 36.9 58.6 37.1 58.5 37.05 52.85 40.75 Q46.65 44.65 45.7 45.3 L45.5 45.05 45.55 45.0 43.8 46.0 43.65 45.9 -6.8 45.9 -7.0 45.85 -7.0 45.6 -7.55 44.9 -8.1 43.95 -7.9 43.7 -7.75 43.9 -7.8 43.25 -7.9 40.2 -8.15 38.05 Q-8.3 36.85 -7.7 36.5 L-7.65 36.55 -6.9 35.4 -6.9 35.35 -6.85 35.2 -6.7 35.2 -6.7 0.2 -6.75 0.1 -6.85 0.1 -6.85 -1.8 -6.95 -2.25 -6.8 -2.75 -6.95 -3.6 Q-7.35 -6.05 -7.35 -7.45 -7.35 -10.05 -6.75 -12.95 -6.2 -15.65 -5.4 -17.05 L-5.4 -17.7 -5.15 -17.7 -5.1 -17.5 -4.85 -17.85 -4.8 -17.7 -5.0 -17.05 -4.9 -16.6 -4.85 -16.6 -4.1 -14.05 -3.8 -13.25 -3.75 -13.1 -3.6 -12.8 -2.6 -11.45 -1.35 -10.1 -1.35 -10.2 -1.1 -10.2 -1.1 -10.0 1.2 -11.5 5.25 -13.9 5.05 -15.0 5.0 -16.9 5.25 -21.3 Q5.5 -24.25 5.9 -25.25 L6.2 -25.2 6.25 -25.1 6.4 -25.1 M11.35 -14.2 L41.75 -14.25 41.8 -14.15 41.85 -14.35 41.85 -15.05 11.7 -15.05 12.25 -14.7 12.05 -14.55 11.9 -14.55 11.45 -14.35 9.15 -14.3 8.95 -14.25 8.9 -14.2 8.95 -14.2 9.05 -14.2 9.15 -14.2 11.35 -14.2 M6.15 -24.15 Q5.3 -18.1 5.3 -16.9 5.3 -15.7 5.55 -14.75 L5.65 -14.15 5.75 -14.2 5.8 -14.0 5.7 -13.85 5.75 -13.65 6.9 -14.2 10.0 -14.75 11.3 -14.7 Q10.4 -15.1 9.35 -16.5 8.2 -17.95 7.65 -19.4 L6.8 -21.75 6.15 -24.15 M5.6 -13.05 L5.55 -13.15 5.4 -13.55 Q4.75 -13.05 3.1 -12.1 L-1.0 -9.75 -0.95 -9.7 -1.0 -9.65 -1.15 -9.65 -0.9 -8.65 -0.85 -8.55 2.65 -10.75 8.4 -14.1 7.5 -13.95 Q6.4 -13.7 5.85 -13.15 L5.7 -13.15 5.6 -13.05 M8.6 -13.85 L8.7 -14.05 8.6 -14.0 4.5 -11.45 -0.7 -8.25 -0.55 -8.0 5.15 -8.0 5.2 -8.0 5.15 -8.15 Q5.15 -8.4 5.4 -8.45 L5.95 -8.4 6.75 -9.05 8.5 -10.25 8.5 -10.35 8.55 -10.35 8.5 -10.65 8.5 -11.9 8.55 -13.1 8.5 -13.4 8.6 -13.85 M8.85 -13.35 L9.15 -12.8 9.1 -12.7 8.9 -12.8 8.9 -12.3 8.85 -10.35 39.85 -10.35 40.0 -10.5 Q40.95 -11.35 41.2 -12.05 L41.75 -13.95 9.0 -13.95 8.85 -13.7 8.85 -13.35 M6.0 -8.0 L39.05 -8.0 39.6 -8.9 39.15 -9.65 39.55 -10.05 9.5 -10.05 9.4 -10.0 9.3 -10.1 8.8 -10.1 8.75 -9.8 8.6 -9.95 7.35 -8.95 6.05 -8.1 6.0 -8.05 5.95 -8.05 5.85 -8.0 6.0 -8.0 M37.15 -6.55 Q37.0 -6.65 37.0 -6.9 L37.45 -6.8 Q38.1 -6.8 38.85 -7.7 L-0.3 -7.65 -0.05 -7.3 0.0 -7.3 0.15 -7.1 0.65 -6.55 0.75 -6.6 0.8 -6.45 37.15 -6.35 37.2 -6.35 37.15 -6.55 M4.45 -3.7 L4.0 -1.8 4.15 -1.7 4.25 -1.75 4.35 -1.5 4.35 -1.35 4.45 -1.05 5.2 -1.15 6.75 -1.0 Q6.8 -2.65 7.35 -3.8 L4.35 -3.85 4.45 -3.7 M0.3 -5.0 L-0.1 -4.25 28.95 -4.15 28.95 -4.2 29.05 -4.15 32.4 -4.1 32.45 -4.2 32.5 -4.1 38.95 -4.1 Q38.15 -4.35 37.85 -4.85 37.6 -5.2 37.3 -6.05 L0.8 -6.05 0.3 -5.0 M3.7 -1.15 Q2.2 -0.35 1.35 0.2 L0.2 1.05 -0.65 1.95 -0.85 2.3 -1.05 2.4 -1.1 2.4 -1.3 2.6 -1.3 2.65 Q-1.5 3.3 -0.95 3.7 -2.55 4.55 -2.85 5.95 L-3.1 8.25 -3.05 8.25 -2.95 8.4 -3.3 8.6 -3.35 8.6 -3.35 20.35 -3.3 20.65 Q-2.75 21.15 -2.75 21.5 L-2.95 23.55 -3.35 25.5 -3.55 25.5 -3.55 35.2 -1.15 35.2 -1.15 32.7 -1.3 32.55 -1.3 32.35 -1.15 32.3 -1.0 17.6 -1.15 17.3 -1.05 13.7 Q-1.05 10.7 0.65 6.8 2.75 2.1 5.9 1.3 L6.1 1.1 5.95 0.95 6.1 1.05 6.15 1.0 6.5 1.3 Q7.45 1.7 8.3 2.7 10.0 4.35 10.85 6.55 L11.0 7.1 11.85 9.35 12.45 12.3 12.55 12.65 12.55 13.45 12.7 15.35 12.95 15.6 12.9 15.8 12.7 15.8 12.95 16.1 12.95 35.15 16.65 35.15 16.65 34.9 16.45 25.45 16.55 25.15 Q15.85 22.45 15.85 20.75 15.85 20.25 16.05 20.1 L16.1 20.15 16.55 19.95 Q16.4 18.9 16.4 17.35 L16.45 14.15 16.45 10.95 16.25 7.75 16.25 7.05 16.3 7.05 15.25 5.55 14.2 3.9 14.15 3.9 13.95 3.65 14.15 3.25 14.2 3.2 14.15 3.2 12.45 1.35 Q10.4 -0.7 7.3 -1.4 L7.3 -1.45 7.15 -0.95 7.3 -0.95 7.35 -0.75 7.3 -0.55 7.0 -0.5 6.95 -0.4 6.8 -0.5 6.75 -0.5 5.8 -0.8 4.6 -0.6 4.75 -0.3 4.55 -0.2 3.9 -1.2 3.75 -1.1 3.7 -1.15 M3.55 -1.5 L3.85 -3.85 -0.3 -3.9 -0.35 -3.7 -0.7 -3.65 Q-3.65 -3.3 -4.65 -2.05 -5.35 -0.55 -6.1 0.1 L-6.15 -0.05 -6.05 -0.5 -6.45 -1.35 -6.45 -0.7 -6.3 -0.7 -6.25 2.25 -4.75 2.2 -1.8 2.4 -1.1 1.7 Q-0.75 0.95 0.9 0.05 L1.45 -0.2 3.55 -1.5 M7.65 -3.45 L7.4 -1.8 Q9.35 -1.75 11.9 0.05 14.15 1.65 14.35 2.75 L14.35 2.5 14.85 2.55 15.05 2.9 19.2 2.7 21.25 2.75 21.25 2.65 21.7 2.8 Q22.3 2.0 24.35 0.5 27.0 -1.45 28.45 -1.25 L28.6 -2.65 28.8 -3.8 19.95 -3.8 7.6 -3.8 7.65 -3.45 M-0.75 -3.9 Q-0.95 -4.2 -0.5 -4.25 L-0.15 -4.55 0.1 -5.15 0.45 -6.2 Q-0.15 -6.55 -1.2 -7.95 L-1.35 -7.95 -1.4 -8.15 -1.35 -8.15 -1.55 -8.4 Q-2.95 -10.35 -3.4 -11.45 L-3.7 -12.2 -3.95 -12.6 Q-5.05 -14.65 -5.15 -16.1 L-5.25 -16.4 -5.9 -14.3 Q-7.05 -10.55 -7.05 -7.5 L-6.65 -3.8 -6.45 -2.7 -6.45 -2.6 -6.0 -0.65 -4.45 -2.6 Q-2.6 -4.25 -0.75 -3.8 L-0.7 -3.9 -0.75 -3.9 M28.85 -0.95 Q28.95 -0.75 29.45 -0.6 L31.15 -0.35 Q32.5 -0.35 32.15 -2.45 L32.2 -3.35 Q32.05 -3.5 32.05 -3.7 L32.1 -3.8 29.15 -3.8 29.15 -3.75 29.0 -2.35 28.85 -1.15 28.9 -1.15 28.95 -0.95 28.85 -1.0 28.85 -0.95 M27.35 -0.75 Q25.2 0.0 22.0 3.15 L22.1 3.45 22.15 3.4 22.35 3.6 22.15 3.85 22.1 3.9 22.0 4.0 21.95 4.0 21.1 5.15 20.35 6.15 20.05 6.6 20.0 6.7 20.2 6.7 20.25 6.8 19.7 7.15 19.75 8.3 19.75 10.1 19.7 20.2 20.0 20.35 20.15 20.2 20.35 20.6 20.35 20.65 19.95 22.85 19.5 24.7 19.75 24.7 19.85 24.9 Q19.85 25.0 19.45 25.1 L19.45 35.15 23.65 35.15 23.65 17.3 23.35 16.2 23.35 14.55 Q23.35 10.35 24.55 7.2 26.2 2.75 29.95 1.1 29.9 0.85 30.0 0.8 L30.25 0.8 Q31.45 0.8 33.25 3.65 34.9 6.3 35.35 8.4 L36.15 12.15 36.65 16.05 36.75 16.05 36.75 35.15 40.05 35.15 40.05 34.5 39.85 25.25 Q39.85 24.85 40.1 24.75 L39.35 24.5 Q39.15 24.3 39.15 22.1 L39.2 21.4 39.1 21.4 39.05 21.2 39.55 20.6 39.7 20.5 39.75 20.4 Q39.6 19.85 39.6 19.1 L39.65 17.5 39.65 14.3 39.65 11.05 39.6 9.4 39.8 8.0 39.55 7.95 39.45 8.0 39.4 7.9 Q38.95 7.75 38.95 7.35 L39.15 7.35 38.45 5.45 Q37.85 3.7 37.15 2.7 L37.25 2.8 37.25 2.7 Q37.25 2.2 37.7 1.9 L36.4 0.6 Q35.25 -0.5 32.65 -0.75 L32.3 -0.2 31.15 0.1 Q28.45 0.1 28.45 -1.0 L27.35 -0.75 M39.9 -8.95 Q38.8 -6.65 37.7 -6.45 L38.75 -4.25 40.3 -4.1 40.5 -4.1 40.55 -4.0 Q41.5 -3.75 42.3 -3.15 L43.4 -1.95 43.7 -2.9 43.85 -5.35 Q43.85 -10.6 42.3 -16.75 L42.2 -15.35 42.25 -15.35 42.3 -15.2 42.25 -15.05 42.2 -15.05 42.05 -13.9 Q41.45 -10.65 39.6 -9.7 L39.9 -8.95 M32.65 -3.3 L32.7 -2.55 32.65 -1.15 Q35.45 -0.75 36.55 0.2 L38.0 1.75 38.05 1.7 38.2 1.8 43.15 1.95 43.15 -0.6 42.95 -0.85 43.15 -1.5 Q41.35 -3.35 40.3 -3.8 L32.6 -3.8 32.75 -3.4 32.65 -3.3 M57.6 -23.2 L57.6 -23.4 57.55 -23.15 56.9 -20.1 Q56.5 -18.95 55.8 -17.95 54.5 -15.3 53.05 -14.95 L53.0 -14.9 51.5 -14.85 51.75 -14.5 51.9 -14.5 52.0 -14.35 51.95 -14.25 52.3 -13.7 52.8 -12.55 55.0 -15.45 Q57.6 -19.45 57.6 -23.2 M53.6 -12.45 L53.65 -12.3 53.65 -12.25 Q54.65 -11.55 54.8 -10.7 L55.5 -10.75 56.4 -10.65 56.45 -10.65 56.5 -10.6 Q57.55 -10.3 58.2 -9.25 L58.7 -8.1 58.75 -8.35 Q59.25 -10.0 59.25 -11.7 59.25 -16.8 57.9 -23.9 L57.9 -23.2 Q57.9 -20.5 56.45 -17.1 55.2 -14.15 53.55 -12.45 L53.5 -12.4 53.6 -12.45 M56.2 -18.85 L56.0 -18.45 56.65 -19.75 56.25 -19.0 56.2 -18.85 M50.85 -14.95 L43.75 -14.9 43.9 -14.5 51.4 -14.5 50.85 -14.95 M52.4 -12.95 Q51.3 -12.25 48.65 -10.9 L45.3 -9.1 45.45 -8.85 45.9 -8.15 48.5 -9.7 52.4 -11.85 52.5 -12.5 52.4 -12.95 M45.25 -10.5 L47.15 -10.45 48.45 -11.2 Q51.25 -12.75 52.3 -13.15 L51.9 -13.85 51.65 -14.2 44.15 -14.05 44.05 -14.05 44.1 -14.0 45.25 -10.65 45.15 -10.5 45.25 -10.5 M50.1 -7.25 L47.95 -6.15 47.2 -5.8 47.75 -5.3 47.7 -5.2 47.7 -5.15 48.7 -3.25 49.05 -3.25 49.35 -3.5 49.5 -3.35 49.75 -4.8 50.35 -7.0 50.1 -7.25 M45.75 -7.55 L44.95 -5.05 49.0 -7.3 49.3 -7.45 54.65 -10.05 54.65 -10.1 54.7 -10.2 54.5 -10.15 54.35 -10.25 54.45 -10.4 54.35 -10.65 54.25 -11.2 53.6 -11.7 53.35 -11.95 50.15 -10.05 45.9 -7.8 45.75 -7.55 M44.85 -10.7 L42.55 -17.05 43.7 -11.7 44.15 -5.35 44.1 -4.15 Q44.9 -6.5 45.6 -7.65 L45.5 -7.65 45.35 -7.8 44.85 -8.65 44.8 -8.9 44.75 -8.9 44.6 -9.0 44.75 -9.05 44.65 -10.05 44.7 -10.25 44.65 -10.3 44.75 -10.45 44.85 -10.7 M45.15 -9.35 L46.55 -10.15 45.0 -10.15 45.0 -10.05 45.15 -9.35 M44.7 -4.3 L43.95 -2.25 43.9 -1.5 43.65 -1.45 43.65 -1.35 43.65 -1.25 43.55 -1.15 43.5 -1.0 43.5 1.7 44.7 0.55 46.65 -1.0 46.75 -0.95 47.15 -1.4 48.4 -2.85 47.95 -3.6 47.1 -5.2 46.9 -5.4 46.8 -5.55 44.75 -4.45 44.7 -4.3 M49.95 -3.1 L51.3 -2.15 51.3 -2.2 Q52.45 -2.2 54.15 -3.2 L54.2 -3.15 Q54.65 -4.85 55.45 -5.8 L54.9 -7.0 54.25 -8.95 54.25 -9.4 51.55 -8.0 50.55 -7.5 50.65 -7.0 50.65 -6.85 50.65 -6.8 50.3 -5.0 49.95 -3.1 M48.95 -1.25 L48.95 -1.45 49.35 -1.4 49.55 -1.55 49.65 -1.35 49.65 -1.3 Q50.9 -0.65 51.3 2.95 L51.45 8.65 51.5 8.7 51.5 29.8 53.05 28.8 52.85 25.85 52.9 22.6 52.9 16.15 52.9 15.85 Q52.9 7.8 53.05 4.3 L53.1 3.45 52.95 2.6 52.4 0.5 Q51.95 -0.95 50.35 -2.1 L49.8 -2.45 48.75 -2.3 48.7 -2.35 47.05 -0.55 46.75 -0.05 46.25 1.25 45.9 2.05 45.95 2.2 45.95 25.35 45.85 25.45 45.9 26.1 46.0 26.2 46.0 33.2 47.0 32.55 Q46.45 31.65 46.6 30.1 L46.9 27.35 46.9 24.6 46.85 23.75 46.7 24.2 46.75 21.7 46.75 15.55 46.75 6.85 46.8 2.5 Q47.0 1.15 47.75 0.1 L48.25 -0.6 48.45 -0.8 Q48.75 -1.1 49.0 -1.2 L49.05 -1.2 48.95 -1.25 M49.25 -2.75 L49.15 -2.85 49.1 -2.75 49.25 -2.75 M48.8 -0.5 L47.95 0.3 Q47.5 1.4 47.15 3.4 L47.15 22.5 47.3 27.3 47.25 32.4 49.3 31.15 51.15 30.0 51.1 29.95 51.1 10.0 51.05 10.1 51.05 10.0 51.05 9.3 51.0 8.9 51.0 8.55 51.1 8.5 51.05 6.15 50.9 2.4 Q50.6 0.55 49.5 -0.7 L49.35 -0.7 48.8 -0.5 M57.0 -10.1 L56.9 -10.15 56.95 -10.05 56.6 -6.6 56.75 -6.55 56.85 -6.35 56.55 -6.05 56.55 -5.9 56.35 -5.8 56.25 -5.9 56.05 -5.85 Q57.3 -5.15 57.55 -3.75 L57.75 -4.0 58.25 -4.45 58.25 -6.65 58.25 -6.85 Q58.25 -7.2 58.4 -7.4 L58.3 -8.65 Q58.0 -9.75 57.0 -10.1 M55.7 -10.05 L55.35 -10.0 54.65 -9.6 54.85 -9.35 54.75 -9.2 54.65 -9.05 55.7 -6.35 56.15 -6.45 56.15 -8.6 Q56.25 -9.9 56.7 -10.25 L56.4 -10.3 55.7 -10.05 M53.7 0.0 L54.1 -2.7 52.85 -2.05 51.65 -1.7 52.55 -0.05 52.75 0.45 52.95 0.25 Q53.35 -0.05 53.65 0.0 L53.7 0.05 53.7 0.0 M54.85 -1.0 L54.95 -0.9 54.95 2.8 54.85 2.85 54.9 5.1 54.9 8.4 54.85 27.6 56.95 26.15 56.75 23.35 56.8 20.25 56.8 14.15 56.8 8.1 56.45 4.75 Q56.3 3.15 56.75 2.35 L56.75 1.25 Q56.8 -0.35 57.0 -1.5 L56.1 -3.7 55.55 -2.6 54.85 -1.0 M54.25 -0.55 Q54.25 -1.0 54.75 -2.3 55.3 -3.7 55.95 -4.15 L55.75 -4.65 56.2 -4.3 56.2 -4.35 56.25 -4.25 Q56.85 -3.6 57.15 -2.15 L57.15 -2.2 57.35 -2.0 57.35 -2.95 Q57.15 -4.65 55.85 -5.5 L55.25 -4.4 Q54.45 -3.0 54.15 -1.35 53.95 -0.4 54.0 0.95 L54.1 2.6 54.2 2.7 54.2 28.05 54.55 27.8 54.5 27.75 54.5 2.65 54.4 2.3 Q54.4 2.1 54.55 2.0 L54.55 1.2 54.35 0.9 54.4 -0.2 Q54.25 -0.3 54.25 -0.55 M57.75 -0.4 L58.0 3.05 58.05 3.05 58.1 3.2 58.05 12.6 58.3 12.45 58.45 5.7 58.5 4.6 Q58.3 2.4 58.25 -0.4 L58.25 -1.2 57.8 -1.0 57.7 -1.0 57.75 -0.4 M58.25 -3.9 L57.6 -3.2 57.7 -1.45 58.25 -1.55 58.25 -3.9 M57.5 3.6 L57.5 3.25 57.6 3.15 57.45 0.0 57.35 -1.15 57.35 3.6 57.2 3.5 57.2 26.0 57.7 25.65 57.6 25.55 57.6 4.05 57.5 3.6 M53.3 2.35 L53.35 2.55 53.35 2.3 53.55 2.3 53.65 0.35 52.9 0.85 53.3 2.35 M53.8 3.6 L53.3 4.05 53.3 15.55 53.8 15.5 53.8 3.6 M45.95 0.05 L43.65 2.1 43.5 2.25 43.5 7.55 43.65 7.7 45.55 6.3 45.55 2.9 45.4 2.8 45.3 2.8 45.15 2.55 45.45 1.65 45.65 0.95 46.0 0.25 45.95 0.05 M42.25 2.4 L38.2 2.2 38.05 2.3 37.45 2.9 Q38.25 3.6 38.75 5.05 L39.5 7.35 39.9 7.4 40.1 7.5 41.75 7.55 43.15 7.55 43.15 2.35 42.25 2.4 M43.75 8.2 L43.5 8.15 43.5 20.35 Q44.65 18.2 45.5 18.75 L45.55 18.7 45.55 6.75 45.0 7.15 Q44.25 7.65 44.25 7.9 L44.05 8.1 43.75 8.2 M42.25 8.1 L40.35 8.0 40.15 8.0 39.95 8.0 Q40.55 8.9 40.4 10.9 40.05 13.3 40.05 14.3 L40.0 20.2 40.15 20.1 40.3 20.25 43.15 20.5 43.15 8.05 42.25 8.1 M43.7 20.9 L43.55 21.0 43.5 21.0 43.5 24.1 44.15 23.4 45.55 22.1 45.55 19.35 45.3 19.1 45.1 19.05 Q43.9 19.95 43.7 20.9 M45.5 27.95 L45.5 27.2 45.35 26.2 Q45.25 25.35 45.55 24.95 L45.55 22.8 43.65 24.5 43.5 24.6 43.5 34.8 45.75 33.35 Q45.45 31.95 45.45 30.0 L45.5 28.05 45.5 27.95 M43.15 20.9 L39.95 20.75 39.45 21.3 39.6 22.55 39.65 24.2 43.15 24.3 43.15 20.9 M58.0 16.05 Q58.15 15.9 58.3 15.9 L58.3 14.9 58.3 13.0 58.05 13.3 58.0 16.05 M58.15 16.5 L58.0 16.45 57.95 25.45 58.4 25.1 58.4 25.05 58.25 22.9 58.3 20.2 58.3 16.4 58.15 16.5 M53.3 16.1 L53.3 19.25 53.8 19.2 53.8 15.9 53.7 15.95 53.3 16.1 M53.35 19.8 L53.3 19.8 53.3 28.65 Q53.6 28.4 53.9 28.25 L53.8 28.15 53.8 19.6 53.35 19.8 M58.5 25.6 L51.9 30.1 43.55 35.2 43.6 35.45 43.9 35.85 43.8 35.9 44.0 36.35 43.95 36.5 43.8 36.6 43.35 36.1 43.2 35.6 -6.5 35.6 -6.5 35.7 -6.95 36.4 -7.5 37.1 -7.5 42.2 -7.4 42.3 -7.4 44.15 -7.45 44.2 Q-6.85 44.85 -6.6 45.35 L-6.3 45.45 43.8 45.5 43.85 45.55 45.75 44.45 47.8 43.45 58.45 36.7 58.7 35.55 Q58.7 34.95 59.3 34.4 L59.25 34.2 59.15 33.5 59.1 34.2 58.9 34.3 Q58.7 34.05 58.7 33.25 L59.0 30.7 59.3 29.35 59.2 28.75 59.3 27.45 58.85 26.7 58.85 27.5 58.8 27.5 58.65 27.2 58.85 26.45 58.7 26.2 58.6 25.65 58.55 25.6 58.5 25.6 M43.1 24.8 L43.1 24.75 41.9 24.8 40.45 24.75 40.45 35.15 43.15 35.15 43.15 24.8 43.1 24.8 M43.9 37.6 L44.2 38.15 44.1 38.7 44.0 42.35 43.95 42.5 43.8 42.6 Q43.5 42.4 43.5 41.45 L43.6 38.35 Q43.6 37.7 43.9 37.6 M43.45 44.15 L44.05 44.15 44.1 44.6 43.9 44.7 43.45 44.6 43.4 44.35 43.45 44.15 M21.55 3.5 L21.5 3.5 21.45 3.4 21.35 3.15 19.3 3.05 14.85 3.3 14.45 3.7 16.55 6.7 16.55 6.65 18.4 6.6 19.55 6.65 19.75 6.35 Q19.8 5.9 20.75 4.8 L21.75 3.8 21.55 3.5 M23.95 16.05 L24.05 16.05 24.05 32.3 36.35 32.3 36.35 17.0 Q35.7 14.35 35.2 9.2 34.15 4.45 30.1 1.25 23.75 5.15 23.75 14.55 L23.95 16.05 M10.3 6.85 L9.95 5.8 8.95 4.45 6.45 1.55 6.1 1.4 Q1.9 3.4 0.4 8.15 -0.55 11.05 -0.55 15.75 L-0.75 17.4 -0.75 18.45 -0.75 21.5 -0.75 32.3 -0.45 32.3 -0.45 32.5 12.55 32.5 12.55 17.9 Q12.2 17.15 12.2 15.9 L12.15 13.7 11.8 11.9 10.95 8.35 10.3 6.85 M19.05 7.2 L18.15 7.0 17.45 7.15 17.15 7.3 16.95 7.3 16.9 7.3 16.85 7.4 16.75 7.4 16.65 7.5 16.75 7.65 16.85 7.7 16.85 19.9 17.75 19.85 19.5 20.1 19.3 17.25 19.35 13.85 19.25 7.2 19.05 7.2 M19.45 20.6 Q19.05 20.25 17.9 20.25 L16.85 20.35 16.65 20.5 16.65 20.45 16.55 20.45 16.15 20.6 Q16.6 22.7 16.65 24.75 L16.75 24.7 19.15 24.7 Q19.15 23.65 19.3 22.65 19.4 21.4 19.7 20.8 L19.45 20.6 M16.9 25.3 L17.05 34.65 17.05 35.15 19.05 35.15 19.05 34.7 18.95 25.2 16.9 25.3 M11.35 32.9 L-0.75 33.0 -0.75 35.2 12.55 35.15 12.55 32.85 11.35 32.9 M36.35 32.7 L24.4 32.8 24.05 32.75 24.05 35.15 36.35 35.15 36.35 32.7 M-1.35 -8.95 L-1.35 -9.6 -1.6 -9.45 -1.65 -9.6 -1.45 -9.8 -2.35 -10.4 -1.4 -8.9 -1.3 -8.8 -1.35 -8.95 M-1.95 2.8 L-3.2 2.65 -6.0 2.8 -6.15 2.9 -6.25 2.9 -6.2 7.95 -5.5 7.9 -3.5 8.1 -3.55 7.85 Q-3.55 6.1 -2.55 4.55 L-1.55 3.35 -1.65 2.95 -1.75 3.0 -1.95 2.8 M-5.1 20.25 L-3.7 20.25 Q-4.25 19.3 -4.1 17.65 L-3.75 14.45 Q-3.75 13.5 -4.1 11.15 -4.3 9.4 -3.7 8.6 L-6.2 8.4 -6.2 17.4 -6.2 20.25 -5.15 20.2 -5.65 20.3 -5.1 20.25 M-4.75 20.9 L-6.2 20.85 -6.2 25.1 -3.55 24.95 -3.65 24.6 -3.15 21.5 Q-3.15 20.6 -4.75 20.9 M-4.0 25.5 L-6.2 25.5 -6.25 35.2 -3.95 35.2 -3.95 35.05 -4.05 25.8 -4.0 25.5" fill="#000000" fill-rule="evenodd" stroke="none"/>
    <path d="M9.15 -14.2 L9.05 -14.2 9.15 -14.3 9.15 -14.2 M6.15 -24.15 L6.8 -21.75 7.65 -19.4 Q8.2 -17.95 9.35 -16.5 10.4 -15.1 11.3 -14.7 L10.0 -14.75 6.9 -14.2 5.75 -13.65 5.7 -13.85 5.8 -14.0 5.75 -14.2 5.65 -14.15 5.55 -14.75 Q5.3 -15.7 5.3 -16.9 5.3 -18.1 6.15 -24.15 M-0.75 -3.8 Q-2.6 -4.25 -4.45 -2.6 L-6.0 -0.65 -6.45 -2.6 -6.45 -2.7 -6.65 -3.8 -7.05 -7.5 Q-7.05 -10.55 -5.9 -14.3 L-5.25 -16.4 -5.15 -16.1 Q-5.05 -14.65 -3.95 -12.6 L-3.7 -12.2 -3.4 -11.45 Q-2.95 -10.35 -1.55 -8.4 L-1.35 -8.15 -1.4 -8.15 -1.35 -7.95 -1.2 -7.95 Q-0.15 -6.55 0.45 -6.2 L0.1 -5.15 -0.15 -4.55 -0.5 -4.25 Q-0.95 -4.2 -0.75 -3.9 L-0.75 -3.8 M39.9 -8.95 L39.6 -9.7 Q41.45 -10.65 42.05 -13.9 L42.2 -15.05 42.25 -15.05 42.3 -15.2 42.25 -15.35 42.2 -15.35 42.3 -16.75 Q43.85 -10.6 43.85 -5.35 L43.7 -2.9 43.4 -1.95 42.3 -3.15 Q41.5 -3.75 40.55 -4.0 L40.5 -4.1 40.3 -4.1 38.75 -4.25 37.7 -6.45 Q38.8 -6.65 39.9 -8.95 M57.55 -23.15 L57.6 -23.2 Q57.6 -19.45 55.0 -15.45 L52.8 -12.55 52.3 -13.7 51.95 -14.25 52.0 -14.35 51.9 -14.5 51.75 -14.5 51.5 -14.85 53.0 -14.9 53.05 -14.95 Q54.5 -15.3 55.8 -17.95 56.5 -18.95 56.9 -20.1 L57.55 -23.15 M53.55 -12.45 Q55.2 -14.15 56.45 -17.1 57.9 -20.5 57.9 -23.2 L57.9 -23.9 Q59.25 -16.8 59.25 -11.7 59.25 -10.0 58.75 -8.35 L58.7 -8.1 58.2 -9.25 Q57.55 -10.3 56.5 -10.6 L56.45 -10.65 56.4 -10.65 55.5 -10.75 54.8 -10.7 Q54.65 -11.55 53.65 -12.25 L53.65 -12.3 53.6 -12.45 53.55 -12.45 M44.85 -10.7 L44.75 -10.45 44.65 -10.3 44.7 -10.25 44.65 -10.05 44.75 -9.05 44.6 -9.0 44.75 -8.9 44.8 -8.9 44.85 -8.65 45.35 -7.8 45.5 -7.65 45.6 -7.65 Q44.9 -6.5 44.1 -4.15 L44.15 -5.35 43.7 -11.7 42.55 -17.05 44.85 -10.7 M-1.4 -8.9 L-2.35 -10.4 -1.45 -9.8 -1.65 -9.6 -1.6 -9.45 -1.35 -9.6 -1.35 -8.95 -1.4 -8.9" fill="#e9dfd1" fill-rule="evenodd" stroke="none"/>
    <path d="M11.45 -14.35 L11.9 -14.55 12.05 -14.55 12.25 -14.7 11.7 -15.05 41.85 -15.05 41.85 -14.35 41.8 -14.15 41.75 -14.25 11.35 -14.2 11.45 -14.35 M5.6 -13.05 L5.7 -13.15 5.85 -13.15 Q6.4 -13.7 7.5 -13.95 L8.4 -14.1 2.65 -10.75 -0.85 -8.55 -0.9 -8.65 -1.15 -9.65 -1.0 -9.65 -0.95 -9.7 -1.0 -9.75 3.1 -12.1 Q4.75 -13.05 5.4 -13.55 L5.55 -13.15 5.6 -13.05 M8.6 -14.0 L8.6 -13.85 8.5 -13.4 8.55 -13.1 8.5 -11.9 8.5 -10.65 8.55 -10.35 8.5 -10.35 8.5 -10.25 6.75 -9.05 5.95 -8.4 5.4 -8.45 Q5.15 -8.4 5.15 -8.15 L5.15 -8.0 -0.55 -8.0 -0.7 -8.25 4.5 -11.45 8.6 -14.0 M8.85 -13.35 L8.85 -13.7 9.0 -13.95 41.75 -13.95 41.2 -12.05 Q40.95 -11.35 40.0 -10.5 L39.85 -10.35 8.85 -10.35 8.9 -12.3 8.9 -12.8 9.1 -12.7 9.15 -12.8 8.85 -13.35 M37.15 -6.35 L0.8 -6.45 0.75 -6.6 0.65 -6.55 0.15 -7.1 0.0 -7.3 -0.05 -7.3 -0.3 -7.65 38.85 -7.7 Q38.1 -6.8 37.45 -6.8 L37.0 -6.9 Q37.0 -6.65 37.15 -6.55 L37.15 -6.35 M3.7 -1.15 L3.75 -1.1 3.9 -1.2 4.55 -0.2 4.75 -0.3 4.6 -0.6 5.8 -0.8 6.75 -0.5 6.8 -0.5 6.95 -0.4 7.0 -0.5 7.3 -0.55 7.35 -0.75 7.3 -0.95 7.15 -0.95 7.3 -1.45 7.3 -1.4 Q10.4 -0.7 12.45 1.35 L14.15 3.2 14.2 3.2 14.15 3.25 13.95 3.65 14.15 3.9 14.2 3.9 15.25 5.55 16.3 7.05 16.25 7.05 16.25 7.75 16.45 10.95 16.45 14.15 16.4 17.35 Q16.4 18.9 16.55 19.95 L16.1 20.15 16.05 20.1 Q15.85 20.25 15.85 20.75 15.85 22.45 16.55 25.15 L16.45 25.45 16.65 34.9 16.65 35.15 12.95 35.15 12.95 16.1 12.7 15.8 12.9 15.8 12.95 15.6 12.7 15.35 12.55 13.45 12.55 12.65 12.45 12.3 11.85 9.35 11.0 7.1 10.85 6.55 Q10.0 4.35 8.3 2.7 7.45 1.7 6.5 1.3 L6.15 1.0 6.1 1.05 5.95 0.95 6.1 1.1 5.9 1.3 Q2.75 2.1 0.65 6.8 -1.05 10.7 -1.05 13.7 L-1.15 17.3 -1.0 17.6 -1.15 32.3 -1.3 32.35 -1.3 32.55 -1.15 32.7 -1.15 35.2 -3.55 35.2 -3.55 25.5 -3.35 25.5 -2.95 23.55 -2.75 21.5 Q-2.75 21.15 -3.3 20.65 L-3.35 20.35 -3.35 8.6 -3.3 8.6 -2.95 8.4 -3.05 8.25 -3.1 8.25 -2.85 5.95 Q-2.55 4.55 -0.95 3.7 -1.5 3.3 -1.3 2.65 L-1.3 2.6 -1.1 2.4 -1.05 2.4 -0.85 2.3 -0.65 1.95 0.2 1.05 1.35 0.2 Q2.2 -0.35 3.7 -1.15 M0.3 -5.0 L0.8 -6.05 37.3 -6.05 Q37.6 -5.2 37.85 -4.85 38.15 -4.35 38.95 -4.1 L32.5 -4.1 32.45 -4.2 32.4 -4.1 29.05 -4.15 28.95 -4.2 28.95 -4.15 -0.1 -4.25 0.3 -5.0 M27.35 -0.75 L28.45 -1.0 Q28.45 0.1 31.15 0.1 L32.3 -0.2 32.65 -0.75 Q35.25 -0.5 36.4 0.6 L37.7 1.9 Q37.25 2.2 37.25 2.7 L37.25 2.8 37.15 2.7 Q37.85 3.7 38.45 5.45 L39.15 7.35 38.95 7.35 Q38.95 7.75 39.4 7.9 L39.45 8.0 39.55 7.95 39.8 8.0 39.6 9.4 39.65 11.05 39.65 14.3 39.65 17.5 39.6 19.1 Q39.6 19.85 39.75 20.4 L39.7 20.5 39.55 20.6 39.05 21.2 39.1 21.4 39.2 21.4 39.15 22.1 Q39.15 24.3 39.35 24.5 L40.1 24.75 Q39.85 24.85 39.85 25.25 L40.05 34.5 40.05 35.15 36.75 35.15 36.75 16.05 36.65 16.05 36.15 12.15 35.35 8.4 Q34.9 6.3 33.25 3.65 31.45 0.8 30.25 0.8 L30.0 0.8 Q29.9 0.85 29.95 1.1 26.2 2.75 24.55 7.2 23.35 10.35 23.35 14.55 L23.35 16.2 23.65 17.3 23.65 35.15 19.45 35.15 19.45 25.1 Q19.85 25.0 19.85 24.9 L19.75 24.7 19.5 24.7 19.95 22.85 20.35 20.65 20.35 20.6 20.15 20.2 20.0 20.35 19.7 20.2 19.75 10.1 19.75 8.3 19.7 7.15 20.25 6.8 20.2 6.7 20.0 6.7 20.05 6.6 20.35 6.15 21.1 5.15 21.95 4.0 22.0 4.0 22.1 3.9 22.15 3.85 22.35 3.6 22.15 3.4 22.1 3.45 22.0 3.15 Q25.2 0.0 27.35 -0.75 M44.15 -14.05 L51.65 -14.2 51.9 -13.85 52.3 -13.15 Q51.25 -12.75 48.45 -11.2 L47.15 -10.45 45.25 -10.5 45.25 -10.65 44.1 -14.0 44.15 -14.05 M52.4 -12.95 L52.5 -12.5 52.4 -11.85 48.5 -9.7 45.9 -8.15 45.45 -8.85 45.3 -9.1 48.65 -10.9 Q51.3 -12.25 52.4 -12.95 M50.85 -14.95 L51.4 -14.5 43.9 -14.5 43.75 -14.9 50.85 -14.95 M45.75 -7.55 L45.9 -7.8 50.15 -10.05 53.35 -11.95 53.6 -11.7 54.25 -11.2 54.35 -10.65 54.45 -10.4 54.35 -10.25 54.5 -10.15 54.7 -10.2 54.65 -10.1 54.65 -10.05 49.3 -7.45 49.0 -7.3 44.95 -5.05 45.75 -7.55 M49.0 -1.2 Q48.75 -1.1 48.45 -0.8 L48.25 -0.6 47.75 0.1 Q47.0 1.15 46.8 2.5 L46.75 6.85 46.75 15.55 46.75 21.7 46.7 24.2 46.85 23.75 46.9 24.6 46.9 27.35 46.6 30.1 Q46.45 31.65 47.0 32.55 L46.0 33.2 46.0 26.2 45.9 26.1 45.85 25.45 45.95 25.35 45.95 2.2 45.9 2.05 46.25 1.25 46.75 -0.05 47.05 -0.55 48.7 -2.35 48.75 -2.3 49.8 -2.45 50.35 -2.1 Q51.95 -0.95 52.4 0.5 L52.95 2.6 53.1 3.45 53.05 4.3 Q52.9 7.8 52.9 15.85 L52.9 16.15 52.9 22.6 52.85 25.85 53.05 28.8 51.5 29.8 51.5 8.7 51.45 8.65 51.3 2.95 Q50.9 -0.65 49.65 -1.3 L49.65 -1.35 49.55 -1.55 49.35 -1.4 48.95 -1.45 48.95 -1.25 49.0 -1.2 M54.25 -0.55 Q54.25 -0.3 54.4 -0.2 L54.35 0.9 54.55 1.2 54.55 2.0 Q54.4 2.1 54.4 2.3 L54.5 2.65 54.5 27.75 54.55 27.8 54.2 28.05 54.2 2.7 54.1 2.6 54.0 0.95 Q53.95 -0.4 54.15 -1.35 54.45 -3.0 55.25 -4.4 L55.85 -5.5 Q57.15 -4.65 57.35 -2.95 L57.35 -2.0 57.15 -2.2 57.15 -2.15 Q56.85 -3.6 56.25 -4.25 L56.2 -4.35 56.2 -4.3 55.75 -4.65 55.95 -4.15 Q55.3 -3.7 54.75 -2.3 54.25 -1.0 54.25 -0.55 M57.5 3.6 L57.6 4.05 57.6 25.55 57.7 25.65 57.2 26.0 57.2 3.5 57.35 3.6 57.35 -1.15 57.45 0.0 57.6 3.15 57.5 3.25 57.5 3.6" fill="#9e8d6d" fill-rule="evenodd" stroke="none"/>
    <path d="M11.45 -14.35 L11.35 -14.2 9.15 -14.2 9.15 -14.3 11.45 -14.35 M8.6 -14.0 L8.7 -14.05 8.6 -13.85 8.6 -14.0 M5.15 -8.15 L5.2 -8.0 5.15 -8.0 5.15 -8.15 M37.15 -6.35 L37.15 -6.55 37.2 -6.35 37.15 -6.35 M4.45 -3.7 L4.35 -3.85 7.35 -3.8 Q6.8 -2.65 6.75 -1.0 L5.2 -1.15 4.45 -1.05 4.35 -1.35 4.35 -1.5 4.25 -1.75 4.15 -1.7 4.0 -1.8 4.45 -3.7 M28.95 -0.95 L28.9 -1.15 28.85 -1.15 29.0 -2.35 29.15 -3.75 29.15 -3.8 32.1 -3.8 32.05 -3.7 Q32.05 -3.5 32.2 -3.35 L32.15 -2.45 Q32.5 -0.35 31.15 -0.35 L29.45 -0.6 Q28.95 -0.75 28.85 -0.95 L28.95 -0.95 M45.25 -10.65 L45.25 -10.5 45.15 -10.5 45.25 -10.65 M50.1 -7.25 L50.35 -7.0 49.75 -4.8 49.5 -3.35 49.35 -3.5 49.05 -3.25 48.7 -3.25 47.7 -5.15 47.7 -5.2 47.75 -5.3 47.2 -5.8 47.95 -6.15 50.1 -7.25 M53.65 0.0 Q53.35 -0.05 52.95 0.25 L52.75 0.45 52.55 -0.05 51.65 -1.7 52.85 -2.05 54.1 -2.7 53.7 0.0 53.65 0.0 M55.7 -10.05 L56.4 -10.3 56.7 -10.25 Q56.25 -9.9 56.15 -8.6 L56.15 -6.45 55.7 -6.35 54.65 -9.05 54.75 -9.2 54.85 -9.35 54.65 -9.6 55.35 -10.0 55.7 -10.05 M58.25 -3.9 L58.25 -1.55 57.7 -1.45 57.6 -3.2 58.25 -3.9 M42.25 2.4 L43.15 2.35 43.15 7.55 41.75 7.55 40.1 7.5 39.9 7.4 39.5 7.35 38.75 5.05 Q38.25 3.6 37.45 2.9 L38.05 2.3 38.2 2.2 42.25 2.4 M45.95 0.05 L46.0 0.25 45.65 0.95 45.45 1.65 45.15 2.55 45.3 2.8 45.4 2.8 45.55 2.9 45.55 6.3 43.65 7.7 43.5 7.55 43.5 2.25 43.65 2.1 45.95 0.05 M43.7 20.9 Q43.9 19.95 45.1 19.05 L45.3 19.1 45.55 19.35 45.55 22.1 44.15 23.4 43.5 24.1 43.5 21.0 43.55 21.0 43.7 20.9 M58.0 16.05 L58.05 13.3 58.3 13.0 58.3 14.9 58.3 15.9 Q58.15 15.9 58.0 16.05 M43.15 20.9 L43.15 24.3 39.65 24.2 39.6 22.55 39.45 21.3 39.95 20.75 43.15 20.9 M53.3 16.1 L53.7 15.95 53.8 15.9 53.8 19.2 53.3 19.25 53.3 16.1 M58.5 25.6 L58.55 25.6 58.6 25.65 58.7 26.2 58.85 26.45 58.65 27.2 58.8 27.5 58.85 27.5 58.85 26.7 59.3 27.45 59.2 28.75 59.3 29.35 59.0 30.7 58.7 33.25 Q58.7 34.05 58.9 34.3 L59.1 34.2 59.15 33.5 59.25 34.2 59.3 34.4 Q58.7 34.95 58.7 35.55 L58.45 36.7 47.8 43.45 45.75 44.45 43.85 45.55 43.8 45.5 -6.3 45.45 -6.6 45.35 Q-6.85 44.85 -7.45 44.2 L-7.4 44.15 -7.4 42.3 -7.5 42.2 -7.5 37.1 -6.95 36.4 -6.5 35.7 -6.5 35.6 43.2 35.6 43.35 36.1 43.8 36.6 43.95 36.5 44.0 36.35 43.8 35.9 43.9 35.85 43.6 35.45 43.55 35.2 51.9 30.1 58.5 25.6 M21.55 3.5 L21.75 3.8 20.75 4.8 Q19.8 5.9 19.75 6.35 L19.55 6.65 18.4 6.6 16.55 6.65 16.55 6.7 14.45 3.7 14.85 3.3 19.3 3.05 21.35 3.15 21.45 3.4 21.5 3.5 21.55 3.5 M43.45 44.15 L43.4 44.35 43.45 44.6 43.9 44.7 44.1 44.6 44.05 44.15 43.45 44.15 M43.9 37.6 Q43.6 37.7 43.6 38.35 L43.5 41.45 Q43.5 42.4 43.8 42.6 L43.95 42.5 44.0 42.35 44.1 38.7 44.2 38.15 43.9 37.6 M19.45 20.6 L19.7 20.8 Q19.4 21.4 19.3 22.65 19.15 23.65 19.15 24.7 L16.75 24.7 16.65 24.75 Q16.6 22.7 16.15 20.6 L16.55 20.45 16.65 20.45 16.65 20.5 16.85 20.35 17.9 20.25 Q19.05 20.25 19.45 20.6 M-1.95 2.8 L-1.75 3.0 -1.65 2.95 -1.55 3.35 -2.55 4.55 Q-3.55 6.1 -3.55 7.85 L-3.5 8.1 -5.5 7.9 -6.2 7.95 -6.25 2.9 -6.15 2.9 -6.0 2.8 -3.2 2.65 -1.95 2.8 M-4.75 20.9 Q-3.15 20.6 -3.15 21.5 L-3.65 24.6 -3.55 24.95 -6.2 25.1 -6.2 20.85 -4.75 20.9" fill="#b3aaa2" fill-rule="evenodd" stroke="none"/>
    <path d="M7.65 -3.45 L7.6 -3.8 19.95 -3.8 28.8 -3.8 28.6 -2.65 28.45 -1.25 Q27.0 -1.45 24.35 0.5 22.3 2.0 21.7 2.8 L21.25 2.65 21.25 2.75 19.2 2.7 15.05 2.9 14.85 2.55 14.35 2.5 14.35 2.75 Q14.15 1.65 11.9 0.05 9.35 -1.75 7.4 -1.8 L7.65 -3.45 M3.55 -1.5 L1.45 -0.2 0.9 0.05 Q-0.75 0.95 -1.1 1.7 L-1.8 2.4 -4.75 2.2 -6.25 2.25 -6.3 -0.7 -6.45 -0.7 -6.45 -1.35 -6.05 -0.5 -6.15 -0.05 -6.1 0.1 Q-5.35 -0.55 -4.65 -2.05 -3.65 -3.3 -0.7 -3.65 L-0.35 -3.7 -0.3 -3.9 3.85 -3.85 3.55 -1.5 M32.65 -3.3 L32.75 -3.4 32.6 -3.8 40.3 -3.8 Q41.35 -3.35 43.15 -1.5 L42.95 -0.85 43.15 -0.6 43.15 1.95 38.2 1.8 38.05 1.7 38.0 1.75 36.55 0.2 Q35.45 -0.75 32.65 -1.15 L32.7 -2.55 32.65 -3.3 M49.95 -3.1 L50.3 -5.0 50.65 -6.8 50.65 -6.85 50.65 -7.0 50.55 -7.5 51.55 -8.0 54.25 -9.4 54.25 -8.95 54.9 -7.0 55.45 -5.8 Q54.65 -4.85 54.2 -3.15 L54.15 -3.2 Q52.45 -2.2 51.3 -2.2 L51.3 -2.15 49.95 -3.1 M44.7 -4.3 L44.75 -4.45 46.8 -5.55 46.9 -5.4 47.1 -5.2 47.95 -3.6 48.4 -2.85 47.15 -1.4 46.75 -0.95 46.65 -1.0 44.7 0.55 43.5 1.7 43.5 -1.0 43.55 -1.15 43.65 -1.25 43.65 -1.35 43.65 -1.45 43.9 -1.5 43.95 -2.25 44.7 -4.3 M56.95 -10.05 L57.0 -10.1 Q58.0 -9.75 58.3 -8.65 L58.4 -7.4 Q58.25 -7.2 58.25 -6.85 L58.25 -6.65 58.25 -4.45 57.75 -4.0 57.55 -3.75 Q57.3 -5.15 56.05 -5.85 L56.25 -5.9 56.35 -5.8 56.55 -5.9 56.55 -6.05 56.85 -6.35 56.75 -6.55 56.6 -6.6 56.95 -10.05 M57.75 -0.4 L57.7 -1.0 57.8 -1.0 58.25 -1.2 58.25 -0.4 Q58.3 2.4 58.5 4.6 L58.45 5.7 58.3 12.45 58.05 12.6 58.1 3.2 58.05 3.05 58.0 3.05 57.75 -0.4 M53.35 2.3 L53.3 2.35 52.9 0.85 53.65 0.35 53.55 2.3 53.35 2.3 M53.8 3.6 L53.8 15.5 53.3 15.55 53.3 4.05 53.8 3.6 M42.25 8.1 L43.15 8.05 43.15 20.5 40.3 20.25 40.15 20.1 40.0 20.2 40.05 14.3 Q40.05 13.3 40.4 10.9 40.55 8.9 39.95 8.0 L40.15 8.0 40.35 8.0 42.25 8.1 M43.75 8.2 L44.05 8.1 44.25 7.9 Q44.25 7.65 45.0 7.15 L45.55 6.75 45.55 18.7 45.5 18.75 Q44.65 18.2 43.5 20.35 L43.5 8.15 43.75 8.2 M45.5 28.05 L45.45 30.0 Q45.45 31.95 45.75 33.35 L43.5 34.8 43.5 24.6 43.65 24.5 45.55 22.8 45.55 24.95 Q45.25 25.35 45.35 26.2 L45.5 27.2 45.5 27.95 45.45 28.05 45.5 28.05 M58.15 16.5 L58.3 16.4 58.3 20.2 58.25 22.9 58.4 25.05 58.4 25.1 57.95 25.45 58.0 16.45 58.15 16.5 M53.35 19.8 L53.8 19.6 53.8 28.15 53.9 28.25 Q53.6 28.4 53.3 28.65 L53.3 19.8 53.35 19.8 M43.1 24.8 L43.15 24.8 43.15 35.15 40.45 35.15 40.45 24.75 41.9 24.8 43.1 24.75 43.1 24.8 M19.05 7.2 L19.25 7.2 19.35 13.85 19.3 17.25 19.5 20.1 17.75 19.85 16.85 19.9 16.85 7.7 16.75 7.65 16.65 7.5 16.75 7.4 16.85 7.4 16.9 7.3 16.95 7.3 17.15 7.3 17.45 7.15 18.15 7.0 19.05 7.2 M36.35 32.7 L36.35 35.15 24.05 35.15 24.05 32.75 24.4 32.8 36.35 32.7 M11.35 32.9 L12.55 32.85 12.55 35.15 -0.75 35.2 -0.75 33.0 11.35 32.9 M16.9 25.3 L18.95 25.2 19.05 34.7 19.05 35.15 17.05 35.15 17.05 34.65 16.9 25.3 M-5.15 20.2 L-6.2 20.25 -6.2 17.4 -6.2 8.4 -3.7 8.6 Q-4.3 9.4 -4.1 11.15 -3.75 13.5 -3.75 14.45 L-4.1 17.65 Q-4.25 19.3 -3.7 20.25 L-5.1 20.25 -5.15 20.2 M-4.0 25.5 L-4.05 25.8 -3.95 35.05 -3.95 35.2 -6.25 35.2 -6.2 25.5 -4.0 25.5" fill="#ccb78c" fill-rule="evenodd" stroke="none"/>
    <path d="M6.0 -8.05 L6.05 -8.1 7.35 -8.95 8.6 -9.95 8.75 -9.8 8.8 -10.1 9.3 -10.1 9.4 -10.0 9.5 -10.05 39.55 -10.05 39.15 -9.65 39.6 -8.9 39.05 -8.0 6.0 -8.0 6.0 -8.05" fill="#75654f" fill-rule="evenodd" stroke="none"/>
  </g>
</svg>
