<?xml version="1.0" encoding="UTF-8" standalone="no"?>
<svg xmlns:xlink="http://www.w3.org/1999/xlink" height="32.3px" width="32.1px" xmlns="http://www.w3.org/2000/svg">
  <g transform="matrix(1.0, 0.0, 0.0, 1.0, -0.6, -0.3)">
    <path d="M29.7 1.1 L29.6 1.25 29.05 2.1 28.6 1.8 28.6 1.45 28.85 0.8 Q28.9 0.35 29.3 0.35 L29.4 0.4 Q29.85 0.1 29.85 0.7 L29.7 1.1 M1.25 2.6 Q0.8 2.6 0.7 2.2 L0.7 1.7 Q0.7 1.15 1.45 0.65 2.2 0.2 2.2 0.95 L1.25 2.6 M1.85 29.35 L1.55 29.85 1.0 30.25 Q0.6 30.25 0.6 29.8 0.6 29.5 0.9 29.25 1.3 28.9 1.8 29.1 L1.85 29.35 M29.95 29.35 L29.8 29.95 29.4 30.25 Q28.95 30.25 28.95 29.8 28.95 29.4 29.45 29.0 29.95 28.55 29.95 29.35" fill="#ff6666" fill-rule="evenodd" stroke="none"/>
    <path d="M32.7 3.95 L32.7 4.35 31.45 4.6 Q30.2 4.6 30.2 4.2 30.2 3.9 30.7 3.65 L31.35 2.95 Q31.15 2.6 31.45 2.15 31.8 1.75 32.3 1.95 L32.7 3.95 M3.9 2.1 Q4.2 1.65 4.2 2.5 4.2 4.6 2.45 4.6 L2.05 4.55 Q1.95 4.05 2.1 3.9 L1.7 3.5 Q1.7 3.05 3.35 3.05 L3.9 2.1 M3.6 30.35 Q3.7 30.0 4.3 30.1 L4.35 32.05 Q4.25 32.6 3.75 32.6 L1.6 32.45 Q1.45 32.4 1.45 32.15 2.65 30.7 3.6 30.85 L3.6 30.35 M32.25 32.5 L31.25 32.5 30.25 32.5 29.85 32.05 30.05 31.8 31.3 31.25 31.2 30.65 Q31.2 30.25 31.55 29.8 31.95 29.25 32.25 29.95 L32.45 31.75 32.25 32.5" fill="#660000" fill-rule="evenodd" stroke="none"/>
    <path d="M21.2 9.05 L22.2 9.3 23.55 9.65 24.7 10.15 24.8 10.4 24.65 10.45 24.55 10.45 24.5 10.45 23.75 10.1 23.6 10.1 23.15 10.0 21.5 9.9 20.5 10.05 19.8 10.15 17.8 10.5 16.65 11.1 15.95 11.65 15.65 10.75 Q15.35 10.15 14.35 10.15 L13.9 10.15 13.85 10.3 13.6 10.45 Q13.45 10.55 13.45 10.9 L13.75 11.35 14.1 11.65 14.3 11.95 14.8 12.15 15.05 12.35 16.05 13.3 Q16.45 13.75 16.65 14.5 L16.8 14.8 16.8 15.05 16.75 15.05 16.8 15.9 Q16.8 17.45 15.8 18.75 L15.35 19.45 14.85 19.9 15.05 19.9 14.8 20.1 14.3 20.3 14.1 20.6 13.75 20.9 13.45 21.35 Q13.45 21.7 13.6 21.8 L13.85 21.95 13.9 22.1 14.35 22.1 Q15.35 22.1 15.65 21.5 15.75 20.9 15.95 20.6 L16.65 21.15 17.8 21.75 19.8 22.1 20.5 22.2 21.5 22.35 23.15 22.25 23.6 22.15 23.75 22.15 Q24.2 21.9 24.5 21.8 L24.55 21.8 24.65 21.8 24.8 21.85 24.7 22.1 23.55 22.6 22.2 22.95 21.2 23.2 20.35 23.45 18.7 23.65 16.9 24.05 15.7 23.95 14.4 23.9 13.2 23.85 11.35 23.5 10.2 23.1 9.8 23.0 9.1 22.9 8.95 22.7 8.7 22.7 8.7 22.4 8.85 22.35 Q9.6 22.15 9.75 21.9 L10.1 21.15 9.8 20.5 9.65 20.25 9.15 19.95 8.75 19.65 7.85 18.8 Q7.15 17.6 7.15 16.05 L7.45 14.65 Q7.7 13.75 8.1 13.3 L8.3 13.0 9.4 12.2 9.55 12.15 9.8 11.75 10.1 11.1 9.75 10.35 Q9.6 10.1 8.85 9.9 L8.7 9.85 8.7 9.55 8.95 9.55 9.1 9.35 9.8 9.25 10.2 9.15 11.35 8.75 13.2 8.4 14.4 8.35 15.7 8.3 16.9 8.2 18.7 8.6 20.35 8.8 21.2 9.05 M12.75 8.9 L11.4 9.05 10.2 9.45 9.55 9.65 9.45 9.7 9.8 9.85 10.05 10.2 10.35 10.65 10.4 11.1 10.25 11.75 10.35 11.7 11.9 11.3 13.1 11.5 13.6 11.7 Q13.15 11.25 13.15 10.9 L13.35 10.2 13.75 9.85 14.35 9.8 Q15.4 9.8 15.8 10.4 L16.05 11.05 16.1 11.1 Q17.25 10.2 18.1 10.05 L20.15 9.75 21.7 9.55 22.1 9.55 20.95 9.25 20.05 9.1 19.15 9.05 18.6 8.9 18.0 8.75 16.7 8.55 15.55 8.65 14.95 8.65 14.45 8.65 14.25 8.7 13.3 8.7 12.95 8.85 12.85 8.85 12.75 8.9 M17.15 21.85 L16.1 21.15 16.05 21.2 15.8 21.85 Q15.4 22.45 14.35 22.45 L13.75 22.4 13.35 22.05 13.15 21.35 Q13.15 21.0 13.6 20.55 13.3 20.6 13.1 20.75 L11.9 20.95 11.15 20.85 11.1 20.85 11.0 20.8 10.5 20.6 10.3 20.6 10.4 21.15 10.35 21.6 10.05 22.05 9.8 22.4 9.45 22.55 9.55 22.6 10.2 22.8 11.4 23.2 12.9 23.4 13.3 23.55 15.55 23.6 16.7 23.7 18.0 23.5 18.6 23.35 19.15 23.2 20.05 23.15 20.95 23.0 22.1 22.7 21.7 22.7 20.15 22.5 18.1 22.2 17.4 22.0 17.35 21.85 17.15 21.85 M15.3 13.1 L14.85 12.65 14.8 12.7 14.7 12.6 14.65 12.6 14.25 12.35 14.15 12.25 13.4 11.95 11.7 11.65 11.7 11.7 11.5 11.75 11.15 11.85 11.0 11.75 9.9 12.35 9.65 12.5 Q8.55 13.2 8.15 13.7 L7.75 14.95 7.65 15.4 7.5 15.4 7.5 15.95 7.45 16.1 Q7.45 17.05 8.05 18.4 L9.25 19.6 9.75 19.9 9.9 19.9 10.45 20.3 11.05 20.45 11.15 20.4 11.5 20.5 Q12.95 20.45 14.6 19.7 L15.6 18.5 16.0 17.85 15.85 17.85 Q15.5 17.85 15.4 17.4 L15.4 16.9 15.45 15.4 15.55 14.7 Q15.6 14.2 16.15 14.15 L15.6 13.35 15.3 13.1 M9.0 16.95 L9.05 16.95 9.05 16.7 9.0 16.65 8.95 16.65 8.8 15.95 8.95 15.35 9.15 14.5 9.2 14.5 9.25 14.35 9.2 14.2 9.2 14.15 9.4 13.6 9.6 13.2 9.8 13.05 11.55 12.95 12.2 13.0 12.15 13.1 12.2 13.3 12.55 13.2 13.05 13.95 12.8 14.6 12.5 15.15 12.4 16.05 Q12.25 16.1 12.25 16.25 L12.35 16.4 12.35 16.55 Q12.35 17.15 12.6 17.5 L12.85 18.25 Q12.85 19.1 12.2 19.1 L10.95 19.05 10.3 19.1 9.6 18.7 9.25 18.25 9.15 17.8 9.0 16.95 M9.75 13.7 L9.7 13.95 9.55 14.1 9.15 16.0 9.45 17.65 9.85 18.45 Q10.15 18.9 11.95 18.75 L12.45 18.75 12.55 18.25 12.15 17.45 12.05 16.55 12.15 15.2 12.35 14.6 12.7 13.95 12.5 13.55 11.45 13.35 10.25 13.45 9.75 13.55 9.75 13.7 M9.75 17.7 L9.55 16.15 9.7 14.3 Q9.7 14.1 10.15 13.9 L10.75 13.8 Q11.25 13.8 11.3 14.25 L11.25 14.75 11.2 15.8 Q11.2 16.8 11.35 17.25 L11.35 17.95 10.85 18.0 9.95 17.9 9.75 17.7 M10.05 17.55 L10.65 17.65 11.05 17.65 11.05 17.4 10.95 16.8 10.55 16.8 10.5 16.65 Q10.6 16.4 10.9 16.45 L10.9 16.05 10.9 15.85 10.45 15.85 10.4 15.75 Q10.4 15.45 10.8 15.45 L10.9 15.5 10.95 15.0 10.65 15.0 10.4 14.95 10.4 14.7 10.65 14.65 10.95 14.7 11.0 14.4 Q10.95 14.15 10.4 14.2 10.0 14.4 10.0 14.8 L9.85 16.1 10.05 17.55 M16.3 14.55 L16.3 14.45 Q15.9 14.5 15.85 14.65 L15.85 14.95 15.7 17.35 15.75 17.4 Q16.0 17.15 16.2 17.15 L16.25 17.3 16.25 17.35 16.35 17.15 16.5 15.9 16.45 15.05 16.3 14.55" fill="#000000" fill-rule="evenodd" stroke="none"/>
    <path d="M14.95 8.65 L15.55 8.65 16.7 8.55 18.0 8.75 18.6 8.9 19.15 9.05 20.05 9.1 20.95 9.25 22.1 9.55 21.7 9.55 20.15 9.75 18.1 10.05 Q17.25 10.2 16.1 11.1 L16.05 11.05 15.8 10.4 Q15.4 9.8 14.35 9.8 L13.75 9.85 13.35 10.2 13.15 10.9 Q13.15 11.25 13.6 11.7 L13.1 11.5 11.9 11.3 10.35 11.7 10.25 11.75 10.4 11.1 10.35 10.65 10.05 10.2 9.8 9.85 9.45 9.7 9.55 9.65 10.2 9.45 11.4 9.05 12.75 8.9 11.7 9.1 Q10.05 9.65 10.05 9.8 L10.1 9.95 10.65 9.95 11.1 9.6 11.7 9.45 12.85 9.2 13.85 9.1 14.95 8.95 15.0 8.8 14.95 8.65 M12.95 8.85 L13.3 8.7 14.25 8.7 12.95 8.85 M17.4 22.0 L18.1 22.2 20.15 22.5 21.7 22.7 22.1 22.7 20.95 23.0 20.05 23.15 19.15 23.2 18.6 23.35 18.0 23.5 16.7 23.7 15.55 23.6 13.3 23.55 12.9 23.4 11.4 23.2 10.2 22.8 9.55 22.6 9.45 22.55 9.8 22.4 10.05 22.05 10.35 21.6 10.4 21.15 10.3 20.6 10.5 20.6 11.0 20.8 11.1 20.85 11.15 20.85 11.9 20.95 13.1 20.75 Q13.3 20.6 13.6 20.55 13.15 21.0 13.15 21.35 L13.35 22.05 13.75 22.4 14.35 22.45 Q15.4 22.45 15.8 21.85 L16.05 21.2 16.1 21.15 17.15 21.85 16.35 21.75 Q16.0 21.65 15.85 21.9 L15.5 22.25 15.1 22.4 Q14.95 22.4 14.95 22.55 L15.0 22.7 15.25 22.7 16.2 22.1 16.95 22.2 Q17.4 22.2 17.4 22.0" fill="#333333" fill-rule="evenodd" stroke="none"/>
    <path d="M7.5 15.95 L7.5 15.4 7.65 15.4 7.75 14.95 8.15 13.7 Q8.55 13.2 9.65 12.5 L9.9 12.35 11.0 11.75 11.15 11.85 11.5 11.75 11.7 11.7 11.7 11.65 13.4 11.95 14.15 12.25 14.25 12.35 14.65 12.6 14.7 12.6 14.8 12.7 14.85 12.65 15.3 13.1 15.45 13.9 Q15.45 14.75 14.7 15.35 L13.7 16.0 13.55 16.1 13.15 16.25 12.6 16.45 12.35 16.4 12.25 16.25 Q12.25 16.1 12.4 16.05 L12.5 15.15 12.8 14.6 13.05 13.95 12.55 13.2 12.8 12.65 Q12.6 11.8 11.1 11.95 10.35 12.1 10.15 12.4 9.65 12.55 9.1 13.1 8.55 13.8 8.55 14.1 L8.8 14.5 9.15 14.5 8.95 15.35 8.8 15.95 8.95 16.65 9.0 16.65 9.05 16.7 9.05 16.95 9.0 16.95 8.35 16.95 8.2 16.9 8.05 16.9 Q7.8 16.9 7.65 16.4 L7.5 15.95 M9.6 13.2 L9.4 13.6 9.2 14.15 9.2 14.2 8.85 14.15 Q8.9 13.75 9.6 13.2" fill="#c8c8c8" fill-rule="evenodd" stroke="none"/>
    <path d="M9.75 13.7 L9.75 13.55 10.25 13.45 11.45 13.35 12.5 13.55 12.7 13.95 12.35 14.6 12.15 15.2 12.05 16.55 12.15 17.45 12.55 18.25 12.45 18.75 11.95 18.75 Q10.15 18.9 9.85 18.45 L9.45 17.65 9.15 16.0 9.55 14.1 9.7 13.95 9.75 13.7 M9.75 17.7 L9.95 17.9 10.85 18.0 11.35 17.95 11.35 17.25 Q11.2 16.8 11.2 15.8 L11.25 14.75 11.3 14.25 Q11.25 13.8 10.75 13.8 L10.15 13.9 Q9.7 14.1 9.7 14.3 L9.55 16.15 9.75 17.7" fill="#b17a56" fill-rule="evenodd" stroke="none"/>
    <path d="M9.15 14.5 L8.8 14.5 8.55 14.1 Q8.55 13.8 9.1 13.1 9.65 12.55 10.15 12.4 10.35 12.1 11.1 11.95 12.6 11.8 12.8 12.65 L12.55 13.2 12.2 13.3 12.15 13.1 12.2 13.0 11.55 12.95 9.8 13.05 9.6 13.2 Q8.9 13.75 8.85 14.15 L9.2 14.2 9.25 14.35 9.2 14.5 9.15 14.5" fill="#dddddd" fill-rule="evenodd" stroke="none"/>
    <path d="M15.3 13.1 L15.6 13.35 16.15 14.15 Q15.6 14.2 15.55 14.7 L15.45 15.4 15.4 16.9 15.4 17.4 Q15.5 17.85 15.85 17.85 L16.0 17.85 15.6 18.5 14.6 19.7 Q12.95 20.45 11.5 20.5 L11.15 20.4 11.05 20.45 10.45 20.3 9.9 19.9 9.75 19.9 9.25 19.6 8.05 18.4 Q7.45 17.05 7.45 16.1 L7.5 15.95 7.65 16.4 Q7.8 16.9 8.05 16.9 L8.2 16.9 8.35 16.95 9.0 16.95 9.15 17.8 9.25 18.25 9.6 18.7 10.3 19.1 10.95 19.05 12.2 19.1 Q12.85 19.1 12.85 18.25 L12.6 17.5 Q12.35 17.15 12.35 16.55 L12.35 16.4 12.6 16.45 13.15 16.25 13.55 16.1 13.7 16.0 14.7 15.35 Q15.45 14.75 15.45 13.9 L15.3 13.1" fill="#848484" fill-rule="evenodd" stroke="none"/>
    <path d="M10.05 17.55 L9.85 16.1 10.0 14.8 Q10.0 14.4 10.4 14.2 10.95 14.15 11.0 14.4 L10.95 14.7 10.65 14.65 10.4 14.7 10.4 14.95 10.65 15.0 10.95 15.0 10.9 15.5 10.8 15.45 Q10.4 15.45 10.4 15.75 L10.45 15.85 10.9 15.85 10.9 16.05 10.9 16.45 Q10.6 16.4 10.5 16.65 L10.55 16.8 10.95 16.8 11.05 17.4 11.05 17.65 10.65 17.65 10.05 17.55" fill="#5c3f2c" fill-rule="evenodd" stroke="none"/>
    <path d="M16.3 14.55 L16.45 15.05 16.5 15.9 16.35 17.15 16.25 17.35 16.25 17.3 16.2 17.15 Q16.0 17.15 15.75 17.4 L15.7 17.35 15.85 14.95 15.85 14.65 Q15.9 14.5 16.3 14.45 L16.3 14.55" fill="#f70000" fill-rule="evenodd" stroke="none"/>
    <path d="M14.95 8.65 L15.0 8.8 14.95 8.95 13.85 9.1 12.85 9.2 11.7 9.45 11.1 9.6 10.65 9.95 10.1 9.95 10.05 9.8 Q10.05 9.65 11.7 9.1 L12.75 8.9 12.85 8.85 12.95 8.85 14.25 8.7 14.45 8.65 14.95 8.65 M17.15 21.85 L17.35 21.85 17.4 22.0 Q17.4 22.2 16.95 22.2 L16.2 22.1 15.25 22.7 15.0 22.7 14.95 22.55 Q14.95 22.4 15.1 22.4 L15.5 22.25 15.85 21.9 Q16.0 21.65 16.35 21.75 L17.15 21.85" fill="#ffffff" fill-rule="evenodd" stroke="none"/>
    <path d="M16.7 21.1 Q14.6 19.0 14.6 16.0 14.6 13.0 16.7 10.85 18.85 8.75 21.85 8.75 24.85 8.75 26.95 10.85 29.1 13.0 29.1 16.0 29.1 19.0 26.95 21.1 24.85 23.25 21.85 23.25 18.85 23.25 16.7 21.1" fill="url(#gradient0)" fill-rule="evenodd" stroke="none"/>
  </g>
  <defs>
    <radialGradient cx="0" cy="0" gradientTransform="matrix(0.0096, 0.0, 0.0, 0.0096, 21.85, 16.0)" gradientUnits="userSpaceOnUse" id="gradient0" r="819.2" spreadMethod="pad">
      <stop offset="0.1607843137254902" stop-color="#ffffff" stop-opacity="0.92156863"/>
      <stop offset="0.30196078431372547" stop-color="#fd1313" stop-opacity="0.87058824"/>
      <stop offset="0.8705882352941177" stop-color="#e60000" stop-opacity="0.0"/>
    </radialGradient>
  </defs>
</svg>
