<?xml version="1.0" encoding="UTF-8" standalone="no"?>
<svg xmlns:xlink="http://www.w3.org/1999/xlink" height="57.05px" width="12.75px" xmlns="http://www.w3.org/2000/svg">
  <g transform="matrix(1.0, 0.0, 0.0, 1.0, -16.35, 2.05)">
    <path d="M19.45 -1.1 Q20.65 -1.65 23.05 -1.65 24.6 -1.65 26.0 -0.8 L27.3 0.15 27.25 0.15 27.25 38.7 27.1 38.85 27.1 39.05 25.35 39.45 21.35 39.6 19.0 39.25 18.35 39.05 18.25 38.7 18.25 0.25 18.3 0.25 18.6 0.0 Q18.45 -0.6 19.45 -1.1 M20.4 -0.6 Q19.85 -0.8 19.85 -0.2 19.85 1.1 24.05 1.1 L25.8 0.85 26.0 0.25 25.6 -0.15 25.65 0.45 23.95 0.55 22.35 0.35 Q20.35 0.2 20.35 -0.15 L20.4 -0.6" fill="url(#gradient0)" fill-rule="evenodd" stroke="none"/>
    <path d="M20.4 -0.6 L20.35 -0.15 Q20.35 0.2 22.35 0.35 L23.95 0.55 25.65 0.45 25.6 -0.15 26.0 0.25 25.8 0.85 24.05 1.1 Q19.85 1.1 19.85 -0.2 19.85 -0.8 20.4 -0.6 M19.45 -1.1 Q18.45 -0.6 18.6 0.0 L18.3 0.25 18.25 0.25 18.25 38.7 18.35 39.05 19.0 39.25 21.35 39.6 25.35 39.45 27.1 39.05 27.1 38.85 27.25 38.7 27.25 0.15 27.3 0.15 26.0 -0.8 Q24.6 -1.65 23.05 -1.65 20.65 -1.65 19.45 -1.1 M27.85 -0.2 L27.85 0.35 27.6 0.5 27.6 0.45 27.8 4.9 27.75 9.9 27.7 38.8 27.75 38.75 28.0 39.1 27.85 39.35 28.6 42.4 29.1 46.6 28.85 50.8 Q28.55 53.65 28.1 54.5 L27.85 54.15 26.6 54.65 24.35 55.0 19.8 54.55 18.65 54.05 18.35 54.15 Q17.6 52.8 17.0 50.05 16.35 47.35 16.35 45.6 L16.65 42.65 Q17.05 40.1 17.5 39.4 L17.5 39.0 17.8 38.9 18.0 38.95 Q17.65 36.15 17.75 19.6 17.75 5.15 18.0 -0.15 L18.0 -0.55 Q18.15 -2.4 22.7 -1.95 27.15 -1.5 27.85 -0.2 M17.75 39.75 L17.75 39.8 17.3 41.8 Q16.85 43.7 16.85 45.55 16.85 47.85 17.8 50.75 L18.7 53.45 18.85 53.5 Q19.25 53.9 20.0 54.0 L24.25 54.45 26.25 54.2 Q27.3 53.75 27.75 53.65 L27.9 53.75 28.6 46.55 Q28.6 44.9 28.0 41.85 L27.45 39.55 26.2 39.85 21.35 40.15 18.85 39.95 17.75 39.75 M24.6 47.75 L24.75 49.2 Q25.05 50.6 25.85 50.6 26.75 50.6 27.0 48.9 L27.1 47.15 Q27.1 46.35 26.7 45.3 L25.8 43.35 Q25.35 43.7 24.95 45.6 24.6 47.15 24.6 47.75 M27.6 47.2 Q27.45 51.25 26.0 51.25 24.75 51.25 24.3 49.55 L24.1 47.8 Q24.1 42.55 25.85 42.95 27.6 43.35 27.6 47.2" fill="#000000" fill-rule="evenodd" stroke="none"/>
    <path d="M17.75 39.75 L18.85 39.95 21.35 40.15 26.2 39.85 27.45 39.55 28.0 41.85 Q28.6 44.9 28.6 46.55 L27.9 53.75 27.75 53.65 Q27.3 53.75 26.25 54.2 L24.25 54.45 20.0 54.0 Q19.25 53.9 18.85 53.5 L18.7 53.45 17.8 50.75 Q16.85 47.85 16.85 45.55 16.85 43.7 17.3 41.8 L17.75 39.8 17.75 39.75 M27.6 47.2 Q27.6 43.35 25.85 42.95 24.1 42.55 24.1 47.8 L24.3 49.55 Q24.75 51.25 26.0 51.25 27.45 51.25 27.6 47.2" fill="url(#gradient1)" fill-rule="evenodd" stroke="none"/>
    <path d="M24.6 47.75 Q24.6 47.15 24.95 45.6 25.35 43.7 25.8 43.35 L26.7 45.3 Q27.1 46.35 27.1 47.15 L27.0 48.9 Q26.75 50.6 25.85 50.6 25.05 50.6 24.75 49.2 L24.6 47.75" fill="#d5ffff" fill-rule="evenodd" stroke="none"/>
  </g>
  <defs>
    <linearGradient gradientTransform="matrix(-0.013, 0.0053, -0.0093, -0.0226, 22.7, 19.25)" gradientUnits="userSpaceOnUse" id="gradient0" spreadMethod="pad" x1="-819.2" x2="819.2">
      <stop offset="0.0" stop-color="#ffffff"/>
      <stop offset="1.0" stop-color="#f2ede1"/>
    </linearGradient>
    <linearGradient gradientTransform="matrix(-0.0076, 0.0048, -0.0056, -0.0089, 23.15, 46.6)" gradientUnits="userSpaceOnUse" id="gradient1" spreadMethod="pad" x1="-819.2" x2="819.2">
      <stop offset="0.0" stop-color="#ffffff"/>
      <stop offset="1.0" stop-color="#f2ede1"/>
    </linearGradient>
  </defs>
</svg>
