<?xml version="1.0" encoding="UTF-8" standalone="no"?>
<svg xmlns:xlink="http://www.w3.org/1999/xlink" height="12.4px" width="12.4px" xmlns="http://www.w3.org/2000/svg">
  <g transform="matrix(1.0, 0.0, 0.0, 1.0, -2.45, -8.05)">
    <path d="M8.7 8.5 Q6.3 8.5 4.55 10.2 2.9 11.9 2.9 14.3 2.9 16.6 4.55 18.35 6.3 20.0 8.7 20.0 11.0 20.0 12.7 18.35 14.4 16.6 14.4 14.3 14.4 11.9 12.7 10.2 11.0 8.5 8.7 8.5 M8.7 8.05 Q11.2 8.05 13.0 9.95 14.85 11.7 14.85 14.3 14.85 16.8 13.0 18.7 11.2 20.45 8.7 20.45 6.1 20.45 4.2 18.7 2.45 16.8 2.45 14.3 2.45 11.7 4.2 9.95 6.1 8.05 8.7 8.05" fill="#000000" fill-rule="evenodd" stroke="none"/>
    <path d="M8.7 8.5 Q11.0 8.5 12.7 10.2 14.4 11.9 14.4 14.3 14.4 16.6 12.7 18.35 11.0 20.0 8.7 20.0 6.3 20.0 4.55 18.35 2.9 16.6 2.9 14.3 2.9 11.9 4.55 10.2 6.3 8.5 8.7 8.5" fill="url(#gradient0)" fill-rule="evenodd" stroke="none"/>
  </g>
  <defs>
    <linearGradient gradientTransform="matrix(0.0061, -0.0035, 0.0034, 0.0061, 8.6, 14.2)" gradientUnits="userSpaceOnUse" id="gradient0" spreadMethod="pad" x1="-819.2" x2="819.2">
      <stop offset="0.0" stop-color="#eed600"/>
      <stop offset="0.19607843137254902" stop-color="#fef292"/>
      <stop offset="0.36470588235294116" stop-color="#ecd502"/>
      <stop offset="0.6352941176470588" stop-color="#9a8b00"/>
      <stop offset="0.8627450980392157" stop-color="#fff9c4"/>
      <stop offset="1.0" stop-color="#c4c400"/>
    </linearGradient>
  </defs>
</svg>
