<?xml version="1.0" encoding="UTF-8" standalone="no"?>
<svg xmlns:xlink="http://www.w3.org/1999/xlink" height="23.8px" width="5.45px" xmlns="http://www.w3.org/2000/svg">
  <g transform="matrix(1.0, 0.0, 0.0, 1.0, 2.75, 19.5)">
    <path d="M0.05 -19.2 L-0.55 -18.7 -1.5 -17.9 -1.9 -16.6 -2.05 -15.6 -2.15 -15.35 -2.3 -15.15 -2.05 -14.25 Q-2.05 -13.65 -2.4 -13.3 -1.9 -12.1 -1.9 -11.55 L-2.2 -10.7 -1.9 -9.55 -1.4 -8.4 -1.4 -8.1 -1.2 -7.55 -1.45 -6.95 -1.15 -6.35 -1.15 -5.85 -0.95 -5.85 -0.5 -3.8 -0.2 -2.1 -0.8 3.0 -0.3 3.6 -0.3 3.8 Q0.05 3.8 0.3 4.1 L0.15 3.8 Q0.7 3.95 0.8 3.6 L0.95 3.1 0.65 1.5 0.4 -0.95 0.55 -3.0 0.9 -5.45 0.75 -5.75 1.0 -6.35 0.8 -6.8 0.75 -7.55 Q0.75 -8.2 1.0 -8.5 L1.6 -9.85 1.55 -9.95 1.65 -11.2 Q1.65 -12.25 2.2 -12.75 1.9 -13.0 2.15 -13.9 L1.9 -14.75 2.0 -14.95 1.8 -15.7 2.25 -16.7 1.6 -18.15 Q0.85 -19.25 0.05 -19.05 L0.05 -19.2 M0.05 -19.35 L0.4 -19.45 Q1.35 -19.45 2.05 -18.05 L2.55 -16.7 2.35 -16.15 2.1 -15.65 2.15 -15.0 2.25 -15.1 2.55 -13.65 2.55 -13.6 2.4 -13.55 2.35 -13.55 2.5 -13.0 2.55 -13.05 2.7 -12.85 2.4 -11.8 Q2.05 -11.3 2.05 -10.6 L2.05 -10.1 1.95 -9.9 1.95 -9.85 Q1.95 -9.15 1.5 -8.7 1.05 -8.2 1.05 -7.55 L1.2 -6.9 1.35 -6.4 1.35 -6.25 1.35 -6.0 1.3 -5.95 1.25 -6.0 1.2 -5.9 1.1 -5.7 1.2 -5.55 Q0.7 -1.95 0.7 -0.95 L0.9 1.25 1.15 3.0 1.2 3.15 1.2 3.4 1.2 3.5 Q1.1 4.3 0.5 4.3 L0.35 4.2 0.35 4.25 0.2 4.3 -0.7 4.0 -0.7 3.85 Q-1.1 3.7 -1.1 3.0 L-0.5 -2.05 -0.7 -3.6 -1.2 -5.35 -1.2 -5.8 -1.55 -6.2 -1.75 -6.95 -1.7 -8.25 -1.75 -8.45 -2.05 -9.2 -2.35 -9.95 -2.5 -10.65 -2.25 -11.55 -2.7 -12.35 -2.7 -13.25 -2.75 -13.4 -2.55 -13.8 -2.35 -14.25 -2.6 -15.15 -2.45 -16.0 -2.25 -16.55 Q-1.65 -19.1 0.0 -19.45 L0.05 -19.35 M0.7 -10.1 L0.55 -9.45 0.35 -9.45 0.3 -9.85 0.55 -10.25 0.65 -10.25 0.7 -10.1 M-1.45 -15.1 L-1.2 -15.1 -0.95 -13.8 -0.95 -13.3 -1.35 -12.8 -1.5 -13.0 -1.25 -13.75 -1.45 -14.45 -1.45 -15.1" fill="#000000" fill-rule="evenodd" stroke="none"/>
    <path d="M0.05 -19.2 L0.05 -19.05 Q0.85 -19.25 1.6 -18.15 L2.25 -16.7 1.8 -15.7 2.0 -14.95 1.9 -14.75 2.15 -13.9 Q1.9 -13.0 2.2 -12.75 1.65 -12.25 1.65 -11.2 L1.55 -9.95 1.6 -9.85 1.0 -8.5 Q0.75 -8.2 0.75 -7.55 L0.8 -6.8 1.0 -6.35 0.75 -5.75 0.9 -5.45 0.55 -3.0 0.4 -0.95 0.65 1.5 0.95 3.1 0.8 3.6 Q0.7 3.95 0.15 3.8 L0.3 4.1 Q0.05 3.8 -0.3 3.8 L-0.3 3.6 -0.8 3.0 -0.2 -2.1 -0.5 -3.8 -0.95 -5.85 -1.15 -5.85 -1.15 -6.35 -1.45 -6.95 -1.2 -7.55 -1.4 -8.1 -1.4 -8.4 -1.9 -9.55 -2.2 -10.7 -1.9 -11.55 Q-1.9 -12.1 -2.4 -13.3 -2.05 -13.65 -2.05 -14.25 L-2.3 -15.15 -2.15 -15.35 -2.05 -15.6 -1.9 -16.6 -1.5 -17.9 -0.55 -18.7 0.05 -19.2 M-1.45 -15.1 L-1.45 -14.45 -1.25 -13.75 -1.5 -13.0 -1.35 -12.8 -0.95 -13.3 -0.95 -13.8 -1.2 -15.1 -1.45 -15.1 M0.7 -10.1 L0.65 -10.25 0.55 -10.25 0.3 -9.85 0.35 -9.45 0.55 -9.45 0.7 -10.1" fill="#785829" fill-rule="evenodd" stroke="none"/>
  </g>
</svg>
