<?xml version="1.0" encoding="UTF-8" standalone="no"?>
<svg xmlns:xlink="http://www.w3.org/1999/xlink" height="69.4px" width="47.5px" xmlns="http://www.w3.org/2000/svg">
  <g transform="matrix(1.0, 0.0, 0.0, 1.0, -0.9, 16.6)">
    <path d="M37.95 3.5 L38.1 3.6 38.3 3.9 38.2 3.9 37.95 3.5 M37.35 3.2 L37.05 3.1 37.0 2.7 37.35 3.2 M23.5 2.75 L23.55 2.75 23.9 2.9 23.8 2.9 23.5 2.75 M21.45 3.95 L21.45 3.85 21.45 3.95" fill="#a6a6a6" fill-rule="evenodd" stroke="none"/>
    <path d="M14.4 -5.0 Q14.4 -5.3 17.8 -8.8 21.4 -12.5 23.05 -13.55 L23.1 -13.35 19.9 -10.05 14.9 -5.15 15.9 -5.1 16.0 -4.9 15.95 -4.7 15.8 -4.7 14.45 -4.7 14.4 -5.0 M13.75 -3.8 L13.7 -4.0 13.65 -3.9 9.65 0.25 7.55 2.4 Q5.4 3.55 5.4 4.1 L5.5 4.45 3.95 6.0 3.8 6.15 3.95 6.15 5.15 5.8 6.1 5.55 6.0 6.0 6.1 6.4 3.05 6.7 3.0 6.45 Q3.0 6.2 7.2 1.9 L13.6 -4.4 13.8 -4.2 16.55 -4.1 16.6 -4.0 Q16.15 -3.7 15.55 -3.7 L13.75 -3.8 M25.0 -16.5 L25.2 -16.3 Q28.5 -12.85 36.4 -6.45 44.95 0.5 48.15 3.65 L48.35 3.55 48.4 3.7 Q48.4 4.05 43.8 6.7 L43.9 6.8 43.55 7.05 43.55 38.05 Q44.35 38.5 44.55 39.1 L44.45 39.15 44.5 39.2 44.5 48.4 44.5 48.5 44.7 48.7 44.5 48.9 44.5 49.1 44.3 49.2 44.3 49.15 43.7 49.8 43.5 50.0 43.0 50.5 42.95 50.5 41.2 51.7 39.8 52.55 39.75 52.75 39.6 52.8 6.65 52.8 6.6 52.6 6.45 52.45 6.4 52.05 6.45 52.05 6.35 51.9 6.15 51.5 6.1 51.5 6.05 51.45 6.05 51.3 6.0 51.15 6.05 51.15 6.0 50.95 6.05 50.95 Q5.75 49.15 5.75 46.65 L5.8 41.7 6.0 41.5 6.3 41.2 6.45 41.1 6.7 40.9 6.7 7.4 0.95 7.4 0.9 7.15 0.95 7.0 1.05 6.95 1.45 6.95 Q1.9 5.9 10.5 -2.8 19.65 -12.0 24.6 -16.15 L24.6 -16.2 24.7 -16.35 24.9 -16.6 25.0 -16.5 M24.8 -15.95 Q19.45 -11.25 12.95 -4.55 L1.95 6.95 6.7 6.95 6.9 6.95 7.15 6.95 39.6 7.0 39.6 6.95 39.95 6.9 39.95 7.0 42.85 7.0 42.8 6.85 40.7 4.4 Q40.4 3.55 39.35 2.55 39.2 1.7 38.15 0.95 L34.0 -4.55 29.3 -10.25 25.1 -15.6 24.85 -15.6 24.8 -15.8 24.85 -15.95 24.8 -15.95 M24.3 -10.85 L23.7 -6.15 23.7 -5.55 24.55 -5.3 24.6 -5.2 24.3 -5.0 23.25 -5.1 23.2 -5.3 23.35 -7.2 23.3 -7.4 Q23.3 -8.3 23.55 -8.75 23.8 -11.35 24.1 -11.6 L24.3 -10.85 M24.5 -4.0 L23.7 -3.6 Q22.8 -3.05 22.55 -2.0 L22.2 0.2 22.0 1.15 Q21.5 1.45 21.45 1.9 L21.45 1.45 21.75 0.25 22.2 -2.95 Q22.7 -4.8 24.4 -4.15 L24.5 -4.0 M31.2 -9.55 L31.4 -9.8 35.3 -5.1 35.1 -4.9 32.9 -7.35 31.2 -9.55 M35.3 -5.0 Q35.3 -5.4 36.0 -5.3 L36.1 -5.1 35.55 -4.8 35.35 -4.85 35.3 -5.0 M37.0 2.7 Q36.9 1.9 36.35 1.65 L36.15 1.35 35.3 0.1 Q32.8 -3.6 32.35 -3.65 L32.3 -3.9 Q33.4 -3.6 34.9 -1.35 L36.3 0.95 36.8 1.7 37.15 2.6 Q37.5 3.25 37.95 3.5 L38.2 3.9 38.3 3.9 38.5 4.25 38.45 4.25 39.1 5.2 38.85 5.35 38.1 4.25 37.85 4.25 37.85 4.1 Q37.9 3.35 37.35 3.2 L37.0 2.7 M36.5 -4.0 L39.35 0.5 39.3 1.05 39.3 1.1 38.5 -0.1 Q36.1 -3.7 36.1 -4.05 L36.2 -4.25 Q36.3 -4.55 37.2 -4.8 L37.4 -4.6 36.5 -4.0 M37.85 -3.4 L38.0 -3.4 41.3 0.65 41.15 0.8 40.45 0.2 37.8 -3.2 37.85 -3.4 M43.2 6.45 L43.4 6.45 Q44.0 6.45 44.2 6.0 L44.25 5.95 45.8 5.1 47.8 3.8 43.05 -0.2 36.35 -6.2 29.9 -11.4 26.15 -14.6 Q29.8 -10.75 34.2 -5.1 L39.6 1.9 39.7 1.9 39.7 1.95 39.7 2.0 40.3 2.95 41.0 3.65 40.95 3.65 42.15 5.2 42.15 5.3 42.6 6.0 43.0 6.35 43.15 6.6 43.2 6.55 43.2 6.45 M41.75 12.05 L41.6 11.85 41.25 12.3 40.6 12.65 40.6 12.6 40.55 12.6 40.55 12.65 40.65 15.1 40.5 15.5 40.5 17.35 40.55 17.45 40.55 18.7 Q40.8 18.55 41.3 18.3 L41.35 18.35 41.55 18.25 41.6 18.15 42.7 17.6 42.7 11.55 41.75 12.05 M40.75 12.1 Q41.0 11.9 41.45 11.65 42.4 11.15 42.95 11.05 L42.95 11.25 43.05 11.3 43.05 17.75 42.9 17.8 42.8 17.8 40.55 18.95 40.25 19.0 40.25 18.1 Q40.0 17.7 40.05 16.9 L40.2 15.2 40.2 15.05 40.25 15.05 40.25 12.6 40.2 12.4 Q40.2 12.05 40.75 12.1 M42.95 19.05 L42.95 19.25 43.05 19.3 43.05 25.75 42.9 25.8 42.8 25.8 40.55 26.95 40.25 27.0 40.25 26.1 Q40.0 25.7 40.05 24.9 L40.2 23.2 40.2 23.05 40.25 23.05 40.25 20.6 40.2 20.4 Q40.2 20.05 40.75 20.1 41.0 19.9 41.45 19.65 42.4 19.15 42.95 19.05 M42.2 19.85 L40.6 20.65 40.6 20.6 40.55 20.6 40.55 20.65 40.65 23.1 40.5 23.5 40.5 25.35 40.55 25.45 40.55 26.7 41.55 26.15 42.7 25.6 42.7 19.55 42.3 19.8 42.25 19.75 42.2 19.85 M43.2 49.6 L43.45 49.3 Q43.9 48.8 44.25 48.65 44.1 47.15 44.1 44.05 L44.2 39.95 44.05 39.3 42.6 39.95 41.2 40.65 41.3 40.7 40.65 41.1 40.6 41.15 40.55 41.15 40.45 41.2 40.2 41.25 40.2 41.3 7.0 41.3 7.0 41.25 6.9 41.3 6.85 41.3 6.5 41.6 6.45 41.6 6.25 41.85 6.4 43.05 6.3 50.8 6.75 50.8 6.75 51.3 13.0 51.3 13.1 51.5 13.1 51.55 13.05 51.7 12.9 51.7 6.85 51.7 7.1 52.2 7.1 52.25 7.25 52.4 39.35 52.35 39.6 52.15 40.0 51.55 40.25 51.3 40.2 50.9 40.2 43.3 40.45 43.4 40.6 44.65 40.5 46.1 40.65 51.15 40.7 51.3 40.6 51.45 40.75 51.35 40.95 51.2 41.1 51.1 41.95 50.6 42.95 49.95 43.2 49.6 M40.2 40.15 L40.2 40.2 40.35 40.2 40.4 40.35 40.35 40.5 40.2 40.5 40.15 40.6 40.1 40.65 39.55 40.5 7.1 40.5 7.1 40.7 7.2 40.9 7.2 41.0 40.1 41.0 40.35 40.8 Q40.55 40.65 40.8 40.65 L41.85 40.05 Q43.2 39.4 44.0 39.1 L43.95 39.0 44.0 39.0 43.65 38.75 43.3 38.4 40.25 40.15 40.2 40.15 M40.6 39.65 L43.2 38.15 43.2 7.4 39.9 7.4 39.9 39.8 40.15 39.75 40.6 39.65 M21.45 3.95 L21.5 4.15 21.55 4.25 21.4 4.25 21.4 4.5 21.45 4.85 22.3 5.0 22.4 5.2 22.1 5.5 21.25 5.25 20.9 4.95 20.9 4.75 Q21.25 3.9 21.4 2.1 L21.6 2.6 21.4 3.7 21.45 3.85 21.45 3.95 M7.2 39.85 L7.25 40.0 7.2 40.1 39.45 40.2 39.5 40.0 39.45 39.75 39.6 22.9 39.45 22.85 39.45 22.35 39.6 14.65 39.6 7.4 7.15 7.4 7.15 39.85 7.15 39.9 7.2 39.85 M17.25 50.8 L17.3 50.8 17.4 51.0 17.25 50.8" fill="#000000" fill-rule="evenodd" stroke="none"/>
    <path d="M41.0 3.65 L41.05 3.65 41.7 4.6 42.1 5.1 42.15 5.2 40.95 3.65 41.0 3.65 M43.0 6.35 L43.2 6.45 43.2 6.55 43.15 6.6 43.0 6.35 M40.75 12.1 Q40.2 12.05 40.2 12.4 L40.25 12.6 40.25 15.05 40.2 15.05 40.2 15.2 40.05 16.9 Q40.0 17.7 40.25 18.1 L40.25 19.0 40.55 18.95 42.8 17.8 42.9 17.8 43.05 17.75 43.05 11.3 42.95 11.25 42.95 11.05 Q42.4 11.15 41.45 11.65 41.0 11.9 40.75 12.1 M42.95 19.05 Q42.4 19.15 41.45 19.65 41.0 19.9 40.75 20.1 40.2 20.05 40.2 20.4 L40.25 20.6 40.25 23.05 40.2 23.05 40.2 23.2 40.05 24.9 Q40.0 25.7 40.25 26.1 L40.25 27.0 40.55 26.95 42.8 25.8 42.9 25.8 43.05 25.75 43.05 19.3 42.95 19.25 42.95 19.05 M40.6 39.65 L40.15 39.75 39.9 39.8 39.9 7.4 43.2 7.4 43.2 38.15 40.6 39.65" fill="#5e5e5e" fill-rule="evenodd" stroke="none"/>
    <path d="M41.75 12.05 L42.7 11.55 42.7 17.6 41.6 18.15 Q42.6 15.4 42.6 14.7 L42.35 14.35 Q42.0 14.7 41.55 16.2 L41.1 17.95 41.3 18.3 Q40.8 18.55 40.55 18.7 L40.55 17.45 40.5 17.35 40.5 15.5 40.65 15.1 40.55 12.65 40.6 12.65 41.25 12.3 41.2 12.5 41.1 13.25 41.35 13.5 Q41.85 13.05 41.85 12.4 L41.75 12.05 M42.2 19.85 L41.4 21.2 Q40.85 22.45 40.85 22.85 L41.1 23.1 41.85 22.15 42.35 21.2 42.5 20.05 42.3 19.8 42.7 19.55 42.7 25.6 41.55 26.15 40.55 26.7 40.55 25.45 40.5 25.35 40.5 23.5 40.65 23.1 40.55 20.65 40.6 20.65 42.2 19.85 M42.0 24.5 L41.9 24.6 41.75 24.8 42.0 25.1 42.25 24.95 42.0 24.5 M41.25 24.35 L41.5 24.6 42.0 23.95 42.25 23.35 42.0 23.1 41.45 23.7 41.25 24.35" fill="#405059" fill-rule="evenodd" stroke="none"/>
    <path d="M41.25 12.3 L41.6 11.85 41.75 12.05 41.85 12.4 Q41.85 13.05 41.35 13.5 L41.1 13.25 41.2 12.5 41.25 12.3 M41.6 18.15 L41.55 18.25 41.35 18.35 41.3 18.3 41.1 17.95 41.55 16.2 Q42.0 14.7 42.35 14.35 L42.6 14.7 Q42.6 15.4 41.6 18.15 M42.3 19.8 L42.5 20.05 42.35 21.2 41.85 22.15 41.1 23.1 40.85 22.85 Q40.85 22.45 41.4 21.2 L42.2 19.85 42.25 19.75 42.3 19.8 M41.25 24.35 L41.45 23.7 42.0 23.1 42.25 23.35 42.0 23.95 41.5 24.6 41.25 24.35 M42.0 24.5 L42.25 24.95 42.0 25.1 41.75 24.8 41.9 24.6 42.0 24.5" fill="#92a6b1" fill-rule="evenodd" stroke="none"/>
    <path d="M40.2 41.3 L40.2 41.25 40.45 41.2 40.55 41.15 40.6 41.15 40.65 41.1 41.3 40.7 41.2 40.65 42.6 39.95 44.05 39.3 44.2 39.95 44.1 44.05 Q44.1 47.15 44.25 48.65 43.9 48.8 43.45 49.3 L43.2 49.6 41.9 50.5 41.05 51.05 40.7 51.3 40.65 51.15 40.5 46.1 40.6 44.65 40.45 43.4 40.2 43.3 40.2 41.3" fill="#808080" fill-rule="evenodd" stroke="none"/>
    <path d="M40.25 40.15 L43.3 38.4 43.65 38.75 44.0 39.0 43.95 39.0 44.0 39.1 Q43.2 39.4 41.85 40.05 L40.8 40.65 Q40.55 40.65 40.35 40.8 L40.1 41.0 7.2 41.0 7.2 40.9 7.1 40.7 7.1 40.5 39.55 40.5 40.1 40.65 40.15 40.6 40.2 40.5 40.35 40.5 40.4 40.35 40.35 40.2 40.2 40.2 40.2 40.15 40.25 40.15" fill="#9d9d9d" fill-rule="evenodd" stroke="none"/>
    <path d="M38.5 4.25 L38.6 4.4 39.15 5.2 39.1 5.2 38.45 4.25 38.5 4.25 M7.15 39.85 L7.15 7.4 39.6 7.4 39.6 14.65 39.45 22.35 39.45 22.85 39.6 22.9 39.45 39.75 39.5 40.0 39.45 40.2 7.2 40.1 7.25 40.0 7.2 39.85 7.15 39.85" fill="#7b7b7b" fill-rule="evenodd" stroke="none"/>
    <path d="M40.2 41.3 L40.2 43.3 40.2 50.9 40.25 51.3 40.0 51.55 39.6 52.15 39.35 52.35 7.25 52.4 7.1 52.25 7.1 52.2 6.85 51.7 12.9 51.7 13.05 51.7 13.1 51.55 13.1 51.5 13.0 51.3 6.75 51.3 6.75 50.8 6.3 50.8 6.4 43.05 6.25 41.85 6.45 41.6 6.5 41.6 6.85 41.3 6.9 41.3 7.0 41.25 7.0 41.3 40.2 41.3 M41.9 50.5 L43.2 49.6 42.95 49.95 41.95 50.6 41.9 50.5 M17.25 50.8 L17.4 51.0 17.3 50.8 17.25 50.8" fill="#bfbfbf" fill-rule="evenodd" stroke="none"/>
    <path d="M13.65 -3.9 L13.7 -4.0 13.75 -3.8 13.65 -3.9 M3.95 6.15 L3.8 6.15 3.95 6.0 3.95 6.15" fill="#d6c47e" fill-rule="evenodd" stroke="none"/>
    <path d="M14.4 -5.0 L14.45 -4.7 15.8 -4.7 15.95 -4.7 16.0 -4.9 15.9 -5.1 14.9 -5.15 19.9 -10.05 23.1 -13.35 23.05 -13.55 Q21.4 -12.5 17.8 -8.8 14.4 -5.3 14.4 -5.0 M13.65 -3.9 L13.75 -3.8 15.55 -3.7 Q16.15 -3.7 16.6 -4.0 L16.55 -4.1 13.8 -4.2 13.6 -4.4 7.2 1.9 Q3.0 6.2 3.0 6.45 L3.05 6.7 6.1 6.4 6.0 6.0 6.1 5.55 5.15 5.8 3.95 6.15 3.95 6.0 5.5 4.45 5.4 4.1 Q5.4 3.55 7.55 2.4 L9.65 0.25 13.65 -3.9 M37.95 3.5 Q37.5 3.25 37.15 2.6 L36.8 1.7 36.3 0.95 34.9 -1.35 Q33.4 -3.6 32.3 -3.9 L32.35 -3.65 Q32.8 -3.6 35.3 0.1 L36.15 1.35 36.35 1.65 Q36.9 1.9 37.0 2.7 L37.05 3.1 37.35 3.2 Q37.9 3.35 37.85 4.1 L37.85 4.25 38.1 4.25 38.85 5.35 39.1 5.2 39.15 5.2 38.6 4.4 38.5 4.25 38.3 3.9 38.1 3.6 37.95 3.5 M35.3 -5.0 L35.35 -4.85 35.55 -4.8 36.1 -5.1 36.0 -5.3 Q35.3 -5.4 35.3 -5.0 M31.2 -9.55 L32.9 -7.35 35.1 -4.9 35.3 -5.1 31.4 -9.8 31.2 -9.55 M24.5 -4.0 L24.4 -4.15 Q22.7 -4.8 22.2 -2.95 L21.75 0.25 21.45 1.45 21.45 1.9 Q21.5 1.45 22.0 1.15 L22.2 0.2 22.55 -2.0 Q22.8 -3.05 23.7 -3.6 L24.5 -4.0 M24.3 -10.85 L24.1 -11.6 Q23.8 -11.35 23.55 -8.75 23.3 -8.3 23.3 -7.4 L23.35 -7.2 23.2 -5.3 23.25 -5.1 24.3 -5.0 24.6 -5.2 24.55 -5.3 23.7 -5.55 23.7 -6.15 24.3 -10.85 M24.8 -15.95 L24.85 -15.95 24.8 -15.8 24.85 -15.6 25.1 -15.6 29.3 -10.25 34.0 -4.55 38.15 0.95 Q39.2 1.7 39.35 2.55 40.4 3.55 40.7 4.4 L42.8 6.85 42.85 7.0 39.95 7.0 39.95 6.9 39.6 6.95 39.6 7.0 7.15 6.95 6.9 6.95 6.7 6.95 1.95 6.95 12.95 -4.55 Q19.45 -11.25 24.8 -15.95 M41.0 3.65 L40.3 2.95 39.7 2.0 39.7 1.95 39.7 1.9 39.6 1.9 34.2 -5.1 Q29.8 -10.75 26.15 -14.6 L29.9 -11.4 36.35 -6.2 43.05 -0.2 47.8 3.8 45.8 5.1 44.25 5.95 44.2 6.0 Q44.0 6.45 43.4 6.45 L43.2 6.45 43.0 6.35 42.6 6.0 42.15 5.3 42.15 5.2 42.1 5.1 41.7 4.6 41.05 3.65 41.0 3.65 M37.85 -3.4 L37.8 -3.2 40.45 0.2 41.15 0.8 41.3 0.65 38.0 -3.4 37.85 -3.4 M36.5 -4.0 L37.4 -4.6 37.2 -4.8 Q36.3 -4.55 36.2 -4.25 L36.1 -4.05 Q36.1 -3.7 38.5 -0.1 L39.3 1.1 39.3 1.05 39.35 0.5 36.5 -4.0 M23.5 2.75 L23.8 2.9 23.9 2.9 23.55 2.75 23.5 2.75 M21.45 3.85 L21.4 3.7 21.6 2.6 21.4 2.1 Q21.25 3.9 20.9 4.75 L20.9 4.95 21.25 5.25 22.1 5.5 22.4 5.2 22.3 5.0 21.45 4.85 21.4 4.5 21.4 4.25 21.55 4.25 21.5 4.15 21.45 3.95 21.45 3.85" fill="#c4b9a2" fill-rule="evenodd" stroke="none"/>
  </g>
</svg>
