<?xml version="1.0" encoding="UTF-8" standalone="no"?>
<svg xmlns:xlink="http://www.w3.org/1999/xlink" height="95.1px" width="22.9px" xmlns="http://www.w3.org/2000/svg">
  <g transform="matrix(1.0, 0.0, 0.0, 1.0, -11.1, 40.1)">
    <path d="M20.8 -28.0 L20.9 -28.05 21.85 -33.45 22.5 -37.2 23.15 -32.2 Q23.6 -28.9 23.95 -27.85 L23.75 -13.35 23.75 -5.5 23.7 -1.55 23.9 1.85 21.25 1.65 20.8 1.65 20.85 -21.45 20.9 -25.45 20.8 -28.0 M11.6 -14.05 L12.3 -14.2 12.6 -12.35 Q13.45 -7.45 13.8 -6.4 15.0 -2.2 18.25 2.55 L19.05 3.7 19.0 3.75 19.25 4.0 21.2 6.85 20.2 8.9 19.5 10.1 19.35 10.0 19.05 10.25 18.45 10.45 Q17.95 10.45 17.45 9.45 L16.85 8.25 Q14.45 1.9 13.45 -1.7 11.6 -8.3 11.6 -14.05 M32.3 -16.75 Q33.5 -12.6 33.5 -9.3 33.5 -7.7 32.95 -4.35 L32.1 0.2 Q31.2 3.75 29.15 7.1 L27.25 9.8 27.25 9.85 26.75 9.05 24.9 6.5 Q27.9 3.2 30.05 -3.45 32.0 -9.55 32.0 -14.15 L31.85 -16.65 32.3 -16.75 M19.15 -19.2 L19.5 -12.85 Q20.0 -7.0 20.35 -6.6 L20.35 1.35 20.25 1.55 20.25 1.7 Q19.8 1.75 19.6 1.95 L19.3 3.3 18.7 2.45 17.9 1.25 18.0 1.2 18.1 0.95 18.0 0.4 18.0 0.3 17.85 -0.05 17.85 -0.35 17.7 -4.55 17.5 -8.8 Q17.5 -12.75 19.15 -19.2 M23.05 2.5 L24.85 2.35 24.6 3.15 Q24.6 4.25 25.65 4.35 L24.6 6.2 24.7 6.3 24.5 6.55 26.2 9.6 26.1 9.6 22.9 9.5 20.65 9.65 21.75 6.85 19.65 3.75 20.0 3.25 20.25 2.35 20.75 2.3 23.05 2.5 M20.15 10.5 L26.7 10.5 27.25 11.6 27.25 38.7 27.1 38.85 27.1 39.05 25.35 39.45 21.35 39.6 19.0 39.25 18.35 39.05 18.25 38.7 18.25 11.0 18.5 11.0 18.85 10.95 18.6 11.2 18.95 11.35 Q19.5 11.35 20.15 10.5" fill="url(#gradient0)" fill-rule="evenodd" stroke="none"/>
    <path d="M22.1 -39.9 L22.2 -40.0 22.25 -39.8 22.5 -40.1 22.75 -39.5 22.7 -38.55 23.65 -33.95 24.5 -27.55 24.45 -27.45 Q24.4 -27.35 24.25 -27.35 L24.3 -25.3 24.25 -21.3 24.25 -13.45 24.15 1.85 24.7 1.85 Q25.75 1.85 25.75 2.2 L25.1 3.15 25.15 3.55 25.85 3.95 28.05 -0.35 Q31.5 -7.3 31.5 -14.15 L31.35 -17.75 31.2 -19.5 31.0 -21.3 31.1 -21.4 31.15 -21.65 31.25 -21.65 31.25 -21.75 31.3 -21.65 31.65 -21.6 33.15 -15.5 Q34.0 -11.8 34.0 -9.3 34.0 -4.3 32.5 0.85 30.7 6.95 27.5 10.1 L27.35 10.0 27.5 10.5 27.75 10.5 27.7 38.8 27.75 38.75 28.0 39.1 27.85 39.35 28.6 42.4 29.1 46.6 28.85 50.8 Q28.55 53.65 28.1 54.5 L27.85 54.15 26.6 54.65 24.35 55.0 19.8 54.55 18.65 54.05 18.35 54.15 Q17.6 52.8 17.0 50.05 16.35 47.35 16.35 45.6 L16.65 42.65 Q17.05 40.1 17.5 39.4 L17.5 39.0 17.8 38.9 18.0 38.95 Q17.65 36.15 17.75 19.6 L17.8 10.7 17.7 10.6 17.75 10.75 17.5 11.0 Q14.3 3.75 12.85 -1.65 11.1 -8.05 11.1 -14.05 L11.15 -17.0 Q11.25 -18.7 11.75 -20.15 L11.8 -20.1 12.25 -20.65 12.5 -20.4 12.1 -19.55 Q12.1 -17.6 13.1 -12.4 13.85 -8.15 14.35 -6.35 15.15 -3.25 17.3 0.3 L17.2 -1.15 17.25 -4.1 17.0 -8.85 Q17.0 -12.6 17.45 -15.0 17.7 -16.6 18.3 -18.45 18.85 -20.4 19.25 -21.0 L19.5 -20.6 19.45 -20.35 20.1 -15.1 20.35 -12.5 20.35 -29.3 20.55 -29.35 Q20.65 -31.15 21.45 -34.55 L21.65 -37.6 Q21.75 -38.95 22.15 -39.65 L22.1 -39.9 M20.8 -28.0 L20.9 -25.45 20.85 -21.45 20.8 1.65 21.25 1.65 23.9 1.85 23.7 -1.55 23.75 -5.5 23.75 -13.35 23.95 -27.85 Q23.6 -28.9 23.15 -32.2 L22.5 -37.2 21.85 -33.45 20.9 -28.05 20.8 -28.0 M12.3 -14.2 L11.8 -17.4 11.6 -14.05 Q11.6 -8.3 13.45 -1.7 14.45 1.9 16.85 8.25 L17.45 9.45 Q17.95 10.45 18.45 10.45 L19.05 10.25 19.35 10.0 19.5 10.1 20.2 8.9 21.2 6.85 19.25 4.0 19.0 3.75 19.05 3.7 18.25 2.55 Q15.0 -2.2 13.8 -6.4 13.45 -7.45 12.6 -12.35 L12.3 -14.2 M16.85 8.25 L16.85 8.3 16.85 8.25 M19.15 -19.2 Q17.5 -12.75 17.5 -8.8 L17.7 -4.55 17.85 -0.35 17.85 -0.05 18.0 0.3 18.0 0.4 18.1 0.95 18.0 1.2 17.9 1.25 18.7 2.45 19.3 3.3 19.6 1.95 Q19.8 1.75 20.25 1.7 L20.25 1.55 20.35 1.35 20.35 -6.6 Q20.0 -7.0 19.5 -12.85 L19.15 -19.2 M31.85 -16.65 L32.0 -14.15 Q32.0 -9.55 30.05 -3.45 27.9 3.2 24.9 6.5 L26.75 9.05 27.25 9.85 27.25 9.8 29.15 7.1 Q31.2 3.75 32.1 0.2 L32.95 -4.35 Q33.5 -7.7 33.5 -9.3 33.5 -12.6 32.3 -16.75 L31.55 -19.5 31.85 -16.65 M23.05 2.5 L20.75 2.3 20.25 2.35 20.0 3.25 19.65 3.75 21.75 6.85 20.65 9.65 22.9 9.5 26.1 9.6 26.2 9.6 24.5 6.55 24.7 6.3 24.6 6.2 25.65 4.35 Q24.6 4.25 24.6 3.15 L24.85 2.35 23.05 2.5 M26.7 10.5 L26.5 10.2 25.85 10.25 21.35 10.1 20.4 10.1 20.15 10.5 Q19.5 11.35 18.95 11.35 L18.6 11.2 18.85 10.95 18.5 11.0 18.25 11.0 18.25 38.7 18.35 39.05 19.0 39.25 21.35 39.6 25.35 39.45 27.1 39.05 27.1 38.85 27.25 38.7 27.25 11.6 26.7 10.5 M17.75 39.8 L17.3 41.8 Q16.85 43.7 16.85 45.55 16.85 47.85 17.8 50.75 L18.7 53.45 18.85 53.5 Q19.25 53.9 20.0 54.0 L24.25 54.45 26.25 54.2 Q27.3 53.75 27.75 53.65 L27.9 53.75 28.6 46.55 Q28.6 44.9 28.0 41.85 L27.45 39.55 26.2 39.85 21.35 40.15 18.85 39.95 17.75 39.75 17.75 39.8 M24.75 49.2 Q25.05 50.6 25.85 50.6 26.75 50.6 27.0 48.9 L27.1 47.15 Q27.1 46.35 26.7 45.3 L25.8 43.35 Q25.35 43.7 24.95 45.6 24.6 47.15 24.6 47.75 L24.75 49.2 M25.85 42.95 Q27.6 43.35 27.6 47.2 27.45 51.25 26.0 51.25 24.75 51.25 24.3 49.55 L24.1 47.8 Q24.1 42.55 25.85 42.95" fill="#000000" fill-rule="evenodd" stroke="none"/>
    <path d="M17.75 39.8 L17.75 39.75 18.85 39.95 21.35 40.15 26.2 39.85 27.45 39.55 28.0 41.85 Q28.6 44.9 28.6 46.55 L27.9 53.75 27.75 53.65 Q27.3 53.75 26.25 54.2 L24.25 54.45 20.0 54.0 Q19.25 53.9 18.85 53.5 L18.7 53.45 17.8 50.75 Q16.85 47.85 16.85 45.55 16.85 43.7 17.3 41.8 L17.75 39.8 M25.85 42.95 Q24.1 42.55 24.1 47.8 L24.3 49.55 Q24.75 51.25 26.0 51.25 27.45 51.25 27.6 47.2 27.6 43.35 25.85 42.95" fill="url(#gradient1)" fill-rule="evenodd" stroke="none"/>
    <path d="M24.75 49.2 L24.6 47.75 Q24.6 47.15 24.95 45.6 25.35 43.7 25.8 43.35 L26.7 45.3 Q27.1 46.35 27.1 47.15 L27.0 48.9 Q26.75 50.6 25.85 50.6 25.05 50.6 24.75 49.2" fill="#d5ffff" fill-rule="evenodd" stroke="none"/>
  </g>
  <defs>
    <linearGradient gradientTransform="matrix(-0.013, 0.0053, -0.0093, -0.0226, 22.7, 19.25)" gradientUnits="userSpaceOnUse" id="gradient0" spreadMethod="pad" x1="-819.2" x2="819.2">
      <stop offset="0.0" stop-color="#ffffff"/>
      <stop offset="1.0" stop-color="#f2ede1"/>
    </linearGradient>
    <linearGradient gradientTransform="matrix(-0.0076, 0.0048, -0.0056, -0.0089, 23.15, 46.6)" gradientUnits="userSpaceOnUse" id="gradient1" spreadMethod="pad" x1="-819.2" x2="819.2">
      <stop offset="0.0" stop-color="#ffffff"/>
      <stop offset="1.0" stop-color="#f2ede1"/>
    </linearGradient>
  </defs>
</svg>
