<?xml version="1.0" encoding="UTF-8" standalone="no"?>
<svg xmlns:xlink="http://www.w3.org/1999/xlink" height="4.25px" width="4.95px" xmlns="http://www.w3.org/2000/svg">
  <g transform="matrix(1.0, 0.0, 0.0, 1.0, -16.6, 38.05)">
    <path d="M21.3 -34.5 Q20.5 -34.9 19.95 -34.9 18.95 -34.9 17.95 -34.35 L17.1 -33.8 Q16.8 -33.8 16.8 -33.95 L16.8 -34.1 17.05 -34.6 17.25 -35.3 16.95 -36.05 Q16.6 -36.6 16.6 -36.85 16.85 -38.5 17.7 -37.9 L19.1 -36.6 Q19.1 -36.25 18.85 -36.25 L17.95 -36.8 17.25 -37.45 Q17.1 -37.3 17.1 -36.85 L17.4 -35.9 17.7 -34.95 17.7 -34.9 19.95 -35.4 21.1 -35.15 21.55 -34.8 Q21.55 -34.5 21.3 -34.5" fill="#990000" fill-rule="evenodd" stroke="none"/>
  </g>
</svg>
