<?xml version="1.0" encoding="UTF-8" standalone="no"?>
<svg xmlns:xlink="http://www.w3.org/1999/xlink" height="2.95px" width="9.15px" xmlns="http://www.w3.org/2000/svg">
  <g transform="matrix(1.0, 0.0, 0.0, 1.0, -20.35, 35.5)">
    <path d="M25.85 -33.7 L26.0 -33.9 26.65 -34.05 25.0 -34.4 23.0 -34.95 Q22.95 -34.75 22.45 -34.75 L21.2 -34.95 20.35 -35.2 Q20.35 -35.5 20.7 -35.5 L22.2 -35.25 22.6 -35.2 Q22.65 -35.4 23.0 -35.4 L26.45 -34.6 28.35 -34.25 Q29.5 -34.05 29.5 -33.65 29.5 -33.45 26.7 -33.0 L23.3 -32.55 Q22.8 -32.55 22.8 -32.8 22.8 -33.15 25.25 -33.45 L26.0 -33.55 25.85 -33.7" fill="#990000" fill-rule="evenodd" stroke="none"/>
  </g>
</svg>
