<?xml version="1.0" encoding="UTF-8" standalone="no"?>
<svg xmlns:xlink="http://www.w3.org/1999/xlink" height="28.3px" width="60.65px" xmlns="http://www.w3.org/2000/svg">
  <g transform="matrix(1.0, 0.0, 0.0, 1.0, 30.35, 14.15)">
    <path d="M24.55 8.5 L24.55 8.95 23.95 9.1 23.1 9.35 21.55 9.8 21.0 9.95 20.5 10.05 20.4 10.05 Q18.2 10.45 15.15 11.6 11.6 12.95 9.4 13.35 L8.5 13.4 7.95 13.35 8.05 13.55 7.9 13.8 7.7 14.15 7.4 13.85 6.75 13.65 6.1 13.85 5.95 13.95 5.85 13.9 5.6 13.8 5.4 13.8 1.55 12.85 Q-1.35 11.9 -2.3 11.4 -3.25 10.95 -5.4 9.5 -7.8 8.35 -11.55 8.35 L-13.35 8.25 -14.1 8.15 -15.4 8.3 -15.85 8.15 -17.5 8.25 -20.7 8.35 Q-22.9 8.35 -26.35 7.35 -29.65 6.4 -29.9 5.6 L-30.35 5.35 -30.1 5.1 Q-29.9 5.1 -29.0 5.45 L-27.9 5.75 Q-25.0 5.75 -22.4 3.7 -20.9 2.5 -18.8 -0.1 L-14.65 -4.0 Q-12.15 -6.15 -11.4 -6.25 L-11.3 -6.45 -11.05 -7.15 -11.05 -7.8 Q-11.0 -8.15 -10.5 -8.15 L-10.35 -8.05 -9.05 -8.0 Q-7.9 -8.0 -7.45 -9.0 L-6.75 -10.05 Q-5.55 -9.3 -4.75 -9.3 -3.75 -9.3 -3.4 -9.65 L-2.5 -10.85 Q-2.1 -11.25 -1.05 -10.6 L-0.2 -10.3 -0.4 -11.2 Q-0.4 -11.4 0.9 -11.85 L2.8 -12.3 4.15 -11.3 Q5.4 -10.35 6.55 -10.35 L8.4 -10.2 9.15 -10.1 11.4 -10.55 13.05 -11.05 13.15 -11.05 Q13.85 -11.4 13.95 -11.5 L14.95 -12.5 15.3 -13.6 Q15.5 -14.25 16.2 -14.1 L18.35 -13.65 Q18.35 -12.95 17.55 -11.9 L16.75 -10.45 17.15 -9.85 17.45 -9.4 17.95 -9.2 Q18.35 -9.0 18.45 -9.0 18.7 -9.0 20.45 -10.2 21.6 -11.0 21.7 -9.5 22.0 -8.3 22.35 -8.0 L24.7 -6.9 Q26.45 -8.05 26.75 -8.05 27.1 -8.05 27.1 -7.1 L27.15 -5.7 27.55 -5.25 27.6 -5.2 27.65 -5.15 28.7 -3.95 Q30.3 -1.85 30.3 -0.15 30.3 0.3 30.1 0.3 L29.7 -0.75 29.15 -2.4 27.8 -4.15 27.45 -4.55 Q26.75 -4.95 26.7 -5.35 26.55 -5.95 26.55 -7.35 L24.75 -6.3 23.15 -7.1 22.4 -7.4 Q21.8 -7.65 21.7 -7.95 21.2 -8.9 21.05 -9.8 18.95 -8.45 18.45 -8.45 L17.3 -8.9 17.1 -8.8 15.65 -6.85 14.55 -4.35 13.35 -1.25 12.75 0.15 12.8 0.35 12.55 0.7 11.75 0.9 7.65 1.1 Q7.1 5.4 7.1 8.4 L7.35 11.15 7.85 13.15 9.25 13.0 Q11.05 12.8 12.25 12.2 13.3 11.7 15.1 11.1 19.95 9.15 21.2 9.3 L22.7 8.9 23.9 8.65 23.9 8.75 24.2 8.85 24.55 8.5 M21.05 -9.8 L21.05 -9.85 21.05 -9.8 M17.8 -13.4 L17.0 -13.5 16.0 -13.65 Q15.65 -12.75 14.9 -11.8 13.8 -10.3 12.75 -10.3 L12.55 -10.3 11.8 -10.1 9.15 -9.6 Q5.4 -9.6 4.05 -10.65 L2.7 -11.75 0.1 -11.1 0.4 -10.25 0.7 -9.95 0.55 -9.65 0.55 -9.55 2.1 -4.55 3.4 -1.75 Q4.2 -0.25 5.0 0.2 L5.45 0.4 5.75 0.5 7.05 0.6 8.15 0.55 8.3 0.4 10.4 0.45 11.65 0.35 12.1 0.4 12.1 0.35 14.1 -4.8 Q14.95 -7.1 16.2 -8.55 L16.75 -9.05 16.75 -9.15 16.9 -9.4 16.25 -10.4 Q16.25 -11.05 16.85 -11.9 L17.8 -13.4 M-2.65 -9.65 Q-3.3 -8.8 -4.85 -8.8 L-6.75 -9.4 Q-7.6 -7.4 -7.8 -7.4 L-8.05 -7.45 -8.05 -7.5 -10.45 -7.55 -10.7 -6.4 Q-11.0 -5.65 -11.3 -5.65 L-11.45 -5.65 -13.75 -3.9 Q-16.9 -1.5 -18.55 0.45 -19.9 2.4 -21.2 3.55 -24.2 6.15 -27.7 6.25 L-26.3 6.85 -24.1 7.4 -21.1 7.85 -16.7 7.7 -15.85 7.6 -15.25 7.75 -14.05 7.65 -10.75 7.8 Q-7.75 7.8 -5.05 9.15 L-2.05 10.95 1.65 12.45 5.55 13.4 Q5.25 12.6 5.1 10.8 L4.9 7.65 5.1 0.95 5.15 0.85 4.6 0.6 Q3.8 0.15 3.1 -1.25 L1.8 -4.1 0.85 -6.75 0.05 -9.55 -0.05 -9.75 Q-0.7 -9.95 -2.1 -10.5 L-2.65 -9.65 M7.1 1.1 L6.1 1.05 5.9 1.2 5.75 1.2 5.6 4.1 5.4 7.65 5.6 10.65 6.15 13.25 6.85 13.15 7.2 13.3 6.85 11.3 6.6 8.4 Q6.7 2.45 7.15 1.1 L7.1 1.1" fill="#000000" fill-rule="evenodd" stroke="none"/>
    <path d="M17.8 -13.4 L16.85 -11.9 Q16.25 -11.05 16.25 -10.4 L16.9 -9.4 16.75 -9.15 16.75 -9.05 16.2 -8.55 Q14.95 -7.1 14.1 -4.8 L12.1 0.35 12.1 0.4 11.65 0.35 10.4 0.45 8.3 0.4 8.15 0.55 7.05 0.6 5.75 0.5 5.45 0.4 5.0 0.2 Q4.2 -0.25 3.4 -1.75 L2.1 -4.55 0.55 -9.55 0.55 -9.65 0.7 -9.95 0.4 -10.25 0.1 -11.1 2.7 -11.75 4.05 -10.65 Q5.4 -9.6 9.15 -9.6 L11.8 -10.1 12.55 -10.3 12.75 -10.3 Q13.8 -10.3 14.9 -11.8 15.65 -12.75 16.0 -13.65 L17.0 -13.5 17.8 -13.4 M7.1 1.1 L7.15 1.1 Q6.7 2.45 6.6 8.4 L6.85 11.3 7.2 13.3 6.85 13.15 6.15 13.25 5.6 10.65 5.4 7.65 5.6 4.1 5.75 1.2 5.9 1.2 6.1 1.05 7.1 1.1" fill="#a58b52" fill-rule="evenodd" stroke="none"/>
    <path d="M30.1 0.3 L30.1 0.95 29.9 3.25 Q29.6 4.2 28.6 5.0 L26.05 6.95 24.55 8.5 24.2 8.85 23.9 8.75 23.9 8.65 22.7 8.9 21.2 9.3 Q19.95 9.15 15.1 11.1 13.3 11.7 12.25 12.2 11.05 12.8 9.25 13.0 L7.85 13.15 7.35 11.15 7.1 8.4 Q7.1 5.4 7.65 1.1 L11.75 0.9 12.55 0.7 12.8 0.35 12.75 0.15 13.35 -1.25 14.55 -4.35 15.65 -6.85 17.1 -8.8 17.3 -8.9 18.45 -8.45 Q18.95 -8.45 21.05 -9.8 21.2 -8.9 21.7 -7.95 21.8 -7.65 22.4 -7.4 L23.15 -7.1 24.75 -6.3 26.55 -7.35 Q26.55 -5.95 26.7 -5.35 26.75 -4.95 27.45 -4.55 L27.8 -4.15 29.15 -2.4 29.7 -0.75 30.1 0.3 M-2.65 -9.65 L-2.1 -10.5 Q-0.7 -9.95 -0.05 -9.75 L0.05 -9.55 0.85 -6.75 1.8 -4.1 3.1 -1.25 Q3.8 0.15 4.6 0.6 L5.15 0.85 5.1 0.95 4.9 7.65 5.1 10.8 Q5.25 12.6 5.55 13.4 L1.65 12.45 -2.05 10.95 -5.05 9.15 Q-7.75 7.8 -10.75 7.8 L-14.05 7.65 -15.25 7.75 -15.85 7.6 -16.7 7.7 -21.1 7.85 -24.1 7.4 -26.3 6.85 -27.7 6.25 Q-24.2 6.15 -21.2 3.55 -19.9 2.4 -18.55 0.45 -16.9 -1.5 -13.75 -3.9 L-11.45 -5.65 -11.3 -5.65 Q-11.0 -5.65 -10.7 -6.4 L-10.45 -7.55 -8.05 -7.5 -8.05 -7.45 -7.8 -7.4 Q-7.6 -7.4 -6.75 -9.4 L-4.85 -8.8 Q-3.3 -8.8 -2.65 -9.65" fill="#418822" fill-rule="evenodd" stroke="none"/>
  </g>
</svg>
