<?xml version="1.0" encoding="UTF-8" standalone="no"?>
<svg xmlns:xlink="http://www.w3.org/1999/xlink" height="21.1px" width="28.35px" xmlns="http://www.w3.org/2000/svg">
  <g transform="matrix(1.0, 0.0, 0.0, 1.0, 14.15, 10.55)">
    <path d="M-9.1 3.2 L-9.15 3.2 Q-10.65 3.2 -12.05 1.55 -13.15 0.35 -13.25 -0.25 L-14.0 -2.35 -14.15 -4.15 Q-14.15 -7.05 -11.9 -8.8 -9.9 -10.3 -7.25 -10.3 L-6.0 -10.15 -5.85 -9.95 -5.85 -9.75 -4.8 -8.9 -4.3 -8.4 -2.6 -6.85 -1.5 -5.4 -0.55 -4.35 0.0 -4.65 1.2 -4.95 Q1.6 -4.95 1.95 -4.6 L2.2 -4.35 3.1 -3.75 4.15 -3.2 Q4.65 -2.4 5.95 -1.9 L6.15 -1.85 6.3 -1.8 Q6.25 -1.45 6.6 -1.05 6.95 -0.65 7.4 -0.45 L8.6 0.15 8.65 0.2 8.8 0.5 8.9 0.85 10.2 2.25 11.3 2.65 Q11.75 2.8 11.75 3.5 L11.6 3.85 11.4 4.15 11.3 4.5 10.85 7.1 8.45 8.65 6.75 9.7 6.6 9.65 6.05 9.85 5.5 10.0 3.15 8.7 Q0.7 7.95 0.5 7.6 L-0.3 6.05 -0.95 4.9 Q-1.2 4.6 -1.2 5.2 L-1.0 5.75 -1.45 5.5 Q-2.35 5.0 -3.1 5.05 L-3.25 3.35 -3.4 2.5 Q-3.5 1.6 -3.9 2.55 L-3.75 4.0 -4.5 3.6 -4.7 3.5 -6.0 3.1 -6.05 3.1 -7.7 2.9 -8.85 3.05 -9.1 3.2 M5.8 1.65 L6.75 2.5 7.0 2.25 5.3 0.15 4.1 -0.9 Q3.35 -1.5 2.4 -1.8 L2.5 -2.15 Q2.5 -2.65 2.2 -2.35 L1.9 -1.7 Q1.9 -1.45 3.0 -0.8 2.65 -0.3 2.65 0.4 L2.7 0.8 3.7 1.15 5.8 1.65 M9.15 5.3 L9.45 5.4 10.8 4.5 Q9.15 3.75 9.15 5.15 L9.15 5.3" fill="#418822" fill-rule="evenodd" stroke="none"/>
    <path d="M-6.0 -10.15 L-6.0 -10.55 -5.45 -10.2 -4.55 -9.35 -3.5 -8.5 -0.55 -5.05 -0.05 -5.25 1.2 -5.45 Q1.8 -5.45 2.35 -5.0 L2.55 -4.8 2.8 -4.65 3.75 -3.95 4.45 -3.8 4.6 -3.85 5.0 -3.7 6.35 -4.9 Q6.8 -5.5 6.8 -3.75 L6.7 -2.15 6.8 -1.75 Q6.8 -1.45 7.45 -1.05 8.0 -0.65 8.65 -0.45 L9.3 0.05 9.45 0.15 Q11.1 0.15 13.1 -2.6 L13.7 -4.05 Q14.3 -4.1 14.15 -2.8 L13.85 0.15 12.9 1.7 12.15 2.7 12.25 3.5 12.1 4.0 11.85 4.35 11.55 6.25 11.25 7.6 6.35 10.55 6.15 10.45 6.15 10.4 5.55 10.55 Q5.2 10.55 4.25 9.95 L3.15 9.25 1.65 8.85 Q0.9 8.65 0.3 8.25 -0.05 8.05 -0.65 6.65 L-0.75 6.4 -0.9 6.4 -1.65 6.0 Q-2.3 5.55 -2.75 5.55 L-3.05 5.65 -3.2 5.7 Q-3.5 5.7 -3.65 4.65 L-4.5 4.25 -6.0 3.7 -6.05 3.65 -7.75 3.4 -9.1 3.55 -9.1 3.2 -8.85 3.05 -7.7 2.9 -6.05 3.1 -6.0 3.1 -4.7 3.5 -4.5 3.6 -3.75 4.0 -3.9 2.55 Q-3.5 1.6 -3.4 2.5 L-3.25 3.35 -3.1 5.05 Q-2.35 5.0 -1.45 5.5 L-1.0 5.75 -1.2 5.2 Q-1.2 4.6 -0.95 4.9 L-0.3 6.05 0.5 7.6 Q0.7 7.95 3.15 8.7 L5.5 10.0 6.05 9.85 6.6 9.65 6.75 9.7 8.45 8.65 10.85 7.1 11.3 4.5 11.4 4.15 11.6 3.85 11.75 3.5 Q11.75 2.8 11.3 2.65 L10.2 2.25 8.9 0.85 8.8 0.5 8.65 0.2 8.6 0.15 7.4 -0.45 Q6.95 -0.65 6.6 -1.05 6.25 -1.45 6.3 -1.8 L6.15 -1.85 5.95 -1.9 Q4.65 -2.4 4.15 -3.2 L3.1 -3.75 2.2 -4.35 1.95 -4.6 Q1.6 -4.95 1.2 -4.95 L0.0 -4.65 -0.55 -4.35 -1.5 -5.4 -2.6 -6.85 -4.3 -8.4 -4.8 -8.9 -5.85 -9.75 -5.85 -9.95 -6.0 -10.15 M13.65 -2.5 Q11.4 0.65 9.55 0.65 L9.45 0.65 9.6 0.9 11.65 2.25 11.75 2.3 12.5 1.45 Q13.45 0.15 13.65 -1.7 L13.65 -2.5 M6.3 -3.75 L6.25 -3.8 Q5.75 -3.2 5.0 -3.2 L5.4 -2.8 6.05 -2.4 6.3 -2.8 6.3 -3.75 M5.8 1.65 L3.7 1.15 2.7 0.8 2.65 0.4 Q2.65 -0.3 3.0 -0.8 1.9 -1.45 1.9 -1.7 L2.2 -2.35 Q2.5 -2.65 2.5 -2.15 L2.4 -1.8 Q3.35 -1.5 4.1 -0.9 L5.3 0.15 7.0 2.25 6.75 2.5 5.8 1.65 M3.4 -0.45 L3.15 0.05 3.15 0.5 5.25 0.9 4.75 0.3 3.45 -0.55 3.4 -0.45 M9.15 5.3 L9.15 5.15 Q9.15 3.75 10.8 4.5 L9.45 5.4 9.15 5.3" fill="#000000" fill-rule="evenodd" stroke="none"/>
    <path d="M6.3 -3.75 L6.3 -2.8 6.05 -2.4 5.4 -2.8 5.0 -3.2 Q5.75 -3.2 6.25 -3.8 L6.3 -3.75 M13.65 -2.5 L13.65 -1.7 Q13.45 0.15 12.5 1.45 L11.75 2.3 11.65 2.25 9.6 0.9 9.45 0.65 9.55 0.65 Q11.4 0.65 13.65 -2.5" fill="#e9e9c9" fill-rule="evenodd" stroke="none"/>
    <path d="M3.4 -0.45 L3.45 -0.55 4.75 0.3 5.25 0.9 3.15 0.5 3.15 0.05 3.4 -0.45" fill="#ffff55" fill-rule="evenodd" stroke="none"/>
  </g>
</svg>
