<?xml version="1.0" encoding="UTF-8" standalone="no"?>
<svg xmlns:xlink="http://www.w3.org/1999/xlink" height="12.25px" width="14.95px" xmlns="http://www.w3.org/2000/svg">
  <g transform="matrix(1.0, 0.0, 0.0, 1.0, 7.45, 6.15)">
    <path d="M-6.65 -5.85 L-5.4 -6.15 -4.1 -5.95 Q-3.25 -5.8 -3.0 -5.95 L4.2 -5.2 Q7.4 -4.6 7.5 -3.7 L7.5 -3.6 7.2 -3.4 7.05 -3.5 6.85 -2.6 Q6.55 -0.9 6.05 0.2 L4.3 2.85 3.45 4.0 3.55 4.25 3.5 4.5 Q3.2 4.9 2.05 5.4 0.55 6.1 -0.5 6.1 -2.1 6.1 -3.1 5.0 -3.9 4.2 -3.9 3.6 L-3.9 3.55 -3.75 3.3 -5.35 0.15 Q-6.95 -3.25 -6.95 -4.45 L-6.65 -5.6 -6.7 -5.75 -6.65 -5.85" fill="#418822" fill-rule="evenodd" stroke="none"/>
    <path d="M7.5 -3.6 L7.1 -1.45 6.5 0.5 Q4.15 4.45 3.5 4.5 L3.55 4.25 3.45 4.0 4.3 2.85 6.05 0.2 Q6.55 -0.9 6.85 -2.6 L7.05 -3.5 7.2 -3.4 7.5 -3.6 M-3.9 3.55 L-3.95 3.55 Q-4.8 3.55 -6.2 -0.4 L-7.45 -4.45 Q-6.75 -6.5 -6.65 -5.85 L-6.7 -5.75 -6.65 -5.6 -6.95 -4.45 Q-6.95 -3.25 -5.35 0.15 L-3.75 3.3 -3.9 3.55" fill="#000000" fill-rule="evenodd" stroke="none"/>
  </g>
</svg>
