<?xml version="1.0" encoding="UTF-8" standalone="no"?>
<svg xmlns:xlink="http://www.w3.org/1999/xlink" height="12.6px" width="14.05px" xmlns="http://www.w3.org/2000/svg">
  <g transform="matrix(1.0, 0.0, 0.0, 1.0, 7.05, 6.3)">
    <path d="M-6.65 -0.95 L-6.65 -1.1 Q-6.65 -1.85 -6.1 -2.6 L-4.95 -4.1 -3.4 -5.55 Q-2.0 -6.3 0.5 -6.3 L3.0 -5.55 3.2 -5.5 3.2 -5.4 4.75 -3.75 Q6.5 -1.7 6.5 0.65 6.5 1.75 6.15 2.85 L5.75 3.95 5.75 4.0 Q6.0 3.85 6.0 4.2 L6.0 4.25 Q5.95 4.9 5.0 5.5 3.85 6.3 2.05 6.3 L0.3 6.05 -0.5 5.8 -0.7 5.9 -0.85 5.9 -0.95 5.6 -0.9 5.45 -1.05 5.4 Q-2.7 5.4 -4.75 3.15 -6.55 1.2 -6.55 0.3 L-6.4 -0.7 -6.4 -0.8 Q-6.45 -1.2 -6.65 -0.95" fill="#418822" fill-rule="evenodd" stroke="none"/>
    <path d="M3.0 -5.55 Q3.0 -5.8 3.35 -5.8 L4.75 -4.55 6.15 -2.65 6.65 -1.1 7.0 0.65 6.75 2.5 Q6.45 4.25 6.0 4.25 L6.0 4.2 Q6.0 3.85 5.75 4.0 L5.75 3.95 6.15 2.85 Q6.5 1.75 6.5 0.65 6.5 -1.7 4.75 -3.75 L3.2 -5.4 3.2 -5.5 3.0 -5.55 M-0.85 5.9 L-1.1 5.95 Q-2.9 5.95 -5.1 3.55 -7.05 1.4 -7.05 0.3 -7.05 -0.55 -6.7 -0.9 L-6.65 -0.95 Q-6.45 -1.2 -6.4 -0.8 L-6.4 -0.7 -6.55 0.3 Q-6.55 1.2 -4.75 3.15 -2.7 5.4 -1.05 5.4 L-0.9 5.45 -0.95 5.6 -0.85 5.9" fill="#000000" fill-rule="evenodd" stroke="none"/>
  </g>
</svg>
