<?xml version="1.0" encoding="UTF-8" standalone="no"?>
<svg xmlns:xlink="http://www.w3.org/1999/xlink" height="15.8px" width="8.65px" xmlns="http://www.w3.org/2000/svg">
  <g transform="matrix(1.0, 0.0, 0.0, 1.0, 3.3, 1.65)">
    <path d="M-1.2 -1.0 L-1.05 -1.05 -0.6 -1.3 -0.05 -1.55 0.45 -1.65 1.4 -1.05 1.5 -0.7 1.6 -0.45 1.4 -0.15 1.3 0.2 1.25 0.5 1.15 1.8 0.9 3.05 0.65 4.35 0.35 6.75 0.15 9.45 0.15 10.25 0.3 10.95 0.3 11.1 Q0.3 11.6 1.2 12.1 L2.1 12.55 2.75 12.7 4.1 12.95 4.2 12.95 4.35 12.9 4.6 12.85 4.8 12.85 4.85 12.9 5.05 13.1 5.05 13.15 Q5.05 13.55 4.6 13.55 L4.25 13.45 4.15 13.4 4.0 13.25 3.75 13.45 3.4 13.6 1.7 13.8 0.45 13.6 -0.45 13.4 -0.65 13.5 -1.35 13.6 -2.1 13.5 -2.2 13.2 -1.85 11.85 -1.8 11.75 -1.8 11.7 -1.65 11.5 -1.65 11.4 -1.6 11.35 -1.6 11.1 -1.45 10.4 -1.55 8.75 -1.6 7.75 -1.55 7.65 -1.6 7.5 -1.55 7.45 -1.6 7.25 -1.65 6.4 -1.75 6.05 -1.85 5.8 -1.85 5.75 -1.8 5.75 -1.75 5.6 -2.3 4.75 Q-2.85 3.8 -2.85 2.85 -2.85 2.25 -2.05 0.6 L-1.7 -0.05 -1.4 -0.45 -1.35 -0.6 -1.35 -0.65 -1.2 -0.85 -1.2 -0.9 -1.2 -1.0 M-2.4 13.65 L-2.3 13.75 -2.4 13.75 -2.4 13.7 -2.45 13.65 -2.4 13.65 M-0.15 11.15 L-0.15 11.05 -0.2 11.0 -0.25 11.15 -0.25 11.2 -0.2 11.25 -0.15 11.25 -0.15 11.15 M-0.8 10.1 L-0.9 10.5 -0.95 10.95 -1.05 11.85 -0.55 12.35 -0.3 12.2 -0.3 12.15 -0.35 12.15 -0.75 12.0 -0.9 11.8 -0.85 11.15 -0.75 10.5 -0.8 10.1 M-0.8 4.1 L-0.85 3.95 -1.05 4.35 -1.1 4.7 -1.35 5.0 -1.6 5.4 -1.45 5.45 Q-1.1 5.45 -0.8 4.1" fill="#ffead5" fill-rule="evenodd" stroke="none"/>
    <path d="M1.6 -0.45 L1.6 -0.5 1.8 -0.25 1.45 1.75 0.9 4.65 0.65 6.85 0.55 7.9 0.5 9.8 0.6 10.8 0.55 10.9 0.75 11.05 1.45 11.8 3.15 12.4 3.95 12.6 4.0 12.6 4.3 12.55 4.45 12.55 4.7 12.55 Q5.35 12.65 5.35 13.1 L5.25 13.55 4.6 13.85 4.35 13.8 4.05 13.75 3.3 13.95 1.75 14.15 0.05 13.9 -0.4 13.75 -0.55 13.75 -1.0 13.9 -2.15 14.1 -2.7 13.85 -2.75 13.65 -2.75 13.55 -2.6 13.5 -2.6 13.45 -2.5 13.05 -2.15 11.75 -1.8 10.4 -1.85 8.45 -1.95 7.45 -1.95 7.4 -1.95 6.7 -2.1 6.2 -2.2 5.75 -2.25 5.55 -2.45 5.25 -2.9 4.35 -3.15 3.55 -3.15 3.4 -3.3 3.05 -3.15 2.45 -3.1 2.3 -2.2 0.25 -2.0 -0.05 -2.0 -0.15 -1.85 -0.4 -1.7 -0.6 -1.7 -0.65 -1.6 -0.85 -1.4 -1.15 Q-1.3 -1.2 -1.25 -1.05 L-1.2 -1.0 -1.2 -0.9 -1.2 -0.85 -1.35 -0.65 -1.35 -0.6 -1.4 -0.45 -1.7 -0.05 -2.05 0.6 Q-2.85 2.25 -2.85 2.85 -2.85 3.8 -2.3 4.75 L-1.75 5.6 -1.8 5.75 -1.85 5.75 -1.85 5.8 -1.75 6.05 -1.65 6.4 -1.6 7.25 -1.55 7.45 -1.6 7.5 -1.55 7.65 -1.6 7.75 -1.55 8.75 -1.45 10.4 -1.6 11.1 -1.6 11.35 -1.65 11.4 -1.65 11.5 -1.8 11.7 -1.8 11.75 -1.85 11.85 -2.2 13.2 -2.1 13.5 -1.35 13.6 -0.65 13.5 -0.45 13.4 0.45 13.6 1.7 13.8 3.4 13.6 3.75 13.45 4.0 13.25 4.15 13.4 4.25 13.45 4.6 13.55 Q5.05 13.55 5.05 13.15 L5.05 13.1 4.85 12.9 4.8 12.85 4.6 12.85 4.35 12.9 4.2 12.95 4.1 12.95 2.75 12.7 2.1 12.55 1.2 12.1 Q0.3 11.6 0.3 11.1 L0.3 10.95 0.15 10.25 0.15 9.45 0.35 6.75 0.65 4.35 0.9 3.05 1.15 1.8 1.25 0.5 1.3 0.2 1.4 -0.15 1.6 -0.45 M-0.8 4.1 Q-1.1 5.45 -1.45 5.45 L-1.6 5.4 -1.35 5.0 -1.1 4.7 -1.05 4.35 -0.85 3.95 -0.8 4.1 M-0.8 10.1 L-0.75 10.5 -0.85 11.15 -0.9 11.8 -0.75 12.0 -0.35 12.15 -0.3 12.15 -0.3 12.2 -0.55 12.35 -1.05 11.85 -0.95 10.95 -0.9 10.5 -0.8 10.1 M-0.15 11.15 L-0.15 11.25 -0.2 11.25 -0.25 11.2 -0.25 11.15 -0.2 11.0 -0.15 11.05 -0.15 11.15 M-2.4 13.65 L-2.45 13.65 -2.4 13.7 -2.4 13.75 -2.3 13.75 -2.4 13.65" fill="#000000" fill-rule="evenodd" stroke="none"/>
  </g>
</svg>
