<?xml version="1.0" encoding="UTF-8" standalone="no"?>
<svg xmlns:xlink="http://www.w3.org/1999/xlink" height="32.55px" width="19.55px" xmlns="http://www.w3.org/2000/svg">
  <g transform="matrix(1.0, 0.0, 0.0, 1.0, 11.15, 19.75)">
    <path d="M3.1 -11.15 L3.25 -11.0 4.1 -9.65 4.0 -9.65 3.9 -9.7 3.55 -9.35 3.45 -9.4 3.4 -9.35 3.35 -9.3 3.4 -9.15 3.4 -9.1 3.25 -8.75 3.1 -8.25 2.85 -8.4 2.6 -8.7 2.2 -9.0 1.9 -9.15 1.8 -9.05 1.8 -9.0 1.65 -9.0 1.4 -9.05 1.2 -9.1 0.6 -9.3 -0.35 -9.3 Q-1.45 -9.4 -1.5 -8.95 L-1.6 -8.85 -1.6 -8.8 -1.55 -8.8 -1.4 -8.75 -1.35 -8.75 -1.15 -8.65 -0.9 -8.55 -0.7 -8.05 -0.35 -7.1 -0.35 -6.9 -0.3 -6.7 -0.15 -6.5 Q0.05 -6.25 0.45 -6.15 L2.15 -5.8 3.7 -5.55 4.3 -5.6 4.35 -5.5 4.5 -4.7 4.55 -4.45 4.6 -4.15 4.55 -3.9 4.45 -3.95 4.3 -4.0 4.15 -3.9 4.1 -3.9 4.1 -3.8 4.1 -3.65 4.15 -2.95 Q4.05 -2.95 4.05 -3.0 L3.95 -3.0 3.9 -3.0 3.85 -3.1 3.75 -3.2 3.7 -3.15 3.65 -3.1 3.55 -3.15 3.4 -3.1 3.35 -3.0 3.95 -2.25 4.15 -1.95 4.6 -1.05 4.45 -1.1 4.3 -0.9 4.4 -0.65 4.5 -0.35 4.4 -0.4 4.3 -0.45 4.15 -0.3 4.2 -0.05 4.0 0.0 4.0 0.15 4.05 0.35 4.1 0.55 4.05 0.9 3.95 1.35 3.9 1.8 3.85 2.2 3.85 2.8 3.5 1.6 2.85 -0.3 2.65 0.3 Q2.2 -0.65 2.1 -1.4 L1.95 -1.45 1.95 -1.4 1.9 -1.35 2.0 -0.9 2.0 -0.65 1.85 -0.25 1.45 -1.4 1.0 -2.1 Q0.65 -3.1 0.1 -3.45 L-0.9 -4.0 -2.1 -4.15 -2.4 -4.15 -2.4 -4.2 -2.45 -4.15 -3.2 -4.15 -3.2 -4.2 -3.3 -4.2 -3.35 -4.05 -3.45 -4.0 -3.4 -3.95 -3.8 -3.25 -3.95 -3.05 -3.95 -2.9 -4.0 -2.85 -4.15 -2.65 -4.6 -2.05 -4.35 -3.05 -4.0 -3.9 -3.55 -5.05 -3.55 -5.2 -3.75 -5.35 -4.1 -5.3 -4.4 -5.15 -4.4 -5.2 -3.65 -6.5 -3.2 -7.3 -3.4 -7.4 -4.15 -7.65 -4.0 -7.95 -3.9 -8.3 -3.9 -8.5 Q-3.75 -8.6 -3.55 -9.05 L-3.35 -9.55 -3.45 -9.75 -3.55 -9.85 -3.75 -9.95 -3.8 -10.0 -3.75 -10.0 Q-3.5 -10.0 -3.45 -10.15 L-3.45 -10.2 -3.45 -10.3 -3.5 -10.7 -3.35 -10.5 -3.1 -10.3 -3.0 -10.3 Q-2.85 -10.3 -2.65 -10.8 L-2.6 -10.9 -2.2 -11.45 -1.8 -11.9 -1.4 -12.05 -1.25 -12.0 Q-1.2 -12.0 -1.05 -12.1 L0.95 -12.3 1.85 -12.05 2.7 -11.6 3.1 -11.15" fill="#605142" fill-rule="evenodd" stroke="none"/>
    <path d="M3.1 -11.15 L2.7 -11.6 1.85 -12.05 0.95 -12.3 -1.05 -12.1 Q-1.2 -12.0 -1.25 -12.0 L-1.4 -12.05 -1.8 -11.9 -2.2 -11.45 -2.6 -10.9 -2.65 -10.8 Q-2.85 -10.3 -3.0 -10.3 L-3.1 -10.3 -3.35 -10.5 -3.5 -10.7 -3.45 -10.3 -3.45 -10.2 -3.45 -10.15 Q-3.5 -10.0 -3.75 -10.0 L-3.8 -10.0 -3.75 -9.95 -3.55 -9.85 -3.45 -9.75 -3.35 -9.55 -3.55 -9.05 Q-3.75 -8.6 -3.9 -8.5 L-3.9 -8.3 -4.0 -7.95 -4.15 -7.65 -3.4 -7.4 -3.2 -7.3 -3.65 -6.5 -4.4 -5.2 -4.4 -5.15 -4.1 -5.3 -3.75 -5.35 -3.55 -5.2 -3.55 -5.05 -4.0 -3.9 -4.35 -3.05 -4.6 -2.05 -4.15 -2.65 -4.0 -2.85 -3.95 -2.9 -3.95 -3.05 -3.8 -3.25 -3.4 -3.95 -3.45 -4.0 -3.35 -4.05 -3.3 -4.2 -3.2 -4.2 -3.2 -4.15 -2.45 -4.15 -2.4 -4.2 -2.4 -4.15 -2.1 -4.15 -0.9 -4.0 0.1 -3.45 Q0.65 -3.1 1.0 -2.1 L1.45 -1.4 1.85 -0.25 2.0 -0.65 2.0 -0.9 1.9 -1.35 1.95 -1.4 1.95 -1.45 2.1 -1.4 Q2.2 -0.65 2.65 0.3 L2.85 -0.3 3.5 1.6 3.85 2.8 3.85 2.2 3.9 1.8 3.95 1.35 4.05 0.9 4.1 0.55 4.05 0.35 4.0 0.15 4.0 0.0 4.2 -0.05 4.15 -0.3 4.3 -0.45 4.4 -0.4 4.5 -0.35 4.4 -0.65 4.3 -0.9 4.45 -1.1 4.6 -1.05 4.15 -1.95 3.95 -2.25 3.35 -3.0 3.4 -3.1 3.55 -3.15 3.65 -3.1 3.7 -3.15 3.75 -3.2 3.85 -3.1 3.9 -3.0 3.95 -3.0 4.05 -3.0 Q4.05 -2.95 4.15 -2.95 L4.1 -3.65 4.1 -3.8 4.1 -3.9 4.15 -3.9 4.3 -4.0 4.45 -3.95 4.55 -3.9 4.6 -4.15 4.55 -4.45 4.5 -4.7 4.35 -5.5 4.3 -5.6 3.7 -5.55 2.15 -5.8 0.45 -6.15 Q0.05 -6.25 -0.15 -6.5 L-0.3 -6.7 -0.35 -6.9 -0.35 -7.1 -0.7 -8.05 -0.9 -8.55 -1.15 -8.65 -1.35 -8.75 -1.4 -8.75 -1.55 -8.8 -1.6 -8.8 -1.6 -8.85 -1.5 -8.95 Q-1.45 -9.4 -0.35 -9.3 L0.6 -9.3 1.2 -9.1 1.4 -9.05 1.65 -9.0 1.8 -9.0 1.8 -9.05 1.9 -9.15 2.2 -9.0 2.6 -8.7 2.85 -8.4 3.1 -8.25 3.25 -8.75 3.4 -9.1 3.4 -9.15 3.35 -9.3 3.4 -9.35 3.45 -9.4 3.55 -9.35 3.9 -9.7 4.0 -9.65 4.1 -9.65 3.25 -11.0 3.1 -11.15 M4.4 -9.85 L4.7 -9.25 4.65 -9.15 4.55 -9.05 4.4 -9.15 4.0 -9.3 4.0 -9.25 4.05 -9.15 4.1 -9.0 4.1 -8.95 4.15 -8.8 4.15 -8.7 4.0 -8.6 4.0 -8.4 3.95 -8.3 4.35 -8.1 4.8 -7.7 4.9 -7.45 5.1 -6.8 5.25 -6.15 5.15 -5.9 4.65 -5.8 4.85 -4.95 4.95 -3.6 4.95 -3.45 4.8 -3.35 4.6 -3.4 4.45 -3.55 4.45 -2.95 4.25 -2.4 4.8 -1.55 5.2 -0.5 5.05 -0.3 4.9 -0.35 4.8 -0.45 4.85 -0.1 4.6 0.2 4.4 1.2 4.35 1.45 4.15 2.2 4.2 2.85 4.25 3.65 4.25 4.1 4.2 4.4 4.2 4.45 4.3 6.65 4.4 8.65 4.35 9.45 4.25 10.25 4.25 10.5 4.25 11.2 4.35 11.25 4.3 11.3 4.25 11.35 4.25 11.8 4.25 11.9 4.2 12.45 4.2 12.55 4.3 12.65 4.25 12.75 4.1 12.8 2.75 12.25 1.2 11.65 1.2 11.85 1.05 12.0 -1.05 11.4 -2.25 10.9 -2.55 10.95 -2.75 10.9 -2.8 10.85 -2.85 10.9 -3.0 10.95 -3.2 10.9 -3.35 10.85 -3.6 10.75 -3.75 10.65 -3.85 10.75 -3.95 10.8 -4.35 10.35 -4.45 10.4 -4.6 10.2 -4.6 9.95 -4.45 7.1 -4.45 7.0 -4.35 5.0 -4.4 5.15 -4.45 5.1 -4.35 4.75 -4.35 4.7 -4.35 4.55 -4.35 4.5 -4.35 3.8 -4.4 3.0 -4.45 2.2 -4.35 0.7 -4.25 -0.55 -4.15 -1.25 -4.05 -1.95 -3.95 -2.3 -3.9 -2.45 -4.05 -2.25 -4.7 -1.25 -4.7 -1.3 -5.05 -0.8 -5.2 -0.9 -5.2 -1.0 -4.65 -3.1 -4.05 -4.9 -4.15 -4.85 -4.25 -4.85 -4.4 -4.75 -4.8 -4.6 -4.95 -4.65 -4.95 -4.75 -4.4 -5.85 -3.6 -7.25 -3.75 -7.25 -4.4 -7.3 -4.45 -7.4 -4.5 -7.55 -4.35 -7.95 -4.2 -8.3 -4.25 -8.5 -4.3 -8.7 -4.3 -8.85 -3.95 -8.9 -3.7 -9.5 -4.0 -9.75 -4.3 -10.1 -4.05 -10.25 -3.8 -10.55 -3.8 -11.1 Q-3.7 -11.55 -3.3 -11.1 L-3.1 -10.85 -2.8 -11.3 -1.7 -12.25 2.45 -12.15 3.25 -11.45 3.85 -10.7 4.4 -9.85 M1.7 -8.3 L1.5 -8.5 1.45 -8.7 -0.1 -8.95 -0.8 -8.95 -0.75 -8.9 -0.7 -8.85 -0.7 -8.75 -0.35 -8.1 -0.05 -7.2 0.15 -6.75 Q0.35 -6.5 0.95 -6.35 L2.45 -6.05 2.65 -6.05 3.5 -6.05 4.2 -5.95 4.25 -6.0 4.25 -6.05 4.3 -6.1 4.4 -6.1 4.55 -6.1 4.9 -6.25 Q4.9 -7.25 4.25 -7.8 L4.05 -7.95 4.0 -7.95 3.8 -8.05 3.65 -8.2 3.6 -8.25 3.5 -8.3 3.5 -8.4 3.6 -8.55 3.6 -8.6 3.6 -8.7 3.45 -8.35 3.4 -8.0 3.15 -7.75 2.65 -8.15 2.0 -8.75 1.85 -8.5 1.7 -8.3 M3.6 -8.75 L3.65 -8.65 3.65 -8.75 3.6 -8.75 M0.65 -2.05 L0.65 -2.25 0.45 -2.85 0.15 -3.15 -0.35 -3.45 -0.85 -3.75 -2.35 -4.0 -2.35 -3.9 -2.4 -3.3 -2.5 -2.6 -2.55 -1.9 -2.6 -1.3 -2.5 0.85 Q-2.2 2.75 -1.05 2.75 -0.35 2.75 0.25 2.4 L0.75 1.9 0.75 1.8 0.8 1.65 0.65 -2.05 M1.05 -1.75 L1.05 -1.45 1.05 -1.35 1.0 -1.35 0.8 -1.85 0.85 -0.15 0.9 1.65 0.6 2.35 Q0.1 2.9 -1.05 2.9 -2.3 2.9 -2.65 0.95 L-2.75 -1.3 -2.65 -2.65 -2.45 -4.0 -3.2 -4.0 -3.6 -3.25 -3.55 -3.1 -3.6 -3.0 -3.55 -3.0 -3.55 -2.85 -3.85 -1.0 -4.1 2.2 -4.1 3.0 -4.0 3.8 -4.05 4.95 -4.1 6.25 -4.15 8.35 -4.3 9.95 -4.15 10.05 -3.9 10.15 -3.85 10.15 Q-3.7 10.15 -3.6 10.3 L-3.55 10.35 -3.35 10.4 -3.25 10.35 -3.05 10.45 -2.95 10.55 -2.9 10.5 -2.8 10.45 -2.6 10.55 -2.4 10.6 Q-2.35 10.45 -2.05 10.6 L-1.35 11.0 -0.35 11.25 0.85 11.55 0.85 11.35 1.05 11.2 Q1.45 11.2 2.9 11.9 L3.9 12.35 3.95 11.15 3.05 10.35 Q2.25 9.6 2.25 9.05 L2.3 9.0 2.35 8.9 2.3 8.8 2.25 8.65 2.75 8.45 3.35 8.3 2.95 8.0 2.7 7.75 Q2.7 7.4 3.0 7.1 3.4 6.75 4.0 6.95 L3.95 6.25 3.95 5.2 3.9 4.7 3.85 4.45 3.75 4.4 3.75 4.3 3.8 3.3 3.5 2.25 3.0 0.75 3.1 0.65 3.0 0.4 2.9 0.15 2.85 0.2 2.8 0.4 2.65 0.55 2.55 0.5 2.35 -0.2 2.1 -0.85 2.05 -0.4 1.8 0.1 1.45 -1.1 1.1 -1.65 1.05 -1.75 M3.35 2.6 L3.5 3.0 3.55 3.25 3.45 3.85 Q3.35 4.4 2.95 4.4 2.3 4.4 2.1 4.0 L2.0 3.5 2.0 3.3 1.9 3.25 1.8 3.05 2.25 2.4 2.65 2.2 2.7 2.1 3.15 2.35 3.35 2.6 M2.35 2.55 L2.25 2.65 2.15 2.8 1.95 3.1 2.05 3.15 2.15 2.95 2.1 3.2 2.15 3.2 2.25 3.3 2.2 3.35 2.15 3.4 2.15 3.35 2.1 3.3 2.1 3.5 Q2.1 4.2 2.95 4.2 3.2 4.2 3.3 3.8 L3.4 3.3 3.25 2.65 Q3.0 2.25 2.6 2.4 L2.4 2.55 2.45 2.45 2.35 2.55 M4.0 7.6 L4.0 7.2 3.35 7.1 3.2 7.05 Q3.05 7.05 2.85 7.75 L3.15 8.05 3.5 8.4 3.3 8.5 3.05 8.55 2.75 8.55 Q2.55 8.55 2.4 8.7 L2.45 8.95 2.45 9.0 2.4 9.05 Q2.4 9.55 3.35 10.4 L3.95 10.9 3.95 10.35 4.05 8.65 4.0 7.6 M-3.25 5.75 L-3.4 5.75 -3.4 5.3 -3.05 4.8 -2.35 4.3 -2.2 4.3 -1.6 4.85 Q-1.05 5.7 -1.05 5.9 L-1.2 6.3 Q-1.45 6.6 -1.8 6.6 L-2.6 6.35 Q-3.1 6.1 -3.2 5.7 L-3.25 5.75 M-3.25 5.55 L-3.05 5.55 -2.75 6.0 -2.3 6.2 -1.75 6.4 Q-1.55 6.4 -1.35 6.2 L-1.15 5.9 -1.55 5.15 -2.0 4.55 Q-2.25 4.3 -2.75 4.8 L-3.25 5.5 -3.25 5.55" fill="#000000" fill-rule="evenodd" stroke="none"/>
    <path d="M1.7 -8.3 L1.85 -8.5 2.0 -8.75 2.65 -8.15 3.15 -7.75 3.4 -8.0 3.45 -8.35 3.6 -8.7 3.6 -8.6 3.6 -8.55 3.5 -8.4 3.5 -8.3 3.6 -8.25 3.65 -8.2 3.8 -8.05 4.0 -7.95 4.05 -7.95 4.25 -7.8 Q4.9 -7.25 4.9 -6.25 L4.55 -6.1 4.4 -6.1 4.3 -6.1 4.25 -6.05 4.25 -6.0 4.2 -5.95 3.5 -6.05 2.65 -6.05 2.45 -6.05 0.95 -6.35 Q0.35 -6.5 0.15 -6.75 L-0.05 -7.2 -0.35 -8.1 -0.7 -8.75 -0.7 -8.85 -0.75 -8.9 -0.8 -8.95 -0.1 -8.95 1.45 -8.7 1.5 -8.5 1.7 -8.3 M0.65 -2.05 L0.8 1.65 0.75 1.8 0.75 1.9 0.25 2.4 Q-0.35 2.75 -1.05 2.75 -2.2 2.75 -2.5 0.85 L-2.6 -1.3 -2.55 -1.9 -2.5 -2.6 -2.4 -3.3 -2.35 -3.9 -2.35 -4.0 -0.85 -3.75 -0.35 -3.45 0.15 -3.15 0.45 -2.85 0.65 -2.25 0.65 -2.05" fill="#ffead5" fill-rule="evenodd" stroke="none"/>
    <path d="M1.05 -1.75 L1.1 -1.65 1.45 -1.1 1.8 0.1 2.05 -0.4 2.1 -0.85 2.35 -0.2 2.55 0.5 2.65 0.55 2.8 0.4 2.85 0.2 2.9 0.15 3.0 0.4 3.1 0.65 3.0 0.75 3.5 2.25 3.8 3.3 3.75 4.3 3.75 4.4 3.85 4.45 3.9 4.7 3.95 5.2 3.95 6.25 4.0 6.95 Q3.4 6.75 3.0 7.1 2.7 7.4 2.7 7.75 L2.95 8.0 3.35 8.3 2.75 8.45 2.25 8.65 2.3 8.8 2.35 8.9 2.3 9.0 2.25 9.05 Q2.25 9.6 3.05 10.35 L3.95 11.15 3.9 12.35 2.9 11.9 Q1.45 11.2 1.05 11.2 L0.85 11.35 0.85 11.55 -0.35 11.25 -1.35 11.0 -2.05 10.6 Q-2.35 10.45 -2.4 10.6 L-2.6 10.55 -2.8 10.45 -2.9 10.5 -2.95 10.55 -3.05 10.45 -3.25 10.35 -3.35 10.4 -3.55 10.35 -3.6 10.3 Q-3.7 10.15 -3.85 10.15 L-3.9 10.15 -4.15 10.05 -4.3 9.95 -4.15 8.35 -4.1 6.25 -4.05 4.95 -4.0 3.8 -4.1 3.0 -4.1 2.2 -3.85 -1.0 -3.55 -2.85 -3.55 -3.0 -3.6 -3.0 -3.55 -3.1 -3.6 -3.25 -3.2 -4.0 -2.45 -4.0 -2.65 -2.65 -2.75 -1.3 -2.65 0.95 Q-2.3 2.9 -1.05 2.9 0.1 2.9 0.6 2.35 L0.9 1.65 0.85 -0.15 0.8 -1.85 1.0 -1.35 1.05 -1.35 1.05 -1.45 1.05 -1.75 M3.35 2.6 L3.15 2.35 2.7 2.1 2.65 2.2 2.25 2.4 1.8 3.05 1.9 3.25 2.0 3.3 2.0 3.5 2.1 4.0 Q2.3 4.4 2.95 4.4 3.35 4.4 3.45 3.85 L3.55 3.25 3.5 3.0 3.35 2.6 M-3.25 5.75 L-3.2 5.7 Q-3.1 6.1 -2.6 6.35 L-1.8 6.6 Q-1.45 6.6 -1.2 6.3 L-1.05 5.9 Q-1.05 5.7 -1.6 4.85 L-2.2 4.3 -2.35 4.3 -3.05 4.8 -3.4 5.3 -3.4 5.75 -3.25 5.75" fill="#d9b83e" fill-rule="evenodd" stroke="none"/>
    <path d="M2.4 2.55 L2.6 2.4 Q3.0 2.25 3.25 2.65 L3.4 3.3 3.3 3.8 Q3.2 4.2 2.95 4.2 2.1 4.2 2.1 3.5 L2.1 3.3 2.15 3.35 2.15 3.4 2.2 3.35 2.25 3.3 2.15 3.2 2.1 3.2 2.15 2.95 2.05 3.15 1.95 3.1 2.15 2.8 2.25 2.65 2.35 2.55 2.4 2.55 M4.0 7.6 L4.05 8.65 3.95 10.35 3.95 10.9 3.35 10.4 Q2.4 9.55 2.4 9.05 L2.45 9.0 2.45 8.95 2.4 8.7 Q2.55 8.55 2.75 8.55 L3.05 8.55 3.3 8.5 3.5 8.4 3.15 8.05 2.85 7.75 Q3.05 7.05 3.2 7.05 L3.35 7.1 4.0 7.2 4.0 7.6 M-3.25 5.55 L-3.25 5.5 -2.75 4.8 Q-2.25 4.3 -2.0 4.55 L-1.55 5.15 -1.15 5.9 -1.35 6.2 Q-1.55 6.4 -1.75 6.4 L-2.3 6.2 -2.75 6.0 -3.05 5.55 -3.25 5.55" fill="#735437" fill-rule="evenodd" stroke="none"/>
    <path d="M0.2 -13.05 L-0.05 -13.0 -1.3 -13.35 Q-1.95 -13.35 -3.4 -12.25 L-5.1 -10.85 Q-5.65 -10.35 -5.65 -9.3 L-5.75 -8.3 -6.2 -6.8 Q-5.45 -6.85 -5.3 -6.4 L-5.2 -5.65 -4.85 -5.7 -4.15 -5.55 -3.8 -5.15 -3.75 -5.0 -3.1 -5.4 -2.6 -6.5 -2.4 -6.7 -2.55 -7.0 Q-2.55 -7.5 -1.45 -7.65 -0.3 -7.85 0.25 -7.2 L0.5 -6.9 0.5 -7.0 Q2.7 -9.55 5.7 -10.85 L6.0 -11.1 6.6 -11.4 6.7 -11.4 Q6.7 -11.65 7.6 -11.7 L7.6 -11.8 8.05 -12.15 7.55 -12.55 6.9 -13.2 6.05 -13.05 5.0 -13.6 4.35 -13.0 3.35 -13.1 3.3 -13.2 2.9 -13.1 2.55 -12.95 2.5 -12.9 2.4 -12.9 1.95 -12.8 1.95 -12.9 1.25 -12.9 1.1 -12.9 Q1.55 -12.75 1.55 -12.3 L0.7 -10.85 Q-0.15 -9.65 -0.5 -9.65 -1.45 -9.65 -2.25 -10.15 L-2.9 -10.9 -1.5 -12.05 0.2 -13.0 0.45 -13.0 0.2 -13.05 M0.15 -13.4 L2.4 -13.2 2.75 -13.4 3.8 -13.75 3.85 -13.6 3.8 -13.5 4.25 -13.4 4.65 -13.7 5.05 -14.1 6.05 -13.45 6.7 -13.55 6.85 -13.6 8.4 -12.15 8.25 -11.8 8.05 -11.55 8.0 -11.45 Q8.35 -11.05 8.35 -10.2 8.35 -8.95 7.75 -8.6 L7.7 -8.75 7.7 -8.85 7.5 -9.3 7.25 -10.0 6.85 -10.35 6.85 -10.2 6.8 -9.55 Q6.7 -9.1 6.2 -9.05 L6.15 -9.25 6.2 -9.35 5.9 -9.7 Q5.65 -9.9 5.15 -10.25 L5.15 -10.3 Q2.5 -8.85 0.7 -6.65 L0.65 -6.65 0.8 -6.15 1.15 -5.25 2.1 -4.25 3.5 -5.15 3.55 -4.9 3.4 -4.2 4.1 -4.6 4.25 -4.4 3.9 -3.05 4.3 -3.35 5.3 -3.5 5.3 -2.55 5.25 -2.45 5.85 -3.1 Q6.1 -3.55 6.25 -3.25 L6.35 -2.6 6.3 -1.95 5.75 -1.45 5.9 -0.7 Q5.9 -0.6 5.75 -0.65 L4.65 -0.5 Q4.55 -0.35 4.25 -0.35 4.05 -0.35 3.35 -1.1 L2.0 -2.15 Q0.05 -2.65 -1.55 -3.4 -2.65 -3.4 -2.9 -3.75 L-3.05 -4.15 -3.2 -4.15 -3.25 -4.8 -3.25 -4.85 -3.4 -4.75 Q-3.8 -4.4 -4.05 -4.4 L-4.0 -4.95 Q-4.05 -5.35 -4.8 -5.35 L-5.15 -5.0 Q-5.35 -4.75 -5.65 -4.8 L-5.7 -5.2 -5.6 -5.65 -5.6 -5.8 -5.85 -6.05 -5.75 -6.4 -5.95 -6.5 -6.35 -6.3 -6.75 -6.3 -6.75 -6.7 Q-6.4 -7.05 -6.3 -7.85 L-6.15 -9.0 -6.1 -8.95 -6.0 -9.95 -5.65 -10.7 -4.85 -11.5 Q-1.95 -14.2 0.1 -13.5 L0.15 -13.4 M7.75 -11.4 L7.2 -11.35 7.0 -11.2 7.0 -11.1 6.95 -10.95 7.5 -10.3 7.9 -9.55 8.05 -10.15 7.75 -11.4 M6.35 -10.95 L6.15 -10.8 5.7 -10.65 5.4 -10.4 6.4 -9.8 6.55 -10.15 6.35 -10.9 6.35 -10.95 M3.0 -4.05 L3.15 -4.4 3.1 -4.5 2.45 -4.15 2.3 -4.15 2.8 -3.75 3.0 -4.05 M3.2 -3.55 L3.55 -3.3 3.8 -3.8 3.7 -3.9 3.2 -3.55 M0.4 -4.25 Q-0.05 -4.25 -0.6 -4.95 L-1.05 -5.8 -1.3 -5.7 -1.55 -5.7 -1.6 -5.95 Q-1.6 -6.15 -0.9 -6.2 L-0.85 -6.0 -0.85 -5.9 -0.2 -5.35 0.55 -4.3 0.4 -4.25 M4.9 -3.05 L4.1 -2.7 4.6 -2.25 4.65 -2.35 4.9 -2.55 4.9 -3.05 M4.8 -1.75 L3.15 -2.85 1.25 -4.6 Q0.8 -5.0 0.45 -6.25 -0.1 -7.4 -1.5 -7.4 -1.75 -7.4 -2.0 -7.0 L-2.0 -6.9 -2.4 -6.1 -2.9 -4.8 -2.85 -4.5 -2.6 -4.0 -1.2 -3.6 Q0.45 -3.35 1.25 -2.9 2.45 -2.55 4.25 -0.75 L5.45 -0.95 5.45 -1.15 5.0 -1.55 4.8 -1.75 M5.85 -2.0 L6.0 -2.45 6.0 -2.7 5.05 -2.1 5.65 -1.75 5.85 -2.0 M0.35 -12.4 L-0.8 -12.2 Q-2.55 -11.2 -2.55 -10.9 -2.55 -10.8 -1.7 -10.4 L-0.6 -10.05 Q0.2 -10.05 1.15 -12.3 L0.35 -12.4 M-4.3 -8.1 Q-4.7 -8.1 -5.05 -8.85 L-4.9 -9.15 -4.6 -9.35 Q-4.3 -9.35 -4.05 -8.95 L-3.75 -8.55 Q-3.75 -8.1 -4.3 -8.1 M-4.5 -8.85 L-4.6 -8.75 -4.4 -8.45 -4.15 -8.45 -4.5 -8.85" fill="#000000" fill-rule="evenodd" stroke="none"/>
    <path d="M0.2 -13.0 L-1.5 -12.05 -2.9 -10.9 -2.25 -10.15 Q-1.45 -9.65 -0.5 -9.65 -0.15 -9.65 0.7 -10.85 L1.55 -12.3 Q1.55 -12.75 1.1 -12.9 L1.25 -12.9 1.95 -12.9 1.95 -12.8 2.4 -12.9 2.5 -12.9 2.55 -12.95 2.9 -13.1 3.3 -13.2 3.35 -13.1 4.35 -13.0 5.0 -13.6 6.05 -13.05 6.9 -13.2 7.55 -12.55 8.05 -12.15 7.6 -11.8 7.6 -11.7 Q6.7 -11.65 6.7 -11.4 L6.6 -11.4 6.0 -11.1 5.7 -10.85 Q2.7 -9.55 0.5 -7.0 L0.5 -6.9 0.25 -7.2 Q-0.3 -7.85 -1.45 -7.65 -2.55 -7.5 -2.55 -7.0 L-2.4 -6.7 -2.6 -6.5 -3.1 -5.4 -3.75 -5.0 -3.8 -5.15 -4.15 -5.55 -4.85 -5.7 -5.2 -5.65 -5.3 -6.4 Q-5.45 -6.85 -6.2 -6.8 L-5.75 -8.3 -5.65 -9.3 Q-5.65 -10.35 -5.1 -10.85 L-3.4 -12.25 Q-1.95 -13.35 -1.3 -13.35 L-0.05 -13.0 0.2 -13.05 0.2 -13.0 M5.85 -2.0 L5.65 -1.75 5.05 -2.1 6.0 -2.7 6.0 -2.45 5.85 -2.0 M4.8 -1.75 L5.0 -1.55 5.45 -1.15 5.45 -0.95 4.25 -0.75 Q2.45 -2.55 1.25 -2.9 0.45 -3.35 -1.2 -3.6 L-2.6 -4.0 -2.85 -4.5 -2.9 -4.8 -2.4 -6.1 -2.0 -6.9 -2.0 -7.0 Q-1.75 -7.4 -1.5 -7.4 -0.1 -7.4 0.45 -6.25 0.8 -5.0 1.25 -4.6 L3.15 -2.85 4.8 -1.75 M4.9 -3.05 L4.9 -2.55 4.65 -2.35 4.6 -2.25 4.1 -2.7 4.9 -3.05 M0.4 -4.25 L0.55 -4.3 -0.2 -5.35 -0.85 -5.9 -0.85 -6.0 -0.9 -6.2 Q-1.6 -6.15 -1.6 -5.95 L-1.55 -5.7 -1.3 -5.7 -1.05 -5.8 -0.6 -4.95 Q-0.05 -4.25 0.4 -4.25 M3.2 -3.55 L3.7 -3.9 3.8 -3.8 3.55 -3.3 3.2 -3.55 M3.0 -4.05 L2.8 -3.75 2.3 -4.15 2.45 -4.15 3.1 -4.5 3.15 -4.4 3.0 -4.05 M6.35 -10.95 L6.35 -10.9 6.55 -10.15 6.4 -9.8 5.4 -10.4 5.7 -10.65 6.15 -10.8 6.35 -10.95 M7.75 -11.4 L8.05 -10.15 7.9 -9.55 7.5 -10.3 6.95 -10.95 7.0 -11.1 7.0 -11.2 7.2 -11.35 7.75 -11.4 M-4.3 -8.1 Q-3.75 -8.1 -3.75 -8.55 L-4.05 -8.95 Q-4.3 -9.35 -4.6 -9.35 L-4.9 -9.15 -5.05 -8.85 Q-4.7 -8.1 -4.3 -8.1" fill="#fffaee" fill-rule="evenodd" stroke="none"/>
    <path d="M0.35 -16.55 L0.3 -16.65 0.3 -16.7 0.1 -17.9 -0.15 -17.9 -0.15 -17.85 -0.25 -18.15 -0.25 -18.1 -0.2 -17.65 -0.2 -17.2 -0.35 -17.05 -0.25 -16.85 -0.3 -16.6 -0.85 -15.45 -0.7 -15.25 -0.7 -15.0 -0.65 -14.95 -0.55 -14.8 -0.45 -14.65 -0.5 -14.55 -0.45 -14.45 -0.3 -14.45 -0.3 -14.4 -0.2 -14.45 -0.1 -14.45 0.15 -14.65 0.4 -14.9 0.45 -15.0 0.45 -15.05 0.45 -15.45 0.45 -15.55 0.55 -15.8 0.55 -16.1 0.45 -16.1 0.55 -16.4 0.5 -16.55 0.35 -16.55 M-0.7 -19.75 Q0.0 -19.75 0.75 -15.45 0.75 -14.05 -0.2 -14.0 L-0.35 -13.5 -0.6 -13.5 -0.6 -13.85 -0.55 -14.1 -1.0 -15.2 -0.75 -16.45 -0.5 -17.7 -0.95 -19.7 -0.7 -19.75 M-7.2 -15.75 L-7.8 -15.95 -7.05 -15.0 -7.15 -14.85 -6.45 -14.3 -5.85 -13.65 Q-5.85 -13.4 -5.45 -13.3 L-5.4 -13.3 -4.8 -12.85 -4.55 -12.75 -4.3 -12.7 Q-4.05 -12.7 -4.05 -13.15 L-4.05 -13.4 -3.9 -13.45 -3.9 -13.65 -3.75 -13.1 -3.8 -12.65 -3.45 -12.55 -3.05 -12.0 -3.25 -11.35 -3.75 -10.65 -3.95 -9.2 -4.3 -9.2 -4.35 -9.3 -4.2 -9.75 -4.45 -10.55 -4.75 -11.45 -4.3 -12.25 -4.45 -12.25 Q-5.2 -12.25 -6.7 -14.25 L-7.65 -15.25 -8.5 -16.35 -8.5 -16.4 -8.75 -16.8 -8.35 -16.7 -8.25 -16.5 Q-6.7 -16.0 -5.4 -15.05 L-4.0 -13.8 -4.15 -13.9 -4.3 -13.85 -4.45 -14.05 -4.5 -14.15 -4.8 -14.5 -4.9 -14.45 -5.75 -15.0 -6.1 -15.2 Q-6.7 -15.75 -7.1 -15.75 L-7.2 -15.75 M-8.0 -12.5 L-8.2 -12.55 -8.6 -12.45 -8.9 -12.15 -8.85 -12.0 -9.6 -11.0 -9.6 -10.55 -9.55 -10.5 -9.15 -11.0 -9.0 -11.1 -8.85 -11.2 -8.15 -11.4 -7.55 -11.35 -7.55 -11.3 -7.4 -11.25 -7.3 -11.25 -7.05 -11.05 -6.95 -10.9 -6.95 -10.85 -6.85 -10.75 -6.7 -10.7 Q-6.45 -10.7 -6.2 -10.95 L-5.9 -11.25 -5.9 -11.3 -5.9 -11.35 -6.45 -12.05 -6.55 -12.1 -6.55 -12.15 -6.8 -12.5 -7.25 -12.65 -7.45 -12.55 -7.6 -12.5 -7.8 -12.55 -8.0 -12.5 M-2.9 -16.85 Q-1.4 -15.4 -1.4 -14.6 -1.4 -14.15 -1.8 -14.0 L-1.6 -13.8 -1.6 -13.55 -1.55 -13.25 Q-1.55 -12.35 -2.3 -12.35 -3.1 -12.35 -3.1 -12.8 L-2.6 -13.45 -2.15 -13.75 -2.15 -13.9 -2.4 -13.9 Q-3.4 -13.9 -3.8 -14.9 L-4.15 -16.25 Q-4.45 -16.95 -5.5 -18.65 -4.6 -18.45 -3.1 -17.05 L-3.25 -16.85 -3.25 -16.7 -3.65 -17.1 -3.8 -17.5 -4.0 -17.4 -4.45 -17.6 Q-3.7 -16.5 -3.65 -15.8 L-3.45 -14.95 Q-3.15 -14.25 -2.4 -14.25 -1.7 -14.25 -1.7 -14.55 L-1.8 -14.9 -1.8 -15.0 Q-1.8 -15.4 -2.3 -15.95 L-2.9 -16.85 M-2.25 -13.25 L-2.7 -12.9 Q-2.6 -12.7 -2.3 -12.7 -1.85 -12.7 -1.85 -13.3 L-2.25 -13.25 M-11.15 -5.35 L-10.3 -6.35 -9.5 -7.45 Q-8.9 -8.9 -7.6 -9.2 L-7.25 -9.2 -6.7 -9.1 -6.5 -9.2 -6.0 -9.4 -5.95 -9.3 -5.55 -9.2 -5.55 -8.95 -5.95 -8.95 -6.05 -8.95 -6.25 -8.85 Q-6.4 -8.45 -8.3 -6.95 -10.35 -5.25 -10.95 -5.25 -11.05 -5.25 -11.15 -5.35 M-4.15 -10.75 L-4.1 -10.6 -3.75 -11.3 Q-3.4 -11.75 -3.35 -12.05 L-3.4 -12.1 -3.6 -12.0 -3.65 -12.0 -3.9 -12.15 -4.2 -11.95 -4.45 -11.4 -4.5 -11.25 Q-4.45 -10.75 -4.2 -10.75 L-4.15 -10.75 M-5.4 -10.85 L-5.7 -11.0 -5.9 -10.75 -6.6 -10.35 Q-7.15 -10.35 -7.25 -10.7 -7.35 -11.05 -8.15 -11.05 -8.8 -11.05 -9.2 -10.4 L-9.55 -9.55 -9.7 -9.5 Q-10.0 -9.5 -9.95 -10.1 -9.95 -11.0 -9.55 -11.75 -8.9 -12.9 -7.45 -12.9 -6.15 -12.9 -5.6 -11.35 -5.15 -11.2 -5.2 -10.9 L-5.4 -10.85 M-7.7 -8.95 L-7.95 -9.0 -8.25 -8.75 -8.45 -8.55 -8.7 -8.25 -9.25 -7.6 -9.2 -7.5 -9.3 -7.25 -9.55 -6.95 -10.15 -6.4 -10.1 -6.25 -9.85 -6.3 -10.0 -6.2 -9.4 -6.45 -9.25 -6.5 -8.15 -7.35 -7.65 -7.85 -7.5 -8.05 -7.25 -8.35 -6.95 -8.8 -7.2 -8.8 -7.2 -9.0 -7.7 -9.0 -7.7 -8.95" fill="#000000" fill-rule="evenodd" stroke="none"/>
    <path d="M0.0 -16.55 L0.0 -16.25 -0.05 -15.9 -0.1 -15.9 -0.35 -15.35 -0.3 -15.25 -0.2 -15.25 -0.2 -15.2 -0.3 -15.15 -0.45 -15.3 -0.65 -15.3 -0.25 -16.05 0.0 -16.55 M0.35 -16.55 L0.3 -16.55 0.3 -16.7 0.3 -16.65 0.35 -16.55 M-0.15 -17.85 L-0.15 -17.25 -0.2 -17.2 -0.2 -17.65 -0.25 -18.1 -0.25 -18.15 -0.15 -17.85 M0.45 -15.55 L0.45 -15.45 0.45 -15.05 0.25 -15.3 0.45 -15.55 M0.45 -15.0 L0.4 -14.9 0.15 -14.65 0.25 -14.75 0.45 -15.0 M-0.2 -14.45 L-0.3 -14.4 -0.3 -14.45 -0.2 -14.45 M-0.45 -14.65 L-0.55 -14.8 -0.65 -14.95 -0.4 -14.7 -0.45 -14.65 M-0.3 -16.6 L-0.25 -16.85 -0.25 -16.8 -0.3 -16.6 M0.45 -16.1 L0.4 -16.1 0.45 -16.1 M-7.2 -15.75 L-7.4 -15.55 -6.6 -14.95 -6.85 -15.05 -7.05 -15.0 -7.8 -15.95 -7.2 -15.75 M-5.1 -13.75 L-4.75 -13.6 -4.75 -13.5 -5.3 -13.7 -5.15 -13.75 -5.1 -13.75 M-4.35 -13.3 L-4.25 -13.5 Q-4.2 -13.4 -4.05 -13.4 L-4.05 -13.15 Q-4.05 -12.7 -4.3 -12.7 L-4.55 -12.75 Q-4.3 -12.75 -4.3 -13.1 L-4.35 -13.3 M-4.3 -13.85 L-4.45 -13.8 -4.45 -14.05 -4.3 -13.85 M-4.9 -14.45 L-4.95 -14.45 -5.0 -14.3 -5.15 -14.55 Q-5.25 -14.75 -5.55 -14.7 L-5.55 -14.6 -5.9 -15.0 -6.1 -15.2 -5.75 -15.0 -4.9 -14.45 M-8.0 -12.5 L-7.8 -12.55 -7.6 -12.5 -7.6 -12.45 -7.7 -12.45 -8.0 -12.5 M-6.55 -12.1 L-6.45 -12.05 -5.9 -11.35 -5.9 -11.3 -5.95 -11.5 -6.2 -11.5 -6.25 -11.65 -6.65 -11.4 -6.9 -11.1 -6.95 -11.1 -6.95 -10.9 -7.05 -11.05 -7.3 -11.25 -6.85 -11.4 -6.45 -11.7 -6.5 -11.85 -6.85 -11.8 -6.85 -11.9 -6.55 -12.1 M-6.2 -10.95 Q-6.45 -10.7 -6.7 -10.7 L-6.85 -10.75 -6.75 -10.75 -6.2 -10.95 M-7.55 -11.35 L-8.15 -11.4 -8.85 -11.2 -8.85 -11.25 -8.7 -11.4 -7.9 -11.7 -7.5 -11.95 -7.35 -11.85 -7.4 -11.85 -7.6 -11.5 -7.55 -11.4 -7.55 -11.35 M-9.0 -11.1 L-9.15 -11.0 -9.55 -10.5 -9.6 -10.55 -9.6 -11.0 -8.85 -12.0 -8.65 -12.0 -8.15 -12.2 -8.1 -12.15 -8.7 -11.9 -9.25 -11.25 -9.2 -11.1 -9.0 -11.1 M-6.0 -14.25 L-5.95 -14.2 -5.7 -13.85 -5.6 -13.85 -5.35 -13.7 -5.8 -13.85 -5.85 -13.65 -6.45 -14.3 -6.05 -14.25 -6.0 -14.25 M-3.25 -16.7 L-3.15 -16.4 -3.25 -16.25 -3.25 -15.95 -3.65 -17.1 -3.25 -16.7 M-2.2 -15.15 L-2.2 -15.0 -2.25 -14.75 -2.75 -14.5 -2.7 -14.4 -2.3 -14.4 -1.95 -14.65 -1.8 -14.9 -1.7 -14.55 Q-1.7 -14.25 -2.4 -14.25 -3.15 -14.25 -3.45 -14.95 L-3.65 -15.8 Q-3.7 -16.5 -4.45 -17.6 L-4.0 -17.4 -4.05 -17.25 -3.85 -16.8 -3.9 -16.8 -3.5 -15.7 -3.15 -14.9 -2.95 -14.5 -2.7 -14.8 -2.45 -14.7 -2.25 -14.75 -2.3 -14.95 -2.2 -15.15 M-4.8 -12.85 L-5.4 -13.3 -4.75 -13.05 -4.8 -12.85 M-0.2 -14.85 L-0.2 -14.75 -0.25 -14.75 -0.25 -14.85 -0.2 -14.85 M-2.25 -13.25 L-1.85 -13.3 Q-1.85 -12.7 -2.3 -12.7 -2.6 -12.7 -2.7 -12.9 L-2.25 -13.25 M-4.15 -10.75 L-4.05 -10.85 -4.15 -11.3 -3.95 -11.75 -3.65 -11.75 -3.65 -11.95 -3.65 -12.0 -3.6 -12.0 -3.4 -12.1 -3.35 -12.05 Q-3.4 -11.75 -3.75 -11.3 L-4.1 -10.6 -4.15 -10.75 M-7.25 -8.7 L-7.2 -8.75 -7.2 -8.8 -6.95 -8.8 -7.25 -8.35 -7.2 -8.55 -7.25 -8.7 M-9.2 -7.25 L-9.25 -7.3 -9.3 -7.25 -9.2 -7.5 -8.95 -7.5 -8.8 -7.6 -8.8 -7.5 -9.2 -7.25 M-9.4 -6.45 L-10.0 -6.2 -9.85 -6.3 -9.45 -6.6 -9.4 -6.45 M-9.25 -6.5 L-8.7 -7.0 -8.45 -7.25 -8.05 -7.55 -8.0 -7.65 -7.65 -7.85 -8.15 -7.35 -9.25 -6.5" fill="#0099cc" fill-rule="evenodd" stroke="none"/>
    <path d="M-0.3 -15.15 L-0.2 -15.2 -0.25 -14.95 -0.25 -15.1 -0.3 -15.15 M-0.2 -15.25 L-0.3 -15.25 -0.35 -15.35 -0.1 -15.9 -0.05 -15.9 -0.2 -15.25 M-5.85 -14.35 L-5.75 -14.3 -5.95 -14.25 -5.95 -14.2 -6.0 -14.25 -5.85 -14.3 -5.85 -14.35 M-5.55 -14.1 L-5.2 -13.85 -5.1 -13.75 -5.15 -13.75 -5.3 -13.7 -5.35 -13.7 -5.6 -13.85 -5.55 -13.9 -5.55 -14.1 M-7.4 -12.1 L-7.35 -12.1 -7.2 -12.0 -7.35 -11.85 -7.5 -11.95 -7.4 -12.05 -7.4 -12.1 M-6.95 -11.9 L-6.85 -11.9 -6.85 -11.8 -6.95 -11.8 -6.95 -11.85 -6.95 -11.9 M-3.15 -16.4 L-3.1 -16.25 -2.75 -15.75 -2.55 -15.8 -2.5 -15.4 -2.25 -15.4 -2.2 -15.15 -2.3 -14.95 Q-2.45 -15.3 -3.1 -15.5 L-3.15 -15.55 -3.15 -15.6 -3.25 -15.95 -3.25 -16.25 -3.15 -16.4 M-0.2 -14.85 L-0.25 -14.85 -0.25 -14.95 -0.2 -14.85" fill="#2e20ac" fill-rule="evenodd" stroke="none"/>
    <path d="M0.0 -16.55 L-0.25 -16.05 -0.65 -15.3 -0.45 -15.3 -0.3 -15.15 -0.25 -15.1 -0.25 -14.95 -0.25 -14.85 -0.25 -14.75 -0.4 -14.7 -0.65 -14.95 -0.7 -15.0 -0.7 -15.25 -0.85 -15.45 -0.3 -16.6 -0.25 -16.8 -0.25 -16.85 -0.35 -17.05 -0.2 -17.2 -0.15 -17.25 0.0 -16.55 M-7.05 -15.0 L-6.85 -15.05 -6.6 -14.95 -5.85 -14.35 -5.85 -14.3 -6.0 -14.25 -6.05 -14.25 -6.45 -14.3 -7.15 -14.85 -7.05 -15.0 M-5.75 -14.3 L-5.55 -14.1 -5.55 -13.9 -5.6 -13.85 -5.7 -13.85 -5.95 -14.2 -5.95 -14.25 -5.75 -14.3 M-4.75 -13.5 L-4.7 -13.2 -4.35 -13.3 -4.3 -13.1 Q-4.3 -12.75 -4.55 -12.75 L-4.8 -12.85 -4.75 -13.05 -5.4 -13.3 -5.45 -13.3 Q-5.85 -13.4 -5.85 -13.65 L-5.8 -13.85 -5.35 -13.7 -5.3 -13.7 -4.75 -13.5 M-7.3 -11.25 L-7.4 -11.25 -7.55 -11.3 -7.55 -11.35 -7.55 -11.4 -7.6 -11.5 -7.4 -11.85 -7.35 -11.85 -7.2 -12.0 -6.95 -11.9 -6.95 -11.85 -6.95 -11.8 -6.85 -11.8 -6.5 -11.85 -6.45 -11.7 -6.85 -11.4 -7.3 -11.25 M-6.9 -11.1 L-6.65 -11.4 -6.25 -11.65 -6.2 -11.5 -6.4 -11.5 -6.4 -11.2 -6.9 -11.1 M-8.1 -8.0 L-8.0 -8.1 -7.95 -8.1 -8.0 -8.05 -7.95 -7.95 -7.7 -7.95 -7.45 -8.25 -7.35 -8.55 -7.35 -8.65 -7.25 -8.7 -7.2 -8.55 -7.25 -8.35 -7.5 -8.05 -7.65 -7.85 -8.0 -7.65 -8.05 -7.55 -8.45 -7.25 -8.7 -7.0 -9.25 -6.5 -9.4 -6.45 -9.45 -6.6 -9.15 -6.85 -8.65 -7.4 -8.4 -7.65 -8.1 -8.0 M-9.3 -7.25 L-9.25 -7.3 -9.2 -7.25 -9.5 -7.05 -9.55 -6.95 -9.3 -7.25" fill="#ad1f9f" fill-rule="evenodd" stroke="none"/>
    <path d="M-7.6 -12.5 L-7.45 -12.55 -7.6 -12.45 -7.6 -12.5 M-8.7 -8.25 L-8.95 -7.9 -8.75 -7.7 -8.8 -7.6 -8.95 -7.5 -9.2 -7.5 -9.25 -7.6 -8.7 -8.25" fill="#a58b27" fill-rule="evenodd" stroke="none"/>
    <path d="M-8.85 -12.0 L-8.9 -12.15 -8.6 -12.45 -8.2 -12.55 -8.0 -12.5 -7.7 -12.45 -7.6 -12.45 -7.45 -12.55 -7.25 -12.65 -6.8 -12.5 -6.55 -12.15 -6.55 -12.1 -6.85 -11.9 -6.95 -11.9 -7.2 -12.0 -7.35 -12.1 -7.4 -12.1 -7.45 -12.2 -7.65 -12.2 -7.7 -12.25 -8.1 -12.15 -8.15 -12.2 -8.65 -12.0 -8.85 -12.0 M-2.25 -14.75 L-2.45 -14.7 -2.7 -14.8 -2.95 -14.5 -3.15 -14.9 -3.5 -15.7 -3.9 -16.8 -3.85 -16.8 -4.05 -17.25 -4.0 -17.4 -3.8 -17.5 -3.65 -17.1 -3.25 -15.95 -3.15 -15.6 -3.15 -15.55 -3.1 -15.5 Q-2.45 -15.3 -2.3 -14.95 L-2.25 -14.75 M-7.7 -8.95 L-7.85 -8.7 -7.8 -8.6 -7.6 -8.6 -7.75 -8.45 -7.95 -8.1 -8.0 -8.1 -8.1 -8.0 -8.1 -8.1 -8.15 -8.35 -8.65 -7.9 -8.75 -7.7 -8.95 -7.9 -8.7 -8.25 -8.45 -8.55 -8.25 -8.75 -7.95 -9.0 -7.7 -8.95" fill="#c96503" fill-rule="evenodd" stroke="none"/>
    <path d="M-0.05 -15.9 L0.0 -16.25 0.0 -16.55 -0.15 -17.25 -0.15 -17.85 -0.15 -17.9 0.1 -17.9 0.3 -16.7 0.3 -16.55 0.35 -16.55 0.5 -16.55 0.55 -16.4 0.45 -16.1 0.55 -16.1 0.55 -15.8 0.45 -15.55 0.25 -15.3 0.45 -15.05 0.45 -15.0 0.25 -14.75 0.15 -14.65 -0.1 -14.45 -0.2 -14.45 -0.3 -14.45 -0.45 -14.45 -0.5 -14.55 -0.45 -14.65 -0.4 -14.7 -0.25 -14.75 -0.2 -14.75 -0.2 -14.85 -0.25 -14.95 -0.2 -15.2 -0.2 -15.25 -0.05 -15.9 M0.45 -16.1 L0.4 -16.1 0.45 -16.1 M-6.6 -14.95 L-7.4 -15.55 -7.2 -15.75 -7.1 -15.75 Q-6.7 -15.75 -6.1 -15.2 L-5.9 -15.0 -5.55 -14.6 -5.55 -14.7 Q-5.25 -14.75 -5.15 -14.55 L-5.0 -14.3 -4.95 -14.45 -4.9 -14.45 -4.8 -14.5 -4.5 -14.15 -4.45 -14.05 -4.45 -13.8 -4.3 -13.85 -4.15 -13.9 -4.0 -13.8 -3.9 -13.75 -3.9 -13.65 -3.9 -13.45 -4.05 -13.4 Q-4.2 -13.4 -4.25 -13.5 L-4.35 -13.3 -4.7 -13.2 -4.75 -13.5 -4.75 -13.6 -5.1 -13.75 -5.2 -13.85 -5.55 -14.1 -5.75 -14.3 -5.85 -14.35 -6.6 -14.95 M-5.9 -11.3 L-5.9 -11.25 -6.2 -10.95 -6.75 -10.75 -6.85 -10.75 -6.95 -10.85 -6.95 -10.9 -6.95 -11.1 -6.9 -11.1 -6.4 -11.2 -6.4 -11.5 -6.2 -11.5 -5.95 -11.5 -5.9 -11.3 M-8.85 -11.2 L-9.0 -11.1 -9.2 -11.1 -9.25 -11.25 -8.7 -11.9 -8.1 -12.15 -7.7 -12.25 -7.65 -12.2 -7.45 -12.2 -7.4 -12.1 -7.4 -12.05 -7.5 -11.95 -7.9 -11.7 -8.7 -11.4 -8.85 -11.25 -8.85 -11.2 M-3.1 -17.05 L-3.0 -17.05 -2.9 -16.85 -2.3 -15.95 Q-1.8 -15.4 -1.8 -15.0 L-1.8 -14.9 -1.95 -14.65 -2.3 -14.4 -2.7 -14.4 -2.75 -14.5 -2.25 -14.75 -2.2 -15.0 -2.2 -15.15 -2.25 -15.4 -2.5 -15.4 -2.55 -15.8 -2.75 -15.75 -3.1 -16.25 -3.15 -16.4 -3.25 -16.7 -3.25 -16.85 -3.1 -17.05 M-3.65 -12.0 L-3.65 -11.95 -3.65 -11.75 -3.95 -11.75 -4.15 -11.3 -4.05 -10.85 -4.15 -10.75 -4.2 -10.75 Q-4.45 -10.75 -4.5 -11.25 L-4.45 -11.4 -4.2 -11.95 -3.9 -12.15 -3.65 -12.0 M-7.95 -8.1 L-7.75 -8.45 -7.6 -8.6 -7.8 -8.6 -7.85 -8.7 -7.7 -8.95 -7.7 -9.0 -7.2 -9.0 -7.2 -8.8 -7.2 -8.75 -7.25 -8.7 -7.35 -8.65 -7.35 -8.55 -7.45 -8.25 -7.7 -7.95 -7.95 -7.95 -8.0 -8.05 -7.95 -8.1 M-8.75 -7.7 L-8.65 -7.9 -8.15 -8.35 -8.1 -8.1 -8.1 -8.0 -8.4 -7.65 -8.65 -7.4 -9.15 -6.85 -9.45 -6.6 -9.85 -6.3 -10.1 -6.25 -10.15 -6.4 -9.55 -6.95 -9.5 -7.05 -9.2 -7.25 -8.8 -7.5 -8.8 -7.6 -8.75 -7.7" fill="#cc0000" fill-rule="evenodd" stroke="none"/>
  </g>
</svg>
