<?xml version="1.0" encoding="UTF-8" standalone="no"?>
<svg xmlns:xlink="http://www.w3.org/1999/xlink" height="80.7px" width="4.75px" xmlns="http://www.w3.org/2000/svg">
  <g transform="matrix(1.0, 0.0, 0.0, 1.0, 2.45, 51.6)">
    <path d="M0.05 -51.45 L0.1 -51.4 0.1 -51.6 Q1.75 -47.0 1.75 -45.25 L1.65 -44.9 1.7 -44.7 1.55 -44.2 1.75 -43.7 1.75 -43.45 2.1 -43.25 2.3 -42.9 2.2 -42.6 1.85 -42.35 2.05 -41.8 Q2.05 -41.5 1.8 -41.5 L1.95 -41.2 1.95 -41.05 2.05 -40.35 Q2.05 -39.6 1.8 -39.55 L1.65 -39.85 1.6 -39.85 1.2 -39.35 1.1 -38.75 1.05 -38.5 0.8 -37.75 0.75 -36.85 0.9 -36.1 0.85 -35.15 1.0 -33.8 0.85 -31.9 0.8 -29.0 0.85 -28.45 0.8 -27.25 0.8 -21.65 0.8 -17.95 0.85 -16.1 0.85 -15.6 0.95 -15.4 0.85 -15.05 0.95 -14.55 0.8 -14.35 0.8 29.0 0.55 29.0 0.25 29.1 -0.2 29.0 -0.25 28.9 -0.25 29.0 -0.65 29.0 -0.65 -14.85 -0.6 -14.85 -0.6 -35.35 -0.5 -35.35 -0.55 -36.9 -0.55 -36.95 -0.7 -37.6 -1.05 -38.3 -1.55 -38.35 -1.5 -38.75 -2.45 -40.5 -2.25 -40.85 -2.2 -40.85 -2.4 -41.1 -2.3 -41.7 -2.45 -42.1 -2.25 -42.6 -2.3 -42.9 -2.1 -43.4 -1.95 -43.75 -2.05 -44.25 -1.1 -47.8 -0.7 -49.6 -0.15 -50.9 -0.15 -51.05 -0.05 -51.15 -0.1 -51.2 0.0 -51.35 0.05 -51.45 M1.05 -46.4 L0.8 -48.1 0.1 -50.55 -0.7 -47.9 -1.4 -44.75 -1.65 -44.1 -1.55 -43.7 -1.95 -42.6 -1.8 -42.35 -2.05 -42.1 -1.9 -41.6 -2.0 -41.0 -1.95 -41.0 -1.9 -40.75 -2.0 -40.45 -1.45 -39.65 Q0.75 -40.7 1.3 -40.7 L1.6 -40.65 1.7 -40.95 Q1.4 -41.0 1.4 -41.55 L1.55 -42.05 1.4 -42.55 1.55 -42.8 Q1.25 -42.9 1.35 -43.2 1.15 -43.4 1.15 -44.1 1.25 -44.85 1.45 -45.05 1.1 -45.6 1.05 -46.4 M1.75 -42.9 L1.65 -42.8 1.7 -42.7 1.75 -42.9 M1.25 -40.2 L-1.25 -39.4 -1.15 -39.3 Q-0.8 -39.15 -0.25 -38.6 -0.05 -39.05 0.7 -39.1 L1.05 -39.9 1.25 -40.2 M0.15 -37.45 L0.2 -37.5 -0.45 -38.05 -0.25 -37.35 -0.1 -36.95 0.25 -36.7 0.3 -37.25 0.15 -37.45 M0.15 -38.1 L0.35 -37.9 0.45 -38.25 0.45 -38.3 0.15 -38.1 M0.15 -36.15 L0.0 -36.25 -0.05 -34.45 0.05 -34.45 0.15 -36.15 M0.25 -33.9 L0.0 -33.6 -0.2 -33.65 -0.2 -14.85 -0.15 -14.7 -0.2 -14.5 -0.2 -14.45 -0.25 -14.15 -0.25 28.05 Q-0.1 27.6 0.4 27.75 L0.4 -14.7 0.4 -15.0 0.55 -15.5 Q0.4 -17.85 0.4 -21.7 L0.4 -25.4 0.4 -27.0 0.35 -27.25 0.35 -27.4 0.45 -28.85 0.4 -29.2 0.45 -30.1 0.45 -31.9 0.35 -33.8 0.35 -33.9 0.25 -33.9" fill="#000000" fill-rule="evenodd" stroke="none"/>
    <path d="M0.25 -33.9 L0.35 -33.9 0.35 -33.8 0.45 -31.9 0.45 -30.1 0.4 -29.2 0.45 -28.85 0.35 -27.4 0.35 -27.25 0.4 -27.0 0.4 -25.4 0.4 -21.7 Q0.4 -17.85 0.55 -15.5 L0.4 -15.0 0.4 -14.7 0.4 27.75 Q-0.1 27.6 -0.25 28.05 L-0.25 -14.15 -0.2 -14.45 -0.2 -14.5 -0.15 -14.7 -0.2 -14.85 -0.2 -33.65 0.0 -33.6 0.25 -33.9" fill="#b59b39" fill-rule="evenodd" stroke="none"/>
    <path d="M0.15 -36.15 L0.05 -34.45 -0.05 -34.45 0.0 -36.25 0.15 -36.15 M0.15 -38.1 L0.45 -38.3 0.45 -38.25 0.35 -37.9 0.15 -38.1 M0.15 -37.45 L0.3 -37.25 0.25 -36.7 -0.1 -36.95 -0.25 -37.35 -0.45 -38.05 0.2 -37.5 0.15 -37.45 M1.25 -40.2 L1.05 -39.9 0.7 -39.1 Q-0.05 -39.05 -0.25 -38.6 -0.8 -39.15 -1.15 -39.3 L-1.25 -39.4 1.25 -40.2" fill="#decf98" fill-rule="evenodd" stroke="none"/>
    <path d="M1.05 -46.4 Q1.1 -45.6 1.45 -45.05 1.25 -44.85 1.15 -44.1 1.15 -43.4 1.35 -43.2 1.25 -42.9 1.55 -42.8 L1.4 -42.55 1.55 -42.05 1.4 -41.55 Q1.4 -41.0 1.7 -40.95 L1.6 -40.65 1.3 -40.7 Q0.75 -40.7 -1.45 -39.65 L-2.0 -40.45 -1.9 -40.75 -1.95 -41.0 -2.0 -41.0 -1.9 -41.6 -2.05 -42.1 -1.8 -42.35 -1.95 -42.6 -1.55 -43.7 -1.65 -44.1 -1.4 -44.75 -0.7 -47.9 0.1 -50.55 0.8 -48.1 1.05 -46.4" fill="#a3a298" fill-rule="evenodd" stroke="none"/>
  </g>
</svg>
