<?xml version="1.0" encoding="UTF-8" standalone="no"?>
<svg xmlns:xlink="http://www.w3.org/1999/xlink" height="11.85px" width="3.95px" xmlns="http://www.w3.org/2000/svg">
  <g transform="matrix(1.0, 0.0, 0.0, 1.0, 1.65, 1.0)">
    <path d="M0.85 -0.75 L0.95 -1.0 1.1 -0.8 1.1 -0.85 1.25 -0.3 1.3 0.2 1.4 0.5 1.85 2.05 1.85 2.5 1.8 2.65 1.6 3.5 1.3 4.9 1.25 5.45 1.25 6.7 1.3 7.6 1.55 7.95 2.15 8.75 2.3 9.0 2.25 9.05 2.25 9.15 2.1 9.25 2.05 9.25 1.9 9.25 1.85 9.2 1.65 9.15 1.45 9.15 1.3 9.7 1.2 10.2 1.3 10.55 1.15 10.75 1.05 10.8 0.9 10.85 0.85 10.85 Q-0.1 10.85 -0.8 10.4 L-1.3 10.1 -1.3 9.95 -1.4 9.8 Q-1.4 8.65 -0.7 7.9 L-0.3 7.6 -0.6 6.25 -0.75 5.65 -1.0 4.8 -1.4 3.35 -1.6 2.3 -1.65 2.05 -1.65 1.9 -1.55 1.05 -1.4 0.65 -1.35 0.4 -1.4 0.25 -1.45 -0.15 -1.15 -0.6 Q-0.85 -0.8 -0.85 -0.5 L-0.95 -0.3 -1.0 -0.25 -1.05 -0.05 -1.0 0.25 -0.9 0.45 -0.95 0.55 -1.0 0.65 -1.15 1.0 -1.35 2.05 -0.7 4.65 Q0.0 6.9 0.0 7.4 L-0.05 7.55 0.0 7.65 -0.15 7.8 -0.15 7.85 -0.25 7.95 -0.3 7.95 -0.4 8.05 -0.9 8.7 -1.05 9.75 Q-1.05 10.1 0.05 10.3 L0.8 10.5 0.85 10.45 0.9 10.2 0.95 9.7 1.0 9.2 1.35 8.9 1.7 8.85 1.8 8.85 1.85 8.85 1.25 8.05 1.2 8.1 0.9 7.75 0.95 7.7 0.9 7.5 0.9 7.45 0.85 7.2 0.85 6.8 Q0.85 5.45 1.2 3.9 L1.55 2.4 1.2 0.85 Q0.85 -0.15 0.85 -0.65 L0.85 -0.75" fill="#000000" fill-rule="evenodd" stroke="none"/>
    <path d="M0.85 -0.75 L0.85 -0.65 Q0.85 -0.15 1.2 0.85 L1.55 2.4 1.2 3.9 Q0.85 5.45 0.85 6.8 L0.85 7.2 0.9 7.45 0.9 7.5 0.95 7.7 0.9 7.75 1.2 8.1 1.25 8.05 1.85 8.85 1.8 8.85 1.7 8.85 1.35 8.9 1.0 9.2 0.95 9.7 0.9 10.2 0.85 10.45 0.8 10.5 0.05 10.3 Q-1.05 10.1 -1.05 9.75 L-0.9 8.7 -0.4 8.05 -0.3 7.95 -0.25 7.95 -0.15 7.85 -0.15 7.8 0.0 7.65 -0.05 7.55 0.0 7.4 Q0.0 6.9 -0.7 4.65 L-1.35 2.05 -1.15 1.0 -1.0 0.65 -0.95 0.55 -0.9 0.45 -1.0 0.25 -1.05 -0.05 -1.0 -0.25 -0.9 -0.2 0.15 -0.5 0.7 -0.7 0.85 -0.75" fill="#ffead5" fill-rule="evenodd" stroke="none"/>
  </g>
</svg>
