<?xml version="1.0" encoding="UTF-8" standalone="no"?>
<svg xmlns:xlink="http://www.w3.org/1999/xlink" height="14.15px" width="8.45px" xmlns="http://www.w3.org/2000/svg">
  <g transform="matrix(1.0, 0.0, 0.0, 1.0, 2.85, 3.0)">
    <path d="M1.25 -1.2 L1.05 -0.75 0.85 -0.25 1.35 0.55 1.7 1.1 2.6 -0.55 3.15 -2.4 2.2 -1.8 1.25 -1.2 M0.3 -0.9 L-1.85 -1.15 -1.85 -0.85 Q-1.9 -0.25 -2.25 0.0 L-2.5 0.8 -2.5 1.35 -2.35 1.05 -1.6 0.85 0.55 1.15 0.8 0.9 1.1 0.75 0.5 -0.3 0.65 -0.95 0.3 -0.9 M1.9 -2.05 L3.25 -2.8 3.25 -2.85 3.3 -2.85 3.55 -3.0 3.6 -2.85 3.5 -2.7 3.5 -2.6 Q3.4 -1.55 2.9 -0.35 L1.95 1.25 2.2 1.8 1.15 7.05 1.2 7.05 Q1.55 6.8 1.5 7.1 L2.2 7.5 Q2.9 7.95 3.35 7.85 L3.4 8.05 3.25 8.35 3.5 8.55 4.75 8.55 4.8 8.7 4.55 9.1 Q5.25 9.2 5.45 9.55 L5.6 10.35 5.55 10.9 2.8 11.15 2.2 11.05 1.65 11.0 1.65 10.9 0.15 10.95 -0.1 10.9 -0.15 10.95 -0.2 10.95 -0.25 11.1 -0.5 11.1 -0.5 10.95 -1.7 11.0 Q-2.45 11.0 -2.35 10.05 -2.25 8.8 -1.7 8.2 L-1.8 7.95 -1.75 7.8 -1.7 7.8 -1.5 6.75 Q-1.45 6.35 -1.7 5.35 L-1.85 4.7 -2.45 3.6 -2.75 2.3 -2.75 2.15 -2.8 0.8 -2.65 -0.05 -2.65 -0.1 -2.55 -0.4 -2.45 -0.4 -2.15 -0.85 -2.45 -1.35 -2.4 -1.65 -2.35 -1.65 -2.4 -1.75 -2.2 -1.8 Q-0.55 -1.25 0.35 -1.25 L1.9 -2.05 M1.5 1.4 L1.2 0.95 1.0 1.1 0.75 1.35 0.75 1.45 0.7 1.55 0.45 2.4 0.95 4.55 1.0 5.4 1.4 3.65 1.8 1.75 1.8 1.7 1.65 1.7 1.6 1.6 1.5 1.7 1.4 1.5 1.5 1.4 M0.4 1.45 L-1.65 1.2 -2.2 1.6 -2.4 2.15 Q-2.2 3.45 -1.5 4.45 L-1.5 4.55 -1.3 5.3 -1.2 6.7 Q-1.25 7.45 -1.45 7.8 L-0.15 9.1 -0.1 9.15 Q-0.05 8.45 0.8 7.55 L0.95 7.4 0.85 7.3 0.9 6.95 0.15 2.4 0.4 1.45 M3.0 8.75 L2.7 9.1 2.15 9.75 3.2 10.05 3.65 9.55 4.25 8.9 3.0 8.75 M1.35 7.5 L1.3 7.5 0.6 8.25 0.35 8.8 0.25 9.0 Q1.4 9.6 1.8 9.6 L2.9 8.25 1.85 7.8 1.4 7.45 1.35 7.5 M2.05 10.15 L1.8 9.95 Q0.9 9.95 0.4 9.5 L0.1 9.25 -0.05 9.35 -0.05 10.05 -0.1 10.55 1.8 10.55 2.05 10.15 M2.3 10.7 L2.8 10.8 5.3 10.6 5.3 10.35 Q5.35 9.8 4.95 9.6 L4.55 9.45 4.35 9.3 3.1 10.5 2.4 10.3 2.3 10.7 M-1.55 8.45 L-2.05 10.05 -2.05 10.65 -0.4 10.6 -0.35 9.95 Q-0.35 9.6 -0.55 9.55 L-1.15 8.95 -1.55 8.45" fill="#000000" fill-rule="evenodd" stroke="none"/>
    <path d="M1.25 -1.2 L2.2 -1.8 3.15 -2.4 2.6 -0.55 1.7 1.1 1.35 0.55 0.85 -0.25 1.05 -0.75 1.25 -1.2 M1.5 1.4 L1.4 1.5 1.5 1.7 1.6 1.6 1.65 1.7 1.8 1.7 1.8 1.75 1.4 3.65 1.0 5.4 0.95 4.55 0.45 2.4 0.7 1.55 0.75 1.45 0.75 1.35 1.0 1.1 1.2 0.95 1.5 1.4 M1.35 7.5 L1.4 7.45 1.85 7.8 2.9 8.25 1.8 9.6 Q1.4 9.6 0.25 9.0 L0.35 8.8 0.6 8.25 1.3 7.5 1.35 7.5 M3.0 8.75 L4.25 8.9 3.65 9.55 3.2 10.05 2.15 9.75 2.7 9.1 3.0 8.75 M-1.55 8.45 L-1.15 8.95 -0.55 9.55 Q-0.35 9.6 -0.35 9.95 L-0.4 10.6 -2.05 10.65 -2.05 10.05 -1.55 8.45 M2.3 10.7 L2.4 10.3 3.1 10.5 4.35 9.3 4.55 9.45 4.95 9.6 Q5.35 9.8 5.3 10.35 L5.3 10.6 2.8 10.8 2.3 10.7" fill="#bfbfbf" fill-rule="evenodd" stroke="none"/>
    <path d="M0.3 -0.9 L0.65 -0.95 0.5 -0.3 1.1 0.75 0.8 0.9 0.55 1.15 -1.6 0.85 -2.35 1.05 -2.5 1.35 -2.5 0.8 -2.25 0.0 Q-1.9 -0.25 -1.85 -0.85 L-1.85 -1.15 0.3 -0.9" fill="#8c8c8c" fill-rule="evenodd" stroke="none"/>
    <path d="M0.4 1.45 L0.15 2.4 0.9 6.95 0.85 7.3 0.95 7.4 0.8 7.55 Q-0.05 8.45 -0.1 9.15 L-0.15 9.1 -1.45 7.8 Q-1.25 7.45 -1.2 6.7 L-1.3 5.3 -1.5 4.55 -1.5 4.45 Q-2.2 3.45 -2.4 2.15 L-2.2 1.6 -1.65 1.2 0.4 1.45 M2.05 10.15 L1.8 10.55 -0.1 10.55 -0.05 10.05 -0.05 9.35 0.1 9.25 0.4 9.5 Q0.9 9.95 1.8 9.95 L2.05 10.15" fill="#555555" fill-rule="evenodd" stroke="none"/>
    <path d="M2.1 -1.4 L1.2 -1.0 1.15 -1.1 2.0 -1.8 3.05 -2.35 3.2 -2.3 3.15 -2.25 3.2 -2.15 2.95 -1.05 1.85 1.05 1.7 0.85 2.5 -1.1 2.1 -1.4 M0.0 -0.05 L0.4 0.65 0.35 0.7 -0.2 0.05 -0.4 0.05 -1.0 -0.05 -1.55 -0.1 -1.55 -0.25 -0.45 -0.2 Q-0.05 -0.2 0.05 -0.45 L0.35 -0.7 0.5 -0.65 0.25 -0.25 0.0 -0.05 M1.25 0.9 L1.5 1.3 1.85 1.75 1.9 1.7 1.9 1.75 2.0 1.8 1.9 1.9 1.9 2.3 1.85 2.7 1.85 2.75 1.75 3.25 1.75 3.3 1.7 3.4 1.7 3.8 1.45 4.55 1.25 5.25 1.25 5.3 1.1 5.9 1.05 5.95 0.9 5.7 1.2 4.35 1.25 4.2 1.25 4.0 1.45 3.2 1.4 3.2 1.35 2.65 1.3 2.25 0.45 2.55 0.35 2.5 1.2 1.6 1.0 1.2 1.1 0.9 1.25 0.9 M0.25 1.8 L-1.3 2.0 -1.4 2.05 -1.75 2.35 -2.25 2.9 -2.4 2.9 -2.4 2.65 -2.3 2.55 -2.4 2.6 -2.4 2.0 -2.35 2.0 -2.35 1.95 -2.2 1.55 Q-2.2 1.4 -1.85 1.35 -1.7 1.2 -1.4 1.2 L-1.3 1.2 -0.25 1.25 Q0.45 1.3 0.55 1.7 L0.5 1.75 0.25 1.75 0.25 1.8 M-0.8 5.8 Q-0.45 6.3 -0.2 7.45 L-0.2 8.55 -0.25 8.6 -0.4 8.6 -0.35 8.45 -0.55 8.25 Q-0.75 8.0 -1.0 8.0 L-1.0 7.7 -0.9 6.45 -0.95 6.15 -0.8 5.8" fill="#ffff00" fill-rule="evenodd" stroke="none"/>
  </g>
</svg>
