<?xml version="1.0" encoding="UTF-8" standalone="no"?>
<svg xmlns:xlink="http://www.w3.org/1999/xlink" height="11.4px" width="8.25px" xmlns="http://www.w3.org/2000/svg">
  <g transform="matrix(1.0, 0.0, 0.0, 1.0, 2.75, 9.45)">
    <path d="M3.6 -0.05 L3.3 -0.25 3.6 -0.15 3.6 -0.05 M1.85 -8.9 L1.9 -9.05 2.35 -8.8 2.35 -8.75 1.85 -8.9 M0.9 -8.75 L1.5 -8.95 1.5 -8.9 0.9 -8.75" fill="#999999" fill-rule="evenodd" stroke="none"/>
    <path d="M4.05 0.35 L4.7 0.85 Q4.5 0.1 4.4 -1.4 4.4 -2.1 4.75 -3.3 L5.2 -4.6 5.05 -4.6 5.0 -4.7 Q4.7 -4.85 4.25 -5.15 L3.4 -5.65 1.05 -5.6 Q0.8 -5.6 0.85 -5.75 L5.15 -6.15 5.1 -6.4 5.2 -6.95 3.7 -8.05 3.6 -8.1 3.5 -8.2 2.65 -8.7 2.35 -8.85 2.35 -8.8 1.9 -9.05 1.85 -8.9 1.5 -8.9 1.5 -8.95 0.9 -8.75 0.6 -8.7 -1.2 -8.1 -2.25 -7.0 -1.6 -6.7 -1.6 -6.5 -1.75 -6.45 -2.25 -6.6 -2.4 -6.65 -2.15 -6.05 Q-1.7 -4.7 -1.7 -3.75 L-1.8 -2.8 -2.05 -2.15 -1.95 -2.0 -1.75 -2.05 -1.75 -2.1 -1.55 -2.1 -1.45 -2.1 -0.4 -2.15 Q0.2 -2.15 1.2 -1.6 L0.4 -3.3 Q0.7 -3.4 0.8 -3.15 L0.95 -2.7 1.5 -1.65 1.5 -1.5 1.45 -1.5 1.5 -1.45 2.05 -1.1 Q2.4 -0.9 2.8 -0.65 L2.85 -0.6 3.3 -0.25 3.6 -0.05 3.6 0.0 4.05 0.35 M5.45 -7.2 L5.5 -6.95 5.5 -6.85 5.45 -6.7 5.45 -6.2 5.45 -5.95 5.4 -5.9 5.0 -5.75 4.85 -5.2 4.8 -5.15 4.85 -5.15 5.1 -4.95 5.15 -4.95 5.4 -4.7 5.4 -4.6 Q4.7 -2.4 4.7 -1.35 L4.85 0.0 5.35 1.5 5.3 1.55 5.25 1.7 2.9 -0.05 2.35 0.9 2.1 1.55 Q1.85 1.95 1.35 1.95 -0.1 1.95 -1.25 1.3 -2.2 0.8 -2.2 0.3 L-1.75 -1.65 -1.75 -1.7 -1.8 -1.7 -1.8 -1.65 -1.85 -1.5 -2.1 -1.5 -2.45 -2.0 -2.55 -2.15 -1.95 -3.75 Q-1.95 -5.25 -2.6 -6.7 L-2.75 -6.8 Q-2.75 -7.55 -1.35 -8.4 0.05 -9.3 1.55 -9.3 L1.85 -9.45 Q2.35 -9.45 3.95 -8.35 L5.3 -7.2 5.45 -7.2 M2.2 -0.6 Q0.75 -1.8 -0.45 -1.8 L-1.4 -1.75 -1.85 0.3 Q-1.85 0.75 -0.9 1.15 L1.3 1.65 2.1 0.7 Q2.4 0.05 2.65 -0.25 L2.2 -0.6" fill="#000000" fill-rule="evenodd" stroke="none"/>
    <path d="M3.6 -8.1 L4.55 -7.3 4.5 -7.05 4.25 -7.0 Q3.95 -7.0 3.65 -7.35 L3.55 -7.4 3.1 -7.0 0.75 -7.15 -1.25 -6.8 Q-1.8 -6.8 -1.8 -7.2 -1.8 -7.85 0.3 -8.6 L0.6 -8.7 0.9 -8.75 1.5 -8.9 1.85 -8.9 2.35 -8.75 2.35 -8.8 2.35 -8.85 2.65 -8.7 3.5 -8.2 3.6 -8.1 M2.05 -1.1 Q1.55 -1.7 1.0 -2.95 L1.05 -3.0 0.55 -4.0 0.75 -4.35 0.95 -4.2 0.95 -4.3 1.0 -4.35 Q2.45 -3.15 4.3 -0.35 L4.15 -0.1 4.45 0.15 4.2 0.35 4.05 0.35 3.6 0.0 3.6 -0.05 3.6 -0.15 3.3 -0.25 2.85 -0.6 2.8 -0.65 Q2.4 -0.9 2.05 -1.1" fill="#aaaaaa" fill-rule="evenodd" stroke="none"/>
    <path d="M3.6 -8.1 L3.7 -8.05 5.2 -6.95 5.1 -6.4 5.15 -6.15 0.85 -5.75 Q0.8 -5.6 1.05 -5.6 L3.4 -5.65 4.25 -5.15 Q4.7 -4.85 5.0 -4.7 L5.05 -4.6 5.2 -4.6 4.75 -3.3 Q4.4 -2.1 4.4 -1.4 4.5 0.1 4.7 0.85 L4.05 0.35 4.2 0.35 4.45 0.15 4.15 -0.1 4.3 -0.35 Q2.45 -3.15 1.0 -4.35 L0.95 -4.3 0.95 -4.2 0.75 -4.35 0.55 -4.0 1.05 -3.0 1.0 -2.95 Q1.55 -1.7 2.05 -1.1 L1.5 -1.45 1.5 -1.5 1.5 -1.65 0.95 -2.7 0.8 -3.15 Q0.7 -3.4 0.4 -3.3 L1.2 -1.6 Q0.2 -2.15 -0.4 -2.15 L-1.45 -2.1 -1.55 -2.1 -1.75 -2.1 -1.75 -2.05 -1.95 -2.0 -2.05 -2.15 -1.8 -2.8 -1.7 -3.75 Q-1.7 -4.7 -2.15 -6.05 L-2.4 -6.65 -2.25 -6.6 -1.75 -6.45 -1.6 -6.5 -1.6 -6.7 -2.25 -7.0 -1.2 -8.1 0.6 -8.7 0.3 -8.6 Q-1.8 -7.85 -1.8 -7.2 -1.8 -6.8 -1.25 -6.8 L0.75 -7.15 3.1 -7.0 3.55 -7.4 3.65 -7.35 Q3.95 -7.0 4.25 -7.0 L4.5 -7.05 4.55 -7.3 3.6 -8.1 M2.2 -0.6 L2.65 -0.25 Q2.4 0.05 2.1 0.7 L1.3 1.65 -0.9 1.15 Q-1.85 0.75 -1.85 0.3 L-1.4 -1.75 -0.45 -1.8 Q0.75 -1.8 2.2 -0.6" fill="#515151" fill-rule="evenodd" stroke="none"/>
  </g>
</svg>
