<?xml version="1.0" encoding="UTF-8" standalone="no"?>
<svg xmlns:xlink="http://www.w3.org/1999/xlink" height="20.25px" width="9.65px" xmlns="http://www.w3.org/2000/svg">
  <g transform="matrix(1.0, 0.0, 0.0, 1.0, 4.85, 10.15)">
    <path d="M2.2 -7.05 L2.25 -7.05 2.2 -7.05 M-2.55 2.6 L-2.5 2.65 -2.55 2.65 -2.55 2.6 M-3.4 3.65 L-3.35 3.65 -3.4 3.7 -3.4 3.65" fill="#ffffff" fill-rule="evenodd" stroke="none"/>
    <path d="M2.25 -7.05 L1.4 -8.15 Q0.5 -8.9 -0.45 -8.9 -1.9 -8.9 -2.9 -8.25 L-3.5 -7.7 -3.5 -7.6 Q-3.5 -7.25 -3.85 -6.3 L-4.25 -5.2 -3.9 -4.3 -3.75 -4.1 -3.25 -5.35 -2.4 -6.45 Q-2.0 -7.4 -1.0 -7.4 0.5 -7.4 1.1 -6.45 L1.45 -5.5 2.2 -7.05 2.25 -7.05 M2.45 -7.35 L2.55 -7.65 3.05 -8.25 0.8 -9.0 Q1.85 -8.65 2.45 -7.35 M3.55 -8.2 L3.4 -8.15 2.95 -7.4 2.9 -7.3 Q3.5 -7.05 4.1 -5.4 L4.8 -3.05 4.4 -2.3 4.6 -0.45 4.2 0.15 4.0 0.45 4.0 0.5 3.95 0.5 Q4.2 0.8 4.05 1.5 L3.9 1.9 3.7 2.2 3.75 2.3 3.8 2.3 3.8 2.4 3.85 2.75 3.65 3.15 3.4 3.35 3.4 3.4 3.55 3.4 3.85 4.9 3.65 5.9 3.4 6.5 3.4 6.75 3.05 6.9 3.05 6.85 2.85 6.9 Q2.45 7.0 2.6 7.3 L2.3 7.3 2.2 7.25 2.0 7.9 1.95 7.9 1.95 8.05 1.85 8.15 1.9 8.3 1.6 8.4 0.85 9.15 Q0.05 9.9 -0.55 10.1 L-0.9 10.1 -0.95 10.05 -0.95 9.8 -0.7 9.75 Q-1.5 9.6 -2.85 7.35 L-2.95 7.35 -3.8 6.85 -4.15 6.75 -4.25 6.65 -4.4 7.45 -4.5 7.5 -4.5 7.6 -4.75 7.65 -4.85 6.9 Q-4.85 5.85 -4.45 4.4 L-4.0 3.1 -4.0 2.95 -3.35 0.95 -3.1 0.25 -3.1 0.1 -3.05 0.1 -2.95 -0.2 -3.15 -1.65 -3.1 -1.8 -3.7 -3.45 -3.9 -3.45 -3.9 -3.65 -4.25 -4.2 -4.55 -5.15 -4.25 -6.35 -3.8 -7.45 -3.95 -7.7 -3.8 -7.9 -3.6 -9.0 Q-3.25 -10.15 -2.8 -10.15 L1.2 -9.45 Q2.7 -8.95 3.3 -8.45 L3.4 -8.5 3.45 -8.35 3.45 -8.3 3.55 -8.2 M2.7 -6.9 L2.4 -5.95 2.25 -5.9 2.05 -6.0 2.05 -6.15 1.45 -4.75 1.85 -3.3 2.3 -1.8 3.4 -1.7 Q3.7 -1.7 4.1 -2.45 L4.45 -3.2 4.0 -4.7 Q3.4 -5.85 3.35 -6.25 3.1 -7.2 2.7 -6.9 M1.15 -5.25 Q1.2 -6.9 -0.6 -6.95 -2.45 -7.05 -2.5 -4.65 -2.5 -4.05 -2.1 -3.45 -1.5 -2.5 -0.3 -2.5 0.45 -2.5 0.85 -2.9 L1.2 -3.55 1.0 -4.8 1.15 -5.25 M1.55 -3.4 L1.5 -3.65 1.5 -3.5 Q1.5 -3.15 1.1 -2.7 L0.85 -2.45 1.0 -2.1 1.15 -1.55 Q1.15 -1.1 0.35 -0.9 L0.35 -0.8 0.35 -0.7 Q0.3 0.4 -0.7 0.4 L-0.9 0.4 Q-1.0 1.1 -1.95 1.1 L-2.75 0.95 -2.8 0.85 -2.95 0.8 -3.25 1.95 -2.8 2.45 -2.65 2.35 -2.55 2.6 -2.55 2.65 -2.5 2.65 -2.4 2.6 -0.8 3.15 0.75 3.45 1.55 3.45 2.15 3.4 1.35 3.15 Q0.75 3.0 0.75 2.55 L1.0 2.15 1.2 1.55 Q1.2 0.85 2.05 -0.4 L2.8 -1.35 Q1.95 -1.5 1.75 -2.05 L1.75 -2.1 1.55 -2.3 1.65 -2.4 1.65 -3.05 1.55 -3.4 M0.6 -2.25 L-0.25 -2.1 Q-2.55 -2.1 -2.8 -4.65 L-2.7 -5.45 -3.5 -3.8 Q-3.1 -3.45 -2.55 -0.6 L-2.6 -0.4 -2.7 0.05 -2.65 0.4 -2.55 0.45 -2.45 0.6 -2.35 0.7 -1.7 0.75 -1.25 0.5 -1.2 0.35 -1.25 0.35 -1.25 0.15 -1.45 0.0 -1.7 -0.3 -1.45 -0.5 -0.9 0.05 -0.7 0.05 Q-0.1 0.05 -0.05 -0.4 L0.0 -0.7 -0.45 -1.45 Q-0.45 -1.65 -0.2 -1.65 L0.2 -1.1 0.5 -1.3 0.85 -1.6 0.6 -2.25 M2.7 -0.65 L2.0 0.25 3.7 0.3 4.0 -0.05 4.25 -0.5 4.05 -1.8 3.45 -1.3 3.25 -1.3 2.7 -0.65 M2.85 0.75 L2.0 0.7 1.5 1.55 1.75 1.75 1.9 1.75 3.25 2.15 3.75 1.55 3.6 0.7 3.6 0.6 2.85 0.75 M3.5 2.75 L3.4 2.45 1.55 2.15 1.4 2.15 1.15 2.6 1.65 2.95 2.6 3.3 2.65 3.25 2.95 3.25 2.95 3.3 3.05 3.3 3.0 3.2 Q3.0 3.05 3.25 3.0 L3.5 2.75 M2.45 4.95 L-0.15 5.85 -1.65 5.3 -2.7 4.4 -2.9 5.45 -2.75 5.4 -1.7 6.3 -0.55 7.2 Q0.95 7.2 1.9 6.55 L2.05 6.55 2.3 5.4 2.45 4.95 M2.5 4.75 L2.7 4.1 2.6 3.75 2.6 3.65 2.5 3.65 1.5 3.7 0.9 3.75 Q-1.65 3.65 -2.45 2.9 L-2.65 3.95 Q-0.7 5.45 -0.1 5.45 L2.2 4.75 2.5 4.75 M3.2 3.75 L3.05 3.75 3.05 3.8 3.05 3.95 3.15 4.6 3.45 4.45 3.2 3.85 3.2 3.75 M3.55 4.85 L3.55 4.8 3.35 4.85 3.2 4.85 3.3 5.6 3.55 4.85 M3.05 6.35 L3.05 6.25 3.1 6.2 2.8 4.85 2.35 6.6 3.0 6.35 3.05 6.35 M1.95 6.9 L0.8 7.25 -0.6 7.6 -2.95 5.65 -3.05 6.5 -2.4 7.65 -2.4 7.45 -1.6 7.95 -0.55 8.45 0.85 8.3 1.4 8.2 1.75 7.9 1.75 7.55 1.95 6.9 M0.95 8.6 L0.8 8.6 -0.55 8.85 Q-0.95 8.85 -2.05 8.05 L-1.8 8.35 -0.5 9.7 0.65 8.85 0.95 8.6 M-2.85 -8.55 Q-1.55 -9.25 -0.4 -9.25 L0.4 -9.15 -2.8 -9.8 -3.25 -8.9 -3.4 -8.2 -2.85 -8.55 M-3.35 3.65 L-2.9 2.75 -3.25 2.55 -3.4 2.4 -3.65 3.25 -3.7 3.45 Q-3.5 3.5 -3.4 3.65 L-3.4 3.7 -3.35 3.65 M-2.75 3.25 L-3.7 5.2 -4.2 6.45 -4.05 6.4 -3.3 6.7 -3.2 6.75 -3.35 6.5 -3.05 4.55 -2.75 3.25 M-3.7 3.95 L-3.8 3.85 -4.05 4.95 -4.1 5.1 -4.0 5.15 -3.9 4.85 -3.55 4.05 -3.7 3.95" fill="#000000" fill-rule="evenodd" stroke="none"/>
    <path d="M2.2 -7.05 L1.45 -5.5 1.1 -6.45 Q0.5 -7.4 -1.0 -7.4 -2.0 -7.4 -2.4 -6.45 L-3.25 -5.35 -3.75 -4.1 -3.9 -4.3 -4.25 -5.2 -3.85 -6.3 Q-3.5 -7.25 -3.5 -7.6 L-3.5 -7.7 -2.9 -8.25 Q-1.9 -8.9 -0.45 -8.9 0.5 -8.9 1.4 -8.15 L2.25 -7.05 2.2 -7.05" fill="#cccccc" fill-rule="evenodd" stroke="none"/>
    <path d="M3.05 6.35 L3.0 6.35 2.35 6.6 2.8 4.85 3.1 6.2 3.05 6.25 3.05 6.35 M-2.75 3.25 L-3.05 4.55 -3.35 6.5 -3.2 6.75 -3.3 6.7 -4.05 6.4 -4.2 6.45 -3.7 5.2 -2.75 3.25" fill="#2b2b2b" fill-rule="evenodd" stroke="none"/>
    <path d="M0.6 -2.25 L0.85 -1.6 0.5 -1.3 0.2 -1.1 -0.2 -1.65 Q-0.45 -1.65 -0.45 -1.45 L0.0 -0.7 -0.05 -0.4 Q-0.1 0.05 -0.7 0.05 L-0.9 0.05 -1.45 -0.5 -1.7 -0.3 -1.45 0.0 -1.25 0.15 -1.25 0.35 -1.2 0.35 -1.25 0.5 -1.7 0.75 -2.35 0.7 -2.45 0.6 -2.55 0.45 -2.65 0.4 -2.7 0.05 -2.6 -0.4 -2.55 -0.6 Q-3.1 -3.45 -3.5 -3.8 L-2.7 -5.45 -2.8 -4.65 Q-2.55 -2.1 -0.25 -2.1 L0.6 -2.25" fill="#333333" fill-rule="evenodd" stroke="none"/>
    <path d="M1.15 -5.25 L1.0 -4.8 1.2 -3.55 0.85 -2.9 Q0.45 -2.5 -0.3 -2.5 -1.5 -2.5 -2.1 -3.45 -2.5 -4.05 -2.5 -4.65 -2.45 -7.05 -0.6 -6.95 1.2 -6.9 1.15 -5.25" fill="#111111" fill-rule="evenodd" stroke="none"/>
    <path d="M2.45 -7.35 Q1.85 -8.65 0.8 -9.0 L3.05 -8.25 2.55 -7.65 2.45 -7.35 M-2.85 -8.55 L-3.4 -8.2 -3.25 -8.9 -2.8 -9.8 0.4 -9.15 -0.4 -9.25 Q-1.55 -9.25 -2.85 -8.55" fill="#515151" fill-rule="evenodd" stroke="none"/>
    <path d="M2.7 -6.9 Q3.1 -7.2 3.35 -6.25 3.4 -5.85 4.0 -4.7 L4.45 -3.2 4.1 -2.45 Q3.7 -1.7 3.4 -1.7 L2.3 -1.8 1.85 -3.3 1.45 -4.75 2.05 -6.15 2.05 -6.0 2.25 -5.9 2.4 -5.95 2.7 -6.9" fill="#c8c8c8" fill-rule="evenodd" stroke="none"/>
    <path d="M3.5 2.75 L3.25 3.0 Q3.0 3.05 3.0 3.2 L3.05 3.3 2.95 3.3 2.95 3.25 2.65 3.25 2.6 3.3 1.65 2.95 1.15 2.6 1.4 2.15 1.55 2.15 3.4 2.45 3.5 2.75 M2.85 0.75 L3.6 0.6 3.6 0.7 3.75 1.55 3.25 2.15 1.9 1.75 1.75 1.75 1.5 1.55 2.0 0.7 2.85 0.75 M2.7 -0.65 L3.25 -1.3 3.45 -1.3 4.05 -1.8 4.25 -0.5 4.0 -0.05 3.7 0.3 2.0 0.25 2.7 -0.65" fill="#999999" fill-rule="evenodd" stroke="none"/>
    <path d="M1.5 -3.5 L1.55 -3.4 1.65 -3.05 1.65 -2.4 1.55 -2.3 1.75 -2.1 1.75 -2.05 Q1.95 -1.5 2.8 -1.35 L2.05 -0.4 Q1.2 0.85 1.2 1.55 L1.0 2.15 0.75 2.55 Q0.75 3.0 1.35 3.15 L2.15 3.4 1.55 3.45 0.75 3.45 -0.8 3.15 -2.4 2.6 -2.5 2.65 -2.55 2.6 -2.65 2.35 -2.8 2.45 -3.25 1.95 -2.95 0.8 -2.8 0.85 -2.75 0.95 -1.95 1.1 Q-1.0 1.1 -0.9 0.4 L-0.7 0.4 Q0.3 0.4 0.35 -0.7 L0.35 -0.8 0.35 -0.9 Q1.15 -1.1 1.15 -1.55 L1.0 -2.1 0.85 -2.45 1.1 -2.7 Q1.5 -3.15 1.5 -3.5" fill="#404040" fill-rule="evenodd" stroke="none"/>
    <path d="M3.55 4.85 L3.3 5.6 3.2 4.85 3.35 4.85 3.55 4.8 3.55 4.85 M3.2 3.75 L3.2 3.85 3.45 4.45 3.15 4.6 3.05 3.95 3.05 3.8 3.05 3.75 3.2 3.75 M2.5 4.75 L2.2 4.75 -0.1 5.45 Q-0.7 5.45 -2.65 3.95 L-2.45 2.9 Q-1.65 3.65 0.9 3.75 L1.5 3.7 2.5 3.65 2.6 3.65 2.6 3.75 2.7 4.1 2.5 4.75 M2.45 4.95 L2.3 5.4 2.05 6.55 1.9 6.55 Q0.95 7.2 -0.55 7.2 L-1.7 6.3 -2.75 5.4 -2.9 5.45 -2.7 4.4 -1.65 5.3 -0.15 5.85 2.45 4.95 M0.95 8.6 L0.65 8.85 -0.5 9.7 -1.8 8.35 -2.05 8.05 Q-0.95 8.85 -0.55 8.85 L0.8 8.6 0.95 8.6 M1.95 6.9 L1.75 7.55 1.75 7.9 1.4 8.2 0.85 8.3 -0.55 8.45 -1.6 7.95 -2.4 7.45 -2.4 7.65 -3.05 6.5 -2.95 5.65 -0.6 7.6 0.8 7.25 1.95 6.9 M-3.4 3.65 Q-3.5 3.5 -3.7 3.45 L-3.65 3.25 -3.4 2.4 -3.25 2.55 -2.9 2.75 -3.35 3.65 -3.4 3.65 M-3.7 3.95 L-3.55 4.05 -3.9 4.85 -4.0 5.15 -4.1 5.1 -4.05 4.95 -3.8 3.85 -3.7 3.95" fill="#7b7b7b" fill-rule="evenodd" stroke="none"/>
    <path d="M0.45 -8.1 L0.95 -7.7 0.95 -7.6 Q1.0 -7.55 0.85 -7.55 0.3 -7.55 0.3 -8.05 L0.45 -8.1 M1.75 -6.55 Q1.6 -6.55 1.55 -6.65 L1.4 -6.85 1.4 -7.1 1.85 -6.6 Q1.9 -6.55 1.75 -6.55 M2.7 -6.8 L2.75 -7.0 3.25 -6.8 3.15 -6.7 3.45 -6.3 3.65 -5.9 3.8 -5.5 3.8 -5.45 4.5 -3.3 4.5 -3.2 4.5 -3.15 Q4.5 -2.8 4.1 -2.3 3.6 -1.65 2.9 -1.65 2.2 -1.65 2.2 -2.15 L2.25 -2.25 1.95 -3.1 1.55 -4.45 1.6 -4.8 1.85 -4.8 2.05 -3.7 2.35 -2.65 3.2 -2.7 3.3 -2.5 3.0 -2.35 3.1 -2.05 3.1 -1.9 Q3.5 -1.95 3.85 -2.35 L3.95 -2.7 4.15 -3.15 4.1 -3.5 3.45 -3.6 3.05 -3.75 3.05 -3.9 4.05 -3.9 3.55 -5.15 2.9 -6.4 2.7 -6.8 M3.55 4.55 L3.5 4.6 3.25 4.45 3.25 3.7 3.4 3.7 3.55 4.55 M-2.65 -7.6 Q-2.45 -7.95 -1.9 -7.95 L-1.85 -7.85 Q-1.85 -7.55 -2.55 -7.55 L-2.65 -7.6 M-3.05 -7.0 L-3.15 -6.8 -3.05 -6.65 Q-3.05 -6.5 -3.4 -6.3 L-3.9 -6.15 -3.65 -6.9 -3.4 -6.85 -3.1 -7.1 -3.05 -7.0 M-0.35 -8.35 L-0.3 -8.1 -0.85 -8.1 -0.85 -7.95 -1.1 -7.9 -1.15 -8.05 -0.85 -8.35 -0.35 -8.35 M-0.65 4.7 Q-0.65 4.3 -0.3 4.3 L0.25 4.7 Q0.25 5.05 -0.2 5.05 L-0.65 4.7 M-0.45 6.4 Q-0.1 6.35 -0.1 6.7 -0.1 7.05 -0.3 7.05 L-0.85 6.8 Q-0.85 6.45 -0.45 6.4 M-0.25 8.15 L-0.45 8.25 -0.75 8.25 -0.8 8.05 Q-0.8 7.85 -0.5 7.85 -0.25 7.85 -0.25 8.15" fill="#ffff00" fill-rule="evenodd" stroke="none"/>
  </g>
</svg>
