<?xml version="1.0" encoding="UTF-8" standalone="no"?>
<svg xmlns:xlink="http://www.w3.org/1999/xlink" height="34.05px" width="8.6px" xmlns="http://www.w3.org/2000/svg">
  <g transform="matrix(1.0, 0.0, 0.0, 1.0, 4.3, 29.05)">
    <path d="M0.6 -28.15 L0.95 -27.2 1.4 -25.35 1.55 -25.35 1.55 -22.95 1.25 -21.75 1.25 -6.7 1.3 -6.45 1.25 -6.35 1.35 -6.2 1.45 -5.65 2.05 -4.85 2.0 -4.75 1.95 -4.75 1.95 -4.65 1.15 -3.65 Q1.65 -3.5 1.65 -3.25 L1.6 -3.1 1.45 -3.1 1.35 -3.05 3.1 -3.05 3.15 -3.25 3.55 -3.5 3.65 -3.4 4.25 -2.7 4.3 -2.55 4.25 -2.4 4.2 -2.4 4.2 -2.35 3.5 -1.7 3.35 -1.8 3.3 -1.9 1.0 -1.9 0.95 -1.95 0.85 -1.9 0.85 2.85 1.25 3.7 Q1.3 3.6 1.4 3.6 L1.4 3.9 0.3 4.9 0.3 4.95 0.15 5.0 0.1 5.0 -0.9 4.15 -0.85 4.0 -1.0 4.0 -1.05 3.9 -0.85 3.3 -0.7 3.15 -0.7 3.05 -0.75 2.95 -0.7 2.5 -0.75 2.45 -0.75 -1.9 -0.95 -1.95 -1.0 -1.9 -3.3 -1.9 -3.35 -1.8 -3.5 -1.7 -4.2 -2.35 -4.2 -2.4 -4.25 -2.4 -4.3 -2.55 -4.25 -2.7 -3.65 -3.4 -3.55 -3.5 -3.15 -3.25 -3.1 -3.05 -1.35 -3.05 -1.45 -3.1 -1.6 -3.1 -1.65 -3.25 Q-1.65 -3.5 -1.15 -3.65 L-1.95 -4.65 -1.95 -4.75 -2.0 -4.75 -2.05 -4.85 -1.45 -5.65 -1.35 -6.2 -1.25 -6.35 -1.3 -6.45 -1.25 -6.7 -1.25 -21.75 -1.55 -22.95 -1.55 -25.35 -1.4 -25.35 -0.95 -27.2 -0.6 -28.15 0.0 -29.05 0.2 -28.85 0.6 -28.15 M0.2 -25.65 L0.2 -25.6 0.25 -25.65 0.3 -25.55 0.25 -25.4 0.7 -24.3 0.2 -22.9 0.2 -5.65 0.25 -5.65 0.3 -5.5 0.8 -4.95 0.55 -4.65 0.2 -4.3 0.2 -3.3 0.9 -3.05 1.0 -3.05 1.1 -3.2 Q0.8 -3.35 0.8 -3.55 L0.85 -3.75 0.95 -3.7 0.95 -3.85 1.3 -4.5 1.6 -4.85 1.1 -5.55 Q0.95 -5.7 0.95 -6.2 L0.9 -6.6 0.95 -6.85 1.0 -6.85 1.0 -21.6 0.95 -21.6 0.95 -22.05 1.05 -22.6 1.3 -22.9 1.25 -22.95 1.25 -24.85 1.15 -24.9 0.2 -28.2 0.2 -25.65 M0.0 -5.5 L0.0 -23.0 -0.35 -24.45 -0.15 -25.15 0.0 -25.4 0.0 -28.75 -1.15 -24.9 -1.25 -24.85 -1.25 -22.95 -1.3 -22.9 -1.05 -22.6 -0.95 -22.05 -0.95 -21.6 -1.0 -21.6 -1.0 -6.85 -0.95 -6.85 -0.9 -6.6 -0.95 -6.2 Q-0.95 -5.7 -1.1 -5.55 L-1.6 -4.85 -1.3 -4.5 -0.95 -3.85 -0.95 -3.7 -0.85 -3.75 -0.8 -3.55 Q-0.8 -3.35 -1.1 -3.2 L-1.0 -3.05 -0.9 -3.05 0.0 -3.4 0.0 -4.25 0.1 -4.2 0.05 -4.25 -0.45 -4.9 -0.2 -5.2 0.05 -5.45 0.05 -5.5 0.05 -5.55 0.0 -5.5 M0.5 -24.3 L0.2 -25.2 -0.15 -24.45 0.15 -23.45 0.5 -24.3 M0.2 -5.25 L-0.15 -4.95 0.1 -4.6 0.5 -4.95 0.2 -5.25 M3.55 -3.0 L3.55 -2.75 3.3 -2.7 1.1 -2.75 1.05 -2.7 1.0 -2.7 0.8 -2.65 Q0.5 -2.65 0.0 -3.0 -0.5 -2.65 -0.8 -2.65 L-1.0 -2.7 -1.05 -2.7 -1.1 -2.75 -3.3 -2.7 -3.55 -2.75 -3.55 -3.0 -3.45 -3.0 -3.55 -3.1 -3.6 -3.0 -3.95 -2.55 -3.5 -2.05 -3.45 -2.15 -3.4 -2.15 -3.2 -2.3 -2.65 -2.25 -1.4 -2.25 -1.25 -2.3 -1.1 -2.35 0.0 -2.0 1.1 -2.35 1.25 -2.3 1.4 -2.25 2.65 -2.25 3.2 -2.3 3.4 -2.15 3.45 -2.15 3.5 -2.05 3.95 -2.55 3.6 -3.0 3.55 -3.1 3.45 -3.0 3.55 -3.0 M0.0 -1.5 L-0.4 -1.75 -0.4 -1.35 0.55 -0.3 0.5 -1.8 0.0 -1.5 M0.55 1.2 L-0.4 -0.1 -0.4 0.35 -0.25 0.35 0.1 1.15 0.55 1.6 0.55 1.2 M0.0 2.6 L-0.45 1.8 -0.35 2.85 0.2 2.9 0.0 2.6 M0.6 2.55 L0.55 2.1 -0.05 1.35 -0.4 0.8 -0.45 1.55 0.35 2.25 0.6 2.55 M0.55 0.25 L-0.4 -1.0 -0.4 -0.4 0.55 0.65 0.55 0.25 M0.55 3.25 L-0.3 3.25 -0.35 3.35 -0.45 3.95 0.15 4.55 0.6 4.1 0.6 3.6 0.55 3.25" fill="#000000" fill-rule="evenodd" stroke="none"/>
    <path d="M0.25 -25.65 L0.2 -25.6 0.2 -25.65 0.25 -25.65 M0.0 -4.25 L0.05 -4.25 0.0 -4.25 M0.05 -5.45 L0.0 -5.5 0.05 -5.5 0.05 -5.45 M-3.55 -3.0 L-3.6 -3.0 -3.55 -3.1 -3.45 -3.0 -3.55 -3.0 M3.6 -3.0 L3.55 -3.0 3.45 -3.0 3.55 -3.1 3.6 -3.0" fill="#ffffff" fill-rule="evenodd" stroke="none"/>
    <path d="M0.5 -24.3 L0.15 -23.45 -0.15 -24.45 0.2 -25.2 0.5 -24.3 M0.2 -5.25 L0.5 -4.95 0.1 -4.6 -0.15 -4.95 0.2 -5.25" fill="#e6e6e6" fill-rule="evenodd" stroke="none"/>
    <path d="M-3.55 -3.0 L-3.55 -2.75 -3.3 -2.7 -1.1 -2.75 -1.05 -2.7 -1.0 -2.7 -0.8 -2.65 Q-0.5 -2.65 0.0 -3.0 0.5 -2.65 0.8 -2.65 L1.0 -2.7 1.05 -2.7 1.1 -2.75 3.3 -2.7 3.55 -2.75 3.55 -3.0 3.6 -3.0 3.95 -2.55 3.5 -2.05 3.45 -2.15 3.4 -2.15 3.2 -2.3 2.65 -2.25 1.4 -2.25 1.25 -2.3 1.1 -2.35 0.0 -2.0 -1.1 -2.35 -1.25 -2.3 -1.4 -2.25 -2.65 -2.25 -3.2 -2.3 -3.4 -2.15 -3.45 -2.15 -3.5 -2.05 -3.95 -2.55 -3.6 -3.0 -3.55 -3.0 M0.55 3.25 L0.6 3.6 0.6 4.1 0.15 4.55 -0.45 3.95 -0.35 3.35 -0.3 3.25 0.55 3.25" fill="#ffff00" fill-rule="evenodd" stroke="none"/>
    <path d="M0.25 -25.65 L0.2 -25.65 0.2 -28.2 1.15 -24.9 1.25 -24.85 1.25 -22.95 1.3 -22.9 1.05 -22.6 0.95 -22.05 0.95 -21.6 1.0 -21.6 1.0 -6.85 0.95 -6.85 0.9 -6.6 0.95 -6.2 Q0.95 -5.7 1.1 -5.55 L1.6 -4.85 1.3 -4.5 0.95 -3.85 0.95 -3.7 0.85 -3.75 0.8 -3.55 Q0.8 -3.35 1.1 -3.2 L1.0 -3.05 0.9 -3.05 0.2 -3.3 0.2 -4.3 0.55 -4.65 0.8 -4.95 0.3 -5.5 0.25 -5.65 0.2 -5.65 0.2 -22.9 0.7 -24.3 0.25 -25.4 0.3 -25.55 0.25 -25.65 M0.0 -4.25 L0.0 -3.4 -0.9 -3.05 -1.0 -3.05 -1.1 -3.2 Q-0.8 -3.35 -0.8 -3.55 L-0.85 -3.75 -0.95 -3.7 -0.95 -3.85 -1.3 -4.5 -1.6 -4.85 -1.1 -5.55 Q-0.95 -5.7 -0.95 -6.2 L-0.9 -6.6 -0.95 -6.85 -1.0 -6.85 -1.0 -21.6 -0.95 -21.6 -0.95 -22.05 -1.05 -22.6 -1.3 -22.9 -1.25 -22.95 -1.25 -24.85 -1.15 -24.9 0.0 -28.75 0.0 -25.4 -0.15 -25.15 -0.35 -24.45 0.0 -23.0 0.0 -5.5 0.05 -5.45 -0.2 -5.2 -0.45 -4.9 0.05 -4.25 0.0 -4.25" fill="#444444" fill-rule="evenodd" stroke="none"/>
    <path d="M0.55 0.25 L0.55 0.65 -0.4 -0.4 -0.4 -1.0 0.55 0.25 M0.6 2.55 L0.35 2.25 -0.45 1.55 -0.4 0.8 -0.05 1.35 0.55 2.1 0.6 2.55 M0.0 2.6 L0.2 2.9 -0.35 2.85 -0.45 1.8 0.0 2.6 M0.55 1.2 L0.55 1.6 0.1 1.15 -0.25 0.35 -0.4 0.35 -0.4 -0.1 0.55 1.2 M0.0 -1.5 L0.5 -1.8 0.55 -0.3 -0.4 -1.35 -0.4 -1.75 0.0 -1.5" fill="#80503c" fill-rule="evenodd" stroke="none"/>
  </g>
</svg>
