<?xml version="1.0" encoding="UTF-8" standalone="no"?>
<svg xmlns:xlink="http://www.w3.org/1999/xlink" height="30.15px" width="27.75px" xmlns="http://www.w3.org/2000/svg">
  <g transform="matrix(1.0, 0.0, 0.0, 1.0, -19.35, 54.9)">
    <path d="M35.45 -54.3 Q35.45 -55.65 36.3 -54.05 38.35 -52.2 40.05 -49.1 L42.95 -43.05 45.2 -37.25 Q47.1 -32.0 47.1 -31.05 L47.05 -30.55 46.8 -30.5 46.55 -30.95 45.8 -30.8 42.6 -30.8 39.8 -30.1 37.15 -29.4 Q35.0 -28.95 32.7 -28.0 30.8 -27.25 30.25 -27.25 30.15 -27.25 30.05 -27.35 L29.85 -27.45 24.8 -26.4 22.35 -25.45 Q20.7 -24.75 19.85 -24.75 L19.45 -24.8 19.35 -25.05 Q19.35 -25.4 21.1 -26.05 L22.5 -26.85 Q24.7 -28.05 24.85 -28.05 L25.25 -28.15 26.4 -28.25 Q26.95 -28.25 27.7 -29.45 28.45 -30.65 28.45 -31.5 L28.65 -33.2 Q28.7 -34.15 29.7 -34.5 L29.15 -36.7 28.35 -39.05 Q26.2 -43.05 26.2 -43.5 26.2 -44.6 27.75 -42.85 L30.4 -39.25 32.4 -36.25 33.6 -34.45 34.25 -34.65 34.4 -34.65 34.25 -35.45 33.95 -37.6 32.7 -41.25 Q32.7 -42.2 33.15 -41.55 L34.6 -39.7 35.75 -38.35 Q36.3 -37.45 36.75 -37.25 L37.1 -36.85 37.3 -36.65 37.55 -36.95 37.9 -37.75 Q38.3 -38.9 38.3 -39.85 L37.95 -41.55 38.15 -41.7 38.35 -42.0 Q38.35 -42.6 36.2 -46.15 36.2 -46.5 36.65 -46.5 37.1 -46.5 39.2 -43.55 L37.75 -49.0 36.4 -52.15 35.45 -54.3 M24.4 -27.1 L24.95 -27.25 25.25 -27.3 25.3 -27.3 27.1 -27.7 27.1 -27.75 26.05 -27.6 25.3 -27.4 24.45 -27.3 24.4 -27.1" fill="#ffffff" fill-rule="evenodd" stroke="none"/>
  </g>
</svg>
