<?xml version="1.0" encoding="UTF-8" standalone="no"?>
<svg xmlns:xlink="http://www.w3.org/1999/xlink" height="28.0px" width="29.5px" xmlns="http://www.w3.org/2000/svg">
  <g transform="matrix(1.0, 0.0, 0.0, 1.0, -15.35, 33.5)">
    <path d="M32.0 -27.5 Q32.8 -27.5 33.2 -22.95 33.2 -21.3 32.85 -20.65 L32.85 -20.6 34.2 -21.15 Q34.8 -21.3 35.1 -21.55 L35.8 -22.25 Q36.25 -22.75 36.75 -22.75 L37.3 -22.5 37.45 -22.1 37.6 -22.05 38.15 -22.6 38.95 -23.15 39.55 -22.8 40.05 -24.65 Q40.4 -26.0 40.6 -26.0 L41.25 -25.2 41.65 -23.95 41.7 -23.9 Q43.1 -27.7 43.7 -31.8 43.1 -33.15 43.85 -33.45 44.55 -33.8 44.7 -32.3 L44.85 -28.4 Q44.85 -22.75 44.25 -16.65 43.5 -8.95 42.15 -6.0 L42.45 -5.75 42.05 -5.5 Q41.75 -5.5 39.5 -6.95 L36.75 -8.65 33.3 -9.45 Q31.1 -9.9 30.1 -10.55 29.2 -11.1 26.55 -11.75 L23.55 -12.5 Q22.1 -13.1 21.05 -13.1 L19.45 -13.35 17.35 -14.4 16.05 -14.5 15.9 -14.4 Q15.35 -14.4 15.35 -14.9 L15.35 -15.0 15.35 -15.05 15.4 -15.05 17.3 -15.15 Q17.6 -15.2 19.0 -16.1 L21.1 -17.65 21.95 -19.15 Q22.4 -20.15 22.75 -20.15 L23.2 -19.95 Q23.45 -19.75 23.8 -19.75 24.3 -19.75 24.7 -19.3 L25.1 -18.65 26.0 -19.3 Q26.6 -19.75 27.3 -19.75 27.9 -19.75 27.95 -19.25 L27.65 -18.5 27.65 -18.45 Q29.5 -20.3 30.5 -22.75 31.15 -24.45 31.65 -27.4 L32.0 -27.5" fill="#ffffff" fill-rule="evenodd" stroke="none"/>
  </g>
</svg>
