<?xml version="1.0" encoding="UTF-8" standalone="no"?>
<svg xmlns:xlink="http://www.w3.org/1999/xlink" height="8.2px" width="4.9px" xmlns="http://www.w3.org/2000/svg">
  <g transform="matrix(1.0, 0.0, 0.0, 1.0, 2.55, 2.2)">
    <path d="M1.7 2.55 L1.7 2.5 1.7 2.55" fill="#ffffff" fill-rule="evenodd" stroke="none"/>
    <path d="M0.45 -0.95 L0.45 -0.85 1.3 -0.9 1.85 -0.75 1.85 -0.55 1.7 0.15 2.2 1.2 2.05 2.75 1.95 2.8 2.35 3.55 2.2 4.7 1.9 5.35 2.0 5.5 -0.6 5.5 -1.35 4.2 -1.1 3.7 -1.15 3.7 -1.55 1.65 -1.55 0.7 -2.3 0.85 -2.55 0.85 -2.55 0.55 -1.95 -0.2 -2.5 -0.3 -2.5 -0.6 -1.7 -1.0 -2.15 -1.7 -2.15 -2.1 -2.1 -2.1 -2.15 -2.15 -1.9 -2.2 0.3 -0.95 0.45 -0.95 M0.55 -0.5 L0.4 -0.45 Q0.05 -0.45 -0.9 -1.1 L-1.5 -1.55 -1.35 -0.8 -1.5 -0.75 -1.8 -0.55 -1.8 -0.5 -1.45 -0.45 -1.45 -0.15 -2.05 0.45 -1.0 0.1 0.0 -0.1 0.4 0.0 0.5 0.1 0.95 0.1 1.45 0.1 1.5 -0.1 1.5 -0.55 0.55 -0.55 0.55 -0.5 M1.7 2.5 L1.85 1.35 1.45 0.5 1.45 0.35 1.05 0.45 -0.05 0.35 -1.25 0.65 -0.85 3.35 -0.65 2.95 0.55 1.5 0.55 1.4 0.6 1.45 0.7 1.35 0.75 1.55 1.55 2.35 1.7 2.55 1.7 2.5 M2.0 3.6 Q2.0 3.2 0.7 1.8 L-0.1 3.0 -0.95 4.15 -0.3 5.45 1.05 5.3 1.7 5.4 1.65 5.3 Q1.65 4.9 2.0 3.6" fill="#000000" fill-rule="evenodd" stroke="none"/>
    <path d="M0.55 -0.5 L0.55 -0.55 1.5 -0.55 1.5 -0.1 1.45 0.1 0.95 0.1 0.5 0.1 0.4 0.0 0.0 -0.1 -1.0 0.1 -2.05 0.45 -1.45 -0.15 -1.45 -0.45 -1.8 -0.5 -1.8 -0.55 -1.5 -0.75 -1.35 -0.8 -1.5 -1.55 -0.9 -1.1 Q0.05 -0.45 0.4 -0.45 L0.55 -0.5" fill="#ffff00" fill-rule="evenodd" stroke="none"/>
    <path d="M1.7 2.55 L1.55 2.35 0.75 1.55 0.7 1.35 0.6 1.45 0.55 1.4 0.55 1.5 -0.65 2.95 -0.85 3.35 -1.25 0.65 -0.05 0.35 1.05 0.45 1.45 0.35 1.45 0.5 1.85 1.35 1.7 2.5 1.7 2.55" fill="#404040" fill-rule="evenodd" stroke="none"/>
    <path d="M2.0 3.6 Q1.65 4.9 1.65 5.3 L1.7 5.4 1.05 5.3 -0.3 5.45 -0.95 4.15 -0.1 3.0 0.7 1.8 Q2.0 3.2 2.0 3.6" fill="#7b7b7b" fill-rule="evenodd" stroke="none"/>
    <path d="M1.95 3.25 L2.05 3.7 2.0 4.45 1.75 4.5 1.75 4.3 2.0 3.75 1.9 3.35 1.95 3.25 M-0.7 4.25 L-0.55 4.85 -0.75 4.9 -1.0 4.25 -0.85 4.05 -0.7 4.25" fill="#ffff00" fill-rule="evenodd" stroke="none"/>
    <path d="M1.85 2.45 L2.0 2.4 2.05 2.7 1.95 3.25 1.9 3.35 2.0 3.75 1.75 4.3 0.6 4.5 -0.65 4.3 -0.7 4.25 -0.85 4.05 -0.95 3.95 -0.95 3.65 -0.75 3.6 -0.7 3.6 -0.65 3.85 -0.55 3.85 -0.45 3.95 0.6 4.1 1.5 3.85 1.55 3.8 1.8 3.75 1.8 3.5 1.75 3.45 1.7 3.45 1.85 2.45 M2.0 5.25 Q2.0 6.0 0.7 6.0 L-0.2 5.8 -0.45 5.65 -0.7 5.65 -0.7 5.35 0.15 5.4 1.7 5.2 1.8 4.75 2.05 4.75 2.1 5.0 2.0 5.25" fill="#000000" fill-rule="evenodd" stroke="none"/>
    <path d="M-0.7 3.6 L-0.7 3.5 -0.8 3.4 -0.8 2.9 -0.7 2.9 -0.45 2.15 0.2 1.15 0.45 1.15 0.45 1.4 0.5 1.45 0.8 1.15 1.45 1.4 1.5 1.65 1.5 1.95 1.6 1.95 1.65 2.25 Q1.7 2.15 1.8 2.15 L1.85 2.45 1.7 3.45 1.75 3.45 1.8 3.5 1.8 3.75 1.55 3.8 1.5 3.85 0.6 4.1 -0.45 3.95 -0.55 3.85 -0.65 3.85 -0.7 3.6" fill="#404040" fill-rule="evenodd" stroke="none"/>
  </g>
</svg>
