<?xml version="1.0" encoding="UTF-8" standalone="no"?>
<svg xmlns:xlink="http://www.w3.org/1999/xlink" height="3.25px" width="4.85px" xmlns="http://www.w3.org/2000/svg">
  <g transform="matrix(1.0, 0.0, 0.0, 1.0, 2.4, 1.65)">
    <path d="M-0.6 -0.75 L-0.7 -0.75 -0.65 -0.8 -0.7 -1.0 -0.75 -1.0 -0.65 -1.05 0.0 -1.0 -0.35 -0.55 -0.6 -0.75 M-1.35 -0.6 L-1.4 -0.65 -1.75 -0.65 -1.5 -1.05 -1.15 -0.95 -1.2 -0.9 -1.35 -0.6 M0.05 0.9 L-0.1 0.8 -0.65 0.9 -0.75 0.8 -0.5 0.5 -0.2 0.05 -0.15 0.05 0.2 0.25 0.05 0.55 0.05 0.9 M-1.3 0.7 L-1.4 0.5 -1.35 0.35 -1.3 0.35 -1.0 0.5 -0.95 0.5 -0.95 0.6 -1.0 0.6 -1.0 0.65 -1.05 0.85 -1.3 0.7 M-2.05 0.7 L-1.95 0.3 -1.55 0.3 -1.6 0.5 -1.55 0.8 -2.05 0.7 M-1.55 -0.25 L-1.5 -0.1 -1.45 -0.1 -1.5 0.05 -1.55 0.0 -1.9 0.0 -1.85 -0.25 -1.75 -0.25 -1.5 -0.35 -1.55 -0.25 M1.1 0.65 L1.0 0.3 0.65 0.05 0.95 -0.4 1.55 0.0 1.1 0.65 M0.45 0.35 L0.5 0.3 0.55 0.4 0.85 0.75 0.85 0.95 0.8 0.95 0.75 1.05 0.5 1.1 0.25 0.85 0.3 0.7 0.35 0.6 0.45 0.4 0.45 0.35 M0.7 -0.6 L0.7 -0.7 0.3 -0.9 0.2 -0.9 0.2 -1.0 0.95 -0.85 0.7 -0.6 M1.45 -1.1 L2.05 -0.75 1.7 -0.2 1.1 -0.6 1.3 -0.9 1.3 -0.95 1.45 -1.1 M0.0 -0.3 L0.15 -0.7 0.45 -0.4 0.55 -0.4 0.5 -0.3 0.35 -0.05 0.2 -0.15 0.0 -0.3 M-0.7 -0.3 L-0.55 -0.25 -0.75 0.15 -1.2 0.05 -0.95 -0.4 -0.7 -0.3" fill="#7b7b7b" fill-rule="evenodd" stroke="none"/>
    <path d="M-0.6 -0.75 L-0.35 -0.55 0.0 -1.0 -0.65 -1.05 -0.75 -1.0 -0.7 -1.0 -0.65 -0.8 -0.7 -0.75 -0.6 -0.75 M-0.7 -1.45 L0.95 -1.2 Q1.2 -1.2 1.25 -1.35 L1.45 -1.5 2.45 -0.9 2.2 -0.3 2.4 -0.1 2.35 0.1 2.2 0.1 1.8 0.65 1.7 1.0 1.45 1.15 1.1 1.1 1.1 1.15 0.85 1.4 0.45 1.6 Q0.25 1.6 0.05 1.4 L-0.15 1.15 -0.35 1.2 -0.4 1.25 -0.95 1.25 -1.15 1.2 -1.3 1.1 -1.55 1.15 Q-2.4 1.15 -2.4 0.75 -1.85 -2.55 -0.85 -1.3 L-0.7 -1.45 M-1.35 -0.6 L-1.2 -0.9 -1.15 -0.95 -1.5 -1.05 -1.75 -0.65 -1.4 -0.65 -1.4 -0.55 -1.35 -0.6 M-1.55 -0.25 L-1.5 -0.35 -1.75 -0.25 -1.85 -0.25 -1.9 0.0 -1.55 0.0 -1.5 0.05 -1.45 -0.1 -1.5 -0.1 -1.55 -0.25 M-2.05 0.7 L-1.55 0.8 -1.6 0.5 -1.55 0.3 -1.95 0.3 -2.05 0.7 M-1.3 0.7 L-1.05 0.85 -1.0 0.65 -1.0 0.6 -0.95 0.6 -0.95 0.5 -1.0 0.5 -1.3 0.35 -1.35 0.35 -1.4 0.5 -1.3 0.7 M0.05 0.9 L0.05 0.55 0.2 0.25 -0.15 0.05 -0.2 0.05 -0.5 0.5 -0.75 0.8 -0.65 0.9 -0.1 0.8 0.05 0.9 0.05 0.95 0.05 0.9 M-0.7 -0.3 L-0.95 -0.4 -1.2 0.05 -0.75 0.15 -0.55 -0.25 -0.7 -0.3 M0.0 -0.3 L0.2 -0.15 0.35 -0.05 0.5 -0.3 0.55 -0.4 0.45 -0.4 0.15 -0.7 0.0 -0.3 M1.45 -1.1 L1.3 -0.95 1.3 -0.9 1.1 -0.6 1.7 -0.2 2.05 -0.75 1.45 -1.1 M0.7 -0.6 L0.95 -0.85 0.2 -1.0 0.2 -0.9 0.3 -0.9 0.7 -0.7 0.7 -0.6 M0.45 0.35 L0.45 0.4 0.35 0.6 0.3 0.7 0.25 0.85 0.5 1.1 0.75 1.05 0.8 0.95 0.85 0.95 0.85 0.75 0.55 0.4 0.5 0.3 0.45 0.35 M1.1 0.65 L1.55 0.0 0.95 -0.4 0.65 0.05 1.0 0.3 1.1 0.65" fill="#000000" fill-rule="evenodd" stroke="none"/>
  </g>
</svg>
