<?xml version="1.0" encoding="UTF-8" standalone="no"?>
<svg xmlns:xlink="http://www.w3.org/1999/xlink" height="17.6px" width="6.75px" xmlns="http://www.w3.org/2000/svg">
  <g transform="matrix(1.0, 0.0, 0.0, 1.0, 3.4, 13.75)">
    <path d="M0.25 -13.45 Q0.75 -13.0 1.0 -11.5 L1.05 -11.45 1.05 -2.65 1.4 -2.7 Q2.4 -2.75 2.4 -3.55 L2.3 -4.05 2.2 -4.65 2.4 -4.7 Q3.1 -4.7 3.35 -2.45 3.35 -1.45 2.7 -0.95 L2.7 -0.9 2.6 -0.9 2.5 -0.85 2.5 -0.9 2.45 -0.9 2.45 -1.4 1.5 -1.65 0.85 -1.5 0.85 -1.45 0.85 -1.35 0.65 0.65 0.75 2.85 0.55 2.9 -0.1 3.85 -0.6 3.35 -0.8 3.0 -0.85 3.0 -0.9 2.85 -0.9 2.8 -0.95 2.5 -0.85 2.5 -0.75 1.8 -0.6 0.85 Q-0.6 0.4 -0.95 -1.1 L-0.9 -1.2 -2.1 -1.35 -2.8 -1.1 -2.7 -0.75 -3.0 -0.75 -3.4 -2.25 Q-3.4 -3.55 -2.5 -4.25 L-2.55 -3.15 Q-2.45 -2.6 -0.95 -2.55 L-0.95 -11.15 -0.85 -11.15 -0.65 -12.15 -0.1 -13.35 -0.15 -13.45 -0.1 -13.65 0.05 -13.6 0.2 -13.75 0.25 -13.55 0.25 -13.45 M2.75 -1.65 L3.05 -2.45 2.75 -3.75 2.7 -3.75 Q2.8 -2.8 2.0 -2.4 L1.05 -2.4 0.8 -2.35 0.8 -2.4 0.7 -2.4 0.8 -2.2 0.65 -2.15 0.25 -2.45 0.0 -2.8 -0.2 -2.4 -0.6 -2.1 -0.75 -2.15 -1.1 -2.15 Q-2.55 -2.15 -2.85 -3.25 L-2.85 -3.35 -2.9 -3.25 -3.1 -2.3 -3.0 -1.45 -2.1 -1.7 -1.2 -1.5 -0.8 -1.4 -0.65 -1.45 -0.6 -1.3 -0.1 -1.05 0.2 -1.3 0.35 -1.45 Q0.4 -2.0 1.55 -2.0 2.45 -2.0 2.7 -1.7 L2.75 -1.65 2.75 -1.6 2.75 -1.65 M0.8 -2.6 L0.7 -11.45 0.25 -12.5 0.25 -3.45 0.6 -2.6 0.8 -2.6 M-0.55 -1.0 L-0.45 -0.4 -0.25 0.8 Q-0.25 1.9 -0.4 2.45 L0.15 2.4 0.45 2.4 0.35 0.65 0.55 -1.05 0.4 -0.95 0.0 -0.65 -0.5 -1.0 -0.55 -1.05 -0.55 -1.0 M0.25 2.75 L-0.4 2.75 -0.15 3.4 0.15 2.9 0.25 2.75 M-0.65 -10.75 L-0.65 -2.6 -0.25 -3.05 -0.15 -3.45 -0.05 -3.55 -0.05 -3.75 -0.05 -12.4 -0.15 -12.1 -0.65 -10.75" fill="#000000" fill-rule="evenodd" stroke="none"/>
    <path d="M-2.85 -3.25 Q-2.55 -2.15 -1.1 -2.15 L-0.75 -2.15 -0.6 -2.1 -0.2 -2.4 0.0 -2.8 0.25 -2.45 0.65 -2.15 0.8 -2.2 0.7 -2.4 0.8 -2.4 0.8 -2.35 1.05 -2.4 2.0 -2.4 Q2.8 -2.8 2.7 -3.75 L2.75 -3.75 3.05 -2.45 2.75 -1.65 2.7 -1.7 Q2.45 -2.0 1.55 -2.0 0.4 -2.0 0.35 -1.45 L0.2 -1.3 -0.1 -1.05 -0.6 -1.3 -0.65 -1.45 -0.8 -1.4 -1.2 -1.5 -2.1 -1.7 -3.0 -1.45 -3.1 -2.3 -2.9 -3.25 -2.85 -3.25 M0.25 2.75 L0.15 2.9 -0.15 3.4 -0.4 2.75 0.25 2.75" fill="#ffff00" fill-rule="evenodd" stroke="none"/>
    <path d="M0.8 -2.6 L0.6 -2.6 0.25 -3.45 0.25 -12.5 0.7 -11.45 0.8 -2.6 M-0.65 -10.75 L-0.15 -12.1 -0.05 -12.4 -0.05 -3.75 -0.05 -3.55 -0.15 -3.45 -0.25 -3.05 -0.65 -2.6 -0.65 -10.75" fill="#999999" fill-rule="evenodd" stroke="none"/>
    <path d="M-0.5 -1.0 L0.0 -0.65 0.4 -0.95 0.55 -1.05 0.35 0.65 0.45 2.4 0.15 2.4 -0.4 2.45 Q-0.25 1.9 -0.25 0.8 L-0.45 -0.4 -0.55 -1.0 -0.5 -1.0" fill="#2b2b2b" fill-rule="evenodd" stroke="none"/>
  </g>
</svg>
