<?xml version="1.0" encoding="UTF-8" standalone="no"?>
<svg xmlns:xlink="http://www.w3.org/1999/xlink" height="3.0px" width="2.6px" xmlns="http://www.w3.org/2000/svg">
  <g transform="matrix(1.0, 0.0, 0.0, 1.0, -22.55, 41.5)">
    <path d="M24.3 -41.35 L24.95 -41.35 25.0 -41.5 25.0 -41.45 25.15 -41.45 25.15 -38.55 25.1 -38.5 25.0 -38.75 24.1 -38.75 23.85 -38.9 23.65 -39.05 23.6 -39.15 23.1 -39.05 23.0 -38.9 22.85 -38.85 22.85 -38.5 22.8 -38.5 22.55 -39.7 22.75 -40.75 Q22.85 -41.15 22.85 -40.85 L23.0 -40.4 23.05 -40.4 23.05 -40.45 23.05 -40.55 Q23.95 -40.85 24.25 -41.1 L24.3 -41.35 M23.1 -40.05 L23.05 -40.0 23.05 -39.45 23.1 -39.45 23.1 -40.05 M23.0 -40.0 Q22.85 -40.05 22.8 -40.45 L22.65 -39.7 22.8 -39.05 22.95 -39.45 22.95 -39.75 23.0 -40.0 M23.2 -39.45 L23.6 -39.55 24.0 -39.25 24.1 -39.1 25.0 -39.1 24.95 -40.05 25.0 -41.0 24.4 -41.0 Q24.35 -40.2 23.2 -40.1 L23.2 -40.0 23.2 -39.45 M25.05 -41.0 L25.05 -39.1 25.05 -39.05 25.05 -41.05 25.05 -41.0" fill="#000000" fill-rule="evenodd" stroke="none"/>
    <path d="M23.1 -40.05 L23.1 -39.45 23.05 -39.45 23.05 -40.0 23.1 -40.05 M25.05 -41.0 L25.05 -41.05 25.05 -39.05 25.05 -39.1 25.05 -41.0" fill="#e8d006" fill-rule="evenodd" stroke="none"/>
    <path d="M23.2 -39.45 L23.2 -40.0 23.2 -40.1 Q24.35 -40.2 24.4 -41.0 L25.0 -41.0 24.95 -40.05 25.0 -39.1 24.1 -39.1 24.0 -39.25 23.6 -39.55 23.2 -39.45 M23.0 -40.0 L22.95 -39.75 22.95 -39.45 22.8 -39.05 22.65 -39.7 22.8 -40.45 Q22.85 -40.05 23.0 -40.0" fill="#59616a" fill-rule="evenodd" stroke="none"/>
  </g>
</svg>
