<?xml version="1.0" encoding="UTF-8" standalone="no"?>
<svg xmlns:xlink="http://www.w3.org/1999/xlink" height="6.85px" width="23.95px" xmlns="http://www.w3.org/2000/svg">
  <g transform="matrix(1.0, 0.0, 0.0, 1.0, -2.1, 38.35)">
    <path d="M2.95 -38.3 L7.6 -38.3 7.6 -38.25 25.8 -38.0 26.05 -37.85 26.05 -36.5 26.0 -36.05 26.05 -35.9 25.85 -35.75 25.35 -35.75 25.35 -35.8 22.95 -35.9 19.65 -35.6 17.8 -35.05 17.8 -35.0 17.65 -34.95 16.85 -35.5 16.3 -36.0 15.0 -36.05 15.1 -35.3 14.85 -34.65 Q14.45 -34.3 13.15 -34.3 L12.95 -34.3 12.95 -34.15 12.0 -33.5 11.3 -32.45 11.75 -32.1 11.75 -31.7 10.8 -31.5 Q9.9 -31.45 9.65 -31.75 L9.45 -31.5 9.35 -31.75 9.5 -32.25 Q9.9 -34.2 10.35 -35.1 L10.3 -35.35 10.2 -35.95 10.2 -36.1 9.35 -36.1 8.85 -36.05 Q6.95 -35.8 5.55 -35.2 L3.2 -33.9 3.1 -33.85 3.1 -33.9 Q2.45 -33.95 2.7 -35.1 L2.4 -36.55 2.1 -37.95 Q2.1 -38.15 2.65 -38.35 L2.95 -38.35 2.95 -38.3 M3.15 -34.2 L5.3 -35.5 6.95 -36.1 7.1 -36.05 7.55 -36.15 8.85 -36.5 8.95 -36.6 9.1 -36.6 9.25 -36.6 10.25 -36.6 10.3 -36.55 16.65 -36.45 16.8 -36.2 17.5 -35.6 17.65 -35.5 19.55 -35.9 20.25 -36.1 22.25 -36.25 22.95 -36.3 23.1 -36.4 25.7 -36.35 25.7 -37.1 25.75 -37.65 7.4 -37.75 7.3 -37.9 7.1 -37.95 7.05 -37.95 6.8 -37.9 2.5 -37.95 2.95 -34.4 3.15 -34.2 M12.9 -35.95 L12.45 -35.25 Q12.45 -35.0 12.6 -34.8 L12.9 -34.6 13.6 -34.75 Q14.75 -35.0 14.75 -35.3 L14.55 -35.85 14.55 -36.05 12.9 -36.05 12.9 -35.95 M10.8 -35.75 L10.8 -35.4 10.85 -34.95 10.7 -34.85 10.45 -33.65 9.95 -32.25 9.9 -32.1 10.8 -31.9 11.05 -31.95 10.95 -32.25 10.95 -32.35 11.1 -32.75 11.6 -33.55 12.4 -34.6 Q12.1 -34.85 12.1 -35.25 12.1 -35.9 12.45 -36.1 L10.6 -36.1 10.8 -35.75 M20.25 -37.15 L21.85 -37.15 21.9 -37.1 21.9 -36.8 19.6 -36.7 18.8 -36.85 Q18.5 -36.85 18.25 -36.25 17.9 -36.2 17.9 -36.7 17.95 -37.25 18.8 -37.25 L19.0 -37.2 19.05 -37.3 19.4 -37.3 19.45 -37.25 20.2 -37.2 20.25 -37.15" fill="#000000" fill-rule="evenodd" stroke="none"/>
    <path d="M3.15 -34.2 L2.95 -34.4 2.5 -37.95 6.8 -37.9 7.05 -37.95 7.1 -37.95 7.3 -37.9 7.4 -37.75 25.75 -37.65 25.7 -37.1 25.7 -36.35 23.1 -36.4 22.95 -36.3 22.25 -36.25 20.25 -36.1 19.55 -35.9 17.65 -35.5 17.5 -35.6 16.8 -36.2 16.65 -36.45 10.3 -36.55 10.25 -36.6 9.25 -36.6 9.1 -36.6 8.95 -36.6 8.85 -36.5 7.55 -36.15 7.1 -36.05 6.95 -36.1 5.3 -35.5 3.15 -34.2 M20.25 -37.15 L20.2 -37.2 19.45 -37.25 19.4 -37.3 19.05 -37.3 19.0 -37.2 18.8 -37.25 Q17.95 -37.25 17.9 -36.7 17.9 -36.2 18.25 -36.25 18.5 -36.85 18.8 -36.85 L19.6 -36.7 21.9 -36.8 21.9 -37.1 21.85 -37.15 20.25 -37.15 M10.8 -35.75 L10.6 -36.1 12.45 -36.1 Q12.1 -35.9 12.1 -35.25 12.1 -34.85 12.4 -34.6 L11.6 -33.55 11.1 -32.75 10.95 -32.35 10.95 -32.25 11.05 -31.95 10.8 -31.9 9.9 -32.1 9.95 -32.25 10.45 -33.65 10.7 -34.85 10.85 -34.95 10.8 -35.4 10.8 -35.75" fill="#803c21" fill-rule="evenodd" stroke="none"/>
  </g>
</svg>
