<?xml version="1.0" encoding="UTF-8" standalone="no"?>
<svg xmlns:xlink="http://www.w3.org/1999/xlink" height="3.0px" width="2.6px" xmlns="http://www.w3.org/2000/svg">
  <g transform="matrix(1.0, 0.0, 0.0, 1.0, -20.0, 42.95)">
    <path d="M21.75 -42.8 L22.4 -42.8 22.45 -42.95 22.45 -42.9 22.6 -42.9 22.6 -40.0 22.55 -39.95 Q22.45 -39.95 22.45 -40.2 L21.55 -40.2 21.3 -40.35 21.1 -40.5 21.05 -40.6 20.55 -40.5 20.45 -40.35 20.3 -40.3 20.3 -39.95 20.25 -39.95 20.0 -41.15 20.2 -42.2 Q20.3 -42.6 20.3 -42.3 L20.45 -41.85 20.5 -41.85 20.5 -41.9 20.5 -42.0 Q21.4 -42.3 21.7 -42.55 L21.75 -42.8 M20.55 -41.5 L20.5 -41.45 20.5 -40.9 20.55 -40.9 20.55 -41.5 M20.4 -41.2 L20.45 -41.45 Q20.3 -41.5 20.25 -41.9 L20.1 -41.15 20.25 -40.5 20.4 -40.9 20.4 -41.2 M20.65 -40.9 L21.05 -41.0 21.45 -40.7 21.55 -40.55 22.45 -40.55 22.4 -41.5 22.45 -42.45 21.85 -42.45 Q21.8 -41.65 20.65 -41.55 L20.65 -41.45 20.65 -40.9 M22.5 -42.45 L22.5 -40.55 22.5 -40.5 22.5 -42.5 22.5 -42.45" fill="#000000" fill-rule="evenodd" stroke="none"/>
    <path d="M20.55 -41.5 L20.55 -40.9 20.5 -40.9 20.5 -41.45 20.55 -41.5 M22.5 -42.45 L22.5 -42.5 22.5 -40.5 22.5 -40.55 22.5 -42.45" fill="#e8d006" fill-rule="evenodd" stroke="none"/>
    <path d="M20.65 -40.9 L20.65 -41.45 20.65 -41.55 Q21.8 -41.65 21.85 -42.45 L22.45 -42.45 22.4 -41.5 22.45 -40.55 21.55 -40.55 21.45 -40.7 21.05 -41.0 20.65 -40.9 M20.4 -41.2 L20.4 -40.9 20.25 -40.5 20.1 -41.15 20.25 -41.9 Q20.3 -41.5 20.45 -41.45 L20.4 -41.2" fill="#59616a" fill-rule="evenodd" stroke="none"/>
  </g>
</svg>
