<?xml version="1.0" encoding="UTF-8" standalone="no"?>
<svg xmlns:xlink="http://www.w3.org/1999/xlink" height="6.85px" width="23.95px" xmlns="http://www.w3.org/2000/svg">
  <g transform="matrix(1.0, 0.0, 0.0, 1.0, -1.4, 39.55)">
    <path d="M2.25 -39.5 L6.9 -39.5 6.9 -39.45 25.1 -39.2 25.35 -39.05 25.35 -37.7 25.3 -37.25 25.35 -37.1 Q25.35 -36.95 25.15 -36.95 L24.65 -36.95 24.65 -37.0 22.25 -37.1 18.95 -36.8 17.1 -36.25 17.1 -36.2 16.95 -36.15 16.15 -36.7 15.6 -37.2 14.3 -37.25 14.4 -36.5 14.15 -35.85 Q13.75 -35.5 12.45 -35.5 L12.25 -35.5 12.25 -35.35 Q11.75 -35.25 11.3 -34.7 L10.6 -33.65 11.05 -33.3 11.05 -32.9 10.1 -32.7 Q9.2 -32.65 8.95 -32.95 L8.75 -32.7 8.65 -32.95 8.8 -33.45 Q9.2 -35.4 9.65 -36.3 L9.6 -36.55 9.5 -37.15 9.5 -37.3 8.65 -37.3 8.15 -37.25 Q6.25 -37.0 4.85 -36.4 L2.5 -35.1 2.4 -35.05 2.4 -35.1 Q1.75 -35.15 2.0 -36.3 L1.7 -37.75 Q1.4 -38.65 1.4 -39.15 1.4 -39.35 1.95 -39.55 L2.25 -39.55 2.25 -39.5 M2.45 -35.4 Q2.75 -35.9 4.6 -36.7 L6.25 -37.3 6.4 -37.25 6.85 -37.35 8.15 -37.7 8.25 -37.8 8.4 -37.8 8.55 -37.8 9.55 -37.8 9.6 -37.75 15.95 -37.65 16.1 -37.4 16.8 -36.8 16.95 -36.7 18.85 -37.1 19.55 -37.3 21.55 -37.45 22.25 -37.5 22.4 -37.6 25.0 -37.55 25.0 -38.3 25.05 -38.85 6.7 -38.95 6.6 -39.1 6.4 -39.15 6.35 -39.15 6.1 -39.1 1.8 -39.15 2.25 -35.6 2.45 -35.4 M12.2 -37.15 L11.75 -36.45 11.9 -36.0 12.2 -35.8 12.9 -35.95 Q14.05 -36.2 14.05 -36.5 L13.85 -37.05 13.85 -37.25 12.2 -37.25 12.2 -37.15 M10.1 -36.95 L10.1 -36.6 10.15 -36.15 10.0 -36.05 9.75 -34.85 9.25 -33.45 9.2 -33.3 10.1 -33.1 10.35 -33.15 10.25 -33.45 10.25 -33.55 10.4 -33.95 10.9 -34.75 11.7 -35.8 Q11.4 -36.05 11.4 -36.45 11.4 -37.1 11.75 -37.3 L9.9 -37.3 10.1 -36.95 M19.55 -38.35 L21.15 -38.35 21.2 -38.3 21.2 -38.0 18.9 -37.9 18.1 -38.05 Q17.8 -38.05 17.55 -37.45 17.2 -37.4 17.2 -37.9 17.25 -38.45 18.1 -38.45 L18.3 -38.4 18.35 -38.5 18.7 -38.5 18.75 -38.45 19.5 -38.4 19.55 -38.35" fill="#000000" fill-rule="evenodd" stroke="none"/>
    <path d="M2.45 -35.4 L2.25 -35.6 1.8 -39.15 6.1 -39.1 6.35 -39.15 6.4 -39.15 6.6 -39.1 6.7 -38.95 25.05 -38.85 25.0 -38.3 25.0 -37.55 22.4 -37.6 22.25 -37.5 21.55 -37.45 19.55 -37.3 18.85 -37.1 16.95 -36.7 16.8 -36.8 16.1 -37.4 15.95 -37.65 9.6 -37.75 9.55 -37.8 8.55 -37.8 8.4 -37.8 8.25 -37.8 8.15 -37.7 6.85 -37.35 6.4 -37.25 6.25 -37.3 4.6 -36.7 Q2.75 -35.9 2.45 -35.4 M19.55 -38.35 L19.5 -38.4 18.75 -38.45 18.7 -38.5 18.35 -38.5 18.3 -38.4 18.1 -38.45 Q17.25 -38.45 17.2 -37.9 17.2 -37.4 17.55 -37.45 17.8 -38.05 18.1 -38.05 L18.9 -37.9 21.2 -38.0 21.2 -38.3 21.15 -38.35 19.55 -38.35 M10.1 -36.95 L9.9 -37.3 11.75 -37.3 Q11.4 -37.1 11.4 -36.45 11.4 -36.05 11.7 -35.8 L10.9 -34.75 10.4 -33.95 10.25 -33.55 10.25 -33.45 10.35 -33.15 10.1 -33.1 9.2 -33.3 9.25 -33.45 9.75 -34.85 10.0 -36.05 10.15 -36.15 10.1 -36.6 10.1 -36.95" fill="#803c21" fill-rule="evenodd" stroke="none"/>
  </g>
</svg>
