<?xml version="1.0" encoding="UTF-8" standalone="no"?>
<svg xmlns:xlink="http://www.w3.org/1999/xlink" height="21.25px" width="16.15px" xmlns="http://www.w3.org/2000/svg">
  <g transform="matrix(1.0, 0.0, 0.0, 1.0, 8.75, 1.8)">
    <path d="M-8.75 -1.2 L-8.3 -1.8 -4.3 -1.05 Q-5.7 3.2 -1.9 5.35 L2.3 5.25 1.45 6.95 Q-1.0 6.9 -3.0 5.95 -7.6 3.75 -8.75 -1.2 M-2.6 8.85 L-2.8 8.5 0.0 8.6 0.35 9.6 -0.4 11.3 0.55 15.15 2.5 15.35 1.85 19.05 -0.2 19.0 -1.0 18.1 Q0.15 13.05 -2.6 8.85" fill="#39342d" fill-rule="evenodd" stroke="none"/>
    <path d="M-8.75 -1.2 Q-7.6 3.75 -3.0 5.95 -1.0 6.9 1.45 6.95 L2.3 5.25 4.85 3.4 7.4 5.2 3.6 15.25 2.75 16.05 2.05 19.45 -0.55 19.2 -1.5 17.35 Q-0.6 13.0 -2.6 8.85 0.15 13.05 -1.0 18.1 L-0.2 19.0 1.85 19.05 2.5 15.35 0.55 15.15 -0.4 11.3 0.35 9.6 0.0 8.6 -2.8 8.5 -3.6 7.1 Q-8.65 4.5 -8.75 -1.2 M6.55 4.75 L5.6 4.0 4.3 4.4 4.75 4.8 3.6 5.05 0.6 11.85 1.4 14.6 3.2 14.3 6.35 5.25 5.65 4.8 6.45 4.8 6.85 5.15 6.6 4.8 6.55 4.75 M1.3 14.95 L0.3 11.8 3.25 5.35 Q0.65 7.7 -0.2 11.55 L1.3 15.0 3.45 14.7 1.3 14.95" fill="#000000" fill-rule="evenodd" stroke="none"/>
    <path d="M6.55 4.75 L6.6 4.8 6.45 4.8 6.55 4.75 M5.65 4.8 L6.35 5.25 3.2 14.3 1.4 14.6 0.6 11.85 3.6 5.05 4.75 4.8 5.65 4.8" fill="#999999" fill-rule="evenodd" stroke="none"/>
    <path d="M4.75 4.8 L4.3 4.4 5.6 4.0 6.55 4.75 6.45 4.8 5.65 4.8 4.75 4.8 M1.3 15.0 L-0.2 11.55 Q0.65 7.7 3.25 5.35 L0.3 11.8 1.3 14.95 1.3 15.0" fill="#ffe711" fill-rule="evenodd" stroke="none"/>
    <path d="M3.8 11.1 L2.8 7.5 4.45 5.0 3.8 11.1" fill="#cccccc" fill-rule="evenodd" stroke="none"/>
  </g>
</svg>
