<?xml version="1.0" encoding="UTF-8" standalone="no"?>
<svg xmlns:xlink="http://www.w3.org/1999/xlink" height="6.8px" width="5.6px" xmlns="http://www.w3.org/2000/svg">
  <g transform="matrix(1.0, 0.0, 0.0, 1.0, 1.9, 1.25)">
    <path d="M1.25 -0.7 Q1.6 -0.45 1.6 0.15 L2.05 0.7 2.35 1.2 2.35 1.55 2.25 1.75 2.95 2.85 Q3.6 4.05 3.65 4.55 L3.7 4.7 3.3 5.2 3.0 5.2 2.85 5.25 1.1 5.55 -1.05 5.25 -1.75 4.85 -1.75 4.7 -1.85 4.7 -1.9 4.45 -1.7 2.8 -1.35 2.0 -1.65 1.1 Q-1.65 0.4 -1.3 -0.15 L-1.0 -0.5 -1.0 -0.25 -1.05 -0.2 -1.25 0.4 -1.2 0.5 -1.35 1.1 -1.0 1.8 -0.95 1.85 -0.95 1.9 -0.95 1.95 -0.75 2.1 -0.4 2.3 1.15 1.95 1.7 1.8 1.65 1.75 2.05 1.2 1.7 0.7 1.3 0.2 1.25 -0.05 1.25 -0.6 1.25 -0.7 M1.05 2.35 L-0.4 2.65 -0.25 2.65 -1.05 2.4 -1.45 3.25 -1.6 4.6 -1.0 4.9 0.7 5.2 3.25 4.7 3.45 4.7 2.85 3.4 2.05 2.1 1.05 2.35" fill="#000000" fill-rule="evenodd" stroke="none"/>
    <path d="M-1.0 -0.5 L-0.5 -1.1 Q-0.2 -1.4 0.8 -1.1 L1.25 -0.7 1.25 -0.6 1.25 -0.05 1.3 0.2 1.7 0.7 2.05 1.2 1.65 1.75 1.7 1.8 1.15 1.95 -0.4 2.3 -0.75 2.1 -0.95 1.95 -0.95 1.9 -0.95 1.85 -1.0 1.8 -1.35 1.1 -1.2 0.5 -1.25 0.4 -1.05 -0.2 -1.0 -0.25 -1.0 -0.5" fill="#39342d" fill-rule="evenodd" stroke="none"/>
    <path d="M1.05 2.35 L2.05 2.1 2.85 3.4 3.45 4.7 3.25 4.7 0.7 5.2 -1.0 4.9 -1.6 4.6 -1.45 3.25 -1.05 2.4 -0.25 2.65 -0.4 2.65 1.05 2.35" fill="#111111" fill-rule="evenodd" stroke="none"/>
  </g>
</svg>
