<?xml version="1.0" encoding="UTF-8" standalone="no"?>
<svg xmlns:xlink="http://www.w3.org/1999/xlink" height="24.3px" width="19.8px" xmlns="http://www.w3.org/2000/svg">
  <g transform="matrix(1.0, 0.0, 0.0, 1.0, 9.9, 12.15)">
    <path d="M8.5 -12.1 L8.7 -12.15 8.75 -12.15 8.95 -12.0 9.0 -11.95 9.7 -11.3 9.85 -9.8 9.65 -6.9 9.7 -6.45 9.85 -6.6 9.9 -6.4 9.75 -6.1 9.75 -6.0 9.65 -5.95 6.85 -1.2 5.9 1.4 Q5.2 3.0 3.5 3.7 1.65 4.5 0.15 5.9 L-2.0 8.25 -2.75 8.6 -4.7 9.1 Q-5.55 9.35 -6.65 9.95 -7.6 10.35 -9.4 11.95 L-9.45 12.05 -9.55 12.05 -9.7 12.15 -9.85 12.1 -9.9 12.0 -9.65 11.6 -9.25 9.4 Q-8.95 8.2 -8.95 7.3 L-9.25 4.65 -9.6 1.85 Q-9.6 0.45 -9.3 -0.1 L-9.35 -0.25 -8.15 -1.45 -8.15 -1.5 -8.1 -1.5 -5.4 -3.5 -0.7 -6.8 1.15 -8.3 3.35 -10.0 5.95 -11.15 7.95 -11.95 8.2 -12.0 8.5 -12.1 M8.6 -11.85 L8.35 -11.75 8.7 -10.95 8.85 -9.5 8.75 -8.0 8.9 -6.4 7.75 -4.6 6.15 -2.05 5.25 0.5 Q4.65 2.0 3.8 2.55 L0.9 4.4 Q-0.6 5.45 -1.45 6.35 L-3.1 7.6 -4.75 8.25 -6.4 9.15 -7.5 9.8 -8.0 10.05 -8.0 10.0 -8.35 10.0 -8.4 9.9 -7.95 9.65 -7.6 8.8 -8.05 6.4 Q-8.55 4.45 -8.55 2.2 L-8.65 0.5 Q-8.6 -0.35 -8.2 -0.65 L-8.2 -0.8 -8.85 -0.35 -9.3 1.85 -8.95 4.6 -8.65 7.3 Q-8.65 8.3 -8.95 9.7 L-9.25 11.2 -6.85 9.65 -5.85 9.25 -4.85 8.8 Q-2.45 8.35 -2.15 7.95 L-0.15 5.65 Q1.2 4.25 3.15 3.45 5.05 2.7 5.7 1.15 L6.7 -1.6 8.0 -4.2 8.8 -5.45 9.4 -6.2 9.35 -6.55 9.35 -7.15 9.55 -9.8 Q9.55 -10.75 9.0 -11.4 L8.6 -11.85 M5.1 -8.45 L4.05 -6.65 2.8 -3.65 1.7 -0.4 0.65 2.4 0.6 2.2 Q0.6 1.1 2.65 -4.1 L3.95 -7.15 4.6 -8.65 Q5.0 -9.45 5.7 -9.9 L5.75 -9.7 5.1 -8.45 M8.05 -11.65 Q5.65 -10.95 3.65 -9.75 L1.45 -8.15 -0.45 -6.55 -2.85 -4.9 -5.3 -3.2 Q-6.6 -1.95 -7.85 -1.05 L-7.9 -0.15 -8.0 -0.1 -8.2 2.2 Q-8.2 4.55 -7.75 6.25 -7.3 7.9 -7.3 8.8 L-7.3 9.25 -4.95 7.95 -2.85 7.2 -1.85 6.2 Q-0.4 4.3 3.55 2.35 L4.6 1.3 4.95 0.05 5.9 -2.3 7.1 -4.45 Q7.9 -5.7 8.6 -6.35 L8.45 -7.9 8.55 -9.45 Q8.55 -10.65 8.05 -11.65 M1.7 -5.05 Q1.7 -3.85 -0.1 -0.35 L-2.3 3.5 -2.45 3.3 -1.5 1.45 -0.15 -1.0 0.65 -3.2 Q1.1 -4.6 1.65 -5.3 L1.7 -5.05 M-3.65 -1.15 L-3.6 -0.9 -3.85 0.15 -4.1 0.15 -4.1 -0.3 Q-3.95 -1.05 -3.65 -1.15 M-5.05 -1.0 L-5.55 3.0 -5.35 4.35 -5.05 5.65 -5.2 5.75 Q-5.85 4.5 -5.85 2.9 -5.85 0.3 -5.1 -1.2 L-5.05 -1.0" fill="#000000" fill-rule="evenodd" stroke="none"/>
    <path d="M8.6 -11.85 L9.0 -11.4 Q9.55 -10.75 9.55 -9.8 L9.35 -7.15 9.35 -6.55 9.4 -6.2 8.8 -5.45 8.0 -4.2 6.7 -1.6 5.7 1.15 Q5.05 2.7 3.15 3.45 1.2 4.25 -0.15 5.65 L-2.15 7.95 Q-2.45 8.35 -4.85 8.8 L-5.85 9.25 -6.85 9.65 -9.25 11.2 -8.95 9.7 Q-8.65 8.3 -8.65 7.3 L-8.95 4.6 -9.3 1.85 -8.85 -0.35 -8.2 -0.8 -8.2 -0.65 Q-8.6 -0.35 -8.65 0.5 L-8.55 2.2 Q-8.55 4.45 -8.05 6.4 L-7.6 8.8 -7.95 9.65 -8.4 9.9 -8.35 10.0 -8.0 10.0 -8.0 10.05 -7.5 9.8 -6.4 9.15 -4.75 8.25 -3.1 7.6 -1.45 6.35 Q-0.6 5.45 0.9 4.4 L3.8 2.55 Q4.65 2.0 5.25 0.5 L6.15 -2.05 7.75 -4.6 8.9 -6.4 8.75 -8.0 8.85 -9.5 8.7 -10.95 8.35 -11.75 8.6 -11.85" fill="#ffe711" fill-rule="evenodd" stroke="none"/>
    <path d="M-5.05 -1.0 L-5.1 -1.2 Q-5.85 0.3 -5.85 2.9 -5.85 4.5 -5.2 5.75 L-5.05 5.65 -5.35 4.35 -5.55 3.0 -5.05 -1.0 M-3.65 -1.15 Q-3.95 -1.05 -4.1 -0.3 L-4.1 0.15 -3.85 0.15 -3.6 -0.9 -3.65 -1.15 M1.7 -5.05 L1.65 -5.3 Q1.1 -4.6 0.65 -3.2 L-0.15 -1.0 -1.5 1.45 -2.45 3.3 -2.3 3.5 -0.1 -0.35 Q1.7 -3.85 1.7 -5.05 M8.05 -11.65 Q8.55 -10.65 8.55 -9.45 L8.45 -7.9 8.6 -6.35 Q7.9 -5.7 7.1 -4.45 L5.9 -2.3 4.95 0.05 4.6 1.3 3.55 2.35 Q-0.4 4.3 -1.85 6.2 L-2.85 7.2 -4.95 7.95 -7.3 9.25 -7.3 8.8 Q-7.3 7.9 -7.75 6.25 -8.2 4.55 -8.2 2.2 L-8.0 -0.1 -7.9 -0.15 -7.85 -1.05 Q-6.6 -1.95 -5.3 -3.2 L-2.85 -4.9 -0.45 -6.55 1.45 -8.15 3.65 -9.75 Q5.65 -10.95 8.05 -11.65 M5.1 -8.45 L5.75 -9.7 5.7 -9.9 Q5.0 -9.45 4.6 -8.65 L3.95 -7.15 2.65 -4.1 Q0.6 1.1 0.6 2.2 L0.65 2.4 1.7 -0.4 2.8 -3.65 4.05 -6.65 5.1 -8.45" fill="#d81616" fill-rule="evenodd" stroke="none"/>
  </g>
</svg>
