<?xml version="1.0" encoding="UTF-8" standalone="no"?>
<svg xmlns:xlink="http://www.w3.org/1999/xlink" height="21.0px" width="14.5px" xmlns="http://www.w3.org/2000/svg">
  <g transform="matrix(1.0, 0.0, 0.0, 1.0, 3.1, 12.35)">
    <path d="M6.85 -10.9 L5.4 -8.75 Q4.65 -9.8 6.85 -10.9 M3.05 -8.5 Q2.9 -7.25 3.35 -5.9 L1.9 -6.25 3.05 -8.5 M3.15 -7.95 L4.6 -10.7 3.85 -6.5 3.15 -7.95 M5.15 -1.75 Q4.8 -2.55 4.8 -3.0 4.8 -4.4 5.9 -3.75 6.95 -3.05 6.95 -1.5 L6.95 -1.05 Q6.85 -0.7 6.2 -0.7 5.6 -0.7 5.15 -1.75 M6.85 5.9 Q6.45 5.1 6.2 6.0 L6.3 6.25 Q6.3 6.55 6.6 6.65 L7.65 8.1 5.6 7.35 4.4 4.8 4.5 3.9 5.9 5.25 9.4 6.65 10.0 5.7 9.6 7.7 7.9 7.8 7.3 6.45 7.3 6.4 Q7.3 6.0 6.85 5.9 M2.6 2.55 Q4.4 2.45 3.5 3.8 L1.75 2.85 2.6 2.55" fill="#39342d" fill-rule="evenodd" stroke="none"/>
    <path d="M-2.65 -0.25 L-2.2 -0.25 -2.2 0.1 -2.65 0.1 -2.65 -0.25 M-1.15 -3.0 L-0.45 -3.4 0.7 -11.9 2.5 -10.2 5.1 -12.35 4.85 -10.35 7.3 -11.15 5.9 -8.45 10.3 -7.35 7.9 -5.2 8.65 -2.05 10.65 -1.6 9.35 -0.35 10.75 -0.1 9.75 0.85 11.4 5.7 9.8 8.0 7.5 8.65 4.9 7.5 4.35 5.25 1.5 2.95 -0.15 3.2 -1.4 2.5 Q2.45 3.75 3.1 0.05 L3.5 1.35 6.1 4.95 10.85 5.3 9.2 3.65 7.6 -4.2 5.55 -6.0 5.15 -8.4 3.75 -5.4 1.6 -5.8 1.35 -6.5 0.95 -4.15 2.1 -3.15 0.75 -3.95 0.65 -11.35 0.05 -3.6 1.45 -3.0 -1.15 -3.0 M-1.95 1.75 L-2.05 1.75 -2.05 1.6 -2.05 1.3 Q-1.15 1.4 -1.95 1.75 M-2.9 0.45 Q-3.5 -1.15 -2.05 -2.4 L-2.9 0.45 M-1.05 -2.15 L-1.05 -2.05 Q-1.9 -2.05 -1.05 -2.15 M6.85 -10.9 Q4.65 -9.8 5.4 -8.75 L6.85 -10.9 M6.85 -6.55 L7.45 -5.65 9.45 -7.2 6.6 -7.15 6.2 -8.05 6.3 -5.35 7.65 -4.55 6.85 -6.55 M3.15 -7.95 L3.85 -6.5 4.6 -10.7 3.15 -7.95 M3.05 -8.5 L1.9 -6.25 3.35 -5.9 Q2.9 -7.25 3.05 -8.5 M4.75 -10.0 L4.75 -10.05 4.7 -10.0 4.75 -10.0 M-1.4 -1.5 L1.1 -2.25 2.05 -1.9 2.05 0.15 2.3 0.75 Q2.25 1.9 1.75 1.4 L1.75 -1.5 -1.4 -1.5 -1.4 1.1 -2.15 0.85 -1.4 -1.5 M0.55 -2.7 L0.55 -2.25 0.1 -2.25 0.1 -2.7 0.55 -2.7 M1.4 1.55 L1.05 2.5 -1.15 1.55 1.4 1.55 M4.85 -1.55 Q4.45 -2.45 4.45 -3.05 4.45 -4.3 5.6 -4.3 6.35 -4.3 6.9 -2.95 L7.3 -1.35 7.2 -0.75 Q6.95 -0.35 6.15 -0.35 5.35 -0.35 4.85 -1.55 M8.85 3.7 L6.3 4.35 3.85 1.5 3.75 -0.25 Q3.6 -1.35 3.05 -2.2 L3.65 -1.4 Q4.7 0.0 4.15 1.65 L6.2 4.0 8.85 3.7 M2.8 -0.05 Q2.25 -0.2 2.95 -0.1 L2.8 -0.05 M5.15 -1.75 Q5.6 -0.7 6.2 -0.7 6.85 -0.7 6.95 -1.05 L6.95 -1.5 Q6.95 -3.05 5.9 -3.75 4.8 -4.4 4.8 -3.0 4.8 -2.55 5.15 -1.75 M8.4 -1.75 L9.15 -0.65 9.95 -1.75 8.4 -1.75 M0.0 -0.45 L-0.55 -0.05 -0.4 0.15 -0.05 0.35 Q0.45 0.35 0.55 0.05 0.55 -0.45 0.0 -0.45 M9.85 0.2 L9.45 0.3 Q9.3 1.15 9.85 0.25 L9.9 0.2 9.85 0.2 M-0.9 -0.05 Q-0.9 -0.8 0.0 -0.85 0.85 -0.9 0.85 0.05 0.85 0.7 0.0 0.7 -0.45 0.7 -0.7 0.35 L-0.9 -0.05 M6.85 5.9 L6.8 5.85 Q6.3 5.65 6.3 6.25 L6.2 6.0 Q6.45 5.1 6.85 5.9 M6.6 6.65 L7.3 6.45 7.9 7.8 9.6 7.7 10.0 5.7 9.4 6.65 5.9 5.25 4.5 3.9 4.4 4.8 5.6 7.35 7.65 8.1 6.6 6.65 M2.6 2.55 L1.75 2.85 3.5 3.8 Q4.4 2.45 2.6 2.55" fill="#000000" fill-rule="evenodd" stroke="none"/>
    <path d="M-2.65 -0.25 L-2.65 0.1 -2.2 0.1 -2.2 -0.25 -2.65 -0.25 M-2.05 -2.4 Q-1.65 -2.8 -1.15 -3.0 L1.45 -3.0 0.05 -3.6 0.65 -11.35 0.75 -3.95 2.1 -3.15 3.05 -2.2 Q3.6 -1.35 3.75 -0.25 L3.85 1.5 6.3 4.35 8.85 3.7 9.2 3.65 10.85 5.3 6.1 4.95 3.5 1.35 3.1 0.05 Q2.45 3.75 -1.4 2.5 L-1.95 1.75 Q-1.15 1.4 -2.05 1.3 L-2.05 1.6 -2.9 0.45 -2.05 -2.4 M-1.05 -2.15 Q-1.9 -2.05 -1.05 -2.05 L-1.05 -2.15 M6.85 -6.55 L7.65 -4.55 6.3 -5.35 6.2 -8.05 6.6 -7.15 6.85 -6.55 M0.55 -2.7 L0.1 -2.7 0.1 -2.25 0.55 -2.25 0.55 -2.7 M1.75 1.4 Q2.25 1.9 2.3 0.75 L2.05 0.15 2.05 -1.9 1.1 -2.25 -1.4 -1.5 -2.15 0.85 -1.4 1.1 -1.15 1.55 1.05 2.5 1.4 1.55 1.75 1.55 1.75 1.4 M2.8 -0.05 L2.95 -0.1 Q2.25 -0.2 2.8 -0.05 M0.0 -0.45 Q0.55 -0.45 0.55 0.05 0.45 0.35 -0.05 0.35 L-0.4 0.15 -0.55 -0.05 0.0 -0.45 M6.3 6.25 Q6.3 5.65 6.8 5.85 L6.85 5.9 Q7.3 6.0 7.3 6.4 L7.3 6.45 6.6 6.65 Q6.3 6.55 6.3 6.25" fill="#ffe711" fill-rule="evenodd" stroke="none"/>
    <path d="M6.6 -7.15 L9.45 -7.2 7.45 -5.65 6.85 -6.55 6.6 -7.15 M2.1 -3.15 L0.95 -4.15 1.35 -6.5 1.6 -5.8 3.75 -5.4 5.15 -8.4 5.55 -6.0 7.6 -4.2 9.2 3.65 8.85 3.7 6.2 4.0 4.15 1.65 Q4.7 0.0 3.65 -1.4 L3.05 -2.2 2.1 -3.15 M-1.4 -1.5 L1.75 -1.5 1.75 1.4 1.75 1.55 1.4 1.55 -1.15 1.55 -1.4 1.1 -1.4 -1.5 M4.85 -1.55 Q5.35 -0.35 6.15 -0.35 6.95 -0.35 7.2 -0.75 L7.3 -1.35 6.9 -2.95 Q6.35 -4.3 5.6 -4.3 4.45 -4.3 4.45 -3.05 4.45 -2.45 4.85 -1.55 M8.4 -1.75 L9.95 -1.75 9.15 -0.65 8.4 -1.75 M-0.9 -0.05 L-0.7 0.35 Q-0.45 0.7 0.0 0.7 0.85 0.7 0.85 0.05 0.85 -0.9 0.0 -0.85 -0.9 -0.8 -0.9 -0.05 M9.85 0.25 Q9.3 1.15 9.45 0.3 L9.85 0.2 9.85 0.25" fill="#999999" fill-rule="evenodd" stroke="none"/>
    <path d="M4.1 -4.3 L4.1 -7.0 5.15 -7.0 5.15 -4.3 4.1 -4.3 M5.85 -0.05 L7.05 -0.5 8.2 1.7 7.1 0.45 5.85 -0.05 M9.7 -1.55 Q9.7 -1.15 9.25 -1.15 L8.7 -1.2 8.6 -1.45 Q8.6 -1.85 9.15 -1.9 9.7 -1.95 9.7 -1.55 M1.35 -0.3 L1.3 -0.05 1.0 0.0 Q0.25 0.0 0.35 -0.75 0.35 -1.4 0.85 -1.0 L1.35 -0.3 M2.35 -10.1 L2.3 -9.8 1.95 -9.75 Q1.35 -9.75 1.2 -10.25 1.2 -10.7 1.8 -10.6 2.35 -10.5 2.35 -10.1 M5.55 -7.55 L5.3 -7.5 Q4.85 -7.5 4.75 -7.75 L4.7 -8.05 4.75 -8.4 Q5.6 -8.65 5.6 -7.95 L5.55 -7.55 M7.65 -7.7 Q8.95 -7.7 8.95 -7.3 8.95 -6.75 7.8 -6.75 6.35 -6.75 6.35 -7.2 6.35 -7.7 7.65 -7.7" fill="#cccccc" fill-rule="evenodd" stroke="none"/>
    <path d="M6.15 -2.4 L6.1 -1.8 Q5.9 -1.0 5.3 -2.35 5.9 -3.05 6.1 -2.55 L5.9 -2.65 Q5.7 -1.95 6.15 -2.4 M5.3 -2.35 Q5.75 -1.8 5.4 -2.35 L5.3 -2.35" fill="#000000" fill-rule="evenodd" stroke="none"/>
    <path d="M6.1 -2.55 L6.15 -2.4 Q5.7 -1.95 5.9 -2.65 L6.1 -2.55 M5.3 -2.35 L5.4 -2.35 Q5.75 -1.8 5.3 -2.35" fill="#ffffff" fill-rule="evenodd" stroke="none"/>
  </g>
</svg>
