<?xml version="1.0" encoding="UTF-8" standalone="no"?>
<svg xmlns:xlink="http://www.w3.org/1999/xlink" height="13.55px" width="20.2px" xmlns="http://www.w3.org/2000/svg">
  <g transform="matrix(1.0, 0.0, 0.0, 1.0, 10.1, 6.8)">
    <path d="M0.15 3.7 L0.15 3.65 0.0 3.7 -0.1 3.7 -0.1 3.8 -0.2 4.35 -0.2 4.6 -0.35 4.6 -0.35 4.95 -0.3 5.0 1.25 4.8 1.95 4.9 1.95 4.95 2.15 5.0 2.3 4.95 2.4 4.8 2.35 4.6 2.7 3.8 2.65 3.65 1.7 3.6 0.15 3.7 M2.0 4.6 L1.4 4.4 0.9 4.5 0.2 4.6 0.2 4.0 2.15 3.95 2.0 4.6 M8.25 -5.95 L7.95 -5.4 8.0 -5.3 8.05 -5.3 7.35 -3.25 6.55 -0.3 5.1 3.3 4.3 5.25 3.8 5.35 0.45 5.45 -3.65 4.95 -3.65 4.85 -5.25 2.2 -6.7 -0.4 -7.95 -3.75 -8.65 -5.45 -1.6 -5.1 5.0 -5.55 8.25 -5.95 M9.35 -6.45 L9.7 -6.45 9.8 -5.75 Q9.8 -5.05 8.9 -2.8 L7.7 0.0 Q5.8 5.0 5.7 5.85 L4.0 6.05 2.0 6.1 -1.75 6.3 -4.5 5.85 -4.85 5.65 -4.85 5.6 -6.65 2.95 -8.0 0.25 -9.1 -2.5 -9.75 -4.95 -9.55 -5.3 Q-9.55 -5.5 -9.15 -5.5 L-8.25 -3.4 -6.95 -0.1 -5.55 2.55 -4.2 4.6 -4.1 4.7 -3.8 5.05 -3.75 5.05 -3.5 5.3 -2.9 5.6 2.15 5.8 4.2 5.65 4.3 5.8 Q5.0 4.85 5.7 2.95 L6.75 0.1 Q7.25 -0.8 7.6 -2.75 L8.3 -5.3 8.35 -5.3 8.4 -5.35 Q8.35 -5.65 8.8 -6.05 L8.9 -6.05 8.9 -6.1 9.35 -6.45" fill="#6d4b2c" fill-rule="evenodd" stroke="none"/>
    <path d="M9.55 -6.8 L10.05 -6.3 10.1 -5.75 8.4 -0.7 6.25 5.45 6.3 5.55 6.1 5.85 6.0 6.05 5.85 6.05 5.35 6.35 1.35 6.6 -1.5 6.65 -3.9 6.5 Q-4.85 6.2 -5.2 5.75 -6.2 5.3 -8.25 0.5 L-10.1 -4.9 -10.1 -5.5 -9.9 -5.5 -9.85 -5.75 -9.1 -5.85 -8.75 -5.6 -8.5 -5.8 -7.15 -5.8 -4.2 -5.7 -2.15 -5.55 -1.55 -5.45 5.25 -5.85 8.65 -6.4 Q9.05 -6.8 9.55 -6.8 M9.35 -6.45 L8.9 -6.1 8.9 -6.05 8.8 -6.05 Q8.35 -5.65 8.4 -5.35 L8.35 -5.3 8.3 -5.3 7.6 -2.75 Q7.25 -0.8 6.75 0.1 L5.7 2.95 Q5.0 4.85 4.3 5.8 L4.2 5.65 2.15 5.8 -2.9 5.6 -3.5 5.3 -3.75 5.05 -3.8 5.05 -4.1 4.7 -4.2 4.6 -5.55 2.55 -6.95 -0.1 -8.25 -3.4 -9.15 -5.5 Q-9.55 -5.5 -9.55 -5.3 L-9.75 -4.95 -9.1 -2.5 -8.0 0.25 -6.65 2.95 -4.85 5.6 -4.85 5.65 -4.5 5.85 -1.75 6.3 2.0 6.1 4.0 6.05 5.7 5.85 Q5.8 5.0 7.7 0.0 L8.9 -2.8 Q9.8 -5.05 9.8 -5.75 L9.7 -6.45 9.35 -6.45 M8.25 -5.95 L5.0 -5.55 -1.6 -5.1 -8.65 -5.45 -7.95 -3.75 -6.7 -0.4 -5.25 2.2 -3.65 4.85 -3.65 4.95 0.45 5.45 3.8 5.35 4.3 5.25 5.1 3.3 6.55 -0.3 7.35 -3.25 8.05 -5.3 8.0 -5.3 7.95 -5.4 8.25 -5.95 M2.0 4.6 L2.15 3.95 0.2 4.0 0.2 4.6 0.9 4.5 1.4 4.4 2.0 4.6 M0.15 3.7 L1.7 3.6 2.65 3.65 2.7 3.8 2.35 4.6 2.4 4.8 2.3 4.95 2.15 5.0 1.95 4.95 1.95 4.9 1.25 4.8 -0.3 5.0 -0.35 4.95 -0.35 4.6 -0.2 4.6 -0.2 4.35 -0.1 3.8 -0.1 3.7 0.0 3.7 0.15 3.65 0.15 3.7" fill="#000000" fill-rule="evenodd" stroke="none"/>
  </g>
</svg>
