<?xml version="1.0" encoding="UTF-8" standalone="no"?>
<svg xmlns:xlink="http://www.w3.org/1999/xlink" height="11.45px" width="5.35px" xmlns="http://www.w3.org/2000/svg">
  <g transform="matrix(1.0, 0.0, 0.0, 1.0, 2.5, 2.15)">
    <path d="M1.7 3.4 L1.65 5.15 1.3 6.75 0.45 6.55 -1.65 6.4 -2.05 4.2 Q-2.45 0.85 -1.35 0.0 -0.95 -0.3 -0.2 -0.4 0.7 -0.45 1.1 0.05 1.55 0.6 1.65 2.3 L1.7 3.3 1.45 2.65 1.3 1.85 Q1.15 1.35 1.15 0.3 0.85 0.2 0.55 0.45 L0.9 3.55 0.75 4.4 0.55 5.3 Q0.55 5.85 1.15 6.05 L1.35 5.6 1.55 4.4 1.7 3.4 M-1.0 8.0 L-1.6 6.8 -1.1 6.85 -0.35 6.65 0.55 6.75 1.2 7.2 0.75 8.65 Q0.0 9.25 -1.0 8.0 M1.75 -1.2 L2.4 -0.45 2.5 1.1 2.3 2.9 2.0 2.85 Q1.95 0.55 1.65 0.15 0.95 -0.75 -0.2 -0.7 L-0.7 -0.6 -0.6 -0.8 -0.15 -1.45 Q0.8 -2.2 1.75 -1.2" fill="#999999" fill-rule="evenodd" stroke="none"/>
    <path d="M2.8 -0.4 L2.75 -0.3 2.85 1.4 2.6 3.1 2.25 3.15 2.0 3.15 1.95 5.35 Q1.9 8.15 0.9 8.95 L0.1 9.3 Q-0.5 9.25 -1.3 8.15 -2.4 6.8 -2.5 2.95 -2.65 0.65 -1.5 -0.3 L-1.1 -0.5 Q-1.25 -0.8 -0.45 -1.7 0.9 -2.75 2.1 -1.25 L2.8 -0.4 M1.75 -1.2 Q0.8 -2.2 -0.15 -1.45 L-0.6 -0.8 -0.7 -0.6 -0.2 -0.7 Q0.95 -0.75 1.65 0.15 1.95 0.55 2.0 2.85 L2.3 2.9 2.5 1.1 2.4 -0.45 1.75 -1.2 M-1.0 8.0 Q0.0 9.25 0.75 8.65 L1.2 7.2 0.55 6.75 -0.35 6.65 -1.1 6.85 -1.6 6.8 -1.0 8.0 M1.7 3.3 L1.65 2.3 Q1.55 0.6 1.1 0.05 0.7 -0.45 -0.2 -0.4 -0.95 -0.3 -1.35 0.0 -2.45 0.85 -2.05 4.2 L-1.65 6.4 0.45 6.55 1.3 6.75 1.65 5.15 1.7 3.4 1.7 3.3" fill="#000000" fill-rule="evenodd" stroke="none"/>
    <path d="M1.7 3.4 L1.55 4.4 1.35 5.6 1.15 6.05 Q0.55 5.85 0.55 5.3 L0.75 4.4 0.9 3.55 0.55 0.45 Q0.85 0.2 1.15 0.3 1.15 1.35 1.3 1.85 L1.45 2.65 1.7 3.3 1.7 3.4" fill="#d9d9d9" fill-rule="evenodd" stroke="none"/>
  </g>
</svg>
