<?xml version="1.0" encoding="UTF-8" standalone="no"?>
<svg xmlns:xlink="http://www.w3.org/1999/xlink" height="16.45px" width="16.35px" xmlns="http://www.w3.org/2000/svg">
  <g transform="matrix(1.0, 0.0, 0.0, 1.0, 8.2, 8.25)">
    <path d="M-0.7 6.3 L-0.7 6.25 -0.7 6.3" fill="#999999" fill-rule="evenodd" stroke="none"/>
    <path d="M0.75 -7.35 Q-0.3 -6.8 -0.3 -6.3 L-0.45 -6.25 -0.95 -5.3 -0.95 -5.25 Q-0.95 -4.25 -2.05 -2.15 -3.2 0.15 -4.1 0.2 L-4.15 0.05 -3.35 -0.65 Q-2.45 -1.4 -2.15 -2.55 L-2.4 -2.45 Q-3.15 -2.0 -3.85 -1.8 -5.0 -1.4 -6.75 -1.1 L-6.9 -0.8 -5.95 0.7 -4.45 3.1 -4.2 4.15 -3.7 5.05 Q-3.45 5.3 -3.25 6.2 -3.05 6.95 -2.7 6.95 -1.0 6.95 0.7 0.8 L1.7 -2.6 Q1.9 -3.4 2.7 -4.1 3.9 -5.2 5.85 -5.2 L6.9 -4.85 Q7.2 -4.7 7.45 -4.6 L6.4 -6.1 Q4.85 -7.9 3.15 -7.9 1.9 -7.9 0.75 -7.35 M3.0 -8.25 Q4.75 -8.25 6.6 -6.15 L7.95 -4.35 8.05 -4.3 8.05 -4.15 8.15 -3.75 8.1 -3.45 Q7.8 -3.5 7.0 -4.0 L6.3 -4.05 5.35 -4.15 Q3.7 -4.15 2.55 -1.65 L1.55 1.2 0.9 4.05 Q0.6 5.1 -0.15 5.8 L-0.15 5.9 -0.25 6.2 -0.4 6.45 -0.45 6.45 -1.55 7.35 Q-2.7 8.2 -3.05 8.2 L-3.85 7.95 -4.15 7.55 -4.05 6.8 Q-4.05 6.35 -4.6 5.7 L-5.2 4.85 Q-5.2 4.0 -5.65 2.85 -5.9 2.15 -6.75 1.1 L-8.2 -0.7 -8.2 -1.35 -7.95 -1.35 -7.95 -1.3 -3.9 -2.1 Q-2.5 -2.5 -1.95 -3.25 L-1.8 -4.05 -1.4 -4.9 -1.35 -5.25 Q-1.15 -6.25 -0.5 -6.75 L0.65 -7.55 Q2.05 -8.25 3.0 -8.25 M2.55 -6.4 Q1.0 -3.25 0.2 -0.4 L-0.65 3.05 Q-1.35 5.05 -2.55 5.6 L-2.65 5.5 -2.25 5.05 Q-1.65 4.55 -0.9 2.45 L-0.1 -0.55 0.75 -3.6 Q1.3 -5.35 2.45 -6.55 L2.55 -6.4 M0.65 -4.3 L-0.05 -2.3 -0.95 0.2 Q-1.5 3.05 -3.45 4.45 L-3.75 4.45 -3.8 4.3 Q-2.1 3.1 -1.3 -0.1 L-0.5 -2.3 0.6 -4.45 0.65 -4.3 M7.75 -4.0 L7.7 -4.15 7.5 -4.2 7.5 -4.1 7.7 -4.0 7.75 -4.0 M6.85 -4.5 L5.8 -4.9 Q3.0 -4.9 2.15 -2.9 L1.05 1.15 Q0.05 4.8 -1.05 6.3 -0.2 6.05 0.55 3.65 L1.4 0.75 Q2.15 -1.7 2.95 -2.85 4.05 -4.45 5.8 -4.45 L7.15 -4.35 6.85 -4.5 M-1.15 6.4 Q-1.9 7.3 -2.7 7.3 -3.4 7.3 -3.55 6.45 -3.8 5.4 -4.0 5.25 -4.4 4.95 -4.55 4.25 L-4.85 3.1 -6.15 1.05 -7.2 -0.8 -7.1 -1.05 -7.75 -0.95 -6.6 0.75 -5.3 2.7 Q-5.0 3.35 -4.9 4.85 L-4.6 5.1 -4.3 5.25 -4.05 5.7 Q-3.7 6.35 -3.7 6.7 L-3.8 7.55 -3.05 7.85 Q-2.7 7.85 -1.6 7.0 L-0.7 6.3 -0.7 6.25 -1.1 6.45 -1.1 6.35 -1.15 6.4" fill="#000000" fill-rule="evenodd" stroke="none"/>
    <path d="M0.75 -7.35 Q1.9 -7.9 3.15 -7.9 4.85 -7.9 6.4 -6.1 L7.45 -4.6 Q7.2 -4.7 6.9 -4.85 L5.85 -5.2 Q3.9 -5.2 2.7 -4.1 1.9 -3.4 1.7 -2.6 L0.7 0.8 Q-1.0 6.95 -2.7 6.95 -3.05 6.95 -3.25 6.2 -3.45 5.3 -3.7 5.05 L-4.2 4.15 -4.45 3.1 -5.95 0.7 -6.9 -0.8 -6.75 -1.1 Q-5.0 -1.4 -3.85 -1.8 -3.15 -2.0 -2.4 -2.45 L-2.15 -2.55 Q-2.45 -1.4 -3.35 -0.65 L-4.15 0.05 -4.1 0.2 Q-3.2 0.15 -2.05 -2.15 -0.95 -4.25 -0.95 -5.25 L-0.95 -5.3 -0.45 -6.25 -0.3 -6.3 Q-0.3 -6.8 0.75 -7.35 M0.65 -4.3 L0.6 -4.45 -0.5 -2.3 -1.3 -0.1 Q-2.1 3.1 -3.8 4.3 L-3.75 4.45 -3.45 4.45 Q-1.5 3.05 -0.95 0.2 L-0.05 -2.3 0.65 -4.3 M2.55 -6.4 L2.45 -6.55 Q1.3 -5.35 0.75 -3.6 L-0.1 -0.55 -0.9 2.45 Q-1.65 4.55 -2.25 5.05 L-2.65 5.5 -2.55 5.6 Q-1.35 5.05 -0.65 3.05 L0.2 -0.4 Q1.0 -3.25 2.55 -6.4" fill="#d50000" fill-rule="evenodd" stroke="none"/>
    <path d="M-0.7 6.3 L-1.6 7.0 Q-2.7 7.85 -3.05 7.85 L-3.8 7.55 -3.7 6.7 Q-3.7 6.35 -4.05 5.7 L-4.3 5.25 -4.6 5.1 -4.9 4.85 Q-5.0 3.35 -5.3 2.7 L-6.6 0.75 -7.75 -0.95 -7.1 -1.05 -7.2 -0.8 -6.15 1.05 -4.85 3.1 -4.55 4.25 Q-4.4 4.95 -4.0 5.25 -3.8 5.4 -3.55 6.45 -3.4 7.3 -2.7 7.3 -1.9 7.3 -1.15 6.4 L-1.1 6.45 -0.7 6.25 -0.7 6.3 M6.85 -4.5 L7.15 -4.35 5.8 -4.45 Q4.05 -4.45 2.95 -2.85 2.15 -1.7 1.4 0.75 L0.55 3.65 Q-0.2 6.05 -1.05 6.3 0.05 4.8 1.05 1.15 L2.15 -2.9 Q3.0 -4.9 5.8 -4.9 L6.85 -4.5" fill="#e6e600" fill-rule="evenodd" stroke="none"/>
  </g>
</svg>
