<?xml version="1.0" encoding="UTF-8" standalone="no"?>
<svg xmlns:xlink="http://www.w3.org/1999/xlink" height="17.0px" width="10.95px" xmlns="http://www.w3.org/2000/svg">
  <g transform="matrix(1.0, 0.0, 0.0, 1.0, 5.5, 8.5)">
    <path d="M2.25 -6.1 L2.8 -5.95 3.7 -5.15 4.9 -3.6 5.15 -0.85 5.1 -0.3 3.7 -1.3 1.5 -2.55 5.0 0.1 3.7 2.25 2.65 4.95 2.25 4.6 Q1.55 4.0 1.15 4.05 L1.75 4.75 2.55 5.45 3.2 7.6 1.95 6.6 0.1 6.0 -2.85 5.5 -4.25 5.7 -5.05 5.95 -5.15 5.8 -4.8 5.2 -4.3 4.4 -3.9 3.35 -4.0 3.35 Q-3.4 0.55 -3.4 -2.85 L-2.6 -3.7 -2.55 -3.65 -2.4 -4.3 -1.55 -6.2 -1.3 -6.2 0.1 -6.25 2.25 -6.1 M-1.65 -6.55 L-1.55 -8.15 0.5 -7.0 1.4 -6.5 -0.7 -6.6 -1.55 -6.55 -1.6 -6.6 -1.65 -6.55" fill="#999999" fill-rule="evenodd" stroke="none"/>
    <path d="M2.25 -6.1 L0.1 -6.25 -1.3 -6.2 -1.55 -6.2 -2.4 -4.3 -2.55 -3.65 -2.6 -3.7 -3.4 -2.85 Q-3.4 0.55 -4.0 3.35 L-3.9 3.35 -4.3 4.4 -4.8 5.2 -5.15 5.8 -5.05 5.95 -4.25 5.7 -2.85 5.5 0.1 6.0 1.95 6.6 3.2 7.6 2.55 5.45 1.75 4.75 1.15 4.05 Q1.55 4.0 2.25 4.6 L2.65 4.95 3.7 2.25 5.0 0.1 1.5 -2.55 3.7 -1.3 5.1 -0.3 5.15 -0.85 4.9 -3.6 3.7 -5.15 2.8 -5.95 2.25 -6.1 M3.2 -6.0 L3.1 -6.0 3.2 -5.95 4.25 -5.05 5.15 -3.8 5.45 -0.85 5.4 -0.25 5.4 -0.2 5.45 0.0 5.45 0.1 5.4 0.25 5.35 0.25 4.15 2.5 Q2.85 5.0 2.85 5.45 L3.25 6.85 3.7 7.9 3.7 8.05 3.9 8.35 3.85 8.5 Q3.45 8.35 2.0 7.05 0.15 5.85 -2.85 5.85 L-4.2 5.9 -4.75 6.25 -4.95 6.25 -4.95 6.3 -5.1 6.35 -5.4 6.1 -5.5 5.8 -4.35 3.15 -4.15 2.1 -3.9 -0.3 -3.85 -2.25 -3.45 -4.1 -3.4 -2.9 -1.9 -6.2 -2.05 -6.25 -2.1 -6.35 Q-1.85 -8.5 -1.5 -8.5 -1.1 -8.5 1.0 -7.4 L3.25 -6.15 3.2 -6.0 M-1.6 -6.6 L-1.55 -6.55 -0.7 -6.6 1.4 -6.5 0.5 -7.0 -1.55 -8.15 -1.65 -6.55 -1.65 -6.5 -1.6 -6.6" fill="#000000" fill-rule="evenodd" stroke="none"/>
    <path d="M0.1 -6.6 L-1.05 -7.4 -1.4 -7.1 -1.65 -7.4 Q-1.65 -7.95 -1.25 -8.35 L-1.15 -8.25 0.35 -6.9 0.3 -6.7 Q0.35 -6.6 0.1 -6.6 M4.8 -3.8 L4.95 -3.75 5.1 -2.6 5.0 -1.9 4.9 -1.4 5.0 -0.8 4.9 -0.65 4.75 -0.6 Q4.55 -0.6 4.45 -0.95 3.05 -1.9 2.75 -2.8 L3.1 -3.0 3.1 -3.65 3.25 -3.7 3.2 -3.9 Q2.9 -5.15 2.0 -5.9 L2.0 -6.2 Q2.85 -6.1 3.7 -5.15 L4.05 -4.65 Q4.7 -4.55 4.8 -3.8 M1.75 4.45 L1.8 4.3 1.85 4.25 2.2 4.55 2.35 4.75 2.15 5.0 Q2.85 5.95 2.85 6.85 L2.75 7.2 2.6 7.25 2.0 6.7 0.95 5.8 -0.15 4.5 -0.1 4.45 -0.65 3.55 Q0.75 3.5 1.75 4.5 L1.75 4.45 M-1.15 -5.2 L-1.5 -3.75 -1.1 -3.7 -1.0 -3.5 -1.15 -3.25 Q-1.3 -3.1 -1.45 -3.1 L-1.95 -3.3 -2.0 -3.15 -1.9 -2.35 -1.95 -2.05 -2.4 -2.15 -2.55 -1.55 Q-2.7 -1.1 -3.0 -1.0 L-3.2 -1.55 -3.15 -2.25 -3.4 -3.05 -1.9 -5.15 -1.65 -5.75 -1.25 -5.4 -1.15 -5.2" fill="#d9d9d9" fill-rule="evenodd" stroke="none"/>
  </g>
</svg>
