<?xml version="1.0" encoding="UTF-8" standalone="no"?>
<svg xmlns:xlink="http://www.w3.org/1999/xlink" height="83.95px" width="9.0px" xmlns="http://www.w3.org/2000/svg">
  <g transform="matrix(1.0, 0.0, 0.0, 1.0, 4.4, 66.4)">
    <path d="M0.0 -64.25 L0.65 -50.5 0.7 -50.45 0.7 -49.65 0.65 -49.65 0.95 -39.3 1.0 -39.3 1.0 -38.8 1.05 -38.7 1.0 -38.6 1.05 -38.6 1.2 -18.65 1.25 -18.4 1.2 -18.15 1.2 -18.05 1.1 -16.6 1.15 -13.75 1.15 -12.0 1.1 -8.6 Q1.85 -8.55 1.85 -8.25 L1.7 -7.8 1.5 -7.6 Q1.95 -6.15 3.1 -4.6 L4.15 -3.5 4.4 -3.45 4.6 -3.05 4.45 -2.7 1.0 -2.5 1.05 5.15 1.45 6.5 1.55 6.5 1.6 6.7 1.55 6.75 1.35 7.1 Q1.05 7.45 1.0 8.95 L1.0 15.25 1.3 15.6 1.5 16.15 Q1.5 17.55 0.45 17.55 -1.15 17.55 -1.15 16.25 L-1.1 15.6 -0.75 15.3 -0.7 11.25 Q-0.7 8.55 -1.2 6.9 L-1.2 6.8 -1.25 6.8 -1.3 6.6 -1.0 5.8 Q-0.75 5.25 -0.85 4.95 L-0.8 5.0 -0.85 -2.5 -4.2 -2.55 -4.3 -2.6 -4.4 -3.0 -4.25 -3.3 -4.05 -3.4 -3.75 -3.55 -3.25 -3.8 Q-2.35 -4.5 -1.95 -5.55 L-1.7 -6.95 -1.45 -7.55 -1.8 -7.75 -1.8 -8.1 -1.75 -8.5 Q-1.7 -8.7 -1.3 -8.75 L-1.3 -12.0 -1.35 -14.75 -1.4 -17.65 -1.4 -19.05 -1.45 -19.2 -1.5 -19.4 -1.45 -19.7 -1.55 -39.7 -1.5 -39.7 -1.5 -39.85 -1.45 -40.0 -1.5 -40.4 -1.45 -40.4 -1.3 -50.8 -1.35 -50.8 -1.3 -51.6 -1.25 -51.55 -0.75 -65.5 -0.65 -65.45 -0.65 -66.4 -0.2 -66.4 -0.15 -65.8 0.0 -64.25 M-0.45 -63.2 L-0.5 -63.05 -0.55 -63.05 -1.15 -39.85 -1.2 -39.7 -1.1 -20.45 -1.05 -20.3 -1.0 -9.25 -0.95 -9.05 -0.95 -8.75 0.85 -8.7 0.85 -12.0 0.8 -19.3 0.9 -19.4 0.75 -38.55 0.65 -38.65 -0.15 -61.9 -0.2 -61.9 -0.25 -62.0 -0.2 -62.2 -0.15 -62.2 -0.2 -63.2 -0.25 -64.25 -0.5 -65.3 -0.55 -63.35 -0.5 -63.35 -0.45 -63.2 M1.2 -7.6 L-0.1 -7.55 -1.15 -7.6 -1.1 -6.45 -1.9 -4.85 Q-2.35 -3.95 -3.2 -3.45 L3.55 -3.5 2.25 -5.0 Q1.25 -6.5 1.2 -7.5 L1.2 -7.6 M0.9 -8.3 L-1.5 -8.4 -1.55 -8.3 -1.5 -7.8 -1.3 -7.85 -1.2 -7.85 -1.2 -7.8 1.2 -7.85 1.5 -8.3 0.9 -8.3 M0.1 -2.5 L-0.6 -2.5 -0.55 5.9 -0.65 5.9 -0.8 6.3 -0.85 6.4 -0.65 6.4 -0.65 6.45 1.0 6.5 0.95 6.3 0.8 6.3 0.65 -2.4 0.6 -2.5 0.1 -2.5 M0.95 -2.8 L4.1 -2.85 4.3 -3.0 4.1 -3.15 -3.85 -3.15 -4.05 -3.0 -4.0 -2.8 0.85 -2.8 0.95 -2.8 M-0.5 7.4 L-0.5 15.05 -0.35 15.05 -0.2 15.0 -0.25 15.1 0.75 15.0 0.7 7.2 1.1 6.8 -0.85 6.9 -0.5 7.4 M-0.5 16.9 L0.45 17.2 Q1.2 17.15 1.15 16.2 L1.0 15.85 0.75 15.85 0.75 15.55 0.7 15.5 0.2 15.5 -0.45 15.5 -0.5 15.5 -0.5 15.6 -0.6 15.65 Q-0.9 16.0 -0.8 16.3 L-0.5 16.9" fill="#000000" fill-rule="evenodd" stroke="none"/>
    <path d="M-0.2 -63.2 L-0.45 -63.2 -0.5 -63.35 -0.55 -63.35 -0.5 -65.3 -0.25 -64.25 -0.2 -63.2 M1.2 -7.6 L1.2 -7.5 Q1.25 -6.5 2.25 -5.0 L3.55 -3.5 -3.2 -3.45 Q-2.35 -3.95 -1.9 -4.85 L-1.1 -6.45 -1.15 -7.6 -0.1 -7.55 1.2 -7.6" fill="#999999" fill-rule="evenodd" stroke="none"/>
    <path d="M-0.2 -63.2 L-0.15 -62.2 -0.2 -62.2 -0.25 -62.0 -0.2 -61.9 -0.15 -61.9 0.65 -38.65 0.75 -38.55 0.9 -19.4 0.8 -19.3 0.85 -12.0 0.85 -8.7 -0.95 -8.75 -0.95 -9.05 -1.0 -9.25 -1.05 -20.3 -1.1 -20.45 -1.2 -39.7 -1.15 -39.85 -0.55 -63.05 -0.5 -63.05 -0.45 -63.2 -0.2 -63.2 M-0.5 16.9 L-0.8 16.3 Q-0.9 16.0 -0.6 15.65 L-0.5 15.6 -0.5 15.5 -0.45 15.5 0.2 15.5 0.7 15.5 0.75 15.55 0.75 15.85 1.0 15.85 1.15 16.2 Q1.2 17.15 0.45 17.2 L-0.5 16.9" fill="#f2f2f2" fill-rule="evenodd" stroke="none"/>
    <path d="M0.1 -2.5 L0.6 -2.5 0.65 -2.4 0.8 6.3 0.95 6.3 1.0 6.5 -0.65 6.45 -0.65 6.4 -0.85 6.4 -0.8 6.3 -0.65 5.9 -0.55 5.9 -0.6 -2.5 0.1 -2.5 M-0.5 7.4 L-0.85 6.9 1.1 6.8 0.7 7.2 0.75 15.0 -0.25 15.1 -0.2 15.0 -0.35 15.05 -0.5 15.05 -0.5 7.4" fill="#ad9f8d" fill-rule="evenodd" stroke="none"/>
    <path d="M0.9 -8.3 L1.5 -8.3 1.2 -7.85 -1.2 -7.8 -1.2 -7.85 -1.3 -7.85 -1.5 -7.8 -1.55 -8.3 -1.5 -8.4 0.9 -8.3 M0.95 -2.8 L0.85 -2.8 -4.0 -2.8 -4.05 -3.0 -3.85 -3.15 4.1 -3.15 4.3 -3.0 4.1 -2.85 0.95 -2.8" fill="#ffff11" fill-rule="evenodd" stroke="none"/>
    <path d="M-0.9 -4.15 L-0.95 -3.95 -1.75 -4.1 -1.5 -4.2 Q-1.1 -4.35 -0.95 -4.55 L-0.95 -4.65 -0.85 -4.8 -0.9 -4.15 M-1.8 -4.1 Q-2.3 -4.4 -2.05 -5.15 -1.75 -6.1 -0.75 -6.8 L-0.6 -6.8 -0.6 -6.75 -0.65 -6.75 -1.35 -5.4 -1.55 -4.65 -1.8 -4.1" fill="#cccccc" fill-rule="evenodd" stroke="none"/>
    <path d="M0.2 -5.25 L0.8 -4.65 Q0.8 -4.25 0.6 -4.1 0.0 -4.6 0.0 -5.25 L0.2 -5.25 M-0.6 -6.8 L-0.6 -7.4 -0.4 -7.5 -0.05 -7.4 0.0 -7.05 0.0 -6.9 0.15 -6.3 -0.1 -5.1 Q-0.4 -4.1 -0.9 -3.9 L-0.9 -4.15 -0.85 -4.8 -0.95 -4.65 -0.95 -4.55 Q-1.1 -4.35 -1.5 -4.2 L-1.75 -4.1 -1.8 -4.1 -1.55 -4.65 -1.35 -5.4 -0.65 -6.75 -0.6 -6.75 -0.6 -6.8" fill="#dddddd" fill-rule="evenodd" stroke="none"/>
    <path d="M0.2 -53.35 L-0.3 -52.5 Q-0.85 -52.55 -0.8 -52.75 L-0.6 -53.35 -0.95 -56.05 -0.75 -56.3 Q-0.3 -55.95 -0.25 -55.2 L-0.15 -54.65 0.15 -54.65 0.15 -54.4 -0.15 -53.5 0.15 -53.55 0.2 -53.35 M0.25 -43.75 L0.15 -43.7 0.0 -43.7 Q-0.3 -43.7 -0.75 -44.9 L-1.15 -46.0 Q-1.35 -46.55 -0.65 -46.35 L-0.75 -48.15 Q-0.8 -49.35 -0.3 -49.85 L-0.05 -49.75 0.3 -47.65 0.3 -46.15 0.0 -44.8 Q0.0 -44.6 0.15 -44.35 L0.3 -43.95 0.25 -43.75 M0.7 -38.15 L0.5 -38.05 1.1 -35.95 0.65 -35.95 Q0.5 -35.95 0.5 -35.65 L0.7 -35.4 0.9 -35.2 0.75 -34.95 0.45 -34.65 -0.8 -35.5 -0.9 -36.3 Q-0.9 -36.8 -1.2 -37.2 -1.5 -37.6 -1.5 -38.35 L-0.9 -39.4 -1.05 -39.65 -1.2 -39.85 Q-1.2 -40.3 -0.6 -40.45 L-1.2 -41.45 -1.2 -41.6 -0.95 -41.7 Q-0.2 -41.7 0.2 -39.95 L0.45 -39.1 0.9 -38.3 Q0.9 -38.1 0.7 -38.15 M0.9 -29.25 Q0.9 -29.0 0.5 -29.0 L0.45 -28.5 0.95 -27.7 Q0.95 -27.5 0.6 -27.5 L1.05 -27.0 0.6 -26.85 0.9 -26.25 0.6 -26.0 0.95 -25.6 0.5 -25.2 0.95 -24.7 0.95 -24.55 Q0.95 -24.45 0.75 -24.45 -0.5 -24.45 -0.9 -25.9 L-1.05 -27.65 -1.5 -29.25 -1.35 -31.55 -1.25 -31.75 -1.05 -31.85 0.0 -30.75 0.9 -29.25 M0.6 -18.95 L0.6 -18.45 0.9 -18.2 1.05 -17.35 0.65 -15.85 0.8 -15.4 0.7 -15.15 0.6 -14.9 0.55 -14.7 0.45 -14.5 0.2 -14.45 Q-1.2 -14.45 -1.2 -16.05 L-0.9 -17.7 -0.9 -18.4 -1.05 -19.2 Q-1.05 -19.75 -1.4 -20.35 L-1.35 -20.6 -1.05 -20.8 0.0 -19.75 0.6 -18.95 M0.4 -17.55 L0.55 -16.45 0.5 -17.6 0.4 -17.6 0.4 -17.55" fill="#db3535" fill-rule="evenodd" stroke="none"/>
  </g>
</svg>
