<?xml version="1.0" encoding="UTF-8" standalone="no"?>
<svg xmlns:xlink="http://www.w3.org/1999/xlink" height="14.95px" width="9.55px" xmlns="http://www.w3.org/2000/svg">
  <g transform="matrix(1.0, 0.0, 0.0, 1.0, 3.25, 2.35)">
    <path d="M-1.0 -2.35 Q-1.25 -1.4 0.75 -0.55 L2.8 0.2 Q3.0 0.3 3.0 1.05 L2.95 1.8 4.05 4.8 4.05 5.05 4.6 5.4 4.95 5.75 5.15 6.1 5.15 6.85 5.45 8.3 5.6 8.3 6.05 9.7 6.1 9.75 6.15 10.15 6.05 10.75 6.25 10.75 6.3 10.9 6.3 11.0 6.15 11.4 5.85 11.95 4.95 12.6 Q3.8 12.6 2.8 11.95 1.95 11.45 1.8 10.85 L1.6 10.7 1.5 10.15 1.6 9.4 1.8 8.8 1.55 8.45 1.1 7.6 1.1 7.55 1.05 7.55 1.0 7.4 1.25 6.9 Q0.45 6.75 -1.3 2.05 L-1.75 2.4 -3.25 0.1 -2.15 -1.3 -1.75 -1.9 -1.0 -2.35 M-1.55 -0.2 L0.2 0.0 1.1 0.35 0.95 0.55 0.2 0.35 -1.6 0.15 -2.5 0.25 -2.7 0.25 -1.75 1.9 -1.0 1.45 0.4 1.05 2.1 1.25 2.65 1.4 2.65 0.55 Q1.3 0.2 0.1 -0.45 -1.3 -1.15 -1.35 -1.8 L-2.65 -0.1 -1.55 -0.2 M3.7 4.8 L2.7 1.8 2.15 1.6 0.45 1.4 Q-0.3 1.4 -1.05 1.9 L-0.15 4.15 1.45 6.6 1.55 6.35 2.2 4.8 Q2.35 4.35 2.65 4.4 L3.65 4.8 3.7 4.85 3.7 4.8 M2.95 5.0 Q3.3 5.0 3.5 5.45 L3.65 5.95 Q3.65 6.45 3.05 6.45 2.5 6.45 2.5 5.9 L2.6 5.35 Q2.75 5.0 2.95 5.0 M2.85 6.1 L3.2 6.1 3.35 6.05 3.35 5.8 2.9 5.45 2.85 5.6 2.85 6.1 M4.0 5.5 L3.8 5.5 3.8 5.35 2.65 4.7 1.45 7.35 1.9 8.2 2.05 8.4 Q2.5 8.0 3.8 7.95 L5.0 8.25 5.25 8.35 4.95 7.2 4.7 5.85 4.0 5.5 M3.85 8.3 Q3.3 8.3 2.3 8.85 L2.3 8.9 2.25 9.05 2.1 9.0 2.05 9.0 1.9 9.4 4.6 9.95 5.7 9.75 5.65 9.4 5.45 8.8 5.4 8.8 4.85 8.55 3.85 8.3 M1.95 10.5 L2.0 10.5 2.1 10.65 3.2 11.1 4.4 11.35 5.1 11.2 5.7 11.0 5.65 10.9 5.8 10.1 5.45 10.15 4.55 10.3 1.85 9.85 1.85 10.35 1.95 10.5 M2.4 11.0 L2.35 11.0 2.4 11.05 2.7 11.4 Q3.5 12.3 4.6 12.3 5.4 12.3 5.65 11.7 L5.8 11.45 5.65 11.25 5.65 11.2 4.45 11.7 2.4 11.0" fill="#000000" fill-rule="evenodd" stroke="none"/>
    <path d="M3.65 4.8 L2.65 4.4 Q2.35 4.35 2.2 4.8 L1.55 6.35 1.45 6.6 -0.15 4.15 -1.05 1.9 Q-0.3 1.4 0.45 1.4 L2.15 1.6 2.7 1.8 3.7 4.8 3.65 4.8 M-1.55 -0.2 L-2.65 -0.1 -1.35 -1.8 Q-1.3 -1.15 0.1 -0.45 1.3 0.2 2.65 0.55 L2.65 1.4 2.1 1.25 0.4 1.05 -1.0 1.45 -1.75 1.9 -2.7 0.25 -2.5 0.25 -1.6 0.15 0.2 0.35 0.95 0.55 1.1 0.35 0.2 0.0 -1.55 -0.2 M1.95 10.5 L1.85 10.35 1.85 9.85 4.55 10.3 5.45 10.15 5.8 10.1 5.65 10.9 5.7 11.0 5.1 11.2 4.4 11.35 3.2 11.1 2.1 10.65 2.0 10.5 1.95 10.5 M3.85 8.3 L4.85 8.55 5.4 8.8 5.45 8.8 5.65 9.4 5.7 9.75 4.6 9.95 1.9 9.4 2.05 9.0 2.1 9.0 2.25 9.05 2.3 8.9 2.3 8.85 Q3.3 8.3 3.85 8.3 M4.0 5.5 L4.7 5.85 4.95 7.2 5.25 8.35 5.0 8.25 3.8 7.95 Q2.5 8.0 2.05 8.4 L1.9 8.2 1.45 7.35 2.65 4.7 3.8 5.35 3.8 5.5 4.0 5.5 M2.85 6.1 L2.85 5.6 2.9 5.45 3.35 5.8 3.35 6.05 3.2 6.1 2.85 6.1 M2.95 5.0 Q2.75 5.0 2.6 5.35 L2.5 5.9 Q2.5 6.45 3.05 6.45 3.65 6.45 3.65 5.95 L3.5 5.45 Q3.3 5.0 2.95 5.0 M2.4 11.05 L2.4 11.0 4.45 11.7 5.65 11.2 5.65 11.25 5.8 11.45 5.65 11.7 Q5.4 12.3 4.6 12.3 3.5 12.3 2.7 11.4 L2.4 11.05" fill="#999999" fill-rule="evenodd" stroke="none"/>
    <path d="M0.5 -0.4 L-0.05 -0.15 Q-1.0 -0.15 -1.3 -0.5 L-2.1 -0.5 -2.35 -0.65 Q-2.15 -1.15 -1.6 -1.1 L-1.45 -1.1 -1.25 -1.4 -0.95 -1.4 -0.95 -0.9 -0.75 -0.75 -0.7 -0.75 0.4 -0.65 0.5 -0.4 M-0.35 1.9 Q2.2 1.6 2.5 2.35 L0.4 4.5 Q0.0 4.1 -0.15 3.55 L-0.35 2.55 -0.35 1.9 M3.15 5.25 L3.5 5.7 3.35 6.15 3.15 6.25 2.9 5.75 3.15 5.25 M3.15 9.2 L2.5 9.5 2.25 9.15 Q2.25 8.6 3.6 8.6 L5.55 8.9 5.65 9.1 5.25 9.35 4.65 9.2 4.2 9.0 3.15 9.2" fill="#d9d9d9" fill-rule="evenodd" stroke="none"/>
  </g>
</svg>
