<?xml version="1.0" encoding="UTF-8" standalone="no"?>
<svg xmlns:xlink="http://www.w3.org/1999/xlink" height="12.7px" width="10.45px" xmlns="http://www.w3.org/2000/svg">
  <g transform="matrix(1.0, 0.0, 0.0, 1.0, 0.0, 0.0)">
    <path d="M3.5 0.55 L3.55 0.5 Q3.9 0.85 4.1 0.4 L4.35 0.1 4.45 0.1 4.7 0.0 5.05 0.2 5.05 0.45 5.15 0.45 8.2 0.9 8.3 0.9 8.4 1.1 8.4 1.25 Q9.15 1.55 9.75 2.2 L9.95 2.65 Q10.55 3.5 10.4 4.8 10.2 5.95 9.5 6.45 L9.6 8.0 10.05 8.55 10.4 8.9 Q10.55 9.55 10.0 9.85 L9.2 10.05 8.9 11.2 Q8.65 12.05 8.1 12.35 L7.9 12.7 Q5.45 12.5 3.45 11.2 L3.4 11.25 3.4 11.15 3.35 11.1 3.25 11.0 3.0 11.1 2.6 11.05 2.55 11.05 2.45 11.4 2.15 11.65 2.05 11.6 1.8 11.55 1.75 11.55 1.65 11.75 1.3 12.0 1.2 11.8 1.2 11.75 0.55 12.4 Q0.25 12.25 0.35 12.0 L0.55 11.65 0.55 11.5 0.55 11.4 0.45 11.3 0.35 11.2 0.45 10.55 0.4 8.9 0.15 7.6 Q0.05 6.7 0.2 6.05 -0.05 5.45 0.05 4.6 L0.45 3.55 Q0.45 3.15 0.85 2.7 1.65 1.7 2.9 1.15 L2.95 1.25 2.95 1.2 3.25 0.9 3.25 0.85 3.5 0.55 M4.35 7.2 L4.1 9.1 3.55 10.75 3.95 10.9 4.45 11.4 7.65 12.25 Q7.65 12.0 7.8 11.85 L8.0 11.7 8.25 10.9 8.75 10.0 8.7 10.0 9.25 9.55 10.0 9.25 9.7 8.65 9.35 8.25 9.2 8.15 9.15 8.0 Q8.95 7.7 8.9 7.1 L8.9 6.7 8.85 6.7 Q8.65 6.35 8.75 6.0 L8.75 5.95 8.6 5.95 8.35 5.95 7.55 6.75 7.35 6.15 5.85 7.0 5.95 6.8 5.8 6.95 5.5 7.25 5.0 7.2 5.15 6.9 4.45 7.2 4.55 6.85 4.3 7.05 4.35 7.2 M8.7 5.2 L8.65 5.0 8.65 5.15 8.7 5.2 M8.15 5.05 L8.1 5.35 8.1 5.4 8.2 5.15 8.15 5.05 M8.55 5.45 L8.45 5.7 Q8.5 5.6 8.6 5.6 L8.55 5.5 8.55 5.45 M2.0 6.95 L1.85 6.7 1.85 7.0 Q1.85 8.1 2.3 9.1 L2.45 9.05 2.6 9.05 2.4 8.1 2.35 7.35 2.0 7.1 2.0 6.95 M4.0 6.8 L4.05 6.75 4.0 6.75 4.0 6.8 M3.4 7.95 L3.4 7.85 3.3 7.85 3.4 7.95 M2.2 9.2 L2.05 9.05 2.2 9.3 2.2 9.2 M1.0 8.4 L1.0 8.45 1.1 8.45 1.0 8.4 M1.1 10.85 L1.15 10.85 1.1 10.75 1.1 10.85" fill="#000000" fill-rule="evenodd" stroke="none"/>
    <path d="M5.85 7.0 L7.35 6.15 7.55 6.75 8.35 5.95 8.6 5.95 8.75 5.95 8.75 6.0 Q8.65 6.35 8.85 6.7 L8.9 6.7 8.9 7.1 Q8.95 7.7 9.15 8.0 L9.2 8.15 9.35 8.25 9.7 8.65 10.0 9.25 9.25 9.55 8.7 10.0 8.75 10.0 8.25 10.9 8.0 11.7 7.8 11.85 Q7.65 12.0 7.65 12.25 L4.45 11.4 3.95 10.9 3.55 10.75 4.1 9.1 4.35 7.2 4.45 7.2 5.15 6.9 5.0 7.2 5.5 7.25 5.8 6.95 5.85 7.0 M1.85 7.0 L2.0 6.95 2.0 7.1 2.35 7.35 2.4 8.1 2.6 9.05 2.45 9.05 2.3 9.1 Q1.85 8.1 1.85 7.0" fill="#eedc9d" fill-rule="evenodd" stroke="none"/>
  </g>
</svg>
