<?xml version="1.0" encoding="UTF-8" standalone="no"?>
<svg xmlns:xlink="http://www.w3.org/1999/xlink" height="13.9px" width="11.5px" xmlns="http://www.w3.org/2000/svg">
  <g transform="matrix(1.0, 0.0, 0.0, 1.0, 0.0, 0.0)">
    <path d="M5.65 1.45 Q6.9 0.45 8.75 0.55 L10.35 2.5 11.45 4.6 11.5 4.95 10.4 6.65 Q9.6 7.9 8.3 8.75 L8.0 9.05 Q7.05 9.25 6.4 9.95 L3.8 12.95 3.6 13.35 Q2.45 12.85 1.55 11.95 0.85 11.25 0.65 10.4 L0.9 10.1 1.0 9.6 1.7 8.7 1.75 8.65 1.85 8.45 2.8 6.0 4.45 3.8 Q5.35 2.45 5.65 1.45" fill="#ffffff" fill-rule="evenodd" stroke="none"/>
    <path d="M6.5 0.0 L8.9 0.05 9.05 0.05 Q11.7 2.25 11.5 5.4 L11.35 5.75 Q9.7 8.95 6.7 11.0 6.25 11.25 5.85 11.6 4.8 12.45 4.1 13.55 L4.4 13.6 3.95 13.8 3.9 13.85 3.85 13.85 2.6 13.7 Q1.1 12.9 0.3 11.45 -0.25 10.5 0.25 9.4 L0.65 9.1 0.65 9.15 0.8 9.05 0.95 8.95 1.0 8.35 Q0.9 7.95 1.2 7.5 L3.05 4.4 3.6 3.55 4.45 2.4 Q4.4 1.95 4.8 1.75 L5.2 1.2 5.25 0.9 5.35 0.85 6.0 0.35 6.5 0.0 M5.65 1.45 Q5.35 2.45 4.45 3.8 L2.8 6.0 1.85 8.45 1.75 8.65 1.7 8.7 1.0 9.6 0.9 10.1 0.65 10.4 Q0.85 11.25 1.55 11.95 2.45 12.85 3.6 13.35 L3.8 12.95 6.4 9.95 Q7.05 9.25 8.0 9.05 L8.3 8.75 Q9.6 7.9 10.4 6.65 L11.5 4.95 11.45 4.6 10.35 2.5 8.75 0.55 Q6.9 0.45 5.65 1.45" fill="#000000" fill-rule="evenodd" stroke="none"/>
  </g>
</svg>
