<?xml version="1.0" encoding="UTF-8" standalone="no"?>
<svg xmlns:xlink="http://www.w3.org/1999/xlink" height="17.0px" width="11.9px" xmlns="http://www.w3.org/2000/svg">
  <g transform="matrix(1.0, 0.0, 0.0, 1.0, 0.0, 0.0)">
    <path d="M5.85 2.05 Q5.4 1.95 5.0 1.65 L4.8 1.3 4.75 1.2 4.15 0.8 3.9 0.45 Q3.85 3.2 3.05 6.05 2.9 6.45 3.35 6.55 6.65 7.45 9.5 9.05 10.15 8.0 10.45 6.75 L10.85 5.95 10.75 5.85 10.65 5.65 10.5 5.45 9.5 5.3 7.85 3.85 Q6.75 3.25 5.95 2.2 L5.85 2.05 M6.3 1.65 Q6.75 2.65 7.7 3.15 L9.4 4.25 9.75 4.7 10.8 5.0 11.25 5.55 11.45 5.55 11.85 5.5 11.85 5.8 11.9 6.05 11.65 6.2 11.4 6.15 Q11.35 7.3 10.8 8.3 L9.5 9.8 8.2 9.0 Q8.2 9.65 7.5 10.35 6.75 11.15 6.3 12.1 L6.85 13.15 7.05 14.0 7.0 14.2 5.6 15.45 4.15 16.35 Q4.15 16.95 3.55 17.0 L2.9 16.95 Q2.55 16.65 2.55 16.2 L1.6 15.8 Q1.15 15.45 1.1 14.85 -0.35 14.15 0.1 12.2 0.25 11.4 0.75 10.8 1.3 10.15 2.1 9.65 L2.4 8.55 2.85 7.65 Q2.9 7.25 3.1 7.0 2.4 6.7 1.9 6.1 L3.0 2.9 3.85 0.2 3.9 0.1 3.9 0.0 3.9 0.05 4.05 0.0 4.5 0.4 Q4.7 0.6 5.05 0.65 L5.4 1.15 Q5.65 1.45 6.05 1.6 L6.3 1.65 M3.55 7.6 L3.4 8.45 3.35 8.45 3.2 9.0 Q2.8 9.95 2.1 10.3 L1.15 11.65 Q0.85 12.0 0.9 12.5 L0.65 14.1 Q1.3 14.2 1.6 14.7 L1.8 15.15 2.6 15.5 2.7 15.55 2.8 15.5 3.05 15.85 3.15 16.0 3.05 16.05 3.15 16.3 3.15 16.4 3.65 16.35 Q3.95 15.55 4.85 15.0 L6.5 13.95 Q5.65 12.65 6.2 11.35 6.9 9.9 7.75 8.75 5.8 7.75 3.65 7.15 L3.55 7.6" fill="#000000" fill-rule="evenodd" stroke="none"/>
    <path d="M5.85 2.05 L5.95 2.2 Q6.75 3.25 7.85 3.85 L9.5 5.3 10.5 5.45 10.65 5.65 10.75 5.85 10.85 5.95 10.45 6.75 Q10.15 8.0 9.5 9.05 6.65 7.45 3.35 6.55 2.9 6.45 3.05 6.05 3.85 3.2 3.9 0.45 L4.15 0.8 4.75 1.2 4.8 1.3 5.0 1.65 Q5.4 1.95 5.85 2.05 M3.55 7.6 L3.65 7.15 Q5.8 7.75 7.75 8.75 6.9 9.9 6.2 11.35 5.65 12.65 6.5 13.95 L4.85 15.0 Q3.95 15.55 3.65 16.35 L3.15 16.4 3.15 16.3 3.05 16.05 3.15 16.0 3.05 15.85 2.8 15.5 2.7 15.55 2.6 15.5 1.8 15.15 1.6 14.7 Q1.3 14.2 0.65 14.1 L0.9 12.5 Q0.85 12.0 1.15 11.65 L2.1 10.3 Q2.8 9.95 3.2 9.0 L3.35 8.45 3.4 8.45 3.55 7.6" fill="#63492e" fill-rule="evenodd" stroke="none"/>
  </g>
</svg>
