<?xml version="1.0" encoding="UTF-8" standalone="no"?>
<svg xmlns:xlink="http://www.w3.org/1999/xlink" height="20.2px" width="11.55px" xmlns="http://www.w3.org/2000/svg">
  <g transform="matrix(1.0, 0.0, 0.0, 1.0, 0.0, 0.0)">
    <path d="M1.9 0.1 L1.95 0.0 2.65 0.0 Q4.55 0.25 5.2 2.15 L6.1 2.15 6.9 2.15 Q7.9 2.2 8.4 1.65 L8.75 0.2 10.75 1.2 10.65 1.3 10.25 2.35 9.35 5.7 8.85 5.95 8.4 5.9 Q6.5 8.8 5.95 12.35 L5.65 14.1 5.95 14.55 5.9 15.15 5.85 15.15 Q7.2 16.35 8.85 17.2 10.1 17.8 11.5 17.85 L11.55 18.65 10.55 20.2 3.6 19.95 3.3 19.55 2.4 19.55 1.65 19.45 0.3 18.55 0.3 18.3 0.75 18.6 Q-1.05 12.2 1.35 5.95 L0.25 5.5 1.75 0.25 1.9 0.1 M1.8 0.85 L0.85 5.2 4.7 6.75 Q5.8 5.9 6.85 5.55 L8.95 5.3 9.8 2.0 Q6.35 3.5 3.25 1.85 L1.85 0.85 1.8 0.8 1.8 0.85 M11.15 18.3 Q8.7 18.25 6.9 16.65 L5.1 14.8 Q5.6 14.75 5.65 12.9 5.7 11.1 6.3 9.35 L7.6 6.25 7.65 6.25 8.0 5.65 6.35 6.15 6.1 6.55 4.95 7.2 1.35 5.95 Q0.4 10.7 0.6 15.5 L1.0 18.7 1.6 18.95 3.6 19.15 4.2 19.8 8.2 20.0 10.25 19.8 11.15 18.3" fill="#000000" fill-rule="evenodd" stroke="none"/>
    <path d="M1.85 0.85 L3.25 1.85 Q6.35 3.5 9.8 2.0 L8.95 5.3 6.85 5.55 Q5.8 5.9 4.7 6.75 L0.85 5.2 1.8 0.85 1.85 0.85 M11.15 18.3 L10.25 19.8 8.2 20.0 4.2 19.8 3.6 19.15 1.6 18.95 1.0 18.7 0.6 15.5 Q0.4 10.7 1.35 5.95 L4.95 7.2 6.1 6.55 6.35 6.15 8.0 5.65 7.65 6.25 7.6 6.25 6.3 9.35 Q5.7 11.1 5.65 12.9 5.6 14.75 5.1 14.8 L6.9 16.65 Q8.7 18.25 11.15 18.3" fill="#63492e" fill-rule="evenodd" stroke="none"/>
  </g>
</svg>
