<?xml version="1.0" encoding="UTF-8" standalone="no"?>
<svg xmlns:xlink="http://www.w3.org/1999/xlink" height="30.95px" width="15.75px" xmlns="http://www.w3.org/2000/svg">
  <g transform="matrix(1.0, 0.0, 0.0, 1.0, 0.0, 0.0)">
    <path d="M13.85 5.3 L13.65 5.45 Q13.2 5.75 13.0 6.3 L12.8 6.9 14.95 13.25 Q15.7 15.3 14.0 17.15 L12.95 18.1 12.65 19.45 12.35 20.65 12.7 20.55 12.55 20.75 14.3 23.9 Q15.2 25.5 15.75 27.25 L15.0 27.9 14.75 28.1 14.7 28.6 14.5 28.15 14.3 27.7 13.3 25.1 11.35 21.35 11.0 21.35 10.05 26.0 Q9.4 28.3 9.0 30.7 L9.25 30.75 9.0 30.75 8.95 30.95 8.9 30.75 Q4.5 30.4 0.0 29.0 L1.0 25.1 Q1.55 22.6 3.1 20.75 L2.7 20.6 Q2.1 19.85 2.4 18.95 L2.75 17.25 Q2.8 16.65 3.25 16.4 L3.4 16.45 3.65 16.55 3.7 16.65 3.75 16.75 3.75 16.85 3.75 16.95 3.95 16.95 Q3.7 14.55 2.6 12.25 L2.35 10.95 Q2.35 10.05 2.5 9.2 L2.35 9.4 Q2.2 7.75 3.2 5.95 L4.35 3.95 4.15 3.55 Q4.15 3.1 4.4 2.8 L5.5 0.8 Q5.8 0.1 6.6 0.0 9.35 -0.15 11.65 1.0 13.35 1.85 13.9 3.9 L14.25 4.85 14.25 4.9 13.85 5.3 M13.25 16.7 L13.85 15.85 15.0 14.35 13.25 10.05 12.95 9.2 13.15 10.5 13.6 13.95 13.3 13.45 13.25 16.7 M12.45 6.45 L12.45 6.0 12.5 6.0 12.6 6.25 12.85 5.85 Q14.0 4.65 13.05 3.1 L12.2 1.6 11.55 1.25 Q10.1 0.5 8.35 0.4 L5.95 0.75 5.9 0.95 5.75 1.3 5.6 1.6 5.2 2.6 5.15 2.7 5.2 2.65 5.45 2.6 6.6 2.4 Q9.4 1.9 11.0 4.05 L12.45 6.45 12.45 6.5 12.45 6.45 M5.35 3.45 L5.6 3.45 5.75 3.5 5.9 3.6 Q7.9 7.25 8.95 11.25 9.95 14.95 9.45 18.6 L11.5 18.35 13.05 16.9 Q12.45 14.8 12.45 12.15 L12.45 11.05 12.35 10.6 12.2 7.95 12.15 7.45 11.7 6.35 11.55 5.8 10.25 4.4 Q8.2 2.0 4.9 3.2 L4.85 3.8 5.35 3.45 M3.0 8.45 L3.0 9.3 3.15 9.35 3.55 9.95 4.15 10.65 4.3 10.9 4.35 10.95 4.55 11.0 4.9 11.1 5.1 11.25 Q6.35 11.0 7.3 9.95 L7.85 9.55 Q7.0 6.6 5.55 4.0 5.15 4.15 4.9 4.6 L4.65 5.1 4.15 6.35 3.0 8.45 M5.5 11.55 L7.05 12.3 Q8.15 12.65 8.75 13.35 L8.5 12.05 8.05 10.1 7.05 11.15 Q6.25 11.7 5.5 11.55 M5.0 12.0 Q3.6 11.2 3.05 10.2 L3.55 12.85 4.5 17.0 4.55 17.3 4.6 17.4 8.15 18.45 9.25 18.6 Q9.2 16.2 8.8 13.75 6.95 13.15 5.0 12.0 M11.9 18.9 L10.7 19.2 10.0 19.25 10.05 20.1 10.15 21.0 11.8 20.75 Q11.7 20.25 11.75 19.6 L11.9 18.9 M9.25 19.25 L6.95 18.85 6.35 18.45 Q5.2 18.5 4.35 17.95 L3.95 18.1 3.95 17.55 3.5 17.35 3.2 17.3 Q3.05 17.55 3.05 17.85 L3.1 18.6 2.9 19.35 2.85 19.75 Q5.95 21.25 9.4 21.1 9.2 20.8 9.15 20.3 L9.25 19.45 9.25 19.25 M9.9 21.45 L3.9 20.95 Q3.95 21.55 3.05 22.45 2.15 23.3 1.8 24.45 L0.6 28.6 Q4.85 29.45 8.9 30.65 8.4 28.6 9.15 26.0 9.8 23.45 10.9 21.4 L10.3 21.45 10.3 21.5 9.9 21.45 M12.35 21.0 L12.3 21.5 12.25 21.6 11.95 21.2 11.45 21.3 12.85 22.65 Q12.45 21.7 12.5 20.85 L12.35 21.0 M15.1 26.85 L14.15 24.95 Q14.6 26.1 14.7 27.25 L15.1 26.85" fill="#000000" fill-rule="evenodd" stroke="none"/>
    <path d="M13.25 16.7 L13.3 13.45 13.6 13.95 13.15 10.5 12.95 9.2 13.25 10.05 15.0 14.35 13.85 15.85 13.25 16.7 M5.35 3.45 L4.85 3.8 4.9 3.2 Q8.2 2.0 10.25 4.4 L11.55 5.8 11.7 6.35 12.15 7.45 12.2 7.95 12.35 10.6 12.45 11.05 12.45 12.15 Q12.45 14.8 13.05 16.9 L11.5 18.35 9.45 18.6 Q9.95 14.95 8.95 11.25 7.9 7.25 5.9 3.6 L5.75 3.5 5.6 3.45 5.35 3.45 M5.0 12.0 Q6.95 13.15 8.8 13.75 9.2 16.2 9.25 18.6 L8.15 18.45 4.6 17.4 4.55 17.3 4.5 17.0 3.55 12.85 3.05 10.2 Q3.6 11.2 5.0 12.0 M5.5 11.55 Q6.25 11.7 7.05 11.15 L8.05 10.1 8.5 12.05 8.75 13.35 Q8.15 12.65 7.05 12.3 L5.5 11.55 M9.25 19.25 L9.25 19.45 9.15 20.3 Q9.2 20.8 9.4 21.1 5.95 21.25 2.85 19.75 L2.9 19.35 3.1 18.6 3.05 17.85 Q3.05 17.55 3.2 17.3 L3.5 17.35 3.95 17.55 3.95 18.1 4.35 17.95 Q5.2 18.5 6.35 18.45 L6.95 18.85 9.25 19.25" fill="#63492e" fill-rule="evenodd" stroke="none"/>
    <path d="M5.2 2.6 L5.6 1.6 5.75 1.3 5.9 0.95 5.95 0.75 8.35 0.4 Q10.1 0.5 11.55 1.25 L12.2 1.6 13.05 3.1 Q14.0 4.65 12.85 5.85 L12.6 6.25 12.5 6.0 12.45 6.0 12.45 6.45 11.0 4.05 Q9.4 1.9 6.6 2.4 L5.45 2.6 5.2 2.65 5.2 2.6 M3.0 8.45 L4.15 6.35 4.65 5.1 4.9 4.6 Q5.15 4.15 5.55 4.0 7.0 6.6 7.85 9.55 L7.3 9.95 Q6.35 11.0 5.1 11.25 L4.9 11.1 4.55 11.0 4.35 10.95 4.3 10.9 4.15 10.65 3.55 9.95 3.15 9.35 3.0 9.3 3.0 8.45 M15.1 26.85 L14.7 27.25 Q14.6 26.1 14.15 24.95 L15.1 26.85 M12.35 21.0 L12.5 20.85 Q12.45 21.7 12.85 22.65 L11.45 21.3 11.95 21.2 12.25 21.6 12.3 21.5 12.35 21.0 M9.9 21.45 L10.3 21.5 10.3 21.45 10.9 21.4 Q9.8 23.45 9.15 26.0 8.4 28.6 8.9 30.65 4.85 29.45 0.6 28.6 L1.8 24.45 Q2.15 23.3 3.05 22.45 3.95 21.55 3.9 20.95 L9.9 21.45" fill="#ffffff" fill-rule="evenodd" stroke="none"/>
    <path d="M11.9 18.9 L11.75 19.6 Q11.7 20.25 11.8 20.75 L10.15 21.0 10.05 20.1 10.0 19.25 10.7 19.2 11.9 18.9" fill="#666666" fill-rule="evenodd" stroke="none"/>
  </g>
</svg>
