<?xml version="1.0" encoding="UTF-8" standalone="no"?>
<svg xmlns:xlink="http://www.w3.org/1999/xlink" height="9.5px" width="41.35px" xmlns="http://www.w3.org/2000/svg">
  <g transform="matrix(1.0, 0.0, 0.0, 1.0, 3.5, -10.2)">
    <path d="M5.75 16.25 L6.65 16.15 11.2 15.8 Q13.65 15.7 16.15 15.75 18.15 15.6 20.15 15.7 L24.65 15.75 29.3 16.1 Q31.35 16.5 33.2 16.05 L34.3 15.7 35.25 15.5 36.15 15.25 29.8 14.1 29.85 14.2 6.3 13.4 5.45 13.3 Q5.45 14.5 5.6 15.55 L5.75 16.25 M25.4 13.55 L26.2 13.65 Q28.6 13.85 31.1 13.7 L33.75 14.05 Q35.9 14.1 37.85 15.4 L36.75 15.95 Q34.6 16.9 32.2 16.95 L30.6 16.95 26.3 16.45 21.85 16.4 Q18.6 16.15 15.25 16.4 L10.0 16.7 5.4 16.95 5.3 18.2 3.95 19.15 2.6 19.7 Q0.8 19.35 -0.85 18.55 -1.9 18.15 -2.45 17.35 -3.75 15.2 -3.45 12.7 L3.7 12.25 4.0 10.2 4.4 10.75 5.8 12.9 7.45 13.0 Q8.05 13.1 8.5 12.6 L9.4 12.85 Q10.85 12.2 12.5 12.2 L17.3 12.7 21.5 13.25 24.95 13.8 25.4 13.55 M4.05 12.85 L4.0 12.8 4.0 12.85 3.65 16.5 2.9 14.5 Q1.3 15.15 -0.5 15.05 L-1.7 14.9 -0.15 17.0 -2.9 14.85 -2.95 14.8 -3.0 14.85 Q-2.25 17.15 -0.1 18.4 1.1 19.05 2.6 18.95 L3.95 18.55 4.65 18.3 Q5.15 16.15 4.85 14.2 L4.3 11.6 4.35 12.45 4.05 12.85 M0.2 12.75 L0.2 14.25 1.1 14.25 1.1 12.75 0.2 12.75 M1.85 13.1 L1.65 14.25 2.3 14.2 2.35 12.7 1.85 13.1 M3.55 16.65 Q3.15 18.2 1.75 18.05 L1.3 18.1 -0.05 17.05 2.95 16.95 3.55 16.65 M-2.4 13.4 L-2.35 14.35 -1.7 13.0 -2.4 13.4 M-0.8 13.1 L-0.85 14.1 -0.35 14.3 -0.25 12.7 -0.8 13.1" fill="#000000" fill-rule="evenodd" stroke="none"/>
    <path d="M5.75 16.25 L5.6 15.55 Q5.45 14.5 5.45 13.3 L6.3 13.4 5.75 16.25" fill="#e5e5e5" fill-rule="evenodd" stroke="none"/>
    <path d="M4.0 12.85 L4.05 12.85 4.35 12.45 4.3 11.6 4.85 14.2 Q5.15 16.15 4.65 18.3 L3.95 18.55 2.6 18.95 Q1.1 19.05 -0.1 18.4 -2.25 17.15 -3.0 14.85 L-2.9 14.85 -0.15 17.0 -0.05 17.05 1.3 18.1 1.75 18.05 Q3.15 18.2 3.55 16.65 L3.65 16.5 4.0 12.85 M1.85 13.1 L2.35 12.7 2.3 14.2 1.65 14.25 1.85 13.1 M0.2 12.75 L1.1 12.75 1.1 14.25 0.2 14.25 0.2 12.75 M-0.8 13.1 L-0.25 12.7 -0.35 14.3 -0.85 14.1 -0.8 13.1 M-2.4 13.4 L-1.7 13.0 -2.35 14.35 -2.4 13.4" fill="#e0dc8f" fill-rule="evenodd" stroke="none"/>
    <path d="M6.3 13.4 L29.85 14.2 29.8 14.1 36.15 15.25 35.25 15.5 34.3 15.7 33.2 16.05 Q31.35 16.5 29.3 16.1 L24.65 15.75 20.15 15.7 Q18.15 15.6 16.15 15.75 13.65 15.7 11.2 15.8 L6.65 16.15 5.75 16.25 6.3 13.4" fill="#e8e8e8" fill-rule="evenodd" stroke="none"/>
  </g>
</svg>
