<?xml version="1.0" encoding="UTF-8" standalone="no"?>
<svg xmlns:xlink="http://www.w3.org/1999/xlink" height="22.6px" width="27.2px" xmlns="http://www.w3.org/2000/svg">
  <g transform="matrix(1.0, 0.0, 0.0, 1.0, -0.9, 1.35)">
    <path d="M21.1 9.4 L21.95 9.1 21.1 9.5 21.1 9.4 M6.5 13.5 L6.55 13.55 6.5 13.55 6.45 13.5 6.5 13.5" fill="#333333" fill-rule="evenodd" stroke="none"/>
    <path d="M20.7 3.4 L23.15 1.75 24.4 0.4 Q24.45 0.05 24.8 -0.25 L25.05 -0.45 25.65 -1.35 25.8 -0.95 25.9 -1.0 Q27.3 1.6 27.9 4.6 28.25 6.6 28.0 8.45 L28.1 9.2 27.9 10.4 27.85 10.45 27.95 10.75 26.5 10.15 24.2 8.9 23.3 8.8 22.0 9.55 19.3 10.75 11.35 14.05 10.9 13.6 10.5 13.85 Q10.45 14.45 9.15 14.6 L7.75 15.0 7.25 15.1 6.55 14.65 6.45 14.6 Q6.0 14.7 5.75 15.25 L5.9 16.15 5.7 17.0 Q5.95 17.8 5.75 18.85 L5.4 20.95 5.5 21.0 4.6 21.05 4.5 20.95 4.05 20.75 3.85 20.7 Q1.15 18.6 0.9 15.3 0.75 12.8 2.25 11.05 2.2 10.0 3.55 9.35 5.15 8.6 6.35 7.6 L5.45 7.5 Q4.45 6.9 4.5 5.75 L8.4 6.15 8.45 5.55 12.8 4.5 20.2 2.5 20.6 2.7 Q21.5 3.15 20.65 3.35 19.8 2.7 18.85 3.05 L14.5 4.55 Q12.3 5.1 10.05 5.9 L9.4 6.1 20.7 3.4 M22.75 3.0 L23.15 3.65 Q24.25 5.9 23.8 8.3 L26.05 8.85 27.35 9.6 27.3 9.3 27.5 8.5 27.2 5.1 Q26.85 2.25 25.7 -0.2 L25.45 0.15 22.75 3.0 M19.45 4.7 L20.2 6.25 21.6 6.0 22.35 5.85 23.0 5.65 22.65 3.05 19.75 4.3 18.3 4.7 16.9 5.9 13.45 8.25 Q11.3 9.6 9.8 11.6 L9.8 11.7 9.9 11.65 12.7 11.1 Q12.7 10.05 12.85 9.1 L13.0 8.8 15.25 8.05 Q17.05 7.55 18.4 6.85 L18.3 4.75 Q19.2 5.6 19.1 6.85 L19.25 6.85 19.3 6.75 Q19.2 5.6 19.45 4.7 M21.1 9.5 L21.95 9.1 21.1 9.4 11.85 12.05 11.25 13.05 12.6 12.7 16.85 11.1 21.1 9.5 M23.4 8.25 L23.45 8.25 23.0 6.0 20.35 6.9 19.3 7.2 15.6 8.4 Q14.0 8.65 12.95 9.75 L13.1 11.15 17.45 10.35 19.5 9.6 Q21.45 8.75 23.35 8.35 L23.3 8.3 23.4 8.25 M17.3 5.2 L17.6 4.9 17.05 5.2 13.2 6.45 Q11.6 6.85 10.5 8.15 8.45 10.45 5.5 11.65 L5.15 12.7 2.45 11.95 1.9 13.6 Q1.4 15.0 1.55 16.3 L1.6 16.4 Q2.1 17.9 3.0 19.1 L3.25 19.35 4.75 20.55 5.05 20.6 Q4.7 19.85 4.9 18.75 L4.95 18.55 Q4.9 17.05 5.45 15.75 L5.45 14.3 5.6 12.8 8.05 12.15 Q9.5 11.5 10.65 10.2 L13.85 7.5 17.3 5.2 M11.1 12.1 L10.5 12.2 10.55 13.15 7.4 14.1 7.7 14.1 8.2 14.05 10.55 13.15 11.1 12.1 M12.6 5.85 L11.25 6.15 9.85 6.4 4.85 6.2 5.15 7.0 8.3 6.8 12.6 5.85 M2.5 11.7 L4.55 11.5 Q5.6 10.75 7.0 10.05 L8.15 9.4 10.95 6.8 Q8.35 7.55 6.0 8.8 L4.7 9.5 4.45 9.6 2.55 11.6 2.5 11.7 M6.65 7.6 L6.65 7.7 6.7 7.6 6.65 7.6 M8.65 12.55 Q8.05 12.6 8.7 12.8 L8.65 12.55 M8.9 13.1 L10.05 12.75 9.65 12.3 8.9 13.1 M6.55 13.55 L6.5 13.5 6.4 13.45 6.45 13.5 6.5 13.55 6.55 14.15 6.85 14.15 6.55 13.55 M7.1 13.0 L7.15 13.7 8.4 13.15 7.1 13.0 M5.15 20.75 L5.15 20.8 5.2 20.8 5.15 20.75" fill="#000000" fill-rule="evenodd" stroke="none"/>
    <path d="M20.65 3.35 L20.7 3.4 9.4 6.1 10.05 5.9 Q12.3 5.1 14.5 4.55 L18.85 3.05 Q19.8 2.7 20.65 3.35 M22.75 3.0 L25.45 0.15 25.7 -0.2 Q26.85 2.25 27.2 5.1 L27.5 8.5 27.3 9.3 27.35 9.6 26.05 8.85 23.8 8.3 Q24.25 5.9 23.15 3.65 L22.75 3.0 M19.45 4.7 Q19.2 5.6 19.3 6.75 L19.25 6.85 19.1 6.85 Q19.2 5.6 18.3 4.75 L18.3 4.7 19.75 4.3 19.45 4.7 M9.9 11.65 L9.8 11.7 9.8 11.6 9.9 11.65 M21.1 9.5 L16.85 11.1 12.6 12.7 11.25 13.05 11.85 12.05 21.1 9.4 21.1 9.5 M23.4 8.25 L23.3 8.3 23.35 8.35 Q21.45 8.75 19.5 9.6 L17.45 10.35 13.1 11.15 12.95 9.75 Q14.0 8.65 15.6 8.4 L19.3 7.2 20.35 6.9 23.0 6.0 23.45 8.25 23.4 8.25 M17.3 5.2 L13.85 7.5 10.65 10.2 Q9.5 11.5 8.05 12.15 L5.6 12.8 5.45 14.3 5.45 15.75 Q4.9 17.05 4.95 18.55 L4.9 18.75 Q4.7 19.85 5.05 20.6 L4.75 20.55 3.25 19.35 3.0 19.1 Q2.1 17.9 1.6 16.4 L1.55 16.3 Q1.4 15.0 1.9 13.6 L2.45 11.95 5.15 12.7 5.5 11.65 Q8.45 10.45 10.5 8.15 11.6 6.85 13.2 6.45 L17.05 5.2 17.6 4.9 17.3 5.2 M12.6 5.85 L8.3 6.8 5.15 7.0 4.85 6.2 9.85 6.4 11.25 6.15 12.6 5.85 M11.1 12.1 L10.55 13.15 8.2 14.05 7.7 14.1 7.4 14.1 10.55 13.15 10.5 12.2 11.1 12.1 M8.65 12.55 L8.7 12.8 Q8.05 12.6 8.65 12.55 M6.55 13.55 L6.85 14.15 6.55 14.15 6.5 13.55 6.55 13.55" fill="#999999" fill-rule="evenodd" stroke="none"/>
    <path d="M19.75 4.3 L22.65 3.05 23.0 5.65 22.35 5.85 21.6 6.0 20.2 6.25 19.45 4.7 19.75 4.3 M18.3 4.75 L18.4 6.85 Q17.05 7.55 15.25 8.05 L13.0 8.8 12.85 9.1 Q12.7 10.05 12.7 11.1 L9.9 11.65 9.8 11.6 Q11.3 9.6 13.45 8.25 L16.9 5.9 18.3 4.7 18.3 4.75 M2.5 11.7 L2.55 11.6 4.45 9.6 4.7 9.5 6.0 8.8 Q8.35 7.55 10.95 6.8 L8.15 9.4 7.0 10.05 Q5.6 10.75 4.55 11.5 L2.5 11.7" fill="#5a371d" fill-rule="evenodd" stroke="none"/>
  </g>
</svg>
