<?xml version="1.0" encoding="UTF-8" standalone="no"?>
<svg xmlns:xlink="http://www.w3.org/1999/xlink" height="7.8px" width="16.95px" xmlns="http://www.w3.org/2000/svg">
  <g transform="matrix(1.0, 0.0, 0.0, 1.0, 0.0, 0.0)">
    <path d="M1.25 0.7 Q1.7 0.05 2.5 0.05 L5.0 0.2 Q5.85 0.45 6.65 0.95 L8.05 2.25 9.1 2.8 10.0 2.55 11.5 1.3 Q12.8 0.95 13.95 1.7 L13.75 2.55 Q15.35 2.3 16.8 3.1 L16.95 4.2 16.8 4.4 Q15.45 5.25 15.05 6.9 L14.0 7.8 11.75 7.55 9.15 6.95 2.7 5.5 Q1.1 5.2 0.1 3.95 -0.15 3.55 0.15 3.3 1.85 5.15 4.45 5.55 L8.2 5.95 8.85 3.55 4.75 0.5 1.25 0.7 M10.0 3.35 L9.45 3.6 9.15 4.65 Q8.6 5.9 9.0 6.0 L9.85 5.5 10.0 3.35 M12.9 2.85 L13.5 1.95 Q11.6 1.35 10.5 3.05 L10.75 5.3 9.6 6.1 Q10.25 6.7 11.05 7.2 L13.65 7.3 13.85 6.85 14.8 6.2 16.4 3.65 12.9 2.85" fill="#000000" fill-rule="evenodd" stroke="none"/>
    <path d="M1.25 0.7 L4.75 0.5 8.85 3.55 8.2 5.95 4.45 5.55 Q1.85 5.15 0.15 3.3 L0.3 1.05 1.25 0.7" fill="#f0e1bd" fill-rule="evenodd" stroke="none"/>
    <path d="M12.9 2.85 L16.4 3.65 14.8 6.2 13.85 6.85 13.65 7.3 11.05 7.2 Q10.25 6.7 9.6 6.1 L10.75 5.3 10.5 3.05 Q11.6 1.35 13.5 1.95 L12.9 2.85 M10.0 3.35 L9.85 5.5 9.0 6.0 Q8.6 5.9 9.15 4.65 L9.45 3.6 10.0 3.35" fill="#485331" fill-rule="evenodd" stroke="none"/>
  </g>
</svg>
