<?xml version="1.0" encoding="UTF-8" standalone="no"?>
<svg xmlns:xlink="http://www.w3.org/1999/xlink" height="26.95px" width="17.7px" xmlns="http://www.w3.org/2000/svg">
  <g transform="matrix(1.0, 0.0, 0.0, 1.0, -1.5, -3.4)">
    <path d="M10.25 4.55 Q8.45 3.05 5.65 3.95 L5.6 4.05 5.5 4.6 5.5 4.95 7.4 5.25 9.75 5.9 9.95 5.7 10.05 5.8 10.05 5.65 10.1 5.65 10.25 5.55 10.25 5.0 10.25 4.6 10.25 4.55 M10.65 4.4 L10.65 5.0 10.8 4.95 11.25 4.95 11.4 5.0 11.45 5.1 11.55 5.25 11.6 5.5 11.65 5.6 12.45 6.05 12.95 6.4 13.05 6.4 14.55 7.0 16.55 7.05 16.95 6.7 17.45 6.5 Q18.55 8.1 19.05 10.4 19.4 12.35 18.8 13.95 L18.9 14.15 18.7 14.25 18.5 14.6 18.55 14.3 18.5 14.3 17.4 16.75 Q16.55 18.15 15.55 18.9 16.65 19.85 16.1 21.9 15.55 24.0 13.6 24.1 L12.8 24.25 Q12.35 28.65 7.95 30.15 5.65 30.85 4.75 29.05 L4.45 27.85 Q4.35 26.25 4.65 24.8 L4.45 24.0 Q1.4 24.55 1.5 21.7 1.5 19.75 2.25 18.0 L2.8 16.55 2.8 16.5 3.05 16.25 3.1 16.15 3.0 16.05 2.0 15.7 1.85 15.65 Q1.6 14.75 1.95 13.9 2.4 12.7 2.5 11.3 2.7 9.2 3.25 7.15 3.6 5.75 4.45 4.85 L4.95 4.85 4.95 4.75 5.15 3.85 5.25 3.6 5.3 3.55 5.4 3.5 5.65 3.45 5.85 3.4 9.2 3.6 10.3 3.75 10.35 3.85 10.35 4.05 10.6 4.3 10.65 4.4 M10.65 5.65 L10.65 6.15 11.45 6.85 12.1 7.45 12.1 7.3 12.3 6.95 12.45 6.8 12.2 6.7 11.25 5.65 11.2 5.45 11.15 5.45 Q10.85 5.35 10.65 5.65 M13.1 7.05 L13.0 7.9 12.85 9.1 12.7 10.8 12.35 11.2 11.95 11.35 11.95 11.6 11.95 12.1 11.9 12.45 11.95 13.05 11.95 13.6 12.4 14.0 12.35 13.15 Q12.35 11.95 12.7 11.2 L13.1 13.05 15.15 13.45 18.5 13.85 18.55 13.75 18.45 10.95 Q18.35 8.95 17.4 7.15 L16.65 7.6 16.45 7.6 Q15.6 8.0 14.35 7.6 L13.35 6.95 13.3 7.0 13.1 7.05 M10.35 6.75 L10.3 6.65 10.25 6.5 10.1 6.2 9.85 6.5 9.2 7.05 8.7 8.15 Q8.5 8.55 8.6 9.05 9.2 9.6 10.05 10.0 L11.4 11.05 11.6 10.85 11.7 10.8 11.8 10.9 12.2 10.6 12.4 9.3 12.35 8.3 12.1 8.2 11.5 7.65 Q11.4 7.5 11.15 7.45 L10.75 6.9 10.4 6.75 10.35 6.75 M11.35 11.35 L11.4 11.2 Q10.4 10.95 9.5 10.05 L8.3 10.0 8.55 10.6 8.6 10.6 Q8.85 10.7 8.75 10.95 L9.65 11.7 11.3 12.9 11.25 12.25 11.35 11.5 11.35 11.35 M6.55 5.65 Q7.0 7.55 5.3 8.75 L4.7 9.3 3.25 10.8 3.5 11.0 3.65 11.2 5.05 11.45 7.05 11.95 7.65 12.15 8.0 10.9 8.1 10.85 7.75 10.4 8.05 9.6 8.3 9.15 Q7.95 8.6 8.45 7.6 L9.45 6.25 7.5 5.95 6.55 5.65 4.55 5.45 Q3.95 6.2 3.75 7.15 L3.25 8.95 2.9 10.85 2.95 10.9 Q3.45 9.55 4.95 8.25 6.2 7.2 6.55 5.65 M2.8 11.85 L2.2 15.25 2.95 15.45 3.05 15.45 3.45 15.7 3.7 15.55 4.4 15.55 4.4 15.4 4.85 13.2 Q5.0 12.55 5.45 12.2 L4.2 11.9 Q3.5 11.65 2.85 11.2 L2.8 11.85 M8.4 11.2 L8.2 12.35 8.15 12.35 7.75 14.1 Q7.55 15.25 7.7 16.35 L7.7 16.95 8.9 17.1 Q9.7 17.3 10.4 17.75 L10.9 17.9 11.05 18.0 11.1 18.15 11.15 18.25 11.2 18.35 11.3 18.4 11.55 18.6 11.7 18.7 11.65 20.05 11.6 20.45 11.75 20.35 12.1 20.35 12.45 19.55 12.6 19.35 Q12.1 18.95 12.2 17.9 L12.5 15.75 12.65 15.25 12.6 15.15 12.5 15.25 12.5 15.1 11.95 14.6 Q11.25 14.15 11.45 13.65 L11.4 13.3 9.4 12.15 8.45 11.2 8.4 11.2 M6.55 12.7 L5.6 12.75 5.35 13.15 4.95 14.65 4.85 15.6 5.0 15.6 Q5.45 15.65 5.85 15.85 L5.9 15.95 6.1 16.2 6.4 16.9 6.4 17.1 6.7 16.6 Q6.6 16.2 6.95 15.55 L7.2 15.05 7.25 14.3 7.3 13.85 Q7.2 13.15 6.55 12.7 M7.25 16.9 L7.3 16.95 7.45 16.95 7.25 16.1 7.05 16.8 7.25 16.9 M2.9 19.2 Q4.1 18.3 5.65 18.55 L6.15 17.5 5.95 17.25 5.75 16.6 5.55 16.2 3.9 16.15 3.95 16.3 3.75 16.5 3.6 16.45 3.5 16.4 2.8 17.9 2.6 18.45 2.6 18.5 2.65 18.45 2.85 18.75 2.85 19.15 2.85 19.2 2.9 19.2 M7.05 17.5 L7.0 17.5 6.75 18.0 7.4 19.95 7.85 22.05 7.95 21.9 9.75 20.65 10.9 19.1 10.9 19.05 11.1 18.9 11.05 18.85 10.85 18.75 10.8 18.7 10.8 18.6 10.8 18.5 10.75 18.4 9.5 18.05 7.4 17.2 7.3 17.4 7.05 17.5 M7.6 12.4 L7.05 12.35 7.45 13.05 7.6 12.4 M4.3 23.6 L4.25 23.55 4.4 23.35 Q4.35 22.2 4.75 20.85 L5.55 18.75 3.35 19.7 2.55 19.75 Q2.4 19.5 2.4 19.1 L2.45 18.95 2.35 19.1 2.1 20.15 Q1.85 21.25 1.85 22.4 L1.9 22.9 2.15 23.05 3.3 23.35 4.25 23.6 4.3 23.65 4.3 23.6 M4.95 22.75 L4.75 23.65 4.8 23.85 Q6.2 24.65 7.8 25.0 L9.9 25.4 Q9.7 24.9 10.1 24.15 10.85 22.85 11.2 21.35 L11.3 19.25 Q11.05 20.15 10.0 21.05 8.9 22.05 7.95 22.45 L7.95 22.55 Q7.05 21.75 6.65 20.05 L6.45 18.7 5.85 20.3 Q5.4 21.7 5.25 23.2 L5.2 23.25 5.0 23.05 5.0 22.75 4.95 22.7 4.95 22.75 M11.3 22.6 L11.25 22.65 Q11.05 24.05 10.3 25.1 L10.3 25.2 10.3 25.4 10.3 25.45 10.35 25.45 10.3 25.5 10.25 25.65 10.2 25.75 10.0 25.55 Q7.6 25.85 5.3 24.65 L4.95 24.5 Q5.25 25.45 5.05 26.65 L4.9 27.8 5.0 29.3 Q9.65 31.15 11.7 26.2 12.1 25.1 12.6 24.25 L12.3 24.2 11.95 22.8 Q11.45 23.0 11.35 22.6 11.3 22.35 11.5 22.35 L11.95 22.35 11.9 22.2 Q11.85 21.5 11.95 20.85 L11.55 20.6 11.3 22.6 M15.4 18.45 L15.35 18.75 15.5 18.85 Q16.05 17.5 16.85 16.2 L18.05 14.4 Q15.75 15.0 13.6 13.75 L13.15 13.55 13.1 13.55 12.85 14.75 Q13.1 15.3 12.95 16.05 L12.6 19.3 12.8 19.0 12.9 18.95 13.1 18.9 13.0 18.35 Q12.95 18.0 13.25 17.9 L13.85 17.95 14.05 18.05 14.1 18.15 14.25 18.6 14.3 18.7 Q14.25 18.5 14.35 18.3 L14.7 17.9 15.1 17.9 15.25 17.95 15.25 18.05 15.4 18.45 M13.55 18.45 L13.45 18.8 13.85 18.85 13.8 18.7 13.65 18.4 13.55 18.45 M14.35 18.95 L14.3 18.8 14.3 18.9 14.35 18.95 M15.05 18.65 Q14.85 18.3 14.8 18.6 L14.75 18.75 15.05 18.65 M13.05 19.4 L12.55 20.5 12.55 20.6 12.45 20.7 12.4 21.1 Q12.2 22.2 12.5 23.25 L12.65 23.55 Q14.55 23.85 14.65 21.55 14.75 20.4 14.15 19.35 L13.85 19.3 13.6 19.3 13.45 19.35 13.05 19.4 M14.9 22.9 L15.6 21.9 15.9 21.0 15.45 19.1 15.2 19.1 14.65 19.3 Q15.3 20.5 15.1 21.95 L14.9 22.9" fill="#000000" fill-rule="evenodd" stroke="none"/>
    <path d="M10.25 4.55 L10.25 4.6 10.25 5.0 10.25 5.55 10.1 5.65 10.05 5.65 10.05 5.8 9.95 5.7 9.75 5.9 7.4 5.25 5.5 4.95 5.5 4.6 5.6 4.05 5.65 3.95 Q8.45 3.05 10.25 4.55 M13.1 7.05 L13.3 7.0 13.35 6.95 14.35 7.6 Q15.6 8.0 16.45 7.6 L16.65 7.6 17.4 7.15 Q18.35 8.95 18.45 10.95 L18.55 13.75 18.5 13.85 15.15 13.45 13.1 13.05 12.7 11.2 Q12.35 11.95 12.35 13.15 L12.4 14.0 11.95 13.6 11.95 13.05 11.9 12.45 11.95 12.1 11.95 11.6 11.95 11.35 12.35 11.2 12.7 10.8 12.85 9.1 13.0 7.9 13.1 7.05 M10.65 5.65 Q10.85 5.35 11.15 5.45 L11.2 5.45 11.25 5.65 12.2 6.7 12.45 6.8 12.3 6.95 12.1 7.3 12.1 7.45 11.45 6.85 10.65 6.15 10.65 5.65 M2.8 11.85 L2.85 11.2 Q3.5 11.65 4.2 11.9 L5.45 12.2 Q5.0 12.55 4.85 13.2 L4.4 15.4 4.4 15.55 3.7 15.55 3.45 15.7 3.05 15.45 2.95 15.45 2.2 15.25 2.8 11.85 M6.55 5.65 Q6.2 7.2 4.95 8.25 3.45 9.55 2.95 10.9 L2.9 10.85 3.25 8.95 3.75 7.15 Q3.95 6.2 4.55 5.45 L6.55 5.65 7.5 5.95 9.45 6.25 8.45 7.6 Q7.95 8.6 8.3 9.15 L8.05 9.6 7.75 10.4 8.1 10.85 8.0 10.9 7.65 12.15 7.05 11.95 5.05 11.45 3.65 11.2 3.5 11.0 3.25 10.8 4.7 9.3 5.3 8.75 Q7.0 7.55 6.55 5.65 M11.35 11.35 L11.35 11.5 11.25 12.25 11.3 12.9 9.65 11.7 8.75 10.95 Q8.85 10.7 8.6 10.6 L8.55 10.6 8.3 10.0 9.5 10.05 Q10.4 10.95 11.4 11.2 L11.35 11.35 M6.55 12.7 Q7.2 13.15 7.3 13.85 L7.25 14.3 7.2 15.05 6.95 15.55 Q6.6 16.2 6.7 16.6 L6.4 17.1 6.4 16.9 6.1 16.2 5.9 15.95 5.85 15.85 Q5.45 15.65 5.0 15.6 L4.85 15.6 4.95 14.65 5.35 13.15 5.6 12.75 6.55 12.7 M2.6 18.45 L2.8 17.9 3.5 16.4 3.6 16.45 3.75 16.5 3.95 16.3 3.9 16.15 5.55 16.2 5.75 16.6 5.95 17.25 6.15 17.5 5.65 18.55 Q4.1 18.3 2.9 19.2 L2.85 19.15 2.85 18.75 2.65 18.45 2.6 18.45 M7.6 12.4 L7.45 13.05 7.05 12.35 7.6 12.4 M7.05 17.5 L7.3 17.4 7.4 17.2 9.5 18.05 10.75 18.4 10.8 18.5 10.8 18.6 10.8 18.7 10.85 18.75 11.05 18.85 11.1 18.9 10.9 19.05 10.9 19.1 9.75 20.65 7.95 21.9 7.85 22.05 7.4 19.95 6.75 18.0 7.0 17.5 7.05 17.5 M2.4 19.1 Q2.4 19.5 2.55 19.75 L3.35 19.7 5.55 18.75 4.75 20.85 Q4.35 22.2 4.4 23.35 L4.25 23.55 4.3 23.6 4.25 23.6 3.3 23.35 2.15 23.05 1.9 22.9 1.85 22.4 Q1.85 21.25 2.1 20.15 L2.35 19.1 2.4 19.1 M5.0 22.75 L5.0 23.05 5.2 23.25 5.25 23.2 Q5.4 21.7 5.85 20.3 L6.45 18.7 6.65 20.05 Q7.05 21.75 7.95 22.55 L7.95 22.45 Q8.9 22.05 10.0 21.05 11.05 20.15 11.3 19.25 L11.2 21.35 Q10.85 22.85 10.1 24.15 9.7 24.9 9.9 25.4 L7.8 25.0 Q6.2 24.65 4.8 23.85 L4.75 23.65 4.95 22.75 5.0 22.75 M11.35 22.6 L11.3 22.6 11.55 20.6 11.95 20.85 Q11.85 21.5 11.9 22.2 L11.95 22.35 11.5 22.35 Q11.3 22.35 11.35 22.6 M13.55 18.45 L13.65 18.4 13.8 18.7 13.85 18.85 13.45 18.8 13.55 18.45 M15.4 18.45 L15.25 18.05 15.25 17.95 15.1 17.9 14.7 17.9 14.35 18.3 Q14.25 18.5 14.3 18.7 L14.25 18.6 14.1 18.15 14.05 18.05 13.85 17.95 13.25 17.9 Q12.95 18.0 13.0 18.35 L13.1 18.9 12.9 18.95 12.8 19.0 12.6 19.3 12.95 16.05 Q13.1 15.3 12.85 14.75 L13.1 13.55 13.15 13.55 13.6 13.75 Q15.75 15.0 18.05 14.4 L16.85 16.2 Q16.05 17.5 15.5 18.85 L15.35 18.75 15.4 18.45 M14.9 22.9 L15.1 21.95 Q15.3 20.5 14.65 19.3 L15.2 19.1 15.45 19.1 15.9 21.0 15.6 21.9 14.9 22.9 M13.05 19.4 L13.45 19.35 13.6 19.3 13.85 19.3 14.15 19.35 Q14.75 20.4 14.65 21.55 14.55 23.85 12.65 23.55 L12.5 23.25 Q12.2 22.2 12.4 21.1 L12.45 20.7 12.55 20.6 12.55 20.5 13.05 19.4 M15.05 18.65 L14.75 18.75 14.8 18.6 Q14.85 18.3 15.05 18.65" fill="#485331" fill-rule="evenodd" stroke="none"/>
    <path d="M10.35 6.75 L10.4 6.75 10.75 6.9 11.15 7.45 Q11.4 7.5 11.5 7.65 L12.1 8.2 12.35 8.3 12.4 9.3 12.2 10.6 11.8 10.9 11.7 10.8 11.6 10.85 11.4 11.05 10.05 10.0 Q9.2 9.6 8.6 9.05 8.5 8.55 8.7 8.15 L9.2 7.05 9.85 6.5 10.1 6.2 10.25 6.5 10.3 6.65 10.35 6.75 M8.4 11.2 L8.45 11.2 9.4 12.15 11.4 13.3 11.45 13.65 Q11.25 14.15 11.95 14.6 L12.5 15.1 12.5 15.25 12.6 15.15 12.65 15.25 12.5 15.75 12.2 17.9 Q12.1 18.95 12.6 19.35 L12.45 19.55 12.1 20.35 11.75 20.35 11.6 20.45 11.65 20.05 11.7 18.7 11.55 18.6 11.3 18.4 11.2 18.35 11.15 18.25 11.1 18.15 11.05 18.0 10.9 17.9 10.4 17.75 Q9.7 17.3 8.9 17.1 L7.7 16.95 7.7 16.35 Q7.55 15.25 7.75 14.1 L8.15 12.35 8.2 12.35 8.4 11.2 M7.25 16.9 L7.05 16.8 7.25 16.1 7.45 16.95 7.3 16.95 7.25 16.9 M11.35 22.6 Q11.45 23.0 11.95 22.8 L12.3 24.2 12.6 24.25 Q12.1 25.1 11.7 26.2 9.65 31.15 5.0 29.3 L4.9 27.8 5.05 26.65 Q5.25 25.45 4.95 24.5 L5.3 24.65 Q7.6 25.85 10.0 25.55 L10.2 25.75 10.25 25.65 10.3 25.5 10.35 25.45 10.3 25.45 10.3 25.4 10.3 25.2 10.3 25.1 Q11.05 24.05 11.25 22.65 L11.3 22.6 11.35 22.6" fill="#968367" fill-rule="evenodd" stroke="none"/>
    <path d="M8.0 16.2 L8.0 14.95 8.35 11.75 Q9.65 11.9 11.0 13.75 L10.05 13.85 8.35 16.25 8.0 16.2 M6.2 24.85 L6.25 25.2 6.05 26.45 Q7.25 27.9 7.25 28.1 L7.1 28.45 6.65 28.65 6.0 28.45 5.6 28.25 5.35 28.35 5.25 28.5 5.0 28.05 Q5.0 24.85 6.15 24.8 L6.2 24.85 M12.25 24.0 L11.8 24.95 12.15 25.0 12.25 25.25 Q10.75 27.9 9.25 28.75 L9.0 28.5 Q9.0 27.7 11.85 23.4 L12.25 24.0" fill="#605342" fill-rule="evenodd" stroke="none"/>
    <path d="M13.25 7.5 Q13.55 8.0 13.65 9.2 13.7 10.4 14.05 11.0 14.3 11.45 16.55 12.35 18.8 13.2 19.1 13.95 L19.05 14.05 18.85 14.15 17.85 13.9 16.4 13.65 Q13.9 13.65 13.1 12.1 12.75 11.4 12.75 9.85 L12.85 8.75 Q12.85 7.65 13.25 7.5 M11.85 12.25 L11.6 12.5 Q10.4 12.5 9.35 11.6 8.5 10.85 8.5 10.5 8.5 10.05 8.85 10.15 L9.95 11.1 Q10.95 11.85 11.75 12.05 L11.85 12.25 M4.8 10.15 Q5.35 10.15 6.9 10.9 L7.5 8.85 Q7.95 7.55 8.8 7.2 L8.85 7.55 7.25 11.9 5.35 11.55 5.25 11.65 3.45 11.65 3.35 11.4 3.45 11.25 4.75 11.15 4.5 10.75 4.4 10.65 4.25 10.5 4.35 10.2 4.8 10.15 M3.3 11.7 L3.5 12.05 3.25 13.85 3.85 14.5 4.85 15.15 4.55 15.6 4.25 15.9 3.35 15.45 3.25 15.7 3.1 15.75 Q2.55 15.75 2.5 14.6 L2.6 12.0 3.0 11.4 3.3 11.7 M7.65 18.35 L8.3 20.75 Q10.1 19.55 10.85 19.4 L11.1 19.8 9.85 21.15 8.25 22.25 7.5 20.5 6.85 18.45 7.05 17.85 Q7.3 17.5 7.65 17.7 L7.7 17.8 7.5 18.15 7.6 18.35 7.65 18.35 M5.5 18.35 L4.85 18.8 3.4 19.15 2.6 19.1 2.6 18.35 3.0 17.3 Q3.25 16.6 3.85 16.4 L4.1 16.65 3.85 17.1 Q3.6 17.5 3.5 17.95 L3.5 18.45 5.15 18.0 5.4 18.05 5.5 18.35 M6.15 24.8 L5.7 24.5 Q4.95 23.85 4.85 23.4 L4.75 23.4 4.15 22.95 3.5 23.15 3.35 23.05 Q3.3 22.9 3.15 22.9 L2.0 23.4 1.75 22.8 2.0 21.05 Q2.3 19.55 2.75 19.15 L3.55 20.5 Q3.95 21.25 3.75 22.25 4.3 22.3 4.9 23.0 4.95 22.25 5.45 21.0 L6.35 19.15 6.75 19.9 6.2 21.7 7.05 22.9 Q8.0 24.0 8.65 24.2 L8.75 24.4 8.3 24.7 9.4 25.05 9.5 25.25 9.1 25.5 Q7.35 25.5 6.2 24.85 L6.15 24.8 M15.4 12.5 L15.45 12.55 16.2 12.85 16.4 12.85 Q15.9 12.5 15.4 12.5 M13.25 14.0 L13.85 14.85 13.5 16.35 13.5 17.1 14.05 17.1 14.85 16.75 15.1 17.0 14.5 17.75 13.45 17.85 13.3 18.15 13.1 18.4 Q12.75 17.95 12.75 17.0 L12.85 15.3 Q13.0 14.05 13.25 14.0 M13.5 20.15 L13.5 20.2 13.3 21.0 13.1 21.75 Q13.1 22.45 13.7 22.45 L13.95 22.35 14.15 22.25 Q14.6 22.25 14.6 22.8 L14.55 23.2 13.85 23.25 Q13.85 24.15 13.5 24.15 13.15 24.15 12.35 22.35 L13.25 19.75 13.4 19.9 13.5 20.15" fill="#262b1a" fill-rule="evenodd" stroke="none"/>
    <path d="M14.1 7.7 L16.4 8.15 Q18.1 8.55 18.1 9.35 L17.95 10.35 17.65 10.4 Q17.1 10.4 15.65 9.25 L14.1 8.0 14.1 7.7 M6.25 4.1 Q6.25 3.6 7.0 3.7 L7.1 3.95 Q7.1 4.4 6.6 4.4 L6.35 4.35 6.25 4.1 M3.6 7.65 L3.9 6.75 Q4.2 5.9 4.6 5.75 L4.85 6.2 4.65 6.95 4.0 7.85 3.85 7.9 3.6 7.65 M4.6 8.9 L6.2 7.3 6.65 6.55 7.1 5.9 7.9 6.2 8.0 6.4 Q8.0 6.85 5.3 9.25 L4.7 9.15 4.6 8.9 M7.7 17.8 L7.7 17.75 Q7.95 17.65 8.25 18.2 8.05 18.4 7.85 18.4 L7.65 18.35 7.6 18.35 7.5 18.15 7.7 17.8 M8.2 17.8 L8.1 17.7 Q8.4 17.55 9.7 18.1 10.9 18.7 11.1 18.95 L10.85 19.25 10.35 19.5 9.9 19.4 9.5 19.75 Q9.15 19.75 9.1 19.5 L9.1 19.25 9.15 18.95 9.0 18.8 8.3 18.05 8.2 17.8 M17.6 15.15 L17.55 15.55 17.1 15.65 16.4 15.4 16.35 15.15 16.6 14.85 17.55 14.8 17.6 15.15 M15.1 19.5 L15.75 20.7 15.65 20.95 15.5 21.0 Q15.25 21.0 15.1 20.45 L15.0 19.85 15.05 19.55 15.1 19.5 M13.4 19.9 L13.35 19.65 Q14.05 19.2 14.05 20.0 L14.25 20.4 14.0 20.65 13.55 20.2 13.5 20.15 13.4 19.9" fill="#a8b685" fill-rule="evenodd" stroke="none"/>
  </g>
</svg>
