<?xml version="1.0" encoding="UTF-8" standalone="no"?>
<svg xmlns:xlink="http://www.w3.org/1999/xlink" height="23.9px" width="19.45px" xmlns="http://www.w3.org/2000/svg">
  <g transform="matrix(1.0, 0.0, 0.0, 1.0, 0.0, 0.0)">
    <path d="M18.65 2.05 L18.55 2.3 16.6 5.15 18.15 4.0 18.0 4.3 16.5 5.35 18.85 1.3 7.8 12.5 9.05 13.45 12.6 9.25 14.05 7.85 Q12.9 9.35 12.15 11.25 L12.4 9.85 9.3 13.3 10.15 12.95 11.0 13.2 11.15 13.4 11.15 13.75 16.65 7.4 16.75 7.35 Q18.75 5.5 18.65 2.45 L18.65 2.05 M19.3 0.0 Q20.0 3.7 17.7 7.0 L13.7 12.45 Q12.45 14.2 10.6 14.55 L10.45 13.55 9.45 14.2 11.35 17.65 9.85 17.15 4.3 22.85 3.55 23.8 3.55 23.9 2.3 23.45 Q1.25 22.9 0.4 22.05 L0.15 21.75 Q-0.15 21.35 0.1 20.9 L6.5 14.05 5.05 11.7 6.15 10.95 7.7 12.4 Q8.1 10.95 9.15 10.0 14.55 5.05 19.3 0.0 M7.2 14.6 L5.7 15.8 0.6 21.15 2.55 23.15 1.15 20.85 2.2 21.25 5.4 18.15 7.75 15.25 7.55 14.6 7.55 14.55 7.2 14.6 M6.9 12.15 L5.75 11.95 7.05 13.95 7.95 14.1 8.4 15.2 10.3 16.4 6.9 12.15 M3.45 21.15 L2.65 22.2 2.85 22.7 Q4.45 19.55 7.4 18.55 L7.85 16.2 3.45 21.15 M8.65 17.3 L9.25 16.65 8.65 16.1 8.65 17.3 M3.0 22.85 L3.65 23.15 3.95 22.4 5.65 20.85 3.6 22.65 3.0 22.85" fill="#000000" fill-rule="evenodd" stroke="none"/>
    <path d="M18.65 2.05 L18.65 2.45 Q18.75 5.5 16.75 7.35 L16.65 7.4 11.15 13.75 11.15 13.4 11.0 13.2 10.15 12.95 9.3 13.3 12.4 9.85 12.15 11.25 Q12.9 9.35 14.05 7.85 L12.6 9.25 9.05 13.45 7.8 12.5 18.85 1.3 16.5 5.35 18.0 4.3 18.15 4.0 16.6 5.15 18.55 2.3 18.65 2.05" fill="#dddddd" fill-rule="evenodd" stroke="none"/>
    <path d="M6.9 12.15 L10.3 16.4 8.4 15.2 7.95 14.1 7.05 13.95 5.75 11.95 6.9 12.15 M7.2 14.6 L7.55 14.55 7.55 14.6 7.75 15.25 5.4 18.15 2.2 21.25 1.15 20.85 2.55 23.15 0.6 21.15 5.7 15.8 7.2 14.6 M3.0 22.85 L3.6 22.65 5.65 20.85 3.95 22.4 3.65 23.15 3.0 22.85 M8.65 17.3 L8.65 16.1 9.25 16.65 8.65 17.3" fill="#333333" fill-rule="evenodd" stroke="none"/>
  </g>
</svg>
