<?xml version="1.0" encoding="UTF-8" standalone="no"?>
<svg xmlns:xlink="http://www.w3.org/1999/xlink" height="14.45px" width="35.4px" xmlns="http://www.w3.org/2000/svg">
  <g transform="matrix(1.0, 0.0, 0.0, 1.0, -3.0, 0.0)">
    <path d="M14.1 2.25 L15.3 2.2 16.75 0.0 24.55 0.75 Q24.55 1.9 25.0 3.15 30.3 4.85 35.9 4.95 L36.75 3.65 Q37.3 4.0 37.25 4.55 L37.15 5.25 38.4 5.85 37.8 6.85 32.7 7.3 32.8 8.25 Q29.6 9.6 25.85 8.65 L24.7 8.85 Q24.1 10.6 24.45 12.75 22.95 13.6 21.05 13.95 20.55 11.3 21.1 8.9 L16.85 8.7 Q15.65 11.05 15.25 13.85 L12.75 14.45 Q12.2 10.9 13.85 7.9 9.15 6.85 5.7 10.25 L4.5 11.1 Q1.5 7.15 4.6 2.95 6.8 2.5 9.15 2.9 L8.7 3.0 12.6 2.7 11.4 3.55 Q12.1 4.3 12.4 5.4 L22.5 4.6 23.6 4.1 24.4 3.65 Q20.7 2.7 16.7 2.6 L14.1 2.25 M36.65 4.55 L36.65 4.5 36.6 4.5 36.2 5.05 36.6 5.15 36.65 4.55 M32.3 7.5 Q29.4 6.75 26.25 8.2 L29.2 8.35 Q30.7 8.25 32.2 7.5 L32.3 7.5 M25.5 4.0 L22.9 5.2 22.9 5.55 22.7 6.85 22.3 8.1 25.25 8.15 25.85 7.45 25.9 4.25 25.5 4.0 M24.15 0.9 L17.15 0.35 16.5 1.35 15.8 2.2 16.6 1.95 16.75 1.85 17.3 1.25 18.0 0.85 19.95 1.25 20.45 1.1 Q22.5 0.7 23.35 2.75 L24.5 2.95 24.15 0.9 M22.55 1.75 L17.9 1.45 17.25 2.15 22.9 2.6 22.55 1.75 M24.15 8.85 L21.5 8.9 21.3 13.45 24.0 12.45 Q23.7 11.0 23.9 9.6 L24.15 8.85 M27.1 6.55 L27.95 6.4 38.05 5.9 26.35 4.35 26.35 6.95 27.1 6.55 M19.1 8.25 L21.75 8.15 22.5 5.35 16.95 5.9 14.6 5.65 12.4 5.6 12.25 6.35 12.0 6.5 11.45 6.9 11.0 7.4 14.6 7.5 14.95 7.8 Q13.65 8.3 13.55 9.65 L13.0 13.85 Q14.25 13.95 14.85 12.9 L15.8 10.4 Q16.4 8.2 18.15 8.35 L16.9 8.0 17.05 7.3 18.75 7.1 19.1 8.15 19.05 8.25 19.1 8.25 M12.0 4.85 L10.8 3.7 Q9.6 3.9 8.35 3.25 L8.15 3.25 8.1 3.05 Q4.1 2.85 3.6 7.1 3.35 9.05 4.55 10.6 7.25 7.95 10.6 7.35 L10.85 6.55 12.15 5.8 12.0 4.85 M18.3 7.9 Q18.65 7.9 18.45 7.65 L18.15 7.5 17.5 7.6 17.9 7.95 18.3 7.9" fill="#000000" fill-rule="evenodd" stroke="none"/>
    <path d="M12.6 2.7 L13.65 2.35 14.1 2.25 16.7 2.6 Q20.7 2.7 24.4 3.65 L23.6 4.1 22.5 4.6 12.4 5.4 Q12.1 4.3 11.4 3.55 L12.6 2.7 M36.6 4.5 L36.65 4.55 36.6 5.15 36.2 5.05 36.6 4.5 M24.15 0.9 L24.5 2.95 23.35 2.75 Q22.5 0.7 20.45 1.1 L19.95 1.25 18.0 0.85 17.3 1.25 16.75 1.85 16.6 1.95 15.8 2.2 16.5 1.35 17.15 0.35 24.15 0.9 M25.5 4.0 L25.9 4.25 25.85 7.45 25.25 8.15 22.3 8.1 22.7 6.85 22.9 5.55 22.9 5.2 25.5 4.0 M32.3 7.5 L32.2 7.5 Q30.7 8.25 29.2 8.35 L26.25 8.2 Q29.4 6.75 32.3 7.5 M19.1 8.15 L18.75 7.1 17.05 7.3 16.9 8.0 18.15 8.35 Q16.4 8.2 15.8 10.4 L14.85 12.9 Q14.25 13.95 13.0 13.85 L13.55 9.65 Q13.65 8.3 14.95 7.8 L14.6 7.5 11.0 7.4 11.45 6.9 12.0 6.5 12.25 6.35 12.4 5.6 14.6 5.65 16.95 5.9 22.5 5.35 21.75 8.15 19.1 8.25 19.1 8.15 M27.1 6.55 L26.35 6.95 26.35 4.35 38.05 5.9 27.95 6.4 27.1 6.55 M24.15 8.85 L23.9 9.6 Q23.7 11.0 24.0 12.45 L21.3 13.45 21.5 8.9 24.15 8.85 M12.0 4.85 L12.15 5.8 10.85 6.55 10.6 7.35 Q7.25 7.95 4.55 10.6 3.35 9.05 3.6 7.1 4.1 2.85 8.1 3.05 L8.15 3.25 8.35 3.25 Q9.6 3.9 10.8 3.7 L12.0 4.85" fill="#333333" fill-rule="evenodd" stroke="none"/>
  </g>
</svg>
