<?xml version="1.0" encoding="UTF-8" standalone="no"?>
<svg xmlns:xlink="http://www.w3.org/1999/xlink" height="13.15px" width="13.95px" xmlns="http://www.w3.org/2000/svg">
  <g transform="matrix(1.0, 0.0, 0.0, 1.0, -44.25, -10.0)">
    <path d="M50.8 11.9 Q49.95 12.7 49.4 13.95 L49.35 14.1 54.6 14.5 54.65 14.65 Q53.0 14.5 51.65 15.65 54.7 16.85 57.65 18.65 L58.2 19.25 Q54.4 19.15 50.4 20.0 L50.6 20.05 51.1 20.45 51.1 20.55 Q50.05 22.1 48.5 21.45 L48.55 21.55 48.6 21.95 48.6 22.3 48.55 22.55 Q48.1 23.05 47.6 22.55 L46.8 21.75 46.75 21.75 46.75 21.9 46.7 22.25 46.65 22.65 46.5 22.85 Q46.1 23.05 45.8 22.55 L45.35 22.0 45.15 22.05 44.9 21.75 44.75 23.15 Q44.25 22.3 44.25 20.55 L44.55 18.2 44.55 17.75 44.55 17.65 44.55 16.9 44.55 16.8 44.55 16.0 44.7 14.45 Q45.05 12.8 45.7 11.65 46.1 13.0 45.6 14.55 L45.35 15.45 46.4 14.0 47.5 12.1 47.6 12.0 48.0 10.95 Q48.25 10.2 48.75 10.25 L48.7 11.05 48.25 11.65 47.95 12.6 49.95 11.25 51.3 10.0 Q52.2 10.55 50.8 11.9 M47.25 13.5 L47.05 13.75 47.1 13.75 47.25 13.5" fill="#ffffff" fill-rule="evenodd" stroke="none"/>
  </g>
</svg>
