<?xml version="1.0" encoding="UTF-8" standalone="no"?>
<svg xmlns:xlink="http://www.w3.org/1999/xlink" height="16.3px" width="48.2px" xmlns="http://www.w3.org/2000/svg">
  <g transform="matrix(1.0, 0.0, 0.0, 1.0, -21.15, -10.8)">
    <path d="M62.55 16.75 Q59.35 16.6 56.75 18.0 62.6 19.45 68.25 21.6 68.95 21.85 69.35 22.35 L54.35 23.25 54.75 23.35 55.7 23.8 55.75 23.95 Q53.75 25.8 50.75 25.0 L50.8 25.15 50.95 25.6 50.9 26.05 50.85 26.35 Q50.0 26.95 49.05 26.35 L47.5 25.4 47.35 25.4 47.35 25.55 47.3 26.0 47.15 26.45 46.95 26.7 Q46.1 26.95 45.6 26.35 L44.7 25.7 44.35 25.75 43.85 25.4 43.55 27.1 Q42.55 26.05 42.6 23.9 42.65 22.2 43.15 21.05 L43.15 20.55 43.15 20.4 43.15 19.5 43.15 19.35 Q43.05 18.85 43.2 18.4 43.1 17.55 43.45 16.5 44.1 14.5 45.35 13.15 46.1 14.75 45.15 16.65 L44.7 17.75 46.75 16.0 48.85 13.7 49.0 13.55 49.75 12.3 Q50.25 11.35 51.2 11.45 51.55 12.0 51.1 12.4 L50.3 13.15 Q49.8 13.6 49.7 14.3 L53.55 12.65 Q55.0 12.0 56.15 11.15 57.85 11.8 55.15 13.45 53.5 14.4 52.45 15.95 L52.35 16.1 62.4 16.6 62.55 16.75 M48.0 15.65 L48.05 15.7 48.3 15.4 48.0 15.65" fill="#ffffff" fill-rule="evenodd" stroke="none"/>
    <path d="M24.9 11.7 L24.1 12.85 24.0 12.95 Q22.75 12.95 21.9 13.6 L21.6 13.8 Q21.1 13.7 21.15 13.25 L21.2 12.5 21.2 12.35 21.75 11.7 Q22.15 11.4 22.6 11.25 L22.8 11.2 23.85 11.25 24.6 10.8 Q25.5 10.95 24.9 11.7" fill="#000000" fill-rule="evenodd" stroke="none"/>
  </g>
</svg>
