<?xml version="1.0" encoding="UTF-8" standalone="no"?>
<svg xmlns:xlink="http://www.w3.org/1999/xlink" height="50.7px" width="63.05px" xmlns="http://www.w3.org/2000/svg">
  <g transform="matrix(1.0, 0.0, 0.0, 1.0, -6.3, -11.15)">
    <path d="M62.55 16.75 Q59.35 16.6 56.75 18.0 62.6 19.45 68.25 21.6 68.95 21.85 69.35 22.35 L54.35 23.25 54.75 23.35 55.7 23.8 55.75 23.95 Q53.75 25.8 50.75 25.0 L50.8 25.15 50.95 25.6 50.9 26.05 50.85 26.35 Q50.0 26.95 49.05 26.35 L47.5 25.4 47.35 25.4 47.35 25.55 47.3 26.0 47.15 26.45 46.95 26.7 Q46.1 26.95 45.6 26.35 L44.7 25.7 44.35 25.75 43.85 25.4 43.55 27.1 Q42.55 26.05 42.6 23.9 42.65 22.2 43.15 21.05 L43.15 20.55 43.15 20.4 43.15 19.5 43.15 19.35 Q43.05 18.85 43.2 18.4 43.1 17.55 43.45 16.5 44.1 14.5 45.35 13.15 46.1 14.75 45.15 16.65 L44.7 17.75 46.75 16.0 48.85 13.7 49.0 13.55 49.75 12.3 Q50.25 11.35 51.2 11.45 51.55 12.0 51.1 12.4 L50.3 13.15 Q49.8 13.6 49.7 14.3 L53.55 12.65 Q55.0 12.0 56.15 11.15 57.85 11.8 55.15 13.45 53.5 14.4 52.45 15.95 L52.35 16.1 62.4 16.6 62.55 16.75 M48.3 15.4 L48.0 15.65 48.05 15.7 48.3 15.4" fill="#ffffff" fill-rule="evenodd" stroke="none"/>
    <path d="M7.2 36.65 L6.7 36.6 Q6.2 36.0 6.35 35.1 6.45 34.15 7.1 33.4 L7.2 33.3 8.4 33.1 10.0 32.4 Q11.5 33.6 9.9 35.2 8.75 36.4 7.2 36.65 M9.65 43.75 Q10.0 43.3 10.4 43.2 L13.6 43.3 Q14.3 43.3 14.4 44.0 L14.25 44.2 Q11.35 46.3 9.65 43.95 L9.65 43.75 M12.05 52.55 L12.4 52.4 Q14.4 52.25 13.3 53.45 12.6 54.2 11.55 54.65 L11.1 54.6 10.95 54.0 Q11.0 53.3 11.7 52.75 L12.05 52.55 M13.6 60.05 Q14.3 60.1 14.4 60.8 L14.0 61.25 Q11.45 62.65 10.65 60.7 10.55 60.5 10.8 60.3 L11.2 60.0 13.6 60.05" fill="#000000" fill-rule="evenodd" stroke="none"/>
  </g>
</svg>
