<?xml version="1.0" encoding="UTF-8" standalone="no"?>
<svg xmlns:xlink="http://www.w3.org/1999/xlink" height="27.55px" width="122.75px" xmlns="http://www.w3.org/2000/svg">
  <g transform="matrix(1.0, 0.0, 0.0, 1.0, 60.6, 27.65)">
    <path d="M56.95 -24.4 L57.3 -24.25 61.8 -21.45 62.05 -21.2 62.15 -20.85 62.15 -16.85 61.95 -16.3 55.9 -10.1 55.85 -10.05 44.25 -0.25 43.75 -0.1 -40.1 -1.85 -40.45 -1.95 -49.05 -6.9 -56.6 -13.2 -56.65 -13.2 -56.8 -13.35 -58.8 -15.0 -59.1 -15.5 -58.9 -16.05 -58.8 -16.15 -60.45 -18.4 -60.6 -18.75 -60.55 -19.15 -58.25 -24.6 -57.9 -24.95 -53.5 -27.55 -53.1 -27.65 56.95 -24.4 M60.65 -20.45 L56.7 -22.9 -52.95 -26.15 -56.95 -23.8 -58.95 -18.9 -55.65 -14.3 -55.6 -14.25 -48.2 -8.15 -39.9 -3.35 43.5 -1.6 54.85 -11.15 60.65 -17.15 60.65 -20.45" fill="#170e0b" fill-rule="evenodd" stroke="none"/>
  </g>
</svg>
