<?xml version="1.0" encoding="UTF-8" standalone="no"?>
<svg xmlns:xlink="http://www.w3.org/1999/xlink" height="34.9px" width="129.3px" xmlns="http://www.w3.org/2000/svg">
  <g transform="matrix(1.0, 0.0, 0.0, 1.0, 64.65, 17.45)">
    <path d="M35.7 -8.15 L35.75 -8.15 36.15 -8.2 39.95 -7.85 40.05 -7.35 40.1 -7.15 Q42.5 -9.3 45.95 -10.3 L46.3 -10.3 47.2 -12.7 Q48.45 -15.75 49.15 -16.85 L49.15 -17.05 49.3 -17.15 49.3 -17.2 49.55 -17.4 49.6 -17.4 49.85 -17.3 49.65 -17.05 49.55 -17.05 49.3 -16.8 49.25 -16.8 47.7 -13.45 46.5 -10.3 46.75 -10.3 46.8 -10.15 46.9 -10.15 Q48.95 -10.15 49.4 -9.5 L49.55 -9.55 50.05 -9.35 50.05 -9.3 Q50.7 -9.85 51.25 -9.85 52.05 -9.85 53.85 -8.1 L56.0 -5.8 58.2 -3.5 59.75 -1.7 58.55 -0.4 60.0 -0.3 61.0 -0.2 61.0 0.0 Q61.6 0.2 62.0 0.7 L62.85 2.15 63.85 3.5 64.65 5.0 64.55 5.05 64.55 5.0 64.25 5.15 63.8 5.3 63.45 5.5 63.25 5.6 63.2 5.6 63.0 5.6 60.75 5.4 58.95 5.25 58.15 5.25 Q57.1 5.25 53.85 7.25 L49.85 9.65 46.05 11.7 40.8 14.2 36.25 16.3 Q33.3 17.45 30.4 17.45 L27.25 17.4 27.1 17.4 27.1 17.45 21.0 17.45 14.55 16.55 8.5 15.7 1.45 14.8 -11.55 14.05 -15.45 14.1 -16.5 14.25 -17.0 14.4 -17.25 14.4 -17.2 14.35 Q-20.55 13.6 -21.75 13.6 L-34.7 13.2 -43.85 13.15 -46.5 12.95 -48.5 13.15 -49.65 13.35 -52.8 11.6 -54.9 10.0 -54.95 10.05 -55.0 9.95 -55.15 9.8 -55.1 9.7 Q-56.7 6.3 -57.65 4.75 -59.4 1.9 -61.95 1.9 L-62.6 1.85 -63.0 1.9 -63.25 2.1 -64.65 1.0 -62.8 -0.95 -59.95 -3.35 -59.9 -3.25 -59.95 -3.15 -59.15 -3.25 -56.55 -3.05 -56.5 -3.05 -55.0 -2.9 -52.85 -2.8 -48.05 -2.85 -45.0 -2.5 -44.7 -3.1 -44.15 -4.0 -44.2 -4.15 -44.05 -4.2 -41.4 -3.95 -39.65 -3.9 -38.9 -3.8 -38.45 -3.85 -38.5 -4.25 -38.3 -4.45 -38.35 -4.5 -38.25 -4.5 -38.25 -4.55 -38.15 -4.5 -36.35 -4.7 -36.15 -4.9 -36.05 -5.2 -35.85 -5.3 -34.5 -5.1 -33.85 -5.55 -32.5 -6.05 -30.2 -7.2 -30.3 -7.25 -30.3 -7.4 -15.0 -6.9 Q-7.55 -6.6 2.85 -6.6 L11.25 -6.8 18.35 -7.05 24.75 -7.0 26.2 -7.1 27.15 -7.2 31.6 -7.05 Q31.6 -7.3 33.45 -7.75 L35.7 -8.15 M37.25 -7.85 L37.25 -7.95 35.9 -8.0 35.9 -7.95 32.1 -7.0 39.8 -6.8 39.8 -6.9 39.85 -6.9 39.75 -7.65 37.25 -7.85 M46.85 -9.35 L46.55 -9.3 46.25 -9.3 45.95 -7.6 45.75 -7.55 46.2 -7.55 Q47.6 -7.55 47.6 -7.0 L47.55 -6.45 49.35 -6.4 49.0 -6.85 48.65 -7.55 Q48.65 -7.85 49.2 -8.45 L49.05 -8.45 48.8 -8.8 48.75 -8.8 47.1 -9.45 46.85 -9.35 M46.4 -9.95 L46.3 -9.5 47.05 -9.65 48.8 -9.05 49.0 -9.3 49.1 -9.35 46.4 -9.95 M46.2 -9.95 Q43.9 -9.45 42.5 -8.65 L40.25 -6.85 40.3 -6.8 40.3 -6.75 41.0 -6.75 Q42.35 -8.6 45.8 -9.5 L46.05 -9.5 46.2 -9.95 M45.7 -7.65 L46.0 -9.3 Q43.4 -8.75 41.2 -6.75 L43.95 -6.6 43.95 -6.7 Q43.95 -7.2 44.25 -7.35 L45.75 -7.55 45.7 -7.65 M49.05 -8.8 L49.0 -8.8 49.05 -8.75 49.35 -8.65 49.55 -8.85 49.9 -9.2 49.55 -9.3 Q49.25 -9.3 49.1 -9.05 L49.05 -8.95 49.05 -8.8 M48.85 -7.5 L49.15 -7.0 49.8 -6.4 49.8 -6.35 50.35 -6.35 50.45 -6.4 Q51.55 -6.4 55.4 -2.35 L54.95 -0.5 57.0 -0.45 57.8 -1.55 58.7 -2.65 55.2 -6.4 Q52.15 -9.6 51.25 -9.6 50.55 -9.6 49.65 -8.6 L48.85 -7.5 M-27.35 -1.75 L-27.45 -1.7 -27.6 -1.75 -29.15 -1.8 -30.3 -1.9 -35.95 -1.85 -38.5 -2.0 -39.7 -2.2 -39.7 -2.25 -41.15 -2.35 -44.3 -2.25 -44.9 -2.3 -45.0 -2.3 -45.0 -2.35 -46.55 -2.5 -55.0 -2.75 -56.55 -2.8 -59.0 -2.8 -60.0 -2.9 -60.1 -2.8 -60.1 -2.95 -61.6 -1.55 -64.4 0.95 -63.95 1.35 -63.4 1.75 -63.15 1.7 -59.5 -1.6 -59.4 -1.6 -59.35 -1.5 -59.3 -1.75 -59.1 -1.75 -58.25 -1.85 -55.7 -1.65 -55.65 -1.65 -54.2 -1.5 -52.1 -1.4 -47.4 -1.45 -44.25 -1.05 -38.9 -1.1 -38.9 -1.05 -38.25 -0.95 -37.05 -0.95 -35.9 -0.7 -23.0 -0.5 -22.95 -0.4 -22.0 -0.45 Q-9.7 -0.45 -6.1 -0.15 L-6.15 -0.4 -6.0 -0.4 0.1 -0.1 1.6 0.0 6.15 0.05 6.2 0.1 7.0 0.1 12.55 0.25 15.65 0.35 21.4 0.65 21.4 0.5 35.65 0.9 39.1 1.1 39.55 1.15 39.55 0.95 40.05 0.95 40.55 1.1 40.9 1.2 41.4 1.2 46.7 1.0 48.05 0.9 49.4 0.85 50.5 0.85 58.3 1.1 59.3 1.2 60.8 1.4 60.85 1.6 60.7 1.65 62.1 3.7 Q63.15 5.3 63.3 5.3 64.05 5.2 64.3 4.7 L64.35 4.7 62.75 2.4 61.6 0.7 Q61.25 0.25 60.7 0.15 L60.05 0.05 59.75 0.05 59.8 0.0 59.45 -0.05 51.9 -0.35 48.15 -0.15 43.45 0.0 42.5 0.0 42.55 0.1 42.45 0.15 42.35 0.05 23.55 -0.6 23.55 -0.55 22.95 -0.5 13.2 -0.75 12.95 -0.8 7.45 -1.1 6.25 -1.05 7.35 -0.95 6.45 -1.0 3.75 -1.05 3.5 -0.95 2.9 -0.95 1.4 -1.05 -0.35 -1.35 -4.5 -1.55 -5.4 -1.5 -5.4 -1.35 -5.5 -1.35 -5.5 -1.25 -5.65 -1.35 -6.25 -1.35 -23.85 -1.6 -23.9 -1.65 -23.85 -1.7 -27.35 -1.75 M60.5 1.65 L59.3 1.55 57.8 1.35 50.4 1.05 46.75 1.25 42.15 1.4 41.2 1.4 41.25 1.5 41.15 1.55 41.05 1.45 22.65 0.8 22.65 0.85 22.05 0.9 12.55 0.65 12.3 0.6 6.9 0.3 5.75 0.35 6.8 0.45 5.95 0.4 3.3 0.35 3.05 0.45 2.45 0.45 1.0 0.35 -0.75 0.05 -4.8 -0.15 -5.65 -0.1 -5.65 0.05 -5.75 0.05 -5.75 0.15 -5.9 0.05 -6.5 0.05 -23.7 -0.2 -23.75 -0.25 -23.7 -0.3 -28.9 -0.4 -30.05 -0.5 -35.55 -0.45 -38.05 -0.6 -39.25 -0.8 -39.25 -0.85 -40.65 -0.95 -43.75 -0.85 -45.95 -1.1 -54.2 -1.35 -55.7 -1.4 -58.1 -1.4 -59.1 -1.5 -59.2 -1.4 -59.5 -1.2 -59.55 -1.25 -62.75 1.7 -61.95 1.65 Q-59.7 1.65 -58.15 3.5 -57.35 4.45 -56.9 5.6 -55.5 8.25 -55.0 9.65 -50.15 13.1 -49.55 13.1 L-48.45 12.95 -46.5 12.75 -43.9 12.95 -31.65 13.15 -22.45 13.25 -21.35 13.45 -19.05 13.75 -17.05 14.15 Q-16.7 13.85 -15.65 13.85 L-14.45 13.95 -11.45 13.8 1.15 14.55 9.05 15.55 15.05 16.45 17.7 16.9 26.55 17.25 26.55 17.1 30.45 17.2 Q34.15 17.2 41.55 13.65 L49.4 9.75 53.3 7.35 Q57.3 5.0 58.05 5.0 L63.0 5.35 62.0 3.9 60.5 1.65 M58.9 -2.4 L57.0 -0.45 58.3 -0.4 59.55 -1.7 58.9 -2.4 M50.2 -1.35 L49.45 -1.35 49.45 -1.2 49.15 -0.45 49.5 -0.5 50.9 -0.55 52.0 -0.55 54.65 -0.5 54.65 -0.65 54.9 -1.2 54.75 -1.2 53.9 -1.35 50.2 -1.35 M49.15 -1.85 L49.25 -1.85 49.45 -1.5 51.8 -1.6 55.0 -1.45 55.15 -2.25 53.1 -4.25 50.55 -6.1 50.25 -6.1 44.45 -6.15 45.75 -4.0 45.9 -4.0 45.9 -3.95 46.8 -3.75 48.25 -3.2 48.9 -2.2 49.1 -1.8 49.15 -1.8 49.15 -1.85 M47.4 -7.0 L46.15 -7.3 44.6 -7.15 44.25 -6.6 47.3 -6.45 47.4 -7.0 M45.8 -3.7 L45.65 -3.65 45.6 -3.75 41.05 -3.55 35.5 -3.35 34.3 -3.4 34.2 -2.8 Q33.95 -1.65 33.65 -1.65 L30.95 -1.8 31.0 -0.75 31.0 -0.65 36.85 -0.5 40.35 -0.3 40.8 -0.25 40.8 -0.45 41.3 -0.45 41.85 -0.3 42.2 -0.2 42.7 -0.2 48.1 -0.4 48.95 -0.45 48.95 -0.65 49.25 -1.15 49.15 -1.45 49.0 -1.55 48.3 -2.65 Q47.85 -3.15 46.95 -3.4 L45.8 -3.7 M45.45 -4.0 Q44.5 -5.4 44.25 -6.15 L41.5 -6.3 39.05 -6.55 29.3 -7.0 26.55 -6.9 25.1 -6.75 24.75 -6.75 28.75 -4.2 Q29.25 -4.95 30.0 -4.95 L34.4 -4.15 34.35 -3.7 34.95 -3.6 35.5 -3.55 45.25 -4.0 45.45 -4.0 M31.2 -4.3 L32.55 -4.25 32.55 -4.1 29.9 -4.0 29.85 -4.15 30.0 -4.3 31.2 -4.3 M30.15 -4.7 L29.35 -4.45 28.9 -4.1 29.0 -4.05 30.15 -3.3 30.9 -2.55 30.95 -2.05 31.5 -2.05 33.5 -1.9 33.85 -1.9 33.9 -3.05 34.1 -3.65 34.2 -4.1 30.1 -4.7 30.15 -4.7 M31.45 -2.85 L33.4 -2.95 33.45 -2.75 31.9 -2.65 31.5 -2.65 31.45 -2.85 M31.1 -3.4 L30.85 -3.4 30.8 -3.5 Q30.8 -3.75 31.4 -3.75 L33.15 -3.75 33.2 -3.55 32.25 -3.6 31.1 -3.4 M30.0 -3.15 L28.85 -3.85 24.45 -6.7 24.45 -6.8 20.1 -6.95 13.7 -6.7 7.7 -6.4 -2.05 -6.4 -19.15 -6.85 -20.85 -6.95 -24.15 -7.05 -28.25 -6.9 -30.1 -7.1 -32.25 -5.95 -34.5 -4.8 -34.65 -4.8 -34.6 -4.9 -35.05 -4.9 -35.85 -5.05 -35.9 -4.65 -36.65 -4.35 -38.15 -4.35 -38.25 -3.85 -37.85 -3.9 -33.35 -3.65 -28.8 -3.4 -28.75 -3.5 -28.6 -3.4 -28.0 -2.75 -27.5 -1.95 -23.1 -1.9 -23.05 -1.8 -22.1 -1.85 -18.4 -1.85 -18.5 -3.7 -18.05 -3.95 -17.15 -4.1 -16.25 -3.95 -15.1 -3.85 -13.8 -3.95 -10.45 -3.9 -9.5 -3.65 -9.5 -3.35 -9.6 -1.7 -5.85 -1.55 -5.9 -1.8 -5.75 -1.8 0.5 -1.5 2.05 -1.4 6.7 -1.35 6.75 -1.3 7.55 -1.3 13.2 -1.15 16.4 -1.05 22.25 -0.75 22.25 -0.9 30.75 -0.65 30.7 -2.3 Q30.75 -2.65 30.0 -3.15 M-10.1 -2.65 L-10.1 -2.5 -10.25 -2.5 -10.3 -2.6 -10.2 -2.65 -10.2 -2.7 -10.1 -2.65 M-10.2 -3.05 L-10.25 -3.2 -10.15 -3.3 -10.05 -3.25 -10.1 -3.05 -10.2 -3.05 M-17.5 -3.95 Q-18.15 -4.1 -18.25 -3.25 L-18.2 -2.0 -18.2 -1.85 -9.85 -1.7 -9.7 -3.1 -9.7 -3.65 -14.05 -3.6 -17.5 -3.85 -17.25 -3.85 -17.5 -3.95 M-15.2 -3.35 L-14.9 -3.35 -14.9 -3.1 -15.2 -3.35 M-13.6 -3.15 L-13.8 -3.2 -13.8 -3.35 -13.6 -3.35 -13.6 -3.15 M-11.15 -3.45 L-11.05 -3.4 -11.1 -3.2 -11.2 -3.2 -11.25 -3.35 -11.15 -3.45 M-12.35 -3.1 L-12.4 -3.35 -12.25 -3.35 -12.2 -3.1 -12.35 -3.1 M-16.4 -3.4 L-16.25 -3.4 -16.2 -3.35 -16.25 -3.2 -16.35 -3.2 -16.4 -3.4 M-17.7 -3.6 L-17.6 -3.6 -17.55 -3.35 -17.75 -3.3 -17.8 -3.45 -17.7 -3.6 M-17.9 -2.7 L-17.75 -2.65 -17.75 -2.5 -17.95 -2.5 -18.0 -2.6 -17.9 -2.65 -17.9 -2.7 M-29.45 -3.15 L-37.85 -3.7 -38.9 -3.6 -39.7 -3.7 -44.05 -3.85 -44.45 -3.15 -44.85 -2.45 -39.35 -2.5 -39.35 -2.45 -38.7 -2.35 -37.45 -2.35 -36.3 -2.1 -27.75 -1.95 -28.1 -2.4 -28.65 -3.2 -29.45 -3.15" fill="#000000" fill-rule="evenodd" stroke="none"/>
    <path d="M37.25 -7.85 L39.75 -7.65 39.85 -6.9 39.8 -6.9 39.8 -6.8 32.1 -7.0 35.9 -7.95 35.9 -8.0 37.25 -7.95 37.25 -7.85 M49.1 -1.8 L48.9 -2.2 48.25 -3.2 46.8 -3.75 45.9 -3.95 45.9 -4.0 45.75 -4.0 44.45 -6.15 50.25 -6.1 50.55 -6.1 53.1 -4.25 55.15 -2.25 55.0 -1.45 51.8 -1.6 49.45 -1.5 49.25 -1.85 49.15 -1.85 49.1 -1.8 M31.1 -3.4 L32.25 -3.6 33.2 -3.55 33.15 -3.75 31.4 -3.75 Q30.8 -3.75 30.8 -3.5 L30.85 -3.4 31.1 -3.4 M31.45 -2.85 L31.5 -2.65 31.9 -2.65 33.45 -2.75 33.4 -2.95 31.45 -2.85 M30.15 -4.7 L30.1 -4.7 34.2 -4.1 34.1 -3.65 33.9 -3.05 33.85 -1.9 33.5 -1.9 31.5 -2.05 30.95 -2.05 30.9 -2.55 30.15 -3.3 29.0 -4.05 28.9 -4.1 29.35 -4.45 30.15 -4.7 M31.2 -4.3 L30.0 -4.3 29.85 -4.15 29.9 -4.0 32.55 -4.1 32.55 -4.25 31.2 -4.3" fill="#ba9f7e" fill-rule="evenodd" stroke="none"/>
    <path d="M46.2 -9.95 L46.05 -9.5 45.8 -9.5 Q42.35 -8.6 41.0 -6.75 L40.3 -6.75 40.3 -6.8 40.25 -6.85 42.5 -8.65 Q43.9 -9.45 46.2 -9.95 M46.4 -9.95 L49.1 -9.35 49.0 -9.3 48.8 -9.05 47.05 -9.65 46.3 -9.5 46.4 -9.95 M49.05 -8.75 L49.05 -8.8 49.05 -8.95 49.1 -9.05 Q49.25 -9.3 49.55 -9.3 L49.9 -9.2 49.55 -8.85 49.35 -8.65 49.05 -8.75 M58.9 -2.4 L59.55 -1.7 58.3 -0.4 57.0 -0.45 58.9 -2.4 M47.4 -7.0 L47.3 -6.45 44.25 -6.6 44.6 -7.15 46.15 -7.3 47.4 -7.0" fill="#757371" fill-rule="evenodd" stroke="none"/>
    <path d="M48.85 -7.5 L49.65 -8.6 Q50.55 -9.6 51.25 -9.6 52.15 -9.6 55.2 -6.4 L58.7 -2.65 57.8 -1.55 57.0 -0.45 54.95 -0.5 55.4 -2.35 Q51.55 -6.4 50.45 -6.4 L50.35 -6.35 49.8 -6.35 49.8 -6.4 49.15 -7.0 48.85 -7.5" fill="#453a2e" fill-rule="evenodd" stroke="none"/>
    <path d="M-27.35 -1.75 L-23.85 -1.7 -23.9 -1.65 -23.85 -1.6 -6.25 -1.35 -5.65 -1.35 -5.5 -1.25 -5.5 -1.35 -5.4 -1.35 -5.4 -1.5 -4.5 -1.55 -0.35 -1.35 1.4 -1.05 2.9 -0.95 3.5 -0.95 3.75 -1.05 6.45 -1.0 7.35 -0.95 6.25 -1.05 7.45 -1.1 12.95 -0.8 13.2 -0.75 22.95 -0.5 23.55 -0.55 23.55 -0.6 42.35 0.05 42.45 0.15 42.55 0.1 42.5 0.0 43.45 0.0 48.15 -0.15 51.9 -0.35 59.45 -0.05 59.8 0.0 59.75 0.05 60.05 0.05 60.7 0.15 Q61.25 0.25 61.6 0.7 L62.75 2.4 64.35 4.7 64.3 4.7 Q64.05 5.2 63.3 5.3 63.15 5.3 62.1 3.7 L60.7 1.65 60.85 1.6 60.8 1.4 59.3 1.2 58.3 1.1 50.5 0.85 49.4 0.85 48.05 0.9 46.7 1.0 41.4 1.2 40.9 1.2 40.55 1.1 40.05 0.95 39.55 0.95 39.55 1.15 39.1 1.1 35.65 0.9 21.4 0.5 21.4 0.65 15.65 0.35 12.55 0.25 7.0 0.1 6.2 0.1 6.15 0.05 1.6 0.0 0.1 -0.1 -6.0 -0.4 -6.15 -0.4 -6.1 -0.15 Q-9.7 -0.45 -22.0 -0.45 L-22.95 -0.4 -23.0 -0.5 -35.9 -0.7 -37.05 -0.95 -38.25 -0.95 -38.9 -1.05 -38.9 -1.1 -44.25 -1.05 -47.4 -1.45 -52.1 -1.4 -54.2 -1.5 -55.65 -1.65 -55.7 -1.65 -58.25 -1.85 -59.1 -1.75 -59.3 -1.75 -59.35 -1.5 -59.4 -1.6 -59.5 -1.6 -63.15 1.7 -63.4 1.75 -63.95 1.35 -64.4 0.95 -61.6 -1.55 -60.1 -2.95 -60.1 -2.8 -60.0 -2.9 -59.0 -2.8 -56.55 -2.8 -55.0 -2.75 -46.55 -2.5 -45.0 -2.35 -45.0 -2.3 -44.9 -2.3 -44.3 -2.25 -41.15 -2.35 -39.7 -2.25 -39.7 -2.2 -38.5 -2.0 -35.95 -1.85 -30.3 -1.9 -29.15 -1.8 -27.6 -1.75 -27.45 -1.7 -27.35 -1.75" fill="#929265" fill-rule="evenodd" stroke="none"/>
    <path d="M60.5 1.65 L62.0 3.9 63.0 5.35 58.05 5.0 Q57.3 5.0 53.3 7.35 L49.4 9.75 41.55 13.65 Q34.15 17.2 30.45 17.2 L26.55 17.1 26.55 17.25 17.7 16.9 15.05 16.45 9.05 15.55 1.15 14.55 -11.45 13.8 -14.45 13.95 -15.65 13.85 Q-16.7 13.85 -17.05 14.15 L-19.05 13.75 -21.35 13.45 -22.45 13.25 -31.65 13.15 -43.9 12.95 -46.5 12.75 -48.45 12.95 -49.55 13.1 Q-50.15 13.1 -55.0 9.65 -55.5 8.25 -56.9 5.6 -57.35 4.45 -58.15 3.5 -59.7 1.65 -61.95 1.65 L-62.75 1.7 -59.55 -1.25 -59.5 -1.2 -59.2 -1.4 -59.1 -1.5 -58.1 -1.4 -55.7 -1.4 -54.2 -1.35 -45.95 -1.1 -43.75 -0.85 -40.65 -0.95 -39.25 -0.85 -39.25 -0.8 -38.05 -0.6 -35.55 -0.45 -30.05 -0.5 -28.9 -0.4 -23.7 -0.3 -23.75 -0.25 -23.7 -0.2 -6.5 0.05 -5.9 0.05 -5.75 0.15 -5.75 0.05 -5.65 0.05 -5.65 -0.1 -4.8 -0.15 -0.75 0.05 1.0 0.35 2.45 0.45 3.05 0.45 3.3 0.35 5.95 0.4 6.8 0.45 5.75 0.35 6.9 0.3 12.3 0.6 12.55 0.65 22.05 0.9 22.65 0.85 22.65 0.8 41.05 1.45 41.15 1.55 41.25 1.5 41.2 1.4 42.15 1.4 46.75 1.25 50.4 1.05 57.8 1.35 59.3 1.55 60.5 1.65" fill="#2e2d1f" fill-rule="evenodd" stroke="none"/>
    <path d="M50.2 -1.35 L53.9 -1.35 54.75 -1.2 54.9 -1.2 54.65 -0.65 54.65 -0.5 52.0 -0.55 50.9 -0.55 49.5 -0.5 49.15 -0.45 49.45 -1.2 49.45 -1.35 50.2 -1.35 M45.45 -4.0 L45.25 -4.0 35.5 -3.55 34.95 -3.6 34.35 -3.7 34.4 -4.15 30.0 -4.95 Q29.25 -4.95 28.75 -4.2 L24.75 -6.75 25.1 -6.75 26.55 -6.9 29.3 -7.0 39.05 -6.55 41.5 -6.3 44.25 -6.15 Q44.5 -5.4 45.45 -4.0" fill="#606042" fill-rule="evenodd" stroke="none"/>
    <path d="M45.8 -3.7 L46.95 -3.4 Q47.85 -3.15 48.3 -2.65 L49.0 -1.55 49.15 -1.45 49.25 -1.15 48.95 -0.65 48.95 -0.45 48.1 -0.4 42.7 -0.2 42.2 -0.2 41.85 -0.3 41.3 -0.45 40.8 -0.45 40.8 -0.25 40.35 -0.3 36.85 -0.5 31.0 -0.65 31.0 -0.75 30.95 -1.8 33.65 -1.65 Q33.95 -1.65 34.2 -2.8 L34.3 -3.4 35.5 -3.35 41.05 -3.55 45.6 -3.75 45.65 -3.65 45.8 -3.7" fill="#797953" fill-rule="evenodd" stroke="none"/>
    <path d="M30.0 -3.15 Q30.75 -2.65 30.7 -2.3 L30.75 -0.65 22.25 -0.9 22.25 -0.75 16.4 -1.05 13.2 -1.15 7.55 -1.3 6.75 -1.3 6.7 -1.35 2.05 -1.4 0.5 -1.5 -5.75 -1.8 -5.9 -1.8 -5.85 -1.55 -9.6 -1.7 -9.5 -3.35 -9.5 -3.65 -10.45 -3.9 -13.8 -3.95 -15.1 -3.85 -16.25 -3.95 -17.15 -4.1 -18.05 -3.95 -18.5 -3.7 -18.4 -1.85 -22.1 -1.85 -23.05 -1.8 -23.1 -1.9 -27.5 -1.95 -28.0 -2.75 -28.6 -3.4 -28.75 -3.5 -28.8 -3.4 -33.35 -3.65 -37.85 -3.9 -38.25 -3.85 -38.15 -4.35 -36.65 -4.35 -35.9 -4.65 -35.85 -5.05 -35.05 -4.9 -34.6 -4.9 -34.65 -4.8 -34.5 -4.8 -32.25 -5.95 -30.1 -7.1 -28.25 -6.9 -24.15 -7.05 -20.85 -6.95 -19.15 -6.85 -2.05 -6.4 7.7 -6.4 13.7 -6.7 20.1 -6.95 24.45 -6.8 24.45 -6.7 28.85 -3.85 30.0 -3.15" fill="#aaab83" fill-rule="evenodd" stroke="none"/>
    <path d="M-17.5 -3.85 L-14.05 -3.6 -9.7 -3.65 -9.7 -3.1 -9.85 -1.7 -18.2 -1.85 -18.2 -2.0 -18.25 -3.25 Q-18.15 -4.1 -17.5 -3.95 L-17.5 -3.85 M-10.2 -3.05 L-10.1 -3.05 -10.05 -3.25 -10.15 -3.3 -10.25 -3.2 -10.2 -3.05 M-10.1 -2.65 L-10.2 -2.7 -10.2 -2.65 -10.3 -2.6 -10.25 -2.5 -10.1 -2.5 -10.1 -2.65 M-29.45 -3.15 L-28.65 -3.2 -28.1 -2.4 -27.75 -1.95 -36.3 -2.1 -37.45 -2.35 -38.7 -2.35 -39.35 -2.45 -39.35 -2.5 -44.85 -2.45 -44.45 -3.15 -44.05 -3.85 -39.7 -3.7 -38.9 -3.6 -37.85 -3.7 -29.45 -3.15 M-17.9 -2.7 L-17.9 -2.65 -18.0 -2.6 -17.95 -2.5 -17.75 -2.5 -17.75 -2.65 -17.9 -2.7 M-17.7 -3.6 L-17.8 -3.45 -17.75 -3.3 -17.55 -3.35 -17.6 -3.6 -17.7 -3.6 M-16.4 -3.4 L-16.35 -3.2 -16.25 -3.2 -16.2 -3.35 -16.25 -3.4 -16.4 -3.4 M-12.35 -3.1 L-12.2 -3.1 -12.25 -3.35 -12.4 -3.35 -12.35 -3.1 M-11.15 -3.45 L-11.25 -3.35 -11.2 -3.2 -11.1 -3.2 -11.05 -3.4 -11.15 -3.45 M-13.6 -3.15 L-13.6 -3.35 -13.8 -3.35 -13.8 -3.2 -13.6 -3.15 M-15.2 -3.35 L-14.9 -3.1 -14.9 -3.35 -15.2 -3.35" fill="#83825a" fill-rule="evenodd" stroke="none"/>
  </g>
</svg>
