<?xml version="1.0" encoding="UTF-8" standalone="no"?>
<svg xmlns:xlink="http://www.w3.org/1999/xlink" height="22.3px" width="113.75px" xmlns="http://www.w3.org/2000/svg">
  <g transform="matrix(1.0, 0.0, 0.0, 1.0, 56.85, 11.15)">
    <path d="M-28.1 10.95 L-38.85 10.3 -39.55 10.3 -39.85 10.25 -39.85 10.2 -39.95 10.2 -39.95 10.25 -40.25 10.25 -41.55 9.55 -42.9 8.85 -43.4 8.5 -44.65 7.8 -46.9 6.5 -50.25 4.4 -52.85 2.4 -54.15 1.15 -54.2 1.15 -54.25 1.05 -54.7 0.35 -55.85 -1.5 -56.45 -2.7 -56.7 -3.4 -56.85 -4.35 -56.6 -6.9 -56.5 -7.55 Q-56.15 -9.1 -55.25 -9.95 -54.2 -10.9 -52.15 -11.1 L-51.7 -11.15 -51.35 -11.15 -51.0 -11.15 -50.95 -11.1 -45.5 -10.75 -44.7 -10.8 -39.4 -10.9 -30.6 -10.55 -29.25 -10.45 -22.2 -9.95 -21.95 -9.95 -21.9 -10.1 -19.5 -10.1 -8.5 -9.9 1.35 -9.5 2.7 -9.45 4.35 -9.55 4.2 -9.75 4.35 -9.8 5.2 -9.5 5.85 -9.45 7.3 -9.45 7.35 -9.3 8.35 -9.25 14.6 -9.0 15.35 -8.95 21.25 -9.0 21.25 -8.95 21.7 -9.0 25.0 -9.2 29.15 -9.05 31.0 -9.2 32.55 -9.05 47.85 -8.95 47.9 -8.95 47.85 -9.05 Q47.85 -9.3 48.75 -9.3 L51.8 -8.7 54.85 -7.85 Q55.85 -7.45 56.4 -6.65 56.9 -5.95 56.9 -5.25 L56.9 -5.15 Q56.85 -4.2 55.7 -2.1 L54.65 -0.35 54.7 -0.4 54.75 -0.35 54.5 -0.15 54.55 -0.05 52.95 0.8 50.15 2.1 Q46.45 3.5 44.9 4.35 42.6 5.55 40.5 7.35 L37.15 10.45 37.05 10.45 37.0 10.35 37.05 10.2 36.65 10.3 36.0 10.45 33.7 10.6 32.7 10.75 30.5 10.65 30.4 10.65 30.3 10.65 28.6 10.75 27.65 10.85 24.3 11.05 22.65 10.95 21.75 11.1 21.65 11.1 21.6 10.95 17.35 11.0 16.0 11.0 15.9 10.9 -10.15 10.95 -10.15 11.05 -10.4 11.05 -10.65 10.95 -10.75 10.95 -12.8 10.95 -19.25 10.9 -19.25 11.0 -20.85 11.05 -23.15 10.95 -23.75 11.0 -27.65 10.95 -27.65 10.9 -27.8 10.7 -23.75 10.8 -22.65 10.7 -19.6 10.75 -19.4 10.6 -12.8 10.7 -10.7 10.7 15.5 10.7 16.25 10.7 17.45 10.75 27.15 10.7 27.75 10.55 30.65 10.4 32.7 10.5 33.3 10.5 34.75 10.3 36.8 10.05 36.85 10.1 37.1 10.05 37.15 10.1 37.15 10.05 37.1 9.9 39.0 8.15 40.1 7.15 41.15 6.35 41.95 5.9 Q43.05 5.0 43.7 4.65 45.45 3.55 48.85 2.15 L50.2 1.65 50.65 1.65 50.95 1.45 50.95 1.4 50.85 1.35 52.4 0.75 54.1 -0.1 Q56.7 -3.55 56.7 -5.15 L56.7 -5.2 Q56.7 -5.95 56.15 -6.65 55.55 -7.4 54.55 -7.75 L51.5 -8.55 49.1 -9.05 49.05 -9.05 49.1 -8.95 48.1 -8.65 47.85 -8.95 47.5 -8.65 45.05 -8.65 44.05 -8.65 43.85 -8.85 43.65 -8.7 39.15 -8.8 37.0 -8.75 36.65 -8.75 34.75 -8.7 34.5 -8.75 34.35 -8.75 34.35 -8.7 33.15 -8.75 33.15 -8.7 33.0 -8.65 32.7 -8.65 32.4 -8.7 32.25 -8.7 31.8 -8.8 31.6 -8.8 31.6 -8.65 31.15 -8.65 31.15 -8.7 31.1 -8.8 30.5 -8.65 28.7 -8.8 25.05 -9.0 21.75 -8.8 21.25 -8.75 19.85 -8.6 18.55 -8.6 18.35 -8.6 18.85 -8.55 Q20.65 -8.05 21.05 -5.9 L21.1 -5.25 Q21.15 -4.4 20.5 -3.45 19.6 -2.3 17.8 -2.15 15.85 -2.0 14.75 -3.6 14.1 -4.55 14.05 -5.35 L14.05 -6.0 14.4 -7.15 Q14.8 -7.95 15.6 -8.35 L16.65 -8.65 16.0 -8.65 14.15 -8.7 12.95 -8.7 12.95 -8.85 8.2 -9.05 5.85 -9.15 3.85 -9.1 4.55 -9.0 Q6.55 -8.5 7.05 -6.2 L7.15 -5.2 Q7.25 -4.2 6.45 -3.1 5.4 -1.7 3.25 -1.55 1.0 -1.4 -0.3 -3.2 -1.05 -4.35 -1.15 -5.3 L-1.05 -6.35 -0.65 -7.4 Q-0.2 -8.3 0.75 -8.7 L2.2 -9.1 -0.95 -9.15 -2.4 -9.15 -2.4 -9.3 -3.8 -9.25 -7.05 -9.5 -7.4 -9.55 -10.9 -9.45 -10.2 -9.35 Q-8.2 -8.85 -7.7 -6.5 L-7.6 -5.55 Q-7.5 -4.55 -8.3 -3.45 -9.35 -2.05 -11.5 -1.9 -13.75 -1.75 -15.05 -3.55 -15.8 -4.7 -15.9 -5.65 L-15.8 -6.65 -15.4 -7.75 Q-14.95 -8.65 -14.0 -9.05 L-12.55 -9.45 -15.7 -9.5 -17.15 -9.5 -17.2 -9.75 -16.3 -9.8 -17.15 -9.85 -20.15 -9.9 -22.2 -9.7 -25.7 -9.8 -25.0 -9.65 Q-23.1 -9.0 -22.75 -6.8 L-22.65 -5.65 Q-22.65 -4.65 -23.5 -3.6 -24.65 -2.3 -26.8 -2.3 -29.05 -2.3 -30.2 -4.2 -30.9 -5.4 -30.9 -6.35 L-30.85 -7.0 -30.3 -8.4 Q-29.75 -9.25 -28.8 -9.65 L-27.3 -9.95 -30.45 -10.2 -31.9 -10.3 -39.45 -10.7 -44.75 -10.6 -45.65 -10.5 -47.6 -10.7 -47.65 -10.7 -48.4 -10.75 -51.75 -10.95 Q-53.75 -10.95 -54.95 -9.8 L-55.55 -9.05 -56.2 -7.55 -56.5 -5.6 -56.45 -3.4 -56.4 -3.1 -55.75 -1.75 -54.0 0.8 -52.85 1.95 -50.05 4.3 Q-46.2 6.5 -44.65 7.45 L-44.55 7.4 -44.2 7.7 -44.15 7.65 -43.75 8.0 -42.85 8.5 -42.35 8.85 -41.95 9.1 -41.5 9.3 -40.05 9.8 -39.55 9.85 -39.45 9.85 -39.15 9.9 -38.5 10.1 -38.2 10.1 -38.15 10.2 -37.75 10.3 -36.4 10.35 -35.4 10.45 -28.35 10.65 -28.1 10.95 M-56.6 -3.95 L-56.6 -4.25 -56.65 -4.8 -56.65 -4.35 -56.6 -3.95 M-30.5 -7.0 L-30.55 -6.35 Q-30.55 -4.5 -29.4 -3.5 -28.4 -2.6 -26.8 -2.6 -24.75 -2.6 -23.7 -3.8 -22.9 -4.7 -22.9 -5.65 L-23.05 -6.8 Q-23.3 -7.65 -23.85 -8.3 -25.2 -9.95 -27.7 -9.45 L-28.15 -9.55 Q-28.7 -9.55 -29.35 -9.0 L-30.2 -8.05 -30.5 -7.0 M-23.65 -6.85 L-23.55 -5.75 Q-23.55 -4.95 -24.2 -4.15 -25.1 -3.1 -26.8 -3.1 -28.55 -3.1 -29.45 -4.6 -30.0 -5.55 -30.0 -6.3 L-29.9 -6.95 -29.55 -7.9 Q-28.8 -9.1 -26.95 -9.1 -24.15 -9.1 -23.65 -6.85 M-23.95 -6.85 L-24.5 -7.8 Q-25.55 -9.1 -27.5 -8.7 L-27.85 -8.8 -28.8 -8.35 -29.45 -7.6 -29.7 -6.95 -29.75 -6.3 Q-29.75 -4.85 -28.85 -4.05 -28.05 -3.35 -26.8 -3.35 -25.2 -3.35 -24.35 -4.3 -23.75 -5.0 -23.75 -5.75 L-23.95 -6.85 M-27.9 -6.9 Q-27.55 -7.3 -26.75 -7.3 -26.05 -7.3 -25.7 -6.9 -25.45 -6.55 -25.45 -5.85 L-25.7 -5.2 Q-26.05 -4.8 -26.65 -4.8 -27.45 -4.8 -27.9 -5.4 L-28.2 -6.05 -27.9 -6.9 M-27.25 -7.05 L-27.6 -6.9 -27.8 -6.65 -28.0 -6.05 -27.65 -5.45 Q-27.25 -5.05 -26.65 -5.05 -25.65 -5.05 -25.65 -5.85 L-25.85 -6.65 -26.2 -6.9 -27.25 -7.05 M-14.9 -6.65 L-14.65 -7.3 Q-13.95 -8.55 -12.1 -8.7 -9.2 -8.9 -8.6 -6.5 L-8.5 -5.6 Q-8.45 -4.8 -9.05 -3.95 -9.85 -2.8 -11.55 -2.7 -13.3 -2.6 -14.3 -4.0 -14.9 -4.9 -15.0 -5.65 L-14.9 -6.65 M-8.0 -6.5 Q-8.3 -7.4 -8.95 -8.1 -10.45 -9.6 -12.9 -9.0 L-13.35 -9.0 Q-13.9 -8.95 -14.5 -8.4 L-15.3 -7.4 -15.5 -6.65 -15.55 -5.7 Q-15.4 -3.85 -14.2 -2.9 -13.1 -2.1 -11.5 -2.2 -9.45 -2.35 -8.5 -3.6 -7.75 -4.55 -7.85 -5.5 L-8.0 -6.5 M-8.9 -6.5 L-9.6 -7.55 Q-10.7 -8.8 -12.65 -8.25 L-13.0 -8.35 -13.9 -7.8 -14.5 -7.0 -14.65 -6.65 -14.75 -5.7 Q-14.6 -4.25 -13.65 -3.5 -12.8 -2.85 -11.55 -2.95 -9.95 -3.05 -9.2 -4.05 -8.65 -4.8 -8.7 -5.55 L-8.9 -6.5 M-12.75 -6.6 L-11.8 -6.9 Q-11.1 -6.95 -10.75 -6.55 -10.45 -6.2 -10.4 -5.55 -10.35 -5.25 -10.6 -4.9 -10.9 -4.45 -11.5 -4.4 -12.3 -4.35 -12.8 -4.9 L-13.15 -5.55 Q-13.2 -6.25 -12.75 -6.6 M-12.3 -6.6 L-12.8 -6.2 -12.95 -5.55 Q-12.95 -5.3 -12.55 -5.0 -12.15 -4.6 -11.55 -4.65 -10.55 -4.75 -10.6 -5.55 -10.65 -6.1 -10.85 -6.3 L-11.45 -6.55 -12.3 -6.6 M6.7 -6.2 Q6.45 -7.05 5.8 -7.75 4.3 -9.25 1.85 -8.65 L1.4 -8.65 Q0.85 -8.6 0.25 -8.05 L-0.55 -7.05 -0.75 -6.35 -0.8 -5.35 Q-0.65 -3.5 0.55 -2.55 1.65 -1.75 3.25 -1.85 5.3 -2.0 6.25 -3.25 7.0 -4.2 6.9 -5.15 L6.7 -6.2 M-0.15 -6.3 L0.1 -6.95 Q0.8 -8.2 2.65 -8.35 5.5 -8.55 6.1 -6.2 L6.25 -5.25 Q6.3 -4.45 5.7 -3.6 4.9 -2.45 3.2 -2.35 1.45 -2.25 0.45 -3.65 L-0.25 -5.3 -0.15 -6.3 M36.6 -5.6 L36.75 -4.55 Q36.8 -3.7 36.15 -2.75 35.25 -1.6 33.45 -1.45 31.5 -1.3 30.4 -2.9 29.75 -3.85 29.7 -4.65 L29.8 -5.7 30.05 -6.45 Q30.45 -7.25 31.25 -7.65 L32.55 -8.0 30.9 -7.95 31.1 -8.0 31.35 -8.0 32.35 -8.1 32.65 -8.1 32.7 -8.15 34.65 -7.8 Q36.15 -7.35 36.6 -5.6 M5.85 -6.2 L5.15 -7.2 Q4.05 -8.45 2.1 -7.9 L1.75 -8.0 0.85 -7.45 Q0.35 -7.05 0.25 -6.65 L0.1 -6.3 0.0 -5.35 Q0.15 -3.9 1.1 -3.15 1.95 -2.5 3.2 -2.6 4.8 -2.7 5.55 -3.7 6.1 -4.45 6.05 -5.2 L5.85 -6.2 M2.1 -6.3 L2.95 -6.55 Q3.6 -6.6 3.95 -6.25 L4.35 -5.2 4.15 -4.55 Q3.85 -4.1 3.25 -4.05 2.45 -4.0 1.95 -4.55 L1.6 -5.2 Q1.55 -5.95 2.1 -6.3 M4.15 -5.2 L3.9 -5.95 Q3.5 -6.35 2.45 -6.25 L1.95 -5.85 1.8 -5.2 Q1.8 -4.95 2.2 -4.65 2.6 -4.25 3.2 -4.3 4.2 -4.4 4.15 -5.2 M20.8 -5.9 Q20.6 -6.8 19.95 -7.5 18.7 -8.8 16.55 -8.2 L16.2 -8.3 Q15.7 -8.25 15.2 -7.7 14.65 -7.3 14.55 -6.85 L14.35 -6.0 14.35 -5.4 Q14.45 -3.85 15.45 -3.05 16.35 -2.3 17.75 -2.4 19.5 -2.55 20.3 -3.65 20.95 -4.45 20.9 -5.25 L20.8 -5.9 M14.85 -6.0 L15.1 -6.8 Q15.65 -7.85 17.25 -7.95 19.8 -8.15 20.3 -5.9 L20.35 -5.3 Q20.4 -4.6 19.9 -3.9 19.2 -2.95 17.75 -2.85 16.25 -2.75 15.35 -3.95 14.85 -4.75 14.8 -5.35 L14.85 -6.0 M20.1 -5.9 L19.4 -7.0 Q18.45 -8.05 16.8 -7.55 L16.5 -7.65 Q16.1 -7.6 15.65 -7.2 L15.15 -6.55 15.0 -6.0 15.0 -5.4 Q15.1 -4.2 15.95 -3.55 16.6 -3.0 17.7 -3.05 19.05 -3.15 19.7 -4.0 20.25 -4.65 20.2 -5.3 L20.1 -5.9 M16.55 -6.0 Q16.85 -6.35 17.5 -6.4 18.25 -6.45 18.55 -5.95 L18.7 -5.3 18.5 -4.7 Q18.25 -4.35 17.75 -4.3 17.05 -4.25 16.65 -4.75 L16.35 -5.25 16.55 -6.0 M18.35 -5.9 L18.3 -5.95 17.1 -6.2 16.75 -6.0 16.65 -5.8 16.5 -5.3 16.85 -4.8 Q17.2 -4.5 17.7 -4.5 18.55 -4.6 18.5 -5.3 L18.35 -5.9 M28.6 -8.0 L28.6 -8.2 29.15 -8.25 28.65 -8.0 28.6 -8.0 M36.35 -5.6 L35.6 -6.8 Q34.35 -8.1 32.2 -7.5 L31.85 -7.6 Q31.35 -7.55 30.85 -7.0 L30.2 -6.15 30.05 -5.7 Q29.95 -5.3 30.0 -4.7 30.1 -3.15 31.1 -2.35 32.0 -1.6 33.4 -1.7 35.15 -1.85 35.95 -2.95 36.6 -3.75 36.55 -4.55 L36.35 -5.6 M30.6 -5.7 L30.75 -6.1 Q31.3 -7.15 32.9 -7.25 35.25 -7.4 35.85 -5.6 L36.0 -4.6 Q36.05 -3.9 35.55 -3.2 34.85 -2.25 33.4 -2.15 31.9 -2.05 31.0 -3.25 30.5 -4.05 30.45 -4.65 L30.6 -5.7 M35.55 -5.6 L35.05 -6.3 Q34.1 -7.35 32.45 -6.85 L32.15 -6.95 31.3 -6.5 30.8 -5.85 30.75 -5.7 30.65 -4.7 Q30.75 -3.5 31.6 -2.85 32.25 -2.3 33.35 -2.35 34.7 -2.45 35.35 -3.3 35.9 -3.95 35.85 -4.6 L35.55 -5.6 M32.95 -5.65 L33.15 -5.7 33.75 -5.65 Q34.3 -5.45 34.35 -4.6 L34.15 -4.0 33.4 -3.6 Q32.7 -3.55 32.3 -4.05 L32.0 -4.55 Q31.95 -5.5 32.95 -5.65 M34.0 -5.2 Q33.65 -5.55 32.75 -5.5 L32.3 -5.1 32.15 -4.6 32.5 -4.1 Q32.85 -3.8 33.35 -3.8 34.2 -3.9 34.15 -4.6 L34.0 -5.2 M6.4 10.6 L7.2 10.65 6.1 10.6 6.4 10.6" fill="#000000" fill-rule="evenodd" stroke="none"/>
    <path d="M-47.65 -10.7 L-47.6 -10.7 -47.65 -10.65 -47.65 -10.7 M-17.15 -9.85 L-16.3 -9.8 -17.2 -9.75 -17.15 -9.85 M49.1 -8.95 L49.05 -9.05 49.1 -9.05 49.1 -8.95" fill="#1c211b" fill-rule="evenodd" stroke="none"/>
    <path d="M-29.7 -6.95 L-27.9 -6.9 -28.2 -6.05 -27.9 -5.4 Q-27.45 -4.8 -26.65 -4.8 -26.05 -4.8 -25.7 -5.2 L-25.45 -5.85 Q-25.45 -6.55 -25.7 -6.9 L-23.95 -6.85 -23.75 -5.75 Q-23.75 -5.0 -24.35 -4.3 -25.2 -3.35 -26.8 -3.35 -28.05 -3.35 -28.85 -4.05 -29.75 -4.85 -29.75 -6.3 L-29.7 -6.95 M-14.65 -6.65 L-12.75 -6.6 Q-13.2 -6.25 -13.15 -5.55 L-12.8 -4.9 Q-12.3 -4.35 -11.5 -4.4 -10.9 -4.45 -10.6 -4.9 -10.35 -5.25 -10.4 -5.55 -10.45 -6.2 -10.75 -6.55 L-8.9 -6.5 -8.7 -5.55 Q-8.65 -4.8 -9.2 -4.05 -9.95 -3.05 -11.55 -2.95 -12.8 -2.85 -13.65 -3.5 -14.6 -4.25 -14.75 -5.7 L-14.65 -6.65 M0.1 -6.3 L2.1 -6.3 Q1.55 -5.95 1.6 -5.2 L1.95 -4.55 Q2.45 -4.0 3.25 -4.05 3.85 -4.1 4.15 -4.55 L4.35 -5.2 3.95 -6.25 5.85 -6.2 6.05 -5.2 Q6.1 -4.45 5.55 -3.7 4.8 -2.7 3.2 -2.6 1.95 -2.5 1.1 -3.15 0.15 -3.9 0.0 -5.35 L0.1 -6.3 M15.0 -6.0 L16.55 -6.0 16.35 -5.25 16.65 -4.75 Q17.05 -4.25 17.75 -4.3 18.25 -4.35 18.5 -4.7 L18.7 -5.3 18.55 -5.95 20.1 -5.9 20.2 -5.3 Q20.25 -4.65 19.7 -4.0 19.05 -3.15 17.7 -3.05 16.6 -3.0 15.95 -3.55 15.1 -4.2 15.0 -5.4 L15.0 -6.0 M30.75 -5.7 L32.95 -5.65 Q31.95 -5.5 32.0 -4.55 L32.3 -4.05 Q32.7 -3.55 33.4 -3.6 L34.15 -4.0 34.35 -4.6 Q34.3 -5.45 33.75 -5.65 L35.55 -5.6 35.85 -4.6 Q35.9 -3.95 35.35 -3.3 34.7 -2.45 33.35 -2.35 32.25 -2.3 31.6 -2.85 30.75 -3.5 30.65 -4.7 L30.75 -5.7" fill="#5a4f3f" fill-rule="evenodd" stroke="none"/>
    <path d="M-23.05 -6.8 L-22.9 -5.65 Q-22.9 -4.7 -23.7 -3.8 -24.75 -2.6 -26.8 -2.6 -28.4 -2.6 -29.4 -3.5 -30.55 -4.5 -30.55 -6.35 L-30.5 -7.0 -29.9 -6.95 -30.0 -6.3 Q-30.0 -5.55 -29.45 -4.6 -28.55 -3.1 -26.8 -3.1 -25.1 -3.1 -24.2 -4.15 -23.55 -4.95 -23.55 -5.75 L-23.65 -6.85 -23.05 -6.8 M-8.6 -6.5 L-8.0 -6.5 -7.85 -5.5 Q-7.75 -4.55 -8.5 -3.6 -9.45 -2.35 -11.5 -2.2 -13.1 -2.1 -14.2 -2.9 -15.4 -3.85 -15.55 -5.7 L-15.5 -6.65 -14.9 -6.65 -15.0 -5.65 Q-14.9 -4.9 -14.3 -4.0 -13.3 -2.6 -11.55 -2.7 -9.85 -2.8 -9.05 -3.95 -8.45 -4.8 -8.5 -5.6 L-8.6 -6.5 M-0.75 -6.35 L-0.15 -6.3 -0.25 -5.3 0.45 -3.65 Q1.45 -2.25 3.2 -2.35 4.9 -2.45 5.7 -3.6 6.3 -4.45 6.25 -5.25 L6.1 -6.2 6.7 -6.2 6.9 -5.15 Q7.0 -4.2 6.25 -3.25 5.3 -2.0 3.25 -1.85 1.65 -1.75 0.55 -2.55 -0.65 -3.5 -0.8 -5.35 L-0.75 -6.35 M14.35 -6.0 L14.85 -6.0 14.8 -5.35 Q14.85 -4.75 15.35 -3.95 16.25 -2.75 17.75 -2.85 19.2 -2.95 19.9 -3.9 20.4 -4.6 20.35 -5.3 L20.3 -5.9 20.8 -5.9 20.9 -5.25 Q20.95 -4.45 20.3 -3.65 19.5 -2.55 17.75 -2.4 16.35 -2.3 15.45 -3.05 14.45 -3.85 14.35 -5.4 L14.35 -6.0 M30.05 -5.7 L30.6 -5.7 30.45 -4.65 Q30.5 -4.05 31.0 -3.25 31.9 -2.05 33.4 -2.15 34.85 -2.25 35.55 -3.2 36.05 -3.9 36.0 -4.6 L35.85 -5.6 36.35 -5.6 36.55 -4.55 Q36.6 -3.75 35.95 -2.95 35.15 -1.85 33.4 -1.7 32.0 -1.6 31.1 -2.35 30.1 -3.15 30.0 -4.7 29.95 -5.3 30.05 -5.7" fill="#978668" fill-rule="evenodd" stroke="none"/>
    <path d="M-27.25 -7.05 L-26.2 -6.9 -25.85 -6.65 -25.65 -5.85 Q-25.65 -5.05 -26.65 -5.05 -27.25 -5.05 -27.65 -5.45 L-28.0 -6.05 -27.8 -6.65 -27.6 -6.9 -27.25 -7.05 M-12.3 -6.6 L-11.45 -6.55 -10.85 -6.3 Q-10.65 -6.1 -10.6 -5.55 -10.55 -4.75 -11.55 -4.65 -12.15 -4.6 -12.55 -5.0 -12.95 -5.3 -12.95 -5.55 L-12.8 -6.2 -12.3 -6.6 M4.15 -5.2 Q4.2 -4.4 3.2 -4.3 2.6 -4.25 2.2 -4.65 1.8 -4.95 1.8 -5.2 L1.95 -5.85 2.45 -6.25 Q3.5 -6.35 3.9 -5.95 L4.15 -5.2 M18.35 -5.9 L18.5 -5.3 Q18.55 -4.6 17.7 -4.5 17.2 -4.5 16.85 -4.8 L16.5 -5.3 16.65 -5.8 16.75 -6.0 17.1 -6.2 18.3 -5.95 18.35 -5.9 M34.0 -5.2 L34.15 -4.6 Q34.2 -3.9 33.35 -3.8 32.85 -3.8 32.5 -4.1 L32.15 -4.6 32.3 -5.1 32.75 -5.5 Q33.65 -5.55 34.0 -5.2" fill="#373026" fill-rule="evenodd" stroke="none"/>
    <path d="M50.85 1.35 L50.95 1.4 50.95 1.45 50.85 1.35 M37.1 9.9 L37.15 10.05 37.15 10.1 37.1 10.05 37.1 9.9" fill="#465544" fill-rule="evenodd" stroke="none"/>
    <path d="M-56.2 -7.55 L-55.55 -9.05 -54.95 -9.8 Q-53.75 -10.95 -51.75 -10.95 L-48.4 -10.75 -47.65 -10.7 -47.65 -10.65 -47.6 -10.7 -45.65 -10.5 -44.75 -10.6 -39.45 -10.7 -31.9 -10.3 -30.45 -10.2 -27.3 -9.95 -28.8 -9.65 Q-29.75 -9.25 -30.3 -8.4 L-30.85 -7.0 -43.45 -7.25 -46.4 -9.7 -46.5 -9.9 -46.65 -9.9 -46.8 -10.0 -47.65 -10.65 -46.95 -9.85 -48.55 -9.1 Q-49.9 -8.3 -50.55 -8.3 L-50.9 -8.6 -51.2 -8.35 -51.3 -8.2 -51.4 -8.25 -51.3 -8.15 -51.4 -7.95 -51.3 -7.7 -50.9 -7.7 -50.6 -7.4 -56.2 -7.55 M-22.75 -6.8 Q-23.1 -9.0 -25.0 -9.65 L-25.7 -9.8 -22.2 -9.7 -20.15 -9.9 -17.15 -9.85 -17.2 -9.75 -17.15 -9.5 -15.7 -9.5 -12.55 -9.45 -14.0 -9.05 Q-14.95 -8.65 -15.4 -7.75 L-15.8 -6.65 -22.75 -6.8 M-7.7 -6.5 Q-8.2 -8.85 -10.2 -9.35 L-10.9 -9.45 -7.4 -9.55 -7.05 -9.5 -3.8 -9.25 -2.4 -9.3 -2.4 -9.15 -0.95 -9.15 2.2 -9.1 0.75 -8.7 Q-0.2 -8.3 -0.65 -7.4 L-1.05 -6.35 -7.7 -6.5 M7.05 -6.2 Q6.55 -8.5 4.55 -9.0 L3.85 -9.1 5.85 -9.15 8.2 -9.05 12.95 -8.85 12.95 -8.7 14.15 -8.7 16.0 -8.65 16.65 -8.65 15.6 -8.35 Q14.8 -7.95 14.4 -7.15 L14.05 -6.0 7.05 -6.2 M21.05 -5.9 Q20.65 -8.05 18.85 -8.55 L18.35 -8.6 18.55 -8.6 19.85 -8.6 21.25 -8.75 21.75 -8.8 25.05 -9.0 28.7 -8.8 30.5 -8.65 31.1 -8.8 31.15 -8.7 31.15 -8.65 31.6 -8.65 31.6 -8.8 31.8 -8.8 32.25 -8.7 32.4 -8.7 32.7 -8.65 33.0 -8.65 33.15 -8.7 33.15 -8.75 34.35 -8.7 34.35 -8.75 34.5 -8.75 34.75 -8.7 36.65 -8.75 37.0 -8.75 39.15 -8.8 43.65 -8.7 43.2 -8.15 Q42.7 -7.5 42.7 -7.2 L42.7 -7.15 41.85 -5.95 41.6 -5.5 36.6 -5.6 Q36.15 -7.35 34.65 -7.8 L32.7 -8.15 32.65 -8.1 32.35 -8.1 31.35 -8.0 31.1 -8.0 30.9 -7.95 32.55 -8.0 31.25 -7.65 Q30.45 -7.25 30.05 -6.45 L29.8 -5.7 21.05 -5.9 M48.1 -8.65 L49.1 -8.95 49.1 -9.05 51.5 -8.55 54.55 -7.75 Q55.55 -7.4 56.15 -6.65 56.7 -5.95 56.7 -5.2 L56.7 -5.15 46.15 -5.4 47.2 -7.2 47.5 -7.65 48.1 -8.65 M28.6 -8.0 L28.65 -8.0 29.15 -8.25 28.6 -8.2 28.6 -8.0" fill="#10130f" fill-rule="evenodd" stroke="none"/>
    <path d="M-46.95 -9.85 L-47.65 -10.65 -46.8 -10.0 -46.95 -9.85" fill="#3d4639" fill-rule="evenodd" stroke="none"/>
    <path d="M-23.05 -6.8 L-23.65 -6.85 Q-24.15 -9.1 -26.95 -9.1 -28.8 -9.1 -29.55 -7.9 L-29.9 -6.95 -30.5 -7.0 -30.2 -8.05 -29.35 -9.0 Q-28.7 -9.55 -28.15 -9.55 L-27.7 -9.45 Q-25.2 -9.95 -23.85 -8.3 -23.3 -7.65 -23.05 -6.8 M-8.6 -6.5 Q-9.2 -8.9 -12.1 -8.7 -13.95 -8.55 -14.65 -7.3 L-14.9 -6.65 -15.5 -6.65 -15.3 -7.4 -14.5 -8.4 Q-13.9 -8.95 -13.35 -9.0 L-12.9 -9.0 Q-10.45 -9.6 -8.95 -8.1 -8.3 -7.4 -8.0 -6.5 L-8.6 -6.5 M-0.75 -6.35 L-0.55 -7.05 0.25 -8.05 Q0.85 -8.6 1.4 -8.65 L1.85 -8.65 Q4.3 -9.25 5.8 -7.75 6.45 -7.05 6.7 -6.2 L6.1 -6.2 Q5.5 -8.55 2.65 -8.35 0.8 -8.2 0.1 -6.95 L-0.15 -6.3 -0.75 -6.35 M14.35 -6.0 L14.55 -6.85 Q14.65 -7.3 15.2 -7.7 15.7 -8.25 16.2 -8.3 L16.55 -8.2 Q18.7 -8.8 19.95 -7.5 20.6 -6.8 20.8 -5.9 L20.3 -5.9 Q19.8 -8.15 17.25 -7.95 15.65 -7.85 15.1 -6.8 L14.85 -6.0 14.35 -6.0 M30.05 -5.7 L30.2 -6.15 30.85 -7.0 Q31.35 -7.55 31.85 -7.6 L32.2 -7.5 Q34.35 -8.1 35.6 -6.8 L36.35 -5.6 35.85 -5.6 Q35.25 -7.4 32.9 -7.25 31.3 -7.15 30.75 -6.1 L30.6 -5.7 30.05 -5.7" fill="#796953" fill-rule="evenodd" stroke="none"/>
    <path d="M-29.7 -6.95 L-29.45 -7.6 -28.8 -8.35 -27.85 -8.8 -27.5 -8.7 Q-25.55 -9.1 -24.5 -7.8 L-23.95 -6.85 -25.7 -6.9 Q-26.05 -7.3 -26.75 -7.3 -27.55 -7.3 -27.9 -6.9 L-29.7 -6.95 M-14.65 -6.65 L-14.5 -7.0 -13.9 -7.8 -13.0 -8.35 -12.65 -8.25 Q-10.7 -8.8 -9.6 -7.55 L-8.9 -6.5 -10.75 -6.55 Q-11.1 -6.95 -11.8 -6.9 L-12.75 -6.6 -14.65 -6.65 M0.1 -6.3 L0.25 -6.65 Q0.35 -7.05 0.85 -7.45 L1.75 -8.0 2.1 -7.9 Q4.05 -8.45 5.15 -7.2 L5.85 -6.2 3.95 -6.25 Q3.6 -6.6 2.95 -6.55 L2.1 -6.3 0.1 -6.3 M15.0 -6.0 L15.15 -6.55 15.65 -7.2 Q16.1 -7.6 16.5 -7.65 L16.8 -7.55 Q18.45 -8.05 19.4 -7.0 L20.1 -5.9 18.55 -5.95 Q18.25 -6.45 17.5 -6.4 16.85 -6.35 16.55 -6.0 L15.0 -6.0 M30.75 -5.7 L30.8 -5.85 31.3 -6.5 32.15 -6.95 32.45 -6.85 Q34.1 -7.35 35.05 -6.3 L35.55 -5.6 33.75 -5.65 33.15 -5.7 32.95 -5.65 30.75 -5.7" fill="#4b4234" fill-rule="evenodd" stroke="none"/>
    <path d="M-28.35 10.65 L-35.4 10.45 -36.4 10.35 -37.75 10.3 -38.15 10.2 -38.2 10.1 -38.5 10.1 -39.15 9.9 -39.45 9.85 -39.55 9.85 -40.05 9.8 -41.5 9.3 -41.95 9.1 -42.35 8.85 -42.85 8.5 -43.75 8.0 -44.15 7.65 -44.2 7.7 -44.55 7.4 -44.65 7.45 Q-46.2 6.5 -50.05 4.3 L-52.85 1.95 -54.0 0.8 -55.75 -1.75 -56.4 -3.1 -56.45 -3.4 -56.5 -5.6 -56.2 -7.55 -50.6 -7.4 Q-49.65 -6.55 -47.65 -5.4 L-42.5 -2.65 -37.1 0.6 -33.6 2.65 Q-37.3 3.75 -41.55 4.25 L-45.15 4.7 -42.95 6.7 -40.7 8.4 -40.8 8.6 -40.7 8.9 -39.65 8.9 Q-35.2 6.3 -33.0 5.75 L-32.65 5.65 Q-30.55 8.9 -30.15 8.9 -29.9 8.9 -28.9 10.05 L-28.35 10.65 M-30.85 -7.0 L-30.9 -6.35 Q-30.9 -5.4 -30.2 -4.2 -29.05 -2.3 -26.8 -2.3 -24.65 -2.3 -23.5 -3.6 -22.65 -4.65 -22.65 -5.65 L-22.75 -6.8 -15.8 -6.65 -15.9 -5.65 Q-15.8 -4.7 -15.05 -3.55 -13.75 -1.75 -11.5 -1.9 -9.35 -2.05 -8.3 -3.45 -7.5 -4.55 -7.6 -5.55 L-7.7 -6.5 -1.05 -6.35 -1.15 -5.3 Q-1.05 -4.35 -0.3 -3.2 1.0 -1.4 3.25 -1.55 5.4 -1.7 6.45 -3.1 7.25 -4.2 7.15 -5.2 L7.05 -6.2 14.05 -6.0 14.05 -5.35 Q14.1 -4.55 14.75 -3.6 15.85 -2.0 17.8 -2.15 19.6 -2.3 20.5 -3.45 21.15 -4.4 21.1 -5.25 L21.05 -5.9 29.8 -5.7 29.7 -4.65 Q29.75 -3.85 30.4 -2.9 31.5 -1.3 33.45 -1.45 35.25 -1.6 36.15 -2.75 36.8 -3.7 36.75 -4.55 L36.6 -5.6 41.6 -5.5 40.6 -3.4 39.05 -0.95 Q37.8 1.0 37.7 1.45 L30.5 2.65 22.6 4.25 9.05 6.5 8.15 6.6 Q6.85 5.55 2.5 3.6 L-3.95 0.75 -4.0 0.65 -4.2 0.65 -4.3 0.6 -4.25 0.65 -18.25 1.45 -30.05 2.2 Q-35.3 -0.35 -40.2 -4.4 L-43.45 -7.25 -30.85 -7.0 M56.7 -5.15 Q56.7 -3.55 54.1 -0.1 L52.4 0.75 50.85 1.35 47.05 0.4 Q43.6 -0.4 43.6 -0.75 L44.4 -2.55 45.35 -4.25 46.15 -5.4 56.7 -5.15" fill="#464631" fill-rule="evenodd" stroke="none"/>
    <path d="M-27.65 10.95 L-27.9 11.15 -28.1 10.95 -28.35 10.65 -28.9 10.05 Q-29.9 8.9 -30.15 8.9 -30.55 8.9 -32.65 5.65 L-33.0 5.75 Q-35.2 6.3 -39.65 8.9 L-40.7 8.9 -40.8 8.6 -40.7 8.4 -42.95 6.7 -45.15 4.7 -41.55 4.25 Q-37.3 3.75 -33.6 2.65 L-37.1 0.6 -42.5 -2.65 -47.65 -5.4 Q-49.65 -6.55 -50.6 -7.4 L-50.9 -7.7 -51.3 -7.7 -51.4 -7.95 -51.3 -8.15 -51.4 -8.25 -51.3 -8.2 -51.2 -8.35 -50.9 -8.6 -50.55 -8.3 Q-49.9 -8.3 -48.55 -9.1 L-46.95 -9.85 -46.8 -10.0 -46.65 -9.9 -46.5 -9.9 -46.4 -9.7 -43.45 -7.25 -40.2 -4.4 Q-35.3 -0.35 -30.05 2.2 L-18.25 1.45 -4.25 0.65 -4.3 0.6 -4.2 0.65 -4.0 0.65 -3.95 0.75 2.5 3.6 Q6.85 5.55 8.15 6.6 L9.05 6.5 22.6 4.25 30.5 2.65 37.7 1.45 Q37.8 1.0 39.05 -0.95 L40.6 -3.4 41.6 -5.5 41.85 -5.95 42.7 -7.15 42.7 -7.2 Q42.7 -7.5 43.2 -8.15 L43.65 -8.7 43.85 -8.85 44.05 -8.65 45.05 -8.65 47.5 -8.65 47.85 -8.95 48.1 -8.65 47.5 -7.65 47.2 -7.2 46.15 -5.4 45.35 -4.25 44.4 -2.55 43.6 -0.75 Q43.6 -0.4 47.05 0.4 L50.85 1.35 50.95 1.45 50.65 1.65 50.2 1.65 48.85 2.15 Q45.45 3.55 43.7 4.65 43.05 5.0 41.95 5.9 L41.15 6.35 40.1 7.15 39.0 8.15 37.1 9.9 37.1 10.05 36.85 10.1 36.8 10.05 34.75 10.3 33.3 10.5 32.7 10.5 30.65 10.4 27.75 10.55 27.15 10.7 17.45 10.75 16.25 10.7 15.5 10.7 -10.7 10.7 -12.8 10.7 -19.4 10.6 -19.6 10.75 -22.65 10.7 -23.75 10.8 -27.8 10.7 -27.65 10.9 -27.65 10.95 M6.4 10.6 L6.1 10.6 7.2 10.65 6.4 10.6" fill="#28281c" fill-rule="evenodd" stroke="none"/>
  </g>
</svg>
