<?xml version="1.0" encoding="UTF-8" standalone="no"?>
<svg xmlns:xlink="http://www.w3.org/1999/xlink" height="12.2px" width="12.15px" xmlns="http://www.w3.org/2000/svg">
  <g transform="matrix(1.0, 0.0, 0.0, 1.0, 6.05, 6.1)">
    <path d="M-0.6 -5.15 Q-2.05 -5.15 -3.7 -3.3 -5.1 -1.75 -5.1 -1.3 -5.1 0.4 -4.35 2.15 -3.1 5.05 -0.4 5.05 2.0 5.05 3.65 3.3 4.95 1.9 4.95 0.65 L4.6 -1.1 3.85 -2.55 1.75 -4.1 Q0.1 -5.15 -0.6 -5.15 M-5.85 -0.05 Q-5.85 -1.95 -4.45 -3.75 -2.75 -6.1 0.05 -5.75 2.75 -5.45 4.45 -3.6 5.9 -1.95 5.9 -0.1 5.9 1.45 4.7 3.3 3.0 5.9 0.0 5.9 -1.95 5.9 -3.3 4.9 -4.2 4.2 -4.5 3.5 L-5.45 1.6 Q-5.85 0.8 -5.85 -0.05" fill="#969d84" fill-rule="evenodd" stroke="none"/>
    <path d="M4.1 2.35 L4.25 2.45 4.3 2.1 4.75 0.65 Q4.75 -0.75 3.85 -1.9 L3.4 -2.45 3.45 -2.5 3.45 -2.65 2.75 -3.05 1.1 -4.25 Q-0.85 -5.55 -2.95 -3.85 -4.8 -2.3 -4.8 -0.9 L-4.75 -0.3 -4.8 -0.2 -4.8 0.6 -4.65 0.6 -4.65 0.45 -4.0 2.3 Q-2.8 4.8 -0.35 4.8 1.9 4.8 3.5 3.1 L4.1 2.35 M-0.6 -5.15 Q0.1 -5.15 1.75 -4.1 L3.85 -2.55 4.6 -1.1 4.95 0.65 Q4.95 1.9 3.65 3.3 2.0 5.05 -0.4 5.05 -3.1 5.05 -4.35 2.15 -5.1 0.4 -5.1 -1.3 -5.1 -1.75 -3.7 -3.3 -2.05 -5.15 -0.6 -5.15 M-0.8 -6.1 Q2.7 -6.1 4.7 -3.5 6.1 -1.7 6.1 -0.1 6.1 1.6 4.85 3.5 3.1 6.1 0.0 6.1 -2.65 6.1 -4.45 4.0 -6.05 2.15 -6.05 -0.05 -6.05 -2.2 -4.45 -4.1 -2.8 -6.1 -0.8 -6.1 M-2.2 0.25 L-1.85 -0.95 Q-1.35 -1.9 -0.35 -1.9 1.1 -1.9 1.75 0.5 L1.6 1.1 1.35 1.1 1.1 1.6 1.05 1.7 0.45 2.0 0.2 2.0 Q-1.05 2.0 -1.55 1.35 L-2.1 0.75 -2.1 0.7 -2.1 0.25 -2.15 0.2 -2.2 0.25 M-5.85 -0.05 Q-5.85 0.8 -5.45 1.6 L-4.5 3.5 Q-4.2 4.2 -3.3 4.9 -1.95 5.9 0.0 5.9 3.0 5.9 4.7 3.3 5.9 1.45 5.9 -0.1 5.9 -1.95 4.45 -3.6 2.75 -5.45 0.05 -5.75 -2.75 -6.1 -4.45 -3.75 -5.85 -1.95 -5.85 -0.05 M1.5 0.5 Q1.5 -1.2 -0.25 -1.5 -2.0 -1.75 -2.0 0.25 L-1.55 1.2 Q-0.9 1.85 0.35 1.85 L1.2 1.25 1.5 0.5" fill="#000000" fill-rule="evenodd" stroke="none"/>
    <path d="M4.1 2.35 L3.5 3.1 Q1.9 4.8 -0.35 4.8 -2.8 4.8 -4.0 2.3 L-4.65 0.45 Q-4.65 -0.6 -4.15 -1.55 -3.1 -3.5 0.15 -3.5 L2.35 -2.85 3.6 -1.1 4.15 1.25 4.05 2.25 4.1 2.35 M1.6 1.1 L1.75 0.5 Q1.1 -1.9 -0.35 -1.9 -1.35 -1.9 -1.85 -0.95 L-2.2 0.25 -2.35 0.45 -2.35 0.65 Q-2.35 1.5 -1.7 1.9 L-1.4 2.1 -0.1 2.3 0.5 2.25 1.2 1.9 1.65 1.2 1.6 1.1 M-2.1 0.7 L-2.1 0.75 -2.1 0.7" fill="#5c644f" fill-rule="evenodd" stroke="none"/>
    <path d="M1.5 0.5 L1.2 1.25 0.35 1.85 Q-0.9 1.85 -1.55 1.2 L-2.0 0.25 Q-2.0 -1.75 -0.25 -1.5 1.5 -1.2 1.5 0.5" fill="url(#gradient0)" fill-rule="evenodd" stroke="none"/>
    <path d="M-4.65 0.45 L-4.65 0.6 -4.8 0.6 -4.8 -0.2 -4.75 -0.3 -4.8 -0.9 Q-4.8 -2.3 -2.95 -3.85 -0.85 -5.55 1.1 -4.25 L2.75 -3.05 3.45 -2.65 3.45 -2.5 3.4 -2.45 3.85 -1.9 Q4.75 -0.75 4.75 0.65 L4.3 2.1 4.25 2.45 4.1 2.35 4.05 2.25 4.15 1.25 3.6 -1.1 2.35 -2.85 0.15 -3.5 Q-3.1 -3.5 -4.15 -1.55 -4.65 -0.6 -4.65 0.45 M-2.2 0.25 L-2.15 0.2 -2.1 0.25 -2.1 0.7 -2.1 0.75 -1.55 1.35 Q-1.05 2.0 0.2 2.0 L0.45 2.0 1.05 1.7 1.1 1.6 1.35 1.1 1.6 1.1 1.65 1.2 1.2 1.9 0.5 2.25 -0.1 2.3 -1.4 2.1 -1.7 1.9 Q-2.35 1.5 -2.35 0.65 L-2.35 0.45 -2.2 0.25" fill="#434738" fill-rule="evenodd" stroke="none"/>
  </g>
  <defs>
    <radialGradient cx="0" cy="0" gradientTransform="matrix(0.0037, 0.0, 0.0, 0.0037, -0.7, -0.45)" gradientUnits="userSpaceOnUse" id="gradient0" r="819.2" spreadMethod="pad">
      <stop offset="0.0" stop-color="#d6d9d0"/>
      <stop offset="0.6" stop-color="#575f4b"/>
      <stop offset="0.9725490196078431" stop-color="#1c1d16"/>
    </radialGradient>
  </defs>
</svg>
