<?xml version="1.0" encoding="UTF-8" standalone="no"?>
<svg xmlns:xlink="http://www.w3.org/1999/xlink" height="17.35px" width="17.4px" xmlns="http://www.w3.org/2000/svg">
  <g transform="matrix(1.0, 0.0, 0.0, 1.0, 8.95, 8.45)">
    <path d="M3.75 -4.25 L4.45 -3.6 4.9 -3.05 4.85 -2.85 5.0 -2.85 5.05 -2.85 Q5.9 -1.55 5.9 -0.1 5.9 1.45 4.7 3.3 3.0 5.9 0.0 5.9 -1.95 5.9 -3.3 4.9 -4.2 4.2 -4.5 3.5 L-5.45 1.6 -5.7 1.0 -5.7 0.95 -5.85 -0.05 Q-5.85 -1.75 -4.75 -3.35 L-4.45 -3.75 Q-2.75 -6.1 0.05 -5.75 2.2 -5.5 3.75 -4.25 M3.95 -4.3 L4.8 -5.15 5.55 -5.8 6.2 -5.35 Q5.2 -3.85 4.95 -3.15 L4.7 -3.5 3.95 -4.3 M4.6 -1.1 L3.85 -2.55 1.75 -4.1 Q0.1 -5.15 -0.6 -5.15 -2.05 -5.15 -3.7 -3.3 -5.1 -1.75 -5.1 -1.3 -5.1 0.4 -4.35 2.15 -3.1 5.05 -0.4 5.05 2.0 5.05 3.65 3.3 4.95 1.9 4.95 0.65 L4.6 -1.1 M6.85 4.95 L6.4 5.5 5.5 4.95 Q4.95 4.55 4.1 4.45 L4.85 3.5 5.05 3.25 5.75 4.0 6.85 4.95 M0.55 -8.1 Q0.55 -6.9 0.8 -5.95 L-0.7 -6.1 -0.4 -8.15 0.55 -8.1 M6.1 -0.55 Q6.3 -0.4 6.8 -0.35 L8.2 -0.3 Q8.05 0.0 8.05 0.5 L6.6 0.55 6.05 0.75 6.1 -0.1 6.1 -0.55 M-6.6 -5.7 L-6.25 -6.05 -5.9 -6.4 Q-5.65 -6.0 -4.95 -5.6 L-3.6 -4.95 -4.45 -4.1 -4.85 -3.55 Q-5.95 -5.2 -6.6 -5.7 M-5.9 -1.3 L-6.05 -0.05 -6.0 0.85 Q-7.5 0.15 -8.7 0.2 L-8.75 -0.35 -7.35 -0.75 Q-6.25 -1.0 -5.9 -1.3 M0.0 6.1 L1.05 6.05 0.65 7.15 0.25 8.6 -0.4 8.65 -0.85 6.05 0.0 6.1 M-3.05 5.25 L-4.8 6.1 -5.55 6.7 -6.45 6.1 -5.45 4.7 -4.8 3.6 -4.45 4.0 -3.05 5.25" fill="#969d84" fill-rule="evenodd" stroke="none"/>
    <path d="M0.75 -7.95 L1.05 -5.9 Q2.6 -5.55 3.75 -4.5 L5.55 -6.1 5.95 -5.85 6.55 -5.45 5.1 -2.95 6.0 -0.95 8.45 -0.35 Q8.3 0.1 8.3 0.5 L8.3 0.65 8.1 0.7 8.1 0.65 6.0 0.95 5.15 3.1 5.9 3.65 7.15 5.05 6.6 5.55 6.5 5.7 6.5 5.8 6.35 5.85 6.1 6.0 6.05 5.85 6.15 5.75 5.5 5.3 Q4.7 4.75 3.9 4.65 2.75 5.7 1.25 6.0 L0.9 7.25 0.55 8.5 0.6 8.65 0.5 8.8 0.5 8.85 0.4 8.9 0.3 8.85 -0.6 8.85 Q-0.6 7.1 -1.1 6.2 L-1.1 6.0 -2.9 5.35 -5.35 6.9 -5.35 6.95 -5.45 7.0 -5.5 7.0 -5.55 7.0 -5.65 7.0 -5.7 6.85 -6.6 6.15 -6.65 6.15 -6.6 6.15 -6.75 5.95 -6.55 6.05 -4.85 3.5 Q-5.7 2.35 -5.95 1.1 L-6.9 0.75 -8.4 0.4 -8.9 0.5 -8.95 -0.05 Q-8.95 -0.7 -8.3 -0.85 L-5.85 -1.55 -4.95 -3.4 -6.8 -5.7 -6.8 -5.75 -6.0 -6.55 -6.0 -6.6 -5.85 -6.7 -5.8 -6.75 -5.75 -6.65 -5.75 -6.6 Q-4.25 -5.5 -3.4 -5.15 -2.25 -6.05 -1.0 -6.1 L-1.0 -6.2 Q-0.7 -6.85 -0.55 -8.45 L-0.35 -8.45 0.75 -8.35 0.75 -7.95 M3.95 -4.3 L4.7 -3.5 4.95 -3.15 Q5.2 -3.85 6.2 -5.35 L5.55 -5.8 4.8 -5.15 3.95 -4.3 M3.75 -4.25 Q2.2 -5.5 0.05 -5.75 -2.75 -6.1 -4.45 -3.75 L-4.75 -3.35 Q-5.85 -1.75 -5.85 -0.05 L-5.7 0.95 -5.7 1.0 -5.45 1.6 -4.5 3.5 Q-4.2 4.2 -3.3 4.9 -1.95 5.9 0.0 5.9 3.0 5.9 4.7 3.3 5.9 1.45 5.9 -0.1 5.9 -1.55 5.05 -2.85 L5.0 -2.85 4.85 -2.85 4.9 -3.05 4.45 -3.6 3.75 -4.25 M4.6 -1.1 L4.95 0.65 Q4.95 1.9 3.65 3.3 2.0 5.05 -0.4 5.05 -3.1 5.05 -4.35 2.15 -5.1 0.4 -5.1 -1.3 -5.1 -1.75 -3.7 -3.3 -2.05 -5.15 -0.6 -5.15 0.1 -5.15 1.75 -4.1 L3.85 -2.55 4.6 -1.1 M3.85 -1.9 L3.4 -2.45 3.45 -2.5 3.45 -2.65 2.75 -3.05 1.1 -4.25 Q-0.85 -5.55 -2.95 -3.85 -4.8 -2.3 -4.8 -0.9 L-4.75 -0.3 -4.8 -0.2 -4.8 0.6 -4.65 0.6 -4.65 0.45 -4.0 2.3 Q-2.8 4.8 -0.35 4.8 1.9 4.8 3.5 3.1 L4.1 2.35 4.25 2.45 4.3 2.1 4.75 0.65 Q4.75 -0.75 3.85 -1.9 M6.1 -0.55 L6.1 -0.1 6.05 0.75 6.6 0.55 8.05 0.5 Q8.05 0.0 8.2 -0.3 L6.8 -0.35 Q6.3 -0.4 6.1 -0.55 M0.55 -8.1 L-0.4 -8.15 -0.7 -6.1 0.8 -5.95 Q0.55 -6.9 0.55 -8.1 M6.85 4.95 L5.75 4.0 5.05 3.25 4.85 3.5 4.1 4.45 Q4.95 4.55 5.5 4.95 L6.4 5.5 6.85 4.95 M-2.2 0.25 L-1.85 -0.95 Q-1.35 -1.9 -0.35 -1.9 1.1 -1.9 1.75 0.5 L1.6 1.1 1.35 1.1 1.1 1.6 1.05 1.7 0.45 2.0 0.2 2.0 Q-1.05 2.0 -1.55 1.35 L-2.1 0.75 -2.1 0.7 -2.1 0.25 -2.15 0.2 -2.2 0.25 M1.5 0.5 Q1.5 -1.2 -0.25 -1.5 -2.0 -1.75 -2.0 0.25 L-1.55 1.2 Q-0.9 1.85 0.35 1.85 L1.2 1.25 1.5 0.5 M0.0 6.1 L-0.85 6.05 -0.4 8.65 0.25 8.6 0.65 7.15 1.05 6.05 0.0 6.1 M-5.9 -1.3 Q-6.25 -1.0 -7.35 -0.75 L-8.75 -0.35 -8.7 0.2 Q-7.5 0.15 -6.0 0.85 L-6.05 -0.05 -5.9 -1.3 M-6.6 -5.7 Q-5.95 -5.2 -4.85 -3.55 L-4.45 -4.1 -3.6 -4.95 -4.95 -5.6 Q-5.65 -6.0 -5.9 -6.4 L-6.25 -6.05 -6.6 -5.7 M-3.05 5.25 L-4.45 4.0 -4.8 3.6 -5.45 4.7 -6.45 6.1 -5.55 6.7 -4.8 6.1 -3.05 5.25" fill="#000000" fill-rule="evenodd" stroke="none"/>
    <path d="M0.15 -3.5 L1.15 -3.25 2.65 -1.55 3.9 0.45 Q3.9 1.25 2.85 2.25 1.35 3.6 -1.15 3.6 -2.25 3.6 -3.15 1.65 L-3.8 -0.6 -3.45 -2.4 Q-2.25 -3.5 0.15 -3.5 M1.6 1.1 L1.75 0.5 Q1.1 -1.9 -0.35 -1.9 -1.35 -1.9 -1.85 -0.95 L-2.2 0.25 -2.35 0.45 -2.35 0.65 Q-2.35 1.5 -1.7 1.9 L-1.4 2.1 -0.1 2.3 0.5 2.25 1.2 1.9 1.65 1.2 1.6 1.1 M-2.1 0.7 L-2.1 0.75 -2.1 0.7" fill="#5c644f" fill-rule="evenodd" stroke="none"/>
    <path d="M1.5 0.5 L1.2 1.25 0.35 1.85 Q-0.9 1.85 -1.55 1.2 L-2.0 0.25 Q-2.0 -1.75 -0.25 -1.5 1.5 -1.2 1.5 0.5" fill="url(#gradient0)" fill-rule="evenodd" stroke="none"/>
    <path d="M0.15 -3.5 Q-2.25 -3.5 -3.45 -2.4 L-3.8 -0.6 -3.15 1.65 Q-2.25 3.6 -1.15 3.6 1.35 3.6 2.85 2.25 3.9 1.25 3.9 0.45 L2.65 -1.55 1.15 -3.25 0.15 -3.5 M3.85 -1.9 Q4.75 -0.75 4.75 0.65 L4.3 2.1 4.25 2.45 4.1 2.35 3.5 3.1 Q1.9 4.8 -0.35 4.8 -2.8 4.8 -4.0 2.3 L-4.65 0.45 -4.65 0.6 -4.8 0.6 -4.8 -0.2 -4.75 -0.3 -4.8 -0.9 Q-4.8 -2.3 -2.95 -3.85 -0.85 -5.55 1.1 -4.25 L2.75 -3.05 3.45 -2.65 3.45 -2.5 3.4 -2.45 3.85 -1.9 M-2.2 0.25 L-2.15 0.2 -2.1 0.25 -2.1 0.7 -2.1 0.75 -1.55 1.35 Q-1.05 2.0 0.2 2.0 L0.45 2.0 1.05 1.7 1.1 1.6 1.35 1.1 1.6 1.1 1.65 1.2 1.2 1.9 0.5 2.25 -0.1 2.3 -1.4 2.1 -1.7 1.9 Q-2.35 1.5 -2.35 0.65 L-2.35 0.45 -2.2 0.25" fill="#434738" fill-rule="evenodd" stroke="none"/>
  </g>
  <defs>
    <radialGradient cx="0" cy="0" gradientTransform="matrix(0.0037, 0.0, 0.0, 0.0037, -0.7, -0.45)" gradientUnits="userSpaceOnUse" id="gradient0" r="819.2" spreadMethod="pad">
      <stop offset="0.0" stop-color="#d6d9d0"/>
      <stop offset="0.6" stop-color="#575f4b"/>
      <stop offset="0.9725490196078431" stop-color="#1c1d16"/>
    </radialGradient>
  </defs>
</svg>
