<?xml version="1.0" encoding="UTF-8" standalone="no"?>
<svg xmlns:xlink="http://www.w3.org/1999/xlink" height="5.7px" width="72.25px" xmlns="http://www.w3.org/2000/svg">
  <g transform="matrix(1.0, 0.0, 0.0, 1.0, 36.1, 2.85)">
    <path d="M1.3 -2.5 L1.35 -2.5 5.1 -2.5 8.8 -2.5 8.95 -2.4 9.0 -2.2 9.05 -2.2 9.05 -2.15 9.1 -2.2 9.1 -2.1 9.05 -2.05 9.05 -1.9 22.25 -1.95 22.75 -2.2 23.25 -2.7 23.45 -2.8 23.45 -2.7 29.25 -2.8 29.45 -2.85 29.7 -2.7 29.7 -2.6 29.65 -2.55 29.9 -2.1 29.9 -2.05 33.1 -2.05 33.15 -2.0 35.55 -1.95 35.55 -2.15 35.75 -2.15 35.8 -1.95 36.1 -1.95 36.15 -1.75 35.85 -1.75 35.85 -1.7 Q35.85 -0.25 35.55 0.65 35.2 1.65 34.35 2.35 L34.35 2.45 34.25 2.45 33.85 2.7 33.8 2.55 33.9 2.45 31.4 2.5 31.4 2.55 30.35 2.65 29.75 2.6 29.65 2.65 29.6 2.7 29.6 2.75 29.55 2.75 29.4 2.85 29.35 2.8 23.15 2.7 23.1 2.6 23.1 2.55 22.85 2.25 22.9 2.15 22.85 2.15 22.85 2.2 22.65 2.2 22.65 2.1 22.45 2.0 22.3 1.85 22.1 1.7 21.85 1.7 21.85 1.6 9.05 1.55 9.05 1.7 9.0 1.75 8.85 1.75 8.85 1.65 8.25 2.0 8.15 1.95 8.15 1.85 1.6 1.85 1.45 1.9 1.25 1.85 1.05 1.85 1.05 1.75 0.85 1.4 0.75 1.0 -35.95 0.95 -36.0 0.85 -35.9 0.8 -35.9 0.75 -35.8 0.75 Q-36.15 0.55 -36.1 -0.6 L-35.95 -2.0 0.75 -2.0 0.9 -1.9 0.95 -1.9 0.95 -2.0 1.3 -2.45 1.3 -2.5 M0.65 -1.65 L0.65 -1.75 -35.7 -1.8 -35.9 -0.55 -35.65 0.75 0.7 0.75 0.75 -0.85 0.85 -1.65 0.65 -1.65 M0.95 -1.65 L0.9 0.7 0.9 0.8 1.0 1.3 Q1.2 1.75 1.55 1.6 L1.6 1.65 8.4 1.7 8.65 1.55 8.85 1.35 8.85 -2.05 8.8 -2.15 8.7 -2.25 1.4 -2.3 1.2 -2.1 1.1 -1.95 0.95 -1.65 M22.3 -1.7 L9.05 -1.7 9.05 1.35 22.0 1.35 22.2 1.4 22.2 1.35 22.3 1.35 22.35 1.5 22.35 1.55 22.5 1.65 22.65 1.7 22.65 -1.85 22.3 -1.7 M22.85 -1.95 L22.85 1.75 22.95 2.1 23.4 2.4 23.4 2.55 27.3 2.55 26.75 2.5 29.35 2.55 29.45 2.4 29.5 2.35 29.5 -1.8 29.45 -1.9 29.5 -1.95 29.5 -2.05 29.35 -2.35 29.35 -2.55 23.4 -2.55 23.2 -2.25 22.85 -1.95 M32.8 -1.8 L29.75 -1.8 29.65 2.25 29.85 2.2 29.9 2.25 31.0 2.35 31.0 2.3 34.0 2.3 Q35.3 0.3 35.55 -1.75 L32.8 -1.75 32.8 -1.8 M35.05 0.95 L34.75 1.55 34.75 1.6 Q35.2 1.15 35.05 0.95 M-34.4 -0.65 L-34.65 -0.65 -35.15 -0.55 Q-34.85 -0.3 -33.95 -0.3 L-32.0 -0.4 -31.9 -0.6 -34.4 -0.75 -34.4 -0.65 M-34.45 -1.0 L-33.95 -0.95 Q-31.65 -0.95 -31.65 -0.55 -31.65 -0.25 -31.8 -0.2 L-33.95 -0.05 Q-35.4 -0.05 -35.4 -0.55 L-35.2 -0.8 -34.95 -0.9 -34.8 -0.95 -34.45 -1.0" fill="#000000" fill-rule="evenodd" stroke="none"/>
    <path d="M0.95 -1.65 L1.1 -1.95 1.2 -2.1 1.4 -2.3 8.7 -2.25 8.8 -2.15 8.85 -2.05 8.85 1.35 8.65 1.55 8.4 1.7 1.6 1.65 1.55 1.6 Q1.2 1.75 1.0 1.3 L0.9 0.8 0.9 0.7 0.95 -1.65 M22.85 -1.95 L23.2 -2.25 23.4 -2.55 29.35 -2.55 29.35 -2.35 29.5 -2.05 29.5 -1.95 29.45 -1.9 29.5 -1.8 29.5 2.35 29.45 2.4 29.35 2.55 26.75 2.5 27.3 2.55 23.4 2.55 23.4 2.4 22.95 2.1 22.85 1.75 22.85 -1.95" fill="#797953" fill-rule="evenodd" stroke="none"/>
    <path d="M0.65 -1.65 L0.85 -1.65 0.75 -0.85 0.7 0.75 -35.65 0.75 -35.9 -0.55 -35.7 -1.8 0.65 -1.75 0.65 -1.65 M22.3 -1.7 L22.65 -1.85 22.65 1.7 22.5 1.65 22.35 1.55 22.35 1.5 22.3 1.35 22.2 1.35 22.2 1.4 22.0 1.35 9.05 1.35 9.05 -1.7 22.3 -1.7 M-34.45 -1.0 L-34.8 -0.95 -34.95 -0.9 -35.2 -0.8 -35.4 -0.55 Q-35.4 -0.05 -33.95 -0.05 L-31.8 -0.2 Q-31.65 -0.25 -31.65 -0.55 -31.65 -0.95 -33.95 -0.95 L-34.45 -1.0" fill="#aba085" fill-rule="evenodd" stroke="none"/>
    <path d="M32.8 -1.8 L32.8 -1.75 35.55 -1.75 Q35.3 0.3 34.0 2.3 L31.0 2.3 31.0 2.35 29.9 2.25 29.85 2.2 29.65 2.25 29.75 -1.8 32.8 -1.8" fill="#453a2e" fill-rule="evenodd" stroke="none"/>
    <path d="M9.35 -1.1 Q9.35 -1.3 22.0 -1.35 L22.1 -1.1 22.0 -0.85 9.45 -0.85 9.35 -1.1 M-0.65 -1.25 L-0.75 -1.0 -31.55 -1.0 -31.65 -1.25 -28.8 -1.5 -0.75 -1.5 -0.65 -1.25" fill="#dcd7cd" fill-rule="evenodd" stroke="none"/>
    <path d="M5.9 -1.6 L2.35 -1.5 Q2.15 -1.5 1.75 -1.75 L1.75 -2.05 2.0 -2.1 5.9 -2.1 6.0 -1.85 5.9 -1.6 M27.25 -2.25 L27.15 -2.0 24.1 -2.0 24.0 -2.25 27.15 -2.5 27.25 -2.25" fill="#d9d9c8" fill-rule="evenodd" stroke="none"/>
  </g>
</svg>
