<?xml version="1.0" encoding="UTF-8" standalone="no"?>
<svg xmlns:xlink="http://www.w3.org/1999/xlink" height="19.1px" width="63.05px" xmlns="http://www.w3.org/2000/svg">
  <g transform="matrix(1.0, 0.0, 0.0, 1.0, 31.5, 9.55)">
    <path d="M10.75 -7.25 L10.95 -4.35 Q10.95 -3.15 10.05 -3.15 9.35 -3.15 9.15 -3.4 L9.05 -3.85 9.35 -6.15 9.65 -7.55 9.1 -7.55 7.85 -7.6 4.65 -8.25 4.55 -8.45 7.65 -7.75 7.65 -7.9 7.8 -7.9 7.95 -7.85 8.55 -7.8 9.75 -7.8 Q10.05 -9.0 10.5 -9.55 L10.8 -8.15 10.75 -7.45 11.2 -7.1 13.85 -6.65 16.7 -6.0 16.7 -6.15 16.95 -6.15 16.95 -6.1 17.45 -6.15 18.2 -5.95 19.0 -5.95 19.75 -6.15 20.3 -6.1 21.3 -6.2 22.8 -6.35 Q25.45 -6.35 26.3 -5.8 26.8 -5.45 26.8 -4.55 26.8 -3.65 25.85 -3.65 L25.85 -3.5 Q25.85 -3.1 26.25 -2.75 L26.95 -2.3 28.5 -2.8 30.2 -3.3 30.75 -2.15 31.2 -0.65 31.55 2.15 Q31.55 3.0 28.45 3.45 L28.2 4.65 27.8 5.9 27.8 5.95 27.85 5.9 27.9 5.95 27.7 6.1 27.6 6.2 27.5 6.2 24.55 7.4 20.4 9.0 20.3 9.0 20.3 9.05 20.35 9.2 20.05 9.3 19.9 9.45 19.9 9.5 -28.15 9.55 -28.7 8.65 -28.75 8.65 Q-29.4 8.65 -29.5 8.25 -29.65 7.85 -29.9 7.85 L-30.5 8.0 -31.1 8.1 Q-31.5 8.1 -31.5 7.2 L-31.3 5.0 -31.1 5.0 -31.05 5.1 -30.1 3.85 Q-28.95 2.4 -28.95 1.3 L-29.1 1.0 -29.05 0.7 -29.05 0.65 -29.0 0.45 -26.95 -1.85 Q-24.7 -4.0 -23.55 -4.0 -22.45 -4.0 -21.6 -2.85 L-21.6 -3.0 -21.4 -3.0 -21.45 -2.8 Q-21.35 -2.7 -21.25 -2.7 L-20.8 -2.9 -20.45 -3.2 -20.45 -3.15 -20.1 -3.35 -19.45 -3.55 -19.45 -3.6 -19.4 -3.55 -18.95 -3.65 -18.75 -3.6 -17.65 -5.05 -17.65 -5.1 -17.45 -5.25 -17.15 -5.65 -17.15 -5.6 -16.55 -6.55 -15.65 -7.55 Q-15.4 -7.65 -15.15 -7.25 L-14.8 -6.65 -14.35 -6.1 -14.1 -5.7 -14.05 -5.65 -14.1 -5.75 -12.55 -5.75 -12.5 -5.65 -10.0 -6.25 -6.35 -7.5 -6.45 -7.2 -9.75 -6.05 -9.8 -6.05 -15.1 -4.6 -16.5 -0.3 -14.2 -0.15 -13.4 0.0 -13.65 0.1 -13.6 0.15 -16.5 -0.15 -16.55 -0.05 -16.7 -0.05 -16.7 -0.55 -16.25 -2.35 -16.05 -2.55 -16.15 -2.8 -16.2 -2.75 -16.2 -2.8 -15.35 -4.55 -15.4 -4.55 -15.45 -4.65 -15.4 -4.7 -15.5 -4.7 -16.75 -5.0 -16.95 -5.1 -17.45 -5.0 -18.55 -3.45 -18.55 -3.25 Q-18.55 -2.35 -20.4 -0.1 L-20.4 -0.05 -20.55 -0.1 -20.55 0.1 -22.9 2.7 -27.95 7.9 -28.0 7.9 -27.9 7.95 -28.2 8.35 -28.45 8.6 -28.25 8.9 -27.95 9.3 -19.2 9.3 -18.95 9.35 -18.75 9.3 0.1 9.3 0.35 9.45 0.5 9.4 0.6 9.45 0.85 9.3 0.9 9.3 12.7 9.3 12.7 9.4 12.9 9.45 13.1 9.4 13.15 9.3 19.2 9.3 19.2 9.2 19.75 9.05 19.95 9.0 20.05 8.95 20.0 8.85 Q22.8 7.75 26.1 6.55 L27.5 6.05 27.5 5.95 26.1 6.35 24.6 6.55 24.7 6.4 24.6 6.15 27.5 5.8 27.55 5.85 28.2 3.55 28.2 3.5 28.1 3.5 28.05 3.4 28.25 3.35 28.25 2.9 27.65 0.15 27.0 -2.05 26.95 -2.1 Q25.9 -2.55 25.6 -3.6 L25.55 -3.6 23.65 -3.55 21.7 -3.65 19.95 -4.0 19.6 -4.0 16.95 -5.7 16.8 -5.7 11.45 -6.9 13.75 -4.6 15.1 -3.05 15.7 -2.25 15.6 -2.2 15.8 -2.0 15.95 -1.35 Q15.95 -0.4 14.25 0.8 L14.25 0.85 14.15 0.85 13.85 1.05 13.8 0.95 13.9 0.85 13.5 0.85 13.4 0.8 12.45 0.75 10.0 0.85 9.35 0.9 9.2 0.9 8.55 0.7 8.2 0.75 8.2 0.9 4.4 1.0 4.55 1.85 4.55 1.9 4.35 1.8 4.15 1.0 4.0 1.0 4.0 0.75 3.85 0.55 Q3.2 -0.1 1.9 -0.1 L-0.95 0.1 -1.0 0.15 -1.0 0.3 Q-1.0 0.85 -0.6 1.45 L-0.65 1.6 -0.55 1.85 -0.35 1.85 -0.25 2.1 2.3 2.2 4.0 2.55 4.05 2.35 4.25 2.35 4.3 2.35 4.15 2.6 4.25 2.65 Q4.75 2.9 4.75 3.55 L4.75 3.7 4.6 3.6 4.55 3.65 4.55 3.6 Q4.55 2.95 3.85 2.75 L-0.25 2.3 Q-0.3 2.75 -0.95 2.85 L-1.1 3.55 -1.3 3.5 -1.3 4.05 -1.25 4.2 -1.25 4.35 -1.2 4.7 -1.1 4.7 -1.1 5.2 -0.75 5.65 Q0.1 6.2 3.15 6.2 3.95 6.2 4.3 5.1 L4.45 4.55 4.75 4.3 Q4.55 6.4 3.15 6.4 -0.15 6.4 -1.0 5.75 L-1.2 5.55 -1.25 5.6 Q-1.25 5.9 -1.4 6.0 L-1.5 6.0 -1.55 5.9 -1.5 5.75 -1.55 5.75 -3.05 5.95 -3.3 5.7 -3.4 5.8 -3.4 5.95 -4.5 5.95 Q-6.65 5.95 -7.15 5.2 L-7.3 4.15 -7.25 3.85 Q-7.2 3.85 -7.1 3.95 L-7.1 4.15 -6.95 5.1 Q-6.45 5.75 -4.35 5.75 L-1.5 5.4 -1.5 4.1 -1.55 4.1 -1.55 3.75 -1.3 3.45 -1.55 3.2 -1.6 3.2 -1.65 2.8 -1.9 2.6 -1.95 2.25 -1.9 2.15 -4.45 2.0 -6.2 2.1 -6.25 2.3 -6.5 2.65 -6.9 3.1 -6.95 3.25 -7.15 3.2 -6.95 2.8 -7.0 2.5 -6.8 0.6 -6.85 0.6 -7.75 0.75 -8.45 0.8 -9.45 0.7 Q-9.7 0.55 -9.9 0.55 L-9.9 0.65 -11.8 0.4 -13.15 0.2 -13.35 0.0 -13.2 0.0 -11.85 0.15 -10.15 0.35 -10.05 0.4 -9.75 0.45 -8.4 0.6 -7.0 0.45 -7.0 0.35 -6.7 0.35 Q-6.15 -0.7 -4.25 -0.7 L-2.8 -0.45 -1.6 -0.2 -1.4 -1.75 -1.15 -1.75 -1.05 -0.1 2.0 -0.35 Q3.45 -0.35 4.1 0.5 L4.25 0.7 12.5 0.5 14.1 0.65 14.8 0.0 Q15.75 -0.95 15.75 -1.35 L13.1 -4.7 13.2 -4.9 12.65 -5.25 10.8 -7.25 10.75 -7.3 10.75 -7.25 M4.2 -8.55 L4.1 -8.35 2.9 -8.65 1.2 -8.85 0.8 -9.05 0.75 -8.85 -0.55 -8.9 -3.2 -8.7 -3.75 -8.45 Q-3.75 -8.25 -5.9 -7.45 L-6.2 -7.55 -4.0 -8.45 -4.05 -8.55 Q-4.05 -9.05 -0.4 -9.15 L3.8 -8.65 4.2 -8.55 M10.0 -7.6 L9.45 -4.55 9.55 -4.45 9.25 -3.65 9.3 -3.55 10.05 -3.4 Q10.75 -3.4 10.75 -4.35 L10.65 -7.45 10.55 -7.55 10.6 -7.6 10.65 -7.55 10.6 -8.1 10.35 -9.25 10.0 -7.7 10.0 -7.6 M1.75 -5.45 Q1.05 -6.35 0.0 -6.35 -0.95 -6.35 -1.4 -5.7 L-1.75 -4.8 Q-1.75 -4.05 -1.25 -3.4 -0.55 -2.45 0.85 -2.45 2.25 -2.45 2.25 -4.25 L1.75 -5.45 M2.2 -3.1 Q1.8 -2.2 0.85 -2.2 -0.65 -2.2 -1.4 -3.3 -1.95 -4.05 -1.95 -4.8 -1.95 -6.55 0.25 -6.45 2.45 -6.35 2.45 -4.3 L2.2 -3.1 M19.7 -4.3 L19.75 -4.3 21.1 -4.0 23.3 -3.75 25.5 -3.85 25.5 -3.95 25.6 -4.0 25.8 -3.85 Q26.6 -3.85 26.6 -4.55 26.6 -5.4 25.95 -5.7 L22.75 -6.1 20.25 -5.9 18.6 -5.7 17.3 -5.75 18.25 -5.1 19.7 -4.3 M27.15 -2.05 L28.0 0.15 28.45 2.9 28.45 3.3 29.7 2.95 Q31.35 2.55 31.35 2.1 30.7 -3.05 30.1 -3.05 L27.15 -2.05 M23.7 4.3 L23.85 4.4 23.9 4.75 23.65 5.3 23.6 5.3 23.6 5.35 23.25 5.6 21.95 6.05 Q17.95 6.05 17.95 5.0 17.95 3.85 19.25 3.95 L21.2 3.8 23.35 4.05 23.7 4.3 M24.1 6.25 L24.4 6.55 24.15 6.55 20.8 7.15 Q17.35 8.05 15.4 8.8 L15.0 8.8 14.95 8.65 21.15 6.9 24.1 6.25 M23.7 4.75 Q23.7 4.4 22.9 4.3 L19.25 4.15 Q18.15 4.2 18.15 4.95 18.15 5.8 21.95 5.8 22.55 5.8 23.15 5.4 L23.7 4.75 M-21.3 -2.45 L-21.4 -2.45 Q-21.5 -1.65 -23.25 0.5 L-25.4 2.9 -27.7 5.55 -29.95 7.6 Q-29.6 7.6 -29.35 7.9 L-27.35 5.75 -23.95 2.25 -21.4 -0.7 -19.65 -3.2 -20.7 -2.8 Q-20.95 -2.45 -21.3 -2.45 M-21.65 -2.7 L-22.3 -3.25 Q-23.05 -3.75 -23.6 -3.75 -24.95 -3.75 -26.8 -1.9 -28.3 -0.4 -28.75 0.7 L-28.75 1.25 Q-28.75 2.3 -29.4 3.35 L-31.05 5.5 -31.1 5.5 -31.3 7.1 -31.2 7.9 -30.55 7.75 -30.25 7.65 -28.65 6.05 -25.55 2.75 Q-21.6 -1.4 -21.6 -2.55 L-21.65 -2.7 M-16.25 -6.5 L-16.9 -5.45 -16.85 -5.25 -16.4 -5.05 -15.5 -4.95 -14.6 -5.15 Q-14.2 -5.3 -14.2 -5.45 L-15.5 -7.35 -16.25 -6.5 M-19.4 -3.3 Q-20.3 -1.3 -23.75 2.35 L-26.25 5.25 -27.9 6.75 -29.25 8.15 -28.85 8.45 -28.7 8.45 -28.7 8.4 -28.65 8.45 -28.4 8.3 -28.45 8.3 -28.5 8.15 -24.65 4.2 Q-20.4 -0.3 -18.75 -3.35 L-18.75 -3.4 -19.3 -3.4 -19.4 -3.3 M-14.05 -5.2 L-13.2 -5.45 -14.0 -5.55 -14.0 -5.45 -14.05 -5.2 M-1.8 1.3 L-1.6 0.15 -1.6 0.0 -1.75 0.0 -4.3 -0.45 Q-5.95 -0.45 -6.5 0.35 L-6.6 0.55 -6.75 1.5 -6.8 1.6 -6.75 1.65 -6.75 1.8 -6.75 2.5 -6.5 2.25 -6.0 1.9 -5.7 1.8 -4.35 1.75 -3.0 1.75 -1.9 1.9 -1.9 1.85 -1.7 1.75 -1.65 1.65 -1.8 1.3 M-1.55 2.0 L-1.7 2.15 -1.75 2.25 -1.75 2.45 -1.6 2.55 -1.6 2.5 -1.45 2.6 -1.3 2.6 -1.2 2.6 Q-0.45 2.6 -0.5 2.2 L-0.85 1.6 -1.2 0.65 Q-1.2 -0.55 -1.35 -0.9 L-1.4 1.75 -1.55 2.0 M-1.2 2.85 L-1.25 2.85 -1.25 2.95 -1.2 2.85" fill="#000000" fill-rule="evenodd" stroke="none"/>
    <path d="M10.0 -7.6 L10.0 -7.7 10.35 -9.25 10.6 -8.1 10.65 -7.55 10.6 -7.6 10.55 -7.55 10.65 -7.45 10.75 -4.35 Q10.75 -3.4 10.05 -3.4 L9.3 -3.55 9.25 -3.65 9.55 -4.45 9.45 -4.55 10.0 -7.6 M1.2 -5.0 L0.95 -5.45 0.9 -5.65 Q0.75 -5.9 0.2 -5.9 -0.9 -5.85 -0.9 -5.2 L-0.85 -4.8 Q-0.7 -4.4 -0.05 -4.4 L0.65 -4.55 Q1.2 -4.65 1.2 -5.0 M1.75 -5.45 L2.25 -4.25 Q2.25 -2.45 0.85 -2.45 -0.55 -2.45 -1.25 -3.4 -1.75 -4.05 -1.75 -4.8 L-1.4 -5.7 Q-0.95 -6.35 0.0 -6.35 1.05 -6.35 1.75 -5.45" fill="#bcb4a0" fill-rule="evenodd" stroke="none"/>
    <path d="M4.55 -8.45 L4.65 -8.25 7.85 -7.6 9.1 -7.55 9.65 -7.55 9.35 -6.15 9.05 -3.85 9.15 -3.4 Q9.35 -3.15 10.05 -3.15 10.95 -3.15 10.95 -4.35 L10.75 -7.25 10.8 -7.25 12.65 -5.25 13.2 -4.9 13.1 -4.7 13.05 -4.7 12.4 -4.65 12.35 -4.45 12.6 -3.3 Q12.6 -2.7 12.25 -2.2 11.8 -1.55 11.0 -1.55 10.65 -1.55 10.35 -1.8 L8.15 -2.05 6.95 -2.05 6.2 -2.05 6.05 -2.05 6.05 -2.1 5.7 -2.25 5.2 -2.5 4.8 -3.05 4.6 -3.75 4.8 -4.5 4.95 -5.2 4.1 -8.35 4.2 -8.55 4.45 -8.65 4.55 -8.45 M-9.75 0.45 L-10.05 0.4 -10.15 0.3 -10.15 0.35 -11.85 0.15 -13.2 0.0 -13.35 0.0 -13.4 -0.05 -13.4 0.0 -14.2 -0.15 -16.5 -0.3 -15.1 -4.6 -9.8 -6.05 -9.75 -6.05 -9.7 -6.0 -9.65 -6.05 -9.35 -5.4 -9.15 -4.95 -9.25 -4.7 Q-9.15 -4.65 -9.4 -4.65 L-9.55 -4.7 -10.7 -3.9 Q-12.15 -3.15 -12.15 -2.65 -12.15 -1.7 -10.6 -1.5 -9.05 -1.3 -9.05 -0.6 -9.05 -0.25 -9.2 0.05 -9.4 0.45 -9.75 0.45" fill="#928465" fill-rule="evenodd" stroke="none"/>
    <path d="M-6.45 -7.2 L-6.35 -7.5 -6.3 -7.6 -6.2 -7.55 -5.9 -7.45 Q-3.75 -8.25 -3.75 -8.45 L-3.2 -8.7 -0.55 -8.9 0.75 -8.85 0.8 -9.05 1.2 -8.85 1.45 -8.45 Q1.45 -7.55 0.55 -7.4 L-2.75 -6.45 -3.9 -5.05 Q-5.0 -3.8 -6.0 -3.8 -6.7 -3.8 -6.85 -4.3 L-6.9 -4.85 -6.85 -5.15 -7.05 -5.4 -6.85 -6.4 -6.45 -7.2" fill="#696049" fill-rule="evenodd" stroke="none"/>
    <path d="M13.1 -4.7 L15.75 -1.35 Q15.75 -0.95 14.8 0.0 L14.1 0.65 12.5 0.5 4.25 0.7 4.1 0.5 Q3.45 -0.35 2.0 -0.35 L-1.05 -0.1 -1.15 -1.75 -1.4 -1.75 -1.6 -0.2 -2.8 -0.45 -4.25 -0.7 Q-6.15 -0.7 -6.7 0.35 L-7.0 0.35 -7.0 0.45 -8.4 0.6 -9.75 0.45 Q-9.4 0.45 -9.2 0.05 -9.05 -0.25 -9.05 -0.6 -9.05 -1.3 -10.6 -1.5 -12.15 -1.7 -12.15 -2.65 -12.15 -3.15 -10.7 -3.9 L-9.55 -4.7 -9.4 -4.65 Q-9.15 -4.65 -9.25 -4.7 L-9.15 -4.95 -9.35 -5.4 -9.65 -6.05 -9.7 -6.0 -9.75 -6.05 -6.45 -7.2 -6.85 -6.4 -7.05 -5.4 -6.85 -5.15 -6.9 -4.85 -6.85 -4.3 Q-6.7 -3.8 -6.0 -3.8 -5.0 -3.8 -3.9 -5.05 L-2.75 -6.45 0.55 -7.4 Q1.45 -7.55 1.45 -8.45 L1.2 -8.85 2.9 -8.65 4.1 -8.35 4.95 -5.2 4.8 -4.5 4.6 -3.75 4.8 -3.05 5.2 -2.5 5.7 -2.25 6.05 -2.1 6.05 -2.05 6.2 -2.05 6.95 -2.05 8.15 -2.05 10.35 -1.8 Q10.65 -1.55 11.0 -1.55 11.8 -1.55 12.25 -2.2 12.6 -2.7 12.6 -3.3 L12.35 -4.45 12.4 -4.65 13.05 -4.7 13.1 -4.7 M-10.05 0.4 L-10.15 0.35 -10.15 0.3 -10.05 0.4 M2.2 -3.1 L2.45 -4.3 Q2.45 -6.35 0.25 -6.45 -1.95 -6.55 -1.95 -4.8 -1.95 -4.05 -1.4 -3.3 -0.65 -2.2 0.85 -2.2 1.8 -2.2 2.2 -3.1 M19.7 -4.3 L18.25 -5.1 17.3 -5.75 18.6 -5.7 20.25 -5.9 22.75 -6.1 25.95 -5.7 Q26.6 -5.4 26.6 -4.55 26.6 -3.85 25.8 -3.85 L25.6 -4.0 25.5 -3.95 25.5 -3.85 23.3 -3.75 21.1 -4.0 19.75 -4.3 19.7 -4.3 M-19.4 -3.3 L-19.3 -3.4 -18.75 -3.4 -18.75 -3.35 Q-20.4 -0.3 -24.65 4.2 L-28.5 8.15 -28.45 8.3 -28.4 8.3 -28.65 8.45 -28.7 8.4 -28.7 8.45 -28.85 8.45 -29.25 8.15 -27.9 6.75 -26.25 5.25 -23.75 2.35 Q-20.3 -1.3 -19.4 -3.3" fill="#aba085" fill-rule="evenodd" stroke="none"/>
    <path d="M1.2 -5.0 Q1.2 -4.65 0.65 -4.55 L-0.05 -4.4 Q-0.7 -4.4 -0.85 -4.8 L-0.9 -5.2 Q-0.9 -5.85 0.2 -5.9 0.75 -5.9 0.9 -5.65 L0.95 -5.45 1.2 -5.0" fill="#edeae7" fill-rule="evenodd" stroke="none"/>
    <path d="M-13.15 0.2 L-11.8 0.4 -9.9 0.65 -9.8 1.05 -9.55 2.0 -9.45 2.25 Q-10.4 4.35 -10.4 6.0 -10.4 6.75 -10.05 7.05 -9.4 7.6 -7.35 7.6 L-6.2 7.4 -5.35 7.2 -3.25 7.15 Q-2.9 7.05 -2.9 6.3 L-3.05 5.95 -1.55 5.75 -1.55 5.9 -1.5 6.0 -1.4 6.0 Q-1.25 5.9 -1.25 5.6 L-1.2 5.55 -1.0 5.75 Q-0.15 6.4 3.15 6.4 4.55 6.4 4.75 4.3 L4.85 3.9 4.75 3.7 4.75 3.55 Q4.75 2.9 4.25 2.65 L4.15 2.6 4.3 2.35 4.55 2.3 4.6 2.05 4.55 1.9 4.55 1.85 4.4 1.0 8.2 0.9 8.2 1.05 Q9.85 1.8 9.85 2.4 L9.6 3.45 Q9.6 3.9 10.05 4.4 10.8 5.2 12.4 5.2 13.4 5.2 14.5 3.85 15.7 2.35 16.15 2.2 18.0 1.6 18.7 0.9 19.35 0.3 19.35 -0.75 19.35 -1.9 18.7 -2.5 17.7 -3.4 15.7 -2.25 L15.1 -3.05 13.75 -4.6 11.45 -6.9 16.8 -5.7 16.95 -5.7 19.6 -4.0 19.95 -4.0 21.7 -3.65 21.7 -3.05 Q21.9 -2.85 22.15 -2.8 L22.35 -2.5 22.75 -2.05 22.85 -2.05 22.9 -2.0 23.35 -1.05 Q23.35 -0.7 22.55 0.05 21.7 0.8 21.7 1.4 21.7 2.3 22.65 2.7 23.6 3.15 23.6 3.55 L23.35 4.05 23.6 4.2 23.7 4.3 23.35 4.05 21.2 3.8 19.25 3.95 Q17.95 3.85 17.95 5.0 17.95 6.05 21.95 6.05 L23.25 5.6 23.6 5.35 Q23.6 5.7 24.1 6.25 L21.15 6.9 14.95 8.65 15.0 8.8 15.4 8.8 Q17.35 8.05 20.8 7.15 L24.15 6.55 24.4 6.55 24.45 6.6 24.6 6.55 26.1 6.35 26.1 6.55 Q22.8 7.75 20.0 8.85 L20.05 8.95 19.95 9.0 19.75 9.05 19.2 9.2 19.2 9.3 13.15 9.3 13.2 8.85 Q13.2 8.35 12.8 8.1 12.45 7.85 11.25 7.5 10.05 7.15 9.7 6.65 L9.0 5.85 Q7.45 5.0 6.95 6.45 6.35 8.3 4.75 8.3 L2.75 8.1 0.95 8.5 0.75 8.65 Q0.25 8.8 0.1 9.3 L-18.75 9.3 -18.55 8.75 Q-18.55 8.1 -19.55 7.65 -20.55 7.25 -20.55 6.85 L-20.5 6.5 Q-20.35 6.2 -19.8 6.2 L-18.0 6.65 -15.75 7.1 Q-13.8 7.1 -13.8 5.8 -13.8 4.3 -16.1 4.4 -18.65 4.5 -19.1 3.2 L-19.4 1.5 Q-19.55 0.5 -20.15 -0.15 L-20.3 -0.05 -20.4 -0.05 -20.4 -0.1 Q-18.55 -2.35 -18.55 -3.25 L-18.55 -3.45 -17.45 -5.0 -16.95 -5.1 -16.75 -5.0 -15.5 -4.7 -15.4 -4.7 -15.45 -4.65 -15.4 -4.55 -15.35 -4.55 -16.2 -2.8 -16.2 -2.75 Q-17.4 -2.45 -18.05 -1.6 -18.55 -0.95 -18.55 -0.25 -18.55 0.3 -17.95 1.1 -17.05 2.35 -15.45 2.35 -14.2 2.35 -13.5 1.8 -12.9 1.35 -12.9 0.6 L-13.15 0.2 M9.2 0.9 L9.35 0.9 9.3 0.95 9.2 0.9 M0.9 9.3 L0.85 9.3 0.9 9.25 0.9 9.3" fill="#797953" fill-rule="evenodd" stroke="none"/>
    <path d="M-9.9 0.65 L-9.9 0.55 Q-9.7 0.55 -9.45 0.7 L-8.45 0.8 -7.75 0.75 -6.85 0.6 -6.8 0.6 -7.0 2.5 -6.95 2.8 -7.15 3.2 -7.3 3.2 -7.3 3.8 -7.25 3.85 -7.3 4.15 -7.15 5.2 Q-6.65 5.95 -4.5 5.95 L-3.4 5.95 -3.4 5.8 -3.3 5.7 -3.05 5.95 -2.9 6.3 Q-2.9 7.05 -3.25 7.15 L-5.35 7.2 -6.2 7.4 -7.35 7.6 Q-9.4 7.6 -10.05 7.05 -10.4 6.75 -10.4 6.0 -10.4 4.35 -9.45 2.25 L-9.55 2.0 -9.8 1.05 -9.9 0.65 M8.2 0.9 L8.2 0.75 8.55 0.7 9.2 0.9 9.3 0.95 9.35 0.9 10.0 0.85 12.45 0.75 13.4 0.8 13.5 0.85 13.9 0.85 13.8 0.95 13.85 1.05 14.15 0.85 14.25 0.85 14.25 0.8 Q15.95 -0.4 15.95 -1.35 L15.8 -2.0 15.6 -2.2 15.7 -2.25 Q17.7 -3.4 18.7 -2.5 19.35 -1.9 19.35 -0.75 19.35 0.3 18.7 0.9 18.0 1.6 16.15 2.2 15.7 2.35 14.5 3.85 13.4 5.2 12.4 5.2 10.8 5.2 10.05 4.4 9.6 3.9 9.6 3.45 L9.85 2.4 Q9.85 1.8 8.2 1.05 L8.2 0.9 M-18.75 9.3 L-18.95 9.35 -19.2 9.3 -27.95 9.3 -28.25 8.9 -28.45 8.6 -28.2 8.35 -27.9 7.95 -27.95 7.9 -22.9 2.7 -20.55 0.1 -20.55 -0.1 -20.4 -0.05 -20.3 -0.05 -20.15 -0.15 Q-19.55 0.5 -19.4 1.5 L-19.1 3.2 Q-18.65 4.5 -16.1 4.4 -13.8 4.3 -13.8 5.8 -13.8 7.1 -15.75 7.1 L-18.0 6.65 -19.8 6.2 Q-20.35 6.2 -20.5 6.5 L-20.55 6.85 Q-20.55 7.25 -19.55 7.65 -18.55 8.1 -18.55 8.75 L-18.75 9.3 M23.7 4.75 L23.15 5.4 Q22.55 5.8 21.95 5.8 18.15 5.8 18.15 4.95 18.15 4.2 19.25 4.15 L22.9 4.3 Q23.7 4.4 23.7 4.75 M-16.25 -6.5 L-15.5 -7.35 -14.2 -5.45 Q-14.2 -5.3 -14.6 -5.15 L-15.5 -4.95 -16.4 -5.05 -16.85 -5.25 -16.9 -5.45 -16.25 -6.5" fill="#453a2e" fill-rule="evenodd" stroke="none"/>
    <path d="M-13.35 0.0 L-13.15 0.2 -12.9 0.6 Q-12.9 1.35 -13.5 1.8 -14.2 2.35 -15.45 2.35 -17.05 2.35 -17.95 1.1 -18.55 0.3 -18.55 -0.25 -18.55 -0.95 -18.05 -1.6 -17.4 -2.45 -16.2 -2.75 L-16.15 -2.8 -16.05 -2.55 -16.25 -2.35 -16.7 -0.55 -16.7 -0.05 -16.55 -0.05 -16.5 -0.15 -13.6 0.15 -13.65 0.1 -13.4 0.0 -13.4 -0.05 -13.35 0.0 M21.7 -3.65 L23.65 -3.55 25.55 -3.6 25.6 -3.6 Q25.9 -2.55 26.95 -2.1 L27.0 -2.05 27.65 0.15 28.25 2.9 28.25 3.35 28.05 3.4 28.1 3.5 28.2 3.55 27.55 5.85 27.5 5.8 24.6 6.15 24.7 6.4 24.6 6.55 24.45 6.6 24.4 6.55 24.1 6.25 Q23.6 5.7 23.6 5.35 L23.6 5.3 23.65 5.3 23.9 4.75 23.85 4.4 23.7 4.3 23.6 4.2 23.35 4.05 23.6 3.55 Q23.6 3.15 22.65 2.7 21.7 2.3 21.7 1.4 21.7 0.8 22.55 0.05 23.35 -0.7 23.35 -1.05 L22.9 -2.0 22.85 -2.05 22.75 -2.05 22.35 -2.5 22.15 -2.8 Q21.9 -2.85 21.7 -3.05 L21.7 -3.65 M13.15 9.3 L13.1 9.4 12.9 9.45 12.7 9.4 12.7 9.3 0.9 9.3 0.9 9.25 0.85 9.3 0.6 9.45 0.5 9.4 0.35 9.45 0.1 9.3 Q0.25 8.8 0.75 8.65 L0.95 8.5 2.75 8.1 4.75 8.3 Q6.35 8.3 6.95 6.45 7.45 5.0 9.0 5.85 L9.7 6.65 Q10.05 7.15 11.25 7.5 12.45 7.85 12.8 8.1 13.2 8.35 13.2 8.85 L13.15 9.3" fill="#aaab83" fill-rule="evenodd" stroke="none"/>
    <path d="M27.15 -2.05 L30.1 -3.05 Q30.7 -3.05 31.35 2.1 31.35 2.55 29.7 2.95 L28.45 3.3 28.45 2.9 28.0 0.15 27.15 -2.05" fill="#6a7a52" fill-rule="evenodd" stroke="none"/>
    <path d="M-1.55 5.75 L-1.5 5.75 -1.55 5.9 -1.55 5.75 M28.1 3.5 L28.2 3.5 28.2 3.55 28.1 3.5 M26.1 6.35 L27.5 5.95 27.5 6.05 26.1 6.55 26.1 6.35 M-27.9 7.95 L-28.0 7.9 -27.95 7.9 -27.9 7.95" fill="#8ba364" fill-rule="evenodd" stroke="none"/>
    <path d="M-6.95 3.25 L-6.9 3.1 -6.5 2.65 -6.25 2.3 -6.2 2.1 -4.45 2.0 -1.9 2.15 -1.95 2.25 -1.9 2.6 -1.65 2.8 -1.6 3.2 -2.05 3.45 -4.4 3.65 -6.7 3.35 Q-6.8 3.25 -6.95 3.25 M-1.1 3.55 L-0.95 2.85 Q-0.3 2.75 -0.25 2.3 L3.85 2.75 Q4.55 2.95 4.55 3.6 L4.55 3.65 3.85 4.3 Q3.15 4.8 1.8 4.8 0.25 4.8 -0.25 4.25 L-1.1 3.55 M4.05 2.35 L4.0 2.55 2.3 2.2 2.2 2.1 4.05 2.35 M-0.6 1.45 Q-1.0 0.85 -1.0 0.3 L-1.0 0.15 -0.95 0.1 1.9 -0.1 Q3.2 -0.1 3.85 0.55 L4.0 0.75 4.0 1.0 4.15 1.0 4.35 1.8 3.4 1.55 0.65 1.35 -0.4 1.35 -0.6 1.45 M-21.65 -2.7 L-21.6 -2.55 Q-21.6 -1.4 -25.55 2.75 L-28.65 6.05 -30.25 7.65 -30.55 7.75 -31.2 7.9 -31.3 7.1 -31.1 5.5 -31.05 5.5 -29.4 3.35 Q-28.75 2.3 -28.75 1.25 L-28.75 0.7 Q-28.3 -0.4 -26.8 -1.9 -24.95 -3.75 -23.6 -3.75 -23.05 -3.75 -22.3 -3.25 L-21.65 -2.7 M-21.3 -2.45 Q-20.95 -2.45 -20.7 -2.8 L-19.65 -3.2 -21.4 -0.7 -23.95 2.25 -27.35 5.75 -29.35 7.9 Q-29.6 7.6 -29.95 7.6 L-27.7 5.55 -25.4 2.9 -23.25 0.5 Q-21.5 -1.65 -21.4 -2.45 L-21.3 -2.45 M-6.75 1.5 L-6.6 0.55 -6.5 0.35 Q-5.95 -0.45 -4.3 -0.45 L-1.75 0.0 -1.6 0.0 -1.6 0.15 -1.8 1.3 Q-2.4 0.2 -4.45 0.6 -6.6 1.0 -6.75 1.5 M-6.75 1.8 L-6.75 1.65 -6.7 1.8 -6.75 1.8" fill="#4e5a5c" fill-rule="evenodd" stroke="none"/>
    <path d="M-7.15 3.2 L-6.95 3.25 Q-6.8 3.25 -6.7 3.35 L-4.4 3.65 -2.05 3.45 -1.6 3.2 -1.55 3.2 -1.3 3.45 -1.55 3.75 -1.55 4.1 -1.5 4.1 -1.5 5.4 -4.35 5.75 Q-6.45 5.75 -6.95 5.1 L-7.1 4.15 -7.1 3.95 Q-7.2 3.85 -7.25 3.85 L-7.3 3.8 -7.3 3.2 -7.15 3.2 M4.75 4.3 L4.45 4.55 4.3 5.1 Q3.95 6.2 3.15 6.2 0.1 6.2 -0.75 5.65 L-1.1 5.2 -1.1 4.7 -1.2 4.7 -1.25 4.35 -1.25 4.2 -1.3 4.05 -1.3 3.5 -1.1 3.55 -0.25 4.25 Q0.25 4.8 1.8 4.8 3.15 4.8 3.85 4.3 L4.55 3.65 4.6 3.6 4.75 3.7 4.85 3.9 4.75 4.3 M4.3 2.35 L4.25 2.35 4.05 2.35 2.2 2.1 2.3 2.2 -0.25 2.1 -0.35 1.85 -0.55 1.85 -0.65 1.6 -0.6 1.45 -0.4 1.35 0.65 1.35 3.4 1.55 4.35 1.8 4.55 1.9 4.6 2.05 4.55 2.3 4.3 2.35 M-6.75 1.5 Q-6.6 1.0 -4.45 0.6 -2.4 0.2 -1.8 1.3 L-1.65 1.65 -1.7 1.75 -1.9 1.85 -1.9 1.9 -3.0 1.75 -4.35 1.75 -5.7 1.8 -6.0 1.9 -6.5 2.25 -6.75 2.5 -6.75 1.8 -6.7 1.8 -6.75 1.65 -6.8 1.6 -6.75 1.5" fill="#2b3233" fill-rule="evenodd" stroke="none"/>
    <path d="M-1.55 2.0 L-1.4 1.75 -1.35 -0.9 Q-1.2 -0.55 -1.2 0.65 L-0.85 1.6 -0.5 2.2 Q-0.45 2.6 -1.2 2.6 L-1.3 2.6 -1.45 2.6 -1.6 2.5 -1.6 2.55 -1.75 2.45 -1.75 2.25 -1.7 2.15 -1.55 2.0" fill="#5f707a" fill-rule="evenodd" stroke="none"/>
  </g>
</svg>
