<?xml version="1.0" encoding="UTF-8" standalone="no"?>
<svg xmlns:xlink="http://www.w3.org/1999/xlink" height="38.95px" width="35.9px" xmlns="http://www.w3.org/2000/svg">
  <g transform="matrix(1.0, 0.0, 0.0, 1.0, 130.15, 59.0)">
    <path d="M-100.2 -55.65 L-99.9 -53.8 -99.6 -52.3 -98.85 -49.0 -98.5 -47.7 -98.0 -45.75 -97.95 -45.75 -97.9 -45.6 -97.9 -44.65 -97.85 -44.3 -98.0 -43.65 -98.2 -42.6 -99.2 -42.5 -99.4 -43.0 -99.45 -42.95 -99.65 -43.25 -100.15 -43.4 -100.3 -44.05 -100.25 -44.1 -100.05 -44.2 -100.0 -44.4 -100.45 -45.1 -100.2 -45.0 -99.95 -45.05 -99.9 -45.25 -99.95 -45.55 Q-99.5 -45.65 -99.5 -46.0 L-99.5 -46.05 -99.4 -46.25 -99.8 -49.6 -100.25 -55.6 -100.2 -55.65 M-110.9 -38.1 L-111.0 -38.35 -111.15 -38.75 -121.05 -40.75 -113.1 -40.75 -112.75 -40.35 -112.55 -40.45 -112.5 -40.6 -112.4 -40.6 -112.2 -40.7 -112.15 -40.75 -111.85 -40.75 -111.75 -41.0 -111.85 -41.25 -111.4 -41.1 Q-111.25 -41.1 -111.2 -41.2 L-111.15 -41.2 -110.6 -41.1 -110.55 -41.1 -110.5 -41.1 -110.25 -41.35 -110.35 -41.55 -108.0 -41.7 Q-107.65 -41.75 -107.65 -42.1 -107.35 -41.85 -107.15 -41.85 L-106.9 -42.0 -106.9 -42.3 -106.85 -42.35 -106.5 -42.0 -105.45 -41.0 Q-105.3 -41.0 -105.2 -41.1 L-105.15 -41.1 -104.8 -41.25 -104.8 -41.35 -104.75 -41.35 -104.45 -41.45 -104.35 -41.55 -104.25 -41.5 -104.15 -41.5 -103.9 -41.15 Q-103.65 -40.85 -103.4 -40.85 L-103.15 -41.05 -103.0 -40.85 -102.9 -40.75 -103.25 -40.3 -103.0 -40.0 Q-102.9 -40.2 -102.65 -40.2 L-102.45 -40.1 -102.55 -39.6 -102.5 -38.0 -102.5 -37.95 -104.25 -37.4 -105.45 -36.8 -105.5 -36.85 -105.6 -37.1 -106.0 -37.05 -106.35 -37.35 -106.85 -37.15 -107.7 -37.0 -107.7 -37.05 -107.25 -38.1 -107.5 -38.35 -107.6 -38.45 -109.0 -38.1 -110.25 -37.65 -110.3 -37.6 -110.5 -37.5 -110.6 -37.55 -110.9 -38.1 M-98.55 -37.35 L-98.3 -37.1 -98.25 -37.15 -97.95 -36.9 -97.95 -36.75 -97.5 -36.3 -97.6 -36.3 -98.0 -36.6 -97.65 -36.25 -97.05 -35.45 -97.05 -35.4 -96.85 -34.95 -97.15 -34.8 -97.8 -35.3 -97.7 -34.8 -97.75 -34.6 -97.95 -34.45 -97.95 -34.15 -97.95 -34.1 -97.95 -33.85 -97.95 -33.75 -97.95 -33.65 -98.3 -32.3 -98.9 -30.95 -99.0 -31.05 -99.15 -30.45 -99.3 -29.55 Q-99.65 -29.7 -99.7 -30.3 L-99.7 -30.35 -99.7 -30.5 -99.6 -32.25 -99.3 -33.5 -99.55 -35.0 -99.3 -35.45 -98.85 -36.1 -98.95 -36.5 -98.9 -36.5 -99.05 -36.85 -99.0 -37.1 -98.5 -36.9 -98.7 -37.2 -98.7 -37.15 -98.75 -37.25 -98.65 -37.35 -98.55 -37.35 M-110.3 -37.9 L-110.25 -38.05 -110.5 -38.35 -110.3 -37.9" fill="#ffffff" fill-rule="evenodd" stroke="none"/>
    <path d="M-100.15 -59.0 L-99.35 -54.75 -98.6 -50.95 -98.2 -49.0 -97.9 -47.75 -97.85 -48.1 Q-97.8 -50.75 -97.25 -52.0 -97.0 -51.65 -97.0 -50.4 L-97.0 -49.85 -97.0 -49.45 -97.0 -48.8 -97.1 -46.95 -97.2 -45.95 -97.15 -45.8 -97.2 -44.85 -97.15 -44.6 -97.3 -44.4 -97.35 -44.0 -97.4 -43.75 -97.45 -43.7 -97.55 -43.25 -97.15 -43.55 -96.15 -44.1 -95.9 -43.85 -96.45 -43.3 Q-96.8 -42.9 -97.65 -42.75 L-97.8 -41.85 -98.0 -41.75 -98.2 -42.05 -98.7 -42.05 -98.55 -41.95 -98.15 -41.4 -98.2 -41.2 -98.4 -41.1 -98.75 -41.25 -99.2 -41.4 -99.3 -41.25 Q-99.45 -41.1 -99.75 -41.1 L-100.25 -41.15 -100.25 -41.6 -100.55 -41.85 -100.85 -42.25 -101.0 -42.3 -101.0 -42.5 -103.55 -42.75 -103.65 -43.0 Q-103.65 -43.3 -103.0 -43.2 L-101.0 -42.9 -101.0 -43.45 -100.85 -43.45 -100.75 -43.65 -101.25 -44.75 -101.2 -45.0 -101.1 -45.0 -101.15 -45.0 -101.4 -45.8 -100.95 -45.7 -101.5 -46.65 -101.4 -46.75 -100.8 -46.3 -101.05 -46.9 -101.25 -47.45 -101.2 -47.75 -101.0 -47.75 -100.15 -46.85 -100.15 -46.8 -100.1 -46.8 -100.1 -46.85 Q-100.6 -48.85 -100.75 -55.65 -101.2 -57.55 -100.4 -57.9 L-100.15 -59.0 M-100.3 -44.05 L-100.15 -43.4 -99.65 -43.25 -99.45 -42.95 -99.4 -43.0 -99.2 -42.5 -98.2 -42.6 -98.0 -43.65 -97.85 -44.3 -97.9 -44.65 -97.9 -45.6 -97.95 -45.75 -98.0 -45.75 -98.5 -47.7 -98.85 -49.0 -99.6 -52.3 -99.9 -53.8 -100.2 -55.65 -100.25 -56.0 -100.25 -55.6 -99.8 -49.6 -99.4 -46.25 -99.5 -46.05 -99.5 -46.0 Q-99.5 -45.65 -99.95 -45.55 L-99.9 -45.25 -99.95 -45.05 -100.2 -45.0 -100.45 -45.1 -100.0 -44.4 -100.05 -44.2 -100.25 -44.1 -100.35 -44.1 -100.3 -44.05 M-111.0 -38.35 L-123.35 -40.75 -127.0 -40.75 -130.05 -41.0 -130.15 -41.25 -128.15 -41.4 -119.2 -41.35 -113.55 -41.25 -115.15 -43.2 -113.05 -42.4 -111.8 -41.9 -110.35 -42.1 Q-109.35 -42.0 -108.0 -42.45 L-109.0 -43.85 -108.95 -44.0 Q-107.4 -44.2 -105.45 -41.65 L-105.75 -42.65 -106.15 -44.05 -106.4 -45.05 -106.15 -45.35 -105.3 -43.7 -104.45 -42.3 -104.45 -42.35 -104.8 -43.15 -105.15 -44.15 Q-104.5 -44.1 -103.95 -43.15 L-103.55 -42.55 Q-103.15 -42.1 -102.75 -41.95 L-102.65 -41.75 -102.7 -41.7 -102.15 -40.8 -102.0 -41.0 -101.75 -40.65 -101.75 -40.15 -101.8 -39.95 -102.0 -37.65 -102.25 -37.5 -102.35 -37.6 -105.7 -36.25 -105.9 -36.35 -106.15 -36.25 -106.45 -36.5 -106.45 -36.8 Q-107.15 -36.35 -108.25 -36.0 L-108.5 -36.3 -108.2 -37.35 -107.8 -38.05 Q-108.8 -37.55 -112.75 -35.6 L-113.0 -35.85 -112.35 -36.65 -112.25 -36.75 -112.35 -36.75 -112.4 -36.75 -112.5 -37.2 -111.15 -37.95 -111.15 -38.0 -111.1 -38.0 -110.9 -38.1 -110.6 -37.55 -110.5 -37.5 -110.3 -37.6 -110.25 -37.65 -109.0 -38.1 -107.6 -38.45 -107.5 -38.35 -107.25 -38.1 -107.7 -37.05 -107.7 -37.0 -106.85 -37.15 -106.35 -37.35 -106.0 -37.05 -105.6 -37.1 -105.5 -36.85 -105.5 -36.8 -105.45 -36.8 -104.25 -37.4 -102.5 -37.95 -102.5 -38.0 -102.55 -39.6 -102.45 -40.1 -102.65 -40.2 Q-102.9 -40.2 -103.0 -40.0 L-103.25 -40.3 -102.9 -40.75 -103.0 -40.85 -103.15 -41.05 -103.4 -40.85 Q-103.65 -40.85 -103.9 -41.15 L-104.15 -41.5 -104.25 -41.5 -104.35 -41.55 -104.45 -41.45 -104.75 -41.35 -104.8 -41.35 -104.8 -41.25 -105.15 -41.1 -105.2 -41.1 Q-105.3 -41.0 -105.45 -41.0 L-106.5 -42.0 -106.85 -42.35 -107.0 -42.5 -106.9 -42.3 -106.9 -42.0 -107.15 -41.85 Q-107.35 -41.85 -107.65 -42.1 -107.65 -41.75 -108.0 -41.7 L-110.35 -41.55 -110.25 -41.35 -110.5 -41.1 -110.55 -41.1 -110.6 -41.1 -111.15 -41.2 -111.2 -41.2 Q-111.25 -41.1 -111.4 -41.1 L-111.85 -41.25 -111.75 -41.0 -111.85 -40.75 -112.15 -40.75 -112.2 -40.7 -112.4 -40.6 -112.5 -40.6 -112.55 -40.45 -112.75 -40.35 -113.1 -40.75 -121.05 -40.75 -111.15 -38.75 -111.0 -38.35 M-111.85 -41.25 L-111.9 -41.35 -111.95 -41.25 -111.85 -41.25 M-99.85 -37.25 L-101.15 -37.0 -101.35 -37.2 Q-101.0 -37.65 -99.85 -37.7 L-99.65 -37.7 -99.35 -38.0 -98.65 -38.35 -98.45 -38.0 -98.1 -37.8 -97.7 -37.4 -95.85 -36.9 -95.75 -36.65 -96.75 -36.65 -95.3 -35.2 Q-94.15 -34.4 -94.25 -33.85 -94.3 -33.5 -94.7 -33.5 L-94.75 -33.45 Q-94.85 -33.35 -95.0 -33.35 L-95.9 -33.75 -96.6 -33.95 -96.05 -33.2 -96.1 -33.0 -96.35 -32.95 -97.4 -33.6 -97.5 -33.7 -97.95 -31.35 Q-98.45 -29.85 -99.1 -28.8 L-99.1 -24.6 Q-98.85 -24.6 -99.0 -23.05 L-99.15 -21.5 Q-99.3 -20.45 -99.65 -20.1 L-99.8 -20.05 -100.0 -25.95 -100.05 -30.3 -100.0 -32.75 -100.2 -33.0 -100.3 -33.45 -100.55 -33.35 Q-100.8 -33.55 -100.65 -34.5 -100.8 -34.4 -100.9 -34.4 L-101.05 -34.65 -101.25 -34.55 -101.45 -34.85 -100.45 -36.2 -99.55 -37.15 -99.85 -37.25 M-98.55 -37.35 L-98.4 -37.45 -98.45 -37.5 -98.55 -37.35 -98.65 -37.35 -98.75 -37.25 -98.7 -37.15 -98.7 -37.2 -98.5 -36.9 -99.0 -37.1 -99.05 -36.85 -98.9 -36.5 -98.95 -36.5 -98.85 -36.1 -99.3 -35.45 -99.55 -35.0 -99.3 -33.5 -99.6 -32.25 -99.7 -30.5 -99.7 -30.35 -99.7 -30.3 Q-99.65 -29.7 -99.3 -29.55 L-99.15 -30.45 -99.0 -31.05 -98.9 -30.95 -98.3 -32.3 -97.95 -33.65 -97.95 -33.75 -97.95 -33.85 -97.95 -34.1 -97.95 -34.15 -97.95 -34.45 -97.75 -34.6 -97.7 -34.8 -97.8 -35.3 -97.15 -34.8 -96.85 -34.95 -97.05 -35.4 -96.95 -35.35 -96.9 -35.6 -97.1 -35.65 -97.05 -35.6 -97.05 -35.45 -97.65 -36.25 -98.0 -36.6 -97.6 -36.3 -97.55 -36.2 -97.4 -36.2 -97.5 -36.3 -97.95 -36.75 -97.95 -36.9 -98.25 -37.15 -98.3 -37.1 -98.55 -37.35 M-97.4 -34.75 L-97.45 -34.8 -97.45 -34.75 -97.4 -34.75 M-108.05 -43.3 L-107.5 -42.95 -107.95 -43.3 -108.05 -43.3 M-110.3 -37.9 L-110.5 -38.35 -110.25 -38.05 -110.3 -37.9 M-113.15 -41.85 L-113.0 -41.65 -113.0 -41.8 -113.15 -41.85" fill="#ffff00" fill-rule="evenodd" stroke="none"/>
  </g>
</svg>
