<?xml version="1.0" encoding="UTF-8" standalone="no"?>
<svg xmlns:xlink="http://www.w3.org/1999/xlink" height="15.4px" width="37.0px" xmlns="http://www.w3.org/2000/svg">
  <g transform="matrix(1.0, 0.0, 0.0, 1.0, 18.5, 7.7)">
    <path d="M-16.55 4.05 L-15.3 5.55 -15.35 5.15 -15.5 4.15 Q-15.5 3.05 -14.0 1.7 L-13.85 1.45 -13.85 1.55 -13.75 1.45 -13.5 1.7 -13.8 2.1 -13.5 3.6 Q-13.0 5.25 -11.05 5.25 -8.5 5.25 -7.05 3.9 -6.0 2.95 -6.0 2.0 L-6.15 1.0 -6.35 -0.1 -6.3 -0.85 Q-5.05 -0.45 -4.65 0.5 -4.35 1.1 -4.35 2.25 L-4.35 2.9 -3.9 2.9 Q-2.3 2.9 -1.8 1.5 -1.55 0.8 -1.6 -0.1 -1.15 -1.0 -0.4 0.2 0.25 1.3 0.25 2.05 L0.1 2.7 0.15 3.0 0.0 3.95 0.8 4.15 Q2.7 4.15 3.25 2.35 3.8 0.55 8.1 0.55 L8.8 0.6 9.35 0.55 9.65 0.45 Q6.9 0.05 2.75 -1.85 L2.75 -2.15 3.15 -2.05 3.15 -2.3 2.7 -3.25 Q2.15 -4.2 1.7 -4.2 L0.05 -4.0 -0.4 -3.8 -0.5 -3.8 -1.9 -2.85 -3.1 -0.75 -3.3 -0.7 -3.6 -0.75 Q-3.65 -1.55 -2.7 -3.1 -2.4 -3.5 -2.35 -4.35 L-2.25 -4.85 Q-2.5 -5.45 -3.75 -5.45 -4.2 -5.45 -4.5 -4.75 -4.75 -4.1 -4.6 -3.75 L-4.6 -3.35 -4.35 -3.2 -4.6 -2.95 -4.8 -2.95 -4.85 -2.95 -4.9 -3.0 -5.1 -3.1 -6.15 -3.25 Q-9.15 -3.25 -9.4 -1.4 L-9.6 -1.3 Q-9.85 -1.3 -9.9 -1.45 L-9.95 -1.35 -10.1 -1.3 -10.2 -1.45 -10.25 -1.45 -10.5 -1.7 -10.45 -1.85 -10.9 -2.75 -11.6 -4.0 -11.75 -4.0 -11.8 -3.75 -12.05 -3.7 -14.15 -4.05 -14.25 -4.3 -14.15 -4.65 -16.15 -3.5 Q-17.25 -2.45 -17.25 -1.2 L-17.2 -1.15 -17.15 -1.15 -17.1 -1.2 -16.85 -0.85 -16.9 -0.45 -16.6 0.3 -16.9 0.55 -17.1 0.55 -16.8 2.15 -16.1 3.8 -16.2 4.0 -16.35 4.05 -16.5 4.05 -16.55 4.05 M-0.1 -4.75 L0.25 -4.7 0.65 -4.95 0.9 -4.7 0.8 -4.6 1.45 -4.4 Q3.65 -3.6 3.65 -2.25 L3.6 -1.95 6.5 -1.1 11.15 0.0 11.9 -0.2 14.25 -0.1 16.7 -0.15 16.75 0.15 16.75 0.3 18.4 0.2 18.5 0.45 18.4 0.7 15.4 0.95 13.0 0.95 12.9 0.7 12.5 0.8 12.8 0.8 12.9 1.05 12.8 1.3 11.65 1.3 10.05 1.05 9.95 1.05 9.3 1.2 9.1 1.2 8.8 1.25 3.75 2.7 3.7 2.65 3.55 2.9 Q2.8 4.7 0.85 4.7 L-0.25 4.5 -0.75 5.25 Q-2.0 7.05 -4.3 7.05 -5.35 7.05 -5.9 6.55 L-6.3 6.05 Q-8.35 7.7 -10.55 7.7 -12.6 7.7 -14.15 6.95 L-15.0 6.4 Q-16.25 5.5 -17.1 4.0 -17.75 3.7 -18.25 1.75 L-18.1 1.25 Q-18.5 -0.3 -18.5 -2.0 -18.5 -3.75 -17.7 -5.2 -16.25 -7.7 -12.9 -7.7 L-8.05 -7.4 -7.5 -6.9 -6.25 -7.25 Q-3.1 -7.2 -1.4 -6.35 -0.1 -5.65 -0.1 -4.8 L-0.1 -4.75 M-12.05 -5.1 L-12.1 -5.15 -12.2 -5.1 -12.05 -5.1 M7.55 1.05 Q5.05 1.15 4.05 2.15 5.05 1.65 7.55 1.05" fill="#cccccc" fill-rule="evenodd" stroke="none"/>
    <path d="M-16.5 4.05 L-16.35 4.05 -16.2 4.0 -16.1 3.8 -16.8 2.15 -17.1 0.55 -16.9 0.55 -16.6 0.3 -16.9 -0.45 -16.85 -0.85 -17.1 -1.2 -17.15 -1.15 -17.2 -1.15 -17.25 -1.2 Q-17.25 -2.45 -16.15 -3.5 L-14.15 -4.65 -14.25 -4.3 -14.15 -4.05 -12.05 -3.7 -11.8 -3.75 -11.75 -4.0 -11.6 -4.0 -10.9 -2.75 -10.45 -1.85 -10.5 -1.7 -10.25 -1.45 -10.2 -1.45 -10.1 -1.3 -9.95 -1.35 -9.9 -1.45 Q-9.85 -1.3 -9.6 -1.3 L-9.4 -1.4 Q-9.15 -3.25 -6.15 -3.25 L-5.1 -3.1 -4.9 -3.0 -4.85 -2.95 -4.8 -2.95 -4.6 -2.95 -4.35 -3.2 -4.6 -3.35 -4.6 -3.75 Q-4.75 -4.1 -4.5 -4.75 -4.2 -5.45 -3.75 -5.45 -2.5 -5.45 -2.25 -4.85 L-2.35 -4.35 Q-2.4 -3.5 -2.7 -3.1 -3.65 -1.55 -3.6 -0.75 L-3.3 -0.7 -3.1 -0.75 -1.9 -2.85 -0.5 -3.8 -0.4 -3.8 0.05 -4.0 1.7 -4.2 Q2.15 -4.2 2.7 -3.25 L3.15 -2.3 3.15 -2.05 2.75 -2.15 2.75 -1.85 Q6.9 0.05 9.65 0.45 L9.35 0.55 8.8 0.6 8.1 0.55 Q3.8 0.55 3.25 2.35 2.7 4.15 0.8 4.15 L0.0 3.95 0.15 3.0 0.1 2.7 0.25 2.05 Q0.25 1.3 -0.4 0.2 -1.15 -1.0 -1.6 -0.1 -1.55 0.8 -1.8 1.5 -2.3 2.9 -3.9 2.9 L-4.35 2.9 -4.35 2.25 Q-4.35 1.1 -4.65 0.5 -5.05 -0.45 -6.3 -0.85 L-6.35 -0.1 -6.15 1.0 -6.0 2.0 Q-6.0 2.95 -7.05 3.9 -8.5 5.25 -11.05 5.25 -13.0 5.25 -13.5 3.6 L-13.8 2.1 -13.5 1.7 -13.75 1.45 -13.85 1.55 -13.85 1.45 -14.0 1.7 Q-15.5 3.05 -15.5 4.15 L-15.35 5.15 -15.3 5.55 -16.55 4.05 -16.5 4.05" fill="#e6e6e6" fill-rule="evenodd" stroke="none"/>
  </g>
</svg>
