<?xml version="1.0" encoding="UTF-8" standalone="no"?>
<svg xmlns:xlink="http://www.w3.org/1999/xlink" height="48.15px" width="66.35px" xmlns="http://www.w3.org/2000/svg">
  <g transform="matrix(1.0, 0.0, 0.0, 1.0, 2.8, 45.6)">
    <path d="M11.2 -19.2 L11.2 -19.3 Q12.5 -18.0 13.4 -13.85 L14.2 -12.5 Q15.2 -11.3 16.7 -11.3 L16.85 -11.35 16.8 -11.6 Q18.05 -12.0 18.75 -12.85 19.35 -13.6 19.35 -14.3 L19.1 -15.45 19.2 -15.65 20.0 -15.1 Q20.7 -14.55 21.15 -14.55 23.05 -14.55 23.1 -15.25 23.2 -15.95 23.55 -15.95 L24.5 -15.25 Q25.5 -14.6 26.1 -14.6 27.9 -14.6 28.6 -16.4 28.95 -17.3 28.95 -18.25 L28.55 -19.7 28.6 -19.95 Q29.5 -20.0 30.1 -18.65 30.65 -17.45 30.65 -16.2 L30.5 -15.1 30.35 -14.15 30.6 -13.8 31.65 -13.65 31.75 -13.4 32.05 -13.3 Q32.35 -13.3 33.1 -14.25 33.85 -15.25 35.45 -15.25 L36.55 -15.15 37.4 -15.0 38.35 -14.95 Q39.95 -14.95 41.4 -16.3 L42.6 -17.7 43.3 -16.95 Q43.5 -16.65 44.5 -16.65 L45.2 -16.75 45.6 -17.0 45.85 -16.75 45.7 -16.45 Q47.4 -16.7 48.3 -18.0 48.85 -18.8 48.95 -19.7 L48.4 -21.6 47.8 -22.75 47.85 -22.9 Q49.15 -22.45 49.95 -20.0 50.55 -18.1 50.55 -16.35 L50.4 -15.6 Q50.4 -15.1 49.5 -13.8 48.55 -12.55 48.55 -11.85 L48.75 -10.9 48.9 -10.95 Q49.3 -10.95 50.4 -10.2 51.45 -9.45 54.0 -9.45 54.65 -9.45 54.8 -9.85 54.9 -10.25 55.15 -10.25 55.95 -10.25 57.05 -6.95 58.2 -3.7 59.85 -3.7 60.75 -3.7 60.85 -5.05 L60.45 -7.05 60.05 -9.6 Q60.05 -11.5 62.0 -14.25 L62.25 -14.0 61.8 -12.5 Q61.3 -11.15 61.3 -10.7 61.3 -8.45 62.45 -6.8 63.55 -5.15 63.55 -3.25 L63.1 -0.6 62.4 0.85 62.8 1.4 62.25 1.75 61.8 1.4 61.55 1.45 61.45 1.25 61.55 1.1 60.8 0.15 59.0 -2.15 57.7 -2.55 56.55 -2.75 55.95 -3.0 54.5 -3.55 52.9 -4.45 51.9 -5.25 49.65 -5.0 45.1 -6.85 Q39.75 -8.7 33.95 -8.7 L25.95 -8.4 18.3 -7.5 Q12.85 -6.15 9.6 -4.25 L7.6 -3.9 Q6.15 -3.85 4.8 -2.95 2.6 -1.65 2.1 -1.15 L0.75 0.85 -0.45 2.15 -0.5 2.5 -0.75 2.55 Q-2.15 2.55 -2.8 -0.45 L-2.4 -2.65 Q-2.05 -4.2 -2.05 -5.75 L-1.35 -9.55 Q-0.7 -12.3 -0.7 -13.0 L-0.9 -13.85 -0.75 -14.3 -0.75 -14.55 -0.7 -14.85 -0.65 -14.9 Q0.15 -14.25 0.35 -13.2 L0.7 -11.4 Q0.8 -10.65 1.5 -9.7 2.55 -8.3 4.1 -8.3 5.25 -8.3 5.6 -9.1 L6.05 -9.9 7.55 -9.7 Q8.5 -9.7 8.9 -10.1 L9.15 -10.3 9.85 -11.45 Q10.55 -12.35 10.55 -13.4 L10.3 -15.8 10.35 -17.35 11.0 -19.4 11.2 -19.2 M52.65 -43.85 L52.2 -44.95 52.15 -45.0 52.15 -44.95 52.6 -43.8 52.65 -43.85 M51.55 -45.45 Q52.4 -46.05 53.15 -43.85 53.7 -42.15 53.7 -41.1 L53.25 -39.6 Q52.8 -38.75 52.8 -38.3 L53.05 -37.8 52.65 -37.55 Q52.15 -37.55 51.6 -38.8 L51.15 -40.1 51.75 -41.25 Q52.3 -42.0 52.3 -43.05 L52.15 -44.1 51.55 -45.45 M48.75 -10.9 L48.8 -10.8 48.8 -10.9 48.75 -10.9 M-1.1 -36.1 L-1.0 -35.9 -1.35 -35.0 Q-1.75 -34.25 -1.75 -33.7 -1.75 -32.9 -0.85 -31.45 0.05 -29.95 0.05 -28.3 L-0.05 -27.2 -0.4 -27.15 -0.85 -28.5 -1.45 -29.95 -2.5 -31.4 -2.75 -32.75 Q-2.75 -33.75 -2.35 -34.9 -1.8 -36.35 -1.1 -36.1 M-2.2 -32.85 L-2.25 -32.9 -2.25 -32.85 -2.2 -32.85" fill="#ffff00" fill-rule="evenodd" stroke="none"/>
  </g>
</svg>
