<?xml version="1.0" encoding="UTF-8" standalone="no"?>
<svg xmlns:xlink="http://www.w3.org/1999/xlink" height="47.05px" width="64.3px" xmlns="http://www.w3.org/2000/svg">
  <g transform="matrix(1.0, 0.0, 0.0, 1.0, 2.35, 43.95)">
    <path d="M19.6 -19.75 L20.6 -20.65 20.15 -22.3 Q21.0 -22.45 21.4 -21.25 L21.7 -19.15 Q21.7 -18.05 21.3 -17.2 L20.15 -15.0 20.1 -15.0 20.1 -14.9 Q20.1 -14.35 20.65 -13.85 21.2 -13.3 22.0 -13.3 22.65 -13.3 23.0 -13.85 L23.7 -14.45 24.65 -13.95 Q25.25 -13.5 26.2 -13.5 28.35 -13.5 28.55 -16.15 L28.6 -19.45 28.75 -19.45 28.85 -19.3 29.1 -19.4 29.05 -18.9 29.55 -17.5 30.05 -15.9 29.9 -14.35 Q30.1 -13.15 31.65 -13.15 33.7 -13.15 34.3 -13.95 L35.0 -15.15 35.85 -14.25 Q36.55 -13.5 36.8 -13.5 38.6 -13.5 39.0 -14.65 L39.3 -17.5 40.3 -19.5 Q40.9 -20.75 40.9 -21.55 L40.55 -22.9 40.65 -23.05 40.85 -23.1 40.95 -22.8 41.1 -22.95 41.25 -21.9 41.3 -21.7 41.5 -21.05 41.85 -19.35 41.6 -18.3 41.35 -17.2 Q41.35 -15.25 44.45 -14.8 L46.4 -15.95 Q48.6 -17.55 48.6 -19.1 L48.35 -19.85 48.1 -20.5 48.15 -20.7 48.15 -20.75 48.2 -20.75 48.35 -20.9 48.5 -20.6 Q49.15 -20.3 49.6 -19.1 L50.05 -16.7 Q50.05 -15.25 48.85 -13.4 47.6 -11.6 47.6 -10.6 47.6 -10.15 48.15 -9.6 48.75 -8.95 49.35 -8.95 51.15 -8.95 51.6 -10.3 51.85 -11.0 51.7 -11.8 L51.75 -13.65 52.0 -13.75 52.65 -12.35 Q53.0 -11.35 53.3 -10.9 L54.8 -9.5 56.4 -8.1 Q57.4 -6.9 58.15 -4.3 58.7 -2.45 59.6 -2.45 60.8 -2.45 60.5 -3.8 L60.6 -3.9 61.65 -2.15 61.8 -0.55 61.65 0.35 61.85 0.65 61.8 0.95 61.6 1.0 61.3 1.05 61.1 1.0 61.1 0.95 60.35 0.5 59.85 -0.15 59.3 -0.7 58.35 -1.05 57.45 -1.15 56.1 -2.25 54.8 -3.4 Q53.6 -4.25 49.95 -5.15 L44.75 -6.0 Q43.55 -6.0 42.9 -6.55 L41.95 -7.1 41.1 -7.0 40.35 -6.8 35.25 -6.65 33.85 -6.9 32.3 -7.15 30.15 -6.75 28.35 -6.4 Q27.7 -6.4 27.35 -6.8 27.05 -7.25 26.65 -7.25 L23.0 -6.05 Q19.75 -4.9 18.3 -4.9 17.0 -4.9 15.75 -5.55 L14.1 -6.25 12.0 -5.6 Q10.4 -4.95 9.6 -4.95 8.1 -4.95 6.7 -4.1 L5.3 -3.05 3.4 -2.35 Q2.0 -1.85 1.65 -1.4 0.65 -0.1 -0.5 2.25 L-0.4 2.5 -0.65 2.75 -0.7 2.75 -0.9 3.1 -1.4 2.6 -1.6 2.0 -1.55 1.95 -2.0 0.35 Q-2.0 -0.45 -1.35 -1.4 -0.7 -2.4 -0.7 -3.9 -0.7 -5.4 -1.2 -7.0 L-1.7 -9.15 Q-1.7 -11.65 -0.65 -12.15 L-0.65 -12.45 -0.5 -12.55 -0.25 -12.55 -0.3 -11.45 Q-0.3 -10.7 0.5 -9.75 1.6 -8.45 3.4 -8.45 5.3 -8.45 5.55 -11.25 L5.55 -11.35 Q5.05 -12.05 5.05 -12.65 L5.1 -12.75 5.0 -12.95 5.05 -13.2 5.2 -13.2 5.35 -13.35 5.45 -13.05 5.75 -12.5 5.9 -11.9 6.0 -11.75 Q6.75 -10.45 8.4 -10.45 11.05 -10.45 11.55 -13.15 L11.7 -14.1 11.6 -14.75 11.65 -15.2 11.55 -15.9 Q11.55 -16.95 11.8 -17.05 L11.8 -16.9 12.15 -17.15 12.1 -16.65 12.1 -16.6 12.25 -16.75 12.55 -14.65 12.55 -14.5 12.75 -13.35 12.75 -13.25 12.75 -13.2 Q13.4 -10.75 16.1 -10.75 18.15 -10.75 18.9 -13.0 L19.95 -15.6 20.0 -16.15 Q20.0 -16.85 18.55 -18.9 L19.6 -19.75 M60.3 -20.5 Q60.3 -21.35 60.45 -21.55 L61.8 -22.65 61.95 -22.4 61.55 -21.3 Q61.25 -20.55 61.6 -19.4 L61.25 -19.25 61.1 -19.35 61.05 -19.5 61.05 -19.4 Q61.0 -19.25 60.75 -19.25 60.4 -19.25 60.3 -19.85 L60.3 -20.5 M60.8 -19.85 L60.7 -19.9 60.75 -19.85 60.8 -19.85 M-0.95 -43.75 L-1.45 -42.4 Q-1.45 -41.85 -1.05 -41.2 L-0.7 -40.5 -0.75 -40.25 -0.8 -40.15 -1.0 -40.1 Q-2.0 -40.1 -2.35 -41.95 L-2.0 -43.05 Q-1.6 -43.75 -1.0 -43.9 L-0.95 -43.75 M-1.95 -41.95 L-1.85 -41.5 -1.8 -41.45 -1.9 -42.35 -1.95 -41.95" fill="#ffff00" fill-rule="evenodd" stroke="none"/>
  </g>
</svg>
