<?xml version="1.0" encoding="UTF-8" standalone="no"?>
<svg xmlns:xlink="http://www.w3.org/1999/xlink" height="50.15px" width="65.0px" xmlns="http://www.w3.org/2000/svg">
  <g transform="matrix(1.0, 0.0, 0.0, 1.0, 1.9, 46.55)">
    <path d="M39.3 -26.05 L39.2 -26.05 39.25 -26.0 39.3 -26.05 M21.3 -24.95 L21.0 -24.05 21.0 -22.95 21.2 -23.2 21.5 -22.4 21.15 -21.25 Q20.7 -20.4 19.9 -20.4 L19.65 -20.45 19.55 -20.65 19.85 -21.45 20.1 -22.5 Q20.1 -23.45 19.2 -24.55 18.3 -25.7 18.3 -26.45 18.3 -28.5 19.25 -29.4 L19.3 -28.2 Q19.3 -27.3 20.3 -26.15 L21.3 -24.95 M38.6 -27.3 Q40.65 -24.9 42.2 -18.85 43.3 -14.45 45.75 -14.45 48.0 -14.45 48.0 -16.55 L48.35 -16.7 Q48.85 -16.25 48.85 -15.6 48.85 -14.95 48.1 -13.45 47.3 -11.95 47.3 -10.95 L47.55 -9.7 Q47.9 -8.55 48.5 -8.55 51.4 -8.55 52.05 -12.0 52.65 -15.5 53.6 -15.5 L53.9 -15.4 53.95 -15.1 53.55 -14.6 53.5 -14.35 Q53.5 -12.35 53.9 -11.7 L56.85 -8.4 Q58.5 -6.5 58.4 -5.5 L58.2 -4.0 Q58.3 -2.8 59.5 -2.8 60.85 -2.8 61.25 -4.3 L61.5 -6.0 62.4 -3.5 63.1 -0.7 62.65 1.25 62.45 1.95 62.45 2.15 62.2 2.7 61.85 3.45 61.6 3.45 61.55 3.1 61.8 2.25 61.1 1.3 Q60.3 0.1 59.25 -0.2 57.1 -0.85 55.95 -1.7 L54.35 -3.35 Q53.1 -4.75 51.6 -4.35 49.9 -3.85 48.55 -4.8 L47.6 -5.2 45.45 -5.95 41.2 -6.85 39.25 -7.2 37.85 -7.3 36.5 -7.85 35.1 -7.5 Q34.3 -7.15 33.7 -7.15 31.6 -7.15 29.65 -7.85 L27.2 -8.6 24.1 -7.85 20.7 -7.15 17.7 -6.5 14.55 -5.85 Q13.95 -5.4 11.45 -4.7 L8.0 -3.75 7.9 -3.8 7.7 -3.75 7.15 -3.75 Q5.95 -3.05 4.95 -2.75 2.6 -1.95 1.05 0.95 L-0.5 3.6 -1.9 2.4 -1.7 1.95 -1.65 1.9 -1.9 0.8 -1.65 -0.05 -1.5 -0.3 -1.55 -0.4 0.8 -5.05 0.15 -7.15 Q-0.55 -9.2 -0.55 -10.45 L-0.5 -11.65 Q-0.35 -12.45 0.25 -12.7 L0.55 -12.35 0.35 -11.8 Q0.85 -8.7 2.05 -8.7 3.7 -8.7 3.7 -10.55 3.7 -11.2 2.75 -12.9 1.8 -14.55 1.8 -16.15 L2.05 -18.1 Q2.35 -19.7 2.85 -20.2 L3.1 -19.65 2.65 -18.0 Q2.75 -14.4 4.0 -14.05 5.15 -13.7 6.1 -13.1 L7.1 -12.2 Q7.8 -10.55 9.8 -10.55 11.4 -10.55 11.5 -12.0 11.65 -13.45 11.85 -13.45 L12.25 -13.4 Q12.2 -12.45 12.45 -11.65 12.95 -10.05 14.7 -10.05 16.35 -10.05 18.1 -11.75 L19.4 -13.2 19.3 -13.65 19.7 -13.6 19.75 -13.7 20.0 -13.3 20.0 -13.15 Q20.5 -12.2 22.05 -12.2 23.35 -12.2 23.75 -12.65 24.15 -13.15 24.7 -13.15 L25.5 -12.85 Q25.95 -12.55 27.0 -12.55 L27.9 -12.6 Q27.4 -12.65 27.25 -12.8 27.45 -13.1 28.05 -13.2 28.6 -13.3 28.85 -13.7 L29.2 -14.2 29.5 -14.55 32.7 -12.1 Q34.8 -12.1 34.8 -14.1 L35.15 -14.2 36.1 -13.6 Q37.0 -13.0 37.4 -13.0 39.05 -13.0 38.85 -15.45 L38.6 -16.3 Q38.3 -16.95 38.3 -17.4 38.3 -17.85 39.2 -18.35 40.1 -18.9 40.1 -19.8 L39.9 -23.25 Q39.6 -24.6 38.35 -27.15 L38.6 -27.3 M2.9 -13.9 L2.9 -13.95 2.85 -13.95 2.9 -13.9 M20.5 -21.5 L20.6 -21.55 20.55 -21.6 20.5 -21.5 M60.3 -23.25 L60.8 -24.45 60.35 -25.8 61.35 -25.0 61.45 -23.95 61.4 -22.95 60.35 -22.95 60.3 -23.25 M-1.35 -46.55 L-0.75 -45.05 -0.8 -44.2 -0.65 -44.05 -0.85 -43.8 -0.9 -43.45 -0.95 -43.7 -1.2 -43.5 -0.7 -43.15 -0.7 -43.05 -0.85 -42.85 -1.75 -43.3 -1.8 -43.45 -1.55 -43.9 -1.3 -44.55 -1.55 -46.1 -1.55 -46.55 -1.35 -46.55" fill="#ffff00" fill-rule="evenodd" stroke="none"/>
  </g>
</svg>
