<?xml version="1.0" encoding="UTF-8" standalone="no"?>
<svg xmlns:xlink="http://www.w3.org/1999/xlink" height="41.4px" width="64.8px" xmlns="http://www.w3.org/2000/svg">
  <g transform="matrix(1.0, 0.0, 0.0, 1.0, 1.45, 35.95)">
    <path d="M20.6 -26.65 L20.1 -27.0 Q19.25 -27.3 18.75 -28.9 L18.35 -30.9 Q18.35 -31.65 18.85 -32.75 19.35 -33.85 19.35 -34.5 L19.1 -35.95 19.55 -35.65 19.6 -35.7 21.0 -33.65 Q21.55 -32.7 21.55 -31.75 L20.95 -30.25 20.3 -28.45 20.4 -27.7 20.9 -27.4 20.65 -26.95 20.7 -26.75 20.6 -26.65 M38.6 -27.75 L38.85 -28.0 39.9 -26.55 41.65 -23.95 Q42.45 -22.25 42.45 -20.15 L42.2 -18.5 Q42.2 -16.85 45.2 -14.9 48.15 -13.0 48.15 -10.7 L47.9 -8.8 Q47.9 -7.8 49.4 -7.8 51.0 -7.8 51.4 -8.65 L51.55 -10.85 Q51.55 -14.15 54.05 -15.85 L54.1 -16.15 54.2 -16.3 54.5 -16.15 54.75 -16.3 54.6 -16.05 54.7 -15.65 54.1 -13.25 Q54.1 -10.25 56.45 -8.45 58.8 -6.6 58.8 -4.7 L58.55 -3.25 59.5 -2.7 Q60.75 -2.85 61.25 -4.95 L61.0 -6.05 60.7 -7.2 60.75 -7.2 60.65 -7.4 60.8 -7.3 60.85 -7.4 61.15 -6.9 Q61.95 -6.05 62.6 -4.5 63.35 -2.6 63.35 -1.0 63.35 2.65 61.95 4.9 61.95 5.45 61.5 5.45 61.05 5.45 60.8 4.1 L60.6 2.7 60.8 1.05 Q60.8 -0.6 58.7 -2.1 58.2 -2.2 58.05 -2.55 56.25 -3.65 51.55 -5.6 48.45 -6.8 43.2 -8.05 35.0 -10.0 28.8 -10.0 L26.25 -9.6 25.6 -9.25 24.7 -9.25 25.0 -9.15 Q24.5 -8.7 22.25 -8.55 L19.8 -8.5 11.75 -6.25 11.65 -6.3 Q9.3 -5.05 7.5 -4.65 3.2 -3.65 1.25 -1.0 -0.1 0.85 -0.1 3.0 L-0.05 3.1 0.3 3.7 0.25 4.1 -0.05 4.15 -0.25 4.2 -0.65 3.9 -1.15 3.05 -1.45 1.95 -1.2 0.65 -0.85 -0.05 -0.25 -1.7 0.55 -3.7 0.7 -4.4 2.15 -7.1 2.65 -8.0 2.85 -8.65 3.05 -9.3 3.1 -10.35 3.1 -10.55 2.1 -12.6 Q1.95 -12.95 1.95 -14.25 L1.95 -14.4 1.95 -14.75 Q1.95 -15.9 2.5 -16.95 L4.05 -19.25 4.15 -19.0 4.1 -18.9 4.05 -17.0 Q4.05 -15.6 4.8 -14.75 5.85 -13.45 8.6 -12.8 9.45 -12.55 11.0 -10.45 12.45 -8.5 13.55 -8.5 L13.7 -8.5 14.15 -8.65 Q14.7 -8.95 15.45 -9.8 16.55 -11.1 17.2 -11.15 L18.1 -11.55 Q18.75 -11.85 19.1 -12.2 L19.1 -12.75 19.35 -14.65 Q19.6 -15.9 20.85 -15.85 L20.3 -14.7 Q20.3 -14.25 20.95 -13.35 L21.45 -12.75 Q21.85 -12.45 22.1 -12.45 L25.9 -12.65 Q27.1 -12.65 27.85 -12.05 L28.95 -12.3 30.75 -12.6 33.65 -12.1 36.55 -11.65 Q38.1 -11.65 38.85 -12.8 L39.3 -14.15 Q39.3 -14.85 38.7 -15.75 38.05 -16.65 38.05 -17.55 38.05 -18.05 39.2 -19.85 40.35 -21.65 40.35 -23.55 40.35 -24.7 39.5 -26.25 L38.7 -27.6 38.6 -27.7 38.65 -27.7 38.6 -27.75 M19.45 -12.55 L19.55 -13.05 19.55 -13.1 19.45 -12.55 M40.8 -24.15 L40.8 -24.2 40.8 -24.15 M-0.65 2.1 L-0.55 1.25 -0.7 1.9 -0.65 2.1" fill="#ffff00" fill-rule="evenodd" stroke="none"/>
  </g>
</svg>
