<?xml version="1.0" encoding="UTF-8" standalone="no"?>
<svg xmlns:xlink="http://www.w3.org/1999/xlink" height="97.05px" width="93.45px" xmlns="http://www.w3.org/2000/svg">
  <g transform="matrix(1.0, 0.0, 0.0, 1.0, 50.0, 93.75)">
    <path d="M11.75 -92.75 Q21.75 -93.1 26.4 -84.1 31.35 -74.55 30.35 -63.15 29.7 -56.3 25.6 -52.05 31.0 -51.1 35.15 -47.05 36.3 -45.9 36.5 -44.15 36.9 -40.05 35.3 -37.05 36.7 -37.25 38.55 -36.2 38.85 -35.6 38.8 -34.85 38.75 -34.1 38.85 -33.4 38.95 -32.55 39.4 -31.7 L39.5 -31.1 39.75 -31.0 40.1 -30.85 40.3 -30.7 Q40.75 -29.75 40.4 -28.8 L39.3 -26.9 37.55 -25.05 Q38.85 -20.65 33.9 -17.95 28.55 -15.05 23.45 -11.7 L22.1 -10.95 21.35 -10.6 20.35 -9.75 Q19.35 -9.25 18.35 -9.5 L18.25 -9.55 14.75 -9.25 14.8 -9.6 15.1 -10.2 15.7 -10.65 16.0 -10.75 16.7 -12.4 Q17.0 -13.35 17.8 -14.0 L19.5 -15.7 Q19.05 -16.45 17.85 -16.55 17.1 -16.65 16.8 -17.4 L16.7 -17.75 12.1 -18.25 Q11.2 -18.3 10.75 -19.3 L5.3 -19.35 5.15 -19.55 4.85 -19.95 4.6 -20.3 4.25 -20.7 4.05 -20.8 2.65 -20.85 Q1.55 -19.95 0.1 -19.5 L-3.7 -19.35 -5.1 -20.45 -6.6 -21.4 -7.7 -22.45 Q-11.7 -22.8 -14.45 -19.9 -16.55 -17.6 -19.25 -17.3 L-19.3 -17.15 -19.45 -16.75 -19.7 -16.6 -20.25 -16.35 Q-21.0 -15.1 -20.3 -13.8 -19.1 -11.7 -21.15 -10.75 L-24.7 -10.6 -24.85 -10.8 -24.95 -11.0 -25.0 -11.2 -25.0 -11.35 -27.45 -11.6 -27.9 -12.2 -28.0 -12.95 -28.0 -13.7 -28.0 -14.25 -31.8 -14.45 Q-33.1 -14.7 -34.05 -15.5 -34.4 -16.45 -34.15 -17.55 L-33.7 -19.85 Q-33.45 -21.4 -34.65 -22.45 L-34.75 -22.6 Q-42.05 -23.35 -44.2 -29.4 -45.4 -32.8 -45.2 -36.65 -45.05 -38.9 -43.4 -40.15 L-45.45 -42.2 Q-47.5 -44.5 -47.4 -47.8 -47.15 -58.05 -37.75 -62.5 L-34.75 -62.35 -28.75 -62.4 -28.75 -64.35 Q-28.15 -70.95 -21.5 -72.2 L-21.8 -73.95 Q-22.05 -78.45 -21.2 -82.7 -20.35 -86.8 -15.8 -87.75 L-14.75 -88.0 Q-8.0 -89.3 -3.3 -86.45 -2.4 -89.2 0.7 -90.25 6.0 -92.05 11.75 -92.75 M5.75 -47.6 Q3.3 -50.25 0.05 -51.25 L-0.85 -50.65 Q0.25 -49.5 1.85 -48.8 3.7 -48.0 5.7 -47.6 L5.75 -47.6 M9.75 -47.25 L9.75 -47.45 8.4 -47.3 8.25 -47.25 9.75 -47.25 M8.35 -42.5 L8.0 -44.0 Q8.1 -42.65 8.45 -41.4 L8.35 -42.5 M15.15 -16.25 L15.25 -15.85 15.2 -15.5 15.05 -14.75 14.8 -14.0 14.6 -13.85 Q13.6 -13.1 12.25 -13.5 L11.8 -13.6 11.65 -13.8 11.5 -14.0 11.25 -14.2 11.1 -14.4 11.0 -14.55 11.0 -14.75 11.0 -15.1 11.0 -15.5 11.0 -16.25 Q11.0 -16.95 11.75 -16.95 L11.75 -17.0 13.45 -16.85 14.5 -16.65 15.05 -16.45 15.15 -16.25 M12.5 -15.35 Q12.65 -15.2 12.8 -15.2 L13.45 -15.2 13.5 -15.3 12.5 -15.4 12.5 -15.35 M4.0 -14.5 L5.5 -14.45 5.9 -14.35 6.45 -13.05 Q6.7 -11.6 6.05 -10.35 5.0 -8.25 2.55 -9.1 L2.05 -9.95 Q1.75 -11.0 1.9 -12.15 2.1 -13.35 3.1 -14.1 L4.0 -14.45 4.0 -14.5 M24.0 -0.25 L24.0 -0.45 24.1 -0.6 24.25 -0.75 24.75 -0.95 24.75 -1.0 25.35 -0.8 25.7 -0.3 25.75 0.25 25.75 0.45 26.5 0.7 Q27.0 0.8 27.15 1.25 L27.25 1.65 Q26.3 3.15 23.95 2.4 L23.25 1.75 23.3 1.4 Q23.3 1.05 23.6 1.0 24.2 0.8 24.05 0.3 L24.0 0.1 24.0 -0.05 24.0 -0.25 M35.55 -7.9 L35.8 -8.25 36.55 -8.65 37.0 -8.75 37.75 -8.65 38.3 -8.4 38.5 -7.85 38.6 -7.75 39.8 -7.55 Q40.35 -7.65 40.5 -7.05 L40.5 -6.85 40.5 -6.7 40.45 -6.5 40.3 -6.3 40.15 -6.1 36.8 -6.25 Q36.0 -6.5 35.6 -7.2 L35.5 -7.75 35.55 -7.9 M31.75 -2.2 Q33.15 -4.35 36.0 -4.6 L36.1 -4.8 36.2 -5.0 36.3 -5.1 36.45 -5.15 36.75 -5.2 36.75 -5.25 Q45.05 -5.95 43.1 1.0 42.7 2.35 41.25 2.7 33.8 4.45 31.5 -0.55 31.15 -1.3 31.75 -2.2 M-25.75 -59.1 L-25.25 -59.5 -26.0 -59.4 -25.75 -59.1 M-18.25 -71.4 L-18.95 -71.0 -18.9 -70.95 -18.25 -71.4 M-3.55 -51.45 L-3.65 -51.85 -3.85 -51.85 Q-9.2 -52.2 -13.2 -50.7 -8.8 -50.0 -3.65 -51.45 L-3.55 -51.45 M-4.0 -53.45 L-4.0 -53.5 -4.25 -53.5 -4.0 -53.45 M-41.25 -11.3 Q-38.55 -11.4 -37.9 -12.2 -37.55 -12.7 -36.75 -12.75 -35.85 -12.7 -35.15 -12.1 -34.5 -11.6 -34.25 -10.8 -33.95 -9.9 -34.05 -9.0 -36.25 -7.45 -39.35 -8.15 -40.6 -8.45 -41.55 -9.25 L-41.65 -9.45 -41.75 -9.65 -41.75 -9.8 -41.75 -10.0 -41.75 -10.2 -41.75 -10.55 -41.75 -10.75 -41.6 -10.95 -41.45 -11.1 -41.25 -11.3 M-45.5 -6.75 Q-43.85 -6.15 -44.6 -4.3 -45.05 -3.2 -46.3 -3.0 L-49.25 -2.9 -49.85 -3.05 -49.95 -3.45 -50.0 -4.2 -50.0 -4.95 -49.8 -5.5 Q-49.25 -6.05 -48.55 -6.4 -47.25 -6.95 -46.3 -6.05 L-46.25 -6.15 -46.15 -6.3 -46.05 -6.5 -45.9 -6.6 -45.5 -6.7 -45.5 -6.75 M-46.25 -5.7 L-46.65 -5.15 -47.0 -5.0 -47.6 -4.85 -48.2 -4.55 -48.5 -4.45 Q-47.35 -3.9 -46.4 -4.85 L-46.2 -5.1 -46.2 -5.7 -46.25 -5.7 M-13.75 -48.25 L-13.65 -49.1 -13.8 -49.15 -13.75 -48.25 M-36.5 -10.95 L-36.8 -10.95 Q-36.65 -10.4 -37.15 -10.0 L-37.1 -9.95 -35.7 -9.95 -35.5 -10.05 Q-35.5 -10.4 -35.9 -10.5 L-36.2 -10.75 -36.25 -10.85 -36.25 -10.9 -36.5 -10.95 M-33.0 -1.35 Q-32.85 -1.95 -32.25 -2.0 L-29.5 -2.5 -28.95 -2.15 -28.7 -1.6 -28.95 -1.05 -29.1 -0.85 -32.8 -0.95 -33.0 -1.35 M-10.0 -13.35 Q-9.7 -13.75 -9.55 -14.25 -9.4 -14.6 -9.55 -15.0 L-9.75 -15.1 Q-10.25 -15.2 -10.65 -15.55 L-11.0 -16.15 -11.0 -16.3 Q-8.0 -17.75 -8.15 -14.0 -8.2 -12.1 -9.95 -11.15 -13.45 -9.2 -16.0 -12.0 L-16.0 -13.85 Q-16.05 -14.65 -15.7 -15.35 -14.95 -16.9 -13.2 -17.15 L-12.75 -17.25 Q-11.2 -16.9 -12.4 -16.15 L-13.9 -14.95 -13.65 -15.1 -11.75 -15.95 -11.75 -16.0 -11.2 -15.65 -10.85 -15.25 -10.4 -14.85 -10.2 -14.7 -9.95 -13.95 -10.0 -13.35" fill="#666666" fill-rule="evenodd" stroke="none"/>
    <path d="M28.35 -82.15 Q34.0 -70.35 28.8 -57.65 27.5 -54.5 25.65 -52.3 28.85 -52.2 31.35 -50.1 L31.35 -50.15 31.5 -50.25 Q33.55 -48.95 34.65 -46.6 L35.25 -45.9 Q38.4 -42.1 36.95 -37.45 L36.75 -36.85 37.0 -36.85 37.55 -36.7 37.65 -36.5 Q37.75 -35.35 38.7 -34.7 39.45 -34.2 39.55 -33.25 L40.0 -31.2 40.0 -31.05 40.05 -31.0 40.4 -30.9 41.1 -30.6 41.3 -30.45 41.6 -29.3 Q41.65 -27.35 40.5 -25.95 L38.4 -23.15 36.95 -21.35 36.8 -21.3 34.85 -21.45 34.5 -21.75 34.6 -22.25 35.7 -25.0 Q36.25 -26.4 36.4 -27.95 L36.25 -30.35 36.1 -30.55 35.7 -31.0 34.9 -31.55 34.1 -31.45 34.0 -31.3 34.0 -31.1 34.0 -30.95 33.95 -30.55 33.55 -30.1 33.25 -30.0 32.85 -30.15 32.65 -30.3 32.35 -30.7 32.25 -31.25 32.25 -31.35 Q29.6 -31.05 27.5 -32.0 L27.5 -32.2 27.9 -33.05 28.7 -34.1 Q29.05 -34.45 29.5 -34.55 L29.8 -34.6 29.9 -34.8 Q30.15 -35.9 31.25 -36.3 L31.3 -36.3 Q30.85 -37.2 31.15 -38.1 32.2 -41.55 28.4 -43.2 21.9 -46.05 14.9 -46.7 L13.1 -45.25 Q11.8 -44.25 10.25 -44.1 L10.05 -44.05 Q10.8 -37.6 6.8 -32.55 L6.5 -32.5 6.25 -32.5 5.85 -32.65 5.65 -32.8 5.55 -33.0 5.5 -33.2 5.5 -33.35 5.5 -33.75 5.5 -33.95 5.5 -34.1 5.9 -34.75 6.25 -35.05 6.6 -35.45 6.75 -35.6 6.65 -38.05 Q5.95 -46.25 -1.85 -48.65 -13.1 -52.15 -19.05 -43.75 -22.05 -39.5 -19.8 -34.85 L-19.75 -34.85 -19.5 -34.75 -19.15 -34.6 -18.9 -34.45 -18.7 -34.25 -18.6 -34.05 -18.55 -33.85 -18.5 -33.7 Q-18.6 -33.35 -18.85 -33.35 -23.3 -33.4 -24.85 -37.6 -26.75 -42.65 -24.6 -47.75 -23.4 -50.6 -21.3 -52.4 -25.3 -53.6 -27.45 -57.0 L-27.5 -57.0 -27.95 -57.1 Q-32.4 -57.75 -36.75 -56.55 L-37.75 -56.2 Q-38.45 -55.85 -39.25 -55.6 L-39.35 -55.45 -40.55 -53.55 -40.65 -53.4 Q-41.8 -50.95 -42.1 -48.3 -42.6 -43.7 -39.2 -40.9 -36.65 -38.8 -34.75 -36.5 -36.35 -35.0 -39.05 -36.05 L-40.2 -36.55 -40.55 -35.9 -41.0 -34.75 Q-40.35 -31.95 -38.5 -29.7 -36.25 -26.95 -33.65 -24.55 L-32.75 -23.3 Q-31.95 -22.3 -31.65 -20.85 -31.3 -19.0 -29.4 -18.55 L-25.95 -17.45 Q-25.5 -16.5 -25.95 -15.55 -27.25 -12.85 -30.45 -13.85 -32.55 -15.2 -33.4 -17.35 -33.9 -18.55 -33.8 -19.95 -33.75 -20.7 -34.0 -21.35 L-34.1 -21.7 Q-39.75 -21.8 -43.1 -26.55 -45.65 -30.1 -45.05 -34.7 -44.8 -37.15 -43.9 -39.4 -48.05 -43.7 -47.9 -50.05 -47.8 -56.4 -43.35 -60.1 -41.7 -61.5 -39.6 -62.25 L-38.75 -62.5 -28.75 -62.35 -28.8 -63.95 Q-29.05 -69.4 -24.7 -72.55 -23.25 -73.55 -21.65 -74.2 L-22.55 -77.4 Q-23.95 -85.55 -16.75 -88.0 L-15.0 -88.5 -4.95 -87.8 -3.0 -87.3 -2.95 -87.5 -2.85 -87.7 -2.7 -87.85 Q-2.2 -88.25 -1.95 -88.8 -1.35 -90.2 -0.2 -91.0 1.2 -91.95 2.95 -92.6 L5.25 -93.25 Q15.95 -95.3 23.25 -88.9 26.45 -86.1 28.35 -82.15 M1.95 -74.95 Q1.45 -73.15 0.55 -71.55 L0.25 -71.5 0.0 -71.5 -0.4 -71.65 -0.6 -71.8 -0.8 -72.0 -0.85 -72.2 Q-0.5 -75.05 -2.5 -76.6 -9.55 -82.2 -16.75 -77.35 L-16.75 -77.2 Q-16.6 -75.7 -15.6 -74.65 L-10.3 -74.35 Q-6.55 -74.05 -3.2 -72.45 -0.85 -71.3 -1.45 -69.0 L-1.55 -68.95 -7.2 -69.4 Q-7.9 -70.15 -9.0 -70.2 L-12.05 -70.25 -12.1 -70.3 -13.95 -70.25 -14.75 -70.25 Q-16.85 -70.1 -18.05 -69.25 L-19.0 -68.95 -19.1 -68.8 Q-21.65 -67.4 -23.8 -65.45 -25.1 -64.25 -25.05 -62.25 -25.0 -60.6 -24.4 -59.2 -24.15 -58.7 -24.05 -58.1 -23.5 -55.8 -21.45 -54.3 -20.75 -53.8 -20.35 -53.15 -18.0 -54.8 -14.75 -55.25 -7.05 -56.35 0.25 -54.6 6.95 -53.05 9.1 -47.75 L11.1 -48.0 11.2 -48.0 11.45 -48.15 Q14.05 -49.65 17.0 -50.55 L18.45 -51.0 Q19.95 -51.8 21.15 -53.05 L22.25 -54.3 Q22.8 -57.2 23.95 -60.15 27.3 -68.8 24.55 -77.75 21.1 -89.1 8.6 -87.2 3.6 -86.45 1.55 -82.2 3.0 -78.7 1.95 -74.95 M23.7 -53.5 L23.4 -53.1 23.75 -53.45 23.7 -53.5 M24.75 -29.5 L26.25 -29.4 27.95 -28.9 Q28.65 -28.5 29.5 -28.45 L29.9 -28.35 30.05 -28.15 30.35 -27.6 30.6 -26.9 30.75 -26.3 31.0 -25.0 Q30.95 -24.55 30.55 -24.3 L30.25 -24.3 29.85 -24.4 29.65 -24.55 29.55 -24.75 29.5 -24.95 29.35 -25.3 29.25 -25.5 28.35 -26.05 Q26.45 -27.25 24.05 -26.35 L22.25 -25.75 21.85 -25.9 21.65 -26.05 21.5 -26.25 21.25 -26.45 21.1 -26.65 21.0 -27.0 21.0 -27.2 Q20.95 -27.5 21.2 -27.75 L22.15 -28.5 22.95 -28.9 24.75 -29.5 M37.6 -25.2 L37.55 -25.2 37.5 -25.1 37.6 -25.2 M31.3 -33.75 L31.15 -33.55 31.2 -33.5 31.3 -33.75 M2.75 -31.95 Q3.25 -31.95 3.45 -31.5 2.25 -29.1 -1.2 -28.6 L-3.0 -28.35 -7.05 -28.05 Q-6.5 -26.95 -6.9 -25.75 L-6.5 -25.75 -6.0 -25.7 -5.6 -25.6 -3.9 -23.95 Q-1.35 -22.1 2.05 -22.85 L2.05 -23.05 2.2 -23.25 2.3 -23.35 2.45 -23.45 2.75 -23.55 2.3 -24.35 1.85 -25.45 Q1.55 -26.35 2.5 -26.45 L2.5 -26.5 6.0 -21.9 6.55 -21.6 14.0 -21.1 Q15.8 -21.0 17.0 -20.05 L16.9 -19.5 16.1 -18.7 15.6 -18.15 15.5 -17.95 Q9.5 -15.85 5.0 -19.25 4.25 -19.85 3.3 -20.1 L3.15 -20.3 3.1 -20.4 Q1.85 -19.7 0.35 -19.35 -1.7 -18.8 -3.55 -19.85 -6.15 -21.3 -8.4 -23.45 -10.0 -21.75 -12.35 -21.15 -15.15 -20.4 -17.0 -21.95 L-13.1 -24.85 Q-11.3 -26.2 -9.8 -27.85 L-9.6 -28.05 -15.2 -28.6 -15.35 -28.8 -15.45 -29.0 -15.5 -29.2 -15.5 -29.35 -15.5 -29.5 -15.9 -29.65 -16.1 -29.8 -16.2 -30.0 -16.25 -30.35 Q-11.6 -31.35 -6.35 -30.5 L-3.55 -30.65 -1.25 -31.25 -0.7 -31.45 0.75 -32.0 2.75 -31.95 M8.25 -26.0 L10.8 -25.6 13.05 -24.4 Q14.0 -23.85 15.15 -23.6 L15.3 -23.45 15.45 -23.25 15.6 -22.85 15.7 -22.7 15.7 -22.5 15.65 -22.1 Q14.3 -21.6 12.55 -22.35 L9.1 -23.8 Q6.65 -24.8 8.25 -25.95 L8.25 -26.0 M14.25 -16.95 L14.9 -16.5 15.0 -16.1 15.0 -15.95 14.9 -15.75 14.6 -15.5 13.75 -15.25 13.7 -15.05 Q13.25 -14.1 12.0 -14.45 11.2 -14.65 10.8 -15.3 L10.75 -15.45 10.75 -15.6 Q10.65 -16.1 11.05 -16.4 11.85 -17.0 13.0 -16.95 L13.0 -17.0 14.25 -16.95 M3.5 -14.3 L3.7 -14.4 4.5 -14.75 5.75 -14.7 6.65 -14.4 7.2 -13.75 7.25 -13.55 7.2 -13.4 7.0 -12.8 6.85 -12.45 6.7 -12.1 6.6 -12.1 Q4.4 -12.65 3.3 -11.5 L3.2 -11.3 2.95 -11.0 Q2.65 -10.7 2.25 -10.75 L1.5 -11.25 1.55 -11.6 2.05 -13.1 3.2 -14.2 3.5 -14.3 M35.25 -5.25 L40.75 -5.0 Q41.45 -4.95 42.05 -4.45 L42.15 -4.25 42.25 -3.85 42.35 -3.35 42.45 -2.75 42.4 -2.35 42.25 -2.2 41.05 -2.15 40.4 -2.6 40.0 -2.95 38.5 -3.0 36.7 -3.1 36.5 -2.95 35.55 -1.8 34.75 -0.35 Q34.4 0.2 33.8 -0.1 L33.65 -0.3 Q33.4 -0.65 33.45 -1.05 L33.5 -1.8 33.5 -2.75 33.5 -3.1 33.35 -3.05 33.25 -2.75 33.2 -2.2 32.85 -1.65 32.5 -1.5 32.1 -1.65 Q31.65 -1.9 31.7 -2.4 L31.75 -3.1 31.75 -4.05 31.75 -4.25 31.9 -4.35 34.8 -5.15 35.25 -5.25 M-48.7 -6.6 L-48.5 -6.8 -48.3 -6.9 -48.0 -6.95 -48.0 -7.0 -47.5 -6.95 -47.15 -6.85 -46.95 -6.7 -46.8 -6.5 -46.75 -6.3 -46.8 -6.15 -46.95 -5.75 -47.15 -5.4 -47.25 -5.2 Q-47.35 -5.1 -47.45 -5.1 L-48.25 -5.05 Q-48.75 -5.05 -49.0 -5.5 L-49.0 -5.7 -49.0 -5.85 -48.9 -6.05 -48.85 -6.25 -48.7 -6.6 M-19.45 -24.95 L-19.35 -24.75 -19.2 -24.2 Q-19.25 -23.6 -19.6 -23.2 L-20.2 -22.5 -20.3 -22.45 -24.0 -22.65 Q-24.8 -22.85 -25.25 -23.5 L-25.25 -23.7 -25.1 -24.0 -24.7 -24.8 Q-24.5 -25.25 -24.0 -25.2 L-24.0 -25.25 -20.0 -25.1 -19.45 -24.95 M-30.65 -30.35 L-28.75 -29.95 Q-28.25 -29.95 -28.05 -29.5 L-28.0 -29.3 -28.0 -29.1 -28.1 -28.75 -28.2 -28.55 -28.3 -28.4 -28.5 -28.2 Q-29.8 -27.55 -31.1 -28.2 L-31.4 -28.4 Q-32.45 -29.0 -32.5 -30.05 -32.5 -30.4 -32.15 -30.6 L-31.75 -30.75 -30.65 -30.35 M-35.5 -12.95 L-35.15 -12.85 -34.95 -12.7 -34.8 -12.5 -34.75 -12.3 -34.75 -12.15 -34.8 -11.95 -34.8 -11.55 -34.9 -11.4 -35.0 -11.2 -35.2 -11.05 -35.5 -10.95 -35.5 -10.75 -35.5 -10.35 -35.5 -9.8 -35.6 -9.25 -35.7 -9.05 -35.9 -8.95 -36.75 -8.8 Q-37.3 -8.8 -37.45 -9.25 L-37.5 -9.45 -37.5 -9.6 -37.5 -9.8 -37.55 -10.15 -37.7 -10.25 -38.0 -10.2 -38.2 -10.0 Q-38.4 -9.75 -38.75 -9.7 -39.6 -9.6 -39.95 -10.3 L-40.0 -10.6 Q-40.1 -11.1 -39.65 -11.3 -38.6 -11.7 -37.7 -12.2 L-36.25 -13.0 -35.5 -12.95 M-30.8 -2.9 L-29.75 -3.2 -29.75 -3.25 Q-28.8 -3.0 -29.1 -2.2 -29.35 -1.6 -30.0 -1.5 -30.85 -1.35 -31.2 -2.0 L-31.25 -2.2 -31.15 -2.55 -30.8 -2.9 M-9.7 -12.65 L-10.95 -13.75 -11.6 -14.55 -11.8 -14.6 -11.95 -14.55 -12.3 -14.4 -12.6 -14.2 -13.3 -13.85 -13.5 -13.7 -13.55 -13.5 -13.65 -13.3 -13.75 -13.1 -13.75 -12.95 -13.75 -12.75 -13.85 -12.35 -14.0 -12.2 -14.2 -12.1 -14.5 -12.05 -15.4 -12.25 -15.75 -12.5 -15.75 -12.7 -15.55 -13.85 -14.8 -15.3 Q-14.25 -16.4 -13.25 -16.75 L-10.25 -16.65 Q-9.35 -16.6 -8.65 -16.05 L-8.2 -15.7 -8.1 -15.5 -8.05 -15.15 -8.0 -14.35 -8.0 -13.8 -8.1 -12.85 -8.25 -12.7 -9.7 -12.65" fill="#333333" fill-rule="evenodd" stroke="none"/>
    <path d="M9.5 -64.1 Q16.55 -65.15 20.9 -69.55 22.05 -70.7 22.25 -72.35 22.75 -76.25 23.75 -79.25 L25.35 -73.25 Q26.25 -70.05 26.15 -66.55 26.05 -63.5 25.05 -60.8 L24.95 -60.8 Q24.75 -59.45 23.85 -57.85 20.05 -51.05 12.3 -48.25 10.05 -47.45 8.5 -48.65 L6.4 -50.45 Q3.2 -53.3 -0.95 -54.05 -11.7 -56.0 -21.0 -52.5 L-23.0 -54.65 Q-24.2 -56.2 -24.4 -58.05 -24.65 -59.7 -24.3 -61.25 -20.9 -60.25 -17.5 -60.55 L-14.2 -60.85 -8.05 -61.25 -8.1 -61.55 -7.75 -62.3 Q-1.15 -65.5 6.9 -64.1 8.15 -63.9 9.5 -64.1 M24.3 -72.0 L24.4 -71.95 24.3 -72.1 24.3 -72.0 M6.05 -39.2 L6.2 -39.0 6.25 -38.8 6.5 -38.75 6.75 -38.7 7.1 -38.6 7.3 -38.45 Q7.7 -36.8 6.6 -35.35 2.8 -30.4 -3.75 -30.35 L-14.4 -30.85 Q-16.95 -31.1 -18.3 -33.4 -19.25 -35.0 -19.4 -36.8 L-19.55 -38.7 -19.45 -39.8 -19.3 -40.0 -19.2 -40.1 -19.05 -40.2 -18.75 -40.3 -18.55 -40.4 Q-17.7 -40.6 -17.0 -41.05 L-16.1 -41.75 Q-15.2 -42.6 -13.95 -42.65 L-13.5 -42.75 -7.35 -42.45 Q-4.0 -42.1 -0.85 -40.75 2.4 -39.4 5.9 -39.35 L6.05 -39.2 M0.65 -28.3 L1.0 -29.1 1.1 -29.85 1.25 -30.05 Q2.6 -31.1 4.25 -30.45 6.1 -29.7 8.4 -29.65 L8.95 -29.35 Q10.85 -28.9 11.95 -30.35 L13.85 -32.45 14.5 -32.75 15.5 -32.7 15.85 -32.6 16.05 -32.45 Q16.25 -31.1 16.6 -29.85 17.15 -28.05 18.4 -26.55 L20.9 -23.9 21.25 -23.35 21.35 -23.45 24.4 -23.6 24.55 -23.45 24.7 -23.25 24.75 -23.1 24.75 -23.05 28.75 -23.15 Q29.25 -23.2 29.45 -22.75 L29.45 -22.55 29.2 -21.75 Q28.75 -21.25 28.95 -20.7 L28.95 -19.55 Q29.95 -19.4 30.85 -19.9 32.15 -20.6 32.65 -21.95 32.95 -22.8 33.75 -23.0 36.7 -18.6 31.1 -15.95 28.25 -14.6 25.75 -12.7 23.7 -11.1 21.2 -10.3 19.65 -9.8 18.05 -9.1 14.75 -7.7 14.0 -9.85 L14.1 -10.05 14.35 -10.3 15.75 -10.7 15.75 -10.8 15.75 -11.4 Q15.95 -12.4 16.75 -13.1 L18.7 -14.55 18.75 -14.7 18.7 -14.85 18.3 -15.8 17.65 -16.85 Q17.2 -17.3 17.25 -17.85 L16.25 -18.05 Q15.95 -18.15 15.65 -18.35 L15.5 -18.5 15.5 -18.7 Q15.45 -19.0 15.7 -19.25 L16.65 -20.05 17.2 -20.45 17.2 -20.55 6.3 -20.85 6.1 -21.05 Q5.7 -21.45 5.65 -22.0 L5.15 -23.3 4.75 -24.2 4.7 -24.25 3.85 -24.65 Q3.4 -24.9 3.35 -25.4 L3.0 -25.95 2.85 -25.75 2.5 -24.35 Q2.05 -23.35 1.2 -22.7 L0.9 -22.35 Q-2.1 -22.3 -4.5 -24.0 -6.3 -25.3 -7.3 -27.4 -7.65 -28.15 -7.25 -28.8 L-4.45 -28.4 Q-1.8 -27.55 0.5 -27.8 L0.5 -28.0 0.65 -28.3 M9.85 -24.85 L10.05 -24.7 10.2 -24.55 Q11.35 -23.9 12.55 -23.7 13.85 -23.5 14.2 -22.5 L14.35 -22.5 14.45 -22.7 14.65 -22.95 14.8 -23.1 15.0 -23.3 Q15.35 -23.55 14.5 -23.9 L12.5 -24.5 9.35 -25.45 Q8.5 -25.75 8.3 -25.25 L8.4 -25.2 9.85 -24.85 M8.55 -22.6 L8.5 -22.6 8.55 -22.6 M6.4 -11.25 L6.0 -10.7 5.8 -10.5 Q4.95 -9.9 3.75 -10.15 2.95 -10.35 3.0 -11.1 3.1 -11.5 3.45 -11.5 4.6 -11.55 5.4 -12.25 L5.75 -12.5 Q6.25 -12.45 6.4 -12.0 6.6 -11.6 6.4 -11.25 M27.75 -19.2 L27.0 -19.15 27.0 -19.1 26.9 -18.75 27.25 -18.8 27.75 -19.1 27.75 -19.2 M31.75 -0.7 L32.2 -1.1 33.25 -1.05 Q33.8 -0.9 34.0 -0.35 L34.5 -0.35 34.5 -0.75 34.5 -1.3 34.55 -1.85 Q34.55 -2.2 34.8 -2.35 L34.95 -2.4 35.25 -2.45 35.25 -2.5 Q35.75 -2.55 36.1 -2.2 L36.9 -1.45 37.65 -0.7 Q39.5 -0.3 41.3 -1.15 42.05 -1.45 42.55 -0.95 42.7 0.2 41.9 1.35 39.85 4.25 35.75 2.8 33.15 1.9 31.85 -0.35 L31.75 -0.7 M-16.0 -76.45 L-14.5 -76.9 -14.0 -77.0 -9.5 -76.6 Q-7.15 -76.1 -5.0 -75.1 -2.9 -74.15 -1.5 -72.85 L-1.7 -72.5 Q-1.9 -72.25 -2.25 -72.25 -3.9 -72.25 -5.35 -73.05 L-7.4 -74.2 -8.75 -74.35 -8.85 -74.2 -8.95 -74.0 -9.05 -73.9 -9.2 -73.8 -9.5 -73.8 -9.9 -73.9 -10.1 -74.05 -10.3 -74.25 -10.5 -74.45 -14.35 -74.55 -16.25 -74.55 Q-16.95 -74.55 -17.0 -75.2 L-17.0 -75.35 -17.0 -75.55 -16.95 -75.75 -16.45 -76.25 -16.0 -76.45 M-5.2 -61.3 L-5.2 -61.4 -5.5 -61.3 -5.2 -61.3 M-40.95 -44.85 L-40.75 -45.05 -40.55 -45.15 -39.25 -45.45 -39.25 -45.5 Q-36.65 -45.75 -34.45 -44.45 -32.3 -43.15 -29.8 -42.7 L-25.2 -41.95 -25.05 -41.55 Q-24.85 -40.4 -24.15 -39.55 L-23.35 -38.25 -23.0 -37.05 -23.0 -36.7 -23.05 -36.3 Q-23.15 -35.55 -23.7 -35.05 -30.5 -34.0 -36.35 -36.25 -38.15 -36.9 -39.2 -38.5 -40.85 -40.95 -41.0 -43.95 L-40.95 -44.85 M-19.0 -26.7 L-19.0 -27.25 -13.05 -28.2 -11.25 -28.5 -10.75 -28.5 -10.5 -28.45 -10.15 -28.35 -9.8 -28.0 Q-10.35 -25.95 -12.2 -24.5 -14.3 -22.85 -16.85 -22.0 L-17.2 -21.9 -17.1 -21.7 -17.0 -21.35 -17.05 -20.8 -17.1 -20.45 Q-24.1 -18.3 -30.75 -21.85 -32.7 -22.9 -34.15 -24.55 -36.05 -26.65 -35.8 -29.25 L-35.5 -29.5 Q-33.6 -28.6 -31.75 -27.4 -30.35 -26.5 -28.65 -26.55 -26.3 -26.65 -24.5 -25.65 L-24.25 -25.35 -24.25 -25.2 -24.3 -25.0 -24.45 -24.8 -24.55 -24.65 -24.7 -24.4 -24.75 -24.25 -21.15 -23.35 -20.15 -24.3 Q-19.5 -24.8 -19.15 -25.6 -18.95 -26.1 -19.0 -26.7 M-25.0 -37.3 L-25.0 -37.2 -24.95 -37.2 -25.0 -37.3 M-25.7 -17.0 Q-23.95 -17.55 -22.2 -18.4 L-20.75 -19.0 -19.85 -18.85 -19.0 -18.75 Q-18.5 -18.7 -18.35 -18.25 L-18.25 -17.85 -18.35 -17.7 -18.45 -17.5 -18.55 -17.4 -19.0 -17.25 -19.85 -16.95 -20.25 -16.05 Q-20.7 -15.3 -20.4 -14.35 -20.1 -13.3 -20.55 -12.25 -21.0 -11.3 -21.8 -10.6 -25.7 -10.1 -27.2 -13.4 -28.45 -16.05 -25.7 -17.0 M-9.75 -14.25 Q-8.4 -13.45 -9.55 -12.2 -10.45 -11.25 -11.65 -10.65 -12.85 -10.0 -14.2 -10.35 L-14.35 -10.55 -14.45 -10.75 -14.5 -10.95 -14.5 -11.1 -14.5 -11.25 -14.9 -11.4 -15.1 -11.6 -15.25 -11.95 -15.25 -12.1 Q-14.05 -13.65 -11.25 -13.3 -10.45 -13.2 -9.95 -14.15 L-9.75 -14.25 M-18.1 -23.8 L-17.95 -23.75 -17.95 -24.0 -18.1 -23.8" fill="#c0ab58" fill-rule="evenodd" stroke="none"/>
  </g>
</svg>
