<?xml version="1.0" encoding="UTF-8" standalone="no"?>
<svg xmlns:xlink="http://www.w3.org/1999/xlink" height="97.8px" width="96.45px" xmlns="http://www.w3.org/2000/svg">
  <g transform="matrix(1.0, 0.0, 0.0, 1.0, 51.25, 95.5)">
    <path d="M26.15 -88.65 Q34.6 -73.5 27.15 -57.95 30.15 -56.9 32.5 -54.35 34.9 -51.7 35.0 -48.0 35.05 -45.55 34.35 -43.6 35.85 -42.7 36.95 -41.1 38.25 -39.15 38.0 -36.95 37.85 -35.75 37.45 -35.3 L37.75 -34.85 37.8 -34.7 Q42.85 -31.45 38.7 -25.95 34.85 -20.75 29.95 -16.75 27.75 -15.0 25.35 -13.6 22.6 -12.05 19.9 -12.3 19.45 -14.0 20.55 -15.45 21.65 -16.9 23.05 -17.85 25.05 -19.2 24.9 -21.3 L17.65 -22.3 17.55 -22.5 17.5 -22.7 17.5 -23.05 17.5 -23.45 17.5 -24.0 Q13.6 -25.1 10.4 -22.2 8.7 -20.65 6.3 -21.35 5.8 -21.8 5.65 -22.35 L5.6 -22.4 5.25 -22.75 5.25 -22.95 5.25 -23.1 5.3 -23.4 5.25 -23.55 Q5.05 -24.0 5.3 -24.5 4.75 -24.65 4.55 -25.1 L4.15 -25.95 3.95 -26.5 -9.3 -25.6 Q-10.75 -25.5 -12.05 -26.15 -13.35 -26.75 -13.75 -27.85 -14.55 -28.6 -15.4 -27.6 L-16.4 -26.4 Q-16.8 -25.8 -17.35 -25.35 L-17.75 -25.3 -18.4 -25.45 -18.95 -25.85 -19.0 -25.95 Q-20.35 -25.4 -21.3 -24.2 -23.15 -21.85 -26.45 -22.45 -26.15 -21.75 -26.2 -20.95 L-26.05 -19.25 -25.35 -17.15 Q-25.1 -16.6 -25.45 -16.05 -30.3 -15.15 -33.8 -18.25 -36.0 -20.15 -35.55 -23.05 L-35.5 -23.45 Q-37.5 -25.35 -40.45 -26.15 -41.15 -26.35 -41.4 -27.2 L-42.3 -30.0 -44.5 -30.35 -45.1 -30.55 Q-45.15 -32.5 -45.85 -34.3 -46.7 -36.55 -46.85 -39.0 -46.95 -41.55 -44.9 -43.0 L-43.75 -43.5 -43.95 -43.65 Q-45.1 -44.55 -45.7 -45.95 -49.9 -55.7 -42.7 -63.35 L-41.7 -63.7 -41.5 -63.75 -40.6 -64.25 -39.55 -64.95 Q-38.5 -65.7 -37.25 -66.05 L-36.5 -66.25 Q-32.25 -66.85 -28.7 -66.15 -28.9 -73.95 -20.75 -76.45 L-19.4 -76.8 -20.05 -78.3 Q-20.65 -79.85 -20.25 -81.5 -18.65 -88.2 -12.0 -90.25 -7.5 -90.5 -4.75 -89.0 -3.45 -90.2 -1.95 -91.25 2.1 -94.0 7.0 -94.7 L7.0 -94.75 Q17.05 -96.7 24.05 -91.2 25.3 -90.15 26.15 -88.65 M6.0 -50.85 Q5.35 -52.7 3.3 -53.35 2.9 -54.25 2.05 -54.6 L-0.55 -55.45 -0.7 -55.25 1.7 -52.55 Q2.65 -51.4 4.2 -50.75 L6.3 -49.95 6.0 -50.85 M24.35 -56.15 L18.15 -56.6 Q9.4 -56.45 8.3 -49.45 13.95 -48.4 19.2 -51.55 22.3 -53.4 24.35 -56.15 M15.8 -19.25 Q15.85 -18.05 15.25 -17.15 14.05 -15.35 11.8 -16.1 L11.45 -16.5 11.3 -16.9 Q11.15 -17.6 11.3 -18.2 L11.65 -19.7 11.95 -20.25 12.15 -20.45 12.35 -20.6 12.75 -20.7 12.75 -20.75 13.65 -20.65 14.75 -20.45 15.55 -20.0 15.8 -19.25 M13.25 -19.1 L13.25 -19.05 13.15 -18.7 13.05 -18.3 13.0 -17.95 13.0 -17.6 Q13.4 -17.4 13.8 -17.75 14.1 -18.0 14.2 -18.4 L14.25 -18.75 14.2 -18.85 13.45 -19.05 13.25 -19.1 M3.7 -17.65 L4.0 -17.75 5.35 -17.55 6.3 -16.85 Q6.8 -16.35 6.75 -15.7 L6.75 -15.65 Q7.0 -14.5 6.35 -13.6 5.55 -12.45 4.3 -11.8 3.15 -11.15 2.2 -12.25 1.9 -12.65 1.95 -13.2 L1.95 -14.3 2.1 -15.3 2.45 -16.0 2.6 -16.1 3.05 -16.35 3.35 -16.55 3.75 -16.7 3.75 -16.75 3.85 -16.7 3.5 -17.05 Q3.15 -17.4 3.7 -17.65 M4.5 -15.7 L4.45 -15.3 4.2 -15.05 3.6 -14.45 3.5 -13.95 3.5 -13.75 Q3.4 -13.45 3.6 -13.5 4.2 -13.65 4.6 -14.2 L4.95 -14.75 5.15 -14.95 5.05 -15.15 5.05 -15.5 5.05 -15.6 4.45 -16.15 4.5 -15.7 M38.95 -2.7 Q39.45 -3.05 40.0 -3.2 L41.0 -3.5 43.75 -3.45 Q44.35 -3.4 44.5 -2.8 L44.45 -2.65 44.25 -2.3 Q43.8 -1.95 44.5 -1.95 45.0 -1.95 45.2 -1.5 L45.2 -1.15 Q44.95 0.4 43.7 1.3 41.25 3.15 38.6 1.55 L38.2 1.25 38.1 1.05 38.0 0.5 38.0 -0.45 38.0 -1.0 38.0 -1.75 38.15 -1.95 38.95 -2.7 M42.0 -8.2 L42.6 -7.9 42.95 -7.35 42.95 -7.0 Q42.75 -6.55 42.25 -6.55 41.3 -6.55 40.9 -7.3 40.7 -7.65 40.95 -8.0 L41.5 -8.25 42.0 -8.2 M25.35 1.55 Q24.85 1.25 25.05 0.7 25.25 0.25 25.75 0.3 L25.75 0.25 26.35 0.45 26.7 0.95 Q26.75 1.35 26.45 1.6 L26.3 1.7 25.35 1.55 M-17.2 -85.0 L-17.2 -84.95 -17.05 -84.9 -17.2 -85.0 M-11.4 -88.35 L-11.35 -88.6 -11.6 -88.6 -11.4 -88.35 M-14.0 -75.5 L-17.15 -75.7 Q-15.75 -74.15 -13.1 -73.0 -6.2 -69.9 -3.65 -74.1 -4.6 -74.7 -5.8 -75.1 -8.35 -76.0 -11.05 -76.1 L-11.5 -76.05 -12.85 -75.8 -13.6 -75.6 -14.0 -75.5 M-13.45 -53.25 Q-8.65 -52.85 -3.7 -53.1 L-2.3 -54.75 -2.35 -56.05 -4.0 -56.1 Q-4.15 -55.55 -4.75 -55.55 L-5.95 -55.35 -7.0 -55.0 -7.4 -55.2 -7.7 -55.5 -7.75 -55.6 -7.75 -55.7 -15.4 -55.6 -14.55 -53.35 -13.45 -53.25 M-18.85 -54.4 Q-17.75 -54.0 -16.5 -53.7 L-17.15 -55.4 -18.85 -54.4 M-1.95 -53.85 L-1.85 -53.75 -1.95 -53.9 -1.95 -53.85 M-51.25 -4.7 L-51.25 -4.85 -51.2 -5.2 -50.55 -5.9 -49.75 -6.25 -49.0 -6.2 -48.65 -6.05 -48.3 -5.75 -48.25 -5.55 -48.3 -5.4 -48.4 -5.0 -48.6 -4.45 -48.8 -4.1 -48.95 -4.05 -50.9 -4.2 Q-51.25 -4.35 -51.25 -4.7 M-42.3 -10.15 Q-42.2 -11.45 -41.05 -12.15 -40.05 -12.75 -39.0 -13.0 -38.05 -12.6 -38.15 -11.55 L-38.25 -9.7 Q-38.2 -8.7 -38.7 -7.8 -39.95 -6.95 -41.35 -7.65 L-42.05 -8.25 Q-42.35 -9.15 -42.3 -10.15 M-32.3 -1.3 Q-32.15 -0.75 -32.65 -0.4 -33.2 -0.05 -33.6 -0.55 L-33.7 -0.95 -33.7 -1.5 Q-33.55 -2.0 -33.0 -1.95 L-33.0 -2.0 Q-32.4 -1.9 -32.3 -1.3 M-0.75 -23.45 L-0.4 -23.35 -0.2 -23.2 0.05 -22.45 Q0.0 -21.7 -0.2 -21.0 L-0.65 -19.6 -0.95 -19.05 Q-1.8 -18.35 -3.0 -18.7 L-4.3 -19.5 Q-4.6 -20.2 -4.55 -21.0 -4.4 -22.15 -3.3 -22.6 L-1.25 -23.5 -0.75 -23.45 M-2.95 -20.8 L-2.85 -20.55 Q-2.6 -20.4 -2.4 -20.55 L-1.8 -21.15 -1.55 -21.6 -2.0 -21.5 -2.5 -21.3 -2.8 -21.0 -2.95 -20.8 M-8.4 -19.65 L-8.15 -19.35 -8.1 -19.35 Q-7.5 -18.55 -7.55 -17.5 -7.6 -16.15 -8.7 -15.25 -10.7 -13.55 -13.75 -14.7 -14.4 -14.9 -14.85 -15.3 L-14.95 -15.5 -15.0 -17.0 -15.05 -17.55 Q-15.1 -18.4 -14.7 -19.05 L-13.75 -19.85 -13.55 -19.9 -13.25 -20.0 -11.95 -19.95 -11.95 -20.0 -11.85 -20.2 -11.65 -20.35 -11.25 -20.45 -11.25 -20.5 -9.9 -20.35 Q-9.05 -20.2 -8.4 -19.65" fill="#666666" fill-rule="evenodd" stroke="none"/>
    <path d="M21.3 -85.2 Q11.35 -92.15 2.9 -83.75 0.85 -81.75 0.85 -78.7 0.8 -76.0 0.0 -73.45 L0.05 -73.3 0.25 -73.05 0.35 -72.85 0.45 -72.7 0.45 -72.5 0.45 -72.3 0.35 -72.15 0.25 -71.95 0.25 -71.75 0.25 -71.55 0.2 -71.4 0.15 -71.2 0.05 -71.0 Q-0.05 -70.9 -0.15 -70.9 -10.75 -72.6 -20.7 -69.7 -24.15 -68.75 -25.2 -65.5 L-25.25 -64.85 -25.15 -63.4 -23.9 -61.55 -22.15 -58.6 -20.95 -56.65 -18.25 -57.7 -11.25 -59.0 Q-4.35 -60.2 1.6 -57.45 5.9 -55.45 7.85 -51.75 8.7 -57.4 14.75 -58.25 19.8 -59.25 24.5 -58.45 L25.15 -60.45 Q28.5 -72.0 23.6 -82.5 22.9 -84.1 21.3 -85.2 M30.75 -79.75 Q31.1 -69.3 28.05 -59.85 L27.35 -57.8 27.9 -57.65 Q36.5 -54.9 34.75 -46.75 34.35 -44.9 33.6 -43.35 34.3 -42.55 35.3 -42.0 36.7 -41.3 36.9 -39.85 L37.25 -37.0 37.2 -36.8 37.1 -36.65 37.0 -36.45 36.8 -36.3 36.65 -36.2 36.9 -35.8 37.05 -35.25 37.05 -35.2 37.25 -35.0 38.6 -33.25 Q39.05 -32.3 39.8 -31.7 40.15 -29.55 39.1 -27.7 L36.0 -22.55 Q34.45 -20.2 32.05 -19.6 31.4 -20.45 32.1 -21.25 32.65 -21.85 33.4 -22.25 34.5 -22.75 35.05 -23.85 L35.15 -23.95 34.7 -24.35 34.5 -24.7 34.5 -24.85 34.7 -25.25 35.45 -25.9 Q35.7 -26.0 35.95 -26.2 35.9 -27.1 36.2 -27.9 L36.65 -28.9 37.25 -30.5 37.0 -31.25 36.95 -31.45 35.3 -31.85 35.15 -32.05 35.05 -32.25 35.0 -32.45 35.0 -32.6 Q33.9 -32.55 33.05 -31.75 32.2 -31.0 31.1 -31.45 L31.0 -31.5 30.95 -31.4 30.9 -31.2 30.65 -30.95 Q30.25 -30.7 29.75 -30.6 L29.75 -30.45 29.7 -30.25 29.55 -30.05 29.4 -29.85 29.0 -29.8 21.9 -30.25 21.75 -30.45 21.75 -30.6 Q21.8 -31.55 22.75 -31.75 L25.75 -32.25 30.25 -32.15 30.75 -31.95 Q31.15 -33.15 32.45 -33.6 L32.75 -33.7 Q32.55 -34.3 32.5 -35.0 L31.95 -36.45 30.35 -38.5 30.25 -38.8 30.3 -39.0 30.55 -39.4 Q29.6 -38.55 28.5 -37.85 27.0 -36.85 26.25 -38.2 L26.4 -38.4 27.8 -39.2 27.5 -39.7 Q27.95 -40.9 29.45 -41.35 L29.85 -41.45 Q30.85 -43.25 30.75 -45.7 30.5 -51.25 24.1 -50.2 17.65 -49.15 11.75 -46.2 L11.6 -46.0 11.5 -44.5 11.5 -42.45 Q11.5 -41.4 11.9 -40.45 12.45 -39.0 12.0 -37.6 L11.9 -37.35 11.55 -37.4 Q9.4 -38.6 8.45 -40.85 7.75 -39.0 6.4 -37.35 L6.0 -37.3 5.1 -37.5 Q4.9 -37.55 4.75 -37.75 L4.75 -37.95 4.75 -38.1 4.75 -38.3 4.8 -38.5 4.9 -38.7 4.95 -38.9 5.0 -39.05 4.7 -40.05 Q3.75 -43.95 0.1 -45.7 -9.5 -50.4 -18.0 -45.05 L-18.0 -44.9 -17.55 -42.85 Q-17.35 -41.8 -16.8 -40.9 -16.0 -39.55 -14.8 -38.65 -13.5 -37.65 -13.35 -36.45 -15.05 -35.6 -17.0 -36.9 -22.6 -40.5 -24.2 -47.0 -25.55 -52.35 -22.9 -55.15 -25.1 -55.9 -27.2 -57.85 -30.05 -60.5 -34.5 -59.2 -44.65 -56.25 -41.65 -47.35 -40.3 -43.4 -36.85 -40.75 -34.2 -38.7 -32.85 -36.35 -36.8 -34.35 -39.5 -37.75 L-40.85 -39.5 Q-41.5 -38.85 -41.55 -37.75 -41.55 -35.65 -40.65 -33.7 L-40.3 -32.65 -38.9 -30.85 -35.7 -28.0 Q-34.25 -26.9 -34.4 -25.15 L-34.2 -24.45 -34.2 -24.25 -31.7 -21.75 Q-30.2 -20.3 -28.2 -20.65 -27.35 -20.8 -26.7 -20.2 -26.35 -15.25 -32.2 -17.4 -34.3 -18.2 -34.9 -20.35 -35.5 -22.45 -36.5 -24.25 L-36.5 -24.3 Q-39.0 -24.6 -40.75 -27.0 -41.95 -28.7 -42.1 -30.8 L-42.1 -30.85 Q-43.9 -31.2 -45.4 -32.65 -47.95 -35.05 -47.3 -38.6 -46.65 -42.1 -43.35 -43.15 L-45.6 -47.15 Q-47.45 -50.8 -47.25 -55.05 -47.15 -57.2 -46.6 -59.15 L-46.0 -62.0 -45.85 -62.15 -45.2 -62.9 -44.25 -64.05 -41.05 -65.95 -38.75 -66.75 -34.5 -66.65 -30.3 -65.85 -27.3 -64.95 -27.25 -68.05 -27.25 -69.2 -27.25 -69.35 Q-27.75 -71.85 -25.95 -73.3 -22.55 -76.05 -18.5 -77.4 -19.15 -78.25 -19.55 -79.6 -20.6 -83.2 -18.9 -86.6 -17.75 -88.95 -15.25 -89.5 L-5.3 -88.95 -3.6 -88.55 Q-3.6 -89.55 -2.8 -90.5 -0.65 -92.95 2.6 -94.0 5.95 -95.05 9.5 -95.0 19.25 -97.05 25.8 -90.85 30.55 -86.4 30.75 -79.75 M10.0 -41.65 L9.8 -41.65 10.0 -41.45 10.0 -41.65 M0.05 -26.3 L-0.1 -26.1 -0.25 -25.95 -1.0 -25.2 Q-6.5 -24.5 -11.15 -27.15 L-11.4 -27.3 -12.0 -27.65 -15.55 -27.05 Q-15.3 -25.95 -16.35 -25.25 -19.25 -23.35 -22.95 -23.4 L-23.2 -23.3 Q-24.25 -22.6 -25.0 -23.5 L-25.35 -23.35 Q-27.05 -22.5 -28.9 -23.05 -29.35 -23.15 -29.25 -23.6 L-29.2 -23.8 -28.5 -24.25 Q-27.0 -24.25 -28.2 -25.05 L-28.25 -25.2 -28.25 -25.35 -28.15 -25.55 -28.05 -25.75 -27.95 -25.85 -27.8 -25.95 Q-24.75 -25.25 -22.15 -26.6 -20.25 -27.6 -18.05 -27.7 L-17.75 -27.7 -17.75 -27.75 -17.65 -27.75 -17.75 -28.25 -17.7 -28.6 -17.5 -28.75 -15.2 -29.45 -14.6 -29.65 -15.3 -30.4 Q-15.8 -30.9 -15.0 -31.0 L-12.3 -30.0 -10.75 -29.95 Q-10.15 -29.9 -9.85 -29.35 L-9.6 -29.3 Q-5.85 -28.55 -2.0 -29.15 L2.4 -29.65 2.7 -29.5 Q2.9 -28.85 2.45 -28.35 L1.1 -27.25 0.05 -26.3 M6.7 -26.45 Q7.05 -25.5 7.65 -24.75 8.2 -24.05 8.4 -23.2 L8.4 -22.85 Q6.9 -22.25 5.95 -24.05 L4.85 -26.3 Q4.25 -27.75 5.5 -28.2 L5.5 -28.25 5.85 -28.1 6.1 -27.95 6.3 -27.75 6.7 -26.45 M15.2 -18.65 L15.05 -18.25 14.95 -18.15 14.5 -18.05 Q13.9 -18.05 13.75 -17.55 L13.55 -17.3 13.25 -17.3 12.35 -17.4 Q11.35 -17.75 11.05 -18.7 L11.0 -18.85 11.1 -19.05 11.2 -19.25 11.45 -19.4 12.5 -19.6 12.6 -19.8 12.7 -20.0 12.8 -20.1 12.95 -20.15 13.25 -20.25 14.75 -20.15 15.3 -19.9 15.45 -19.75 15.5 -19.55 15.45 -19.4 15.35 -19.0 15.2 -18.65 M0.35 -22.0 Q-0.95 -21.25 -2.75 -20.9 L-3.25 -20.8 -3.5 -20.75 Q-4.2 -20.8 -4.25 -21.45 L-4.25 -21.6 -4.2 -21.95 -3.55 -22.65 -2.75 -23.0 -0.25 -22.9 Q0.5 -22.85 0.5 -22.1 L0.35 -22.0 M2.0 -16.0 L6.5 -15.9 Q7.25 -15.85 7.25 -15.1 L7.15 -14.95 6.8 -14.55 Q3.35 -13.15 1.35 -15.1 L1.25 -15.35 1.35 -15.55 Q1.6 -16.0 2.0 -16.0 M40.0 -2.7 L40.0 -2.75 40.75 -2.75 42.25 -2.7 43.75 -2.5 Q44.5 -2.35 44.5 -1.6 L44.3 -1.25 44.2 -1.15 43.75 -1.05 40.15 -0.85 39.9 -0.65 39.8 -0.5 39.7 -0.4 39.55 -0.3 39.25 -0.3 38.8 -0.35 38.55 -0.75 38.5 -0.95 38.5 -1.1 38.5 -1.3 Q38.4 -1.75 38.75 -2.1 39.15 -2.5 39.7 -2.65 L40.0 -2.7 M-14.65 -82.3 L-15.2 -81.25 -15.2 -81.05 -15.1 -80.7 -15.05 -80.3 -14.9 -79.75 -14.75 -79.0 -14.6 -78.45 -14.5 -78.35 -14.25 -78.25 -13.9 -78.1 -13.7 -77.95 -13.55 -77.75 -13.5 -77.55 -13.5 -77.45 -7.75 -77.4 -4.2 -76.75 -4.05 -77.2 -3.65 -78.3 -3.3 -79.05 -3.35 -79.2 -3.85 -80.35 Q-4.1 -81.75 -5.05 -82.8 L-7.7 -85.35 -7.75 -85.4 -11.15 -85.1 Q-13.35 -84.3 -14.65 -82.3 M-16.15 -77.5 L-16.2 -77.5 -16.15 -77.5 M-43.25 -46.2 L-43.2 -45.85 -42.95 -45.4 -42.7 -45.1 -42.55 -44.95 -42.7 -45.2 -42.85 -45.55 -43.05 -45.95 -43.25 -46.2 M-18.7 -41.2 L-18.85 -41.05 -18.6 -40.8 Q-18.35 -40.9 -18.7 -41.2 M-5.85 -26.85 L-4.6 -26.7 -1.95 -26.7 Q-1.85 -26.7 -1.75 -26.8 L-5.9 -26.9 -5.85 -26.85 M-36.45 -37.6 L-36.6 -37.45 -36.2 -37.35 -36.45 -37.6 M-30.5 -31.7 L-30.45 -31.85 -30.3 -32.25 -29.75 -32.55 -28.9 -32.7 -28.75 -32.75 -25.25 -32.65 Q-24.5 -32.6 -24.5 -31.85 L-24.65 -31.75 Q-26.5 -30.75 -28.25 -30.9 L-28.2 -30.8 -28.05 -30.55 -27.85 -30.2 -27.8 -29.8 -28.05 -29.5 Q-28.45 -29.15 -29.0 -29.3 L-29.6 -29.55 -29.8 -30.5 -29.75 -31.25 -30.45 -31.55 -30.5 -31.7 M-40.2 -29.3 L-40.25 -29.35 -40.25 -29.3 -40.2 -29.3 M-38.5 -12.45 Q-38.0 -12.45 -37.85 -12.0 L-37.75 -11.6 -38.0 -11.35 Q-39.7 -10.3 -40.4 -11.75 L-40.4 -12.05 -39.75 -12.5 -38.5 -12.45 M-7.75 -18.6 L-8.2 -18.1 -8.45 -18.1 Q-11.15 -19.15 -11.7 -17.3 L-11.9 -16.95 -12.1 -16.65 -12.2 -16.6 -13.0 -16.55 -13.45 -16.6 -13.6 -16.8 -13.7 -17.0 -13.75 -17.2 -13.8 -17.35 -13.95 -17.3 -14.25 -17.3 -14.65 -17.4 -14.85 -17.55 -14.95 -17.75 -15.0 -17.95 -15.0 -18.3 -15.0 -18.5 -15.0 -18.7 -14.9 -19.05 -14.8 -19.25 Q-13.7 -20.3 -11.9 -19.95 L-11.5 -19.95 -11.5 -20.0 -10.45 -19.85 -8.5 -19.45 Q-7.75 -19.35 -7.75 -18.6" fill="#333333" fill-rule="evenodd" stroke="none"/>
    <path d="M16.85 -64.85 Q17.05 -64.9 17.3 -65.1 20.7 -66.35 23.15 -69.15 25.0 -71.2 24.9 -73.6 24.8 -75.6 26.0 -76.5 27.15 -74.65 27.0 -72.75 27.6 -71.0 27.2 -68.7 L26.15 -63.55 24.8 -59.0 Q17.1 -58.9 10.95 -54.65 L9.8 -53.75 9.8 -53.25 9.7 -52.5 9.55 -52.35 8.8 -51.85 8.5 -51.75 8.25 -51.75 7.95 -51.9 7.55 -51.85 7.4 -52.1 7.35 -52.25 6.55 -52.6 Q6.2 -53.2 6.0 -53.95 5.55 -55.95 3.65 -56.7 -0.55 -58.35 -5.0 -58.45 L-5.0 -58.6 -4.55 -59.1 -4.15 -59.2 -14.25 -58.75 Q-16.4 -56.65 -20.15 -56.95 L-21.75 -57.1 -22.35 -57.3 -22.45 -57.5 -22.5 -57.7 -22.5 -58.05 -22.5 -58.45 -22.45 -58.6 Q-14.1 -62.7 -3.9 -61.3 L-1.7 -61.25 Q-0.2 -61.45 1.2 -62.05 L1.4 -62.4 1.65 -62.95 2.25 -63.5 2.75 -63.15 3.0 -62.45 Q2.95 -62.05 3.2 -61.7 L3.3 -61.5 Q6.7 -61.1 9.5 -63.05 L10.5 -64.05 Q13.65 -63.55 16.85 -64.85 M26.55 -39.4 L26.8 -38.85 26.55 -38.3 26.4 -38.1 22.35 -36.65 Q18.8 -35.2 17.0 -37.1 L22.85 -39.0 26.0 -39.7 26.0 -39.75 26.55 -39.4 M30.1 -25.8 L30.2 -26.0 31.0 -26.5 31.35 -26.35 31.55 -26.2 31.7 -26.0 31.75 -25.8 32.0 -25.75 32.25 -25.7 32.9 -25.55 33.2 -25.8 33.25 -26.0 33.4 -26.35 33.7 -26.65 Q34.2 -26.9 34.55 -26.45 35.1 -24.8 33.9 -23.35 L32.6 -21.55 Q31.2 -19.25 28.95 -17.6 26.15 -15.65 23.25 -16.2 L22.55 -15.8 21.25 -14.9 19.75 -14.3 19.5 -14.25 Q18.8 -14.3 18.75 -14.95 19.4 -16.3 21.0 -16.9 21.55 -17.1 22.1 -17.45 L22.25 -17.65 Q23.15 -19.2 24.95 -20.2 L27.4 -22.0 Q26.3 -21.1 24.75 -21.2 22.65 -21.35 21.55 -23.05 L21.5 -23.2 21.3 -23.95 20.45 -24.65 Q19.55 -25.3 18.45 -25.4 L16.4 -25.05 13.95 -24.85 13.0 -24.25 Q12.1 -24.15 11.4 -23.5 10.45 -22.6 9.25 -22.65 L8.65 -22.8 8.55 -23.0 8.5 -23.2 8.5 -23.35 8.5 -23.55 8.55 -23.75 8.65 -23.95 8.35 -24.15 8.15 -24.3 8.05 -24.5 8.0 -24.7 8.0 -24.85 8.2 -25.25 8.6 -25.55 9.0 -25.75 9.3 -25.95 9.2 -26.25 7.25 -26.8 5.9 -27.25 Q5.05 -27.75 4.75 -28.7 4.55 -29.2 4.9 -29.7 L4.45 -30.1 4.25 -30.45 4.25 -30.6 4.25 -30.8 3.75 -30.85 3.85 -30.15 Q3.2 -28.2 0.75 -28.8 -0.75 -29.2 -2.05 -29.95 L-2.25 -30.2 -2.2 -30.35 Q-2.1 -30.85 -1.65 -31.05 L0.9 -31.1 1.05 -30.95 1.2 -30.75 1.25 -30.55 1.25 -30.45 2.05 -30.45 2.2 -30.6 2.25 -30.75 2.15 -30.95 1.7 -31.5 Q1.45 -31.75 1.5 -32.05 1.5 -32.4 1.85 -32.6 L2.25 -32.75 4.35 -32.45 Q5.3 -32.2 6.05 -31.6 L7.3 -30.65 7.45 -30.6 8.1 -30.4 9.0 -30.6 9.5 -30.7 9.75 -30.75 10.1 -30.6 10.3 -30.45 10.45 -30.25 10.5 -30.1 10.5 -30.05 10.6 -30.1 11.0 -30.25 Q11.85 -29.85 12.8 -29.75 L13.35 -29.65 13.25 -29.8 13.25 -30.0 13.25 -30.2 13.25 -30.35 13.25 -30.55 13.2 -30.75 13.05 -30.85 12.75 -31.0 12.2 -31.4 12.0 -31.7 12.0 -31.85 12.1 -32.15 Q13.0 -33.15 14.35 -32.6 L17.05 -31.45 17.15 -31.3 17.2 -31.1 17.25 -30.95 17.2 -30.75 17.05 -30.55 16.95 -30.35 17.1 -30.2 17.85 -29.4 18.45 -28.75 19.0 -27.75 19.0 -27.5 19.25 -27.45 19.8 -27.15 19.95 -27.0 20.0 -26.8 20.05 -26.65 21.15 -26.05 22.5 -25.05 Q25.05 -25.95 26.8 -24.65 L27.0 -24.1 Q26.95 -23.7 27.3 -23.9 L29.0 -24.8 Q29.75 -25.05 30.1 -25.8 M3.6 -41.1 L3.95 -40.75 4.0 -40.55 3.95 -40.4 3.8 -40.0 3.45 -39.6 3.3 -39.35 Q3.7 -39.45 4.0 -39.65 5.55 -40.65 7.1 -39.65 L7.3 -39.5 7.4 -39.3 7.45 -38.95 7.35 -38.15 7.2 -37.65 7.05 -37.25 Q-2.6 -33.3 -12.85 -36.9 L-13.0 -37.2 -13.85 -37.15 -14.65 -37.25 -15.0 -37.5 -15.0 -37.7 -14.95 -37.85 -14.8 -38.25 -14.4 -38.6 -14.1 -38.8 -14.25 -38.9 -14.9 -39.2 -15.4 -39.7 -15.5 -40.05 Q-9.85 -40.35 -1.75 -39.75 L-1.05 -40.2 Q0.35 -41.15 2.05 -41.2 L2.5 -41.25 3.25 -41.2 3.6 -41.1 M4.95 -38.35 L4.75 -38.2 5.3 -38.15 5.7 -38.3 5.7 -38.35 5.0 -38.4 4.95 -38.35 M11.4 -27.65 L10.7 -27.85 11.45 -27.35 12.4 -27.35 11.4 -27.65 M-11.6 -78.65 L-8.05 -78.8 Q-6.3 -79.25 -5.5 -78.05 L-5.5 -77.85 -5.5 -77.7 -5.55 -77.5 -5.7 -77.3 -5.85 -77.1 Q-9.55 -76.0 -13.15 -77.15 L-13.3 -77.2 Q-14.8 -77.85 -14.2 -79.2 -14.05 -79.5 -13.75 -79.5 -12.8 -78.8 -11.6 -78.65 M-18.55 -38.6 L-18.5 -38.45 -18.5 -38.35 -17.4 -38.0 -17.0 -37.55 -17.0 -37.35 Q-27.65 -33.35 -37.15 -38.0 -38.4 -38.6 -39.15 -39.9 -40.7 -42.55 -39.25 -44.25 L-38.75 -44.2 -38.35 -44.1 Q-36.55 -41.1 -33.0 -40.4 L-25.4 -39.15 Q-22.7 -38.75 -20.55 -40.15 L-20.25 -40.25 -19.65 -39.9 -18.9 -39.2 -18.55 -38.6 M-13.85 -33.0 Q-13.65 -32.6 -13.85 -32.2 L-14.05 -31.5 -14.05 -31.3 Q-15.1 -29.95 -16.7 -29.05 -19.75 -27.35 -22.0 -28.7 L-21.8 -29.2 -20.95 -29.65 -19.7 -29.85 Q-19.05 -31.1 -17.6 -31.55 -16.4 -32.0 -15.5 -32.95 L-14.5 -33.5 Q-14.0 -33.45 -13.85 -33.0 M-27.95 -37.35 L-29.4 -37.4 -29.35 -37.35 -27.95 -37.35 M-31.5 -27.5 L-31.7 -27.9 -31.75 -28.05 -31.65 -28.6 -31.0 -29.0 -29.9 -28.85 -28.25 -28.45 Q-27.5 -28.35 -27.5 -27.6 L-27.95 -27.1 -28.25 -27.05 -31.2 -27.1 -31.5 -27.5" fill="#c0ab58" fill-rule="evenodd" stroke="none"/>
  </g>
</svg>
