<?xml version="1.0" encoding="UTF-8" standalone="no"?>
<svg xmlns:xlink="http://www.w3.org/1999/xlink" height="97.35px" width="98.45px" xmlns="http://www.w3.org/2000/svg">
  <g transform="matrix(1.0, 0.0, 0.0, 1.0, 52.5, 95.35)">
    <path d="M31.15 -76.8 Q31.75 -67.35 28.35 -58.95 34.65 -56.75 32.8 -49.0 L32.05 -46.75 32.25 -46.95 32.25 -47.0 Q37.55 -43.5 37.5 -37.5 L37.4 -35.25 Q36.9 -29.25 34.7 -23.65 32.9 -19.2 28.75 -20.25 L28.75 -20.45 28.75 -20.8 Q28.75 -21.15 29.05 -21.4 L29.35 -21.9 29.5 -22.5 29.5 -22.6 Q27.4 -22.2 25.9 -23.3 L25.8 -23.7 25.7 -24.45 25.85 -25.2 26.3 -26.0 26.3 -26.1 Q22.6 -30.65 15.95 -30.0 14.05 -29.85 13.7 -31.7 L13.5 -33.25 Q7.45 -33.95 2.35 -29.7 1.3 -28.8 0.1 -29.15 -4.7 -30.6 -9.9 -29.35 L-11.95 -29.55 Q-13.8 -30.35 -14.35 -32.3 -17.0 -32.6 -19.0 -30.9 -19.95 -30.05 -20.4 -28.75 L-20.55 -28.0 Q-23.15 -25.5 -26.95 -27.35 -28.05 -27.85 -28.95 -28.6 -31.2 -28.8 -31.95 -26.85 -32.45 -25.5 -31.85 -24.15 -31.15 -22.45 -30.85 -20.8 L-30.85 -20.6 Q-33.25 -20.55 -35.25 -22.95 -37.0 -25.0 -37.75 -27.5 -38.3 -29.4 -38.25 -31.5 -41.75 -33.0 -44.25 -35.95 -45.1 -36.95 -44.8 -38.5 L-43.7 -44.7 -43.4 -45.35 Q-45.2 -48.1 -45.9 -51.75 -46.65 -55.6 -45.25 -59.15 -42.7 -65.7 -34.75 -65.5 L-30.75 -65.5 -28.75 -65.4 Q-28.95 -67.75 -28.45 -70.55 -27.25 -77.15 -20.15 -78.4 L-20.1 -78.4 -20.15 -78.75 Q-21.1 -86.4 -15.5 -89.75 -9.7 -91.1 -5.6 -89.1 L-3.75 -90.3 Q1.55 -92.25 7.3 -93.4 L9.0 -93.75 Q24.3 -93.95 30.25 -80.55 31.0 -78.8 31.15 -76.8 M4.35 -52.15 L4.7 -53.2 4.0 -54.1 Q1.95 -56.5 -0.95 -57.4 L-1.2 -57.15 1.15 -54.25 Q2.05 -52.95 3.7 -52.4 L4.35 -52.15 M6.15 -50.2 Q6.1 -47.85 7.2 -45.1 7.4 -47.75 6.5 -50.1 L6.15 -50.2 M8.75 -27.9 Q9.7 -29.65 11.75 -29.75 L12.25 -29.7 12.65 -29.6 Q13.05 -28.6 14.1 -28.05 15.6 -27.2 15.55 -25.45 15.55 -23.8 14.45 -22.65 L14.25 -22.45 Q11.25 -21.3 8.85 -22.9 L8.45 -23.25 Q8.1 -24.3 8.15 -25.5 8.2 -26.8 8.75 -27.9 M13.0 -19.55 L13.05 -19.75 13.15 -19.95 13.35 -20.1 13.75 -20.25 14.3 -20.0 14.8 -19.65 14.95 -19.15 14.9 -18.95 14.65 -18.7 13.75 -18.5 Q13.05 -18.55 13.0 -19.2 L13.0 -19.35 13.0 -19.55 M1.85 -23.6 L2.05 -23.45 2.2 -23.25 2.2 -23.05 2.1 -22.7 1.95 -22.3 1.85 -22.15 1.75 -21.95 Q-0.5 -21.0 -2.9 -21.95 L-3.25 -22.45 -3.25 -22.6 -3.2 -22.95 -2.75 -23.55 -2.25 -23.8 -1.75 -24.0 -0.75 -23.9 -0.2 -23.65 0.0 -23.35 0.7 -23.6 1.5 -23.75 1.85 -23.6 M3.25 -16.45 L3.35 -16.95 Q3.6 -17.6 4.25 -17.75 L5.25 -18.0 5.9 -17.5 Q6.1 -17.1 5.9 -16.7 L5.55 -16.0 5.45 -15.85 4.0 -15.7 Q3.3 -15.8 3.25 -16.45 M31.25 -22.45 L31.25 -22.25 31.4 -22.3 31.25 -22.45 M43.35 -6.55 L43.6 -6.8 44.0 -6.95 44.0 -7.0 Q44.6 -6.9 44.65 -6.3 44.75 -5.8 44.3 -5.6 43.75 -5.35 43.4 -5.85 L43.25 -6.2 43.25 -6.35 43.35 -6.55 M45.25 -2.2 L45.6 -2.05 45.95 -1.75 45.95 -1.55 45.85 -0.8 Q45.75 -0.35 45.8 0.1 L45.65 1.05 45.55 1.25 45.45 1.35 43.75 1.45 43.15 1.2 42.95 0.6 43.2 -0.65 Q43.4 -1.4 43.95 -2.0 44.2 -2.25 44.5 -2.25 L45.25 -2.2 M28.55 1.9 Q28.0 2.15 27.65 1.65 L27.5 1.3 27.5 1.15 27.6 0.95 27.85 0.7 28.25 0.55 28.25 0.5 Q28.85 0.6 28.9 1.2 29.0 1.7 28.55 1.9 M-16.9 -77.2 L-16.8 -77.35 -17.35 -77.25 -16.95 -76.4 -17.0 -76.6 -16.9 -77.2 M-26.45 -63.25 Q-24.95 -58.2 -20.4 -55.85 L-17.3 -58.05 Q-19.35 -60.95 -23.75 -62.5 L-26.45 -63.25 M-17.9 -54.9 L-15.8 -54.35 Q-15.95 -55.25 -16.25 -56.0 L-17.9 -54.9 M-14.4 -54.2 Q-9.7 -53.8 -5.5 -56.4 L-7.35 -56.7 -15.2 -56.5 -14.4 -54.2 M-17.35 -53.6 L-18.85 -54.05 -19.45 -53.4 Q-23.55 -48.65 -20.75 -42.95 L-20.55 -42.6 -18.35 -44.6 Q-16.35 -46.7 -15.85 -49.55 -15.5 -51.5 -15.65 -53.2 L-17.35 -53.6 M-51.75 -5.75 Q-51.15 -5.65 -51.1 -5.05 -51.0 -4.55 -51.45 -4.35 -52.0 -4.1 -52.35 -4.6 L-52.5 -4.95 -52.5 -5.1 -52.4 -5.3 -52.15 -5.55 -51.75 -5.7 -51.75 -5.75 M-41.1 -10.95 L-41.35 -10.7 -41.7 -10.35 -41.75 -9.6 -41.75 -9.45 Q-41.9 -8.85 -42.5 -8.7 -43.6 -8.45 -44.35 -9.05 L-44.45 -9.25 -44.5 -10.2 -44.15 -11.25 Q-43.7 -11.85 -43.0 -11.95 L-43.0 -12.0 -41.75 -11.95 Q-41.25 -11.95 -41.1 -11.5 L-41.0 -11.1 -41.1 -10.95 M-28.05 -25.25 L-27.95 -25.35 -27.8 -25.4 -27.5 -25.45 -27.5 -25.5 -27.0 -25.45 -26.6 -25.35 -26.45 -25.2 -26.3 -25.0 -26.25 -24.85 -26.25 -24.8 -25.5 -24.7 -25.15 -24.6 -24.95 -24.45 -24.8 -24.05 -24.75 -23.3 -24.75 -22.95 -24.75 -22.0 Q-24.7 -21.6 -24.95 -21.25 L-25.9 -20.55 Q-26.9 -20.0 -28.0 -20.3 L-28.6 -20.55 -28.8 -21.7 -28.8 -22.45 -28.75 -24.0 -28.25 -25.05 -28.05 -25.25 M-27.0 -23.3 L-27.1 -22.95 -27.2 -22.55 -27.25 -22.2 -27.2 -21.95 Q-26.55 -22.0 -26.35 -22.55 -26.25 -22.85 -26.4 -23.05 L-26.8 -23.35 -27.0 -23.3 M-34.75 -0.45 L-34.75 -0.6 -34.65 -0.8 -34.4 -1.05 -34.0 -1.2 -34.0 -1.25 Q-33.4 -1.15 -33.35 -0.55 -33.25 -0.05 -33.7 0.15 -34.25 0.4 -34.6 -0.1 L-34.75 -0.45 M-10.0 -20.8 L-10.05 -20.65 -10.2 -20.25 -10.45 -20.1 -10.75 -19.95 Q-10.75 -19.45 -10.9 -19.05 -11.65 -16.95 -14.15 -17.9 L-14.35 -18.05 Q-14.6 -18.4 -14.5 -18.8 -14.4 -19.75 -13.55 -20.35 L-12.0 -21.35 -11.5 -21.5 -10.75 -21.45 -10.4 -21.35 -10.05 -21.0 -10.0 -20.8" fill="#666666" fill-rule="evenodd" stroke="none"/>
    <path d="M20.3 -82.1 L18.8 -83.65 Q11.75 -89.2 4.85 -83.75 2.8 -82.15 2.5 -79.55 2.1 -75.9 1.4 -72.75 L1.45 -72.6 1.75 -72.2 1.7 -72.0 1.5 -71.7 1.05 -70.8 Q0.05 -70.9 -0.4 -71.95 L-3.5 -73.0 -4.7 -73.85 -8.2 -74.4 Q-16.6 -76.2 -21.75 -70.55 -23.4 -68.7 -23.55 -66.2 L-23.45 -65.25 -23.4 -65.0 -21.5 -64.15 Q-20.2 -63.25 -19.65 -61.95 -19.05 -60.6 -18.75 -59.2 -11.55 -64.65 -2.3 -60.8 1.85 -59.0 4.7 -55.7 L4.9 -56.6 Q5.85 -59.85 9.0 -61.0 12.6 -62.3 16.25 -62.75 L21.6 -62.4 26.5 -61.35 27.0 -62.75 Q28.25 -66.15 28.25 -69.95 28.25 -74.25 26.75 -78.15 25.95 -80.3 24.05 -81.85 L24.0 -81.9 20.75 -82.05 20.3 -82.1 M30.35 -82.25 Q33.2 -75.45 32.0 -67.6 31.3 -63.15 29.0 -59.6 L29.6 -59.3 30.55 -58.7 Q31.45 -55.75 31.85 -52.7 32.15 -50.55 31.9 -48.55 34.75 -47.1 36.15 -44.05 37.5 -41.1 37.65 -37.6 37.75 -34.4 36.05 -31.8 L35.75 -31.75 35.5 -31.75 35.1 -31.9 34.9 -32.05 Q34.65 -32.95 34.7 -33.95 L34.8 -36.2 Q34.85 -37.6 34.3 -38.8 L33.45 -40.5 Q30.4 -39.75 28.05 -41.05 L27.7 -41.35 Q26.6 -40.85 25.25 -41.0 31.1 -45.95 28.3 -52.4 26.95 -55.55 23.45 -56.35 11.45 -59.05 8.0 -49.3 8.4 -47.55 8.4 -45.55 8.3 -40.45 5.2 -36.7 3.1 -34.1 0.25 -35.25 L0.25 -35.45 Q0.25 -36.45 0.85 -37.3 1.65 -38.4 1.95 -39.8 2.25 -41.65 1.3 -43.1 0.6 -44.1 0.25 -45.45 L0.2 -45.5 Q-2.3 -46.55 -5.0 -47.4 -11.25 -49.3 -16.95 -47.0 L-16.95 -46.8 -16.6 -45.5 -15.95 -43.8 -15.0 -41.55 -13.8 -38.75 -13.5 -38.55 -12.4 -37.8 -12.05 -37.65 Q-11.35 -37.3 -10.65 -37.25 -8.95 -37.05 -8.5 -35.7 -9.15 -34.45 -10.7 -35.0 -16.5 -37.05 -21.3 -40.7 -23.0 -42.0 -23.7 -43.95 -24.5 -46.4 -24.5 -49.05 -24.5 -52.45 -22.8 -55.25 L-26.65 -57.55 Q-35.3 -62.95 -38.75 -54.85 -39.45 -53.25 -39.25 -51.5 -38.4 -42.65 -29.05 -41.2 -27.7 -40.95 -26.7 -40.15 -26.45 -39.95 -26.5 -39.6 L-26.65 -39.5 -34.55 -39.3 Q-37.25 -39.75 -39.2 -41.25 L-39.25 -41.05 -39.25 -40.85 -39.35 -40.5 -39.65 -40.15 -39.85 -39.9 -39.8 -39.75 -39.7 -39.6 -39.25 -38.8 -39.15 -38.45 -39.05 -38.25 -38.95 -38.1 -38.45 -37.45 -38.25 -36.8 -38.2 -36.75 Q-36.65 -35.95 -35.85 -34.6 -35.15 -33.35 -35.75 -31.9 -36.55 -29.95 -36.3 -27.55 -36.2 -26.65 -35.75 -25.85 L-35.65 -25.7 Q-35.1 -24.95 -35.35 -24.2 L-35.45 -24.0 -35.55 -23.9 -35.7 -23.8 -36.0 -23.8 -36.7 -23.85 -36.85 -24.1 -37.4 -25.4 -37.9 -27.1 -38.3 -29.5 Q-38.5 -31.15 -37.6 -32.55 L-37.35 -33.05 -37.5 -33.15 -41.75 -34.95 Q-44.1 -36.15 -44.4 -38.55 -44.7 -40.65 -43.8 -42.5 L-43.5 -43.25 -44.15 -44.35 Q-45.25 -47.7 -45.7 -51.3 L-45.8 -54.9 -45.7 -56.55 Q-45.5 -60.2 -43.0 -62.65 -39.85 -65.75 -35.5 -66.25 L-28.0 -66.2 -28.0 -66.7 -27.9 -68.75 -27.75 -70.1 Q-27.65 -71.7 -27.2 -73.1 -25.95 -77.5 -21.4 -78.5 -20.35 -78.75 -19.75 -79.05 L-19.75 -80.0 -19.75 -80.95 -19.75 -82.6 -19.75 -83.35 -19.75 -84.85 Q-19.7 -87.15 -18.15 -88.9 -16.8 -90.4 -15.0 -91.0 L-11.4 -90.65 -9.1 -90.3 -5.75 -89.9 -5.5 -89.85 Q-4.6 -91.3 -3.05 -92.15 L2.2 -94.65 5.75 -95.25 Q16.35 -96.05 24.55 -89.7 28.4 -86.75 30.35 -82.25 M28.85 -63.3 L28.55 -62.75 28.5 -62.55 28.9 -63.1 29.15 -63.7 Q29.35 -64.0 29.2 -64.4 L29.15 -64.45 29.0 -63.9 28.85 -63.3 M30.15 -54.05 L30.0 -53.9 30.15 -53.7 30.15 -54.05 M29.9 -33.05 L29.95 -32.85 30.0 -32.7 30.0 -32.3 30.05 -31.75 29.95 -31.15 Q29.75 -30.75 29.25 -30.75 L28.85 -30.9 Q28.7 -30.95 28.65 -31.05 L28.55 -31.25 28.5 -31.45 28.5 -31.6 28.5 -31.8 28.5 -32.0 28.05 -32.4 Q27.6 -32.85 26.85 -32.75 22.55 -32.25 23.05 -34.55 L23.25 -34.75 25.65 -34.65 28.0 -34.25 Q29.0 -33.9 29.8 -33.25 L29.9 -33.05 M1.2 -32.6 L2.2 -32.4 3.75 -32.65 4.15 -32.6 4.3 -32.45 4.45 -32.25 4.5 -32.05 4.5 -31.85 4.5 -31.7 4.5 -31.5 4.5 -31.3 4.45 -31.15 4.4 -30.95 4.3 -30.75 3.35 -30.0 2.85 -29.7 Q0.3 -28.3 -2.65 -29.2 L-2.75 -29.2 -3.25 -29.15 Q-7.6 -28.4 -11.4 -30.1 -13.95 -31.25 -15.2 -33.2 L-15.25 -33.2 -16.95 -32.7 -17.3 -32.45 Q-17.15 -31.9 -17.7 -31.6 L-19.15 -30.7 -19.75 -30.55 -20.35 -30.8 Q-20.75 -32.0 -19.9 -33.05 -19.2 -33.85 -18.05 -34.25 L-15.0 -35.0 -14.3 -34.8 -13.75 -34.95 -13.75 -35.0 Q-12.4 -34.65 -11.6 -33.45 -11.05 -32.65 -10.2 -32.5 L-7.5 -32.15 Q-6.75 -32.1 -6.75 -31.35 -6.2 -30.55 -5.0 -30.6 L-5.0 -30.8 -5.0 -31.0 -5.0 -31.2 -4.75 -31.55 -4.55 -31.65 -4.2 -31.85 -4.2 -31.95 -4.25 -32.15 -4.25 -32.3 -4.05 -32.6 -3.5 -32.95 -3.5 -33.0 -1.35 -32.75 0.75 -32.45 1.2 -32.6 M8.3 -26.6 Q8.2 -26.9 8.25 -27.2 L8.35 -27.35 8.6 -27.95 9.1 -28.7 9.7 -29.15 10.0 -29.25 11.5 -29.15 12.7 -28.9 13.9 -28.6 14.1 -28.4 14.4 -27.85 14.7 -27.1 14.95 -26.55 14.95 -26.0 14.8 -25.85 10.3 -25.75 10.15 -25.55 9.8 -25.0 9.3 -24.0 Q9.05 -23.5 8.5 -23.55 L8.05 -23.6 7.9 -23.8 7.65 -24.55 Q7.65 -25.15 8.05 -25.6 8.5 -26.15 8.3 -26.6 M0.8 -23.9 L1.0 -23.35 0.75 -23.1 Q-0.6 -22.25 -2.15 -22.7 L-2.5 -23.2 -2.45 -23.35 -2.3 -23.75 Q-2.1 -24.0 -1.75 -24.05 L-0.75 -24.25 0.25 -24.15 0.8 -23.9 M-6.5 -88.0 L-6.5 -87.85 -6.45 -88.0 -6.5 -88.0 M-11.9 -84.0 L-12.75 -83.1 -13.8 -81.85 -14.5 -79.9 -14.6 -79.25 -14.5 -79.25 -9.8 -79.1 -6.35 -78.45 -1.95 -78.2 Q-1.9 -79.35 -2.75 -80.35 -5.2 -83.15 -9.0 -84.15 L-11.6 -84.35 -11.9 -84.0 M-2.2 -75.05 L-2.25 -75.0 -2.1 -74.95 -2.2 -75.05 M-3.45 -31.4 L-3.7 -31.45 -3.05 -31.05 -2.65 -31.25 -3.45 -31.4 M-35.85 -42.05 L-35.85 -41.95 -35.8 -41.95 -35.85 -42.05 M-31.25 -33.45 L-31.25 -33.6 -31.2 -33.8 Q-30.15 -35.5 -27.25 -34.7 L-27.25 -34.75 -25.75 -34.7 Q-25.25 -34.7 -25.1 -34.25 L-25.0 -33.85 Q-25.15 -33.5 -25.45 -33.4 L-31.1 -33.2 -31.25 -33.45 M-27.3 -25.15 L-27.0 -25.25 -25.75 -25.15 -25.15 -24.9 -24.75 -24.35 -24.8 -24.2 -25.0 -23.85 Q-25.55 -23.25 -26.5 -23.35 L-26.6 -23.2 -26.8 -22.8 Q-26.85 -22.45 -27.2 -22.4 L-27.95 -22.35 -28.1 -22.55 -28.2 -22.75 -28.25 -23.1 -28.25 -23.7 -28.25 -24.25 -28.1 -24.45 -27.95 -24.6 -27.55 -25.0 -27.3 -25.15" fill="#333333" fill-rule="evenodd" stroke="none"/>
    <path d="M6.5 -63.75 Q7.0 -64.4 7.75 -64.5 9.1 -63.65 8.15 -62.1 L7.85 -61.55 8.75 -61.75 9.25 -61.7 9.6 -61.6 9.9 -61.25 10.0 -61.05 Q9.45 -59.75 7.75 -59.35 L6.65 -59.25 Q6.15 -58.3 5.25 -57.7 L5.25 -57.5 5.25 -57.3 5.25 -57.15 5.15 -56.75 5.05 -56.55 4.5 -56.3 2.8 -56.1 2.65 -56.3 2.55 -56.5 2.5 -56.7 2.5 -56.85 2.5 -57.0 Q-0.5 -57.65 -2.95 -59.2 -5.0 -60.55 -7.5 -61.15 -8.3 -61.35 -8.25 -62.1 -4.65 -62.3 -0.55 -61.0 1.85 -60.25 4.25 -60.3 L4.25 -60.35 4.7 -60.95 5.3 -61.9 6.5 -63.75 M24.8 -41.7 Q21.1 -39.3 17.2 -37.3 12.95 -35.1 10.0 -37.35 L10.0 -37.55 10.05 -37.75 10.25 -38.15 10.25 -38.25 Q9.05 -37.85 7.85 -38.25 7.5 -38.35 7.5 -38.7 13.4 -41.2 20.15 -43.5 24.4 -44.95 27.25 -48.3 27.6 -48.75 28.0 -48.75 29.2 -44.55 24.8 -41.7 M28.4 -29.8 L28.75 -30.0 30.2 -29.85 31.5 -29.55 Q32.35 -29.3 32.25 -28.45 L31.9 -28.1 Q30.2 -28.15 28.45 -28.9 27.65 -29.25 28.4 -29.8 M24.9 -32.25 L25.0 -32.05 Q23.35 -30.1 20.35 -30.75 20.0 -30.8 19.7 -31.0 L18.8 -31.2 Q16.3 -31.15 15.25 -32.95 L14.6 -33.2 14.0 -33.65 Q13.7 -33.9 13.75 -34.25 L13.9 -34.55 14.5 -35.25 14.85 -35.55 15.25 -35.75 15.6 -35.6 15.9 -35.25 16.05 -34.7 16.05 -34.5 Q19.45 -32.5 23.65 -32.85 24.5 -32.9 24.9 -32.25 M32.85 -27.05 Q33.1 -27.5 33.5 -27.5 L34.25 -27.4 34.8 -27.15 35.0 -26.6 34.65 -26.25 Q33.25 -25.55 32.85 -26.7 L32.85 -27.05 M17.25 -46.75 Q18.95 -46.3 17.55 -45.25 16.55 -44.5 15.4 -44.0 L12.95 -44.15 Q12.8 -44.25 12.75 -44.45 12.85 -45.25 13.7 -45.35 15.1 -45.5 16.2 -46.25 L17.25 -46.75 M14.75 -38.25 Q14.2 -37.9 15.5 -38.3 L16.0 -38.5 16.15 -38.6 16.0 -38.75 15.65 -38.6 15.25 -38.45 Q15.15 -38.35 15.05 -38.35 L14.75 -38.25 M9.25 -33.35 L9.15 -33.2 8.8 -32.8 Q5.35 -31.35 3.35 -33.35 L3.25 -33.6 3.35 -33.8 4.0 -34.25 8.5 -34.15 Q9.25 -34.1 9.25 -33.35 M0.8 -35.7 Q-1.55 -34.25 -4.55 -35.05 -7.0 -35.65 -8.9 -37.15 L-9.25 -37.5 -9.25 -37.7 -9.25 -38.05 -9.25 -38.45 -9.15 -38.8 -8.9 -39.1 -8.8 -39.15 -8.5 -39.2 -8.5 -39.25 -5.4 -38.45 Q-3.9 -37.85 -2.2 -38.05 -0.35 -38.25 1.3 -37.45 1.85 -36.35 0.8 -35.7 M-37.25 -49.8 L-37.05 -49.9 -36.75 -50.0 -36.25 -50.1 -36.25 -50.3 -36.2 -50.5 -36.1 -50.65 -35.5 -50.95 -35.5 -51.0 Q-34.35 -50.7 -33.55 -49.75 L-31.85 -48.1 -30.25 -46.3 Q-28.1 -45.65 -25.75 -46.25 -24.65 -45.5 -23.25 -45.65 -22.75 -45.7 -22.55 -45.25 -23.15 -43.65 -24.3 -43.0 L-23.0 -42.75 -21.7 -42.0 Q-21.05 -41.35 -21.05 -40.55 -21.25 -39.9 -21.85 -40.25 L-24.45 -41.4 Q-25.6 -41.75 -25.0 -42.7 L-28.9 -42.9 -33.2 -44.35 -34.9 -45.0 Q-37.45 -45.95 -37.55 -48.5 L-37.45 -49.6 -37.25 -49.8 M-10.85 -40.6 L-10.8 -40.25 Q-11.4 -39.35 -12.3 -40.0 L-14.25 -41.45 Q-14.7 -41.9 -14.15 -42.3 L-13.75 -42.5 -12.75 -42.3 -11.65 -41.7 Q-11.05 -41.3 -10.85 -40.6 M-19.85 -33.45 L-19.95 -33.3 Q-23.15 -31.6 -25.75 -33.55 L-26.0 -33.85 -26.0 -34.05 -25.95 -34.25 -25.85 -34.45 -25.65 -34.6 -25.25 -34.75 -24.85 -34.7 -20.5 -34.4 Q-19.75 -34.35 -19.75 -33.6 L-19.85 -33.45 M-34.75 -37.25 L-33.9 -36.85 -33.0 -36.5 Q-32.4 -36.4 -32.25 -35.8 L-32.25 -35.6 Q-32.65 -34.7 -33.75 -35.0 -34.9 -35.3 -35.35 -36.35 -35.6 -36.9 -35.05 -37.15 L-34.75 -37.25 M-31.25 -29.35 L-29.65 -29.75 -29.75 -29.8 Q-30.85 -30.05 -30.3 -31.0 L-30.15 -31.1 -29.75 -31.25 -25.25 -31.3 -23.8 -31.1 -22.8 -31.3 -20.75 -31.75 Q-18.8 -30.1 -22.5 -28.95 L-26.15 -28.05 Q-28.95 -27.55 -30.85 -28.85 L-31.25 -29.35" fill="#c0ab58" fill-rule="evenodd" stroke="none"/>
  </g>
</svg>
