<?xml version="1.0" encoding="UTF-8" standalone="no"?>
<svg xmlns:xlink="http://www.w3.org/1999/xlink" height="72.75px" width="74.55px" xmlns="http://www.w3.org/2000/svg">
  <g transform="matrix(1.0, 0.0, 0.0, 1.0, 43.05, 94.5)">
    <path d="M18.1 -89.55 Q26.25 -86.6 28.35 -78.6 L29.3 -73.7 Q29.85 -69.4 28.2 -66.7 29.95 -63.4 29.5 -58.5 29.3 -56.35 28.5 -54.45 31.75 -54.6 31.45 -49.9 31.2 -46.7 30.25 -43.7 29.3 -40.7 27.05 -39.6 26.75 -39.85 26.75 -40.2 L26.85 -41.1 27.25 -41.9 27.5 -42.45 Q25.75 -49.2 18.05 -45.8 12.9 -43.5 7.05 -43.55 L4.5 -43.3 Q2.7 -42.95 1.55 -44.35 L0.45 -44.35 -0.25 -43.9 Q-1.0 -43.35 -2.0 -43.2 L-2.95 -41.95 -3.95 -40.45 -4.8 -39.1 Q-8.1 -40.5 -10.8 -43.85 -12.75 -46.25 -16.15 -46.4 -17.1 -46.4 -17.85 -47.25 -19.15 -48.7 -21.25 -48.0 -22.45 -46.4 -24.35 -45.9 -28.25 -44.85 -30.25 -47.85 -31.6 -46.8 -33.45 -46.0 -35.4 -45.15 -35.6 -43.15 -35.65 -42.4 -35.85 -41.7 -39.05 -40.0 -40.2 -43.75 -40.75 -45.55 -40.75 -47.5 L-40.5 -51.45 -40.85 -51.65 -41.6 -52.0 -42.35 -52.55 Q-42.6 -53.75 -42.4 -55.0 -42.2 -56.4 -41.5 -57.65 L-40.35 -59.4 -40.7 -60.2 Q-43.15 -66.0 -40.8 -71.95 -39.35 -75.5 -35.4 -76.75 L-26.65 -79.25 Q-24.75 -86.0 -19.1 -88.4 -17.6 -91.0 -13.8 -92.2 L-10.0 -93.0 Q-4.5 -93.4 -1.5 -91.1 L-0.25 -91.45 2.0 -92.0 Q10.35 -92.35 18.1 -89.55 M20.1 -72.75 L20.1 -72.8 20.05 -72.75 20.1 -72.75 M22.1 -43.8 L21.9 -42.7 21.8 -42.5 21.7 -42.4 19.8 -42.3 Q19.25 -42.5 18.9 -42.8 L18.8 -43.2 18.85 -44.3 Q19.0 -45.1 19.55 -45.65 L20.25 -46.0 21.25 -45.95 21.6 -45.85 21.8 -45.7 21.9 -45.5 22.1 -44.75 22.1 -43.8 M22.75 -39.25 L24.5 -39.15 25.05 -38.95 25.15 -38.75 Q25.3 -38.2 25.1 -37.7 L24.65 -36.3 24.3 -35.0 24.2 -34.9 Q22.9 -34.4 21.6 -34.9 L21.4 -35.05 21.3 -35.25 21.2 -36.0 Q21.15 -36.5 21.4 -36.95 L21.5 -37.9 21.5 -38.25 21.65 -38.45 21.8 -38.6 22.15 -39.0 Q22.4 -39.3 22.75 -39.2 L22.75 -39.25 M23.05 -37.5 L23.0 -36.95 Q23.0 -36.7 23.2 -37.05 23.35 -37.4 23.1 -37.5 L23.05 -37.5 M1.0 -26.75 Q1.75 -26.6 1.6 -25.9 L1.55 -24.55 Q1.6 -24.0 1.1 -23.65 L0.75 -23.5 Q0.05 -23.55 0.0 -24.2 L-0.05 -25.1 0.2 -26.25 0.4 -26.45 0.6 -26.6 1.0 -26.7 1.0 -26.75 M9.7 -28.7 L9.85 -30.6 Q10.05 -31.8 10.75 -32.8 L11.75 -33.5 12.5 -33.45 13.1 -33.45 13.75 -33.5 Q15.05 -32.7 15.3 -31.15 15.65 -28.75 13.65 -27.45 L9.9 -27.55 Q9.65 -28.1 9.7 -28.7 M-9.6 -91.35 Q-13.25 -90.8 -15.4 -89.45 L-10.75 -89.75 Q-3.5 -90.15 -0.4 -86.35 L-2.1 -89.55 -3.0 -89.5 -3.0 -89.7 -2.8 -90.25 -2.7 -90.35 -3.0 -90.7 -5.25 -91.0 -9.6 -91.35 M-7.75 -75.15 L-7.85 -75.1 -6.45 -75.1 -7.75 -75.15 M-3.75 -73.7 L-3.6 -73.75 -5.05 -74.45 Q-7.05 -73.4 -10.05 -72.65 -7.3 -72.35 -3.75 -73.7 M-0.25 -74.1 L0.1 -75.3 -0.6 -74.35 -0.25 -74.1 M-17.75 -43.75 L-15.25 -43.6 -13.65 -43.1 Q-12.85 -42.65 -13.05 -41.8 L-13.15 -41.65 Q-13.85 -40.85 -14.75 -41.15 L-18.95 -42.6 -19.0 -42.7 -19.0 -42.85 -18.9 -43.05 -18.8 -43.25 -18.55 -43.4 -18.05 -43.65 -17.75 -43.75 M-28.3 -44.3 Q-27.5 -44.0 -27.1 -43.3 L-27.0 -43.1 -27.05 -42.75 -27.25 -42.0 -27.55 -41.25 -27.85 -40.65 -28.35 -40.1 -30.75 -40.2 -32.25 -41.2 -32.5 -41.55 -32.5 -42.1 -32.5 -43.25 -32.45 -44.0 Q-32.25 -45.0 -31.25 -45.2 L-31.25 -45.25 Q-30.35 -45.45 -29.7 -45.0 L-28.3 -44.3 M-37.75 -42.55 L-37.8 -42.6 -37.75 -42.55 M-21.65 -35.75 L-21.8 -34.05 -21.85 -33.85 Q-22.05 -33.5 -22.5 -33.5 L-25.2 -33.6 -25.65 -34.2 -25.75 -34.75 -25.8 -35.3 -25.55 -36.25 -25.35 -36.45 -25.15 -36.6 -24.75 -36.8 -24.55 -36.9 -24.25 -36.95 -24.25 -37.0 -22.75 -36.8 Q-21.8 -36.7 -21.65 -35.75 M-24.05 -35.35 Q-23.75 -35.1 -23.5 -35.35 -23.2 -35.7 -23.6 -35.55 L-24.05 -35.35 M-26.4 -27.95 L-26.6 -27.2 -26.7 -27.0 Q-27.45 -26.45 -28.5 -26.65 -29.3 -26.85 -29.25 -27.6 L-29.05 -28.1 -27.9 -28.75 -27.25 -29.0 -26.75 -28.65 -26.4 -27.95 M-11.75 -23.65 L-11.2 -22.95 Q-10.85 -22.55 -11.1 -22.2 -11.35 -21.65 -12.0 -21.8 -12.9 -22.05 -13.2 -23.0 -13.35 -23.55 -12.9 -23.8 L-12.5 -24.0 Q-12.0 -24.05 -11.75 -23.65" fill="#666666" fill-rule="evenodd" stroke="none"/>
    <path d="M26.35 -86.05 Q30.1 -79.9 29.75 -72.25 29.65 -69.35 28.55 -66.95 L28.3 -66.75 28.5 -65.95 Q30.0 -59.9 28.55 -53.9 L28.6 -53.85 29.0 -54.0 Q29.85 -54.0 30.05 -53.1 L30.55 -51.55 Q30.95 -50.75 30.4 -50.1 L30.1 -50.05 30.05 -50.0 29.95 -49.85 Q29.15 -49.5 28.7 -50.2 L27.55 -51.5 27.5 -51.45 27.3 -51.35 27.0 -51.25 26.5 -51.3 26.1 -51.4 25.9 -51.55 25.75 -51.75 25.75 -51.95 25.75 -52.1 25.85 -52.3 25.95 -52.5 26.1 -52.7 26.2 -52.9 26.25 -53.0 Q25.85 -53.35 26.2 -53.85 25.3 -61.45 19.35 -65.55 13.95 -69.3 8.2 -66.1 2.9 -63.1 4.55 -56.7 L5.55 -52.0 5.45 -51.9 5.3 -51.8 5.0 -51.75 Q4.35 -51.7 3.85 -52.15 L2.3 -53.35 0.9 -54.3 0.75 -54.5 -0.95 -58.4 Q-2.55 -62.1 -1.3 -65.9 L-0.4 -67.95 Q-3.7 -71.65 -9.55 -68.75 -11.2 -67.95 -12.4 -66.5 -12.55 -66.35 -12.95 -66.35 L-13.0 -65.85 Q-13.45 -60.2 -17.2 -57.35 L-18.4 -65.35 Q-19.9 -75.35 -31.05 -72.9 -40.2 -70.85 -38.2 -62.0 L-37.8 -59.8 -35.2 -57.85 Q-33.55 -56.45 -31.4 -55.9 -29.15 -55.4 -27.75 -54.1 L-29.15 -53.85 -29.2 -53.85 -29.75 -53.5 Q-34.65 -53.25 -38.5 -55.35 L-38.5 -55.1 -38.05 -52.1 -38.0 -51.55 -37.8 -51.4 -37.15 -51.1 -36.6 -50.55 -36.5 -50.2 Q-39.6 -48.85 -41.9 -51.95 -43.55 -54.2 -42.8 -57.15 -42.45 -58.6 -41.0 -59.05 L-41.0 -59.25 -40.9 -59.6 -40.65 -59.9 -41.2 -61.75 -41.8 -67.65 Q-42.35 -75.3 -34.65 -78.2 -30.55 -79.7 -26.25 -80.0 L-25.75 -80.1 -25.75 -80.3 -25.75 -80.5 -24.8 -81.4 -24.3 -81.7 -23.9 -82.4 -21.6 -86.35 Q-21.1 -87.4 -20.1 -87.9 L-20.05 -88.25 -20.0 -89.0 -19.85 -89.2 -19.4 -89.8 Q-18.9 -90.75 -17.85 -91.3 L-15.5 -92.6 -14.0 -93.25 Q-8.6 -94.3 -4.3 -92.1 L-3.8 -92.4 -3.5 -92.5 -1.1 -92.4 -0.25 -92.7 7.3 -94.4 7.75 -94.5 Q15.25 -94.3 21.75 -90.55 24.65 -88.9 26.35 -86.05 M1.45 -74.7 L1.45 -73.9 2.25 -72.75 2.35 -72.7 2.55 -72.5 2.75 -72.1 Q4.25 -73.3 6.25 -73.75 L18.9 -73.55 Q21.7 -73.5 23.75 -72.45 L23.65 -72.85 Q23.05 -77.75 19.7 -81.3 L17.4 -83.35 Q9.85 -88.75 0.25 -86.65 L0.3 -86.35 Q1.5 -80.75 1.45 -74.7 M19.2 -50.1 L19.3 -50.25 19.6 -50.55 20.0 -50.75 20.35 -50.6 20.8 -50.2 21.0 -49.7 21.0 -49.5 Q20.1 -48.0 18.25 -47.6 15.85 -47.15 15.05 -48.7 L15.0 -48.85 Q15.15 -49.45 15.75 -49.5 L19.05 -49.85 19.2 -50.1 M21.4 -45.1 L19.6 -43.7 17.5 -43.75 Q17.45 -44.45 18.1 -44.8 L19.5 -45.6 20.5 -46.1 21.0 -46.25 Q22.5 -46.0 21.4 -45.1 M22.4 -38.2 L22.55 -38.35 22.95 -38.75 23.2 -38.9 23.5 -39.0 24.75 -38.95 Q25.25 -38.95 25.4 -38.5 L25.5 -38.1 25.4 -37.95 Q24.95 -37.25 24.05 -37.0 L23.0 -36.9 22.4 -37.05 22.3 -37.25 22.25 -37.45 22.25 -37.6 22.25 -37.8 22.25 -38.0 22.4 -38.2 M2.5 -49.1 Q-4.25 -46.9 -11.15 -49.2 -13.35 -49.95 -15.3 -51.15 -16.6 -51.9 -16.45 -53.3 L-16.3 -53.65 -15.75 -54.0 Q-13.7 -51.2 -9.9 -50.8 L-6.05 -50.3 -1.35 -50.45 Q1.1 -50.95 2.35 -49.45 L2.5 -49.1 M10.0 -31.7 L10.1 -32.05 10.4 -32.6 10.55 -33.2 10.55 -33.35 10.75 -33.55 11.25 -33.7 12.5 -34.0 14.25 -33.9 14.8 -33.7 14.9 -33.5 14.9 -33.2 Q14.75 -32.85 14.9 -32.6 L15.0 -32.0 14.9 -31.6 14.75 -31.5 14.25 -31.3 Q13.75 -31.3 13.55 -31.75 L13.5 -31.95 13.15 -31.8 11.8 -31.15 Q10.7 -30.65 10.0 -31.5 L10.0 -31.7 M-19.3 -85.55 L-19.5 -85.4 -21.7 -83.0 -21.75 -82.9 -20.45 -83.25 -13.75 -84.25 Q-10.1 -84.2 -6.75 -82.45 -3.55 -80.8 -1.2 -78.1 L-0.5 -77.15 Q-0.65 -79.7 -1.4 -82.05 -2.8 -86.6 -7.95 -87.95 L-12.55 -87.65 Q-14.75 -87.4 -16.7 -86.25 -18.15 -85.4 -19.3 -85.55 M-15.15 -76.75 L-15.95 -76.4 -14.8 -74.65 -14.75 -74.75 Q-14.3 -75.75 -13.25 -76.0 L-10.15 -76.25 Q-12.3 -78.0 -15.15 -76.75 M-15.8 -62.1 L-16.0 -62.15 -16.0 -61.55 -15.8 -62.1 M-40.8 -57.0 L-40.95 -57.2 -41.05 -57.15 -40.8 -57.0 M-0.1 -46.3 L0.5 -46.5 Q1.75 -44.95 -1.2 -43.75 L-2.4 -43.25 -2.55 -43.0 -3.35 -41.6 -4.45 -40.3 Q-5.0 -40.1 -5.3 -40.6 L-5.9 -41.55 -6.5 -42.2 -6.95 -42.05 -7.05 -41.95 -7.25 -41.6 -7.75 -41.25 -8.0 -41.25 -8.4 -41.4 -8.6 -41.55 -8.8 -41.75 -8.95 -42.15 -8.95 -42.65 -8.75 -43.1 Q-9.2 -43.45 -9.25 -44.05 -5.95 -44.55 -1.85 -45.75 -1.05 -45.95 -0.1 -46.3 M-14.75 -43.65 Q-14.15 -43.6 -13.7 -43.15 -13.35 -42.8 -13.6 -42.45 L-13.7 -42.3 Q-15.35 -41.7 -17.05 -42.6 -17.85 -43.0 -17.1 -43.55 -16.95 -43.65 -16.75 -43.7 L-16.75 -43.75 -14.75 -43.65 M-29.2 -42.3 Q-29.9 -42.5 -30.45 -42.1 -31.3 -41.45 -32.1 -42.1 L-32.25 -42.25 -32.25 -42.45 -32.15 -42.95 -32.05 -43.55 Q-32.1 -44.0 -31.75 -44.3 L-31.25 -44.5 -29.3 -44.3 Q-28.25 -44.05 -27.7 -43.1 -27.1 -42.05 -27.45 -41.0 L-27.55 -40.9 Q-28.0 -40.6 -28.4 -40.9 L-28.85 -41.4 -29.05 -42.2 -29.2 -42.3" fill="#333333" fill-rule="evenodd" stroke="none"/>
  </g>
</svg>
