<?xml version="1.0" encoding="UTF-8" standalone="no"?>
<svg xmlns:xlink="http://www.w3.org/1999/xlink" height="64.3px" width="69.8px" xmlns="http://www.w3.org/2000/svg">
  <g transform="matrix(1.0, 0.0, 0.0, 1.0, 42.8, 93.3)">
    <path d="M1.25 -91.5 Q20.85 -91.05 25.85 -73.15 27.2 -68.3 25.65 -63.65 26.8 -62.25 26.6 -59.85 26.35 -57.05 24.4 -55.0 22.5 -53.0 20.4 -53.05 20.15 -53.4 20.2 -53.8 L20.25 -54.95 20.25 -55.05 Q17.45 -52.3 13.6 -50.55 12.75 -50.1 11.75 -50.0 5.75 -49.15 1.3 -50.95 L1.2 -50.85 1.0 -50.7 0.95 -50.5 1.0 -50.1 1.0 -49.75 1.0 -49.55 0.85 -49.2 0.7 -48.85 Q-0.7 -48.75 -1.25 -50.25 -1.8 -51.7 -3.2 -52.5 -4.3 -53.1 -4.75 -53.95 L-6.5 -53.65 -7.5 -53.6 -14.45 -53.5 Q-17.65 -53.45 -20.05 -55.05 L-21.75 -54.2 Q-25.45 -52.0 -30.15 -52.55 -31.55 -52.7 -32.45 -51.55 -35.1 -51.85 -36.75 -54.05 -37.7 -55.35 -37.55 -57.05 L-37.5 -57.55 Q-40.95 -60.15 -41.1 -65.3 -41.45 -73.8 -34.45 -78.1 L-34.0 -78.2 Q-33.45 -78.3 -33.05 -78.65 -32.6 -79.1 -32.0 -79.2 L-32.0 -79.25 -26.3 -79.15 Q-26.85 -84.1 -21.9 -87.8 -17.9 -90.75 -12.95 -91.7 -11.85 -91.9 -11.0 -92.25 L-4.0 -92.2 -3.6 -92.1 -2.0 -90.5 -1.9 -90.4 Q-1.05 -90.55 -0.35 -91.0 0.15 -91.35 0.8 -91.4 L1.25 -91.5 M24.5 -61.0 Q23.25 -58.5 21.5 -56.4 L21.7 -56.05 21.75 -55.3 21.75 -55.2 Q23.5 -56.35 24.25 -58.25 24.85 -59.6 24.5 -61.0 M22.0 -48.3 L21.9 -47.95 Q21.75 -47.5 21.25 -47.35 20.7 -47.2 21.6 -47.05 L21.8 -46.95 21.95 -46.75 22.0 -46.55 22.0 -46.4 21.9 -46.0 21.8 -45.8 21.25 -45.55 Q19.8 -45.05 19.0 -46.0 L19.05 -46.55 19.45 -47.9 20.05 -48.65 20.75 -49.0 21.25 -48.95 21.6 -48.85 21.9 -48.5 22.0 -48.3 M24.3 -40.25 L24.5 -39.7 24.5 -38.95 24.35 -38.4 24.05 -37.8 23.5 -37.65 21.8 -37.6 Q21.2 -38.05 21.25 -38.75 L21.35 -39.65 Q21.45 -40.4 21.9 -41.05 L22.05 -41.35 22.25 -41.55 22.45 -41.65 22.75 -41.7 22.75 -41.75 23.1 -41.6 23.3 -41.4 23.45 -41.05 23.5 -40.75 23.85 -40.6 24.1 -40.45 24.3 -40.25 M14.95 -35.3 L15.5 -33.6 Q15.55 -32.7 15.0 -31.95 L14.5 -31.85 12.3 -31.85 11.75 -32.45 Q11.4 -32.8 11.4 -33.35 L11.6 -34.55 11.95 -35.25 12.05 -35.35 12.2 -35.45 12.7 -35.7 13.2 -35.9 13.5 -36.0 Q14.45 -36.1 14.95 -35.3 M-21.25 -56.55 L-20.7 -56.8 -20.75 -56.95 Q-21.8 -56.3 -23.0 -55.85 -22.1 -56.05 -21.25 -56.55 M-19.75 -57.65 L-19.65 -57.6 -19.7 -57.65 -19.75 -57.65 M-8.65 -49.9 L-8.75 -50.05 -8.75 -50.25 -8.75 -50.45 -8.55 -51.0 Q-8.45 -51.1 -8.3 -51.15 L-8.0 -51.3 -7.5 -51.55 -7.0 -51.75 -6.25 -51.4 -5.6 -51.15 -5.0 -50.95 -4.45 -50.7 -4.35 -50.5 -4.25 -50.1 -4.25 -49.95 -4.25 -49.75 -4.3 -49.55 -4.35 -49.35 Q-5.55 -48.25 -7.5 -49.0 L-7.95 -49.1 -8.1 -49.3 -8.5 -49.7 -8.65 -49.9 M-15.25 -45.1 L-15.25 -44.95 -15.3 -44.75 -15.45 -44.6 -16.0 -44.25 -16.45 -44.3 Q-17.7 -44.25 -17.9 -45.2 -18.0 -45.7 -17.55 -45.9 L-17.25 -46.0 -16.0 -45.95 Q-15.5 -45.95 -15.35 -45.5 L-15.25 -45.1 M-29.05 -47.75 L-28.95 -47.9 -28.7 -48.25 -28.25 -48.45 -28.25 -48.5 Q-26.75 -47.0 -27.95 -44.85 -29.1 -42.8 -30.95 -44.6 -32.45 -46.0 -30.95 -47.6 L-30.5 -47.7 -29.1 -47.7 -29.05 -47.75 M-29.5 -46.25 L-29.95 -46.05 -30.2 -45.75 -30.25 -45.55 -29.7 -45.45 Q-29.5 -45.45 -29.4 -45.6 L-29.15 -46.1 -29.05 -46.35 -29.5 -46.25 M-21.95 -38.7 L-21.5 -38.2 -21.05 -37.5 -21.0 -37.3 -21.0 -37.1 -21.05 -36.95 -21.15 -36.55 -21.35 -36.0 -21.45 -35.8 Q-22.4 -35.05 -23.75 -35.55 L-24.35 -35.8 -24.55 -36.75 -24.15 -37.85 Q-23.6 -38.7 -22.75 -38.95 L-22.75 -39.0 Q-22.25 -39.05 -21.95 -38.7 M-27.0 -30.5 Q-26.4 -30.4 -26.35 -29.8 -26.25 -29.3 -26.7 -29.1 -27.25 -28.85 -27.6 -29.35 L-27.75 -29.7 -27.75 -29.85 -27.65 -30.05 -27.4 -30.3 -27.0 -30.45 -27.0 -30.5" fill="#666666" fill-rule="evenodd" stroke="none"/>
    <path d="M1.1 -75.95 Q0.6 -74.75 0.35 -73.4 0.0 -71.6 -0.85 -69.9 -1.65 -68.35 -2.9 -68.45 L-3.5 -68.0 Q-5.0 -69.5 -3.3 -71.85 -2.2 -73.35 -1.85 -75.25 L-1.85 -75.3 -1.95 -75.5 -2.0 -76.05 -2.0 -76.8 -2.0 -77.2 -2.0 -77.75 -1.95 -79.05 -2.05 -80.0 -7.65 -81.55 Q-16.3 -83.55 -20.8 -77.8 -22.55 -75.6 -21.5 -73.05 L-21.45 -73.0 -21.15 -72.85 -20.9 -72.7 -20.45 -72.1 -20.0 -71.55 -19.7 -71.15 -19.3 -70.65 -18.8 -69.85 -18.8 -69.3 -18.9 -69.15 -19.0 -68.95 -19.2 -68.85 -19.5 -68.75 -19.75 -68.75 -20.2 -68.85 -20.35 -69.05 -20.5 -69.25 -20.55 -69.45 -20.7 -69.6 -28.55 -69.3 Q-32.35 -68.1 -34.15 -64.65 -35.7 -61.65 -36.45 -58.65 L-35.35 -57.2 -35.45 -57.0 -35.55 -56.9 -35.7 -56.8 -36.9 -56.95 -38.2 -57.35 Q-38.9 -58.75 -40.3 -59.8 L-40.8 -60.35 Q-42.95 -63.6 -42.8 -67.65 -42.5 -74.05 -37.6 -77.7 -34.8 -79.8 -31.25 -79.55 L-26.25 -78.8 -26.25 -79.0 -26.25 -81.45 -26.25 -81.6 Q-26.4 -82.7 -26.1 -83.6 -25.1 -86.45 -22.85 -88.8 -19.35 -92.45 -13.95 -93.15 L-13.5 -93.25 -6.0 -93.3 Q-3.7 -93.35 -2.75 -91.5 6.2 -92.45 14.45 -89.15 23.5 -85.5 26.0 -76.3 28.4 -67.45 24.4 -60.5 25.05 -61.3 26.0 -61.7 L26.0 -61.75 26.35 -61.6 26.6 -61.45 26.8 -61.25 Q27.4 -60.05 26.4 -59.05 25.55 -58.25 25.05 -57.25 24.45 -56.0 23.2 -55.6 L22.8 -55.6 Q22.2 -56.6 22.8 -57.75 L23.5 -59.1 Q21.9 -56.8 19.5 -54.7 16.85 -52.35 13.85 -50.75 L13.4 -50.8 13.3 -51.0 13.25 -51.2 13.25 -51.35 13.3 -51.55 15.55 -54.0 17.2 -55.6 Q22.65 -60.5 21.9 -67.45 21.2 -74.55 14.55 -77.85 8.95 -80.6 2.5 -79.45 L2.35 -79.25 Q2.2 -77.95 1.6 -76.8 L1.5 -76.65 1.1 -75.95 M22.0 -48.5 L22.55 -48.15 22.8 -47.6 22.55 -47.05 22.4 -46.85 20.65 -46.35 Q19.7 -46.05 19.5 -46.95 L19.5 -47.1 19.5 -47.3 19.55 -47.5 19.65 -47.7 19.8 -47.85 20.55 -48.1 22.0 -48.5 M15.4 -34.85 Q13.85 -34.6 12.55 -33.85 L11.55 -33.9 Q11.25 -34.1 11.25 -34.45 L11.25 -34.6 11.25 -34.8 11.3 -35.0 11.4 -35.2 11.55 -35.35 13.25 -36.05 15.0 -36.5 15.55 -36.15 15.8 -35.6 15.55 -35.05 15.4 -34.85 M-36.75 -55.85 L-36.3 -56.4 -36.0 -56.5 Q-35.25 -55.3 -34.3 -55.65 L-34.0 -55.7 -30.25 -55.7 Q-29.75 -55.7 -29.55 -55.25 L-29.5 -54.85 -29.65 -54.3 -29.95 -53.75 -30.15 -53.4 -30.25 -53.2 Q-32.3 -51.85 -34.6 -52.85 L-34.85 -52.95 -35.15 -53.15 -36.2 -53.6 -36.7 -54.3 -36.75 -55.3 -36.75 -55.7 -36.75 -55.85 M-31.95 -54.1 L-33.5 -54.15 -33.55 -54.1 -31.95 -54.1 M-5.95 -67.95 Q-5.65 -67.45 -5.7 -66.8 L-5.75 -66.45 -5.75 -66.25 -5.75 -64.55 Q-5.8 -62.8 -5.2 -61.2 -4.65 -59.85 -5.3 -58.6 L-6.15 -58.65 Q-6.5 -58.85 -6.65 -59.2 L-6.75 -59.35 -6.85 -59.55 -6.95 -59.75 -7.0 -59.95 -7.05 -60.1 -7.25 -60.5 Q-8.6 -60.35 -9.8 -61.25 L-10.0 -61.45 -10.2 -61.6 -10.35 -61.8 -10.5 -62.0 -10.75 -62.2 -11.0 -62.35 -14.25 -61.65 -14.75 -61.45 -14.95 -61.3 -16.25 -60.15 -17.95 -58.05 -18.25 -58.0 -18.5 -58.05 -19.05 -58.4 -19.25 -58.7 Q-19.3 -59.5 -18.7 -60.15 L-18.3 -60.6 -16.45 -63.25 Q-15.4 -64.95 -16.05 -67.05 -16.4 -68.2 -15.25 -68.5 L-15.0 -68.45 -14.65 -68.35 -14.45 -68.2 -14.25 -67.8 -6.1 -68.05 -5.95 -67.95 M-16.75 -57.25 L-13.25 -57.05 -9.75 -56.7 Q-7.5 -56.55 -7.35 -54.95 L-7.6 -54.75 -10.0 -54.6 Q-14.35 -55.3 -17.15 -57.15 L-16.75 -57.25 M-10.25 -50.7 L-10.25 -50.85 -10.15 -51.05 -9.85 -51.4 -9.25 -51.7 -9.25 -51.75 -8.0 -51.7 -8.0 -51.75 -5.75 -51.7 Q-5.1 -51.65 -4.85 -51.05 L-4.75 -50.85 -4.75 -50.7 -4.8 -50.5 -4.95 -50.3 -5.15 -50.15 -5.5 -50.0 -5.9 -50.0 -7.7 -49.95 -9.9 -50.25 -10.2 -50.5 -10.25 -50.7 M-29.1 -46.05 L-28.75 -45.1 Q-28.4 -44.6 -28.55 -44.0 L-28.9 -43.7 -30.15 -43.65 -30.35 -43.8 -30.55 -44.55 -30.55 -45.7 Q-30.6 -46.25 -30.15 -46.55 L-29.75 -46.75 Q-29.15 -46.65 -29.1 -46.05" fill="#333333" fill-rule="evenodd" stroke="none"/>
  </g>
</svg>
