<?xml version="1.0" encoding="UTF-8" standalone="no"?>
<svg xmlns:xlink="http://www.w3.org/1999/xlink" height="32.35px" width="48.35px" xmlns="http://www.w3.org/2000/svg">
  <g transform="matrix(1.0, 0.0, 0.0, 1.0, 33.1, 90.9)">
    <path d="M9.7 -87.65 Q12.55 -86.95 15.05 -85.5 L15.15 -85.3 15.2 -85.1 15.25 -84.95 15.25 -84.75 15.25 -84.55 15.2 -84.4 15.15 -84.2 15.05 -84.0 Q4.15 -81.2 -7.35 -84.0 -12.5 -85.25 -17.7 -84.15 -23.25 -83.0 -28.0 -80.45 -30.65 -79.05 -32.75 -77.0 L-33.1 -77.05 Q-33.05 -79.9 -30.7 -81.8 -27.45 -84.5 -23.9 -86.7 -22.65 -87.45 -21.2 -87.85 -13.05 -90.0 -4.45 -90.05 L-2.25 -90.25 Q0.9 -90.8 3.7 -89.65 6.6 -88.4 9.7 -87.65 M9.5 -60.7 L9.85 -60.6 10.15 -60.25 10.25 -60.05 10.15 -59.7 9.7 -59.0 Q9.35 -58.6 8.75 -58.55 L8.05 -58.6 7.9 -58.8 7.8 -59.0 7.75 -59.35 7.75 -59.75 7.8 -60.1 8.0 -60.3 8.2 -60.45 8.7 -60.65 9.0 -60.75 9.5 -60.7 M-15.25 -76.75 Q-14.65 -76.65 -14.55 -76.05 -14.4 -75.5 -14.8 -75.05 -15.2 -74.6 -15.75 -74.5 L-16.35 -74.85 -16.55 -75.4 -16.5 -75.95 -16.45 -76.1 -16.25 -76.3 -15.75 -76.55 -15.25 -76.7 -15.25 -76.75" fill="#666666" fill-rule="evenodd" stroke="none"/>
    <path d="M10.8 -87.45 L10.95 -87.25 11.0 -87.1 11.0 -87.05 14.0 -86.95 14.65 -86.5 14.75 -86.1 14.65 -85.95 14.55 -85.75 14.45 -85.65 14.0 -85.5 13.0 -85.35 12.9 -85.2 12.8 -85.0 12.7 -84.9 12.55 -84.8 Q-2.4 -86.75 -17.6 -85.6 L-20.25 -85.25 Q-24.6 -84.35 -27.8 -81.6 L-29.2 -80.1 Q-29.6 -79.6 -30.2 -79.85 -30.75 -82.3 -28.2 -84.15 -25.65 -86.05 -22.85 -87.3 -20.5 -88.35 -17.9 -88.85 L-12.75 -89.5 -9.0 -89.9 -2.0 -90.75 Q0.35 -91.2 2.45 -90.35 L6.7 -88.85 10.65 -87.6 10.8 -87.45" fill="#333333" fill-rule="evenodd" stroke="none"/>
  </g>
</svg>
