<?xml version="1.0" encoding="UTF-8" standalone="no"?>
<svg xmlns:xlink="http://www.w3.org/1999/xlink" height="25.55px" width="13.45px" xmlns="http://www.w3.org/2000/svg">
  <g transform="matrix(1.0, 0.0, 0.0, 1.0, 0.0, 0.0)">
    <path d="M9.25 0.0 L9.7 1.1 Q11.25 10.4 10.65 19.85 L10.7 20.65 13.45 22.95 Q13.0 24.5 11.55 25.05 10.55 25.6 9.6 25.55 6.75 25.15 4.75 23.15 L4.25 23.1 3.65 22.55 3.2 23.2 1.4 22.95 Q0.4 20.75 0.2 18.15 L0.0 15.05 1.0 13.75 Q0.65 10.95 1.6 8.2 1.95 7.2 3.05 6.55 4.95 5.45 7.0 5.9 L9.25 0.0 M2.15 8.55 Q3.1 7.7 4.35 7.45 L6.0 7.3 6.85 6.15 Q4.8 6.25 3.25 7.35 2.55 7.8 2.15 8.55 M8.05 12.15 L8.25 12.45 9.05 9.2 Q10.1 5.35 9.25 1.65 8.45 4.05 8.15 6.55 7.75 9.55 7.85 12.65 L7.95 12.1 8.05 12.15 M7.2 6.65 Q4.9 10.6 1.65 13.85 L0.55 15.15 1.55 21.1 4.0 18.75 Q4.15 17.65 3.45 16.8 L3.0 16.25 1.3 16.15 1.5 15.5 3.9 16.15 4.45 19.3 2.2 21.2 1.55 21.1 1.75 22.3 Q4.7 21.85 6.25 18.5 L7.75 15.75 Q7.1 12.25 7.2 8.7 L7.2 6.65 M1.75 11.9 Q1.55 12.55 1.5 13.3 L5.65 7.75 Q2.55 8.9 1.75 11.9 M9.95 18.4 L10.0 8.35 Q9.3 12.05 9.2 15.95 L9.05 16.35 9.95 18.4 M8.5 16.3 L5.5 20.0 5.45 21.6 7.5 22.9 6.75 21.05 8.5 19.5 8.0 17.0 9.05 18.55 8.5 16.3 M4.75 22.4 L4.65 21.15 3.95 22.1 4.75 22.4 M5.4 22.75 Q8.4 26.15 12.95 23.75 L12.3 23.3 Q9.15 25.3 6.2 23.2 L5.4 22.75 M9.75 23.15 L11.9 22.65 8.8 20.2 7.35 21.5 7.5 22.9 8.05 23.25 9.75 23.15" fill="#000000" fill-rule="evenodd" stroke="none"/>
    <path d="M2.15 8.55 Q2.55 7.8 3.25 7.35 4.8 6.25 6.85 6.15 L6.0 7.3 4.35 7.45 Q3.1 7.7 2.15 8.55 M4.65 12.0 L4.7 11.95 4.75 11.9 5.4 12.2 5.85 11.65 5.8 11.75 Q5.85 12.3 6.3 12.5 L6.45 11.1 6.3 10.2 6.05 9.45 3.35 12.5 Q1.8 14.1 1.8 14.6 L1.9 14.9 2.1 15.0 4.65 12.0 M9.75 23.15 L8.05 23.25 7.5 22.9 7.35 21.5 8.8 20.2 11.9 22.65 9.75 23.15 M5.4 22.75 L6.2 23.2 Q9.15 25.3 12.3 23.3 L12.95 23.75 Q8.4 26.15 5.4 22.75 M4.75 22.4 L3.95 22.1 4.65 21.15 4.75 22.4 M8.5 16.3 L9.05 18.55 8.0 17.0 8.5 19.5 6.75 21.05 7.5 22.9 5.45 21.6 5.5 20.0 8.5 16.3 M9.95 18.4 L9.05 16.35 9.2 15.95 Q9.3 12.05 10.0 8.35 L9.95 18.4 M1.75 11.9 Q2.55 8.9 5.65 7.75 L1.5 13.3 Q1.55 12.55 1.75 11.9 M7.2 6.65 L7.2 8.7 Q7.1 12.25 7.75 15.75 L6.25 18.5 Q4.7 21.85 1.75 22.3 L1.55 21.1 2.2 21.2 4.45 19.3 3.9 16.15 1.5 15.5 1.3 16.15 3.0 16.25 3.45 16.8 Q4.15 17.65 4.0 18.75 L1.55 21.1 0.55 15.15 1.65 13.85 Q4.9 10.6 7.2 6.65 M8.05 12.15 L7.95 12.1 7.85 12.65 Q7.75 9.55 8.15 6.55 8.45 4.05 9.25 1.65 10.1 5.35 9.05 9.2 L8.25 12.45 8.05 12.15" fill="#535964" fill-rule="evenodd" stroke="none"/>
    <path d="M4.65 12.0 L2.1 15.0 1.9 14.9 1.8 14.6 Q1.8 14.1 3.35 12.5 L6.05 9.45 6.3 10.2 6.45 11.1 6.3 12.5 Q5.85 12.3 5.8 11.75 L5.85 11.65 5.4 12.2 4.75 11.9 4.7 11.95 4.65 12.0" fill="#c4c8cc" fill-rule="evenodd" stroke="none"/>
    <path d="M8.7 9.2 L8.7 9.35 8.75 9.35 8.85 9.6 8.6 10.45 8.6 12.15 8.4 12.3 8.35 12.25 8.3 12.6 8.4 12.75 8.4 12.9 8.15 12.9 Q7.8 12.9 7.8 12.15 L7.85 12.05 7.8 11.7 7.8 11.45 7.7 11.05 7.95 8.75 8.05 8.4 8.15 8.3 8.45 8.75 8.7 9.2" fill="#f70000" fill-rule="evenodd" stroke="none"/>
    <path d="M8.1 18.05 L8.6 18.7 8.7 19.35 8.55 19.55 7.95 19.4 Q7.8 19.3 7.8 18.95 L7.95 18.15 8.1 18.05 M8.7 20.25 L9.85 21.0 10.7 21.9 10.65 22.1 Q9.9 21.85 9.25 21.4 8.55 20.85 8.55 20.5 L8.65 20.25 8.7 20.25" fill="#c4c8cc" fill-rule="evenodd" stroke="none"/>
  </g>
</svg>
