<?xml version="1.0" encoding="UTF-8" standalone="no"?>
<svg xmlns:xlink="http://www.w3.org/1999/xlink" height="16.55px" width="13.0px" xmlns="http://www.w3.org/2000/svg">
  <g transform="matrix(1.0, 0.0, 0.0, 1.0, 0.0, 0.0)">
    <path d="M10.45 11.85 L10.5 11.7 10.5 11.6 11.0 11.5 11.1 11.45 11.15 11.35 11.85 10.0 12.15 9.15 12.15 9.95 Q12.05 12.3 10.3 13.65 L8.25 15.1 Q7.7 15.5 7.25 15.5 L7.15 15.3 6.0 13.1 6.65 12.6 Q7.25 11.9 8.1 11.6 8.95 12.3 10.35 11.95 L10.45 11.85 M10.65 8.65 L11.85 8.75 12.05 8.8 Q11.75 9.2 11.55 9.75 L10.85 11.2 10.4 11.35 10.25 11.6 Q8.95 11.8 7.65 11.25 L6.75 11.9 Q6.0 12.25 5.95 13.0 L4.65 11.25 4.05 10.4 3.9 10.05 3.45 10.0 2.75 9.9 2.75 9.8 3.3 9.7 3.5 9.75 4.05 9.35 Q7.05 6.35 10.65 8.65 M4.2 3.0 Q5.15 3.65 5.35 4.7 L5.5 5.2 4.85 5.1 3.95 5.1 4.0 4.95 4.0 4.2 4.0 3.45 4.0 3.0 4.2 3.0 M6.1 7.05 L5.75 7.0 Q5.6 7.05 5.4 7.25 L4.9 7.65 2.1 7.6 2.1 7.55 2.15 6.8 2.1 6.3 2.4 5.9 Q2.7 5.55 3.15 5.4 L3.5 5.55 3.1 5.9 4.3 5.85 6.1 6.95 6.1 7.05 M6.55 5.75 Q6.9 4.95 6.9 3.3 6.9 1.75 7.55 0.75 L8.35 4.0 Q8.7 5.45 9.5 6.25 L9.0 6.15 6.55 5.75 M4.5 7.7 L4.6 7.8 3.95 8.2 Q3.25 8.65 3.15 9.2 L2.7 9.55 2.7 9.4 2.6 9.2 2.5 9.0 2.35 8.85 1.65 8.55 0.95 8.25 0.95 8.15 1.2 7.5 1.7 6.9 1.65 6.95 1.7 8.0 Q2.9 7.5 4.2 7.4 L4.5 7.7 M10.05 7.5 L9.95 7.65 7.5 7.15 6.05 5.95 Q8.2 6.25 10.05 7.5" fill="#535964" fill-rule="evenodd" stroke="none"/>
    <path d="M12.15 7.3 L12.2 7.5 12.25 7.75 Q13.0 7.95 13.0 8.95 13.0 10.95 11.9 12.5 10.5 14.4 8.45 15.65 7.85 16.0 7.5 16.5 6.65 16.65 6.4 16.0 L6.0 14.85 Q5.4 13.05 4.1 11.65 L3.5 10.65 2.4 10.35 2.3 10.25 2.25 10.05 2.25 9.7 2.2 9.5 2.1 9.4 1.25 9.05 0.8 8.95 0.5 8.9 0.3 8.85 0.0 8.65 0.0 8.45 Q0.05 7.95 0.4 7.6 L0.5 7.3 Q0.45 6.85 0.85 6.5 L1.25 6.2 1.0 6.25 1.1 6.15 1.3 6.2 2.35 5.1 2.5 5.0 3.6 5.05 Q3.35 4.85 3.4 4.25 L3.45 2.75 Q3.4 2.15 3.75 2.0 4.7 2.35 5.3 3.45 L6.2 5.1 6.1 3.1 Q6.3 1.3 7.3 0.15 L7.5 0.0 Q8.7 1.35 9.15 3.4 L10.25 6.5 12.15 7.3 M10.65 8.65 Q7.05 6.35 4.05 9.35 L3.5 9.75 3.3 9.7 2.75 9.8 2.75 9.9 3.45 10.0 3.9 10.05 4.05 10.4 4.65 11.25 5.95 13.0 Q6.0 12.25 6.75 11.9 L7.65 11.25 Q8.95 11.8 10.25 11.6 L10.4 11.35 10.85 11.2 11.55 9.75 Q11.75 9.2 12.05 8.8 L11.85 8.75 10.65 8.65 M10.45 11.85 L10.35 11.95 Q8.95 12.3 8.1 11.6 7.25 11.9 6.65 12.6 L6.0 13.1 7.15 15.3 7.25 15.5 Q7.7 15.5 8.25 15.1 L10.3 13.65 Q12.05 12.3 12.15 9.95 L12.15 9.15 11.85 10.0 11.15 11.35 11.1 11.45 11.0 11.5 10.5 11.6 10.5 11.7 10.45 11.85 M5.25 5.5 L5.5 5.6 6.35 5.7 6.35 5.65 5.85 5.55 5.25 5.5 M4.0 3.0 L4.0 3.45 4.0 4.2 4.0 4.95 3.95 5.1 4.85 5.1 5.5 5.2 5.35 4.7 Q5.15 3.65 4.2 3.0 L4.0 2.9 4.0 3.0 M6.55 5.75 L9.0 6.15 9.5 6.25 Q8.7 5.45 8.35 4.0 L7.55 0.75 Q6.9 1.75 6.9 3.3 6.9 4.95 6.55 5.75 M6.1 6.95 L4.3 5.85 3.1 5.9 3.5 5.55 3.15 5.4 Q2.7 5.55 2.4 5.9 L2.1 6.3 2.15 6.8 2.1 7.55 2.1 7.6 4.9 7.65 5.4 7.25 Q5.6 7.05 5.75 7.0 L6.1 7.05 6.2 7.05 6.1 6.95 M4.5 7.7 L4.2 7.4 Q2.9 7.5 1.7 8.0 L1.65 6.95 1.7 6.9 1.2 7.5 0.95 8.15 0.95 8.25 1.65 8.55 2.35 8.85 2.5 9.0 2.6 9.2 2.7 9.4 2.7 9.55 3.15 9.2 Q3.25 8.65 3.95 8.2 L4.6 7.8 4.5 7.7 M10.05 7.5 Q8.2 6.25 6.05 5.95 L7.5 7.15 9.95 7.65 10.6 7.9 10.05 7.5" fill="#000000" fill-rule="evenodd" stroke="none"/>
    <path d="M11.3 8.85 L11.4 8.9 Q11.0 9.6 10.35 9.6 L8.8 9.3 7.8 9.0 5.7 9.3 5.1 9.9 4.85 9.85 4.8 9.6 Q4.8 7.8 7.85 8.1 9.35 8.25 10.85 8.75 L11.3 8.85 M7.95 1.4 L7.85 2.55 7.7 3.3 7.65 4.25 7.5 4.35 7.5 4.4 7.05 4.55 Q6.9 4.5 6.9 4.1 L7.2 1.95 7.4 1.4 7.5 1.45 7.7 1.05 7.95 1.4 M4.65 2.55 L4.7 2.85 4.5 4.4 4.2 4.5 Q4.05 4.2 4.05 3.6 4.05 2.9 4.35 2.55 L4.65 2.55 M8.7 12.15 L8.1 12.7 7.45 13.05 7.2 13.05 7.05 12.8 8.4 11.9 8.7 12.15" fill="#c4c8cc" fill-rule="evenodd" stroke="none"/>
  </g>
</svg>
