<?xml version="1.0" encoding="UTF-8" standalone="no"?>
<svg xmlns:xlink="http://www.w3.org/1999/xlink" height="13.1px" width="10.8px" xmlns="http://www.w3.org/2000/svg">
  <g transform="matrix(1.0, 0.0, 0.0, 1.0, 0.0, 0.0)">
    <path d="M8.2 12.1 L7.2 12.8 4.85 12.65 0.75 10.25 0.0 7.45 0.05 4.25 3.35 1.45 6.05 0.0 Q9.15 0.95 10.8 4.25 L10.8 5.75 10.05 6.4 Q10.4 10.1 8.25 12.05 6.3 8.75 2.55 7.3 L3.55 3.95 Q6.3 2.1 9.4 3.5 7.35 -0.3 3.6 1.65 1.95 3.45 0.8 5.5 L0.5 6.6 0.85 6.85 0.95 7.8 Q4.1 10.5 8.2 12.1 M7.1 3.65 L4.15 4.35 3.1 6.85 7.05 4.8 7.1 3.65 M10.1 5.6 L9.6 3.95 7.65 3.65 8.0 5.25 9.65 5.75 9.9 5.8 10.1 5.6 M3.8 7.25 L7.7 10.05 7.7 9.7 7.85 8.35 Q8.0 7.25 6.95 6.65 L7.1 7.15 5.0 6.6 3.8 7.25 M2.8 9.4 L1.1 8.85 1.05 9.7 2.75 10.25 2.8 9.4 M3.15 10.65 L7.05 12.3 3.35 9.8 3.15 10.65" fill="#000000" fill-rule="evenodd" stroke="none"/>
    <path d="M8.25 12.05 L8.3 12.15 8.2 12.1 Q4.1 10.5 0.95 7.8 L0.85 6.85 0.5 6.6 0.8 5.5 Q1.95 3.45 3.6 1.65 7.35 -0.3 9.4 3.5 6.3 2.1 3.55 3.95 L2.55 7.3 Q6.3 8.75 8.25 12.05 M3.8 7.25 L5.0 6.6 7.1 7.15 6.95 6.65 Q8.0 7.25 7.85 8.35 L7.7 9.7 7.7 10.05 3.8 7.25 M10.1 5.6 L9.9 5.8 9.65 5.75 8.0 5.25 7.65 3.65 9.6 3.95 10.1 5.6 M7.1 3.65 L7.05 4.8 3.1 6.85 4.15 4.35 7.1 3.65" fill="#535964" fill-rule="evenodd" stroke="none"/>
    <path d="M3.15 10.65 L3.35 9.8 7.05 12.3 3.15 10.65 M2.8 9.4 L2.75 10.25 1.05 9.7 1.1 8.85 2.8 9.4" fill="#8f7e7e" fill-rule="evenodd" stroke="none"/>
    <path d="M6.8 5.55 Q7.05 6.0 7.65 6.0 L8.35 5.85 8.55 5.75 8.55 5.8 9.0 5.55 9.3 5.95 9.5 6.0 9.6 6.3 Q9.6 6.85 9.05 6.9 L9.05 6.95 9.3 7.85 9.15 8.95 9.2 9.35 9.2 10.05 9.0 10.2 8.85 9.8 8.45 9.9 8.3 9.35 8.55 8.35 8.25 6.8 8.3 6.6 7.75 6.6 6.95 6.45 6.35 6.2 6.55 5.8 6.8 5.55" fill="#ff0000" fill-rule="evenodd" stroke="none"/>
  </g>
</svg>
