<?xml version="1.0" encoding="UTF-8" standalone="no"?>
<svg xmlns:xlink="http://www.w3.org/1999/xlink" height="22.65px" width="21.5px" xmlns="http://www.w3.org/2000/svg">
  <g transform="matrix(1.0, 0.0, 0.0, 1.0, 0.0, 0.0)">
    <path d="M15.4 2.8 L13.25 1.65 7.05 1.4 6.7 1.95 6.0 1.95 6.0 1.85 5.75 4.95 Q7.5 3.85 9.35 3.75 L10.3 4.2 Q11.45 4.9 12.05 6.1 L12.95 5.7 Q14.45 6.7 15.0 8.4 L17.85 7.25 17.9 7.25 17.7 6.05 17.6 4.95 17.4 4.2 17.05 4.0 15.4 2.8 M18.35 4.85 L19.6 5.7 20.15 8.7 20.4 9.7 21.05 11.75 Q21.7 13.85 21.45 16.1 L21.2 17.8 20.95 18.0 20.65 17.95 20.55 17.9 20.5 17.85 19.75 16.6 18.05 13.75 17.05 12.45 16.6 12.4 17.05 11.9 15.55 12.45 12.95 22.15 11.95 22.5 11.2 21.9 11.1 22.65 Q9.85 17.95 10.3 13.15 L8.6 13.2 8.6 13.65 7.8 13.1 Q7.0 14.05 6.05 14.45 L3.7 15.9 2.3 17.1 0.2 17.0 Q-0.1 15.95 0.05 15.05 0.35 12.8 1.55 10.55 L1.45 7.1 4.9 4.2 5.85 0.0 5.85 1.7 7.2 0.45 8.45 0.2 11.2 0.5 17.45 2.1 18.8 2.6 18.2 4.85 18.15 6.2 18.0 7.25 18.95 7.3 19.8 8.45 19.2 6.25 18.45 5.45 Q18.15 5.25 18.35 4.85 M17.9 3.45 L17.95 3.1 16.35 2.5 Q17.1 3.15 17.9 3.45 M16.0 8.5 L15.1 8.75 Q15.45 10.6 14.6 12.25 L16.1 11.6 16.0 8.5 M12.5 7.15 L12.55 6.6 Q11.45 7.45 11.0 8.7 10.15 10.85 11.3 11.05 L12.5 7.15 M13.6 7.3 L13.3 7.95 13.6 10.7 14.3 11.3 14.3 9.95 13.75 6.65 13.6 7.3 M12.85 7.7 L13.25 6.4 12.9 6.45 12.85 7.7 M18.95 8.05 L17.95 7.75 17.95 11.15 19.5 9.6 19.8 9.0 18.95 8.05 M13.05 10.9 L13.2 10.2 Q13.3 9.15 12.7 8.1 L12.15 10.4 12.2 11.15 13.05 10.9 M17.45 8.2 L16.45 8.4 16.45 11.4 17.45 10.85 17.45 8.2 M20.2 10.4 L17.75 12.3 19.2 13.95 20.45 16.45 20.9 17.3 20.2 9.95 20.2 10.4 M13.75 13.0 L12.95 13.2 12.15 13.2 10.55 13.1 11.25 21.0 11.9 21.85 12.45 21.85 Q12.95 16.8 15.3 12.5 L14.45 12.5 13.75 13.0 M13.95 12.15 L13.9 11.45 13.35 10.95 13.8 12.15 Q13.0 12.35 13.1 11.3 L11.95 11.45 11.05 12.15 11.55 11.25 10.9 11.6 11.05 12.15 Q12.45 12.85 13.95 12.15 M11.05 6.8 L11.4 6.25 9.5 4.4 Q8.65 4.7 7.9 5.15 L5.75 5.0 6.2 7.65 10.2 8.8 10.6 7.2 9.95 6.35 6.3 7.25 8.45 5.7 10.45 5.95 11.05 6.8 M10.35 12.6 L10.55 12.95 11.25 12.95 10.7 12.7 10.15 9.15 8.75 9.45 8.6 12.65 10.35 12.6 M5.65 12.2 L1.95 10.85 0.9 16.75 1.95 16.85 6.7 12.85 5.65 12.2 M4.9 7.6 L2.0 9.0 1.95 10.0 5.05 11.45 Q4.25 9.6 4.9 7.6 M4.9 4.9 Q4.0 5.8 2.95 6.1 L2.05 8.65 4.95 6.95 4.9 4.9 M6.3 8.9 L5.6 8.4 4.95 10.4 5.95 11.65 Q6.85 12.65 7.9 12.25 L8.3 9.45 6.9 9.2 6.65 12.0 6.2 11.4 Q5.65 10.05 6.3 8.9" fill="#000000" fill-rule="evenodd" stroke="none"/>
    <path d="M15.4 2.8 L17.05 4.0 17.4 4.2 17.6 4.95 17.7 6.05 17.9 7.25 17.85 7.25 15.0 8.4 Q14.45 6.7 12.95 5.7 L12.05 6.1 Q11.45 4.9 10.3 4.2 L9.35 3.75 Q7.5 3.85 5.75 4.95 L6.0 1.85 6.0 1.95 6.7 1.95 7.05 1.4 13.25 1.65 15.4 2.8 M13.05 10.9 L12.2 11.15 12.15 10.4 12.7 8.1 Q13.3 9.15 13.2 10.2 L13.05 10.9 M11.05 6.8 L10.45 5.95 8.45 5.7 6.3 7.25 9.95 6.35 10.6 7.2 10.2 8.8 6.2 7.65 5.75 5.0 7.9 5.15 Q8.65 4.7 9.5 4.4 L11.4 6.25 11.05 6.8" fill="#32363d" fill-rule="evenodd" stroke="none"/>
    <path d="M18.35 4.85 Q18.15 5.25 18.45 5.45 L19.2 6.25 19.8 8.45 18.95 7.3 18.0 7.25 18.15 6.2 18.2 4.85 18.35 4.85 M18.95 8.05 L19.8 9.0 19.5 9.6 17.95 11.15 17.95 7.75 18.95 8.05 M12.85 7.7 L12.9 6.45 13.25 6.4 12.85 7.7 M13.6 7.3 L13.75 6.65 14.3 9.95 14.3 11.3 13.6 10.7 13.3 7.95 13.6 7.3 M12.5 7.15 L11.3 11.05 Q10.15 10.85 11.0 8.7 11.45 7.45 12.55 6.6 L12.5 7.15 M16.0 8.5 L16.1 11.6 14.6 12.25 Q15.45 10.6 15.1 8.75 L16.0 8.5 M13.95 12.15 Q12.45 12.85 11.05 12.15 L10.9 11.6 11.55 11.25 11.05 12.15 11.95 11.45 13.1 11.3 Q13.0 12.35 13.8 12.15 L13.35 10.95 13.9 11.45 13.95 12.15 M13.75 13.0 L14.45 12.5 15.3 12.5 Q12.95 16.8 12.45 21.85 L11.9 21.85 11.25 21.0 10.55 13.1 12.15 13.2 12.95 13.2 13.75 13.0 M20.2 10.4 L20.2 9.95 20.9 17.3 20.45 16.45 19.2 13.95 17.75 12.3 20.2 10.4 M17.45 8.2 L17.45 10.85 16.45 11.4 16.45 8.4 17.45 8.2 M6.3 8.9 Q5.65 10.05 6.2 11.4 L6.65 12.0 6.9 9.2 8.3 9.45 7.9 12.25 Q6.85 12.65 5.95 11.65 L4.95 10.4 5.6 8.4 6.3 8.9 M4.9 4.9 L4.95 6.95 2.05 8.65 2.95 6.1 Q4.0 5.8 4.9 4.9 M4.9 7.6 Q4.25 9.6 5.05 11.45 L1.95 10.0 2.0 9.0 4.9 7.6 M5.65 12.2 L6.7 12.85 1.95 16.85 0.9 16.75 1.95 10.85 5.65 12.2 M10.35 12.6 L8.6 12.65 8.75 9.45 10.15 9.15 10.7 12.7 11.25 12.95 10.55 12.95 10.35 12.6" fill="#535964" fill-rule="evenodd" stroke="none"/>
  </g>
</svg>
