<?xml version="1.0" encoding="UTF-8" standalone="no"?>
<svg xmlns:xlink="http://www.w3.org/1999/xlink" height="18.45px" width="15.4px" xmlns="http://www.w3.org/2000/svg">
  <g transform="matrix(1.0, 0.0, 0.0, 1.0, 0.0, 0.0)">
    <path d="M15.3 1.8 Q15.5 2.25 15.2 2.75 L15.35 4.25 Q15.5 8.6 13.9 12.45 14.05 13.25 13.8 13.95 13.15 15.55 12.1 16.85 L11.4 18.45 Q6.75 18.25 3.45 15.0 L0.15 11.65 Q-0.45 7.85 1.15 4.25 L0.4 3.95 1.15 3.35 1.25 2.6 Q1.6 1.7 2.3 1.15 3.9 0.0 6.05 0.3 L10.35 5.3 11.15 4.65 11.55 4.0 11.7 0.85 12.9 0.0 14.35 0.25 14.5 0.65 14.8 0.3 15.0 0.9 14.95 1.0 14.55 0.8 14.7 1.15 15.0 1.85 15.15 1.8 15.3 1.8 M11.75 4.45 L10.8 6.1 11.3 8.8 Q13.2 6.75 12.8 4.0 L12.4 1.7 11.75 4.45 M13.85 1.1 L13.9 0.6 12.45 0.95 12.85 1.3 13.2 3.45 Q13.6 3.1 14.15 2.9 L14.35 2.65 14.4 2.5 14.4 2.3 14.4 2.15 14.45 2.15 13.65 1.5 13.85 1.1 M13.35 4.15 L13.3 4.3 13.35 4.8 Q13.75 9.45 12.8 14.0 L13.95 10.0 14.8 6.7 Q15.15 4.95 14.9 3.15 L14.6 3.45 Q13.6 3.45 13.35 4.15 M12.65 7.95 L11.4 9.5 10.5 9.5 Q9.4 9.55 8.95 8.8 L10.8 13.65 11.65 16.55 12.65 7.95 M5.15 2.85 L5.2 0.95 4.6 1.05 2.05 1.8 1.8 2.55 1.9 3.05 4.6 3.1 4.35 2.55 5.15 2.85 M11.05 9.05 L10.2 6.05 5.7 1.0 5.65 3.25 6.1 3.9 6.5 4.85 7.1 5.2 8.8 8.15 9.6 8.4 9.9 9.2 11.05 9.05 M6.65 5.55 L5.8 5.2 4.9 3.5 4.4 4.8 3.55 6.3 Q2.5 8.05 2.65 10.05 L2.55 9.1 Q2.55 8.15 2.85 7.35 L3.4 5.8 Q4.0 4.45 4.8 3.45 L2.4 3.85 2.15 4.1 1.95 4.45 1.9 4.45 1.55 4.4 1.45 4.35 1.0 5.35 Q0.2 8.4 1.55 11.1 L2.0 11.8 2.1 11.65 3.25 11.1 4.9 10.25 7.55 10.05 Q5.65 9.9 4.05 11.0 L2.8 11.65 1.85 12.0 2.85 13.35 4.65 11.9 6.95 12.2 5.9 12.4 Q4.25 12.45 3.0 13.5 6.4 17.25 11.15 18.15 L11.1 17.1 10.15 13.6 9.55 13.6 9.0 13.45 8.55 13.15 7.65 12.4 10.25 13.55 9.95 12.55 Q8.75 8.8 6.65 5.55" fill="#000000" fill-rule="evenodd" stroke="none"/>
    <path d="M13.85 1.1 L13.65 1.5 14.45 2.15 14.4 2.15 14.4 2.3 14.4 2.5 14.35 2.65 14.15 2.9 Q13.6 3.1 13.2 3.45 L12.85 1.3 12.45 0.95 13.9 0.6 13.85 1.1 M11.75 4.45 L12.4 1.7 12.8 4.0 Q13.2 6.75 11.3 8.8 L10.8 6.1 11.75 4.45 M11.05 9.05 L9.9 9.2 9.6 8.4 8.8 8.15 7.1 5.2 6.5 4.85 6.1 3.9 5.65 3.25 5.7 1.0 10.2 6.05 11.05 9.05 M5.15 2.85 L4.35 2.55 4.6 3.1 1.9 3.05 1.8 2.55 2.05 1.8 4.6 1.05 5.2 0.95 5.15 2.85" fill="#8f7e7e" fill-rule="evenodd" stroke="none"/>
    <path d="M13.35 4.15 Q13.6 3.45 14.6 3.45 L14.9 3.15 Q15.15 4.95 14.8 6.7 L13.95 10.0 12.8 14.0 Q13.75 9.45 13.35 4.8 L13.3 4.3 13.35 4.15 M12.65 7.95 L11.65 16.55 10.8 13.65 8.95 8.8 Q9.4 9.55 10.5 9.5 L11.4 9.5 12.65 7.95 M6.65 5.55 Q8.75 8.8 9.95 12.55 L10.25 13.55 7.65 12.4 8.55 13.15 9.0 13.45 9.55 13.6 10.15 13.6 11.1 17.1 11.15 18.15 Q6.4 17.25 3.0 13.5 4.25 12.45 5.9 12.4 L6.95 12.2 4.65 11.9 2.85 13.35 1.85 12.0 2.8 11.65 4.05 11.0 Q5.65 9.9 7.55 10.05 L4.9 10.25 3.25 11.1 2.1 11.65 2.0 11.8 1.55 11.1 Q0.2 8.4 1.0 5.35 L1.45 4.35 1.55 4.4 1.9 4.45 1.95 4.45 2.15 4.1 2.4 3.85 4.8 3.45 Q4.0 4.45 3.4 5.8 L2.85 7.35 Q2.55 8.15 2.55 9.1 L2.65 10.05 Q2.5 8.05 3.55 6.3 L4.4 4.8 4.9 3.5 5.8 5.2 6.65 5.55" fill="#535964" fill-rule="evenodd" stroke="none"/>
    <path d="M11.85 10.7 L11.7 11.85 11.7 12.15 11.7 12.6 11.75 12.9 11.55 13.2 11.45 13.25 11.4 13.25 Q11.05 12.95 10.95 11.95 L10.65 10.7 10.25 10.4 10.25 10.2 10.7 10.1 10.7 9.8 10.95 9.75 11.85 9.75 12.0 10.05 11.85 10.2 11.85 10.3 11.85 10.45 11.85 10.7" fill="#ff0000" fill-rule="evenodd" stroke="none"/>
    <path d="M14.4 4.65 L14.25 5.55 13.95 5.7 Q13.65 5.5 13.65 5.0 L13.8 4.5 14.1 3.95 14.4 4.65 M5.55 5.1 Q5.95 5.2 6.4 5.9 L7.2 7.5 7.2 7.55 7.5 8.3 7.5 8.55 Q7.6 8.7 7.2 8.7 L5.4 5.85 5.05 6.15 4.35 6.65 4.15 6.6 4.05 6.3 Q4.05 5.3 5.0 5.2 L4.85 4.95 5.15 4.7 5.55 5.1 M1.8 4.5 L2.25 4.1 2.5 3.8 3.15 3.75 3.9 3.75 4.05 4.1 3.2 4.35 1.85 4.65 1.8 4.5" fill="#c4c8cc" fill-rule="evenodd" stroke="none"/>
  </g>
</svg>
