<?xml version="1.0" encoding="UTF-8" standalone="no"?>
<svg xmlns:xlink="http://www.w3.org/1999/xlink" height="17.4px" width="14.45px" xmlns="http://www.w3.org/2000/svg">
  <g transform="matrix(1.0, 0.0, 0.0, 1.0, 0.0, 0.0)">
    <path d="M10.95 0.75 L11.0 0.2 13.6 0.35 13.8 0.45 Q14.4 1.2 14.45 2.15 14.6 4.35 13.4 6.1 12.75 7.05 12.4 8.15 L11.75 8.45 Q10.8 9.2 9.65 9.1 9.9 10.25 9.05 11.2 L7.75 12.7 7.3 13.2 5.5 13.05 3.85 15.05 2.15 17.4 Q1.5 16.45 1.85 15.3 L2.65 12.85 2.75 12.35 3.1 12.1 2.75 12.2 0.0 11.95 1.05 10.65 2.05 9.35 2.2 9.25 2.25 8.85 2.0 8.6 Q1.85 7.95 2.0 7.55 2.2 7.0 2.75 6.65 L2.75 6.5 Q3.45 5.75 4.4 5.4 L6.25 4.95 6.55 5.0 7.5 4.75 7.5 4.7 7.55 4.7 Q7.8 3.75 8.45 2.9 L10.55 0.05 10.65 0.0 10.7 0.2 10.75 0.6 10.75 0.75 8.95 3.95 8.5 4.8 8.85 4.85 9.05 4.95 9.4 5.65 Q9.65 6.65 9.45 7.75 L8.95 8.6 9.1 8.95 9.2 9.5 9.35 9.05 9.25 8.95 9.35 8.95 9.35 8.9 9.5 8.7 9.55 8.85 Q11.35 8.1 12.45 6.85 14.15 4.9 13.95 2.15 13.9 1.6 13.5 1.2 L13.5 1.1 Q11.15 1.4 10.95 0.75 M2.95 7.6 L2.95 7.5 2.75 7.6 Q2.65 8.15 2.85 8.65 L3.1 9.2 4.35 11.05 4.5 11.35 4.9 11.35 4.9 11.3 5.0 11.2 5.05 11.2 4.95 11.05 4.3 10.25 4.25 10.1 4.55 10.1 4.0 9.5 Q3.7 9.1 3.75 8.6 4.15 8.55 4.3 8.85 4.6 8.55 5.05 8.35 L4.65 8.3 3.9 8.3 3.75 8.2 Q4.15 7.5 4.85 7.1 L6.0 6.8 6.15 6.8 7.3 6.3 7.2 5.95 Q6.2 5.2 5.25 6.25 4.8 6.75 3.7 6.7 L3.6 6.85 3.2 7.3 3.55 8.3 3.65 8.5 3.7 8.65 3.7 8.7 3.7 8.85 3.4 9.15 Q3.0 8.95 3.05 8.6 L2.95 7.6 M5.95 8.1 Q7.25 7.95 7.75 6.95 6.8 7.0 6.0 7.85 L5.85 8.0 5.65 8.15 5.95 8.1 M7.95 7.85 L7.25 8.35 Q5.85 9.2 4.45 9.5 L4.75 9.85 Q6.3 10.5 7.75 9.35 L8.0 9.15 8.0 8.5 7.95 8.45 Q7.6 8.25 8.0 8.25 L7.95 8.0 7.95 7.85 M8.35 7.0 L8.4 7.0 8.55 7.95 8.75 7.85 8.95 7.7 9.0 7.5 8.85 6.65 8.7 5.65 8.7 5.45 8.6 5.4 8.05 5.5 7.7 6.0 7.75 6.35 Q8.3 6.65 8.35 7.0 M8.5 9.7 L8.5 9.5 8.4 9.6 Q6.8 11.05 5.5 10.7 L5.3 10.6 5.5 10.75 7.75 10.85 7.8 10.65 8.2 10.05 8.5 9.7 M7.0 11.45 Q5.45 12.2 4.4 11.7 L4.4 11.75 5.5 12.5 6.15 12.25 5.85 12.65 6.75 12.85 7.95 11.45 7.0 11.45 M1.45 11.15 L1.45 11.35 3.35 11.7 2.5 10.35 2.3 9.9 2.25 9.9 Q1.45 10.35 1.45 11.15 M3.15 13.35 L2.9 14.0 Q2.7 14.3 2.75 14.7 3.35 14.55 3.95 13.75 L4.95 12.85 3.95 12.25 3.6 12.45 3.4 12.65 Q3.15 12.95 3.15 13.35" fill="#000000" fill-rule="evenodd" stroke="none"/>
    <path d="M10.75 0.75 L10.95 0.75 Q11.15 1.4 13.5 1.1 L13.5 1.2 Q13.9 1.6 13.95 2.15 14.15 4.9 12.45 6.85 11.35 8.1 9.55 8.85 L9.5 8.7 9.35 8.9 9.35 8.95 9.25 8.95 9.1 8.95 8.95 8.6 9.45 7.75 Q9.65 6.65 9.4 5.65 L9.05 4.95 8.85 4.85 8.5 4.8 8.95 3.95 10.75 0.75 M2.75 7.6 L2.95 7.6 3.05 8.6 Q3.0 8.95 3.4 9.15 L3.7 8.85 3.7 8.7 3.7 8.65 3.75 8.6 Q3.7 9.1 4.0 9.5 L4.55 10.1 4.25 10.1 4.3 10.25 4.95 11.05 5.05 11.2 5.0 11.2 4.9 11.3 4.9 11.35 4.5 11.35 4.35 11.05 3.1 9.2 2.85 8.65 Q2.65 8.15 2.75 7.6 M7.0 11.45 L7.95 11.45 6.75 12.85 5.85 12.65 6.15 12.25 5.5 12.5 4.4 11.75 4.4 11.7 Q5.45 12.2 7.0 11.45 M3.15 13.35 Q3.15 12.95 3.4 12.65 L3.6 12.45 3.95 12.25 4.95 12.85 3.95 13.75 Q3.35 14.55 2.75 14.7 2.7 14.3 2.9 14.0 L3.15 13.35 M1.45 11.15 Q1.45 10.35 2.25 9.9 L2.3 9.9 2.5 10.35 3.35 11.7 1.45 11.35 1.45 11.15" fill="#535964" fill-rule="evenodd" stroke="none"/>
    <path d="M3.75 8.6 L3.7 8.65 3.65 8.5 3.55 8.3 3.2 7.3 3.6 6.85 3.7 6.7 Q4.8 6.75 5.25 6.25 6.2 5.2 7.2 5.95 L7.3 6.3 6.15 6.8 6.0 6.8 4.85 7.1 Q4.15 7.5 3.75 8.2 L3.9 8.3 4.65 8.3 5.05 8.35 Q4.6 8.55 4.3 8.85 4.15 8.55 3.75 8.6 M5.85 8.0 L6.0 7.85 Q6.8 7.0 7.75 6.95 7.25 7.95 5.95 8.1 L5.85 8.0 M8.35 7.0 Q8.3 6.65 7.75 6.35 L7.7 6.0 8.05 5.5 8.6 5.4 8.7 5.45 8.7 5.65 8.85 6.65 9.0 7.5 8.95 7.7 8.75 7.85 8.55 7.95 8.4 7.0 8.35 7.0 M7.95 7.85 L7.95 8.0 8.0 8.25 Q7.6 8.25 7.95 8.45 L8.0 8.5 8.0 9.15 7.75 9.35 Q6.3 10.5 4.75 9.85 L4.45 9.5 Q5.85 9.2 7.25 8.35 L7.95 7.85 M8.4 9.6 L8.5 9.7 8.2 10.05 7.8 10.65 7.75 10.85 5.5 10.75 5.5 10.7 Q6.8 11.05 8.4 9.6" fill="#32363d" fill-rule="evenodd" stroke="none"/>
  </g>
</svg>
