<?xml version="1.0" encoding="UTF-8" standalone="no"?>
<svg xmlns:xlink="http://www.w3.org/1999/xlink" height="19.9px" width="11.5px" xmlns="http://www.w3.org/2000/svg">
  <g transform="matrix(1.0, 0.0, 0.0, 1.0, -19.95, -13.1)">
    <path d="M20.95 13.2 L21.65 13.3 21.8 13.3 23.65 17.05 Q24.65 19.45 26.2 21.65 L26.8 22.25 28.55 26.15 Q29.65 28.75 31.15 31.2 31.55 31.75 31.4 32.35 L31.35 32.4 30.95 32.6 Q30.45 32.65 30.05 33.0 L30.0 33.0 Q28.9 31.6 28.3 29.85 27.55 27.65 25.95 25.9 L25.8 25.1 Q25.05 24.3 24.6 23.25 L23.35 20.25 23.15 19.3 21.65 17.2 Q20.6 15.55 20.0 13.8 19.8 13.3 20.25 13.1 L20.95 13.2 M20.7 13.7 L23.4 19.4 25.3 23.4 Q25.6 24.25 26.25 24.75 L28.05 28.45 Q28.75 30.35 29.9 31.95 L30.75 32.0 Q28.25 27.4 26.0 22.65 L23.8 18.15 21.45 13.85 20.8 13.65 20.7 13.65 20.7 13.7" fill="#ff2828" fill-rule="evenodd" stroke="none"/>
    <path d="M20.8 13.65 L21.45 13.85 23.8 18.15 26.0 22.65 Q28.25 27.4 30.75 32.0 L29.9 31.95 Q28.75 30.35 28.05 28.45 L26.25 24.75 Q25.6 24.25 25.3 23.4 L23.4 19.4 20.7 13.7 20.8 13.65" fill="#fff2f2" fill-rule="evenodd" stroke="none"/>
  </g>
</svg>
