<?xml version="1.0" encoding="UTF-8" standalone="no"?>
<svg xmlns:xlink="http://www.w3.org/1999/xlink" height="19.7px" width="11.45px" xmlns="http://www.w3.org/2000/svg">
  <g transform="matrix(1.0, 0.0, 0.0, 1.0, -20.0, -13.3)">
    <path d="M20.8 13.65 L21.45 13.85 23.45 17.35 24.85 20.25 26.6 23.85 28.35 27.4 30.75 32.0 29.9 31.95 Q28.6 29.75 27.65 27.55 L26.7 25.75 24.4 21.4 22.35 17.4 Q21.35 15.5 20.8 13.65" fill="#fff2f2" fill-rule="evenodd" stroke="none"/>
    <path d="M20.8 13.65 Q21.35 15.5 22.35 17.4 L24.4 21.4 26.7 25.75 27.65 27.55 Q28.6 29.75 29.9 31.95 L30.75 32.0 28.35 27.4 26.6 23.85 24.85 20.25 23.45 17.35 21.45 13.85 20.8 13.65 M24.05 17.6 Q24.95 19.7 26.2 21.65 27.5 23.7 28.5 26.1 L30.45 30.0 31.45 31.8 31.35 32.4 30.0 33.0 Q28.7 31.1 27.65 28.9 L26.15 25.95 23.8 21.0 21.7 17.15 Q20.7 15.55 20.05 13.8 L20.05 13.55 21.65 13.3 Q23.05 15.4 24.05 17.6" fill="#950000" fill-rule="evenodd" stroke="none"/>
  </g>
</svg>
