<?xml version="1.0" encoding="UTF-8" standalone="no"?>
<svg xmlns:xlink="http://www.w3.org/1999/xlink" height="51.7px" width="34.6px" xmlns="http://www.w3.org/2000/svg">
  <g transform="matrix(1.0, 0.0, 0.0, 1.0, 0.0, -0.05)">
    <path d="M20.4 18.4 Q21.15 20.4 21.25 22.55 L21.1 24.8 20.7 23.75 Q19.85 19.1 17.4 14.9 L12.05 5.45 14.55 10.2 17.35 15.45 Q19.35 19.3 20.5 23.25 L20.15 22.6 Q18.8 19.85 16.75 17.4 15.85 16.35 15.3 15.15 14.75 13.95 14.5 12.6 14.0 9.75 12.75 7.2 L12.4 6.5 11.45 4.95 13.05 6.15 Q14.65 7.25 15.6 8.95 L15.7 9.1 Q17.1 11.25 18.3 13.55 L20.4 18.4 M15.4 3.6 L15.45 3.65 15.85 4.2 16.3 4.65 17.75 6.75 18.4 7.75 17.5 7.65 17.4 7.7 17.35 7.75 17.0 7.95 16.65 7.35 Q16.1 6.4 15.35 5.65 L15.05 5.4 14.0 4.65 13.15 4.25 12.95 4.15 Q10.05 3.0 7.1 3.5 L6.2 3.65 6.55 3.85 Q5.4 3.75 4.55 3.2 3.8 2.75 3.35 2.2 L2.9 2.0 2.15 1.65 7.3 0.95 Q10.45 0.9 13.05 2.15 L13.6 2.5 13.7 2.75 14.35 4.2 Q14.55 4.95 15.05 5.4 L15.15 5.1 14.45 3.7 13.9 2.6 14.1 2.7 14.15 2.75 14.2 2.75 14.25 2.8 14.4 2.95 14.75 3.15 15.4 3.6 M13.6 15.1 L13.4 15.3 13.1 15.05 12.75 14.7 12.7 14.65 10.9 12.95 8.65 11.1 8.3 10.8 8.0 10.55 7.5 9.65 6.1 7.3 Q4.3 4.5 2.2 2.15 L2.25 2.15 3.1 2.35 3.1 2.4 3.15 2.6 3.3 2.7 4.4 3.35 Q5.45 4.15 6.85 4.0 L6.95 4.05 9.4 5.7 Q10.35 6.45 10.85 7.4 L11.1 7.85 11.5 9.5 Q11.8 11.95 12.85 13.9 L13.25 14.55 13.6 15.1 M17.75 11.85 L18.0 11.75 18.65 13.35 18.6 13.35 17.75 11.85 M8.45 11.4 L8.95 11.75 10.3 13.05 Q11.35 13.7 12.2 14.65 L13.4 15.65 15.75 18.65 15.5 18.6 15.4 18.5 Q14.9 17.8 14.0 17.3 13.15 16.75 11.85 16.8 L11.7 16.55 11.65 16.45 11.25 16.25 11.1 16.15 10.5 15.1 8.45 11.4 M18.4 7.85 L18.45 7.85 21.5 13.2 19.7 12.45 19.55 12.25 17.95 9.65 17.1 8.2 17.35 8.1 17.45 8.05 18.4 7.85 M21.35 29.75 L19.85 28.05 14.85 22.55 14.7 22.35 14.2 21.55 13.3 20.05 11.4 16.7 11.45 16.7 11.7 16.95 Q13.1 17.1 14.2 17.7 L15.25 18.8 15.4 18.9 Q15.95 19.15 16.4 19.7 L16.7 20.2 17.1 20.75 17.2 20.9 21.1 28.05 21.4 28.7 21.6 29.05 21.65 29.5 21.35 29.75 M10.7 12.9 L10.5 12.8 10.45 12.75 8.95 11.35 10.7 12.9 M21.75 30.05 L21.9 30.35 21.65 30.1 21.75 30.05 M14.85 23.2 L15.05 23.1 19.65 28.25 Q23.55 32.75 25.85 37.9 L24.15 38.65 24.1 38.55 22.95 37.15 Q20.35 33.8 18.4 30.2 L14.85 23.2 M33.25 36.0 L30.6 37.65 30.65 36.9 30.6 36.1 33.25 34.8 33.25 36.0 M22.15 28.3 L22.25 27.85 22.4 26.8 Q22.7 28.25 23.45 29.6 L25.35 33.35 Q25.7 33.8 26.2 33.5 L27.55 32.5 28.4 34.25 30.6 32.75 30.1 35.9 25.9 37.85 Q24.7 34.1 22.45 31.05 L22.1 29.55 22.0 29.1 22.15 28.3 M23.85 29.5 Q22.95 27.9 22.5 26.1 L22.65 22.15 27.45 32.25 27.35 32.3 Q26.5 33.35 25.5 33.05 L23.85 29.5 M29.45 38.25 L27.65 39.1 26.1 39.75 26.05 39.7 25.7 39.5 25.7 39.4 25.3 38.9 25.1 38.8 29.45 36.65 Q29.3 36.95 29.3 37.4 29.3 37.9 29.45 38.25 M29.65 37.4 L29.65 36.55 30.4 36.2 30.3 36.9 30.4 37.75 30.1 37.9 29.6 38.2 29.65 37.4 M25.55 39.8 L25.8 39.85 25.3 40.05 24.75 39.35 24.5 39.1 24.8 38.95 25.15 39.25 25.55 39.8 M24.75 39.8 L25.05 40.15 21.65 41.15 21.5 41.7 20.5 41.95 19.8 41.35 24.25 39.2 24.75 39.8" fill="#a2a7b0" fill-rule="evenodd" stroke="none"/>
    <path d="M20.4 18.4 L18.3 13.55 Q17.1 11.25 15.7 9.1 L15.6 8.95 Q14.65 7.25 13.05 6.15 L11.45 4.95 12.4 6.5 12.75 7.2 Q14.0 9.75 14.5 12.6 14.75 13.95 15.3 15.15 15.85 16.35 16.75 17.4 18.8 19.85 20.15 22.6 L20.5 23.25 Q19.35 19.3 17.35 15.45 L14.55 10.2 12.05 5.45 17.4 14.9 Q19.85 19.1 20.7 23.75 L21.1 24.8 21.25 22.55 Q21.15 20.4 20.4 18.4 M23.45 21.85 L24.85 24.8 29.0 33.55 29.65 33.05 29.75 32.2 31.2 31.75 30.9 35.5 33.65 33.85 34.25 36.3 Q32.3 37.0 30.6 37.9 L30.55 38.15 30.45 38.0 30.2 38.1 Q29.0 38.75 27.8 39.35 25.0 40.7 22.0 41.6 L21.8 42.2 20.75 42.6 19.9 42.5 18.75 40.8 23.75 38.8 22.7 37.9 23.25 38.8 22.35 37.6 20.0 34.1 17.85 30.55 13.7 22.9 12.5 20.5 10.0 15.45 7.1 9.9 5.8 7.5 Q3.85 3.95 0.0 2.3 L1.2 1.7 1.05 1.6 1.15 1.6 1.65 1.5 1.7 1.5 Q4.15 0.4 6.85 0.05 L7.35 0.05 Q10.9 -0.05 13.65 1.95 L13.95 2.05 14.1 2.15 14.65 2.7 14.7 2.75 15.4 2.95 17.05 5.05 19.0 7.6 19.25 8.1 Q20.8 10.4 21.95 12.95 L22.5 14.25 18.45 12.35 18.9 13.2 20.0 15.1 22.4 19.7 23.1 21.15 23.45 21.85 M22.3 21.45 L21.55 20.0 21.2 26.15 20.8 24.95 19.85 22.75 Q19.15 21.45 18.25 20.25 L17.75 19.6 17.5 19.25 16.4 17.7 14.95 15.4 14.35 14.4 14.65 15.5 Q15.0 16.85 15.7 18.1 L16.5 19.45 16.6 19.55 16.9 19.95 17.3 20.5 17.4 20.75 17.4 20.8 Q19.0 23.15 20.25 25.75 L21.15 27.55 21.3 26.2 21.65 28.15 21.75 28.4 21.65 27.8 21.75 26.2 21.75 26.05 22.25 22.1 22.3 21.45 M15.4 3.6 L14.75 3.15 14.4 2.95 14.25 2.8 14.2 2.75 14.15 2.75 14.1 2.7 13.9 2.6 14.45 3.7 15.15 5.1 15.05 5.4 Q14.55 4.95 14.35 4.2 L13.7 2.75 13.6 2.5 13.05 2.15 Q10.45 0.9 7.3 0.95 L2.15 1.65 2.9 2.0 3.35 2.2 Q3.8 2.75 4.55 3.2 5.4 3.75 6.55 3.85 L6.2 3.65 7.1 3.5 Q10.05 3.0 12.95 4.15 L13.15 4.25 14.0 4.65 15.05 5.4 15.35 5.65 Q16.1 6.4 16.65 7.35 L17.0 7.95 17.35 7.75 17.4 7.7 17.5 7.65 18.4 7.75 17.75 6.75 16.3 4.65 15.85 4.2 15.45 3.65 15.4 3.6 15.2 3.15 15.0 3.15 15.4 3.6 M14.95 6.0 L13.8 4.9 13.45 4.9 12.95 4.65 11.85 4.2 11.25 4.0 7.1 3.75 7.35 3.85 7.7 3.8 7.45 3.9 Q9.95 4.8 11.15 7.15 L11.4 7.75 Q12.55 10.65 13.2 13.65 L13.45 14.5 13.6 15.1 13.25 14.55 12.85 13.9 Q11.8 11.95 11.5 9.5 L11.1 7.85 10.85 7.4 Q10.35 6.45 9.4 5.7 L6.95 4.05 6.85 4.0 Q5.45 4.15 4.4 3.35 L3.3 2.7 3.15 2.6 3.1 2.4 3.1 2.35 2.25 2.15 2.2 2.15 Q4.3 4.5 6.1 7.3 L7.5 9.65 8.0 10.55 8.3 10.8 8.65 11.1 10.9 12.95 12.7 14.65 12.75 14.7 13.1 15.05 13.4 15.3 14.4 16.15 14.05 14.95 13.95 14.5 13.95 14.45 13.6 12.75 13.5 12.1 Q13.15 9.65 12.3 7.45 L11.85 6.45 11.25 5.05 11.1 4.65 11.55 4.85 Q14.25 6.25 15.9 8.7 L16.0 8.9 17.75 11.85 18.6 13.35 18.7 13.55 18.65 13.35 18.0 11.75 18.0 11.7 19.4 12.3 17.05 9.4 16.45 8.6 16.35 8.4 14.9 6.0 15.35 6.35 14.95 6.0 M18.4 7.85 L17.45 8.05 17.35 8.1 17.1 8.2 17.95 9.65 19.55 12.25 19.7 12.45 21.5 13.2 18.45 7.85 18.4 7.85 M8.45 11.4 L10.5 15.1 11.1 16.15 11.25 16.25 11.65 16.45 11.7 16.55 11.85 16.8 Q13.15 16.75 14.0 17.3 14.9 17.8 15.4 18.5 L15.5 18.6 15.75 18.65 13.4 15.65 12.2 14.65 Q11.35 13.7 10.3 13.05 L8.95 11.75 8.45 11.4 M10.7 12.9 L8.95 11.35 10.45 12.75 10.5 12.8 10.7 12.9 M21.65 29.5 L21.6 29.05 21.4 28.7 21.1 28.05 17.2 20.9 17.1 20.75 16.7 20.2 16.4 19.7 Q15.95 19.15 15.4 18.9 L15.25 18.8 14.2 17.7 Q13.1 17.1 11.7 16.95 L11.45 16.7 11.4 16.7 13.3 20.05 14.2 21.55 14.7 22.35 14.85 22.55 19.85 28.05 21.35 29.75 21.6 30.05 21.65 30.1 21.9 30.35 21.75 30.05 21.65 29.65 21.65 29.5 M14.5 16.45 L14.45 16.25 14.2 16.15 14.5 16.45 M15.05 23.1 L14.75 22.65 14.5 22.45 14.85 23.2 18.4 30.2 Q20.35 33.8 22.95 37.15 L24.1 38.55 24.15 38.65 25.85 37.9 Q23.55 32.75 19.65 28.25 L15.05 23.1 M33.25 36.0 L33.25 34.8 30.6 36.1 30.65 36.9 30.6 37.65 33.25 36.0 M22.15 28.3 L22.0 29.1 22.1 29.55 22.45 31.05 Q24.7 34.1 25.9 37.85 L30.1 35.9 30.6 32.75 28.4 34.25 27.55 32.5 26.2 33.5 Q25.7 33.8 25.35 33.35 L23.45 29.6 Q22.7 28.25 22.4 26.8 L22.25 27.85 22.15 28.3 M23.85 29.5 L25.5 33.05 Q26.5 33.35 27.35 32.3 L27.45 32.25 22.65 22.15 22.5 26.1 Q22.95 27.9 23.85 29.5 M29.65 37.4 L29.6 38.2 30.1 37.9 30.4 37.75 30.3 36.9 30.4 36.2 29.65 36.55 29.65 37.4 M29.45 38.25 Q29.3 37.9 29.3 37.4 29.3 36.95 29.45 36.65 L25.1 38.8 25.3 38.9 25.7 39.4 25.7 39.5 26.05 39.7 26.1 39.75 27.65 39.1 29.45 38.25 M25.55 39.8 L25.15 39.25 24.8 38.95 24.5 39.1 24.75 39.35 25.3 40.05 25.8 39.85 25.55 39.8 M24.75 39.8 L24.25 39.2 19.8 41.35 20.5 41.95 21.5 41.7 21.65 41.15 25.05 40.15 24.75 39.8 M29.85 45.85 L31.6 45.1 32.0 45.0 31.45 44.15 29.4 45.1 29.85 45.85 M32.15 45.25 L31.4 45.8 29.9 45.9 30.5 47.05 31.9 46.45 Q32.25 46.2 32.65 46.25 L32.15 45.25 M31.9 43.7 L32.8 45.0 Q34.6 47.9 34.6 51.5 L32.45 51.75 28.85 44.85 31.9 43.7 M31.7 47.0 L30.6 47.2 31.4 48.55 Q32.5 48.25 33.3 47.65 L32.7 46.35 31.7 47.0 M31.45 48.65 L32.1 49.85 33.35 49.55 33.35 49.35 33.4 49.3 33.45 49.2 33.75 49.1 33.45 48.0 Q33.25 48.35 32.65 48.5 L31.45 48.65 M32.1 49.85 L32.85 51.1 34.1 50.85 33.85 49.35 Q33.6 49.4 33.5 49.7 L33.45 49.85 32.1 49.85" fill="#000000" fill-rule="evenodd" stroke="none"/>
    <path d="M22.3 21.45 L22.25 22.1 21.75 26.05 21.75 26.2 21.65 27.8 21.75 28.4 21.65 28.15 21.3 26.2 21.15 27.55 20.25 25.75 Q19.0 23.15 17.4 20.8 L17.4 20.75 17.3 20.5 16.9 19.95 16.6 19.55 16.5 19.45 15.7 18.1 Q15.0 16.85 14.65 15.5 L14.35 14.4 14.95 15.4 16.4 17.7 17.5 19.25 17.75 19.6 18.25 20.25 Q19.15 21.45 19.85 22.75 L20.8 24.95 21.2 26.15 21.55 20.0 22.3 21.45 M13.6 15.1 L13.45 14.5 13.2 13.65 Q12.55 10.65 11.4 7.75 L11.15 7.15 Q9.95 4.8 7.45 3.9 L7.7 3.8 7.35 3.85 7.1 3.75 11.25 4.0 11.85 4.2 12.95 4.65 13.45 4.9 13.8 4.9 14.95 6.0 14.9 6.0 16.35 8.4 16.45 8.6 17.05 9.4 19.4 12.3 18.0 11.7 18.0 11.75 17.75 11.85 16.0 8.9 15.9 8.7 Q14.25 6.25 11.55 4.85 L11.1 4.65 11.25 5.05 11.85 6.45 12.3 7.45 Q13.15 9.65 13.5 12.1 L13.6 12.75 13.95 14.45 13.95 14.5 14.05 14.95 14.4 16.15 13.4 15.3 13.6 15.1 M14.5 16.45 L14.2 16.15 14.45 16.25 14.5 16.45" fill="#727987" fill-rule="evenodd" stroke="none"/>
    <path d="M32.15 45.25 L32.65 46.25 Q32.25 46.2 31.9 46.45 L30.5 47.05 29.9 45.9 31.4 45.8 32.15 45.25 M29.85 45.85 L29.4 45.1 31.45 44.15 32.0 45.0 31.6 45.1 29.85 45.85 M31.7 47.0 L32.7 46.35 33.3 47.65 Q32.5 48.25 31.4 48.55 L30.6 47.2 31.7 47.0 M32.1 49.85 L33.45 49.85 33.5 49.7 Q33.6 49.4 33.85 49.35 L34.1 50.85 32.85 51.1 32.1 49.85 31.45 48.65 32.65 48.5 Q33.25 48.35 33.45 48.0 L33.75 49.1 33.45 49.2 33.4 49.3 33.35 49.35 33.35 49.55 32.1 49.85" fill="#5a616b" fill-rule="evenodd" stroke="none"/>
    <path d="M20.8 13.65 L21.45 13.85 30.75 32.0 29.9 31.95 22.35 17.4 20.8 13.65" fill="#fff2f2" fill-rule="evenodd" stroke="none"/>
    <path d="M20.8 13.65 L22.35 17.4 29.9 31.95 30.75 32.0 21.45 13.85 20.8 13.65 M31.45 31.8 L31.35 32.4 29.9 32.8 20.05 13.55 21.65 13.3 31.45 31.8" fill="#6a0000" fill-rule="evenodd" stroke="none"/>
  </g>
</svg>
