<?xml version="1.0" encoding="UTF-8" standalone="no"?>
<svg xmlns:xlink="http://www.w3.org/1999/xlink" height="46.35px" width="26.35px" xmlns="http://www.w3.org/2000/svg">
  <g transform="matrix(1.0, 0.0, 0.0, 1.0, -27.0, 41.0)">
    <path d="M41.9 -30.85 L41.05 -30.8 Q36.55 -32.1 33.95 -37.1 38.35 -34.45 41.9 -30.85 M41.4 -27.55 L41.75 -28.25 45.05 -23.85 47.9 -19.25 48.25 -24.95 Q51.05 -19.5 52.35 -13.45 54.45 -3.9 52.1 5.35 L49.45 -2.5 47.75 0.95 47.25 -0.95 Q46.85 -3.0 46.75 -5.0 L46.25 -11.7 44.5 -7.3 Q44.4 -17.65 41.4 -27.55 M27.0 -41.0 L30.2 -38.35 Q28.3 -37.65 27.4 -39.65 L27.0 -41.0 M39.0 -32.8 L38.7 -32.8 38.7 -32.2 39.0 -32.2 39.0 -32.8" fill="#ffffff" fill-rule="evenodd" stroke="none"/>
  </g>
</svg>
