<?xml version="1.0" encoding="UTF-8" standalone="no"?>
<svg xmlns:xlink="http://www.w3.org/1999/xlink" height="39.25px" width="17.4px" xmlns="http://www.w3.org/2000/svg">
  <g transform="matrix(1.0, 0.0, 0.0, 1.0, -36.5, 35.0)">
    <path d="M36.75 -35.0 L40.25 -31.75 40.05 -31.15 38.2 -31.35 36.5 -34.45 36.75 -35.0 M50.8 -17.85 L49.6 -18.1 49.35 -18.6 Q48.8 -20.25 49.5 -21.75 L50.85 -20.85 50.8 -17.85 M44.85 -22.35 L45.0 -18.8 44.3 -20.55 Q43.85 -21.95 44.25 -23.25 L44.85 -22.35 M45.0 -15.7 L46.5 -14.7 49.0 -17.25 50.9 -9.4 51.75 -9.15 52.45 -3.35 53.25 -4.9 Q54.2 -2.25 53.8 0.65 L53.4 2.35 52.85 4.1 52.1 4.25 51.55 1.55 50.25 2.25 48.1 -7.05 46.75 -5.75 45.65 -10.95 44.8 -10.45 44.4 -9.45 43.75 -9.0 44.1 -12.4 45.0 -15.7" fill="#ffffff" fill-rule="evenodd" stroke="none"/>
  </g>
</svg>
