<?xml version="1.0" encoding="UTF-8" standalone="no"?>
<svg xmlns:xlink="http://www.w3.org/1999/xlink" height="25.9px" width="9.1px" xmlns="http://www.w3.org/2000/svg">
  <g transform="matrix(1.0, 0.0, 0.0, 1.0, -43.75, 22.25)">
    <path d="M50.7 -19.1 L50.25 -18.8 49.8 -19.1 49.6 -19.9 49.8 -20.65 50.25 -21.0 50.7 -20.65 50.9 -19.9 50.7 -19.1 M44.85 -20.8 L44.4 -20.55 43.95 -20.8 43.75 -21.4 43.95 -22.0 44.4 -22.25 44.85 -22.0 45.05 -21.4 44.85 -20.8 M47.6 -15.35 L48.5 -16.0 Q49.1 -15.7 49.7 -15.45 L51.0 -4.2 51.75 -4.15 Q53.3 -1.05 52.65 2.2 L52.35 2.95 51.8 3.65 Q49.65 1.85 49.55 -0.85 L48.35 -0.55 48.0 -0.8 Q50.15 -5.55 48.55 -10.3 L47.5 -10.95 45.75 -8.5 46.05 -12.8 Q46.25 -14.35 47.6 -15.35" fill="#ffffff" fill-rule="evenodd" stroke="none"/>
  </g>
</svg>
