<?xml version="1.0" encoding="UTF-8" standalone="no"?>
<svg xmlns:xlink="http://www.w3.org/1999/xlink" height="18.15px" width="6.4px" xmlns="http://www.w3.org/2000/svg">
  <g transform="matrix(1.0, 0.0, 0.0, 1.0, -46.45, 15.5)">
    <path d="M47.65 -15.0 L48.5 -15.5 49.0 -14.75 Q49.75 -13.65 49.25 -12.45 L49.8 -12.0 47.2 -11.6 47.0 -12.3 46.45 -12.35 46.55 -12.85 47.65 -15.0 M50.0 -7.25 Q50.8 -6.15 50.45 -4.75 L50.2 -4.1 50.75 -1.95 51.2 -1.65 52.05 -1.6 Q53.4 0.0 52.45 1.9 L50.45 2.65 49.1 -0.65 48.7 -0.85 48.5 -1.25 49.55 -2.35 49.85 -4.15 Q49.2 -5.35 49.7 -6.65 L50.0 -7.25" fill="#ffffff" fill-rule="evenodd" stroke="none"/>
  </g>
</svg>
