<?xml version="1.0" encoding="UTF-8" standalone="no"?>
<svg xmlns:xlink="http://www.w3.org/1999/xlink" height="25.2px" width="18.7px" xmlns="http://www.w3.org/2000/svg">
  <g transform="matrix(1.0, 0.0, 0.0, 1.0, 6.0, 0.0)">
    <path d="M1.15 7.0 L0.8 5.1 Q3.6 3.25 6.7 2.5 L8.1 2.15 9.45 0.0 Q10.65 2.8 10.5 6.0 L10.4 7.45 Q6.65 11.85 8.15 17.45 L8.5 18.5 7.3 19.95 Q7.75 20.65 8.6 20.95 L12.7 21.85 12.65 24.1 Q11.55 25.0 10.15 25.2 L7.0 24.75 Q9.45 25.05 11.6 23.85 L12.3 23.4 12.3 22.55 Q9.3 21.7 6.8 20.3 L6.9 20.15 7.8 18.65 7.55 16.55 7.8 12.2 8.0 10.0 4.05 13.05 4.35 15.2 5.15 14.5 6.05 14.4 4.6 15.8 5.15 17.45 6.35 16.6 5.15 17.9 5.35 19.0 6.25 18.45 6.05 19.2 5.1 19.65 4.9 20.85 4.3 20.3 4.5 17.5 4.3 16.3 3.8 15.0 2.8 15.7 1.45 15.9 2.7 19.1 2.9 20.55 2.55 22.9 2.75 23.4 4.1 23.8 4.95 23.7 6.8 20.35 5.75 23.95 6.6 24.6 3.35 24.6 1.95 23.05 1.45 24.15 2.75 24.6 1.05 24.65 1.15 22.6 0.3 21.75 0.9 21.1 0.0 19.95 0.1 19.5 Q-1.05 18.4 -2.5 17.9 L-5.6 16.75 -6.0 15.8 Q-4.15 14.05 -1.75 13.35 L0.05 13.05 -0.05 9.75 Q0.0 7.25 1.1 7.0 L0.45 10.35 1.4 8.3 1.15 7.0 M9.4 1.25 Q5.8 4.5 3.05 8.3 L1.7 10.25 3.7 12.0 9.4 7.6 Q8.75 6.15 8.8 4.4 L9.0 3.4 9.2 3.65 9.3 4.05 9.35 4.4 9.45 5.65 8.9 4.35 9.55 7.5 9.95 7.15 Q10.1 5.0 9.7 2.75 L9.4 1.25 M1.6 10.5 Q1.0 12.4 1.2 14.45 L1.4 15.75 2.05 15.65 2.6 15.4 3.1 15.05 3.65 14.7 3.6 12.25 2.4 11.65 1.6 10.5 M8.3 7.55 L8.6 7.95 8.6 8.1 7.95 7.75 7.85 8.75 7.7 7.35 8.3 7.55 M1.3 5.5 L1.9 8.05 6.9 3.05 1.3 5.5 M0.1 13.8 L-1.15 14.3 -1.55 14.05 -3.35 14.8 -5.35 16.1 Q-3.35 16.5 -1.75 17.5 L0.25 18.85 1.0 16.65 0.1 13.8 M1.3 21.4 L1.15 21.65 Q1.3 22.25 2.1 22.55 L2.4 19.15 1.75 21.4 1.3 21.4 M0.9 19.85 L1.3 20.4 1.5 17.55 0.6 19.25 0.9 19.85" fill="#000000" fill-rule="evenodd" stroke="none"/>
    <path d="M7.0 24.75 L6.9 24.7 6.6 24.6 5.75 23.95 6.8 20.35 4.95 23.7 4.1 23.8 2.75 23.4 2.55 22.9 2.9 20.55 2.7 19.1 1.45 15.9 2.8 15.7 3.8 15.0 4.3 16.3 4.5 17.5 4.3 20.3 4.9 20.85 5.1 19.65 6.05 19.2 6.25 18.45 5.35 19.0 5.15 17.9 6.35 16.6 5.15 17.45 4.6 15.8 6.05 14.4 5.15 14.5 4.35 15.2 4.05 13.05 8.0 10.0 7.8 12.2 7.55 16.55 7.8 18.65 6.9 20.15 6.8 20.3 Q9.3 21.7 12.3 22.55 L12.3 23.4 11.6 23.85 Q9.45 25.05 7.0 24.75 M3.35 24.6 L2.75 24.6 1.45 24.15 1.95 23.05 3.35 24.6 M1.1 7.0 L1.15 7.0 1.4 8.3 0.45 10.35 1.1 7.0 M0.9 19.85 L0.6 19.25 1.5 17.55 1.3 20.4 0.9 19.85 M1.3 21.4 L1.75 21.4 2.4 19.15 2.1 22.55 Q1.3 22.25 1.15 21.65 L1.3 21.4 M0.1 13.8 L1.0 16.65 0.25 18.85 -1.75 17.5 Q-3.35 16.5 -5.35 16.1 L-3.35 14.8 -1.55 14.05 -1.15 14.3 0.1 13.8 M1.3 5.5 L6.9 3.05 1.9 8.05 1.3 5.5 M8.3 7.55 L7.7 7.35 7.85 8.75 7.95 7.75 8.6 8.1 8.6 7.95 8.3 7.55 M1.6 10.5 L2.4 11.65 3.6 12.25 3.65 14.7 3.1 15.05 2.6 15.4 2.05 15.65 1.4 15.75 1.2 14.45 Q1.0 12.4 1.6 10.5 M9.4 1.25 L9.7 2.75 Q10.1 5.0 9.95 7.15 L9.55 7.5 8.9 4.35 9.45 5.65 9.35 4.4 9.3 4.05 9.2 3.65 9.0 3.4 8.8 4.4 Q8.75 6.15 9.4 7.6 L3.7 12.0 1.7 10.25 3.05 8.3 Q5.8 4.5 9.4 1.25" fill="#535964" fill-rule="evenodd" stroke="none"/>
    <path d="M7.5 12.3 L6.95 12.45 6.65 12.65 Q6.3 13.0 6.3 14.1 L6.0 14.25 5.85 14.1 5.75 14.15 5.6 14.45 5.2 14.15 5.1 14.1 Q4.95 13.65 4.95 13.0 L4.95 12.85 4.8 12.75 5.8 11.6 Q6.8 10.8 7.7 10.95 L7.75 10.9 7.8 11.1 7.4 11.85 7.5 12.3 M5.25 16.4 L5.1 15.8 Q5.1 15.35 5.4 15.3 6.05 15.95 6.05 16.45 L6.0 16.8 Q6.1 16.95 5.7 16.95 5.4 16.95 5.25 16.4 M5.95 17.85 L6.05 18.05 5.75 18.45 5.5 18.0 5.45 17.7 5.7 17.7 5.95 17.85" fill="#ff0000" fill-rule="evenodd" stroke="none"/>
    <path d="M9.65 2.7 Q9.5 3.2 8.55 3.45 L8.4 3.35 6.45 6.1 3.75 9.75 3.7 9.75 3.6 9.9 3.8 10.25 3.45 10.65 2.45 10.5 Q2.3 10.5 2.3 10.15 L2.4 9.2 Q2.55 9.05 2.85 9.05 L3.15 9.3 3.2 9.2 3.4 8.95 8.4 2.4 8.6 2.45 Q9.0 2.25 9.65 2.7 M2.2 12.2 Q2.35 11.95 2.7 12.0 L3.0 12.15 3.0 12.2 3.15 12.75 2.85 13.05 2.55 12.9 2.55 13.95 2.25 14.1 Q1.95 13.9 1.95 13.15 L1.95 12.7 1.95 12.6 2.0 12.55 2.0 12.35 2.2 12.2 M6.85 21.65 L7.2 21.0 7.35 21.05 Q8.0 20.65 9.7 21.65 L10.35 21.65 10.45 21.75 10.95 21.8 12.0 22.2 12.0 22.25 Q12.0 22.65 11.6 22.65 L11.05 22.95 8.3 22.4 8.25 22.25 7.35 22.15 7.2 22.35 6.8 21.8 6.8 21.7 6.8 21.65 6.85 21.65" fill="#aeaeae" fill-rule="evenodd" stroke="none"/>
  </g>
</svg>
