<?xml version="1.0" encoding="UTF-8" standalone="no"?>
<svg xmlns:xlink="http://www.w3.org/1999/xlink" height="47.2px" width="22.65px" xmlns="http://www.w3.org/2000/svg">
  <g transform="matrix(1.0, 0.0, 0.0, 1.0, -26.15, 8.5)">
    <path d="M27.0 -1.2 L26.65 -3.65 26.2 -6.25 Q25.95 -7.75 26.75 -8.5 37.8 -7.1 43.5 2.85 48.45 11.55 48.4 21.95 L46.25 16.6 Q44.55 12.4 42.25 8.35 L40.8 5.85 37.3 0.2 37.3 0.5 Q37.6 1.4 37.55 2.4 L37.5 4.45 37.55 7.05 37.45 7.65 37.2 7.6 36.8 7.3 36.45 6.55 36.3 6.2 36.5 9.5 36.5 15.9 36.55 23.4 36.45 24.3 Q35.7 22.3 35.3 19.7 L31.65 10.45 27.9 1.1 26.55 -0.95 27.0 -1.2 M41.45 10.8 Q42.8 12.95 43.4 15.75 44.2 19.45 43.8 22.45 L43.8 22.35 43.75 22.7 42.3 16.15 41.4 12.2 41.25 11.5 40.65 10.5 Q40.3 9.95 40.75 9.75 L41.0 10.15 40.9 9.05 41.45 10.8 M48.5 27.15 Q48.0 26.95 48.5 26.85 L48.65 26.8 Q49.0 27.35 48.5 27.15 M32.55 9.5 Q34.05 12.95 34.9 16.8 34.3 13.25 32.75 9.9 L32.45 9.25 32.55 9.5 M38.35 27.6 L37.75 30.2 Q37.3 28.95 37.75 27.45 38.15 26.25 38.15 24.9 L38.4 24.8 Q38.65 26.2 38.35 27.6 M35.4 34.15 L35.65 34.05 Q35.95 34.6 35.5 34.6 L35.4 34.6 Q35.1 34.6 35.4 34.15 M34.65 36.8 Q34.9 37.35 34.55 37.85 L34.05 38.65 33.9 38.7 Q33.65 38.25 33.8 37.75 L34.3 36.85 34.65 36.8" fill="#ffffff" fill-rule="evenodd" stroke="none"/>
  </g>
</svg>
