<?xml version="1.0" encoding="UTF-8" standalone="no"?>
<svg xmlns:xlink="http://www.w3.org/1999/xlink" height="27.3px" width="21.4px" xmlns="http://www.w3.org/2000/svg">
  <g transform="matrix(1.0, 0.0, 0.0, 1.0, -25.65, 8.6)">
    <path d="M25.75 -7.5 L25.95 -7.5 25.65 -7.45 25.75 -7.5 M26.15 -7.2 L26.3 -7.35 26.5 -7.5 26.85 -7.45 28.35 -7.9 28.75 -8.0 33.3 -7.9 Q34.95 -6.75 36.25 -5.0 L36.05 -4.9 37.7 -2.45 37.8 -2.2 38.65 -0.45 39.35 0.4 40.45 1.85 40.85 2.45 40.9 2.5 Q42.95 5.5 44.5 8.95 44.05 9.45 43.6 8.7 L41.65 5.5 Q40.6 4.0 39.7 2.35 L39.05 1.7 39.05 1.8 38.9 2.75 38.55 4.4 38.35 5.95 38.0 6.45 Q37.3 6.25 37.15 5.6 36.8 3.75 35.55 2.45 L32.3 -0.8 32.05 -0.95 32.05 -0.55 32.0 1.15 32.0 3.55 32.05 5.6 31.9 6.2 31.65 6.15 31.55 6.0 31.5 5.8 31.5 5.25 Q31.5 4.7 31.0 4.5 L30.75 4.4 30.75 4.55 30.75 4.95 30.75 5.7 30.85 6.6 30.95 7.4 Q29.65 6.55 29.25 4.7 28.65 2.05 27.65 -0.4 26.4 -3.35 25.75 -6.6 L25.8 -6.8 25.95 -7.0 26.15 -7.2 M40.5 2.75 L40.7 3.1 Q40.9 2.9 40.5 2.7 L40.5 2.75 M41.55 11.3 L41.95 12.8 Q41.0 12.65 40.75 11.35 40.6 10.65 40.95 9.85 L41.15 9.8 41.55 11.3 M44.55 11.65 Q45.2 11.7 45.55 12.2 L45.75 12.55 45.75 12.75 45.75 12.95 45.7 13.1 45.5 13.45 45.45 13.65 45.85 14.15 46.8 15.5 Q47.2 15.95 46.95 16.55 46.1 16.2 45.45 14.9 44.6 13.25 43.4 11.75 43.25 11.55 43.5 11.5 L44.55 11.65 M44.0 12.15 L44.45 12.6 Q44.65 12.95 45.15 12.95 L45.25 12.95 45.1 12.65 Q44.75 12.25 44.2 12.1 L44.0 12.15 M46.15 11.55 L46.85 12.65 Q47.15 13.25 46.95 14.0 L46.9 14.2 Q46.35 13.8 46.05 12.95 45.75 12.25 45.95 11.6 L46.15 11.55 M41.75 15.35 Q41.3 15.4 41.65 14.9 L41.9 14.8 Q42.2 15.35 41.75 15.35 M40.1 2.1 L39.1 0.6 39.3 1.2 39.75 1.65 40.05 2.1 40.2 2.25 40.1 2.1 M34.0 11.4 Q33.4 7.25 34.4 4.3 35.6 6.3 36.1 8.55 L36.35 11.45 36.25 18.7 Q34.65 15.45 34.1 11.95 L34.0 11.4" fill="#ffffff" fill-rule="evenodd" stroke="none"/>
  </g>
</svg>
