<?xml version="1.0" encoding="UTF-8" standalone="no"?>
<svg xmlns:xlink="http://www.w3.org/1999/xlink" height="22.45px" width="20.25px" xmlns="http://www.w3.org/2000/svg">
  <g transform="matrix(1.0, 0.0, 0.0, 1.0, -26.0, 8.0)">
    <path d="M30.25 -8.0 L33.15 -7.3 Q34.65 -7.0 35.65 -5.6 L35.7 -5.45 34.95 -5.55 Q34.65 -5.65 34.35 -5.85 L33.85 -6.1 33.75 -6.0 34.1 -5.45 35.65 -2.9 Q36.6 -1.15 36.45 0.8 35.45 0.45 35.0 -0.85 L34.95 -0.95 Q34.55 -2.05 33.75 -2.95 33.15 -3.1 32.45 -3.35 32.15 -3.45 32.25 -3.8 31.85 -3.95 31.75 -3.35 31.6 -2.65 30.9 -2.55 L30.3 -3.05 29.9 -3.75 28.45 -3.85 28.3 -3.7 28.25 -2.35 28.3 -0.9 28.2 -0.3 27.9 0.2 Q27.4 -0.45 27.2 -1.25 L26.6 -3.5 Q26.25 -4.5 26.15 -5.6 L26.0 -6.95 Q26.3 -7.55 27.35 -7.6 L29.85 -7.9 30.25 -8.0 M27.75 -3.05 L27.55 -2.9 27.7 -2.25 27.75 -3.05 M35.25 -1.55 Q35.2 -1.1 35.3 -0.95 L35.65 -1.0 35.3 -1.55 35.25 -1.55 M45.45 11.65 L45.9 12.45 45.95 12.65 Q45.2 12.8 44.85 12.2 L44.65 11.35 44.75 11.25 Q45.2 11.25 45.45 11.65 M41.2 10.75 Q41.5 11.4 40.8 11.35 L40.65 11.25 40.3 10.8 Q40.0 10.2 40.5 10.1 L40.65 10.05 41.2 10.75 M46.05 14.45 Q45.25 14.4 45.75 14.1 L45.9 14.05 Q46.5 14.5 46.05 14.45 M36.65 3.55 Q36.0 3.75 36.2 3.1 L36.4 3.05 Q37.15 3.45 36.65 3.55 M35.15 7.05 Q36.3 8.6 36.5 10.45 L36.55 11.55 Q36.35 12.95 35.15 13.7 L34.9 10.5 34.75 7.3 Q34.7 7.0 35.15 7.05" fill="#ffffff" fill-rule="evenodd" stroke="none"/>
  </g>
</svg>
