<?xml version="1.0" encoding="UTF-8" standalone="no"?>
<svg xmlns:xlink="http://www.w3.org/1999/xlink" height="16.75px" width="11.35px" xmlns="http://www.w3.org/2000/svg">
  <g transform="matrix(1.0, 0.0, 0.0, 1.0, -26.25, 7.5)">
    <path d="M26.75 -6.2 L26.8 -6.0 26.9 -5.8 26.9 -5.85 27.05 -6.25 27.1 -6.3 26.75 -6.2 M26.25 -6.55 Q26.5 -7.3 27.75 -7.35 28.5 -7.4 28.85 -7.0 L29.75 -7.0 30.1 -7.3 30.5 -7.5 31.75 -7.4 Q32.5 -7.45 32.8 -6.8 33.15 -6.15 32.45 -6.2 L31.85 -6.3 29.65 -5.75 Q29.4 -5.4 29.05 -5.6 28.4 -5.55 27.95 -6.2 L27.7 -6.1 27.8 -5.05 Q27.7 -4.45 27.95 -3.95 27.2 -3.85 27.15 -4.6 L27.05 -4.55 27.15 -4.3 Q27.35 -3.95 27.0 -3.8 26.65 -3.9 26.55 -4.3 L26.4 -5.25 Q26.25 -5.8 26.25 -6.35 L26.25 -6.55 M30.0 -3.85 Q29.5 -4.05 30.0 -4.15 L30.15 -4.2 Q30.5 -3.65 30.0 -3.85 M28.4 -0.55 Q27.7 -1.0 28.4 -1.2 28.8 -0.35 28.4 -0.55 M37.4 9.2 Q36.7 8.75 37.4 8.55 37.8 9.4 37.4 9.2 M31.9 0.6 L32.0 1.35 31.95 1.55 Q31.4 1.75 31.2 1.05 31.05 0.55 31.2 0.1 L31.4 0.05 31.9 0.6" fill="#ffffff" fill-rule="evenodd" stroke="none"/>
  </g>
</svg>
