<?xml version="1.0" encoding="UTF-8" standalone="no"?>
<svg xmlns:xlink="http://www.w3.org/1999/xlink" height="2.6px" width="4.15px" xmlns="http://www.w3.org/2000/svg">
  <g transform="matrix(1.0, 0.0, 0.0, 1.0, -26.75, 6.95)">
    <path d="M27.15 -6.45 Q27.5 -5.9 27.0 -6.1 26.5 -6.3 27.0 -6.4 L27.15 -6.45 M29.4 -6.95 Q30.15 -6.55 29.65 -6.45 29.0 -6.25 29.2 -6.9 L29.4 -6.95 M29.9 -6.15 L30.0 -6.25 Q30.65 -6.25 30.25 -6.0 29.65 -5.65 29.9 -6.15 M27.15 -5.7 Q27.5 -5.15 27.0 -5.35 26.5 -5.55 27.0 -5.65 L27.15 -5.7 M30.7 -4.35 Q30.05 -4.25 30.45 -4.85 L30.65 -4.95 Q31.1 -4.45 30.7 -4.35" fill="#ffffff" fill-rule="evenodd" stroke="none"/>
  </g>
</svg>
