<?xml version="1.0" encoding="UTF-8" standalone="no"?>
<svg xmlns:xlink="http://www.w3.org/1999/xlink" height="8.65px" width="9.95px" xmlns="http://www.w3.org/2000/svg">
  <g transform="matrix(1.0, 0.0, 0.0, 1.0, 0.0, 0.0)">
    <path d="M3.2 0.0 L4.3 0.75 Q5.05 1.45 6.45 1.65 L6.9 1.8 Q7.05 2.1 6.8 2.4 L5.95 2.95 7.05 4.6 7.2 4.8 9.95 6.75 5.0 7.25 5.1 7.4 5.4 7.8 0.9 7.9 0.6 7.75 0.35 7.55 Q0.0 6.65 0.0 5.7 0.05 4.0 0.8 2.45 1.6 0.85 3.2 0.05 L3.2 0.0 M5.15 4.6 Q4.4 4.15 4.45 3.15 5.2 2.2 2.2 2.1 L2.0 2.15 Q0.9 3.0 1.25 4.2 1.6 5.45 1.25 6.65 L1.2 6.8 Q4.0 8.2 3.45 6.4 4.05 4.75 6.45 5.5 L5.15 4.6" fill="#ff0000" fill-rule="evenodd" stroke="none"/>
    <path d="M5.15 4.6 L6.45 5.5 Q4.05 4.75 3.45 6.4 4.0 8.2 1.2 6.8 L1.25 6.65 Q1.6 5.45 1.25 4.2 0.9 3.0 2.0 2.15 L2.2 2.1 Q5.2 2.2 4.45 3.15 4.4 4.15 5.15 4.6" fill="#ffffff" fill-rule="evenodd" stroke="none"/>
  </g>
</svg>
