<?xml version="1.0" encoding="UTF-8" standalone="no"?>
<svg xmlns:xlink="http://www.w3.org/1999/xlink" height="29.95px" width="44.25px" xmlns="http://www.w3.org/2000/svg">
  <g transform="matrix(1.0, 0.0, 0.0, 1.0, 21.7, 22.8)">
    <path d="M11.9 6.7 Q-3.35 2.05 -16.5 -5.0 -17.6 -5.6 -17.4 -7.55 -17.15 -9.6 -15.4 -10.9 -17.5 -12.1 -19.4 -13.65 -22.45 -16.2 -21.45 -19.85 -20.7 -22.65 -17.9 -22.8 L-10.4 -21.8 Q-5.75 -20.95 -6.65 -16.55 -0.1 -14.2 7.3 -12.3 15.0 -10.3 17.3 -3.4 17.7 -2.3 17.0 -1.25 26.95 0.95 19.1 5.85 15.8 7.9 11.9 6.7" fill="url(#gradient0)" fill-rule="evenodd" stroke="none"/>
  </g>
  <defs>
    <radialGradient cx="0" cy="0" gradientTransform="matrix(0.0308, 0.0, 0.0, 0.0308, 0.45, -7.85)" gradientUnits="userSpaceOnUse" id="gradient0" r="819.2" spreadMethod="pad">
      <stop offset="0.047058823529411764" stop-color="#000000"/>
      <stop offset="0.11372549019607843" stop-color="#000000"/>
      <stop offset="0.6588235294117647" stop-color="#000000" stop-opacity="0.2"/>
    </radialGradient>
  </defs>
</svg>
