<?xml version="1.0" encoding="UTF-8" standalone="no"?>
<svg xmlns:xlink="http://www.w3.org/1999/xlink" height="55.45px" width="113.0px" xmlns="http://www.w3.org/2000/svg">
  <g transform="matrix(1.0, 0.0, 0.0, 1.0, 0.0, 0.0)">
    <path d="M48.05 4.85 Q45.05 4.7 45.35 1.5 45.45 0.55 46.6 0.45 L48.1 0.2 Q53.8 -0.85 52.4 3.3 L51.95 4.05 51.15 4.45 48.05 4.85" fill="url(#gradient0)" fill-rule="evenodd" stroke="none"/>
    <path d="M98.2 10.5 L96.65 8.95 Q94.3 9.05 93.45 11.05 92.65 13.05 94.85 12.9 L95.0 12.9 Q92.95 13.5 90.8 11.9 L64.8 11.05 Q64.15 10.95 64.7 10.3 66.95 7.45 71.65 7.95 L83.15 7.45 96.85 8.3 Q99.6 8.55 98.2 10.5" fill="url(#gradient1)" fill-rule="evenodd" stroke="none"/>
    <path d="M95.0 12.9 L94.85 12.9 Q92.65 13.05 93.45 11.05 94.3 9.05 96.65 8.95 L98.2 10.5 Q99.6 12.5 95.0 12.9" fill="url(#gradient2)" fill-rule="evenodd" stroke="none"/>
    <path d="M94.05 34.15 Q95.1 34.15 96.25 34.95 100.9 38.15 102.15 41.6 98.65 36.95 94.05 34.15 M94.35 46.2 Q93.1 45.1 92.15 43.5 74.1 50.35 54.55 45.45 57.0 43.35 57.15 39.7 57.25 37.4 55.5 38.25 46.4 42.35 39.7 36.25 L43.25 34.9 Q47.3 33.25 46.0 29.6 44.05 24.3 37.75 25.9 L34.9 23.6 Q34.0 22.95 33.6 22.3 L42.55 21.5 Q43.9 21.35 44.95 20.75 L47.25 22.3 Q52.5 26.2 50.8 32.6 L50.6 33.0 55.15 34.9 Q57.1 35.7 58.15 37.45 L58.3 37.65 58.75 38.25 65.4 39.3 Q68.7 41.85 73.1 39.5 L81.35 38.45 82.6 39.1 Q85.5 40.9 88.95 41.5 92.75 42.1 94.8 44.75 L94.5 45.45 94.35 46.2" fill="url(#gradient3)" fill-rule="evenodd" stroke="none"/>
    <path d="M103.55 43.55 Q106.9 44.55 105.8 47.75 L105.2 49.0 Q102.55 49.2 100.45 50.8 99.85 51.3 99.75 51.7 93.25 52.15 94.35 46.2 L94.5 45.45 94.8 44.75 Q95.45 43.35 97.15 43.25 L103.55 43.55" fill="url(#gradient4)" fill-rule="evenodd" stroke="none"/>
    <path d="M82.35 30.1 Q88.9 31.0 94.05 34.15 98.65 36.95 102.15 41.6 L103.55 43.55 97.15 43.25 Q95.45 43.35 94.8 44.75 92.75 42.1 88.95 41.5 85.5 40.9 82.6 39.1 L81.35 38.45 Q77.55 36.7 74.15 38.9 L73.1 39.5 Q68.7 41.85 65.4 39.3 L64.1 38.1 63.95 37.9 Q61.5 34.95 65.5 33.95 L69.15 32.8 69.35 32.7 Q72.45 31.45 75.15 29.7 L82.35 30.1 M105.8 47.75 L106.05 49.0 105.2 49.0 105.8 47.75" fill="url(#gradient5)" fill-rule="evenodd" stroke="none"/>
    <path d="M109.75 49.55 L109.4 49.15 105.75 44.8 Q103.45 42.3 106.7 41.25 113.1 43.85 110.55 49.2 L110.3 49.6 110.2 49.55 109.75 49.55" fill="url(#gradient6)" fill-rule="evenodd" stroke="none"/>
    <path d="M106.05 49.0 L109.55 49.5 109.75 49.55 110.2 49.55 110.3 49.6 Q115.95 51.6 109.85 53.55 104.85 55.15 100.7 52.9 99.6 52.35 99.75 51.7 99.85 51.3 100.45 50.8 102.55 49.2 105.2 49.0 L106.05 49.0" fill="url(#gradient7)" fill-rule="evenodd" stroke="none"/>
    <path d="M51.95 4.05 L55.6 3.7 Q68.05 4.6 61.15 13.3 58.2 17.0 53.55 18.55 L52.0 19.0 46.85 18.85 44.95 20.75 Q43.9 21.35 42.55 21.5 L33.6 22.3 32.7 22.35 Q25.45 28.25 26.0 19.85 L27.75 18.7 33.25 14.65 33.7 14.35 Q37.4 13.85 39.6 12.7 39.35 11.4 39.5 10.4 41.0 9.1 40.9 8.0 41.35 7.55 42.0 7.25 44.95 5.75 48.05 4.85 L51.15 4.45 51.95 4.05 M45.9 14.45 Q46.9 14.4 47.85 13.75 53.3 10.25 48.35 7.95 45.5 8.7 43.6 11.15 41.8 13.55 44.2 14.25 43.1 14.75 43.3 16.25 43.5 17.85 44.9 17.35 48.5 16.15 45.9 14.45 M38.5 19.2 Q38.6 20.6 39.85 20.1 45.35 17.85 41.1 14.75 38.25 15.95 38.5 19.2" fill="url(#gradient8)" fill-rule="evenodd" stroke="none"/>
    <path d="M53.55 18.55 Q66.05 20.5 77.7 26.35 80.55 27.75 82.35 30.1 L75.15 29.7 Q72.45 31.45 69.35 32.7 L69.15 32.6 69.15 32.8 65.5 33.95 Q61.5 34.95 63.95 37.9 L58.3 37.65 58.15 37.45 Q57.1 35.7 55.15 34.9 L50.6 33.0 50.8 32.6 Q52.5 26.2 47.25 22.3 L44.95 20.75 46.85 18.85 52.0 19.0 53.55 18.55" fill="url(#gradient9)" fill-rule="evenodd" stroke="none"/>
    <path d="M54.55 45.45 Q52.65 47.05 49.25 47.65 40.8 49.2 34.05 44.75 31.7 43.2 28.7 44.5 24.55 46.35 20.0 47.45 17.6 48.1 15.45 47.15 19.75 44.65 16.8 41.7 18.8 40.35 16.65 37.5 L21.95 31.05 Q24.1 28.65 24.05 26.8 29.05 25.5 35.25 26.25 L36.6 26.2 37.75 25.9 Q44.05 24.3 46.0 29.6 47.3 33.25 43.25 34.9 L39.7 36.25 Q46.4 42.35 55.5 38.25 57.25 37.4 57.15 39.7 57.0 43.35 54.55 45.45 M7.45 45.75 L7.8 43.25 8.0 42.55 12.6 42.75 15.25 42.35 Q12.4 44.9 8.25 45.6 L7.45 45.75 M11.1 36.2 Q13.55 32.6 16.7 30.3 L16.45 30.65 Q14.4 34.0 11.1 36.2" fill="url(#gradient10)" fill-rule="evenodd" stroke="none"/>
    <path d="M69.4 48.05 Q77.15 52.6 84.85 49.25 85.65 48.9 86.55 48.7 90.5 47.8 88.7 51.15 86.5 55.3 81.8 55.45 72.9 55.75 67.85 49.6 67.4 49.05 68.15 48.5 68.75 48.05 69.4 48.05" fill="url(#gradient11)" fill-rule="evenodd" stroke="none"/>
    <path d="M44.2 14.25 Q41.8 13.55 43.6 11.15 45.5 8.7 48.35 7.95 53.3 10.25 47.85 13.75 46.9 14.4 45.9 14.45 L45.1 14.0 Q44.55 14.05 44.2 14.25" fill="url(#gradient12)" fill-rule="evenodd" stroke="none"/>
    <path d="M26.0 19.85 Q23.45 21.1 23.9 17.55 24.05 16.65 24.9 15.95 L33.7 9.15 34.7 8.95 36.45 7.2 38.6 5.7 Q40.75 6.75 40.9 8.0 41.0 9.1 39.5 10.4 L37.85 11.6 Q35.75 12.95 33.7 14.35 L33.25 14.65 27.75 18.7 26.0 19.85" fill="url(#gradient13)" fill-rule="evenodd" stroke="none"/>
    <path d="M33.7 9.15 L33.25 9.0 Q28.0 6.8 32.25 4.2 37.35 5.2 36.45 7.2 L34.7 8.95 33.7 9.15" fill="url(#gradient14)" fill-rule="evenodd" stroke="none"/>
    <path d="M38.5 19.2 Q38.25 15.95 41.1 14.75 45.35 17.85 39.85 20.1 38.6 20.6 38.5 19.2" fill="url(#gradient15)" fill-rule="evenodd" stroke="none"/>
    <path d="M45.9 14.45 Q48.5 16.15 44.9 17.35 43.5 17.85 43.3 16.25 43.1 14.75 44.2 14.25 44.55 14.05 45.1 14.0 L45.9 14.45" fill="url(#gradient16)" fill-rule="evenodd" stroke="none"/>
    <path d="M8.0 42.55 L6.3 42.1 Q4.95 41.65 5.85 40.6 7.9 38.15 10.75 36.4 L11.1 36.2 Q14.4 34.0 16.45 30.65 L16.7 30.3 Q19.05 26.4 22.3 24.0 23.95 25.2 24.05 26.8 24.1 28.65 21.95 31.05 L16.65 37.5 Q18.8 40.35 16.8 41.7 L16.3 41.25 15.25 42.35 12.6 42.75 8.0 42.55" fill="url(#gradient17)" fill-rule="evenodd" stroke="none"/>
    <path d="M11.75 48.9 L13.3 48.8 Q17.55 51.9 11.3 53.9 4.35 56.2 0.2 52.6 -0.35 52.1 0.5 51.8 L2.5 51.15 Q7.05 49.7 11.75 48.9" fill="url(#gradient18)" fill-rule="evenodd" stroke="none"/>
    <path d="M15.45 47.15 L14.25 47.75 11.75 48.9 Q7.05 49.7 2.5 51.15 2.55 46.9 7.45 45.75 L8.25 45.6 Q12.4 44.9 15.25 42.35 L16.3 41.25 16.8 41.7 Q19.75 44.65 15.45 47.15" fill="url(#gradient19)" fill-rule="evenodd" stroke="none"/>
  </g>
  <defs>
    <radialGradient cx="0" cy="0" gradientTransform="matrix(0.0054, 0.0, 0.0, 0.0054, 49.0, 2.45)" gradientUnits="userSpaceOnUse" id="gradient0" r="819.2" spreadMethod="pad">
      <stop offset="0.047058823529411764" stop-color="#000000"/>
      <stop offset="0.11372549019607843" stop-color="#000000"/>
      <stop offset="0.6588235294117647" stop-color="#000000" stop-opacity="0.2"/>
    </radialGradient>
    <radialGradient cx="0" cy="0" gradientTransform="matrix(0.0211, 0.0, 0.0, 0.0211, 81.55, 10.25)" gradientUnits="userSpaceOnUse" id="gradient1" r="819.2" spreadMethod="pad">
      <stop offset="0.047058823529411764" stop-color="#000000"/>
      <stop offset="0.11372549019607843" stop-color="#000000"/>
      <stop offset="0.6588235294117647" stop-color="#000000" stop-opacity="0.2"/>
    </radialGradient>
    <radialGradient cx="0" cy="0" gradientTransform="matrix(0.0037, 0.0, 0.0, 0.0037, 95.9, 10.95)" gradientUnits="userSpaceOnUse" id="gradient2" r="819.2" spreadMethod="pad">
      <stop offset="0.047058823529411764" stop-color="#000000"/>
      <stop offset="0.11372549019607843" stop-color="#000000"/>
      <stop offset="0.6588235294117647" stop-color="#000000" stop-opacity="0.2"/>
    </radialGradient>
    <radialGradient cx="0" cy="0" gradientTransform="matrix(0.0453, 0.0, 0.0, 0.0453, 67.9, 32.95)" gradientUnits="userSpaceOnUse" id="gradient3" r="819.2" spreadMethod="pad">
      <stop offset="0.047058823529411764" stop-color="#000000"/>
      <stop offset="0.11372549019607843" stop-color="#000000"/>
      <stop offset="0.6588235294117647" stop-color="#000000" stop-opacity="0.2"/>
    </radialGradient>
    <radialGradient cx="0" cy="0" gradientTransform="matrix(0.0079, 0.0, 0.0, 0.0079, 100.1, 47.45)" gradientUnits="userSpaceOnUse" id="gradient4" r="819.2" spreadMethod="pad">
      <stop offset="0.047058823529411764" stop-color="#000000"/>
      <stop offset="0.11372549019607843" stop-color="#000000"/>
      <stop offset="0.6588235294117647" stop-color="#000000" stop-opacity="0.2"/>
    </radialGradient>
    <radialGradient cx="0" cy="0" gradientTransform="matrix(0.0287, 0.0, 0.0, 0.0287, 84.5, 40.2)" gradientUnits="userSpaceOnUse" id="gradient5" r="819.2" spreadMethod="pad">
      <stop offset="0.047058823529411764" stop-color="#000000"/>
      <stop offset="0.11372549019607843" stop-color="#000000"/>
      <stop offset="0.6588235294117647" stop-color="#000000" stop-opacity="0.2"/>
    </radialGradient>
    <radialGradient cx="0" cy="0" gradientTransform="matrix(0.0059, 0.0, 0.0, 0.0059, 108.05, 45.45)" gradientUnits="userSpaceOnUse" id="gradient6" r="819.2" spreadMethod="pad">
      <stop offset="0.047058823529411764" stop-color="#000000"/>
      <stop offset="0.11372549019607843" stop-color="#000000"/>
      <stop offset="0.6588235294117647" stop-color="#000000" stop-opacity="0.2"/>
    </radialGradient>
    <radialGradient cx="0" cy="0" gradientTransform="matrix(0.0085, 0.0, 0.0, 0.0085, 106.35, 51.6)" gradientUnits="userSpaceOnUse" id="gradient7" r="819.2" spreadMethod="pad">
      <stop offset="0.047058823529411764" stop-color="#000000"/>
      <stop offset="0.11372549019607843" stop-color="#000000"/>
      <stop offset="0.6588235294117647" stop-color="#000000" stop-opacity="0.2"/>
    </radialGradient>
    <radialGradient cx="0" cy="0" gradientTransform="matrix(0.0259, 0.0, 0.0, 0.0259, 44.75, 14.25)" gradientUnits="userSpaceOnUse" id="gradient8" r="819.2" spreadMethod="pad">
      <stop offset="0.047058823529411764" stop-color="#000000"/>
      <stop offset="0.11372549019607843" stop-color="#000000"/>
      <stop offset="0.6588235294117647" stop-color="#000000" stop-opacity="0.2"/>
    </radialGradient>
    <radialGradient cx="0" cy="0" gradientTransform="matrix(0.0286, 0.0, 0.0, 0.0286, 63.0, 27.95)" gradientUnits="userSpaceOnUse" id="gradient9" r="819.2" spreadMethod="pad">
      <stop offset="0.047058823529411764" stop-color="#000000"/>
      <stop offset="0.11372549019607843" stop-color="#000000"/>
      <stop offset="0.6588235294117647" stop-color="#000000" stop-opacity="0.2"/>
    </radialGradient>
    <radialGradient cx="0" cy="0" gradientTransform="matrix(0.0331, 0.0, 0.0, 0.0331, 32.3, 37.35)" gradientUnits="userSpaceOnUse" id="gradient10" r="819.2" spreadMethod="pad">
      <stop offset="0.047058823529411764" stop-color="#000000"/>
      <stop offset="0.11372549019607843" stop-color="#000000"/>
      <stop offset="0.6588235294117647" stop-color="#000000" stop-opacity="0.2"/>
    </radialGradient>
    <radialGradient cx="0" cy="0" gradientTransform="matrix(0.014, 0.0, 0.0, 0.014, 78.45, 51.75)" gradientUnits="userSpaceOnUse" id="gradient11" r="819.2" spreadMethod="pad">
      <stop offset="0.047058823529411764" stop-color="#000000"/>
      <stop offset="0.11372549019607843" stop-color="#000000"/>
      <stop offset="0.6588235294117647" stop-color="#000000" stop-opacity="0.2"/>
    </radialGradient>
    <radialGradient cx="0" cy="0" gradientTransform="matrix(0.0057, 0.0, 0.0, 0.0057, 46.75, 11.2)" gradientUnits="userSpaceOnUse" id="gradient12" r="819.2" spreadMethod="pad">
      <stop offset="0.047058823529411764" stop-color="#000000"/>
      <stop offset="0.11372549019607843" stop-color="#000000"/>
      <stop offset="0.6588235294117647" stop-color="#000000" stop-opacity="0.2"/>
    </radialGradient>
    <radialGradient cx="0" cy="0" gradientTransform="matrix(0.0134, 0.0, 0.0, 0.0134, 32.35, 12.95)" gradientUnits="userSpaceOnUse" id="gradient13" r="819.2" spreadMethod="pad">
      <stop offset="0.047058823529411764" stop-color="#000000"/>
      <stop offset="0.11372549019607843" stop-color="#000000"/>
      <stop offset="0.6588235294117647" stop-color="#000000" stop-opacity="0.2"/>
    </radialGradient>
    <radialGradient cx="0" cy="0" gradientTransform="matrix(0.0043, 0.0, 0.0, 0.0043, 33.45, 6.7)" gradientUnits="userSpaceOnUse" id="gradient14" r="819.2" spreadMethod="pad">
      <stop offset="0.047058823529411764" stop-color="#000000"/>
      <stop offset="0.11372549019607843" stop-color="#000000"/>
      <stop offset="0.6588235294117647" stop-color="#000000" stop-opacity="0.2"/>
    </radialGradient>
    <radialGradient cx="0" cy="0" gradientTransform="matrix(0.004, 0.0, 0.0, 0.004, 40.7, 17.5)" gradientUnits="userSpaceOnUse" id="gradient15" r="819.2" spreadMethod="pad">
      <stop offset="0.047058823529411764" stop-color="#000000"/>
      <stop offset="0.11372549019607843" stop-color="#000000"/>
      <stop offset="0.6588235294117647" stop-color="#000000" stop-opacity="0.2"/>
    </radialGradient>
    <radialGradient cx="0" cy="0" gradientTransform="matrix(0.0027, 0.0, 0.0, 0.0027, 45.1, 15.75)" gradientUnits="userSpaceOnUse" id="gradient16" r="819.2" spreadMethod="pad">
      <stop offset="0.047058823529411764" stop-color="#000000"/>
      <stop offset="0.11372549019607843" stop-color="#000000"/>
      <stop offset="0.6588235294117647" stop-color="#000000" stop-opacity="0.2"/>
    </radialGradient>
    <radialGradient cx="0" cy="0" gradientTransform="matrix(0.0153, 0.0, 0.0, 0.0153, 14.75, 33.4)" gradientUnits="userSpaceOnUse" id="gradient17" r="819.2" spreadMethod="pad">
      <stop offset="0.047058823529411764" stop-color="#000000"/>
      <stop offset="0.11372549019607843" stop-color="#000000"/>
      <stop offset="0.6588235294117647" stop-color="#000000" stop-opacity="0.2"/>
    </radialGradient>
    <radialGradient cx="0" cy="0" gradientTransform="matrix(0.0092, 0.0, 0.0, 0.0092, 7.5, 51.8)" gradientUnits="userSpaceOnUse" id="gradient18" r="819.2" spreadMethod="pad">
      <stop offset="0.047058823529411764" stop-color="#000000"/>
      <stop offset="0.11372549019607843" stop-color="#000000"/>
      <stop offset="0.6588235294117647" stop-color="#000000" stop-opacity="0.2"/>
    </radialGradient>
    <radialGradient cx="0" cy="0" gradientTransform="matrix(0.0114, 0.0, 0.0, 0.0114, 10.25, 46.75)" gradientUnits="userSpaceOnUse" id="gradient19" r="819.2" spreadMethod="pad">
      <stop offset="0.047058823529411764" stop-color="#000000"/>
      <stop offset="0.11372549019607843" stop-color="#000000"/>
      <stop offset="0.6588235294117647" stop-color="#000000" stop-opacity="0.2"/>
    </radialGradient>
  </defs>
</svg>
