<?xml version="1.0" encoding="UTF-8" standalone="no"?>
<svg xmlns:xlink="http://www.w3.org/1999/xlink" height="43.45px" width="18.45px" xmlns="http://www.w3.org/2000/svg">
  <g transform="matrix(1.0, 0.0, 0.0, 1.0, 9.2, 20.65)">
    <path d="M9.25 11.35 L9.25 20.65 Q0.3 25.0 -9.2 20.65 L-9.2 11.35 -7.65 11.35 -7.65 -20.65 -7.5 -20.65 -7.5 8.85 -6.65 8.85 -6.65 -20.65 -5.0 -20.65 -5.0 17.85 -4.5 17.85 -4.5 -20.65 -4.4 -20.65 -4.4 -13.15 -3.5 -13.15 -3.5 -20.65 -2.25 -20.65 -2.25 6.5 -1.85 6.5 -1.85 -20.65 -0.15 -20.65 -0.15 -9.9 0.6 -9.9 0.6 -20.65 1.1 -20.65 1.1 7.25 2.1 7.25 2.1 -20.65 2.85 -20.65 2.85 -5.25 3.35 -5.25 3.35 -20.65 4.35 -20.65 4.35 0.5 5.5 0.5 5.5 -20.65 7.0 -20.65 7.0 13.0 7.6 13.0 7.6 -20.65 8.1 -20.65 8.1 11.35 9.25 11.35" fill="url(#gradient0)" fill-rule="evenodd" stroke="none"/>
    <path d="M-7.5 -20.65 L-6.65 -20.65 -6.65 8.85 -7.5 8.85 -7.5 -20.65 M-5.0 -20.65 L-4.5 -20.65 -4.5 17.85 -5.0 17.85 -5.0 -20.65 M-4.4 -20.65 L-3.5 -20.65 -3.5 -13.15 -4.4 -13.15 -4.4 -20.65 M-2.25 -20.65 L-1.85 -20.65 -1.85 6.5 -2.25 6.5 -2.25 -20.65 M-0.15 -20.65 L0.6 -20.65 0.6 -9.9 -0.15 -9.9 -0.15 -20.65 M1.1 -20.65 L2.1 -20.65 2.1 7.25 1.1 7.25 1.1 -20.65 M2.85 -20.65 L3.35 -20.65 3.35 -5.25 2.85 -5.25 2.85 -20.65 M4.35 -20.65 L5.5 -20.65 5.5 0.5 4.35 0.5 4.35 -20.65 M7.0 -20.65 L7.6 -20.65 7.6 13.0 7.0 13.0 7.0 -20.65" fill="url(#gradient1)" fill-rule="evenodd" stroke="none"/>
    <path d="M8.1 -20.65 L8.5 -20.65 8.5 1.85 9.25 1.85 9.25 11.35 8.1 11.35 8.1 -20.65 M-9.2 11.35 L-9.2 2.1 -8.5 2.1 -8.5 -20.65 -7.65 -20.65 -7.65 11.35 -9.2 11.35" fill="url(#gradient2)" fill-rule="evenodd" stroke="none"/>
    <path d="M8.5 -20.65 L9.25 -20.65 9.25 1.85 8.5 1.85 8.5 -20.65 M-9.2 2.1 L-9.2 -20.65 -8.5 -20.65 -8.5 2.1 -9.2 2.1" fill="url(#gradient3)" fill-rule="evenodd" stroke="none"/>
  </g>
  <defs>
    <linearGradient gradientTransform="matrix(0.0, 0.0252, -0.0113, 0.0, 0.05, -0.05)" gradientUnits="userSpaceOnUse" id="gradient0" spreadMethod="pad" x1="-819.2" x2="819.2">
      <stop offset="0.0" stop-color="#ffff0a" stop-opacity="0.0"/>
      <stop offset="0.6509803921568628" stop-color="#ffff21" stop-opacity="0.48235294"/>
      <stop offset="1.0" stop-color="#ffffff"/>
    </linearGradient>
    <linearGradient gradientTransform="matrix(0.0, 0.0252, -0.0113, 0.0, 0.05, -0.05)" gradientUnits="userSpaceOnUse" id="gradient1" spreadMethod="pad" x1="-819.2" x2="819.2">
      <stop offset="0.19607843137254902" stop-color="#ffff0a" stop-opacity="0.0"/>
      <stop offset="0.6274509803921569" stop-color="#ffff21" stop-opacity="0.48235294"/>
      <stop offset="1.0" stop-color="#ffffff"/>
    </linearGradient>
    <linearGradient gradientTransform="matrix(0.0, 0.0252, -0.0113, 0.0, 0.05, -0.05)" gradientUnits="userSpaceOnUse" id="gradient2" spreadMethod="pad" x1="-819.2" x2="819.2">
      <stop offset="0.27450980392156865" stop-color="#ffff0a" stop-opacity="0.0"/>
      <stop offset="0.7686274509803922" stop-color="#ffff21" stop-opacity="0.48235294"/>
      <stop offset="1.0" stop-color="#ffffff"/>
    </linearGradient>
    <linearGradient gradientTransform="matrix(0.0, 0.0252, -0.0113, 0.0, 0.05, -0.05)" gradientUnits="userSpaceOnUse" id="gradient3" spreadMethod="pad" x1="-819.2" x2="819.2">
      <stop offset="0.4588235294117647" stop-color="#ffff0a" stop-opacity="0.0"/>
      <stop offset="0.8509803921568627" stop-color="#ffff21" stop-opacity="0.48235294"/>
      <stop offset="1.0" stop-color="#ffffff"/>
    </linearGradient>
  </defs>
</svg>
