<?xml version="1.0" encoding="UTF-8" standalone="no"?>
<svg xmlns:xlink="http://www.w3.org/1999/xlink" height="156.55px" width="231.0px" xmlns="http://www.w3.org/2000/svg">
  <g transform="matrix(1.0, 0.0, 0.0, 1.0, 90.9, 85.15)">
    <path d="M88.7 -44.05 L87.4 -45.15 84.1 -48.05 76.85 -53.05 69.0 -58.1 Q64.05 -61.0 58.6 -62.85 L58.6 -62.9 58.05 -62.9 54.75 -62.95 54.55 -62.9 54.25 -63.0 50.8 -63.55 45.6 -64.2 Q42.4 -64.2 37.9 -62.85 L33.8 -61.4 30.0 -59.1 22.35 -54.55 Q17.8 -51.7 14.45 -47.35 L23.5 -44.85 34.9 -40.6 35.6 -40.45 35.6 -40.5 35.65 -40.45 Q40.4 -39.6 45.9 -36.65 L46.0 -36.75 46.1 -36.55 54.8 -31.85 Q55.6 -33.45 59.4 -37.05 L64.75 -41.8 64.7 -41.9 65.0 -42.0 65.2 -42.2 65.3 -42.15 66.25 -42.6 68.4 -43.85 69.85 -45.25 71.1 -46.05 Q72.2 -46.65 74.45 -46.95 L78.25 -47.1 77.7 -47.05 81.85 -47.05 82.4 -46.9 82.4 -46.95 82.6 -46.85 83.05 -46.75 83.1 -46.7 Q85.25 -45.8 85.4 -45.3 L85.4 -45.25 88.55 -43.9 89.3 -43.55 88.75 -44.05 88.7 -44.05 M50.85 -64.15 L51.45 -63.65 53.1 -63.4 50.9 -64.25 49.15 -64.9 42.3 -67.4 32.6 -69.75 12.9 -73.5 -0.35 -74.15 -1.4 -73.85 -2.0 -73.5 -2.05 -73.5 -3.6 -72.6 -3.7 -72.45 -3.85 -72.45 -9.0 -68.5 Q-17.15 -61.6 -23.4 -50.1 L-19.3 -50.95 -6.65 -51.8 5.35 -50.85 Q11.9 -49.95 14.95 -48.95 16.8 -51.2 23.25 -55.45 29.7 -59.75 33.6 -61.8 33.75 -62.45 35.95 -63.05 L40.5 -64.0 44.6 -64.6 49.5 -64.5 50.85 -64.15 M41.9 54.65 L41.6 56.3 41.3 57.8 41.9 57.55 41.95 57.55 42.0 57.7 Q42.0 58.15 41.1 58.65 L40.9 59.2 40.7 58.85 37.85 59.8 29.6 61.9 29.5 61.9 29.4 62.15 29.2 62.3 29.05 62.0 27.9 62.25 23.45 62.6 21.65 62.5 21.95 62.1 20.85 62.1 20.85 61.9 20.7 61.95 Q20.05 63.0 15.45 64.4 10.15 66.0 6.5 66.0 0.0 66.0 -5.95 63.5 -10.75 61.4 -11.0 60.05 -13.05 61.75 -16.35 63.5 -19.75 65.35 -23.15 66.45 -24.4 66.85 -31.05 69.0 -37.3 70.9 -38.55 70.9 L-39.55 70.8 -40.45 70.75 -40.75 70.8 -41.65 71.0 -41.9 71.2 -42.85 71.2 -42.85 71.15 -47.35 71.4 -57.8 70.75 -64.05 70.1 Q-65.15 70.1 -65.85 67.1 L-66.3 64.1 -66.05 61.6 -66.15 61.6 -66.2 61.35 -66.1 60.6 -68.15 60.25 -69.45 60.15 -70.9 59.55 -71.85 59.3 -73.7 58.65 Q-75.55 57.75 -79.8 56.25 L-82.75 55.1 -85.95 54.1 -88.6 53.7 Q-90.8 53.2 -90.8 52.35 L-90.7 52.4 -90.9 52.0 -90.4 46.15 -89.75 41.85 -90.15 41.9 -90.2 41.65 Q-90.2 41.3 -83.9 35.1 L-73.85 25.05 -58.05 8.6 -59.45 6.15 Q-62.95 -0.15 -63.5 -2.95 L-63.6 -2.9 -63.8 -3.15 Q-63.8 -5.7 -57.0 -27.2 -51.7 -43.5 -48.7 -50.8 -50.45 -51.65 -51.65 -52.45 L-51.7 -52.4 -51.9 -52.55 -52.0 -52.65 -52.0 -52.85 -51.9 -52.75 Q-51.75 -54.25 -48.9 -60.9 L-45.25 -68.9 -41.05 -77.0 Q-38.5 -81.65 -35.45 -84.9 L-35.5 -84.95 -35.45 -85.15 -35.3 -84.9 -35.25 -84.8 -35.0 -84.4 -34.9 -84.4 -34.8 -84.1 -33.5 -82.05 Q-32.1 -79.95 -30.6 -78.65 L-30.6 -78.55 -28.1 -76.9 Q-20.1 -72.2 -7.05 -72.85 L-4.65 -72.85 -4.7 -73.0 -4.5 -73.2 -3.95 -72.95 -3.8 -72.85 -2.2 -73.8 Q-2.1 -75.2 5.7 -74.65 12.8 -74.15 19.85 -72.65 L25.7 -71.4 31.9 -70.3 Q46.3 -67.25 54.65 -63.3 L58.6 -63.25 58.6 -63.35 58.8 -63.25 60.4 -63.3 60.5 -63.1 60.3 -62.9 59.7 -62.9 Q69.0 -59.0 77.35 -53.45 84.85 -48.5 90.2 -43.25 L90.2 -43.15 91.05 -42.65 91.4 -42.65 91.45 -42.4 91.6 -42.3 91.6 -42.15 Q92.35 -41.1 97.35 -36.5 L99.8 -33.55 102.2 -30.65 Q104.5 -28.15 106.05 -24.9 L108.05 -19.6 108.1 -19.55 108.1 -19.45 108.2 -19.05 108.0 -18.9 107.85 -19.2 107.8 -19.2 107.6 -19.0 106.7 -19.85 106.0 -20.85 105.95 -20.95 104.9 -22.0 104.15 -23.05 102.6 -24.8 101.65 -25.65 101.35 -25.9 97.65 -22.15 Q92.45 -16.25 88.45 -8.15 85.45 -2.15 84.45 1.15 83.1 5.35 83.1 10.05 L83.1 10.2 83.1 10.6 83.0 12.8 83.0 13.8 83.5 16.3 83.4 16.4 83.45 16.45 86.15 18.25 99.25 23.7 Q109.0 27.1 125.1 29.15 L125.35 29.1 125.3 29.0 125.6 28.6 125.75 28.95 128.85 32.05 Q132.45 35.7 134.55 38.7 L137.4 43.5 139.7 48.15 140.0 48.05 140.1 48.2 139.8 48.35 139.6 48.5 139.55 48.45 131.6 51.0 Q124.9 53.0 123.85 53.0 L123.55 52.95 123.5 52.7 123.55 52.7 118.1 50.25 Q111.6 47.3 106.3 46.3 L89.5 42.95 91.35 44.75 96.1 50.3 95.9 50.5 95.6 50.15 95.85 50.55 Q98.65 54.6 101.0 59.7 L101.5 59.5 101.7 59.7 101.1 59.9 101.3 60.4 101.1 60.6 100.8 59.95 Q86.0 64.1 82.35 64.1 L81.3 64.05 81.3 64.15 81.1 64.2 Q80.75 64.2 80.65 64.0 L80.15 64.0 80.1 63.55 80.6 63.55 80.6 63.5 77.4 62.5 69.8 60.7 60.75 58.8 51.35 57.0 Q45.35 55.9 41.9 54.7 L64.1 58.95 Q76.1 61.4 80.65 63.1 77.5 55.25 72.0 47.1 L72.0 47.05 71.95 47.1 71.8 47.2 70.25 44.85 69.05 43.0 69.0 43.0 Q68.15 42.05 67.85 41.3 L67.55 40.95 Q65.05 40.45 57.25 36.7 49.2 32.85 48.1 31.2 L47.4 33.45 47.2 33.6 Q47.05 33.55 47.05 33.3 L47.0 33.35 46.8 33.5 46.75 33.5 46.3 35.25 45.0 41.85 42.15 53.5 42.15 53.55 42.2 53.5 42.35 53.55 42.4 53.7 41.95 54.45 41.9 54.65 M59.3 -53.95 Q59.3 -53.45 60.65 -53.45 L61.3 -54.05 Q60.65 -54.5 60.0 -54.5 59.3 -54.55 59.3 -53.95 M60.15 -55.0 L61.15 -54.65 61.7 -54.0 61.35 -53.4 60.75 -53.0 Q59.45 -53.0 59.05 -53.5 L58.9 -54.0 Q58.9 -55.0 60.15 -55.0 M63.8 -50.25 Q63.8 -49.4 65.2 -48.45 66.9 -47.25 69.35 -47.25 71.1 -47.25 71.9 -48.0 72.4 -48.45 72.4 -48.95 72.4 -51.6 68.1 -51.75 63.8 -51.95 63.8 -50.25 M68.1 -52.4 Q72.8 -51.9 72.8 -48.95 72.8 -48.3 72.1 -47.65 71.15 -46.8 69.4 -46.8 66.6 -46.8 64.75 -48.35 63.4 -49.45 63.4 -50.25 63.4 -52.9 68.1 -52.4 M33.3 -63.3 Q33.3 -62.75 32.95 -62.3 32.35 -61.5 30.95 -61.5 28.6 -61.5 27.85 -62.5 27.5 -62.95 27.6 -63.4 27.6 -65.4 30.45 -65.4 33.3 -65.4 33.3 -63.3 M30.45 -65.0 Q28.0 -64.95 28.0 -63.4 28.0 -61.95 30.95 -61.95 32.85 -61.95 32.9 -63.3 32.9 -65.0 30.45 -65.0 M35.1 -40.05 L35.15 -40.1 35.0 -40.15 Q32.7 -40.85 28.6 -42.5 L22.65 -44.85 18.75 -45.65 Q16.65 -46.15 15.45 -46.6 10.85 -42.7 4.25 -35.75 2.1 -33.5 -0.3 -30.25 L-4.4 -24.7 Q-14.95 -11.5 -19.9 -2.6 L-20.1 -2.85 Q-20.1 -4.35 -13.0 -14.0 L-4.75 -24.95 3.9 -35.95 Q9.1 -42.05 15.1 -46.75 L14.1 -47.25 14.1 -47.45 14.2 -47.4 14.2 -47.5 Q14.2 -47.95 14.7 -48.65 L8.55 -50.0 Q2.5 -51.3 -5.4 -51.4 L-5.4 -51.35 -8.6 -46.75 -13.4 -40.0 -16.85 -34.3 -20.15 -28.6 Q-25.2 -20.1 -30.1 -5.9 -30.3 -5.95 -30.3 -6.15 -30.3 -8.2 -25.5 -18.4 L-20.4 -28.9 Q-13.05 -42.2 -5.75 -51.4 L-6.75 -51.4 -13.5 -51.25 -15.9 -48.45 -20.1 -43.5 Q-20.3 -43.55 -20.3 -43.75 L-20.6 -43.7 -26.1 -44.0 Q-26.15 -43.4 -28.55 -39.2 L-31.55 -34.0 -33.6 -29.0 -35.5 -24.0 Q-37.0 -20.2 -38.7 -14.05 L-41.6 -4.1 -41.8 -4.35 Q-41.8 -5.65 -39.1 -14.2 L-35.8 -24.4 Q-32.9 -32.85 -26.4 -44.05 -31.4 -44.7 -36.9 -46.3 L-38.8 -42.6 -41.75 -36.7 Q-42.85 -33.75 -44.4 -26.7 L-44.6 -26.6 -44.75 -26.7 -44.75 -26.6 -45.1 -24.05 -45.3 -23.9 -45.5 -24.2 Q-45.5 -25.75 -44.55 -28.75 -43.95 -31.95 -41.5 -37.85 -39.0 -44.0 -37.5 -46.25 L-37.45 -46.35 -37.4 -46.45 -37.45 -46.45 -40.55 -47.5 Q-45.3 -49.2 -48.4 -50.65 L-51.7 -40.95 -56.65 -26.9 Q-60.8 -14.0 -63.25 -3.8 -61.65 1.25 -59.85 5.05 L-58.0 8.45 -57.95 8.5 -57.9 8.4 -57.7 8.65 -57.75 8.8 Q-55.9 11.8 -53.6 14.5 -47.65 21.35 -44.7 23.85 -38.95 28.75 -30.55 32.25 L-29.45 32.7 -28.8 32.95 -28.7 33.1 -28.8 33.2 -28.7 33.3 -28.7 33.4 -25.55 34.85 -18.6 36.6 -18.6 36.75 -18.8 36.9 Q-21.5 36.9 -25.9 35.15 -29.25 33.8 -29.8 33.25 -32.45 32.8 -37.4 29.65 -41.85 26.85 -44.9 24.2 L-49.6 19.35 -53.85 14.8 Q-55.25 13.4 -57.85 8.95 -59.3 10.9 -73.45 25.15 L-83.35 35.15 -89.3 41.25 -89.3 41.3 -89.2 41.35 Q-88.9 41.55 -88.9 41.85 L-88.9 42.0 -83.4 44.4 -74.3 48.25 -67.55 51.1 Q-63.7 52.75 -61.95 53.7 -58.2 49.0 -53.2 45.65 -37.9 35.4 -21.5 44.3 L-21.0 43.0 -20.7 42.45 Q-20.4 41.15 -18.5 36.8 L-18.5 36.75 -18.45 36.65 -16.0 30.95 -10.4 18.65 -10.3 18.4 -10.5 18.6 -10.7 18.35 -10.3 17.45 -9.7 16.6 -7.1 10.9 -2.85 2.8 Q2.95 -6.55 7.4 -11.7 L20.25 -26.2 Q27.75 -34.15 35.1 -40.05 M35.35 -2.15 L35.4 -2.0 Q35.4 -1.6 34.8 -1.6 33.15 -1.6 30.4 -5.35 L28.05 -9.1 27.95 -9.1 27.9 -9.3 Q27.9 -11.0 30.75 -16.55 L34.45 -23.2 Q36.45 -26.45 41.0 -31.55 L45.25 -36.1 Q39.85 -38.65 35.5 -40.0 28.2 -33.95 20.6 -25.8 L7.6 -11.35 Q2.3 -5.5 -4.0 5.85 -8.3 13.6 -9.2 16.3 L-9.1 16.5 -9.4 17.5 -9.4 17.55 -13.55 27.2 -20.1 42.0 -20.1 42.1 -20.5 43.25 -21.1 44.4 -21.05 44.45 Q-19.55 44.8 -18.3 45.6 L-18.1 45.55 -18.0 45.7 -18.05 45.75 -18.0 45.75 -16.25 47.0 Q-15.55 47.1 -14.3 49.1 L-13.65 49.9 Q-10.5 54.3 -10.5 57.5 L-10.5 57.6 -10.45 57.55 -10.45 57.5 Q-9.65 54.95 -7.3 50.25 L-7.3 50.2 -7.45 50.15 -7.5 49.95 -7.0 49.6 -5.15 45.95 -0.25 36.9 0.9 35.05 Q4.1 30.1 7.2 25.7 L7.15 25.7 7.1 25.45 7.15 25.3 7.5 25.3 Q12.9 17.65 18.1 11.7 L18.1 11.65 18.15 11.45 18.25 11.5 18.75 10.95 18.8 11.15 18.5 11.6 28.5 14.8 28.65 14.8 28.7 14.65 28.75 14.65 28.8 14.8 28.8 14.85 28.85 14.85 28.9 15.0 28.8 15.65 28.6 15.8 Q27.05 22.55 25.45 30.25 22.95 42.6 22.35 53.75 L22.5 54.0 22.5 54.15 22.3 54.2 22.1 61.4 22.15 61.7 22.5 61.85 22.3 62.1 22.3 62.15 23.4 62.15 29.0 61.6 Q29.0 59.45 30.7 53.35 L31.6 49.9 Q33.65 42.45 34.7 39.65 L38.6 28.7 40.65 23.1 Q41.55 20.6 42.55 18.8 L42.95 17.85 45.4 12.6 45.85 11.65 Q49.6 3.9 51.55 0.4 L52.0 -0.55 54.65 -5.15 54.8 -5.45 Q56.6 -8.35 58.55 -10.65 L58.85 -11.05 66.85 -21.3 61.75 -26.15 60.05 -27.4 Q52.5 -21.9 45.95 -14.8 42.95 -11.6 35.3 -2.2 L35.25 -2.2 35.25 -2.15 35.3 -2.15 35.35 -2.15 M39.1 -21.85 Q40.35 -24.25 44.1 -28.0 L50.1 -33.7 48.3 -34.6 45.6 -35.9 43.9 -34.1 39.85 -29.7 Q36.55 -25.95 34.65 -22.8 33.05 -20.15 31.15 -15.9 L28.3 -9.5 28.4 -9.4 29.85 -9.95 32.45 -10.7 Q33.1 -12.5 35.45 -16.2 L39.1 -21.85 M34.75 -8.15 L37.35 -5.55 45.75 -15.15 Q52.55 -22.75 59.8 -27.6 L55.05 -31.25 54.8 -30.9 54.6 -31.15 54.65 -31.45 50.4 -33.55 44.0 -27.05 Q36.75 -19.2 32.75 -10.15 L34.75 -8.15 M32.2 -9.6 L32.3 -10.1 Q31.35 -9.6 28.45 -9.0 28.55 -8.0 31.0 -5.25 33.4 -2.55 34.85 -2.2 35.0 -2.75 37.15 -5.3 36.05 -5.35 34.5 -7.0 33.1 -8.5 32.65 -9.9 L32.4 -9.4 32.25 -9.4 32.2 -9.6 M77.15 -46.65 Q72.8 -46.55 70.2 -44.7 L69.0 -43.85 68.75 -43.65 Q67.45 -42.6 66.5 -42.1 L65.1 -41.3 64.9 -41.5 61.75 -38.8 Q57.85 -35.3 55.3 -31.6 L55.4 -31.55 55.3 -31.35 60.25 -27.9 60.5 -28.1 60.7 -27.9 60.5 -27.7 Q64.1 -24.85 67.65 -21.1 L70.9 -17.6 76.65 -11.3 Q75.7 -14.45 74.1 -21.0 L73.9 -21.05 73.9 -21.5 74.0 -21.5 73.9 -21.8 74.0 -21.55 74.05 -21.55 Q74.35 -22.1 76.95 -23.5 79.95 -25.1 81.4 -25.35 L82.2 -25.5 83.3 -25.95 84.6 -26.3 85.05 -26.65 87.9 -26.9 90.65 -27.15 90.65 -27.3 93.4 -27.35 94.25 -27.3 95.8 -27.3 95.9 -27.4 96.0 -27.3 100.4 -27.05 100.5 -27.1 100.6 -27.1 102.0 -26.9 102.45 -26.75 102.35 -26.9 101.7 -27.9 101.1 -28.7 101.3 -29.0 102.1 -27.9 102.55 -27.4 103.3 -26.25 103.25 -26.1 103.1 -26.0 102.85 -26.2 102.55 -26.1 101.8 -26.25 101.7 -26.15 104.25 -23.4 105.75 -21.75 106.5 -21.0 106.5 -20.85 106.45 -20.8 106.6 -20.65 107.1 -20.25 107.4 -19.95 107.5 -19.95 Q106.65 -21.75 105.5 -24.65 103.85 -28.2 101.6 -30.75 L96.65 -36.65 93.65 -39.6 91.4 -42.0 89.55 -42.8 87.75 -43.7 86.3 -44.3 85.3 -45.1 85.2 -45.1 Q84.95 -45.1 84.05 -45.6 L82.75 -46.4 81.7 -46.5 81.2 -46.65 78.95 -46.7 77.15 -46.65 M75.8 -44.15 L75.85 -44.25 75.8 -44.3 75.85 -44.5 81.4 -44.6 82.8 -44.6 83.9 -44.35 84.2 -44.25 84.25 -43.9 89.15 -37.0 89.3 -37.0 90.2 -36.2 Q89.9 -35.85 87.85 -35.65 L85.4 -35.4 84.45 -35.4 Q84.4 -35.3 84.25 -35.3 L75.8 -44.15 M70.3 -17.55 L67.4 -20.75 67.3 -20.85 66.65 -20.1 63.6 -16.25 63.0 -15.55 58.8 -10.35 56.6 -7.5 55.95 -6.5 55.2 -5.35 55.05 -5.1 54.95 -4.85 52.05 0.25 Q49.3 4.85 46.65 10.7 45.05 14.05 42.75 19.75 L42.5 21.2 42.3 21.4 42.15 21.25 42.1 21.4 40.5 25.45 39.45 28.2 36.35 36.6 Q34.25 42.4 32.85 46.95 30.9 53.75 29.55 61.2 L29.55 61.35 29.8 61.25 29.8 61.2 29.85 61.2 Q30.95 60.75 33.85 59.95 L40.8 57.95 41.3 54.85 41.3 54.75 41.35 54.7 41.8 53.4 42.75 49.05 44.65 41.4 45.9 34.85 Q46.55 31.3 47.95 28.95 48.65 26.4 50.0 22.55 52.9 14.0 55.5 7.95 L56.2 6.35 56.2 6.25 56.25 6.1 56.3 6.1 Q58.95 0.05 61.6 -4.6 65.35 -11.25 70.05 -16.9 L70.0 -17.1 Q70.0 -17.35 70.15 -17.4 L70.35 -17.5 70.3 -17.55 M79.5 -24.15 Q75.85 -22.4 74.4 -21.25 L74.4 -21.2 74.35 -21.05 74.3 -21.05 74.25 -21.0 74.9 -19.15 77.0 -21.6 79.5 -24.15 M78.4 -22.3 L75.05 -18.7 75.7 -16.3 77.1 -10.8 77.8 -10.05 77.75 -9.9 77.6 -9.8 77.05 -10.2 77.0 -10.2 77.0 -10.25 73.35 -14.15 72.25 -15.35 68.2 -10.35 68.2 -10.3 68.1 -10.2 68.0 -10.2 66.9 -10.4 Q66.3 -10.55 66.05 -10.65 L64.15 -7.95 Q66.8 -0.6 71.3 5.15 L75.5 9.85 Q75.55 7.4 78.85 0.1 81.5 -5.85 83.25 -8.85 L88.6 -18.2 Q91.65 -23.15 95.15 -26.65 L94.0 -26.75 90.65 -26.8 90.65 -26.85 88.85 -26.75 82.55 -25.25 80.65 -24.7 80.4 -24.55 Q80.4 -24.35 78.4 -22.3 M70.5 -17.0 L68.5 -14.0 68.8 -13.95 70.2 -13.7 72.0 -15.65 70.7 -17.15 70.5 -17.0 M69.75 -13.2 L69.85 -13.3 69.75 -13.3 Q68.6 -13.35 68.3 -13.75 L67.05 -12.05 66.45 -11.15 66.55 -10.8 67.65 -10.7 67.95 -10.65 69.75 -13.2 M63.9 -7.55 L61.9 -4.4 58.75 1.9 56.7 6.45 Q60.05 10.8 73.7 18.2 79.2 21.2 86.4 22.7 95.25 24.6 99.3 26.15 L99.3 26.3 99.3 26.35 99.25 26.4 103.45 28.05 Q109.0 30.3 111.55 31.6 L112.0 31.8 112.1 31.7 112.3 31.95 123.9 29.4 Q115.6 29.15 102.1 24.75 92.5 21.6 86.95 19.0 L86.8 19.0 Q84.4 19.0 77.3 12.2 L74.1 8.75 71.25 5.45 Q70.2 4.25 67.25 -0.65 64.3 -5.6 63.9 -7.55 M101.55 -26.3 L101.6 -26.25 101.65 -26.3 101.55 -26.3 M83.7 -44.1 L76.35 -44.1 Q80.65 -40.3 84.2 -35.9 L86.7 -36.2 89.3 -36.3 Q85.3 -41.55 83.8 -44.15 L83.7 -44.1 M90.6 -27.05 L90.1 -26.95 90.65 -26.95 90.6 -27.05 M99.0 -26.6 L95.65 -26.65 Q88.65 -18.2 83.55 -8.5 79.15 -0.1 75.75 10.1 78.9 13.15 82.9 16.05 L82.65 14.85 82.6 13.55 82.55 11.95 82.4 10.45 Q82.35 9.4 82.65 8.8 82.95 0.8 88.35 -9.2 93.7 -19.2 101.25 -25.95 L100.55 -26.6 100.2 -26.7 99.5 -26.8 Q99.45 -26.6 99.0 -26.6 M125.55 29.3 L118.85 31.1 112.7 32.35 112.7 32.4 Q115.9 36.4 118.85 41.2 L123.4 50.3 123.35 50.55 123.6 51.1 124.05 52.45 124.2 52.55 131.35 50.75 139.45 48.25 136.95 43.65 134.1 38.75 Q132.55 36.5 128.7 32.6 L125.55 29.3 M84.75 39.35 L87.2 40.85 89.1 42.5 106.6 45.75 Q115.65 47.6 123.5 52.15 L123.15 51.3 122.75 50.1 120.85 46.15 118.5 41.45 114.3 35.5 112.1 32.4 111.95 32.4 111.65 32.35 111.6 32.1 Q102.05 28.35 97.3 26.05 L93.45 24.9 86.4 22.9 80.15 21.15 Q75.25 19.6 73.45 18.5 L64.25 13.0 Q57.6 8.75 56.45 6.95 L55.85 8.2 Q53.35 13.4 51.15 20.85 L50.5 23.15 Q52.5 27.8 63.85 32.7 74.1 37.1 84.65 38.95 L84.7 39.05 84.85 39.0 84.9 39.1 84.7 39.25 84.65 39.25 84.75 39.35 M88.35 42.6 L85.05 39.95 84.9 39.85 84.4 39.4 82.15 40.3 Q79.35 41.1 74.05 41.1 L69.35 40.9 69.35 40.95 69.1 41.0 68.4 40.95 68.2 41.0 68.15 41.1 Q68.75 41.55 69.6 43.0 L70.1 43.75 71.45 45.9 Q74.7 50.3 75.95 52.55 78.65 57.4 80.95 63.25 L81.5 63.45 81.45 63.6 82.4 63.65 Q86.15 63.65 93.8 61.7 L100.7 59.75 Q97.35 53.35 95.2 49.9 L94.55 48.9 Q93.4 47.4 91.65 45.65 L88.7 42.9 88.5 42.75 88.35 42.7 88.35 42.6 M68.05 40.5 L69.35 40.45 69.4 40.65 72.8 40.55 80.6 39.9 83.45 39.25 Q80.25 38.9 72.85 36.5 L64.0 33.5 Q61.05 32.8 55.65 28.8 50.9 25.3 50.3 23.75 L48.25 30.65 Q52.15 34.85 68.0 40.6 L68.05 40.5 M23.2 40.8 L23.6 38.05 25.0 30.35 24.3 29.55 24.35 29.35 25.1 29.9 25.8 26.2 Q27.05 19.95 28.45 15.55 L28.3 15.15 22.7 13.6 Q19.05 12.5 18.3 11.9 L11.95 20.3 8.2 25.25 9.95 25.1 11.05 25.0 Q13.7 25.0 17.8 25.95 22.5 27.05 22.5 28.25 L22.5 28.45 22.3 28.5 19.25 26.95 Q15.35 25.4 11.0 25.4 L9.6 25.4 9.2 25.7 7.85 25.7 Q3.3 31.85 1.15 35.4 L0.25 36.9 1.8 36.8 0.85 37.05 -0.05 37.4 Q-3.7 43.45 -5.75 47.55 L-6.7 49.5 -5.5 49.2 -2.1 48.8 8.35 50.0 Q14.65 51.15 16.95 52.0 L17.0 52.1 16.6 52.3 Q15.75 52.3 13.0 51.5 L9.1 50.5 Q2.4 49.2 -2.15 49.2 L-5.65 49.7 -7.0 50.15 Q-9.35 55.3 -10.45 59.7 L-10.4 59.7 -10.45 60.05 -8.5 61.35 -4.55 63.85 -0.15 64.9 6.65 65.55 Q13.6 65.55 20.5 61.3 L20.8 61.55 21.7 61.6 21.95 61.65 21.65 61.25 22.05 54.1 21.3 53.8 21.3 53.85 21.25 54.0 21.1 54.1 20.5 53.45 20.55 53.25 21.6 53.4 22.1 53.6 Q22.6 45.75 23.15 41.4 L23.1 41.4 Q22.75 41.4 22.55 41.05 L22.4 40.55 23.0 40.8 23.2 40.95 23.2 40.8 M17.55 24.15 Q18.15 24.15 18.2 23.65 18.2 23.1 17.35 22.75 16.5 22.45 16.5 23.3 16.5 24.15 17.55 24.15 M16.1 23.3 Q16.1 22.05 17.35 22.35 18.6 22.7 18.6 23.65 18.35 24.6 17.7 24.6 16.85 24.6 16.4 24.05 L16.1 23.3 M11.05 35.0 Q11.4 35.35 11.8 35.35 12.6 35.35 12.7 34.45 12.7 33.55 11.7 33.55 10.7 33.55 10.7 34.4 L11.05 35.0 M10.7 35.2 L10.3 34.45 Q10.3 33.25 11.7 33.05 13.1 32.9 13.1 34.45 L12.85 35.3 Q12.5 35.8 11.8 35.8 11.2 35.8 10.7 35.2 M9.4 46.2 L9.15 47.0 Q8.8 47.5 8.15 47.5 6.9 47.5 6.55 46.95 6.4 46.75 6.4 46.3 6.4 44.65 7.9 44.65 9.4 44.65 9.4 46.2 M7.9 45.05 Q6.8 45.1 6.8 46.35 6.8 47.05 8.0 47.05 9.05 47.05 9.0 46.2 9.0 45.0 7.9 45.05 M20.1 39.1 L20.05 39.2 19.85 39.3 14.3 37.95 11.6 37.25 1.95 36.8 13.0 37.2 Q15.65 37.7 20.1 39.1 M3.2 58.95 Q2.9 58.45 2.9 58.0 2.9 56.15 4.6 56.65 6.3 57.15 6.3 58.3 L5.95 59.15 Q5.45 59.7 4.5 59.7 3.65 59.7 3.2 58.95 M4.35 57.15 L4.35 56.85 Q3.3 57.05 3.3 58.0 L3.55 58.75 Q3.9 59.25 4.5 59.25 5.9 59.25 5.9 58.3 5.9 57.9 5.5 57.55 5.05 57.2 4.55 57.2 L4.35 57.15 M-35.4 -84.25 L-38.05 -80.55 Q-41.6 -75.2 -45.05 -68.45 -48.55 -61.45 -51.6 -52.6 L-48.6 -51.1 Q-45.4 -49.65 -40.6 -48.05 L-37.15 -46.95 -37.1 -47.1 -36.95 -47.05 -36.9 -46.9 -36.85 -46.9 Q-27.95 -44.3 -20.8 -44.3 L-20.25 -44.0 Q-19.7 -45.35 -13.95 -51.2 L-20.1 -50.55 Q-22.2 -50.05 -23.6 -49.4 L-23.8 -49.4 -24.0 -49.0 Q-24.2 -49.05 -24.2 -49.25 L-24.1 -49.65 -24.05 -49.75 Q-23.5 -51.15 -20.5 -55.5 L-16.1 -61.65 Q-10.95 -68.3 -4.5 -72.4 L-5.4 -72.4 Q-20.85 -72.4 -27.65 -76.1 -29.1 -76.85 -30.7 -78.4 L-30.8 -78.4 Q-31.6 -78.4 -33.65 -81.65 L-35.4 -84.0 -35.4 -84.25 M-35.2 -84.4 L-35.25 -84.45 -35.25 -84.4 -35.2 -84.4 M-24.1 8.65 L-26.95 17.15 -27.9 21.3 -28.85 25.6 -29.0 25.7 -29.2 25.45 Q-29.2 23.35 -26.85 15.95 L-24.3 8.4 -24.1 8.65 M-33.5 7.3 L-34.75 12.2 -36.4 18.75 -36.6 18.9 -36.8 18.6 -35.7 13.4 Q-34.45 8.5 -33.7 7.1 L-33.55 7.15 -33.5 7.3 M-19.3 45.8 L-19.85 45.5 -20.3 45.3 -20.35 45.3 -20.6 45.2 -20.65 45.15 -21.0 45.0 -21.1 45.1 -21.35 44.85 -22.75 44.15 Q-25.25 42.9 -25.95 42.7 L-28.6 41.55 -35.25 41.0 Q-45.2 41.0 -52.35 45.3 -54.55 46.65 -58.7 50.65 L-61.65 53.9 -61.6 53.9 -61.8 54.2 -61.85 54.2 Q-64.45 57.5 -65.6 61.0 L-65.6 61.1 -65.75 62.25 -65.9 64.1 -65.85 65.3 -65.45 67.0 -65.15 68.45 Q-64.55 69.6 -62.8 69.6 L-62.55 69.65 -62.5 69.65 -62.55 69.6 Q-63.6 69.15 -64.3 67.4 -64.9 65.8 -64.9 64.85 L-64.7 63.2 -64.6 62.75 -64.2 61.8 Q-63.25 60.7 -59.9 60.7 L-58.9 60.7 -58.8 60.6 -58.65 60.65 -58.6 60.7 -50.45 61.15 -50.4 61.1 -50.3 61.2 -46.9 61.75 -46.9 61.7 -46.75 61.75 -46.7 61.8 Q-44.55 62.3 -43.15 63.0 -40.0 64.6 -40.0 68.25 -40.0 69.2 -40.35 69.65 L-40.85 70.2 -40.15 70.3 -38.9 69.9 -38.7 70.1 -39.2 70.4 -38.5 70.45 Q-37.1 70.45 -30.65 68.45 L-23.1 66.0 -22.85 65.95 -21.7 64.1 Q-20.5 62.0 -20.5 60.0 L-20.45 59.7 -20.5 59.55 Q-20.5 59.2 -19.2 58.9 L-19.05 59.05 -17.4 58.25 Q-14.25 56.75 -11.95 54.25 L-12.1 53.9 -13.15 51.6 -14.8 49.5 -15.15 49.05 -15.5 48.7 -17.2 47.05 -18.9 46.05 Q-30.25 50.15 -36.8 57.0 L-37.0 56.75 -33.95 53.95 -30.2 51.0 -24.95 48.0 Q-22.25 46.6 -19.3 45.85 L-19.25 45.85 -19.3 45.8 M-22.95 48.1 L-22.15 48.05 -22.1 48.3 -22.35 48.7 Q-22.6 48.9 -22.75 48.9 -23.2 48.9 -23.2 48.5 L-22.95 48.1 M-18.4 47.15 Q-18.4 47.8 -19.35 47.8 L-19.65 47.75 -19.7 47.45 Q-19.7 47.0 -19.05 46.85 -18.4 46.7 -18.4 47.15 M-16.4 47.15 L-16.2 47.35 -16.25 47.25 Q-16.35 47.15 -16.4 47.15 M-45.1 11.0 L-45.3 10.75 -44.85 8.95 -44.4 7.6 -44.25 7.65 -44.2 7.8 -44.5 9.35 Q-44.85 10.65 -45.1 11.0 M-44.3 63.05 L-45.0 67.25 -44.7 68.1 -45.0 68.3 -45.25 68.25 -45.4 67.3 -45.0 64.8 -44.5 62.8 -46.7 62.15 -47.05 63.75 -47.4 66.3 Q-47.4 67.3 -47.0 67.7 L-47.3 68.1 -47.7 67.25 -47.8 66.35 -47.55 63.8 -47.15 62.05 -50.2 61.6 -50.4 62.45 -50.6 64.15 Q-50.6 66.2 -50.0 67.0 L-50.2 67.2 Q-51.0 66.15 -51.0 64.15 -51.0 62.35 -50.65 61.55 L-53.1 61.3 -53.1 61.35 -53.3 62.85 -52.6 66.9 -52.75 67.4 -52.75 67.45 -52.9 67.5 Q-53.3 67.5 -53.7 62.9 -53.7 61.65 -53.5 61.3 L-56.0 61.15 -56.0 61.25 -56.2 64.4 Q-56.2 66.8 -55.9 67.0 L-56.1 67.2 Q-56.6 66.7 -56.6 64.4 -56.6 62.05 -56.3 61.15 L-58.6 61.1 -59.0 64.4 -58.8 66.25 -59.0 66.4 Q-59.4 65.9 -59.4 64.35 L-59.4 62.25 -59.15 61.1 -59.8 61.1 -62.15 62.95 Q-62.5 63.45 -62.5 64.65 -62.5 66.05 -61.8 67.0 -60.95 68.1 -59.0 68.9 L-48.2 69.95 -45.65 69.75 -42.85 69.35 -40.45 68.85 -40.4 68.25 Q-40.4 65.85 -41.85 64.4 L-42.0 64.2 -42.0 64.5 -42.35 66.35 Q-42.6 67.55 -42.3 68.2 L-42.5 68.4 -42.8 67.45 Q-42.8 64.55 -42.3 64.0 -42.85 63.55 -43.55 63.2 L-44.2 62.9 -44.35 62.85 -44.3 63.05 M-58.3 69.5 Q-60.55 69.5 -61.9 67.6 -62.9 66.15 -62.9 64.7 -62.9 63.1 -62.05 62.05 -61.45 61.35 -60.65 61.1 -63.3 61.2 -63.85 62.0 -64.2 62.5 -64.15 63.4 L-64.3 63.5 -64.3 63.45 -64.5 64.8 Q-64.5 65.55 -63.75 67.1 -62.8 69.1 -61.6 69.2 L-61.5 69.4 -60.75 69.9 -60.7 69.95 -58.4 70.3 -47.4 70.95 -42.85 70.85 -42.85 70.8 Q-41.3 70.35 -40.75 69.5 -41.65 70.0 -43.3 70.2 L-48.15 70.4 -54.35 69.85 -58.1 69.35 -58.3 69.5 M-41.25 70.6 L-41.3 70.65 -41.25 70.65 -41.25 70.6 M-90.55 52.45 L-85.45 53.9 Q-81.65 54.95 -79.5 55.95 -76.35 56.9 -73.55 58.25 L-71.8 58.95 -70.4 59.25 -68.55 59.85 -67.1 59.95 -65.95 60.05 Q-65.25 58.05 -62.75 54.7 L-62.2 54.05 -67.45 51.7 -75.05 48.4 -82.2 45.1 Q-89.5 42.45 -89.5 41.95 L-89.5 41.85 -89.55 41.8 -89.6 41.75 -89.6 41.8 -90.5 52.3 -90.65 52.4 -90.55 52.45 M-20.15 59.7 Q-20.0 60.15 -20.0 61.0 -20.0 61.7 -20.75 63.7 L-21.6 65.45 -16.65 63.2 Q-13.3 61.45 -11.25 59.9 L-11.4 59.75 -11.25 59.1 -11.0 58.7 -11.1 57.5 Q-11.1 57.2 -10.9 57.2 -11.05 56.4 -11.7 54.75 -12.4 55.6 -14.95 57.1 L-19.9 59.7 -20.05 59.65 -20.15 59.7 M-25.6 49.5 Q-25.35 49.5 -25.2 49.75 L-25.5 50.1 -25.85 50.3 -26.05 50.25 -26.1 50.05 -25.95 49.7 -25.6 49.5 M-28.0 51.75 L-28.15 52.15 -28.8 52.5 -29.2 52.2 Q-28.65 51.45 -28.1 51.45 L-28.0 51.75" fill="#000000" fill-rule="evenodd" stroke="none"/>
    <path d="M34.75 -8.15 L32.75 -10.15 Q36.75 -19.2 44.0 -27.05 L50.4 -33.55 54.65 -31.45 54.6 -31.15 54.8 -30.9 55.05 -31.25 59.8 -27.6 Q52.55 -22.75 45.75 -15.15 L37.35 -5.55 34.75 -8.15" fill="#111111" fill-rule="evenodd" stroke="none"/>
    <path d="M-58.3 69.5 L-58.1 69.35 -54.35 69.85 -48.15 70.4 -43.3 70.2 Q-41.65 70.0 -40.75 69.5 -41.3 70.35 -42.85 70.8 L-42.85 70.85 -47.4 70.95 -58.4 70.3 -60.7 69.95 -60.75 69.9 -61.5 69.4 -61.6 69.2 Q-62.8 69.1 -63.75 67.1 -64.5 65.55 -64.5 64.8 L-64.3 63.45 -64.3 63.5 -64.15 63.4 Q-64.2 62.5 -63.85 62.0 -63.3 61.2 -60.65 61.1 -61.45 61.35 -62.05 62.05 -62.9 63.1 -62.9 64.7 -62.9 66.15 -61.9 67.6 -60.55 69.5 -58.3 69.5 M-89.55 41.8 L-89.5 41.85 -89.5 41.95 Q-89.5 42.45 -82.2 45.1 L-75.05 48.4 -67.45 51.7 -62.2 54.05 -62.75 54.7 Q-65.25 58.05 -65.95 60.05 L-67.1 59.95 -68.55 59.85 -70.4 59.25 -71.8 58.95 -73.55 58.25 Q-76.35 56.9 -79.5 55.95 -81.65 54.95 -85.45 53.9 L-90.55 52.45 -90.5 52.3 -89.6 41.8 -89.55 41.8 M-19.9 59.7 L-14.95 57.1 Q-12.4 55.6 -11.7 54.75 -11.05 56.4 -10.9 57.2 -11.1 57.2 -11.1 57.5 L-11.0 58.7 -11.25 59.1 -11.4 59.75 -11.25 59.9 Q-13.3 61.45 -16.65 63.2 L-21.6 65.45 -20.75 63.7 Q-20.0 61.7 -20.0 61.0 -20.0 60.15 -20.15 59.7 L-19.9 59.7" fill="#cdbd9a" fill-rule="evenodd" stroke="none"/>
    <path d="M59.3 -53.95 Q59.3 -54.55 60.0 -54.5 60.65 -54.5 61.3 -54.05 L60.65 -53.45 Q59.3 -53.45 59.3 -53.95 M63.8 -50.25 Q63.8 -51.95 68.1 -51.75 72.4 -51.6 72.4 -48.95 72.4 -48.45 71.9 -48.0 71.1 -47.25 69.35 -47.25 66.9 -47.25 65.2 -48.45 63.8 -49.4 63.8 -50.25 M30.45 -65.0 Q32.9 -65.0 32.9 -63.3 32.85 -61.95 30.95 -61.95 28.0 -61.95 28.0 -63.4 28.0 -64.95 30.45 -65.0 M83.7 -44.1 L83.8 -44.15 Q85.3 -41.55 89.3 -36.3 L86.7 -36.2 84.2 -35.9 Q80.65 -40.3 76.35 -44.1 L83.7 -44.1 M17.55 24.15 Q16.5 24.15 16.5 23.3 16.5 22.45 17.35 22.75 18.2 23.1 18.2 23.65 18.15 24.15 17.55 24.15 M11.05 35.0 L10.7 34.4 Q10.7 33.55 11.7 33.55 12.7 33.55 12.7 34.45 12.6 35.35 11.8 35.35 11.4 35.35 11.05 35.0 M7.9 45.05 Q9.0 45.0 9.0 46.2 9.05 47.05 8.0 47.05 6.8 47.05 6.8 46.35 6.8 45.1 7.9 45.05 M4.35 57.15 L4.55 57.2 Q5.05 57.2 5.5 57.55 5.9 57.9 5.9 58.3 5.9 59.25 4.5 59.25 3.9 59.25 3.55 58.75 L3.3 58.0 Q3.3 57.05 4.35 56.85 L4.35 57.15 M-41.85 64.4 Q-40.4 65.85 -40.4 68.25 L-40.45 68.85 -42.85 69.35 -45.65 69.75 -48.2 69.95 -59.0 68.9 Q-60.95 68.1 -61.8 67.0 -62.5 66.05 -62.5 64.65 -62.5 63.45 -62.15 62.95 L-59.8 61.1 -59.15 61.1 -59.4 62.25 -59.4 64.35 Q-59.4 65.9 -59.0 66.4 L-58.8 66.25 -59.0 64.4 -58.6 61.1 -56.3 61.15 Q-56.6 62.05 -56.6 64.4 -56.6 66.7 -56.1 67.2 L-55.9 67.0 Q-56.2 66.8 -56.2 64.4 L-56.0 61.25 -56.0 61.15 -53.5 61.3 Q-53.7 61.65 -53.7 62.9 -53.3 67.5 -52.9 67.5 L-52.75 67.45 -52.75 67.4 -52.6 66.9 -53.3 62.85 -53.1 61.35 -53.1 61.3 -50.65 61.55 Q-51.0 62.35 -51.0 64.15 -51.0 66.15 -50.2 67.2 L-50.0 67.0 Q-50.6 66.2 -50.6 64.15 L-50.4 62.45 -50.2 61.6 -47.15 62.05 -47.55 63.8 -47.8 66.35 -47.7 67.25 -47.3 68.1 -47.0 67.7 Q-47.4 67.3 -47.4 66.3 L-47.05 63.75 -46.7 62.15 -44.5 62.8 -45.0 64.8 -45.4 67.3 -45.25 68.25 -45.0 68.3 -44.7 68.1 -45.0 67.25 -44.3 63.05 -44.2 62.9 -43.55 63.2 Q-42.85 63.55 -42.3 64.0 -42.8 64.55 -42.8 67.45 L-42.5 68.4 -42.3 68.2 Q-42.6 67.55 -42.35 66.35 L-42.0 64.5 -41.85 64.4" fill="#d0f7fb" fill-rule="evenodd" stroke="none"/>
    <path d="M50.9 -64.25 L50.85 -64.15 49.5 -64.5 44.6 -64.6 40.5 -64.0 35.95 -63.05 Q33.75 -62.45 33.6 -61.8 29.7 -59.75 23.25 -55.45 16.8 -51.2 14.95 -48.95 11.9 -49.95 5.35 -50.85 L-6.65 -51.8 -19.3 -50.95 -23.4 -50.1 Q-17.15 -61.6 -9.0 -68.5 L-3.85 -72.45 -3.7 -72.45 -3.6 -72.6 -2.05 -73.5 -2.0 -73.5 -1.4 -73.85 -0.35 -74.15 12.9 -73.5 32.6 -69.75 42.3 -67.4 49.15 -64.9 50.9 -64.25 M33.3 -63.3 Q33.3 -65.4 30.45 -65.4 27.6 -65.4 27.6 -63.4 27.5 -62.95 27.85 -62.5 28.6 -61.5 30.95 -61.5 32.35 -61.5 32.95 -62.3 33.3 -62.75 33.3 -63.3" fill="url(#gradient0)" fill-rule="evenodd" stroke="none"/>
    <path d="M88.55 -43.9 L85.4 -45.25 85.4 -45.3 Q85.25 -45.8 83.1 -46.7 L83.05 -46.75 82.6 -46.85 82.4 -46.95 82.4 -46.9 81.85 -47.05 77.7 -47.05 78.25 -47.1 74.45 -46.95 Q72.2 -46.65 71.1 -46.05 L69.85 -45.25 68.4 -43.85 66.25 -42.6 65.3 -42.15 65.2 -42.2 65.0 -42.0 64.7 -41.9 64.75 -41.8 59.4 -37.05 Q55.6 -33.45 54.8 -31.85 L46.1 -36.55 46.0 -36.75 45.9 -36.65 Q40.4 -39.6 35.65 -40.45 L35.6 -40.5 35.6 -40.45 34.9 -40.6 23.5 -44.85 14.45 -47.35 Q17.8 -51.7 22.35 -54.55 L30.0 -59.1 33.8 -61.4 37.9 -62.85 Q42.4 -64.2 45.6 -64.2 L50.8 -63.55 54.25 -63.0 54.55 -62.9 54.75 -62.95 58.05 -62.9 58.6 -62.9 58.6 -62.85 Q64.05 -61.0 69.0 -58.1 L76.85 -53.05 84.1 -48.05 87.4 -45.15 88.7 -44.05 88.55 -43.9 M60.15 -55.0 Q58.9 -55.0 58.9 -54.0 L59.05 -53.5 Q59.45 -53.0 60.75 -53.0 L61.35 -53.4 61.7 -54.0 61.15 -54.65 60.15 -55.0 M68.1 -52.4 Q63.4 -52.9 63.4 -50.25 63.4 -49.45 64.75 -48.35 66.6 -46.8 69.4 -46.8 71.15 -46.8 72.1 -47.65 72.8 -48.3 72.8 -48.95 72.8 -51.9 68.1 -52.4" fill="url(#gradient1)" fill-rule="evenodd" stroke="none"/>
    <path d="M35.0 -40.15 L35.1 -40.05 Q27.75 -34.15 20.25 -26.2 L7.4 -11.7 Q2.95 -6.55 -2.85 2.8 L-7.1 10.9 -9.7 16.6 -10.3 17.45 -10.7 18.35 -10.5 18.6 -10.4 18.65 -16.0 30.95 -18.45 36.65 -18.6 36.6 -25.55 34.85 -28.7 33.4 -28.7 33.3 -28.8 33.2 -28.7 33.1 -28.8 32.95 -29.45 32.7 -30.55 32.25 Q-38.95 28.75 -44.7 23.85 -47.65 21.35 -53.6 14.5 -55.9 11.8 -57.75 8.8 L-57.7 8.65 -57.9 8.4 -58.0 8.45 -59.85 5.05 Q-61.65 1.25 -63.25 -3.8 -60.8 -14.0 -56.65 -26.9 L-51.7 -40.95 -48.4 -50.65 Q-45.3 -49.2 -40.55 -47.5 L-37.45 -46.45 -37.45 -46.35 -37.5 -46.25 Q-39.0 -44.0 -41.5 -37.85 -43.95 -31.95 -44.55 -28.75 -45.5 -25.75 -45.5 -24.2 L-45.3 -23.9 -45.1 -24.05 -44.75 -26.6 -44.6 -26.6 -44.4 -26.7 Q-42.85 -33.75 -41.75 -36.7 L-38.8 -42.6 -36.9 -46.3 Q-31.4 -44.7 -26.4 -44.05 -32.9 -32.85 -35.8 -24.4 L-39.1 -14.2 Q-41.8 -5.65 -41.8 -4.35 L-41.6 -4.1 -38.7 -14.05 Q-37.0 -20.2 -35.5 -24.0 L-33.6 -29.0 -31.55 -34.0 -28.55 -39.2 Q-26.15 -43.4 -26.1 -44.0 L-20.6 -43.7 -20.3 -43.75 Q-20.3 -43.55 -20.1 -43.5 L-15.9 -48.45 -13.5 -51.25 -6.75 -51.4 -5.75 -51.4 Q-13.05 -42.2 -20.4 -28.9 L-25.5 -18.4 Q-30.3 -8.2 -30.3 -6.15 -30.3 -5.95 -30.1 -5.9 -25.2 -20.1 -20.15 -28.6 L-16.85 -34.3 -13.4 -40.0 -8.6 -46.75 -5.4 -51.35 -5.4 -51.4 Q2.5 -51.3 8.55 -50.0 L14.7 -48.65 Q14.2 -47.95 14.2 -47.5 L14.2 -47.4 14.1 -47.45 14.1 -47.25 15.1 -46.75 Q9.1 -42.05 3.9 -35.95 L-4.75 -24.95 -13.0 -14.0 Q-20.1 -4.35 -20.1 -2.85 L-19.9 -2.6 Q-14.95 -11.5 -4.4 -24.7 L-0.3 -30.25 Q2.1 -33.5 4.25 -35.75 10.85 -42.7 15.45 -46.6 16.65 -46.15 18.75 -45.65 L22.65 -44.85 28.6 -42.5 Q32.7 -40.85 35.0 -40.15 M-33.5 7.3 L-33.55 7.15 -33.7 7.1 Q-34.45 8.5 -35.7 13.4 L-36.8 18.6 -36.6 18.9 -36.4 18.75 -34.75 12.2 -33.5 7.3 M-24.1 8.65 L-24.3 8.4 -26.85 15.95 Q-29.2 23.35 -29.2 25.45 L-29.0 25.7 -28.85 25.6 -27.9 21.3 -26.95 17.15 -24.1 8.65 M-45.1 11.0 Q-44.85 10.65 -44.5 9.35 L-44.2 7.8 -44.25 7.65 -44.4 7.6 -44.85 8.95 -45.3 10.75 -45.1 11.0" fill="url(#gradient2)" fill-rule="evenodd" stroke="none"/>
    <path d="M-18.0 45.7 L-18.1 45.55 -18.3 45.6 Q-19.55 44.8 -21.05 44.45 L-21.1 44.4 -20.5 43.25 -20.1 42.1 -20.1 42.0 -13.55 27.2 -9.4 17.55 -9.4 17.5 -9.1 16.5 -9.2 16.3 Q-8.3 13.6 -4.0 5.85 2.3 -5.5 7.6 -11.35 L20.6 -25.8 Q28.2 -33.95 35.5 -40.0 39.85 -38.65 45.25 -36.1 L41.0 -31.55 Q36.45 -26.45 34.45 -23.2 L30.75 -16.55 Q27.9 -11.0 27.9 -9.3 L27.95 -9.1 28.05 -9.1 30.4 -5.35 Q33.15 -1.6 34.8 -1.6 35.4 -1.6 35.4 -2.0 L35.35 -2.15 35.3 -2.2 Q42.95 -11.6 45.95 -14.8 52.5 -21.9 60.05 -27.4 L61.75 -26.15 66.85 -21.3 58.85 -11.05 58.55 -10.65 Q56.6 -8.35 54.8 -5.45 L54.65 -5.15 52.0 -0.55 51.55 0.4 Q49.6 3.9 45.85 11.65 L45.4 12.6 42.95 17.85 42.55 18.8 Q41.55 20.6 40.65 23.1 L38.6 28.7 34.7 39.65 Q33.65 42.45 31.6 49.9 L30.7 53.35 Q29.0 59.45 29.0 61.6 L23.4 62.15 22.3 62.15 22.3 62.1 22.5 61.85 22.15 61.7 22.1 61.4 22.3 54.2 22.5 54.15 22.5 54.0 22.35 53.75 Q22.95 42.6 25.45 30.25 27.05 22.55 28.6 15.8 L28.8 15.65 28.9 15.0 28.85 14.85 28.8 14.85 28.8 14.8 28.75 14.65 28.7 14.65 28.65 14.8 28.5 14.8 18.5 11.6 18.8 11.15 18.75 10.95 18.25 11.5 18.15 11.45 18.1 11.65 18.1 11.7 Q12.9 17.65 7.5 25.3 L7.15 25.3 7.1 25.45 7.15 25.7 7.2 25.7 Q4.1 30.1 0.9 35.05 L-0.25 36.9 -5.15 45.95 -7.0 49.6 -7.5 49.95 -7.45 50.15 -7.3 50.25 Q-9.65 54.95 -10.45 57.5 L-10.5 57.5 Q-10.5 54.3 -13.65 49.9 L-14.3 49.1 Q-15.55 47.1 -16.25 47.0 L-18.0 45.75 -18.0 45.7" fill="url(#gradient3)" fill-rule="evenodd" stroke="none"/>
    <path d="M39.1 -21.85 L35.45 -16.2 Q33.1 -12.5 32.45 -10.7 L29.85 -9.95 28.4 -9.4 28.3 -9.5 31.15 -15.9 Q33.05 -20.15 34.65 -22.8 36.55 -25.95 39.85 -29.7 L43.9 -34.1 45.6 -35.9 48.3 -34.6 50.1 -33.7 44.1 -28.0 Q40.35 -24.25 39.1 -21.85 M32.2 -9.6 L32.25 -9.4 32.4 -9.4 32.65 -9.9 Q33.1 -8.5 34.5 -7.0 36.05 -5.35 37.15 -5.3 35.0 -2.75 34.85 -2.2 33.4 -2.55 31.0 -5.25 28.55 -8.0 28.45 -9.0 31.35 -9.6 32.3 -10.1 L32.2 -9.6 M29.55 61.2 Q30.9 53.75 32.85 46.95 34.25 42.4 36.35 36.6 L39.45 28.2 40.5 25.45 42.1 21.4 42.15 21.25 42.3 21.4 42.5 21.2 42.75 19.75 Q45.05 14.05 46.65 10.7 49.3 4.85 52.05 0.25 L54.95 -4.85 55.05 -5.1 55.2 -5.35 55.95 -6.5 56.6 -7.5 58.8 -10.35 63.0 -15.55 63.6 -16.25 66.65 -20.1 67.3 -20.85 67.4 -20.75 70.3 -17.55 70.15 -17.4 Q70.0 -17.35 70.0 -17.1 L70.05 -16.9 Q65.35 -11.25 61.6 -4.6 58.95 0.05 56.3 6.1 L56.25 6.1 56.2 6.25 56.2 6.35 55.5 7.95 Q52.9 14.0 50.0 22.55 48.65 26.4 47.95 28.95 46.55 31.3 45.9 34.85 L44.65 41.4 42.75 49.05 41.8 53.4 41.35 54.7 41.3 54.75 41.3 54.85 40.8 57.95 33.85 59.95 Q30.95 60.75 29.85 61.2 L29.8 61.2 29.8 61.25 29.55 61.2 M69.75 -13.3 L69.75 -13.2 67.95 -10.65 67.65 -10.7 66.55 -10.8 66.45 -11.15 67.05 -12.05 68.3 -13.75 Q68.6 -13.35 69.75 -13.3 M99.0 -26.6 Q99.45 -26.6 99.5 -26.8 L100.2 -26.7 100.55 -26.6 101.25 -25.95 Q93.7 -19.2 88.35 -9.2 82.95 0.8 82.65 8.8 82.35 9.4 82.4 10.45 L82.55 11.95 82.6 13.55 82.65 14.85 82.9 16.05 Q78.9 13.15 75.75 10.1 79.15 -0.1 83.55 -8.5 88.65 -18.2 95.65 -26.65 L99.0 -26.6" fill="url(#gradient4)" fill-rule="evenodd" stroke="none"/>
    <path d="M-10.5 57.5 L-10.45 57.5 -10.45 57.55 -10.5 57.5 M35.3 -2.2 L35.35 -2.15 35.3 -2.15 35.25 -2.2 35.3 -2.2" fill="url(#gradient5)" fill-rule="evenodd" stroke="none"/>
    <path d="M77.15 -46.65 L78.95 -46.7 81.2 -46.65 81.7 -46.5 82.75 -46.4 84.05 -45.6 Q84.95 -45.1 85.2 -45.1 L85.3 -45.1 86.3 -44.3 87.75 -43.7 89.55 -42.8 91.4 -42.0 93.65 -39.6 96.65 -36.65 101.6 -30.75 Q103.85 -28.2 105.5 -24.65 106.65 -21.75 107.5 -19.95 L107.4 -19.95 107.1 -20.25 106.6 -20.65 106.45 -20.8 106.5 -20.85 106.5 -21.0 105.75 -21.75 104.25 -23.4 101.7 -26.15 101.8 -26.25 102.55 -26.1 102.85 -26.2 103.1 -26.0 103.25 -26.1 103.3 -26.25 102.55 -27.4 102.1 -27.9 101.3 -29.0 101.1 -28.7 101.7 -27.9 102.35 -26.9 102.45 -26.75 102.0 -26.9 100.6 -27.1 100.5 -27.1 100.4 -27.05 96.0 -27.3 95.9 -27.4 95.8 -27.3 94.25 -27.3 93.4 -27.35 90.65 -27.3 90.65 -27.15 87.9 -26.9 85.05 -26.65 84.6 -26.3 83.3 -25.95 82.2 -25.5 81.4 -25.35 Q79.95 -25.1 76.95 -23.5 74.35 -22.1 74.05 -21.55 L74.0 -21.55 73.9 -21.8 74.0 -21.5 73.9 -21.5 73.9 -21.05 74.1 -21.0 Q75.7 -14.45 76.65 -11.3 L70.9 -17.6 67.65 -21.1 Q64.1 -24.85 60.5 -27.7 L60.7 -27.9 60.5 -28.1 60.25 -27.9 55.3 -31.35 55.4 -31.55 55.3 -31.6 Q57.85 -35.3 61.75 -38.8 L64.9 -41.5 65.1 -41.3 66.5 -42.1 Q67.45 -42.6 68.75 -43.65 L69.0 -43.85 70.2 -44.7 Q72.8 -46.55 77.15 -46.65 M75.8 -44.3 L75.8 -44.15 84.25 -35.3 Q84.4 -35.3 84.45 -35.4 L85.4 -35.4 87.85 -35.65 Q89.9 -35.85 90.2 -36.2 L89.3 -37.0 89.15 -37.0 84.25 -43.9 84.2 -44.25 83.9 -44.35 82.8 -44.6 81.4 -44.6 75.85 -44.5 75.8 -44.3" fill="url(#gradient6)" fill-rule="evenodd" stroke="none"/>
    <path d="M78.4 -22.3 Q80.4 -24.35 80.4 -24.55 L80.65 -24.7 82.55 -25.25 88.85 -26.75 90.65 -26.85 90.65 -26.8 94.0 -26.75 95.15 -26.65 Q91.65 -23.15 88.6 -18.2 L83.25 -8.85 Q81.5 -5.85 78.85 0.1 75.55 7.4 75.5 9.85 L71.3 5.15 Q66.8 -0.6 64.15 -7.95 L66.05 -10.65 Q66.3 -10.55 66.9 -10.4 L68.0 -10.2 68.1 -10.2 68.2 -10.3 68.2 -10.35 72.25 -15.35 73.35 -14.15 77.0 -10.25 77.0 -10.2 77.05 -10.2 77.6 -9.8 77.75 -9.9 77.8 -10.05 77.1 -10.8 75.7 -16.3 75.05 -18.7 78.4 -22.3" fill="url(#gradient7)" fill-rule="evenodd" stroke="none"/>
    <path d="M63.9 -7.55 Q64.3 -5.6 67.25 -0.65 70.2 4.25 71.25 5.45 L74.1 8.75 77.3 12.2 Q84.4 19.0 86.8 19.0 L86.95 19.0 Q92.5 21.6 102.1 24.75 115.6 29.15 123.9 29.4 L112.3 31.95 112.1 31.7 112.0 31.8 111.55 31.6 Q109.0 30.3 103.45 28.05 L99.25 26.4 99.3 26.35 99.3 26.3 99.3 26.15 Q95.25 24.6 86.4 22.7 79.2 21.2 73.7 18.2 60.05 10.8 56.7 6.45 L58.75 1.9 61.9 -4.4 63.9 -7.55 M84.65 38.95 L84.85 39.0 84.7 39.05 84.65 38.95 M68.05 40.5 L68.0 40.6 Q52.15 34.85 48.25 30.65 L50.3 23.75 Q50.9 25.3 55.65 28.8 61.05 32.8 64.0 33.5 L72.85 36.5 Q80.25 38.9 83.45 39.25 L80.6 39.9 72.8 40.55 69.4 40.65 69.35 40.45 68.05 40.5" fill="url(#gradient8)" fill-rule="evenodd" stroke="none"/>
    <path d="M88.55 -43.9 L88.7 -44.05 88.75 -44.05 88.55 -43.9" fill="url(#gradient9)" fill-rule="evenodd" stroke="none"/>
    <path d="M125.55 29.3 L128.7 32.6 Q132.55 36.5 134.1 38.75 L136.95 43.65 139.45 48.25 131.35 50.75 124.2 52.55 124.05 52.45 123.6 51.1 123.35 50.55 123.4 50.3 118.85 41.2 Q115.9 36.4 112.7 32.4 L112.7 32.35 118.85 31.1 125.55 29.3" fill="url(#gradient10)" fill-rule="evenodd" stroke="none"/>
    <path d="M84.65 38.95 Q74.1 37.1 63.85 32.7 52.5 27.8 50.5 23.15 L51.15 20.85 Q53.35 13.4 55.85 8.2 L56.45 6.95 Q57.6 8.75 64.25 13.0 L73.45 18.5 Q75.25 19.6 80.15 21.15 L86.4 22.9 93.45 24.9 97.3 26.05 Q102.05 28.35 111.6 32.1 L111.65 32.35 111.95 32.4 112.1 32.4 114.3 35.5 118.5 41.45 120.85 46.15 122.75 50.1 123.15 51.3 123.5 52.15 Q115.65 47.6 106.6 45.75 L89.1 42.5 87.2 40.85 84.75 39.35 84.7 39.25 84.9 39.1 84.85 39.0 84.65 38.95" fill="url(#gradient11)" fill-rule="evenodd" stroke="none"/>
    <path d="M88.35 42.6 L88.35 42.7 88.5 42.75 88.7 42.9 91.65 45.65 Q93.4 47.4 94.55 48.9 L95.2 49.9 Q97.35 53.35 100.7 59.75 L93.8 61.7 Q86.15 63.65 82.4 63.65 L81.45 63.6 81.5 63.45 80.95 63.25 Q78.65 57.4 75.95 52.55 74.7 50.3 71.45 45.9 L70.1 43.75 69.6 43.0 Q68.75 41.55 68.15 41.1 L68.2 41.0 68.4 40.95 69.1 41.0 69.35 40.95 69.35 40.9 74.05 41.1 Q79.35 41.1 82.15 40.3 L84.4 39.4 84.9 39.85 85.05 39.95 88.35 42.6" fill="url(#gradient12)" fill-rule="evenodd" stroke="none"/>
    <path d="M41.9 54.7 L41.9 54.65 41.95 54.45 42.4 53.7 42.35 53.55 42.2 53.5 42.15 53.5 45.0 41.85 46.3 35.25 46.75 33.5 46.8 33.5 47.0 33.35 47.05 33.3 Q47.05 33.55 47.2 33.6 L47.4 33.45 48.1 31.2 Q49.2 32.85 57.25 36.7 65.05 40.45 67.55 40.95 L67.85 41.3 Q68.15 42.05 69.0 43.0 L69.05 43.0 70.25 44.85 71.8 47.2 71.95 47.1 72.0 47.1 Q77.5 55.25 80.65 63.1 76.1 61.4 64.1 58.95 L41.9 54.7" fill="url(#gradient13)" fill-rule="evenodd" stroke="none"/>
    <path d="M23.0 40.8 L22.4 40.55 22.55 41.05 Q22.75 41.4 23.1 41.4 L23.15 41.4 Q22.6 45.75 22.1 53.6 L21.6 53.4 20.55 53.25 20.5 53.45 21.1 54.1 21.25 54.0 21.3 53.85 21.3 53.8 22.05 54.1 21.65 61.25 21.95 61.65 21.7 61.6 20.8 61.55 20.5 61.3 Q13.6 65.55 6.65 65.55 L-0.15 64.9 -4.55 63.85 -8.5 61.35 -10.45 60.05 -10.4 59.7 -10.45 59.7 Q-9.35 55.3 -7.0 50.15 L-5.65 49.7 -2.15 49.2 Q2.4 49.2 9.1 50.5 L13.0 51.5 Q15.75 52.3 16.6 52.3 L17.0 52.1 16.95 52.0 Q14.65 51.15 8.35 50.0 L-2.1 48.8 -5.5 49.2 -6.7 49.5 -5.75 47.55 Q-3.7 43.45 -0.05 37.4 L0.85 37.05 1.8 36.8 0.25 36.9 1.15 35.4 Q3.3 31.85 7.85 25.7 L9.2 25.7 9.6 25.4 11.0 25.4 Q15.35 25.4 19.25 26.95 L22.3 28.5 22.5 28.45 22.5 28.25 Q22.5 27.05 17.8 25.95 13.7 25.0 11.05 25.0 L9.95 25.1 8.2 25.25 11.95 20.3 18.3 11.9 Q19.05 12.5 22.7 13.6 L28.3 15.15 28.45 15.55 Q27.05 19.95 25.8 26.2 L25.1 29.9 24.35 29.35 24.3 29.55 25.0 30.35 23.6 38.05 23.2 40.8 23.0 40.8 M16.1 23.3 L16.4 24.05 Q16.85 24.6 17.7 24.6 18.35 24.6 18.6 23.65 18.6 22.7 17.35 22.35 16.1 22.05 16.1 23.3 M9.4 46.2 Q9.4 44.65 7.9 44.65 6.4 44.65 6.4 46.3 6.4 46.75 6.55 46.95 6.9 47.5 8.15 47.5 8.8 47.5 9.15 47.0 L9.4 46.2 M10.7 35.2 Q11.2 35.8 11.8 35.8 12.5 35.8 12.85 35.3 L13.1 34.45 Q13.1 32.9 11.7 33.05 10.3 33.25 10.3 34.45 L10.7 35.2 M3.2 58.95 Q3.65 59.7 4.5 59.7 5.45 59.7 5.95 59.15 L6.3 58.3 Q6.3 57.15 4.6 56.65 2.9 56.15 2.9 58.0 2.9 58.45 3.2 58.95 M20.1 39.1 Q15.65 37.7 13.0 37.2 L1.95 36.8 11.6 37.25 14.3 37.95 19.85 39.3 20.05 39.2 20.1 39.1" fill="url(#gradient14)" fill-rule="evenodd" stroke="none"/>
    <path d="M-35.4 -84.25 L-35.4 -84.0 -33.65 -81.65 Q-31.6 -78.4 -30.8 -78.4 L-30.7 -78.4 Q-29.1 -76.85 -27.65 -76.1 -20.85 -72.4 -5.4 -72.4 L-4.5 -72.4 Q-10.95 -68.3 -16.1 -61.65 L-20.5 -55.5 Q-23.5 -51.15 -24.05 -49.75 L-24.1 -49.65 -24.2 -49.25 Q-24.2 -49.05 -24.0 -49.0 L-23.8 -49.4 -23.6 -49.4 Q-22.2 -50.05 -20.1 -50.55 L-13.95 -51.2 Q-19.7 -45.35 -20.25 -44.0 L-20.8 -44.3 Q-27.95 -44.3 -36.85 -46.9 L-36.9 -46.9 -36.95 -47.05 -37.1 -47.1 -37.15 -46.95 -40.6 -48.05 Q-45.4 -49.65 -48.6 -51.1 L-51.6 -52.6 Q-48.55 -61.45 -45.05 -68.45 -41.6 -75.2 -38.05 -80.55 L-35.4 -84.25" fill="url(#gradient15)" fill-rule="evenodd" stroke="none"/>
    <path d="M-18.5 36.8 Q-20.4 41.15 -20.7 42.45 L-21.0 43.0 -21.5 44.3 Q-37.9 35.4 -53.2 45.65 -58.2 49.0 -61.95 53.7 -63.7 52.75 -67.55 51.1 L-74.3 48.25 -83.4 44.4 -88.9 42.0 -88.9 41.85 Q-88.9 41.55 -89.2 41.35 L-89.3 41.3 -89.3 41.25 -83.35 35.15 -73.45 25.15 Q-59.3 10.9 -57.85 8.95 -55.25 13.4 -53.85 14.8 L-49.6 19.35 -44.9 24.2 Q-41.85 26.85 -37.4 29.65 -32.45 32.8 -29.8 33.25 -29.25 33.8 -25.9 35.15 -21.5 36.9 -18.8 36.9 L-18.6 36.75 -18.5 36.8" fill="url(#gradient16)" fill-rule="evenodd" stroke="none"/>
    <path d="M-62.55 69.65 L-62.8 69.6 Q-64.55 69.6 -65.15 68.45 L-65.45 67.0 -65.85 65.3 -65.9 64.1 -65.75 62.25 -65.6 61.1 -65.6 61.0 Q-64.45 57.5 -61.85 54.2 L-61.8 54.2 -61.6 53.9 -61.65 53.9 -58.7 50.65 Q-54.55 46.65 -52.35 45.3 -45.2 41.0 -35.25 41.0 L-28.6 41.55 -25.95 42.7 Q-25.25 42.9 -22.75 44.15 L-21.35 44.85 -21.1 45.1 -21.0 45.0 -20.65 45.15 -20.6 45.2 -20.35 45.3 -20.3 45.3 -19.85 45.5 -19.3 45.8 -19.3 45.85 Q-22.25 46.6 -24.95 48.0 L-30.2 51.0 -33.95 53.95 -37.0 56.75 -36.8 57.0 Q-30.25 50.15 -18.9 46.05 L-17.2 47.05 -15.5 48.7 -15.15 49.05 -14.8 49.5 -13.15 51.6 -12.1 53.9 -11.95 54.25 Q-14.25 56.75 -17.4 58.25 L-19.05 59.05 -19.2 58.9 Q-20.5 59.2 -20.5 59.55 L-20.45 59.7 -20.5 60.0 Q-20.5 62.0 -21.7 64.1 L-22.85 65.95 -23.1 66.0 -30.65 68.45 Q-37.1 70.45 -38.5 70.45 L-39.2 70.4 -38.7 70.1 -38.9 69.9 -40.15 70.3 -40.85 70.2 -40.35 69.65 Q-40.0 69.2 -40.0 68.25 -40.0 64.6 -43.15 63.0 -44.55 62.3 -46.7 61.8 L-46.75 61.75 -46.9 61.7 -46.9 61.75 -50.3 61.2 -50.4 61.1 -50.45 61.15 -58.6 60.7 -58.65 60.65 -58.8 60.6 -58.9 60.7 -59.9 60.7 Q-63.25 60.7 -64.2 61.8 L-64.6 62.75 -64.7 63.2 -64.9 64.85 Q-64.9 65.8 -64.3 67.4 -63.6 69.15 -62.55 69.6 L-62.55 69.65 M-22.95 48.1 L-23.2 48.5 Q-23.2 48.9 -22.75 48.9 -22.6 48.9 -22.35 48.7 L-22.1 48.3 -22.15 48.05 -22.95 48.1 M-18.4 47.15 Q-18.4 46.7 -19.05 46.85 -19.7 47.0 -19.7 47.45 L-19.65 47.75 -19.35 47.8 Q-18.4 47.8 -18.4 47.15 M-28.0 51.75 L-28.1 51.45 Q-28.65 51.45 -29.2 52.2 L-28.8 52.5 -28.15 52.15 -28.0 51.75 M-25.6 49.5 L-25.95 49.7 -26.1 50.05 -26.05 50.25 -25.85 50.3 -25.5 50.1 -25.2 49.75 Q-25.35 49.5 -25.6 49.5" fill="url(#gradient17)" fill-rule="evenodd" stroke="none"/>
    <path d="M-18.45 36.65 L-18.5 36.75 -18.6 36.6 -18.45 36.65" fill="url(#gradient18)" fill-rule="evenodd" stroke="none"/>
  </g>
  <defs>
    <linearGradient gradientTransform="matrix(-0.0149, 0.026, -0.0304, -0.0174, 13.75, -57.2)" gradientUnits="userSpaceOnUse" id="gradient0" spreadMethod="pad" x1="-819.2" x2="819.2">
      <stop offset="0.0" stop-color="#ffffff"/>
      <stop offset="1.0" stop-color="#f2ede1"/>
    </linearGradient>
    <linearGradient gradientTransform="matrix(-0.0216, 0.0216, -0.0238, -0.0238, 51.5, -45.8)" gradientUnits="userSpaceOnUse" id="gradient1" spreadMethod="pad" x1="-819.2" x2="819.2">
      <stop offset="0.0" stop-color="#ffffff"/>
      <stop offset="1.0" stop-color="#f2ede1"/>
    </linearGradient>
    <linearGradient gradientTransform="matrix(-0.0294, 0.0507, -0.041, -0.0237, -22.5, -18.0)" gradientUnits="userSpaceOnUse" id="gradient2" spreadMethod="pad" x1="-819.2" x2="819.2">
      <stop offset="0.0" stop-color="#ffffff"/>
      <stop offset="1.0" stop-color="#f2ede1"/>
    </linearGradient>
    <linearGradient gradientTransform="matrix(-0.0333, 0.0575, -0.0299, -0.0173, 23.65, 14.3)" gradientUnits="userSpaceOnUse" id="gradient3" spreadMethod="pad" x1="-819.2" x2="819.2">
      <stop offset="0.0" stop-color="#dcd1ab"/>
      <stop offset="0.08235294117647059" stop-color="#ffffff"/>
      <stop offset="1.0" stop-color="#d9cfae"/>
    </linearGradient>
    <linearGradient gradientTransform="matrix(-0.0138, 0.0525, -0.0117, -0.0031, 50.0, 20.6)" gradientUnits="userSpaceOnUse" id="gradient4" spreadMethod="pad" x1="-819.2" x2="819.2">
      <stop offset="0.0" stop-color="#ccb788"/>
      <stop offset="0.09411764705882353" stop-color="#dcd2bc"/>
      <stop offset="1.0" stop-color="#bfaa7b"/>
    </linearGradient>
    <linearGradient gradientTransform="matrix(0.0259, 0.0447, -0.0576, 0.0333, 24.9, 15.0)" gradientUnits="userSpaceOnUse" id="gradient5" spreadMethod="pad" x1="-819.2" x2="819.2">
      <stop offset="0.0" stop-color="#ffffff"/>
      <stop offset="1.0" stop-color="#f2ede1"/>
    </linearGradient>
    <linearGradient gradientTransform="matrix(-0.0143, 0.0143, -0.0197, -0.0197, 82.65, -27.45)" gradientUnits="userSpaceOnUse" id="gradient6" spreadMethod="pad" x1="-819.2" x2="819.2">
      <stop offset="0.0" stop-color="#ffffff"/>
      <stop offset="1.0" stop-color="#f2ede1"/>
    </linearGradient>
    <linearGradient gradientTransform="matrix(-0.0099, -0.0057, 0.0126, -0.0219, 77.7, -12.75)" gradientUnits="userSpaceOnUse" id="gradient7" spreadMethod="pad" x1="-819.2" x2="819.2">
      <stop offset="0.0" stop-color="#8a7953"/>
      <stop offset="1.0" stop-color="#26231d"/>
    </linearGradient>
    <linearGradient gradientTransform="matrix(0.0, 0.0241, -0.041, 0.0, 90.3, 12.2)" gradientUnits="userSpaceOnUse" id="gradient8" spreadMethod="pad" x1="-819.2" x2="819.2">
      <stop offset="0.0" stop-color="#695c49"/>
      <stop offset="0.40784313725490196" stop-color="#f2efe4"/>
      <stop offset="1.0" stop-color="#e3dcc4"/>
    </linearGradient>
    <linearGradient gradientTransform="matrix(-0.0031, 0.0018, -0.013, -0.0225, 46.25, -44.0)" gradientUnits="userSpaceOnUse" id="gradient9" spreadMethod="pad" x1="-819.2" x2="819.2">
      <stop offset="0.0" stop-color="#ffffff"/>
      <stop offset="1.0" stop-color="#f2ede1"/>
    </linearGradient>
    <linearGradient gradientTransform="matrix(0.0083, 0.0144, -0.0083, 0.0048, 126.1, 40.25)" gradientUnits="userSpaceOnUse" id="gradient10" spreadMethod="pad" x1="-819.2" x2="819.2">
      <stop offset="0.0" stop-color="#ffffff"/>
      <stop offset="1.0" stop-color="#f2ede1"/>
    </linearGradient>
    <linearGradient gradientTransform="matrix(0.0446, 0.0, 0.0, 0.0276, 87.0, 29.55)" gradientUnits="userSpaceOnUse" id="gradient11" spreadMethod="pad" x1="-819.2" x2="819.2">
      <stop offset="0.0" stop-color="#695c49"/>
      <stop offset="0.16470588235294117" stop-color="#d2c7ac"/>
      <stop offset="0.3176470588235294" stop-color="#efebdd"/>
      <stop offset="1.0" stop-color="#e3dcc4"/>
    </linearGradient>
    <linearGradient gradientTransform="matrix(0.0099, 0.0172, -0.0101, 0.0058, 84.5, 50.35)" gradientUnits="userSpaceOnUse" id="gradient12" spreadMethod="pad" x1="-819.2" x2="819.2">
      <stop offset="0.0" stop-color="#ffffff"/>
      <stop offset="1.0" stop-color="#f2ede1"/>
    </linearGradient>
    <linearGradient gradientTransform="matrix(-0.0238, -0.0063, 0.0038, -0.0143, 63.8, 47.9)" gradientUnits="userSpaceOnUse" id="gradient13" spreadMethod="pad" x1="-819.2" x2="819.2">
      <stop offset="0.0" stop-color="#ffffff"/>
      <stop offset="1.0" stop-color="#f2ede1"/>
    </linearGradient>
    <linearGradient gradientTransform="matrix(0.0165, 0.0095, -0.0178, 0.0311, 15.4, 41.55)" gradientUnits="userSpaceOnUse" id="gradient14" spreadMethod="pad" x1="-819.2" x2="819.2">
      <stop offset="0.0" stop-color="#ffffff"/>
      <stop offset="1.0" stop-color="#f2ede1"/>
    </linearGradient>
    <linearGradient gradientTransform="matrix(-0.0123, 0.0215, -0.0189, -0.0108, -28.05, -62.5)" gradientUnits="userSpaceOnUse" id="gradient15" spreadMethod="pad" x1="-819.2" x2="819.2">
      <stop offset="0.0" stop-color="#ffffff"/>
      <stop offset="1.0" stop-color="#f2ede1"/>
    </linearGradient>
    <linearGradient gradientTransform="matrix(-0.0134, 0.0234, -0.0319, -0.0183, -52.35, 37.5)" gradientUnits="userSpaceOnUse" id="gradient16" spreadMethod="pad" x1="-819.2" x2="819.2">
      <stop offset="0.0" stop-color="#dcd1ab"/>
      <stop offset="0.08235294117647059" stop-color="#ffffff"/>
      <stop offset="1.0" stop-color="#d9cfae"/>
    </linearGradient>
    <linearGradient gradientTransform="matrix(0.01, 0.0172, -0.0282, 0.0163, -40.7, 57.4)" gradientUnits="userSpaceOnUse" id="gradient17" spreadMethod="pad" x1="-819.2" x2="819.2">
      <stop offset="0.0" stop-color="#ffffff"/>
      <stop offset="1.0" stop-color="#f2ede1"/>
    </linearGradient>
    <linearGradient gradientTransform="matrix(0.0019, 0.0019, -0.0439, 0.0439, -6.85, -10.05)" gradientUnits="userSpaceOnUse" id="gradient18" spreadMethod="pad" x1="-819.2" x2="819.2">
      <stop offset="0.0" stop-color="#ffffff"/>
      <stop offset="1.0" stop-color="#f2ede1"/>
    </linearGradient>
  </defs>
</svg>
