<?xml version="1.0" encoding="UTF-8" standalone="no"?>
<svg xmlns:xlink="http://www.w3.org/1999/xlink" height="25.05px" width="56.55px" xmlns="http://www.w3.org/2000/svg">
  <g transform="matrix(1.0, 0.0, 0.0, 1.0, 28.25, 12.5)">
    <path d="M27.3 0.75 L26.6 0.6 25.35 0.8 24.75 1.2 Q24.5 -0.2 22.6 -0.2 21.35 -0.2 20.4 0.65 L20.35 -0.75 20.0 -1.35 19.6 -1.6 18.4 -1.75 19.35 -2.9 19.7 -3.6 19.75 -4.15 19.45 -5.65 19.1 -6.3 18.25 -7.0 Q19.3 -8.25 19.4 -8.8 L19.65 -9.65 19.8 -10.25 19.8 -10.65 19.5 -12.0 27.3 -12.0 27.3 0.75 M-21.55 -12.0 L-21.9 -11.45 -22.1 -10.25 -22.1 -9.55 -21.95 -8.9 -21.7 -8.25 -21.3 -7.6 -23.55 -7.25 Q-24.35 -7.1 -25.3 -6.25 -25.75 -5.8 -25.85 -5.05 L-26.1 -3.9 -26.65 -4.15 -26.7 -4.15 -27.5 -4.25 -27.7 -4.25 -27.7 -12.0 -21.55 -12.0" fill="#5a969c" fill-rule="evenodd" stroke="none"/>
    <path d="M10.1 -0.55 L8.9 -1.4 8.35 -1.65 6.75 -1.8 5.35 -1.55 5.15 -1.45 5.15 -1.4 Q5.15 -1.15 5.75 -0.95 L6.8 -0.65 8.65 0.35 Q10.0 1.65 10.0 2.6 L9.9 3.45 9.95 3.75 10.45 3.45 Q10.8 3.15 11.7 3.15 L13.2 3.4 13.7 3.65 14.2 3.95 15.0 4.7 15.05 4.75 15.0 4.8 15.15 5.05 15.35 5.45 15.2 5.7 15.25 5.85 15.65 5.45 15.5 4.8 15.5 4.55 Q15.5 3.3 14.7 2.45 13.65 1.15 11.2 1.2 10.7 0.0 10.1 -0.55 M16.85 -12.0 L17.25 -11.2 17.45 -10.25 17.45 -9.75 Q17.45 -8.85 17.1 -8.35 L16.75 -7.65 16.25 -6.9 Q16.65 -6.95 17.0 -6.55 L17.4 -5.9 Q17.8 -5.35 17.8 -4.75 17.8 -3.7 17.15 -2.7 16.5 -1.5 15.35 -0.85 L15.35 -0.8 16.95 -0.65 17.6 -0.35 18.2 0.05 18.7 0.4 19.35 1.15 19.5 2.05 19.6 2.1 20.3 1.7 21.25 1.5 Q22.1 1.5 23.6 2.55 24.2 2.95 24.2 3.7 L24.25 3.75 24.85 3.4 25.6 3.3 Q26.25 3.3 26.95 3.8 L27.3 4.1 27.3 12.0 -27.7 12.0 -27.7 -1.9 -27.5 -1.95 -26.7 -1.85 -25.75 -1.75 -25.35 -1.7 -25.0 -1.45 -25.05 -1.8 -24.95 -2.65 -24.8 -3.4 -24.25 -4.75 -22.55 -5.85 Q-21.2 -6.5 -20.05 -6.55 L-20.35 -9.35 -20.3 -10.25 -20.1 -11.0 -19.8 -11.45 -19.0 -12.0 16.3 -12.0 16.4 -11.9 16.55 -11.9 16.8 -11.95 16.8 -12.0 16.85 -12.0 M11.65 8.2 L11.0 8.05 10.15 7.9 10.0 7.9 Q9.5 7.7 9.5 8.05 L9.55 8.2 Q10.4 8.3 11.25 8.8 L12.25 9.6 12.45 10.55 Q12.4 11.3 12.5 11.55 L12.8 11.5 12.85 11.5 13.3 11.05 13.35 10.85 13.35 10.8 13.35 10.5 13.2 9.75 12.7 8.9 Q12.35 8.4 11.65 8.2" fill="#ffffff" fill-rule="evenodd" stroke="none"/>
    <path d="M10.1 -0.55 Q10.7 0.0 11.2 1.2 13.65 1.15 14.7 2.45 15.5 3.3 15.5 4.55 L15.5 4.8 15.65 5.45 15.25 5.85 15.2 5.7 15.35 5.45 15.15 5.05 15.0 4.8 15.05 4.75 15.0 4.7 14.2 3.95 13.7 3.65 13.2 3.4 11.7 3.15 Q10.8 3.15 10.45 3.45 L9.95 3.75 9.9 3.45 10.0 2.6 Q10.0 1.65 8.65 0.35 L6.8 -0.65 5.75 -0.95 Q5.15 -1.15 5.15 -1.4 L5.15 -1.45 5.35 -1.55 6.75 -1.8 8.35 -1.65 8.9 -1.4 10.1 -0.55 M19.5 -12.0 L19.8 -10.65 19.8 -10.25 19.65 -9.65 19.4 -8.8 Q19.3 -8.25 18.25 -7.0 L19.1 -6.3 19.45 -5.65 19.75 -4.15 19.7 -3.6 19.35 -2.9 18.4 -1.75 19.6 -1.6 20.0 -1.35 20.35 -0.75 20.4 0.65 Q21.35 -0.2 22.6 -0.2 24.5 -0.2 24.75 1.2 L25.35 0.8 26.6 0.6 27.3 0.75 27.3 4.1 26.95 3.8 Q26.25 3.3 25.6 3.3 L24.85 3.4 24.25 3.75 24.2 3.7 Q24.2 2.95 23.6 2.55 22.1 1.5 21.25 1.5 L20.3 1.7 19.6 2.1 19.5 2.05 19.35 1.15 18.7 0.4 18.2 0.05 17.6 -0.35 16.95 -0.65 15.35 -0.8 15.35 -0.85 Q16.5 -1.5 17.15 -2.7 17.8 -3.7 17.8 -4.75 17.8 -5.35 17.4 -5.9 L17.0 -6.55 Q16.65 -6.95 16.25 -6.9 L16.75 -7.65 17.1 -8.35 Q17.45 -8.85 17.45 -9.75 L17.45 -10.25 17.25 -11.2 16.85 -12.0 19.5 -12.0 M16.8 -12.0 L16.8 -11.95 16.55 -11.9 16.4 -11.9 16.3 -12.0 16.8 -12.0 M-19.0 -12.0 L-19.8 -11.45 -20.1 -11.0 -20.3 -10.25 -20.35 -9.35 -20.05 -6.55 Q-21.2 -6.5 -22.55 -5.85 L-24.25 -4.75 -24.8 -3.4 -24.95 -2.65 -25.05 -1.8 -25.0 -1.45 -25.35 -1.7 -25.75 -1.75 -26.7 -1.85 -27.5 -1.95 -27.7 -1.9 -27.7 -4.25 -27.5 -4.25 -26.7 -4.15 -26.65 -4.15 -26.1 -3.9 -25.85 -5.05 Q-25.75 -5.8 -25.3 -6.25 -24.35 -7.1 -23.55 -7.25 L-21.3 -7.6 -21.7 -8.25 -21.95 -8.9 -22.1 -9.55 -22.1 -10.25 -21.9 -11.45 -21.55 -12.0 -19.0 -12.0 M11.65 8.2 Q12.35 8.4 12.7 8.9 L13.2 9.75 13.35 10.5 13.35 10.8 13.35 10.85 13.3 11.05 12.85 11.5 12.8 11.5 12.5 11.55 Q12.4 11.3 12.45 10.55 L12.25 9.6 11.25 8.8 Q10.4 8.3 9.55 8.2 L9.5 8.05 Q9.5 7.7 10.0 7.9 L10.15 7.9 11.0 8.05 11.65 8.2" fill="#d1c9c7" fill-rule="evenodd" stroke="none"/>
    <path d="M-27.7 12.0 L27.3 12.0" fill="none" stroke="#000000" stroke-linecap="round" stroke-linejoin="round" stroke-width="1.0"/>
    <path d="M5.65 -8.2 L6.5 -8.0 6.8 -7.7 6.9 -7.4 Q6.9 -6.85 6.4 -6.85 L5.95 -6.95 5.7 -7.2 5.5 -7.6 5.55 -7.75 4.25 -8.65 3.35 -9.0 3.1 -9.1 2.8 -9.1 2.05 -9.25 2.0 -9.4 2.3 -9.65 2.15 -9.95 Q2.15 -10.15 2.45 -10.15 L3.15 -9.55 4.3 -9.0 5.6 -8.1 5.65 -8.2 M6.1 -7.35 Q6.3 -7.2 6.45 -7.2 L6.55 -7.4 Q6.55 -7.8 5.9 -7.8 L5.85 -7.65 6.1 -7.35 M3.1 -5.7 L2.4 -5.9 3.15 -5.55 4.2 -4.8 5.55 -3.2 6.2 -1.5 6.4 -0.85 Q6.75 -0.2 7.65 -0.2 L8.45 -0.4 8.7 -0.5 9.9 -0.45 10.75 -0.35 Q10.85 -0.2 11.05 -0.2 11.65 0.0 11.85 0.25 L12.3 0.85 12.4 1.5 Q12.4 1.95 11.7 1.9 L12.3 2.35 13.05 2.5 14.3 3.15 15.05 3.8 15.0 3.5 14.6 1.7 14.6 1.55 14.75 1.4 14.8 1.4 15.1 1.85 16.35 3.1 19.7 7.15 20.1 7.6 20.15 7.45 20.25 7.15 20.4 6.85 20.4 6.55 Q20.4 5.55 19.55 4.25 L18.1 2.25 16.6 0.05 15.9 -1.0 14.7 -1.85 15.05 -1.15 15.2 -0.6 Q15.2 0.15 14.6 0.15 L13.7 -0.35 13.2 -0.9 Q12.45 -0.35 11.9 -0.35 L11.35 -0.75 11.0 -1.25 10.6 -1.7 10.05 -2.7 9.6 -3.15 Q8.5 -3.6 8.35 -3.8 L8.1 -3.8 8.35 -3.1 8.15 -2.7 Q7.9 -2.4 7.6 -2.4 6.85 -2.4 6.55 -2.7 L6.1 -3.2 5.25 -4.2 4.85 -4.75 4.0 -5.25 3.1 -5.7 M-20.85 -3.8 L-21.1 -3.8 -21.15 -3.95 -19.65 -5.15 -18.9 -5.85 -18.55 -6.15 -18.55 -6.6 -18.45 -6.7 -18.5 -6.7 -18.5 -7.0 -18.4 -7.0 -18.4 -7.05 -19.55 -8.55 -20.75 -9.95 -20.6 -10.15 -20.75 -10.35 -20.55 -10.5 Q-20.3 -10.15 -19.65 -10.15 L-18.95 -10.0 -17.35 -9.55 -15.35 -9.05 -14.6 -8.9 -14.6 -8.95 Q-14.3 -9.0 -14.1 -8.75 L-13.7 -8.25 -12.85 -7.3 Q-12.25 -6.8 -12.15 -6.35 -11.6 -5.8 -11.65 -5.35 L-11.55 -5.35 -9.8 -4.65 -8.7 -4.25 -5.8 -3.65 7.6 1.05 9.5 2.1 11.85 3.1 13.95 4.15 15.05 4.75 15.1 4.6 Q15.1 3.9 13.25 3.0 L12.2 2.7 11.6 2.3 Q11.1 1.85 11.1 1.4 L11.15 1.25 11.3 1.25 11.45 1.4 11.75 1.55 12.1 1.5 11.95 1.25 11.95 0.95 11.55 0.4 Q11.25 0.1 10.75 0.1 L10.5 -0.05 9.5 -0.15 8.6 -0.1 8.55 0.0 7.7 0.15 6.9 0.05 6.7 -0.05 6.3 -0.45 Q5.9 -0.75 5.9 -1.2 L5.65 -2.1 5.45 -2.55 5.35 -2.95 5.15 -3.15 5.05 -3.35 4.8 -3.75 4.1 -4.45 1.9 -5.85 1.9 -6.15 1.95 -6.15 2.3 -6.25 4.25 -5.45 5.45 -4.5 6.25 -3.55 6.65 -3.05 Q6.75 -2.75 7.5 -2.75 8.0 -2.75 8.0 -3.1 L7.45 -3.95 6.9 -4.8 6.95 -4.95 7.1 -5.0 7.8 -4.35 8.2 -4.15 Q8.55 -4.0 8.65 -4.0 L10.25 -3.0 10.9 -1.85 11.95 -0.7 12.55 -0.95 13.15 -1.25 13.9 -0.7 Q14.05 -0.2 14.55 -0.2 L14.8 -0.4 14.9 -0.6 Q14.9 -1.35 13.5 -2.45 L13.5 -2.6 13.65 -2.65 15.45 -1.75 16.55 -0.55 18.25 1.9 20.0 4.35 Q20.75 5.55 20.75 6.7 L20.75 7.05 20.55 7.35 20.35 7.9 20.7 7.9 20.75 8.05 20.7 8.2 19.9 8.2 18.7 8.7 17.15 9.1 16.25 8.9 15.8 8.55 15.35 8.3 13.7 8.15 12.75 8.5 11.55 8.7 10.0 8.6 9.65 8.35 9.05 7.8 8.4 6.55 7.85 5.4 7.0 4.85 6.25 4.55 7.4 4.45 8.35 5.0 8.95 5.65 Q9.35 6.05 10.65 6.05 L12.25 5.95 12.95 5.75 13.6 5.55 13.25 5.35 11.55 4.6 9.55 3.7 7.1 2.75 3.5 1.15 2.45 0.7 2.05 0.6 Q1.8 0.55 1.6 0.35 L0.8 0.1 -0.4 -0.3 Q-2.1 -0.75 -4.9 -1.9 L-5.7 -2.25 -6.85 -2.65 -8.9 -3.4 Q-9.65 -3.6 -11.65 -4.35 -11.75 -4.25 -11.9 -4.25 L-12.5 -4.1 -13.25 -3.6 Q-13.5 -3.25 -14.3 -3.1 L-14.5 -2.95 -14.5 -2.85 -14.65 -2.8 -14.7 -2.8 -15.0 -2.7 -15.05 -2.85 -15.5 -3.0 -16.85 -3.25 -20.55 -3.45 -20.5 -3.6 -20.6 -3.8 -19.8 -3.75 -16.75 -3.55 -15.35 -3.3 -14.9 -3.25 -14.7 -3.2 -14.5 -3.3 -13.5 -3.8 -12.7 -4.35 -12.1 -4.5 -12.65 -4.7 -13.05 -4.8 -14.05 -4.35 -14.45 -4.05 Q-14.65 -3.85 -14.9 -3.8 L-15.0 -3.95 -14.25 -4.65 -13.5 -5.0 -14.65 -5.45 -15.15 -5.35 -15.6 -4.9 -16.5 -4.3 -16.55 -4.45 -15.6 -5.35 -15.2 -5.7 -16.2 -5.8 -16.8 -5.85 -16.9 -5.75 -17.25 -5.5 -17.65 -5.1 -18.6 -4.25 -18.85 -4.25 -18.9 -4.4 -18.45 -4.85 -17.9 -5.35 -17.5 -5.8 -17.45 -5.9 -18.25 -5.95 -18.7 -5.55 -19.35 -4.95 -20.2 -4.35 -20.65 -3.85 -20.75 -4.1 -20.85 -3.8 M-20.8 -3.45 L-20.95 -3.5 -21.0 -3.65 -20.9 -3.75 -20.8 -3.45 M19.5 -7.0 L20.15 -6.5 21.35 -5.45 23.25 -3.55 Q23.25 -3.4 23.05 -3.4 L21.0 -5.35 19.85 -6.3 19.25 -6.75 18.95 -6.85 18.75 -7.25 18.8 -7.3 19.1 -7.25 19.5 -7.0 M15.35 4.95 L15.4 5.0 15.35 4.85 15.35 4.95 M15.35 5.9 L15.1 6.1 15.0 6.05 14.95 6.05 14.6 5.85 Q14.35 5.9 14.15 6.05 L13.1 6.5 12.25 6.75 13.15 6.9 15.5 7.25 17.5 7.6 19.9 7.9 19.0 6.8 17.5 4.9 16.1 3.3 15.3 2.55 15.05 2.3 15.25 3.1 Q15.45 4.25 15.75 4.8 L15.75 5.35 15.55 5.4 15.35 5.7 15.35 5.8 15.35 5.9 M12.2 6.35 L12.8 6.2 13.15 6.1 13.45 5.95 12.8 6.15 12.25 6.35 10.65 6.4 9.05 6.1 8.3 5.45 9.05 7.05 9.5 7.85 10.0 8.2 11.55 8.35 12.85 8.1 13.9 7.85 Q15.6 7.85 16.15 8.3 L17.2 8.75 19.25 8.2 19.05 8.2 14.95 7.55 14.15 7.35 12.4 7.15 11.9 7.0 11.65 6.85 11.55 6.85 11.5 6.7 11.5 6.65 11.55 6.65 11.75 6.55 12.2 6.35 M-14.6 -5.8 L-13.85 -5.5 -13.0 -5.15 -11.65 -4.65 -11.65 -4.6 -9.05 -3.75 -7.1 -3.1 -5.85 -2.6 -2.8 -1.55 -0.45 -0.65 3.4 0.75 Q4.45 1.05 7.15 2.4 L14.25 5.4 14.35 5.35 14.4 5.45 14.45 5.5 15.1 5.4 15.15 5.35 15.25 5.25 15.15 5.25 13.5 4.3 11.35 3.3 9.25 2.3 7.35 1.3 -2.3 -2.35 -8.0 -3.8 -9.05 -4.0 -10.25 -4.4 -11.15 -4.75 Q-11.65 -4.9 -12.15 -5.2 L-14.2 -5.8 -14.6 -5.85 -14.65 -5.85 -14.6 -5.8 M0.2 4.35 L-0.1 3.65 -0.1 3.35 Q0.15 3.35 0.4 3.75 L0.85 4.3 1.15 4.85 1.3 5.4 Q1.3 5.9 0.8 5.9 0.0 5.9 -0.5 4.65 L-0.45 4.5 -0.05 4.6 -1.5 3.4 -2.5 2.8 -2.55 2.8 -3.05 2.65 -3.4 2.6 -4.25 2.25 -3.9 1.9 -3.55 1.9 -3.65 1.55 Q-3.65 1.15 -3.35 1.25 -3.1 1.3 -2.85 1.65 L-2.55 2.35 -2.5 2.4 -1.25 3.2 -0.25 4.0 0.2 4.45 0.2 4.35 M0.5 4.4 L0.45 5.05 0.1 5.05 Q0.2 5.45 0.65 5.55 L0.95 5.55 1.0 5.4 0.8 4.85 0.6 4.6 0.5 4.4 M-20.7 -0.6 L-20.05 -0.3 -19.5 0.1 -18.65 0.7 -18.65 0.65 -18.4 0.85 -18.4 1.4 -18.35 1.4 -16.45 2.4 Q-16.3 2.45 -14.85 3.4 L-14.2 3.85 -15.05 2.75 -16.05 1.4 -16.05 1.1 -15.8 1.1 -14.8 2.05 -13.45 3.05 -13.05 3.3 Q-12.7 3.45 -12.6 3.55 -12.25 3.8 -12.25 4.05 L-12.05 5.15 Q-12.05 5.7 -12.25 5.7 L-12.45 5.6 -13.2 5.6 -13.7 5.4 -14.35 5.25 Q-15.1 5.1 -15.8 4.55 L-15.75 4.35 -15.5 4.25 -14.4 4.45 -14.05 4.35 -14.05 4.3 -14.1 4.25 -15.15 3.65 Q-16.25 2.85 -16.5 2.75 L-18.55 1.7 -18.8 1.95 -18.95 2.1 -19.25 2.1 -20.25 2.1 -21.1 2.3 -21.5 2.3 -21.55 2.15 -21.35 1.75 -20.95 1.4 -20.45 0.8 -20.5 0.7 -20.65 0.35 -21.0 -0.5 -20.7 -0.6 M-14.75 -8.25 L-13.3 -6.5 -13.1 -6.2 -13.0 -5.85 -13.0 -5.8 -12.1 -5.55 -12.5 -6.2 -13.2 -7.15 -14.0 -8.05 -14.3 -8.4 -15.95 -8.9 -17.9 -9.3 -19.8 -9.85 -20.15 -9.85 -18.15 -7.25 -18.15 -7.15 -18.1 -7.0 -16.9 -6.7 -17.0 -6.8 -17.05 -6.9 -17.1 -6.9 -17.75 -7.75 -17.95 -8.1 -18.3 -8.45 -18.3 -8.7 Q-17.95 -8.75 -17.75 -8.45 L-17.5 -8.0 -17.0 -7.35 -16.75 -7.05 -16.35 -6.55 -15.3 -6.35 -15.5 -6.65 -15.95 -7.2 -16.65 -8.2 -16.6 -8.4 -16.25 -8.2 -16.1 -7.95 -15.7 -7.4 -14.75 -6.3 -14.75 -6.25 -13.8 -6.05 -13.3 -5.9 -13.45 -6.25 Q-13.65 -6.3 -13.8 -6.5 L-14.2 -7.0 -15.0 -7.9 -14.75 -8.25 M-18.15 -6.3 L-18.05 -6.3 -17.15 -6.25 -15.25 -6.0 -16.3 -6.25 -17.15 -6.4 -17.65 -6.6 -18.1 -6.65 -18.15 -6.35 -18.15 -6.3 M-8.6 -9.25 L-7.5 -8.85 -6.6 -8.45 -6.05 -8.05 -5.7 -7.55 -5.75 -7.4 -6.05 -7.55 -6.25 -7.75 -6.8 -8.15 -7.75 -8.65 -8.75 -8.85 -9.1 -8.85 -9.1 -9.15 -8.6 -9.25 M-3.1 1.95 L-3.1 2.0 -3.1 1.9 -3.15 1.85 -3.1 1.95 M-3.65 2.2 L-3.3 2.25 -3.35 2.15 -3.55 2.15 -3.65 2.2 M-8.4 5.35 L-8.2 5.35 -5.7 6.5 Q-5.5 6.6 -4.75 7.05 L-3.9 7.75 -3.95 7.9 -4.05 7.9 -4.9 7.35 Q-5.5 6.9 -5.95 6.75 L-8.5 5.55 -8.4 5.35 M-14.75 4.8 L-14.5 4.85 -14.15 4.95 -13.2 5.25 -12.35 5.25 -12.5 4.45 Q-12.6 4.0 -12.85 3.8 -13.0 3.65 -13.8 3.25 L-14.7 2.65 -14.05 3.5 -13.75 3.95 -13.7 4.1 -13.6 4.35 -13.65 4.5 Q-13.7 4.8 -14.25 4.8 L-14.75 4.75 -14.9 4.7 -14.75 4.8 M-18.75 1.0 L-19.35 0.6 Q-19.9 0.2 -20.35 0.05 L-20.05 0.75 -20.05 0.8 -19.9 0.75 -19.4 0.95 -18.75 1.25 -18.75 1.0 M-20.2 1.1 L-20.85 1.8 -20.9 1.9 -20.55 1.9 -20.05 1.8 -19.25 1.75 -18.95 1.6 -18.9 1.55 -20.1 1.15 -20.1 1.1 -20.2 1.1 M-25.05 5.25 Q-24.45 5.25 -22.4 6.1 -20.25 6.95 -20.25 7.3 -20.25 7.5 -20.4 7.5 L-22.8 6.25 Q-23.3 6.0 -24.5 5.7 L-25.4 5.45 -25.3 5.25 -25.05 5.25" fill="#000000" fill-rule="evenodd" stroke="none"/>
    <path d="M-14.6 -5.85 L-14.2 -5.8 -12.15 -5.2 Q-11.65 -4.9 -11.15 -4.75 L-10.25 -4.4 -9.05 -4.0 -8.0 -3.8 -2.3 -2.35 7.35 1.3 9.25 2.3 11.35 3.3 13.5 4.3 15.15 5.25 15.25 5.25 15.15 5.35 15.1 5.4 14.45 5.5 14.4 5.45 14.35 5.35 14.25 5.4 7.15 2.4 Q4.45 1.05 3.4 0.75 L-0.45 -0.65 -2.8 -1.55 -5.85 -2.6 -7.1 -3.1 -9.05 -3.75 -11.65 -4.6 -11.65 -4.65 -13.0 -5.15 -13.85 -5.5 -14.6 -5.8 -14.6 -5.85 M-18.15 -6.3 L-18.15 -6.35 -18.1 -6.65 -17.65 -6.6 -17.15 -6.4 -16.3 -6.25 -15.25 -6.0 -17.15 -6.25 -18.05 -6.3 -18.15 -6.3" fill="#9e8d6d" fill-rule="evenodd" stroke="none"/>
    <path d="M15.35 5.9 L15.35 5.8 15.35 5.7 15.55 5.4 15.75 5.35 15.75 4.8 Q15.45 4.25 15.25 3.1 L15.05 2.3 15.3 2.55 16.1 3.3 17.5 4.9 19.0 6.8 19.9 7.9 17.5 7.6 15.5 7.25 13.15 6.9 12.25 6.75 13.1 6.5 14.15 6.05 Q14.35 5.9 14.6 5.85 L14.95 6.05 15.0 6.05 15.1 6.1 15.35 5.9" fill="#6f6f6f" fill-rule="evenodd" stroke="none"/>
    <path d="M-20.55 -3.45 L-20.8 -3.45 -20.9 -3.75 -20.85 -3.8 -20.75 -4.1 -20.65 -3.85 -20.2 -4.35 -19.35 -4.95 -18.7 -5.55 -18.25 -5.95 -17.45 -5.9 -17.5 -5.8 -17.9 -5.35 -18.45 -4.85 -18.9 -4.4 -18.85 -4.25 -18.6 -4.25 -17.65 -5.1 -17.25 -5.5 -16.9 -5.75 -16.8 -5.85 -16.2 -5.8 -15.2 -5.7 -15.6 -5.35 -16.55 -4.45 -16.5 -4.3 -15.6 -4.9 -15.15 -5.35 -14.65 -5.45 -13.5 -5.0 -14.25 -4.65 -15.0 -3.95 -14.9 -3.8 Q-14.65 -3.85 -14.45 -4.05 L-14.05 -4.35 -13.05 -4.8 -12.65 -4.7 -12.1 -4.5 -12.7 -4.35 -13.5 -3.8 -14.5 -3.3 -14.7 -3.2 -14.9 -3.25 -15.35 -3.3 -16.75 -3.55 -19.8 -3.75 -20.6 -3.8 -20.5 -3.6 -20.55 -3.45 M-14.75 -8.25 L-15.0 -7.9 -14.2 -7.0 -13.8 -6.5 Q-13.65 -6.3 -13.45 -6.25 L-13.3 -5.9 -13.8 -6.05 -14.75 -6.25 -14.75 -6.3 -15.7 -7.4 -16.1 -7.95 -16.25 -8.2 -16.6 -8.4 -16.65 -8.2 -15.95 -7.2 -15.5 -6.65 -15.3 -6.35 -16.35 -6.55 -16.75 -7.05 -17.0 -7.35 -17.5 -8.0 -17.75 -8.45 Q-17.95 -8.75 -18.3 -8.7 L-18.3 -8.45 -17.95 -8.1 -17.75 -7.75 -17.1 -6.9 -17.05 -6.9 -17.0 -6.8 -16.9 -6.7 -18.1 -7.0 -18.15 -7.15 -18.15 -7.25 -20.15 -9.85 -19.8 -9.85 -17.9 -9.3 -15.95 -8.9 -14.3 -8.4 -14.0 -8.05 -13.2 -7.15 -12.5 -6.2 -12.1 -5.55 -13.0 -5.8 -13.0 -5.85 -13.1 -6.2 -13.3 -6.5 -14.75 -8.25 M-20.2 1.1 L-20.1 1.1 -20.1 1.15 -18.9 1.55 -18.95 1.6 -19.25 1.75 -20.05 1.8 -20.55 1.9 -20.9 1.9 -20.85 1.8 -20.2 1.1 M-18.75 1.0 L-18.75 1.25 -19.4 0.95 -19.9 0.75 -20.05 0.8 -20.05 0.75 -20.35 0.05 Q-19.9 0.2 -19.35 0.6 L-18.75 1.0" fill="#3e9427" fill-rule="evenodd" stroke="none"/>
    <path d="M3.1 -5.7 L4.0 -5.25 4.85 -4.75 5.25 -4.2 6.1 -3.2 6.55 -2.7 Q6.85 -2.4 7.6 -2.4 7.9 -2.4 8.15 -2.7 L8.35 -3.1 8.1 -3.8 8.35 -3.8 Q8.5 -3.6 9.6 -3.15 L10.05 -2.7 10.6 -1.7 11.0 -1.25 11.35 -0.75 11.9 -0.35 Q12.45 -0.35 13.2 -0.9 L13.7 -0.35 14.6 0.15 Q15.2 0.15 15.2 -0.6 L15.05 -1.15 14.7 -1.85 15.9 -1.0 16.6 0.05 18.1 2.25 19.55 4.25 Q20.4 5.55 20.4 6.55 L20.4 6.85 20.25 7.15 20.15 7.45 20.1 7.6 19.7 7.15 16.35 3.1 15.1 1.85 14.8 1.4 14.75 1.4 14.6 1.55 14.6 1.7 15.0 3.5 15.05 3.8 14.3 3.15 13.05 2.5 12.3 2.35 11.7 1.9 Q12.4 1.95 12.4 1.5 L12.3 0.85 11.85 0.25 Q11.65 0.0 11.05 -0.2 10.85 -0.2 10.75 -0.35 L9.9 -0.45 8.7 -0.5 8.45 -0.4 7.65 -0.2 Q6.75 -0.2 6.4 -0.85 L6.2 -1.5 5.55 -3.2 4.2 -4.8 3.15 -5.55 2.4 -5.9 3.1 -5.7 M6.1 -7.35 L5.85 -7.65 5.9 -7.8 Q6.55 -7.8 6.55 -7.4 L6.45 -7.2 Q6.3 -7.2 6.1 -7.35 M12.25 6.35 L12.2 6.35 11.75 6.55 11.55 6.65 11.5 6.65 11.5 6.7 11.55 6.85 11.65 6.85 11.9 7.0 12.4 7.15 14.15 7.35 14.95 7.55 19.05 8.2 19.25 8.2 17.2 8.75 16.15 8.3 Q15.6 7.85 13.9 7.85 L12.85 8.1 11.55 8.35 10.0 8.2 9.5 7.85 9.05 7.05 8.3 5.45 9.05 6.1 10.65 6.4 12.25 6.35 M0.5 4.4 L0.6 4.6 0.8 4.85 1.0 5.4 0.95 5.55 0.65 5.55 Q0.2 5.45 0.1 5.05 L0.45 5.05 0.5 4.4 M-14.75 4.75 L-14.25 4.8 Q-13.7 4.8 -13.65 4.5 L-13.6 4.35 -13.7 4.1 -13.75 3.95 -14.05 3.5 -14.7 2.65 -13.8 3.25 Q-13.0 3.65 -12.85 3.8 -12.6 4.0 -12.5 4.45 L-12.35 5.25 -13.2 5.25 -14.15 4.95 -14.5 4.85 -14.75 4.8 -14.75 4.75" fill="#ffbf2b" fill-rule="evenodd" stroke="none"/>
    <path d="M-27.75 -12.0 L27.8 -12.0 27.8 12.05 -27.75 12.05 -27.75 -12.0 Z" fill="none" stroke="#000000" stroke-linecap="round" stroke-linejoin="round" stroke-width="1.0"/>
  </g>
</svg>
