<?xml version="1.0" encoding="UTF-8" standalone="no"?>
<svg xmlns:xlink="http://www.w3.org/1999/xlink" height="8.9px" width="4.6px" xmlns="http://www.w3.org/2000/svg">
  <g transform="matrix(1.0, 0.0, 0.0, 1.0, 17.35, 3.4)">
    <path d="M-13.4 -3.2 L-13.4 2.05 Q-13.1 2.1 -12.9 2.5 L-12.75 2.95 Q-12.75 3.85 -13.9 3.85 L-14.35 3.85 -15.3 4.55 -16.7 5.5 -16.75 5.3 -16.7 5.15 -17.05 4.65 -17.3 4.65 -17.35 4.5 -16.1 3.25 -14.5 2.05 -14.55 1.7 -14.5 -1.4 -14.35 -2.9 -14.4 -2.9 -14.4 -3.25 -13.6 -3.2 Q-13.55 -3.6 -13.4 -3.2 M-13.65 -2.9 L-14.15 -2.9 -14.1 0.3 -14.25 2.05 -14.25 2.1 -16.85 4.5 -16.6 4.75 -16.5 4.9 Q-15.95 4.35 -14.25 3.45 L-14.2 3.5 -13.55 3.35 Q-13.05 3.25 -13.05 2.95 L-13.35 2.55 -13.55 2.4 -13.6 2.35 -13.75 2.25 -13.65 2.15 -13.75 -0.45 -13.65 -2.9" fill="#000000" fill-rule="evenodd" stroke="none"/>
    <path d="M-13.65 -2.9 L-13.75 -0.45 -13.65 2.15 -13.75 2.25 -13.6 2.35 -13.55 2.4 -13.35 2.55 -13.05 2.95 Q-13.05 3.25 -13.55 3.35 L-14.2 3.5 -14.25 3.45 Q-15.95 4.35 -16.5 4.9 L-16.6 4.75 -16.85 4.5 -14.25 2.1 -14.25 2.05 -14.1 0.3 -14.15 -2.9 -13.65 -2.9" fill="#734d26" fill-rule="evenodd" stroke="none"/>
  </g>
</svg>
