<?xml version="1.0" encoding="UTF-8" standalone="no"?>
<svg xmlns:xlink="http://www.w3.org/1999/xlink" height="10.85px" width="31.9px" xmlns="http://www.w3.org/2000/svg">
  <g transform="matrix(1.0, 0.0, 0.0, 1.0, 15.1, 5.0)">
    <path d="M13.15 -3.95 L13.15 -3.65 Q13.15 -3.25 13.4 -3.0 L13.7 -2.45 13.85 -2.5 13.85 1.4 15.2 1.4 15.15 0.55 15.15 -0.55 15.25 -2.4 15.2 -2.4 15.15 -2.55 15.85 -3.1 Q16.5 -3.6 16.5 -4.05 L16.3 -4.4 16.0 -4.65 Q15.75 -4.65 15.3 -4.05 L14.85 -3.25 14.8 -3.25 14.8 -3.2 14.65 -3.15 Q14.45 -3.15 14.35 -3.65 14.2 -4.2 13.55 -4.2 13.2 -4.2 13.15 -3.95 M15.55 1.5 L15.65 1.4 15.75 2.0 15.65 5.45 15.85 5.45 15.9 5.6 15.85 5.75 -14.45 5.85 -14.65 5.75 -14.65 5.8 -14.8 5.85 Q-15.05 5.85 -15.1 2.75 L-14.95 1.4 -15.0 1.35 -14.95 1.2 -14.9 1.2 -14.65 1.1 -14.6 1.2 -12.25 1.45 12.75 1.45 12.7 1.4 13.5 1.4 13.5 -2.15 Q13.1 -2.2 12.9 -3.0 12.75 -3.5 12.75 -3.95 12.75 -4.55 13.6 -4.55 14.5 -4.55 14.75 -3.95 L14.75 -3.9 15.2 -4.4 Q15.75 -5.0 16.05 -5.0 16.5 -5.0 16.8 -4.05 16.8 -3.55 16.45 -3.2 L15.5 -2.45 15.5 1.4 15.35 1.6 15.3 1.6 13.5 1.75 13.15 1.75 -12.45 1.85 -14.65 1.55 -14.8 2.7 -14.65 5.2 -14.65 5.45 -14.55 5.45 15.3 5.45 15.3 5.5 15.55 5.5 15.6 5.35 15.45 5.15 15.4 5.15 15.35 3.6 Q15.35 2.3 15.5 1.75 L15.6 1.75 15.65 1.6 15.55 1.5" fill="#000000" fill-rule="evenodd" stroke="none"/>
    <path d="M13.15 -3.95 Q13.2 -4.2 13.55 -4.2 14.2 -4.2 14.35 -3.65 14.45 -3.15 14.65 -3.15 L14.8 -3.2 14.8 -3.25 14.85 -3.25 15.3 -4.05 Q15.75 -4.65 16.0 -4.65 L16.3 -4.4 16.5 -4.05 Q16.5 -3.6 15.85 -3.1 L15.15 -2.55 15.2 -2.4 15.25 -2.4 15.15 -0.55 15.15 0.55 15.2 1.4 13.85 1.4 13.85 -2.5 13.7 -2.45 13.4 -3.0 Q13.15 -3.25 13.15 -3.65 L13.15 -3.95" fill="#ede8de" fill-rule="evenodd" stroke="none"/>
    <path d="M15.5 1.4 L15.55 1.5 15.65 1.6 15.6 1.75 15.5 1.75 Q15.35 2.3 15.35 3.6 L15.4 5.15 15.45 5.15 15.6 5.35 15.55 5.5 15.3 5.5 15.3 5.45 -14.55 5.45 -14.65 5.45 -14.65 5.2 -14.8 2.7 -14.65 1.55 -12.45 1.85 13.15 1.75 13.5 1.75 15.3 1.6 15.35 1.6 15.5 1.4 M15.05 2.55 L15.0 2.4 13.15 2.35 Q12.65 2.35 12.65 2.55 L12.7 2.7 15.0 2.7 15.05 2.55 M5.9 4.6 L5.95 4.75 14.45 4.75 14.5 4.6 12.0 4.4 12.0 4.35 Q12.0 4.2 11.45 4.15 L6.1 4.0 5.9 4.1 5.8 4.25 5.6 4.3 5.5 4.4 -9.7 4.4 -9.85 4.55 -9.8 4.7 5.7 4.7 5.7 4.6 5.9 4.6 M1.05 3.7 L10.9 3.7 10.95 3.55 10.9 3.4 -6.7 3.3 -8.6 3.6 -8.55 3.65 -11.65 3.65 -11.8 3.85 -11.75 4.0 1.05 4.0 1.1 3.85 1.05 3.7 M8.25 2.6 L7.9 2.4 6.25 2.4 4.45 2.4 4.45 2.65 4.5 2.7 8.05 2.8 8.25 2.6 M6.15 2.15 L6.1 2.0 4.35 2.0 4.35 2.25 4.4 2.3 6.1 2.3 6.15 2.15 M-2.45 2.7 L-2.5 2.5 -13.05 2.55 -14.05 2.7 -14.0 2.85 -2.5 2.85 -2.45 2.7" fill="#85732e" fill-rule="evenodd" stroke="none"/>
    <path d="M15.05 2.55 L15.0 2.7 12.7 2.7 12.65 2.55 Q12.65 2.35 13.15 2.35 L15.0 2.4 15.05 2.55 M12.0 4.4 L11.95 4.5 8.3 4.5 5.95 4.5 5.95 4.6 5.9 4.6 5.7 4.6 5.7 4.7 -9.8 4.7 -9.85 4.55 -9.7 4.4 5.5 4.4 5.6 4.3 5.8 4.25 5.9 4.1 6.1 4.0 11.45 4.15 Q12.0 4.2 12.0 4.35 L12.0 4.4 M1.05 3.7 L1.1 3.85 1.05 4.0 -11.75 4.0 -11.8 3.85 -11.65 3.65 -8.55 3.65 0.55 3.65 1.05 3.7 M6.15 2.15 L6.1 2.3 4.4 2.3 4.35 2.25 4.35 2.0 6.1 2.0 6.15 2.15" fill="#9d8837" fill-rule="evenodd" stroke="none"/>
    <path d="M8.3 4.5 L11.95 4.5 12.0 4.4 14.5 4.6 14.45 4.75 5.95 4.75 5.9 4.6 5.95 4.6 8.3 4.5 M-8.55 3.65 L-8.6 3.6 -6.7 3.3 10.9 3.4 10.95 3.55 10.9 3.7 1.05 3.7 0.55 3.65 -8.55 3.65 M8.25 2.6 L8.05 2.8 4.5 2.7 4.45 2.65 4.45 2.4 6.25 2.4 7.9 2.4 8.25 2.6 M-2.45 2.7 L-2.5 2.85 -14.0 2.85 -14.05 2.7 -13.05 2.55 -2.5 2.5 -2.45 2.7" fill="#665126" fill-rule="evenodd" stroke="none"/>
    <path d="M8.3 4.5 L5.95 4.6 5.95 4.5 8.3 4.5" fill="#bfa748" fill-rule="evenodd" stroke="none"/>
  </g>
</svg>
