<?xml version="1.0" encoding="UTF-8" standalone="no"?>
<svg xmlns:xlink="http://www.w3.org/1999/xlink" height="3.85px" width="9.45px" xmlns="http://www.w3.org/2000/svg">
  <g transform="matrix(1.0, 0.0, 0.0, 1.0, 17.45, -0.25)">
    <path d="M-8.55 1.15 L-8.7 0.7 -11.7 1.85 -13.35 2.3 -13.4 2.35 -16.55 0.7 -16.7 1.05 -16.8 1.2 Q-16.1 1.5 -14.7 2.8 L-14.7 2.85 -14.35 3.4 Q-14.05 3.85 -13.75 3.7 L-13.5 3.35 -13.45 3.1 -13.4 3.0 -13.35 2.85 -13.25 2.9 Q-12.75 2.55 -10.85 1.9 L-8.55 1.15 M-8.15 1.3 L-13.05 3.1 Q-13.0 3.45 -13.3 3.7 L-13.65 4.0 Q-14.5 4.35 -14.9 3.3 L-15.05 2.85 -16.05 2.2 -17.45 1.2 -17.25 1.1 -17.15 1.1 -16.75 0.55 -16.85 0.35 -16.7 0.25 Q-16.55 0.2 -15.15 1.0 -13.95 1.6 -13.4 2.05 L-13.15 1.9 -10.2 0.85 -8.75 0.5 -8.8 0.45 -8.45 0.3 -8.2 1.1 Q-7.85 1.0 -8.15 1.3" fill="#000000" fill-rule="evenodd" stroke="none"/>
    <path d="M-8.55 1.15 L-10.85 1.9 Q-12.75 2.55 -13.25 2.9 L-13.35 2.85 -13.4 3.0 -13.45 3.1 -13.5 3.35 -13.75 3.7 Q-14.05 3.85 -14.35 3.4 L-14.7 2.85 -14.7 2.8 Q-16.1 1.5 -16.8 1.2 L-16.7 1.05 -16.55 0.7 -13.4 2.35 -13.35 2.3 -11.7 1.85 -8.7 0.7 -8.55 1.15" fill="#734d26" fill-rule="evenodd" stroke="none"/>
  </g>
</svg>
