<?xml version="1.0" encoding="UTF-8" standalone="no"?>
<svg xmlns:xlink="http://www.w3.org/1999/xlink" height="9.35px" width="9.95px" xmlns="http://www.w3.org/2000/svg">
  <g transform="matrix(1.0, 0.0, 0.0, 1.0, -10.0, 4.75)">
    <path d="M11.8 1.15 L11.55 0.4 Q11.25 0.35 11.25 0.75 11.25 1.15 11.65 1.35 L11.8 1.15 M13.9 3.35 L14.05 3.25 Q13.9 2.4 13.4 2.7 L13.55 3.1 13.9 3.35 M15.85 2.35 L15.8 2.1 15.5 2.15 15.55 2.4 15.8 2.4 15.85 2.35 M18.45 -0.65 L18.25 -1.95 17.5 -2.65 16.8 -3.1 16.55 -2.9 Q18.15 -1.85 18.15 -0.7 L17.85 1.55 18.0 1.75 Q18.3 1.45 18.4 0.45 L18.45 -0.65 M14.45 -0.25 L13.8 -0.55 14.25 0.0 Q14.65 0.35 14.95 0.35 15.4 0.35 15.4 0.15 L15.35 0.0 Q14.75 0.05 14.45 -0.25 M13.55 -1.7 L13.6 -1.6 Q14.15 -1.6 14.55 -2.0 L14.9 -2.4 14.85 -2.55 Q13.55 -2.2 13.55 -1.7 M11.05 -0.8 L11.1 -0.6 Q11.4 -0.6 11.4 -0.95 L11.7 -1.25 11.9 -1.45 11.85 -1.65 Q11.55 -1.65 11.3 -1.3 L11.05 -0.8 M12.15 -3.55 L12.85 -3.95 14.65 -4.25 16.5 -4.2 Q18.5 -2.7 18.8 -2.05 L19.3 -0.8 19.65 0.45 Q19.65 2.1 18.7 2.85 15.95 4.25 14.1 4.25 11.8 4.25 10.85 1.95 10.3 0.65 10.3 -0.75 10.3 -1.95 11.5 -3.0 L12.15 -3.55" fill="#857e69" fill-rule="evenodd" stroke="none"/>
    <path d="M12.35 -4.15 L14.0 -4.65 14.15 -4.75 14.95 -4.75 Q17.7 -4.75 19.05 -2.4 19.95 -0.85 19.95 0.45 19.95 2.6 18.8 3.25 L16.6 4.15 14.4 4.6 Q11.6 4.6 10.55 2.2 10.0 0.95 10.0 -0.75 L10.25 -2.05 Q10.55 -2.9 11.1 -3.15 L11.6 -3.6 12.35 -4.15 M12.15 -3.55 L11.5 -3.0 Q10.3 -1.95 10.3 -0.75 10.3 0.65 10.85 1.95 11.8 4.25 14.1 4.25 15.95 4.25 18.7 2.85 19.65 2.1 19.65 0.45 L19.3 -0.8 18.8 -2.05 Q18.5 -2.7 16.5 -4.2 L14.65 -4.25 12.85 -3.95 12.15 -3.55 M11.05 -0.8 L11.3 -1.3 Q11.55 -1.65 11.85 -1.65 L11.9 -1.45 11.7 -1.25 11.4 -0.95 Q11.4 -0.6 11.1 -0.6 L11.05 -0.8 M13.55 -1.7 Q13.55 -2.2 14.85 -2.55 L14.9 -2.4 14.55 -2.0 Q14.15 -1.6 13.6 -1.6 L13.55 -1.7 M14.45 -0.25 Q14.75 0.05 15.35 0.0 L15.4 0.15 Q15.4 0.35 14.95 0.35 14.65 0.35 14.25 0.0 L13.8 -0.55 14.45 -0.25 M18.45 -0.65 L18.4 0.45 Q18.3 1.45 18.0 1.75 L17.85 1.55 18.15 -0.7 Q18.15 -1.85 16.55 -2.9 L16.8 -3.1 17.5 -2.65 18.25 -1.95 18.45 -0.65 M15.85 2.35 L15.8 2.4 15.55 2.4 15.5 2.15 15.8 2.1 15.85 2.35 M13.9 3.35 L13.55 3.1 13.4 2.7 Q13.9 2.4 14.05 3.25 L13.9 3.35 M11.8 1.15 L11.65 1.35 Q11.25 1.15 11.25 0.75 11.25 0.35 11.55 0.4 L11.8 1.15" fill="#000000" fill-rule="evenodd" stroke="none"/>
  </g>
</svg>
