<?xml version="1.0" encoding="UTF-8" standalone="no"?>
<svg xmlns:xlink="http://www.w3.org/1999/xlink" height="3.7px" width="6.9px" xmlns="http://www.w3.org/2000/svg">
  <g transform="matrix(1.0, 0.0, 0.0, 1.0, -9.25, 2.6)">
    <path d="M16.15 -2.4 L16.15 -2.25 16.15 0.7 16.15 0.85 16.15 0.9 16.15 1.0 16.1 1.1 16.05 1.0 16.05 0.9 9.3 0.9 9.3 0.85 9.3 0.6 9.3 -0.85 9.35 -2.25 9.25 -2.25 9.25 -2.3 9.25 -2.55 9.35 -2.55 9.35 -2.6 9.35 -2.55 16.15 -2.55 16.15 -2.4 M16.05 -2.25 L9.35 -2.25 9.35 0.6 16.05 0.55 16.05 -2.25" fill="#000000" fill-rule="evenodd" stroke="none"/>
    <path d="M16.05 -2.25 L16.05 0.55 9.35 0.6 9.35 -2.25 16.05 -2.25" fill="#990000" fill-rule="evenodd" stroke="none"/>
  </g>
</svg>
