<?xml version="1.0" encoding="UTF-8" standalone="no"?>
<svg xmlns:xlink="http://www.w3.org/1999/xlink" height="3.7px" width="13.9px" xmlns="http://www.w3.org/2000/svg">
  <g transform="matrix(1.0, 0.0, 0.0, 1.0, -12.55, 2.6)">
    <path d="M26.45 -2.4 L26.45 -2.25 26.45 0.7 26.45 0.85 26.45 0.9 26.45 1.0 26.35 1.1 26.3 1.0 26.3 0.9 12.65 0.9 12.6 0.85 12.6 0.6 12.65 0.6 12.65 -0.85 12.7 -2.25 12.6 -2.25 12.55 -2.3 12.55 -2.55 12.75 -2.55 12.75 -2.6 12.75 -2.55 26.45 -2.55 26.45 -2.4 M26.3 -2.25 L12.8 -2.25 12.8 0.6 26.3 0.55 26.3 -2.25" fill="#000000" fill-rule="evenodd" stroke="none"/>
    <path d="M26.3 -2.25 L26.3 0.55 12.8 0.6 12.8 -2.25 26.3 -2.25" fill="#990000" fill-rule="evenodd" stroke="none"/>
  </g>
</svg>
