<?xml version="1.0" encoding="UTF-8" standalone="no"?>
<svg xmlns:xlink="http://www.w3.org/1999/xlink" height="3.7px" width="20.25px" xmlns="http://www.w3.org/2000/svg">
  <g transform="matrix(1.0, 0.0, 0.0, 1.0, -12.2, 2.6)">
    <path d="M12.25 -2.4 L12.25 -2.25 12.25 0.7 12.2 0.85 12.25 0.9 12.25 1.0 12.35 1.1 12.45 1.0 12.45 0.9 32.35 0.9 32.4 0.85 32.4 0.6 32.3 0.6 32.35 -0.85 32.25 -2.25 32.4 -2.25 32.45 -2.3 32.45 -2.55 32.2 -2.55 32.2 -2.6 32.15 -2.55 12.25 -2.55 12.25 -2.4 M12.45 -2.25 L32.15 -2.25 32.15 0.6 12.45 0.55 12.45 -2.25" fill="#000000" fill-rule="evenodd" stroke="none"/>
    <path d="M12.45 -2.25 L12.45 0.55 32.15 0.6 32.15 -2.25 12.45 -2.25" fill="#990000" fill-rule="evenodd" stroke="none"/>
  </g>
</svg>
