<?xml version="1.0" encoding="UTF-8" standalone="no"?>
<svg xmlns:xlink="http://www.w3.org/1999/xlink" height="4.1px" width="9.4px" xmlns="http://www.w3.org/2000/svg">
  <g transform="matrix(1.0, 0.0, 0.0, 1.0, 13.6, -1.5)">
    <path d="M-4.75 3.15 L-4.85 2.7 -7.95 3.6 -9.7 3.9 -9.75 3.9 -12.7 1.95 -12.9 2.3 -13.0 2.4 Q-12.35 2.85 -11.05 4.25 L-11.1 4.3 -10.75 4.85 Q-10.55 5.35 -10.25 5.25 L-9.9 4.85 -9.8 4.6 -9.75 4.55 -9.7 4.4 -9.65 4.45 -7.1 3.7 -4.75 3.15 M-4.35 3.3 L-9.45 4.7 Q-9.45 5.0 -9.75 5.3 L-10.15 5.55 Q-11.0 5.8 -11.3 4.65 L-11.4 4.25 -12.35 3.5 -13.6 2.35 -13.45 2.25 -13.25 2.3 -12.9 1.85 -13.0 1.6 -12.85 1.5 Q-12.65 1.45 -11.3 2.4 -10.15 3.1 -9.75 3.65 L-9.4 3.5 -6.4 2.75 -4.9 2.5 -4.95 2.45 -4.6 2.35 -4.4 3.1 Q-4.0 3.05 -4.35 3.3" fill="#000000" fill-rule="evenodd" stroke="none"/>
    <path d="M-4.75 3.15 L-7.1 3.7 -9.65 4.45 -9.7 4.4 -9.75 4.55 -9.8 4.6 -9.9 4.85 -10.25 5.25 Q-10.55 5.35 -10.75 4.85 L-11.1 4.3 -11.05 4.25 Q-12.35 2.85 -13.0 2.4 L-12.9 2.3 -12.7 1.95 -9.75 3.9 -9.7 3.9 -7.95 3.6 -4.85 2.7 -4.75 3.15" fill="#734d26" fill-rule="evenodd" stroke="none"/>
  </g>
</svg>
