<?xml version="1.0" encoding="UTF-8" standalone="no"?>
<svg xmlns:xlink="http://www.w3.org/1999/xlink" height="4.1px" width="9.4px" xmlns="http://www.w3.org/2000/svg">
  <g transform="matrix(1.0, 0.0, 0.0, 1.0, -3.75, -1.5)">
    <path d="M13.0 3.3 L7.9 4.7 7.6 5.3 7.2 5.55 Q6.35 5.8 6.05 4.65 L5.95 4.25 5.0 3.5 3.75 2.35 3.9 2.25 4.1 2.3 4.45 1.85 4.35 1.6 4.5 1.5 6.05 2.4 Q7.2 3.1 7.6 3.65 L7.95 3.5 10.95 2.75 12.45 2.5 12.4 2.45 12.75 2.35 12.95 3.1 Q13.35 3.05 13.0 3.3 M12.6 3.15 L12.5 2.7 9.4 3.6 7.65 3.9 7.6 3.9 4.65 1.95 4.45 2.3 4.35 2.4 6.3 4.25 6.25 4.3 6.6 4.85 Q6.8 5.35 7.1 5.25 L7.45 4.85 7.55 4.6 7.6 4.55 7.65 4.4 7.7 4.45 10.25 3.7 12.6 3.15" fill="#000000" fill-rule="evenodd" stroke="none"/>
    <path d="M12.6 3.15 L10.25 3.7 7.7 4.45 7.65 4.4 7.6 4.55 7.55 4.6 7.45 4.85 7.1 5.25 Q6.8 5.35 6.6 4.85 L6.25 4.3 6.3 4.25 4.35 2.4 4.45 2.3 4.65 1.95 7.6 3.9 7.65 3.9 9.4 3.6 12.5 2.7 12.6 3.15" fill="#734d26" fill-rule="evenodd" stroke="none"/>
  </g>
</svg>
