<?xml version="1.0" encoding="UTF-8" standalone="no"?>
<svg xmlns:xlink="http://www.w3.org/1999/xlink" height="3.7px" width="3.6px" xmlns="http://www.w3.org/2000/svg">
  <g transform="matrix(1.0, 0.0, 0.0, 1.0, -12.25, 2.6)">
    <path d="M12.25 -2.4 L12.25 -2.25 12.25 0.7 12.25 0.85 12.25 0.9 12.25 1.0 12.25 1.1 12.3 1.0 12.3 0.9 15.85 0.9 15.85 0.85 15.85 0.6 15.8 0.6 15.85 -0.85 15.8 -2.25 15.85 -2.25 15.85 -2.3 15.85 -2.55 15.8 -2.55 15.8 -2.6 15.8 -2.55 12.25 -2.55 12.25 -2.4 M12.3 -2.25 L15.8 -2.25 15.8 0.6 12.3 0.55 12.3 -2.25" fill="#000000" fill-rule="evenodd" stroke="none"/>
    <path d="M12.3 -2.25 L12.3 0.55 15.8 0.6 15.8 -2.25 12.3 -2.25" fill="#990000" fill-rule="evenodd" stroke="none"/>
  </g>
</svg>
