<?xml version="1.0" encoding="UTF-8" standalone="no"?>
<svg xmlns:xlink="http://www.w3.org/1999/xlink" height="8.9px" width="4.6px" xmlns="http://www.w3.org/2000/svg">
  <g transform="matrix(1.0, 0.0, 0.0, 1.0, -7.7, 3.5)">
    <path d="M11.4 -3.0 L10.9 -3.0 10.95 0.2 10.8 1.95 10.8 2.0 8.2 4.4 8.45 4.65 8.55 4.8 Q9.1 4.25 10.8 3.35 L10.85 3.4 11.5 3.25 12.0 2.85 11.7 2.45 11.5 2.3 11.45 2.25 11.3 2.15 11.4 2.05 11.3 -0.55 11.4 -3.0 M11.65 -3.3 L11.65 1.95 12.15 2.4 12.3 2.85 Q12.3 3.75 11.15 3.75 L10.7 3.75 9.75 4.45 8.35 5.4 8.3 5.2 8.35 5.05 8.0 4.55 7.75 4.55 7.7 4.4 Q7.7 4.2 8.95 3.15 L10.55 1.95 10.5 1.6 10.55 -1.5 Q10.55 -2.6 10.7 -3.0 L10.65 -3.0 10.65 -3.35 11.45 -3.3 Q11.5 -3.7 11.65 -3.3" fill="#000000" fill-rule="evenodd" stroke="none"/>
    <path d="M11.4 -3.0 L11.3 -0.55 11.4 2.05 11.3 2.15 11.45 2.25 11.5 2.3 11.7 2.45 12.0 2.85 11.5 3.25 10.85 3.4 10.8 3.35 Q9.1 4.25 8.55 4.8 L8.45 4.65 8.2 4.4 10.8 2.0 10.8 1.95 10.95 0.2 10.9 -3.0 11.4 -3.0" fill="#734d26" fill-rule="evenodd" stroke="none"/>
  </g>
</svg>
