<?xml version="1.0" encoding="UTF-8" standalone="no"?>
<svg xmlns:xlink="http://www.w3.org/1999/xlink" height="4.25px" width="4.5px" xmlns="http://www.w3.org/2000/svg">
  <g transform="matrix(1.0, 0.0, 0.0, 1.0, 9.2, -1.6)">
    <path d="M-8.25 2.15 L-7.9 1.95 -7.1 1.8 -6.25 1.85 -5.2 2.8 -5.0 3.4 -4.85 3.95 Q-4.85 4.7 -5.25 5.05 -6.5 5.7 -7.35 5.7 -8.4 5.7 -8.85 4.65 L-9.1 3.4 Q-9.1 2.85 -8.55 2.4 L-8.25 2.15 M-8.4 4.25 L-8.5 3.95 -8.65 4.1 -8.45 4.35 -8.4 4.25 M-7.45 5.25 L-7.4 5.25 Q-7.45 4.85 -7.65 5.0 L-7.6 5.15 -7.45 5.25 M-6.55 4.8 L-6.6 4.7 -6.7 4.75 -6.7 4.85 -6.6 4.85 -6.55 4.8 M-5.4 3.45 L-5.45 2.85 -5.8 2.55 -6.15 2.35 -6.25 2.45 Q-5.5 2.9 -5.5 3.45 L-5.65 4.45 -5.6 4.55 -5.4 3.95 -5.4 3.45 M-7.2 3.65 Q-7.35 3.5 -7.5 3.5 L-7.3 3.75 -6.95 3.9 -6.75 3.8 -6.8 3.75 -7.2 3.65 M-7.6 3.0 L-7.15 2.85 -7.0 2.65 -7.0 2.6 Q-7.6 2.75 -7.6 3.0 M-8.75 3.4 L-8.7 3.5 -8.6 3.3 -8.45 3.2 -8.35 3.1 -8.4 3.0 -8.65 3.15 -8.75 3.4" fill="#857e69" fill-rule="evenodd" stroke="none"/>
    <path d="M-8.25 2.15 L-8.55 2.4 Q-9.1 2.85 -9.1 3.4 L-8.85 4.65 Q-8.4 5.7 -7.35 5.7 -6.5 5.7 -5.25 5.05 -4.85 4.7 -4.85 3.95 L-5.0 3.4 -5.2 2.8 -6.25 1.85 -7.1 1.8 -7.9 1.95 -8.25 2.15 M-8.15 1.85 L-7.4 1.65 -7.35 1.6 -6.95 1.6 Q-5.7 1.6 -5.1 2.65 -4.7 3.35 -4.7 3.95 -4.7 4.95 -5.2 5.25 L-6.2 5.65 -7.2 5.85 Q-8.5 5.85 -8.95 4.75 L-9.2 3.4 -9.1 2.8 -8.7 2.3 -8.5 2.1 -8.15 1.85 M-8.75 3.4 L-8.65 3.15 -8.4 3.0 -8.35 3.1 -8.45 3.2 -8.6 3.3 -8.7 3.5 -8.75 3.4 M-7.6 3.0 Q-7.6 2.75 -7.0 2.6 L-7.0 2.65 -7.15 2.85 -7.6 3.0 M-7.2 3.65 L-6.8 3.75 -6.75 3.8 -6.95 3.9 -7.3 3.75 -7.5 3.5 Q-7.35 3.5 -7.2 3.65 M-5.4 3.45 L-5.4 3.95 -5.6 4.55 -5.65 4.45 -5.5 3.45 Q-5.5 2.9 -6.25 2.45 L-6.15 2.35 -5.8 2.55 -5.45 2.85 -5.4 3.45 M-6.55 4.8 L-6.6 4.85 -6.7 4.85 -6.7 4.75 -6.6 4.7 -6.55 4.8 M-7.45 5.25 L-7.6 5.15 -7.65 5.0 Q-7.45 4.85 -7.4 5.25 L-7.45 5.25 M-8.4 4.25 L-8.45 4.35 -8.65 4.1 -8.5 3.95 -8.4 4.25" fill="#000000" fill-rule="evenodd" stroke="none"/>
  </g>
</svg>
