<?xml version="1.0" encoding="UTF-8" standalone="no"?>
<svg xmlns:xlink="http://www.w3.org/1999/xlink" height="10.25px" width="13.4px" xmlns="http://www.w3.org/2000/svg">
  <g transform="matrix(1.0, 0.0, 0.0, 1.0, 17.35, 4.75)">
    <path d="M-11.75 -3.55 L-11.05 -3.95 -9.25 -4.25 -7.4 -4.2 Q-5.4 -2.7 -5.1 -2.05 L-4.6 -0.8 Q-4.25 0.2 -4.25 0.45 -4.25 2.1 -5.2 2.85 -7.95 4.25 -9.8 4.25 -12.1 4.25 -13.05 1.95 -13.6 0.65 -13.6 -0.75 -13.6 -1.95 -12.4 -3.0 L-11.75 -3.55 M-12.1 1.15 L-12.35 0.4 Q-12.65 0.35 -12.65 0.75 -12.65 1.15 -12.25 1.35 L-12.1 1.15 M-10.0 3.35 L-9.85 3.25 Q-10.0 2.4 -10.5 2.7 L-10.35 3.1 -10.0 3.35 M-8.05 2.35 L-8.1 2.1 -8.4 2.15 -8.35 2.4 -8.1 2.4 -8.05 2.35 M-5.45 -0.65 L-5.65 -1.95 -6.4 -2.65 -7.1 -3.1 -7.35 -2.9 Q-5.75 -1.85 -5.75 -0.7 L-6.05 1.55 -5.9 1.75 Q-5.6 1.45 -5.5 0.45 L-5.45 -0.65 M-9.45 -0.25 Q-9.8 -0.55 -10.1 -0.55 L-9.65 0.0 Q-9.25 0.35 -8.95 0.35 -8.5 0.35 -8.5 0.15 L-8.55 0.0 Q-9.15 0.05 -9.45 -0.25 M-10.35 -1.7 L-10.3 -1.6 Q-9.75 -1.6 -9.35 -2.0 L-9.0 -2.4 -9.05 -2.55 Q-10.35 -2.2 -10.35 -1.7 M-12.85 -0.8 L-12.8 -0.6 Q-12.5 -0.6 -12.5 -0.95 L-12.2 -1.25 -12.0 -1.45 -12.05 -1.65 Q-12.35 -1.65 -12.6 -1.3 L-12.85 -0.8" fill="#857e69" fill-rule="evenodd" stroke="none"/>
    <path d="M-11.75 -3.55 L-12.4 -3.0 Q-13.6 -1.95 -13.6 -0.75 -13.6 0.65 -13.05 1.95 -12.1 4.25 -9.8 4.25 -7.95 4.25 -5.2 2.85 -4.25 2.1 -4.25 0.45 -4.25 0.2 -4.6 -0.8 L-5.1 -2.05 Q-5.4 -2.7 -7.4 -4.2 L-9.25 -4.25 -11.05 -3.95 -11.75 -3.55 M-11.55 -4.15 L-9.9 -4.65 -9.75 -4.75 -8.95 -4.75 Q-6.2 -4.75 -4.85 -2.4 -3.95 -0.85 -3.95 0.45 -3.95 2.6 -5.1 3.25 -5.85 3.7 -7.3 4.15 L-9.5 4.6 Q-12.3 4.6 -13.35 2.2 -13.9 0.95 -13.9 -0.75 L-13.65 -2.05 Q-13.35 -2.9 -12.8 -3.15 L-12.3 -3.6 -11.55 -4.15 M-12.85 -0.8 L-12.6 -1.3 Q-12.35 -1.65 -12.05 -1.65 L-12.0 -1.45 -12.2 -1.25 -12.5 -0.95 Q-12.5 -0.6 -12.8 -0.6 L-12.85 -0.8 M-10.35 -1.7 Q-10.35 -2.2 -9.05 -2.55 L-9.0 -2.4 -9.35 -2.0 Q-9.75 -1.6 -10.3 -1.6 L-10.35 -1.7 M-9.45 -0.25 Q-9.15 0.05 -8.55 0.0 L-8.5 0.15 Q-8.5 0.35 -8.95 0.35 -9.25 0.35 -9.65 0.0 L-10.1 -0.55 Q-9.8 -0.55 -9.45 -0.25 M-5.45 -0.65 L-5.5 0.45 Q-5.6 1.45 -5.9 1.75 L-6.05 1.55 -5.75 -0.7 Q-5.75 -1.85 -7.35 -2.9 L-7.1 -3.1 -6.4 -2.65 -5.65 -1.95 -5.45 -0.65 M-8.05 2.35 L-8.1 2.4 -8.35 2.4 -8.4 2.15 -8.1 2.1 -8.05 2.35 M-10.0 3.35 L-10.35 3.1 -10.5 2.7 Q-10.0 2.4 -9.85 3.25 L-10.0 3.35 M-12.1 1.15 L-12.25 1.35 Q-12.65 1.15 -12.65 0.75 -12.65 0.35 -12.35 0.4 L-12.1 1.15" fill="#000000" fill-rule="evenodd" stroke="none"/>
    <path d="M-13.65 -2.9 L-14.15 -2.9 -14.1 0.3 -14.25 2.05 -14.25 2.1 -16.85 4.5 -16.6 4.75 -16.5 4.9 Q-15.95 4.35 -14.25 3.45 L-14.2 3.5 -13.55 3.35 Q-13.05 3.25 -13.05 2.95 L-13.35 2.55 -13.55 2.4 -13.6 2.35 -13.75 2.25 -13.65 2.15 -13.75 -0.45 -13.65 -2.9 M-13.4 -3.2 L-13.4 2.05 Q-13.1 2.1 -12.9 2.5 L-12.75 2.95 Q-12.75 3.85 -13.9 3.85 L-14.35 3.85 -15.3 4.55 -16.7 5.5 -16.75 5.3 -16.7 5.15 -17.05 4.65 -17.3 4.65 -17.35 4.5 -16.1 3.25 -14.5 2.05 -14.55 1.7 -14.5 -1.4 -14.35 -2.9 -14.4 -2.9 -14.4 -3.25 -13.6 -3.2 Q-13.55 -3.6 -13.4 -3.2" fill="#000000" fill-rule="evenodd" stroke="none"/>
    <path d="M-13.65 -2.9 L-13.75 -0.45 -13.65 2.15 -13.75 2.25 -13.6 2.35 -13.55 2.4 -13.35 2.55 -13.05 2.95 Q-13.05 3.25 -13.55 3.35 L-14.2 3.5 -14.25 3.45 Q-15.95 4.35 -16.5 4.9 L-16.6 4.75 -16.85 4.5 -14.25 2.1 -14.25 2.05 -14.1 0.3 -14.15 -2.9 -13.65 -2.9" fill="#734d26" fill-rule="evenodd" stroke="none"/>
  </g>
</svg>
