<?xml version="1.0" encoding="UTF-8" standalone="no"?>
<svg xmlns:xlink="http://www.w3.org/1999/xlink" height="12.3px" width="31.55px" xmlns="http://www.w3.org/2000/svg">
  <g transform="matrix(1.0, 0.0, 0.0, 1.0, 12.6, 5.9)">
    <path d="M1.4 -1.55 L1.5 -1.55 1.55 -1.55 1.2 -1.5 1.8 -1.4 2.0 -0.65 2.1 0.2 1.9 1.0 2.3 1.0 2.3 0.95 2.55 0.9 2.6 1.0 3.95 0.95 5.1 1.05 5.3 1.0 5.5 1.0 5.35 0.95 Q5.55 0.8 5.55 0.25 L5.55 0.2 5.65 -0.25 5.75 -1.7 5.8 -2.15 5.9 -2.8 6.0 -3.6 6.1 -4.4 6.05 -4.9 6.05 -5.15 6.05 -5.25 Q6.3 -6.0 7.25 -5.85 L7.65 -5.85 7.75 -5.75 7.75 -5.7 7.75 -5.6 7.55 -3.85 7.6 -3.45 7.5 -2.9 7.25 0.35 Q7.1 0.3 7.1 0.55 7.1 1.15 7.85 1.15 L7.75 1.2 9.35 1.4 Q12.9 1.85 15.85 2.7 L17.0 2.95 17.05 3.0 18.3 3.35 18.9 3.45 18.95 3.6 18.8 3.65 12.15 3.15 Q7.75 2.85 3.6 3.1 L3.6 3.2 3.45 3.25 3.3 3.05 0.5 3.25 0.4 3.65 0.2 3.65 -0.85 3.6 -1.1 3.6 -1.15 3.4 -2.7 3.6 -5.5 4.15 -5.4 4.85 -5.35 5.1 -5.4 5.35 Q-5.35 5.6 -6.45 5.8 L-6.4 6.05 -6.65 6.15 -6.75 5.85 -6.95 5.85 -7.0 5.7 -6.85 5.55 -7.1 4.75 -7.4 4.9 Q-7.4 5.45 -7.95 5.85 L-8.15 6.1 Q-8.35 6.35 -8.7 6.4 -9.25 6.45 -9.6 5.9 L-9.9 5.3 -9.8 4.6 -10.55 4.2 -10.65 3.85 -10.45 3.05 -10.2 2.8 -12.5 -3.7 -12.45 -3.75 -12.5 -3.75 -12.6 -3.85 -12.2 -4.6 -11.8 -5.05 -11.85 -5.05 -11.85 -5.3 -11.65 -5.45 -8.9 -4.9 -6.65 -4.4 -6.45 -4.45 -4.7 0.85 -4.65 0.9 Q-4.5 0.8 -4.4 1.0 L-4.35 1.3 -4.3 1.6 -2.7 1.45 -2.4 1.4 -2.5 1.1 -2.4 -0.1 -2.55 -0.75 -2.55 -1.1 -1.15 -1.35 0.05 -1.45 0.1 -1.45 1.1 -1.55 1.25 -1.55 1.4 -1.55 M2.2 -1.8 L2.1 -1.8 2.2 -1.8 M1.65 -1.05 L-2.3 -0.9 -2.25 -0.65 -2.1 -0.15 Q-2.0 0.95 -2.15 1.4 L-1.1 1.3 -0.8 1.25 -0.65 0.75 -0.65 0.8 -0.6 0.7 -0.05 0.65 0.8 0.75 1.0 0.9 1.0 1.05 1.5 1.0 1.75 -0.1 1.65 -1.05 M6.45 -4.95 L6.35 -4.95 6.3 -4.85 6.35 -4.0 Q6.2 -3.6 6.2 -2.4 L5.75 0.8 5.9 0.95 5.9 1.05 6.8 1.15 6.8 0.9 7.15 -2.35 7.3 -5.55 6.45 -5.1 6.45 -4.95 M17.15 3.3 L12.15 2.25 8.2 1.7 Q8.0 1.85 8.1 2.2 L8.15 2.65 11.95 2.9 17.15 3.3 M7.8 2.3 Q7.75 1.85 7.85 1.65 L6.65 1.55 5.9 2.65 7.9 2.7 7.8 2.3 M7.6 1.15 L7.5 1.15 7.65 1.2 7.6 1.15 M5.65 2.6 L6.0 1.95 6.4 1.55 5.15 1.45 5.15 1.55 4.9 1.9 4.85 1.9 4.85 2.05 5.2 2.65 5.65 2.65 5.65 2.6 M4.3 1.45 L4.55 1.65 4.6 1.6 4.75 1.45 4.3 1.45 M2.9 2.25 L2.7 2.5 2.6 2.7 3.15 2.7 3.0 2.5 2.9 2.25 M4.8 2.65 L3.95 1.4 2.8 1.45 3.45 2.7 4.8 2.65 M0.35 1.05 L0.2 1.0 0.05 1.05 -0.15 1.0 -0.25 1.05 -0.85 3.05 Q-0.75 3.35 -0.1 3.3 L0.25 2.95 0.3 2.95 0.35 2.7 0.4 2.55 0.55 1.7 0.55 1.55 0.55 1.4 0.45 1.1 0.55 1.1 0.6 1.0 0.35 1.05 M0.65 2.85 L0.9 2.85 2.25 2.75 2.5 2.3 2.75 1.95 2.4 1.45 0.9 1.5 0.75 2.15 0.65 2.85 M-12.25 -3.8 L-11.05 -0.6 -10.0 2.7 -10.0 2.75 -9.6 2.75 -9.05 2.55 -9.0 2.5 -7.95 2.4 -8.15 1.95 -8.15 1.85 -8.35 1.85 -8.45 1.65 Q-8.45 1.25 -7.5 1.3 L-6.35 1.2 -6.15 1.2 -6.0 1.95 -5.85 1.9 -4.55 1.6 -4.6 1.55 -4.95 1.55 Q-5.05 0.45 -5.8 -1.45 -6.55 -3.15 -6.7 -4.1 L-11.4 -4.95 -11.75 -4.45 -12.25 -3.8 M-1.45 2.15 L-1.65 1.7 -2.7 1.8 -5.9 2.35 -5.55 3.75 -4.8 3.55 -1.15 3.1 -1.25 3.0 -1.15 2.7 -1.3 2.7 -1.45 2.15 M-0.85 1.6 L-1.25 1.65 -1.2 1.85 -1.05 2.3 -0.95 1.85 -0.85 1.6 M-6.25 2.4 L-6.2 2.0 -6.4 1.6 -6.45 1.5 -7.95 1.8 -7.6 2.3 -7.65 2.55 -7.1 3.55 -6.95 3.95 -6.65 4.75 -6.5 5.1 -6.5 5.4 -5.65 5.25 -5.75 4.9 -5.75 4.65 -6.05 3.35 -6.1 3.1 -6.1 2.85 -6.25 2.4 M-9.75 3.0 Q-10.35 3.1 -10.35 3.75 L-10.25 4.05 -9.35 4.25 -9.25 4.35 -9.6 5.2 -9.4 5.7 Q-9.1 6.05 -8.7 6.05 L-8.25 5.85 -8.2 5.8 -8.1 5.5 -7.85 5.15 -7.75 5.0 -7.8 4.95 Q-7.85 4.6 -7.3 4.35 L-7.2 4.35 -7.75 2.8 -8.65 3.0 -8.7 3.05 -8.7 3.1 -8.85 3.15 -9.15 3.0 -9.4 2.9 -9.4 3.05 -9.55 3.15 -9.7 3.0 -9.75 3.0" fill="#000000" fill-rule="evenodd" stroke="none"/>
    <path d="M1.65 -1.05 L1.75 -0.1 1.5 1.0 1.0 1.05 1.0 0.9 0.8 0.75 -0.05 0.65 -0.6 0.7 -0.65 0.8 -0.65 0.75 -0.8 1.25 -1.1 1.3 -2.15 1.4 Q-2.0 0.95 -2.1 -0.15 L-2.25 -0.65 -2.3 -0.9 1.65 -1.05 M-12.25 -3.8 L-11.75 -4.45 -11.4 -4.95 -6.7 -4.1 Q-6.55 -3.15 -5.8 -1.45 -5.05 0.45 -4.95 1.55 L-4.6 1.55 -4.55 1.6 -5.85 1.9 -6.0 1.95 -6.15 1.2 -6.35 1.2 -7.5 1.3 Q-8.45 1.25 -8.45 1.65 L-8.35 1.85 -8.15 1.85 -8.15 1.95 -7.95 2.4 -9.0 2.5 -9.05 2.55 -9.6 2.75 -10.0 2.75 -10.0 2.7 -11.05 -0.6 -12.25 -3.8" fill="#ac7339" fill-rule="evenodd" stroke="none"/>
    <path d="M6.45 -4.95 L6.45 -5.1 7.3 -5.55 7.15 -2.35 6.8 0.9 6.8 1.15 5.9 1.05 5.9 0.95 5.75 0.8 6.2 -2.4 Q6.2 -3.6 6.35 -4.0 L6.3 -4.85 6.35 -4.95 6.45 -4.95 M7.8 2.3 L7.9 2.7 5.9 2.65 6.65 1.55 7.85 1.65 Q7.75 1.85 7.8 2.3 M0.35 1.05 L0.6 1.0 0.55 1.1 0.45 1.1 0.55 1.4 0.55 1.55 0.55 1.7 0.4 2.55 0.35 2.7 0.3 2.95 0.25 2.95 -0.1 3.3 Q-0.75 3.35 -0.85 3.05 L-0.25 1.05 -0.15 1.0 0.05 1.05 0.2 1.0 0.35 1.05 M4.8 2.65 L3.45 2.7 2.8 1.45 3.95 1.4 4.8 2.65 M2.9 2.25 L3.0 2.5 3.15 2.7 2.6 2.7 2.7 2.5 2.9 2.25 M4.3 1.45 L4.75 1.45 4.6 1.6 4.55 1.65 4.3 1.45 M5.65 2.6 L5.65 2.65 5.2 2.65 4.85 2.05 4.85 1.9 4.9 1.9 5.15 1.55 5.15 1.45 6.4 1.55 6.0 1.95 5.65 2.6 M-0.85 1.6 L-0.95 1.85 -1.05 2.3 -1.2 1.85 -1.25 1.65 -0.85 1.6 M-6.25 2.4 L-6.1 2.85 -6.1 3.1 -6.05 3.35 -5.75 4.65 -5.75 4.9 -5.65 5.25 -6.5 5.4 -6.5 5.1 -6.65 4.75 -6.95 3.95 -7.1 3.55 -7.65 2.55 -7.6 2.3 -7.95 1.8 -6.45 1.5 -6.4 1.6 -6.2 2.0 -6.25 2.4" fill="#c8b159" fill-rule="evenodd" stroke="none"/>
    <path d="M14.3 -2.2 L14.9 -2.4 14.9 -2.35 15.05 -2.0 15.35 -1.85 15.35 -1.8 14.3 -2.2 M13.25 -2.2 L13.6 -2.45 13.7 -2.3 Q13.45 -2.25 13.35 -2.1 L13.35 -2.05 13.25 -2.2" fill="#ffffff" fill-rule="evenodd" stroke="none"/>
    <path d="M17.15 3.3 L11.95 2.9 8.15 2.65 8.1 2.2 Q8.0 1.85 8.2 1.7 L12.15 2.25 17.15 3.3 M0.65 2.85 L0.75 2.15 0.9 1.5 2.4 1.45 2.75 1.95 2.5 2.3 2.25 2.75 0.9 2.85 0.65 2.85 M-1.45 2.15 L-1.3 2.7 -1.15 2.7 -1.25 3.0 -1.15 3.1 -4.8 3.55 -5.55 3.75 -5.9 2.35 -2.7 1.8 -1.65 1.7 -1.45 2.15 M-9.75 3.0 L-9.7 3.0 -9.55 3.15 -9.4 3.05 -9.4 2.9 -9.15 3.0 -8.85 3.15 -8.7 3.1 -8.7 3.05 -8.65 3.0 -7.75 2.8 -7.2 4.35 -7.3 4.35 Q-7.85 4.6 -7.8 4.95 L-7.75 5.0 -7.85 5.15 -8.1 5.5 -8.2 5.8 -8.25 5.85 -8.7 6.05 Q-9.1 6.05 -9.4 5.7 L-9.6 5.2 -9.25 4.35 -9.35 4.25 -10.25 4.05 -10.35 3.75 Q-10.35 3.1 -9.75 3.0" fill="#e2e0d8" fill-rule="evenodd" stroke="none"/>
  </g>
</svg>
