<?xml version="1.0" encoding="UTF-8" standalone="no"?>
<svg xmlns:xlink="http://www.w3.org/1999/xlink" height="10.45px" width="14.9px" xmlns="http://www.w3.org/2000/svg">
  <g transform="matrix(1.0, 0.0, 0.0, 1.0, 10.05, 11.55)">
    <path d="M2.8 -2.75 Q2.05 -2.55 1.25 -3.25 L-0.15 -4.85 -0.7 -5.6 -0.75 -5.55 -1.0 -6.0 -6.9 -2.45 -7.15 -2.35 Q-7.15 -2.0 -7.5 -1.7 L-8.3 -1.2 -9.15 -1.15 Q-9.65 -1.25 -9.95 -2.05 -10.15 -2.8 -9.85 -3.45 L-9.3 -4.05 -8.15 -3.95 -7.85 -3.75 Q-6.55 -4.35 -1.65 -7.1 L-2.05 -7.55 -1.9 -7.6 -1.7 -7.5 -1.7 -7.55 -1.8 -7.65 -1.95 -7.75 -1.85 -7.8 -2.35 -8.85 Q-2.65 -9.8 -2.55 -10.1 L-1.75 -10.85 -0.55 -11.4 0.75 -11.35 2.1 -9.55 2.6 -9.75 3.15 -9.85 3.55 -9.1 Q3.6 -8.95 3.05 -8.35 L3.85 -7.3 Q5.05 -6.1 4.8 -4.8 L3.95 -3.7 Q3.15 -2.85 2.8 -2.75 M3.25 -9.0 L2.95 -9.55 2.45 -9.4 2.3 -9.3 2.15 -9.2 2.75 -8.85 2.85 -8.7 3.2 -9.0 3.25 -9.0 M1.55 -9.5 L1.6 -9.45 1.7 -9.55 0.6 -11.1 -0.45 -11.15 -1.55 -10.6 -2.0 -10.2 -2.3 -10.15 -2.0 -8.95 -1.6 -7.95 0.0 -8.15 0.4 -8.55 0.65 -8.75 1.15 -9.0 1.2 -9.45 1.45 -9.55 1.45 -9.45 1.55 -9.5 M1.85 -8.05 L1.75 -8.05 1.85 -8.0 1.85 -8.05 M2.35 -7.8 L2.35 -7.85 1.8 -7.4 1.55 -7.3 1.6 -7.3 1.1 -6.8 1.0 -6.75 1.0 -6.9 0.95 -6.9 0.1 -4.95 0.5 -4.5 Q1.9 -2.85 2.7 -3.1 3.25 -3.3 3.9 -3.95 4.7 -4.75 4.5 -5.55 4.2 -6.55 2.75 -8.05 L2.35 -7.8 M1.55 -8.3 L2.3 -8.4 2.55 -8.5 1.6 -8.95 1.55 -8.65 1.55 -8.3 M-0.3 -6.2 L-0.45 -6.15 -0.6 -6.1 -0.55 -5.75 -0.05 -5.2 0.5 -6.65 0.2 -6.5 -0.15 -6.15 -0.3 -6.2 M-0.95 -7.15 Q-0.45 -7.0 -0.1 -6.7 L0.0 -6.75 0.75 -7.15 0.8 -7.25 0.85 -7.6 -0.3 -7.55 -0.9 -7.2 -0.95 -7.2 -0.95 -7.15 M1.1 -8.6 L1.1 -8.65 1.0 -8.5 1.0 -8.4 1.1 -8.6 M-1.2 -7.45 L-1.1 -7.6 -1.25 -7.55 -1.2 -7.45 M-1.35 -6.9 Q-1.75 -6.6 -2.25 -6.35 L-4.15 -5.35 Q-5.05 -5.1 -7.5 -3.5 L-7.15 -2.8 -7.2 -2.6 -1.15 -6.25 -1.25 -6.45 -1.35 -6.9 M-7.65 -3.2 L-7.75 -3.1 -7.9 -3.1 Q-8.55 -3.9 -9.15 -3.75 L-9.5 -3.25 Q-9.75 -2.75 -9.6 -2.15 -9.3 -1.3 -8.4 -1.55 -7.15 -1.95 -7.55 -2.95 L-7.65 -3.2" fill="#000000" fill-rule="evenodd" stroke="none"/>
    <path d="M3.25 -9.0 L3.2 -9.0 2.85 -8.7 2.75 -8.85 2.15 -9.2 2.3 -9.3 2.45 -9.4 2.95 -9.55 3.25 -9.0 M1.55 -8.3 L1.55 -8.65 1.6 -8.95 2.55 -8.5 2.3 -8.4 1.55 -8.3 M-0.9 -7.2 L-0.3 -7.55 0.85 -7.6 0.8 -7.25 0.75 -7.15 0.0 -6.75 -0.1 -6.7 Q-0.45 -7.0 -0.95 -7.15 L-0.9 -7.2 M-7.65 -3.2 L-7.55 -2.95 Q-7.15 -1.95 -8.4 -1.55 -9.3 -1.3 -9.6 -2.15 -9.75 -2.75 -9.5 -3.25 L-9.15 -3.75 Q-8.55 -3.9 -7.9 -3.1 L-7.75 -3.1 -7.65 -3.2 M-1.35 -6.9 L-1.25 -6.45 -1.15 -6.25 -7.2 -2.6 -7.15 -2.8 -7.5 -3.5 Q-5.05 -5.1 -4.15 -5.35 L-2.25 -6.35 Q-1.75 -6.6 -1.35 -6.9" fill="#734d26" fill-rule="evenodd" stroke="none"/>
    <path d="M1.55 -9.5 L1.45 -9.45 1.45 -9.55 1.2 -9.45 1.15 -9.0 0.65 -8.75 0.4 -8.55 0.0 -8.15 -1.6 -7.95 -2.0 -8.95 -2.3 -10.15 -2.0 -10.2 -1.55 -10.6 -0.45 -11.15 0.6 -11.1 1.7 -9.55 1.6 -9.45 1.55 -9.5 M2.35 -7.8 L2.75 -8.05 Q4.2 -6.55 4.5 -5.55 4.7 -4.75 3.9 -3.95 3.25 -3.3 2.7 -3.1 1.9 -2.85 0.5 -4.5 L0.1 -4.95 0.95 -6.9 1.0 -6.9 1.0 -6.75 1.1 -6.8 1.6 -7.3 1.55 -7.3 1.8 -7.4 2.35 -7.85 2.35 -7.8 M-0.3 -6.2 L-0.15 -6.15 0.2 -6.5 0.5 -6.65 -0.05 -5.2 -0.55 -5.75 -0.6 -6.1 -0.45 -6.15 -0.3 -6.2" fill="#9d9d9d" fill-rule="evenodd" stroke="none"/>
  </g>
</svg>
