<?xml version="1.0" encoding="UTF-8" standalone="no"?>
<svg xmlns:xlink="http://www.w3.org/1999/xlink" height="12.85px" width="5.9px" xmlns="http://www.w3.org/2000/svg">
  <g transform="matrix(1.0, 0.0, 0.0, 1.0, 6.05, 14.95)">
    <path d="M-5.4 -12.45 Q-4.95 -11.95 -4.45 -11.95 -3.6 -11.95 -3.2 -12.55 -2.9 -12.9 -2.9 -13.3 -2.9 -14.65 -4.3 -14.65 -5.75 -14.65 -5.75 -13.1 L-5.4 -12.45 M-5.35 -13.45 Q-5.35 -14.1 -4.7 -14.3 L-4.65 -14.15 -5.05 -13.4 -4.95 -13.05 Q-4.8 -12.8 -4.55 -12.9 L-4.5 -12.75 -4.55 -12.6 -4.85 -12.6 -5.3 -13.0 -5.35 -13.45 M-5.9 -14.2 Q-5.5 -14.95 -4.2 -14.95 -2.7 -14.95 -2.6 -13.3 -2.6 -12.7 -3.0 -12.25 L-3.15 -12.05 -3.05 -12.1 -1.85 -7.45 -0.3 -3.3 -0.15 -2.95 -0.25 -2.9 -1.15 -2.3 -2.1 -2.15 -2.2 -2.15 -2.35 -2.25 -2.45 -2.25 -2.45 -2.4 Q-2.85 -3.1 -3.45 -5.65 -4.5 -10.0 -4.9 -10.95 L-4.9 -11.65 Q-5.8 -11.85 -6.05 -13.15 L-5.9 -14.2 M-3.5 -13.1 L-3.75 -13.1 -3.7 -13.5 -3.9 -13.7 Q-4.1 -13.7 -4.15 -14.05 -3.4 -14.05 -3.4 -13.5 L-3.5 -13.1 M-3.35 -11.6 L-3.85 -11.65 -4.5 -11.6 -4.5 -11.2 -3.35 -11.25 -3.35 -11.6 M-4.4 -10.9 L-3.45 -7.1 Q-2.85 -4.3 -2.1 -2.6 L-0.85 -2.8 -0.5 -3.1 -1.2 -4.65 -2.15 -7.25 -2.75 -9.4 -3.15 -10.95 -3.9 -10.9 -4.4 -10.9" fill="#000000" fill-rule="evenodd" stroke="none"/>
    <path d="M-5.35 -13.45 L-5.3 -13.0 -4.85 -12.6 -4.55 -12.6 -4.5 -12.75 -4.55 -12.9 Q-4.8 -12.8 -4.95 -13.05 L-5.05 -13.4 -4.65 -14.15 -4.7 -14.3 Q-5.35 -14.1 -5.35 -13.45 M-5.4 -12.45 L-5.75 -13.1 Q-5.75 -14.65 -4.3 -14.65 -2.9 -14.65 -2.9 -13.3 -2.9 -12.9 -3.2 -12.55 -3.6 -11.95 -4.45 -11.95 -4.95 -11.95 -5.4 -12.45 M-3.5 -13.1 L-3.4 -13.5 Q-3.4 -14.05 -4.15 -14.05 -4.1 -13.7 -3.9 -13.7 L-3.7 -13.5 -3.75 -13.1 -3.5 -13.1 M-4.4 -10.9 L-3.9 -10.9 -3.15 -10.95 -2.75 -9.4 -2.15 -7.25 -1.2 -4.65 -0.5 -3.1 -0.85 -2.8 -2.1 -2.6 Q-2.85 -4.3 -3.45 -7.1 L-4.4 -10.9" fill="#734d26" fill-rule="evenodd" stroke="none"/>
    <path d="M-3.35 -11.6 L-3.35 -11.25 -4.5 -11.2 -4.5 -11.6 -3.85 -11.65 -3.35 -11.6" fill="#ecd9c6" fill-rule="evenodd" stroke="none"/>
  </g>
</svg>
