<?xml version="1.0" encoding="UTF-8" standalone="no"?>
<svg xmlns:xlink="http://www.w3.org/1999/xlink" height="17.9px" width="56.35px" xmlns="http://www.w3.org/2000/svg">
  <g transform="matrix(1.0, 0.0, 0.0, 1.0, 43.2, 8.45)">
    <path d="M-42.8 -7.2 Q-38.75 -4.5 -37.6 -4.15 -35.2 -3.15 -34.3 -2.95 L-30.05 -2.0 -29.9 -1.95 -29.05 -2.75 -32.2 -3.35 -37.9 -4.8 Q-40.1 -5.6 -42.8 -8.0 L-42.8 -7.2 M6.2 0.3 L5.95 0.55 5.3 0.55 5.25 0.5 5.25 0.3 5.2 0.35 5.6 1.85 5.6 2.15 5.45 2.2 5.4 2.2 Q4.1 3.3 3.55 4.1 L3.1 5.25 Q2.75 5.9 1.7 5.9 L0.25 5.8 Q-1.3 5.8 -3.7 7.3 L-4.15 6.5 -4.75 6.1 -4.9 6.1 -5.15 6.85 -5.25 7.9 -5.25 8.3 -5.4 8.35 Q-5.8 8.35 -6.35 6.3 L-7.65 6.4 -7.8 7.05 -7.5 9.4 -7.65 9.45 -8.65 8.2 -9.7 6.5 -9.7 6.4 -15.35 6.0 -17.9 5.55 -22.55 4.8 -22.95 4.8 -33.65 1.75 -36.2 0.8 -36.5 0.8 Q-37.25 0.7 -37.4 0.3 -38.3 0.25 -38.95 -0.45 L-39.05 -0.55 -41.6 -2.3 -41.4 -2.3 -42.25 -4.05 Q-42.95 -5.9 -42.95 -6.75 L-42.95 -6.8 -43.2 -7.0 -43.05 -7.2 -43.1 -7.75 -42.95 -8.25 -42.95 -8.45 -40.65 -6.75 Q-39.15 -5.6 -37.75 -5.1 -36.05 -4.15 -28.5 -3.1 L-28.45 -2.95 -28.6 -2.7 -29.2 -2.05 -30.05 -1.45 Q-30.2 -0.85 -30.7 -0.1 -31.3 0.8 -32.05 1.15 L-29.2 1.75 -18.15 3.15 -17.85 3.2 -17.3 3.35 -15.95 3.55 -15.15 3.4 -15.4 3.45 -10.7 3.2 -10.95 2.6 -11.15 2.8 -11.65 2.8 -11.65 2.4 -11.45 1.95 Q-11.45 1.45 -12.1 1.65 L-12.15 1.5 Q-12.15 1.1 -11.3 1.05 L-9.15 0.6 -8.0 -0.05 -7.5 -0.7 -8.25 -0.8 -8.3 -0.95 -7.9 -1.25 -8.15 -1.55 -8.5 -1.55 -10.55 -0.1 -10.8 -0.25 -10.75 -0.3 -10.8 -0.35 -10.3 -1.05 -9.5 -1.6 -9.5 -1.55 -8.2 -2.3 Q-6.55 -3.2 -6.45 -3.35 L-5.15 -4.75 -4.55 -5.3 Q-4.35 -6.1 -1.55 -7.1 L0.1 -7.6 0.55 -7.85 0.7 -7.85 Q0.85 -8.05 1.45 -8.25 L2.3 -8.45 Q3.0 -8.45 3.8 -7.9 3.9 -7.8 4.6 -7.6 L5.6 -7.4 6.5 -7.65 7.25 -7.95 7.8 -7.95 7.9 -7.35 6.85 -6.25 6.25 -5.7 7.75 -4.4 8.45 -3.55 8.55 -2.75 8.5 -2.2 8.1 -2.35 8.05 -2.35 8.85 -2.0 9.05 -2.15 9.35 -2.3 Q10.5 -2.3 10.55 -1.35 L10.3 -0.9 10.3 -0.85 10.3 -0.75 10.6 -0.2 10.6 -0.05 10.8 0.3 10.95 0.2 11.0 0.25 11.25 0.2 11.55 0.4 12.2 0.55 Q13.15 0.55 13.15 1.45 L12.95 2.1 12.4 2.45 12.45 3.0 12.05 3.55 Q11.6 3.95 11.25 3.95 L10.8 3.7 10.75 3.65 10.05 4.1 9.8 4.1 9.75 3.95 9.85 3.75 8.75 3.8 8.65 3.35 8.2 2.7 Q8.2 2.25 8.7 2.2 L8.6 2.1 8.45 2.1 8.25 2.05 8.15 1.95 7.7 2.05 7.15 1.85 6.9 1.6 7.15 1.25 6.6 0.85 6.15 0.6 6.25 0.45 6.3 0.6 6.4 0.6 6.45 0.4 7.05 0.75 7.5 1.25 7.3 1.55 7.7 1.7 8.1 1.6 8.4 1.5 8.45 1.55 Q8.75 1.25 10.5 0.4 L10.2 0.15 10.0 0.3 9.75 0.3 9.7 0.15 Q9.7 -0.2 10.25 -0.3 L10.0 -0.45 8.85 0.2 8.8 0.05 9.35 -0.6 9.9 -0.9 10.25 -1.35 Q9.65 -1.95 9.35 -1.95 L9.1 -1.8 9.1 -1.75 8.15 -0.95 8.0 -1.15 8.65 -1.6 7.5 -2.2 Q7.0 -1.9 6.75 -1.1 L6.3 0.15 6.25 0.15 6.2 0.25 6.2 0.3 M-40.8 -5.35 L-40.75 -5.35 -40.2 -3.75 -39.4 -4.05 -39.55 -4.5 -39.5 -4.5 -38.75 -3.0 -38.75 -2.95 -38.1 -3.1 -38.45 -3.85 -38.35 -3.85 -38.0 -3.15 -37.2 -3.35 -37.95 -3.0 -36.95 -1.05 -37.0 -1.0 -37.8 -2.4 -38.05 -2.95 -38.65 -2.8 -38.45 -2.3 -38.5 -2.2 -38.85 -2.8 -39.05 -2.8 -38.9 -2.9 -39.4 -4.05 Q-39.7 -3.8 -40.15 -3.65 L-39.75 -2.8 -39.75 -2.75 -40.2 -3.65 -40.85 -3.5 -40.65 -3.1 -40.95 -3.5 -41.2 -3.5 -40.95 -3.55 -41.2 -4.05 -41.35 -4.55 -41.5 -4.55 -41.55 -4.55 -41.65 -4.6 -41.65 -4.7 -41.4 -4.7 -41.65 -5.2 -41.65 -5.45 -41.6 -5.45 -41.3 -4.7 -40.8 -4.75 -41.25 -4.6 -40.85 -3.55 -40.25 -3.75 -40.8 -4.9 -40.8 -5.35 M-35.15 0.35 L-32.7 0.95 Q-31.65 0.6 -30.95 -0.35 L-30.5 -1.25 -30.25 -1.7 Q-32.9 -2.05 -34.65 -2.7 L-38.05 -4.0 -42.55 -6.55 -41.8 -4.0 -41.15 -2.3 -40.4 -1.9 -40.45 -2.1 -40.2 -2.4 -39.8 -2.6 Q-39.6 -2.6 -39.5 -2.25 L-39.3 -2.35 -38.5 -1.7 -37.75 -1.2 -37.45 -0.65 -36.75 -1.0 -35.5 -1.35 -35.0 -0.9 -34.65 -0.5 Q-34.65 -0.2 -35.15 0.3 L-35.15 0.35 M-39.6 -1.7 L-39.95 -2.15 -40.05 -2.0 -39.85 -1.7 -39.85 -1.55 -39.5 -1.35 -39.45 -1.3 -39.45 -1.35 -39.55 -1.7 -39.6 -1.7 M-36.95 -3.3 L-36.6 -2.45 -36.2 -1.65 -37.0 -3.0 -37.0 -3.3 -36.95 -3.3 M-37.35 -2.25 L-37.1 -2.1 -37.4 -2.1 -37.35 -2.25 M-38.7 -0.8 L-37.9 -0.2 -37.7 -0.25 -38.05 -0.95 Q-38.3 -1.4 -39.05 -1.5 L-38.7 -0.8 M-35.25 -2.5 L-35.25 -2.35 -34.55 -2.55 Q-34.8 -2.3 -35.3 -2.25 L-35.1 -1.7 -35.35 -2.25 -35.8 -2.15 -35.4 -2.3 -35.45 -2.5 -35.25 -2.5 M-36.45 -0.75 L-37.25 -0.35 -37.05 0.1 -37.05 0.15 -36.2 0.45 -34.95 -0.45 -35.6 -1.0 -36.45 -0.75 M-34.75 -1.7 L-34.05 -1.65 -34.2 -1.95 -34.2 -2.2 -34.1 -2.2 -33.85 -1.65 -33.5 -1.7 -32.85 -1.9 -32.85 -1.8 -33.8 -1.55 -33.1 -0.2 -32.4 -0.4 -32.05 -0.55 -32.3 -1.0 -32.7 -1.75 -32.7 -1.85 -32.2 -1.1 -32.0 -0.6 -31.7 -0.75 -31.95 -0.55 -31.85 -0.35 -31.9 -0.3 -32.0 -0.5 Q-32.65 -0.1 -33.8 0.0 L-34.2 0.0 -34.2 -0.15 -33.15 -0.2 -34.0 -1.55 -34.4 -1.55 -34.75 -1.6 -34.75 -1.7 M-34.6 -0.75 L-34.95 -1.45 -34.55 -0.8 -34.6 -0.75 M-9.0 -1.45 L-9.35 -1.35 -9.55 -1.25 -9.7 -1.05 -9.0 -1.45 M-11.1 2.05 L-10.2 1.65 -8.35 1.3 Q-7.7 1.3 -7.6 1.5 L-7.2 1.65 -6.65 1.2 Q-6.3 0.7 -5.35 0.7 -4.95 0.7 -4.9 0.85 L-4.85 1.05 -4.25 0.75 -4.15 0.65 -4.05 0.65 -3.9 0.65 -3.85 0.7 -3.7 0.95 -3.35 0.3 -3.65 -0.1 -3.65 -0.4 -3.5 -0.45 -2.9 0.2 -2.7 0.2 -2.65 0.35 -2.7 0.45 -2.55 0.6 -0.6 0.3 Q-0.05 0.3 0.4 0.6 L1.1 -0.35 Q1.35 -0.75 1.85 -0.7 L2.2 -0.55 2.35 -0.3 2.15 0.0 1.9 0.3 2.05 0.6 Q2.2 0.8 2.45 0.8 L5.15 0.1 Q4.4 -1.0 4.4 -1.5 4.4 -1.9 5.25 -2.15 6.1 -2.35 6.1 -2.5 L5.85 -2.8 5.55 -3.3 Q5.55 -3.7 5.8 -3.7 L4.9 -4.4 4.9 -4.5 4.7 -4.7 5.9 -5.8 7.6 -7.4 7.55 -7.6 7.25 -7.6 5.6 -7.05 4.0 -7.55 2.3 -8.1 1.8 -8.0 1.8 -7.95 1.35 -7.6 1.1 -7.5 0.05 -7.2 -1.9 -6.65 -4.1 -5.3 -5.7 -3.6 Q-6.95 -2.45 -8.1 -1.9 L-7.5 -1.25 -7.2 -0.65 Q-7.2 0.75 -11.4 1.45 -11.05 1.6 -11.15 2.0 L-11.15 2.05 -11.1 2.05 M-4.05 -3.3 L-4.05 -2.95 Q-4.0 -2.6 -3.6 -2.55 L-3.6 -2.45 -2.75 -2.45 -2.35 -2.3 -2.2 -2.2 -1.7 -2.2 -1.2 -2.15 Q-0.25 -2.25 0.1 -2.5 L0.8 -3.3 1.3 -4.0 1.55 -4.55 0.9 -5.25 Q0.2 -5.8 -0.4 -5.8 L-1.4 -5.5 -2.6 -4.75 -3.65 -4.05 -4.15 -3.55 -4.05 -3.35 -4.05 -3.3 M-6.7 -0.95 L-6.75 -0.4 -7.15 0.0 -6.8 -0.95 -6.7 -0.95 M-4.4 -3.2 L-4.45 -3.45 Q-4.45 -4.15 -3.7 -4.6 -2.5 -5.15 -1.75 -5.7 L-0.5 -6.05 0.75 -5.8 1.4 -5.25 1.8 -4.8 1.4 -6.7 1.65 -6.7 1.55 -6.5 1.9 -5.2 1.9 -4.35 1.85 -4.35 1.6 -3.85 Q1.3 -3.25 1.0 -3.0 L0.55 -2.2 Q0.2 -1.8 -1.65 -1.8 L-2.65 -1.95 -4.05 -2.15 -4.1 -2.2 -4.1 -2.4 -4.4 -3.05 -4.35 -3.2 -4.4 -3.2 M-4.6 -2.9 L-4.6 -2.75 -4.8 -2.7 -4.85 -2.55 Q-4.85 -2.0 -4.5 -1.8 L-4.55 -1.7 Q-4.95 -1.8 -4.95 -2.5 L-4.7 -3.0 -4.6 -2.9 M5.4 -5.0 L5.6 -4.8 5.4 -4.55 5.9 -4.25 6.35 -3.5 Q6.35 -3.35 5.85 -3.3 6.45 -2.9 6.45 -2.25 L6.1 -1.95 4.7 -1.5 5.15 -0.65 5.45 0.1 5.35 0.25 Q6.4 0.05 6.45 -0.4 L6.55 -1.4 Q7.3 -2.65 7.85 -2.9 L8.25 -2.9 7.3 -4.3 Q6.15 -5.05 5.9 -5.45 L5.4 -5.0 M2.35 -3.45 L2.65 -3.7 2.65 -3.45 2.9 -3.45 3.25 -3.65 3.65 -3.65 3.65 -3.5 3.3 -3.55 2.7 -3.35 2.5 -3.45 1.95 -3.3 1.65 -3.05 1.35 -3.2 Q1.25 -3.55 2.2 -3.9 2.4 -4.05 2.4 -4.8 L2.25 -5.35 2.05 -6.0 2.15 -6.0 2.35 -5.35 2.5 -4.8 2.25 -3.7 2.55 -3.9 2.6 -3.8 2.3 -3.5 2.3 -3.45 2.35 -3.45 M4.85 0.5 L4.35 0.7 2.4 1.15 Q2.1 1.15 1.8 0.8 L1.55 0.35 1.85 -0.3 1.65 -0.45 Q0.7 0.55 0.6 1.1 L0.45 1.15 Q-0.05 0.7 -0.65 0.7 L-1.2 0.75 Q-1.5 1.95 -2.1 2.05 -1.85 2.25 -1.55 3.0 -1.15 3.9 -1.05 4.65 L-0.2 4.7 0.45 5.0 Q1.15 5.0 2.25 3.6 L2.55 3.6 2.6 3.75 1.6 4.6 Q1.2 5.35 0.45 5.35 L-0.2 5.2 Q-0.3 5.05 -0.7 5.0 L-1.15 5.3 -1.2 5.3 -3.45 5.85 -4.4 6.05 -4.0 6.25 Q-3.7 6.45 -3.8 6.8 L-3.6 6.85 Q-1.2 5.45 0.25 5.45 L1.75 5.55 Q2.4 5.55 3.3 4.05 4.15 2.55 5.25 1.95 L5.05 1.4 4.85 0.55 4.85 0.5 M11.8 2.75 L11.0 3.45 11.3 3.6 Q12.35 3.6 12.1 2.6 L11.8 2.75 M12.85 1.5 L12.4 1.0 10.9 0.6 10.9 0.55 9.2 1.6 9.25 1.85 9.35 2.25 8.55 2.6 9.1 3.45 10.0 3.4 10.2 3.55 10.55 3.35 10.65 3.2 10.7 3.2 11.45 2.5 12.7 2.0 12.85 1.5 M8.85 1.75 L8.8 1.8 8.9 1.85 8.85 1.75 M8.95 2.15 L9.0 2.15 8.95 2.05 8.95 2.15 M0.75 1.5 L1.3 1.3 1.65 1.3 1.55 1.3 1.1 1.5 0.65 1.65 0.35 1.55 Q0.4 1.45 0.8 1.3 L0.85 1.35 0.7 1.45 0.55 1.55 0.75 1.5 M2.0 1.65 L1.8 1.65 1.8 1.4 2.0 1.65 M-1.7 0.8 L-2.6 1.05 -2.95 0.75 -3.65 1.55 -3.75 1.7 -4.05 2.2 -2.6 1.95 -2.65 1.8 -2.15 1.55 Q-1.65 1.35 -1.65 1.0 L-1.7 0.8 M-2.55 2.3 L-6.3 3.05 -14.85 3.8 -17.85 3.65 -18.0 3.55 -18.2 3.55 -24.0 2.8 -29.45 2.05 -33.05 1.35 -35.55 0.65 -35.75 0.7 -32.85 1.7 -28.0 3.2 -22.3 4.5 -22.25 4.55 -22.25 4.65 Q-15.05 6.05 -7.95 6.05 L-6.35 6.05 -6.35 6.0 -6.1 6.0 -6.1 6.05 -5.05 5.95 -5.1 5.85 Q-5.1 5.5 -4.7 5.4 L-4.65 5.55 -4.7 5.8 -3.8 5.55 -2.0 5.1 -1.4 4.95 -1.35 4.65 Q-1.35 4.4 -1.9 3.4 L-2.1 3.0 -2.55 3.0 -2.6 3.5 -3.25 3.2 -4.05 3.65 -4.4 3.3 -4.45 3.6 -4.5 3.2 -4.35 3.15 -4.1 3.55 Q-3.5 3.1 -3.25 3.1 -3.05 3.1 -2.7 3.35 L-2.8 2.95 -2.15 2.85 -2.55 2.3 M-1.95 4.2 L-2.85 4.35 -2.25 4.15 -1.65 4.15 -1.65 4.25 -1.8 4.35 -1.85 4.3 -1.95 4.2 M-4.2 1.15 L-4.7 1.4 -5.15 1.4 Q-5.15 1.1 -5.4 1.1 L-6.45 1.3 -6.6 1.8 -6.7 1.9 Q-6.75 2.55 -7.05 2.8 L-4.35 2.25 -4.4 2.15 -3.95 1.2 -4.0 1.05 -4.2 1.15 M-7.65 1.85 L-8.4 1.65 Q-9.8 1.65 -10.65 2.3 L-10.55 2.7 -10.4 3.2 -7.4 2.85 -7.45 2.8 -7.25 2.0 -7.65 1.85 M-7.7 4.75 L-7.35 4.35 -6.25 4.35 -6.05 4.35 -7.65 4.8 -7.7 4.75 M-5.45 6.6 L-5.3 6.2 -6.0 6.3 -5.7 7.4 -5.65 7.5 -5.45 6.6 M-8.1 7.05 L-7.95 6.4 -8.0 6.4 -9.35 6.4 -8.75 7.2 -8.05 8.5 -8.1 7.05 M-38.35 -0.2 L-38.45 -0.25 -38.45 -0.2 -38.35 -0.2" fill="#000000" fill-rule="evenodd" stroke="none"/>
    <path d="M6.25 0.45 L6.2 0.3 6.2 0.25 6.25 0.15 6.3 0.15 6.75 -1.1 Q7.0 -1.9 7.5 -2.2 L8.65 -1.6 8.0 -1.15 8.15 -0.95 9.1 -1.75 9.1 -1.8 9.35 -1.95 Q9.65 -1.95 10.25 -1.35 L9.9 -0.9 9.35 -0.6 8.8 0.05 8.85 0.2 10.0 -0.45 10.25 -0.3 Q9.7 -0.2 9.7 0.15 L9.75 0.3 10.0 0.3 10.2 0.15 10.5 0.4 Q8.75 1.25 8.45 1.55 L8.4 1.5 8.1 1.6 7.7 1.7 7.3 1.55 7.5 1.25 7.05 0.75 6.45 0.4 6.4 0.6 6.3 0.6 6.25 0.45 M-11.15 2.0 Q-11.05 1.6 -11.4 1.45 -7.2 0.75 -7.2 -0.65 L-7.5 -1.25 -8.1 -1.9 Q-6.95 -2.45 -5.7 -3.6 L-4.1 -5.3 -1.9 -6.65 0.05 -7.2 1.1 -7.5 1.35 -7.6 1.8 -7.95 1.8 -8.0 2.3 -8.1 4.0 -7.55 5.6 -7.05 7.25 -7.6 7.55 -7.6 7.6 -7.4 5.9 -5.8 4.7 -4.7 4.9 -4.5 4.9 -4.4 5.8 -3.7 Q5.55 -3.7 5.55 -3.3 L5.85 -2.8 6.1 -2.5 Q6.1 -2.35 5.25 -2.15 4.4 -1.9 4.4 -1.5 4.4 -1.0 5.15 0.1 L2.45 0.8 Q2.2 0.8 2.05 0.6 L1.9 0.3 2.15 0.0 2.35 -0.3 2.2 -0.55 1.85 -0.7 Q1.35 -0.75 1.1 -0.35 L0.4 0.6 Q-0.05 0.3 -0.6 0.3 L-2.55 0.6 -2.7 0.45 -2.65 0.35 -2.7 0.2 -2.9 0.2 -3.5 -0.45 -3.65 -0.4 -3.65 -0.1 -3.35 0.3 -3.7 0.95 -3.85 0.7 -3.9 0.65 -4.05 0.65 -4.15 0.65 -4.25 0.75 -4.85 1.05 -4.9 0.85 Q-4.95 0.7 -5.35 0.7 -6.3 0.7 -6.65 1.2 L-7.2 1.65 -7.6 1.5 Q-7.7 1.3 -8.35 1.3 L-10.2 1.65 -11.1 2.05 -11.15 2.0 M2.3 -3.5 L2.6 -3.8 2.55 -3.9 2.25 -3.7 2.5 -4.8 2.35 -5.35 2.15 -6.0 2.05 -6.0 2.25 -5.35 2.4 -4.8 Q2.4 -4.05 2.2 -3.9 1.25 -3.55 1.35 -3.2 L1.65 -3.05 1.95 -3.3 2.5 -3.45 2.7 -3.35 3.3 -3.55 3.65 -3.5 3.65 -3.65 3.25 -3.65 2.9 -3.45 2.65 -3.45 2.65 -3.7 2.35 -3.45 2.3 -3.5 M5.4 -5.0 L5.9 -5.45 Q6.15 -5.05 7.3 -4.3 L8.25 -2.9 7.85 -2.9 Q7.3 -2.65 6.55 -1.4 L6.45 -0.4 Q6.4 0.05 5.35 0.25 L5.45 0.1 5.15 -0.65 4.7 -1.5 6.1 -1.95 6.45 -2.25 Q6.45 -2.9 5.85 -3.3 6.35 -3.35 6.35 -3.5 L5.9 -4.25 5.4 -4.55 5.6 -4.8 5.4 -5.0 M-4.6 -2.9 L-4.7 -3.0 -4.95 -2.5 Q-4.95 -1.8 -4.55 -1.7 L-4.5 -1.8 Q-4.85 -2.0 -4.85 -2.55 L-4.8 -2.7 -4.6 -2.75 -4.6 -2.9 M-4.4 -3.2 L-4.35 -3.2 -4.4 -3.05 -4.1 -2.4 -4.1 -2.2 -4.05 -2.15 -2.65 -1.95 -1.65 -1.8 Q0.2 -1.8 0.55 -2.2 L1.0 -3.0 Q1.3 -3.25 1.6 -3.85 L1.85 -4.35 1.9 -4.35 1.9 -5.2 1.55 -6.5 1.65 -6.7 1.4 -6.7 1.8 -4.8 1.4 -5.25 0.75 -5.8 -0.5 -6.05 -1.75 -5.7 Q-2.5 -5.15 -3.7 -4.6 -4.45 -4.15 -4.45 -3.45 L-4.4 -3.2 M-6.7 -0.95 L-6.8 -0.95 -7.15 0.0 -6.75 -0.4 -6.7 -0.95 M4.85 0.55 L5.05 1.4 5.25 1.95 Q4.15 2.55 3.3 4.05 2.4 5.55 1.75 5.55 L0.25 5.45 Q-1.2 5.45 -3.6 6.85 L-3.8 6.8 Q-3.7 6.45 -4.0 6.25 L-4.4 6.05 -3.45 5.85 -1.2 5.3 -1.15 5.3 -0.7 5.0 Q-0.3 5.05 -0.2 5.2 L0.45 5.35 Q1.2 5.35 1.6 4.6 L2.6 3.75 2.55 3.6 2.25 3.6 Q1.15 5.0 0.45 5.0 L-0.2 4.7 -1.05 4.65 Q-1.15 3.9 -1.55 3.0 -1.85 2.25 -2.1 2.05 -1.5 1.95 -1.2 0.75 L-0.65 0.7 Q-0.05 0.7 0.45 1.15 L0.6 1.1 Q0.7 0.55 1.65 -0.45 L1.85 -0.3 1.55 0.35 1.8 0.8 Q2.1 1.15 2.4 1.15 L4.35 0.7 4.85 0.5 4.85 0.55 M12.85 1.5 L12.7 2.0 11.45 2.5 10.7 3.2 10.65 3.2 10.55 3.35 10.2 3.55 10.0 3.4 9.1 3.45 8.55 2.6 9.35 2.25 9.25 1.85 9.2 1.6 10.9 0.55 10.9 0.6 12.4 1.0 12.85 1.5 M11.8 2.75 L12.1 2.6 Q12.35 3.6 11.3 3.6 L11.0 3.45 11.8 2.75 M0.7 1.45 L0.85 1.35 0.8 1.3 Q0.4 1.45 0.35 1.55 L0.65 1.65 1.1 1.5 1.55 1.3 1.65 1.3 1.3 1.3 0.75 1.5 0.7 1.45 M2.0 1.65 L1.8 1.4 1.8 1.65 2.0 1.65 M-8.1 7.05 L-8.05 8.5 -8.75 7.2 -9.35 6.4 -8.0 6.4 -7.95 6.4 -8.1 7.05 M-5.45 6.6 L-5.65 7.5 -5.7 7.4 -6.0 6.3 -5.3 6.2 -5.45 6.6 M-7.7 4.75 L-7.65 4.8 -6.05 4.35 -6.25 4.35 -7.35 4.35 -7.7 4.75 M-7.65 1.85 L-7.25 2.0 -7.45 2.8 -7.4 2.85 -10.4 3.2 -10.55 2.7 -10.65 2.3 Q-9.8 1.65 -8.4 1.65 L-7.65 1.85 M-4.2 1.15 L-4.0 1.05 -3.95 1.2 -4.4 2.15 -4.35 2.25 -7.05 2.8 Q-6.75 2.55 -6.7 1.9 L-6.6 1.8 -6.45 1.3 -5.4 1.1 Q-5.15 1.1 -5.15 1.4 L-4.7 1.4 -4.2 1.15 M-1.95 4.2 L-1.85 4.3 -1.8 4.35 -1.65 4.25 -1.65 4.15 -2.25 4.15 -2.85 4.35 -1.95 4.2 M-2.55 2.3 L-2.15 2.85 -2.8 2.95 -2.7 3.35 Q-3.05 3.1 -3.25 3.1 -3.5 3.1 -4.1 3.55 L-4.35 3.15 -4.5 3.2 -4.45 3.6 -4.4 3.3 -4.05 3.65 -3.25 3.2 -2.6 3.5 -2.55 3.0 -2.1 3.0 -1.9 3.4 Q-1.35 4.4 -1.35 4.65 L-1.4 4.95 -2.0 5.1 -3.8 5.55 -4.7 5.8 -4.65 5.55 -4.7 5.4 Q-5.1 5.5 -5.1 5.85 L-5.05 5.95 -6.1 6.05 -6.1 6.0 -6.35 6.0 -6.35 6.05 -7.95 6.05 Q-15.05 6.05 -22.25 4.65 L-22.25 4.55 -22.3 4.5 -28.0 3.2 -32.85 1.7 -35.75 0.7 -35.55 0.65 -33.05 1.35 -29.45 2.05 -24.0 2.8 -18.2 3.55 -18.0 3.55 -17.85 3.65 -14.85 3.8 -6.3 3.05 -2.55 2.3" fill="#fff7d5" fill-rule="evenodd" stroke="none"/>
    <path d="M-4.05 -3.3 L-4.05 -3.35 -4.15 -3.55 -3.65 -4.05 -2.6 -4.75 -1.4 -5.5 -0.4 -5.8 Q0.2 -5.8 0.9 -5.25 L1.55 -4.55 1.3 -4.0 0.8 -3.3 0.1 -2.5 Q-0.25 -2.25 -1.2 -2.15 L-1.7 -2.2 -2.2 -2.2 -2.35 -2.3 -2.75 -2.45 -3.6 -2.45 -3.6 -2.55 Q-4.0 -2.6 -4.05 -2.95 L-4.05 -3.3 M-1.7 0.8 L-1.65 1.0 Q-1.65 1.35 -2.15 1.55 L-2.65 1.8 -2.6 1.95 -4.05 2.2 -3.75 1.7 -3.65 1.55 -2.95 0.75 -2.6 1.05 -1.7 0.8" fill="#443600" fill-rule="evenodd" stroke="none"/>
    <path d="M-42.8 -7.2 L-42.8 -8.0 Q-40.1 -5.6 -37.9 -4.8 L-32.2 -3.35 -29.05 -2.75 -29.9 -1.95 -30.05 -2.0 -34.3 -2.95 Q-35.2 -3.15 -37.6 -4.15 -38.75 -4.5 -42.8 -7.2" fill="#b09c4f" fill-rule="evenodd" stroke="none"/>
    <path d="M-35.15 0.3 Q-34.65 -0.2 -34.65 -0.5 L-35.0 -0.9 -35.5 -1.35 -36.75 -1.0 -37.45 -0.65 -37.75 -1.2 -38.5 -1.7 -39.3 -2.35 -39.5 -2.25 Q-39.6 -2.6 -39.8 -2.6 L-40.2 -2.4 -40.45 -2.1 -40.4 -1.9 -41.15 -2.3 -41.8 -4.0 -42.55 -6.55 -38.05 -4.0 -34.65 -2.7 Q-32.9 -2.05 -30.25 -1.7 L-30.5 -1.25 -30.95 -0.35 Q-31.65 0.6 -32.7 0.95 L-35.15 0.35 -35.15 0.3 M-40.8 -5.35 L-40.8 -4.9 -40.25 -3.75 -40.85 -3.55 -41.25 -4.6 -40.8 -4.75 -41.3 -4.7 -41.6 -5.45 -41.65 -5.45 -41.65 -5.2 -41.4 -4.7 -41.65 -4.7 -41.65 -4.6 -41.55 -4.55 -41.5 -4.55 -41.35 -4.55 -41.2 -4.05 -40.95 -3.55 -41.2 -3.5 -40.95 -3.5 -40.65 -3.1 -40.85 -3.5 -40.2 -3.65 -39.75 -2.75 -39.75 -2.8 -40.15 -3.65 Q-39.7 -3.8 -39.4 -4.05 L-38.9 -2.9 -39.05 -2.8 -38.85 -2.8 -38.5 -2.2 -38.45 -2.3 -38.65 -2.8 -38.05 -2.95 -37.8 -2.4 -37.0 -1.0 -36.95 -1.05 -37.95 -3.0 -37.2 -3.35 -38.0 -3.15 -38.35 -3.85 -38.45 -3.85 -38.1 -3.1 -38.75 -2.95 -38.75 -3.0 -39.5 -4.5 -39.55 -4.5 -39.4 -4.05 -40.2 -3.75 -40.75 -5.35 -40.8 -5.35 M-39.5 -1.35 L-39.85 -1.55 -39.85 -1.7 -40.05 -2.0 -39.95 -2.15 -39.6 -1.7 -39.55 -1.7 -39.45 -1.35 -39.5 -1.35 M-37.35 -2.25 L-37.4 -2.1 -37.1 -2.1 -37.35 -2.25 M-36.95 -3.3 L-37.0 -3.3 -37.0 -3.0 -36.2 -1.65 -36.6 -2.45 -36.95 -3.3 M-35.25 -2.5 L-35.45 -2.5 -35.4 -2.3 -35.8 -2.15 -35.35 -2.25 -35.1 -1.7 -35.3 -2.25 Q-34.8 -2.3 -34.55 -2.55 L-35.25 -2.35 -35.25 -2.5 M-34.6 -0.75 L-34.55 -0.8 -34.95 -1.45 -34.6 -0.75 M-34.75 -1.7 L-34.75 -1.6 -34.4 -1.55 -34.0 -1.55 -33.15 -0.2 -34.2 -0.15 -34.2 0.0 -33.8 0.0 Q-32.65 -0.1 -32.0 -0.5 L-31.9 -0.3 -31.85 -0.35 -31.95 -0.55 -31.7 -0.75 -32.0 -0.6 -32.2 -1.1 -32.7 -1.85 -32.7 -1.75 -32.3 -1.0 -32.05 -0.55 -32.4 -0.4 -33.1 -0.2 -33.8 -1.55 -32.85 -1.8 -32.85 -1.9 -33.5 -1.7 -33.85 -1.65 -34.1 -2.2 -34.2 -2.2 -34.2 -1.95 -34.05 -1.65 -34.75 -1.7" fill="#884a22" fill-rule="evenodd" stroke="none"/>
    <path d="M-38.7 -0.8 L-39.05 -1.5 Q-38.3 -1.4 -38.05 -0.95 L-37.7 -0.25 -37.9 -0.2 -38.7 -0.8 M-36.45 -0.75 L-35.6 -1.0 -34.95 -0.45 -36.2 0.45 -37.05 0.15 -37.05 0.1 -37.25 -0.35 -36.45 -0.75" fill="#f7e7dd" fill-rule="evenodd" stroke="none"/>
  </g>
</svg>
