<?xml version="1.0" encoding="UTF-8" standalone="no"?>
<svg xmlns:xlink="http://www.w3.org/1999/xlink" height="12.7px" width="13.55px" xmlns="http://www.w3.org/2000/svg">
  <g transform="matrix(1.0, 0.0, 0.0, 1.0, 42.95, 6.45)">
    <path d="M-40.5 1.55 L-40.8 0.55 Q-41.25 0.5 -41.25 1.0 -41.25 1.55 -40.7 1.85 L-40.5 1.55 M-37.65 4.55 L-37.45 4.4 Q-37.65 3.25 -38.3 3.65 L-38.1 4.2 -37.65 4.55 M-35.0 3.2 L-35.05 2.85 -35.45 2.9 -35.4 3.25 -35.05 3.25 -35.0 3.2 M-31.45 -0.9 Q-31.45 -2.25 -31.7 -2.65 L-32.75 -3.6 Q-33.5 -4.2 -33.7 -4.2 -34.05 -4.2 -34.05 -3.95 -31.85 -2.5 -31.85 -0.95 L-32.25 2.1 -32.05 2.4 Q-31.65 1.95 -31.5 0.6 L-31.45 -0.9 M-36.9 -0.35 Q-37.35 -0.75 -37.75 -0.75 L-37.15 0.0 -36.2 0.5 Q-35.6 0.5 -35.6 0.2 L-35.65 0.0 Q-36.5 0.05 -36.9 -0.35 M-38.1 -2.3 L-38.05 -2.15 Q-37.3 -2.15 -36.75 -2.7 -36.25 -3.05 -36.25 -3.25 L-36.35 -3.45 Q-38.1 -3.0 -38.1 -2.3 M-41.5 -1.1 L-41.45 -0.8 Q-41.05 -0.8 -41.05 -1.3 L-40.6 -1.7 -40.35 -1.95 -40.4 -2.25 -41.15 -1.75 -41.5 -1.1 M-40.0 -4.8 L-39.05 -5.35 -36.6 -5.75 -34.1 -5.7 Q-31.4 -3.65 -31.0 -2.8 L-30.3 -1.1 -29.8 0.6 Q-29.8 2.85 -31.1 3.85 -34.85 5.75 -37.35 5.75 -40.5 5.75 -41.8 2.65 -42.5 0.9 -42.5 -1.0 -42.5 -2.65 -40.9 -4.05 L-40.0 -4.8" fill="#857e69" fill-rule="evenodd" stroke="none"/>
    <path d="M-39.75 -5.65 L-37.5 -6.3 -37.3 -6.45 -36.2 -6.45 Q-32.45 -6.45 -30.65 -3.25 -29.4 -1.15 -29.4 0.6 -29.4 3.55 -31.0 4.4 -32.0 5.05 -33.95 5.65 L-36.95 6.25 Q-40.75 6.25 -42.2 3.0 -42.95 1.3 -42.95 -1.0 L-42.6 -2.8 Q-42.2 -3.95 -41.45 -4.3 -41.3 -4.35 -40.75 -4.9 L-39.75 -5.65 M-40.0 -4.8 L-40.9 -4.05 Q-42.5 -2.65 -42.5 -1.0 -42.5 0.9 -41.8 2.65 -40.5 5.75 -37.35 5.75 -34.85 5.75 -31.1 3.85 -29.8 2.85 -29.8 0.6 L-30.3 -1.1 -31.0 -2.8 Q-31.4 -3.65 -34.1 -5.7 L-36.6 -5.75 -39.05 -5.35 -40.0 -4.8 M-41.5 -1.1 L-41.15 -1.75 -40.4 -2.25 -40.35 -1.95 -40.6 -1.7 -41.05 -1.3 Q-41.05 -0.8 -41.45 -0.8 L-41.5 -1.1 M-38.1 -2.3 Q-38.1 -3.0 -36.35 -3.45 L-36.25 -3.25 Q-36.25 -3.05 -36.75 -2.7 -37.3 -2.15 -38.05 -2.15 L-38.1 -2.3 M-36.9 -0.35 Q-36.5 0.05 -35.65 0.0 L-35.6 0.2 Q-35.6 0.5 -36.2 0.5 L-37.15 0.0 -37.75 -0.75 Q-37.35 -0.75 -36.9 -0.35 M-31.45 -0.9 L-31.5 0.6 Q-31.65 1.95 -32.05 2.4 L-32.25 2.1 -31.85 -0.95 Q-31.85 -2.5 -34.05 -3.95 -34.05 -4.2 -33.7 -4.2 -33.5 -4.2 -32.75 -3.6 L-31.7 -2.65 Q-31.45 -2.25 -31.45 -0.9 M-35.0 3.2 L-35.05 3.25 -35.4 3.25 -35.45 2.9 -35.05 2.85 -35.0 3.2 M-37.65 4.55 L-38.1 4.2 -38.3 3.65 Q-37.65 3.25 -37.45 4.4 L-37.65 4.55 M-40.5 1.55 L-40.7 1.85 Q-41.25 1.55 -41.25 1.0 -41.25 0.5 -40.8 0.55 L-40.5 1.55" fill="#000000" fill-rule="evenodd" stroke="none"/>
  </g>
</svg>
