<?xml version="1.0" encoding="UTF-8" standalone="no"?>
<svg xmlns:xlink="http://www.w3.org/1999/xlink" height="12.7px" width="13.55px" xmlns="http://www.w3.org/2000/svg">
  <g transform="matrix(1.0, 0.0, 0.0, 1.0, 41.95, 13.65)">
    <path d="M-39.0 -12.0 L-38.05 -12.55 -35.6 -12.95 -33.1 -12.9 Q-30.4 -10.85 -30.0 -10.0 L-29.3 -8.3 -28.8 -6.6 Q-28.8 -4.35 -30.1 -3.35 -33.85 -1.45 -36.35 -1.45 -39.5 -1.45 -40.8 -4.55 -41.5 -6.3 -41.5 -8.2 -41.5 -9.85 -39.9 -11.25 L-39.0 -12.0 M-39.5 -5.65 L-39.8 -6.65 Q-40.25 -6.7 -40.25 -6.2 -40.25 -5.65 -39.7 -5.35 L-39.5 -5.65 M-36.65 -2.65 L-36.45 -2.8 Q-36.65 -3.95 -37.3 -3.55 L-37.1 -3.0 Q-36.9 -2.65 -36.65 -2.65 M-34.0 -4.0 L-34.05 -4.35 -34.45 -4.3 -34.4 -3.95 -34.05 -3.95 -34.0 -4.0 M-30.45 -8.1 Q-30.45 -9.45 -30.7 -9.85 L-31.75 -10.8 -32.7 -11.4 Q-33.05 -11.4 -33.05 -11.15 -30.85 -9.7 -30.85 -8.15 L-31.25 -5.1 -31.05 -4.8 Q-30.65 -5.25 -30.5 -6.6 L-30.45 -8.1 M-35.9 -7.55 Q-36.35 -7.95 -36.75 -7.95 L-36.15 -7.2 Q-35.6 -6.7 -35.2 -6.7 -34.6 -6.7 -34.6 -7.0 L-34.65 -7.2 Q-35.5 -7.15 -35.9 -7.55 M-37.1 -9.5 L-37.05 -9.35 Q-36.3 -9.35 -35.75 -9.9 -35.25 -10.25 -35.25 -10.45 L-35.35 -10.65 Q-37.1 -10.2 -37.1 -9.5 M-40.5 -8.3 L-40.45 -8.0 Q-40.05 -8.0 -40.05 -8.5 L-39.6 -8.9 -39.35 -9.15 -39.4 -9.45 Q-39.8 -9.45 -40.15 -8.95 L-40.5 -8.3" fill="#857e69" fill-rule="evenodd" stroke="none"/>
    <path d="M-39.0 -12.0 L-39.9 -11.25 Q-41.5 -9.85 -41.5 -8.2 -41.5 -6.3 -40.8 -4.55 -39.5 -1.45 -36.35 -1.45 -33.85 -1.45 -30.1 -3.35 -28.8 -4.35 -28.8 -6.6 L-29.3 -8.3 -30.0 -10.0 Q-30.4 -10.85 -33.1 -12.9 L-35.6 -12.95 -38.05 -12.55 -39.0 -12.0 M-38.75 -12.85 L-36.5 -13.5 Q-36.3 -13.5 -36.3 -13.65 L-35.2 -13.65 Q-31.45 -13.65 -29.65 -10.45 -28.4 -8.35 -28.4 -6.6 -28.4 -3.65 -30.0 -2.8 -31.0 -2.15 -32.95 -1.55 L-35.95 -0.95 Q-39.75 -0.95 -41.2 -4.2 -41.95 -5.9 -41.95 -8.2 L-41.6 -10.0 Q-41.2 -11.15 -40.45 -11.5 L-39.75 -12.1 -38.75 -12.85 M-40.5 -8.3 L-40.15 -8.95 Q-39.8 -9.45 -39.4 -9.45 L-39.35 -9.15 -39.6 -8.9 -40.05 -8.5 Q-40.05 -8.0 -40.45 -8.0 L-40.5 -8.3 M-37.1 -9.5 Q-37.1 -10.2 -35.35 -10.65 L-35.25 -10.45 Q-35.25 -10.25 -35.75 -9.9 -36.3 -9.35 -37.05 -9.35 L-37.1 -9.5 M-35.9 -7.55 Q-35.5 -7.15 -34.65 -7.2 L-34.6 -7.0 Q-34.6 -6.7 -35.2 -6.7 -35.6 -6.7 -36.15 -7.2 L-36.75 -7.95 Q-36.35 -7.95 -35.9 -7.55 M-30.45 -8.1 L-30.5 -6.6 Q-30.65 -5.25 -31.05 -4.8 L-31.25 -5.1 -30.85 -8.15 Q-30.85 -9.7 -33.05 -11.15 -33.05 -11.4 -32.7 -11.4 L-31.75 -10.8 -30.7 -9.85 Q-30.45 -9.45 -30.45 -8.1 M-34.0 -4.0 L-34.05 -3.95 -34.4 -3.95 -34.45 -4.3 -34.05 -4.35 -34.0 -4.0 M-36.65 -2.65 Q-36.9 -2.65 -37.1 -3.0 L-37.3 -3.55 Q-36.65 -3.95 -36.45 -2.8 L-36.65 -2.65 M-39.5 -5.65 L-39.7 -5.35 Q-40.25 -5.65 -40.25 -6.2 -40.25 -6.7 -39.8 -6.65 L-39.5 -5.65" fill="#000000" fill-rule="evenodd" stroke="none"/>
  </g>
</svg>
