<?xml version="1.0" encoding="UTF-8" standalone="no"?>
<svg xmlns:xlink="http://www.w3.org/1999/xlink" height="12.7px" width="13.55px" xmlns="http://www.w3.org/2000/svg">
  <g transform="matrix(1.0, 0.0, 0.0, 1.0, 37.85, 22.6)">
    <path d="M-34.9 -20.95 L-33.95 -21.5 -31.5 -21.9 -29.0 -21.85 Q-26.3 -19.8 -25.9 -18.95 L-25.2 -17.25 Q-24.7 -15.9 -24.7 -15.55 -24.7 -13.3 -26.0 -12.3 -29.75 -10.4 -32.25 -10.4 -35.4 -10.4 -36.7 -13.5 -37.4 -15.25 -37.4 -17.15 -37.4 -18.8 -35.8 -20.2 L-34.9 -20.95 M-35.4 -14.6 L-35.7 -15.6 Q-36.15 -15.65 -36.15 -15.15 -36.15 -14.6 -35.6 -14.3 L-35.4 -14.6 M-32.55 -11.6 L-32.35 -11.75 Q-32.55 -12.9 -33.2 -12.5 L-33.0 -11.95 -32.55 -11.6 M-29.9 -12.95 L-29.95 -13.3 -30.35 -13.25 -30.3 -12.9 -29.95 -12.9 -29.9 -12.95 M-26.35 -17.05 Q-26.35 -18.4 -26.6 -18.8 L-27.65 -19.75 -28.6 -20.35 -28.95 -20.1 Q-26.75 -18.65 -26.75 -17.1 L-27.15 -14.05 -26.95 -13.75 Q-26.55 -14.2 -26.4 -15.55 L-26.35 -17.05 M-31.8 -16.5 Q-32.25 -16.9 -32.65 -16.9 -32.6 -16.55 -32.05 -16.15 -31.5 -15.65 -31.1 -15.65 -30.5 -15.65 -30.5 -15.95 L-30.55 -16.15 Q-31.4 -16.1 -31.8 -16.5 M-33.0 -18.45 L-32.95 -18.3 Q-32.2 -18.3 -31.65 -18.85 L-31.15 -19.4 -31.25 -19.6 Q-33.0 -19.15 -33.0 -18.45 M-36.4 -17.25 L-36.35 -16.95 Q-35.95 -16.95 -35.95 -17.45 L-35.5 -17.85 -35.25 -18.1 -35.3 -18.4 -36.05 -17.9 -36.4 -17.25" fill="#857e69" fill-rule="evenodd" stroke="none"/>
    <path d="M-34.9 -20.95 L-35.8 -20.2 Q-37.4 -18.8 -37.4 -17.15 -37.4 -15.25 -36.7 -13.5 -35.4 -10.4 -32.25 -10.4 -29.75 -10.4 -26.0 -12.3 -24.7 -13.3 -24.7 -15.55 -24.7 -15.9 -25.2 -17.25 L-25.9 -18.95 Q-26.3 -19.8 -29.0 -21.85 L-31.5 -21.9 -33.95 -21.5 -34.9 -20.95 M-34.65 -21.8 L-32.4 -22.45 -32.2 -22.6 -31.1 -22.6 Q-27.35 -22.6 -25.55 -19.4 -24.3 -17.3 -24.3 -15.55 -24.3 -12.6 -25.9 -11.75 -26.9 -11.1 -28.85 -10.5 L-31.85 -9.9 Q-35.65 -9.9 -37.1 -13.15 -37.85 -14.85 -37.85 -17.15 L-37.5 -18.95 Q-37.1 -20.1 -36.35 -20.45 L-35.65 -21.05 -34.65 -21.8 M-36.4 -17.25 L-36.05 -17.9 -35.3 -18.4 -35.25 -18.1 -35.5 -17.85 -35.95 -17.45 Q-35.95 -16.95 -36.35 -16.95 L-36.4 -17.25 M-33.0 -18.45 Q-33.0 -19.15 -31.25 -19.6 L-31.15 -19.4 -31.65 -18.85 Q-32.2 -18.3 -32.95 -18.3 L-33.0 -18.45 M-31.8 -16.5 Q-31.4 -16.1 -30.55 -16.15 L-30.5 -15.95 Q-30.5 -15.65 -31.1 -15.65 -31.5 -15.65 -32.05 -16.15 -32.6 -16.55 -32.65 -16.9 -32.25 -16.9 -31.8 -16.5 M-26.35 -17.05 L-26.4 -15.55 Q-26.55 -14.2 -26.95 -13.75 L-27.15 -14.05 -26.75 -17.1 Q-26.75 -18.65 -28.95 -20.1 L-28.6 -20.35 -27.65 -19.75 -26.6 -18.8 Q-26.35 -18.4 -26.35 -17.05 M-29.9 -12.95 L-29.95 -12.9 -30.3 -12.9 -30.35 -13.25 -29.95 -13.3 -29.9 -12.95 M-32.55 -11.6 L-33.0 -11.95 -33.2 -12.5 Q-32.55 -12.9 -32.35 -11.75 L-32.55 -11.6 M-35.4 -14.6 L-35.6 -14.3 Q-36.15 -14.6 -36.15 -15.15 -36.15 -15.65 -35.7 -15.6 L-35.4 -14.6" fill="#000000" fill-rule="evenodd" stroke="none"/>
  </g>
</svg>
