<?xml version="1.0" encoding="UTF-8" standalone="no"?>
<svg xmlns:xlink="http://www.w3.org/1999/xlink" height="5.5px" width="5.85px" xmlns="http://www.w3.org/2000/svg">
  <g transform="matrix(1.0, 0.0, 0.0, 1.0, 38.95, -1.75)">
    <path d="M-37.9 5.25 L-38.05 4.8 -38.25 5.0 -38.0 5.35 -37.9 5.25 M-36.65 6.5 L-36.6 6.45 Q-36.65 5.95 -36.95 6.15 L-36.9 6.35 -36.65 6.5 M-35.55 5.95 L-35.55 5.8 -35.75 5.8 -35.7 5.95 -35.55 5.95 M-34.0 4.15 L-34.1 3.4 -34.55 3.0 -34.95 2.75 -35.1 2.85 Q-34.2 3.45 -34.2 4.15 L-34.35 5.45 -34.25 5.6 Q-34.1 5.4 -34.05 4.8 L-34.0 4.15 M-36.35 4.4 Q-36.55 4.25 -36.75 4.25 L-36.45 4.55 Q-36.25 4.75 -36.05 4.75 L-35.8 4.65 -35.8 4.55 -36.35 4.4 M-36.9 3.55 L-36.85 3.6 Q-36.5 3.6 -36.3 3.4 L-36.1 3.15 -36.1 3.05 Q-36.9 3.25 -36.9 3.55 M-38.35 4.1 L-38.3 4.2 -38.15 4.0 -37.95 3.8 -37.85 3.7 -37.85 3.6 -38.2 3.8 -38.35 4.1 M-37.7 2.45 L-37.3 2.25 -36.25 2.05 -35.15 2.1 Q-33.95 2.95 -33.8 3.35 L-33.5 4.1 -33.3 4.8 Q-33.3 5.8 -33.85 6.2 -35.45 7.05 -36.55 7.05 -37.9 7.05 -38.45 5.7 -38.8 4.95 -38.8 4.1 -38.8 3.4 -38.1 2.8 L-37.7 2.45" fill="#857e69" fill-rule="evenodd" stroke="none"/>
    <path d="M-37.6 2.1 L-36.6 1.8 -36.5 1.75 -36.05 1.75 Q-34.45 1.75 -33.65 3.15 -33.1 4.05 -33.1 4.8 -33.1 6.1 -33.8 6.45 L-35.1 7.0 -36.4 7.25 Q-38.0 7.25 -38.65 5.85 L-38.95 4.1 -38.8 3.35 Q-38.65 2.85 -38.3 2.7 L-38.0 2.45 -37.6 2.1 M-37.7 2.45 L-38.1 2.8 Q-38.8 3.4 -38.8 4.1 -38.8 4.95 -38.45 5.7 -37.9 7.05 -36.55 7.05 -35.45 7.05 -33.85 6.2 -33.3 5.8 -33.3 4.8 L-33.5 4.1 -33.8 3.35 Q-33.95 2.95 -35.15 2.1 L-36.25 2.05 -37.3 2.25 -37.7 2.45 M-38.35 4.1 L-38.2 3.8 -37.85 3.6 -37.85 3.7 -37.95 3.8 -38.15 4.0 -38.3 4.2 -38.35 4.1 M-36.9 3.55 Q-36.9 3.25 -36.1 3.05 L-36.1 3.15 -36.3 3.4 Q-36.5 3.6 -36.85 3.6 L-36.9 3.55 M-36.35 4.4 L-35.8 4.55 -35.8 4.65 -36.05 4.75 Q-36.25 4.75 -36.45 4.55 L-36.75 4.25 Q-36.55 4.25 -36.35 4.4 M-34.0 4.15 L-34.05 4.8 Q-34.1 5.4 -34.25 5.6 L-34.35 5.45 -34.2 4.15 Q-34.2 3.45 -35.1 2.85 L-34.95 2.75 -34.55 3.0 -34.1 3.4 -34.0 4.15 M-35.55 5.95 L-35.7 5.95 -35.75 5.8 -35.55 5.8 -35.55 5.95 M-36.65 6.5 L-36.9 6.35 -36.95 6.15 Q-36.65 5.95 -36.6 6.45 L-36.65 6.5 M-37.9 5.25 L-38.0 5.35 -38.25 5.0 -38.05 4.8 -37.9 5.25" fill="#000000" fill-rule="evenodd" stroke="none"/>
  </g>
</svg>
