<?xml version="1.0" encoding="UTF-8" standalone="no"?>
<svg xmlns:xlink="http://www.w3.org/1999/xlink" height="8.3px" width="8.3px" xmlns="http://www.w3.org/2000/svg">
  <g transform="matrix(1.0, 0.0, 0.0, 1.0, 30.65, 6.95)">
    <path d="M-28.25 -0.55 L-28.85 -1.05 -28.85 -1.0 Q-29.05 -0.65 -28.35 -0.35 L-28.3 -0.4 -28.2 -0.5 -28.25 -0.55 M-27.6 -1.8 L-27.65 -1.75 -27.75 -1.65 Q-27.55 -1.2 -27.15 -1.35 L-27.6 -1.8 M-25.8 -3.4 L-25.9 -3.45 -25.95 -3.4 -26.0 -3.1 Q-25.8 -2.85 -25.65 -3.1 L-25.65 -3.15 -25.75 -3.35 -25.8 -3.4 M-28.95 -2.0 Q-28.8 -1.9 -28.7 -2.1 L-28.75 -2.15 -28.8 -2.35 -28.9 -2.4 -28.95 -2.45 Q-29.2 -2.25 -28.95 -2.0 M-29.5 -3.55 L-29.55 -3.6 -29.6 -3.55 Q-29.95 -2.7 -29.7 -1.8 L-29.6 -1.75 -29.5 -1.8 -29.45 -1.9 -29.45 -3.5 -29.5 -3.55 M-27.85 -4.65 L-28.0 -4.75 -28.5 -4.4 -28.5 -4.35 -28.45 -4.25 Q-28.1 -4.25 -27.85 -4.6 L-27.85 -4.65 M-26.25 -6.15 L-26.4 -6.3 -27.9 -5.9 -27.9 -5.85 -27.9 -5.75 Q-27.05 -5.65 -26.25 -6.15 M-25.05 0.2 L-25.2 0.05 -26.2 0.5 -26.2 0.55 -26.2 0.65 Q-25.55 0.8 -25.05 0.2 M-24.2 -2.4 L-24.25 -2.45 -24.25 -2.4 Q-24.45 -2.05 -24.15 -1.5 L-23.95 -1.55 -23.9 -1.6 -24.15 -2.35 -24.2 -2.4 M-23.9 -4.65 L-24.0 -4.6 -24.05 -4.45 -23.8 -4.35 -23.65 -4.15 -23.45 -3.35 -23.45 -3.3 -23.25 -3.3 Q-23.05 -4.25 -23.9 -4.65 M-23.2 -5.0 L-23.05 -4.95 Q-22.6 -4.25 -22.65 -3.4 -22.8 -2.1 -23.2 -0.9 L-23.3 -0.8 -23.55 -0.3 Q-24.65 1.35 -26.8 1.1 -28.65 0.85 -29.7 -0.7 L-29.8 -0.95 -30.05 -1.35 -30.2 -1.7 -30.3 -2.1 -30.35 -2.1 -30.35 -2.15 -30.35 -2.75 Q-30.35 -3.65 -29.95 -4.45 -29.25 -5.85 -27.8 -6.25 -27.85 -6.4 -28.05 -6.4 L-27.95 -6.4 -27.3 -6.65 Q-25.3 -6.7 -23.8 -5.4 L-23.7 -5.35 -23.3 -5.05 -23.2 -5.0" fill="#95917b" fill-rule="evenodd" stroke="none"/>
    <path d="M-22.75 -4.85 L-22.45 -4.5 Q-22.3 -3.75 -22.4 -3.0 L-22.95 -0.7 -23.0 -0.65 -23.1 -0.6 Q-24.0 1.5 -26.45 1.35 L-28.5 0.9 -29.15 0.25 -29.25 0.15 -29.7 -0.25 -30.0 -0.55 -30.0 -0.6 -30.05 -0.85 -30.3 -1.15 -30.65 -2.45 Q-30.7 -3.6 -30.3 -4.6 L-30.3 -4.65 -30.2 -4.7 -30.15 -4.75 -30.15 -4.8 -30.1 -4.85 -30.0 -5.0 -30.05 -5.05 -30.05 -5.1 -30.1 -5.1 Q-29.85 -5.9 -29.05 -6.3 L-27.3 -6.95 Q-25.4 -6.95 -23.8 -5.9 L-22.75 -4.85 M-23.2 -5.0 L-23.3 -5.05 -23.7 -5.35 -23.8 -5.4 Q-25.3 -6.7 -27.3 -6.65 L-27.95 -6.4 -28.05 -6.4 Q-27.85 -6.4 -27.8 -6.25 -29.25 -5.85 -29.95 -4.45 -30.35 -3.65 -30.35 -2.75 L-30.35 -2.15 -30.35 -2.1 -30.3 -2.1 -30.2 -1.7 -30.05 -1.35 -29.8 -0.95 -29.7 -0.7 Q-28.65 0.85 -26.8 1.1 -24.65 1.35 -23.55 -0.3 L-23.3 -0.8 -23.2 -0.9 Q-22.8 -2.1 -22.65 -3.4 -22.6 -4.25 -23.05 -4.95 L-23.2 -5.0 M-23.9 -4.65 Q-23.05 -4.25 -23.25 -3.3 L-23.45 -3.3 -23.45 -3.35 -23.65 -4.15 -23.8 -4.35 -24.05 -4.45 -24.0 -4.6 -23.9 -4.65 M-24.2 -2.4 L-24.15 -2.35 -23.9 -1.6 -23.95 -1.55 -24.15 -1.5 Q-24.45 -2.05 -24.25 -2.4 L-24.25 -2.45 -24.2 -2.4 M-25.05 0.2 Q-25.55 0.8 -26.2 0.65 L-26.2 0.55 -26.2 0.5 -25.2 0.05 -25.05 0.2 M-26.25 -6.15 Q-27.05 -5.65 -27.9 -5.75 L-27.9 -5.85 -27.9 -5.9 -26.4 -6.3 -26.25 -6.15 M-27.85 -4.65 L-27.85 -4.6 Q-28.1 -4.25 -28.45 -4.25 L-28.5 -4.35 -28.5 -4.4 -28.0 -4.75 -27.85 -4.65 M-29.5 -3.55 L-29.45 -3.5 -29.45 -1.9 -29.5 -1.8 -29.6 -1.75 -29.7 -1.8 Q-29.95 -2.7 -29.6 -3.55 L-29.55 -3.6 -29.5 -3.55 M-28.95 -2.0 Q-29.2 -2.25 -28.95 -2.45 L-28.9 -2.4 -28.8 -2.35 -28.75 -2.15 -28.7 -2.1 Q-28.8 -1.9 -28.95 -2.0 M-25.8 -3.4 L-25.75 -3.35 -25.65 -3.15 -25.65 -3.1 Q-25.8 -2.85 -26.0 -3.1 L-25.95 -3.4 -25.9 -3.45 -25.8 -3.4 M-27.6 -1.8 L-27.15 -1.35 Q-27.55 -1.2 -27.75 -1.65 L-27.65 -1.75 -27.6 -1.8 M-28.25 -0.55 L-28.2 -0.5 -28.3 -0.4 -28.35 -0.35 Q-29.05 -0.65 -28.85 -1.0 L-28.85 -1.05 -28.25 -0.55" fill="#000000" fill-rule="evenodd" stroke="none"/>
  </g>
</svg>
