<?xml version="1.0" encoding="UTF-8" standalone="no"?>
<svg xmlns:xlink="http://www.w3.org/1999/xlink" height="8.3px" width="8.3px" xmlns="http://www.w3.org/2000/svg">
  <g transform="matrix(1.0, 0.0, 0.0, 1.0, 30.9, 2.9)">
    <path d="M-24.05 -1.35 L-23.95 -1.3 -23.55 -1.0 -23.45 -0.95 -23.3 -0.9 Q-22.85 -0.2 -22.9 0.65 -23.05 1.95 -23.45 3.15 L-23.55 3.25 -23.8 3.75 Q-24.9 5.4 -27.05 5.15 -28.9 4.9 -29.95 3.35 L-30.05 3.1 -30.3 2.7 -30.45 2.35 -30.55 1.95 -30.6 1.95 -30.6 1.9 -30.6 1.3 Q-30.6 0.4 -30.2 -0.4 -29.5 -1.8 -28.05 -2.2 L-28.3 -2.35 -28.2 -2.35 Q-27.85 -2.4 -27.55 -2.6 -25.55 -2.65 -24.05 -1.35 M-24.15 -0.6 L-24.25 -0.55 -24.3 -0.4 Q-24.2 -0.3 -24.05 -0.3 L-23.9 -0.1 -23.7 0.7 -23.7 0.75 -23.5 0.75 Q-23.3 -0.2 -24.15 -0.6 M-28.5 3.5 L-29.1 3.0 -29.1 3.05 Q-29.3 3.4 -28.6 3.7 L-28.55 3.65 -28.45 3.55 -28.5 3.5 M-26.05 0.65 L-26.15 0.6 -26.2 0.65 -26.25 0.95 Q-26.05 1.2 -25.9 0.95 L-25.9 0.9 -26.0 0.7 -26.05 0.65 M-27.85 2.25 L-27.9 2.3 -28.0 2.4 Q-27.8 2.85 -27.4 2.7 -27.55 2.4 -27.85 2.25 M-29.2 2.05 Q-29.05 2.15 -28.95 1.95 L-29.0 1.9 -29.05 1.7 -29.15 1.65 -29.2 1.6 Q-29.45 1.8 -29.2 2.05 M-29.75 0.5 L-29.8 0.45 -29.85 0.5 Q-30.2 1.35 -29.95 2.25 L-29.85 2.3 -29.75 2.25 -29.7 2.15 -29.7 0.55 -29.75 0.5 M-28.1 -0.6 L-28.25 -0.7 -28.75 -0.35 -28.75 -0.3 -28.7 -0.2 Q-28.35 -0.2 -28.1 -0.55 L-28.1 -0.6 M-26.5 -2.1 L-26.65 -2.25 -28.15 -1.85 -28.15 -1.8 -28.15 -1.7 Q-27.3 -1.6 -26.5 -2.1 M-25.3 4.25 L-25.45 4.1 -26.45 4.55 -26.45 4.6 -26.45 4.7 Q-25.8 4.85 -25.3 4.25 M-24.45 1.65 L-24.5 1.6 -24.5 1.65 Q-24.7 2.0 -24.4 2.55 L-24.2 2.5 -24.15 2.45 -24.4 1.7 -24.45 1.65" fill="#95917b" fill-rule="evenodd" stroke="none"/>
    <path d="M-24.15 -0.6 Q-23.3 -0.2 -23.5 0.75 L-23.7 0.75 -23.7 0.7 -23.9 -0.1 -24.05 -0.3 Q-24.2 -0.3 -24.3 -0.4 L-24.25 -0.55 -24.15 -0.6 M-24.05 -1.35 Q-25.55 -2.65 -27.55 -2.6 -27.85 -2.4 -28.2 -2.35 L-28.3 -2.35 -28.05 -2.2 Q-29.5 -1.8 -30.2 -0.4 -30.6 0.4 -30.6 1.3 L-30.6 1.9 -30.6 1.95 -30.55 1.95 -30.45 2.35 -30.3 2.7 -30.05 3.1 -29.95 3.35 Q-28.9 4.9 -27.05 5.15 -24.9 5.4 -23.8 3.75 L-23.55 3.25 -23.45 3.15 Q-23.05 1.95 -22.9 0.65 -22.85 -0.2 -23.3 -0.9 L-23.45 -0.95 -23.55 -1.0 -23.95 -1.3 -24.05 -1.35 M-23.0 -0.8 L-22.7 -0.45 -22.65 1.05 -23.2 3.35 -23.25 3.4 -23.35 3.45 Q-24.25 5.55 -26.7 5.4 L-28.75 4.95 -29.4 4.3 -29.5 4.2 -29.95 3.8 -30.25 3.5 -30.25 3.45 -30.3 3.2 -30.55 2.9 -30.9 1.6 Q-30.95 0.45 -30.55 -0.55 L-30.55 -0.6 -30.45 -0.65 -30.4 -0.7 -30.4 -0.75 -30.35 -0.8 -30.25 -0.95 -30.3 -1.0 -30.3 -1.05 -30.35 -1.05 Q-30.1 -1.85 -29.3 -2.25 L-27.55 -2.9 Q-25.65 -2.9 -24.05 -1.85 L-23.0 -0.8 M-24.45 1.65 L-24.4 1.7 -24.15 2.45 -24.2 2.5 -24.4 2.55 Q-24.7 2.0 -24.5 1.65 L-24.5 1.6 -24.45 1.65 M-25.3 4.25 Q-25.8 4.85 -26.45 4.7 L-26.45 4.6 -26.45 4.55 -25.45 4.1 -25.3 4.25 M-26.5 -2.1 Q-27.3 -1.6 -28.15 -1.7 L-28.15 -1.8 -28.15 -1.85 -26.65 -2.25 -26.5 -2.1 M-28.1 -0.6 L-28.1 -0.55 Q-28.35 -0.2 -28.7 -0.2 L-28.75 -0.3 -28.75 -0.35 -28.25 -0.7 -28.1 -0.6 M-29.75 0.5 L-29.7 0.55 -29.7 2.15 -29.75 2.25 -29.85 2.3 -29.95 2.25 Q-30.2 1.35 -29.85 0.5 L-29.8 0.45 -29.75 0.5 M-29.2 2.05 Q-29.45 1.8 -29.2 1.6 L-29.15 1.65 -29.05 1.7 -29.0 1.9 -28.95 1.95 Q-29.05 2.15 -29.2 2.05 M-27.85 2.25 Q-27.55 2.4 -27.4 2.7 -27.8 2.85 -28.0 2.4 L-27.9 2.3 -27.85 2.25 M-26.05 0.65 L-26.0 0.7 -25.9 0.9 -25.9 0.95 Q-26.05 1.2 -26.25 0.95 L-26.2 0.65 -26.15 0.6 -26.05 0.65 M-28.5 3.5 L-28.45 3.55 -28.55 3.65 -28.6 3.7 Q-29.3 3.4 -29.1 3.05 L-29.1 3.0 -28.5 3.5" fill="#000000" fill-rule="evenodd" stroke="none"/>
  </g>
</svg>
