<?xml version="1.0" encoding="UTF-8" standalone="no"?>
<svg xmlns:xlink="http://www.w3.org/1999/xlink" height="25.05px" width="56.55px" xmlns="http://www.w3.org/2000/svg">
  <g transform="matrix(1.0, 0.0, 0.0, 1.0, 28.25, 12.5)">
    <path d="M27.3 -0.4 L27.05 -0.5 26.85 -0.5 26.85 -0.4 26.5 -0.5 25.2 -0.8 22.0 -1.4 18.55 -1.95 16.0 -2.25 13.95 -2.35 13.55 -2.45 2.55 -2.4 1.0 -2.25 -2.05 -1.95 -10.45 -1.1 -12.25 -0.75 -15.55 -0.15 -21.55 1.0 -24.6 1.85 Q-25.8 2.2 -26.65 2.65 L-26.8 2.75 -26.8 2.7 Q-27.05 2.6 -27.4 2.95 L-27.5 3.05 -27.6 3.1 -27.7 3.15 -27.7 -12.0 27.3 -12.0 27.3 -0.4" fill="#000000" fill-rule="evenodd" stroke="none"/>
    <path d="M-27.7 3.15 L-27.6 3.1 -27.5 3.05 -27.4 2.95 Q-27.05 2.6 -26.8 2.7 L-26.8 2.75 -26.65 2.65 Q-25.8 2.2 -24.6 1.85 L-21.55 1.0 -15.55 -0.15 -12.25 -0.75 -10.45 -1.1 -2.05 -1.95 1.0 -2.25 2.55 -2.4 13.55 -2.45 13.95 -2.35 16.0 -2.25 18.55 -1.95 22.0 -1.4 25.2 -0.8 26.5 -0.5 26.85 -0.4 26.85 -0.5 27.05 -0.5 27.3 -0.4 27.45 -0.3 27.55 -0.3 Q28.15 -0.15 28.15 0.05 L27.95 0.15 28.0 0.3 28.15 1.15 28.05 1.35 Q27.9 1.4 27.9 1.65 L27.7 1.7 27.55 1.45 27.55 1.15 27.65 0.35 27.3 0.05 27.3 9.35 24.85 9.15 22.95 8.75 20.0 8.4 8.2 7.15 6.75 7.0 5.9 6.95 2.2 6.85 -4.6 6.9 -8.0 7.0 -9.7 7.15 -14.55 7.55 -20.5 8.35 -24.5 9.15 -26.2 9.55 -27.25 9.9 -27.7 10.1 -27.7 4.3 -28.0 4.4 -28.05 4.2 -28.0 3.7 -28.15 3.8 -28.2 3.6 -27.7 3.15" fill="#000033" fill-rule="evenodd" stroke="none"/>
    <path d="M-27.7 10.1 L-27.25 9.9 -26.2 9.55 -24.5 9.15 -20.5 8.35 -14.55 7.55 -9.7 7.15 -8.0 7.0 -4.6 6.9 2.2 6.85 5.9 6.95 6.75 7.0 8.2 7.15 20.0 8.4 22.95 8.75 24.85 9.15 27.3 9.35 28.25 9.4 28.3 9.6 28.25 9.75 27.3 9.7 27.3 12.0 -27.7 12.0 -27.7 10.55 -27.85 10.65 -28.1 10.65 -28.15 10.5 -27.7 10.1" fill="#0059b3" fill-rule="evenodd" stroke="none"/>
    <path d="M27.3 12.0 L-27.7 12.0" fill="none" stroke="#000000" stroke-linecap="round" stroke-linejoin="round" stroke-width="1.0"/>
    <path d="M10.85 -8.65 L10.9 -8.5 10.85 -8.35 10.55 -8.35 10.5 -8.5 10.85 -8.65 M-18.85 -8.4 L-18.8 -8.4 -18.55 -8.4 -18.6 -8.35 -18.85 -8.35 -18.85 -8.4 M-4.75 -8.9 L-5.05 -8.9 -5.1 -9.05 -4.8 -9.35 -4.65 -9.1 -4.75 -8.9" fill="#0059b3" fill-rule="evenodd" stroke="none"/>
    <path d="M-6.05 4.2 L-6.25 4.2 -6.3 3.95 -6.05 3.9 -6.0 4.05 -6.05 4.2 M-19.4 2.5 L-19.7 2.7 -19.75 2.55 Q-19.75 2.35 -19.45 2.35 L-19.4 2.5" fill="#5eaeff" fill-rule="evenodd" stroke="none"/>
    <path d="M6.15 -10.0 Q6.15 -9.45 5.9 -9.45 5.7 -9.45 5.7 -9.75 L5.8 -10.15 5.7 -10.45 5.9 -10.5 6.15 -10.0 M17.35 -8.4 L16.6 -7.8 15.85 -7.5 14.8 -7.7 14.7 -7.95 Q14.7 -8.2 14.95 -8.3 L15.9 -8.5 17.35 -8.4 M22.25 -4.65 L22.75 -4.65 22.8 -4.5 22.75 -4.35 22.25 -4.35 22.15 -3.7 22.15 -2.7 21.9 -2.65 21.85 -3.55 21.95 -4.3 21.8 -4.3 21.55 -4.25 21.3 -4.25 21.25 -4.4 21.7 -4.65 21.85 -6.6 Q22.25 -6.7 22.25 -6.15 L22.15 -5.6 22.15 -5.1 22.15 -4.85 22.25 -4.65 M24.35 9.65 Q24.35 9.3 24.8 9.3 25.2 9.3 25.2 9.6 25.2 10.0 24.85 10.0 L24.45 9.95 24.35 9.65 M10.85 5.1 Q10.85 5.6 10.1 5.6 9.65 5.6 9.45 5.2 L9.35 4.75 Q9.35 4.45 9.55 4.3 9.8 4.1 10.1 4.5 L10.55 4.8 10.85 5.1 M-23.65 -1.7 Q-23.65 -3.15 -22.95 -2.8 L-22.95 -1.3 -22.85 -1.3 -22.8 -1.15 -22.95 -1.05 -22.95 -0.7 -23.15 -0.65 -23.1 0.1 -23.25 0.15 -23.5 -0.75 -23.55 -0.85 -23.9 -0.8 -24.25 -0.8 -24.3 -0.85 -24.3 -1.1 -23.7 -1.15 -23.75 -1.2 -23.9 -1.6 -23.65 -1.55 -23.65 -1.7 M-18.55 -8.4 L-18.8 -8.4 -18.85 -8.4 Q-19.4 -8.4 -19.4 -8.75 L-18.4 -8.8 -18.45 -8.45 -18.55 -8.4 M-7.9 -2.55 Q-7.9 -3.05 -7.25 -2.9 -6.65 -2.7 -6.65 -2.2 L-6.7 -1.9 Q-6.75 -1.75 -7.1 -1.75 -7.45 -1.75 -7.7 -2.05 L-7.9 -2.55 M-9.3 7.35 L-9.3 6.85 -9.1 6.5 -8.9 6.8 -9.05 7.35 -9.3 7.35 M-5.8 10.1 L-6.15 10.25 -6.9 9.4 Q-6.9 8.8 -6.45 9.0 -6.05 9.2 -5.8 9.65 L-5.8 10.1" fill="#c4e1ff" fill-rule="evenodd" stroke="none"/>
    <path d="M5.75 -11.15 L5.3 -10.6 5.25 -10.6 4.6 -9.9 4.6 -9.85 4.5 -9.8 2.9 -8.35 1.4 -6.9 1.35 -6.75 1.25 -6.75 0.35 -5.9 -2.15 -3.5 -3.45 -2.25 -4.0 -1.65 -4.25 -1.3 -3.8 -0.9 -3.2 -0.25 -3.15 -0.15 -4.25 1.05 -4.05 1.3 -3.75 1.9 -3.35 2.4 -3.25 2.2 -2.9 2.3 -2.55 2.55 -2.1 2.7 -2.0 2.95 -2.4 3.5 -2.4 3.55 -1.65 4.3 -1.25 4.75 -1.0 5.0 -0.9 4.85 Q-0.65 4.45 -0.35 4.45 -0.15 4.45 0.3 5.1 L0.5 5.25 0.6 5.4 0.75 5.75 0.25 6.3 0.8 6.85 1.5 7.65 2.6 9.15 2.7 9.15 2.75 9.3 2.7 9.45 2.7 9.6 2.55 9.65 2.4 9.5 Q1.95 9.4 1.2 8.9 L0.25 8.15 -0.55 7.4 -0.9 7.15 -0.95 7.15 -1.3 7.5 -2.05 6.95 -2.5 6.4 -2.05 5.95 -2.75 5.4 -3.05 5.05 -3.55 4.7 -3.55 4.65 -3.9 4.8 -4.5 4.55 -5.15 4.15 -4.9 3.75 -5.5 3.2 -6.05 2.75 -6.75 3.4 -7.25 4.0 -7.35 4.35 -7.35 4.4 -7.4 4.55 -8.65 3.95 -9.05 3.6 -9.05 3.7 -9.0 3.9 -9.15 4.0 -10.3 7.25 -10.45 7.95 -10.5 8.05 -10.4 8.25 -10.55 8.35 -10.75 8.35 -10.95 8.4 -10.95 8.3 -11.8 8.05 -12.25 7.9 -13.05 7.75 -13.35 7.7 -13.4 7.75 -13.45 7.6 -13.6 7.55 -14.95 7.4 -15.5 7.15 Q-15.6 7.05 -16.2 6.9 L-16.2 6.65 -16.05 6.65 -16.05 6.45 -15.3 5.65 -14.85 5.2 -12.05 1.8 -11.8 1.65 -11.7 1.45 -11.55 1.25 -12.4 0.4 -13.6 -1.0 -13.6 -1.1 -13.65 -1.2 -12.55 -2.7 -13.55 -3.7 -14.25 -4.3 -14.6 -4.8 -14.4 -5.3 -14.5 -5.4 -14.65 -5.8 -15.6 -7.6 -16.4 -8.8 -16.85 -9.3 -17.2 -9.95 -16.95 -10.0 -15.3 -8.3 Q-13.35 -6.8 -12.55 -6.95 L-12.5 -6.8 -11.95 -7.0 -11.4 -6.5 -10.9 -6.05 -10.25 -5.55 -9.95 -5.2 -9.65 -5.45 -8.8 -5.95 -8.65 -5.9 -8.55 -5.8 -8.3 -5.4 -7.5 -4.7 -7.45 -4.65 -7.2 -5.2 -6.15 -8.0 -5.75 -9.05 -5.75 -9.1 -5.7 -9.2 -5.3 -10.3 -4.95 -10.95 -5.0 -11.2 -4.6 -11.8 -4.75 -11.9 -4.55 -12.05 -4.5 -12.25 -4.25 -12.5 -4.15 -12.3 -3.9 -12.1 0.4 -12.1 0.65 -12.25 0.7 -12.1 4.85 -12.1 4.75 -12.15 4.8 -12.3 5.1 -12.35 5.85 -12.0 6.1 -11.55 5.75 -11.15 M5.45 -11.8 L0.65 -11.75 0.55 -11.75 0.3 -11.4 0.3 -11.35 0.5 -11.35 1.65 -11.0 2.85 -10.75 3.45 -10.55 3.85 -10.3 4.35 -10.15 4.65 -10.5 4.95 -10.8 5.25 -11.15 5.75 -11.6 5.45 -11.8 M3.25 -10.2 L1.85 -10.6 0.95 -10.85 0.05 -11.0 -0.95 -9.55 -1.7 -8.3 -1.6 -8.3 0.2 -7.7 0.3 -7.6 1.1 -7.35 1.25 -7.2 4.0 -9.85 3.65 -10.0 3.25 -10.2 M0.15 -11.75 L-2.5 -11.8 -2.15 -11.7 -1.2 -11.5 -0.15 -11.35 0.1 -11.7 0.15 -11.75 M0.65 -7.1 L-0.1 -7.45 -1.9 -8.1 -2.65 -7.25 -4.2 -5.35 -3.4 -5.2 -2.05 -4.85 -1.45 -4.55 -1.05 -5.05 0.95 -6.95 0.65 -7.1 M1.15 8.4 L1.6 8.65 2.1 9.0 2.0 8.85 1.3 7.95 0.05 6.45 -0.4 6.7 -0.65 6.9 0.75 8.05 1.15 8.4 M-12.95 -6.6 L-12.9 -6.6 -12.95 -6.6 Q-13.55 -6.7 -14.2 -7.1 L-15.4 -7.95 -14.75 -6.7 -14.1 -5.6 -13.65 -6.05 -12.95 -6.6 M-10.15 -5.05 L-11.1 -5.8 -12.05 -6.65 Q-12.75 -6.65 -14.3 -4.85 L-13.8 -4.3 -13.2 -3.8 -12.35 -2.95 -11.65 -3.7 -10.35 -4.85 -10.15 -5.05 M-11.0 -3.75 L-11.15 -3.75 -11.25 -3.6 -11.5 -3.4 -12.2 -2.6 -12.2 -2.55 -12.3 -2.5 -12.6 -2.2 -12.95 -1.6 -13.2 -1.55 -13.1 -1.35 -13.25 -1.2 -12.15 0.15 -11.25 1.15 -10.8 1.6 -9.05 3.05 -8.75 3.4 -8.25 3.75 Q-7.85 3.9 -7.7 4.1 L-6.8 3.05 -6.05 2.25 -5.9 2.25 -5.75 2.05 -5.75 2.0 -5.7 1.95 -4.55 0.8 -3.55 -0.1 -4.05 -0.65 -4.6 -1.15 -4.65 -1.15 -4.7 -1.25 -4.8 -1.3 Q-4.7 -1.5 -4.95 -1.55 L-5.05 -1.55 -5.75 -2.4 -6.05 -2.55 -7.25 -2.85 Q-7.9 -2.9 -8.0 -3.3 L-7.95 -3.3 -8.0 -3.35 -7.8 -3.7 -7.6 -4.25 -8.8 -5.5 -8.95 -5.5 -9.15 -5.35 Q-9.35 -5.2 -9.4 -5.2 L-10.15 -4.6 -11.0 -3.75 M-0.55 -11.1 L-2.25 -11.45 -4.3 -11.7 -5.05 -10.05 -5.3 -9.3 -4.3 -9.05 -2.85 -8.7 -2.1 -8.45 -1.9 -8.75 -1.15 -9.9 -0.4 -11.05 -0.55 -11.1 M-2.3 -8.2 L-5.45 -8.9 -5.9 -7.7 -6.6 -5.7 -5.95 -5.6 -5.1 -5.45 -4.6 -5.4 -2.85 -7.6 -2.3 -8.2 M-6.8 -3.15 L-6.5 -3.1 -6.45 -3.1 -6.4 -3.05 -6.4 -3.1 Q-5.95 -3.15 -5.95 -3.6 L-5.6 -4.15 -4.85 -5.1 -6.75 -5.3 -7.1 -4.45 -7.35 -3.95 -7.6 -3.3 -6.8 -3.15 M-5.8 -3.1 L-5.85 -2.95 -5.65 -2.75 -5.55 -2.7 -4.4 -1.75 -3.65 -2.55 -2.4 -3.75 -1.7 -4.3 -1.95 -4.5 -4.0 -5.0 -4.45 -5.05 -4.55 -4.9 -5.1 -4.25 Q-5.2 -3.9 -5.45 -3.65 L-5.8 -3.1 M-2.85 3.5 L-2.5 3.05 Q-2.8 2.65 -3.1 2.7 L-3.15 2.85 -3.3 2.9 -3.4 2.85 -3.7 3.1 -4.3 3.6 -4.35 3.7 Q-4.75 3.7 -4.75 3.85 L-4.7 4.05 -4.75 4.05 -4.25 4.35 -3.85 4.45 -3.25 3.9 -3.05 3.8 -2.85 3.6 -2.85 3.5 M-4.55 1.3 L-5.55 2.25 -5.8 2.5 -5.25 3.0 -4.65 3.5 -4.25 3.15 -3.6 2.65 -4.05 2.05 -4.55 1.3 M-3.3 4.45 L-2.9 4.7 -2.55 5.1 -1.85 5.75 -1.4 5.4 -1.2 5.2 -2.65 3.75 -2.9 3.95 -3.3 4.4 -3.3 4.45 M-0.15 6.1 L0.35 5.7 -0.2 5.05 Q-0.2 4.9 -0.3 4.9 L-0.5 4.95 -0.8 5.2 -1.4 5.85 -1.85 6.25 -2.0 6.25 -2.0 6.35 -2.05 6.4 -2.0 6.55 -1.95 6.55 -1.75 6.8 -1.35 7.05 -1.1 6.9 -1.05 6.9 -1.1 6.7 -0.95 6.7 -0.75 6.5 Q-0.15 6.3 -0.15 6.15 L-0.15 6.1 M-9.3 3.35 L-9.5 3.2 -10.2 2.6 -10.45 3.2 -10.1 3.35 -9.35 3.6 -9.35 3.4 -9.3 3.35 M-10.05 3.75 L-10.25 3.6 -10.65 3.5 -11.3 4.45 -10.8 4.5 Q-10.0 4.6 -9.75 4.8 L-9.65 4.35 -9.45 3.9 -10.05 3.75 M-9.8 5.05 L-11.05 4.8 -11.5 4.75 -11.8 5.1 -12.25 6.0 -11.8 6.05 -10.3 6.35 -10.0 5.6 -9.8 5.05 M-12.45 2.95 L-12.35 2.95 -10.85 3.1 -10.7 2.8 -10.55 2.4 -10.45 2.35 -11.0 1.85 -11.35 1.5 -12.3 2.7 -12.45 2.95 M-12.7 3.3 L-13.45 4.1 -13.75 4.5 -12.2 4.4 -11.7 4.45 -11.55 4.15 -11.1 3.5 -11.9 3.35 -12.7 3.3 -12.7 3.25 -12.7 3.3 M-14.95 6.0 L-15.1 5.95 -15.25 6.05 -15.7 6.7 Q-15.5 6.75 -15.2 6.95 L-14.65 7.05 -14.05 7.15 -13.45 7.3 -12.85 6.3 -13.65 6.25 -14.65 6.05 -14.95 6.0 M-14.8 5.65 L-14.3 5.75 -12.7 5.95 -12.65 5.95 -12.05 4.85 -11.9 4.7 -13.25 4.8 -14.05 4.8 -14.65 5.45 -14.8 5.65 M-10.55 6.85 L-10.5 6.75 -10.75 6.65 -11.0 6.55 -11.8 6.45 -12.45 6.35 -13.1 7.4 -12.65 7.45 -11.45 7.75 -11.2 7.9 -10.9 7.95 -10.75 7.55 -10.55 6.85" fill="#000000" fill-rule="evenodd" stroke="none"/>
    <path d="M-5.75 2.0 L-5.75 2.05 -5.9 2.25 -6.05 2.25 -6.8 3.05 -7.7 4.1 Q-7.85 3.9 -8.25 3.75 L-8.75 3.4 -9.05 3.05 -10.8 1.6 -11.25 1.15 -12.15 0.15 -13.25 -1.2 -13.1 -1.35 -13.2 -1.55 -12.95 -1.6 -12.3 -1.1 -11.05 -0.15 -10.55 0.3 -10.5 0.45 -10.3 0.55 -10.0 0.6 -9.9 0.8 -9.75 1.0 -9.55 1.05 -9.25 1.2 -8.4 1.65 -5.8 1.85 -5.75 2.0 M-4.35 3.7 L-4.2 3.65 -3.15 3.45 -2.9 3.45 -2.85 3.5 -2.85 3.6 -3.05 3.8 -3.25 3.9 -3.85 4.45 -4.25 4.35 -4.75 4.05 -4.7 4.05 -4.75 3.85 Q-4.75 3.7 -4.35 3.7 M-1.85 6.25 L-1.4 6.3 -0.2 6.0 -0.15 6.1 -0.15 6.15 Q-0.15 6.3 -0.75 6.5 L-0.95 6.7 -1.1 6.7 -1.05 6.9 -1.1 6.9 -1.35 7.05 -1.75 6.8 -1.95 6.55 -2.0 6.55 -2.0 6.35 -2.0 6.25 -1.85 6.25" fill="#9bc8d2" fill-rule="evenodd" stroke="none"/>
    <path d="M-12.95 -1.6 L-12.6 -2.2 -12.3 -2.5 -12.2 -2.55 -12.2 -2.6 -11.5 -3.4 -11.25 -3.6 -11.15 -3.75 -11.0 -3.75 -10.8 -3.6 -10.2 -3.2 -8.6 -2.5 Q-7.85 -2.1 -6.75 -1.95 L-5.55 -1.7 -5.05 -1.55 -4.95 -1.55 Q-4.7 -1.5 -4.8 -1.3 L-4.7 -1.25 -4.65 -1.15 -4.6 -1.15 -4.05 -0.65 -3.55 -0.1 -4.55 0.8 -5.7 1.95 -5.75 2.0 -5.8 1.85 -8.4 1.65 -9.25 1.2 -9.55 1.05 -9.75 1.0 -9.9 0.8 -10.0 0.6 -10.3 0.55 -10.5 0.45 -10.55 0.3 -11.05 -0.15 -12.3 -1.1 -12.95 -1.6 M-4.35 3.7 L-4.3 3.6 -3.7 3.1 -3.4 2.85 -3.3 2.9 -3.15 2.85 -3.1 2.7 Q-2.8 2.65 -2.5 3.05 L-2.85 3.5 -2.9 3.45 -3.15 3.45 -4.2 3.65 -4.35 3.7 M-0.15 6.1 L-0.2 6.0 -1.4 6.3 -1.85 6.25 -1.4 5.85 -0.8 5.2 -0.5 4.95 -0.3 4.9 Q-0.2 4.9 -0.2 5.05 L0.35 5.7 -0.15 6.1" fill="#6b787a" fill-rule="evenodd" stroke="none"/>
    <path d="M1.15 8.4 L0.75 8.05 -0.65 6.9 -0.4 6.7 0.05 6.45 1.3 7.95 2.0 8.85 2.1 9.0 1.6 8.65 1.15 8.4 M-12.95 -6.6 L-13.65 -6.05 -14.1 -5.6 -14.75 -6.7 -15.4 -7.95 -14.2 -7.1 Q-13.55 -6.7 -12.95 -6.6 M-10.15 -5.05 L-10.35 -4.85 -11.65 -3.7 -12.35 -2.95 -13.2 -3.8 -13.8 -4.3 -14.3 -4.85 Q-12.75 -6.65 -12.05 -6.65 L-11.1 -5.8 -10.15 -5.05 M-11.0 -3.75 L-10.15 -4.6 -9.4 -5.2 Q-9.35 -5.2 -9.15 -5.35 L-8.95 -5.5 -8.8 -5.5 -7.6 -4.25 -7.8 -3.7 -8.0 -3.35 -7.95 -3.3 -8.0 -3.3 Q-7.9 -2.9 -7.25 -2.85 L-6.05 -2.55 -5.75 -2.4 -5.05 -1.55 -5.55 -1.7 -6.75 -1.95 Q-7.85 -2.1 -8.6 -2.5 L-10.2 -3.2 -10.8 -3.6 -11.0 -3.75 M-3.3 4.45 L-3.3 4.4 -2.9 3.95 -2.65 3.75 -1.2 5.2 -1.4 5.4 -1.85 5.75 -2.55 5.1 -2.9 4.7 -3.3 4.45 M-4.55 1.3 L-4.05 2.05 -3.6 2.65 -4.25 3.15 -4.65 3.5 -5.25 3.0 -5.8 2.5 -5.55 2.25 -4.55 1.3" fill="#404040" fill-rule="evenodd" stroke="none"/>
    <path d="M-2.3 -8.2 L-2.85 -7.6 -4.6 -5.4 -5.1 -5.45 -5.95 -5.6 -6.6 -5.7 -5.9 -7.7 -5.45 -8.9 -2.3 -8.2 M-0.55 -11.1 L-0.4 -11.05 -1.15 -9.9 -1.9 -8.75 -2.1 -8.45 -2.85 -8.7 -4.3 -9.05 -5.3 -9.3 -5.05 -10.05 -4.3 -11.7 -2.25 -11.45 -0.55 -11.1 M-6.8 -3.15 L-7.6 -3.3 -7.35 -3.95 -7.1 -4.45 -6.75 -5.3 -4.85 -5.1 -5.6 -4.15 -5.95 -3.6 Q-5.95 -3.15 -6.4 -3.1 L-6.4 -3.05 -6.45 -3.1 -6.5 -3.1 -6.8 -3.15 M-12.7 3.3 L-11.9 3.35 -11.1 3.5 -11.55 4.15 -11.7 4.45 -12.2 4.4 -13.75 4.5 -13.45 4.1 -12.7 3.3 M-12.45 2.95 L-12.3 2.7 -11.35 1.5 -11.0 1.85 -10.45 2.35 -10.55 2.4 -10.7 2.8 -10.85 3.1 -12.35 2.95 -12.45 2.95 M-14.8 5.65 L-14.65 5.45 -14.05 4.8 -13.25 4.8 -11.9 4.7 -12.05 4.85 -12.65 5.95 -12.7 5.95 -14.3 5.75 -14.8 5.65 M-14.95 6.0 L-14.65 6.05 -13.65 6.25 -12.85 6.3 -13.45 7.3 -14.05 7.15 -14.65 7.05 -15.2 6.95 Q-15.5 6.75 -15.7 6.7 L-15.25 6.05 -15.1 5.95 -14.95 6.0" fill="#3673fc" fill-rule="evenodd" stroke="none"/>
    <path d="M3.25 -10.2 L3.65 -10.0 4.0 -9.85 1.25 -7.2 1.1 -7.35 0.3 -7.6 0.2 -7.7 -1.6 -8.3 -1.7 -8.3 -0.95 -9.55 0.05 -11.0 0.95 -10.85 1.85 -10.6 3.25 -10.2 M5.45 -11.8 L5.75 -11.6 5.25 -11.15 4.95 -10.8 4.65 -10.5 4.35 -10.15 3.85 -10.3 3.45 -10.55 2.85 -10.75 1.65 -11.0 0.5 -11.35 0.3 -11.35 0.3 -11.4 0.55 -11.75 0.65 -11.75 5.45 -11.8 M0.65 -7.1 L0.95 -6.95 -1.05 -5.05 -1.45 -4.55 -2.05 -4.85 -3.4 -5.2 -4.2 -5.35 -2.65 -7.25 -1.9 -8.1 -0.1 -7.45 0.65 -7.1 M-5.8 -3.1 L-5.45 -3.65 Q-5.2 -3.9 -5.1 -4.25 L-4.55 -4.9 -4.45 -5.05 -4.0 -5.0 -1.95 -4.5 -1.7 -4.3 -2.4 -3.75 -3.65 -2.55 -4.4 -1.75 -5.55 -2.7 -5.65 -2.75 -5.85 -2.95 -5.8 -3.1 M-9.8 5.05 L-10.0 5.6 -10.3 6.35 -11.8 6.05 -12.25 6.0 -11.8 5.1 -11.5 4.75 -11.05 4.8 -9.8 5.05 M-10.05 3.75 L-9.45 3.9 -9.65 4.35 -9.75 4.8 Q-10.0 4.6 -10.8 4.5 L-11.3 4.45 -10.65 3.5 -10.25 3.6 -10.05 3.75 M-9.3 3.35 L-9.35 3.4 -9.35 3.6 -10.1 3.35 -10.45 3.2 -10.2 2.6 -9.5 3.2 -9.3 3.35 M-10.55 6.85 L-10.75 7.55 -10.9 7.95 -11.2 7.9 -11.45 7.75 -12.65 7.45 -13.1 7.4 -12.45 6.35 -11.8 6.45 -11.0 6.55 -10.75 6.65 -10.5 6.75 -10.55 6.85" fill="#79a2fd" fill-rule="evenodd" stroke="none"/>
    <path d="M-27.75 -12.0 L27.8 -12.0 27.8 12.05 -27.75 12.05 -27.75 -12.0 Z" fill="none" stroke="#000000" stroke-linecap="round" stroke-linejoin="round" stroke-width="1.0"/>
  </g>
</svg>
