<?xml version="1.0" encoding="UTF-8" standalone="no"?>
<svg xmlns:xlink="http://www.w3.org/1999/xlink" height="9.0px" width="33.8px" xmlns="http://www.w3.org/2000/svg">
  <g transform="matrix(1.0, 0.0, 0.0, 1.0, 31.35, 2.55)">
    <path d="M1.6 -2.5 L1.75 -2.3 2.2 1.4 2.2 1.45 2.3 1.45 2.3 1.5 2.4 2.7 2.0 2.75 -1.55 3.15 -1.55 3.1 -1.65 3.05 -1.6 1.95 -7.7 2.9 -7.75 2.9 -7.85 3.05 -8.05 2.95 -11.7 3.5 -11.8 3.5 -12.7 3.65 -12.85 3.7 -12.9 3.65 -15.5 4.05 -15.55 4.1 -15.6 4.2 -15.8 4.1 -17.0 4.3 -17.25 4.4 -17.35 4.35 -22.1 5.05 -22.15 5.15 -22.35 5.25 -22.4 5.45 -22.45 5.5 -22.95 5.6 -23.4 5.7 -23.55 5.85 -23.5 5.85 -23.45 5.9 -25.75 6.4 Q-28.45 6.7 -30.15 4.45 L-30.3 4.3 -30.6 2.75 -30.65 2.75 -30.75 2.8 -31.1 2.8 -31.3 2.7 -31.35 2.7 -31.35 2.2 -31.35 2.15 -31.35 2.05 -31.3 1.95 -31.15 2.0 -22.8 0.7 -22.35 0.7 -22.3 0.75 -22.3 0.8 -22.3 0.85 Q-22.2 1.0 -22.25 1.25 L-22.25 1.4 -22.3 1.55 -21.9 1.55 -21.85 1.6 -21.75 1.9 -21.75 1.95 -21.7 2.1 -21.3 2.1 -16.2 1.3 -16.2 1.25 -16.15 1.2 -16.1 1.2 -16.0 1.25 -15.95 1.25 -14.6 1.05 -14.6 1.0 -14.55 0.95 -14.5 0.95 -14.45 0.9 -14.4 0.95 -14.35 0.95 -14.35 1.0 -2.1 -0.9 -2.2 -1.85 -2.2 -1.9 -2.15 -1.95 -2.05 -2.0 1.55 -2.55 1.6 -2.5 M0.95 -1.35 L1.15 -1.3 1.2 -1.25 1.2 -1.15 1.2 -1.1 1.45 -0.85 1.5 -0.8 1.65 0.0 1.65 0.2 1.65 0.3 1.6 0.35 1.65 1.15 1.65 1.2 1.75 1.3 1.75 1.35 1.7 1.4 1.6 1.5 1.45 1.4 1.35 1.45 1.3 1.5 -1.35 1.95 -1.35 2.8 2.05 2.35 2.1 2.4 2.25 2.35 2.1 1.7 2.1 1.65 1.95 1.6 1.95 1.45 1.5 -2.25 -1.85 -1.75 -1.85 -1.7 -1.85 -0.9 0.75 -1.3 0.8 -1.3 0.85 -1.4 0.9 -1.4 0.95 -1.35 M0.65 -1.0 L-8.1 0.3 -8.05 0.35 -8.0 0.35 -8.3 1.9 -8.35 1.95 -8.3 2.1 -8.3 2.2 -8.3 2.25 -8.2 2.3 -8.15 2.35 -8.05 2.4 -7.9 2.6 1.25 1.1 1.35 1.1 1.35 1.05 1.3 0.95 1.35 0.9 1.35 0.85 1.3 0.4 1.25 0.25 1.3 0.2 1.35 0.15 1.25 -0.45 1.2 -0.65 1.0 -0.95 0.85 -0.85 0.8 -0.9 0.65 -1.0 M-0.05 0.0 L-0.1 0.0 -0.2 0.2 -0.05 0.55 -0.05 0.65 0.45 0.55 0.4 0.2 0.3 0.15 0.25 0.0 -0.05 0.0 M0.55 -0.15 L0.6 -0.1 0.75 0.5 0.7 0.6 Q0.5 1.1 -0.05 0.95 L-0.3 0.75 -0.35 0.55 -0.5 0.55 -0.5 0.5 -0.55 0.45 -0.55 0.35 -0.25 -0.2 -0.1 -0.35 0.3 -0.25 0.35 -0.35 0.4 -0.3 0.45 -0.3 0.55 -0.15 M-31.0 2.4 L-31.0 2.5 -31.0 2.55 -30.65 2.5 -30.6 2.5 -30.55 2.55 -22.6 1.35 -22.55 1.25 -22.55 1.05 -22.75 1.1 -31.0 2.15 -31.0 2.4 M-30.1 4.05 L-29.8 4.35 Q-28.95 5.5 -27.7 5.9 L-27.0 6.1 -26.8 6.1 -26.75 6.15 Q-25.2 6.0 -24.0 5.1 L-24.0 5.05 Q-23.3 4.25 -23.0 3.3 L-22.85 2.9 -22.8 2.8 -22.6 1.5 -30.4 2.75 -30.1 4.0 -30.1 4.05 M-22.7 3.5 L-22.85 3.6 -23.0 4.0 -23.35 4.65 -23.45 4.85 -23.4 4.9 -24.45 5.8 -24.2 5.8 -23.3 5.25 -23.2 5.3 -22.9 5.15 -22.75 5.3 -22.65 5.15 -22.6 5.0 -22.55 5.0 -22.4 5.1 -22.35 4.45 -22.4 4.45 -22.45 4.4 -22.25 2.95 -22.1 2.3 -22.05 2.3 -22.05 2.0 -22.05 1.95 -22.0 1.95 -22.1 1.85 -22.35 1.8 -22.7 3.4 -22.7 3.45 -22.7 3.5 M-21.85 2.85 L-22.15 4.8 -22.15 4.85 -17.25 4.1 -17.25 4.0 -17.1 3.75 -16.9 3.0 -16.9 2.9 -17.1 2.65 -17.5 2.05 -17.6 2.0 -17.65 1.85 -17.65 1.8 -21.05 2.3 -21.15 2.3 -21.7 2.4 -21.85 2.85 M-16.85 2.55 L-16.85 2.65 -16.75 2.7 -16.3 1.6 -17.35 1.75 -17.35 1.8 -16.85 2.55 M-12.6 1.0 L-14.3 1.25 -14.35 1.3 -13.45 2.05 -12.6 1.0 -12.55 1.0 -12.6 1.0 M-14.8 1.35 L-16.0 1.55 -16.55 3.05 -16.5 3.1 -16.55 3.1 -16.55 3.2 -16.8 3.7 -16.75 3.8 -16.95 4.05 -15.8 3.85 -15.6 3.6 -15.6 3.55 -15.3 2.75 -15.2 2.65 -15.2 2.6 -15.2 2.5 -14.75 1.6 -14.8 1.5 -14.75 1.4 -14.8 1.4 -14.8 1.35 -14.75 1.35 -14.8 1.35 M-14.55 1.7 L-13.7 2.5 -13.65 2.55 -13.6 2.6 -13.6 2.55 -13.4 2.65 -13.4 2.7 -13.4 2.75 -13.15 3.2 -13.05 3.3 -12.85 3.3 -12.8 3.35 -12.1 3.25 -12.15 3.15 -12.2 3.15 -12.35 3.15 -14.35 1.6 -14.45 1.5 -14.55 1.7 M-12.3 1.1 L-12.5 1.25 -13.25 2.25 -12.25 2.95 -12.2 2.9 -11.8 3.15 -11.75 3.15 -11.7 3.15 -10.85 3.05 Q-10.95 2.4 -11.3 1.85 L-11.35 1.8 -11.8 2.25 -11.75 2.35 -11.95 2.6 -11.95 2.75 -11.95 2.8 -12.3 2.8 -12.25 2.5 -12.1 2.25 -10.95 0.75 -12.45 1.0 Q-12.35 0.95 -12.35 1.05 L-12.3 1.1 M-11.1 1.55 L-11.05 1.6 Q-10.8 1.9 -10.7 2.35 L-9.75 2.1 -9.7 2.1 -9.55 0.55 -10.55 0.7 -11.1 1.4 -11.1 1.55 M-9.3 0.5 L-9.25 1.35 -8.65 1.95 -8.2 0.35 -9.3 0.5 M-8.35 2.6 L-9.3 1.45 -9.5 2.1 -9.45 2.1 -9.4 2.15 -9.35 2.2 -9.4 2.3 -9.5 2.35 -9.55 2.8 -9.55 2.85 -8.3 2.65 -8.35 2.6 M-9.8 2.45 L-10.65 2.55 -10.7 2.75 -10.7 2.8 -10.55 3.0 -9.95 2.9 -9.95 2.85 -9.85 2.75 -9.8 2.45 M-13.6 3.0 L-13.9 3.5 -13.9 3.55 -13.25 3.4 -13.6 3.0 M-14.2 3.5 L-13.8 2.85 -14.65 1.95 -14.9 2.65 -14.9 2.7 -15.4 3.8 -14.15 3.6 -14.2 3.5 M-24.6 5.9 L-24.55 5.85 -24.65 5.9 -24.6 5.9" fill="#000000" fill-rule="evenodd" stroke="none"/>
    <path d="M0.95 -1.35 L0.9 -1.4 0.85 -1.4 0.8 -1.3 0.75 -1.3 -1.85 -0.9 -1.85 -1.7 -1.85 -1.75 1.5 -2.25 1.95 1.45 1.95 1.6 2.1 1.65 2.1 1.7 2.25 2.35 2.1 2.4 2.05 2.35 -1.35 2.8 -1.35 1.95 1.3 1.5 1.35 1.45 1.45 1.4 1.6 1.5 1.7 1.4 1.75 1.35 1.75 1.3 1.65 1.2 1.65 1.15 1.6 0.35 1.65 0.3 1.65 0.2 1.65 0.0 1.5 -0.8 1.45 -0.85 1.2 -1.1 1.2 -1.15 1.2 -1.25 1.15 -1.3 0.95 -1.35 M-0.05 0.0 L0.25 0.0 0.3 0.15 0.4 0.2 0.45 0.55 -0.05 0.65 -0.05 0.55 -0.2 0.2 -0.1 0.0 -0.05 0.0" fill="#a69b9b" fill-rule="evenodd" stroke="none"/>
    <path d="M0.65 -1.0 L0.8 -0.9 0.85 -0.85 1.0 -0.95 1.2 -0.65 1.25 -0.45 1.35 0.15 1.3 0.2 1.25 0.25 1.3 0.4 1.35 0.85 1.35 0.9 1.3 0.95 1.35 1.05 1.35 1.1 1.25 1.1 -7.9 2.6 -8.05 2.4 -8.15 2.35 -8.2 2.3 -8.3 2.25 -8.3 2.2 -8.3 2.1 -8.35 1.95 -8.3 1.9 -8.0 0.35 -8.05 0.35 -8.1 0.3 0.65 -1.0 M0.55 -0.15 L0.45 -0.3 0.4 -0.3 0.35 -0.35 0.3 -0.25 -0.1 -0.35 -0.25 -0.2 -0.55 0.35 -0.55 0.45 -0.5 0.5 -0.5 0.55 -0.35 0.55 -0.3 0.75 -0.05 0.95 Q0.5 1.1 0.7 0.6 L0.75 0.5 0.6 -0.1 0.55 -0.15 M-30.1 4.05 L-30.1 4.0 -30.4 2.75 -22.6 1.5 -22.8 2.8 -22.85 2.9 -23.0 3.3 Q-23.3 4.25 -24.0 5.05 L-24.0 5.1 Q-25.2 6.0 -26.75 6.15 L-26.8 6.1 -27.0 6.1 -27.7 5.9 Q-28.95 5.5 -29.8 4.35 L-30.1 4.05 M-21.85 2.85 L-21.7 2.4 -21.15 2.3 -21.05 2.3 -17.65 1.8 -17.65 1.85 -17.6 2.0 -17.5 2.05 -17.1 2.65 -16.9 2.9 -16.9 3.0 -17.1 3.75 -17.25 4.0 -17.25 4.1 -22.15 4.85 -22.15 4.8 -21.85 2.85" fill="#715426" fill-rule="evenodd" stroke="none"/>
    <path d="M-31.0 2.4 L-31.0 2.15 -22.75 1.1 -22.55 1.05 -22.55 1.25 -22.6 1.35 -30.55 2.55 -30.6 2.5 -30.65 2.5 -31.0 2.55 -31.0 2.5 -31.0 2.4 M-22.7 3.5 L-22.7 3.45 -22.7 3.4 -22.35 1.8 -22.1 1.85 -22.0 1.95 -22.05 1.95 -22.05 2.0 -22.05 2.3 -22.1 2.3 -22.25 2.95 -22.45 4.4 -22.4 4.45 -22.35 4.45 -22.4 5.1 -22.55 5.0 -22.6 5.0 -22.65 5.15 -22.75 5.3 -22.9 5.15 -23.2 5.3 -23.3 5.25 -24.2 5.8 -24.45 5.8 -23.4 4.9 -23.45 4.85 -23.35 4.65 -23.0 4.0 -22.85 3.6 -22.7 3.5" fill="#9d6f37" fill-rule="evenodd" stroke="none"/>
    <path d="M-12.6 1.0 L-13.45 2.05 -14.35 1.3 -14.3 1.25 -12.6 1.0 M-16.85 2.55 L-17.35 1.8 -17.35 1.75 -16.3 1.6 -16.75 2.7 -16.85 2.65 -16.85 2.55 M-14.8 1.35 L-14.8 1.4 -14.75 1.4 -14.8 1.5 -14.75 1.6 -15.2 2.5 -15.2 2.6 -15.2 2.65 -15.3 2.75 -15.6 3.55 -15.6 3.6 -15.8 3.85 -16.95 4.05 -16.75 3.8 -16.8 3.7 -16.55 3.2 -16.55 3.1 -16.5 3.1 -16.55 3.05 -16.0 1.55 -14.8 1.35 M-14.2 3.5 L-14.15 3.6 -15.4 3.8 -14.9 2.7 -14.9 2.65 -14.65 1.95 -13.8 2.85 -14.2 3.5 M-13.6 3.0 L-13.25 3.4 -13.9 3.55 -13.9 3.5 -13.6 3.0 M-9.8 2.45 L-9.85 2.75 -9.95 2.85 -9.95 2.9 -10.55 3.0 -10.7 2.8 -10.7 2.75 -10.65 2.55 -9.8 2.45 M-8.35 2.6 L-8.3 2.65 -9.55 2.85 -9.55 2.8 -9.5 2.35 -9.4 2.3 -9.35 2.2 -9.4 2.15 -9.45 2.1 -9.5 2.1 -9.3 1.45 -8.35 2.6 M-9.3 0.5 L-8.2 0.35 -8.65 1.95 -9.25 1.35 -9.3 0.5 M-11.1 1.55 L-11.1 1.4 -10.55 0.7 -9.55 0.55 -9.7 2.1 -9.75 2.1 -10.7 2.35 Q-10.8 1.9 -11.05 1.6 L-11.1 1.55 M-12.3 1.1 L-12.35 1.05 Q-12.35 0.95 -12.45 1.0 L-10.95 0.75 -12.1 2.25 -12.25 2.5 -12.3 2.8 -11.95 2.8 -11.95 2.75 -11.95 2.6 -11.75 2.35 -11.8 2.25 -11.35 1.8 -11.3 1.85 Q-10.95 2.4 -10.85 3.05 L-11.7 3.15 -11.75 3.15 -11.8 3.15 -12.2 2.9 -12.25 2.95 -13.25 2.25 -12.5 1.25 -12.3 1.1 M-14.55 1.7 L-14.45 1.5 -14.35 1.6 -12.35 3.15 -12.2 3.15 -12.15 3.15 -12.1 3.25 -12.8 3.35 -12.85 3.3 -13.05 3.3 -13.15 3.2 -13.4 2.75 -13.4 2.7 -13.4 2.65 -13.6 2.55 -13.6 2.6 -13.65 2.55 -13.7 2.5 -14.55 1.7" fill="#e3cdb3" fill-rule="evenodd" stroke="none"/>
  </g>
</svg>
