<?xml version="1.0" encoding="UTF-8" standalone="no"?>
<svg xmlns:xlink="http://www.w3.org/1999/xlink" height="8.3px" width="8.3px" xmlns="http://www.w3.org/2000/svg">
  <g transform="matrix(1.0, 0.0, 0.0, 1.0, 21.2, 23.55)">
    <path d="M-14.35 -22.0 L-14.25 -21.95 Q-13.95 -21.9 -13.85 -21.65 L-13.75 -21.6 -13.6 -21.55 Q-13.15 -20.85 -13.2 -20.0 -13.35 -18.7 -13.75 -17.5 L-13.85 -17.4 -14.1 -16.9 Q-15.2 -15.25 -17.35 -15.5 -19.2 -15.75 -20.25 -17.3 L-20.35 -17.55 -20.6 -17.95 -20.75 -18.3 -20.85 -18.7 -20.9 -18.7 -20.9 -18.75 -20.9 -19.35 Q-20.9 -20.25 -20.5 -21.05 -19.8 -22.45 -18.35 -22.85 L-18.6 -23.0 -18.5 -23.0 Q-18.15 -23.05 -17.85 -23.25 -15.85 -23.3 -14.35 -22.0 M-14.45 -21.25 L-14.55 -21.2 -14.6 -21.05 -14.35 -20.95 -14.2 -20.75 -14.0 -19.95 -14.0 -19.9 -13.8 -19.9 Q-13.6 -20.85 -14.45 -21.25 M-18.8 -17.15 L-19.4 -17.65 -19.4 -17.6 Q-19.6 -17.25 -18.9 -16.95 L-18.85 -17.0 -18.75 -17.1 -18.8 -17.15 M-16.35 -20.0 L-16.45 -20.05 -16.5 -20.0 -16.55 -19.7 Q-16.35 -19.45 -16.2 -19.7 L-16.2 -19.75 -16.3 -19.95 -16.35 -20.0 M-18.15 -18.4 L-18.2 -18.35 -18.3 -18.25 Q-18.1 -17.8 -17.7 -17.95 L-18.15 -18.4 M-19.5 -18.6 Q-19.35 -18.5 -19.25 -18.7 L-19.3 -18.75 -19.35 -18.95 -19.45 -19.0 -19.5 -19.05 Q-19.75 -18.85 -19.5 -18.6 M-20.05 -20.15 L-20.1 -20.2 -20.15 -20.15 Q-20.5 -19.3 -20.25 -18.4 L-20.15 -18.35 -20.05 -18.4 -20.0 -18.5 -20.0 -20.1 -20.05 -20.15 M-18.4 -21.25 L-18.55 -21.35 -19.05 -21.0 -19.05 -20.95 -19.0 -20.85 Q-18.65 -20.85 -18.4 -21.2 L-18.4 -21.25 M-16.8 -22.75 L-16.95 -22.9 -18.45 -22.5 -18.45 -22.45 -18.45 -22.35 Q-17.6 -22.25 -16.8 -22.75 M-15.6 -16.4 L-15.75 -16.55 Q-16.2 -16.25 -16.75 -16.1 L-16.75 -16.05 -16.75 -15.95 Q-16.1 -15.8 -15.6 -16.4 M-14.75 -19.0 L-14.8 -19.05 -14.8 -19.0 Q-15.0 -18.65 -14.7 -18.1 -14.55 -18.05 -14.5 -18.15 L-14.45 -18.2 -14.7 -18.95 -14.75 -19.0" fill="#95917b" fill-rule="evenodd" stroke="none"/>
    <path d="M-14.45 -21.25 Q-13.6 -20.85 -13.8 -19.9 L-14.0 -19.9 -14.0 -19.95 -14.2 -20.75 -14.35 -20.95 -14.6 -21.05 -14.55 -21.2 -14.45 -21.25 M-14.35 -22.0 Q-15.85 -23.3 -17.85 -23.25 -18.15 -23.05 -18.5 -23.0 L-18.6 -23.0 -18.35 -22.85 Q-19.8 -22.45 -20.5 -21.05 -20.9 -20.25 -20.9 -19.35 L-20.9 -18.75 -20.9 -18.7 -20.85 -18.7 -20.75 -18.3 -20.6 -17.95 -20.35 -17.55 -20.25 -17.3 Q-19.2 -15.75 -17.35 -15.5 -15.2 -15.25 -14.1 -16.9 L-13.85 -17.4 -13.75 -17.5 Q-13.35 -18.7 -13.2 -20.0 -13.15 -20.85 -13.6 -21.55 L-13.75 -21.6 -13.85 -21.65 Q-13.95 -21.9 -14.25 -21.95 L-14.35 -22.0 M-13.3 -21.45 L-13.0 -21.1 Q-12.85 -20.35 -12.95 -19.6 L-13.5 -17.3 -13.55 -17.25 -13.65 -17.2 Q-14.55 -15.1 -17.0 -15.25 L-19.05 -15.7 -19.7 -16.35 -19.8 -16.45 -20.25 -16.85 -20.55 -17.15 -20.55 -17.2 -20.6 -17.45 -20.85 -17.75 -21.2 -19.05 -20.85 -21.2 -20.85 -21.25 -20.75 -21.3 -20.7 -21.35 -20.7 -21.4 -20.65 -21.45 -20.55 -21.6 -20.6 -21.65 -20.6 -21.7 -20.65 -21.7 Q-20.4 -22.5 -19.6 -22.9 L-17.85 -23.55 Q-15.95 -23.55 -14.35 -22.5 L-13.3 -21.45 M-14.75 -19.0 L-14.7 -18.95 -14.45 -18.2 -14.5 -18.15 Q-14.55 -18.05 -14.7 -18.1 -15.0 -18.65 -14.8 -19.0 L-14.8 -19.05 -14.75 -19.0 M-15.6 -16.4 Q-16.1 -15.8 -16.75 -15.95 L-16.75 -16.05 -16.75 -16.1 Q-16.2 -16.25 -15.75 -16.55 L-15.6 -16.4 M-16.8 -22.75 Q-17.6 -22.25 -18.45 -22.35 L-18.45 -22.45 -18.45 -22.5 -16.95 -22.9 -16.8 -22.75 M-18.4 -21.25 L-18.4 -21.2 Q-18.65 -20.85 -19.0 -20.85 L-19.05 -20.95 -19.05 -21.0 -18.55 -21.35 -18.4 -21.25 M-20.05 -20.15 L-20.0 -20.1 -20.0 -18.5 -20.05 -18.4 -20.15 -18.35 -20.25 -18.4 Q-20.5 -19.3 -20.15 -20.15 L-20.1 -20.2 -20.05 -20.15 M-19.5 -18.6 Q-19.75 -18.85 -19.5 -19.05 L-19.45 -19.0 -19.35 -18.95 -19.3 -18.75 -19.25 -18.7 Q-19.35 -18.5 -19.5 -18.6 M-18.15 -18.4 L-17.7 -17.95 Q-18.1 -17.8 -18.3 -18.25 L-18.2 -18.35 -18.15 -18.4 M-16.35 -20.0 L-16.3 -19.95 -16.2 -19.75 -16.2 -19.7 Q-16.35 -19.45 -16.55 -19.7 L-16.5 -20.0 -16.45 -20.05 -16.35 -20.0 M-18.8 -17.15 L-18.75 -17.1 -18.85 -17.0 -18.9 -16.95 Q-19.6 -17.25 -19.4 -17.6 L-19.4 -17.65 -18.8 -17.15" fill="#000000" fill-rule="evenodd" stroke="none"/>
  </g>
</svg>
