<?xml version="1.0" encoding="UTF-8" standalone="no"?>
<svg xmlns:xlink="http://www.w3.org/1999/xlink" height="8.3px" width="8.3px" xmlns="http://www.w3.org/2000/svg">
  <g transform="matrix(1.0, 0.0, 0.0, 1.0, -1.75, 29.7)">
    <path d="M4.15 -23.3 L3.55 -23.8 3.55 -23.75 Q3.35 -23.4 4.05 -23.1 L4.1 -23.15 4.2 -23.25 4.15 -23.3 M4.8 -24.55 L4.75 -24.5 4.65 -24.4 Q4.85 -23.95 5.25 -24.1 L4.8 -24.55 M6.6 -26.15 L6.5 -26.2 6.45 -26.15 6.4 -25.85 Q6.6 -25.6 6.75 -25.85 L6.75 -25.9 6.65 -26.1 6.6 -26.15 M3.45 -24.75 Q3.6 -24.65 3.7 -24.85 L3.65 -24.9 3.6 -25.1 3.5 -25.15 3.45 -25.2 Q3.2 -25.0 3.45 -24.75 M2.9 -26.3 L2.85 -26.35 2.8 -26.3 Q2.45 -25.45 2.7 -24.55 L2.8 -24.5 2.9 -24.55 2.95 -24.65 2.95 -26.25 2.9 -26.3 M4.55 -27.4 L4.4 -27.5 Q4.1 -27.4 3.9 -27.15 L3.9 -27.1 3.95 -27.0 Q4.3 -27.0 4.55 -27.35 L4.55 -27.4 M6.15 -28.9 L6.0 -29.05 4.5 -28.65 4.5 -28.6 4.5 -28.5 Q5.35 -28.4 6.15 -28.9 M7.35 -22.55 L7.2 -22.7 6.2 -22.25 6.2 -22.2 6.2 -22.1 Q6.85 -21.95 7.35 -22.55 M8.2 -25.15 L8.15 -25.2 8.15 -25.15 Q7.95 -24.8 8.25 -24.25 L8.45 -24.3 8.5 -24.35 8.25 -25.1 8.2 -25.15 M8.5 -27.4 L8.4 -27.35 8.35 -27.2 Q8.45 -27.1 8.6 -27.1 L8.75 -26.9 8.95 -26.1 8.95 -26.05 9.15 -26.05 Q9.35 -27.0 8.5 -27.4 M9.2 -27.75 L9.35 -27.7 Q9.8 -27.0 9.75 -26.15 L9.2 -23.65 9.1 -23.55 8.85 -23.05 Q7.75 -21.4 5.6 -21.65 3.75 -21.9 2.7 -23.45 L2.6 -23.7 2.35 -24.1 2.2 -24.45 2.1 -24.85 2.05 -24.85 2.05 -24.9 2.05 -25.5 Q2.05 -26.4 2.45 -27.2 3.15 -28.6 4.6 -29.0 L4.35 -29.15 4.45 -29.15 Q4.8 -29.2 5.1 -29.4 7.1 -29.45 8.6 -28.15 L8.7 -28.1 9.1 -27.8 9.2 -27.75" fill="#95917b" fill-rule="evenodd" stroke="none"/>
    <path d="M9.65 -27.6 L9.95 -27.25 10.0 -25.75 9.45 -23.45 9.4 -23.4 9.3 -23.35 Q8.4 -21.25 5.95 -21.4 4.85 -21.45 3.9 -21.85 3.45 -22.05 3.25 -22.5 L3.15 -22.6 2.7 -23.0 2.4 -23.3 2.4 -23.35 2.35 -23.6 2.1 -23.9 Q1.8 -24.5 1.75 -25.2 1.7 -26.35 2.1 -27.35 L2.1 -27.4 2.2 -27.45 2.25 -27.5 2.25 -27.55 2.3 -27.6 2.4 -27.75 2.35 -27.8 2.35 -27.85 2.3 -27.85 Q2.55 -28.65 3.35 -29.05 L5.1 -29.7 Q7.0 -29.7 8.6 -28.65 L9.65 -27.6 M9.2 -27.75 L9.1 -27.8 8.7 -28.1 8.6 -28.15 Q7.1 -29.45 5.1 -29.4 4.8 -29.2 4.45 -29.15 L4.35 -29.15 4.6 -29.0 Q3.15 -28.6 2.45 -27.2 2.05 -26.4 2.05 -25.5 L2.05 -24.9 2.05 -24.85 2.1 -24.85 2.2 -24.45 2.35 -24.1 2.6 -23.7 2.7 -23.45 Q3.75 -21.9 5.6 -21.65 7.75 -21.4 8.85 -23.05 L9.1 -23.55 9.2 -23.65 9.75 -26.15 Q9.8 -27.0 9.35 -27.7 L9.2 -27.75 M8.5 -27.4 Q9.35 -27.0 9.15 -26.05 L8.95 -26.05 8.95 -26.1 8.75 -26.9 8.6 -27.1 Q8.45 -27.1 8.35 -27.2 L8.4 -27.35 8.5 -27.4 M8.2 -25.15 L8.25 -25.1 8.5 -24.35 8.45 -24.3 8.25 -24.25 Q7.95 -24.8 8.15 -25.15 L8.15 -25.2 8.2 -25.15 M7.35 -22.55 Q6.85 -21.95 6.2 -22.1 L6.2 -22.2 6.2 -22.25 7.2 -22.7 7.35 -22.55 M6.15 -28.9 Q5.35 -28.4 4.5 -28.5 L4.5 -28.6 4.5 -28.65 6.0 -29.05 6.15 -28.9 M4.55 -27.4 L4.55 -27.35 Q4.3 -27.0 3.95 -27.0 L3.9 -27.1 3.9 -27.15 Q4.1 -27.4 4.4 -27.5 L4.55 -27.4 M2.9 -26.3 L2.95 -26.25 2.95 -24.65 2.9 -24.55 2.8 -24.5 2.7 -24.55 Q2.45 -25.45 2.8 -26.3 L2.85 -26.35 2.9 -26.3 M3.45 -24.75 Q3.2 -25.0 3.45 -25.2 L3.5 -25.15 3.6 -25.1 3.65 -24.9 3.7 -24.85 Q3.6 -24.65 3.45 -24.75 M6.6 -26.15 L6.65 -26.1 6.75 -25.9 6.75 -25.85 Q6.6 -25.6 6.4 -25.85 L6.45 -26.15 6.5 -26.2 6.6 -26.15 M4.8 -24.55 L5.25 -24.1 Q4.85 -23.95 4.65 -24.4 L4.75 -24.5 4.8 -24.55 M4.15 -23.3 L4.2 -23.25 4.1 -23.15 4.05 -23.1 Q3.35 -23.4 3.55 -23.75 L3.55 -23.8 4.15 -23.3" fill="#000000" fill-rule="evenodd" stroke="none"/>
  </g>
</svg>
