<?xml version="1.0" encoding="UTF-8" standalone="no"?>
<svg xmlns:xlink="http://www.w3.org/1999/xlink" height="10.55px" width="10.75px" xmlns="http://www.w3.org/2000/svg">
  <g transform="matrix(1.0, 0.0, 0.0, 1.0, 5.05, 4.95)">
    <path d="M4.5 3.65 L4.45 3.75 3.4 4.7 3.3 4.8 3.25 4.8 3.15 4.75 3.05 4.65 2.6 4.15 2.5 4.1 2.0 4.25 1.6 4.3 Q1.45 4.85 1.65 5.3 L1.65 5.4 1.6 5.55 1.55 5.6 -0.15 5.5 -0.2 5.45 -0.15 5.3 -0.2 5.2 -0.35 4.45 -0.8 4.4 -0.85 4.4 -0.95 4.35 -1.1 4.6 -1.2 4.7 -1.25 4.7 -1.3 4.85 -1.55 5.1 -1.65 5.2 -1.7 5.25 -1.75 5.3 -1.85 5.2 -1.9 5.15 -2.8 4.45 -3.2 4.15 -3.2 4.1 -3.25 4.05 -3.3 3.95 -3.25 3.9 -3.25 3.75 -3.15 3.8 -2.75 3.35 -2.75 3.3 -3.2 2.8 -3.35 2.9 -3.35 2.95 -3.55 3.0 -3.55 3.05 -3.55 3.1 -4.15 3.1 -4.2 3.05 -4.2 2.9 Q-4.7 2.45 -4.8 1.7 L-4.75 1.5 -4.7 1.3 -4.5 1.25 -4.25 1.2 -4.1 1.15 -3.95 0.55 -4.05 0.2 -4.25 0.2 -4.35 0.15 -4.55 0.15 -4.65 0.1 -4.8 0.0 -4.95 -0.1 -4.95 -0.2 Q-5.2 -0.75 -4.9 -1.3 L-4.85 -1.4 -4.65 -1.55 -4.5 -1.9 -4.45 -2.0 -4.35 -2.05 -3.6 -1.7 -3.55 -1.65 -3.2 -2.0 -3.2 -2.05 -3.3 -2.2 -3.4 -2.3 -3.85 -2.75 -4.0 -2.75 -4.1 -2.95 -3.95 -3.1 -3.9 -3.1 -3.75 -3.25 -3.7 -3.35 -3.55 -3.35 -3.3 -3.55 -3.3 -3.6 -3.2 -3.7 -3.1 -3.75 -2.9 -4.05 -2.7 -4.0 -2.65 -3.95 -2.65 -3.9 -2.55 -3.9 -2.45 -3.85 -2.0 -3.5 -1.85 -3.5 -1.75 -3.6 -1.7 -3.6 -1.65 -3.65 -1.6 -3.65 -1.5 -3.65 -1.5 -4.4 -1.55 -4.5 -1.65 -4.5 -1.5 -4.75 -0.5 -4.95 -0.35 -4.95 -0.25 -4.95 -0.25 -4.9 0.05 -4.85 0.15 -4.9 0.25 -4.8 0.3 -4.75 Q0.15 -4.45 0.3 -4.2 L0.85 -4.1 1.1 -4.0 1.3 -4.75 1.4 -4.9 1.5 -4.9 1.6 -4.9 1.7 -4.95 1.95 -4.8 2.25 -4.55 2.95 -4.2 3.0 -4.15 3.1 -4.15 3.1 -3.95 3.0 -3.9 2.9 -3.9 2.75 -3.5 Q2.75 -3.25 3.05 -3.1 L3.2 -3.2 3.55 -3.5 3.6 -3.55 3.75 -3.55 3.8 -3.55 3.9 -3.5 3.9 -3.45 3.85 -3.35 4.0 -3.35 4.05 -3.3 4.25 -3.0 4.65 -2.7 4.85 -2.25 4.8 -2.15 4.75 -2.05 4.7 -2.05 4.3 -1.75 4.4 -0.75 Q4.7 -0.55 5.1 -0.45 L5.35 -0.4 5.45 -0.5 5.55 -0.45 5.55 -0.4 5.6 -0.35 Q5.95 0.75 5.3 1.6 L5.4 1.6 5.5 1.65 5.4 1.75 5.4 1.8 4.85 1.7 4.75 1.65 4.65 1.55 4.55 1.6 4.5 1.7 Q3.9 2.0 3.95 2.75 L4.4 3.35 4.5 3.35 4.6 3.4 4.5 3.65 M4.15 -0.55 Q3.95 -1.25 3.9 -1.9 L4.5 -2.2 4.4 -2.55 4.25 -2.65 4.2 -2.7 4.15 -2.7 3.65 -3.15 3.4 -3.0 3.4 -2.95 3.35 -2.8 3.1 -2.7 3.0 -2.75 2.5 -3.2 2.35 -3.25 2.3 -3.3 Q2.2 -3.5 2.35 -3.6 L2.45 -3.6 2.7 -4.05 2.3 -4.25 2.2 -4.3 1.9 -4.5 1.6 -4.55 1.6 -4.45 1.55 -4.4 1.5 -4.35 1.55 -4.3 1.5 -4.3 1.25 -3.7 0.95 -3.75 0.8 -3.85 0.5 -3.9 0.25 -3.9 Q-0.15 -4.3 -0.05 -4.6 L-0.2 -4.6 -0.3 -4.55 -0.4 -4.6 -0.45 -4.65 -1.05 -4.55 -1.2 -4.55 -1.4 -4.4 -1.35 -4.4 -1.1 -3.8 -1.25 -3.45 -1.3 -3.45 -1.8 -3.2 -1.85 -3.1 -2.55 -3.6 -2.7 -3.65 -2.95 -3.45 -3.0 -3.45 -3.2 -3.3 -3.15 -3.25 -3.3 -3.15 -3.45 -3.05 -3.55 -3.05 -3.65 -2.95 -3.2 -2.6 -2.95 -2.3 -2.85 -2.25 -2.8 -2.2 -3.4 -1.45 -3.45 -1.35 -3.75 -1.4 -3.8 -1.45 -4.35 -1.75 -4.85 -0.35 -4.5 -0.25 -3.75 0.05 -3.7 1.2 -3.75 1.25 -4.0 1.45 -4.5 1.55 -3.95 2.8 -3.8 2.8 -3.8 2.75 -3.65 2.7 -3.55 2.7 -3.25 2.55 -3.15 2.5 -2.85 2.9 -2.55 3.05 -2.5 3.05 -2.4 3.15 -2.35 3.25 -2.4 3.3 -3.0 3.95 -2.9 4.1 Q-2.8 4.1 -2.75 4.2 L-2.65 4.2 -2.6 4.25 -2.45 4.3 -2.45 4.35 -2.5 4.4 -2.3 4.6 -2.05 4.65 -2.05 4.7 -2.0 4.7 -1.9 4.75 -1.75 4.8 -1.4 4.45 -1.35 4.45 -1.2 3.85 -0.7 4.1 -0.2 4.15 -0.1 4.15 0.15 5.25 0.2 5.25 0.3 5.2 1.3 5.25 Q1.15 4.8 1.25 4.15 L1.9 3.95 2.35 3.9 2.55 3.7 3.25 4.4 3.45 4.1 3.5 4.05 3.6 4.05 3.65 4.05 Q3.85 3.75 4.15 3.6 L4.25 3.55 4.2 3.5 4.0 3.15 3.65 2.85 3.75 2.0 4.15 1.5 4.25 1.5 4.3 1.4 4.35 1.3 4.4 1.25 4.5 1.25 4.6 1.25 4.85 1.4 5.2 1.5 5.25 1.25 5.35 1.1 5.35 -0.15 Q4.75 -0.1 4.15 -0.5 L4.15 -0.55 M1.1 0.6 L1.2 0.3 1.2 -0.05 1.0 -0.55 0.9 -0.65 0.8 -0.75 0.7 -0.85 0.55 -0.95 0.3 -1.05 -0.2 -0.95 -0.45 -0.65 -0.75 -0.35 -0.6 0.9 -0.05 1.3 0.35 1.3 0.8 0.95 1.1 0.6 M1.4 0.75 Q0.8 1.55 -0.05 1.55 L-0.45 1.35 Q-1.5 0.35 -0.65 -0.9 -0.25 -1.4 0.35 -1.35 L0.7 -1.25 0.8 -1.2 0.85 -1.15 0.85 -1.1 0.85 -1.0 1.1 -0.85 1.5 -0.45 Q1.65 0.15 1.4 0.7 L1.4 0.75" fill="#000000" fill-rule="evenodd" stroke="none"/>
    <path d="M4.15 -0.55 L4.15 -0.5 Q4.75 -0.1 5.35 -0.15 L5.35 1.1 5.25 1.25 5.2 1.5 4.85 1.4 4.6 1.25 4.5 1.25 4.4 1.25 4.35 1.3 4.3 1.4 4.25 1.5 4.15 1.5 3.75 2.0 3.65 2.85 4.0 3.15 4.2 3.5 4.25 3.55 4.15 3.6 Q3.85 3.75 3.65 4.05 L3.6 4.05 3.5 4.05 3.45 4.1 3.25 4.4 2.55 3.7 2.35 3.9 1.9 3.95 1.25 4.15 Q1.15 4.8 1.3 5.25 L0.3 5.2 0.2 5.25 0.15 5.25 -0.1 4.15 -0.2 4.15 -0.7 4.1 -1.2 3.85 -1.35 4.45 -1.4 4.45 -1.75 4.8 -1.9 4.75 -2.0 4.7 -2.05 4.7 -2.05 4.65 -2.3 4.6 -2.5 4.4 -2.45 4.35 -2.45 4.3 -2.6 4.25 -2.65 4.2 -2.75 4.2 Q-2.8 4.1 -2.9 4.1 L-3.0 3.95 -2.4 3.3 -2.35 3.25 -2.4 3.15 -2.5 3.05 -2.55 3.05 -2.85 2.9 -3.15 2.5 -3.25 2.55 -3.55 2.7 -3.65 2.7 -3.8 2.75 -3.8 2.8 -3.95 2.8 -4.5 1.55 -4.0 1.45 -3.75 1.25 -3.7 1.2 -3.75 0.05 -4.5 -0.25 -4.85 -0.35 -4.35 -1.75 -3.8 -1.45 -3.75 -1.4 -3.45 -1.35 -3.4 -1.45 -2.8 -2.2 -2.85 -2.25 -2.95 -2.3 -3.2 -2.6 -3.65 -2.95 -3.55 -3.05 -3.45 -3.05 -3.3 -3.15 -3.15 -3.25 -3.2 -3.3 -3.0 -3.45 -2.95 -3.45 -2.7 -3.65 -2.55 -3.6 -1.85 -3.1 -1.8 -3.2 -1.3 -3.45 -1.25 -3.45 -1.1 -3.8 -1.35 -4.4 -1.4 -4.4 -1.2 -4.55 -1.05 -4.55 -0.45 -4.65 -0.4 -4.6 -0.3 -4.55 -0.2 -4.6 -0.05 -4.6 Q-0.15 -4.3 0.25 -3.9 L0.5 -3.9 0.8 -3.85 0.95 -3.75 1.25 -3.7 1.5 -4.3 1.55 -4.3 1.5 -4.35 1.55 -4.4 1.6 -4.45 1.6 -4.55 1.9 -4.5 2.2 -4.3 2.3 -4.25 2.7 -4.05 2.45 -3.6 2.35 -3.6 Q2.2 -3.5 2.3 -3.3 L2.35 -3.25 2.5 -3.2 3.0 -2.75 3.1 -2.7 3.35 -2.8 3.4 -2.95 3.4 -3.0 3.65 -3.15 4.15 -2.7 4.2 -2.7 4.25 -2.65 4.4 -2.55 4.5 -2.2 3.9 -1.9 Q3.95 -1.25 4.15 -0.55 M1.4 0.75 L1.4 0.7 Q1.65 0.15 1.5 -0.45 L1.1 -0.85 0.85 -1.0 0.85 -1.1 0.85 -1.15 0.8 -1.2 0.7 -1.25 0.35 -1.35 Q-0.25 -1.4 -0.65 -0.9 -1.5 0.35 -0.45 1.35 L-0.05 1.55 Q0.8 1.55 1.4 0.75" fill="#ceab73" fill-rule="evenodd" stroke="none"/>
  </g>
</svg>
