<?xml version="1.0" encoding="UTF-8" standalone="no"?>
<svg xmlns:xlink="http://www.w3.org/1999/xlink" height="33.65px" width="6.5px" xmlns="http://www.w3.org/2000/svg">
  <g transform="matrix(1.0, 0.0, 0.0, 1.0, 3.15, 31.05)">
    <path d="M3.0 2.35 L-0.65 2.45 -0.7 2.45 -0.75 2.55 -0.8 2.55 -2.0 2.55 -2.05 2.1 -2.1 -1.45 -2.05 -1.5 -2.0 -1.55 -0.9 -1.4 -1.3 -7.55 -1.3 -7.6 -1.4 -7.7 -1.3 -7.9 -1.5 -11.6 -1.5 -11.7 -1.55 -12.6 -1.6 -12.75 -1.55 -12.8 -1.75 -15.4 -1.8 -15.45 -1.85 -15.5 -1.75 -15.7 -1.8 -16.9 -1.9 -17.15 -1.85 -17.25 -2.1 -22.1 -2.2 -22.15 -2.25 -22.35 -2.45 -22.45 -2.5 -22.5 Q-2.7 -22.7 -2.55 -22.95 L-2.65 -23.35 -2.85 -23.55 -2.85 -23.5 -2.9 -23.45 Q-3.2 -24.5 -3.15 -25.75 -3.2 -28.5 -0.75 -29.95 L-0.65 -30.1 0.9 -30.25 0.9 -30.3 0.9 -30.4 1.0 -30.85 1.05 -31.0 1.05 -31.05 1.55 -31.0 1.6 -31.0 1.75 -30.95 1.85 -30.95 1.8 -30.8 2.3 -22.4 2.25 -21.9 2.2 -21.85 2.15 -21.85 2.1 -21.85 1.7 -21.85 1.55 -21.9 1.5 -21.85 1.4 -21.9 1.3 -21.55 1.25 -21.5 0.95 -21.45 0.9 -21.45 0.75 -21.4 0.75 -20.95 1.05 -15.8 1.1 -15.85 1.15 -15.8 1.15 -15.75 1.05 -15.6 1.05 -15.55 1.15 -14.2 1.2 -14.25 1.25 -14.2 1.25 -14.15 1.3 -14.1 1.2 -14.0 1.25 -13.95 1.2 -13.9 1.95 -1.6 2.95 -1.65 3.0 -1.65 3.05 -1.6 3.1 -1.5 3.35 2.15 3.3 2.2 3.0 2.35 M2.1 1.3 L2.15 1.3 2.15 1.35 2.15 1.45 2.1 1.65 2.05 1.65 1.95 1.65 1.9 1.65 1.6 1.85 1.55 1.9 0.75 1.95 0.55 1.95 0.45 1.95 0.4 1.9 -0.4 1.9 -0.45 1.9 -0.55 1.95 -0.6 1.95 -0.65 1.9 -0.7 1.8 -0.6 1.65 -0.7 1.55 -0.75 1.5 -0.9 -1.15 -1.8 -1.25 -1.65 2.15 -1.7 2.2 -1.7 2.35 -1.0 2.25 -0.95 2.25 -0.85 2.15 -0.7 2.15 2.95 2.05 2.75 -1.3 2.7 -1.3 1.95 -1.35 2.1 1.25 2.1 1.3 M1.8 1.1 L1.3 -7.7 1.25 -7.65 1.25 -7.6 -0.2 -8.05 -0.25 -8.1 -0.4 -8.05 -0.5 -8.1 -0.55 -8.1 -0.65 -8.0 -0.7 -7.95 -0.75 -7.85 -0.95 -7.7 -0.35 1.5 -0.3 1.6 -0.25 1.55 -0.15 1.55 -0.1 1.6 -0.05 1.6 0.4 1.6 0.55 1.55 0.6 1.6 0.65 1.65 1.25 1.65 1.45 1.6 1.7 1.4 1.65 1.25 1.7 1.2 1.8 1.1 M1.0 0.9 L0.95 0.95 0.35 1.05 0.25 1.0 Q-0.2 0.75 -0.05 0.2 L0.2 0.0 0.4 0.0 0.35 -0.15 0.4 -0.2 0.5 -0.25 0.6 -0.25 1.1 0.15 1.25 0.3 1.15 0.7 1.2 0.75 1.15 0.8 1.15 0.85 1.0 0.9 M0.9 0.25 L0.7 0.15 0.35 0.25 0.25 0.25 Q0.1 0.5 0.35 0.75 L0.7 0.7 0.7 0.65 0.85 0.6 0.9 0.3 0.9 0.25 M1.35 -30.7 L1.25 -30.7 1.2 -30.7 1.2 -30.3 1.2 -30.25 1.15 -30.2 1.6 -22.2 1.7 -22.15 1.9 -22.15 1.9 -22.4 1.6 -30.65 1.35 -30.7 M-0.4 -29.9 L-0.75 -29.6 Q-1.9 -28.9 -2.45 -27.7 L-2.7 -27.05 -2.75 -26.85 -2.8 -26.8 Q-2.85 -25.15 -2.0 -23.9 L-1.95 -23.9 -0.3 -22.75 0.1 -22.65 0.2 -22.6 1.4 -22.2 0.95 -30.05 -0.35 -29.9 -0.4 -29.9 M-0.5 -22.55 L-0.6 -22.7 -1.0 -22.85 -1.6 -23.25 -1.75 -23.4 -1.8 -23.35 -2.65 -24.45 -2.65 -24.2 -2.2 -23.25 -2.25 -23.15 -2.15 -22.85 -2.3 -22.7 -2.15 -22.6 -2.0 -22.55 -2.0 -22.5 -2.1 -22.4 -1.5 -22.3 -1.5 -22.35 -1.4 -22.4 0.0 -22.0 0.6 -21.8 0.6 -21.75 0.9 -21.75 0.95 -21.75 0.95 -21.7 1.05 -21.75 1.15 -22.0 -0.4 -22.55 -0.45 -22.55 -0.5 -22.55 M0.05 -21.6 L-1.85 -22.05 -1.9 -22.05 -1.6 -17.1 -1.5 -17.1 -1.25 -16.95 -0.55 -16.7 -0.45 -16.7 Q-0.3 -16.95 -0.2 -16.85 L0.4 -17.2 0.5 -17.3 0.65 -17.3 0.7 -17.3 0.5 -20.75 0.5 -20.85 0.45 -21.4 0.05 -21.6 M-0.1 -16.6 L-0.2 -16.6 -0.3 -16.5 0.8 -15.95 0.75 -17.0 0.7 -17.0 -0.1 -16.6 M1.05 -12.25 L0.95 -13.9 0.85 -13.95 0.05 -13.2 1.05 -12.25 1.05 -12.2 1.05 -12.25 M0.9 -14.45 L0.9 -14.4 0.9 -14.45 0.8 -15.65 -0.65 -16.3 -0.7 -16.3 -0.7 -16.35 -0.8 -16.35 -1.25 -16.65 -1.35 -16.65 -1.55 -16.8 -1.5 -15.65 -1.3 -15.5 -1.25 -15.45 -0.45 -15.1 -0.35 -15.0 -0.3 -15.0 -0.2 -14.95 0.65 -14.45 0.75 -14.5 0.85 -14.4 0.85 -14.45 0.9 -14.45 M0.5 -14.25 L-0.35 -13.5 -0.4 -13.45 -0.45 -13.35 -0.4 -13.4 -0.55 -13.2 -0.6 -13.2 -0.65 -13.2 Q-0.9 -13.05 -1.05 -13.0 L-1.15 -12.95 -1.2 -12.7 -1.25 -12.65 -1.2 -11.95 -1.1 -12.05 -1.1 -12.1 -1.15 -12.25 0.6 -14.05 0.7 -14.15 0.5 -14.25 M0.8 -12.2 L-0.1 -13.0 -0.9 -12.1 -0.85 -12.05 -1.15 -11.65 -1.15 -11.6 -1.2 -11.55 -1.15 -10.7 0.1 -11.05 0.15 -11.1 -0.3 -11.6 -0.4 -11.55 -0.6 -11.75 -0.75 -11.8 -0.8 -11.8 -0.75 -12.15 -0.45 -12.05 -0.25 -11.9 1.15 -10.6 1.05 -12.1 0.95 -12.0 0.9 -12.0 0.8 -12.2 M0.35 -10.8 L0.3 -10.8 Q0.0 -10.6 -0.45 -10.5 -0.25 -10.1 -0.3 -9.5 L-0.3 -9.45 1.2 -9.15 1.15 -10.2 0.5 -10.8 0.35 -10.8 M1.25 -8.9 L0.4 -8.95 -0.25 -8.4 1.3 -7.8 1.25 -8.9 M-0.95 -8.15 L0.3 -9.0 -0.35 -9.25 -0.35 -9.2 -0.4 -9.15 -0.45 -9.1 -0.55 -9.15 -0.6 -9.3 -1.0 -9.35 -1.05 -9.35 -0.95 -8.1 -0.95 -8.15 M-0.65 -9.6 L-0.65 -10.5 -0.85 -10.55 -0.9 -10.55 -1.1 -10.4 -1.1 -9.75 -1.05 -9.75 -0.9 -9.7 -0.65 -9.6 M-0.85 -13.45 L-1.3 -13.7 -1.35 -13.7 -1.3 -13.1 -0.85 -13.45 M-1.3 -14.05 L-0.65 -13.55 0.3 -14.35 -0.4 -14.7 -0.45 -14.7 -1.45 -15.25 -1.4 -14.0 -1.3 -14.05 M-2.75 -24.55 L-2.7 -24.55 -2.75 -24.6 -2.75 -24.55" fill="#000000" fill-rule="evenodd" stroke="none"/>
    <path d="M2.1 1.3 L2.1 1.25 1.95 -1.35 2.7 -1.3 2.75 -1.3 2.95 2.05 -0.7 2.15 -0.85 2.15 -0.95 2.25 -1.0 2.25 -1.7 2.35 -1.7 2.2 -1.65 2.15 -1.8 -1.25 -0.9 -1.15 -0.75 1.5 -0.7 1.55 -0.6 1.65 -0.7 1.8 -0.65 1.9 -0.6 1.95 -0.55 1.95 -0.45 1.9 -0.4 1.9 0.4 1.9 0.45 1.95 0.55 1.95 0.75 1.95 1.55 1.9 1.6 1.85 1.9 1.65 1.95 1.65 2.05 1.65 2.1 1.65 2.15 1.45 2.15 1.35 2.15 1.3 2.1 1.3 M0.9 0.25 L0.9 0.3 0.85 0.6 0.7 0.65 0.7 0.7 0.35 0.75 Q0.1 0.5 0.25 0.25 L0.35 0.25 0.7 0.15 0.9 0.25" fill="#a69b9b" fill-rule="evenodd" stroke="none"/>
    <path d="M1.0 0.9 L1.15 0.85 1.15 0.8 1.2 0.75 1.15 0.7 1.25 0.3 1.1 0.15 0.6 -0.25 0.5 -0.25 0.4 -0.2 0.35 -0.15 0.4 0.0 0.2 0.0 -0.05 0.2 Q-0.2 0.75 0.25 1.0 L0.35 1.05 0.95 0.95 1.0 0.9 M1.8 1.1 L1.7 1.2 1.65 1.25 1.7 1.4 1.45 1.6 1.25 1.65 0.65 1.65 0.6 1.6 0.55 1.55 0.4 1.6 -0.05 1.6 -0.1 1.6 -0.15 1.55 -0.25 1.55 -0.3 1.6 -0.35 1.5 -0.95 -7.7 -0.75 -7.85 -0.7 -7.95 -0.65 -8.0 -0.55 -8.1 -0.5 -8.1 -0.4 -8.05 -0.25 -8.1 -0.2 -8.05 1.25 -7.6 1.25 -7.65 1.3 -7.7 1.8 1.1 M-0.4 -29.9 L-0.35 -29.9 0.95 -30.05 1.4 -22.2 0.2 -22.6 0.1 -22.65 -0.3 -22.75 -1.95 -23.9 -2.0 -23.9 Q-2.85 -25.15 -2.8 -26.8 L-2.75 -26.85 -2.7 -27.05 -2.45 -27.7 Q-1.9 -28.9 -0.75 -29.6 L-0.4 -29.9 M0.05 -21.6 L0.45 -21.4 0.5 -20.85 0.5 -20.75 0.7 -17.3 0.65 -17.3 0.5 -17.3 0.4 -17.2 -0.2 -16.85 Q-0.3 -16.95 -0.45 -16.7 L-0.55 -16.7 -1.25 -16.95 -1.5 -17.1 -1.6 -17.1 -1.9 -22.05 -1.85 -22.05 0.05 -21.6" fill="#715426" fill-rule="evenodd" stroke="none"/>
    <path d="M1.35 -30.7 L1.6 -30.65 1.9 -22.4 1.9 -22.15 1.7 -22.15 1.6 -22.2 1.15 -30.2 1.2 -30.25 1.2 -30.3 1.2 -30.7 1.25 -30.7 1.35 -30.7 M-0.5 -22.55 L-0.45 -22.55 -0.4 -22.55 1.15 -22.0 1.05 -21.75 0.95 -21.7 0.95 -21.75 0.9 -21.75 0.6 -21.75 0.6 -21.8 0.0 -22.0 -1.4 -22.4 -1.5 -22.35 -1.5 -22.3 -2.1 -22.4 -2.0 -22.5 -2.0 -22.55 -2.15 -22.6 -2.3 -22.7 -2.15 -22.85 -2.25 -23.15 -2.2 -23.25 -2.65 -24.2 -2.65 -24.45 -1.8 -23.35 -1.75 -23.4 -1.6 -23.25 -1.0 -22.85 -0.6 -22.7 -0.5 -22.55" fill="#9d6f37" fill-rule="evenodd" stroke="none"/>
    <path d="M1.05 -12.25 L0.05 -13.2 0.85 -13.95 0.95 -13.9 1.05 -12.25 M-0.1 -16.6 L0.7 -17.0 0.75 -17.0 0.8 -15.95 -0.3 -16.5 -0.2 -16.6 -0.1 -16.6 M0.9 -14.45 L0.85 -14.45 0.85 -14.4 0.75 -14.5 0.65 -14.45 -0.2 -14.95 -0.3 -15.0 -0.35 -15.0 -0.45 -15.1 -1.25 -15.45 -1.3 -15.5 -1.5 -15.65 -1.55 -16.8 -1.35 -16.65 -1.25 -16.65 -0.8 -16.35 -0.7 -16.35 -0.7 -16.3 -0.65 -16.3 0.8 -15.65 0.9 -14.45 M-1.3 -14.05 L-1.4 -14.0 -1.45 -15.25 -0.45 -14.7 -0.4 -14.7 0.3 -14.35 -0.65 -13.55 -1.3 -14.05 M-0.85 -13.45 L-1.3 -13.1 -1.35 -13.7 -1.3 -13.7 -0.85 -13.45 M-0.65 -9.6 L-0.9 -9.7 -1.05 -9.75 -1.1 -9.75 -1.1 -10.4 -0.9 -10.55 -0.85 -10.55 -0.65 -10.5 -0.65 -9.6 M-0.95 -8.15 L-0.95 -8.1 -1.05 -9.35 -1.0 -9.35 -0.6 -9.3 -0.55 -9.15 -0.45 -9.1 -0.4 -9.15 -0.35 -9.2 -0.35 -9.25 0.3 -9.0 -0.95 -8.15 M1.25 -8.9 L1.3 -7.8 -0.25 -8.4 0.4 -8.95 1.25 -8.9 M0.35 -10.8 L0.5 -10.8 1.15 -10.2 1.2 -9.15 -0.3 -9.45 -0.3 -9.5 Q-0.25 -10.1 -0.45 -10.5 0.0 -10.6 0.3 -10.8 L0.35 -10.8 M0.8 -12.2 L0.9 -12.0 0.95 -12.0 1.05 -12.1 1.15 -10.6 -0.25 -11.9 -0.45 -12.05 -0.75 -12.15 -0.8 -11.8 -0.75 -11.8 -0.6 -11.75 -0.4 -11.55 -0.3 -11.6 0.15 -11.1 0.1 -11.05 -1.15 -10.7 -1.2 -11.55 -1.15 -11.6 -1.15 -11.65 -0.85 -12.05 -0.9 -12.1 -0.1 -13.0 0.8 -12.2 M0.5 -14.25 L0.7 -14.15 0.6 -14.05 -1.15 -12.25 -1.1 -12.1 -1.1 -12.05 -1.2 -11.95 -1.25 -12.65 -1.2 -12.7 -1.15 -12.95 -1.05 -13.0 Q-0.9 -13.05 -0.65 -13.2 L-0.6 -13.2 -0.55 -13.2 -0.4 -13.4 -0.45 -13.35 -0.4 -13.45 -0.35 -13.5 0.5 -14.25" fill="#e3cdb3" fill-rule="evenodd" stroke="none"/>
  </g>
</svg>
