<?xml version="1.0" encoding="UTF-8" standalone="no"?>
<svg xmlns:xlink="http://www.w3.org/1999/xlink" height="16.85px" width="10.8px" xmlns="http://www.w3.org/2000/svg">
  <g transform="matrix(1.0, 0.0, 0.0, 1.0, 1.1, 10.25)">
    <path d="M9.3 -0.05 L9.4 2.15 9.4 2.45 9.7 3.25 9.6 3.85 9.65 3.9 9.7 3.95 9.7 4.05 8.75 4.2 8.7 4.15 8.55 4.1 9.0 4.55 9.05 4.5 9.15 4.5 9.1 4.55 9.15 4.6 9.1 4.65 9.15 4.7 9.1 4.75 9.0 4.85 7.15 6.6 7.05 6.6 7.0 6.45 7.2 6.25 0.8 -0.05 0.6 -0.05 0.6 -0.15 0.55 -0.2 0.45 -0.3 -0.9 -1.75 -1.0 -1.85 -1.1 -1.95 -1.05 -2.0 -0.95 -2.0 -0.85 -2.2 -0.75 -2.3 -0.55 -2.5 -0.65 -2.6 -0.65 -2.7 -0.6 -2.75 -0.45 -2.7 -0.4 -2.65 3.45 -6.5 4.5 -7.55 3.65 -7.8 Q3.25 -8.0 3.1 -8.45 2.8 -9.45 3.8 -9.95 L3.95 -10.1 4.5 -10.15 5.2 -9.95 5.8 -9.15 5.85 -9.1 5.8 -9.05 5.7 -8.75 6.3 -9.35 6.35 -9.3 6.45 -9.3 6.4 -9.25 6.45 -9.2 6.4 -9.15 6.55 -9.1 7.85 -7.7 7.95 -7.7 7.95 -7.6 8.05 -7.5 8.0 -7.45 7.9 -7.35 7.8 -7.45 6.95 -6.5 8.4 -6.25 8.45 -6.2 8.55 -6.2 Q8.5 -3.65 9.15 -1.1 L9.3 -0.05 M9.35 3.9 L9.35 3.3 9.4 3.25 Q9.0 2.25 9.05 1.1 L8.6 -1.95 Q8.35 -3.2 8.35 -4.4 L8.35 -5.4 8.35 -6.0 6.75 -6.3 6.5 -6.05 6.55 -6.1 6.6 -6.05 6.55 -5.7 6.6 -5.65 Q6.55 -2.6 6.9 0.45 7.1 1.45 6.95 2.5 L8.2 3.75 8.25 3.8 8.25 3.7 8.6 3.85 9.05 3.8 9.0 3.85 9.35 3.9 9.4 3.95 9.35 3.9 M6.3 -5.45 L6.35 -5.9 3.8 -3.35 2.5 -2.05 2.55 -2.0 6.7 2.25 6.3 -3.65 6.3 -5.45 M2.3 -1.85 L0.75 -0.4 0.85 -0.3 7.3 6.15 Q8.0 5.35 8.85 4.7 L2.35 -1.8 2.3 -1.85 M6.4 -8.95 L6.35 -8.9 6.3 -8.85 5.7 -8.25 5.65 -8.1 5.55 -7.9 5.05 -7.7 2.05 -4.7 -0.25 -2.5 1.1 -1.05 4.7 -4.65 7.7 -7.55 6.4 -8.95 M4.75 -9.7 L4.65 -9.9 4.3 -9.85 4.1 -9.85 3.5 -9.45 3.25 -9.1 Q3.2 -8.25 4.05 -7.8 L4.9 -7.95 5.4 -8.45 5.4 -8.55 5.45 -8.9 5.5 -9.15 5.1 -9.55 4.95 -9.7 4.8 -9.75 4.75 -9.7 M-0.4 -2.25 L-0.7 -1.85 0.6 -0.55 0.95 -0.9 -0.45 -2.3 -0.4 -2.25" fill="#000000" fill-rule="evenodd" stroke="none"/>
    <path d="M8.2 3.75 L6.95 2.5 Q7.1 1.45 6.9 0.45 6.55 -2.6 6.6 -5.65 L6.55 -5.7 6.6 -6.05 6.55 -6.1 6.5 -6.05 6.75 -6.3 8.35 -6.0 8.35 -5.4 8.35 -4.4 Q8.35 -3.2 8.6 -1.95 L9.05 1.1 Q9.0 2.25 9.4 3.25 L9.35 3.3 9.35 3.9 9.0 3.85 9.05 3.8 8.6 3.85 8.25 3.7 8.2 3.75 M2.3 -1.85 L2.35 -1.8 8.85 4.7 Q8.0 5.35 7.3 6.15 L0.85 -0.3 0.75 -0.4 2.3 -1.85 M6.35 -8.9 L6.4 -8.95 7.7 -7.55 4.7 -4.65 1.1 -1.05 -0.25 -2.5 2.05 -4.7 5.05 -7.7 5.55 -7.9 5.65 -8.1 5.7 -8.25 6.3 -8.85 6.35 -8.9 M4.75 -9.7 L4.15 -9.8 3.85 -9.6 Q3.3 -9.45 3.35 -8.9 3.6 -8.35 4.05 -8.1 L4.1 -8.15 4.15 -8.2 4.7 -8.25 Q5.6 -8.85 5.1 -9.55 L5.5 -9.15 5.45 -8.9 5.4 -8.55 5.4 -8.45 4.9 -7.95 4.05 -7.8 Q3.2 -8.25 3.25 -9.1 L3.5 -9.45 4.1 -9.85 4.3 -9.85 4.65 -9.9 4.75 -9.7" fill="#ab813a" fill-rule="evenodd" stroke="none"/>
    <path d="M6.35 -8.9 L6.4 -8.95 6.35 -8.9" fill="#715426" fill-rule="evenodd" stroke="none"/>
    <path d="M5.1 -9.55 Q5.6 -8.85 4.7 -8.25 L4.15 -8.2 4.1 -8.15 4.05 -8.1 Q3.6 -8.35 3.35 -8.9 3.3 -9.45 3.85 -9.6 L4.15 -9.8 4.75 -9.7 4.8 -9.75 4.95 -9.7 5.1 -9.55" fill="#d8b68d" fill-rule="evenodd" stroke="none"/>
    <path d="M7.85 -7.2 L7.9 -7.15 7.85 -7.1 7.75 -7.1 7.7 -7.15 7.6 -7.05 7.55 -6.8 7.4 -6.85 5.4 -8.75 5.4 -8.95 5.3 -9.15 5.2 -9.45 4.6 -9.85 4.4 -9.95 4.05 -10.0 4.0 -9.95 3.95 -9.9 3.7 -9.85 3.6 -9.95 3.65 -10.0 3.65 -10.1 4.0 -10.25 4.1 -10.25 4.45 -10.2 4.95 -10.2 5.05 -10.1 5.1 -10.05 5.6 -9.65 7.75 -7.4 7.8 -7.35 7.85 -7.3 7.85 -7.2 M8.5 -5.55 L8.75 -4.8 8.7 -4.75 8.8 -4.65 8.85 -4.6 8.9 -4.45 8.85 -4.4 8.75 -4.4 8.65 -4.4 8.5 -4.35 8.45 -4.4 Q8.35 -4.3 8.25 -4.3 7.45 -3.7 6.5 -3.55 L6.55 -3.3 6.45 -3.3 6.3 -3.35 6.25 -3.6 6.05 -3.9 6.1 -3.95 6.05 -4.0 6.15 -4.0 7.35 -4.9 5.4 -5.55 5.45 -5.1 5.5 -5.05 4.85 -4.5 4.8 -4.45 Q4.35 -4.5 4.5 -4.85 L4.55 -4.9 4.65 -4.9 4.45 -5.8 3.1 -6.15 3.3 -6.55 3.55 -6.8 3.5 -7.05 3.55 -7.1 3.65 -7.2 3.15 -8.0 3.15 -8.5 4.15 -7.9 4.8 -7.95 4.9 -7.95 4.95 -7.9 4.95 -7.8 5.45 -6.6 8.2 -5.55 8.3 -5.55 8.35 -5.6 8.45 -5.6 8.5 -5.55 M8.4 -4.85 L8.45 -4.9 8.25 -5.2 8.2 -5.25 5.2 -6.35 4.3 -6.75 4.05 -6.8 3.9 -6.75 3.75 -6.6 3.6 -6.45 7.65 -5.1 7.85 -5.1 8.0 -4.95 8.15 -4.8 8.45 -4.8 8.4 -4.85 M7.6 -4.65 L6.5 -3.95 6.45 -3.9 6.4 -3.85 6.5 -3.75 6.6 -3.75 7.85 -4.4 7.95 -4.5 8.05 -4.5 7.75 -4.7 7.6 -4.65 M9.35 3.1 L9.35 2.6 Q7.25 3.2 5.45 4.1 L5.4 4.15 5.85 4.5 6.0 4.45 6.2 4.35 7.85 3.6 8.15 3.6 9.3 3.15 9.35 3.1 M9.3 2.35 L9.4 2.25 9.55 2.3 9.55 2.6 9.6 2.65 9.7 3.25 Q9.1 3.65 8.3 3.85 L7.9 3.85 7.6 4.05 Q7.35 4.8 6.75 5.4 L6.7 5.45 6.7 5.55 6.8 5.65 6.85 5.8 6.8 5.85 6.55 5.8 5.95 5.1 5.8 5.15 5.75 5.1 5.75 4.8 Q5.25 4.6 4.9 4.15 6.6 2.95 8.85 2.4 L9.3 2.35 M6.1 4.85 L6.5 5.25 7.25 4.2 6.3 4.65 6.25 4.7 6.15 4.8 6.1 4.85 M7.4 -7.25 L7.5 -7.35 5.7 -8.95 5.8 -8.75 7.4 -7.25 M3.9 -7.35 L4.15 -7.4 4.35 -7.6 4.05 -7.6 4.0 -7.55 Q3.85 -7.6 3.65 -7.8 L3.9 -7.35 3.95 -7.3 3.9 -7.35 M4.75 -7.4 L4.4 -7.15 4.45 -6.9 5.1 -6.65 4.75 -7.4 M4.6 -5.75 L4.9 -4.95 5.25 -5.2 5.05 -5.7 4.6 -5.75" fill="#000000" fill-rule="evenodd" stroke="none"/>
    <path d="M9.35 3.1 L9.3 3.15 8.15 3.6 7.85 3.6 6.2 4.35 6.0 4.45 5.85 4.5 5.4 4.15 5.45 4.1 Q7.25 3.2 9.35 2.6 L9.35 3.1 M7.6 -4.65 L7.75 -4.7 8.05 -4.5 7.95 -4.5 7.85 -4.4 6.6 -3.75 6.5 -3.75 6.4 -3.85 6.45 -3.9 6.5 -3.95 7.6 -4.65 M8.4 -4.85 L8.45 -4.8 8.15 -4.8 8.0 -4.95 7.85 -5.1 7.65 -5.1 3.6 -6.45 3.75 -6.6 3.9 -6.75 4.05 -6.8 4.3 -6.75 5.2 -6.35 8.2 -5.25 8.25 -5.2 8.45 -4.9 8.4 -4.85 M3.9 -7.35 L3.65 -7.8 Q3.85 -7.6 4.0 -7.55 L4.05 -7.6 4.35 -7.6 4.15 -7.4 3.9 -7.35 M7.4 -7.25 L5.8 -8.75 5.7 -8.95 7.5 -7.35 7.4 -7.25 M6.1 4.85 L6.15 4.8 6.25 4.7 6.3 4.65 7.25 4.2 6.5 5.25 6.1 4.85 M4.6 -5.75 L5.05 -5.7 5.25 -5.2 4.9 -4.95 4.6 -5.75 M4.75 -7.4 L5.1 -6.65 4.45 -6.9 4.4 -7.15 4.75 -7.4" fill="#e3cdb3" fill-rule="evenodd" stroke="none"/>
  </g>
</svg>
