<?xml version="1.0" encoding="UTF-8" standalone="no"?>
<svg xmlns:xlink="http://www.w3.org/1999/xlink" height="10.65px" width="10.7px" xmlns="http://www.w3.org/2000/svg">
  <g transform="matrix(1.0, 0.0, 0.0, 1.0, 5.0, 5.05)">
    <path d="M4.25 -3.3 L4.35 -3.25 5.1 -2.0 5.2 -1.9 5.2 -1.85 5.1 -1.75 5.0 -1.7 4.45 -1.3 4.4 -1.25 4.45 -0.7 4.45 -0.3 5.45 -0.2 5.55 -0.2 5.65 -0.15 5.7 -0.1 5.35 1.55 5.3 1.6 5.15 1.55 5.05 1.55 4.3 1.6 4.2 2.1 4.15 2.15 4.1 2.25 4.35 2.4 4.4 2.5 4.4 2.55 4.55 2.65 4.75 2.95 4.85 3.05 4.9 3.1 4.9 3.15 4.8 3.25 4.75 3.3 3.95 4.05 3.6 4.4 3.55 4.4 3.45 4.45 3.35 4.45 3.35 4.4 3.2 4.4 3.25 4.3 2.85 3.85 2.8 3.85 2.25 4.2 2.35 4.35 2.4 4.35 2.4 4.55 2.45 4.6 2.5 4.6 2.4 5.15 2.35 5.2 2.2 5.2 Q1.65 5.6 0.9 5.6 L0.7 5.5 0.5 5.45 0.5 5.25 0.5 5.0 0.45 4.8 -0.1 4.6 -0.45 4.65 -0.5 4.8 -0.55 4.9 -0.6 5.1 -0.65 5.2 -0.75 5.35 -0.9 5.45 -1.0 5.45 -2.1 5.25 -2.2 5.15 -2.3 4.95 -2.65 4.75 -2.7 4.7 -2.75 4.6 -2.3 3.9 -2.25 3.85 -2.55 3.45 -2.6 3.45 -2.75 3.55 -2.85 3.6 -3.35 4.0 -3.4 4.15 -3.6 4.2 -3.7 4.05 -3.7 4.0 -3.85 3.8 -3.9 3.75 -3.9 3.6 -4.05 3.35 -4.1 3.3 -4.2 3.2 -4.2 3.1 -4.5 2.85 -4.4 2.7 -4.35 2.65 -4.3 2.65 -4.3 2.55 -4.25 2.45 -3.8 2.0 -3.8 1.85 -3.85 1.75 -3.85 1.7 -3.9 1.65 -3.9 1.6 -3.9 1.5 -4.6 1.4 -4.7 1.45 -4.75 1.5 -4.95 1.35 -5.0 0.35 -5.0 0.2 -4.95 0.1 -4.9 0.1 -4.8 -0.2 -4.85 -0.3 -4.75 -0.4 -4.7 -0.4 -4.15 -0.35 -3.95 -0.85 -3.85 -1.1 -4.55 -1.4 -4.65 -1.5 -4.65 -1.6 -4.65 -1.7 -4.65 -1.8 -4.5 -2.1 -4.2 -2.35 -3.75 -2.95 -3.7 -3.0 -3.7 -3.1 -3.5 -3.1 -3.45 -3.0 -3.45 -2.9 -3.1 -2.65 -2.65 -2.9 -2.75 -3.05 -2.95 -3.45 -3.0 -3.5 -3.0 -3.65 -3.0 -3.7 -2.9 -3.8 -2.85 -3.8 -2.8 -3.75 -2.75 -3.85 -2.7 -3.9 -2.4 -4.05 -2.0 -4.4 -1.5 -4.55 -1.4 -4.45 -1.35 -4.4 -1.35 -4.35 -1.1 -3.9 -0.1 -3.85 0.3 -4.5 0.4 -4.75 0.3 -4.85 0.35 -4.95 0.4 -4.95 0.45 -5.0 Q1.6 -5.15 2.35 -4.4 L2.4 -4.5 2.45 -4.55 2.55 -4.45 2.6 -4.45 2.4 -3.95 2.35 -3.85 2.2 -3.75 2.25 -3.65 2.35 -3.6 Q2.55 -2.95 3.3 -2.9 3.55 -3.25 3.95 -3.25 L3.95 -3.35 4.05 -3.45 4.25 -3.3 M0.05 -3.6 L-1.3 -3.55 -1.5 -4.2 -1.85 -4.15 -2.05 -4.0 -2.1 -3.95 -2.1 -3.9 -2.6 -3.5 -2.5 -3.25 -2.45 -3.25 -2.3 -3.15 -2.25 -2.9 -2.3 -2.8 -2.85 -2.4 -2.9 -2.25 -2.95 -2.2 -3.25 -2.3 -3.25 -2.4 -3.65 -2.7 -3.9 -2.35 -3.95 -2.25 -4.2 -1.95 -4.3 -1.65 -4.2 -1.65 -4.15 -1.6 -4.1 -1.55 -4.05 -1.55 -4.05 -1.5 -3.5 -1.2 -3.6 -0.9 -3.75 -0.75 -3.8 -0.5 -3.85 -0.25 Q-4.3 0.1 -4.6 -0.05 L-4.6 0.1 -4.6 0.2 -4.65 0.3 -4.7 0.35 -4.7 0.95 -4.7 1.1 -4.6 1.3 -4.6 1.25 -3.95 1.1 Q-3.75 1.1 -3.65 1.3 L-3.65 1.35 -3.5 1.85 -3.4 1.95 -4.0 2.6 -4.05 2.75 -3.9 3.0 -3.9 3.05 -3.8 3.25 -3.75 3.25 -3.65 3.4 -3.6 3.55 -3.6 3.65 -3.5 3.75 -3.1 3.4 -2.8 3.15 -2.7 3.1 -2.65 3.05 -1.95 3.75 -1.9 3.8 -2.05 4.1 -2.1 4.15 -2.45 4.6 -1.1 5.35 -0.95 5.0 -0.55 4.3 0.55 4.45 0.6 4.5 0.75 4.75 0.8 5.25 2.15 4.95 2.15 4.8 2.1 4.75 2.1 4.6 2.1 4.5 1.95 4.2 1.9 4.1 Q2.05 3.85 2.4 3.85 L2.6 3.6 2.6 3.55 2.7 3.45 2.8 3.45 2.85 3.5 3.4 4.15 3.55 4.1 3.7 3.95 3.7 3.85 3.75 3.8 3.85 3.7 3.9 3.7 3.95 3.75 4.15 3.6 4.25 3.35 4.3 3.35 4.3 3.3 4.35 3.2 4.45 3.1 4.15 2.7 4.15 2.65 3.6 2.4 3.9 1.9 4.05 1.4 4.05 1.3 5.15 1.25 5.15 1.2 5.15 1.1 Q5.45 0.65 5.35 0.1 L4.25 0.0 4.15 -0.65 4.15 -1.1 4.0 -1.35 4.8 -1.9 4.55 -2.2 4.5 -2.25 4.5 -2.35 4.5 -2.4 4.15 -2.95 4.1 -3.05 4.05 -3.05 3.7 -2.9 3.35 -2.6 2.55 -2.8 2.1 -3.3 2.1 -3.4 2.05 -3.45 1.9 -3.5 1.85 -3.55 1.85 -3.65 1.85 -3.75 2.1 -4.0 2.25 -4.3 1.95 -4.4 1.85 -4.5 0.6 -4.7 Q0.6 -4.1 0.1 -3.6 L0.05 -3.6 M0.9 -0.65 Q1.6 0.05 1.45 0.85 L1.2 1.25 Q0.05 2.15 -1.0 1.1 -1.45 0.65 -1.3 0.05 L-1.15 -0.3 -1.1 -0.35 -1.05 -0.4 -1.0 -0.4 -0.9 -0.4 -0.7 -0.6 -0.25 -0.95 0.85 -0.65 0.9 -0.65 M0.7 -0.4 L0.45 -0.55 0.1 -0.6 -0.45 -0.45 -0.55 -0.4 -0.65 -0.3 -0.75 -0.2 -0.9 -0.1 -1.0 0.15 -1.0 0.65 -0.75 0.95 -0.5 1.25 0.75 1.3 1.2 0.85 1.3 0.45 1.0 -0.05 0.7 -0.4" fill="#000000" fill-rule="evenodd" stroke="none"/>
    <path d="M0.9 -0.65 L0.85 -0.65 -0.25 -0.95 -0.7 -0.6 -0.9 -0.4 -1.0 -0.4 -1.05 -0.4 -1.1 -0.35 -1.15 -0.3 -1.3 0.05 Q-1.45 0.65 -1.0 1.1 0.05 2.15 1.2 1.25 L1.45 0.85 Q1.6 0.05 0.9 -0.65 M0.05 -3.6 L0.1 -3.6 Q0.6 -4.1 0.6 -4.7 L1.85 -4.5 1.95 -4.4 2.25 -4.3 2.1 -4.0 1.85 -3.75 1.85 -3.65 1.85 -3.55 1.9 -3.5 2.05 -3.45 2.1 -3.4 2.1 -3.3 2.55 -2.8 3.35 -2.6 3.7 -2.9 4.05 -3.05 4.1 -3.05 4.15 -2.95 4.5 -2.4 4.5 -2.35 4.5 -2.25 4.55 -2.2 4.8 -1.9 4.0 -1.35 4.15 -1.1 4.15 -0.65 4.25 0.0 5.35 0.1 Q5.45 0.65 5.15 1.1 L5.15 1.2 5.15 1.25 4.05 1.3 4.05 1.4 3.9 1.9 3.6 2.4 4.15 2.65 4.15 2.7 4.45 3.1 4.35 3.2 4.3 3.3 4.3 3.35 4.25 3.35 4.15 3.6 3.95 3.75 3.9 3.7 3.85 3.7 3.75 3.8 3.7 3.85 3.7 3.95 3.55 4.1 3.4 4.15 2.85 3.5 2.8 3.45 2.7 3.45 2.6 3.55 2.6 3.6 2.4 3.85 Q2.05 3.85 1.9 4.1 L1.95 4.2 2.1 4.5 2.1 4.6 2.1 4.75 2.15 4.8 2.15 4.95 0.8 5.25 0.75 4.75 0.6 4.5 0.55 4.45 -0.55 4.3 -0.95 5.0 -1.1 5.35 -2.45 4.6 -2.1 4.15 -2.05 4.1 -1.9 3.8 -1.95 3.75 -2.65 3.05 -2.7 3.1 -2.8 3.15 -3.1 3.4 -3.5 3.75 -3.6 3.65 -3.6 3.55 -3.65 3.4 -3.75 3.25 -3.8 3.25 -3.9 3.05 -3.9 3.0 -4.05 2.75 -4.0 2.6 -3.4 1.95 -3.5 1.85 -3.65 1.35 -3.65 1.3 Q-3.75 1.1 -3.95 1.1 L-4.6 1.25 -4.6 1.3 -4.7 1.1 -4.7 0.95 -4.7 0.35 -4.65 0.3 -4.6 0.2 -4.6 0.1 -4.6 -0.05 Q-4.3 0.1 -3.85 -0.25 L-3.8 -0.5 -3.75 -0.75 -3.6 -0.9 -3.5 -1.2 -4.05 -1.5 -4.05 -1.55 -4.1 -1.55 -4.15 -1.6 -4.2 -1.65 -4.3 -1.65 -4.2 -1.95 -3.95 -2.25 -3.9 -2.35 -3.65 -2.7 -3.25 -2.4 -3.25 -2.3 -2.95 -2.2 -2.9 -2.25 -2.85 -2.4 -2.3 -2.8 -2.25 -2.9 -2.3 -3.15 -2.45 -3.25 -2.5 -3.25 -2.6 -3.5 -2.1 -3.9 -2.1 -3.95 -2.05 -4.0 -1.85 -4.15 -1.5 -4.2 -1.3 -3.55 0.05 -3.6" fill="#ceab73" fill-rule="evenodd" stroke="none"/>
  </g>
</svg>
