<?xml version="1.0" encoding="UTF-8" standalone="no"?>
<svg xmlns:xlink="http://www.w3.org/1999/xlink" height="10.7px" width="10.5px" xmlns="http://www.w3.org/2000/svg">
  <g transform="matrix(1.0, 0.0, 0.0, 1.0, 5.0, 5.1)">
    <path d="M3.15 4.8 L3.1 4.85 1.7 5.35 1.6 5.45 1.55 5.45 1.45 5.35 1.4 5.2 1.15 4.6 1.15 4.55 0.55 4.5 0.15 4.4 -0.1 5.4 -0.15 5.5 -0.2 5.6 -0.25 5.6 -1.8 4.95 -1.85 4.9 -1.75 4.75 -1.75 4.65 -1.65 3.9 -2.15 3.75 -2.15 3.7 -2.25 3.65 -2.45 3.8 -2.55 3.85 -2.6 3.85 -2.75 3.95 -3.1 4.1 -3.2 4.2 -3.25 4.2 -3.3 4.2 -3.4 4.1 -3.45 4.05 -4.05 3.15 -4.25 2.75 -4.25 2.7 -4.3 2.55 -4.25 2.45 -4.2 2.5 -4.2 2.35 -4.1 2.4 -3.65 2.1 -3.6 2.05 -3.85 1.4 -4.0 1.5 -4.0 1.55 -4.2 1.5 -4.25 1.55 -4.25 1.6 -4.8 1.4 -4.85 1.35 -4.8 1.2 -4.95 -0.15 -4.85 -0.3 -4.75 -0.5 -4.55 -0.5 -4.3 -0.45 -4.1 -0.45 -3.8 -0.95 Q-3.7 -1.15 -3.75 -1.3 L-3.9 -1.4 -4.0 -1.45 -4.2 -1.55 -4.3 -1.6 -4.4 -1.75 -4.5 -1.9 -4.45 -2.0 Q-4.5 -2.55 -4.05 -3.05 L-3.95 -3.1 -3.7 -3.15 -3.45 -3.5 -3.4 -3.5 -3.3 -3.55 -2.7 -2.95 -2.7 -2.9 -2.25 -3.15 -2.2 -3.2 -2.3 -3.35 -2.3 -3.45 -2.65 -4.05 -2.75 -4.1 -2.8 -4.35 -2.6 -4.4 -2.55 -4.4 -2.35 -4.5 -2.3 -4.55 -2.15 -4.5 -1.85 -4.6 -1.8 -4.65 -1.65 -4.75 -1.55 -4.75 -1.25 -4.95 -1.15 -4.8 -1.1 -4.75 -1.1 -4.7 -1.0 -4.65 -0.9 -4.65 -0.55 -4.1 -0.4 -4.1 -0.3 -4.15 -0.25 -4.1 -0.2 -4.15 -0.15 -4.15 -0.05 -4.15 0.15 -4.75 0.15 -4.85 0.15 -4.95 0.25 -5.1 1.3 -4.95 1.45 -4.95 1.5 -4.85 1.5 -4.8 1.8 -4.65 1.9 -4.7 2.0 -4.6 1.95 -4.55 Q1.7 -4.25 1.8 -4.05 L2.3 -3.75 2.5 -3.6 2.95 -4.2 3.0 -4.25 3.1 -4.25 3.2 -4.25 3.3 -4.2 3.6 -4.0 3.8 -3.7 4.3 -3.15 4.35 -3.1 4.45 -3.05 4.4 -2.85 4.3 -2.85 4.2 -2.85 3.9 -2.55 4.05 -2.05 4.2 -2.15 4.65 -2.25 4.7 -2.3 4.85 -2.25 4.9 -2.25 5.0 -2.15 5.0 -2.1 4.9 -2.05 5.0 -2.0 5.05 -1.95 5.15 -1.6 5.35 -1.15 5.45 -0.6 5.3 -0.55 5.25 -0.55 5.2 -0.55 4.75 -0.4 4.5 0.6 5.05 1.15 5.3 1.3 5.4 1.2 5.5 1.25 5.5 1.3 5.5 1.4 Q5.45 2.5 4.55 3.1 L4.65 3.2 4.7 3.25 4.6 3.35 4.55 3.4 4.15 3.1 4.05 3.0 4.0 2.85 3.9 2.9 3.8 2.95 Q3.15 3.05 2.95 3.8 3.25 4.1 3.15 4.5 L3.25 4.5 3.35 4.65 3.15 4.8 M4.25 0.7 L4.45 -0.65 5.15 -0.65 5.15 -1.05 5.05 -1.25 5.0 -1.3 4.95 -1.35 4.65 -1.9 4.35 -1.85 4.35 -1.8 4.25 -1.65 3.95 -1.65 3.9 -1.75 3.6 -2.35 3.45 -2.45 3.4 -2.5 3.55 -2.75 3.65 -2.75 4.05 -3.1 3.7 -3.4 3.65 -3.5 3.4 -3.8 3.1 -3.9 3.1 -3.85 3.0 -3.8 2.95 -3.75 2.95 -3.7 2.9 -3.7 2.55 -3.25 2.25 -3.4 2.15 -3.55 1.9 -3.65 1.65 -3.75 Q1.4 -4.2 1.6 -4.5 L1.45 -4.5 1.35 -4.55 1.25 -4.6 1.2 -4.65 0.6 -4.8 0.45 -4.8 0.25 -4.75 0.3 -4.75 0.35 -4.1 0.1 -3.85 0.05 -3.85 -0.45 -3.8 -0.55 -3.7 -1.1 -4.45 -1.25 -4.5 -1.55 -4.4 -1.6 -4.4 -1.8 -4.35 -1.8 -4.3 -1.95 -4.25 -2.15 -4.2 -2.25 -4.25 -2.35 -4.15 -2.05 -3.7 -1.9 -3.35 -1.85 -3.25 -1.8 -3.15 Q-2.15 -2.75 -2.65 -2.6 L-2.7 -2.55 -2.95 -2.75 -3.0 -2.8 -3.35 -3.25 -4.35 -2.1 -4.0 -1.9 -3.4 -1.35 -3.75 -0.3 -3.8 -0.25 -4.1 -0.15 -4.6 -0.2 -4.55 1.2 -4.4 1.2 -4.35 1.15 -4.2 1.2 -4.1 1.2 -3.8 1.1 -3.7 1.1 Q-3.5 1.3 -3.55 1.65 L-3.35 1.9 -3.3 1.9 -3.2 2.0 -3.2 2.1 -3.3 2.15 -4.05 2.6 -4.0 2.75 -3.9 2.9 -3.8 2.95 -3.75 3.0 -3.65 3.1 -3.65 3.15 -3.75 3.2 -3.6 3.45 -3.4 3.6 -3.35 3.6 -3.25 3.65 -3.2 3.75 -2.7 3.6 -2.65 3.6 -2.3 3.1 -1.85 3.5 -1.45 3.75 -1.35 3.75 -1.5 4.8 -1.45 4.85 -1.35 4.85 Q-0.95 5.25 -0.4 5.25 L-0.1 4.2 0.6 4.2 1.05 4.3 1.3 4.2 1.65 5.05 2.0 4.85 2.05 4.8 2.15 4.85 2.2 4.85 2.85 4.65 2.95 4.6 2.95 4.55 2.85 4.2 2.65 3.8 3.0 3.0 3.55 2.65 3.65 2.7 3.7 2.65 3.8 2.5 3.85 2.45 3.95 2.5 4.05 2.5 4.25 2.8 4.5 3.0 4.65 2.7 4.75 2.65 5.2 1.45 Q4.65 1.35 4.25 0.75 L4.25 0.7 M1.2 1.0 L-0.4 1.25 -0.75 0.95 Q-1.4 -0.35 -0.2 -1.2 L0.9 -1.3 1.2 -1.1 1.25 -1.05 1.3 -1.0 1.3 -0.95 1.25 -0.85 1.45 -0.6 1.7 -0.05 Q1.65 0.55 1.2 0.95 L1.2 1.0 M0.95 0.75 L1.15 0.55 1.3 0.2 Q1.15 0.0 1.25 -0.35 L1.2 -0.5 1.1 -0.6 1.05 -0.7 0.95 -0.9 0.75 -1.05 0.25 -1.1 -0.1 -0.95 -0.45 -0.75 -0.75 0.5 -0.35 1.05 0.0 1.2 0.55 1.0 0.95 0.75" fill="#000000" fill-rule="evenodd" stroke="none"/>
    <path d="M1.2 1.0 L1.2 0.95 Q1.65 0.55 1.7 -0.05 L1.45 -0.6 1.25 -0.85 1.3 -0.95 1.3 -1.0 1.25 -1.05 1.2 -1.1 0.9 -1.3 -0.2 -1.2 Q-1.4 -0.35 -0.75 0.95 L-0.4 1.25 1.2 1.0 M4.25 0.7 L4.25 0.75 Q4.65 1.35 5.2 1.45 L4.75 2.65 4.65 2.7 4.5 3.0 4.25 2.8 4.05 2.5 3.95 2.5 3.85 2.45 3.8 2.5 3.7 2.65 3.65 2.7 3.55 2.65 3.0 3.0 2.65 3.8 2.85 4.2 2.95 4.55 2.95 4.6 2.85 4.65 2.2 4.85 2.15 4.85 2.05 4.8 2.0 4.85 1.65 5.05 1.3 4.2 1.05 4.3 0.6 4.2 -0.1 4.2 -0.4 5.25 Q-0.95 5.25 -1.35 4.85 L-1.45 4.85 -1.5 4.8 -1.35 3.75 -1.45 3.75 -1.85 3.5 -2.3 3.1 -2.65 3.6 -2.7 3.6 -3.2 3.75 -3.25 3.65 -3.35 3.6 -3.4 3.6 -3.6 3.45 -3.75 3.2 -3.65 3.15 -3.65 3.1 -3.75 3.0 -3.8 2.95 -3.9 2.9 -4.0 2.75 -4.05 2.6 -3.3 2.15 -3.2 2.1 -3.2 2.0 -3.3 1.9 -3.35 1.9 -3.55 1.65 Q-3.5 1.3 -3.7 1.1 L-3.8 1.1 -4.1 1.2 -4.2 1.2 -4.35 1.15 -4.4 1.2 -4.55 1.2 -4.6 -0.2 -4.1 -0.15 -3.8 -0.25 -3.75 -0.3 -3.4 -1.35 -4.0 -1.9 -4.35 -2.1 -3.35 -3.25 -3.0 -2.8 -2.95 -2.75 -2.7 -2.55 -2.65 -2.6 Q-2.15 -2.75 -1.8 -3.15 L-1.85 -3.25 -1.9 -3.35 -2.05 -3.7 -2.35 -4.15 -2.25 -4.25 -2.15 -4.2 -1.95 -4.25 -1.8 -4.3 -1.8 -4.35 -1.6 -4.4 -1.55 -4.4 -1.25 -4.5 -1.1 -4.45 -0.55 -3.7 -0.45 -3.8 0.05 -3.85 0.1 -3.85 0.35 -4.1 0.3 -4.75 0.25 -4.75 0.45 -4.8 0.6 -4.8 1.2 -4.65 1.25 -4.6 1.35 -4.55 1.45 -4.5 1.6 -4.5 Q1.4 -4.2 1.65 -3.75 L1.9 -3.65 2.15 -3.55 2.25 -3.4 2.55 -3.25 2.9 -3.7 2.95 -3.7 2.95 -3.75 3.0 -3.8 3.1 -3.85 3.1 -3.9 3.4 -3.8 3.65 -3.5 3.7 -3.4 4.05 -3.1 3.65 -2.75 3.55 -2.75 3.4 -2.5 3.45 -2.45 3.6 -2.35 3.9 -1.75 3.95 -1.65 4.25 -1.65 4.35 -1.8 4.35 -1.85 4.65 -1.9 4.95 -1.35 5.0 -1.3 5.05 -1.25 5.15 -1.05 5.15 -0.65 4.45 -0.65 4.25 0.7" fill="#ceab73" fill-rule="evenodd" stroke="none"/>
  </g>
</svg>
