<?xml version="1.0" encoding="UTF-8" standalone="no"?>
<svg xmlns:xlink="http://www.w3.org/1999/xlink" height="16.1px" width="18.1px" xmlns="http://www.w3.org/2000/svg">
  <g transform="matrix(1.0, 0.0, 0.0, 1.0, 7.85, 10.5)">
    <path d="M7.5 -9.95 L7.1 -9.9 7.0 -9.85 7.0 -9.8 6.85 -9.8 6.75 -9.7 6.7 -9.7 6.55 -9.6 6.5 -9.6 6.4 -9.6 4.4 -8.7 4.05 -8.8 3.75 -8.45 2.15 -8.0 1.5 -8.05 Q1.15 -8.1 0.95 -7.8 L0.7 -7.85 0.7 -7.8 0.7 -7.7 Q0.7 -7.55 0.85 -7.55 L2.3 -7.75 3.6 -7.9 4.1 -8.05 4.25 -8.1 Q4.8 -8.15 5.15 -8.45 L5.15 -8.5 5.15 -8.55 6.2 -9.0 6.45 -9.0 7.05 -9.25 7.15 -9.3 8.7 -9.7 8.45 -9.7 9.2 -9.85 9.25 -9.95 9.7 -9.95 9.7 -10.0 9.75 -10.05 9.8 -10.05 9.75 -9.85 9.7 -9.85 9.35 -9.65 Q8.15 -9.0 7.15 -8.05 L6.9 -7.5 6.1 -6.5 6.1 -6.4 6.15 -6.3 5.75 -5.7 4.5 -4.15 4.5 -4.05 4.45 -4.0 4.4 -3.95 4.4 -3.9 4.45 -3.85 4.45 -3.8 4.65 -3.8 4.7 -3.8 Q4.55 -3.1 4.75 -2.3 L4.8 -2.25 4.95 -2.1 4.95 -2.05 Q5.15 -1.3 5.6 -0.6 L6.0 0.95 6.05 1.8 Q5.75 3.7 3.9 4.45 1.15 5.5 -1.8 5.2 L-2.7 5.3 -4.25 4.95 Q-5.55 4.25 -6.4 2.95 L-6.5 2.6 Q-7.1 0.7 -6.45 -1.25 L-6.35 -1.3 -6.2 -1.75 Q-5.75 -2.95 -6.25 -4.05 L-6.25 -4.2 Q-6.25 -5.65 -7.25 -6.35 L-7.25 -6.4 Q-7.15 -6.4 -7.15 -6.45 L-7.05 -6.65 -7.0 -6.65 -6.85 -6.8 -6.55 -6.85 -5.0 -6.95 -4.7 -7.2 -6.55 -7.25 -6.6 -7.3 -4.55 -7.5 -1.0 -7.85 -1.05 -7.75 -1.1 -7.7 -1.1 -7.55 -1.05 -6.85 -1.05 -6.8 -1.05 -6.65 -1.7 -6.15 -1.75 -6.1 Q-1.9 -5.35 -1.7 -4.5 L-1.9 -4.35 -1.95 -4.4 -2.0 -4.45 -2.15 -4.6 -2.15 -4.65 -2.15 -5.05 -2.2 -5.1 -2.35 -5.1 -2.65 -4.8 -2.65 -4.75 -2.75 -4.4 -2.75 -4.35 -2.5 -2.95 -1.8 -2.5 Q-0.3 -2.2 1.15 -2.9 L1.1 -2.95 1.15 -2.95 Q2.2 -3.7 1.5 -5.1 L1.3 -5.1 1.2 -5.0 1.2 -4.4 Q1.05 -4.2 1.0 -4.35 L1.0 -4.45 0.95 -4.5 1.05 -4.75 Q1.15 -5.5 0.75 -6.25 L0.35 -6.45 0.35 -6.55 0.25 -6.7 0.1 -6.75 0.0 -6.65 0.25 -6.1 0.3 -5.95 0.15 -5.65 0.2 -5.6 Q0.2 -5.25 -0.15 -5.05 L-0.35 -5.05 -0.45 -5.15 Q-0.85 -5.8 -0.4 -6.55 L-0.4 -6.75 -0.5 -7.25 -0.55 -7.2 -0.85 -7.6 -0.9 -7.85 -0.9 -7.9 Q1.3 -7.95 3.4 -8.7 L5.65 -9.5 7.6 -10.0 7.5 -9.95 M6.95 -9.75 L7.0 -9.8 7.05 -9.75 6.95 -9.75 M0.45 -2.15 L0.4 -2.2 Q-1.5 -1.85 -3.25 -2.2 L-4.45 -2.0 -4.5 -2.0 -4.55 -2.05 -4.35 -2.1 -4.6 -2.1 -4.65 -2.1 -4.9 -1.9 -4.8 -1.95 -5.4 -1.45 -5.45 -1.4 -5.5 -1.4 -5.05 -1.8 -5.15 -1.75 -5.65 -1.55 -5.7 -1.55 -5.8 -1.45 -6.1 -0.7 -6.2 0.45 -6.1 1.55 -6.0 2.0 -5.35 2.5 -5.2 2.45 -5.1 2.3 -4.95 2.15 -2.75 0.2 -2.2 0.0 -0.35 -0.7 -0.1 -0.9 Q0.7 -1.35 0.45 -2.15 M-7.45 -6.45 L-7.55 -6.55 -7.55 -6.6 -7.4 -7.35 -7.2 -7.3 -7.25 -7.3 -7.25 -7.05 -7.3 -6.95 -7.4 -6.8 -7.45 -6.45 M-5.45 2.25 L-5.45 2.2 -5.4 2.2 -5.45 2.25" fill="#333333" fill-rule="evenodd" stroke="none"/>
    <path d="M9.25 -9.95 L9.2 -9.85 8.45 -9.7 8.7 -9.7 7.15 -9.3 7.05 -9.25 6.45 -9.0 6.2 -9.0 5.15 -8.55 5.15 -8.5 5.15 -8.45 Q4.8 -8.15 4.25 -8.1 L4.1 -8.05 3.6 -7.9 2.3 -7.75 0.85 -7.55 Q0.7 -7.55 0.7 -7.7 L0.7 -7.8 0.7 -7.85 0.95 -7.8 Q1.15 -8.1 1.5 -8.05 L2.15 -8.0 3.75 -8.45 4.05 -8.8 4.4 -8.7 6.4 -9.6 6.5 -9.6 6.55 -9.6 6.7 -9.7 6.75 -9.7 6.85 -9.8 7.0 -9.8 7.0 -9.85 7.1 -9.9 7.5 -9.95 7.1 -9.8 7.05 -9.75 7.0 -9.8 6.95 -9.75 6.8 -9.65 6.8 -9.6 6.75 -9.5 6.8 -9.5 6.9 -9.5 7.0 -9.5 7.05 -9.4 Q7.45 -9.5 7.75 -9.75 L9.25 -9.95 M-6.55 -7.25 L-4.7 -7.2 -5.0 -6.95 -6.55 -6.85 -6.3 -7.05 -6.5 -7.2 -6.55 -7.25 M-6.85 -6.8 L-7.0 -6.65 -7.05 -6.65 -7.15 -6.45 Q-7.15 -6.4 -7.25 -6.4 L-7.25 -6.35 -7.4 -6.4 -7.45 -6.45 -7.4 -6.8 -7.45 -6.75 -7.25 -6.6 -7.0 -6.8 -6.85 -6.8 M0.45 -2.15 Q0.7 -1.35 -0.1 -0.9 L-0.35 -0.7 -2.2 0.0 -2.75 0.2 -4.95 2.15 -5.1 2.3 -5.2 2.45 -5.35 2.5 -6.0 2.0 -6.1 1.55 -6.2 0.45 -6.1 -0.7 -5.8 -1.45 -5.7 -1.55 -5.65 -1.55 -5.15 -1.75 -5.05 -1.8 -5.5 -1.4 -5.45 -1.4 -5.4 -1.45 -4.8 -1.95 -4.9 -1.9 -4.65 -2.1 -4.6 -2.1 -4.35 -2.1 -4.55 -2.05 -4.5 -2.0 -4.45 -2.0 -3.25 -2.2 Q-1.5 -1.85 0.4 -2.2 L0.45 -2.15 M-5.45 -1.4 L-5.85 -0.55 -5.95 -0.35 -6.05 0.55 -6.05 0.6 Q-5.55 0.85 -5.0 0.6 L-3.5 -0.4 -2.8 -0.85 -2.1 -1.3 -2.1 -1.35 -2.0 -1.55 -2.0 -1.6 -2.15 -1.85 -2.2 -1.9 -2.25 -1.95 Q-3.2 -2.25 -4.2 -1.95 L-5.35 -1.45 -5.45 -1.4 M-5.7 -0.2 L-5.7 -0.15 -5.75 -0.1 -5.55 -0.45 -5.7 -0.2 M-5.45 2.25 L-5.4 2.2 -5.45 2.2 -5.45 2.25" fill="#5a5a5a" fill-rule="evenodd" stroke="none"/>
    <path d="M7.5 -9.95 L7.6 -10.0 7.7 -10.1 7.85 -10.1 9.6 -10.15 9.65 -10.15 9.7 -10.1 9.75 -10.05 9.7 -10.0 9.7 -9.95 9.25 -9.95 7.75 -9.75 8.0 -10.0 7.85 -10.1 7.0 -9.55 7.0 -9.5 6.9 -9.5 6.8 -9.5 6.75 -9.5 6.8 -9.6 6.8 -9.65 6.95 -9.75 7.05 -9.75 7.1 -9.8 7.5 -9.95 M-6.55 -6.85 L-6.85 -6.8 -7.0 -6.8 -7.25 -6.6 -7.45 -6.75 -7.4 -6.8 -7.3 -6.95 -7.25 -7.05 -7.25 -7.3 -7.2 -7.3 -7.2 -7.35 -7.15 -7.35 -7.1 -7.4 -6.95 -7.35 -7.0 -7.35 -7.1 -7.15 -6.5 -7.2 -6.3 -7.05 -6.55 -6.85 M-5.45 -1.4 L-5.35 -1.45 -4.2 -1.95 Q-3.2 -2.25 -2.25 -1.95 L-2.2 -1.9 -2.15 -1.85 -2.0 -1.6 -2.0 -1.55 -2.1 -1.35 -2.1 -1.3 -2.8 -0.85 -3.5 -0.4 -5.0 0.6 Q-5.55 0.85 -6.05 0.6 L-6.05 0.55 -5.95 -0.35 -5.85 -0.55 -5.45 -1.4 M-4.35 -1.35 L-4.25 -1.4 Q-4.15 -1.45 -4.2 -1.55 L-4.65 -1.7 -4.75 -1.6 -4.9 -1.5 -4.95 -1.35 -5.05 -1.05 -5.0 -1.05 Q-4.8 -0.9 -4.6 -0.9 L-4.5 -1.05 Q-4.35 -1.15 -4.35 -1.35 M-5.7 -0.2 L-5.55 -0.45 -5.75 -0.1 -5.7 -0.15 -5.7 -0.2" fill="#767676" fill-rule="evenodd" stroke="none"/>
    <path d="M-6.6 -7.3 L-6.55 -7.25 -6.5 -7.2 -7.1 -7.15 -7.0 -7.35 -6.95 -7.35 -6.95 -7.4 -6.6 -7.3 M7.75 -9.75 Q7.45 -9.5 7.05 -9.4 L7.0 -9.5 7.0 -9.55 7.85 -10.1 8.0 -10.0 7.75 -9.75 M-4.35 -1.35 Q-4.35 -1.15 -4.5 -1.05 L-4.6 -0.9 Q-4.8 -0.9 -5.0 -1.05 L-5.05 -1.05 -4.95 -1.35 -4.9 -1.5 -4.75 -1.6 -4.65 -1.7 -4.2 -1.55 Q-4.15 -1.45 -4.25 -1.4 L-4.35 -1.35" fill="#cbcbcb" fill-rule="evenodd" stroke="none"/>
    <path d="M7.6 -10.0 L5.65 -9.5 3.4 -8.7 Q1.3 -7.95 -0.9 -7.9 L-0.9 -7.85 -0.85 -7.6 -0.55 -7.2 -0.5 -7.25 -0.4 -6.75 -0.4 -6.55 Q-0.85 -5.8 -0.45 -5.15 L-0.35 -5.05 -0.15 -5.05 Q0.2 -5.25 0.2 -5.6 L0.15 -5.65 0.3 -5.95 0.25 -6.1 0.0 -6.65 0.1 -6.75 0.25 -6.7 0.35 -6.55 0.35 -6.45 0.75 -6.25 Q1.15 -5.5 1.05 -4.75 L0.95 -4.5 1.0 -4.45 1.0 -4.35 Q1.05 -4.2 1.2 -4.4 L1.2 -5.0 1.3 -5.1 1.5 -5.1 Q2.2 -3.7 1.15 -2.95 L1.1 -2.95 1.15 -2.9 Q-0.3 -2.2 -1.8 -2.5 L-2.5 -2.95 -2.75 -4.35 -2.75 -4.4 -2.65 -4.75 -2.65 -4.8 -2.35 -5.1 -2.2 -5.1 -2.15 -5.05 -2.15 -4.65 -2.15 -4.6 -2.0 -4.45 -1.95 -4.4 -1.9 -4.35 -2.0 -4.3 -2.2 -4.35 -2.2 -4.4 -2.35 -4.4 -2.45 -4.4 -2.45 -4.35 -2.5 -4.25 -2.4 -3.55 -2.35 -3.3 -2.25 -3.2 -2.25 -3.15 -2.15 -3.05 -2.15 -2.95 Q-2.05 -2.85 -1.95 -2.85 L-1.8 -2.8 -1.3 -2.7 -1.25 -2.7 -1.2 -2.7 0.25 -2.8 0.25 -2.85 0.5 -2.95 0.65 -2.95 0.65 -3.0 0.85 -3.1 0.9 -3.1 1.25 -3.4 1.4 -3.6 1.45 -3.6 1.5 -3.65 1.7 -4.1 1.7 -4.15 1.5 -4.2 1.55 -4.2 1.45 -4.15 1.45 -4.25 1.4 -4.15 1.35 -4.1 1.25 -4.15 1.0 -4.0 0.7 -4.1 0.65 -4.5 0.9 -4.95 0.9 -5.0 1.0 -5.2 0.9 -5.45 0.8 -5.55 0.8 -5.65 0.7 -5.7 0.65 -5.75 0.6 -5.8 0.6 -5.85 0.55 -5.9 0.55 -5.75 0.45 -5.6 0.45 -5.5 0.35 -5.3 0.3 -5.05 0.1 -4.9 0.1 -4.85 0.1 -4.8 0.0 -4.75 -0.45 -4.75 -0.9 -5.15 -0.95 -5.55 -0.9 -5.6 -0.85 -5.75 -0.9 -5.9 -0.7 -6.15 -0.7 -6.25 -0.7 -6.35 -0.6 -6.55 -0.6 -6.8 -0.65 -6.8 -0.75 -6.9 -0.75 -6.95 -0.75 -6.85 -0.8 -6.85 -0.9 -6.75 -0.85 -6.65 -1.6 -5.9 -1.55 -5.8 -1.6 -5.7 -1.6 -5.6 -1.6 -5.4 -1.55 -5.45 -1.5 -5.05 -1.5 -4.8 -1.65 -4.5 -1.7 -4.5 Q-1.9 -5.35 -1.75 -6.1 L-1.7 -6.15 -1.05 -6.65 -1.05 -6.8 -1.05 -6.85 -1.1 -7.55 -1.1 -7.7 -1.05 -7.75 -1.0 -7.85 -4.55 -7.5 -6.6 -7.3 -6.95 -7.4 -6.95 -7.35 -7.1 -7.4 -7.15 -7.35 -7.2 -7.35 -7.2 -7.3 -7.4 -7.35 -7.55 -6.6 -7.55 -6.55 -7.45 -6.45 -7.4 -6.4 -7.25 -6.35 Q-6.25 -5.65 -6.25 -4.2 L-6.25 -4.05 Q-5.75 -2.95 -6.2 -1.75 L-6.35 -1.3 -6.45 -1.25 Q-7.1 0.7 -6.5 2.6 L-6.4 2.95 Q-5.55 4.25 -4.25 4.95 L-2.7 5.3 -1.8 5.2 Q1.15 5.5 3.9 4.45 5.75 3.7 6.05 1.8 L6.0 0.95 5.6 -0.6 Q5.15 -1.3 4.95 -2.05 L4.95 -2.1 4.8 -2.25 4.75 -2.3 Q4.55 -3.1 4.7 -3.8 L4.7 -3.85 4.65 -3.8 4.45 -3.8 4.45 -3.85 4.4 -3.9 4.4 -3.95 4.45 -4.0 4.5 -4.05 4.5 -4.15 5.75 -5.7 6.15 -6.3 6.1 -6.4 6.1 -6.5 6.9 -7.5 7.15 -8.05 Q8.15 -9.0 9.35 -9.65 L9.7 -9.85 9.75 -9.85 9.8 -10.05 9.75 -10.05 9.7 -10.1 9.65 -10.15 9.6 -10.15 7.85 -10.1 7.7 -10.1 7.6 -10.0 M7.7 -10.35 L9.6 -10.45 9.7 -10.4 9.75 -10.4 9.9 -10.3 9.95 -10.4 10.0 -10.5 10.05 -10.5 10.15 -10.4 10.2 -10.4 10.15 -10.2 10.2 -10.15 10.25 -10.1 10.15 -10.05 10.15 -10.0 10.05 -9.85 10.2 -9.7 9.85 -9.55 9.65 -9.4 Q8.45 -8.85 7.55 -7.95 7.45 -7.85 7.35 -7.85 L6.95 -7.1 6.75 -6.65 6.7 -6.6 6.45 -6.45 5.45 -4.8 5.1 -4.4 5.1 -4.35 Q4.8 -3.5 5.05 -2.55 L5.05 -2.5 5.8 -0.8 Q6.7 0.95 6.15 2.75 L5.85 3.35 5.8 3.35 5.75 3.4 5.2 3.95 5.1 4.05 5.05 4.1 3.95 4.8 Q0.8 5.9 -2.6 5.5 -2.95 5.75 -3.25 5.5 -5.05 5.4 -6.1 3.85 L-6.7 3.1 Q-7.4 1.15 -6.85 -0.85 L-6.75 -1.3 Q-6.3 -1.95 -6.35 -2.65 L-6.35 -2.7 Q-6.15 -3.2 -6.35 -3.75 L-6.4 -3.8 -6.45 -3.9 -6.5 -3.95 Q-6.5 -5.1 -7.25 -5.95 L-7.55 -6.2 -7.85 -6.3 -7.75 -7.35 -7.8 -7.35 -7.75 -7.35 -7.8 -7.6 -7.8 -7.65 -7.7 -7.7 -7.65 -7.75 -7.6 -7.7 -7.55 -7.7 -7.45 -7.55 -6.5 -7.65 -5.55 -7.7 1.5 -8.5 1.65 -8.5 7.2 -10.2 7.65 -10.3 7.7 -10.35 M-0.75 -6.95 L-0.75 -7.05 -0.75 -6.95" fill="#000000" fill-rule="evenodd" stroke="none"/>
    <path d="M0.6 -5.8 L0.55 -5.75 0.55 -5.9 0.6 -5.85 0.6 -5.8 M0.3 -5.05 L0.15 -4.85 0.1 -4.8 0.1 -4.85 0.1 -4.9 0.3 -5.05 M0.0 -4.75 L-0.2 -4.65 0.1 -4.6 0.2 -4.6 0.5 -4.7 0.35 -4.35 0.5 -4.2 0.55 -4.25 0.65 -4.5 0.7 -4.1 1.0 -4.0 0.9 -4.0 0.9 -3.95 0.9 -3.85 1.05 -3.75 0.75 -3.45 0.7 -3.4 0.7 -3.35 0.05 -3.1 -1.05 -2.95 -1.7 -3.05 -1.7 -3.1 -1.7 -3.15 -1.85 -3.3 -1.85 -3.35 -1.95 -3.45 -2.1 -3.6 -2.1 -3.65 -2.15 -3.9 -1.3 -4.1 -1.25 -4.15 -1.25 -4.35 -1.05 -5.0 -1.1 -5.1 -1.1 -5.25 -1.15 -5.25 -1.2 -5.35 -1.2 -5.4 -1.25 -5.6 -1.2 -5.65 -1.1 -5.8 -1.1 -5.65 -0.95 -5.55 -0.9 -5.15 -0.45 -4.75 0.0 -4.75 M-0.75 -6.95 L-0.75 -6.9 -0.75 -6.85 -0.75 -6.95 M1.35 -4.1 L1.4 -4.15 1.45 -4.25 1.45 -4.15 1.55 -4.2 1.35 -4.1 M1.5 -3.65 L1.45 -3.6 1.4 -3.6 1.25 -3.4 0.9 -3.1 0.85 -3.1 1.4 -3.6 1.5 -3.65 M0.65 -3.0 L0.65 -2.95 0.5 -2.95 0.65 -3.0 M-2.15 -3.05 L-2.25 -3.15 -2.25 -3.2 -2.2 -3.2 -2.1 -3.05 -2.15 -3.05 M-2.45 -4.35 L-2.45 -4.4 -2.35 -4.4 -2.4 -4.4 -2.45 -4.35 M-1.5 -5.4 L-1.5 -5.3 -1.5 -5.05 -1.55 -5.45 -1.5 -5.4" fill="#e99916" fill-rule="evenodd" stroke="none"/>
    <path d="M-1.9 -4.35 L-1.7 -4.5 -1.65 -4.5 -1.5 -4.8 -1.5 -5.05 -1.5 -5.3 -1.5 -5.4 -1.55 -5.7 -1.45 -5.9 -1.45 -5.95 -0.75 -6.65 -0.65 -6.55 -0.6 -6.55 -0.7 -6.35 -0.7 -6.3 -0.75 -6.35 -0.9 -6.4 -1.15 -6.2 -1.2 -6.05 -1.1 -5.8 -1.2 -5.65 -1.25 -5.6 -1.2 -5.4 -1.2 -5.35 -1.2 -5.0 -1.25 -4.65 -1.35 -4.55 -1.35 -4.5 -1.4 -4.4 -1.5 -4.25 -1.75 -4.2 -1.7 -4.15 -1.75 -4.1 -2.15 -3.95 -2.15 -3.9 -2.1 -3.65 -2.1 -3.6 -2.1 -3.55 -2.05 -3.45 -2.15 -3.45 -2.2 -3.2 -2.25 -3.2 -2.35 -3.3 -2.4 -3.55 -2.45 -4.05 -2.4 -4.35 -2.2 -4.35 -2.0 -4.3 -1.9 -4.35 M0.55 -5.75 L0.6 -5.8 0.65 -5.75 0.7 -5.7 0.8 -5.65 0.8 -5.55 0.9 -5.45 1.0 -5.2 0.9 -5.0 0.9 -4.95 1.0 -5.3 0.95 -5.25 0.8 -5.35 0.75 -5.3 0.5 -4.7 0.2 -4.6 0.1 -4.6 -0.2 -4.65 0.0 -4.75 0.1 -4.8 0.15 -4.85 0.3 -5.05 0.35 -5.3 0.45 -5.5 0.45 -5.6 0.55 -5.75" fill="#f4cd8e" fill-rule="evenodd" stroke="none"/>
    <path d="M-0.75 -6.9 L-0.65 -6.8 -0.6 -6.8 -0.6 -6.55 -0.65 -6.55 -0.75 -6.65 -1.45 -5.95 -1.45 -5.9 -1.55 -5.7 -1.5 -5.4 -1.55 -5.45 -1.6 -5.4 -1.6 -5.6 -1.6 -5.7 -1.55 -5.8 -1.6 -5.9 -0.85 -6.65 -0.9 -6.75 -0.8 -6.85 -0.75 -6.85 -0.75 -6.9 M-0.7 -6.35 L-0.7 -6.25 -0.7 -6.15 -0.9 -5.9 -0.9 -6.05 -0.75 -6.2 -0.7 -6.25 -0.7 -6.3 -0.7 -6.35 M-2.4 -3.55 L-2.5 -4.25 -2.45 -4.35 -2.4 -4.4 -2.35 -4.4 -2.2 -4.4 -2.2 -4.35 -2.4 -4.35 -2.45 -4.05 -2.4 -3.55 M-1.2 -5.35 L-1.15 -5.25 -1.1 -5.25 -1.1 -5.1 -1.05 -5.0 -1.25 -4.35 -1.25 -4.15 -1.3 -4.1 -2.15 -3.9 -2.15 -3.95 -1.75 -4.1 -1.7 -4.15 -1.75 -4.2 -1.5 -4.25 -1.4 -4.4 -1.35 -4.5 -1.35 -4.55 -1.25 -4.65 -1.2 -5.0 -1.2 -5.35 M-2.1 -3.6 L-1.95 -3.45 -1.85 -3.35 -1.85 -3.3 -1.9 -3.3 -1.9 -3.35 -2.05 -3.45 -2.1 -3.55 -2.1 -3.6" fill="#efb85f" fill-rule="evenodd" stroke="none"/>
    <path d="M0.5 -4.7 L0.75 -5.3 0.8 -5.35 0.95 -5.25 1.0 -5.3 0.9 -4.95 0.65 -4.5 0.55 -4.25 0.5 -4.2 0.35 -4.35 0.5 -4.7 M-0.9 -5.9 L-0.85 -5.75 -0.9 -5.6 -0.95 -5.55 -1.1 -5.65 -1.1 -5.8 -1.2 -6.05 -1.15 -6.2 -0.9 -6.4 -0.75 -6.35 -0.7 -6.3 -0.7 -6.25 -0.75 -6.2 -0.9 -6.05 -0.9 -5.9 M1.0 -4.0 L1.25 -4.15 1.35 -4.1 1.55 -4.2 1.5 -4.2 1.7 -4.15 1.7 -4.1 1.5 -3.65 1.4 -3.6 0.85 -3.1 0.65 -3.0 0.5 -2.95 0.25 -2.85 0.25 -2.8 -1.2 -2.7 -1.25 -2.7 -1.3 -2.7 -1.8 -2.8 -1.95 -2.85 Q-2.05 -2.85 -2.15 -2.95 L-2.15 -3.05 -2.1 -3.05 -2.2 -3.2 -2.15 -3.45 -2.05 -3.45 -1.9 -3.35 -1.9 -3.3 -1.85 -3.3 -1.7 -3.15 -1.7 -3.1 -1.7 -3.05 -1.05 -2.95 0.05 -3.1 0.7 -3.35 0.7 -3.4 0.75 -3.45 1.05 -3.75 0.9 -3.85 0.9 -3.95 0.9 -4.0 1.0 -4.0" fill="#95620f" fill-rule="evenodd" stroke="none"/>
  </g>
</svg>
