<?xml version="1.0" encoding="UTF-8" standalone="no"?>
<svg xmlns:xlink="http://www.w3.org/1999/xlink" height="17.55px" width="17.75px" xmlns="http://www.w3.org/2000/svg">
  <g transform="matrix(1.0, 0.0, 0.0, 1.0, 5.6, 8.65)">
    <path d="M11.3 6.2 L11.2 5.8 11.1 5.7 11.05 5.7 11.05 5.55 10.95 5.45 10.95 5.4 10.8 5.3 10.8 5.25 10.8 5.15 9.65 3.3 9.7 2.9 9.3 2.7 8.65 1.2 8.55 0.5 Q8.55 0.1 8.25 0.0 L8.25 -0.25 8.2 -0.25 8.15 -0.25 8.0 -0.05 8.4 1.4 8.75 2.65 8.95 3.05 9.0 3.2 Q9.15 3.75 9.45 4.1 L9.5 4.1 9.55 4.05 10.15 5.05 10.2 5.3 10.5 5.8 10.6 5.9 11.2 7.45 11.15 7.2 11.45 7.9 11.5 7.95 11.55 8.35 11.6 8.35 11.7 8.4 11.7 8.45 11.5 8.45 11.45 8.4 11.25 8.1 9.35 6.05 8.75 5.95 7.7 5.25 7.6 5.3 7.5 5.3 6.8 5.0 5.1 4.0 5.0 4.0 4.95 3.95 4.85 4.0 4.8 4.0 4.75 4.0 4.8 4.2 4.8 4.25 3.3 4.5 3.3 4.55 3.2 4.7 3.15 4.7 Q2.35 5.05 1.75 5.55 L0.35 6.2 -0.6 6.35 Q-2.5 6.35 -3.5 4.6 -4.9 2.05 -5.0 -0.95 L-5.2 -1.9 Q-5.35 -2.65 -5.1 -3.4 -4.6 -4.8 -3.45 -5.85 L-3.05 -6.0 Q-1.25 -6.8 0.75 -6.45 L0.8 -6.35 1.25 -6.25 Q2.55 -6.0 3.6 -6.6 L3.75 -6.65 Q5.15 -6.8 5.7 -7.9 L5.75 -7.95 5.85 -7.85 6.05 -7.8 6.05 -7.75 6.15 -7.55 6.25 -7.25 6.65 -5.8 Q6.7 -5.6 6.9 -5.55 L6.65 -7.3 6.7 -7.4 7.2 -5.4 8.05 -1.95 7.95 -2.0 7.9 -2.0 7.75 -2.0 7.05 -1.85 7.0 -1.85 6.85 -1.85 6.25 -2.45 6.2 -2.45 4.6 -2.15 4.5 -2.35 4.5 -2.4 4.55 -2.45 4.65 -2.6 4.7 -2.6 5.15 -2.7 5.15 -2.75 5.15 -2.9 4.8 -3.15 4.75 -3.15 4.4 -3.25 4.35 -3.2 Q3.6 -3.15 2.95 -2.75 L2.65 -2.0 Q2.55 -0.5 3.45 0.85 L3.5 0.8 3.5 0.85 5.65 0.9 5.65 0.7 5.55 0.65 4.95 0.7 Q4.75 0.6 4.9 0.5 L5.0 0.45 5.05 0.45 5.3 0.5 Q6.05 0.5 6.7 0.0 L6.85 -0.4 6.95 -0.45 7.1 -0.6 7.1 -0.75 6.95 -0.8 6.5 -0.45 6.35 -0.45 6.05 -0.5 6.0 -0.5 Q5.65 -0.4 5.4 -0.7 L5.4 -0.9 5.45 -1.0 6.8 -1.15 7.0 -1.2 7.5 -1.35 7.5 -1.4 7.8 -1.75 8.05 -1.85 8.1 -1.85 Q8.45 0.3 9.45 2.3 L10.6 4.4 11.4 6.25 11.3 6.2 M11.0 5.65 L11.05 5.7 11.05 5.75 11.0 5.65 M2.6 0.25 L2.65 0.2 Q2.0 -1.55 2.15 -3.4 2.15 -4.05 1.8 -4.55 L1.75 -4.6 1.8 -4.7 1.9 -4.5 1.85 -4.75 1.85 -4.8 1.6 -5.0 1.7 -4.9 1.05 -5.45 1.0 -5.5 1.05 -5.55 1.45 -5.15 1.45 -5.25 1.15 -5.7 1.15 -5.75 1.0 -5.8 0.25 -6.05 -0.9 -5.95 -1.95 -5.7 -2.4 -5.55 -2.8 -4.85 -2.7 -4.7 -2.5 -4.65 -2.4 -4.5 -0.15 -2.55 0.1 -2.1 Q0.45 -1.1 1.05 -0.3 L1.25 -0.1 Q1.85 0.6 2.6 0.25 M5.8 -8.15 L5.9 -8.3 5.95 -8.3 6.65 -8.25 6.65 -8.0 6.65 -8.05 6.35 -8.05 6.25 -8.05 6.15 -8.15 5.8 -8.15 M-2.5 -4.95 L-2.45 -5.0 -2.5 -4.9 -2.5 -4.95" fill="#333333" fill-rule="evenodd" stroke="none"/>
    <path d="M11.5 7.95 L11.45 7.9 11.15 7.2 11.2 7.45 10.6 5.9 10.5 5.8 10.2 5.3 10.15 5.05 9.55 4.05 9.5 4.1 9.45 4.1 Q9.15 3.75 9.0 3.2 L8.95 3.05 8.75 2.65 8.4 1.4 8.0 -0.05 8.15 -0.25 8.2 -0.25 8.25 -0.25 8.25 0.0 Q8.55 0.1 8.55 0.5 L8.65 1.2 9.3 2.7 9.7 2.9 9.65 3.3 10.8 5.15 10.8 5.25 10.8 5.3 10.95 5.4 10.95 5.45 11.05 5.55 11.05 5.7 11.1 5.7 11.2 5.8 11.3 6.2 11.1 5.8 11.05 5.75 11.05 5.7 11.0 5.65 10.9 5.5 10.85 5.5 10.75 5.45 10.75 5.5 10.75 5.65 10.75 5.75 10.65 5.8 11.1 6.5 11.5 7.95 M6.65 -7.3 L6.9 -5.55 Q6.7 -5.6 6.65 -5.8 L6.25 -7.25 6.5 -7.05 6.6 -7.3 6.65 -7.3 M6.15 -7.55 L6.05 -7.75 6.05 -7.8 5.85 -7.85 5.75 -7.95 5.7 -7.9 5.75 -8.1 5.8 -8.15 6.15 -8.15 6.05 -8.2 5.95 -8.0 6.2 -7.75 6.15 -7.55 M2.6 0.25 Q1.85 0.6 1.25 -0.1 L1.05 -0.3 Q0.45 -1.1 0.1 -2.1 L-0.15 -2.55 -2.4 -4.5 -2.5 -4.65 -2.7 -4.7 -2.8 -4.85 -2.4 -5.55 -1.95 -5.7 -0.9 -5.95 0.25 -6.05 1.0 -5.8 1.15 -5.75 1.15 -5.7 1.45 -5.25 1.45 -5.15 1.05 -5.55 1.0 -5.5 1.05 -5.45 1.7 -4.9 1.6 -5.0 1.85 -4.8 1.85 -4.75 1.9 -4.5 1.8 -4.7 1.75 -4.6 1.8 -4.55 Q2.15 -4.05 2.15 -3.4 2.0 -1.55 2.65 0.2 L2.6 0.25 M1.0 -5.5 L0.2 -5.75 -0.05 -5.85 -0.95 -5.8 Q-1.2 -5.25 -0.85 -4.75 L0.3 -3.4 0.9 -2.7 1.4 -2.15 1.45 -2.1 1.65 -2.05 1.7 -2.1 1.9 -2.25 1.95 -2.3 2.0 -2.35 Q2.2 -3.35 1.75 -4.3 L1.1 -5.4 1.0 -5.5 M-0.25 -5.5 L-0.25 -5.55 0.1 -5.45 -0.2 -5.55 -0.25 -5.5 M-2.5 -4.95 L-2.5 -4.9 -2.45 -5.0 -2.5 -4.95" fill="#5a5a5a" fill-rule="evenodd" stroke="none"/>
    <path d="M11.3 6.2 L11.4 6.25 11.4 6.4 11.45 6.55 10.8 5.7 10.75 5.75 10.75 5.65 10.75 5.5 10.75 5.45 10.85 5.5 10.9 5.5 11.0 5.65 11.05 5.75 11.1 5.8 11.3 6.2 M6.25 -7.25 L6.15 -7.55 6.2 -7.75 5.95 -8.0 6.05 -8.2 6.15 -8.15 6.25 -8.05 6.35 -8.05 6.65 -8.05 6.65 -8.0 6.7 -8.05 6.7 -8.0 6.75 -7.95 6.7 -7.75 6.7 -7.8 6.5 -7.85 Q6.35 -7.55 6.6 -7.3 L6.5 -7.05 6.25 -7.25 M11.7 8.4 L11.6 8.35 11.55 8.35 11.5 7.95 11.1 6.5 11.4 6.75 11.45 6.55 11.75 8.25 11.75 8.3 11.75 8.35 11.7 8.4 M1.0 -5.5 L1.1 -5.4 1.75 -4.3 Q2.2 -3.35 2.0 -2.35 L1.95 -2.3 1.9 -2.25 1.7 -2.1 1.65 -2.05 1.45 -2.1 1.4 -2.15 0.9 -2.7 0.3 -3.4 -0.85 -4.75 Q-1.2 -5.25 -0.95 -5.8 L-0.05 -5.85 0.2 -5.75 1.0 -5.5 M1.15 -4.4 L1.2 -4.3 Q1.25 -4.2 1.35 -4.25 L1.4 -4.75 1.35 -4.8 1.2 -4.95 1.0 -5.0 0.75 -5.05 0.75 -5.0 Q0.65 -4.8 0.7 -4.6 L0.85 -4.45 1.15 -4.4 M-0.25 -5.5 L-0.2 -5.55 0.1 -5.45 -0.25 -5.55 -0.25 -5.5" fill="#767676" fill-rule="evenodd" stroke="none"/>
    <path d="M6.7 -7.4 L6.65 -7.3 6.6 -7.3 Q6.35 -7.55 6.5 -7.85 L6.7 -7.8 6.7 -7.75 6.75 -7.8 6.7 -7.4 M11.1 6.5 L10.65 5.8 10.75 5.75 10.8 5.7 11.45 6.55 11.4 6.75 11.1 6.5 M1.15 -4.4 L0.85 -4.45 0.7 -4.6 Q0.65 -4.8 0.75 -5.0 L0.75 -5.05 1.0 -5.0 1.2 -4.95 1.35 -4.8 1.4 -4.75 1.35 -4.25 Q1.25 -4.2 1.2 -4.3 L1.15 -4.4" fill="#cbcbcb" fill-rule="evenodd" stroke="none"/>
    <path d="M11.4 6.25 L10.6 4.4 9.45 2.3 Q8.45 0.3 8.1 -1.85 L8.05 -1.85 7.8 -1.75 7.5 -1.4 7.5 -1.35 7.0 -1.2 6.8 -1.15 5.45 -1.0 5.4 -0.9 5.4 -0.7 Q5.65 -0.4 6.0 -0.5 L6.05 -0.5 6.35 -0.45 6.5 -0.45 6.95 -0.8 7.1 -0.75 7.1 -0.6 6.95 -0.45 6.85 -0.4 6.7 0.0 Q6.05 0.5 5.3 0.5 L5.05 0.45 5.0 0.45 4.9 0.5 Q4.75 0.6 4.95 0.7 L5.55 0.65 5.65 0.7 5.65 0.9 3.5 0.85 3.5 0.8 3.45 0.85 Q2.55 -0.5 2.65 -2.0 L2.95 -2.75 Q3.6 -3.15 4.35 -3.2 L4.4 -3.25 4.75 -3.15 4.8 -3.15 5.15 -2.9 5.15 -2.75 5.15 -2.7 4.7 -2.6 4.65 -2.6 4.55 -2.45 4.5 -2.4 4.5 -2.35 4.45 -2.45 4.45 -2.65 4.45 -2.8 4.4 -2.9 4.35 -2.9 4.3 -2.95 3.55 -2.75 3.3 -2.65 3.25 -2.55 3.2 -2.55 3.1 -2.4 3.0 -2.4 2.95 -2.2 2.95 -2.05 2.9 -1.55 2.95 -1.5 2.9 -1.45 3.2 -0.05 3.25 -0.05 3.4 0.2 3.4 0.35 3.45 0.35 3.6 0.55 3.6 0.6 3.9 0.9 4.15 1.0 4.15 1.05 4.2 1.1 4.65 1.2 4.7 1.2 4.8 1.0 4.75 1.0 4.85 1.0 4.7 0.9 4.65 0.9 4.65 0.75 4.5 0.55 4.6 0.25 5.0 0.15 5.45 0.35 5.5 0.35 5.7 0.4 5.95 0.25 6.05 0.15 6.15 0.1 6.2 0.05 6.2 0.0 6.25 -0.1 6.3 -0.1 6.35 -0.15 6.2 -0.1 6.05 -0.25 5.95 -0.2 5.7 -0.25 5.45 -0.3 5.3 -0.45 5.25 -0.45 5.2 -0.45 5.1 -0.6 5.05 -0.95 5.4 -1.45 5.8 -1.55 5.85 -1.55 6.05 -1.5 6.2 -1.55 6.4 -1.4 6.5 -1.45 6.6 -1.4 6.8 -1.35 7.1 -1.4 7.05 -1.45 7.15 -1.55 7.2 -1.55 7.1 -1.55 7.1 -1.6 7.0 -1.7 6.9 -1.65 6.05 -2.25 5.95 -2.25 5.9 -2.3 5.8 -2.25 5.6 -2.2 5.6 -2.15 5.2 -2.05 5.0 -2.05 4.65 -2.1 4.6 -2.15 6.2 -2.45 6.25 -2.45 6.85 -1.85 7.0 -1.85 7.05 -1.85 7.75 -2.0 7.9 -2.0 7.95 -2.0 8.05 -1.95 7.2 -5.4 6.7 -7.4 6.75 -7.8 6.7 -7.75 6.75 -7.95 6.7 -8.0 6.7 -8.05 6.65 -8.0 6.65 -8.25 5.95 -8.3 5.9 -8.3 5.8 -8.15 5.75 -8.1 5.7 -7.9 Q5.15 -6.8 3.75 -6.65 L3.6 -6.6 Q2.55 -6.0 1.25 -6.25 L0.8 -6.35 0.75 -6.45 Q-1.25 -6.8 -3.05 -6.0 L-3.45 -5.85 Q-4.6 -4.8 -5.1 -3.4 -5.35 -2.65 -5.2 -1.9 L-5.0 -0.95 Q-4.9 2.05 -3.5 4.6 -2.5 6.35 -0.6 6.35 L0.35 6.2 1.75 5.55 Q2.35 5.05 3.15 4.7 L3.2 4.7 3.3 4.55 3.3 4.5 4.8 4.25 4.85 4.25 4.8 4.2 4.75 4.0 4.8 4.0 4.85 4.0 4.95 3.95 5.0 4.0 5.1 4.0 6.8 5.0 7.5 5.3 7.6 5.3 7.7 5.25 8.75 5.95 9.35 6.05 11.25 8.1 11.45 8.4 11.5 8.45 11.7 8.45 11.7 8.4 11.75 8.35 11.75 8.3 11.75 8.25 11.45 6.55 11.4 6.4 11.4 6.25 M11.7 6.4 L12.0 8.2 12.0 8.3 12.0 8.35 12.0 8.5 12.05 8.55 12.1 8.6 12.15 8.65 12.05 8.75 12.05 8.8 11.9 8.8 11.85 8.85 11.8 8.9 11.75 8.8 11.7 8.8 11.5 8.75 11.4 8.9 11.2 8.55 11.05 8.45 Q10.3 7.3 9.3 6.5 L9.2 6.3 8.35 6.05 7.95 5.9 7.9 5.85 7.7 5.65 5.9 4.9 5.4 4.6 5.35 4.6 3.6 4.75 3.55 4.75 2.05 5.75 Q0.4 6.85 -1.5 6.6 L-2.15 6.4 -2.15 6.35 -2.25 6.25 -2.8 5.8 -2.9 5.75 -2.95 5.7 -3.8 4.75 Q-5.3 1.75 -5.45 -1.65 L-5.5 -2.35 Q-5.6 -4.15 -4.25 -5.4 L-3.6 -6.05 Q-1.75 -7.05 0.3 -6.8 L0.75 -6.75 2.1 -6.55 2.15 -6.55 3.3 -6.7 3.35 -6.75 3.35 -6.8 3.4 -6.9 Q4.6 -7.05 5.3 -7.85 L5.5 -8.25 5.6 -8.5 6.6 -8.6 6.6 -8.65 6.6 -8.6 6.85 -8.65 6.9 -8.65 7.0 -8.6 7.05 -8.55 7.0 -8.5 7.0 -8.45 6.85 -8.3 7.1 -7.35 7.25 -6.45 9.0 0.4 9.05 0.55 11.45 5.85 11.6 6.35 11.7 6.4 M7.2 -1.55 L7.3 -1.6 7.2 -1.55" fill="#000000" fill-rule="evenodd" stroke="none"/>
    <path d="M6.25 -0.1 L6.2 -0.1 6.35 -0.15 6.3 -0.1 6.25 -0.1 M5.45 -0.3 L5.25 -0.4 5.2 -0.45 5.25 -0.45 5.3 -0.45 5.45 -0.3 M5.1 -0.6 L5.0 -0.7 5.05 -0.45 5.05 -0.35 5.15 -0.05 4.8 -0.15 4.65 0.0 4.75 0.05 5.0 0.15 4.6 0.25 4.5 0.55 4.45 0.45 4.4 0.45 4.3 0.5 4.25 0.65 3.9 0.4 3.85 0.35 3.8 0.35 3.45 -0.25 Q3.25 -0.75 3.2 -1.35 L3.2 -1.95 3.25 -1.95 3.3 -1.95 3.4 -2.15 3.45 -2.15 3.55 -2.25 3.65 -2.45 3.7 -2.45 4.0 -2.55 4.3 -1.75 4.35 -1.7 4.6 -1.7 5.2 -1.6 5.3 -1.65 5.45 -1.7 5.5 -1.75 5.55 -1.85 5.6 -1.85 5.8 -1.9 5.9 -1.85 6.0 -1.8 5.85 -1.75 5.8 -1.55 5.4 -1.45 5.05 -0.95 5.1 -0.6 M7.15 -1.55 L7.1 -1.55 7.2 -1.55 7.15 -1.55 M5.6 -2.15 L5.55 -2.15 5.45 -2.1 5.2 -2.05 5.6 -2.15 M4.65 0.9 L4.7 0.9 4.85 1.0 4.75 1.0 4.65 0.9 M4.2 1.1 L4.15 1.05 4.15 1.0 3.9 0.9 3.6 0.6 3.6 0.55 4.15 1.0 4.2 1.1 M3.45 0.35 L3.4 0.35 3.4 0.2 3.45 0.35 M3.1 -2.4 L3.2 -2.55 3.25 -2.55 3.25 -2.5 3.1 -2.35 3.1 -2.4 M4.35 -2.9 L4.4 -2.9 4.45 -2.8 4.45 -2.85 4.35 -2.9" fill="#e99916" fill-rule="evenodd" stroke="none"/>
    <path d="M4.5 -2.35 L4.6 -2.15 4.65 -2.1 5.0 -2.05 5.2 -2.05 5.45 -2.1 5.55 -2.15 5.85 -2.2 6.1 -2.1 6.1 -2.15 6.9 -1.55 6.8 -1.4 6.8 -1.35 6.6 -1.4 6.55 -1.45 6.6 -1.45 6.65 -1.65 6.35 -1.9 6.2 -1.9 6.0 -1.8 5.9 -1.85 5.8 -1.9 5.6 -1.85 5.55 -1.85 5.2 -1.8 4.85 -1.75 4.7 -1.85 4.65 -1.85 4.6 -1.9 4.45 -1.95 4.35 -2.15 4.3 -2.15 4.25 -2.15 4.05 -2.55 4.0 -2.55 3.7 -2.45 3.65 -2.45 3.6 -2.4 3.5 -2.35 3.5 -2.45 3.25 -2.5 3.25 -2.55 3.3 -2.65 3.55 -2.75 4.1 -2.9 4.4 -2.85 4.45 -2.65 4.45 -2.45 4.5 -2.35 M6.2 -0.1 L6.25 -0.1 6.2 0.0 6.2 0.05 6.15 0.1 6.05 0.15 5.95 0.25 5.7 0.4 5.5 0.35 5.45 0.35 5.8 0.35 5.75 0.3 5.85 0.2 5.8 0.15 5.15 -0.05 5.05 -0.35 5.05 -0.45 5.0 -0.7 5.1 -0.6 5.2 -0.45 5.25 -0.4 5.45 -0.3 5.7 -0.25 5.95 -0.2 6.05 -0.25 6.2 -0.1" fill="#f4cd8e" fill-rule="evenodd" stroke="none"/>
    <path d="M7.1 -1.55 L7.15 -1.55 7.05 -1.45 7.1 -1.4 6.8 -1.35 6.8 -1.4 6.9 -1.55 6.1 -2.15 6.1 -2.1 5.85 -2.2 5.55 -2.15 5.6 -2.15 5.6 -2.2 5.8 -2.25 5.9 -2.3 5.95 -2.25 6.05 -2.25 6.9 -1.65 7.0 -1.7 7.1 -1.6 7.1 -1.55 M6.55 -1.45 L6.6 -1.4 6.5 -1.45 6.4 -1.4 6.2 -1.55 6.3 -1.6 6.4 -1.45 6.5 -1.45 6.55 -1.45 M3.55 -2.75 L4.3 -2.95 4.35 -2.9 4.45 -2.85 4.45 -2.8 4.45 -2.65 4.4 -2.85 4.1 -2.9 3.55 -2.75 M5.55 -1.85 L5.5 -1.75 5.45 -1.7 5.3 -1.65 5.2 -1.6 4.6 -1.7 4.35 -1.7 4.3 -1.75 4.0 -2.55 4.05 -2.55 4.25 -2.15 4.3 -2.15 4.35 -2.15 4.45 -1.95 4.6 -1.9 4.65 -1.85 4.7 -1.85 4.85 -1.75 5.2 -1.8 5.55 -1.85 M3.65 -2.45 L3.55 -2.25 3.45 -2.15 3.4 -2.15 3.4 -2.2 3.45 -2.2 3.5 -2.35 3.6 -2.4 3.65 -2.45" fill="#efb85f" fill-rule="evenodd" stroke="none"/>
    <path d="M5.15 -0.05 L5.8 0.15 5.85 0.2 5.75 0.3 5.8 0.35 5.45 0.35 5.0 0.15 4.75 0.05 4.65 0.0 4.8 -0.15 5.15 -0.05 M6.0 -1.8 L6.2 -1.9 6.35 -1.9 6.65 -1.65 6.6 -1.45 6.55 -1.45 6.5 -1.45 6.4 -1.45 6.3 -1.6 6.2 -1.55 6.05 -1.5 5.85 -1.55 5.8 -1.55 5.85 -1.75 6.0 -1.8 M4.5 0.55 L4.65 0.75 4.65 0.9 4.75 1.0 4.8 1.0 4.7 1.2 4.65 1.2 4.2 1.1 4.15 1.0 3.6 0.55 3.45 0.35 3.4 0.2 3.25 -0.05 3.2 -0.05 2.9 -1.45 2.95 -1.5 2.9 -1.55 2.95 -2.05 2.95 -2.2 3.0 -2.4 3.1 -2.4 3.1 -2.35 3.25 -2.5 3.5 -2.45 3.5 -2.35 3.45 -2.2 3.4 -2.2 3.4 -2.15 3.3 -1.95 3.25 -1.95 3.2 -1.95 3.2 -1.35 Q3.25 -0.75 3.45 -0.25 L3.8 0.35 3.85 0.35 3.9 0.4 4.25 0.65 4.3 0.5 4.4 0.45 4.45 0.45 4.5 0.55" fill="#95620f" fill-rule="evenodd" stroke="none"/>
  </g>
</svg>
