<?xml version="1.0" encoding="UTF-8" standalone="no"?>
<svg xmlns:xlink="http://www.w3.org/1999/xlink" height="54.9px" width="106.75px" xmlns="http://www.w3.org/2000/svg">
  <g transform="matrix(1.0, 0.0, 0.0, 1.0, 2.65, 41.15)">
    <path d="M91.9 -35.5 L89.2 -36.6 81.15 -39.2 73.35 -40.3 66.85 -40.65 Q55.15 -40.65 43.25 -37.2 L30.0 -32.55 Q17.0 -28.1 11.5 -25.15 L4.05 -21.3 -1.85 -17.8 -1.65 -17.35 -1.45 -17.1 -1.0 -16.2 0.0 -14.3 0.55 -14.9 1.45 -15.45 1.35 -18.0 1.35 -18.9 1.35 -19.15 1.2 -19.15 1.1 -19.4 4.55 -20.15 4.75 -20.65 5.0 -20.2 5.1 -20.25 5.35 -20.0 5.1 -19.8 5.1 -19.7 5.15 -18.55 5.2 -18.1 Q6.85 -19.4 12.8 -22.05 16.1 -23.15 17.55 -23.9 L19.35 -24.9 20.65 -25.4 20.95 -26.0 20.85 -26.15 23.75 -27.05 24.95 -27.65 25.5 -27.75 26.05 -27.9 26.4 -28.05 26.6 -28.25 26.8 -28.15 28.75 -29.2 31.1 -30.2 33.05 -31.3 37.05 -33.1 42.2 -35.05 Q47.45 -37.05 52.7 -37.8 L53.65 -38.05 55.3 -38.3 57.1 -38.5 59.2 -38.8 62.5 -39.3 67.15 -39.65 68.9 -39.65 68.85 -39.75 69.75 -39.95 73.85 -39.7 77.3 -39.3 80.65 -38.85 81.85 -38.45 85.4 -37.45 88.2 -36.45 91.85 -35.45 92.6 -35.15 91.9 -35.5 M25.6 -27.2 L24.35 -26.75 22.65 -26.25 21.2 -25.95 21.25 -25.7 20.4 -23.65 18.85 -20.4 18.8 -20.3 17.35 -17.1 17.3 -17.1 17.4 -17.1 17.5 -16.9 17.05 -16.55 16.45 -15.15 12.1 -5.0 12.15 -5.0 12.25 -5.15 12.35 -4.95 12.9 -4.85 13.0 -4.65 12.55 -4.5 12.45 -4.5 12.6 -2.45 12.5 -0.3 14.9 -5.9 18.7 -14.1 20.5 -17.65 22.2 -21.2 24.25 -24.8 25.3 -26.6 25.65 -27.1 25.6 -27.15 25.6 -27.2 M26.5 -27.45 L24.65 -24.45 22.6 -20.9 19.1 -13.75 Q14.75 -4.55 12.8 0.5 L12.6 0.6 12.45 0.4 12.05 4.75 12.15 4.75 12.25 5.0 12.15 5.25 -2.4 5.25 -2.65 5.2 -2.65 4.7 -2.5 4.7 -2.5 4.55 -2.5 4.1 -2.3 -0.1 -2.25 -4.45 -1.75 -4.5 -1.1 -4.7 1.1 -4.95 2.0 -5.0 1.95 -5.25 2.0 -6.25 1.75 -11.3 1.45 -14.95 0.75 -14.3 Q0.45 -13.65 0.0 -13.5 L-0.7 -14.45 -1.1 -15.4 -1.7 -16.3 -1.85 -16.5 -2.35 -17.5 -2.4 -17.55 -2.5 -17.75 -2.5 -17.8 -2.5 -17.85 -2.45 -17.85 Q-2.25 -18.5 0.15 -19.85 L3.9 -21.8 7.9 -23.75 11.45 -25.7 Q17.2 -28.6 30.35 -33.2 L39.55 -36.55 45.95 -38.5 52.25 -39.8 63.75 -41.15 66.95 -41.15 74.25 -40.75 81.55 -39.6 Q83.45 -39.25 86.2 -38.0 L90.2 -36.7 Q94.7 -35.1 96.2 -33.3 L97.15 -32.1 97.75 -31.05 98.5 -28.8 98.45 -28.6 Q98.5 -28.5 98.25 -28.5 97.9 -28.5 97.4 -30.15 97.15 -30.3 96.85 -31.0 L96.7 -31.25 96.6 -30.15 96.75 -28.5 96.55 -22.9 96.6 -22.75 96.6 -22.7 97.4 -19.4 97.8 -17.45 98.0 -16.45 98.35 -15.45 Q99.7 -10.05 100.05 -7.5 L100.6 -3.45 101.25 0.45 102.05 4.5 102.5 6.45 103.0 8.15 103.75 8.15 103.75 8.2 104.05 8.2 104.1 8.55 103.95 11.55 104.0 11.65 103.95 11.9 103.9 12.6 103.75 12.65 Q103.4 12.45 103.4 12.1 L103.45 11.9 92.0 11.9 91.75 13.25 91.7 13.25 91.75 13.4 91.65 13.7 91.0 13.75 89.5 13.65 86.45 13.65 86.35 13.4 86.25 13.0 86.35 12.25 86.35 11.9 86.25 11.65 86.35 11.6 86.25 8.35 86.3 8.05 86.35 8.05 86.35 7.85 86.95 5.7 87.6 3.95 Q88.1 1.6 88.65 0.1 L91.0 -7.55 92.45 -11.4 93.85 -15.25 95.2 -19.1 95.55 -20.95 Q95.75 -21.85 96.1 -22.45 L96.05 -22.7 96.1 -23.35 96.25 -25.8 96.1 -26.85 96.25 -27.55 96.25 -28.2 Q96.0 -28.8 96.1 -29.45 L96.05 -30.75 Q96.05 -31.45 96.4 -31.8 L96.3 -32.0 94.3 -33.7 Q92.5 -34.7 91.15 -35.05 88.55 -35.65 87.85 -36.0 83.05 -37.8 81.6 -38.0 L80.45 -38.45 77.05 -38.9 73.1 -39.25 70.15 -39.4 70.35 -39.2 69.45 -39.1 67.5 -39.15 62.35 -38.75 59.1 -38.25 52.7 -37.3 Q47.1 -36.45 42.45 -34.65 L37.4 -32.8 Q34.95 -31.85 33.2 -30.8 L31.4 -29.7 Q30.6 -29.2 29.3 -28.8 27.7 -28.25 26.5 -27.45 M19.75 -24.35 L17.55 -23.3 Q17.0 -22.95 15.15 -22.3 L12.8 -21.45 Q6.8 -18.75 5.2 -17.35 L5.25 -16.45 5.45 -14.05 6.35 -14.6 8.45 -15.7 12.25 -17.8 15.65 -19.35 17.4 -20.2 18.35 -20.5 18.5 -20.9 20.25 -24.6 19.75 -24.35 M15.95 -18.8 L12.7 -17.45 5.5 -13.6 5.5 -12.35 5.65 -11.55 5.8 -11.65 6.5 -11.9 Q7.45 -12.2 8.3 -12.75 L11.65 -14.5 14.95 -16.2 Q16.1 -16.75 16.75 -16.95 L18.0 -19.75 15.95 -18.8 M11.85 -14.05 L8.0 -12.05 5.75 -11.0 5.85 -10.2 6.1 -8.15 Q6.15 -6.3 6.35 -4.9 L9.75 -4.7 10.1 -4.7 10.5 -4.85 10.55 -4.7 11.55 -4.8 13.3 -9.15 16.1 -15.55 16.4 -16.15 14.95 -15.45 11.85 -14.05 M1.9 -19.0 L1.85 -18.7 1.85 -17.85 2.2 -12.4 2.5 -6.3 2.45 -5.0 5.8 -4.9 5.85 -5.8 Q5.6 -6.8 5.6 -7.75 L5.3 -9.7 5.15 -10.95 5.0 -11.05 5.1 -11.15 5.05 -11.8 4.7 -17.1 4.5 -17.3 4.7 -17.65 4.55 -19.6 1.9 -19.2 1.9 -19.0 M0.85 -4.3 L-0.95 -4.1 -1.4 -4.0 -1.4 -3.7 -1.55 -3.1 -1.7 -2.55 -1.75 -1.55 -1.9 0.55 -2.0 4.7 1.45 4.6 11.6 4.75 11.6 4.5 11.8 2.0 12.0 -0.35 12.1 -2.8 12.0 -4.05 12.0 -4.45 11.65 -4.4 9.7 -4.15 7.8 -4.3 6.45 -4.35 6.5 -4.0 6.25 -3.75 Q5.9 -3.95 5.85 -4.4 L1.9 -4.45 0.85 -4.3 M0.5 -1.25 Q-0.55 -1.25 -0.5 -2.5 -0.5 -3.15 0.45 -3.0 1.35 -2.85 1.35 -2.15 L1.1 -1.55 Q0.85 -1.25 0.5 -1.25 M0.85 -2.15 L0.8 -2.35 0.0 -2.45 0.05 -2.05 Q0.15 -1.75 0.7 -1.8 L0.85 -2.15 M9.1 -1.7 L9.1 -2.15 Q9.1 -2.65 9.4 -2.9 L9.95 -3.4 Q10.75 -3.3 10.75 -2.25 L10.45 -1.55 Q10.15 -1.25 9.9 -1.25 9.2 -1.25 9.1 -1.7 M9.6 -2.45 L9.6 -1.9 9.85 -1.8 Q10.5 -1.8 10.1 -2.75 L9.6 -2.45 M96.3 -21.6 L94.2 -14.8 92.8 -10.95 91.45 -7.2 90.35 -3.35 89.05 0.5 Q88.75 1.0 88.5 2.35 L88.05 4.35 Q87.0 6.9 86.9 8.05 L102.45 8.15 101.8 6.0 100.75 0.8 Q100.5 -0.2 100.2 -3.15 L99.6 -7.05 97.95 -14.95 97.4 -16.9 Q97.05 -18.05 97.0 -18.9 L96.55 -20.6 96.3 -21.6 M103.0 8.7 L102.85 8.75 102.7 8.65 86.85 8.65 86.85 11.5 87.75 11.45 103.5 11.4 103.55 8.65 103.05 8.65 103.0 8.7 M97.25 0.35 L96.7 0.35 96.6 0.05 Q96.6 -0.4 97.0 -0.3 97.35 -0.2 97.5 0.1 L97.25 0.35 M89.85 13.0 L91.25 13.15 91.25 12.6 Q91.25 12.15 91.4 11.9 L86.85 11.9 86.85 13.1 89.85 13.0 M10.25 3.05 Q9.95 3.5 9.5 3.5 L8.85 3.05 8.5 2.5 Q8.5 1.85 8.95 1.85 L9.25 1.95 9.55 1.6 10.0 1.65 10.05 1.8 10.35 1.9 10.5 2.4 10.25 3.05 M9.75 2.25 L9.05 2.5 9.45 2.95 10.0 2.45 9.8 2.15 9.7 2.2 9.75 2.25 M1.0 2.45 Q1.0 3.5 0.05 3.5 -0.65 3.5 -0.65 2.65 -0.65 1.7 -0.15 1.65 L0.5 1.75 Q1.0 1.75 1.0 2.45 M0.45 2.85 L0.5 2.4 0.2 2.1 -0.15 2.8 0.1 2.95 0.45 2.85" fill="#000000" fill-rule="evenodd" stroke="none"/>
    <path d="M91.85 -35.45 L91.9 -35.5 91.85 -35.45 M17.35 -17.1 L18.8 -20.3 18.85 -20.4 20.4 -23.65 21.25 -25.7 21.2 -25.95 22.65 -26.25 24.35 -26.75 25.6 -27.2 25.6 -27.15 25.65 -27.1 25.3 -26.6 24.25 -24.8 22.2 -21.2 20.5 -17.65 18.7 -14.1 14.9 -5.9 12.5 -0.3 12.6 -2.45 12.45 -4.5 12.55 -4.5 13.0 -4.65 12.9 -4.85 12.35 -4.95 12.25 -5.15 12.15 -5.0 12.1 -5.0 16.45 -15.15 17.05 -16.55 17.5 -16.9 17.4 -17.1 17.35 -17.1 M1.9 -19.0 L1.9 -19.2 4.55 -19.6 4.7 -17.65 4.5 -17.3 4.7 -17.1 5.05 -11.8 5.1 -11.15 5.0 -11.05 5.15 -10.95 5.3 -9.7 5.6 -7.75 Q5.6 -6.8 5.85 -5.8 L5.8 -4.9 2.45 -5.0 2.5 -6.3 2.2 -12.4 1.85 -17.85 1.85 -18.7 1.9 -19.0 M103.0 8.7 L103.05 8.65 103.55 8.65 103.5 11.4 87.75 11.45 86.85 11.5 86.85 8.65 102.7 8.65 102.85 8.75 103.0 8.7 M89.85 13.0 L86.85 13.1 86.85 11.9 91.4 11.9 Q91.25 12.15 91.25 12.6 L91.25 13.15 89.85 13.0" fill="#ab813a" fill-rule="evenodd" stroke="none"/>
    <path d="M91.85 -35.45 L88.2 -36.45 85.4 -37.45 81.85 -38.45 80.65 -38.85 77.3 -39.3 73.85 -39.7 69.75 -39.95 68.85 -39.75 68.9 -39.65 67.15 -39.65 62.5 -39.3 59.2 -38.8 57.1 -38.5 55.3 -38.3 53.65 -38.05 52.7 -37.8 Q47.45 -37.05 42.2 -35.05 L37.05 -33.1 33.05 -31.3 31.1 -30.2 28.75 -29.2 26.8 -28.15 26.6 -28.25 26.4 -28.05 26.05 -27.9 25.5 -27.75 24.95 -27.65 23.75 -27.05 20.85 -26.15 20.95 -26.0 20.65 -25.4 19.35 -24.9 17.55 -23.9 Q16.1 -23.15 12.8 -22.05 6.85 -19.4 5.2 -18.1 L5.15 -18.55 5.1 -19.7 5.1 -19.8 5.35 -20.0 5.1 -20.25 5.0 -20.2 4.75 -20.65 4.55 -20.15 1.1 -19.4 1.2 -19.15 1.35 -19.15 1.35 -18.9 1.35 -18.0 1.45 -15.45 0.55 -14.9 0.0 -14.3 -1.0 -16.2 -1.45 -17.1 -1.65 -17.35 -1.85 -17.8 4.05 -21.3 11.5 -25.15 Q17.0 -28.1 30.0 -32.55 L43.25 -37.2 Q55.15 -40.65 66.85 -40.65 L73.35 -40.3 81.15 -39.2 89.2 -36.6 91.9 -35.5 91.85 -35.45 M15.95 -18.8 L18.0 -19.75 16.75 -16.95 Q16.1 -16.75 14.95 -16.2 L11.65 -14.5 8.3 -12.75 Q7.45 -12.2 6.5 -11.9 L5.8 -11.65 5.65 -11.55 5.5 -12.35 5.5 -13.6 12.7 -17.45 15.95 -18.8 M0.5 -1.25 Q0.85 -1.25 1.1 -1.55 L1.35 -2.15 Q1.35 -2.85 0.45 -3.0 -0.5 -3.15 -0.5 -2.5 -0.55 -1.25 0.5 -1.25 M0.85 -4.3 L1.9 -4.45 5.85 -4.4 Q5.9 -3.95 6.25 -3.75 L6.5 -4.0 6.45 -4.35 7.8 -4.3 9.7 -4.15 11.65 -4.4 12.0 -4.45 12.0 -4.05 12.1 -2.8 12.0 -0.35 11.8 2.0 11.6 4.5 11.6 4.75 1.45 4.6 -2.0 4.7 -1.9 0.55 -1.75 -1.55 -1.7 -2.55 -1.55 -3.1 -1.4 -3.7 -1.4 -4.0 -0.95 -4.1 0.85 -4.3 M9.1 -1.7 Q9.2 -1.25 9.9 -1.25 10.15 -1.25 10.45 -1.55 L10.75 -2.25 Q10.75 -3.3 9.95 -3.4 L9.4 -2.9 Q9.1 -2.65 9.1 -2.15 L9.1 -1.7 M10.25 3.05 L10.5 2.4 10.35 1.9 10.05 1.8 10.0 1.65 9.55 1.6 9.25 1.95 8.95 1.85 Q8.5 1.85 8.5 2.5 L8.85 3.05 9.5 3.5 Q9.95 3.5 10.25 3.05 M1.0 2.45 Q1.0 1.75 0.5 1.75 L-0.15 1.65 Q-0.65 1.7 -0.65 2.65 -0.65 3.5 0.05 3.5 1.0 3.5 1.0 2.45" fill="#85622e" fill-rule="evenodd" stroke="none"/>
    <path d="M0.85 -2.15 L0.7 -1.8 Q0.15 -1.75 0.05 -2.05 L0.0 -2.45 0.8 -2.35 0.85 -2.15 M9.6 -2.45 L10.1 -2.75 Q10.5 -1.8 9.85 -1.8 L9.6 -1.9 9.6 -2.45 M9.75 2.25 L9.7 2.2 9.8 2.15 10.0 2.45 9.45 2.95 9.05 2.5 9.75 2.25 M0.45 2.85 L0.1 2.95 -0.15 2.8 0.2 2.1 0.5 2.4 0.45 2.85" fill="#595959" fill-rule="evenodd" stroke="none"/>
  </g>
</svg>
