<?xml version="1.0" encoding="UTF-8" standalone="no"?>
<svg xmlns:xlink="http://www.w3.org/1999/xlink" height="10.65px" width="12.35px" xmlns="http://www.w3.org/2000/svg">
  <g transform="matrix(1.0, 0.0, 0.0, 1.0, -17.85, 6.05)">
    <path d="M19.8 -5.9 L18.55 -2.05 19.8 -3.1 20.45 -3.85 20.5 -3.9 20.6 -3.8 20.65 -3.75 20.0 -2.9 19.65 -2.15 20.4 -2.55 20.4 -2.6 20.45 -2.55 20.5 -2.55 20.5 -2.65 20.95 -3.2 21.0 -3.2 21.05 -3.25 21.15 -3.15 21.2 -3.1 21.0 -2.7 20.85 -2.55 20.8 -2.4 20.65 -2.1 20.6 -2.05 20.4 -1.8 20.25 -1.55 20.25 -1.6 20.3 -1.6 20.35 -1.65 21.35 -1.5 22.15 -1.55 22.3 -1.45 25.25 -1.2 25.3 -1.15 25.35 -1.1 26.1 -0.95 26.15 -1.0 28.55 -0.65 28.95 -0.7 29.25 -0.65 30.05 -0.9 30.2 -0.75 30.1 -0.6 30.05 -0.55 29.7 -0.45 29.7 -0.35 29.45 -0.35 29.0 -0.2 28.8 -0.2 28.55 -0.15 23.95 0.6 22.95 0.8 19.95 1.05 20.55 1.5 20.6 1.55 20.5 1.65 20.45 1.7 20.1 1.55 20.45 2.1 20.7 2.35 20.6 2.45 20.5 2.4 20.45 2.4 20.3 2.35 20.2 2.25 19.1 1.4 19.75 2.75 19.8 2.85 19.55 2.9 19.5 2.85 18.65 2.0 18.6 1.95 19.45 4.45 19.45 4.55 19.35 4.6 19.25 4.55 18.6 2.6 18.4 2.55 18.15 1.55 18.1 1.5 18.1 1.35 18.1 1.3 18.1 0.95 18.15 0.45 18.1 0.05 18.1 -0.75 17.95 -0.85 Q17.9 -1.0 18.0 -1.15 L18.0 -1.25 18.05 -1.3 18.05 -1.35 17.95 -1.35 17.9 -1.45 17.85 -1.6 18.35 -2.75 18.4 -2.8 18.45 -2.75 19.6 -6.0 19.65 -6.05 19.75 -5.95 19.8 -5.95 19.8 -5.9" fill="#ffffff" fill-rule="evenodd" stroke="none"/>
  </g>
</svg>
