<?xml version="1.0" encoding="UTF-8" standalone="no"?>
<svg xmlns:xlink="http://www.w3.org/1999/xlink" height="12.4px" width="11.8px" xmlns="http://www.w3.org/2000/svg">
  <g transform="matrix(1.0, 0.0, 0.0, 1.0, 6.2, 6.4)">
    <path d="M-6.0 -3.3 L-6.05 -3.3 Q-5.9 -4.15 -5.15 -4.7 L-4.6 -4.9 -4.55 -4.95 -4.5 -5.05 -4.4 -5.05 -4.4 -5.1 -4.25 -5.05 -4.25 -5.1 -4.2 -5.05 -4.1 -5.05 -4.1 -5.0 -4.05 -4.95 -4.05 -4.9 -3.6 -4.25 Q-3.0 -4.95 -2.1 -5.2 L-1.95 -5.2 -1.9 -5.15 -1.8 -5.1 -1.75 -5.1 -1.65 -6.2 -1.55 -6.3 -1.45 -6.25 -1.35 -6.3 -1.25 -6.35 1.2 -6.25 1.25 -6.2 1.3 -6.25 1.4 -6.2 1.4 -6.15 1.4 -5.1 1.4 -5.0 1.3 -4.95 1.25 -4.9 1.25 -4.8 1.3 -4.75 2.25 -4.35 2.95 -5.35 3.05 -5.45 3.1 -5.5 Q3.75 -5.4 4.2 -5.0 L5.35 -3.9 5.4 -3.85 5.4 -3.8 5.45 -3.75 4.9 -3.0 5.55 -1.45 5.6 -1.3 5.55 -1.2 5.1 0.25 4.4 1.95 4.75 2.3 4.8 2.25 4.95 2.4 5.05 2.5 5.1 2.55 4.05 4.3 3.95 4.4 3.85 4.55 3.75 4.6 3.65 4.55 3.45 4.6 3.5 4.7 3.4 4.75 3.25 4.75 3.15 4.65 3.0 4.65 2.9 4.45 2.9 4.4 2.6 4.2 2.45 4.2 2.3 4.1 1.95 4.5 2.0 4.55 1.5 4.85 1.45 5.45 1.4 5.55 1.45 5.65 Q1.1 6.0 0.7 5.95 L0.0 5.85 -0.6 5.85 -0.6 5.9 Q-1.0 6.15 -1.3 5.9 L-1.35 5.9 -1.5 5.8 -1.6 5.1 -1.65 5.05 -1.65 5.0 -1.75 4.95 -1.85 4.9 -1.8 4.95 -3.35 4.5 -3.85 4.8 Q-4.0 5.05 -4.25 5.0 -5.15 4.4 -5.25 3.35 L-5.5 2.7 -5.6 2.5 -4.9 2.1 -5.1 1.95 Q-5.05 1.7 -4.75 1.75 -4.6 1.6 -4.45 1.55 L-4.55 1.45 -4.6 1.4 -4.8 1.0 -5.2 -0.2 -5.3 -1.15 -5.5 -1.7 -5.5 -1.8 -5.5 -1.9 -5.55 -2.05 -5.6 -2.1 -5.55 -2.15 -6.05 -2.6 -6.0 -2.7 -5.95 -2.8 -6.15 -2.85 -6.2 -2.85 -6.15 -3.15 -6.05 -3.25 -5.2 -2.2 -5.2 -2.15 -5.3 -2.05 -5.15 -1.8 -5.15 -1.85 -5.1 -1.8 -5.05 -1.75 -5.05 -1.5 -4.9 -0.65 -4.7 0.5 -4.35 1.25 -3.95 1.5 -3.95 1.65 -4.0 1.75 -4.25 1.75 -4.5 1.9 -4.5 2.1 -4.5 2.2 Q-4.9 2.5 -5.25 2.6 L-5.0 3.1 -5.05 3.3 Q-4.85 4.1 -4.2 4.75 L-3.55 4.1 -3.5 4.05 -3.4 4.05 -3.25 4.15 -3.05 4.2 -3.05 4.25 -3.05 4.3 -1.5 4.45 -1.5 4.5 -1.45 4.55 -1.35 4.6 -1.35 4.65 -1.15 5.55 -1.05 5.55 -1.0 5.5 0.7 5.65 1.1 5.5 Q0.95 5.05 1.15 4.8 L1.15 4.75 1.2 4.8 1.2 4.7 1.2 4.6 1.3 4.55 1.35 4.5 1.4 4.55 1.45 4.55 1.5 4.5 1.55 4.5 2.0 4.0 2.2 3.7 2.3 3.65 2.35 3.6 2.45 3.7 2.5 3.7 2.5 3.75 2.8 3.9 2.85 3.9 2.9 3.95 2.9 4.05 3.25 4.3 Q4.15 3.75 4.6 2.9 L4.65 2.95 4.7 2.85 4.7 2.7 4.25 2.25 4.2 2.25 4.15 2.3 4.0 2.15 4.05 2.1 3.8 1.9 3.75 1.85 3.8 1.75 3.9 1.7 4.15 1.8 4.5 0.85 4.4 0.75 4.65 0.4 4.95 -0.55 4.95 -0.6 5.05 -0.65 5.1 -0.7 5.15 -0.65 5.35 -1.25 4.7 -2.55 4.65 -2.6 4.3 -3.05 4.4 -3.2 4.45 -3.2 4.5 -3.15 5.05 -3.65 5.0 -3.7 4.8 -4.0 4.7 -4.15 4.75 -4.0 4.75 -3.95 4.7 -3.95 4.5 -3.95 Q4.15 -4.9 3.25 -5.15 L3.2 -5.15 2.25 -4.05 2.1 -4.15 1.4 -4.3 1.05 -4.45 1.0 -4.45 0.95 -4.5 0.85 -4.55 0.95 -4.7 1.0 -6.0 1.0 -6.1 -1.15 -5.95 -1.35 -5.95 -1.4 -4.55 -1.45 -4.45 -1.55 -4.45 -1.7 -4.5 -1.7 -4.6 -1.7 -4.75 -1.7 -4.85 Q-2.7 -4.65 -3.55 -4.0 L-3.65 -3.95 -3.75 -4.0 -4.35 -4.7 -4.35 -4.75 Q-5.3 -4.3 -5.7 -3.3 -5.75 -3.2 -5.9 -3.2 L-5.95 -3.25 -6.0 -3.3 M2.5 3.75 L2.45 3.8 2.5 3.75 M-1.15 5.55 L-1.15 5.6 -1.15 5.55" fill="#000000" fill-rule="evenodd" stroke="none"/>
    <path d="M-6.05 -3.25 L-6.0 -3.3 -5.95 -3.25 -5.9 -3.2 Q-5.75 -3.2 -5.7 -3.3 -5.3 -4.3 -4.35 -4.75 L-4.35 -4.7 -3.75 -4.0 -3.65 -3.95 -3.55 -4.0 Q-2.7 -4.65 -1.7 -4.85 L-1.7 -4.75 -1.7 -4.6 -1.7 -4.5 -1.55 -4.45 -1.45 -4.45 -1.4 -4.55 -1.35 -5.95 -1.15 -5.95 1.0 -6.1 1.0 -6.0 0.95 -4.7 0.85 -4.55 0.95 -4.5 1.0 -4.45 1.05 -4.45 1.4 -4.3 2.1 -4.15 2.25 -4.05 3.2 -5.15 3.25 -5.15 Q4.15 -4.9 4.5 -3.95 L4.7 -3.95 4.75 -3.95 4.75 -4.0 4.8 -4.0 5.0 -3.7 5.05 -3.65 4.5 -3.15 4.45 -3.2 4.4 -3.2 4.3 -3.05 4.65 -2.6 4.7 -2.55 5.35 -1.25 5.15 -0.65 5.1 -0.7 5.05 -0.65 4.95 -0.6 4.95 -0.55 4.65 0.4 4.4 0.75 4.5 0.85 4.15 1.8 3.9 1.7 3.8 1.75 3.75 1.85 3.8 1.9 4.05 2.1 4.0 2.15 4.15 2.3 4.2 2.25 4.25 2.25 4.7 2.7 4.7 2.85 4.65 2.95 4.6 2.9 Q4.15 3.75 3.25 4.3 L2.9 4.05 2.9 3.95 2.85 3.9 2.8 3.9 2.5 3.75 2.5 3.7 2.45 3.7 2.35 3.6 2.3 3.65 2.2 3.7 2.0 4.0 1.55 4.5 1.5 4.5 1.45 4.55 1.4 4.55 1.35 4.5 1.3 4.55 1.2 4.6 1.2 4.7 1.2 4.8 1.15 4.75 1.15 4.8 Q0.95 5.05 1.1 5.5 L0.7 5.65 -1.0 5.5 -1.05 5.55 -1.15 5.55 -1.35 4.65 -1.35 4.6 -1.45 4.55 -1.5 4.5 -1.5 4.45 -3.05 4.3 -3.05 4.25 -3.05 4.2 -3.25 4.15 -3.4 4.05 -3.5 4.05 -3.55 4.1 -4.2 4.75 Q-4.85 4.1 -5.05 3.3 L-5.0 3.1 -5.25 2.6 Q-4.9 2.5 -4.5 2.2 L-4.5 2.1 -4.5 1.9 -4.25 1.75 -4.0 1.75 -3.95 1.65 -3.95 1.5 -4.35 1.25 -4.7 0.5 -4.9 -0.65 -5.05 -1.5 -5.05 -1.75 -5.1 -1.8 -5.15 -1.85 -5.15 -1.8 -5.3 -2.05 -5.2 -2.15 -5.2 -2.2 -6.05 -3.25" fill="#754e39" fill-rule="evenodd" stroke="none"/>
  </g>
</svg>
