<?xml version="1.0" encoding="UTF-8" standalone="no"?>
<svg xmlns:xlink="http://www.w3.org/1999/xlink" height="11.05px" width="32.1px" xmlns="http://www.w3.org/2000/svg">
  <g transform="matrix(1.0, 0.0, 0.0, 1.0, 11.45, 5.65)">
    <path d="M3.85 -3.8 L4.85 -3.7 3.95 -3.65 4.0 -3.6 4.05 -3.55 4.1 -3.4 4.2 -3.4 4.15 -3.0 4.1 -1.85 4.05 -1.4 4.0 -1.35 3.9 -1.3 3.85 -0.7 3.95 -0.65 3.95 -0.4 Q8.55 -0.85 13.25 -0.55 L13.45 -0.55 14.7 -0.55 17.2 -0.15 Q18.45 0.05 19.35 -0.6 L19.5 0.0 19.5 0.5 19.4 0.55 19.3 0.65 10.15 1.15 5.55 1.75 4.85 1.9 4.15 2.0 4.2 0.0 4.1 0.0 4.0 -0.15 3.95 -0.15 3.95 -0.1 3.85 0.7 3.8 0.7 3.75 0.75 Q3.55 0.9 3.75 1.15 L3.7 1.25 Q3.5 1.65 3.6 2.1 L3.75 2.4 3.75 2.65 3.7 2.7 3.6 2.7 3.6 2.35 3.55 2.1 3.5 0.75 3.55 0.3 3.55 0.2 3.6 0.15 3.55 -0.35 3.6 -1.85 3.75 -2.7 3.8 -2.9 3.75 -3.05 3.8 -3.45 3.85 -3.6 3.95 -3.65 3.85 -3.65 3.85 -3.8 M14.1 -2.45 Q16.6 -2.2 19.15 -2.5 L19.2 -2.2 14.1 -2.45 M19.4 -2.65 L19.65 -2.8 19.75 -2.85 19.8 -3.0 19.8 -3.05 20.15 -3.0 20.25 -3.0 20.25 -2.8 20.1 -2.9 20.1 -2.85 19.85 -2.8 19.8 -2.7 19.8 -2.65 19.5 -2.5 19.5 -2.55 19.4 -2.65 M20.25 -2.3 Q20.15 -1.35 20.4 -0.4 L20.4 -0.2 20.35 -0.2 20.35 -0.05 20.4 -0.05 20.4 0.15 20.3 0.7 Q20.15 0.6 20.1 0.85 L19.9 0.95 19.9 0.8 20.0 0.8 20.0 0.65 19.95 -0.6 20.05 -0.7 20.1 -0.75 20.15 -2.15 20.15 -2.2 20.25 -2.3 M4.8 3.45 L4.6 3.45 4.8 3.45 M-9.35 3.85 L-9.6 3.65 -9.4 3.75 -9.35 3.85 M-9.9 3.35 L-10.05 3.2 -9.95 3.25 -9.9 3.35 M-10.95 0.9 L-11.0 0.4 -10.95 0.75 -10.95 0.9 M-11.0 -0.75 L-10.45 -2.8 Q-10.2 -3.45 -9.6 -3.9 -7.8 -5.45 -5.6 -4.95 L-5.55 -5.0 -5.45 -5.0 -5.45 -5.1 -5.4 -5.15 -5.4 -5.2 -2.9 -4.75 -2.95 -4.65 -3.0 -4.65 -6.15 -4.95 -6.35 -4.9 Q-7.9 -4.6 -9.25 -3.75 -9.95 -3.4 -10.3 -2.65 L-10.3 -2.5 -10.3 -2.35 -10.3 -2.3 -10.3 -1.95 -10.3 -1.85 -10.25 -1.8 -10.25 -1.75 -10.05 -0.7 Q-9.95 -0.1 -9.4 0.2 -7.5 1.3 -5.3 0.9 L-2.95 0.55 -2.95 0.7 -3.0 0.8 -3.0 1.15 Q-3.35 2.0 -3.05 3.0 L-3.0 3.05 -3.0 3.2 Q-5.7 3.6 -8.3 3.25 -8.55 2.8 -9.05 2.65 L-9.65 1.9 -9.65 1.85 -9.65 1.7 -10.5 0.2 -10.45 -0.05 -10.5 -0.05 -10.6 -0.2 -10.7 -0.15 -10.7 -0.2 -10.75 -0.7 -10.8 -0.75 -10.85 -0.85 -10.95 -0.75 -11.0 -0.75 M-2.4 -4.65 L-0.9 -4.4 2.25 -3.95 3.4 -3.85 3.35 -3.75 3.3 -3.75 3.2 -3.6 3.1 -3.6 1.15 -3.85 -2.3 -4.55 -2.2 -4.45 -2.2 -4.3 -2.15 -4.25 -2.1 -4.25 -2.1 -3.95 -2.15 -3.45 -2.15 -2.9 -2.2 -1.8 -2.3 -1.75 -2.35 -1.65 -2.35 -1.55 -2.4 -0.95 -2.35 -0.9 -2.3 -0.25 -2.35 -0.2 -2.4 0.45 -2.45 0.8 -2.55 0.85 Q-2.75 1.05 -2.55 1.35 L-2.6 1.5 Q-2.85 2.2 -2.5 2.9 L-2.5 3.1 -2.5 3.2 -2.55 3.15 -2.6 3.25 -2.7 3.25 -2.7 3.15 -2.7 2.8 -2.75 0.85 -2.7 0.5 -2.7 0.3 -2.7 0.15 -2.7 0.1 -2.7 -1.5 -2.55 -2.9 -2.5 -3.45 -2.5 -3.5 -2.45 -3.65 -2.5 -4.1 -2.45 -4.3 -2.4 -4.55 -2.4 -4.6 -2.4 -4.65 M3.3 -0.35 L3.3 -0.15 3.3 0.65 3.3 0.7 3.25 1.05 Q3.0 1.55 3.15 2.15 L-2.15 3.05 -2.1 0.4 -1.6 0.3 1.65 -0.15 3.3 -0.35 M-2.4 -4.55 L-2.35 -4.55 -2.4 -4.55 M-10.05 2.05 L-10.1 2.05 -10.15 1.95 -10.2 1.9 -10.2 1.85 -10.25 1.7 -10.4 1.35 -10.05 1.9 -10.05 2.05" fill="#343f50" fill-rule="evenodd" stroke="none"/>
    <path d="M3.85 -3.8 L3.8 -3.95 3.75 -3.95 3.6 -4.05 3.55 -4.0 3.4 -3.85 2.25 -3.95 -0.9 -4.4 -2.4 -4.65 -2.45 -4.95 -2.55 -4.95 -2.65 -5.1 -2.7 -5.0 -2.9 -4.75 -5.4 -5.2 -5.45 -5.2 -5.4 -5.15 -5.45 -5.1 -5.45 -5.0 -5.55 -5.0 -5.6 -4.95 Q-7.8 -5.45 -9.6 -3.9 -10.2 -3.45 -10.45 -2.8 L-11.0 -0.75 -11.05 -0.7 -11.05 -0.55 -11.05 -0.05 -11.1 0.0 -11.1 0.15 -11.0 0.4 -10.95 0.9 -10.95 2.1 -10.7 2.3 Q-10.55 2.85 -10.05 3.2 L-9.9 3.35 -9.8 3.6 -9.65 3.6 -9.6 3.65 -9.35 3.85 -9.05 4.2 -8.9 4.25 -8.8 4.25 -8.75 4.4 -7.85 4.7 -7.45 4.75 -6.15 4.8 -5.55 4.75 -5.45 4.75 -6.05 4.9 -4.1 4.9 -3.95 4.95 -3.9 4.9 -3.85 4.9 -3.85 4.85 -2.8 4.65 -2.8 4.7 -2.6 4.75 -2.45 4.75 -2.15 4.55 -2.15 4.4 -2.1 4.4 -2.05 4.4 -1.4 4.25 -0.2 4.05 2.5 3.8 2.55 3.75 3.4 3.7 3.5 3.9 1.5 4.2 -5.85 5.3 -5.9 5.25 -6.8 5.4 -8.0 5.05 Q-9.7 4.4 -10.8 2.9 L-10.8 2.6 -11.05 2.3 -11.45 0.35 -11.45 -0.05 -11.45 -0.2 -11.45 -0.6 -11.05 -2.55 -10.8 -2.85 -10.8 -3.15 Q-9.7 -4.7 -8.0 -5.3 L-6.8 -5.65 -5.9 -5.5 -5.85 -5.6 1.5 -4.45 5.3 -3.95 12.6 -3.15 19.15 -2.7 19.1 -2.8 19.1 -2.85 19.5 -3.2 19.8 -3.5 20.25 -3.4 20.3 -3.4 20.35 -3.35 20.6 -3.15 20.65 -0.2 20.65 -0.05 20.6 2.9 20.35 3.1 20.3 3.15 20.25 3.15 19.8 3.25 19.5 2.95 19.1 2.6 19.1 2.55 19.15 2.45 12.6 2.9 5.3 3.7 4.05 3.85 4.1 3.75 4.1 3.65 4.5 3.6 4.55 3.5 4.6 3.45 4.8 3.45 4.9 3.45 5.45 3.55 5.5 3.6 5.6 3.5 5.95 3.35 6.2 3.3 6.3 3.25 7.45 3.15 8.65 3.25 Q8.6 3.15 8.7 3.15 L8.7 3.1 8.75 3.0 8.9 3.0 9.5 3.0 9.75 2.95 9.8 3.0 9.95 3.1 10.25 2.9 10.35 2.8 10.5 2.8 10.7 2.75 11.85 2.55 12.25 2.55 12.4 2.5 12.9 2.45 12.95 2.4 14.95 2.3 15.55 2.4 17.05 2.15 18.9 2.25 19.0 2.3 19.6 2.55 19.65 2.6 19.75 2.65 19.75 2.75 19.8 2.9 20.25 2.8 20.25 2.75 20.35 2.6 20.35 2.45 Q20.3 1.9 20.55 1.35 L20.55 1.25 20.4 0.9 20.5 0.85 20.35 0.7 20.3 0.7 20.4 0.15 20.4 -0.05 20.35 -0.05 20.35 -0.2 20.4 -0.2 20.4 -0.4 Q20.15 -1.35 20.25 -2.3 L20.25 -2.35 20.25 -2.45 20.25 -2.5 20.25 -2.65 20.3 -2.7 20.25 -2.8 20.25 -3.0 20.15 -3.0 19.8 -3.05 19.8 -3.0 19.75 -2.85 19.65 -2.8 19.4 -2.65 19.35 -2.7 19.3 -2.65 19.25 -2.65 19.15 -2.55 19.15 -2.5 Q16.6 -2.2 14.1 -2.45 L13.7 -2.5 6.7 -3.55 4.85 -3.7 3.85 -3.8" fill="#000000" fill-rule="evenodd" stroke="none"/>
    <path d="M20.3 0.7 L20.35 0.7 20.5 0.85 20.4 0.9 20.55 1.25 20.55 1.35 Q20.3 1.9 20.35 2.45 L20.35 2.6 20.25 2.75 20.25 2.8 19.8 2.9 19.75 2.75 19.75 2.65 19.65 2.6 19.6 2.55 19.0 2.3 18.9 2.25 17.05 2.15 15.55 2.4 14.95 2.3 12.95 2.4 12.9 2.45 12.4 2.5 12.25 2.55 11.85 2.55 10.7 2.75 10.5 2.8 10.35 2.8 10.25 2.9 9.95 3.1 9.8 3.0 9.75 2.95 9.5 3.0 8.9 3.0 8.75 3.0 8.7 3.1 8.7 3.15 Q8.6 3.15 8.65 3.25 L7.45 3.15 6.3 3.25 6.2 3.3 5.95 3.35 5.6 3.5 5.5 3.6 5.45 3.55 4.9 3.45 4.8 3.45 4.6 3.45 4.55 3.5 4.5 3.6 4.1 3.65 4.1 3.75 4.05 3.85 3.8 3.95 3.7 3.95 3.5 3.9 3.4 3.7 2.55 3.75 2.5 3.8 -0.2 4.05 -1.4 4.25 -2.05 4.4 -2.1 4.4 -2.15 4.4 -2.15 4.55 -2.45 4.75 -2.6 4.75 -2.8 4.7 -2.8 4.65 -3.85 4.85 -3.85 4.9 -3.9 4.9 -3.95 4.95 -4.1 4.9 -6.05 4.9 -5.45 4.75 -5.55 4.75 -6.15 4.8 -7.45 4.75 -7.85 4.7 -8.75 4.4 -8.8 4.25 -8.9 4.25 -9.05 4.2 -9.35 3.85 -9.4 3.75 -9.6 3.65 -9.65 3.6 -9.8 3.6 -9.9 3.35 -9.95 3.25 -10.05 3.2 Q-10.55 2.85 -10.7 2.3 L-10.95 2.1 -10.95 0.9 -10.95 0.75 -11.0 0.4 -11.1 0.15 -11.1 0.0 -11.05 -0.05 -11.05 -0.55 -11.05 -0.7 -11.0 -0.75 -10.95 -0.75 -10.85 -0.85 -10.8 -0.75 -10.75 -0.7 -10.7 -0.2 -10.7 -0.15 -10.6 -0.2 -10.5 -0.05 -10.45 -0.05 -10.5 0.2 -9.65 1.7 -9.65 1.85 -9.65 1.9 -9.05 2.65 Q-8.55 2.8 -8.3 3.25 -5.7 3.6 -3.0 3.2 L-2.95 4.05 -2.9 3.8 -2.8 3.8 -2.7 3.35 -2.7 3.3 -2.7 3.25 -2.6 3.25 -2.55 3.15 -2.5 3.2 -2.5 3.1 -2.5 2.9 Q-2.85 2.2 -2.6 1.5 L-2.55 1.35 Q-2.75 1.05 -2.55 0.85 L-2.45 0.8 -2.4 0.45 -2.35 -0.2 -2.3 -0.25 -2.15 -0.15 -2.1 -0.15 -2.1 0.4 -2.15 3.05 3.15 2.15 3.25 2.55 3.3 3.35 3.35 3.4 3.35 3.35 3.35 3.15 3.5 3.15 3.55 2.8 3.55 2.75 3.6 2.7 3.7 2.7 3.75 2.65 3.75 2.4 3.6 2.1 Q3.5 1.65 3.7 1.25 L3.75 1.15 Q3.55 0.9 3.75 0.75 L3.8 0.7 3.85 0.7 3.95 -0.1 3.95 -0.15 4.0 -0.15 4.1 0.0 4.2 0.0 4.15 2.0 4.85 1.9 5.55 1.75 10.15 1.15 19.3 0.65 19.4 0.55 19.5 0.5 19.5 0.7 19.5 0.75 19.6 1.7 19.9 1.75 19.9 1.6 19.9 0.95 20.1 0.85 Q20.15 0.6 20.3 0.7 M-2.95 4.05 L-2.95 4.1 -2.95 4.05 M-10.05 2.05 L-10.05 1.9 -10.4 1.35 -10.25 1.7 -10.2 1.85 -10.2 1.9 -10.15 1.95 -10.1 2.05 -10.05 2.05" fill="#232b36" fill-rule="evenodd" stroke="none"/>
    <path d="M4.85 -3.7 L6.7 -3.55 13.7 -2.5 14.1 -2.45 19.2 -2.2 19.2 -2.1 19.05 -2.0 19.0 -1.95 17.85 -1.95 13.55 -2.2 10.7 -2.55 9.9 -2.7 4.15 -3.0 4.2 -3.4 4.1 -3.4 4.05 -3.55 4.0 -3.6 3.95 -3.65 4.85 -3.7 M3.2 -3.35 L3.15 -3.05 3.0 -3.05 Q0.35 -3.2 -2.1 -3.95 L-2.1 -4.25 -2.15 -4.25 -2.2 -4.3 -2.2 -4.45 -2.3 -4.55 1.15 -3.85 3.1 -3.6 3.2 -3.6 3.1 -3.45 3.2 -3.35 M3.1 -1.85 L3.2 -1.1 3.25 -1.05 3.25 -0.55 3.3 -0.35 1.65 -0.15 -1.6 0.3 -2.1 0.4 -2.1 -0.15 -2.15 -0.15 -2.3 -0.25 -2.35 -0.9 -2.4 -0.95 -2.35 -1.55 2.55 -1.85 3.1 -1.85 M3.85 -3.6 L3.85 -3.65 3.95 -3.65 3.85 -3.6 M4.1 -1.85 L19.25 -1.5 19.35 -0.6 Q18.45 0.05 17.2 -0.15 L14.7 -0.55 13.45 -0.55 13.25 -0.55 Q8.55 -0.85 3.95 -0.4 L3.95 -0.65 3.85 -0.7 3.9 -1.3 4.0 -1.35 4.05 -1.4 4.1 -1.85 M3.3 0.7 L3.5 0.75 3.55 2.1 3.6 2.35 3.6 2.7 3.55 2.75 3.55 2.8 3.5 3.15 3.35 3.15 3.35 3.35 3.3 3.35 3.25 2.55 3.15 2.15 Q3.0 1.55 3.25 1.05 L3.3 0.7 M-2.95 0.55 L-5.3 0.9 Q-7.5 1.3 -9.4 0.2 -9.95 -0.1 -10.05 -0.7 L-10.25 -1.75 -10.25 -1.8 -10.3 -1.85 -10.3 -1.95 -10.3 -2.3 -10.3 -2.35 -10.3 -2.5 -10.3 -2.65 Q-9.95 -3.4 -9.25 -3.75 -7.9 -4.6 -6.35 -4.9 L-6.15 -4.95 -3.0 -4.65 -3.1 -4.55 -3.1 -4.5 -3.15 -4.3 -3.15 -4.25 -4.45 -4.4 -6.15 -4.55 -6.5 -4.45 -8.75 -3.7 -9.75 -2.9 -9.75 -2.65 -9.75 -2.55 -9.65 -1.8 Q-7.75 -0.8 -5.45 -1.1 L-3.1 -1.45 -3.05 -1.4 -3.05 -1.35 -3.0 -0.75 -2.95 -0.45 -2.95 -0.25 -2.95 0.55 M-3.0 3.2 L-3.0 3.05 -3.05 3.0 Q-3.35 2.0 -3.0 1.15 L-3.0 0.8 -2.95 0.8 -2.8 0.85 -2.75 0.85 -2.7 2.8 -2.7 3.15 -2.7 3.25 -2.7 3.3 -2.7 3.35 -2.8 3.8 -2.9 3.8 -2.95 4.05 -3.0 3.2 M-2.4 -4.55 L-2.35 -4.55 -2.4 -4.55" fill="#546581" fill-rule="evenodd" stroke="none"/>
    <path d="M3.15 -3.05 L3.2 -2.75 3.25 -2.7 3.25 -2.5 3.25 -2.4 3.1 -2.35 3.1 -2.25 3.1 -1.85 2.55 -1.85 -2.35 -1.55 -2.35 -1.65 -2.3 -1.75 -2.2 -1.8 -2.15 -2.9 1.05 -2.7 1.05 -2.8 1.1 -2.85 1.1 -2.9 1.05 -2.9 0.9 -3.0 -2.15 -3.45 -2.1 -3.95 Q0.35 -3.2 3.0 -3.05 L3.15 -3.05 M3.35 -1.05 L3.35 -1.4 3.35 -1.85 3.35 -2.05 3.3 -2.1 3.45 -3.05 3.5 -3.2 3.55 -3.25 3.6 -3.3 3.65 -3.3 3.75 -3.45 3.75 -3.5 3.8 -3.45 3.75 -3.05 3.8 -2.9 3.75 -2.7 3.6 -1.85 3.55 -0.35 3.6 0.15 3.55 0.2 3.55 0.3 3.5 0.75 3.3 0.7 3.3 0.65 3.3 -0.15 3.3 -0.35 3.3 -0.45 3.35 -1.05 M4.15 -3.0 L9.9 -2.7 10.7 -2.55 13.55 -2.2 17.85 -1.95 19.0 -1.95 19.05 -2.0 19.2 -2.1 19.25 -1.5 4.1 -1.85 4.15 -3.0 M19.5 0.0 L19.5 -0.4 19.5 -0.5 19.6 -0.55 19.6 -0.8 19.65 -1.5 19.65 -1.8 19.65 -1.85 19.8 -1.95 19.8 -2.0 19.85 -2.0 19.9 -1.95 19.95 -2.0 20.05 -2.2 20.05 -2.3 20.1 -2.2 20.15 -2.2 20.15 -2.15 20.1 -0.75 20.05 -0.7 19.95 -0.6 20.0 0.65 20.0 0.8 19.9 0.8 19.9 0.95 19.9 1.6 19.9 1.75 19.6 1.7 19.5 0.75 19.5 0.5 19.5 0.0 M-2.95 0.55 L-2.95 -0.25 -2.95 -0.45 -2.95 -0.65 -2.95 -1.35 -2.95 -1.85 -2.9 -2.6 -2.95 -2.7 -2.95 -2.95 -2.85 -3.55 -2.75 -4.05 -2.7 -4.1 -2.65 -4.15 -2.65 -4.2 -2.6 -4.15 -2.55 -4.3 -2.55 -4.4 -2.45 -4.3 -2.5 -4.1 -2.45 -3.65 -2.5 -3.5 -2.5 -3.45 -2.55 -2.9 -2.7 -1.5 -2.7 0.1 -2.7 0.15 -2.7 0.3 -2.7 0.5 -2.75 0.85 -2.8 0.85 -2.95 0.8 -2.95 0.7 -2.95 0.55 M-3.1 -1.45 L-5.45 -1.1 Q-7.75 -0.8 -9.65 -1.8 L-9.75 -2.55 -9.75 -2.65 -9.75 -2.9 -8.75 -3.7 -6.5 -4.45 -6.15 -4.55 -4.45 -4.4 -3.15 -4.25 -3.05 -4.2 -3.1 -3.6 -6.5 -4.2 -6.55 -4.1 -6.65 -4.05 -6.65 -3.95 -7.4 -3.95 -7.45 -3.95 Q-8.25 -3.9 -8.75 -3.25 L-8.65 -3.15 -8.3 -2.9 -8.1 -3.0 -8.0 -2.9 -8.0 -2.85 -6.2 -2.95 -5.2 -2.85 -3.85 -2.95 -3.15 -2.95 -3.15 -2.85 -3.1 -1.45" fill="#ced6df" fill-rule="evenodd" stroke="none"/>
    <path d="M3.4 -3.85 L3.55 -4.0 3.6 -4.05 3.75 -3.95 3.8 -3.95 3.85 -3.8 3.85 -3.65 3.85 -3.6 3.8 -3.45 3.75 -3.5 3.75 -3.45 3.65 -3.3 3.6 -3.3 3.55 -3.25 3.5 -3.3 3.5 -3.2 3.45 -3.05 3.3 -2.1 3.35 -2.05 3.35 -1.85 3.35 -1.4 3.35 -1.05 3.25 -1.05 3.2 -1.1 3.1 -1.85 3.1 -2.25 3.1 -2.35 3.25 -2.4 3.25 -2.45 3.25 -2.5 3.25 -2.7 3.2 -2.75 3.15 -3.05 3.2 -3.35 3.3 -3.6 3.35 -3.75 3.4 -3.85 M19.15 -2.5 L19.15 -2.55 19.25 -2.65 19.3 -2.65 19.35 -2.7 19.4 -2.65 19.5 -2.55 19.5 -2.5 19.8 -2.65 19.8 -2.7 19.85 -2.8 20.1 -2.85 20.1 -2.9 20.25 -2.8 20.3 -2.7 20.25 -2.65 20.25 -2.5 20.25 -2.45 20.25 -2.35 20.25 -2.3 20.15 -2.2 20.1 -2.2 20.05 -2.3 20.05 -2.2 19.95 -2.0 19.9 -1.95 19.85 -2.0 19.8 -2.0 19.8 -1.95 19.65 -1.85 19.65 -1.8 19.65 -1.5 19.6 -0.8 19.6 -0.55 19.5 -0.5 19.5 -0.4 19.5 0.0 19.35 -0.6 19.25 -1.5 19.2 -2.1 19.2 -2.2 19.15 -2.5 M-2.9 -4.75 L-2.7 -5.0 -2.65 -5.1 -2.55 -4.95 -2.45 -4.95 -2.4 -4.65 -2.4 -4.6 -2.4 -4.55 -2.45 -4.3 -2.55 -4.4 -2.55 -4.3 -2.6 -4.15 -2.65 -4.2 -2.65 -4.15 -2.7 -4.1 -2.75 -4.15 -2.75 -4.05 -2.85 -3.55 -2.95 -2.95 -2.95 -2.7 -2.9 -2.6 -2.95 -1.85 -2.95 -1.35 -3.05 -1.4 -3.1 -1.45 -3.15 -2.85 -3.15 -2.95 -3.85 -2.95 -5.2 -2.85 -6.2 -2.95 -8.0 -2.85 -8.0 -2.9 -8.1 -3.0 -8.3 -2.9 -8.65 -3.15 -8.75 -3.25 Q-8.25 -3.9 -7.45 -3.95 L-7.4 -3.95 -6.65 -3.95 -6.65 -4.05 -6.55 -4.1 -6.5 -4.2 -3.1 -3.6 -3.05 -4.2 -3.05 -4.25 -2.95 -4.55 -2.95 -4.65 -2.9 -4.75 M-2.15 -3.45 L0.9 -3.0 1.05 -2.9 1.1 -2.9 1.1 -2.85 1.05 -2.8 1.05 -2.7 -2.15 -2.9 -2.15 -3.45 M19.5 0.5 L19.5 0.0 19.5 0.5 19.5 0.75 19.5 0.7 19.5 0.5 M-3.0 -3.1 L-3.05 -3.15 -3.05 -3.05 -3.0 -3.1" fill="#ffffff" fill-rule="evenodd" stroke="none"/>
    <path d="M3.35 -3.75 L3.3 -3.6 3.2 -3.35 3.1 -3.45 3.2 -3.6 3.3 -3.75 3.35 -3.75 M3.25 -2.5 L3.25 -2.45 3.25 -2.4 3.25 -2.5 M3.25 -1.05 L3.35 -1.05 3.3 -0.45 3.3 -0.35 3.25 -0.55 3.25 -1.05 M3.5 -3.2 L3.5 -3.3 3.55 -3.25 3.5 -3.2 M3.3 0.65 L3.3 0.7 3.3 0.65 M3.3 3.35 L3.35 3.35 3.35 3.4 3.3 3.35 M-2.95 -0.45 L-3.0 -0.75 -3.05 -1.35 -3.05 -1.4 -2.95 -1.35 -2.95 -0.65 -2.95 -0.45 M-3.15 -4.25 L-3.15 -4.3 -3.1 -4.5 -3.1 -4.55 -3.0 -4.65 -2.95 -4.65 -2.9 -4.75 -2.95 -4.65 -2.95 -4.55 -3.05 -4.25 -3.05 -4.2 -3.15 -4.25 M-3.0 0.8 L-2.95 0.7 -2.95 0.8 -3.0 0.8 M-2.7 -4.1 L-2.75 -4.05 -2.75 -4.15 -2.7 -4.1 M-3.0 -3.1 L-3.05 -3.05 -3.05 -3.15 -3.0 -3.1 M-2.95 4.05 L-2.95 4.1 -2.95 4.05" fill="#c6c664" fill-rule="evenodd" stroke="none"/>
  </g>
</svg>
