<?xml version="1.0" encoding="UTF-8" standalone="no"?>
<svg xmlns:xlink="http://www.w3.org/1999/xlink" height="5.1px" width="20.9px" xmlns="http://www.w3.org/2000/svg">
  <g transform="matrix(1.0, 0.0, 0.0, 1.0, -4.65, 2.9)">
    <path d="M4.8 -1.35 L4.85 -1.7 5.7 -1.8 5.7 -1.9 5.75 -1.95 5.8 -1.95 Q5.75 -2.5 5.95 -2.85 L5.95 -2.9 6.0 -2.85 6.05 -2.8 6.1 -1.9 6.2 -1.8 6.25 -1.8 6.45 -1.75 6.5 -1.7 6.55 -1.7 6.55 -1.65 19.45 -1.6 19.45 -1.75 19.35 -1.75 19.4 -1.85 19.5 -2.05 20.15 -2.55 20.2 -2.55 20.3 -2.65 20.8 -2.6 20.9 -2.6 20.9 -2.55 20.95 -2.5 21.05 -2.5 21.1 -2.25 21.0 -2.25 21.05 -2.2 21.15 -2.2 21.4 -1.95 21.3 -1.95 21.25 -1.9 21.3 -1.9 21.5 -1.9 22.3 -1.85 22.85 -1.85 23.8 -1.85 23.9 -1.85 24.3 -1.85 23.9 -1.85 23.9 -1.9 24.45 -2.1 24.55 -2.2 24.6 -2.25 24.85 -2.6 25.25 -2.55 25.3 -2.55 25.4 -2.5 25.45 -2.3 25.45 -2.25 25.45 1.95 25.55 2.0 25.45 2.05 25.45 2.1 25.3 2.15 24.65 1.95 24.7 1.85 24.7 1.75 21.2 1.7 21.15 1.9 21.15 1.95 21.15 2.05 20.45 2.15 20.4 2.1 20.3 2.0 20.25 1.95 20.2 1.95 20.15 1.9 20.15 1.8 19.8 1.6 19.7 1.6 19.55 1.6 19.45 1.4 19.45 1.35 19.4 1.35 19.25 1.25 18.6 1.1 18.45 1.1 18.35 1.15 18.15 1.05 17.55 1.1 17.55 1.05 17.25 1.05 8.95 1.1 6.3 1.1 6.25 1.2 6.15 1.25 6.1 1.85 6.1 1.9 5.9 1.9 5.9 1.6 5.8 1.55 5.8 1.45 5.85 1.4 5.85 1.3 4.9 1.25 Q4.5 0.5 4.7 -0.4 L4.8 -1.35 M6.0 -1.45 L5.1 -1.4 5.0 -0.45 Q4.9 0.3 5.05 0.95 L5.2 1.0 Q5.45 0.75 5.8 0.8 L5.8 0.35 5.8 0.2 5.9 0.15 5.95 0.1 6.0 0.15 6.0 0.1 6.05 0.15 6.15 0.15 6.2 0.15 6.35 0.8 9.05 0.85 9.05 0.8 18.7 0.85 19.15 0.85 19.45 0.85 19.5 0.85 19.55 0.8 19.65 0.9 19.7 0.85 19.75 0.8 Q20.05 1.0 19.95 1.35 L19.85 1.4 19.85 1.45 19.9 1.4 Q20.25 1.45 20.45 1.75 L20.6 1.85 20.85 1.8 20.85 1.75 20.9 1.6 20.95 1.55 21.05 1.4 21.05 1.35 21.15 1.3 21.35 1.4 24.8 1.4 24.95 1.55 25.0 1.6 25.0 1.75 25.05 1.8 25.2 1.85 25.3 -2.2 25.25 -2.25 25.2 -2.3 25.15 -2.25 25.05 -2.25 24.95 -2.25 24.9 -2.15 24.85 -2.1 24.65 -1.9 24.65 -1.8 24.55 -1.65 24.35 -1.6 21.25 -1.65 21.15 -1.65 21.0 -1.65 Q20.8 -1.75 20.65 -1.95 L20.65 -2.0 20.7 -2.05 20.65 -2.3 20.4 -2.3 19.9 -1.85 19.85 -1.75 19.85 -1.65 19.75 -1.45 19.75 -1.4 19.5 -1.4 6.15 -1.35 6.0 -1.45 M23.95 0.3 L20.7 0.0 20.65 -0.1 20.6 -0.1 20.7 -0.5 Q20.8 -0.7 21.05 -0.75 L21.05 -0.8 21.1 -0.85 21.15 -0.85 21.9 -1.0 24.8 -0.55 24.85 -0.5 24.9 -0.45 24.85 -0.4 24.85 -0.35 24.8 -0.2 24.35 0.1 24.1 0.15 24.1 0.2 24.1 0.25 23.95 0.3 M20.95 -0.15 L20.95 -0.1 24.35 -0.2 24.4 -0.3 24.45 -0.3 Q24.25 -0.55 23.65 -0.6 L21.85 -0.7 21.75 -0.65 21.4 -0.65 21.25 -0.55 20.95 -0.4 20.9 -0.35 20.9 -0.25 20.95 -0.15 M18.65 1.1 L18.6 1.1 18.65 1.1" fill="#000000" fill-rule="evenodd" stroke="none"/>
    <path d="M17.0 -1.05 L16.4 -1.05 16.05 -1.1 16.05 -1.05 16.0 -1.05 6.4 -1.1 6.4 -1.05 6.25 -0.95 6.25 -0.9 6.4 -0.8 15.95 -0.85 16.3 -0.75 16.55 -0.8 16.55 -0.85 17.3 -0.85 17.3 -0.8 17.55 -0.75 17.6 -0.8 17.6 -0.85 17.8 -0.85 17.8 -0.7 Q17.95 -0.5 18.1 -0.7 L18.1 -0.75 18.25 -0.6 18.3 -0.65 18.5 -0.7 18.75 -0.7 18.85 -0.7 18.9 -0.7 19.05 -0.7 19.2 -0.65 19.45 -0.7 19.9 -0.75 19.95 -0.8 20.1 -0.9 20.1 -1.0 20.15 -1.05 20.2 -1.25 20.4 -1.25 20.45 -1.25 20.55 -1.35 20.65 -1.55 20.65 -1.75 20.6 -1.75 20.3 -1.9 20.25 -1.85 19.95 -1.7 19.9 -1.55 19.95 -1.4 19.8 -1.2 19.8 -1.1 19.75 -1.1 19.7 -1.05 19.4 -1.05 19.3 -1.1 19.25 -1.05 19.2 -1.05 19.1 -1.1 19.05 -1.05 19.05 -1.1 17.15 -1.25 17.0 -1.1 17.0 -1.05 M6.0 -1.45 L6.15 -1.35 19.5 -1.4 19.75 -1.4 19.75 -1.45 19.85 -1.65 19.85 -1.75 19.9 -1.85 20.4 -2.3 20.65 -2.3 20.7 -2.05 20.65 -2.0 20.65 -1.95 Q20.8 -1.75 21.0 -1.65 L21.15 -1.65 21.25 -1.65 24.35 -1.6 24.55 -1.65 24.65 -1.8 24.65 -1.9 24.85 -2.1 24.9 -2.15 24.95 -2.25 25.05 -2.25 25.15 -2.25 25.2 -2.3 25.25 -2.25 25.3 -2.2 25.2 1.85 25.05 1.8 25.0 1.75 25.0 1.6 24.95 1.55 24.8 1.4 21.35 1.4 21.15 1.3 21.05 1.35 21.05 1.4 20.95 1.55 20.9 1.6 20.85 1.75 20.85 1.8 20.6 1.85 20.45 1.75 Q20.25 1.45 19.9 1.4 L19.85 1.45 19.85 1.4 19.95 1.35 Q20.05 1.0 19.75 0.8 L19.7 0.85 19.65 0.9 19.55 0.8 19.5 0.85 19.45 0.85 19.15 0.85 18.7 0.85 9.05 0.8 9.05 0.85 6.35 0.8 6.2 0.15 6.15 0.15 6.05 0.15 6.0 0.1 6.0 0.15 5.95 0.1 5.9 0.15 5.8 0.2 5.8 0.35 5.8 0.8 Q5.45 0.75 5.2 1.0 L5.05 0.95 Q4.9 0.3 5.0 -0.45 L5.1 -1.4 6.0 -1.45 M18.1 -0.8 L18.1 -0.85 18.15 -0.85 18.1 -0.8 M24.1 0.25 L24.1 0.2 24.1 0.15 24.35 0.1 24.8 -0.2 24.85 -0.35 24.85 -0.4 24.9 -0.45 24.85 -0.5 24.8 -0.55 21.9 -1.0 21.15 -0.85 21.1 -0.85 21.05 -0.8 21.05 -0.75 Q20.8 -0.7 20.7 -0.5 L20.6 -0.1 20.65 -0.1 20.7 0.0 23.95 0.3 23.0 0.55 Q23.95 0.8 24.8 0.15 L24.65 0.0 24.1 0.25 M23.2 -1.15 L23.2 -1.1 23.35 -1.05 24.8 -1.1 24.9 -1.1 24.95 -1.2 25.05 -1.7 25.05 -1.75 24.95 -1.8 24.9 -1.75 24.65 -1.35 24.65 -1.3 23.95 -1.3 24.0 -1.35 23.85 -1.5 23.0 -1.25 23.2 -1.15" fill="#333333" fill-rule="evenodd" stroke="none"/>
    <path d="M20.2 -1.25 L20.15 -1.05 20.1 -1.0 20.1 -0.9 19.95 -0.8 19.9 -0.75 19.45 -0.7 19.2 -0.65 19.05 -0.7 18.9 -0.7 18.85 -0.7 18.75 -0.7 18.5 -0.7 18.3 -0.65 18.25 -0.6 18.1 -0.75 18.1 -0.7 Q17.95 -0.5 17.8 -0.7 L17.8 -0.85 17.6 -0.85 17.6 -0.8 17.55 -0.75 17.3 -0.8 17.3 -0.85 16.55 -0.85 16.55 -0.8 16.3 -0.75 15.95 -0.85 6.4 -0.8 6.25 -0.9 6.25 -0.95 6.4 -1.05 6.4 -1.1 16.0 -1.05 16.05 -1.05 16.05 -1.1 16.4 -1.05 17.0 -1.05 19.05 -0.9 19.1 -1.0 19.05 -1.05 19.1 -1.1 19.2 -1.05 19.25 -1.05 19.3 -1.1 19.4 -1.05 19.7 -1.05 19.75 -1.1 19.8 -1.1 19.8 -1.2 19.95 -1.4 20.2 -1.25 M18.1 -0.8 L18.15 -0.85 18.1 -0.85 18.1 -0.8 M23.95 -1.3 L24.65 -1.3 24.65 -1.35 24.9 -1.75 24.95 -1.8 25.05 -1.75 25.05 -1.7 24.95 -1.2 24.9 -1.1 24.8 -1.1 23.35 -1.05 23.2 -1.1 23.2 -1.15 23.95 -1.3" fill="#c1c1c1" fill-rule="evenodd" stroke="none"/>
    <path d="M17.0 -1.05 L17.0 -1.1 17.15 -1.25 19.05 -1.1 19.05 -1.05 19.1 -1.0 19.05 -0.9 17.0 -1.05 M19.95 -1.4 L19.9 -1.55 19.95 -1.7 20.25 -1.85 20.3 -1.9 20.6 -1.75 20.65 -1.75 20.65 -1.55 20.55 -1.35 20.45 -1.25 20.4 -1.25 20.2 -1.25 19.95 -1.4 M24.1 0.25 L24.65 0.0 24.8 0.15 Q23.95 0.8 23.0 0.55 L23.95 0.3 24.1 0.25 M23.2 -1.15 L23.0 -1.25 23.85 -1.5 24.0 -1.35 23.95 -1.3 23.2 -1.15" fill="#fcfcfc" fill-rule="evenodd" stroke="none"/>
  </g>
</svg>
