<?xml version="1.0" encoding="UTF-8" standalone="no"?>
<svg xmlns:xlink="http://www.w3.org/1999/xlink" height="34.0px" width="34.0px" xmlns="http://www.w3.org/2000/svg">
  <g transform="matrix(1.0, 0.0, 0.0, 1.0, 0.5, 0.5)">
    <path d="M3.0 29.85 L3.0 30.0 30.0 30.0 30.0 29.85 33.0 29.85 30.0 29.85 30.0 3.0 3.0 3.0 3.0 29.85 0.0 29.85 3.0 29.85 M33.0 29.85 L33.0 33.0 0.0 33.0 0.0 29.85 0.0 0.0 33.0 0.0 33.0 29.85" fill="url(#gradient0)" fill-rule="evenodd" stroke="none"/>
    <path d="M30.0 29.85 L30.0 30.0 3.0 30.0 3.0 29.85 3.0 3.0 30.0 3.0 30.0 29.85 3.0 29.85 30.0 29.85" fill="#7b7b7b" fill-rule="evenodd" stroke="none"/>
    <path d="M30.0 29.85 L30.0 30.0 3.0 30.0 3.0 29.85 3.0 3.0 30.0 3.0 30.0 29.85 M0.0 29.85 L0.0 33.0 33.0 33.0 33.0 29.85 33.0 0.0 0.0 0.0 0.0 29.85" fill="none" stroke="#000000" stroke-linecap="round" stroke-linejoin="round" stroke-width="1.0"/>
    <path d="M33.0 0.0 L33.0 5.0 28.0 5.0 28.0 0.0 33.0 0.0 M5.0 0.0 L5.0 5.0 0.0 5.0 0.0 0.0 5.0 0.0 M5.0 29.85 L5.0 33.0 0.0 33.0 0.0 29.85 0.0 28.0 5.0 28.0 5.0 29.85 0.0 29.85 5.0 29.85 M33.0 29.85 L33.0 33.0 28.0 33.0 28.0 29.85 28.0 28.0 33.0 28.0 33.0 29.85 28.0 29.85 33.0 29.85" fill="#990000" fill-rule="evenodd" stroke="none"/>
    <path d="M33.0 0.0 L33.0 5.0 28.0 5.0 28.0 0.0 33.0 0.0 M5.0 0.0 L5.0 5.0 0.0 5.0 0.0 0.0 5.0 0.0 M5.0 29.85 L5.0 33.0 0.0 33.0 0.0 29.85 0.0 28.0 5.0 28.0 5.0 29.85 M33.0 29.85 L33.0 33.0 28.0 33.0 28.0 29.85 28.0 28.0 33.0 28.0 33.0 29.85" fill="none" stroke="#000000" stroke-linecap="round" stroke-linejoin="round" stroke-width="1.0"/>
  </g>
  <defs>
    <linearGradient gradientTransform="matrix(0.0152, 0.0234, -0.0234, 0.0152, 16.5, 16.45)" gradientUnits="userSpaceOnUse" id="gradient0" spreadMethod="pad" x1="-819.2" x2="819.2">
      <stop offset="0.0" stop-color="#eed600"/>
      <stop offset="0.19607843137254902" stop-color="#fef292"/>
      <stop offset="0.36470588235294116" stop-color="#ecd502"/>
      <stop offset="0.6352941176470588" stop-color="#9a8b00"/>
      <stop offset="0.8627450980392157" stop-color="#fff9c4"/>
      <stop offset="1.0" stop-color="#c4c400"/>
    </linearGradient>
  </defs>
</svg>
