<?xml version="1.0" encoding="UTF-8" standalone="no"?>
<svg xmlns:xlink="http://www.w3.org/1999/xlink" height="5.1px" width="20.9px" xmlns="http://www.w3.org/2000/svg">
  <g transform="matrix(1.0, 0.0, 0.0, 1.0, -1.6, 2.9)">
    <path d="M1.75 -1.35 L1.8 -1.7 2.65 -1.8 2.65 -1.9 2.7 -1.95 2.75 -1.95 Q2.7 -2.5 2.9 -2.85 L2.9 -2.9 2.95 -2.85 3.0 -2.8 3.05 -1.9 3.15 -1.8 3.2 -1.8 3.4 -1.75 3.45 -1.7 3.5 -1.7 3.5 -1.65 16.4 -1.6 16.4 -1.75 16.3 -1.75 16.35 -1.85 16.45 -2.05 17.1 -2.55 17.15 -2.55 17.25 -2.65 17.75 -2.6 17.85 -2.6 17.85 -2.55 17.9 -2.5 18.0 -2.5 18.05 -2.25 17.95 -2.25 18.0 -2.2 18.1 -2.2 18.35 -1.95 18.25 -1.95 18.2 -1.9 18.25 -1.9 18.45 -1.9 19.25 -1.85 19.8 -1.85 20.75 -1.85 20.85 -1.85 21.25 -1.85 20.85 -1.85 20.85 -1.9 21.4 -2.1 21.5 -2.2 21.55 -2.25 21.8 -2.6 22.2 -2.55 22.25 -2.55 22.35 -2.5 22.4 -2.3 22.4 -2.25 22.4 1.95 22.5 2.0 22.4 2.05 22.4 2.1 22.25 2.15 21.6 1.95 21.65 1.85 21.65 1.75 18.15 1.7 18.1 1.9 18.1 1.95 18.1 2.05 17.4 2.15 17.35 2.1 17.25 2.0 17.2 1.95 17.15 1.95 17.1 1.9 17.1 1.8 16.75 1.6 16.65 1.6 16.5 1.6 16.4 1.4 16.4 1.35 16.35 1.35 16.2 1.25 15.55 1.1 15.4 1.1 15.3 1.15 15.1 1.05 14.5 1.1 14.5 1.05 14.2 1.05 5.9 1.1 3.25 1.1 3.2 1.2 3.1 1.25 3.05 1.85 3.05 1.9 2.85 1.9 2.85 1.6 2.75 1.55 2.75 1.45 2.8 1.4 2.8 1.3 1.85 1.25 Q1.45 0.5 1.65 -0.4 L1.75 -1.35 M2.95 -1.45 L2.05 -1.4 1.95 -0.45 2.0 0.95 2.15 1.0 Q2.4 0.75 2.75 0.8 L2.75 0.35 2.75 0.2 2.85 0.15 2.9 0.1 2.95 0.15 2.95 0.1 3.0 0.15 3.1 0.15 3.15 0.15 3.3 0.8 6.0 0.85 6.0 0.8 15.65 0.85 16.1 0.85 16.4 0.85 16.45 0.85 16.5 0.8 16.6 0.9 16.65 0.85 16.7 0.8 Q17.0 1.0 16.9 1.35 L16.8 1.4 16.8 1.45 16.85 1.4 Q17.2 1.45 17.4 1.75 L17.55 1.85 17.8 1.8 17.8 1.75 17.85 1.6 17.9 1.55 18.0 1.4 18.0 1.35 18.1 1.3 18.3 1.4 21.75 1.4 21.9 1.55 21.95 1.6 21.95 1.75 22.0 1.8 22.15 1.85 22.25 -2.2 22.2 -2.25 22.15 -2.3 22.1 -2.25 22.0 -2.25 21.9 -2.25 21.85 -2.15 21.8 -2.1 21.6 -1.9 21.6 -1.8 21.5 -1.65 21.3 -1.6 18.2 -1.65 18.1 -1.65 17.95 -1.65 17.6 -1.95 17.6 -2.0 17.65 -2.05 17.6 -2.3 17.35 -2.3 16.85 -1.85 16.8 -1.75 16.8 -1.65 16.7 -1.45 16.7 -1.4 16.45 -1.4 3.1 -1.35 2.95 -1.45 M20.9 0.3 Q19.2 0.65 17.65 0.0 L17.6 -0.1 17.55 -0.1 17.65 -0.5 18.0 -0.75 18.0 -0.8 18.05 -0.85 18.1 -0.85 18.85 -1.0 21.75 -0.55 21.8 -0.5 21.85 -0.45 21.8 -0.4 21.8 -0.35 21.75 -0.2 21.3 0.1 21.05 0.15 21.05 0.2 21.05 0.25 20.9 0.3 M17.9 -0.15 L17.9 -0.1 21.3 -0.2 21.35 -0.3 21.4 -0.3 Q21.2 -0.55 20.6 -0.6 L18.8 -0.7 18.7 -0.65 18.35 -0.65 18.2 -0.55 17.9 -0.4 17.85 -0.35 17.85 -0.25 17.9 -0.15 M15.6 1.1 L15.55 1.1 15.6 1.1" fill="#000000" fill-rule="evenodd" stroke="none"/>
    <path d="M13.95 -1.05 L13.35 -1.05 13.0 -1.1 13.0 -1.05 12.95 -1.05 3.35 -1.1 3.35 -1.05 Q3.25 -1.1 3.2 -0.95 L3.2 -0.9 3.35 -0.8 12.9 -0.85 Q13.05 -0.75 13.25 -0.75 L13.5 -0.8 13.5 -0.85 14.25 -0.85 14.25 -0.8 Q14.35 -0.6 14.5 -0.75 L14.55 -0.8 14.55 -0.85 14.75 -0.85 14.75 -0.7 Q14.9 -0.5 15.05 -0.7 L15.05 -0.75 15.2 -0.6 15.25 -0.65 15.45 -0.7 15.7 -0.7 15.8 -0.7 15.85 -0.7 16.0 -0.7 16.15 -0.65 16.4 -0.7 16.85 -0.75 16.9 -0.8 17.05 -0.9 17.05 -1.0 17.1 -1.05 17.15 -1.25 17.35 -1.25 17.4 -1.25 17.5 -1.35 17.6 -1.55 17.6 -1.75 17.55 -1.75 17.25 -1.9 17.2 -1.85 16.9 -1.7 16.85 -1.55 16.9 -1.4 16.75 -1.2 16.75 -1.1 16.7 -1.1 16.65 -1.05 16.35 -1.05 16.25 -1.1 16.2 -1.05 16.15 -1.05 16.05 -1.1 16.0 -1.05 16.0 -1.1 14.1 -1.25 13.95 -1.1 13.95 -1.05 M2.95 -1.45 L3.1 -1.35 16.45 -1.4 16.7 -1.4 16.7 -1.45 16.8 -1.65 16.8 -1.75 16.85 -1.85 17.35 -2.3 17.6 -2.3 17.65 -2.05 17.6 -2.0 17.6 -1.95 17.95 -1.65 18.1 -1.65 18.2 -1.65 21.3 -1.6 21.5 -1.65 21.6 -1.8 21.6 -1.9 21.8 -2.1 21.85 -2.15 21.9 -2.25 22.0 -2.25 22.1 -2.25 22.15 -2.3 22.2 -2.25 22.25 -2.2 22.15 1.85 22.0 1.8 21.95 1.75 21.95 1.6 21.9 1.55 21.75 1.4 18.3 1.4 18.1 1.3 18.0 1.35 18.0 1.4 17.9 1.55 17.85 1.6 17.8 1.75 17.8 1.8 17.55 1.85 17.4 1.75 Q17.2 1.45 16.85 1.4 L16.8 1.45 16.8 1.4 16.9 1.35 Q17.0 1.0 16.7 0.8 L16.65 0.85 16.6 0.9 16.5 0.8 16.45 0.85 16.4 0.85 16.1 0.85 15.65 0.85 6.0 0.8 6.0 0.85 3.3 0.8 3.15 0.15 3.1 0.15 3.0 0.15 2.95 0.1 2.95 0.15 2.9 0.1 2.85 0.15 2.75 0.2 2.75 0.35 2.75 0.8 Q2.4 0.75 2.15 1.0 L2.0 0.95 1.95 -0.45 2.05 -1.4 2.95 -1.45 M15.05 -0.8 L15.05 -0.85 15.1 -0.85 15.05 -0.8 M21.05 0.25 L21.05 0.2 21.05 0.15 21.3 0.1 21.75 -0.2 21.8 -0.35 21.8 -0.4 21.85 -0.45 21.8 -0.5 21.75 -0.55 18.85 -1.0 18.1 -0.85 18.05 -0.85 18.0 -0.8 18.0 -0.75 17.65 -0.5 17.55 -0.1 17.6 -0.1 17.65 0.0 Q19.2 0.65 20.9 0.3 L19.95 0.55 Q20.9 0.8 21.75 0.15 L21.6 0.0 21.05 0.25 M20.15 -1.15 L20.15 -1.1 20.3 -1.05 21.75 -1.1 21.85 -1.1 21.9 -1.2 22.0 -1.7 22.0 -1.75 21.9 -1.8 21.85 -1.75 21.6 -1.35 21.6 -1.3 20.9 -1.3 20.95 -1.35 20.8 -1.5 19.95 -1.25 20.15 -1.15" fill="#333333" fill-rule="evenodd" stroke="none"/>
    <path d="M17.15 -1.25 L17.1 -1.05 17.05 -1.0 17.05 -0.9 16.9 -0.8 16.85 -0.75 16.4 -0.7 16.15 -0.65 16.0 -0.7 15.85 -0.7 15.8 -0.7 15.7 -0.7 15.45 -0.7 15.25 -0.65 15.2 -0.6 15.05 -0.75 15.05 -0.7 Q14.9 -0.5 14.75 -0.7 L14.75 -0.85 14.55 -0.85 14.55 -0.8 14.5 -0.75 Q14.35 -0.6 14.25 -0.8 L14.25 -0.85 13.5 -0.85 13.5 -0.8 13.25 -0.75 Q13.05 -0.75 12.9 -0.85 L3.35 -0.8 3.2 -0.9 3.2 -0.95 Q3.25 -1.1 3.35 -1.05 L3.35 -1.1 12.95 -1.05 13.0 -1.05 13.0 -1.1 13.35 -1.05 13.95 -1.05 16.0 -0.9 16.05 -1.0 16.0 -1.05 16.05 -1.1 16.15 -1.05 16.2 -1.05 16.25 -1.1 16.35 -1.05 16.65 -1.05 16.7 -1.1 16.75 -1.1 16.75 -1.2 16.9 -1.4 17.15 -1.25 M15.05 -0.8 L15.1 -0.85 15.05 -0.85 15.05 -0.8 M20.9 -1.3 L21.6 -1.3 21.6 -1.35 21.85 -1.75 21.9 -1.8 22.0 -1.75 22.0 -1.7 21.9 -1.2 21.85 -1.1 21.75 -1.1 20.3 -1.05 20.15 -1.1 20.15 -1.15 20.9 -1.3" fill="#c1c1c1" fill-rule="evenodd" stroke="none"/>
    <path d="M13.95 -1.05 L13.95 -1.1 14.1 -1.25 16.0 -1.1 16.0 -1.05 16.05 -1.0 16.0 -0.9 13.95 -1.05 M16.9 -1.4 L16.85 -1.55 16.9 -1.7 17.2 -1.85 17.25 -1.9 17.55 -1.75 17.6 -1.75 17.6 -1.55 17.5 -1.35 17.4 -1.25 17.35 -1.25 17.15 -1.25 16.9 -1.4 M21.05 0.25 L21.6 0.0 21.75 0.15 Q20.9 0.8 19.95 0.55 L20.9 0.3 21.05 0.25 M20.15 -1.15 L19.95 -1.25 20.8 -1.5 20.95 -1.35 20.9 -1.3 20.15 -1.15" fill="#fcfcfc" fill-rule="evenodd" stroke="none"/>
  </g>
</svg>
