<?xml version="1.0" encoding="UTF-8" standalone="no"?>
<svg xmlns:xlink="http://www.w3.org/1999/xlink" height="5.6px" width="6.5px" xmlns="http://www.w3.org/2000/svg">
  <g transform="matrix(1.0, 0.0, 0.0, 1.0, 9.6, 2.8)">
    <path d="M-8.3 -2.55 L-8.6 -1.9 -9.15 -1.9 -9.15 -2.2 -9.2 -2.25 -9.25 -2.35 -9.2 -2.45 -9.15 -2.55 -8.3 -2.55 M-7.75 -2.1 L-7.8 -2.05 -7.85 -1.95 -7.8 -1.8 -7.8 1.5 -7.8 1.6 -7.8 2.05 -7.9 2.55 -9.15 2.55 -9.15 2.45 -9.15 2.3 -9.15 -1.6 Q-7.95 -1.45 -8.1 -2.55 L-7.75 -2.55 -7.75 -2.45 -7.75 -2.1" fill="#3c5430" fill-rule="evenodd" stroke="none"/>
    <path d="M-7.75 -2.1 L-7.75 -2.45 -7.75 -2.55 -8.1 -2.55 Q-7.95 -1.45 -9.15 -1.6 L-9.15 2.3 -9.15 2.45 -9.15 2.55 -7.9 2.55 -7.8 2.05 -7.8 1.6 -7.8 1.5 -7.8 -1.8 -7.85 -1.95 -7.8 -2.05 -7.75 -2.1 M-8.3 -2.55 L-9.15 -2.55 -9.2 -2.45 -9.25 -2.35 -9.2 -2.25 -9.15 -2.2 -9.15 -1.9 -8.6 -1.9 -8.3 -2.55 M-9.35 -2.8 L-9.3 -2.8 -7.55 -2.75 -7.5 -2.7 -7.45 -2.7 -7.5 -2.55 -7.45 -2.15 -4.15 -2.2 -4.05 -2.25 -3.95 -2.25 -3.85 -2.3 -3.75 -2.2 Q-3.55 -2.2 -3.45 -2.0 L-3.45 -1.95 -3.45 -1.9 -3.5 -1.9 -3.55 -1.85 -3.6 -1.85 -3.6 -1.75 -3.6 -1.7 -3.85 -1.4 -3.7 -1.4 -3.65 -1.35 -3.6 -1.3 -3.65 -1.25 -3.65 -1.2 -3.75 -1.2 -3.9 -1.15 -3.95 -1.15 -4.05 -1.15 Q-5.75 -0.95 -7.4 -1.1 L-7.45 -1.1 -7.5 -1.0 -7.5 -0.95 -7.5 1.3 -3.8 1.35 -3.75 1.3 -3.7 1.3 -3.6 1.35 -3.35 1.35 -3.35 1.4 -3.3 1.4 -3.3 1.5 -3.35 1.55 -3.45 1.55 -3.4 1.7 -3.35 1.75 -3.35 1.9 -3.35 1.95 -3.45 2.1 -3.2 2.1 -3.15 2.15 -3.1 2.15 -3.15 2.3 -3.25 2.3 -7.55 2.25 -7.55 2.3 -7.55 2.4 -7.55 2.55 -7.5 2.6 -7.45 2.65 -7.5 2.75 -7.6 2.75 -9.2 2.75 -9.45 2.7 -9.5 2.7 -9.6 2.7 -9.6 2.65 -9.45 2.5 -9.45 2.45 -9.45 2.4 -9.45 -1.85 -9.45 -2.0 -9.6 -2.15 -9.45 -2.6 -9.5 -2.6 -9.5 -2.65 -9.35 -2.8 M-7.45 -1.75 L-7.45 -1.45 -7.4 -1.45 -7.35 -1.5 -4.15 -1.4 -4.1 -1.6 -4.05 -1.7 -3.9 -1.85 -3.95 -1.95 -4.0 -1.9 -4.05 -1.85 -7.45 -1.95 -7.45 -1.85 -7.45 -1.8 -7.45 -1.75 M-3.85 2.0 L-3.75 1.9 -3.7 1.85 -3.75 1.6 -7.5 1.6 -7.5 2.05 -7.45 2.05 -3.85 2.1 -3.85 2.0" fill="#000000" fill-rule="evenodd" stroke="none"/>
    <path d="M-3.85 2.0 L-3.85 2.1 -7.45 2.05 -7.5 2.05 -7.5 1.6 -3.75 1.6 -3.7 1.85 -3.75 1.9 -3.85 2.0 M-7.45 -1.75 L-7.45 -1.8 -7.45 -1.85 -7.45 -1.95 -4.05 -1.85 -4.0 -1.9 -3.95 -1.95 -3.9 -1.85 -4.05 -1.7 -4.1 -1.6 -4.15 -1.4 -7.35 -1.5 -7.4 -1.45 -7.45 -1.45 -7.45 -1.75" fill="#afafaf" fill-rule="evenodd" stroke="none"/>
  </g>
</svg>
