<?xml version="1.0" encoding="UTF-8" standalone="no"?>
<svg xmlns:xlink="http://www.w3.org/1999/xlink" height="12.45px" width="26.75px" xmlns="http://www.w3.org/2000/svg">
  <g transform="matrix(1.0, 0.0, 0.0, 1.0, 14.3, 6.35)">
    <path d="M-8.85 -6.1 L-8.55 -6.35 8.9 -6.35 8.95 -6.15 8.9 -6.0 8.8 -6.0 8.8 -5.65 10.7 -5.65 10.7 -5.75 11.0 -5.75 11.05 -5.7 11.05 -4.95 11.65 -5.0 12.25 -4.95 12.25 -4.9 12.35 -4.9 12.4 -4.8 12.4 4.75 12.45 4.9 12.4 5.05 12.15 5.1 11.3 5.1 11.05 5.05 11.05 5.9 10.95 5.95 10.9 6.0 -8.1 6.0 -8.1 6.05 -8.35 6.1 -8.35 6.0 -11.35 6.0 -11.35 5.9 -11.45 5.9 -11.45 4.8 -12.05 4.35 -12.55 4.05 -12.95 3.75 -13.7 3.15 -14.05 2.85 -14.1 2.85 -14.2 2.55 -14.1 2.55 -14.15 -2.5 -14.3 -2.65 -14.3 -2.8 -14.05 -3.35 -14.1 -3.4 -13.55 -3.85 -12.9 -4.25 Q-12.45 -4.35 -11.95 -4.7 -11.65 -4.85 -11.4 -4.95 L-11.4 -5.15 -11.55 -5.4 Q-11.55 -5.85 -11.15 -5.75 L-8.8 -5.7 -8.8 -5.75 -8.8 -5.8 -8.75 -5.95 -8.8 -5.95 -8.85 -6.1 M7.7 -3.7 L7.9 -3.7 7.9 -3.95 7.85 -4.0 8.3 -4.9 8.55 -5.4 8.5 -5.65 8.45 -5.75 8.5 -6.0 8.25 -6.0 8.05 -6.05 7.75 -6.0 -7.6 -6.0 -7.85 -6.1 -8.25 -6.0 -8.45 -6.0 -8.45 -5.85 -8.45 -5.8 -8.5 -5.55 Q-8.5 -5.25 -8.3 -5.1 L-8.1 -4.5 -8.0 -4.1 -8.0 -3.8 -7.95 -3.75 -7.9 -3.75 -7.75 -3.25 -7.4 -2.1 -7.15 -1.0 6.45 -1.0 6.45 -1.1 7.7 -3.7 M7.75 -0.05 L7.8 -1.15 7.85 -1.15 7.9 -1.3 10.7 -1.35 10.75 -1.25 10.75 -5.25 10.7 -5.25 10.7 -5.35 8.8 -5.35 8.8 -5.25 7.65 -3.0 7.1 -1.85 6.7 -0.65 6.45 -0.65 6.45 -0.7 -7.15 -0.65 -7.2 -0.6 -7.45 -0.6 -7.5 -0.7 -7.55 -0.8 -7.5 -0.85 -7.55 -1.25 -7.7 -1.85 -8.45 -4.35 -8.8 -5.35 -11.15 -5.35 -11.15 -5.0 -11.1 -4.85 -11.15 -4.7 -11.15 -1.5 -10.4 -1.5 -10.5 -1.45 -9.4 -1.45 -8.45 -1.35 -8.4 -1.15 -8.35 -1.1 -8.35 -0.05 -8.4 0.1 -8.35 0.25 -8.35 1.3 -8.0 1.35 Q-7.7 1.4 -7.6 1.55 L-7.6 0.85 -7.75 0.8 -7.75 0.55 -7.6 0.5 -7.4 0.5 6.9 0.5 6.95 0.65 6.9 0.8 6.9 1.15 7.35 1.15 7.7 1.2 7.75 0.25 7.8 0.25 7.8 -0.05 7.75 -0.05 M-13.3 -3.5 L-13.85 -3.25 -13.85 -3.2 -13.95 -2.95 -13.85 -2.8 -13.85 2.6 -11.45 4.4 -11.45 4.1 -11.4 4.1 -11.4 -4.5 -12.7 -3.95 -13.3 -3.5 M-11.15 -0.05 L-11.25 -0.05 -11.25 0.2 -11.15 0.3 -11.15 3.25 -11.25 3.4 -11.2 3.55 -11.15 3.55 -11.15 4.35 -11.2 4.35 -11.2 4.6 -10.95 4.75 -11.0 4.95 -11.2 4.95 -11.2 5.7 -10.35 5.7 -10.3 4.0 -9.25 4.0 -8.3 4.1 -8.25 4.0 -8.1 4.1 -8.1 5.7 6.95 5.65 6.9 3.95 6.85 3.8 7.0 3.65 9.65 3.65 9.7 3.75 9.75 3.85 9.75 5.65 10.65 5.65 10.75 5.7 10.75 3.5 10.9 3.5 10.9 3.25 10.75 3.15 10.75 0.15 10.9 0.15 10.9 -0.1 10.85 -0.15 10.75 -0.15 10.75 -1.0 8.1 -1.0 8.1 -0.6 8.1 -0.2 8.0 -0.2 8.0 0.05 8.05 0.15 8.0 1.4 7.95 1.45 7.55 1.55 6.9 1.5 6.9 2.2 6.85 2.25 6.9 2.25 6.95 2.45 6.9 2.6 -6.8 2.65 -6.95 2.75 -7.2 2.65 -7.5 2.6 -7.5 2.4 -7.55 2.4 -7.6 2.35 -7.6 1.8 -7.7 1.8 -8.0 1.7 -8.45 1.65 -8.6 1.65 -8.6 1.6 -8.65 1.6 -8.65 1.35 -8.7 0.45 -8.7 0.3 -8.6 0.3 -8.6 0.05 -8.65 0.0 -8.65 -0.9 -8.65 -1.0 -9.25 -1.0 -10.2 -1.1 -11.15 -1.2 -11.15 -0.05 M-9.05 -0.6 L-9.1 -0.45 -9.3 -0.45 -9.35 -0.5 -9.35 -0.75 -9.1 -0.75 -9.05 -0.6 M-9.9 -0.85 L-9.85 -0.8 -9.85 -0.55 -10.0 -0.5 Q-10.2 -0.5 -10.2 -0.8 L-9.9 -0.85 M-10.6 -0.85 L-10.55 -0.65 -10.6 -0.5 -10.85 -0.5 -10.85 -0.85 -10.6 -0.85 M12.0 -4.65 L11.05 -4.65 11.05 4.75 12.1 4.75 12.1 -4.35 12.0 -4.6 12.0 -4.65 M6.55 0.8 L-7.3 0.85 -7.3 2.25 6.5 2.25 6.5 1.8 6.6 1.8 6.5 1.0 6.55 0.8 M8.65 -0.4 L8.4 -0.4 8.4 -0.75 8.65 -0.75 8.7 -0.55 8.65 -0.4 M10.3 -0.8 L10.3 -0.5 10.15 -0.45 Q9.9 -0.45 9.95 -0.65 9.95 -0.95 10.3 -0.8 M9.55 -0.7 L9.55 -0.45 9.3 -0.4 9.25 -0.55 Q9.25 -0.8 9.5 -0.75 L9.55 -0.7 M9.25 4.05 L7.2 4.0 7.2 5.65 9.45 5.65 9.45 4.05 9.25 4.05 M-10.0 4.4 L-10.0 5.7 -8.35 5.7 -8.4 5.05 -8.35 4.35 -9.65 4.4 -10.0 4.4" fill="#000000" fill-rule="evenodd" stroke="none"/>
    <path d="M-7.9 -3.75 L-7.95 -3.75 -8.0 -3.8 -8.0 -4.1 -8.1 -4.5 -8.3 -5.1 Q-8.5 -5.25 -8.5 -5.55 L-8.45 -5.8 -8.45 -5.85 -8.45 -6.0 -8.25 -6.0 -7.85 -6.1 -7.6 -6.0 7.75 -6.0 8.05 -6.05 8.25 -6.0 8.5 -6.0 8.45 -5.75 8.5 -5.65 8.55 -5.4 8.3 -4.9 7.85 -4.0 7.9 -3.95 7.9 -3.7 7.7 -3.7 -7.55 -3.7 -7.7 -3.85 -7.7 -3.8 -7.9 -3.75 M-7.6 -5.75 L-7.6 -5.7 -7.9 -5.4 -7.85 -5.25 -7.8 -5.2 -7.6 -5.15 -7.6 -5.2 7.65 -5.2 7.7 -5.25 7.75 -5.3 7.8 -5.45 7.8 -5.75 -7.6 -5.75" fill="#778e60" fill-rule="evenodd" stroke="none"/>
    <path d="M-7.6 -5.75 L7.8 -5.75 7.8 -5.45 7.75 -5.3 7.7 -5.25 7.65 -5.2 -7.6 -5.2 -7.6 -5.15 -7.8 -5.2 -7.85 -5.25 -7.9 -5.4 -7.6 -5.7 -7.6 -5.75" fill="#c9d2bd" fill-rule="evenodd" stroke="none"/>
    <path d="M-8.35 -0.05 L-8.35 -1.1 -8.4 -1.15 -8.45 -1.35 -9.4 -1.45 -10.5 -1.45 -10.4 -1.5 -11.15 -1.5 -11.15 -4.7 -11.1 -4.85 -11.15 -5.0 -11.15 -5.35 -8.8 -5.35 -8.45 -4.35 -7.7 -1.85 -7.55 -1.25 -7.5 -0.85 -7.55 -0.8 -7.5 -0.7 -7.45 -0.6 -7.2 -0.6 -7.15 -0.65 6.45 -0.7 6.45 -0.65 6.7 -0.65 7.1 -1.85 7.65 -3.0 8.8 -5.25 8.8 -5.35 10.7 -5.35 10.7 -5.25 10.75 -5.25 10.75 -1.25 10.7 -1.35 7.9 -1.3 7.85 -1.15 7.8 -1.15 7.75 -0.05 7.7 -0.1 -8.35 -0.05 M-11.15 -0.05 L-11.15 -1.2 -10.2 -1.1 -9.25 -1.0 -8.65 -1.0 -8.65 -0.9 -8.65 0.0 -10.95 0.0 -11.15 -0.05 M8.1 -0.2 L8.1 -0.6 8.1 -1.0 10.75 -1.0 10.75 -0.15 8.1 -0.2 M-10.6 -0.85 L-10.85 -0.85 -10.85 -0.5 -10.6 -0.5 -10.55 -0.65 -10.6 -0.85 M-9.9 -0.85 L-10.2 -0.8 Q-10.2 -0.5 -10.0 -0.5 L-9.85 -0.55 -9.85 -0.8 -9.9 -0.85 M-9.05 -0.6 L-9.1 -0.75 -9.35 -0.75 -9.35 -0.5 -9.3 -0.45 -9.1 -0.45 -9.05 -0.6 M8.65 -0.4 L8.7 -0.55 8.65 -0.75 8.4 -0.75 8.4 -0.4 8.65 -0.4 M9.55 -0.7 L9.5 -0.75 Q9.25 -0.8 9.25 -0.55 L9.3 -0.4 9.55 -0.45 9.55 -0.7 M10.3 -0.8 Q9.95 -0.95 9.95 -0.65 9.9 -0.45 10.15 -0.45 L10.3 -0.5 10.3 -0.8" fill="#5b6938" fill-rule="evenodd" stroke="none"/>
    <path d="M-13.5 -2.7 L-13.55 -2.2 Q-13.55 -1.25 -13.3 -1.25 L-13.1 -1.35 -11.85 -1.35 -11.6 -3.4 -11.55 -3.6 -11.6 -3.8 -11.65 -4.0 -12.25 -3.75 -12.3 -3.7 -12.5 -3.6 -13.25 -3.2 -13.5 -3.0 -13.55 -2.85 -13.5 -2.7 M-13.3 -3.5 L-12.7 -3.95 -11.4 -4.5 -11.4 4.1 -11.45 4.1 -11.45 4.4 -13.85 2.6 -13.85 -2.8 -13.95 -2.95 -13.85 -3.2 -13.85 -3.25 -13.3 -3.5 M12.0 -4.65 L12.0 -4.6 12.1 -4.35 12.1 4.75 11.05 4.75 11.05 -4.65 12.0 -4.65 M11.8 -3.5 L11.8 -4.45 11.75 -4.5 11.7 -4.5 11.65 -4.45 11.55 -4.4 11.35 -4.4 11.35 -4.15 11.25 -3.5 11.4 -1.1 11.75 -1.35 11.8 -3.3 11.8 -3.5" fill="#333333" fill-rule="evenodd" stroke="none"/>
    <path d="M-11.6 -3.4 L-11.95 -3.15 -12.5 -3.0 Q-12.85 -2.75 -12.95 -2.75 L-13.25 -2.8 -13.5 -2.7 -13.55 -2.85 -13.5 -3.0 -13.25 -3.2 -12.5 -3.6 -12.3 -3.7 -11.75 -3.85 -11.6 -3.8 -11.55 -3.6 -11.6 -3.4 M11.65 -4.45 L11.7 -4.5 11.75 -4.5 11.8 -4.45 11.8 -3.5 11.65 -3.45 Q11.45 -3.45 11.45 -3.75 L11.35 -4.1 11.35 -4.15 11.35 -4.4 11.55 -4.4 11.65 -4.45" fill="#cccccc" fill-rule="evenodd" stroke="none"/>
    <path d="M-13.5 -2.7 L-13.25 -2.8 -12.95 -2.75 Q-12.85 -2.75 -12.5 -3.0 L-11.95 -3.15 -11.6 -3.4 -11.85 -1.35 -13.1 -1.35 -13.3 -1.25 Q-13.55 -1.25 -13.55 -2.2 L-13.5 -2.7 M-11.6 -3.8 L-11.75 -3.85 -12.3 -3.7 -12.25 -3.75 -11.65 -4.0 -11.6 -3.8 M11.8 -3.5 L11.8 -3.3 11.75 -1.35 11.4 -1.1 11.25 -3.5 11.35 -4.15 11.35 -4.1 11.45 -3.75 Q11.45 -3.45 11.65 -3.45 L11.8 -3.5 M11.55 -4.4 L11.65 -4.45 11.55 -4.4" fill="#7b7b7b" fill-rule="evenodd" stroke="none"/>
    <path d="M-8.35 -0.05 L7.7 -0.1 7.75 -0.05 7.8 -0.05 7.8 0.25 7.75 0.25 7.7 1.2 7.35 1.15 6.9 1.15 6.9 0.8 6.95 0.65 6.9 0.5 -7.4 0.5 -7.6 0.5 -7.75 0.55 -7.75 0.8 -7.6 0.85 -7.6 1.55 Q-7.7 1.4 -8.0 1.35 L-8.35 1.3 -8.35 0.25 -8.4 0.1 -8.35 -0.05 M-11.15 3.25 L-11.15 0.3 -11.25 0.2 -11.25 -0.05 -11.15 -0.05 -10.95 0.0 -8.65 0.0 -8.6 0.05 -8.6 0.3 -8.7 0.3 -8.7 0.45 -8.65 1.35 -8.65 1.6 -8.6 1.6 -8.6 1.65 -8.45 1.65 -8.0 1.7 -7.7 1.8 -7.6 1.8 -7.6 2.35 -7.55 2.4 -7.5 2.4 -7.5 2.6 -7.2 2.65 -6.95 2.75 -6.8 2.65 6.9 2.6 6.95 2.45 6.9 2.25 6.85 2.25 6.9 2.2 6.9 1.5 7.55 1.55 7.95 1.45 8.0 1.4 8.05 0.15 8.0 0.05 8.0 -0.2 8.1 -0.2 10.75 -0.15 10.85 -0.15 10.9 -0.1 10.9 0.15 10.75 0.15 10.75 3.15 -0.1 3.15 -11.05 3.2 -11.15 3.25" fill="#434e29" fill-rule="evenodd" stroke="none"/>
    <path d="M7.7 -3.7 L6.45 -1.1 6.45 -1.0 -7.15 -1.0 -7.4 -2.1 -7.75 -3.25 -7.9 -3.75 -7.7 -3.8 -7.7 -3.85 -7.55 -3.7 7.7 -3.7" fill="#3e4d33" fill-rule="evenodd" stroke="none"/>
    <path d="M6.55 0.8 L6.5 1.0 6.6 1.8 6.5 1.8 6.5 2.25 -7.3 2.25 -7.3 0.85 6.55 0.8" fill="#a9a801" fill-rule="evenodd" stroke="none"/>
    <path d="M10.75 3.15 L10.9 3.25 10.9 3.5 10.75 3.5 10.75 5.7 10.65 5.65 9.75 5.65 9.75 3.85 9.7 3.75 9.65 3.65 7.0 3.65 6.85 3.8 6.9 3.95 6.95 5.65 -8.1 5.7 -8.1 4.1 -8.25 4.0 -8.3 4.1 -9.25 4.0 -10.3 4.0 -10.35 5.7 -11.2 5.7 -11.2 4.95 -11.0 4.95 -10.95 4.75 -11.2 4.6 -11.2 4.35 -11.15 4.35 -11.15 3.55 -11.2 3.55 -11.25 3.4 -11.15 3.25 -11.05 3.2 -0.1 3.15 10.75 3.15" fill="#272d17" fill-rule="evenodd" stroke="none"/>
    <path d="M-10.0 4.4 L-9.65 4.4 -8.35 4.35 -8.4 5.05 -8.35 5.7 -10.0 5.7 -10.0 4.4 M9.25 4.05 L9.45 4.05 9.45 5.65 7.2 5.65 7.2 4.0 9.25 4.05" fill="#1a1a1a" fill-rule="evenodd" stroke="none"/>
  </g>
</svg>
