<?xml version="1.0" encoding="UTF-8" standalone="no"?>
<svg xmlns:xlink="http://www.w3.org/1999/xlink" height="23.4px" width="25.35px" xmlns="http://www.w3.org/2000/svg">
  <g transform="matrix(1.0, 0.0, 0.0, 1.0, -10.0, 13.35)">
    <path d="M13.5 -13.3 L13.55 -13.35 13.6 -13.3 13.65 -13.3 13.7 -12.65 14.3 -6.85 14.3 -6.3 14.45 -6.15 14.5 -6.1 14.8 -4.7 15.4 -5.95 15.6 -5.75 15.6 -5.7 15.65 -5.65 15.5 -4.05 15.75 -3.05 15.8 -3.05 16.0 -2.9 15.6 -2.55 15.4 -2.5 14.5 -1.7 13.55 -1.6 13.85 -1.05 13.9 -1.05 14.8 -1.4 15.05 -1.1 15.4 -1.0 15.45 -0.75 15.55 -0.65 15.55 -0.6 15.6 -0.55 16.05 -0.75 16.2 -0.65 16.2 -0.6 Q15.75 -0.2 15.2 -0.15 L15.05 -0.15 14.3 -0.15 14.25 -0.25 14.2 -0.3 14.0 -0.35 13.8 0.3 13.7 0.7 Q13.15 0.75 13.15 0.15 L13.15 -0.05 12.9 0.35 12.7 0.4 12.7 0.35 12.65 0.3 12.65 0.25 12.7 0.1 12.7 -0.05 11.7 -0.15 Q11.45 0.0 11.25 -0.15 L11.05 -0.3 11.1 -0.35 10.05 -0.4 10.05 -0.45 10.1 -0.55 12.35 -0.85 12.2 -1.05 11.75 -1.5 11.75 -1.55 11.85 -1.6 11.9 -1.65 Q12.55 -1.3 13.2 -1.3 L13.2 -1.65 Q12.4 -1.75 11.7 -2.1 L11.8 -2.2 11.85 -2.25 11.8 -2.3 Q11.6 -2.35 11.45 -2.5 L11.5 -2.55 11.4 -2.65 10.95 -3.0 10.0 -3.65 10.05 -3.75 10.15 -3.8 11.15 -3.3 11.2 -3.25 11.8 -2.85 11.85 -2.95 Q11.4 -4.3 11.3 -5.6 L11.25 -5.95 11.0 -6.9 11.05 -6.95 11.1 -6.9 11.2 -6.9 11.2 -6.85 11.25 -6.8 11.3 -6.8 11.55 -5.95 11.95 -5.45 12.0 -5.4 11.9 -5.3 11.9 -5.25 12.4 -4.3 12.45 -4.25 12.75 -4.15 12.85 -4.35 12.8 -4.35 12.65 -4.5 13.1 -6.15 13.4 -9.7 13.45 -9.75 13.45 -10.4 13.45 -11.45 13.45 -11.9 13.5 -12.4 13.5 -13.3 M19.55 -4.7 L19.55 -4.6 19.6 -4.55 19.65 -4.5 19.5 -4.05 19.65 -4.1 19.75 -4.05 19.8 -4.0 20.0 -3.95 20.8 -4.4 20.95 -4.3 20.95 -4.25 20.3 -3.6 20.25 -3.55 20.25 -3.5 20.4 -3.45 20.4 -3.4 20.45 -3.3 20.45 -3.25 21.1 -3.15 21.15 -3.1 21.25 -3.05 21.3 -3.0 20.75 -2.25 23.55 -1.9 23.6 -1.9 23.65 -1.95 29.55 -1.3 29.75 -1.25 29.8 -1.3 30.0 -1.25 30.05 -1.25 30.05 -1.2 30.8 -1.05 30.8 -1.1 30.85 -1.1 30.9 -1.15 30.95 -1.15 31.05 -1.1 31.45 -1.05 33.8 -0.85 34.4 -0.95 34.55 -0.85 34.55 -0.8 35.35 -0.7 34.3 -0.55 33.8 -0.45 32.7 -0.45 30.75 -0.45 25.3 0.6 23.45 0.95 22.75 1.1 20.15 1.55 20.55 2.2 20.6 2.3 19.9 2.3 20.0 2.4 19.8 2.6 19.5 2.75 19.45 2.7 19.35 2.6 19.35 2.55 19.15 2.35 19.1 2.3 18.65 1.95 18.5 2.1 18.65 2.9 18.7 3.1 18.95 3.45 18.5 3.3 18.3 3.35 18.2 3.4 17.7 2.95 16.25 1.4 16.2 1.25 Q16.35 0.75 16.95 0.55 L17.0 0.55 17.15 0.65 17.2 0.65 17.15 0.6 17.15 0.55 16.3 -0.05 16.3 -0.1 16.35 -0.15 16.4 -0.15 16.4 -0.45 16.4 -0.5 17.2 -1.2 16.3 -1.9 16.25 -1.9 Q16.05 -1.85 16.05 -2.0 L16.0 -2.0 Q15.95 -2.4 16.3 -2.8 L16.45 -2.95 16.55 -2.9 16.55 -2.95 16.6 -2.9 16.65 -2.9 17.85 -3.95 17.8 -4.0 17.75 -4.1 17.8 -4.15 Q18.85 -4.75 19.5 -5.8 L19.55 -5.75 19.6 -5.85 19.7 -5.8 19.75 -5.75 19.55 -4.7 M15.35 1.2 L15.5 1.2 15.55 1.25 15.5 1.4 16.1 3.0 16.1 3.1 16.45 3.8 16.45 3.85 16.35 3.9 16.25 3.85 15.1 2.15 14.6 3.95 14.25 6.9 14.2 7.6 14.2 8.25 14.2 8.95 14.15 9.0 13.95 8.95 13.95 8.7 13.8 8.6 13.85 8.35 13.75 8.3 13.75 8.6 13.95 9.95 13.9 10.0 13.7 9.95 13.4 7.9 13.3 7.8 12.9 3.55 11.95 5.6 11.8 5.55 12.0 4.6 11.95 4.6 Q11.8 4.65 11.75 4.5 L12.2 2.25 11.95 2.5 11.9 2.55 11.65 2.55 11.3 3.0 11.0 3.35 10.85 3.4 10.8 3.25 11.4 2.35 11.35 2.25 11.9 1.2 12.0 1.3 12.45 1.1 12.55 1.2 12.6 1.25 12.6 1.3 12.65 1.3 12.65 1.35 13.75 1.2 14.8 1.1 15.15 1.15 15.2 1.2 15.25 1.15 15.3 1.15 15.35 1.2 M16.4 1.4 L16.35 1.4 16.7 1.7 16.5 1.3 16.45 1.35 16.4 1.4" fill="#ffffff" fill-rule="evenodd" stroke="none"/>
  </g>
</svg>
