<?xml version="1.0" encoding="UTF-8" standalone="no"?>
<svg xmlns:xlink="http://www.w3.org/1999/xlink" height="5.1px" width="20.9px" xmlns="http://www.w3.org/2000/svg">
  <g transform="matrix(1.0, 0.0, 0.0, 1.0, -6.75, -0.3)">
    <path d="M6.9 1.85 L6.95 1.5 7.8 1.4 7.8 1.3 7.85 1.25 7.9 1.25 Q7.85 0.7 8.05 0.35 L8.05 0.3 8.1 0.35 8.15 0.4 8.2 1.3 8.3 1.4 8.35 1.4 8.55 1.45 8.6 1.5 8.65 1.5 8.65 1.55 21.55 1.6 21.55 1.45 21.45 1.45 21.5 1.35 21.6 1.15 Q22.0 1.0 22.25 0.65 L22.3 0.65 22.4 0.55 22.9 0.6 23.0 0.6 23.0 0.65 23.05 0.7 23.15 0.7 23.2 0.95 23.1 0.95 23.15 1.0 23.25 1.0 23.5 1.25 23.4 1.25 23.35 1.3 23.4 1.3 23.6 1.3 24.4 1.35 24.95 1.35 25.9 1.35 26.0 1.35 26.4 1.35 26.0 1.35 26.0 1.3 26.55 1.1 26.65 1.0 26.7 0.95 26.95 0.6 27.35 0.65 27.4 0.65 27.5 0.7 27.55 0.9 27.55 0.95 27.55 5.15 27.65 5.2 27.55 5.25 27.55 5.3 27.4 5.35 26.75 5.15 26.8 5.05 26.8 4.95 23.3 4.9 23.25 5.1 23.25 5.15 23.25 5.25 22.55 5.35 22.5 5.3 22.4 5.2 22.35 5.15 22.3 5.15 22.25 5.1 22.25 5.0 21.9 4.8 21.8 4.8 21.65 4.8 21.55 4.6 21.55 4.55 21.5 4.55 21.35 4.45 20.7 4.3 20.55 4.3 20.45 4.35 20.25 4.25 19.65 4.3 19.65 4.25 19.35 4.25 11.05 4.3 8.4 4.3 8.35 4.4 8.25 4.45 8.2 5.05 8.2 5.1 8.0 5.1 8.0 4.8 7.9 4.75 7.9 4.65 7.95 4.6 7.95 4.5 7.0 4.45 Q6.6 3.7 6.8 2.8 L6.9 1.85 M8.1 1.75 L7.2 1.8 7.1 2.75 7.15 4.15 7.3 4.2 Q7.55 3.95 7.9 4.0 L7.9 3.55 7.9 3.4 8.0 3.35 8.05 3.3 8.1 3.35 8.1 3.3 8.15 3.35 8.25 3.35 8.3 3.35 8.45 4.0 11.15 4.05 11.15 4.0 20.8 4.05 21.25 4.05 21.55 4.05 21.6 4.05 21.65 4.0 21.75 4.1 21.8 4.05 21.85 4.0 Q22.15 4.2 22.05 4.55 L21.95 4.6 21.95 4.65 22.0 4.6 Q22.35 4.65 22.55 4.95 L22.7 5.05 22.95 5.0 22.95 4.95 23.0 4.8 23.05 4.75 23.15 4.6 23.15 4.55 23.25 4.5 23.45 4.6 26.9 4.6 27.05 4.75 27.1 4.8 27.1 4.95 27.15 5.0 27.3 5.05 27.4 1.0 27.35 0.95 27.3 0.9 27.25 0.95 27.15 0.95 27.05 0.95 27.0 1.05 26.95 1.1 26.75 1.3 26.75 1.4 26.65 1.55 26.45 1.6 23.35 1.55 23.25 1.55 23.1 1.55 22.75 1.25 22.75 1.2 22.8 1.15 22.75 0.9 22.5 0.9 22.0 1.35 21.95 1.45 21.95 1.55 21.85 1.75 21.85 1.8 21.6 1.8 8.25 1.85 8.1 1.75 M26.05 3.5 L22.8 3.2 22.75 3.1 22.7 3.1 22.8 2.7 Q22.9 2.5 23.15 2.45 L23.15 2.4 23.2 2.35 23.25 2.35 24.0 2.2 26.9 2.65 26.95 2.7 27.0 2.75 26.95 2.8 26.95 2.85 26.9 3.0 26.45 3.3 26.2 3.35 26.2 3.4 26.2 3.45 26.05 3.5 M23.05 3.05 L23.05 3.1 26.45 3.0 26.5 2.9 26.55 2.9 Q26.35 2.65 25.75 2.6 L23.95 2.5 23.85 2.55 23.5 2.55 23.35 2.65 23.05 2.8 23.0 2.85 23.0 2.95 23.05 3.05 M20.75 4.3 L20.7 4.3 20.75 4.3" fill="#000000" fill-rule="evenodd" stroke="none"/>
    <path d="M19.1 2.15 L18.5 2.15 18.15 2.1 18.15 2.15 18.1 2.15 8.5 2.1 8.5 2.15 8.35 2.25 8.35 2.3 8.5 2.4 18.05 2.35 18.4 2.45 18.65 2.4 18.65 2.35 19.4 2.35 19.4 2.4 19.65 2.45 19.7 2.4 19.7 2.35 19.9 2.35 19.9 2.5 Q20.05 2.7 20.2 2.5 L20.2 2.45 20.35 2.6 20.4 2.55 20.6 2.5 20.85 2.5 20.95 2.5 21.0 2.5 21.15 2.5 21.3 2.55 21.55 2.5 22.0 2.45 22.05 2.4 22.2 2.3 22.2 2.2 22.25 2.15 22.3 1.95 22.5 1.95 22.55 1.95 22.65 1.85 22.75 1.65 22.75 1.45 22.7 1.45 Q22.6 1.3 22.4 1.3 L22.35 1.35 22.05 1.5 22.0 1.65 22.05 1.8 21.9 2.0 21.9 2.1 21.85 2.1 21.8 2.15 21.5 2.15 21.4 2.1 21.35 2.15 21.3 2.15 21.2 2.1 21.15 2.15 21.15 2.1 19.25 1.95 19.1 2.1 19.1 2.15 M8.1 1.75 L8.25 1.85 21.6 1.8 21.85 1.8 21.85 1.75 21.95 1.55 21.95 1.45 22.0 1.35 22.5 0.9 22.75 0.9 22.8 1.15 22.75 1.2 22.75 1.25 23.1 1.55 23.25 1.55 23.35 1.55 26.45 1.6 26.65 1.55 26.75 1.4 26.75 1.3 26.95 1.1 27.0 1.05 27.05 0.95 27.15 0.95 27.25 0.95 27.3 0.9 27.35 0.95 27.4 1.0 27.3 5.05 27.15 5.0 27.1 4.95 27.1 4.8 27.05 4.75 26.9 4.6 23.45 4.6 23.25 4.5 23.15 4.55 23.15 4.6 23.05 4.75 23.0 4.8 22.95 4.95 22.95 5.0 22.7 5.05 22.55 4.95 Q22.35 4.65 22.0 4.6 L21.95 4.65 21.95 4.6 22.05 4.55 Q22.15 4.2 21.85 4.0 L21.8 4.05 21.75 4.1 21.65 4.0 21.6 4.05 21.55 4.05 21.25 4.05 20.8 4.05 11.15 4.0 11.15 4.05 8.45 4.0 8.3 3.35 8.25 3.35 8.15 3.35 8.1 3.3 8.1 3.35 8.05 3.3 8.0 3.35 7.9 3.4 7.9 3.55 7.9 4.0 Q7.55 3.95 7.3 4.2 L7.15 4.15 7.1 2.75 7.2 1.8 8.1 1.75 M20.2 2.4 L20.2 2.35 20.25 2.35 20.2 2.4 M26.2 3.45 L26.2 3.4 26.2 3.35 26.45 3.3 26.9 3.0 26.95 2.85 26.95 2.8 27.0 2.75 26.95 2.7 26.9 2.65 24.0 2.2 23.25 2.35 23.2 2.35 23.15 2.4 23.15 2.45 Q22.9 2.5 22.8 2.7 L22.7 3.1 22.75 3.1 22.8 3.2 26.05 3.5 25.1 3.75 Q26.05 4.0 26.9 3.35 L26.75 3.2 26.2 3.45 M25.3 2.05 L25.3 2.1 25.45 2.15 26.9 2.1 27.0 2.1 27.05 2.0 27.15 1.5 27.15 1.45 27.05 1.4 27.0 1.45 26.75 1.85 26.75 1.9 26.05 1.9 26.1 1.85 25.95 1.7 Q25.45 1.75 25.1 1.95 L25.3 2.05" fill="#333333" fill-rule="evenodd" stroke="none"/>
    <path d="M22.3 1.95 L22.25 2.15 22.2 2.2 22.2 2.3 22.05 2.4 22.0 2.45 21.55 2.5 21.3 2.55 21.15 2.5 21.0 2.5 20.95 2.5 20.85 2.5 20.6 2.5 20.4 2.55 20.35 2.6 20.2 2.45 20.2 2.5 Q20.05 2.7 19.9 2.5 L19.9 2.35 19.7 2.35 19.7 2.4 19.65 2.45 19.4 2.4 19.4 2.35 18.65 2.35 18.65 2.4 18.4 2.45 18.05 2.35 8.5 2.4 8.35 2.3 8.35 2.25 8.5 2.15 8.5 2.1 18.1 2.15 18.15 2.15 18.15 2.1 18.5 2.15 19.1 2.15 21.15 2.3 21.2 2.2 21.15 2.15 21.2 2.1 21.3 2.15 21.35 2.15 21.4 2.1 21.5 2.15 21.8 2.15 21.85 2.1 21.9 2.1 21.9 2.0 22.05 1.8 22.3 1.95 M20.2 2.4 L20.25 2.35 20.2 2.35 20.2 2.4 M26.05 1.9 L26.75 1.9 26.75 1.85 27.0 1.45 27.05 1.4 27.15 1.45 27.15 1.5 27.05 2.0 27.0 2.1 26.9 2.1 25.45 2.15 25.3 2.1 25.3 2.05 26.05 1.9" fill="#c1c1c1" fill-rule="evenodd" stroke="none"/>
    <path d="M19.1 2.15 L19.1 2.1 19.25 1.95 21.15 2.1 21.15 2.15 21.2 2.2 21.15 2.3 19.1 2.15 M22.05 1.8 L22.0 1.65 22.05 1.5 22.35 1.35 22.4 1.3 Q22.6 1.3 22.7 1.45 L22.75 1.45 22.75 1.65 22.65 1.85 22.55 1.95 22.5 1.95 22.3 1.95 22.05 1.8 M26.2 3.45 L26.75 3.2 26.9 3.35 Q26.05 4.0 25.1 3.75 L26.05 3.5 26.2 3.45 M25.3 2.05 L25.1 1.95 Q25.45 1.75 25.95 1.7 L26.1 1.85 26.05 1.9 25.3 2.05" fill="#fcfcfc" fill-rule="evenodd" stroke="none"/>
  </g>
</svg>
