<?xml version="1.0" encoding="UTF-8" standalone="no"?>
<svg xmlns:xlink="http://www.w3.org/1999/xlink" height="23.4px" width="25.35px" xmlns="http://www.w3.org/2000/svg">
  <g transform="matrix(1.0, 0.0, 0.0, 1.0, -22.4, 9.45)">
    <path d="M25.95 -9.45 L26.0 -9.4 26.05 -9.4 26.1 -8.75 26.7 -2.95 26.7 -2.4 26.85 -2.25 26.9 -2.2 27.2 -0.8 27.8 -2.05 28.0 -1.85 28.0 -1.8 28.05 -1.75 27.9 -0.15 28.15 0.85 28.2 0.85 Q28.35 0.85 28.4 1.0 L28.0 1.35 27.8 1.4 26.9 2.2 25.95 2.3 26.25 2.85 26.3 2.85 27.2 2.5 27.45 2.8 27.8 2.9 27.85 3.15 27.95 3.25 27.95 3.3 28.0 3.35 28.45 3.15 28.6 3.25 28.6 3.3 Q28.15 3.7 27.6 3.75 L27.45 3.75 26.7 3.75 26.65 3.65 26.6 3.6 Q26.6 3.4 26.4 3.55 L26.2 4.2 26.1 4.6 Q25.55 4.65 25.55 4.05 L25.55 3.85 25.3 4.25 25.1 4.3 25.1 4.25 25.05 4.2 25.05 4.15 25.1 4.0 25.1 3.85 24.1 3.75 23.65 3.75 23.45 3.6 23.5 3.55 22.45 3.5 22.45 3.45 22.5 3.35 24.75 3.05 24.6 2.85 24.15 2.4 24.15 2.35 24.25 2.3 24.3 2.25 25.6 2.6 25.6 2.25 24.1 1.8 24.2 1.7 24.25 1.65 24.2 1.6 23.85 1.4 23.9 1.35 23.8 1.25 23.35 0.9 22.4 0.25 22.45 0.15 22.55 0.1 23.55 0.6 23.6 0.65 24.2 1.05 24.25 0.95 Q23.8 -0.4 23.7 -1.7 L23.65 -2.05 23.4 -3.0 23.45 -3.05 23.5 -3.0 23.6 -3.0 23.6 -2.95 23.65 -2.9 23.7 -2.9 23.95 -2.05 24.35 -1.55 24.4 -1.5 24.3 -1.4 24.3 -1.35 24.8 -0.4 24.85 -0.35 25.15 -0.25 25.25 -0.45 25.2 -0.45 25.05 -0.6 25.5 -2.25 25.8 -5.8 25.85 -5.85 25.85 -6.5 25.85 -7.55 25.85 -8.0 25.9 -8.5 25.9 -9.4 25.95 -9.45 M30.2 -0.1 L30.15 -0.2 30.2 -0.25 Q31.25 -0.85 31.9 -1.9 L31.95 -1.85 32.0 -1.95 32.1 -1.9 32.15 -1.85 31.95 -0.8 31.95 -0.7 32.0 -0.65 32.05 -0.6 31.9 -0.15 32.05 -0.2 32.15 -0.15 32.2 -0.1 32.4 -0.05 Q32.8 -0.3 33.2 -0.5 L33.35 -0.4 33.35 -0.35 32.7 0.3 32.65 0.35 32.65 0.4 32.8 0.45 32.8 0.5 32.85 0.6 32.85 0.65 33.5 0.75 33.55 0.8 33.65 0.85 33.7 0.9 33.15 1.65 35.95 2.0 36.0 2.0 36.05 1.95 41.95 2.6 42.15 2.65 42.2 2.6 42.4 2.65 42.45 2.65 42.45 2.7 43.2 2.85 43.2 2.8 43.25 2.8 43.3 2.75 43.35 2.75 43.45 2.8 43.85 2.85 46.2 3.05 46.8 2.95 46.95 3.05 46.95 3.1 47.75 3.2 46.7 3.35 46.2 3.45 45.1 3.45 43.15 3.45 37.7 4.5 35.85 4.85 35.15 5.0 32.55 5.45 32.95 6.1 33.0 6.2 32.3 6.2 32.4 6.3 32.2 6.5 31.9 6.65 31.85 6.6 31.75 6.5 31.75 6.45 31.55 6.25 31.5 6.2 31.05 5.85 30.9 6.0 31.05 6.8 31.1 7.0 31.35 7.35 Q31.1 7.5 30.9 7.2 L30.7 7.25 30.6 7.3 30.1 6.85 Q29.15 6.2 28.65 5.3 L28.6 5.15 Q28.75 4.65 29.35 4.45 L29.4 4.45 29.55 4.55 29.6 4.55 29.55 4.5 29.55 4.45 28.7 3.85 28.7 3.8 28.75 3.75 28.8 3.75 28.8 3.45 28.8 3.4 29.6 2.7 28.7 2.0 28.65 2.0 Q28.45 2.05 28.45 1.9 L28.4 1.9 Q28.35 1.5 28.7 1.1 L28.85 0.95 28.95 1.0 28.95 0.95 29.0 1.0 29.05 1.0 30.25 -0.05 30.2 -0.1 M27.95 5.15 L27.9 5.3 28.5 6.9 28.5 7.0 28.85 7.7 28.85 7.75 28.75 7.8 28.65 7.75 27.5 6.05 27.0 7.85 26.65 10.8 26.6 11.5 26.6 12.15 26.6 12.85 26.55 12.9 26.35 12.85 26.35 12.6 26.2 12.5 26.25 12.25 26.15 12.2 26.15 12.5 26.35 13.85 26.3 13.9 26.1 13.85 25.8 11.8 25.7 11.7 25.3 7.45 24.35 9.5 24.2 9.45 24.4 8.5 24.35 8.5 Q24.2 8.55 24.15 8.4 L24.6 6.15 24.35 6.4 24.3 6.45 24.05 6.45 23.7 6.9 23.4 7.25 23.25 7.3 23.2 7.15 23.8 6.25 23.75 6.15 24.3 5.1 24.4 5.2 24.85 5.0 24.95 5.1 25.0 5.15 25.0 5.2 25.05 5.2 25.05 5.25 26.15 5.1 27.2 5.0 27.55 5.05 27.6 5.1 27.65 5.05 27.7 5.05 27.75 5.1 27.9 5.1 27.95 5.15 M28.75 5.3 L29.1 5.6 28.9 5.2 28.85 5.25 28.8 5.3 28.75 5.3" fill="#ffffff" fill-rule="evenodd" stroke="none"/>
  </g>
</svg>
