<?xml version="1.0" encoding="UTF-8" standalone="no"?>
<svg xmlns:xlink="http://www.w3.org/1999/xlink" height="5.1px" width="20.9px" xmlns="http://www.w3.org/2000/svg">
  <g transform="matrix(1.0, 0.0, 0.0, 1.0, -0.75, -0.3)">
    <path d="M0.9 1.85 L0.95 1.5 1.8 1.4 1.8 1.3 1.85 1.25 1.9 1.25 Q1.85 0.7 2.05 0.35 L2.05 0.3 2.1 0.35 2.15 0.4 2.2 1.3 2.3 1.4 2.35 1.4 2.55 1.45 2.6 1.5 2.65 1.5 2.65 1.55 15.55 1.6 15.55 1.45 15.45 1.45 15.5 1.35 15.6 1.15 Q16.0 1.0 16.25 0.65 L16.3 0.65 16.4 0.55 16.9 0.6 17.0 0.6 17.0 0.65 17.05 0.7 17.15 0.7 17.2 0.95 17.1 0.95 17.15 1.0 17.25 1.0 17.5 1.25 17.4 1.25 17.35 1.3 17.4 1.3 17.6 1.3 18.4 1.35 18.95 1.35 19.9 1.35 20.0 1.35 20.4 1.35 20.0 1.35 20.0 1.3 20.55 1.1 20.65 1.0 20.7 0.95 20.95 0.6 21.35 0.65 21.4 0.65 21.5 0.7 21.55 0.9 21.55 0.95 21.55 5.15 21.65 5.2 21.55 5.25 21.55 5.3 21.4 5.35 20.75 5.15 20.8 5.05 20.8 4.95 17.3 4.9 17.25 5.1 17.25 5.15 17.25 5.25 16.55 5.35 16.5 5.3 16.4 5.2 16.35 5.15 16.3 5.15 16.25 5.1 16.25 5.0 15.9 4.8 15.8 4.8 15.65 4.8 15.55 4.6 15.55 4.55 15.5 4.55 15.35 4.45 14.7 4.3 14.55 4.3 14.45 4.35 14.25 4.25 13.65 4.3 13.65 4.25 13.35 4.25 5.05 4.3 2.4 4.3 2.35 4.4 2.25 4.45 2.2 5.05 2.2 5.1 2.0 5.1 2.0 4.8 1.9 4.75 1.9 4.65 1.95 4.6 1.95 4.5 1.0 4.45 Q0.6 3.7 0.8 2.8 L0.9 1.85 M2.1 1.75 L1.2 1.8 1.1 2.75 Q1.0 3.5 1.15 4.15 L1.3 4.2 Q1.55 3.95 1.9 4.0 L1.9 3.55 1.9 3.4 2.0 3.35 2.05 3.3 2.1 3.35 2.1 3.3 2.15 3.35 2.25 3.35 2.3 3.35 2.45 4.0 5.15 4.05 5.15 4.0 14.8 4.05 15.25 4.05 15.55 4.05 15.6 4.05 15.65 4.0 15.75 4.1 15.8 4.05 15.85 4.0 Q16.15 4.2 16.05 4.55 L15.95 4.6 15.95 4.65 16.0 4.6 16.55 4.95 16.7 5.05 16.95 5.0 16.95 4.95 17.0 4.8 17.05 4.75 17.15 4.6 17.15 4.55 17.25 4.5 17.45 4.6 20.9 4.6 21.05 4.75 21.1 4.8 21.1 4.95 21.15 5.0 21.3 5.05 21.4 1.0 21.35 0.95 21.3 0.9 21.25 0.95 21.15 0.95 21.05 0.95 21.0 1.05 20.95 1.1 20.75 1.3 20.75 1.4 20.65 1.55 20.45 1.6 17.35 1.55 17.25 1.55 17.1 1.55 16.75 1.25 16.75 1.2 16.8 1.15 16.75 0.9 16.5 0.9 16.0 1.35 15.95 1.45 15.95 1.55 15.85 1.75 15.85 1.8 15.6 1.8 2.25 1.85 2.1 1.75 M20.05 3.5 L16.8 3.2 16.75 3.1 16.7 3.1 16.8 2.7 Q16.9 2.5 17.15 2.45 L17.15 2.4 17.2 2.35 17.25 2.35 18.0 2.2 20.9 2.65 20.95 2.7 21.0 2.75 20.95 2.8 20.95 2.85 20.9 3.0 20.45 3.3 20.2 3.35 20.2 3.4 20.2 3.45 20.05 3.5 M17.05 3.05 L17.05 3.1 20.45 3.0 20.5 2.9 20.55 2.9 Q20.35 2.65 19.75 2.6 L17.95 2.5 17.85 2.55 17.5 2.55 17.35 2.65 17.05 2.8 17.0 2.85 17.0 2.95 17.05 3.05 M14.75 4.3 L14.7 4.3 14.75 4.3" fill="#000000" fill-rule="evenodd" stroke="none"/>
    <path d="M2.1 1.75 L2.25 1.85 15.6 1.8 15.85 1.8 15.85 1.75 15.95 1.55 15.95 1.45 16.0 1.35 16.5 0.9 16.75 0.9 16.8 1.15 16.75 1.2 16.75 1.25 17.1 1.55 17.25 1.55 17.35 1.55 20.45 1.6 20.65 1.55 20.75 1.4 20.75 1.3 20.95 1.1 21.0 1.05 21.05 0.95 21.15 0.95 21.25 0.95 21.3 0.9 21.35 0.95 21.4 1.0 21.3 5.05 21.15 5.0 21.1 4.95 21.1 4.8 21.05 4.75 20.9 4.6 17.45 4.6 17.25 4.5 17.15 4.55 17.15 4.6 17.05 4.75 17.0 4.8 16.95 4.95 16.95 5.0 16.7 5.05 16.55 4.95 16.0 4.6 15.95 4.65 15.95 4.6 16.05 4.55 Q16.15 4.2 15.85 4.0 L15.8 4.05 15.75 4.1 15.65 4.0 15.6 4.05 15.55 4.05 15.25 4.05 14.8 4.05 5.15 4.0 5.15 4.05 2.45 4.0 2.3 3.35 2.25 3.35 2.15 3.35 2.1 3.3 2.1 3.35 2.05 3.3 2.0 3.35 1.9 3.4 1.9 3.55 1.9 4.0 Q1.55 3.95 1.3 4.2 L1.15 4.15 Q1.0 3.5 1.1 2.75 L1.2 1.8 2.1 1.75 M13.1 2.15 L12.5 2.15 12.15 2.1 12.15 2.15 12.1 2.15 2.5 2.1 2.5 2.15 2.35 2.25 2.35 2.3 2.5 2.4 12.05 2.35 12.4 2.45 12.65 2.4 12.65 2.35 13.4 2.35 13.4 2.4 13.65 2.45 13.7 2.4 13.7 2.35 13.9 2.35 13.9 2.5 Q14.05 2.7 14.2 2.5 L14.2 2.45 14.35 2.6 14.4 2.55 14.6 2.5 14.85 2.5 14.95 2.5 15.0 2.5 15.15 2.5 15.3 2.55 15.55 2.5 16.0 2.45 16.05 2.4 16.2 2.3 16.2 2.2 16.25 2.15 16.3 1.95 16.5 1.95 16.55 1.95 16.65 1.85 16.75 1.65 16.75 1.45 16.7 1.45 Q16.6 1.3 16.4 1.3 L16.35 1.35 16.05 1.5 16.0 1.65 16.05 1.8 15.9 2.0 15.9 2.1 15.85 2.1 15.8 2.15 15.5 2.15 15.4 2.1 15.35 2.15 15.3 2.15 15.2 2.1 15.15 2.15 15.15 2.1 13.25 1.95 13.1 2.1 13.1 2.15 M14.2 2.4 L14.2 2.35 14.25 2.35 14.2 2.4 M20.2 3.45 L20.2 3.4 20.2 3.35 20.45 3.3 20.9 3.0 20.95 2.85 20.95 2.8 21.0 2.75 20.95 2.7 20.9 2.65 18.0 2.2 17.25 2.35 17.2 2.35 17.15 2.4 17.15 2.45 Q16.9 2.5 16.8 2.7 L16.7 3.1 16.75 3.1 16.8 3.2 20.05 3.5 19.1 3.75 Q20.05 4.0 20.9 3.35 L20.75 3.2 20.2 3.45 M19.3 2.05 L19.3 2.1 19.45 2.15 20.9 2.1 21.0 2.1 21.05 2.0 21.15 1.5 21.15 1.45 21.05 1.4 21.0 1.45 20.75 1.85 20.75 1.9 20.05 1.9 20.1 1.85 19.95 1.7 Q19.45 1.75 19.1 1.95 L19.3 2.05" fill="#333333" fill-rule="evenodd" stroke="none"/>
    <path d="M16.3 1.95 L16.25 2.15 16.2 2.2 16.2 2.3 16.05 2.4 16.0 2.45 15.55 2.5 15.3 2.55 15.15 2.5 15.0 2.5 14.95 2.5 14.85 2.5 14.6 2.5 14.4 2.55 14.35 2.6 14.2 2.45 14.2 2.5 Q14.05 2.7 13.9 2.5 L13.9 2.35 13.7 2.35 13.7 2.4 13.65 2.45 13.4 2.4 13.4 2.35 12.65 2.35 12.65 2.4 12.4 2.45 12.05 2.35 2.5 2.4 2.35 2.3 2.35 2.25 2.5 2.15 2.5 2.1 12.1 2.15 12.15 2.15 12.15 2.1 12.5 2.15 13.1 2.15 15.15 2.3 15.2 2.2 15.15 2.15 15.2 2.1 15.3 2.15 15.35 2.15 15.4 2.1 15.5 2.15 15.8 2.15 15.85 2.1 15.9 2.1 15.9 2.0 16.05 1.8 16.3 1.95 M14.2 2.4 L14.25 2.35 14.2 2.35 14.2 2.4 M20.05 1.9 L20.75 1.9 20.75 1.85 21.0 1.45 21.05 1.4 21.15 1.45 21.15 1.5 21.05 2.0 21.0 2.1 20.9 2.1 19.45 2.15 19.3 2.1 19.3 2.05 20.05 1.9" fill="#c1c1c1" fill-rule="evenodd" stroke="none"/>
    <path d="M13.1 2.15 L13.1 2.1 13.25 1.95 15.15 2.1 15.15 2.15 15.2 2.2 15.15 2.3 13.1 2.15 M16.05 1.8 L16.0 1.65 16.05 1.5 16.35 1.35 16.4 1.3 Q16.6 1.3 16.7 1.45 L16.75 1.45 16.75 1.65 16.65 1.85 16.55 1.95 16.5 1.95 16.3 1.95 16.05 1.8 M20.2 3.45 L20.75 3.2 20.9 3.35 Q20.05 4.0 19.1 3.75 L20.05 3.5 20.2 3.45 M19.3 2.05 L19.1 1.95 Q19.45 1.75 19.95 1.7 L20.1 1.85 20.05 1.9 19.3 2.05" fill="#fcfcfc" fill-rule="evenodd" stroke="none"/>
  </g>
</svg>
