<?xml version="1.0" encoding="UTF-8" standalone="no"?>
<svg xmlns:xlink="http://www.w3.org/1999/xlink" height="15.85px" width="17.65px" xmlns="http://www.w3.org/2000/svg">
  <g transform="matrix(1.0, 0.0, 0.0, 1.0, 4.5, 7.75)">
    <path d="M6.95 -7.05 L6.35 -7.2 5.05 -7.4 3.9 -7.3 1.65 -7.25 1.25 -7.1 -0.25 -6.9 -1.45 -6.5 -2.1 -6.3 -2.2 -6.25 -1.85 -6.1 -1.6 -5.75 -1.3 -5.3 -1.25 -4.85 Q-1.25 -4.5 -1.4 -4.2 L-1.3 -4.25 0.25 -4.65 1.45 -4.45 Q1.65 -4.3 1.95 -4.25 1.5 -4.7 1.5 -5.05 L1.7 -5.75 2.1 -6.1 2.7 -6.15 Q3.75 -6.15 4.15 -5.55 L4.4 -4.9 4.45 -4.85 Q5.6 -5.75 6.45 -5.9 L8.5 -6.2 10.05 -6.4 10.45 -6.4 9.3 -6.7 8.4 -6.85 7.5 -6.9 6.95 -7.05 M7.05 -7.35 L8.7 -7.15 9.55 -6.9 10.55 -6.65 11.9 -6.3 13.05 -5.8 13.15 -5.55 13.0 -5.5 12.9 -5.5 12.85 -5.5 Q12.55 -5.6 12.1 -5.85 L11.95 -5.85 11.5 -5.95 9.85 -6.05 8.85 -5.9 8.15 -5.8 6.15 -5.45 5.0 -4.85 4.3 -4.3 4.0 -5.2 Q3.7 -5.8 2.7 -5.8 L2.25 -5.8 2.2 -5.65 1.95 -5.5 Q1.8 -5.4 1.8 -5.05 L2.1 -4.6 2.45 -4.3 2.65 -4.0 3.15 -3.8 3.4 -3.6 4.4 -2.65 5.0 -1.45 5.15 -1.15 5.15 -0.9 5.1 -0.9 5.15 -0.05 Q5.15 1.5 4.15 2.8 L3.7 3.5 3.2 3.95 3.4 3.95 3.15 4.15 2.65 4.35 2.45 4.65 2.1 4.95 1.8 5.4 Q1.8 5.75 1.95 5.85 L2.2 6.0 2.25 6.15 2.7 6.15 Q3.7 6.15 4.0 5.55 L4.3 4.65 5.0 5.2 6.15 5.8 8.15 6.15 8.85 6.25 9.85 6.4 11.5 6.3 11.95 6.2 12.1 6.2 Q12.55 5.95 12.85 5.85 L12.9 5.85 13.0 5.85 13.15 5.9 13.05 6.15 11.9 6.65 10.55 7.0 9.55 7.25 8.7 7.5 7.05 7.7 Q6.0 8.1 5.25 8.1 L4.05 8.0 2.75 7.95 1.55 7.9 -0.3 7.55 -1.45 7.15 -1.85 7.05 -2.55 6.95 -2.7 6.75 -2.95 6.75 -2.95 6.45 -2.8 6.4 -1.9 5.95 -1.55 5.2 Q-1.55 4.9 -1.85 4.55 L-2.0 4.3 -2.5 4.0 -2.9 3.7 -3.8 2.85 Q-4.5 1.65 -4.5 0.1 L-4.2 -1.3 -3.55 -2.65 -3.35 -2.95 -2.25 -3.75 -2.1 -3.8 -1.85 -4.2 Q-1.55 -4.55 -1.55 -4.85 L-1.9 -5.6 -2.8 -6.05 -2.95 -6.1 -2.95 -6.4 -2.7 -6.4 -2.55 -6.6 -1.85 -6.7 -1.45 -6.8 -0.3 -7.2 1.55 -7.55 2.75 -7.6 4.05 -7.65 5.25 -7.75 7.05 -7.35 M3.65 -2.85 L3.2 -3.3 3.15 -3.25 3.05 -3.35 3.0 -3.35 2.6 -3.6 2.5 -3.7 1.75 -4.0 0.05 -4.3 0.05 -4.25 -0.15 -4.2 Q-0.25 -4.1 -0.5 -4.1 L-0.65 -4.2 -1.75 -3.6 -2.0 -3.45 -3.5 -2.25 -3.9 -1.0 -4.0 -0.55 -4.15 -0.55 -4.15 0.0 -4.2 0.15 Q-4.2 1.1 -3.6 2.45 L-2.4 3.65 -1.9 3.95 -1.75 3.95 -1.2 4.35 -0.6 4.5 -0.5 4.45 -0.15 4.55 Q1.3 4.5 2.95 3.75 L3.95 2.55 4.35 1.9 4.2 1.9 Q3.85 1.9 3.75 1.45 L3.75 0.95 3.8 -0.55 3.9 -1.25 Q3.95 -1.75 4.5 -1.8 L3.95 -2.6 3.65 -2.85 M-2.65 1.0 L-2.6 1.0 -2.6 0.75 -2.65 0.7 -2.7 0.7 -2.85 0.0 -2.7 -0.6 -2.5 -1.45 -2.45 -1.45 -2.4 -1.6 -2.45 -1.75 -2.45 -1.8 -2.25 -2.35 -2.05 -2.75 -1.85 -2.9 -0.1 -3.0 0.55 -2.95 0.5 -2.85 0.55 -2.65 0.9 -2.75 1.4 -2.0 1.15 -1.35 0.85 -0.8 0.75 0.1 0.6 0.3 0.7 0.45 0.7 0.6 0.95 1.55 1.2 2.3 Q1.2 3.15 0.55 3.15 L-0.7 3.1 -1.35 3.15 -2.05 2.75 Q-2.2 2.3 -2.4 2.3 L-2.5 1.85 -2.65 1.0 M0.85 -2.4 L-0.2 -2.6 -1.4 -2.5 -1.9 -2.4 -1.9 -2.25 -1.95 -2.0 Q-1.95 -1.85 -2.1 -1.85 L-2.5 0.05 -2.2 1.7 -1.8 2.5 Q-1.5 2.95 0.3 2.8 L0.8 2.8 0.9 2.3 0.5 1.5 0.4 0.6 0.5 -0.75 0.7 -1.35 1.05 -2.0 0.85 -2.4 M4.8 -0.9 L4.65 -1.4 4.65 -1.5 4.2 -1.3 4.2 -1.0 4.05 1.4 4.1 1.45 Q4.35 1.2 4.55 1.2 L4.6 1.35 4.6 1.4 4.7 1.2 4.85 -0.05 4.8 -0.9 M1.7 6.1 L1.5 5.4 Q1.5 5.05 1.95 4.6 L1.45 4.8 0.25 5.0 -0.5 4.9 -0.55 4.9 -0.65 4.85 -1.15 4.65 -1.35 4.65 -1.25 5.2 -1.3 5.65 -1.6 6.1 -1.85 6.45 -2.2 6.6 -2.1 6.65 -1.45 6.85 -0.25 7.25 1.25 7.45 1.65 7.6 3.9 7.65 5.05 7.75 6.35 7.55 6.95 7.4 7.5 7.25 8.4 7.2 9.3 7.05 10.45 6.75 10.05 6.75 8.5 6.55 6.45 6.25 Q5.6 6.1 4.45 5.2 L4.4 5.25 4.15 5.9 Q3.75 6.5 2.7 6.5 L2.1 6.45 1.7 6.1 M-0.35 -1.7 Q-0.3 -1.4 -0.4 -1.2 L-0.45 -0.15 -0.3 1.3 -0.3 2.0 -0.8 2.05 -1.7 1.95 -1.9 1.75 -2.1 0.2 -1.95 -1.65 -1.5 -2.05 -0.9 -2.15 Q-0.4 -2.15 -0.35 -1.7 M-1.25 -1.75 L-1.65 -1.15 -1.8 0.15 -1.6 1.6 -1.0 1.7 -0.6 1.7 -0.6 1.45 -0.7 0.85 -1.1 0.85 -1.15 0.7 Q-1.05 0.45 -0.75 0.5 L-0.75 0.1 -0.75 -0.1 -1.2 -0.1 -1.25 -0.2 Q-1.25 -0.5 -0.85 -0.5 L-0.75 -0.45 -0.7 -0.95 -1.0 -0.95 -1.25 -1.0 -1.25 -1.25 -1.0 -1.3 -0.7 -1.25 -0.65 -1.55 Q-0.7 -1.8 -1.25 -1.75" fill="#000000" fill-rule="evenodd" stroke="none"/>
    <path d="M6.95 -7.05 L7.5 -6.9 8.4 -6.85 9.3 -6.7 10.45 -6.4 10.05 -6.4 8.5 -6.2 6.45 -5.9 Q5.6 -5.75 4.45 -4.85 L4.4 -4.9 4.15 -5.55 Q3.75 -6.15 2.7 -6.15 L2.1 -6.1 1.7 -5.75 1.5 -5.05 Q1.5 -4.7 1.95 -4.25 1.65 -4.3 1.45 -4.45 L0.25 -4.65 -1.3 -4.25 -1.4 -4.2 Q-1.25 -4.5 -1.25 -4.85 L-1.3 -5.3 -1.6 -5.75 -1.85 -6.1 -2.2 -6.25 -2.1 -6.3 -1.45 -6.5 -0.25 -6.9 1.25 -7.1 1.65 -7.25 3.9 -7.3 5.05 -7.4 6.35 -7.2 6.95 -7.05 M1.7 6.1 L2.1 6.45 2.7 6.5 Q3.75 6.5 4.15 5.9 L4.4 5.25 4.45 5.2 Q5.6 6.1 6.45 6.25 L8.5 6.55 10.05 6.75 10.45 6.75 9.3 7.05 8.4 7.2 7.5 7.25 6.95 7.4 6.35 7.55 5.05 7.75 3.9 7.65 1.65 7.6 1.25 7.45 -0.25 7.25 -1.45 6.85 -2.1 6.65 -2.2 6.6 -1.85 6.45 -1.6 6.1 -1.3 5.65 -1.25 5.2 -1.35 4.65 -1.15 4.65 -0.65 4.85 -0.55 4.9 -0.5 4.9 0.25 5.0 1.45 4.8 1.95 4.6 Q1.5 5.05 1.5 5.4 L1.7 6.1" fill="#333333" fill-rule="evenodd" stroke="none"/>
    <path d="M3.65 -2.85 L3.95 -2.6 4.5 -1.8 Q3.95 -1.75 3.9 -1.25 L3.8 -0.55 3.75 0.95 3.75 1.45 Q3.85 1.9 4.2 1.9 L4.35 1.9 3.95 2.55 2.95 3.75 Q1.3 4.5 -0.15 4.55 L-0.5 4.45 -0.6 4.5 -1.2 4.35 -1.75 3.95 -1.9 3.95 -2.4 3.65 -3.6 2.45 Q-4.2 1.1 -4.2 0.15 L-4.15 0.0 -4.0 0.45 -3.6 0.95 -3.45 0.95 -3.3 1.0 -2.65 1.0 -2.5 1.85 -2.4 2.3 Q-2.2 2.3 -2.05 2.75 L-1.35 3.15 -0.7 3.1 0.55 3.15 Q1.2 3.15 1.2 2.3 L0.95 1.55 0.7 0.6 0.7 0.45 0.95 0.5 1.5 0.3 1.9 0.15 2.05 0.05 3.05 -0.6 Q3.8 -1.2 3.8 -2.05 L3.65 -2.85" fill="#848484" fill-rule="evenodd" stroke="none"/>
    <path d="M0.85 -2.4 L1.05 -2.0 0.7 -1.35 0.5 -0.75 0.4 0.6 0.5 1.5 0.9 2.3 0.8 2.8 0.3 2.8 Q-1.5 2.95 -1.8 2.5 L-2.2 1.7 -2.5 0.05 -2.1 -1.85 Q-1.95 -1.85 -1.95 -2.0 L-1.9 -2.25 -1.9 -2.4 -1.4 -2.5 -0.2 -2.6 0.85 -2.4 M-0.35 -1.7 Q-0.4 -2.15 -0.9 -2.15 L-1.5 -2.05 -1.95 -1.65 -2.1 0.2 -1.9 1.75 -1.7 1.95 -0.8 2.05 -0.3 2.0 -0.3 1.3 -0.45 -0.15 -0.4 -1.2 Q-0.3 -1.4 -0.35 -1.7" fill="#b17a56" fill-rule="evenodd" stroke="none"/>
    <path d="M-1.25 -1.75 Q-0.7 -1.8 -0.65 -1.55 L-0.7 -1.25 -1.0 -1.3 -1.25 -1.25 -1.25 -1.0 -1.0 -0.95 -0.7 -0.95 -0.75 -0.45 -0.85 -0.5 Q-1.25 -0.5 -1.25 -0.2 L-1.2 -0.1 -0.75 -0.1 -0.75 0.1 -0.75 0.5 Q-1.05 0.45 -1.15 0.7 L-1.1 0.85 -0.7 0.85 -0.6 1.45 -0.6 1.7 -1.0 1.7 -1.6 1.6 -1.8 0.15 -1.65 -1.15 -1.25 -1.75" fill="#5c3f2c" fill-rule="evenodd" stroke="none"/>
    <path d="M4.8 -0.9 L4.85 -0.05 4.7 1.2 4.6 1.4 4.6 1.35 4.55 1.2 Q4.35 1.2 4.1 1.45 L4.05 1.4 4.2 -1.0 4.2 -1.3 4.65 -1.5 4.65 -1.4 4.8 -0.9" fill="#f70000" fill-rule="evenodd" stroke="none"/>
    <path d="M-4.15 0.0 L-4.15 -0.55 -4.0 -0.55 -3.9 -1.0 -3.5 -2.25 -2.0 -3.45 -1.75 -3.6 -0.65 -4.2 -0.5 -4.1 Q-0.25 -4.1 -0.15 -4.2 L0.05 -4.25 0.05 -4.3 1.75 -4.0 2.5 -3.7 2.6 -3.6 3.0 -3.35 3.05 -3.35 3.15 -3.25 3.2 -3.3 3.65 -2.85 3.8 -2.05 Q3.8 -1.2 3.05 -0.6 L2.05 0.05 1.9 0.15 1.5 0.3 0.95 0.5 0.7 0.45 0.6 0.3 0.75 0.1 0.85 -0.8 1.15 -1.35 1.4 -2.0 0.9 -2.75 1.15 -3.3 Q0.95 -4.15 -0.55 -4.0 -1.3 -3.85 -1.5 -3.55 -2.0 -3.4 -2.55 -2.85 L-3.1 -1.85 -2.85 -1.45 -2.5 -1.45 -2.7 -0.6 -2.85 0.0 -2.7 0.7 -2.65 0.7 -2.6 0.75 -2.6 1.0 -2.65 1.0 -3.3 1.0 -3.45 0.95 -3.6 0.95 -4.0 0.45 -4.15 0.0 M-2.05 -2.75 L-2.25 -2.35 -2.45 -1.8 -2.45 -1.75 -2.8 -1.8 -2.05 -2.75" fill="#c8c8c8" fill-rule="evenodd" stroke="none"/>
    <path d="M-2.5 -1.45 L-2.85 -1.45 -3.1 -1.85 -2.55 -2.85 Q-2.0 -3.4 -1.5 -3.55 -1.3 -3.85 -0.55 -4.0 0.95 -4.15 1.15 -3.3 L0.9 -2.75 0.55 -2.65 0.5 -2.85 0.55 -2.95 -0.1 -3.0 -1.85 -2.9 -2.05 -2.75 -2.8 -1.8 -2.45 -1.75 -2.4 -1.6 -2.45 -1.45 -2.5 -1.45" fill="#dddddd" fill-rule="evenodd" stroke="none"/>
  </g>
</svg>
