<?xml version="1.0" encoding="UTF-8" standalone="no"?>
<svg xmlns:xlink="http://www.w3.org/1999/xlink" height="23.4px" width="25.35px" xmlns="http://www.w3.org/2000/svg">
  <g transform="matrix(1.0, 0.0, 0.0, 1.0, -6.0, 12.7)">
    <path d="M9.55 -12.7 L9.6 -12.65 9.65 -12.65 9.7 -12.0 10.3 -6.2 10.3 -5.65 10.45 -5.5 10.5 -5.45 10.8 -4.05 11.4 -5.3 11.6 -5.1 11.6 -5.05 11.65 -5.0 11.5 -3.4 11.75 -2.4 11.8 -2.4 12.0 -2.25 11.6 -1.9 11.4 -1.85 10.5 -1.05 9.55 -0.95 9.85 -0.4 9.9 -0.4 10.8 -0.75 11.05 -0.45 11.4 -0.35 11.45 -0.1 11.55 0.0 11.55 0.05 11.6 0.1 12.05 -0.1 12.2 0.0 12.2 0.05 11.2 0.5 11.05 0.5 10.3 0.5 10.25 0.4 10.2 0.35 Q10.2 0.15 10.0 0.3 L9.8 0.95 9.7 1.35 Q9.15 1.4 9.15 0.8 L9.15 0.6 8.9 1.0 8.7 1.05 8.7 1.0 8.65 0.95 8.65 0.9 8.7 0.75 8.7 0.6 7.7 0.5 7.25 0.5 7.05 0.35 7.1 0.3 6.05 0.25 6.05 0.2 6.1 0.1 8.35 -0.2 8.2 -0.4 7.75 -0.85 7.75 -0.9 7.85 -0.95 7.9 -1.0 Q8.55 -0.65 9.2 -0.65 L9.2 -1.0 7.7 -1.45 7.8 -1.55 7.85 -1.6 7.8 -1.65 7.45 -1.85 7.5 -1.9 7.4 -2.0 6.95 -2.35 6.0 -3.0 6.05 -3.1 6.15 -3.15 7.15 -2.65 7.2 -2.6 7.8 -2.2 7.85 -2.3 Q7.4 -3.65 7.3 -4.95 L7.25 -5.3 Q7.0 -5.75 7.0 -6.25 L7.05 -6.3 7.1 -6.25 7.2 -6.25 7.2 -6.2 7.25 -6.15 7.3 -6.15 7.55 -5.3 7.95 -4.8 8.0 -4.75 7.9 -4.65 7.9 -4.6 8.4 -3.65 8.45 -3.6 8.75 -3.5 8.85 -3.7 8.8 -3.7 8.65 -3.85 9.1 -5.5 9.4 -9.05 9.45 -9.1 9.45 -9.75 9.45 -10.8 9.45 -11.25 9.5 -11.75 9.5 -12.65 9.55 -12.7 M13.8 -3.5 Q14.85 -4.1 15.5 -5.15 L15.55 -5.1 15.6 -5.2 15.7 -5.15 15.75 -5.1 15.55 -4.05 15.55 -3.95 15.6 -3.9 15.65 -3.85 15.5 -3.4 15.65 -3.45 15.75 -3.4 15.8 -3.35 16.0 -3.3 16.8 -3.75 16.95 -3.65 16.95 -3.6 16.3 -2.95 16.25 -2.9 16.25 -2.85 16.4 -2.8 16.4 -2.75 16.45 -2.65 16.45 -2.6 17.1 -2.5 17.15 -2.45 17.25 -2.4 17.3 -2.35 16.75 -1.6 19.55 -1.25 19.6 -1.25 19.65 -1.3 25.55 -0.65 25.75 -0.6 25.8 -0.65 26.0 -0.6 26.05 -0.6 26.05 -0.55 26.8 -0.4 26.8 -0.45 26.85 -0.45 26.9 -0.5 26.95 -0.5 27.05 -0.45 27.45 -0.4 29.8 -0.2 30.4 -0.3 30.55 -0.2 30.55 -0.15 31.35 -0.05 30.3 0.1 29.8 0.2 28.7 0.2 26.75 0.2 21.3 1.25 19.45 1.6 18.75 1.75 16.15 2.2 16.55 2.85 16.6 2.95 15.9 2.95 16.0 3.05 15.8 3.25 15.5 3.4 15.45 3.35 15.35 3.25 15.35 3.2 15.15 3.0 15.1 2.95 14.65 2.6 14.5 2.75 14.65 3.55 14.7 3.75 14.95 4.1 Q14.7 4.25 14.5 3.95 L14.3 4.0 14.2 4.05 13.7 3.6 12.25 2.05 12.2 1.9 Q12.35 1.4 12.95 1.2 L13.0 1.2 13.15 1.3 13.2 1.3 13.15 1.25 13.15 1.2 12.3 0.6 12.3 0.55 12.35 0.5 12.4 0.5 12.4 0.2 12.4 0.15 Q12.75 -0.35 13.2 -0.55 L12.3 -1.25 12.25 -1.25 Q12.05 -1.2 12.05 -1.35 L12.0 -1.35 Q11.95 -1.75 12.3 -2.15 L12.45 -2.3 12.55 -2.25 12.55 -2.3 12.6 -2.25 12.65 -2.25 13.85 -3.3 13.8 -3.35 13.75 -3.45 13.8 -3.5 M11.3 1.8 L11.35 1.85 11.5 1.85 11.55 1.9 11.5 2.05 12.1 3.65 12.1 3.75 12.45 4.45 12.45 4.5 12.35 4.55 12.25 4.5 11.1 2.8 10.6 4.6 10.25 7.55 10.2 8.25 10.2 8.9 10.2 9.6 10.15 9.65 9.95 9.6 9.95 9.35 9.8 9.25 9.85 9.0 9.75 8.95 9.75 9.25 9.95 10.6 9.9 10.65 9.7 10.6 9.4 8.55 9.3 8.45 8.9 4.2 7.95 6.25 7.8 6.2 8.0 5.25 7.95 5.25 Q7.8 5.3 7.75 5.15 L8.2 2.9 7.95 3.15 7.9 3.2 7.65 3.2 7.3 3.65 7.0 4.0 6.85 4.05 6.8 3.9 7.4 3.0 7.35 2.9 7.9 1.85 8.0 1.95 8.45 1.75 8.55 1.85 8.6 1.9 8.6 1.95 8.65 1.95 8.65 2.0 9.75 1.85 10.8 1.75 11.15 1.8 11.2 1.85 11.25 1.8 11.3 1.8 M12.35 2.05 L12.7 2.35 12.5 1.95 12.45 2.0 12.4 2.05 12.35 2.05" fill="#ffffff" fill-rule="evenodd" stroke="none"/>
  </g>
</svg>
