<?xml version="1.0" encoding="UTF-8" standalone="no"?>
<svg xmlns:xlink="http://www.w3.org/1999/xlink" height="3.35px" width="4.55px" xmlns="http://www.w3.org/2000/svg">
  <g transform="matrix(1.0, 0.0, 0.0, 1.0, 2.0, 1.75)">
    <path d="M2.25 -0.55 Q3.0 0.5 1.9 1.15 L0.25 1.6 Q-2.0 1.6 -2.0 -0.1 -2.0 -1.2 -1.3 -1.6 L-0.6 -1.75 1.05 -1.35 Q2.0 -0.95 2.25 -0.55 M0.65 -0.9 L-0.6 -1.35 -1.2 -1.1 Q-1.6 -0.8 -1.6 -0.1 -1.6 0.5 -0.95 0.9 L0.2 1.2 1.65 0.75 Q2.55 0.2 1.85 -0.3 L0.65 -0.9" fill="#000000" fill-rule="evenodd" stroke="none"/>
    <path d="M0.65 -0.9 L1.85 -0.3 Q2.55 0.2 1.65 0.75 L0.2 1.2 -0.95 0.9 Q-1.6 0.5 -1.6 -0.1 -1.6 -0.8 -1.2 -1.1 L-0.6 -1.35 0.65 -0.9" fill="#ffffe6" fill-rule="evenodd" stroke="none"/>
  </g>
</svg>
