<?xml version="1.0" encoding="UTF-8" standalone="no"?>
<svg xmlns:xlink="http://www.w3.org/1999/xlink" height="6.7px" width="21.2px" xmlns="http://www.w3.org/2000/svg">
  <g transform="matrix(1.0, 0.0, 0.0, 1.0, 10.65, 3.35)">
    <path d="M2.2 -1.65 L2.25 -1.55 2.35 -1.55 2.9 -1.25 4.4 -0.4 4.95 0.0 4.85 0.05 4.9 0.2 5.15 0.2 5.25 0.5 5.5 1.15 5.95 1.15 6.05 1.3 5.95 1.35 5.7 1.35 5.45 1.5 5.25 1.35 5.15 1.35 3.95 1.15 0.95 1.3 -1.35 1.25 -1.35 1.3 -1.65 1.15 -1.55 1.05 -1.6 1.0 -1.35 0.95 -0.5 0.4 -0.3 0.2 -0.05 0.2 0.1 0.15 0.1 0.05 0.05 -0.05 -0.05 -0.05 0.25 -0.4 0.9 -1.4 1.15 -1.45 1.05 -1.55 1.25 -1.95 2.2 -1.65 M0.1 0.15 L-0.9 1.0 -0.05 1.05 0.95 1.1 4.1 0.9 5.05 1.05 5.15 1.05 4.95 0.65 4.3 -0.1 3.0 -0.85 1.55 -1.65 0.4 -0.2 0.1 0.15 M6.8 0.0 L6.75 -0.45 6.35 -1.55 6.45 -1.55 6.55 -1.65 6.45 -1.75 6.25 -1.75 6.1 -2.15 1.55 -2.3 -2.95 -2.15 -2.65 -1.45 -2.75 -1.45 -2.65 -1.35 -2.6 -1.05 -2.45 0.05 -2.45 0.1 -2.45 0.5 -2.75 2.25 6.6 2.25 7.0 2.1 6.9 2.0 7.0 1.75 7.0 1.3 7.0 0.55 6.9 0.2 7.0 0.2 7.1 0.05 7.0 0.0 6.8 0.0 M1.55 -0.75 L1.6 -0.95 1.8 -1.0 1.8 -1.05 Q2.25 -1.25 2.65 -0.65 L2.65 0.0 2.55 0.05 2.6 0.2 2.6 0.25 2.45 0.3 1.9 -0.2 1.55 -0.75 M7.0 -2.15 L7.6 -1.9 8.75 -1.25 10.55 -0.05 10.55 0.0 10.45 0.0 9.9 0.65 8.85 1.3 6.6 2.5 6.55 2.45 -2.85 2.45 -2.9 2.6 -3.05 2.65 -3.2 2.6 -3.2 2.55 -3.2 2.45 -3.5 2.45 -3.6 2.35 -3.45 2.3 -3.85 2.15 -4.25 2.0 -4.45 1.85 -5.1 1.5 -5.6 1.15 -5.6 1.1 -5.95 1.3 -6.4 1.7 -6.4 1.75 -6.65 2.15 -6.65 2.35 -6.7 2.35 -6.7 2.45 -6.8 3.3 -9.75 3.35 -9.8 3.3 -9.85 3.15 -9.8 2.95 -9.85 0.3 -10.65 -0.25 -10.3 -0.55 -9.85 -0.7 -9.85 -3.3 -9.8 -3.35 -9.7 -3.3 -6.9 -3.35 -6.75 -3.35 -6.7 -3.2 -6.75 -3.15 -6.75 -3.05 -6.75 -2.45 -6.65 -2.4 -6.4 -2.25 -6.45 -2.2 -5.95 -1.55 -5.65 -1.35 -4.7 -1.9 -3.95 -2.25 -3.2 -2.35 -2.45 -2.4 6.45 -2.35 6.55 -2.3 7.0 -2.15 M9.8 0.25 L10.1 0.0 9.5 -0.5 8.65 -1.05 6.45 -2.1 7.1 -0.5 7.3 0.55 7.3 1.05 7.3 1.3 7.3 1.9 7.55 1.75 7.6 1.8 8.4 1.3 8.6 1.15 8.75 1.05 8.85 1.0 9.45 0.55 9.8 0.25 M2.65 0.9 L2.4 0.85 2.35 0.7 Q2.35 0.5 3.0 0.55 L3.0 0.65 2.65 0.9 M-6.95 0.05 L-6.9 0.05 -6.8 0.0 -6.95 -0.2 -6.95 -1.7 -7.0 -3.0 -7.0 -3.15 -9.6 -3.15 -9.6 -2.95 -9.6 -2.5 -9.6 -0.35 -9.75 -0.2 -9.7 -0.15 -9.65 -0.15 -9.6 -0.05 -9.6 0.05 -9.65 3.1 -6.95 3.1 -6.95 3.0 -6.95 2.3 -6.95 2.15 -6.95 2.0 -6.95 0.05 M-6.65 -1.9 L-6.75 -1.95 -6.75 -1.05 -6.65 -1.05 -6.6 -1.05 -6.15 -1.05 -5.95 -1.0 -5.6 -0.95 -5.95 -1.2 -6.2 -1.55 -6.55 -1.95 -6.65 -2.1 -6.65 -1.9 M-6.6 -0.7 L-6.65 -0.65 -6.65 -0.5 -6.75 -0.5 -6.75 0.45 -6.6 0.35 -6.55 0.35 -6.3 0.3 -5.95 0.4 -5.25 0.4 -5.35 -0.1 -5.25 -0.35 -5.25 -0.65 -5.35 -0.65 -5.8 -0.75 -5.95 -0.75 -6.3 -0.85 -6.55 -0.8 -6.6 -0.7 M-2.95 0.0 L-2.9 -0.25 -3.2 -1.45 -3.3 -1.55 -3.2 -1.7 -3.6 -1.9 -3.95 -1.8 -4.15 -1.85 -4.75 -1.5 -5.05 -1.25 -4.95 -1.05 -5.05 -0.9 -4.75 -0.1 -4.9 0.0 -4.75 0.4 -5.1 0.6 -5.25 0.85 -5.25 0.9 -5.45 1.05 -5.05 1.15 -4.95 1.2 -4.95 1.25 -4.5 1.6 -4.5 1.55 -3.65 1.9 -3.5 2.0 -3.2 2.15 -3.05 1.8 -2.95 1.8 -2.95 1.7 -2.9 1.6 -2.95 1.5 -2.95 0.0 M-10.35 -0.3 L-10.0 0.0 -9.85 0.1 -9.85 -0.5 -10.35 -0.3 M-5.95 0.6 L-6.45 0.6 -6.5 0.65 -6.65 0.65 -6.65 0.7 -6.65 1.0 -6.65 1.65 -6.6 1.65 -6.6 1.6 -6.55 1.5 -6.05 1.1 -5.95 1.0 -5.55 0.65 -5.8 0.6 -5.95 0.6" fill="#000000" fill-rule="evenodd" stroke="none"/>
    <path d="M-0.05 -0.05 L0.05 -0.05 0.1 0.05 0.1 0.15 -0.05 0.2 -0.3 0.2 -0.5 0.4 -1.35 0.95 -1.6 1.0 -1.55 1.05 -1.65 1.15 -1.35 1.3 -1.35 1.25 0.95 1.3 3.95 1.15 5.15 1.35 5.25 1.35 5.45 1.5 5.7 1.35 5.95 1.35 6.05 1.3 5.95 1.15 5.5 1.15 5.25 0.5 5.15 0.2 4.9 0.2 4.85 0.05 4.95 0.0 6.8 0.0 7.0 0.0 7.1 0.05 7.0 0.2 6.9 0.2 7.0 0.55 7.0 1.3 7.0 1.75 6.9 2.0 7.0 2.1 6.6 2.25 -2.75 2.25 -2.45 0.5 -2.45 0.1 -2.45 0.05 -2.3 -0.05 -0.05 -0.05 M-9.6 -0.05 L-9.3 0.0 -9.25 0.0 -8.95 0.15 -8.15 0.0 -7.2 0.0 -6.95 0.05 -6.95 2.0 -6.95 2.15 -6.95 2.3 -6.95 3.0 -6.95 3.1 -9.65 3.1 -9.6 0.05 -9.6 -0.05" fill="#333333" fill-rule="evenodd" stroke="none"/>
    <path d="M4.95 0.0 L4.4 -0.4 2.9 -1.25 2.35 -1.55 2.25 -1.55 2.2 -1.65 2.45 -1.75 3.25 -1.85 4.85 -1.8 6.25 -1.75 6.45 -1.75 6.55 -1.65 6.45 -1.55 6.35 -1.55 6.75 -0.45 6.8 0.0 4.95 0.0 M1.05 -1.55 L1.15 -1.45 0.9 -1.4 0.25 -0.4 -0.05 -0.05 -2.3 -0.05 -2.45 0.05 -2.6 -1.05 -2.65 -1.35 -2.75 -1.45 -2.65 -1.45 -2.3 -1.6 -0.8 -1.5 0.1 -1.45 0.75 -1.65 1.05 -1.55 M-9.15 -2.9 L-9.55 -2.6 -9.2 -2.5 -9.1 -2.4 -7.7 -2.35 -7.5 -2.5 -7.35 -2.5 Q-7.2 -2.5 -7.1 -2.65 L-8.15 -2.95 -9.15 -2.9 M-9.6 -0.05 L-9.65 -0.15 -9.7 -0.15 -9.75 -0.2 -9.6 -0.35 -9.6 -2.5 -9.6 -2.95 -9.6 -3.15 -7.0 -3.15 -7.0 -3.0 -6.95 -1.7 -6.95 -0.2 -6.8 0.0 -6.9 0.05 -6.95 0.05 -7.2 0.0 -8.15 0.0 -8.95 0.15 -9.25 0.0 -9.3 0.0 -9.6 -0.05" fill="#666666" fill-rule="evenodd" stroke="none"/>
    <path d="M2.2 -1.65 L1.25 -1.95 1.05 -1.55 0.75 -1.65 0.1 -1.45 -0.8 -1.5 -2.3 -1.6 -2.65 -1.45 -2.95 -2.15 1.55 -2.3 6.1 -2.15 6.25 -1.75 4.85 -1.8 3.25 -1.85 2.45 -1.75 2.2 -1.65 M-9.15 -2.9 L-8.15 -2.95 -7.1 -2.65 Q-7.2 -2.5 -7.35 -2.5 L-7.5 -2.5 -7.7 -2.35 -9.1 -2.4 -9.2 -2.5 -9.55 -2.6 -9.15 -2.9" fill="#c4c4c4" fill-rule="evenodd" stroke="none"/>
    <path d="M7.3 1.05 L7.3 0.55 7.1 -0.5 6.45 -2.1 8.65 -1.05 9.5 -0.5 10.1 0.0 9.8 0.25 9.8 0.05 9.75 0.0 8.85 0.1 8.25 0.25 8.1 0.25 7.9 0.2 7.55 0.25 7.3 0.45 7.85 0.6 7.85 0.65 7.45 0.85 7.3 1.05 7.55 1.15 7.55 1.25 7.6 1.45 7.45 1.7 7.55 1.75 7.3 1.9 7.3 1.3 7.3 1.05 M-4.75 -0.1 L-5.05 -0.9 -4.95 -1.05 -5.05 -1.25 -4.75 -1.5 -4.15 -1.85 -3.95 -1.8 -3.6 -1.9 -3.2 -1.7 -3.3 -1.55 -3.2 -1.45 -2.9 -0.25 -2.95 0.0 -2.95 -0.25 -3.95 -0.25 -4.75 -0.1 M-2.95 1.5 L-2.9 1.6 -2.95 1.7 -2.95 1.5 M-3.05 1.8 L-3.2 2.15 -3.5 2.0 -3.65 1.9 -3.45 1.9 -3.05 1.8 M-4.5 1.55 L-4.5 1.6 -4.95 1.25 -4.95 1.2 -4.7 1.45 -4.5 1.55 M-5.05 1.15 L-5.45 1.05 -5.25 0.9 -5.05 1.15" fill="#cc2222" fill-rule="evenodd" stroke="none"/>
    <path d="M7.3 1.05 L7.45 0.85 7.85 0.65 7.85 0.6 7.3 0.45 7.55 0.25 7.9 0.2 8.1 0.25 8.25 0.25 8.85 0.1 9.75 0.0 9.8 0.05 9.8 0.25 9.45 0.55 8.85 1.0 8.75 1.05 8.6 1.15 8.4 1.3 7.6 1.8 7.55 1.75 7.45 1.7 7.6 1.45 7.55 1.25 7.55 1.15 7.3 1.05 M-2.95 0.0 L-2.95 1.5 -2.95 1.7 -2.95 1.8 -3.05 1.8 -3.45 1.9 -3.65 1.9 -4.5 1.55 -4.7 1.45 -4.95 1.2 -5.05 1.15 -5.25 0.9 -5.25 0.85 -5.1 0.6 -4.75 0.4 -4.9 0.0 -4.75 -0.1 -3.95 -0.25 -2.95 -0.25 -2.95 0.0" fill="#5f1010" fill-rule="evenodd" stroke="none"/>
    <path d="M-6.6 -0.7 L-6.55 -0.8 -6.3 -0.85 -5.95 -0.75 -5.8 -0.75 -5.35 -0.65 -5.25 -0.65 -5.25 -0.35 -5.35 -0.1 -5.25 0.4 -5.95 0.4 -6.3 0.3 -6.55 0.35 -6.6 0.35 -6.75 0.45 -6.75 -0.5 -6.65 -0.5 -6.65 -0.65 -6.6 -0.7 M-6.65 -1.9 L-6.65 -2.1 -6.55 -1.95 -6.2 -1.55 -5.95 -1.2 -5.6 -0.95 -5.95 -1.0 -6.15 -1.05 -6.6 -1.05 -6.65 -1.05 -6.75 -1.05 -6.75 -1.95 -6.65 -1.9 M-10.35 -0.3 L-9.85 -0.5 -9.85 0.1 -10.0 0.0 -10.35 -0.3 M-5.95 0.6 L-5.8 0.6 -5.55 0.65 -5.95 1.0 -6.05 1.1 -6.55 1.5 -6.6 1.6 -6.6 1.65 -6.65 1.65 -6.65 1.0 -6.65 0.7 -6.65 0.65 -6.5 0.65 -6.45 0.6 -5.95 0.6" fill="#bbbb00" fill-rule="evenodd" stroke="none"/>
    <path d="M0.1 0.15 L0.4 -0.2 1.55 -1.65 3.0 -0.85 4.3 -0.1 4.95 0.65 5.15 1.05 5.05 1.05 4.1 0.9 0.95 1.1 -0.05 1.05 -0.9 1.0 0.1 0.15 M1.55 -0.75 L1.9 -0.2 2.45 0.3 2.6 0.25 2.6 0.2 2.55 0.05 2.65 0.0 2.65 -0.65 Q2.25 -1.25 1.8 -1.05 L1.8 -1.0 1.6 -0.95 1.55 -0.75 M2.65 0.9 L3.0 0.65 3.0 0.55 Q2.35 0.5 2.35 0.7 L2.4 0.85 2.65 0.9" fill="#eeee00" fill-rule="evenodd" stroke="none"/>
  </g>
</svg>
