<?xml version="1.0" encoding="UTF-8" standalone="no"?>
<svg xmlns:xlink="http://www.w3.org/1999/xlink" height="2.6px" width="17.5px" xmlns="http://www.w3.org/2000/svg">
  <g transform="matrix(1.0, 0.0, 0.0, 1.0, 16.0, 1.3)">
    <path d="M-15.9 -1.1 L-15.9 -1.3 -14.0 -1.25 -14.05 -1.3 -13.0 -0.75 -12.55 -0.2 -12.5 -0.25 -12.35 -0.05 -8.85 -0.05 -8.8 -0.1 -1.2 -0.1 -1.15 0.05 -2.25 0.3 -8.45 0.25 -12.55 0.25 -12.8 0.5 -13.1 0.9 -13.1 0.95 -13.2 1.1 -15.4 1.3 -15.7 1.2 -15.8 1.3 -16.0 1.05 -14.95 0.15 -15.4 -0.3 Q-15.8 -0.7 -15.7 -1.0 L-15.65 -1.0 -15.7 -1.0 -15.9 -1.1 M-13.25 -0.35 L-13.8 -0.9 -14.45 -0.85 -15.15 -0.9 -15.05 -0.6 -14.65 0.05 -12.9 -0.05 -13.25 -0.35 M-13.05 0.3 L-13.0 0.25 -13.05 0.25 -14.65 0.25 -15.4 0.9 -13.6 0.8 -13.45 0.6 -13.05 0.3" fill="#000000" fill-rule="evenodd" stroke="none"/>
    <path d="M-13.25 -0.35 L-12.9 -0.05 -14.65 0.05 -15.05 -0.6 -15.15 -0.9 -14.45 -0.85 -13.8 -0.9 -13.25 -0.35 M-13.05 0.25 L-13.05 0.3 -13.45 0.6 -13.6 0.8 -15.4 0.9 -14.65 0.25 -13.05 0.25" fill="#00cc00" fill-rule="evenodd" stroke="none"/>
    <path d="M-2.1 -0.3 L-1.9 -0.4 Q-1.6 -0.4 -1.25 -0.7 L-0.65 -0.85 1.15 -0.9 Q1.5 -0.75 1.5 -0.25 1.5 0.4 0.65 0.55 L-0.6 0.85 -1.45 0.6 -1.4 0.6 -1.25 0.6 -1.15 0.6 -0.9 0.6 -0.45 0.6 0.0 0.45 0.25 0.05 0.1 -0.25 Q0.1 -0.6 -0.4 -0.55 -0.8 -0.5 -0.85 -0.25 L-0.9 -0.25 Q-0.9 -0.65 -1.3 -0.55 L-1.7 -0.2 -2.1 -0.3" fill="#ffffff" fill-rule="evenodd" stroke="none"/>
    <path d="M-1.45 0.6 Q-2.25 0.6 -2.35 0.15 L-2.4 0.05 -2.35 -0.3 -2.1 -0.3 -1.7 -0.2 -1.3 -0.55 Q-0.9 -0.65 -0.9 -0.25 L-0.85 -0.25 Q-0.8 -0.5 -0.4 -0.55 0.1 -0.6 0.1 -0.25 L0.25 0.05 0.0 0.45 -0.45 0.6 -0.9 0.6 -1.15 0.6 -1.25 0.6 -1.4 0.6 -1.45 0.6" fill="#eaea04" fill-rule="evenodd" stroke="none"/>
  </g>
</svg>
