<?xml version="1.0" encoding="UTF-8" standalone="no"?>
<svg xmlns:xlink="http://www.w3.org/1999/xlink" height="5.65px" width="5.7px" xmlns="http://www.w3.org/2000/svg">
  <g transform="matrix(1.0, 0.0, 0.0, 1.0, 2.7, 2.9)">
    <path d="M1.95 -1.9 L1.75 -2.05 1.7 -2.1 0.4 -2.65 0.15 -2.7 0.15 -2.6 -0.1 -2.6 -0.3 -2.5 -0.95 -2.25 -1.75 -1.65 -1.75 -1.6 -1.85 -1.55 -2.5 -0.25 -2.5 -0.2 -2.45 -0.15 -2.5 0.1 -2.3 0.7 -1.9 1.45 -1.3 2.05 -0.75 2.3 0.0 2.4 Q1.0 2.4 2.35 1.5 L2.6 0.85 2.8 0.15 2.8 0.1 2.6 0.0 2.6 -0.2 2.8 -0.2 2.35 -1.4 2.05 -1.8 1.95 -1.9 M2.15 -1.95 L2.55 -1.55 2.9 -0.65 3.0 0.15 2.9 1.0 2.7 1.3 2.5 1.7 1.55 2.25 1.15 2.5 0.1 2.65 -0.15 2.75 -0.15 2.65 -0.75 2.5 Q-1.15 2.3 -1.55 2.15 L-1.75 1.95 -1.85 2.0 -2.0 1.9 -2.0 1.7 -2.1 1.55 -2.65 0.15 -2.7 0.15 -2.7 -0.05 -2.7 -0.25 Q-2.6 -1.05 -1.95 -1.8 L-1.05 -2.5 -0.95 -2.55 -0.95 -2.65 -0.8 -2.65 -0.8 -2.7 -0.2 -2.85 -0.1 -2.85 0.25 -2.9 1.05 -2.65 1.75 -2.35 1.9 -2.2 2.15 -2.1 2.15 -1.95" fill="#000000" fill-rule="evenodd" stroke="none"/>
    <path d="M1.95 -1.9 L2.05 -1.8 2.35 -1.4 2.8 -0.2 2.6 -0.2 2.6 0.0 2.8 0.1 2.8 0.15 2.6 0.85 2.35 1.5 Q1.0 2.4 0.0 2.4 L-0.75 2.3 -1.3 2.05 -1.9 1.45 -2.3 0.7 -2.5 0.1 -2.45 -0.15 -2.5 -0.2 -2.5 -0.25 -1.85 -1.55 -1.75 -1.6 -1.75 -1.65 -0.95 -2.25 -0.3 -2.5 -0.1 -2.6 0.15 -2.6 0.15 -2.7 0.4 -2.65 1.7 -2.1 1.75 -2.05 1.95 -1.9 M1.25 -2.0 Q0.8 -2.4 0.15 -2.4 L-1.05 -2.1 -1.6 -1.55 Q-2.05 -1.15 -2.05 -0.45 L-2.0 -0.1 -1.9 0.25 -1.7 0.4 -1.5 0.6 -0.85 0.75 0.45 0.5 1.0 0.1 1.5 -0.35 1.65 -1.0 Q1.65 -1.6 1.25 -2.0" fill="#990000" fill-rule="evenodd" stroke="none"/>
    <path d="M1.25 -2.0 Q1.65 -1.6 1.65 -1.0 L1.5 -0.35 1.0 0.1 0.45 0.5 -0.85 0.75 -1.5 0.6 -1.7 0.4 -1.9 0.25 -2.0 -0.1 -2.05 -0.45 Q-2.05 -1.15 -1.6 -1.55 L-1.05 -2.1 0.15 -2.4 Q0.8 -2.4 1.25 -2.0 M0.25 -1.25 L0.05 -1.55 Q-0.1 -1.7 -0.3 -1.7 -0.9 -1.7 -0.9 -1.2 L-0.45 -0.8 Q0.25 -0.8 0.25 -1.25" fill="#d54444" fill-rule="evenodd" stroke="none"/>
    <path d="M0.25 -1.25 Q0.25 -0.8 -0.45 -0.8 L-0.9 -1.2 Q-0.9 -1.7 -0.3 -1.7 -0.1 -1.7 0.05 -1.55 L0.25 -1.25" fill="#eac8c8" fill-rule="evenodd" stroke="none"/>
  </g>
</svg>
