<?xml version="1.0" encoding="UTF-8" standalone="no"?>
<svg xmlns:xlink="http://www.w3.org/1999/xlink" height="6.45px" width="27.25px" xmlns="http://www.w3.org/2000/svg">
  <g transform="matrix(1.0, 0.0, 0.0, 1.0, 27.0, 3.6)">
    <path d="M-14.55 -0.95 L-14.55 0.85 -27.0 0.85 -27.0 -0.95 -14.55 -0.95" fill="url(#gradient0)" fill-rule="evenodd" stroke="none"/>
    <path d="M0.2 -0.35 L0.25 -0.2 0.0 0.1 -0.3 0.3 -0.95 0.8 -1.75 1.1 -2.45 1.3 -2.5 1.45 -9.95 1.45 -10.2 1.7 -10.75 2.15 -11.25 2.45 -12.1 2.8 -12.45 2.8 -12.45 2.7 -13.0 2.8 -13.6 2.85 -15.3 2.8 -15.35 2.65 -15.3 2.65 -15.35 2.55 -14.7 1.65 Q-14.45 1.55 -14.45 1.15 L-15.0 1.0 -15.0 0.65 -14.95 0.65 -15.0 0.2 -15.0 -0.15 -15.15 -0.15 -15.15 -0.45 -15.0 -0.5 -15.0 -1.05 -15.05 -1.05 -15.1 -1.2 -14.4 -1.4 -14.65 -2.25 -15.1 -3.2 -15.0 -3.4 -15.0 -3.6 -14.65 -3.6 -14.25 -3.5 -12.9 -3.55 -12.15 -3.45 -12.1 -3.4 -11.65 -3.1 -11.1 -2.55 -10.6 -1.95 -10.4 -1.7 -4.8 -1.7 -4.55 -1.75 -4.5 -1.7 -3.15 -1.7 -2.45 -1.65 -1.35 -1.2 -0.35 -0.7 -0.25 -0.5 0.05 -0.35 0.05 -0.3 0.2 -0.35 M-14.75 -3.2 L-14.1 -1.75 -14.1 -1.45 -13.0 -1.65 -13.0 -1.7 -10.85 -1.7 -11.35 -2.35 Q-12.0 -3.0 -12.35 -3.15 L-13.15 -3.15 -14.75 -3.2 M-13.65 -0.45 L-12.95 -0.4 -12.95 -1.3 -14.55 -1.05 -14.75 -1.05 -14.7 -0.55 -14.65 -0.55 -14.1 -0.5 -14.1 -0.45 -13.65 -0.45 M-14.5 -0.1 L-14.7 -0.1 -14.7 -0.05 -14.6 0.45 -14.45 0.75 -14.1 0.85 -14.05 0.85 -14.05 0.9 -13.75 1.0 -12.85 1.2 -12.95 -0.05 -13.5 -0.05 -13.5 -0.1 Q-13.55 -0.3 -13.85 -0.3 L-14.35 -0.3 -14.5 -0.1 M-11.3 -0.45 L-10.45 -0.25 -10.4 -0.05 -11.55 0.0 -12.65 -0.05 -12.6 1.05 -10.05 1.1 -10.0 1.05 -9.95 1.1 -4.85 1.15 -5.0 -0.75 -4.95 -1.4 -12.7 -1.35 -12.65 -0.35 -12.45 -0.35 -11.3 -0.45 M-4.7 -1.2 L-4.7 -0.75 -4.5 1.15 -3.85 1.15 -3.9 0.45 -3.95 -0.4 -3.8 -1.4 -4.6 -1.4 -4.7 -1.2 M-3.6 -0.95 L-3.6 -0.4 -3.45 1.15 -3.05 1.15 -2.35 0.9 -1.2 0.5 -0.5 0.05 -0.3 -0.1 -0.45 -0.2 -0.65 -0.5 -1.1 -0.65 -1.5 -0.9 -2.3 -1.25 -2.9 -1.4 -3.45 -1.4 -3.6 -0.95 M-11.9 2.3 Q-11.5 2.3 -11.1 1.9 -10.8 1.9 -10.65 1.7 L-10.5 1.45 -12.3 1.45 -12.65 1.6 -13.4 1.45 -13.65 1.4 -14.0 1.3 -14.1 1.25 -14.2 1.45 -14.5 1.9 -14.75 2.4 -14.75 2.45 -13.7 2.5 -13.0 2.4 -12.25 2.4 -11.9 2.3" fill="#000000" fill-rule="evenodd" stroke="none"/>
    <path d="M-11.3 -0.45 L-12.45 -0.35 -12.65 -0.35 -12.7 -1.35 -4.95 -1.4 -5.0 -0.75 -4.85 1.15 -9.95 1.1 -10.0 1.05 -10.05 1.1 -12.6 1.05 -12.65 -0.05 -11.55 0.0 -10.4 -0.05 -10.45 -0.25 -11.3 -0.45 M-10.35 -0.45 L-10.3 -0.3 -9.7 -0.25 Q-9.75 0.05 -9.45 0.05 L-9.15 0.0 -9.05 0.0 -6.55 0.05 -5.35 -0.05 -5.5 -0.6 -5.85 -0.75 -7.4 -0.8 -9.15 -0.75 Q-10.35 -0.7 -10.35 -0.45" fill="#465544" fill-rule="evenodd" stroke="none"/>
    <path d="M-14.1 -0.5 L-14.65 -0.55 -14.7 -0.55 -14.75 -1.05 -14.55 -1.05 -12.95 -1.3 -12.95 -0.4 -13.65 -0.45 -13.65 -0.5 -13.85 -0.75 -14.15 -0.6 -14.1 -0.5 M-14.75 -3.2 L-13.15 -3.15 -12.35 -3.15 Q-12.0 -3.0 -11.35 -2.35 L-10.85 -1.7 -13.0 -1.7 -13.0 -1.65 -14.1 -1.45 -14.1 -1.75 -14.75 -3.2 M-13.5 -0.05 L-12.95 -0.05 -12.85 1.2 -13.75 1.0 -14.05 0.9 -14.05 0.85 -14.1 0.85 -14.45 0.75 -14.6 0.45 -14.7 -0.05 -14.7 -0.1 -14.5 -0.1 -14.5 -0.05 -14.45 0.1 -13.85 0.05 Q-13.5 0.1 -13.5 -0.05 M-3.05 -0.8 L-3.2 -0.45 -2.95 -0.05 -2.05 0.0 -1.6 -0.15 -1.25 -0.25 -1.25 -0.3 -1.35 -0.4 -1.6 -0.55 -2.0 -0.35 Q-2.25 -0.35 -2.7 -0.9 L-3.05 -0.8 M-11.9 2.3 L-12.25 2.4 -13.0 2.4 -13.7 2.5 -14.75 2.45 -14.75 2.4 -14.5 1.9 -14.2 1.45 -14.1 1.25 -14.0 1.3 -13.65 1.4 -13.4 1.45 -12.65 1.6 -12.3 1.45 -10.5 1.45 -10.65 1.7 Q-10.8 1.9 -11.1 1.9 -11.5 2.3 -11.9 2.3 M-3.6 -0.95 L-3.45 -1.4 -2.9 -1.4 -2.3 -1.25 -1.5 -0.9 -1.1 -0.65 -0.65 -0.5 -0.45 -0.2 -0.3 -0.1 -0.5 0.05 -1.2 0.5 -2.35 0.9 -3.05 1.15 -3.45 1.15 -3.6 -0.4 -3.6 -0.95" fill="#603939" fill-rule="evenodd" stroke="none"/>
    <path d="M-4.0 -1.3 L-4.4 -1.3 -4.4 -1.25 -4.6 -1.0 -4.45 -0.55 -4.5 -0.3 -4.45 0.0 -4.4 0.0 -4.4 0.05 -4.15 0.0 -4.1 -0.8 -3.95 -1.15 -4.0 -1.3 M-4.7 -1.2 L-4.6 -1.4 -3.8 -1.4 -3.95 -0.4 -3.9 0.45 -3.85 1.15 -4.5 1.15 -4.7 -0.75 -4.7 -1.2" fill="#7e7e1b" fill-rule="evenodd" stroke="none"/>
    <path d="M-4.0 -1.3 L-3.95 -1.15 -4.1 -0.8 -4.15 0.0 -4.4 0.05 -4.4 0.0 -4.45 0.0 -4.5 -0.3 -4.45 -0.55 -4.6 -1.0 -4.4 -1.25 -4.4 -1.3 -4.0 -1.3" fill="#d7d642" fill-rule="evenodd" stroke="none"/>
    <path d="M-10.35 -0.45 Q-10.35 -0.7 -9.15 -0.75 L-7.4 -0.8 -5.85 -0.75 -5.5 -0.6 -5.35 -0.05 -6.55 0.05 -9.05 0.0 -9.15 0.0 -9.45 0.05 Q-9.75 0.05 -9.7 -0.25 L-10.3 -0.3 -10.35 -0.45" fill="#8a9b86" fill-rule="evenodd" stroke="none"/>
    <path d="M-14.1 -0.5 L-14.15 -0.6 -13.85 -0.75 -13.65 -0.5 -13.65 -0.45 -14.1 -0.45 -14.1 -0.5 M-13.5 -0.05 Q-13.5 0.1 -13.85 0.05 L-14.45 0.1 -14.5 -0.05 -14.5 -0.1 -14.35 -0.3 -13.85 -0.3 Q-13.55 -0.3 -13.5 -0.1 L-13.5 -0.05 M-3.05 -0.8 L-2.7 -0.9 Q-2.25 -0.35 -2.0 -0.35 L-1.6 -0.55 -1.35 -0.4 -1.25 -0.3 -1.25 -0.25 -1.6 -0.15 -2.05 0.0 -2.95 -0.05 -3.2 -0.45 -3.05 -0.8" fill="#af7272" fill-rule="evenodd" stroke="none"/>
  </g>
  <defs>
    <linearGradient gradientTransform="matrix(0.0076, 0.0, 0.0, 0.0011, -20.8, -0.05)" gradientUnits="userSpaceOnUse" id="gradient0" spreadMethod="pad" x1="-819.2" x2="819.2">
      <stop offset="0.0" stop-color="#ff8409" stop-opacity="0.0"/>
      <stop offset="0.5019607843137255" stop-color="#f7ac00" stop-opacity="0.7921569"/>
      <stop offset="0.8156862745098039" stop-color="#fdfd24"/>
    </linearGradient>
  </defs>
</svg>
