<?xml version="1.0" encoding="UTF-8" standalone="no"?>
<svg xmlns:xlink="http://www.w3.org/1999/xlink" height="32.3px" width="32.1px" xmlns="http://www.w3.org/2000/svg">
  <g transform="matrix(1.0, 0.0, 0.0, 1.0, -0.6, -0.3)">
    <path d="M29.4 0.4 Q29.85 0.1 29.85 0.7 L29.7 1.1 29.6 1.25 29.05 2.1 28.6 1.8 28.6 1.45 28.85 0.8 Q28.9 0.35 29.3 0.35 L29.4 0.4 M1.25 2.6 Q0.8 2.6 0.7 2.2 L0.7 1.7 Q0.7 1.15 1.45 0.65 2.2 0.2 2.2 0.95 L1.25 2.6 M1.85 29.35 L1.55 29.85 1.0 30.25 Q0.6 30.25 0.6 29.8 0.6 29.5 0.9 29.25 1.3 28.9 1.8 29.1 L1.85 29.35 M29.95 29.35 L29.8 29.95 29.4 30.25 Q28.95 30.25 28.95 29.8 28.95 29.4 29.45 29.0 29.95 28.55 29.95 29.35" fill="#ff6666" fill-rule="evenodd" stroke="none"/>
    <path d="M32.7 3.95 L32.7 4.35 31.45 4.6 Q30.2 4.6 30.2 4.2 30.2 3.9 30.7 3.65 L31.35 2.95 Q31.15 2.6 31.45 2.15 31.8 1.75 32.3 1.95 L32.7 3.95 M3.9 2.1 Q4.2 1.65 4.2 2.5 4.2 4.6 2.45 4.6 L2.05 4.55 Q1.95 4.05 2.1 3.9 L1.7 3.5 Q1.7 3.05 3.35 3.05 L3.9 2.1 M3.6 30.35 Q3.7 30.0 4.3 30.1 L4.35 32.05 Q4.25 32.6 3.75 32.6 L1.6 32.45 Q1.45 32.4 1.45 32.15 2.65 30.7 3.6 30.85 L3.6 30.35 M32.25 32.5 L31.25 32.5 30.25 32.5 29.85 32.05 30.05 31.8 31.3 31.25 31.2 30.65 Q31.2 30.25 31.55 29.8 31.95 29.25 32.25 29.95 L32.45 31.75 32.25 32.5" fill="#660000" fill-rule="evenodd" stroke="none"/>
    <path d="M12.2 29.85 L11.7 29.85 11.6 29.25 11.3 29.0 11.2 29.0 11.05 28.8 11.05 28.5 11.15 27.05 10.6 25.85 Q10.6 24.75 11.3 23.7 L11.3 23.35 11.2 23.25 11.3 22.9 11.3 22.7 11.3 22.6 11.3 21.85 11.3 21.05 11.2 20.2 11.3 18.55 11.4 17.25 11.6 16.4 11.7 15.7 11.8 15.3 11.85 15.1 Q11.7 15.2 11.7 15.4 L10.95 16.4 10.6 16.95 10.4 16.9 10.4 16.7 11.05 14.5 11.7 12.55 11.6 12.55 11.4 12.55 11.3 12.7 10.85 12.8 10.65 12.8 10.65 12.7 11.3 11.5 Q11.85 10.3 12.15 10.05 L11.95 10.05 11.7 10.05 Q11.2 10.3 11.2 10.7 L10.4 11.8 10.3 12.0 9.4 11.5 Q9.1 11.5 9.1 11.35 9.1 10.95 10.0 10.05 L11.15 8.85 10.1 8.3 Q9.45 8.1 9.45 7.75 9.45 6.6 11.6 7.75 L11.95 7.45 11.7 7.25 11.4 6.9 Q11.4 6.8 11.7 6.8 L11.95 6.45 11.95 5.9 Q12.05 5.35 12.5 5.9 L12.7 6.15 13.0 5.6 14.2 4.6 18.7 4.7 19.55 5.4 Q19.65 5.15 20.35 5.8 20.65 5.8 20.75 6.8 L20.65 7.0 20.75 7.2 21.1 7.8 21.0 7.9 20.95 8.1 20.75 7.9 20.35 7.8 20.35 7.9 20.45 8.1 20.45 8.3 20.45 8.45 20.35 8.55 20.35 8.75 20.3 8.85 20.75 9.1 21.2 9.5 21.3 9.75 21.5 10.5 21.65 11.15 21.55 11.45 21.0 11.5 21.3 12.45 21.4 13.9 21.4 14.1 21.2 14.2 21.0 14.1 20.85 14.0 20.85 14.65 20.65 15.2 21.2 16.15 21.65 17.25 21.5 17.55 21.3 17.45 21.2 17.35 21.3 17.7 21.0 18.0 20.75 19.1 20.75 19.35 20.45 20.2 20.55 20.85 20.65 21.5 20.75 21.6 20.65 22.05 20.65 22.25 20.55 22.5 20.55 22.6 20.55 22.8 20.95 24.1 21.1 24.75 20.75 25.45 20.75 27.15 20.75 27.95 20.65 28.8 20.65 29.1 20.65 29.85 20.3 29.85 20.3 29.8 19.35 29.0 18.7 28.35 18.5 27.95 17.8 28.45 17.9 29.65 17.9 29.85 17.5 29.85 17.5 28.6 17.4 28.6 17.3 28.35 17.4 28.25 17.15 27.4 16.95 26.75 16.7 26.75 16.7 26.65 16.05 26.65 15.75 26.75 15.75 27.05 15.65 27.95 15.55 29.55 15.65 29.85 15.3 29.85 15.3 28.45 15.4 26.75 15.3 26.3 14.75 25.2 14.55 24.85 14.45 24.65 14.2 24.1 14.1 23.7 14.1 23.65 14.2 23.25 14.25 23.35 14.35 23.25 14.35 23.15 14.75 22.4 15.3 20.95 15.4 20.75 15.55 19.65 15.45 18.75 15.3 17.9 15.55 16.95 16.05 15.95 16.05 15.05 Q15.85 14.2 15.2 14.1 14.0 13.9 13.45 14.5 L13.35 14.5 13.25 14.55 12.9 15.1 12.9 16.15 12.9 16.7 13.0 16.8 13.05 17.05 12.9 17.35 13.0 17.55 12.9 17.45 12.9 17.55 12.6 18.0 12.8 18.45 12.9 18.8 12.9 18.9 13.0 19.45 12.8 19.75 12.6 20.0 12.35 21.05 12.25 22.5 12.25 23.55 12.25 23.65 11.95 23.8 12.15 24.0 12.35 24.2 12.25 24.35 12.15 24.65 12.35 24.9 12.45 25.2 12.45 25.3 12.45 25.4 12.35 25.55 12.35 25.75 12.35 26.5 12.35 26.95 Q12.35 27.3 13.45 29.65 L13.55 29.85 13.25 29.85 13.15 29.7 12.45 28.35 12.15 27.5 12.05 27.6 12.05 27.7 11.95 27.95 11.85 28.35 11.95 28.7 12.05 29.25 12.2 29.85 M20.35 6.55 L20.2 6.25 19.8 6.0 19.55 5.9 19.35 5.9 16.75 6.25 14.9 6.8 12.45 7.75 12.25 7.75 12.25 7.8 12.05 8.45 11.85 9.1 11.95 9.1 Q13.15 8.55 14.45 8.2 14.55 7.75 15.45 7.8 L20.1 6.8 20.35 6.7 20.35 6.55 M20.3 7.2 L20.2 7.2 16.7 7.8 17.3 8.0 17.5 8.1 17.8 8.1 17.95 8.1 18.05 7.9 18.45 8.1 18.8 8.45 19.1 8.75 19.35 8.95 19.55 8.4 19.75 8.0 19.75 7.9 19.65 7.8 19.75 7.75 19.75 7.65 19.8 7.75 20.2 7.35 20.35 7.45 20.45 7.45 20.35 7.25 20.3 7.2 M20.65 11.8 L20.0 11.8 18.35 11.5 16.5 11.15 Q16.1 11.05 15.85 10.8 L15.75 10.6 15.65 10.4 15.65 10.15 15.3 9.1 15.1 8.55 14.85 8.45 12.05 9.5 11.95 9.75 12.35 9.85 12.6 9.95 12.05 10.8 11.3 12.15 11.3 12.25 Q11.3 12.15 11.6 12.05 L11.95 12.05 12.25 12.15 12.25 12.35 11.7 13.65 11.3 14.5 11.05 15.6 11.6 14.95 11.7 14.75 11.8 14.65 11.8 14.5 11.95 14.3 12.35 13.55 12.35 13.45 12.45 13.45 12.5 13.3 12.6 13.3 12.6 13.35 13.35 13.35 13.45 13.3 13.45 13.35 13.8 13.35 15.1 13.45 16.1 14.1 Q16.75 14.5 17.15 15.6 L17.6 16.3 18.05 17.55 18.15 17.05 18.15 16.9 18.05 16.3 18.15 16.3 18.15 16.25 18.25 16.3 18.9 18.1 19.1 17.55 19.8 19.55 20.2 20.85 20.2 20.2 20.2 19.75 20.3 19.3 20.35 18.75 20.45 18.35 20.35 18.15 20.35 18.0 20.35 17.8 20.55 17.7 20.45 17.55 20.65 17.35 20.75 17.35 20.85 17.45 20.75 17.05 20.65 16.9 20.85 16.6 21.0 16.7 20.45 15.7 20.3 15.4 19.65 14.55 19.75 14.5 19.8 14.4 20.0 14.5 20.0 14.4 20.1 14.4 20.2 14.5 20.2 14.55 20.35 14.55 20.45 14.65 20.45 13.85 20.45 13.65 20.65 13.45 20.85 13.55 20.95 13.65 21.0 13.35 20.95 13.0 20.85 12.7 20.75 11.9 20.65 11.8 M20.95 11.25 Q21.3 11.15 21.3 11.05 21.3 10.05 20.65 9.4 L20.35 9.2 20.1 9.1 20.0 8.95 19.9 8.95 19.8 8.85 19.8 8.75 19.9 8.55 19.9 8.45 19.75 8.85 19.75 9.2 19.45 9.5 18.9 9.0 18.15 8.4 18.05 8.65 17.9 8.85 17.6 8.65 17.6 8.45 15.95 8.2 15.55 8.2 15.3 8.3 15.3 8.4 15.65 9.1 15.95 10.05 16.2 10.5 Q16.4 10.8 17.05 10.95 L18.7 11.35 18.9 11.35 19.8 11.35 20.55 11.45 20.65 11.35 20.65 11.25 20.75 11.25 20.95 11.25 M20.35 23.15 L20.3 22.8 20.2 23.0 18.25 25.65 17.25 26.65 17.4 27.15 17.7 28.05 18.5 27.3 18.7 27.25 18.8 27.15 19.0 26.85 Q19.15 26.65 19.35 26.6 L19.45 26.5 19.45 26.4 20.1 25.55 20.35 25.3 20.65 24.85 20.75 24.45 20.65 23.8 20.35 23.15 M17.05 4.6 L14.9 4.75 14.65 4.85 14.55 4.85 14.1 4.95 13.65 5.5 13.25 6.05 13.15 6.15 12.8 6.7 12.7 6.7 12.45 6.55 12.25 6.25 12.35 6.7 12.35 6.9 11.95 7.0 11.95 7.1 12.25 7.2 12.35 7.25 Q13.25 6.8 15.2 6.25 L19.0 5.5 18.9 5.35 18.05 4.85 17.05 4.6 M11.15 8.2 L11.4 8.3 11.6 8.45 11.7 8.3 11.6 8.3 10.5 7.75 10.4 7.8 Q10.95 8.2 11.15 8.2 M11.4 9.5 L11.4 9.2 11.3 9.3 10.95 9.6 Q10.0 10.5 9.65 11.25 L10.2 11.35 10.95 10.25 11.2 9.85 11.4 9.6 11.4 9.5 M19.9 8.4 L20.0 8.45 20.0 8.4 19.9 8.4 M9.95 7.65 L10.2 7.75 9.95 7.55 9.95 7.65 M16.5 14.75 L16.2 14.4 Q16.5 14.95 16.3 15.95 L15.95 17.25 15.85 17.45 15.85 18.1 15.75 18.45 15.85 18.65 15.85 19.65 15.55 20.65 16.3 20.4 16.85 19.85 16.85 19.75 16.85 19.55 16.75 15.6 16.75 15.4 16.5 14.75 M17.15 16.25 L17.15 16.3 16.85 15.75 16.95 17.6 16.95 19.55 16.7 20.3 Q16.3 20.75 15.55 20.95 L15.3 21.85 15.1 22.35 14.85 23.25 14.65 23.65 14.9 24.2 14.75 24.55 14.9 24.75 15.65 26.3 16.6 26.2 Q16.6 25.95 16.75 25.95 L16.95 26.05 18.6 24.65 Q19.9 23.25 19.9 22.5 L20.1 21.95 20.1 21.8 20.1 21.3 19.8 20.2 19.25 18.65 19.35 18.55 19.25 18.25 19.15 18.0 19.1 18.0 19.1 18.25 18.9 18.35 18.8 18.35 18.5 17.6 18.25 16.9 18.25 17.35 17.95 17.9 17.6 16.6 17.25 16.05 17.15 15.95 17.15 16.25 M13.55 13.65 L13.55 13.9 13.9 13.75 15.0 13.75 Q14.45 13.45 13.55 13.45 L13.55 13.65 M13.05 14.3 L13.15 14.2 13.25 14.2 13.35 13.45 12.6 13.45 12.15 14.3 12.25 14.5 12.15 14.55 12.25 14.55 12.25 14.75 11.85 16.7 11.6 20.2 11.6 21.05 11.7 21.85 11.7 23.15 11.6 24.1 11.6 24.25 11.7 24.65 11.85 24.35 11.95 24.1 11.7 23.9 11.7 23.7 11.85 23.45 11.8 23.05 11.85 22.05 11.85 21.95 11.85 21.05 11.95 20.6 12.25 19.95 12.45 19.45 12.25 18.75 12.15 18.1 12.35 17.45 12.5 16.95 12.5 16.9 12.45 16.7 12.5 15.75 Q12.6 14.75 12.8 14.5 L13.05 14.3 M13.7 20.4 L13.65 20.65 13.55 21.7 13.45 22.5 13.25 22.8 13.25 21.85 13.7 20.3 13.7 20.2 13.8 20.1 14.25 18.65 13.8 20.2 13.7 20.4 M14.65 23.65 L14.55 23.8 14.65 24.0 14.75 24.35 14.85 24.2 14.65 23.65 M18.5 20.6 L18.45 20.65 18.35 20.85 18.15 21.15 18.25 21.2 18.35 21.2 18.45 21.3 18.45 21.4 18.35 21.5 18.35 21.4 18.25 21.3 18.25 21.6 Q18.25 22.35 19.15 22.35 19.45 22.35 19.55 21.85 L19.75 21.3 19.55 20.65 Q19.25 20.2 18.8 20.4 L18.7 20.5 18.5 20.6 M18.45 20.4 Q18.8 20.0 18.9 20.2 L18.9 20.0 19.45 20.3 19.65 20.6 19.8 21.05 19.8 21.3 19.75 21.95 Q19.65 22.5 19.15 22.5 18.5 22.5 18.25 22.15 L18.15 21.6 18.15 21.3 18.05 21.3 17.95 21.15 Q17.95 20.85 18.45 20.4 M19.8 26.85 L19.55 26.95 19.45 27.05 18.7 27.8 18.7 27.95 19.65 29.0 20.3 29.55 20.3 29.0 20.35 27.15 20.35 26.05 20.35 25.95 19.75 26.75 19.8 26.85 M11.6 25.4 L11.3 24.65 11.3 24.75 Q11.05 24.9 11.05 25.3 L10.95 25.55 10.95 26.05 11.15 26.3 11.6 26.75 11.85 27.15 11.95 26.95 11.85 26.75 11.85 25.85 11.6 25.4 M11.5 27.7 L11.4 28.15 11.6 27.8 11.5 27.7 M11.4 28.2 L11.4 28.5 11.5 28.6 11.4 28.2" fill="#000000" fill-rule="evenodd" stroke="none"/>
    <path d="M15.3 29.85 L13.55 29.85 13.45 29.65 Q12.35 27.3 12.35 26.95 L12.35 26.5 12.35 25.75 12.35 25.55 12.45 25.4 12.45 25.3 12.45 25.2 12.35 24.9 12.15 24.65 12.25 24.35 12.35 24.2 12.15 24.0 11.95 23.8 12.25 23.65 12.25 23.55 12.25 22.5 12.35 21.05 12.6 20.0 12.8 19.75 13.0 19.45 12.9 18.9 12.9 18.8 12.8 18.45 12.6 18.0 12.9 17.55 12.9 17.45 13.0 17.55 12.9 17.35 13.05 17.05 13.0 16.8 12.9 16.7 12.9 16.15 12.9 15.1 13.25 14.55 13.35 14.5 13.45 14.5 Q14.0 13.9 15.2 14.1 15.85 14.2 16.05 15.05 L16.05 15.95 15.55 16.95 15.3 17.9 15.45 18.75 15.55 19.65 15.4 20.75 15.3 20.95 14.75 22.4 14.35 23.15 14.35 23.25 14.25 23.35 14.2 23.25 14.1 23.65 14.1 23.7 14.2 24.1 14.45 24.65 14.55 24.85 14.75 25.2 15.3 26.3 15.4 26.75 15.3 28.45 15.3 29.85 M20.95 11.25 L20.75 11.25 20.65 11.25 20.65 11.35 20.55 11.45 19.8 11.35 18.9 11.35 18.7 11.35 17.05 10.95 Q16.4 10.8 16.2 10.5 L15.95 10.05 15.65 9.1 15.3 8.4 15.3 8.3 15.55 8.2 15.95 8.2 17.6 8.45 17.6 8.65 17.9 8.85 18.05 8.65 18.15 8.4 18.9 9.0 19.45 9.5 19.75 9.2 19.75 8.85 19.9 8.45 19.9 8.55 19.8 8.75 19.8 8.85 19.9 8.95 20.0 8.95 20.1 9.1 20.35 9.2 20.65 9.4 Q21.3 10.05 21.3 11.05 21.3 11.15 20.95 11.25 M16.5 14.75 L16.75 15.4 16.75 15.6 16.85 19.55 16.85 19.75 16.85 19.85 16.3 20.4 15.55 20.65 15.85 19.65 15.85 18.65 15.75 18.45 15.85 18.1 15.85 17.45 15.95 17.25 16.3 15.95 Q16.5 14.95 16.2 14.4 L16.5 14.75 M13.55 13.65 L13.55 13.45 Q14.45 13.45 15.0 13.75 L13.9 13.75 13.55 13.9 13.55 13.65 M13.7 20.4 L13.8 20.2 14.25 18.65 13.8 20.1 13.7 20.2 13.7 20.3 13.25 21.85 13.25 22.8 13.45 22.5 13.55 21.7 13.65 20.65 13.7 20.4" fill="#ffead5" fill-rule="evenodd" stroke="none"/>
    <path d="M20.65 11.8 L20.75 11.9 20.85 12.7 20.95 13.0 21.0 13.35 20.95 13.65 20.85 13.55 20.65 13.45 20.45 13.65 20.45 13.85 20.45 14.65 20.35 14.55 20.2 14.55 20.2 14.5 20.1 14.4 20.0 14.4 20.0 14.5 19.8 14.4 19.75 14.5 19.65 14.55 20.3 15.4 20.45 15.7 21.0 16.7 20.85 16.6 20.65 16.9 20.75 17.05 20.85 17.45 20.75 17.35 20.65 17.35 20.45 17.55 20.55 17.7 20.35 17.8 20.35 18.0 20.35 18.15 20.45 18.35 20.35 18.75 20.3 19.3 20.2 19.75 20.2 20.2 20.2 20.85 19.8 19.55 19.1 17.55 18.9 18.1 18.25 16.3 18.15 16.25 18.15 16.3 18.05 16.3 18.15 16.9 18.15 17.05 18.05 17.55 17.6 16.3 17.15 15.6 Q16.75 14.5 16.1 14.1 L15.1 13.45 13.8 13.35 13.45 13.35 13.45 13.3 13.35 13.35 12.6 13.35 12.6 13.3 12.5 13.3 12.45 13.45 12.35 13.45 12.35 13.55 11.95 14.3 11.8 14.5 11.8 14.65 11.7 14.75 11.6 14.95 11.05 15.6 11.3 14.5 11.7 13.65 12.25 12.35 12.25 12.15 11.95 12.05 11.6 12.05 Q11.3 12.15 11.3 12.25 L11.3 12.15 12.05 10.8 12.6 9.95 12.35 9.85 11.95 9.75 12.05 9.5 14.85 8.45 15.1 8.55 15.3 9.1 15.65 10.15 15.65 10.4 15.75 10.6 15.85 10.8 Q16.1 11.05 16.5 11.15 L18.35 11.5 20.0 11.8 20.65 11.8 M20.3 7.2 L20.35 7.25 20.45 7.45 20.35 7.45 20.2 7.35 19.8 7.75 19.75 7.65 19.75 7.75 19.65 7.8 19.75 7.9 19.75 8.0 19.55 8.4 19.35 8.95 19.1 8.75 18.8 8.45 18.45 8.1 18.05 7.9 17.95 8.1 17.8 8.1 17.5 8.1 17.3 8.0 16.7 7.8 20.2 7.2 20.3 7.2 M17.05 4.6 L18.05 4.85 18.9 5.35 19.0 5.5 15.2 6.25 Q13.25 6.8 12.35 7.25 L12.25 7.2 11.95 7.1 11.95 7.0 12.35 6.9 12.35 6.7 12.25 6.25 12.45 6.55 12.7 6.7 12.8 6.7 13.15 6.15 13.25 6.05 13.65 5.5 14.1 4.95 14.55 4.85 14.65 4.85 14.9 4.75 17.05 4.6" fill="#605142" fill-rule="evenodd" stroke="none"/>
    <path d="M20.3 29.85 L17.9 29.85 17.9 29.65 17.8 28.45 18.5 27.95 18.7 28.35 19.35 29.0 20.3 29.8 20.3 29.85 M20.35 6.55 L20.35 6.7 20.1 6.8 15.45 7.8 Q14.55 7.75 14.45 8.2 13.15 8.55 11.95 9.1 L11.85 9.1 12.05 8.45 12.25 7.8 12.25 7.75 12.45 7.75 14.9 6.8 16.75 6.25 19.35 5.9 19.55 5.9 19.8 6.0 20.2 6.25 20.35 6.55 M11.4 9.5 L11.4 9.6 11.2 9.85 10.95 10.25 10.2 11.35 9.65 11.25 Q10.0 10.5 10.95 9.6 L11.3 9.3 11.4 9.2 11.4 9.5 M11.15 8.2 Q10.95 8.2 10.4 7.8 L10.5 7.75 11.6 8.3 11.7 8.3 11.6 8.45 11.4 8.3 11.15 8.2 M17.15 16.25 L17.15 15.95 17.25 16.05 17.6 16.6 17.95 17.9 18.25 17.35 18.25 16.9 18.5 17.6 18.8 18.35 18.9 18.35 19.1 18.25 19.1 18.0 19.15 18.0 19.25 18.25 19.35 18.55 19.25 18.65 19.8 20.2 20.1 21.3 20.1 21.8 20.1 21.95 19.9 22.5 Q19.9 23.25 18.6 24.65 L16.95 26.05 16.75 25.95 Q16.6 25.95 16.6 26.2 L15.65 26.3 14.9 24.75 14.75 24.55 14.9 24.2 14.65 23.65 14.85 23.25 15.1 22.35 15.3 21.85 15.55 20.95 Q16.3 20.75 16.7 20.3 L16.95 19.55 16.95 17.6 16.85 15.75 17.15 16.3 17.15 16.25 M13.05 14.3 L12.8 14.5 Q12.6 14.75 12.5 15.75 L12.45 16.7 12.5 16.9 12.5 16.95 12.35 17.45 12.15 18.1 12.25 18.75 12.45 19.45 12.25 19.95 11.95 20.6 11.85 21.05 11.85 21.95 11.85 22.05 11.8 23.05 11.85 23.45 11.7 23.7 11.7 23.9 11.95 24.1 11.85 24.35 11.7 24.65 11.6 24.25 11.6 24.1 11.7 23.15 11.7 21.85 11.6 21.05 11.6 20.2 11.85 16.7 12.25 14.75 12.25 14.55 12.15 14.55 12.25 14.5 12.15 14.3 12.6 13.45 13.35 13.45 13.25 14.2 13.15 14.2 13.05 14.3 M18.45 20.4 Q17.95 20.85 17.95 21.15 L18.05 21.3 18.15 21.3 18.15 21.6 18.25 22.15 Q18.5 22.5 19.15 22.5 19.65 22.5 19.75 21.95 L19.8 21.3 19.8 21.05 19.65 20.6 19.45 20.3 18.9 20.0 18.9 20.2 Q18.8 20.0 18.45 20.4 M11.4 28.2 L11.5 28.6 11.4 28.5 11.4 28.2 M11.5 27.7 L11.6 27.8 11.4 28.15 11.5 27.7" fill="#d9b83e" fill-rule="evenodd" stroke="none"/>
    <path d="M14.65 23.65 L14.85 24.2 14.75 24.35 14.65 24.0 14.55 23.8 14.65 23.65 M18.5 20.6 L18.6 20.6 18.7 20.5 18.8 20.4 Q19.25 20.2 19.55 20.65 L19.75 21.3 19.55 21.85 Q19.45 22.35 19.15 22.35 18.25 22.35 18.25 21.6 L18.25 21.3 18.35 21.4 18.35 21.5 18.45 21.4 18.45 21.3 18.35 21.2 18.25 21.2 18.15 21.15 18.35 20.85 18.45 20.65 18.5 20.6 M19.8 26.85 L19.75 26.75 20.35 25.95 20.35 26.05 20.35 27.15 20.3 29.0 20.3 29.55 19.65 29.0 18.7 27.95 18.7 27.8 19.45 27.05 19.55 26.95 19.8 26.85" fill="#735437" fill-rule="evenodd" stroke="none"/>
    <path d="M17.5 29.85 L15.65 29.85 15.55 29.55 15.65 27.95 15.75 27.05 15.75 26.75 16.05 26.65 16.7 26.65 16.7 26.75 16.95 26.75 17.15 27.4 17.4 28.25 17.3 28.35 17.4 28.6 17.5 28.6 17.5 29.85 M13.25 29.85 L12.2 29.85 12.05 29.25 11.95 28.7 11.85 28.35 11.95 27.95 12.05 27.7 12.05 27.6 12.15 27.5 12.45 28.35 13.15 29.7 13.25 29.85 M20.35 23.15 L20.65 23.8 20.75 24.45 20.65 24.85 20.35 25.3 20.1 25.55 19.45 26.4 19.45 26.5 19.35 26.6 Q19.15 26.65 19.0 26.85 L18.8 27.15 18.7 27.25 18.5 27.3 17.7 28.05 17.4 27.15 17.25 26.65 18.25 25.65 20.2 23.0 20.3 22.8 20.35 23.15 M11.6 25.4 L11.85 25.85 11.85 26.75 11.95 26.95 11.85 27.15 11.6 26.75 11.15 26.3 10.95 26.05 10.95 25.55 11.05 25.3 Q11.05 24.9 11.3 24.75 L11.3 24.65 11.6 25.4" fill="#a06f4e" fill-rule="evenodd" stroke="none"/>
  </g>
</svg>
