<?xml version="1.0" encoding="UTF-8" standalone="no"?>
<svg xmlns:xlink="http://www.w3.org/1999/xlink" height="12.5px" width="13.3px" xmlns="http://www.w3.org/2000/svg">
  <g transform="matrix(1.0, 0.0, 0.0, 1.0, 6.65, 6.2)">
    <path d="M-4.25 1.7 L-4.55 0.7 Q-4.95 0.6 -4.95 1.15 -4.95 1.7 -4.45 1.95 L-4.25 1.7 M-1.45 4.6 L-1.25 4.5 Q-1.45 3.35 -2.1 3.75 L-1.9 4.3 -1.45 4.6 M1.15 3.3 L1.1 2.95 0.7 3.0 0.75 3.35 1.1 3.35 1.15 3.3 M4.65 -0.7 Q4.65 -2.05 4.35 -2.45 L3.35 -3.4 2.45 -4.0 2.1 -3.7 Q4.25 -2.3 4.25 -0.8 L3.85 2.2 4.05 2.5 Q4.45 2.1 4.55 0.75 L4.65 -0.7 M-0.7 -0.2 Q-1.15 -0.6 -1.55 -0.6 L-0.95 0.15 Q-0.45 0.6 -0.05 0.6 0.55 0.6 0.55 0.35 L0.5 0.15 Q-0.3 0.2 -0.7 -0.2 M-1.9 -2.1 L-1.85 -2.0 Q-1.1 -2.0 -0.55 -2.5 L-0.1 -3.05 -0.15 -3.25 Q-1.9 -2.8 -1.9 -2.1 M-5.25 -0.9 L-5.15 -0.65 Q-4.75 -0.65 -4.75 -1.1 L-4.35 -1.5 -4.1 -1.8 -4.15 -2.05 -4.9 -1.6 -5.25 -0.9 M-3.75 -4.6 L-2.85 -5.1 -0.45 -5.5 2.05 -5.45 Q4.7 -3.45 5.1 -2.6 L5.75 -0.9 6.25 0.75 Q6.25 2.95 4.95 3.95 1.3 5.8 -1.15 5.8 -4.25 5.8 -5.5 2.75 -6.25 1.0 -6.25 -0.85 -6.25 -2.45 -4.65 -3.85 L-3.75 -4.6" fill="#857e69" fill-rule="evenodd" stroke="none"/>
    <path d="M-3.5 -5.4 L-1.3 -6.05 -1.1 -6.2 -0.05 -6.2 Q3.65 -6.2 5.45 -3.05 6.65 -1.0 6.65 0.75 6.65 3.6 5.1 4.5 4.1 5.1 2.15 5.7 L-0.75 6.3 Q-4.5 6.3 -5.9 3.1 -6.65 1.4 -6.65 -0.85 L-6.3 -2.6 Q-5.9 -3.7 -5.15 -4.05 L-4.5 -4.65 -3.5 -5.4 M-3.75 -4.6 L-4.65 -3.85 Q-6.25 -2.45 -6.25 -0.85 -6.25 1.0 -5.5 2.75 -4.25 5.8 -1.15 5.8 1.3 5.8 4.95 3.95 6.25 2.95 6.25 0.75 L5.75 -0.9 5.1 -2.6 Q4.7 -3.45 2.05 -5.45 L-0.45 -5.5 -2.85 -5.1 -3.75 -4.6 M-5.25 -0.9 L-4.9 -1.6 -4.15 -2.05 -4.1 -1.8 -4.35 -1.5 -4.75 -1.1 Q-4.75 -0.65 -5.15 -0.65 L-5.25 -0.9 M-1.9 -2.1 Q-1.9 -2.8 -0.15 -3.25 L-0.1 -3.05 -0.55 -2.5 Q-1.1 -2.0 -1.85 -2.0 L-1.9 -2.1 M-0.7 -0.2 Q-0.3 0.2 0.5 0.15 L0.55 0.35 Q0.55 0.6 -0.05 0.6 -0.45 0.6 -0.95 0.15 L-1.55 -0.6 Q-1.15 -0.6 -0.7 -0.2 M4.65 -0.7 L4.55 0.75 Q4.45 2.1 4.05 2.5 L3.85 2.2 4.25 -0.8 Q4.25 -2.3 2.1 -3.7 L2.45 -4.0 3.35 -3.4 4.35 -2.45 Q4.65 -2.05 4.65 -0.7 M1.15 3.3 L1.1 3.35 0.75 3.35 0.7 3.0 1.1 2.95 1.15 3.3 M-1.45 4.6 L-1.9 4.3 -2.1 3.75 Q-1.45 3.35 -1.25 4.5 L-1.45 4.6 M-4.25 1.7 L-4.45 1.95 Q-4.95 1.7 -4.95 1.15 -4.95 0.6 -4.55 0.7 L-4.25 1.7" fill="#000000" fill-rule="evenodd" stroke="none"/>
  </g>
</svg>
