<?xml version="1.0" encoding="UTF-8" standalone="no"?>
<svg xmlns:xlink="http://www.w3.org/1999/xlink" height="9.35px" width="9.95px" xmlns="http://www.w3.org/2000/svg">
  <g transform="matrix(1.0, 0.0, 0.0, 1.0, 4.95, 4.7)">
    <path d="M-3.15 1.2 L-3.4 0.45 Q-3.7 0.4 -3.7 0.8 -3.7 1.2 -3.3 1.4 L-3.15 1.2 M-1.05 3.4 L-0.9 3.3 Q-1.05 2.45 -1.55 2.75 L-1.4 3.15 -1.05 3.4 M0.9 2.4 L0.85 2.15 0.55 2.2 0.6 2.45 0.85 2.45 0.9 2.4 M3.5 -0.6 L3.3 -1.9 2.55 -2.6 1.85 -3.05 Q1.6 -3.05 1.6 -2.85 3.2 -1.8 3.2 -0.65 L2.9 1.6 3.05 1.8 Q3.35 1.5 3.45 0.5 L3.5 -0.6 M-0.5 -0.2 Q-0.85 -0.5 -1.15 -0.5 L-0.7 0.05 0.0 0.4 Q0.45 0.4 0.45 0.2 L0.4 0.05 -0.5 -0.2 M-1.4 -1.65 L-1.35 -1.55 Q-0.8 -1.55 -0.4 -1.95 L-0.05 -2.35 -0.1 -2.5 Q-1.4 -2.15 -1.4 -1.65 M-3.9 -0.75 L-3.85 -0.55 Q-3.55 -0.55 -3.55 -0.9 L-3.25 -1.2 -3.05 -1.4 -3.1 -1.6 -3.65 -1.25 -3.9 -0.75 M-2.8 -3.5 L-2.1 -3.9 -0.3 -4.2 1.55 -4.15 Q3.55 -2.65 3.85 -2.0 L4.35 -0.75 4.7 0.5 Q4.7 2.15 3.75 2.9 1.0 4.3 -0.85 4.3 -3.15 4.3 -4.1 2.0 -4.65 0.7 -4.65 -0.7 -4.65 -1.9 -3.45 -2.95 L-2.8 -3.5" fill="#857e69" fill-rule="evenodd" stroke="none"/>
    <path d="M-2.6 -4.1 L-0.95 -4.6 -0.8 -4.7 0.0 -4.7 Q2.75 -4.7 4.1 -2.35 5.0 -0.8 5.0 0.5 5.0 2.65 3.85 3.3 3.1 3.75 1.65 4.2 L-0.55 4.65 Q-3.35 4.65 -4.4 2.25 -4.95 1.0 -4.95 -0.7 L-4.7 -2.0 Q-4.4 -2.85 -3.85 -3.1 L-3.35 -3.55 -2.6 -4.1 M-2.8 -3.5 L-3.45 -2.95 Q-4.65 -1.9 -4.65 -0.7 -4.65 0.7 -4.1 2.0 -3.15 4.3 -0.85 4.3 1.0 4.3 3.75 2.9 4.7 2.15 4.7 0.5 L4.35 -0.75 3.85 -2.0 Q3.55 -2.65 1.55 -4.15 L-0.3 -4.2 -2.1 -3.9 -2.8 -3.5 M-3.9 -0.75 L-3.65 -1.25 -3.1 -1.6 -3.05 -1.4 -3.25 -1.2 -3.55 -0.9 Q-3.55 -0.55 -3.85 -0.55 L-3.9 -0.75 M-1.4 -1.65 Q-1.4 -2.15 -0.1 -2.5 L-0.05 -2.35 -0.4 -1.95 Q-0.8 -1.55 -1.35 -1.55 L-1.4 -1.65 M-0.5 -0.2 L0.4 0.05 0.45 0.2 Q0.45 0.4 0.0 0.4 L-0.7 0.05 -1.15 -0.5 Q-0.85 -0.5 -0.5 -0.2 M3.5 -0.6 L3.45 0.5 Q3.35 1.5 3.05 1.8 L2.9 1.6 3.2 -0.65 Q3.2 -1.8 1.6 -2.85 1.6 -3.05 1.85 -3.05 L2.55 -2.6 3.3 -1.9 3.5 -0.6 M0.9 2.4 L0.85 2.45 0.6 2.45 0.55 2.2 0.85 2.15 0.9 2.4 M-1.05 3.4 L-1.4 3.15 -1.55 2.75 Q-1.05 2.45 -0.9 3.3 L-1.05 3.4 M-3.15 1.2 L-3.3 1.4 Q-3.7 1.2 -3.7 0.8 -3.7 0.4 -3.4 0.45 L-3.15 1.2" fill="#000000" fill-rule="evenodd" stroke="none"/>
  </g>
</svg>
