<?xml version="1.0" encoding="UTF-8" standalone="no"?>
<svg xmlns:xlink="http://www.w3.org/1999/xlink" height="1.2px" width="1.45px" xmlns="http://www.w3.org/2000/svg">
  <g transform="matrix(1.0, 0.0, 0.0, 1.0, 0.85, 0.6)">
    <path d="M0.25 -0.3 L0.1 -0.4 -0.2 -0.5 Q-0.75 -0.5 -0.75 -0.05 L-0.65 0.2 -0.45 0.3 0.0 0.35 0.15 0.25 0.25 0.15 0.35 -0.05 0.35 -0.2 0.25 -0.3 M0.55 -0.1 L0.6 0.05 0.6 0.2 0.5 0.35 0.4 0.4 0.35 0.5 -0.1 0.55 -0.25 0.6 -0.5 0.55 -0.65 0.5 -0.75 0.3 -0.85 0.15 -0.85 0.0 -0.75 -0.3 -0.65 -0.5 -0.5 -0.5 -0.4 -0.55 -0.05 -0.6 0.15 -0.55 0.2 -0.5 0.35 -0.45 0.5 -0.3 0.55 -0.1" fill="#000000" fill-rule="evenodd" stroke="none"/>
    <path d="M0.25 -0.3 L0.35 -0.2 0.35 -0.05 0.25 0.15 0.15 0.25 0.0 0.35 -0.45 0.3 -0.65 0.2 -0.75 -0.05 Q-0.75 -0.5 -0.2 -0.5 L0.1 -0.4 0.25 -0.3 M-0.1 -0.3 L-0.3 -0.45 -0.5 -0.3 -0.45 -0.2 -0.25 -0.15 Q-0.1 -0.15 -0.1 -0.3" fill="#333333" fill-rule="evenodd" stroke="none"/>
    <path d="M-0.1 -0.3 Q-0.1 -0.15 -0.25 -0.15 L-0.45 -0.2 -0.5 -0.3 -0.3 -0.45 -0.1 -0.3" fill="#e6e6e6" fill-rule="evenodd" stroke="none"/>
  </g>
</svg>
