<?xml version="1.0" encoding="UTF-8" standalone="no"?>
<svg xmlns:xlink="http://www.w3.org/1999/xlink" height="4.4px" width="4.35px" xmlns="http://www.w3.org/2000/svg">
  <g transform="matrix(1.0, 0.0, 0.0, 1.0, 2.15, 2.3)">
    <path d="M1.85 -1.2 L2.2 0.1 Q2.2 2.1 0.1 2.1 -1.15 2.1 -1.75 1.25 -2.15 0.65 -2.15 -0.05 -2.15 -0.85 -1.7 -1.45 -1.0 -2.3 0.5 -2.3 1.35 -2.3 1.85 -1.2 M0.4 -1.0 L0.45 -0.95 0.45 -0.7 -0.1 -0.65 -0.15 -0.75 0.05 -1.0 0.4 -1.0 M1.9 0.15 Q1.9 -2.0 0.05 -1.8 -1.85 -1.65 -1.85 -0.05 -1.85 0.6 -1.45 1.1 -0.9 1.75 0.1 1.75 1.9 1.75 1.9 0.15 M-1.2 0.05 L-0.95 -0.3 -0.85 0.2 -0.3 0.65 -0.25 0.8 -0.3 0.95 -0.7 0.95 Q-1.2 0.8 -1.2 0.05" fill="#000000" fill-rule="evenodd" stroke="none"/>
    <path d="M-1.2 0.05 Q-1.2 0.8 -0.7 0.95 L-0.3 0.95 -0.25 0.8 -0.3 0.65 -0.85 0.2 -0.95 -0.3 -1.2 0.05 M1.9 0.15 Q1.9 1.75 0.1 1.75 -0.9 1.75 -1.45 1.1 -1.85 0.6 -1.85 -0.05 -1.85 -1.65 0.05 -1.8 1.9 -2.0 1.9 0.15 M0.4 -1.0 L0.05 -1.0 -0.15 -0.75 -0.1 -0.65 0.45 -0.7 0.45 -0.95 0.4 -1.0" fill="#857e69" fill-rule="evenodd" stroke="none"/>
  </g>
</svg>
