<?xml version="1.0" encoding="UTF-8" standalone="no"?>
<svg xmlns:xlink="http://www.w3.org/1999/xlink" height="27.5px" width="26.15px" xmlns="http://www.w3.org/2000/svg">
  <g transform="matrix(1.0, 0.0, 0.0, 1.0, -3.6, -3.25)">
    <path d="M7.15 21.45 L7.15 21.75 7.05 21.75 6.95 21.95 6.75 22.3 6.1 23.15 6.45 22.3 7.15 21.45 M3.6 30.1 L3.6 10.4 8.75 11.7 8.75 11.9 9.2 12.05 9.4 12.05 9.5 12.15 9.9 12.15 11.3 12.45 14.05 13.2 18.05 14.25 18.8 14.55 19.35 14.55 20.7 15.1 Q21.15 15.5 21.9 15.75 L22.0 15.85 22.1 15.85 22.3 16.35 22.95 16.9 23.8 17.3 23.9 17.3 24.0 17.55 24.1 17.85 25.05 18.9 25.9 19.1 26.2 19.75 26.1 20.05 25.9 20.3 25.9 20.6 25.45 22.5 23.65 23.65 22.4 24.4 22.3 24.4 21.9 24.5 21.55 24.6 19.75 23.65 Q17.95 23.15 17.75 22.8 L17.2 21.65 16.7 20.8 Q16.5 20.6 16.5 21.0 L16.7 21.45 16.25 21.35 Q15.65 20.9 15.1 20.9 L15.0 19.65 14.9 19.0 Q14.8 18.4 14.45 19.1 L14.6 20.15 14.05 19.85 13.95 19.75 12.9 19.55 11.6 19.35 10.75 19.45 10.55 19.55 10.35 19.75 10.15 19.65 9.2 19.75 8.1 20.05 8.0 20.05 8.45 19.35 8.95 17.85 9.2 16.25 8.95 16.35 8.85 16.35 8.75 17.0 8.1 19.1 7.6 20.15 7.05 20.8 6.85 21.0 6.35 21.85 6.2 21.85 6.1 21.95 6.1 22.1 6.0 22.3 5.9 22.6 5.9 22.7 5.5 23.75 Q5.35 23.9 5.35 24.1 L5.05 24.85 4.75 25.55 4.65 25.8 4.75 26.0 4.75 26.2 4.65 26.3 Q4.7 27.0 5.2 27.85 L5.6 28.55 5.8 28.95 Q4.95 29.05 4.95 29.9 L4.95 30.1 5.05 30.2 4.85 30.2 3.7 30.1 3.6 30.1 M3.6 9.4 L3.6 8.85 4.0 8.0 5.05 6.55 5.15 6.55 6.0 6.85 Q6.45 6.85 8.0 5.8 L8.45 7.15 8.95 7.6 9.6 7.9 10.75 8.45 12.15 7.7 12.25 9.15 12.45 9.5 12.9 9.6 13.0 9.8 13.0 9.9 13.85 10.55 14.15 10.85 15.4 12.05 15.85 12.65 3.6 9.4 M21.35 17.3 L20.5 16.45 19.25 15.85 19.25 15.65 Q19.25 15.2 19.0 15.4 L18.8 15.95 19.65 16.6 Q19.35 17.0 19.35 17.55 L19.45 17.75 Q19.55 17.95 20.2 18.05 L21.75 18.4 22.4 19.0 22.6 18.9 21.35 17.3 M24.2 21.0 L24.2 21.15 24.4 21.25 25.45 20.6 Q24.2 19.95 24.2 21.0" fill="#418822" fill-rule="evenodd" stroke="none"/>
    <path d="M5.55 3.25 L5.95 3.25 5.35 4.3 Q4.75 5.05 4.75 5.35 L5.05 5.8 5.25 6.1 5.7 6.3 6.0 6.4 7.6 5.6 Q8.45 4.95 8.45 6.1 8.65 6.95 8.95 7.15 L10.75 8.0 12.25 7.15 Q12.45 7.15 12.45 7.9 L12.55 8.85 12.9 9.3 13.3 9.6 14.05 10.25 14.8 10.85 16.6 12.9 17.75 13.2 18.3 13.1 Q18.7 13.1 19.15 13.4 L19.35 13.6 21.55 14.25 22.2 13.5 Q22.5 13.1 22.5 14.35 L22.5 14.45 24.1 14.9 24.1 15.0 25.25 15.1 25.25 15.2 25.7 15.2 26.3 15.1 26.55 14.65 26.75 14.9 27.5 14.8 27.6 14.15 28.0 14.55 28.1 14.45 28.45 14.8 28.55 14.65 28.95 14.8 29.3 14.8 Q29.5 14.8 29.7 15.1 L29.75 15.05 29.75 15.35 29.7 15.3 29.4 15.3 29.3 15.1 28.85 15.1 28.55 14.9 28.55 15.0 28.2 14.9 28.1 14.8 28.0 14.9 27.4 15.0 27.5 15.5 27.6 15.95 27.7 17.2 27.5 17.4 27.7 17.55 27.7 17.65 28.1 17.55 28.55 17.75 28.85 17.75 29.05 17.85 29.5 17.75 29.75 17.75 29.75 18.15 29.7 18.15 29.5 18.05 29.3 18.25 29.05 18.4 28.85 18.25 28.75 17.95 28.2 17.95 Q28.0 17.95 28.1 17.75 L27.6 17.75 27.05 18.5 26.55 19.2 26.55 19.75 26.4 20.15 26.2 20.4 26.0 21.85 25.8 22.8 22.2 25.05 22.0 25.05 22.0 24.95 21.55 25.05 20.6 24.6 Q19.85 24.1 19.75 24.1 L18.6 23.75 Q18.05 23.65 17.65 23.35 17.35 23.25 16.9 22.2 L16.8 21.95 16.7 21.95 16.15 21.65 15.3 21.35 15.1 21.45 15.0 21.45 Q14.8 21.45 14.7 20.7 L14.05 20.4 12.9 19.95 11.6 19.75 10.55 19.85 10.15 19.95 9.5 20.15 8.35 20.5 7.9 20.6 7.7 20.7 7.6 20.9 7.5 21.0 7.15 21.45 6.45 22.3 6.1 23.15 6.75 22.3 6.95 21.95 7.05 21.75 7.15 21.75 7.3 21.65 Q7.6 21.35 7.4 21.85 L5.8 24.4 Q5.25 25.8 4.95 26.0 L5.5 27.7 5.55 27.85 6.35 28.95 6.85 30.1 Q6.85 30.75 6.65 30.75 L6.45 30.65 5.6 30.55 3.7 30.45 3.6 30.5 3.6 30.1 3.7 30.1 4.85 30.2 5.05 30.2 4.95 30.1 4.95 29.9 Q4.95 29.05 5.8 28.95 L5.6 28.55 5.2 27.85 Q4.7 27.0 4.65 26.3 L4.75 26.2 4.75 26.0 4.65 25.8 4.75 25.55 5.05 24.85 5.35 24.1 Q5.35 23.9 5.5 23.75 L5.9 22.7 5.9 22.6 6.0 22.3 6.1 22.1 6.1 21.95 6.2 21.85 6.35 21.85 6.85 21.0 7.05 20.8 7.6 20.15 8.1 19.1 8.75 17.0 8.85 16.35 8.95 16.35 9.2 16.25 8.95 17.85 8.45 19.35 8.0 20.05 8.1 20.05 9.2 19.75 10.15 19.65 10.35 19.75 10.55 19.55 10.75 19.45 11.6 19.35 12.9 19.55 13.95 19.75 14.05 19.85 14.6 20.15 14.45 19.1 Q14.8 18.4 14.9 19.0 L15.0 19.65 15.1 20.9 Q15.65 20.9 16.25 21.35 L16.7 21.45 16.5 21.0 Q16.5 20.6 16.7 20.8 L17.2 21.65 17.75 22.8 Q17.95 23.15 19.75 23.65 L21.55 24.6 21.9 24.5 22.3 24.4 22.4 24.4 23.65 23.65 25.45 22.5 25.9 20.6 25.9 20.3 26.1 20.05 26.2 19.75 25.9 19.1 25.05 18.9 24.1 17.85 24.0 17.55 23.9 17.3 23.8 17.3 22.95 16.9 22.3 16.35 22.1 15.85 22.0 15.85 21.9 15.75 Q21.15 15.5 20.7 15.1 L19.35 14.55 18.8 14.55 18.05 14.25 14.05 13.2 11.3 12.45 9.9 12.15 9.5 12.15 9.4 12.05 9.2 12.05 8.75 11.9 8.75 11.7 3.6 10.4 3.6 10.2 8.95 11.6 9.2 11.6 9.6 11.8 14.05 13.0 16.7 13.6 17.35 13.85 17.85 13.95 18.05 13.95 18.15 13.95 19.25 14.35 19.45 14.35 20.1 14.55 21.15 14.9 21.45 14.9 22.1 15.1 22.5 15.2 22.85 15.2 22.95 15.2 22.7 14.9 21.15 14.45 20.9 14.35 9.2 11.2 8.95 11.2 8.95 11.1 8.75 10.95 3.6 9.65 3.6 9.4 15.85 12.65 15.4 12.05 14.15 10.85 13.85 10.55 13.0 9.9 13.0 9.8 12.9 9.6 12.45 9.5 12.25 9.15 12.15 7.7 10.75 8.45 9.6 7.9 8.95 7.6 8.45 7.15 8.0 5.8 Q6.45 6.85 6.0 6.85 L5.15 6.55 5.05 6.55 4.0 8.0 3.6 8.85 3.6 7.95 4.3 6.75 4.75 6.4 4.75 6.3 4.85 6.1 4.4 5.35 Q4.4 4.95 4.85 4.3 L5.55 3.25 M3.6 4.05 L3.6 3.55 3.7 3.25 4.1 3.25 3.6 4.05 M25.7 16.25 L24.95 16.05 24.3 16.05 23.65 15.85 22.7 15.75 22.4 15.65 22.5 15.85 22.95 16.35 23.9 16.9 24.3 17.2 24.4 17.3 Q25.15 17.3 26.0 16.6 L25.7 16.25 M25.6 15.85 L26.1 15.5 25.45 15.4 25.15 15.5 24.95 15.75 25.25 15.85 25.45 15.75 25.6 15.85 M26.0 15.95 L25.8 15.95 26.0 16.15 26.0 15.95 M26.75 17.3 L26.95 17.3 26.65 16.9 26.3 16.8 Q25.35 17.65 24.5 17.65 L24.4 17.65 24.65 17.85 26.1 18.9 26.2 18.9 26.75 18.25 27.15 17.75 26.75 17.3 M28.95 17.95 L29.15 17.95 29.05 17.85 28.95 17.95 M23.35 15.1 L24.65 15.5 24.65 15.4 23.35 15.1 M22.0 15.4 L21.75 15.3 21.9 15.4 22.0 15.4 M21.35 17.3 L22.6 18.9 22.4 19.0 21.75 18.4 20.2 18.05 Q19.55 17.95 19.45 17.75 L19.35 17.55 Q19.35 17.0 19.65 16.6 L18.8 15.95 19.0 15.4 Q19.25 15.2 19.25 15.65 L19.25 15.85 20.5 16.45 21.35 17.3 M20.9 17.4 L19.95 16.8 19.95 16.9 19.75 17.2 19.75 17.55 21.35 17.85 20.9 17.4 M24.2 21.0 Q24.2 19.95 25.45 20.6 L24.4 21.25 24.2 21.15 24.2 21.0 M5.8 30.2 L6.65 30.2 6.55 30.1 6.55 30.0 6.0 29.25 5.8 29.4 Q5.35 29.4 5.35 29.7 L5.35 30.2 5.8 30.2" fill="#000000" fill-rule="evenodd" stroke="none"/>
    <path d="M5.8 30.2 L5.35 30.2 5.35 29.7 Q5.35 29.4 5.8 29.4 L6.0 29.25 6.55 30.0 6.55 30.1 6.65 30.2 5.8 30.2" fill="#81805c" fill-rule="evenodd" stroke="none"/>
    <path d="M3.6 7.95 L3.6 4.05 4.1 3.25 5.55 3.25 4.85 4.3 Q4.4 4.95 4.4 5.35 L4.85 6.1 4.75 6.3 4.75 6.4 4.3 6.75 3.6 7.95" fill="#a58b52" fill-rule="evenodd" stroke="none"/>
    <path d="M26.75 17.3 L27.15 17.75 26.75 18.25 26.2 18.9 26.1 18.9 24.65 17.85 24.4 17.65 24.5 17.65 Q25.35 17.65 26.3 16.8 L26.65 16.9 26.95 17.3 26.75 17.3 M22.0 15.4 L21.9 15.4 21.75 15.3 22.0 15.4" fill="#e9e9c9" fill-rule="evenodd" stroke="none"/>
    <path d="M20.9 17.4 L21.35 17.85 19.75 17.55 19.75 17.2 19.95 16.9 19.95 16.8 20.9 17.4" fill="#ffff55" fill-rule="evenodd" stroke="none"/>
    <path d="M29.75 15.35 L29.75 17.75 29.5 17.75 29.05 17.85 28.85 17.75 28.55 17.75 28.1 17.55 27.7 17.65 27.7 17.55 27.5 17.4 27.7 17.2 27.6 15.95 27.5 15.5 27.4 15.0 28.0 14.9 28.1 14.8 28.2 14.9 28.55 15.0 28.55 14.9 28.85 15.1 29.3 15.1 29.4 15.3 29.7 15.3 29.75 15.35" fill="#a3a298" fill-rule="evenodd" stroke="none"/>
    <path d="M3.6 10.2 L3.6 9.65 8.75 10.95 8.95 11.1 8.95 11.2 9.2 11.2 20.9 14.35 21.15 14.45 22.7 14.9 22.95 15.2 22.85 15.2 22.5 15.2 22.1 15.1 21.45 14.9 21.15 14.9 20.1 14.55 19.45 14.35 19.25 14.35 18.15 13.95 18.05 13.95 17.85 13.95 17.35 13.85 16.7 13.6 14.05 13.0 9.6 11.8 9.2 11.6 8.95 11.6 3.6 10.2" fill="#b59b39" fill-rule="evenodd" stroke="none"/>
    <path d="M26.0 15.95 L26.0 16.15 25.8 15.95 26.0 15.95 M25.6 15.85 L25.45 15.75 25.25 15.85 24.95 15.75 25.15 15.5 25.45 15.4 26.1 15.5 25.6 15.85 M23.35 15.1 L24.65 15.4 24.65 15.5 23.35 15.1" fill="#decf98" fill-rule="evenodd" stroke="none"/>
  </g>
</svg>
