<?xml version="1.0" encoding="UTF-8" standalone="no"?>
<svg xmlns:xlink="http://www.w3.org/1999/xlink" height="26.65px" width="123.1px" xmlns="http://www.w3.org/2000/svg">
  <g transform="matrix(1.0, 0.0, 0.0, 1.0, 63.2, 31.75)">
    <path d="M20.85 -25.4 L21.15 -25.05 21.35 -23.6 21.4 -21.9 21.35 -21.45 21.1 -21.45 21.05 -21.5 21.05 -21.55 20.55 -21.45 18.75 -21.4 17.7 -21.3 Q17.35 -21.3 17.15 -21.85 L17.0 -22.5 16.85 -24.0 17.0 -24.85 17.05 -25.3 18.6 -25.55 19.35 -25.55 20.75 -25.4 20.85 -25.35 20.85 -25.4 M21.8 -25.0 L21.55 -25.8 18.85 -25.9 17.0 -26.05 12.25 -25.9 10.85 -25.6 11.0 -22.95 10.9 -21.8 Q10.9 -21.2 11.35 -21.2 L14.55 -21.0 21.95 -21.25 22.05 -22.6 21.9 -24.2 21.8 -25.0 M22.35 -25.8 L22.3 -25.7 21.9 -25.7 22.25 -24.2 22.35 -22.5 22.25 -21.15 21.7 -20.85 20.15 -20.85 14.55 -20.65 Q10.55 -20.65 10.55 -21.2 L10.7 -22.9 10.5 -25.4 10.6 -25.8 Q10.75 -25.95 11.6 -26.1 L12.4 -26.3 14.9 -26.4 17.15 -26.35 19.25 -26.2 22.35 -25.8 M20.7 -25.0 L20.6 -25.1 19.4 -25.15 18.65 -25.1 17.8 -25.15 17.35 -25.1 17.3 -24.5 17.15 -23.95 17.25 -23.45 17.25 -22.85 17.35 -22.25 17.75 -21.7 20.25 -21.75 20.5 -21.85 20.6 -22.1 20.85 -22.1 21.05 -21.95 21.0 -24.1 20.8 -24.9 20.7 -25.0 M24.1 -25.15 L25.25 -25.75 Q25.6 -25.8 25.65 -25.95 26.75 -26.35 27.4 -26.8 L28.3 -27.15 28.6 -27.35 Q27.55 -27.65 27.55 -27.9 L26.2 -28.2 25.35 -28.4 18.05 -28.4 8.2 -28.25 8.25 -28.2 8.3 -27.5 8.25 -27.2 7.8 -26.9 6.65 -26.5 Q4.8 -25.6 3.6 -25.2 L1.3 -24.15 Q-0.6 -23.4 -1.25 -23.4 L-1.7 -23.5 -2.05 -23.7 -2.45 -23.85 -2.7 -23.85 -3.9 -24.0 -6.2 -24.0 -11.05 -23.85 -16.0 -23.85 -17.8 -23.6 -18.15 -23.45 -18.65 -23.35 -19.35 -23.2 Q-19.95 -22.9 -21.65 -22.75 L-24.1 -22.5 -25.65 -22.35 -27.3 -22.2 -29.15 -21.95 -30.25 -21.8 -34.45 -21.65 -36.7 -21.35 -37.25 -21.35 -37.25 -21.2 -37.6 -21.2 -37.7 -21.4 -38.0 -21.55 -38.1 -21.25 -38.2 -21.1 -38.25 -21.05 -38.05 -20.4 -38.25 -19.8 -38.2 -19.75 -38.25 -19.5 -38.65 -19.35 -39.45 -18.95 Q-40.05 -18.6 -40.35 -18.6 L-40.85 -18.45 -41.35 -18.25 -42.1 -18.05 -43.55 -17.35 -44.0 -17.15 -45.15 -17.05 -45.55 -17.05 -45.4 -16.7 -45.35 -16.0 -45.4 -13.25 -45.35 -12.65 -40.9 -12.85 -34.65 -12.15 -33.8 -11.95 -32.85 -11.65 -32.05 -11.5 -31.15 -11.2 -27.7 -10.45 -26.4 -10.25 -24.9 -9.95 -23.9 -9.65 -23.4 -9.65 -22.6 -9.2 -21.65 -8.95 -20.65 -8.55 -14.95 -7.1 -13.1 -6.65 -12.25 -6.45 -11.3 -6.15 -10.2 -5.95 -8.7 -6.0 -8.35 -6.05 -6.95 -7.1 -6.3 -7.65 -5.85 -8.2 -4.65 -9.3 -4.05 -9.85 -3.6 -10.15 -3.55 -10.25 -3.5 -10.25 -3.45 -10.45 -3.2 -10.45 -3.2 -10.25 -1.55 -10.35 -0.1 -10.45 3.25 -10.25 4.15 -10.15 4.15 -10.2 3.95 -10.35 3.9 -10.45 3.95 -10.6 4.0 -10.6 4.4 -10.85 5.3 -11.2 6.7 -11.9 6.95 -12.05 7.0 -12.1 7.05 -12.1 8.4 -12.6 10.2 -13.1 13.95 -14.15 15.75 -14.75 17.55 -15.1 17.7 -15.1 17.9 -15.15 18.5 -15.2 19.55 -15.45 21.6 -15.7 23.4 -16.0 27.55 -16.55 29.05 -16.8 35.05 -17.0 39.05 -16.95 41.3 -16.75 41.35 -16.75 41.6 -16.65 41.65 -16.85 41.95 -16.55 42.25 -16.25 42.2 -16.1 42.0 -16.15 41.95 -15.65 41.8 -15.2 41.35 -14.8 41.35 -14.75 41.55 -14.6 42.05 -14.1 42.8 -13.2 42.75 -13.05 42.7 -13.05 42.6 -11.6 45.25 -11.55 45.25 -11.4 45.35 -11.4 45.35 -10.85 45.2 -10.25 46.55 -10.4 48.65 -10.6 49.65 -10.55 49.4 -12.0 49.25 -13.55 49.4 -16.35 49.55 -17.3 49.85 -20.75 46.0 -21.0 Q44.95 -20.9 42.65 -20.95 L40.65 -21.05 38.8 -21.1 38.3 -20.7 Q38.05 -20.25 37.65 -20.25 L32.0 -20.4 28.95 -20.55 24.75 -20.6 24.55 -21.15 24.0 -22.25 23.6 -23.15 Q23.25 -24.0 23.25 -24.35 L23.35 -24.85 Q23.8 -24.95 24.1 -25.15 M29.8 -26.9 L29.15 -27.2 29.0 -27.2 Q28.8 -26.95 27.9 -26.65 L26.3 -25.8 25.6 -25.45 24.6 -25.1 23.8 -24.65 23.6 -24.3 23.85 -23.45 24.25 -22.5 24.85 -21.3 24.9 -20.9 25.45 -20.9 29.3 -20.95 30.3 -20.85 32.65 -20.75 33.45 -20.7 36.75 -20.6 37.65 -20.6 37.85 -20.8 38.4 -21.15 37.65 -21.3 36.95 -20.85 36.15 -20.9 34.7 -20.8 Q34.35 -20.8 34.25 -21.15 L34.1 -21.35 34.05 -21.35 33.9 -21.4 33.5 -24.0 33.25 -24.85 33.25 -24.9 32.85 -25.15 32.9 -25.0 33.1 -24.0 Q33.1 -23.2 33.25 -23.0 L33.35 -21.95 Q33.45 -21.45 33.1 -21.35 L33.05 -21.25 32.8 -21.25 26.35 -21.25 25.95 -21.25 25.9 -21.1 Q25.65 -21.05 25.5 -21.35 L25.35 -21.55 25.35 -21.6 25.35 -21.75 25.05 -22.55 24.35 -24.15 24.5 -24.4 24.85 -24.55 28.8 -26.3 29.4 -26.6 29.8 -26.85 29.85 -26.85 29.8 -26.9 M30.3 -26.7 L29.9 -26.45 27.7 -25.45 24.75 -24.05 25.05 -23.45 25.15 -23.1 25.35 -22.75 25.65 -21.85 25.7 -21.7 32.2 -21.6 32.7 -21.55 33.0 -21.75 33.0 -22.05 32.85 -23.7 32.65 -24.45 32.5 -25.4 30.7 -26.55 30.3 -26.7 M45.1 -9.15 L45.15 -9.05 45.1 -8.85 43.5 -9.0 42.7 -8.9 42.55 -8.9 42.55 -8.65 42.65 -8.65 42.65 -8.1 42.5 -7.65 42.45 -7.55 42.6 -7.55 42.6 -7.25 41.65 -6.5 41.0 -6.15 40.8 -6.0 40.55 -5.85 40.4 -5.9 40.4 -5.85 39.8 -5.85 39.15 -5.9 39.15 -5.75 38.9 -5.8 38.85 -5.95 38.8 -6.0 38.25 -5.85 37.1 -5.7 34.95 -5.15 34.9 -5.1 18.3 -5.1 18.3 -5.25 16.5 -5.7 15.65 -5.85 15.0 -6.0 14.6 -6.15 11.45 -6.95 8.25 -7.75 6.4 -8.2 5.35 -8.35 4.1 -8.75 3.8 -8.75 3.8 -9.05 3.9 -9.05 4.0 -9.1 4.7 -9.55 5.05 -9.75 4.6 -9.75 0.1 -10.1 -1.5 -10.0 -3.0 -9.9 -3.1 -9.9 -3.35 -9.9 -4.15 -9.3 -4.4 -9.0 -5.65 -7.95 -6.75 -6.85 -7.75 -6.0 -7.7 -5.9 -7.75 -5.75 -9.8 -5.65 -9.75 -5.55 -9.8 -5.4 -13.35 -6.4 -16.95 -7.3 -21.45 -8.45 -22.4 -8.75 -23.45 -9.15 -25.25 -9.75 -26.85 -9.95 -31.25 -10.9 -34.7 -11.8 -40.8 -12.5 -40.35 -12.5 -41.9 -12.45 -44.35 -12.3 -45.95 -12.3 -50.8 -12.05 -54.35 -11.55 -54.4 -11.4 -56.85 -11.4 -59.7 -11.6 -61.1 -11.7 -61.15 -11.7 Q-61.45 -11.7 -61.45 -11.85 L-61.4 -12.0 -61.3 -12.0 -61.65 -12.5 -61.95 -13.35 -61.5 -13.9 -58.2 -16.8 -57.0 -17.7 -57.5 -17.8 -57.6 -17.7 -58.15 -17.3 -59.6 -16.35 -60.05 -15.85 -60.7 -15.45 -61.35 -14.8 -61.3 -14.7 -61.35 -14.55 -61.6 -14.55 -61.7 -14.55 -61.75 -14.55 -61.95 -14.6 -61.95 -14.7 -62.55 -15.1 -63.2 -15.75 -63.1 -15.9 -62.95 -15.85 -62.95 -28.95 -62.9 -29.0 -62.8 -29.0 -61.3 -30.3 -60.6 -31.05 -60.3 -31.45 -59.7 -31.65 -58.9 -31.6 -59.0 -31.65 -58.05 -31.55 -57.95 -31.75 Q-57.55 -31.65 -57.4 -31.2 L-57.25 -30.75 -57.0 -30.7 -56.95 -30.8 -56.45 -31.25 -56.2 -31.2 -56.2 -31.15 -53.7 -30.85 -52.25 -30.5 -50.15 -29.7 -47.75 -28.55 -45.5 -27.35 -41.65 -24.95 -40.3 -23.75 -39.7 -23.1 -39.2 -22.6 -38.55 -22.9 -38.05 -22.65 -37.8 -22.05 -37.8 -21.85 -37.6 -21.75 -37.4 -21.65 -35.65 -21.8 -34.75 -21.95 -30.45 -22.1 -29.3 -22.25 -24.1 -22.8 -21.5 -23.1 -19.3 -23.55 Q-17.3 -24.25 -15.9 -24.25 L-15.75 -24.15 -3.75 -24.3 -2.6 -24.15 -2.1 -24.35 -1.25 -24.6 -0.5 -24.85 0.35 -25.05 1.7 -25.55 2.9 -26.2 4.05 -26.6 5.3 -27.25 6.55 -27.8 5.15 -28.55 4.25 -28.9 2.35 -29.8 -0.05 -30.6 -0.9 -30.8 Q-1.3 -30.85 -1.3 -31.05 L-1.25 -31.2 -1.0 -31.2 Q2.45 -30.2 3.8 -29.95 L6.35 -29.2 7.45 -28.95 8.2 -28.6 8.95 -28.7 25.1 -28.75 26.95 -28.45 27.85 -28.05 29.35 -27.5 30.9 -26.85 32.45 -25.95 33.65 -25.1 36.0 -23.35 36.4 -22.85 37.1 -22.4 37.7 -21.75 37.85 -21.75 37.85 -21.65 38.35 -21.55 38.65 -21.45 40.4 -21.45 40.75 -21.35 46.95 -21.35 47.95 -21.2 49.9 -21.05 49.9 -21.15 50.1 -21.05 53.4 -20.85 54.05 -20.75 54.1 -20.7 54.55 -20.45 54.9 -20.05 55.2 -19.45 55.25 -19.45 55.25 -19.35 55.35 -19.2 55.35 -19.15 55.45 -18.9 55.4 -18.45 55.35 -16.7 59.2 -16.7 59.25 -16.85 Q59.65 -16.95 59.85 -16.2 L59.9 -15.4 59.85 -14.6 Q59.7 -14.1 59.0 -14.05 L59.0 -13.95 58.55 -13.9 55.35 -13.95 55.35 -12.3 55.3 -12.3 55.35 -12.25 55.3 -12.0 55.4 -12.0 55.4 -11.7 54.35 -10.55 54.1 -10.6 53.25 -10.55 Q53.05 -10.4 52.95 -10.4 L51.4 -10.25 50.45 -10.15 48.65 -10.25 45.2 -9.9 45.2 -9.25 45.1 -9.25 45.15 -9.3 44.95 -9.5 45.0 -11.15 42.75 -11.3 42.6 -11.3 42.6 -10.6 42.5 -10.3 42.45 -9.9 42.6 -9.25 43.5 -9.35 44.85 -9.25 44.85 -9.2 45.1 -9.15 M3.3 -29.65 L4.15 -29.3 5.1 -28.95 6.15 -28.45 6.9 -27.95 7.7 -28.4 7.75 -28.5 7.15 -28.75 6.05 -28.95 3.3 -29.65 M4.35 -26.35 L3.0 -25.85 0.55 -24.8 -2.15 -24.0 -1.15 -23.75 Q-0.5 -23.75 1.2 -24.45 L3.3 -25.45 6.0 -26.55 7.15 -27.05 7.8 -27.2 8.0 -27.55 7.95 -28.0 7.9 -28.1 5.5 -26.95 4.35 -26.35 M14.75 -25.2 L13.55 -25.25 12.5 -25.0 12.1 -24.65 12.1 -24.25 12.0 -23.8 12.1 -23.0 12.15 -22.1 15.6 -21.85 15.85 -21.9 16.05 -24.5 16.05 -25.1 14.75 -25.2 M11.8 -24.8 Q11.8 -25.55 13.95 -25.55 L16.35 -25.2 16.25 -23.0 16.15 -22.25 16.2 -21.85 Q16.2 -21.55 15.75 -21.55 L12.25 -21.75 11.75 -22.05 11.8 -22.4 11.7 -23.8 11.8 -24.8 M14.45 -14.05 Q13.35 -13.55 12.55 -13.35 L10.65 -12.8 7.55 -11.95 8.95 -11.45 9.95 -11.0 10.6 -10.75 10.85 -10.5 11.35 -10.8 12.25 -11.1 13.15 -11.45 14.4 -11.9 15.45 -12.55 16.75 -13.05 18.3 -13.35 20.45 -13.85 22.95 -14.35 26.1 -14.8 28.45 -15.0 29.95 -15.1 30.45 -15.15 33.25 -15.25 35.8 -15.25 37.2 -15.05 38.3 -14.9 38.35 -15.0 38.75 -15.0 38.95 -15.0 39.0 -15.0 40.6 -15.1 41.45 -15.35 41.65 -15.8 41.5 -15.95 Q41.35 -15.95 41.35 -16.1 L41.4 -16.25 41.6 -16.25 41.6 -16.35 41.55 -16.4 41.5 -16.4 41.25 -16.3 41.1 -16.35 41.1 -16.45 39.3 -16.6 35.3 -16.6 30.7 -16.6 29.7 -16.55 29.5 -16.45 26.5 -16.1 25.65 -15.95 24.55 -15.75 23.75 -15.7 22.55 -15.45 18.95 -15.0 17.7 -14.7 17.6 -14.7 16.05 -14.55 14.45 -14.05 M16.7 -12.7 L16.15 -12.4 13.85 -11.35 11.95 -10.7 10.1 -9.7 10.05 -9.55 9.85 -9.55 8.65 -9.4 7.15 -9.2 6.65 -9.2 Q6.4 -9.2 6.4 -9.3 L6.3 -9.45 6.1 -9.5 5.85 -9.6 Q5.65 -9.4 5.05 -9.35 L4.65 -9.05 4.45 -8.95 5.85 -8.6 8.25 -8.1 15.8 -6.15 16.75 -6.0 17.9 -5.65 18.65 -5.5 18.9 -5.4 34.15 -5.4 34.2 -5.45 35.7 -5.65 36.6 -5.95 37.5 -6.15 38.0 -6.2 38.7 -6.35 38.7 -6.4 38.8 -6.35 38.4 -9.8 38.5 -11.25 38.6 -12.4 Q38.6 -13.35 38.75 -13.7 L38.85 -14.65 38.75 -14.65 38.75 -14.5 38.7 -14.45 36.25 -14.9 33.3 -14.9 23.3 -14.1 20.6 -13.5 18.65 -13.05 17.2 -12.85 16.7 -12.7 M9.6 -10.75 L8.7 -11.2 7.75 -11.5 7.2 -11.7 7.1 -11.75 5.75 -11.1 5.45 -10.9 5.05 -10.7 4.4 -10.45 5.25 -10.15 5.6 -10.2 6.05 -9.95 6.65 -9.55 8.2 -9.65 9.6 -9.9 9.85 -9.85 10.2 -10.15 10.55 -10.35 9.6 -10.75 M5.15 -9.8 L5.1 -9.75 5.15 -9.75 5.15 -9.8 M37.3 -21.7 L36.85 -22.2 35.8 -23.05 35.25 -23.45 34.65 -23.95 34.15 -24.35 Q33.85 -24.5 33.65 -24.6 L33.75 -24.35 33.85 -23.85 34.0 -23.4 34.1 -22.5 34.2 -21.7 34.45 -21.45 34.7 -21.15 35.8 -21.15 37.05 -21.25 37.4 -21.5 37.3 -21.7 M39.2 -14.55 L39.2 -14.45 38.7 -9.85 38.9 -8.0 39.15 -6.25 40.45 -6.15 40.45 -6.05 40.8 -6.45 41.4 -6.75 41.95 -7.15 42.1 -7.35 42.15 -7.4 42.15 -7.45 42.1 -7.5 42.1 -7.75 42.15 -8.05 42.1 -8.1 42.1 -9.6 42.4 -13.25 42.35 -13.35 41.75 -13.85 41.4 -14.3 40.95 -14.6 39.6 -14.55 39.2 -14.55 M52.85 -20.6 L51.65 -20.6 50.25 -20.7 50.1 -19.95 49.85 -17.25 Q49.55 -15.45 49.55 -13.55 L49.75 -12.2 50.0 -10.75 49.95 -10.5 50.4 -10.5 51.8 -10.65 53.05 -10.75 53.8 -10.95 54.2 -10.95 54.65 -11.35 54.9 -11.7 54.8 -11.75 54.85 -11.9 55.2 -12.3 55.1 -12.35 55.1 -13.95 54.95 -13.95 54.95 -14.1 54.95 -14.25 55.1 -14.25 55.1 -18.95 55.05 -18.95 54.85 -19.25 54.85 -19.3 54.8 -19.4 54.65 -19.8 Q54.15 -20.15 54.0 -20.45 L53.85 -20.45 52.85 -20.6 M55.35 -16.4 L55.35 -14.25 58.5 -14.25 58.55 -14.4 59.55 -14.6 59.6 -15.4 59.55 -16.1 59.3 -16.35 55.35 -16.4 M-61.6 -13.3 L-61.3 -12.55 -61.1 -12.2 -60.9 -12.0 -58.85 -11.85 -55.0 -11.75 -54.6 -11.7 -54.6 -11.8 -51.3 -12.35 -48.25 -12.65 -48.3 -12.8 -48.2 -13.1 -48.2 -14.0 -48.3 -14.45 -48.2 -15.0 -48.3 -16.8 -48.25 -17.1 -51.4 -17.4 -52.95 -17.6 -56.85 -17.7 -56.8 -17.55 -57.0 -17.35 Q-57.25 -17.05 -57.4 -17.1 L-60.25 -14.4 -60.9 -13.9 -61.6 -13.3 M-56.3 -30.9 L-56.55 -30.6 -56.95 -30.25 -56.95 -19.5 -56.9 -19.45 -56.75 -19.05 -56.25 -18.4 -55.55 -18.7 -54.5 -19.05 -54.05 -19.25 -53.45 -19.5 -52.45 -19.8 -51.25 -20.2 -48.8 -20.7 -46.65 -21.1 -45.75 -21.25 -43.25 -21.45 -42.75 -21.55 -42.55 -21.55 -40.6 -21.7 -39.85 -21.75 -39.45 -22.35 -41.85 -24.6 Q-43.5 -26.0 -45.55 -27.0 L-47.7 -28.15 -48.7 -28.7 -51.2 -29.75 -52.25 -30.15 -53.8 -30.5 -55.7 -30.75 -56.3 -30.9 M-58.8 -31.25 L-59.9 -31.25 -60.15 -31.1 -60.5 -30.7 -61.2 -29.95 -62.0 -29.25 -62.4 -28.85 -62.6 -28.7 -62.6 -28.6 -62.65 -28.25 -62.65 -15.6 -62.3 -15.3 -61.7 -15.0 -61.6 -15.1 -60.95 -15.65 -60.25 -16.15 -60.05 -16.45 -58.95 -17.25 -58.2 -17.65 -57.7 -18.15 -57.5 -18.5 -57.3 -18.55 -57.0 -18.8 -57.35 -19.45 -57.35 -19.6 -57.3 -20.4 -57.3 -30.05 -57.25 -30.3 Q-57.55 -30.3 -57.6 -30.85 L-57.8 -31.25 -58.8 -31.25 M-41.3 -18.6 L-40.7 -18.9 Q-40.0 -18.9 -39.6 -19.3 L-38.85 -19.6 -38.9 -19.65 -38.9 -19.85 -38.55 -20.05 Q-38.4 -20.05 -38.4 -20.4 L-38.5 -20.8 -38.65 -21.2 -39.85 -21.5 -40.45 -21.35 -42.8 -21.2 -44.2 -21.05 -45.8 -20.9 -47.45 -20.65 -49.45 -20.25 -51.3 -19.8 -53.1 -19.2 -53.2 -19.15 -51.2 -18.95 -45.95 -18.25 -44.4 -18.1 -43.15 -18.0 -43.05 -17.95 Q-42.9 -18.0 -42.8 -18.1 L-42.1 -18.45 -41.3 -18.6 M-45.85 -17.05 L-45.95 -17.05 -48.0 -17.1 -47.85 -13.25 -47.9 -12.65 -46.45 -12.7 -45.7 -12.7 -45.7 -14.05 -45.6 -14.6 -45.7 -16.4 -45.85 -17.05 M-43.65 -17.7 L-48.9 -18.35 -53.9 -18.85 -54.6 -18.7 -56.3 -18.1 -51.2 -17.7 -49.95 -17.55 -46.8 -17.45 -45.5 -17.35 -43.65 -17.65 -43.55 -17.7 -43.65 -17.7 M-56.8 -18.15 L-56.85 -18.15 Q-56.95 -18.15 -57.05 -18.25 L-57.25 -18.1 -57.3 -18.05 -56.8 -18.15 M-24.25 -13.15 L-24.15 -12.7 -24.1 -12.2 -23.9 -11.8 -23.45 -11.65 -19.65 -11.55 -19.05 -11.65 Q-18.9 -11.8 -18.9 -12.2 L-18.95 -12.9 -19.15 -13.7 -20.7 -13.9 -23.35 -13.75 Q-24.25 -13.6 -24.25 -13.15 M-23.95 -13.95 L-21.1 -14.25 -18.85 -13.85 Q-18.6 -13.65 -18.6 -12.25 -18.6 -11.65 -18.75 -11.45 L-19.55 -11.2 -23.5 -11.3 -24.05 -11.45 Q-24.3 -11.55 -24.4 -11.95 L-24.55 -13.2 Q-24.55 -13.7 -23.95 -13.95 M-38.2 -21.85 L-38.15 -22.1 Q-38.15 -22.55 -38.55 -22.55 -38.8 -22.55 -39.2 -22.15 L-39.55 -21.75 -38.45 -21.45 -38.2 -21.85 M-13.65 -20.6 L-12.7 -19.8 Q-12.3 -19.45 -12.3 -18.45 -12.3 -17.75 -12.55 -17.0 -12.6 -16.65 -13.1 -16.35 L-13.55 -16.05 -14.05 -15.8 -14.9 -15.8 Q-16.85 -15.8 -17.55 -16.7 -17.9 -17.15 -17.9 -18.05 -17.9 -18.9 -17.4 -19.6 L-16.75 -20.25 Q-16.0 -20.75 -14.65 -20.75 L-13.65 -20.6 M-15.45 -13.2 Q-15.75 -13.15 -15.75 -12.5 L-15.6 -11.2 -11.55 -11.2 Q-10.55 -11.15 -10.65 -12.15 L-10.7 -12.75 -10.55 -13.15 -10.75 -13.35 -13.6 -13.2 -15.45 -13.2 M-12.9 -19.55 Q-13.3 -20.1 -14.35 -20.4 L-16.45 -20.05 -17.05 -19.45 Q-17.6 -18.65 -17.6 -18.1 -17.6 -16.9 -16.7 -16.45 L-14.3 -16.1 -13.85 -16.3 -13.4 -16.55 -12.85 -17.15 -12.65 -18.45 Q-12.65 -19.2 -12.9 -19.55 M-16.05 -12.5 Q-16.05 -13.4 -15.7 -13.4 L-11.75 -13.7 -10.85 -13.65 -10.55 -13.65 -10.3 -13.5 -10.15 -13.1 -10.2 -12.95 -10.35 -12.9 -10.4 -11.85 -10.5 -11.25 -10.65 -11.0 -13.65 -10.85 -15.75 -10.85 -15.9 -11.05 -16.05 -12.5" fill="#000000" fill-rule="evenodd" stroke="none"/>
    <path d="M14.45 -14.05 L16.05 -14.55 17.6 -14.7 17.7 -14.7 18.95 -15.0 22.55 -15.45 23.75 -15.7 24.55 -15.75 25.65 -15.95 26.5 -16.1 29.5 -16.45 29.7 -16.55 30.7 -16.6 35.3 -16.6 39.3 -16.6 41.1 -16.45 41.1 -16.35 41.25 -16.3 41.5 -16.4 41.55 -16.4 41.6 -16.35 41.6 -16.25 41.4 -16.25 41.35 -16.1 Q41.35 -15.95 41.5 -15.95 L41.65 -15.8 41.45 -15.35 40.6 -15.1 39.0 -15.0 38.95 -15.0 38.75 -15.0 38.35 -15.0 38.3 -14.9 37.2 -15.05 35.8 -15.25 33.25 -15.25 30.45 -15.15 29.95 -15.1 28.45 -15.0 26.1 -14.8 22.95 -14.35 20.45 -13.85 18.3 -13.35 16.75 -13.05 15.45 -12.55 14.4 -11.9 13.15 -11.45 12.25 -11.1 11.35 -10.8 10.85 -10.5 10.6 -10.75 9.95 -11.0 8.95 -11.45 7.55 -11.95 10.65 -12.8 12.55 -13.35 Q13.35 -13.55 14.45 -14.05 M-41.3 -18.6 L-42.1 -18.45 -42.8 -18.1 Q-42.9 -18.0 -43.05 -17.95 L-43.15 -18.0 -44.4 -18.1 -45.95 -18.25 -51.2 -18.95 -53.2 -19.15 -53.1 -19.2 -51.3 -19.8 -49.45 -20.25 -47.45 -20.65 -45.8 -20.9 -44.2 -21.05 -42.8 -21.2 -40.45 -21.35 -39.85 -21.5 -38.65 -21.2 -38.5 -20.8 -38.4 -20.4 Q-38.4 -20.05 -38.55 -20.05 L-38.9 -19.85 -38.9 -19.65 -38.85 -19.6 -39.6 -19.3 Q-40.0 -18.9 -40.7 -18.9 L-41.3 -18.6" fill="#a8bf84" fill-rule="evenodd" stroke="none"/>
    <path d="M20.7 -25.0 L20.8 -24.9 21.0 -24.1 21.05 -21.95 20.85 -22.1 20.6 -22.1 20.5 -21.85 20.25 -21.75 17.75 -21.7 17.35 -22.25 17.25 -22.85 17.25 -23.45 17.15 -23.95 17.3 -24.5 17.35 -25.1 17.8 -25.15 18.65 -25.1 19.4 -25.15 20.6 -25.1 20.7 -25.0 M30.3 -26.7 L30.7 -26.55 32.5 -25.4 32.65 -24.45 32.85 -23.7 33.0 -22.05 33.0 -21.75 32.7 -21.55 32.2 -21.6 25.7 -21.7 25.65 -21.85 25.35 -22.75 25.15 -23.1 25.05 -23.45 24.75 -24.05 27.7 -25.45 29.9 -26.45 30.3 -26.7 M14.75 -25.2 L16.05 -25.1 16.05 -24.5 15.85 -21.9 15.6 -21.85 12.15 -22.1 12.1 -23.0 12.0 -23.8 12.1 -24.25 12.1 -24.65 12.5 -25.0 13.55 -25.25 14.75 -25.2 M37.3 -21.7 L37.4 -21.5 37.05 -21.25 35.8 -21.15 34.7 -21.15 34.45 -21.45 34.2 -21.7 34.1 -22.5 34.0 -23.4 33.85 -23.85 33.75 -24.35 33.65 -24.6 Q33.85 -24.5 34.15 -24.35 L34.65 -23.95 35.25 -23.45 35.8 -23.05 36.85 -22.2 37.3 -21.7 M-24.25 -13.15 Q-24.25 -13.6 -23.35 -13.75 L-20.7 -13.9 -19.15 -13.7 -18.95 -12.9 -18.9 -12.2 Q-18.9 -11.8 -19.05 -11.65 L-19.65 -11.55 -23.45 -11.65 -23.9 -11.8 -24.1 -12.2 -24.15 -12.7 -24.25 -13.15 M-12.9 -19.55 Q-12.65 -19.2 -12.65 -18.45 L-12.85 -17.15 -13.4 -16.55 -13.85 -16.3 -14.3 -16.1 -16.7 -16.45 Q-17.6 -16.9 -17.6 -18.1 -17.6 -18.65 -17.05 -19.45 L-16.45 -20.05 -14.35 -20.4 Q-13.3 -20.1 -12.9 -19.55 M-15.45 -13.2 L-13.6 -13.2 -10.75 -13.35 -10.55 -13.15 -10.7 -12.75 -10.65 -12.15 Q-10.55 -11.15 -11.55 -11.2 L-15.6 -11.2 -15.75 -12.5 Q-15.75 -13.15 -15.45 -13.2" fill="#25382b" fill-rule="evenodd" stroke="none"/>
    <path d="M22.35 -25.8 L19.25 -26.2 17.15 -26.35 14.9 -26.4 12.4 -26.3 11.6 -26.1 Q10.75 -25.95 10.6 -25.8 L10.5 -25.4 10.7 -22.9 10.55 -21.2 Q10.55 -20.65 14.55 -20.65 L20.15 -20.85 21.7 -20.85 22.25 -21.15 22.35 -22.5 22.25 -24.2 21.9 -25.7 22.3 -25.7 22.35 -25.8 M24.1 -25.15 Q23.8 -24.95 23.35 -24.85 L23.25 -24.35 Q23.25 -24.0 23.6 -23.15 L24.0 -22.25 24.55 -21.15 24.75 -20.6 28.95 -20.55 32.0 -20.4 37.65 -20.25 Q38.05 -20.25 38.3 -20.7 L38.8 -21.1 40.65 -21.05 42.65 -20.95 Q44.95 -20.9 46.0 -21.0 L49.85 -20.75 49.55 -17.3 49.4 -16.35 49.25 -13.55 49.4 -12.0 49.65 -10.55 48.65 -10.6 46.55 -10.4 45.2 -10.25 45.35 -10.85 45.35 -11.4 45.25 -11.4 45.25 -11.55 42.6 -11.6 42.7 -13.05 42.75 -13.05 42.8 -13.2 42.05 -14.1 41.55 -14.6 41.35 -14.75 41.35 -14.8 41.8 -15.2 41.95 -15.65 42.0 -16.15 42.2 -16.1 42.25 -16.25 41.95 -16.55 41.65 -16.85 41.6 -16.65 41.35 -16.75 41.3 -16.75 39.05 -16.95 35.05 -17.0 29.05 -16.8 27.55 -16.55 23.4 -16.0 21.6 -15.7 19.55 -15.45 18.5 -15.2 17.9 -15.15 17.7 -15.1 17.55 -15.1 15.75 -14.75 13.95 -14.15 10.2 -13.1 8.4 -12.6 7.05 -12.1 7.0 -12.1 6.95 -12.05 6.7 -11.9 5.3 -11.2 4.4 -10.85 4.0 -10.6 3.95 -10.6 3.9 -10.45 3.95 -10.35 4.15 -10.2 4.15 -10.15 3.25 -10.25 -0.1 -10.45 -1.55 -10.35 -3.2 -10.25 -3.2 -10.45 -3.45 -10.45 -3.5 -10.25 -3.55 -10.25 -3.6 -10.15 -4.05 -9.85 -4.65 -9.3 -5.85 -8.2 -6.3 -7.65 -6.95 -7.1 -8.35 -6.05 -8.7 -6.0 -10.2 -5.95 -11.3 -6.15 -12.25 -6.45 -13.1 -6.65 -14.95 -7.1 -20.65 -8.55 -21.65 -8.95 -22.6 -9.2 -23.4 -9.65 -23.9 -9.65 -24.9 -9.95 -26.4 -10.25 -27.7 -10.45 -31.15 -11.2 -32.05 -11.5 -32.85 -11.65 -33.8 -11.95 -34.65 -12.15 -40.9 -12.85 -45.35 -12.65 -45.4 -13.25 -45.35 -16.0 -45.4 -16.7 -45.55 -17.05 -45.15 -17.05 -44.0 -17.15 -43.55 -17.35 -42.1 -18.05 -41.35 -18.25 -40.85 -18.45 -40.35 -18.6 Q-40.05 -18.6 -39.45 -18.95 L-38.65 -19.35 -38.25 -19.5 -38.2 -19.75 -38.25 -19.8 -38.05 -20.4 -38.25 -21.05 -38.2 -21.1 -38.1 -21.25 -38.0 -21.55 -37.7 -21.4 -37.6 -21.2 -37.25 -21.2 -37.25 -21.35 -36.7 -21.35 -34.45 -21.65 -30.25 -21.8 -29.15 -21.95 -27.3 -22.2 -25.65 -22.35 -24.1 -22.5 -21.65 -22.75 Q-19.95 -22.9 -19.35 -23.2 L-18.65 -23.35 -18.15 -23.45 -17.8 -23.6 -16.0 -23.85 -11.05 -23.85 -6.2 -24.0 -3.9 -24.0 -2.7 -23.85 -2.45 -23.85 -2.05 -23.7 -1.7 -23.5 -1.25 -23.4 Q-0.6 -23.4 1.3 -24.15 L3.6 -25.2 Q4.8 -25.6 6.65 -26.5 L7.8 -26.9 8.25 -27.2 8.3 -27.5 8.25 -28.2 8.2 -28.25 18.05 -28.4 25.35 -28.4 26.2 -28.2 27.55 -27.9 Q27.55 -27.65 28.6 -27.35 L28.3 -27.15 27.4 -26.8 Q26.75 -26.35 25.65 -25.95 25.6 -25.8 25.25 -25.75 L24.1 -25.15 M16.7 -12.7 L17.2 -12.85 18.65 -13.05 20.6 -13.5 23.3 -14.1 33.3 -14.9 36.25 -14.9 38.7 -14.45 38.75 -14.5 38.75 -14.65 38.85 -14.65 38.75 -13.7 Q38.6 -13.35 38.6 -12.4 L38.5 -11.25 38.4 -9.8 38.8 -6.35 38.7 -6.4 38.7 -6.35 38.0 -6.2 37.5 -6.15 36.6 -5.95 35.7 -5.65 34.2 -5.45 34.15 -5.4 18.9 -5.4 18.65 -5.5 17.9 -5.65 16.75 -6.0 15.8 -6.15 8.25 -8.1 5.85 -8.6 4.45 -8.95 4.65 -9.05 5.05 -9.35 Q5.65 -9.4 5.85 -9.6 L6.1 -9.5 6.3 -9.45 6.4 -9.3 Q6.4 -9.2 6.65 -9.2 L7.15 -9.2 8.65 -9.4 9.85 -9.55 10.05 -9.55 10.1 -9.7 11.95 -10.7 13.85 -11.35 16.15 -12.4 16.7 -12.7 M-58.8 -31.25 L-57.8 -31.25 -57.6 -30.85 Q-57.55 -30.3 -57.25 -30.3 L-57.3 -30.05 -57.3 -20.4 -57.35 -19.6 -57.35 -19.45 -57.0 -18.8 -57.3 -18.55 -57.5 -18.5 -57.7 -18.15 -58.2 -17.65 -58.95 -17.25 -60.05 -16.45 -60.25 -16.15 -60.95 -15.65 -61.6 -15.1 -61.7 -15.0 -62.3 -15.3 -62.65 -15.6 -62.65 -28.25 -62.6 -28.6 -62.6 -28.7 -62.4 -28.85 -62.0 -29.25 -61.2 -29.95 -60.5 -30.7 -60.15 -31.1 -59.9 -31.25 -58.8 -31.25 M-56.3 -30.9 L-55.7 -30.75 -53.8 -30.5 -52.25 -30.15 -51.2 -29.75 -48.7 -28.7 -47.7 -28.15 -45.55 -27.0 Q-43.5 -26.0 -41.85 -24.6 L-39.45 -22.35 -39.85 -21.75 -40.6 -21.7 -42.55 -21.55 -42.75 -21.55 -43.25 -21.45 -45.75 -21.25 -46.65 -21.1 -48.8 -20.7 -51.25 -20.2 -52.45 -19.8 -53.45 -19.5 -54.05 -19.25 -54.5 -19.05 -55.55 -18.7 -56.25 -18.4 -56.75 -19.05 -56.9 -19.45 -56.95 -19.5 -56.95 -30.25 -56.55 -30.6 -56.3 -30.9 M-61.6 -13.3 L-60.9 -13.9 -60.25 -14.4 -57.4 -17.1 Q-57.25 -17.05 -57.0 -17.35 L-56.8 -17.55 -56.85 -17.7 -52.95 -17.6 -51.4 -17.4 -48.25 -17.1 -48.3 -16.8 -48.2 -15.0 -48.3 -14.45 -48.2 -14.0 -48.2 -13.1 -48.3 -12.8 -48.25 -12.65 -51.3 -12.35 -54.6 -11.8 -54.6 -11.7 -55.0 -11.75 -58.85 -11.85 -60.9 -12.0 -61.1 -12.2 -61.3 -12.55 -61.6 -13.3 M-23.95 -13.95 Q-24.55 -13.7 -24.55 -13.2 L-24.4 -11.95 Q-24.3 -11.55 -24.05 -11.45 L-23.5 -11.3 -19.55 -11.2 -18.75 -11.45 Q-18.6 -11.65 -18.6 -12.25 -18.6 -13.65 -18.85 -13.85 L-21.1 -14.25 -23.95 -13.95 M-13.65 -20.6 L-14.65 -20.75 Q-16.0 -20.75 -16.75 -20.25 L-17.4 -19.6 Q-17.9 -18.9 -17.9 -18.05 -17.9 -17.15 -17.55 -16.7 -16.85 -15.8 -14.9 -15.8 L-14.05 -15.8 -13.55 -16.05 -13.1 -16.35 Q-12.6 -16.65 -12.55 -17.0 -12.3 -17.75 -12.3 -18.45 -12.3 -19.45 -12.7 -19.8 L-13.65 -20.6 M-16.05 -12.5 L-15.9 -11.05 -15.75 -10.85 -13.65 -10.85 -10.65 -11.0 -10.5 -11.25 -10.4 -11.85 -10.35 -12.9 -10.2 -12.95 -10.15 -13.1 -10.3 -13.5 -10.55 -13.65 -10.85 -13.65 -11.75 -13.7 -15.7 -13.4 Q-16.05 -13.4 -16.05 -12.5" fill="url(#gradient0)" fill-rule="evenodd" stroke="none"/>
    <path d="M21.8 -25.0 L21.9 -24.2 22.05 -22.6 21.95 -21.25 14.55 -21.0 11.35 -21.2 Q10.9 -21.2 10.9 -21.8 L11.0 -22.95 10.85 -25.6 12.25 -25.9 17.0 -26.05 18.85 -25.9 21.55 -25.8 21.8 -25.0 M20.85 -25.4 L20.85 -25.35 20.75 -25.4 19.35 -25.55 18.6 -25.55 17.05 -25.3 17.0 -24.85 16.85 -24.0 17.0 -22.5 17.15 -21.85 Q17.35 -21.3 17.7 -21.3 L18.75 -21.4 20.55 -21.45 21.05 -21.55 21.05 -21.5 21.1 -21.45 21.35 -21.45 21.4 -21.9 21.35 -23.6 21.15 -25.05 20.85 -25.4 M11.8 -24.8 L11.7 -23.8 11.8 -22.4 11.75 -22.05 12.25 -21.75 15.75 -21.55 Q16.2 -21.55 16.2 -21.85 L16.15 -22.25 16.25 -23.0 16.35 -25.2 13.95 -25.55 Q11.8 -25.55 11.8 -24.8" fill="url(#gradient1)" fill-rule="evenodd" stroke="none"/>
    <path d="M29.8 -26.85 L29.4 -26.6 28.8 -26.3 24.85 -24.55 24.5 -24.4 24.35 -24.15 25.05 -22.55 25.35 -21.75 25.35 -21.6 25.35 -21.55 25.5 -21.35 Q25.65 -21.05 25.9 -21.1 L25.95 -21.25 26.35 -21.25 32.8 -21.25 33.05 -21.25 33.1 -21.35 Q33.45 -21.45 33.35 -21.95 L33.25 -23.0 Q33.1 -23.2 33.1 -24.0 L32.9 -25.0 32.85 -25.15 33.25 -24.9 33.25 -24.85 33.5 -24.0 33.9 -21.4 34.05 -21.35 34.1 -21.35 34.25 -21.15 Q34.35 -20.8 34.7 -20.8 L36.15 -20.9 36.95 -20.85 37.65 -21.3 38.4 -21.15 37.85 -20.8 37.65 -20.6 36.75 -20.6 33.45 -20.7 32.65 -20.75 30.3 -20.85 29.3 -20.95 25.45 -20.9 24.9 -20.9 24.85 -21.3 24.25 -22.5 23.85 -23.45 23.6 -24.3 23.8 -24.65 24.6 -25.1 25.6 -25.45 26.3 -25.8 27.9 -26.65 Q28.8 -26.95 29.0 -27.2 L29.15 -27.2 29.8 -26.9 29.8 -26.85" fill="url(#gradient2)" fill-rule="evenodd" stroke="none"/>
    <path d="M4.35 -26.35 L5.5 -26.95 7.9 -28.1 7.95 -28.0 8.0 -27.55 7.8 -27.2 7.15 -27.05 6.0 -26.55 3.3 -25.45 1.2 -24.45 Q-0.5 -23.75 -1.15 -23.75 L-2.15 -24.0 0.55 -24.8 3.0 -25.85 4.35 -26.35" fill="url(#gradient3)" fill-rule="evenodd" stroke="none"/>
    <path d="M3.3 -29.65 L6.05 -28.95 7.15 -28.75 7.75 -28.5 7.7 -28.4 6.9 -27.95 6.15 -28.45 5.1 -28.95 4.15 -29.3 3.3 -29.65" fill="url(#gradient4)" fill-rule="evenodd" stroke="none"/>
    <path d="M9.6 -10.75 L10.55 -10.35 10.2 -10.15 9.85 -9.85 9.6 -9.9 8.2 -9.65 6.65 -9.55 6.05 -9.95 5.6 -10.2 5.25 -10.15 4.4 -10.45 5.05 -10.7 5.45 -10.9 5.75 -11.1 7.1 -11.75 7.2 -11.7 7.75 -11.5 8.7 -11.2 9.6 -10.75" fill="url(#gradient5)" fill-rule="evenodd" stroke="none"/>
    <path d="M39.2 -14.55 L39.6 -14.55 40.95 -14.6 41.4 -14.3 41.75 -13.85 42.35 -13.35 42.4 -13.25 42.1 -9.6 42.1 -8.1 42.15 -8.05 42.1 -7.75 42.1 -7.5 42.15 -7.45 42.15 -7.4 42.1 -7.35 41.95 -7.15 41.4 -6.75 40.8 -6.45 40.45 -6.05 40.45 -6.15 39.15 -6.25 38.9 -8.0 38.7 -9.85 39.2 -14.45 39.2 -14.55" fill="url(#gradient6)" fill-rule="evenodd" stroke="none"/>
    <path d="M52.85 -20.6 L53.85 -20.45 54.0 -20.45 Q54.15 -20.15 54.65 -19.8 L54.8 -19.4 54.85 -19.3 54.85 -19.25 55.05 -18.95 55.1 -18.95 55.1 -14.25 54.95 -14.25 54.95 -14.1 54.95 -13.95 55.1 -13.95 55.1 -12.35 55.2 -12.3 54.85 -11.9 54.8 -11.75 54.9 -11.7 54.65 -11.35 54.2 -10.95 53.8 -10.95 53.05 -10.75 51.8 -10.65 50.4 -10.5 49.95 -10.5 50.0 -10.75 49.75 -12.2 49.55 -13.55 Q49.55 -15.45 49.85 -17.25 L50.1 -19.95 50.25 -20.7 51.65 -20.6 52.85 -20.6" fill="url(#gradient7)" fill-rule="evenodd" stroke="none"/>
    <path d="M55.35 -16.4 L59.3 -16.35 59.55 -16.1 59.6 -15.4 59.55 -14.6 58.55 -14.4 58.5 -14.25 55.35 -14.25 55.35 -16.4" fill="url(#gradient8)" fill-rule="evenodd" stroke="none"/>
    <path d="M45.1 -9.15 L44.85 -9.2 44.85 -9.25 44.85 -9.45 44.9 -9.5 44.95 -9.5 45.15 -9.3 45.1 -9.25 45.1 -9.15" fill="url(#gradient9)" fill-rule="evenodd" stroke="none"/>
    <path d="M44.85 -9.25 L43.5 -9.35 42.6 -9.25 42.45 -9.9 42.5 -10.3 42.6 -10.6 42.6 -11.3 42.75 -11.3 45.0 -11.15 44.95 -9.5 44.9 -9.5 44.85 -9.45 44.85 -9.25" fill="url(#gradient10)" fill-rule="evenodd" stroke="none"/>
    <path d="M-45.85 -17.05 L-45.7 -16.4 -45.6 -14.6 -45.7 -14.05 -45.7 -12.7 -46.45 -12.7 -47.9 -12.65 -47.85 -13.25 -48.0 -17.1 -45.95 -17.05 -45.85 -17.05" fill="url(#gradient11)" fill-rule="evenodd" stroke="none"/>
    <path d="M-43.65 -17.65 L-45.5 -17.35 -46.8 -17.45 -49.95 -17.55 -51.2 -17.7 -56.3 -18.1 -54.6 -18.7 -53.9 -18.85 -48.9 -18.35 -43.65 -17.7 -43.65 -17.65" fill="url(#gradient12)" fill-rule="evenodd" stroke="none"/>
    <path d="M-38.2 -21.85 L-38.45 -21.45 -39.55 -21.75 -39.2 -22.15 Q-38.8 -22.55 -38.55 -22.55 -38.15 -22.55 -38.15 -22.1 L-38.2 -21.85" fill="url(#gradient13)" fill-rule="evenodd" stroke="none"/>
  </g>
  <defs>
    <linearGradient gradientTransform="matrix(0.0, 0.0137, 0.0582, 0.0, 2.15, -17.2)" gradientUnits="userSpaceOnUse" id="gradient0" spreadMethod="pad" x1="-819.2" x2="819.2">
      <stop offset="0.0" stop-color="#84a552"/>
      <stop offset="0.2901960784313726" stop-color="#526633"/>
      <stop offset="0.34509803921568627" stop-color="#8cad5a"/>
      <stop offset="0.4627450980392157" stop-color="#769449"/>
      <stop offset="0.8352941176470589" stop-color="#29331a"/>
      <stop offset="1.0" stop-color="#303f1f"/>
    </linearGradient>
    <linearGradient gradientTransform="matrix(-4.0E-4, -0.0034, -0.0068, 7.0E-4, 16.35, -23.5)" gradientUnits="userSpaceOnUse" id="gradient1" spreadMethod="pad" x1="-819.2" x2="819.2">
      <stop offset="0.00784313725490196" stop-color="#373737"/>
      <stop offset="1.0" stop-color="#aaaaaa"/>
    </linearGradient>
    <linearGradient gradientTransform="matrix(0.0, -0.004, -0.009, 0.0, 31.0, -23.9)" gradientUnits="userSpaceOnUse" id="gradient2" spreadMethod="pad" x1="-819.2" x2="819.2">
      <stop offset="0.00784313725490196" stop-color="#373737"/>
      <stop offset="1.0" stop-color="#aaaaaa"/>
    </linearGradient>
    <linearGradient gradientTransform="matrix(0.0, -0.0027, -0.0062, 0.0, 2.95, -25.9)" gradientUnits="userSpaceOnUse" id="gradient3" spreadMethod="pad" x1="-819.2" x2="819.2">
      <stop offset="0.00784313725490196" stop-color="#373737"/>
      <stop offset="1.0" stop-color="#aaaaaa"/>
    </linearGradient>
    <linearGradient gradientTransform="matrix(-4.0E-4, -0.0015, -0.0024, 6.0E-4, 5.6, -28.9)" gradientUnits="userSpaceOnUse" id="gradient4" spreadMethod="pad" x1="-819.2" x2="819.2">
      <stop offset="0.00784313725490196" stop-color="#373737"/>
      <stop offset="1.0" stop-color="#aaaaaa"/>
    </linearGradient>
    <linearGradient gradientTransform="matrix(3.0E-4, -0.0013, -0.0035, -9.0E-4, 7.55, -10.45)" gradientUnits="userSpaceOnUse" id="gradient5" spreadMethod="pad" x1="-819.2" x2="819.2">
      <stop offset="0.00784313725490196" stop-color="#373737"/>
      <stop offset="1.0" stop-color="#aaaaaa"/>
    </linearGradient>
    <linearGradient gradientTransform="matrix(0.0, -0.0052, -0.0023, 0.0, 40.55, -10.3)" gradientUnits="userSpaceOnUse" id="gradient6" spreadMethod="pad" x1="-819.2" x2="819.2">
      <stop offset="0.00784313725490196" stop-color="#373737"/>
      <stop offset="1.0" stop-color="#aaaaaa"/>
    </linearGradient>
    <linearGradient gradientTransform="matrix(0.0, -0.0062, -0.0034, 0.0, 52.4, -15.6)" gradientUnits="userSpaceOnUse" id="gradient7" spreadMethod="pad" x1="-819.2" x2="819.2">
      <stop offset="0.00784313725490196" stop-color="#373737"/>
      <stop offset="1.0" stop-color="#aaaaaa"/>
    </linearGradient>
    <linearGradient gradientTransform="matrix(0.0, -0.0013, -0.0026, 0.0, 57.5, -15.3)" gradientUnits="userSpaceOnUse" id="gradient8" spreadMethod="pad" x1="-819.2" x2="819.2">
      <stop offset="0.00784313725490196" stop-color="#373737"/>
      <stop offset="1.0" stop-color="#aaaaaa"/>
    </linearGradient>
    <linearGradient gradientTransform="matrix(0.0, -2.0E-4, -2.0E-4, 0.0, 45.05, -9.3)" gradientUnits="userSpaceOnUse" id="gradient9" spreadMethod="pad" x1="-819.2" x2="819.2">
      <stop offset="0.00784313725490196" stop-color="#373737"/>
      <stop offset="1.0" stop-color="#aaaaaa"/>
    </linearGradient>
    <linearGradient gradientTransform="matrix(0.0, -0.0013, -0.0016, 0.0, 43.75, -10.25)" gradientUnits="userSpaceOnUse" id="gradient10" spreadMethod="pad" x1="-819.2" x2="819.2">
      <stop offset="0.00784313725490196" stop-color="#373737"/>
      <stop offset="1.0" stop-color="#aaaaaa"/>
    </linearGradient>
    <linearGradient gradientTransform="matrix(0.0, -0.0026, -0.0015, 0.0, -46.8, -15.55)" gradientUnits="userSpaceOnUse" id="gradient11" spreadMethod="pad" x1="-819.2" x2="819.2">
      <stop offset="0.00784313725490196" stop-color="#373737"/>
      <stop offset="1.0" stop-color="#aaaaaa"/>
    </linearGradient>
    <linearGradient gradientTransform="matrix(-0.0073, -0.002, -5.0E-4, 0.0017, -49.95, -17.85)" gradientUnits="userSpaceOnUse" id="gradient12" spreadMethod="pad" x1="-819.2" x2="819.2">
      <stop offset="0.00784313725490196" stop-color="#373737"/>
      <stop offset="1.0" stop-color="#aaaaaa"/>
    </linearGradient>
    <linearGradient gradientTransform="matrix(4.0E-4, -6.0E-4, -6.0E-4, -3.0E-4, -38.75, -22.0)" gradientUnits="userSpaceOnUse" id="gradient13" spreadMethod="pad" x1="-819.2" x2="819.2">
      <stop offset="0.00784313725490196" stop-color="#373737"/>
      <stop offset="1.0" stop-color="#aaaaaa"/>
    </linearGradient>
  </defs>
</svg>
