<?xml version="1.0" encoding="UTF-8" standalone="no"?>
<svg xmlns:xlink="http://www.w3.org/1999/xlink" height="73.05px" width="72.1px" xmlns="http://www.w3.org/2000/svg">
  <g transform="matrix(1.0, 0.0, 0.0, 1.0, 36.25, 36.05)">
    <path d="M0.55 -35.35 L1.6 -35.45 0.65 -35.5 0.55 -35.35 M3.85 -32.75 L3.75 -33.2 3.8 -33.35 -0.5 -33.5 -1.75 -33.55 -1.8 -33.75 -1.9 -34.25 -1.8 -34.5 -1.9 -34.7 -2.5 -35.75 5.25 -35.5 Q17.0 -34.85 26.25 -24.7 29.8 -20.8 32.0 -16.5 34.0 -12.55 34.0 -10.15 34.0 -9.3 34.55 -8.1 35.1 -6.8 35.85 -6.4 L35.5 -6.15 35.5 -6.0 Q35.5 -5.55 34.2 -4.6 32.75 -3.5 31.75 -3.5 31.4 -3.5 31.35 -3.75 L31.0 -4.0 Q25.25 -1.5 24.5 -1.5 L22.8 -0.45 Q21.65 0.6 20.3 0.6 16.85 0.6 16.75 -0.75 14.55 1.5 14.0 1.5 12.6 1.5 12.1 0.85 L11.75 0.0 9.25 1.75 Q8.75 1.75 8.2 1.15 L7.75 0.5 3.4 1.25 -0.55 2.6 -0.6 2.65 -0.75 2.65 -1.25 2.65 -1.35 2.45 -1.55 2.3 -2.1 2.65 -6.25 5.5 Q-6.75 6.05 -7.6 8.9 L-8.5 11.5 Q-9.9 11.5 -10.75 10.5 L-11.9 9.15 -12.0 9.15 Q-11.9 9.5 -12.1 10.1 -12.4 10.85 -13.05 10.85 -13.8 10.85 -14.5 10.15 -14.9 10.95 -13.65 13.1 -12.25 15.55 -12.25 16.3 L-12.3 16.75 -12.3 16.85 -12.75 16.9 Q-13.5 16.9 -14.35 15.6 -15.35 14.0 -16.0 13.6 L-13.7 17.25 Q-11.9 19.85 -12.0 21.5 L-11.9 21.6 -12.25 21.65 Q-13.05 21.65 -13.65 21.15 L-14.5 20.25 -14.65 20.25 Q-13.15 23.1 -9.25 25.9 L-9.25 26.1 -10.2 26.25 -11.3 26.1 Q-7.95 28.9 -2.5 31.65 1.7 33.75 6.45 35.5 L7.05 35.5 Q7.45 35.5 7.55 35.65 L7.65 35.9 7.65 35.95 8.9 36.35 9.05 36.7 8.75 36.9 5.4 36.9 2.5 37.0 -4.25 36.55 -7.8 35.95 -7.95 35.8 Q-17.65 33.45 -25.2 26.5 -36.0 16.6 -36.0 4.05 L-36.0 3.8 -36.25 3.65 -35.9 2.95 -35.5 2.4 -35.4 2.75 -34.5 2.65 -32.6 2.8 -31.35 2.9 Q-30.4 2.9 -29.85 3.35 -29.3 3.75 -29.05 3.75 L-28.35 2.75 Q-27.7 1.9 -26.75 1.9 -26.25 1.9 -25.8 2.4 L-25.3 3.0 -24.85 2.15 Q-24.5 1.6 -24.0 1.6 L-23.0 2.25 Q-22.8 2.25 -22.15 1.7 -21.55 1.1 -21.0 1.1 -20.6 1.1 -20.2 1.55 -19.85 2.0 -19.25 2.0 L-17.0 1.1 Q-16.8 1.1 -16.2 1.45 L-15.5 1.75 -14.0 1.45 -13.25 1.1 Q-12.3 1.1 -11.65 1.7 L-10.8 2.25 -9.6 1.95 -9.0 1.6 Q-8.6 1.6 -8.35 1.85 L-8.05 2.25 Q-7.65 2.05 -7.0 0.9 -6.35 -0.25 -5.75 -0.5 -5.1 -0.25 -4.75 0.55 L-4.3 1.75 -3.55 0.3 Q-3.05 -0.75 -2.5 -1.0 L-1.4 0.35 -1.4 0.4 0.0 -0.75 0.35 -0.65 0.5 -0.25 0.5 -0.05 1.0 -0.3 Q1.35 -0.6 1.35 0.0 1.35 0.4 0.05 1.95 L0.25 1.95 Q1.3 2.0 1.95 1.5 L1.75 1.5 1.5 1.25 1.4 0.85 2.65 0.55 2.75 0.25 Q3.3 -1.25 4.4 -1.9 5.8 -2.75 7.05 -4.6 8.05 -6.05 8.75 -6.05 L10.35 -5.6 11.1 -5.0 10.6 -9.65 10.65 -11.0 10.75 -11.1 Q10.85 -11.25 11.25 -11.25 11.7 -11.25 11.9 -10.7 L12.15 -9.75 13.75 -10.15 Q13.55 -11.5 11.95 -13.85 9.9 -16.95 9.15 -18.55 L9.25 -18.65 9.75 -18.75 13.1 -17.25 Q16.65 -15.75 18.0 -15.5 17.9 -15.8 17.95 -16.45 L18.0 -17.5 17.35 -19.1 Q16.65 -20.4 16.65 -20.75 L16.85 -21.25 17.15 -21.3 Q16.65 -22.1 13.4 -24.9 L13.55 -25.35 14.1 -25.5 Q15.25 -25.5 17.9 -23.85 L20.75 -22.0 Q19.0 -25.3 15.85 -27.9 11.85 -31.25 6.15 -33.0 5.65 -32.0 5.0 -32.0 4.2 -32.0 3.85 -32.75 M3.0 -30.0 Q2.6 -29.35 0.55 -28.25 L-3.05 -26.25 -0.25 -25.55 Q1.75 -25.15 1.75 -24.5 1.75 -24.05 1.05 -23.55 L0.0 -22.75 Q2.6 -21.35 2.6 -19.9 2.6 -19.1 1.7 -18.45 L0.65 -17.6 0.85 -17.5 0.0 -16.4 Q0.0 -16.1 0.55 -15.7 L1.5 -15.15 1.5 -14.9 Q1.5 -14.6 0.25 -13.85 L-1.3 -12.9 0.75 -15.0 Q0.15 -15.05 -0.35 -15.6 L-0.75 -16.4 -0.3 -17.05 -0.4 -17.4 Q-0.4 -17.95 0.1 -18.45 L1.35 -20.0 -0.25 -21.5 -1.5 -22.8 -1.05 -23.15 Q-0.45 -23.5 0.0 -24.25 L-3.35 -25.1 Q-4.5 -25.3 -4.5 -26.25 -4.5 -27.0 -2.15 -28.0 0.5 -29.2 1.0 -29.8 L-2.75 -29.9 Q-4.8 -29.7 -13.5 -27.0 L-14.75 -27.0 -14.85 -26.95 -15.0 -27.4 Q-15.0 -28.7 -7.3 -34.75 -7.05 -35.15 -7.05 -34.5 -7.05 -33.4 -9.8 -31.05 L-13.3 -28.25 -13.5 -28.05 -8.05 -29.95 Q-4.65 -31.0 -0.75 -31.0 L2.0 -30.65 3.0 -30.0 M11.0 31.75 Q13.75 31.7 14.15 32.2 L15.0 32.75 14.25 33.5 Q10.15 33.5 8.6 32.4 9.0 31.4 13.4 28.65 3.15 28.7 1.15 27.75 0.45 26.5 -1.4 25.85 -1.05 25.5 -0.15 25.25 0.75 24.95 1.0 24.65 0.25 24.05 -1.65 22.95 -3.35 22.0 -3.8 21.5 L-2.75 20.4 -4.8 19.1 Q-5.55 18.5 -5.55 17.95 -5.55 17.5 -4.95 16.6 -4.4 15.7 -4.5 14.65 L-4.05 14.65 Q-3.8 15.0 -3.8 15.65 -3.8 16.25 -4.75 17.9 L-3.7 19.0 -1.8 20.1 -2.1 20.7 Q-2.4 21.25 -2.8 21.4 L0.75 23.25 Q1.9 23.75 1.9 24.75 L1.4 25.45 0.65 25.85 0.4 26.0 Q6.9 27.4 12.6 27.45 L14.6 27.65 Q15.1 27.85 15.1 28.75 15.1 29.25 13.7 30.15 L11.6 31.5 11.0 31.75 M-2.5 0.35 L-2.85 1.55 -2.25 1.1 -2.5 0.35 M-13.45 23.7 L-13.55 23.75 -13.4 23.75 -13.45 23.7 M-13.15 20.25 L-13.25 20.25 -13.15 20.25" fill="#000000" fill-rule="evenodd" stroke="none"/>
  </g>
</svg>
