<?xml version="1.0" encoding="UTF-8" standalone="no"?>
<svg xmlns:xlink="http://www.w3.org/1999/xlink" height="34.0px" width="34.0px" xmlns="http://www.w3.org/2000/svg">
  <g transform="matrix(1.0, 0.0, 0.0, 1.0, 0.5, 0.5)">
    <path d="M33.0 5.0 L28.0 5.0 28.0 0.0 33.0 0.0 33.0 5.0 M5.0 5.0 L0.0 5.0 0.0 0.0 5.0 0.0 5.0 5.0 M5.0 33.0 L0.0 33.0 0.0 28.0 5.0 28.0 5.0 33.0 M33.0 28.0 L33.0 33.0 28.0 33.0 28.0 28.0 33.0 28.0" fill="#e30202" fill-rule="evenodd" stroke="none"/>
    <path d="M33.0 5.0 L28.0 5.0 28.0 0.0 33.0 0.0 33.0 5.0 M5.0 5.0 L0.0 5.0 0.0 0.0 5.0 0.0 5.0 5.0 M5.0 33.0 L0.0 33.0 0.0 28.0 5.0 28.0 5.0 33.0 M33.0 28.0 L33.0 33.0 28.0 33.0 28.0 28.0 33.0 28.0" fill="none" stroke="#000000" stroke-linecap="round" stroke-linejoin="round" stroke-width="1.0"/>
  </g>
</svg>
