<?xml version="1.0" encoding="UTF-8" standalone="no"?>
<svg xmlns:xlink="http://www.w3.org/1999/xlink" height="42.25px" width="60.9px" xmlns="http://www.w3.org/2000/svg">
  <g transform="matrix(1.0, 0.0, 0.0, 1.0, 30.45, 21.1)">
    <path d="M13.65 -17.65 L17.35 -16.65 18.3 -16.4 Q21.85 -15.65 24.65 -13.55 L25.85 -12.45 26.1 -12.2 Q27.85 -10.5 27.35 -7.85 L26.5 -4.45 Q26.0 -2.85 26.15 -1.25 26.3 0.9 26.6 3.05 L26.6 3.55 Q27.5 5.0 28.05 6.6 L28.7 8.25 29.7 10.75 Q30.6 13.15 30.45 15.6 L29.9 18.3 Q29.55 19.45 28.75 20.3 28.3 20.85 27.55 21.0 L26.3 21.15 25.55 21.0 24.1 20.15 Q21.5 18.45 20.15 15.65 L19.0 13.3 18.2 11.65 17.05 9.55 14.65 5.05 Q13.4 3.95 11.8 3.95 L11.0 4.35 10.05 5.1 Q9.15 6.15 8.4 7.5 L7.75 8.5 6.35 10.55 Q5.15 12.2 3.2 12.85 L2.3 13.05 0.15 13.05 0.15 12.85 -0.15 12.85 -0.15 13.05 -2.3 13.05 -3.2 12.85 Q-5.15 12.2 -6.35 10.55 L-7.75 8.5 -8.4 7.5 Q-9.15 6.15 -10.05 5.1 L-11.0 4.35 -11.8 3.95 Q-13.4 3.95 -14.65 5.05 L-17.05 9.55 -18.2 11.65 -19.0 13.3 -20.15 15.65 Q-21.5 18.45 -24.1 20.15 L-25.55 21.0 -26.3 21.15 -27.55 21.0 Q-28.3 20.85 -28.75 20.3 -29.55 19.45 -29.9 18.3 L-30.45 15.6 Q-30.6 13.15 -29.7 10.75 L-28.7 8.25 -28.05 6.6 Q-27.5 5.0 -26.6 3.55 L-26.6 3.05 Q-26.3 0.9 -26.15 -1.25 -26.0 -2.85 -26.5 -4.45 L-27.35 -7.85 Q-27.85 -10.5 -26.1 -12.2 L-25.85 -12.45 -24.65 -13.55 Q-21.85 -15.65 -18.3 -16.4 L-17.35 -16.65 -13.65 -17.65 -8.95 -18.9 -6.45 -19.65 -3.55 -20.3 -0.65 -20.9 Q-0.15 -21.25 0.45 -20.9 L3.55 -20.3 6.45 -19.65 8.95 -18.9 13.65 -17.65" fill="#000000" fill-rule="evenodd" stroke="none"/>
    <path d="M-19.1 -3.6 L-19.3 -3.1 -19.8 -2.5 -20.2 -2.6 Q-21.4 -2.9 -21.15 -2.45 L-20.95 -2.35 -20.95 -2.3 -20.65 -1.85 Q-19.15 -1.65 -18.8 -3.25 L-19.1 -3.75 -19.1 -3.6 M-16.8 -6.5 L-17.2 -6.6 Q-18.4 -6.9 -18.15 -6.45 L-17.95 -6.35 -17.95 -6.3 -17.65 -5.85 Q-16.15 -5.65 -15.8 -7.25 L-16.1 -7.75 -16.1 -7.6 -16.3 -7.1 -16.8 -6.5 M-21.95 -3.4 Q-21.9 -4.1 -21.5 -4.5 L-20.4 -5.15 Q-19.65 -5.4 -19.05 -4.75 L-18.55 -4.2 -18.45 -3.85 Q-18.4 -3.4 -18.5 -3.0 -18.7 -1.65 -19.9 -1.35 L-20.9 -1.55 -21.95 -2.35 -21.95 -3.4 M-22.1 -7.75 L-22.1 -7.6 -22.3 -7.1 -22.8 -6.5 -23.2 -6.6 Q-24.4 -6.9 -24.15 -6.45 L-23.95 -6.35 -23.95 -6.3 -23.65 -5.85 Q-22.15 -5.65 -21.8 -7.25 L-22.1 -7.75 M-23.4 -9.15 Q-22.65 -9.4 -22.05 -8.75 L-21.55 -8.2 -21.45 -7.85 Q-21.4 -7.4 -21.5 -7.0 -21.7 -5.65 -22.9 -5.35 L-23.9 -5.55 -24.95 -6.35 -24.95 -7.4 Q-24.9 -8.1 -24.5 -8.5 -24.15 -8.9 -23.4 -9.15 M-18.5 -8.5 Q-18.15 -8.9 -17.4 -9.15 -16.65 -9.4 -16.05 -8.75 L-15.55 -8.2 -15.45 -7.85 Q-15.4 -7.4 -15.5 -7.0 -15.7 -5.65 -16.9 -5.35 L-17.9 -5.55 -18.95 -6.35 -18.95 -7.4 Q-18.9 -8.1 -18.5 -8.5 M-19.1 -11.75 L-19.1 -11.6 -19.3 -11.1 -19.8 -10.5 -20.2 -10.6 Q-21.4 -10.9 -21.15 -10.45 L-20.95 -10.35 -20.95 -10.3 -20.65 -9.85 Q-19.15 -9.65 -18.8 -11.25 L-19.1 -11.75 M-18.55 -12.2 L-18.45 -11.85 Q-18.4 -11.4 -18.5 -11.0 -18.7 -9.65 -19.9 -9.35 L-20.9 -9.55 -21.95 -10.35 -21.95 -11.4 Q-21.9 -12.1 -21.5 -12.5 L-20.4 -13.15 Q-19.65 -13.4 -19.05 -12.75 L-18.55 -12.2 M21.2 -2.5 L20.8 -2.6 Q19.6 -2.9 19.85 -2.45 L20.05 -2.35 20.05 -2.3 20.35 -1.85 Q21.85 -1.65 22.2 -3.25 L21.9 -3.75 21.9 -3.6 21.7 -3.1 21.2 -2.5 M23.8 -6.6 Q22.6 -6.9 22.85 -6.45 L23.05 -6.35 23.05 -6.3 23.35 -5.85 Q24.85 -5.65 25.2 -7.25 L24.9 -7.75 24.9 -7.6 24.7 -7.1 24.2 -6.5 23.8 -6.6 M19.05 -2.35 L19.05 -3.4 Q19.1 -4.1 19.5 -4.5 L20.6 -5.15 Q21.35 -5.4 21.95 -4.75 L22.45 -4.2 22.55 -3.85 22.5 -3.0 Q22.3 -1.65 21.1 -1.35 L20.1 -1.55 19.05 -2.35 M18.7 -7.1 L18.2 -6.5 17.8 -6.6 Q16.6 -6.9 16.85 -6.45 L17.05 -6.35 17.05 -6.3 17.35 -5.85 Q18.85 -5.65 19.2 -7.25 L18.9 -7.75 18.9 -7.6 18.7 -7.1 M17.6 -9.15 Q18.35 -9.4 18.95 -8.75 L19.45 -8.2 19.55 -7.85 19.5 -7.0 Q19.3 -5.65 18.1 -5.35 L17.1 -5.55 16.05 -6.35 16.05 -7.4 Q16.1 -8.1 16.5 -8.5 L17.6 -9.15 M22.5 -8.5 L23.6 -9.15 Q24.35 -9.4 24.95 -8.75 L25.45 -8.2 25.55 -7.85 25.5 -7.0 Q25.3 -5.65 24.1 -5.35 L23.1 -5.55 22.05 -6.35 22.05 -7.4 Q22.1 -8.1 22.5 -8.5 M21.9 -11.75 L21.9 -11.6 21.7 -11.1 21.2 -10.5 20.8 -10.6 Q19.6 -10.9 19.85 -10.45 L20.05 -10.35 20.05 -10.3 20.35 -9.85 Q21.85 -9.65 22.2 -11.25 L21.9 -11.75 M21.95 -12.75 L22.45 -12.2 22.55 -11.85 22.5 -11.0 Q22.3 -9.65 21.1 -9.35 L20.1 -9.55 19.05 -10.35 19.05 -11.4 Q19.1 -12.1 19.5 -12.5 L20.6 -13.15 Q21.35 -13.4 21.95 -12.75" fill="#ffffff" fill-rule="evenodd" stroke="none"/>
    <path d="M2.4 -0.85 L2.35 -0.15 Q2.4 0.7 1.25 1.25 L-1.05 1.5 Q-2.25 1.2 -2.3 0.4 L-2.4 -1.65 Q-3.9 -1.1 -4.25 1.15 -3.75 2.55 -2.45 3.2 -1.35 3.85 -0.1 3.85 L2.3 3.9 2.85 3.6 3.95 0.2 1.95 -2.2 2.4 -0.85 M5.85 2.55 Q5.55 4.5 4.25 6.5 3.3 8.05 0.9 8.4 -0.9 8.7 -2.35 7.8 -3.75 7.0 -4.65 5.55 -5.85 3.75 -5.8 1.5 -5.75 0.75 -5.2 -0.05 -5.45 2.8 -4.0 4.1 -2.6 5.4 -1.1 6.0 L2.0 6.2 Q3.15 5.5 4.15 4.2 5.1 3.05 5.1 1.6 L4.95 -0.15 4.85 -1.15 Q6.15 0.4 5.85 2.55 M-1.25 -2.7 L0.0 -2.85 Q4.55 -3.0 4.55 0.6 3.85 4.8 0.55 4.8 -2.4 4.8 -3.8 3.1 L-4.6 1.35 Q-4.6 -2.0 -1.5 -2.65 L-1.4 -2.75 -1.25 -2.7" fill="#ffffff" fill-rule="evenodd" stroke="none"/>
    <path d="M3.15 -17.05 Q4.65 -16.95 4.65 -16.0 4.65 -14.3 2.85 -14.3 L-3.85 -14.75 -4.1 -15.5 -3.95 -16.5 Q-3.65 -17.05 -2.6 -17.05 L3.15 -17.05 M3.15 -13.05 Q4.65 -12.95 4.65 -12.0 4.65 -10.3 2.85 -10.3 L-3.85 -10.75 -4.1 -11.5 -3.95 -12.5 Q-3.65 -13.05 -2.6 -13.05 L3.15 -13.05 M-24.85 2.75 L-24.9 3.2 -24.8 3.4 -24.85 4.2 -24.85 4.4 Q-24.85 5.55 -25.75 8.6 L-26.95 12.25 Q-27.45 13.65 -27.45 16.05 L-27.45 19.95 -27.7 19.95 -27.7 19.85 -27.8 19.9 Q-28.25 19.55 -28.85 17.8 L-29.45 15.55 -28.95 11.9 Q-28.4 9.8 -27.85 8.75 L-26.3 5.25 -25.1 2.65 -25.1 2.45 -25.0 2.45 -24.85 2.2 -24.8 2.4 -24.85 2.75 M18.05 8.6 L18.15 8.6 18.7 9.1 18.8 9.05 Q21.0 13.15 24.9 16.2 L28.3 18.6 27.35 19.95 27.4 20.05 27.2 20.15 Q25.55 20.15 23.3 18.0 21.6 16.35 20.75 14.85 19.75 13.1 18.75 10.35 18.15 9.65 18.05 8.6 M18.6 9.3 L18.6 9.35 18.7 9.3 18.6 9.3" fill="#ffffff" fill-rule="evenodd" stroke="none"/>
  </g>
</svg>
